<?xml version="1.0" standalone="no"?>
<!DOCTYPE svg PUBLIC "-//W3C//DTD SVG 1.1//EN" "http://www.w3.org/Graphics/SVG/1.1/DTD/svg11.dtd" >
<svg xmlns="http://www.w3.org/2000/svg">
<metadata></metadata>
<defs>
<font id="1-prolook_duckfaceregular" horiz-adv-x="80" >
<font-face units-per-em="2048" ascent="1638" descent="-410" />
<missing-glyph horiz-adv-x="1044" />
<glyph horiz-adv-x="2048" />
<glyph horiz-adv-x="2048" />
<glyph unicode="&#xd;" />
<glyph unicode=" "  horiz-adv-x="1044" />
<glyph unicode="&#x09;" horiz-adv-x="1044" />
<glyph unicode="&#xa0;" horiz-adv-x="1044" />
<glyph unicode="!" />
<glyph unicode="&#x22;" />
<glyph unicode="#" />
<glyph unicode="$" />
<glyph unicode="%" />
<glyph unicode="&#x26;" />
<glyph unicode="'" />
<glyph unicode="(" />
<glyph unicode=")" />
<glyph unicode="*" />
<glyph unicode="+" />
<glyph unicode="," />
<glyph unicode="-" />
<glyph unicode="." />
<glyph unicode="/" />
<glyph unicode="0" horiz-adv-x="1895" d="M103 667q11 -652 902 -673q914 -18 909 794q12 746 -912 724q-962 14 -899 -845zM597 763q23 628 406 634q425 5 420 -620q5 -685 -412 -660q-391 -10 -414 646z" />
<glyph unicode="1" horiz-adv-x="1179" d="M40 0h1099v116h-323v1396h-730v-128h217q66 -2 69 -65v-1203h-332v-116z" />
<glyph unicode="2" horiz-adv-x="1912" d="M40 0h1832v112h-1249q43 232 662 385t583 623q-25 427 -816 392q-844 26 -857 -608h465q22 449 420 496q320 19 355.5 -239t-354 -344t-690.5 -269t-351 -548z" />
<glyph unicode="3" horiz-adv-x="1933" d="M40 0h1208q641 -32 645 419q-7 236 -185 337q160 120 176 348q0 438 -780 408h-1064v-112h992q392 5 392 -312q-9 -261 -228 -272h-716v-116h732q210 -10 212 -256q8 -333 -424 -328h-960v-116z" />
<glyph unicode="4" horiz-adv-x="1908" d="M40 1164q19 -459 460 -464h700v-700h444v700h224v116h-224v696h-444v-696h-456q-234 -12 -260 288v408h-444v-348z" />
<glyph unicode="5" horiz-adv-x="1912" d="M40 704h968q418 3 433 -278q-21 -319 -469 -310h-820v-116h1064q639 8 656 440q-1 358 -424 380h-964v584h1268v108h-1712v-808z" />
<glyph unicode="6" horiz-adv-x="1904" d="M40 335q9 -327 444 -332h812q584 -4 568 440q-54 405 -536 376h-848v308q-10 272 172 276h948v112h-1016q-543 11 -544 -524v-656zM480 379v324h508q315 6 400 -144q161 -471 -592 -432q-313 18 -316 252z" />
<glyph unicode="7" horiz-adv-x="1728" d="M40 1400h1136l-884 -1400h484l912 1512h-1648v-112z" />
<glyph unicode="8" horiz-adv-x="1920" d="M64 412q9 -425 477 -412h872q440 -16 490 348q25 356 -214 408q213 73 201 420q-48 323 -453 336h-948q-350 -32 -412 -332q-37 -289 192 -428q-187 -111 -205 -340zM505 1104q3 255 220 292h546q202 -24 196 -279q-3 -280 -190 -289h-551q-202 40 -221 276zM530 416 q4 257 199 284h545q201 -20 190 -294q10 -268 -190 -290h-548q-185 12 -196 300z" />
<glyph unicode="9" horiz-adv-x="1900" d="M83 1004q13 -312 360 -308h1016v-228q8 -354 -176 -356h-948v-112h1012q552 -3 552 508v656q-22 316 -480 348h-956q-423 -12 -380 -508zM535 984q-89 400 352 416q251 18 404.5 -38t167.5 -246v-300h-580q-286 -13 -344 168z" />
<glyph unicode=":" />
<glyph unicode=";" />
<glyph unicode="&#x3c;" />
<glyph unicode="=" />
<glyph unicode="&#x3e;" />
<glyph unicode="?" />
<glyph unicode="@" />
<glyph unicode="A" horiz-adv-x="2128" d="M40 0h472l263 530h566l283 -530h444l-844 1512h-348zM810 638l246 500l246 -500h-492z" />
<glyph unicode="B" horiz-adv-x="1918" d="M40 0h1215q43 -2 83 -2q540 0 540 394v17q0 252 -165 355q129 87 129 335v15q1 14 1 27q0 373 -556 373q-40 0 -84 -2h-1163v-1512zM486 117v587h736q242 -1 242 -274v-27q0 -286 -366 -286h-28h-584zM486 820v587h718h12q248 0 248 -292v-13q-3 -250 -258 -282h-720z " />
<glyph unicode="C" horiz-adv-x="1909" d="M70 699q0 -701 774 -701q44 0 91 2h964v112h-957q-425 0 -427 644q15 636 476 644h908v112h-912h-46q-870 0 -870 -732v-29q-1 -27 -1 -52z" />
<glyph unicode="D" horiz-adv-x="1908" d="M40 0h940q50 -3 96 -3q792 0 793 718q0 18 -1 37v8q0 753 -945 753q-35 0 -71 -1h-812v-1512zM484 112v1288h431q508 -15 509 -596q1 -23 1 -46q0 -640 -549 -646h-392z" />
<glyph unicode="E" horiz-adv-x="1908" d="M40 616q40 -616 542 -616h26h1260v116h-1024h-16q-344 0 -344 550v34h1324v116h-1324v584h1384v112h-1828v-896z" />
<glyph unicode="F" horiz-adv-x="1910" d="M72 863q0 -29 1 -59v-804h444v696h1324v116h-1324v30q0 554 458 555q15 0 30 -1h896v116h-1160q-669 -35 -669 -649z" />
<glyph unicode="G" horiz-adv-x="1911" d="M87 735q0 -738 791 -738q50 0 104 3h936v760h-1048v-120h604v-23q0 -433 -340 -493q-69 -14 -133 -14q-191 0 -331 122q-151 159 -151 534q0 59 3 124q28 473 400 510h996v32v80h-972q-29 1 -57 1q-747 0 -799 -692q-3 -44 -3 -86z" />
<glyph unicode="H" horiz-adv-x="1908" d="M40 0h444v700h940v-700h444v1512h-444v-696h-940v696h-444v-1512z" />
<glyph unicode="I" horiz-adv-x="1472" d="M40 0h1392v112h-424h-2q-46 0 -46 60v1188q3 40 48 40h424v112h-1392v-112h420q57 -2 56 -72v-1160q-4 -52 -52 -56h-424v-112z" />
<glyph unicode="J" horiz-adv-x="1248" d="M40 0h648q18 -1 36 -1q486 0 484 609v904h-444v-816q1 -575 -366 -580h-358v-116z" />
<glyph unicode="K" horiz-adv-x="1912" d="M40 4h444v656l844 -660h544l-920 752l920 760h-544l-844 -664v664h-444v-1508z" />
<glyph unicode="L" horiz-adv-x="1468" d="M48 615q0 -615 444 -616q14 0 28 1h916v116h-580h-5q-344 0 -359 448v948h-444v-876v-21z" />
<glyph unicode="M" horiz-adv-x="2468" d="M40 4h440v1396q19 1 36 1q520 0 544 -533v-868h444v712q1 26 1 51q0 521 -375 645h302q556 -41 556 -745v-15v-648h440v884q-50 581 -804 628h-1584v-1508z" />
<glyph unicode="N" horiz-adv-x="1908" d="M40 4h444v1396h472q452 -24 468 -616v-784h444v772q-40 702 -844 740h-984v-1508z" />
<glyph unicode="O" horiz-adv-x="1857" d="M55 762q0 -778 851 -778h2h43h40q840 0 841 758q0 24 -1 49q-36 715 -874 730q-888 -12 -902 -732v-27zM490 780v13q0 596 464 616q453 -12 473 -619q-11 -672 -454 -672h-23q-434 2 -460 662z" />
<glyph unicode="P" horiz-adv-x="1858" d="M40 4l444 -4v700h824h32q466 0 478 425q-20 378 -507 387h-1271v-1508zM484 816v584h656q281 -21 284 -272v-18q0 -288 -280 -294h-660z" />
<glyph unicode="Q" horiz-adv-x="1930" d="M40 808q24 -808 896 -808h38q314 8 490 72l120 -72h288l-224 176q242 174 242 623v7q-93 706 -895 706h-20q-884 -16 -935 -704zM498 805q39 593 454 593h23q17 1 33 1q434 0 467 -589q-9 -697 -448 -697q-24 0 -50 2h-14q-451 0 -465 690z" />
<glyph unicode="R" horiz-adv-x="1908" d="M40 0h444v700h568l368 -700h448l-372 704q328 128 328 489v11q-38 308 -427 308h-17h-1340v-1512zM484 816v584h600q334 -6 340 -272q-13 -310 -320 -312h-620z" />
<glyph unicode="S" horiz-adv-x="1901" d="M54 1082q0 -385 372 -386h716h12q303 0 303 -253v-13q1 -15 1 -29q0 -290 -374 -290q-22 0 -46 1h-909v-112h1225q37 -2 71 -2q449 0 449 421v9q-31 384 -403 384h-17h-637q-338 19 -338 280v12q8 292 333 292h2h975v116h-1351q-384 -29 -384 -393v-9v-28z" />
<glyph unicode="T" horiz-adv-x="1904" d="M40 1400h636q51 -2 52 -56v-1344h444v1304q-1 96 73 96h3h616v112h-1824v-112z" />
<glyph unicode="U" horiz-adv-x="1908" d="M41 688q-1 -690 825 -690q42 0 87 2h916v1512h-440v-1400h-516q-428 34 -428 676v24v700h-444v-824z" />
<glyph unicode="V" horiz-adv-x="2128" d="M40 1512l844 -1512h348l786 1512h-402l-566 -1060l-566 1060h-444z" />
<glyph unicode="W" horiz-adv-x="3342" d="M40 1512l824 -1512h300l516 1024l512 -1024h300l810 1512h-446l-496 -936l-504 936h-360l-500 -936l-500 936h-456z" />
<glyph unicode="X" horiz-adv-x="1928" d="M40 0h448l476 516l476 -516h448l-700 764l700 756h-444l-480 -520l-480 520h-444l700 -760z" />
<glyph unicode="Y" horiz-adv-x="1793" d="M40 873q27 -343 344 -344h921q1 -16 1 -32q0 -380 -448 -380h-357v-116h712q529 25 540 660v852h-448v-868h-669q-146 10 -152 228v644h-444v-644z" />
<glyph unicode="Z" horiz-adv-x="1989" d="M49 47q0 -11 5 -22q13 -25 42 -25h7h1736l84 112h-1284l1296 1296q23 25 23 49q0 9 -4 19q-12 32 -50 32h-5h-1604l-100 -112h1164l-1296 -1312q-14 -19 -14 -37z" />
<glyph unicode="[" />
<glyph unicode="\" />
<glyph unicode="]" />
<glyph unicode="^" />
<glyph unicode="_" />
<glyph unicode="`" />
<glyph unicode="a" horiz-adv-x="2128" d="M40 0h472l263 530h566l283 -530h444l-844 1512h-348zM810 638l246 500l246 -500h-492z" />
<glyph unicode="b" horiz-adv-x="1918" d="M40 0h1215q43 -2 83 -2q540 0 540 394v17q0 252 -165 355q129 87 129 335v15q1 14 1 27q0 373 -556 373q-40 0 -84 -2h-1163v-1512zM486 117v587h736q242 -1 242 -274v-27q0 -286 -366 -286h-28h-584zM486 820v587h718h12q248 0 248 -292v-13q-3 -250 -258 -282h-720z " />
<glyph unicode="c" horiz-adv-x="1909" d="M70 699q0 -701 774 -701q44 0 91 2h964v112h-957q-425 0 -427 644q15 636 476 644h908v112h-912h-46q-870 0 -870 -732v-29q-1 -27 -1 -52z" />
<glyph unicode="d" horiz-adv-x="1908" d="M40 0h940q50 -3 96 -3q792 0 793 718q0 18 -1 37v8q0 753 -945 753q-35 0 -71 -1h-812v-1512zM484 112v1288h431q508 -15 509 -596q1 -23 1 -46q0 -640 -549 -646h-392z" />
<glyph unicode="e" horiz-adv-x="1908" d="M40 616q40 -616 542 -616h26h1260v116h-1024h-16q-344 0 -344 550v34h1324v116h-1324v584h1384v112h-1828v-896z" />
<glyph unicode="f" horiz-adv-x="1910" d="M72 863q0 -29 1 -59v-804h444v696h1324v116h-1324v30q0 555 458 555q15 0 30 -1h896v116h-1160q-669 -35 -669 -649z" />
<glyph unicode="g" horiz-adv-x="1911" d="M87 735q0 -738 791 -738q50 0 104 3h936v760h-1048v-120h604v-23q0 -433 -340 -493q-69 -14 -133 -14q-191 0 -331 122q-151 159 -151 534q0 59 3 124q28 473 400 510h996v32v80h-972q-29 1 -57 1q-747 0 -799 -692q-3 -44 -3 -86z" />
<glyph unicode="h" horiz-adv-x="1908" d="M40 0h444v700h940v-700h444v1512h-444v-696h-940v696h-444v-1512z" />
<glyph unicode="i" horiz-adv-x="1472" d="M40 0h1392v112h-424h-2q-46 0 -46 60v1188q3 40 48 40h424v112h-1392v-112h420q57 -2 56 -72v-1160q-4 -52 -52 -56h-424v-112z" />
<glyph unicode="j" horiz-adv-x="1248" d="M40 0h648q18 -1 36 -1q486 0 484 609v904h-444v-816q1 -575 -366 -580h-358v-116z" />
<glyph unicode="k" horiz-adv-x="1912" d="M40 4h444v656l844 -660h544l-920 752l920 760h-544l-844 -664v664h-444v-1508z" />
<glyph unicode="l" horiz-adv-x="1468" d="M48 615q0 -615 444 -616q14 0 28 1h916v116h-580h-5q-344 0 -359 448v948h-444v-876v-21z" />
<glyph unicode="m" horiz-adv-x="2468" d="M40 4h440v1396q19 1 36 1q520 0 544 -533v-868h444v712q1 26 1 51q0 521 -375 645h302q556 -41 556 -745v-15v-648h440v884q-50 581 -804 628h-1584v-1508z" />
<glyph unicode="n" horiz-adv-x="1908" d="M40 4h444v1396h472q452 -24 468 -616v-784h444v772q-40 702 -844 740h-984v-1508z" />
<glyph unicode="o" horiz-adv-x="1857" d="M55 762q0 -778 851 -778h2h43h40q840 0 841 758q0 24 -1 49q-36 715 -874 730q-888 -12 -902 -732v-27zM490 780v13q0 596 464 616q453 -12 473 -619q-11 -672 -454 -672h-23q-434 2 -460 662z" />
<glyph unicode="p" horiz-adv-x="1858" d="M40 0h444v700h824q507 1 510 425q-20 378 -507 387h-1271v-1512zM484 816v584h656q281 -21 284 -272v-18q0 -288 -280 -294h-660z" />
<glyph unicode="q" horiz-adv-x="1930" d="M40 808q24 -808 896 -808h38q314 8 490 72l120 -72h288l-224 176q242 174 242 623v7q-93 706 -895 706h-20q-884 -16 -935 -704zM498 805q39 593 454 593h23q17 1 33 1q434 0 467 -589q-9 -697 -448 -697q-24 0 -50 2h-14q-451 0 -465 690z" />
<glyph unicode="r" horiz-adv-x="1908" d="M40 0h444v700h568l368 -700h448l-372 704q328 128 328 489v11q-38 308 -427 308h-17h-1340v-1512zM484 816v584h600q334 -6 340 -272q-13 -310 -320 -312h-620z" />
<glyph unicode="s" horiz-adv-x="1901" d="M54 1082q0 -385 372 -386h716h12q303 0 303 -253v-13q1 -15 1 -29q0 -290 -374 -290q-22 0 -46 1h-909v-112h1225q37 -2 71 -2q449 0 449 421v9q-31 384 -403 384h-17h-637q-338 19 -338 280v12q8 292 333 292h2h975v116h-1351q-384 -29 -384 -393v-9v-28z" />
<glyph unicode="t" horiz-adv-x="1904" d="M40 1400h636q51 -2 52 -56v-1344h444v1304q-1 96 73 96h3h616v112h-1824v-112z" />
<glyph unicode="u" horiz-adv-x="1908" d="M41 688q-1 -690 825 -690q42 0 87 2h916v1512h-440v-1400h-516q-428 34 -428 676v24v700h-444v-824z" />
<glyph unicode="v" horiz-adv-x="2128" d="M40 1512l844 -1512h348l786 1512h-402l-566 -1060l-566 1060h-444z" />
<glyph unicode="w" horiz-adv-x="3342" d="M40 1512l824 -1512h300l516 1024l512 -1024h300l810 1512h-446l-496 -936l-504 936h-360l-500 -936l-500 936h-456z" />
<glyph unicode="x" horiz-adv-x="1928" d="M40 0h448l476 516l476 -516h448l-700 764l700 756h-444l-480 -520l-480 520h-444l700 -760z" />
<glyph unicode="y" horiz-adv-x="1793" d="M40 873q27 -343 344 -344h921q1 -16 1 -32q0 -380 -448 -380h-357v-116h712q529 25 540 660v852h-448v-868h-669q-146 10 -152 228v644h-444v-644z" />
<glyph unicode="z" horiz-adv-x="1989" d="M49 47q0 -11 5 -22q13 -25 42 -25h7h1736l84 112h-1284l1296 1296q23 25 23 49q0 9 -4 19q-12 32 -50 32h-5h-1604l-100 -112h1164l-1296 -1312q-14 -19 -14 -37z" />
<glyph unicode="{" />
<glyph unicode="|" />
<glyph unicode="}" />
<glyph unicode="~" />
<glyph unicode="&#xa0;" />
<glyph unicode="&#xa1;" />
<glyph unicode="&#xa2;" />
<glyph unicode="&#xa3;" />
<glyph unicode="&#xa4;" />
<glyph unicode="&#xa5;" />
<glyph unicode="&#xa6;" />
<glyph unicode="&#xa7;" />
<glyph unicode="&#xa8;" />
<glyph unicode="&#xa9;" />
<glyph unicode="&#xaa;" />
<glyph unicode="&#xab;" />
<glyph unicode="&#xac;" />
<glyph unicode="&#xad;" />
<glyph unicode="&#xae;" />
<glyph unicode="&#xaf;" />
<glyph unicode="&#xb0;" />
<glyph unicode="&#xb1;" />
<glyph unicode="&#xb2;" />
<glyph unicode="&#xb3;" />
<glyph unicode="&#xb4;" />
<glyph unicode="&#xb6;" />
<glyph unicode="&#xb7;" />
<glyph unicode="&#xb8;" />
<glyph unicode="&#xb9;" />
<glyph unicode="&#xba;" />
<glyph unicode="&#xbb;" />
<glyph unicode="&#xbc;" />
<glyph unicode="&#xbd;" />
<glyph unicode="&#xbe;" />
<glyph unicode="&#xbf;" />
<glyph unicode="&#xc0;" />
<glyph unicode="&#xc1;" />
<glyph unicode="&#xc2;" />
<glyph unicode="&#xc3;" />
<glyph unicode="&#xc4;" />
<glyph unicode="&#xc5;" />
<glyph unicode="&#xc6;" />
<glyph unicode="&#xc7;" />
<glyph unicode="&#xc8;" />
<glyph unicode="&#xc9;" />
<glyph unicode="&#xca;" />
<glyph unicode="&#xcb;" />
<glyph unicode="&#xcc;" />
<glyph unicode="&#xcd;" />
<glyph unicode="&#xce;" />
<glyph unicode="&#xcf;" />
<glyph unicode="&#xd0;" />
<glyph unicode="&#xd1;" />
<glyph unicode="&#xd2;" />
<glyph unicode="&#xd3;" />
<glyph unicode="&#xd4;" />
<glyph unicode="&#xd5;" />
<glyph unicode="&#xd6;" />
<glyph unicode="&#xd7;" />
<glyph unicode="&#xd8;" />
<glyph unicode="&#xd9;" />
<glyph unicode="&#xda;" />
<glyph unicode="&#xdb;" />
<glyph unicode="&#xdc;" />
<glyph unicode="&#xdd;" />
<glyph unicode="&#xde;" />
<glyph unicode="&#xdf;" />
<glyph unicode="&#xe0;" />
<glyph unicode="&#xe1;" />
<glyph unicode="&#xe2;" />
<glyph unicode="&#xe3;" />
<glyph unicode="&#xe4;" />
<glyph unicode="&#xe5;" />
<glyph unicode="&#xe6;" />
<glyph unicode="&#xe7;" />
<glyph unicode="&#xe8;" />
<glyph unicode="&#xe9;" />
<glyph unicode="&#xea;" />
<glyph unicode="&#xeb;" />
<glyph unicode="&#xec;" />
<glyph unicode="&#xed;" />
<glyph unicode="&#xee;" />
<glyph unicode="&#xef;" />
<glyph unicode="&#xf0;" />
<glyph unicode="&#xf1;" />
<glyph unicode="&#xf2;" />
<glyph unicode="&#xf3;" />
<glyph unicode="&#xf4;" />
<glyph unicode="&#xf5;" />
<glyph unicode="&#xf6;" />
<glyph unicode="&#xf7;" />
<glyph unicode="&#xf8;" />
<glyph unicode="&#xf9;" />
<glyph unicode="&#xfa;" />
<glyph unicode="&#xfb;" />
<glyph unicode="&#xfc;" />
<glyph unicode="&#xfd;" />
<glyph unicode="&#xfe;" />
<glyph unicode="&#xff;" />
<glyph unicode="&#x152;" />
<glyph unicode="&#x153;" />
<glyph unicode="&#x178;" />
<glyph unicode="&#x2c6;" />
<glyph unicode="&#x2dc;" />
<glyph unicode="&#x2000;" horiz-adv-x="760" />
<glyph unicode="&#x2001;" horiz-adv-x="1521" />
<glyph unicode="&#x2002;" horiz-adv-x="760" />
<glyph unicode="&#x2003;" horiz-adv-x="1521" />
<glyph unicode="&#x2004;" horiz-adv-x="507" />
<glyph unicode="&#x2005;" horiz-adv-x="380" />
<glyph unicode="&#x2006;" horiz-adv-x="253" />
<glyph unicode="&#x2007;" horiz-adv-x="253" />
<glyph unicode="&#x2008;" horiz-adv-x="190" />
<glyph unicode="&#x2009;" horiz-adv-x="304" />
<glyph unicode="&#x200a;" horiz-adv-x="84" />
<glyph unicode="&#x2010;" />
<glyph unicode="&#x2011;" />
<glyph unicode="&#x2012;" />
<glyph unicode="&#x2013;" />
<glyph unicode="&#x2014;" />
<glyph unicode="&#x2018;" />
<glyph unicode="&#x2019;" />
<glyph unicode="&#x201a;" />
<glyph unicode="&#x201c;" />
<glyph unicode="&#x201d;" />
<glyph unicode="&#x201e;" />
<glyph unicode="&#x2022;" />
<glyph unicode="&#x2026;" />
<glyph unicode="&#x202f;" horiz-adv-x="304" />
<glyph unicode="&#x2039;" />
<glyph unicode="&#x203a;" />
<glyph unicode="&#x205f;" horiz-adv-x="380" />
<glyph unicode="&#x2122;" />
<glyph unicode="&#xe000;" horiz-adv-x="1520" d="M0 0v1520h1520v-1520h-1520z" />
</font>
</defs>
</svg>
