<?xml version="1.0" standalone="no"?>
<!DOCTYPE svg PUBLIC "-//W3C//DTD SVG 1.1//EN" "http://www.w3.org/Graphics/SVG/1.1/DTD/svg11.dtd" >
<svg xmlns="http://www.w3.org/2000/svg">
<metadata></metadata>
<defs>
<font id="1-prolook_royalaciditalic" horiz-adv-x="1138" >
<font-face units-per-em="2048" ascent="1638" descent="-410" />
<missing-glyph horiz-adv-x="569" />
<glyph horiz-adv-x="2048" />
<glyph horiz-adv-x="2048" />
<glyph unicode="&#xd;" horiz-adv-x="569" />
<glyph unicode=" "  horiz-adv-x="569" />
<glyph unicode="&#x09;" horiz-adv-x="569" />
<glyph unicode="&#xa0;" horiz-adv-x="569" />
<glyph unicode="!" horiz-adv-x="546" d="M182 381q37 -113 148 -109q102 -2 166 82q80 174 -68 242l37 37l8 24l193 803q-4 29 -11.5 52.5t-17.5 43.5q-74 63 -172 50q-76 -40 -113 -99l-18 -55l-41 -807q14 -29 31 -45q-150 -82 -142 -219z" />
<glyph unicode="&#x22;" horiz-adv-x="868" d="M332 1686q-6 -41 6 -99l61 -287h50l141 285q31 70 37 105q6 41 -29 74.5t-104 33.5q-61 0 -108.5 -32.5t-53.5 -79.5zM633 1688q-6 -33 10 -101l59 -287h50l137 287q39 80 41 105q4 35 -29 70.5t-102 35.5q-63 0 -111.5 -32.5t-54.5 -77.5z" />
<glyph unicode="#" horiz-adv-x="1280" d="M164 483h137l-135 -389h227l133 389h224l-134 -389h224l133 389h289l30 222h-243l104 294h182l31 222h-137l133 389h-234l-129 -389h-221l131 389h-223l-131 -389h-287l-30 -222h241l-104 -294h-180zM602 705l100 294h222l-101 -294h-221z" />
<glyph unicode="$" horiz-adv-x="946" d="M139 410l37 292q61 59 139 31l25 -31l4 -8q-12 -139 111 -192l47 336q-291 145 -236 424q70 229 328 280q10 68 65 113h119l10 -4q33 -43 27 -109q133 -12 236 -108l6 -31l-31 -217q-10 -23 -33 -43q-61 -25 -121 0q-10 8 -18 31q2 94 -74 159l-37 -266 q309 -156 256 -426q-49 -276 -358 -340q-2 -86 -68 -151h-127q-45 51 -24 145q-158 2 -283 115zM551 1206l12 97l-2 12q-41 -53 -10 -109zM670 543l2 -21q80 88 20 185z" />
<glyph unicode="%" horiz-adv-x="1470" d="M262 1194q203 373 561 299q18 -8 41 -27l43 -36q27 -8 76 -9h29q106 23 205 109h129q39 -25 36 -80q-8 -12 -16 -27.5t-20 -31.5l-76 -105q-2 -6 -7.5 -14t-13.5 -19l-14 -22l-25 -33q-4 -4 -10 -16l-94 -131l-31 -45l-16 -25l-33 -51l-14 -17q152 121 342 105 q147 -29 166 -184q-6 -338 -328 -543q-262 -127 -387 98v4q-29 102 2 230l-111 -160l-16 -25l-25 -32l-6 -13q-16 -16 -31 -43q-10 -10 -19 -24.5t-19 -30.5q-4 -4 -12.5 -18.5t-30.5 -34.5q-35 -12 -82 -9q-111 -23 -111 80q10 25 64 101l6 12l104 143q10 18 21 29l10 20 l14 17l15 22l40 58l7 10l24 33q2 2 5 6t5 10l25 37l18 23q-209 -164 -401 -52q-164 158 -39 412zM479 954q12 -10 33 -12q198 95 227 328q-20 10 -57 37q-172 -135 -203 -353zM901 1130l2 -12l55 80l17 21l4 8l-45 4q-16 -37 -23 -78zM1063 463l27 -12q217 100 229 344 q-16 20 -47 22q-178 -125 -209 -354z" />
<glyph unicode="&#x26;" horiz-adv-x="1429" d="M119 502q45 -256 295 -252q227 -8 403 121q342 -299 629 106q18 63 -19 101q-41 27 -86 24q-164 -168 -286 -4l12 12l4 8l21 21l73 86l6 12l64 92l8 9l21 28q27 41 69 72q84 4 127 68q16 59 -12 112q-12 6 -22.5 10.5t-20.5 6.5h-324q174 432 -290 411 q-383 -137 -295 -536q-358 -174 -377 -508zM461 547q-61 156 94 260q4 -4 7 -10.5t7 -14.5l125 -247q-152 -109 -233 12zM788 1151q-45 129 35 195q154 -27 -18 -181zM852 950l92 56q30 -64 96 -68l-14 -43l-4 -12l-31 -45l-4 -13l-45 -59l-24 47l-9 8l-14 37l-10 21z" />
<glyph unicode="'" horiz-adv-x="454" d="M328 1686q-6 -41 6 -99l61 -287h49l142 285q31 70 37 105q6 41 -29 74.5t-105 33.5q-61 0 -108 -32.5t-53 -79.5z" />
<glyph unicode="(" horiz-adv-x="681" d="M246 866q-33 -236 12 -482.5t164 -479.5h194q-31 96 -51 168.5t-30 124.5q-31 156 -37 326.5t16 336.5q16 119 45 231.5t70 219t104.5 234.5t155.5 282h-193q-78 -96 -146.5 -198.5t-127.5 -215.5q-68 -129 -111 -265t-65 -282z" />
<glyph unicode=")" horiz-adv-x="681" d="M113 -96q119 195 163 293q78 156 132.5 326.5t76.5 336.5q16 119 18.5 231.5t-7.5 219.5q-20 207 -115 516h190q106 -188 162 -414q31 -129 37 -265t-16 -282q-33 -236 -146.5 -482.5t-302.5 -479.5h-192z" />
<glyph unicode="*" horiz-adv-x="796" />
<glyph unicode="+" horiz-adv-x="1196" />
<glyph unicode="," horiz-adv-x="569" d="M197 -78q178 51 278 163t121 255q16 117 -35 182.5t-137 65.5q-37 0 -69.5 -13.5t-59.5 -37t-44.5 -53t-21.5 -62.5q-10 -61 27 -107.5t96 -46.5q43 0 76 17q10 8 18 8t15 -8q2 -6 2 -27q-12 -86 -74.5 -164t-185.5 -129z" />
<glyph unicode="-" horiz-adv-x="821" d="M270 715h684l62 213h-684z" />
<glyph unicode="." horiz-adv-x="636" d="M201 428q-10 -70 32.5 -118t110.5 -48q70 0 125 48t65.5 118t-30.5 119t-113 49q-35 0 -66.5 -13.5t-57 -36t-43 -53t-23.5 -65.5z" />
<glyph unicode="/" horiz-adv-x="569" />
<glyph unicode="0" horiz-adv-x="980" d="M154 801l18 131q23 266 223 508q29 29 84 67l19 9l10 8l88 35h10l27 8l174 -4q358 -147 254 -703q-43 -315 -305 -524q-45 -29 -111 -47l-31 -8h-172l-71 22q-236 158 -217 498zM463 606q2 -23 16 -67q0 -6 4 -13.5t9 -17.5q23 -39 73 -41q39 12 76 55q168 338 131 727 q-4 43 -29 86l-2 8q-23 33 -67 37q-43 -20 -82 -63q-158 -326 -129 -711z" />
<glyph unicode="1" horiz-adv-x="673" d="M115 344q-6 125 141 135q4 14 7 30.5t5 35.5l113 790q-164 -12 -102 146q8 12 28 26l96 25q53 12 89 24l24 5l76 22q86 16 106 -63l-145 -1041q141 -8 98 -143q-14 -18 -39 -37h-469q-23 16 -28 45z" />
<glyph unicode="2" horiz-adv-x="1009" d="M106 336l13 86l14 20l207 191l16 16l123 115l23 22l143 168q6 2 12 17l21 28l37 80l6 21q20 61 6 135q-37 88 -147 82q-127 -29 -185 -180q-16 -23 -45 -37q-82 -17 -129 53q55 334 406 438q315 45 405 -248q35 -326 -303 -604q-18 -23 -57 -53l-121 -111h256 q121 141 182 103q61 -25 39 -103l-49 -88l-16 -28q-6 -27 -25 -53q-10 -20 -19.5 -38t-19.5 -32l-14 -21l-15 -12q-39 -6 -92 -4h-643q-18 10 -29 37z" />
<glyph unicode="3" horiz-adv-x="870" d="M106 410q12 -39 39 -66t52 -35l39 -14q289 -41 526 123q168 147 184 332q31 209 -102 317q205 205 84 420q-135 133 -330 98q-293 -80 -375 -344q12 -88 107 -80q16 8 27.5 14.5t21.5 14.5q158 238 297 100q10 -201 -266 -264q-10 -8 -19.5 -16.5t-17.5 -16.5 q-25 -74 8 -119l22 -12q211 27 261 -129q16 -137 -91 -219q-43 -20 -90 -20q-342 223 -377 -84z" />
<glyph unicode="4" horiz-adv-x="985" d="M113 616l24 172l647 764l27 21h139l23 -21l6 -8q4 -14 5 -28.5t-1 -30.5l-92 -649q102 8 156 -39q2 -29 -7 -62l-16 -119q-66 -61 -170 -49l-29 -198l-6 -25q-27 -45 -78 -45h-163l-27 20q-10 25 -8 54l24 182l-2 16h-375q-31 0 -55 13zM426 831l180 -2l33 238v20z" />
<glyph unicode="5" horiz-adv-x="948" d="M154 377q-8 49 4 123q119 188 379 -17q76 12 137 80q193 395 -330 424q-35 14 -55 57q0 31 8 64q12 18 33 51l4 12q10 12 18 27.5t19 34.5l14 18l43 76l10 12q12 20 21.5 38t19.5 34l6 12q18 25 37 62l35 51l16 12q49 12 115 8h281q12 18 47 39q174 0 69 -168 q-29 -84 -112 -147l-320 -4l-22 -12q524 -123 319 -676q-264 -416 -731 -281q-35 23 -65 70z" />
<glyph unicode="6" horiz-adv-x="980" d="M227 463q53 -84 133 -133l19 -13l67 -22q389 -49 560 311q174 610 -383 565q180 229 426 261q14 8 25 15t22 17q72 172 -140 142q-453 -84 -682 -457q-188 -379 -47 -686zM502 543q-61 188 2 372q23 14 43 22.5t41 12.5q150 -4 151 -155q1 -154 -67 -273l-41 -33 q-18 -4 -34.5 -5t-31.5 1q-39 25 -63 58z" />
<glyph unicode="7" horiz-adv-x="940" d="M213 1223q156 330 184 352h664q27 -4 49 -25q4 -49 -8 -104l-514 -1114q-8 -8 -17.5 -16.5t-19.5 -16.5h-164l-20 4l-23 33l-2 8l381 844v10l29 57l6 17l16 28l-258 5l-35 -5l-32 -12q-14 -12 -30 -28.5t-32 -36.5l-4 -9l-18 -22l-19 -16q-27 -8 -65 -9q-43 15 -68 56z " />
<glyph unicode="8" horiz-adv-x="909" d="M135 537q4 240 223 395q-163 145 -100 387q86 217 338 276q305 45 401 -200q43 -242 -202 -410q141 -102 151 -309q-23 -362 -397 -416q-340 -47 -414 277zM440 508l33 -39q175 -45 189 145q-43 102 -154 183q-123 -131 -68 -289zM520 1282q27 -94 109 -160l18 13 q80 65 90 176q-14 92 -116 88q-86 -23 -101 -117z" />
<glyph unicode="9" horiz-adv-x="993" d="M166 442q-68 -172 141 -139q455 82 676 455q188 367 49 680q-51 84 -133 131l-20 12l-66 25q-391 47 -553 -312q-174 -606 377 -561q-178 -227 -420 -258q-31 -16 -51 -33zM520 1108q0 151 70 270l39 31q18 4 34.5 5t30.5 -1q41 -20 64 -55q59 -182 0 -371 q-45 -27 -86 -35q-152 4 -152 156z" />
<glyph unicode=":" horiz-adv-x="657" d="M268 592q-10 -70 32 -118t110 -48q70 0 126 48t66 118q10 68 -31.5 117t-113.5 49q-35 0 -67 -13.5t-57.5 -36t-43 -53t-21.5 -63.5zM367 1217q-4 -35 5 -65t28.5 -52.5t47 -35.5t62.5 -13q70 0 125 49t65 117q10 70 -31.5 118.5t-111.5 48.5q-35 0 -66.5 -13t-57 -35.5 t-43 -53.5t-23.5 -65z" />
<glyph unicode=";" horiz-adv-x="569" d="M231 92q186 53 303 164t158 254q16 57 13 104.5t-22 79t-52 49t-76 17.5q-37 0 -71.5 -13.5t-63.5 -37t-51.5 -53t-30.5 -62.5q-18 -63 11.5 -109.5t88.5 -46.5q41 0 76 19q18 6 23 6q10 0 10 -8q4 -6 -2 -27q-23 -82 -96.5 -162t-204.5 -129zM518 1217 q-18 -68 16.5 -117t104.5 -49q35 0 68.5 13t63.5 35.5t50.5 52.5t30.5 65q23 70 -13 118.5t-106 48.5t-131 -49t-84 -118z" />
<glyph unicode="&#x3c;" horiz-adv-x="1196" />
<glyph unicode="=" horiz-adv-x="1196" />
<glyph unicode="&#x3e;" horiz-adv-x="1196" />
<glyph unicode="?" horiz-adv-x="823" d="M217 1278q0 -238 229 -131q121 135 27 254q63 33 119 6q53 -27 57 -90l-2 -27q-6 -43 -18 -71l-35 -93l-33 -67l-16 -31q-164 -227 -154 -385q6 -25 19 -43q-111 -68 -123 -180q12 -106 98 -146q129 -16 211 78q82 162 -43 252l10 14l19 41l2 15l12 28l14 35l33 64l14 16 l66 80q305 281 213 567q-125 211 -397 174q-147 -41 -229.5 -130t-92.5 -230z" />
<glyph unicode="@" horiz-adv-x="1609" d="M186 762q51 -440 424 -565q406 -117 766 102q37 123 -43 180q266 150 332 414q80 344 -125 553q-250 215 -582 170q-723 -164 -772 -854zM578 1049q141 315 448 346q188 -4 307 -113l-16 -2l-107 -6q-279 106 -503 -199q-219 -287 -99 -547q-168 242 -30 521zM641 487 q188 -82 358 41q87 -79 191 -79q-319 -117 -549 38zM872 717q4 223 195 332l12 -9q-31 -225 -190 -342zM1253 686q2 6 6.5 17.5t10.5 27.5l6 17l8 18l14 33l7 20l63 154l6 18l8 23l11 22l8 31q20 33 22 59q68 -250 -135 -432z" />
<glyph unicode="A" horiz-adv-x="1253" d="M61 285l13 90q29 49 90 53l22 16l596 1012l17 25q18 45 63 69q15 3 30 3q56 0 91 -44l201 -868q240 -848 594 -872h20q161 0 313 122q-47 64 -47 117q0 79 107 131q41 17 75 17q81 0 124 -95v-16q0 -111 -78 -227q-43 -61 -129 -123l-11 -8l-122 -66l-93 -33 q-96 -23 -185 -23q-480 0 -775 681q-10 14 -105 362l-4 8h-309l-102 -155l-11 -29q99 -8 99 -76q0 -37 -29 -92q-23 -16 -51 -24h-332q-55 14 -72 45zM680 842h145l17 4l-37 117l-8 28l-2 17l-9 20l-65 -119l-8 -12l-23 -43z" />
<glyph unicode="B" horiz-adv-x="1374" d="M188 1262q61 291 373 329h492l32 -4h39l152 -41l51 -24q76 -51 119 -152q15 -57 15 -111q0 -170 -144 -323q117 -104 117 -255q0 -104 -56 -230q-86 -211 -366 -238l-13 -4h-696q-16 10 -35 39q-1 12 -1 22q0 138 141 138h4q16 4 32 16l9 27l125 892l-3 27q-11 1 -22 1 q-48 0 -102 -28q19 -42 18 -83q0 -93 -96 -181q-50 -17 -86 -17q-104 0 -104 135q0 30 5 65zM774 446q50 -11 92 -11q155 0 213 149q6 32 6 59q0 162 -212 162q-22 0 -46 -2q-8 -20 -11 -45t-7 -56zM858 1051q48 -11 88 -11q137 0 184 127q3 22 3 42q0 152 -174 152 q-25 0 -54 -3q-12 -31 -12 -66z" />
<glyph unicode="C" horiz-adv-x="1230" d="M158 770q35 662 655 815h201l180 -51q52 56 111 56q32 0 67 -17q1 -3 1 -17q0 -74 -27 -452q-6 -20 -23 -47q-45 -29 -93 -29q-22 0 -46 6q-18 14 -31 43q-28 279 -231 279q-67 0 -154 -31q-176 -98 -229 -319q-30 -101 -30 -210q0 -77 15 -157q84 -205 256 -205 q103 0 238 74q-1 7 -1 14q0 85 89 156q33 13 66 13q42 0 83 -21q38 -45 37 -103q0 -43 -20 -94q-236 -272 -563 -272q-68 0 -140 12q-395 90 -411 557z" />
<glyph unicode="D" horiz-adv-x="1540" d="M217 1323q104 244 373 272l520 -4l51 -6q23 -6 70 -12l26 -8l29 -9h10l125 -57l62 -45l41 -39l53 -65l2 -9l14 -18q6 -31 27 -61l6 -13q31 -105 31 -216q-1 -35 -3 -69q-12 -148 -79 -307q-147 -297 -467 -407l-43 -8l-47 -15q-16 0 -29 -4l-28 -4h-635q-18 10 -29 27 q-5 26 -5 48q0 125 150 128l13 12q4 16 8 39t8 49l107 766q7 22 7 49q0 11 -1 23l2 12q-14 3 -30 3q-34 0 -75 -15l-8 -10q17 -43 17 -84q0 -98 -101 -183q-40 -10 -72 -10q-115 0 -115 135q0 49 15 115zM782 453q31 -5 62 -5q92 0 194 39q281 146 281 492v29 q-30 356 -383 356h-21z" />
<glyph unicode="E" horiz-adv-x="1409" d="M205 1311q88 297 426 309h813l31 -4q27 -10 38 -35q4 -26 4 -55q0 -53 -14 -117l-8 -57l2 -15l-12 -80l-17 -34q-41 -35 -88 -35l-6 -8v-11q0 -35 -10 -92l-45 -321l-10 -45q-14 -25 -45 -49q-23 -7 -48 -7q-34 0 -69 13q-27 45 -27 110v17q-4 14 -14 26q-25 8 -82 8 h-131l-33 7l-16 -7l-51 -356q38 -10 90 -10q22 0 47 2q35 -6 67 -6q193 0 301 209q10 14 33 30q30 7 61 7t62 -7q16 -16 27 -41l-11 -69l-43 -111l-8 -18l-10 -27l-2 -12q-6 -6 -6 -19l-33 -84l-10 -20l-6 -23l-25 -26l-10 -8q-32 -8 -74 -8q-13 0 -26 1h-869q-25 8 -41 37 q-2 15 -2 28q0 129 156 144q10 27 43 258.5t92 671.5v23q-12 1 -24 1q-52 0 -107 -28q17 -43 17 -84q0 -102 -109 -188q-34 -8 -61 -8q-116 0 -116 136q0 38 9 87zM881 1092l2 -19h137q9 -2 22 -2q21 0 50 6h12q25 0 43 8q20 27 31 68q4 14 10 29.5t14 31.5q43 37 90 39 q1 11 1 21q0 18 -4 36q-7 28 -21 54q-44 18 -101 18h-241q-12 -39 -19 -102z" />
<glyph unicode="F" horiz-adv-x="1339" d="M221 1319q117 258 414 268h815l33 -4q25 -12 43 -47l-41 -326q-2 -4 -5 -8t-5 -10q-47 -33 -107 -35l-63 -461q-8 -14 -19.5 -26.5t-23.5 -26.5q-28 -8 -57 -8t-60 8q-18 18 -25 39v13q0 41 -10 93l-2 9q-55 12 -132 12h-22h-84l-14 -4l-49 -379q125 -8 137 -82 q-6 -124 -111 -124q-9 0 -20 1h-467q-25 20 -33 49q0 148 139 148h7l18 12l6 27l125 882l-4 27q-12 2 -24 2q-48 0 -105 -25q20 -46 20 -89q0 -99 -108 -179q-40 -10 -71 -10q-112 0 -112 132q0 51 17 122zM893 1067l2 -18h131q11 -1 22 -1q22 0 46 5h24l19 4q39 51 55 127 q45 43 111 43q0 63 -27 108q-27 14 -70 15l-12 4h-256q-8 -20 -11 -45t-7 -56z" />
<glyph unicode="G" horiz-adv-x="1370" d="M160 676q98 -476 576 -476q65 0 138 9h17l10 4l21 4l18 4l139 39l33 12q10 6 19.5 10.5t15.5 8.5q23 8 39 16t28 17l39 34l19 43l55 402l10 16q124 14 124 128q0 18 -3 40q-10 10 -20.5 18.5t-16.5 12.5h-471q-37 -18 -55 -43q-13 -41 -13 -71q0 -85 101 -85h14l13 -12 l-47 -338q-97 -43 -177 -43q-148 0 -237 145q-47 105 -47 218q0 70 18 143q37 250 232 389q98 39 174 39q198 0 245 -266l21 -27q45 -12 83 -12h11q18 10 33.5 22.5t30.5 24.5l6 26l12 76q-2 27 1 48.5t7 37.5l2 27v15q0 31 6 57l7 63l10 78q-6 33 -27 55q-28 9 -54 9 q-63 0 -106 -56h-12l-26 8l-43 15q-25 12 -47.5 14t-41.5 10h-14q-12 5 -26 5q-7 0 -15 -1h-176q-653 -164 -653 -874v-39z" />
<glyph unicode="H" horiz-adv-x="1554" d="M186 1255q63 291 375 330h445l26 -4l19 -8q19 -33 19 -72q0 -24 -7 -51q-45 -72 -126 -72h-9l-21 -12l-49 -340h352l50 340q-35 20 -86 20l-19 11l-22 20q-4 25 -3.5 52.5t7.5 58.5q10 16 25.5 29.5t35.5 27.5h504l20 -8q27 -34 27 -81q0 -22 -6 -46q-47 -72 -156 -80 l-8 -27l-72 -518q-30 -137 -29 -262q0 -451 390 -727q39 -18 96 -31q43 -7 86 -7q141 0 289 77q8 119 121 164q143 -10 143 -94q0 -70 -100 -193q-63 -59 -131 -92l-37 -18l-78 -27h-12l-27 -8l-27 -4l-26 -4q-31 -8 -76 -9h-80q-25 -1 -49 -1q-300 0 -533 229 q-263 291 -263 741q0 104 14 217q-16 4 -38 5t-50 -1h-265q-14 -39 -20 -108l-35 -238l25 -2h10q53 0 96 -39q5 -19 5 -41q0 -35 -13 -78q-29 -33 -59 -49h-504q-25 16 -43 39q-2 17 -2 32q0 136 147 136l21 12l125 895v27q-11 1 -23 1q-50 0 -104 -28q17 -42 17 -82 q0 -95 -95 -182q-52 -18 -89 -18q-103 0 -103 134q0 29 5 64z" />
<glyph unicode="I" horiz-adv-x="909" d="M209 1268q57 289 379 329h471q29 -16 45 -49q0 -70 -43 -133q-25 -8 -48.5 -12t-49.5 -4q-12 -4 -43 -8l-119 -856q-4 -14 -5 -31t-1 -37q0 -25 12 -33q14 1 27 1q103 0 103 -86q0 -33 -15 -79q-18 -18 -43 -34h-560q-14 12 -34 43q-2 12 -2 24q0 59 51 115q45 16 110 16 l21 15q2 16 6 37.5t10 48.5l109 776q2 16 3 32.5t-1 36.5h-14q-52 0 -105 -26q17 -42 17 -83q0 -96 -95 -181q-50 -17 -87 -17q-104 0 -104 132q0 29 5 63z" />
<glyph unicode="J" horiz-adv-x="909" d="M199 416q10 109 118 172q34 12 64 12q65 0 115 -57l112 794l-8 29h-14q-51 0 -105 -25q18 -44 18 -85q0 -95 -100 -173q-46 -14 -82 -14q-107 0 -107 132q0 49 15 116q117 254 408 262h399l21 -2l24 -4q18 -16 31 -43q0 -147 -141 -148q-14 -4 -31 -16l-102 -702 q-2 -16 -5.5 -37t-11.5 -47l-2 -13q-2 -14 -7 -30.5t-11 -32.5l-21 -49q-137 -223 -358 -223q-51 0 -107 12l-47 24l-10 8q-43 55 -55 140z" />
<glyph unicode="K" horiz-adv-x="1339" d="M201 1288q78 299 415 318h422q50 -40 50 -90q0 -45 -41 -99q-18 -6 -44 -11t-59 -9h-12l-39 -260l281 260l6 8q-85 3 -85 79q0 27 11 64q12 20 37 43q42 15 102 15h21h364l37 -15q22 -30 22 -69q0 -35 -18 -78q-18 -23 -41 -35l-45 -4l-29 -4q-18 -4 -34.5 -9.5 t-26.5 -13.5q-303 -291 -319 -303q-1 -31 -1 -62q0 -459 252 -857l50 -66l45 -43l8 -8q27 -29 80 -49l39 -17q23 -8 52.5 -10t63.5 0q27 6 43 6l107 39l67 39q-15 51 -15 93q0 147 185 179q106 -26 106 -142q0 -12 -1 -25q-41 -188 -227 -306q-18 -10 -42 -21t-53 -26 l-75 -26l-25 -4l-29 -5l-22 -4l-15 -4h-196q-25 8 -62 13l-59 22l-8 4q-16 2 -47 23l-6 4q-10 6 -21.5 12t-28.5 12q-373 313 -428 981l-84 -90l-38 -266v-20l18 -15q10 1 20 1q56 0 95 -48q2 -11 2 -22q0 -33 -13 -76q-16 -29 -43 -49q-46 -10 -119 -10q-18 0 -38 1h-365 q-29 10 -49 39q-3 22 -3 41q0 123 142 123l21 15q4 16 7 32.5t7 36.5l109 776q8 31 8 82q-16 4 -34 4q-42 0 -93 -24q19 -44 19 -85q0 -95 -97 -179q-49 -16 -85 -16q-105 0 -105 136q0 33 6 74z" />
<glyph unicode="L" horiz-adv-x="1419" d="M199 1272q63 295 379 334h475q27 -16 47 -50v-8q0 -55 -25 -108q-14 -18 -41 -31q-43 0 -104 -18q-18 -63 -31 -170l-106 -754q24 -6 54 -6q18 0 38 2h116l25 4h39l51 12h12l46 23q80 66 133 170l34 30q28 10 52 10q54 0 90 -48l-10 -70q-10 -35 -27 -72 q-4 -12 -10 -25.5t-15 -29.5l-2 -14l-10 -19l-18 -47l-9 -22l-36 -97q-14 -18 -41 -39h-969q-12 14 -33 50v11q0 140 148 140h2l14 19q4 16 8 38.5t8 49.5l111 792v27v26q-14 3 -30 3q-45 0 -101 -25q19 -44 18 -86q0 -96 -96 -180q-52 -19 -90 -19q-101 0 -101 133 q0 29 5 64z" />
<glyph unicode="M" horiz-adv-x="1839" d="M209 1272q76 291 412 313h243q18 -2 31.5 -6t24.5 -10q12 -27 66 -208t149 -525l2 -15l14 -24q4 12 10 24.5t17 26.5l401 721q23 14 47 16h336l25 -4q25 -10 34 -27q6 -22 6 -43q0 -57 -45 -110q-23 -8 -48 -13.5t-58 -7.5l-10 -14l-8 -25l-127 -895q92 -6 133 -65v-12 q0 -131 -108 -132q-16 0 -34 3h-452q-14 14 -31 47q-1 9 -1 17q0 128 142 128l33 8l62 455q6 25 6 55v15l-371 -674q-10 -25 -47 -51h-92l-19 12l-16 43l-170 625l-64 -445l-2 -12l2 -19q23 -8 45.5 -13t49.5 -7q16 -10 32 -35q2 -27 0 -54.5t-12 -55.5l-24 -27l-19 -12 h-463q-18 12 -30 43q-1 9 -1 18q0 128 140 131q18 4 41 12l127 877l-2 25v20h-14q-51 0 -105 -25q18 -44 18 -85q0 -97 -100 -181q-40 -10 -71 -10q-112 0 -112 132q0 33 7 75z" />
<glyph unicode="N" horiz-adv-x="1564" d="M203 1264q78 295 415 311h203l35 -12q29 -31 217 -351q193 -317 199 -327q4 -4 7 -10.5t7 -12.5l68 500q-145 17 -145 89q0 10 3 22q2 51 107 104l389 -2q29 -10 45 -35q3 -22 3 -41q0 -122 -138 -129q-6 -2 -15.5 -4t-21.5 -6l-149 -1057q-6 -47 -39 -80q-31 -9 -65 -9 q-25 0 -52 5q-23 20 -37 55l-14 25q-440 711 -451 733l-6 10l-88 -612l37 -2h4q103 0 103 -85q0 -30 -13 -69q-25 -31 -66 -47h-356q-35 -4 -63 4h-13q-40 37 -40 80q0 47 49 101q23 8 55.5 13t77.5 7l125 901q-24 14 -52 14q-30 0 -65 -16q19 -43 19 -85q0 -92 -93 -175 q-47 -14 -82 -14q-109 0 -110 137q0 31 6 70z" />
<glyph unicode="O" horiz-adv-x="1349" d="M203 524q-38 121 -38 249q0 201 93 421q172 330 537 412q50 5 96 5q498 0 541 -583q-37 -668 -625 -827h-180q-291 25 -424 323zM510 895q-11 -77 -11 -142q0 -297 230 -331q299 47 348 481q15 87 15 159q0 282 -232 322q-295 -53 -350 -489z" />
<glyph unicode="P" horiz-adv-x="1325" d="M209 1272q61 291 375 330h549q254 -10 325 -248l10 -70l5 -8q-46 -520 -609 -520h-26l-41 -291q2 -2 2 -16q125 -14 141 -74q0 -135 -120 -135h-7h-461q-27 16 -35 47q-1 9 -1 18q0 129 137 133q14 6 22 19l127 901q2 18 -12 26h-13q-49 0 -106 -26q18 -44 18 -85 q0 -96 -96 -179q-49 -17 -85 -17q-103 0 -103 137q0 26 4 58zM870 997q16 -2 32 -2q54 0 112 21q119 59 121 209q-16 146 -176 146q-15 0 -31 -1q-8 -20 -11.5 -45t-7.5 -53z" />
<glyph unicode="Q" horiz-adv-x="1320" d="M152 705v13q0 708 641 873q47 4 91 4q486 0 552 -522q2 -32 2 -63q0 -515 -486 -770l47 -43l9 -9l16 -12l8 -8l33 -23l43 -20q14 -6 47 -14q63 62 119 62q62 0 115 -75q2 -13 2 -25q0 -76 -64 -143q-14 -10 -51 -24q-71 -22 -145 -22q-296 0 -642 347q-288 112 -337 474z M502 842q-5 -52 -5 -98q0 -318 263 -318q280 67 323 483q11 73 11 134q0 287 -234 329q-313 -55 -358 -530z" />
<glyph unicode="R" horiz-adv-x="1390" d="M215 1204q-4 33 -4 64q0 279 350 348h600q39 0 82 -12l25 -5h12q12 -8 40 -14t60 -26q6 -2 13.5 -6.5l17.5 -10.5l53 -41q86 -94 86 -252q-25 -252 -278 -401q4 -408 262 -733q135 -165 317 -165q145 0 320 105q-10 27 -10 52q0 68 77 124q22 7 42 7q50 0 85 -45 q5 -25 6 -51q0 -70 -40 -146q-31 -39 -70 -74t-88 -63l-125 -54l-141 -26h-219q-14 4 -30 6l-32 4q-41 10 -72 25q-14 2 -36 12q-10 8 -31 16l-39 21q-399 291 -442 903l-97 -4l-43 -313l21 -17q9 1 17 1q53 0 93 -44q2 -25 0 -50.5t-10 -53.5q-18 -20 -53 -45l-516 -4 q-18 12 -35 24q-12 34 -12 61q0 101 157 123q4 16 7.5 37t7.5 43l121 854l2 29q-36 13 -78 13q-47 0 -101 -17l-8 -8q17 -38 18 -76q0 -73 -65 -145q-48 -37 -100 -37q-34 0 -68 16q-33 22 -49 51zM944 1036q21 -3 41 -3q169 0 219 184q1 10 1 19q0 156 -171 157 q-18 0 -37 -2q-6 -18 -9 -42t-7 -53z" />
<glyph unicode="S" horiz-adv-x="999" d="M132 556v-6q0 -12 3 -20l-2 -16l2 -74q-2 -25 0 -63v-31v-31q-2 -24 -2 -43t2 -34l23 -33q27 -9 53 -9q61 0 111 52q134 -57 249 -57q250 0 414 268q45 118 45 218q0 223 -227 353q-230 131 -229 238q0 38 28 73q49 18 89 18q159 0 194 -276q12 -10 25.5 -18t23.5 -12 q10 -1 19 -1q56 0 102 40q8 20 13 40.5t7 41.5l-2 20q4 23 5 40t-3 34q6 33 6 59l4 62l-2 12l4 26l-2 19v29q5 44 5 69v8q-4 10 -9.5 18.5t-11.5 16.5q-33 14 -62 14q-58 0 -100 -57q-108 55 -226 55q-32 0 -65 -4q-239 -57 -325 -280q-30 -92 -30 -172q0 -94 42 -172 l37 -47q23 -31 45 -47l14 -15q12 -10 22.5 -17l16.5 -11l156 -113l8 -8l25 -23q23 -16 38 -32.5t25 -30.5q14 -33 14 -66q0 -31 -12 -63q-14 -20 -28.5 -36t-28.5 -26q-44 -11 -82 -11q-188 0 -229 273q-14 27 -37 39q-18 3 -35 3q-61 0 -105 -46l-12 -82v-24q-2 -16 -3 -32 z" />
<glyph unicode="T" horiz-adv-x="1189" d="M211 1155l35 242q4 16 8 37.5t8 48.5q4 28 14 53q14 20 43 37h971h9q33 0 57 -27l6 -39v-24l-14 -105q-2 -12 -2 -28q0 -14 -3 -31l-20 -141l-12 -35q-12 -10 -25.5 -18.5t-32.5 -12.5q-13 -3 -26 -3q-43 0 -82 30q-10 39 -12 98q0 20 -11 47l-6 19l-16 20q-42 18 -89 18 q-28 0 -57 -6l-125 -878l2 -23q144 -8 144 -95q0 -28 -14 -63q-16 -29 -50 -47h-549q-25 18 -36 52v10q0 64 49 119q20 8 42.5 11t51.5 5l31 14l8 25l123 870q-30 7 -57 7q-134 0 -177 -179q-8 -10 -17 -20t-20 -21q-34 -15 -69 -15q-20 0 -41 5q-20 14 -39 43z" />
<glyph unicode="U" horiz-adv-x="1570" d="M205 1313q117 260 409 272h424q27 -12 47 -43q2 -16 2 -30q0 -127 -145 -130q-14 -4 -24 -16l-103 -723v-70q6 -47 37 -90q76 -55 151 -54q115 0 230 124l12 27l8 28l7 15q4 16 8 37.5t8 48.5l78 561q5 17 5 37q0 15 -3 32l2 13l-10 26q-120 0 -120 88q0 34 17 80 q12 10 24.5 20.5t28.5 18.5h424q25 -8 45 -33l-14 -122q-57 -51 -141 -56l-21 -45l-98 -672l-6 -14l-4 -31l-13 -28l-8 -35q-10 -25 -18 -44.5t-19 -35.5l-6 -12q-172 -261 -467 -261q-20 0 -41 1q-25 -2 -48 -2q-249 0 -355 262l-14 73v27q2 31 -5 61l5 29l-2 15l96 677 l-8 27h-7q-50 0 -112 -27q18 -44 18 -85q0 -97 -100 -181q-47 -14 -82 -14q-107 0 -107 135q0 50 15 119z" />
<glyph unicode="V" horiz-adv-x="1605" d="M186 1180q25 358 402 405h475l16.5 -11t20.5 -18q5 -26 5 -48q0 -112 -138 -126q8 -16 28.5 -89.5t53.5 -207.5q72 -268 77 -276l285 569q-105 12 -105 93q0 36 21 85q23 18 45 29h387q23 -12 41 -43l-14 -106q-41 -49 -98 -50l-23 -16l-479 -932l-6 -16q-2 -2 -5.5 -6 t-5.5 -13l-65 -124l-12 -31l-25 -27q-25 -6 -53 -8q-14 -1 -28 -1t-28 1q-29 25 -30 57l-303 1069l-13 27q-17 3 -34 3q-50 0 -105 -26q18 -38 18 -80q0 -55 -32 -116q-85 -92 -149 -92q-76 0 -124 125z" />
<glyph unicode="W" horiz-adv-x="2029" d="M205 1280q74 299 418 317h360q16 0 53 -10l19 -16q27 25 55 26h420q35 0 65 -14q24 -49 24 -85q0 -90 -144 -109l118 -506l217 454l7 27l6 25q-99 10 -99 88q0 33 17 77q14 18 35 33q34 8 72 10q19 1 40.5 1t44.5 -1h201q27 0 55 -18l13 -12q4 -19 4 -39q0 -40 -15 -86 q-41 -49 -104 -53l-21 -17l-526 -1126l-29 -27q-21 -5 -43 -5q-33 0 -69 11l-15 27l-96 479l-6 12l-12 62l-6 16l-267 -559l-10 -16q-40 -32 -84 -32q-26 0 -55 11q-23 43 -242 1143l-8 8q-16 3 -33 3q-45 0 -98 -23q19 -43 18 -84q0 -89 -86 -172q-59 -23 -100 -23 q-99 0 -100 132q0 32 6 71zM944 1389l111 -502l129 264l6 23l-64 219q-51 0 -98 26q-28 -21 -58 -21q-8 0 -16 1z" />
<glyph unicode="X" horiz-adv-x="1579" d="M211 1300q84 268 375 299l479 -4q29 -8 51 -34q5 -25 5 -46q0 -109 -134 -124l105 -211l172 198l12 13q-88 13 -88 82q0 36 24 88q18 18 48 34h440q20 -16 41 -34q2 -14 2 -29q0 -46 -19 -96q-57 -45 -125 -45l-40 -21q-37 -27 -365 -395l248 -486l31 -43q31 -16 79 -20 l31 -23q7 -22 7 -48q0 -40 -17 -87q-18 -23 -39 -35h-549q-20 6 -39 27q-6 27 -6 51q0 113 135 123l-49 94l-4 19l-59 121l-15 30l-231 -270q103 0 103 -78q0 -35 -21 -86q-18 -20 -45 -31h-449q-23 20 -33 66q4 55 35 104q43 25 96 31l7 4q43 33 434 467l-213 420 q-14 25 -37 45l-2 12h-14q-49 0 -107 -24q21 -53 21 -98q0 -123 -156 -189q-136 11 -136 144q0 38 11 85z" />
<glyph unicode="Y" horiz-adv-x="1579" d="M236 1100q-41 59 -41 129q0 77 51 168q119 172 334 198h477l22 -8q27 -50 27 -87q0 -81 -125 -107l145 -299l220 303q-92 8 -92 79q0 35 22 85q10 10 22.5 18t26.5 16h408q27 -16 43 -39q1 -10 1 -19q0 -54 -28 -110q-18 -14 -42 -22t-50 -12l-35 -23l-14 -8l-379 -488 l-21 -26l-4 -8l-51 -363v-31q28 -14 65 -14q12 0 25 2l41 -12q22 -32 22 -71q0 -36 -18 -77q-16 -20 -43 -34h-571q-25 12 -35 47q-2 12 -2 24q0 64 55 115q28 9 62 9q12 0 24 -1l25 4q14 -2 26 13l52 366l-293 561l-78 -4q-8 -2 -18.5 -7t-24.5 -13q17 -39 17 -79 q0 -69 -48 -142q-57 -58 -118 -58q-40 0 -82 25z" />
<glyph unicode="Z" horiz-adv-x="1224" d="M98 256q-6 22 -6 47q0 32 10 70l793 985l-279 -4l-36 -4q-16 -4 -34 -12.5t-34 -18.5q-55 -57 -74 -145l-16 -27q-16 -14 -47 -31q-16 -3 -31 -3q-58 0 -94 50q0 68 26 148l3 12l16 59q4 18 10 42t10 51l17 59q10 14 21.5 25.5t25.5 21.5h924q33 0 51 -31q4 -20 4 -40 q0 -28 -8 -58q-14 -20 -32 -43t-42 -51l-686 -856q-14 -25 -27 -35q23 -8 60 -4h276l62 16l26 15q68 72 109 180l26 24q32 15 74 15h14q31 -10 58 -43l-86 -375q-12 -27 -37 -51q-33 -8 -73 -10q-22 -1 -47 -2q-20 0 -40 1h-831q-5 -1 -9 -1q-29 0 -47 24z" />
<glyph unicode="[" horiz-adv-x="569" />
<glyph unicode="\" horiz-adv-x="569" />
<glyph unicode="]" horiz-adv-x="569" />
<glyph unicode="^" horiz-adv-x="960" />
<glyph unicode="_" />
<glyph unicode="`" horiz-adv-x="681" />
<glyph unicode="a" horiz-adv-x="880" d="M106 469q57 -187 209 -187q95 0 226 72q52 -64 125 -64q9 0 18 1q150 2 234 123q12 43 12 74q0 70 -65 70q-21 0 -48 -7l57 407q-6 20 -2 52l-2 20q-10 55 -32 92q-103 103 -260 103q-37 0 -78 -6q-207 -48 -289 -222q-7 -32 -7 -59q0 -115 130 -125q-228 -119 -228 -338 v-6zM414 578q33 100 135 137l2 -13l-19 -137q-45 -32 -73 -32q-34 0 -45 45zM455 870q47 58 47 121q0 13 -2 27q12 8 22 11t19 5q51 -9 51 -48q0 -11 -4 -23l-6 -45l-76 -27q-14 -8 -26.5 -13.5t-24.5 -7.5z" />
<glyph unicode="b" horiz-adv-x="980" d="M193 424q86 -129 237 -133q34 -3 66 -3q398 0 540 402l25 176q-35 353 -299 353q-78 0 -176 -31l41 303q10 37 4 59q-33 43 -83 43q-11 0 -24 -2l-35 -12l-14 -4l-16 -8l-92 -25q-74 -16 -123 -43q-27 -50 -27 -84q0 -64 96 -72l-106 -763q-15 -72 -15 -131q0 -13 1 -25z M489 512l37 262q10 96 31 158q43 25 80 35q119 -23 119 -168q0 -67 -25 -160q-50 -151 -152 -151q-41 0 -90 24z" />
<glyph unicode="c" horiz-adv-x="870" d="M147 625q25 -324 320 -349h8q289 0 453 297q7 22 7 41q0 45 -38 74q-22 10 -44.5 10t-43.5 -10q-103 -140 -214 -140q-39 0 -79 17q-74 76 -74 175q0 24 4 48q14 129 113 205q37 17 75 17h11q8 -145 117 -193q202 9 202 185q0 10 -1 20q-62 187 -288 187q-38 0 -81 -5 q-441 -133 -447 -579z" />
<glyph unicode="d" horiz-adv-x="980" d="M154 471q109 -196 290 -196q78 0 170 36q10 -10 18.5 -17t18.5 -13q13 -1 25 -1h12q17 1 33 5l16 8l45 10q14 8 25.5 11t21.5 5l68 25l16 4l68 25q10 10 19.5 19t17.5 20q10 32 10 56q0 77 -100 77l137 995q-34 45 -87 45q-12 0 -24 -2l-51 -18q-29 -4 -43 -13l-39 -12 h-12l-18 -8q-70 -12 -109 -33q-31 -31 -37 -76q0 -89 85 -89q9 0 18 1l-19 -131q-45 7 -88 7q-217 0 -367 -183q-146 -198 -146 -393q0 -82 26 -164zM432 713v11q0 207 152 292q75 -1 104 -60v-32l-39 -287q-4 -29 -7 -52.5t-11 -39.5q-31 -25 -64 -29q-136 18 -136 171 q0 13 1 26z" />
<glyph unicode="e" horiz-adv-x="890" d="M150 766q-19 -79 -19 -149q0 -169 107 -289l26 -21l60 -33q74 -17 141 -17q275 0 442 282q38 53 38 92q0 52 -68 78q-39 0 -62 -9q-129 -177 -235 -177q-73 0 -136 85v27l426 246q57 32 57 88q0 51 -46 121q-83 130 -269 130q-28 0 -59 -3q-354 -111 -403 -451zM432 829 q-8 29 -8 54q0 92 108 131h9q71 0 100 -62z" />
<glyph unicode="f" horiz-adv-x="763" d="M90 330v11q0 126 127 126h8q8 2 17 14l69 500q-7 -1 -14 -1q-70 0 -109 54l17 113q46 52 117 52q12 0 24 -1q47 293 346 381h152q145 -30 145 -160q0 -30 -8 -65q-78 -95 -149 -95q-82 0 -154 127q-39 -80 -39 -192q36 5 66 5q115 0 129 -77q-2 -66 -56 -125 q-44 -13 -101 -13q-15 0 -30 1q-18 4 -43 -4l-63 -455v-24v-17q0 -8 4 -16l92 -6l22 -12q21 -31 21 -61q0 -48 -55 -95h-504q-10 8 -31 35z" />
<glyph unicode="g" horiz-adv-x="940" d="M47 115q4 141 137 247q-17 39 -17 77q0 100 120 188q-73 80 -73 187q0 71 32 153q92 184 307 239h143l23 -4l14 -4l107 -41h143l45 -4l29 -18q7 -37 7 -67q0 -128 -126 -134q-8 -303 -340 -391q30 2 57 2q283 0 287 -254q-45 -217 -287 -309q-129 -57 -256 -57 q-140 0 -276 69q-59 49 -76 121zM326 213q80 -47 172 -47q100 0 215 55l24 29q-47 13 -108 13q-15 0 -31 -1l-94 4l-43 4h-37l-35 4l-20 5q-31 -29 -43 -66zM508 850q0 -102 84 -117q56 35 56 121q0 37 -11 84q-6 59 -72 76q-59 -48 -59 -132q0 -15 2 -32z" />
<glyph unicode="h" horiz-adv-x="1009" d="M78 336v11q0 115 119 132l118 842l7 14q-94 0 -94 75q0 25 10 58q10 18 30 35l123 37l39 12l35 13q37 8 63 18q15 3 28 3q55 0 81 -54l-49 -356q113 36 195 36q224 0 224 -264q0 -78 -20 -180l-41 -289q51 -10 84 -51l-12 -92l-6 -12q-25 -23 -51 -25h-852q-16 12 -31 37 zM494 483q34 -22 77 -22q34 0 74 14q20 66 29 158l37 291q0 2 -1 6t1 10q-17 33 -59 33h-5q-49 -23 -96 -62l-55 -387z" />
<glyph unicode="i" horiz-adv-x="620" d="M129 303q-29 32 -29 68q0 41 37 86q43 16 94 16l11 8q8 39 18 99l51 364q-15 -2 -29 -2q-88 0 -87 80q0 13 2 29q6 10 14 23.5t22 27.5l312 106q47 0 82 -43q0 -29 -3 -67.5t-14 -85.5l-73 -531q63 -4 106 -45q2 -16 -1 -38.5t-7 -51.5l-2 -10l-16.5 -16.5t-18.5 -16.5 h-469zM420 1274q-78 69 -78 135q0 87 137 168q22 4 42 4q107 0 153 -113q-13 -202 -182 -202q-33 0 -72 8z" />
<glyph unicode="j" horiz-adv-x="489" d="M-129 133q-7 -33 -7 -60q0 -111 113 -141q48 -9 93 -9q214 0 348 202l4 12q18 35 29.5 65.5t17.5 53.5l6 16l123 881q-23 43 -63 55h-25l-39 -12l-25 -10l-51 -17q-12 -4 -16 -8l-17 -4l-51 -16l-16 -4l-92 -31q-25 -25 -39 -57q-2 -15 -2 -28q0 -83 88 -83q14 0 31 2 l-103 -723l-20 -80q-68 92 -139 92q-72 0 -148 -96zM322 1368q38 -106 130 -106q25 0 54 8q135 59 135 172q0 13 -2 26q-32 114 -142 114q-22 0 -48 -5q-129 -64 -129 -180q0 -14 2 -29z" />
<glyph unicode="k" horiz-adv-x="1009" d="M70 328q-2 14 -2 27q0 112 139 128l121 852h-15q-97 0 -96 73q0 30 16 73q10 12 39 30l64 17l18 4l47 12l21 4l45 17q14 2 27.5 6t29.5 8l15 4q14 3 27 3q43 0 73 -30l6 -36l-72 -516v-27q25 27 64 51l8 8q-26 32 -26 63q0 49 65 97l369 4l18 -4l16 -4q23 -23 33 -59 q-6 -57 -51 -101q-35 -10 -82 -12l-33 -4q-10 -4 -31.5 -15.5t-56.5 -31.5l-20 -17l-8 -8l-33 -20q-10 -12 -31 -25q-10 -10 -22.5 -20.5t-30.5 -22.5l-29 -25q12 -16 31 -43l8 -8l21 -41q6 -8 13 -17t13 -22l15 -16l24 -43q10 -16 15.5 -24.5t11.5 -16.5l24 -37l17 -22 l22 -29q43 -35 119 -51q20 -10 27 -29q3 -16 3 -31q0 -60 -52 -102h-889q-29 4 -45 29zM500 475q21 -6 41 -6q12 0 24 2l-37 66l-18 22z" />
<glyph unicode="l" horiz-adv-x="600" d="M90 344v10q0 116 141 125q4 14 7.5 30.5t5.5 35.5l112 790q-12 -1 -22 -1q-98 0 -98 75q0 30 16 72q8 14 31 26l96 25q29 6 49.5 12t38.5 12l25 5l75 22q14 3 27 3q62 0 80 -66l-146 -1041q109 -6 109 -88q0 -24 -10 -55l-17.5 -17.5t-21.5 -19.5h-469q-25 16 -29 45z " />
<glyph unicode="m" horiz-adv-x="1460" d="M77 372q3 25 7 54q45 49 117 49q6 31 12 64l59 422h-14q-87 0 -87 72q0 25 11 59q12 16 43 38q63 12 162 50l66 18l18 8q13 2 26 2q57 0 87 -53q98 57 183 57q110 0 200 -94q108 88 251 88h13q168 0 215 -172l10 -78v-24l-59 -453q98 -9 98 -82q0 -29 -16 -69 q-14 -14 -43 -29h-357q-11 -1 -22 -1h-13q-18 1 -40 5l-23 -4h-414l-18 8q-16 -4 -36.5 -7t-43.5 -1h-317h-6q-39 0 -68 25q-2 13 -2 27q0 10 1 21zM496 475q33 -9 68 -9q42 0 89 13l60 420q2 14 1 31t-5 35q-18 12 -43 12q-51 -10 -109 -53zM948 514l2 -20l2 -19 q29 -9 62 -9q40 0 86 13q4 14 7 29.5t5 34.5l51 364l-4 58q-16 12 -49 12q-53 -12 -104 -57z" />
<glyph unicode="n" horiz-adv-x="1009" d="M109 326q-1 10 -1 20q0 103 117 123l68 485q-10 -2 -19 -2q-46 0 -75 41l14 97l23 24l10 8l104 31l17 4l16 4l96 33l17 8q15 3 28 3q54 0 86 -52q37 31 95 45q35 4 66 4q248 0 248 -245q0 -66 -18 -150l-43 -338q55 -6 86 -55l-10 -84l-14 -21q-20 -14 -51 -18h-828 q-12 8 -32 35zM518 469q30 -14 65 -13.5t74 13.5q4 14 7.5 30.5t7.5 35.5l47 335q4 14 6 31q1 6 1 12q0 12 -3 25q-18 27 -47 29q-47 -16 -96 -62z" />
<glyph unicode="o" horiz-adv-x="970" d="M135 651q39 -373 373 -373q47 0 100 7q418 121 426 559q-33 369 -390 369q-42 0 -87 -5q-422 -127 -422 -545v-12zM449 713q-2 23 -2 45q0 123 75 225q31 23 66 33q23 -2 39 -7.5t32 -13.5q69 -90 69 -203q0 -24 -3 -49q-4 -133 -82 -239q-33 -23 -61 -33q-45 2 -76 25 q-58 91 -57 197q-1 10 0 20z" />
<glyph unicode="p" horiz-adv-x="1011" d="M35 -39q16 -31 35 -41h364q24 -5 44 -5q84 0 114 83q1 11 1 21q0 84 -80 84q-14 0 -30 -3l-22 19l24 168q51 -11 99 -11q161 0 297 125q204 228 204 494v18q-53 326 -283 326q-85 0 -194 -45q-35 43 -86 43q-12 0 -24 -2q-25 -8 -33 -16l-88 -29q-14 -6 -25.5 -10 t-21.5 -6l-99 -33l-22 -21q-21 -48 -21 -81q0 -71 99 -72l-119 -856q-133 -15 -133 -139v-11zM518 530l57 404q35 33 74 47q47 0 74 -14q57 -87 57 -184q0 -120 -86 -257q-18 -14 -35.5 -24t-35.5 -17q-68 0 -105 45z" />
<glyph unicode="q" horiz-adv-x="999" d="M166 905q141 322 373 322q85 0 182 -43l90 30q36 8 70 8q87 0 159 -51q40 -26 40 -64q0 -60 -101 -149l-121 -849q103 -9 103 -86q0 -27 -13 -62q-23 -29 -43 -41h-364q-26 -5 -46 -5q-86 0 -92 83q16 104 112 104q12 0 26 -2l26 17l25 168q-56 -11 -105 -11 q-163 0 -262 123q-90 146 -90 309q0 96 31 199zM438 543q27 -27 64 -43q68 0 127 47l59 428q-35 39 -67 47q-45 0 -82 -12q-132 -140 -132 -303q0 -79 31 -164z" />
<glyph unicode="r" horiz-adv-x="739" d="M96 307q-17 28 -17 57q0 47 44 97q8 4 18.5 6t22.5 4l45 12l65 469q-10 -1 -20 -1q-80 0 -80 73q0 22 8 51q14 25 45 45q18 4 41 12.5t51 20.5l48 10q12 12 32 13l13 8l18 4l45 16l12 8q13 2 25 2q52 0 82 -43q85 47 147 47q95 0 138 -110l-15 -109q-6 -14 -22 -34l-4 -9 q-62 -51 -122 -51q-58 0 -114 47q-10 -10 -19.5 -24.5t-21.5 -30.5l-51 -360q-2 -12 -3 -26.5t3 -31.5h11q78 0 112 -55q1 -7 1 -15q0 -41 -28 -90l-28 -20h-457z" />
<glyph unicode="s" horiz-adv-x="792" d="M119 332l43 309l6 18q57 41 129 41q-98 65 -98 187q0 31 6 65q47 197 287 256h147l33 -4l55 -20q29 14 60 14q26 0 53 -10l24 -33l-26 -274l-17 -33q-37 -27 -100 -37q138 -83 138 -203q0 -92 -81 -205q-145 -128 -325 -128q-84 0 -177 28q-37 -18 -76 -18q-19 0 -38 4 q-31 8 -43 43zM344 659q8 -193 127 -193q31 0 70 13l14 37q-6 10 -12 19.5t-17 19.5q-12 10 -45 25l-71 45l-23 8zM492 956l100 -63l33 -21q23 -14 26 -16q-4 80 -57 156q-29 12 -68 12q-40 -17 -40 -45q0 -11 6 -23z" />
<glyph unicode="t" horiz-adv-x="624" d="M166 1034q27 -51 88 -61l-74 -514l4 -33q8 -23 9 -43q49 -104 149 -113q11 -1 22 -1q193 0 306 169q5 19 5 35q0 46 -38 74q-23 9 -45 9q-51 0 -92 -50h-21v29l62 444q20 -2 38 -2q151 0 150 149q-12 65 -126 65q-15 0 -32 -1q17 63 17 107q0 102 -89 102h-10h-8 q-27 -16 -44 -35t-31 -39l-5 -6l-14 -16l-14 -17l-15 -16l-100 -96l-29 -17q-31 -20 -53 -51z" />
<glyph unicode="u" horiz-adv-x="960" d="M176 1176q6 8 16.5 17t22.5 19h297l25 -4q16 -23 26 -59l-80 -569q23 -37 57 -37q38 0 89 45l63 440q-111 3 -111 87q0 14 3 30q12 31 45 63q15 5 36 5q11 0 23 -1h277l16 -8q10 -12 20 -41l-86 -610q92 -3 92 -79q0 -25 -10 -58q-53 -51 -137 -64l-96 -33l-16 -4 l-39 -12l-9 -4h-51q-29 14 -43 49q-108 -57 -192 -57q-152 0 -224 188q-2 18 -2 38q0 44 9 99l57 404l-6 20q-82 8 -82 79q0 25 10 57z" />
<glyph unicode="v" horiz-adv-x="950" d="M172 1081v5q0 72 53 122h398l20 -18l6 -8q5 -20 5 -37q0 -74 -85 -113l64 -235l6 -13l131 252q-64 23 -64 77q0 30 19 69l37 26h301q6 -6 13 -15t18 -19l-15 -93q-31 -37 -82 -53l-389 -702q-37 -37 -81 -37q-25 0 -52 12q-14 14 -215 717l-14 18q-47 2 -74 45z" />
<glyph unicode="w" horiz-adv-x="1323" d="M174 1085v5q0 72 53 122h318q9 1 18 1q18 0 37 -5l14 -8q27 12 60 12h10h336l29 -4q28 -41 28 -74q0 -67 -114 -102l61 -239l125 231l6 16q-58 21 -58 84q0 14 3 29q20 39 51 59h272q8 -6 15.5 -15t17.5 -19l-12 -88q-14 -25 -51 -46l-25 -34q-10 -20 -23.5 -46 t-31.5 -55l-285 -532q-37 -55 -63 -76q-21 -8 -44 -8q-31 0 -65 16q-29 43 -92 328l-172 -281q-12 -18 -37 -43l-14 -12q-27 -7 -54 -7l-36 3q-29 29 -45 68l-9 28l-153 613l-13 26q-28 14 -57 53zM543 1032l57 -223q0 -20 10 -37q14 31 37 66l47 80q-33 121 -98 143 q-20 -14 -43 -17z" />
<glyph unicode="x" horiz-adv-x="1024" d="M70 336l12 84l6 10q39 39 88 41q41 35 80 88l96 117l15 14l26 33l15 16l14 17l-23 43q-12 14 -24 49l-43 76l-2 12l-31 55l-14 17l-6 12h-9q-59 0 -88 51q-1 6 -1 12q0 64 59 109h352h14q22 0 53 -4l23 4h289q29 -4 47 -29q5 -17 5 -34q0 -9 -1 -17q-4 -26 -14 -53 q-6 -8 -15.5 -16.5t-21.5 -16.5q-33 -2 -82 -18l-27 -21l-35 -45l-22 -27l-10 -8l-54 -67l-20 -21l63 -121q6 -8 11.5 -22t15.5 -25l25 -53q10 -23 28 -51l13 -29q16 -18 20 -26l14 -17q37 -4 74 -33q8 -26 8 -52t-8 -54q-6 -10 -17.5 -20.5t-27.5 -20.5h-395q-37 34 -37 71 q0 46 57 97q-14 14 -26 49l-7 6l-12 29l-8 8l-78 -100q34 -33 34 -67q0 -45 -60 -93h-304q-10 6 -17 16.5t-17 24.5z" />
<glyph unicode="y" horiz-adv-x="1024" d="M106 16q-20 37 -20 75q0 61 49 126q66 51 137 51q51 0 105 -26q31 33 54.5 72.5t43.5 86.5l4 9q-2 41 -196 622q-47 13 -80 58q-1 6 -1 13q0 62 54 109h412l20 -18l6 -8q7 -24 7 -44q0 -80 -103 -106l70 -219l12 -29q8 18 33.5 71.5t72.5 146.5l17 34q-54 24 -54 76 q0 27 15 62q16 25 55 34h277q8 -6 14 -15t16 -19l-14 -97q-33 -29 -78 -49l-532 -966l-19 -17l-8 -12l-29 -25q-92 -65 -175 -65q-87 0 -165 69z" />
<glyph unicode="z" horiz-adv-x="860" d="M77 373q3 26 9 57q12 20 43 57l6 9l256 321l94 117l11 14l10 8l45 60h-94l-47 -6q-23 -33 -29 -80l-19 -33q-42 -34 -91 -34q-15 0 -31 3q-16 8 -39 33q-2 15 -2 32q0 34 8 75l4 28q6 45 18 103l2 14l13 31l6 8q10 10 35 24h651q20 -10 37 -32q1 -12 1 -24q0 -36 -9 -71 l-451 -559l-16 -28h123l28 4l41 12l21 21l4 8q23 135 131 141q39 -6 72 -35q1 -6 1 -13q0 -69 -51 -269l-10 -33l-59 -35l-678 -2q-23 2 -43 25q-2 13 -2 27q0 11 1 22z" />
<glyph unicode="{" horiz-adv-x="684" />
<glyph unicode="|" horiz-adv-x="532" />
<glyph unicode="}" horiz-adv-x="684" />
<glyph unicode="~" horiz-adv-x="1196" />
<glyph unicode="&#xa1;" horiz-adv-x="681" />
<glyph unicode="&#xa2;" />
<glyph unicode="&#xa3;" />
<glyph unicode="&#xa5;" />
<glyph unicode="&#xa6;" horiz-adv-x="532" />
<glyph unicode="&#xa7;" />
<glyph unicode="&#xa8;" horiz-adv-x="681" />
<glyph unicode="&#xa9;" horiz-adv-x="1509" />
<glyph unicode="&#xaa;" horiz-adv-x="757" />
<glyph unicode="&#xab;" />
<glyph unicode="&#xac;" horiz-adv-x="1196" />
<glyph unicode="&#xad;" horiz-adv-x="821" d="M270 715h684l62 213h-684z" />
<glyph unicode="&#xae;" horiz-adv-x="1509" />
<glyph unicode="&#xaf;" horiz-adv-x="1130" />
<glyph unicode="&#xb0;" horiz-adv-x="819" />
<glyph unicode="&#xb1;" horiz-adv-x="1124" />
<glyph unicode="&#xb2;" horiz-adv-x="681" />
<glyph unicode="&#xb3;" horiz-adv-x="681" />
<glyph unicode="&#xb4;" horiz-adv-x="681" />
<glyph unicode="&#xb5;" horiz-adv-x="1179" />
<glyph unicode="&#xb6;" horiz-adv-x="1099" />
<glyph unicode="&#xb7;" horiz-adv-x="681" />
<glyph unicode="&#xb8;" horiz-adv-x="681" />
<glyph unicode="&#xb9;" horiz-adv-x="681" />
<glyph unicode="&#xba;" horiz-adv-x="747" />
<glyph unicode="&#xbb;" />
<glyph unicode="&#xbc;" horiz-adv-x="1708" />
<glyph unicode="&#xbd;" horiz-adv-x="1708" />
<glyph unicode="&#xbe;" horiz-adv-x="1708" />
<glyph unicode="&#xbf;" horiz-adv-x="1251" />
<glyph unicode="&#xc0;" horiz-adv-x="1366" />
<glyph unicode="&#xc1;" horiz-adv-x="1366" />
<glyph unicode="&#xc2;" horiz-adv-x="1366" />
<glyph unicode="&#xc3;" horiz-adv-x="1366" />
<glyph unicode="&#xc4;" horiz-adv-x="1366" />
<glyph unicode="&#xc5;" horiz-adv-x="1366" />
<glyph unicode="&#xc6;" horiz-adv-x="2048" />
<glyph unicode="&#xc7;" horiz-adv-x="1478" />
<glyph unicode="&#xc8;" horiz-adv-x="1366" />
<glyph unicode="&#xc9;" horiz-adv-x="1366" />
<glyph unicode="&#xca;" horiz-adv-x="1366" />
<glyph unicode="&#xcb;" horiz-adv-x="1366" />
<glyph unicode="&#xcc;" horiz-adv-x="569" />
<glyph unicode="&#xcd;" horiz-adv-x="569" />
<glyph unicode="&#xce;" horiz-adv-x="569" />
<glyph unicode="&#xcf;" horiz-adv-x="569" />
<glyph unicode="&#xd0;" horiz-adv-x="1478" />
<glyph unicode="&#xd1;" horiz-adv-x="1478" />
<glyph unicode="&#xd2;" horiz-adv-x="1593" />
<glyph unicode="&#xd3;" horiz-adv-x="1593" />
<glyph unicode="&#xd4;" horiz-adv-x="1593" />
<glyph unicode="&#xd5;" horiz-adv-x="1593" />
<glyph unicode="&#xd6;" horiz-adv-x="1593" />
<glyph unicode="&#xd7;" horiz-adv-x="1196" />
<glyph unicode="&#xd8;" horiz-adv-x="1593" />
<glyph unicode="&#xd9;" horiz-adv-x="1478" />
<glyph unicode="&#xda;" horiz-adv-x="1478" />
<glyph unicode="&#xdb;" horiz-adv-x="1478" />
<glyph unicode="&#xdc;" horiz-adv-x="1478" />
<glyph unicode="&#xdd;" horiz-adv-x="1366" />
<glyph unicode="&#xde;" horiz-adv-x="1366" />
<glyph unicode="&#xdf;" horiz-adv-x="1251" />
<glyph unicode="&#xe0;" />
<glyph unicode="&#xe1;" />
<glyph unicode="&#xe2;" />
<glyph unicode="&#xe3;" />
<glyph unicode="&#xe4;" />
<glyph unicode="&#xe5;" />
<glyph unicode="&#xe6;" horiz-adv-x="1820" />
<glyph unicode="&#xe7;" horiz-adv-x="1024" />
<glyph unicode="&#xe8;" />
<glyph unicode="&#xe9;" />
<glyph unicode="&#xea;" />
<glyph unicode="&#xeb;" />
<glyph unicode="&#xec;" horiz-adv-x="569" />
<glyph unicode="&#xed;" horiz-adv-x="569" />
<glyph unicode="&#xee;" horiz-adv-x="569" />
<glyph unicode="&#xef;" horiz-adv-x="569" />
<glyph unicode="&#xf0;" />
<glyph unicode="&#xf1;" />
<glyph unicode="&#xf2;" />
<glyph unicode="&#xf3;" />
<glyph unicode="&#xf4;" />
<glyph unicode="&#xf5;" />
<glyph unicode="&#xf6;" />
<glyph unicode="&#xf7;" horiz-adv-x="1124" />
<glyph unicode="&#xf8;" horiz-adv-x="1251" />
<glyph unicode="&#xf9;" />
<glyph unicode="&#xfa;" />
<glyph unicode="&#xfb;" />
<glyph unicode="&#xfc;" />
<glyph unicode="&#xfd;" horiz-adv-x="1024" />
<glyph unicode="&#xfe;" />
<glyph unicode="&#xff;" horiz-adv-x="1024" />
<glyph unicode="&#x152;" horiz-adv-x="2048" />
<glyph unicode="&#x153;" horiz-adv-x="1933" />
<glyph unicode="&#x178;" horiz-adv-x="1366" />
<glyph unicode="&#x2c6;" horiz-adv-x="681" />
<glyph unicode="&#x2dc;" horiz-adv-x="681" />
<glyph unicode="&#x2000;" horiz-adv-x="913" />
<glyph unicode="&#x2001;" horiz-adv-x="1827" />
<glyph unicode="&#x2002;" horiz-adv-x="913" />
<glyph unicode="&#x2003;" horiz-adv-x="1827" />
<glyph unicode="&#x2004;" horiz-adv-x="609" />
<glyph unicode="&#x2005;" horiz-adv-x="456" />
<glyph unicode="&#x2006;" horiz-adv-x="304" />
<glyph unicode="&#x2007;" horiz-adv-x="304" />
<glyph unicode="&#x2008;" horiz-adv-x="228" />
<glyph unicode="&#x2009;" horiz-adv-x="365" />
<glyph unicode="&#x200a;" horiz-adv-x="101" />
<glyph unicode="&#x2010;" horiz-adv-x="821" d="M270 715h684l62 213h-684z" />
<glyph unicode="&#x2011;" horiz-adv-x="821" d="M270 715h684l62 213h-684z" />
<glyph unicode="&#x2012;" horiz-adv-x="821" d="M270 715h684l62 213h-684z" />
<glyph unicode="&#x2013;" />
<glyph unicode="&#x2014;" horiz-adv-x="2048" />
<glyph unicode="&#x2018;" horiz-adv-x="454" />
<glyph unicode="&#x2019;" horiz-adv-x="454" />
<glyph unicode="&#x201a;" horiz-adv-x="454" />
<glyph unicode="&#x201c;" horiz-adv-x="681" />
<glyph unicode="&#x201d;" horiz-adv-x="681" />
<glyph unicode="&#x201e;" horiz-adv-x="681" />
<glyph unicode="&#x2022;" horiz-adv-x="716" />
<glyph unicode="&#x2026;" horiz-adv-x="2048" />
<glyph unicode="&#x202f;" horiz-adv-x="365" />
<glyph unicode="&#x2039;" horiz-adv-x="681" />
<glyph unicode="&#x203a;" horiz-adv-x="681" />
<glyph unicode="&#x205f;" horiz-adv-x="456" />
<glyph unicode="&#x20ac;" />
<glyph unicode="&#x2122;" horiz-adv-x="2048" />
<glyph unicode="&#xe000;" horiz-adv-x="1187" d="M0 0v1188h1188v-1188h-1188z" />
<glyph unicode="&#xfb01;" horiz-adv-x="1024" />
<glyph unicode="&#xfb02;" horiz-adv-x="1024" />
</font>
</defs>
</svg>
