<?xml version="1.0" standalone="no"?>
<!DOCTYPE svg PUBLIC "-//W3C//DTD SVG 1.1//EN" "http://www.w3.org/Graphics/SVG/1.1/DTD/svg11.dtd" >
<svg xmlns="http://www.w3.org/2000/svg">
<metadata></metadata>
<defs>
<font id="1-prolook_romulanfalconRg" horiz-adv-x="978" >
<font-face units-per-em="2048" ascent="1638" descent="-410" />
<missing-glyph horiz-adv-x="1034" />
<glyph unicode="&#xd;" horiz-adv-x="1034" />
<glyph unicode=" "  horiz-adv-x="1034" />
<glyph unicode="&#x09;" horiz-adv-x="1034" />
<glyph unicode="&#xa0;" horiz-adv-x="1034" />
<glyph unicode="!" horiz-adv-x="710" d="M121 -37q43 147 92 246q27 51 61.5 94t90.5 90l86 -196l53 -117l35 -62l-74 15l-66 4q-78 0 -160.5 -19.5t-117.5 -54.5zM143 1464l123 19l115 12l59 -4l56 -6l75 -6l74 -13v-127q0 -47 -4 -87t-18 -103q-20 -98 -74 -262q-98 -297 -178 -395q0 135 -14.5 265t-45.5 255 q-55 246 -168 452z" />
<glyph unicode="&#x22;" horiz-adv-x="890" d="M145 1448l131 12l117 15v-189q0 -111 -43 -231q-25 -68 -63 -146l-51 -110zM567 809v631l275 35l-21 -99l-33 -131l-24 -84l-25 -80q-55 -150 -172 -272z" />
<glyph unicode="#" horiz-adv-x="1185" d="M-10 594l127 49l157 57l2 31q0 27 9 57l10 78v76q-37 0 -43 -4h-31l-74 2l-77 2l112 45l131 47l49 256q18 125 46 203l145 -55l74 -35l-41 -129l-47 -180l22 -4l57 6l48 12q20 4 41 16l96 310l69 -19q39 -6 54 -16l88 -27l-84 -217l8 -8l117 12h82l-60 -123l-49 -112 l-47 6l-51 2h-39q-31 0 -49 -51l-15 -47l-14 -35l70 4l65 4h47l-84 -270h-145q-27 0 -39 -7l-115 -346q0 25 -10 52l-10 51v252l-29 6l-65 10l-97 8l-57 -176l-65 -211l2 387l-121 15zM436 741l109 13l80 14l14 84l12 78h-159z" />
<glyph unicode="$" horiz-adv-x="890" d="M98 586q68 -86 162 -137l90 -35q43 -12 86 -13h31l6 15q0 39 -30.5 94t-108.5 135q-139 152 -236 172l33 94l14 45l15 33l41 111l553 145q0 -25 -4 -33v-34q0 -55 18 -195.5t18 -194.5q-4 29 -107.5 107t-166.5 78h-68q-6 -6 -6 -27q0 -106 110.5 -237t239.5 -168 q-18 -82 -45 -152l-51 -145l-223 -62l-244 -61zM190 -381l9 47l20 68l49 112q55 104 160 197l182 -350q-12 -16 -32 -15l-113 13q-68 0 -157 -18.5t-118 -53.5zM334 1774q35 -25 123 -50q86 -18 151 -18l60 4q53 0 86 10l-74 -147l-100 -230q-100 84 -158 191 q-47 98 -88 240z" />
<glyph unicode="%" horiz-adv-x="1761" d="M96 1026q0 63 12.5 125.5t41.5 126.5q53 121 196 213l399 -178v-99q0 -137 -99 -320t-273 -282l-129 62q-39 23 -72 55q-23 29 -51 131l-21 105zM266 1006q0 -80 10 -109q4 -16 23 -43l45 -66q78 18 125 99q39 90 39 153l-6 60l-21 65q-25 61 -94 105q-66 -59 -93.5 -128 t-27.5 -136zM532 -2q10 51 22.5 102.5t29.5 106.5q10 41 26.5 97t32.5 110l74 239l55 142q63 178 150 352q100 205 192 362l62 -137l69 -149l-655 -1223zM1038 365q0 141 49.5 251.5t192.5 219.5l395 -179v-108l-6 -45l-16 -78l-6 -41q0 -16 -11 -37l-30 -72l-21 -43 q-14 -27 -20 -36t-21 -25l-26 -35l-37 -39l-99 -90l-77 -51q-29 0 -86 35l-43 22l-27 17l-31 26q-29 35 -54.5 133.5t-25.5 174.5zM1210 344q0 -68 18.5 -122t65.5 -101q84 43 117 115q16 41 24.5 72.5t8.5 72.5q0 70 -25.5 130t-91.5 101q-68 -55 -92.5 -123.5 t-24.5 -144.5z" />
<glyph unicode="&#x26;" horiz-adv-x="1220" d="M80 518v49v31l131 74l176 106l-225 199q0 211 227 346t434 135l133 -203l82 -112l-24 8l-74 20l-61 11l-50 4q-98 0 -162.5 -32t-136.5 -146l293 -172q-135 0 -262 -129q-29 -31 -48 -60t-39.5 -67.5t-28 -67.5t-7.5 -68q0 -86 62 -182q68 -86 188 -110q25 16 60 92 q23 78 22 123q6 35 -26.5 94t-90.5 92q55 37 151.5 62.5t160.5 25.5q80 0 94 -4q26 0 67 -33v-33l-4 -67q-12 -113 -41 -182q-25 -74 -88 -150l-57 -59l-66 -50l-63 -30l-76 -37l-108 -41l-54 14l-104 31q-45 12 -193 129q-121 109 -157 236l-21 59l-10 53z" />
<glyph unicode="'" horiz-adv-x="479" d="M145 1448l131 12l117 15v-119q0 -115 -43 -271.5t-123 -285.5z" />
<glyph unicode="(" horiz-adv-x="716" d="M143 707q0 121 39 294l82 367q41 193 41 240l494 -154q-172 -106 -284 -355t-112 -454v-84q0 -39 2.5 -57.5t15.5 -85t54 -185.5q10 -33 18.5 -53t22.5 -53q2 -6 18.5 -41t32 -65.5t19.5 -40t24 -39.5l62 -95q-274 174 -401.5 397.5t-127.5 463.5z" />
<glyph unicode=")" horiz-adv-x="806" d="M37 74q162 94 277.5 345t115.5 455q0 209 -70 404q-78 209 -198 399q256 -145 391 -385t135 -471l-6 -94q-4 -45 -8 -69.5t-15 -73.5l-81 -416l-50 -246z" />
<glyph unicode="*" horiz-adv-x="1038" d="M113 1243q18 -25 112 -69q111 -39 158 -39h100l-94 393q53 -29 113.5 -54.5t136.5 -50.5l135 -28q61 -8 77.5 -9.5t39.5 -1.5l-37 -14l-43 -24l-90 -64q-78 -70 -146 -170l187 -57l221 -66q-109 -53 -227.5 -146t-169.5 -194l8 35l8 53q0 25 -6 63t-23 97 q-27 111 -59 139l-278 -297q0 100 -29 209q-12 53 -36 128t-58 167z" />
<glyph unicode="+" horiz-adv-x="1058" d="M72 475l4 215l6 164l-10 14h61l82 -8l127 -18l66 -8q25 0 30 6l-39 198l-30 166l311 -2l-105 -381l21 -4q82 0 187.5 46t191.5 120l-25 -182l-10 -185l-332 60l2 -72l13 -84l39 -252v-47l-50 23l-59 20l-90 8l-43 -2h-39l-39 2l88 400l-35 6q-68 0 -152.5 -58.5 t-170.5 -144.5z" />
<glyph unicode="," horiz-adv-x="1204" d="M88 805l1010 645l-6 -72l-11 -51l-20 -137l-692 -385l702 -395l16 -105l29 -137z" />
<glyph unicode="-" d="M180 887l164 -2q106 0 303 -58l248 -67q-74 0 -134.5 -13.5t-131.5 -52.5q-127 -61 -230 -202z" />
<glyph unicode="." horiz-adv-x="686" d="M98 315l111 2q66 0 192 -49q27 -10 47.5 -18t59.5 -29l76 -43q-72 0 -186.5 -91t-151.5 -167z" />
<glyph unicode="/" horiz-adv-x="790" d="M27 0q23 98 26.5 112.5t14.5 47.5l38 133l74 239q35 121 79 236t96.5 232.5t119.5 252.5q61 121 148 258l57 -139l39 -86l35 -61l-660 -1223z" />
<glyph unicode="0" horiz-adv-x="1017" d="M70 485q0 195 69 332q29 63 91.5 136t162.5 153l529 -238v-127q0 -82 -22.5 -174t-74.5 -202q-90 -213 -184 -275l-145 -102q-59 -49 -70 -49q-18 0 -109 45q-41 20 -75.5 42.5t-59.5 47.5q-14 14 -41 63l-41 109q-31 127 -30 239zM293 463l6 -78l8 -47l17 -41 q25 -94 84 -141q113 61 161.5 154.5t48.5 191.5v71q-6 25 -10 50.5t-30 64.5q-33 57 -117 121q-90 -72 -129 -165t-39 -181z" />
<glyph unicode="1" horiz-adv-x="679" d="M70 928l428 162v-1088h-318q47 86 68 172l14 86l6 96q0 150 -44 289t-154 283z" />
<glyph unicode="2" horiz-adv-x="1021" d="M55 563l242 561l545 -151v-80l-8 -37l-7 -37q0 -45 -8 -79.5t-31 -82.5q-39 -86 -114 -178q-123 -166 -307 -237l32 -11l47 -2h23q31 0 57.5 2t53 8.5t43 10.5t22.5 6q25 8 62 27q116 47 202 174l-104 -447h-649l-11 43l-18 56l-47 143q252 133 332 190.5t80 180.5 q0 80 -51.5 128t-114.5 48q-76 0 -150 -68q-63 -63 -121 -168z" />
<glyph unicode="3" horiz-adv-x="901" d="M0 829l324 252q119 -31 268 -180q72 -72 108.5 -142.5t36.5 -137.5l-2 -31q-61 -31 -139 -96l-113 -86l185 -142q96 -71 96 -108q0 -252 -233.5 -405.5t-516.5 -153.5q160 98 280 262t120 309q-49 43 -158 70q-43 10 -102.5 18t-104.5 8l389 293q-31 115 -154.5 178.5 t-283.5 91.5z" />
<glyph unicode="4" horiz-adv-x="1191" d="M29 -53q0 49 9 98t15 78l15 74q6 39 20 77q41 143 127 281q41 68 102 133l62 64l76 65l-131 -678q172 37 241.5 181.5t69.5 318.5v39l-8 53l-15 98q-23 176 -45 261l373 -240l-51 -229l-15 -111l-6 -96l-4 -29q0 -20 4 -27l62 -69l51 -51l145 -148l-278 -29l-2 -98 l4 -250l-256 -186l-2 491q-86 0 -191 -12l-139 -18z" />
<glyph unicode="5" horiz-adv-x="960" d="M8 -418q150 61 292 223t142 306l7 77q-43 43 -170 76l-234 53l127 701l705 61l-80 -420l-64 48l-59 30q-49 18 -105 19q-90 0 -168 -74q-61 -61 -98 -201l268 -49q236 -37 236 -239q0 -252 -279.5 -431.5t-519.5 -179.5z" />
<glyph unicode="6" horiz-adv-x="1009" d="M78 498q0 287 187.5 585.5t531.5 417.5l-215 -547l145 -166q66 -88 98 -151q78 -145 78 -307l-10 -101v-28q0 -25 -4 -39l-12 -56l-615 -167q-84 127 -137 272q-23 68 -35 140.5t-12 146.5zM313 432q0 -51 6 -82l21 -63q25 -63 94 -129q96 51 144.5 146t48.5 179 q0 74 -36 152t-106 129q-86 -66 -129 -156l-32 -90q-10 -47 -11 -86z" />
<glyph unicode="7" horiz-adv-x="1026" d="M59 330l168 47l187 47l86 178l78 156l-25 6l-27 2q-109 0 -223.5 -50t-189.5 -171v481h817v-47q0 -29 -13.5 -82t-46.5 -129l-125 -324l68 -6l80 -2l-59 -229l-25 -107l-23 -123q-6 25 -25.5 51.5t-53.5 59.5q-61 61 -117 80l-344 -627q0 164 22.5 325t73.5 349l-109 47z " />
<glyph unicode="8" horiz-adv-x="1050" d="M70 205l2 61l12 78q12 53 49 137q16 43 30.5 74t34 61.5t38 53t49.5 55.5l-92 139q-66 109 -76 137l6 37l10 33q18 53 66.5 133t167 132.5t225.5 52.5q100 0 234.5 -56.5t134.5 -142.5t-69 -247t-144 -245q74 -61 118 -157q20 -43 32.5 -91.5t12.5 -95.5q0 -119 -77 -233 q-35 -53 -92.5 -99.5t-131.5 -82.5l-538 194zM360 432q0 -106 47.5 -186t118.5 -80q35 0 78 80q29 88 33 123q0 51 -15.5 111.5t-52.5 88.5l-63 43q-18 18 -41 21q-41 0 -73 -75t-32 -126zM379 1030q0 -12 63 -96l127 -152q55 12 92 74t37 115q0 68 -50 110.5t-122 42.5 q-37 0 -92 -28.5t-55 -65.5z" />
<glyph unicode="9" horiz-adv-x="1005" d="M61 506q0 76 12.5 145.5t41.5 141.5q27 80 65 143q37 72 99 154l606 -187v-487l-6 -43l-33 -158q-12 -66 -50 -144.5t-114 -195.5q-127 -207 -365 -348l183 459l-129 28l-105 23l-59 20q-18 10 -39 47l-27 64l-41 92l-18 66l-14 86zM303 459l6 -82l27 -72 q31 -70 106 -123q100 61 142.5 157.5t42.5 186.5q0 111 -37 170.5t-121 128.5q-96 -74 -129 -176l-25 -102q-12 -49 -12 -88z" />
<glyph unicode=":" horiz-adv-x="663" d="M80 127l321 268v-63l11 -64q2 -29 24 -82q33 -96 129 -174q-135 0 -243 21q-61 10 -114.5 30.5t-127.5 63.5zM147 625l78 411q96 -45 198.5 -149.5t141.5 -200.5l-61 10l-70 9q-41 0 -65 -5q-31 0 -93 -18q-88 -18 -129 -57z" />
<glyph unicode=";" horiz-adv-x="595" d="M88 172l305 178l-6 -209l-2 -63l-20 -141q-18 -129 -138 -314zM135 1020q76 -82 182 -123q123 -39 213 -39l-278 -313l-78 170q-37 96 -37 159z" />
<glyph unicode="&#x3c;" horiz-adv-x="1869" d="M80 803q10 25 162.5 136.5t449.5 209.5t496 123l213 20l57 8h162v-507q-117 59 -309.5 116.5t-349.5 57.5h-65t-52 -4q-45 0 -62 -2q-41 -10 -63 -13q-88 -12 -137 -47q274 -254 592 -371q158 -55 314 -83.5t318 -28.5q-178 -68 -328.5 -97.5t-283.5 -29.5 q-80 0 -148.5 6t-142.5 22q-135 29 -278.5 91.5t-277.5 160t-267 232.5z" />
<glyph unicode="=" horiz-adv-x="841" d="M111 911q164 0 335.5 31t288.5 94l-14 -57l-12 -86q-12 -98 -13 -172l-559 2zM119 231l20 166l17 164l559 -61v-111l-307 -45q-174 -31 -289 -113z" />
<glyph unicode="&#x3e;" horiz-adv-x="1859" d="M80 416q330 0 629 109.5t600 375.5q-27 20 -160 45l-113 15l-106 6l-82 -2h-33.5t-46.5 -9l-78 -12q-14 -2 -37.5 -8t-42.5 -14l-84 -25l-90 -35q-76 -27 -164 -71v509h162l135 -16q250 -29 437.5 -75t392 -140t413.5 -256q-236 -262 -533.5 -392t-580.5 -130l-129 6 q-33 0 -71 8l-88 14q-180 31 -330 97z" />
<glyph unicode="?" horiz-adv-x="1019" d="M113 879l258 614l598 -168v-92l-8 -31l-7 -39q0 -160 -155.5 -357.5t-358.5 -277.5l45 97l47 112q41 119 41 199t-43 135q-49 53 -131 53q-72 0 -151 -67q-74 -68 -135 -178zM250 135q31 39 78 78q23 16 37 27q35 25 77 47l60 26l53 25l125 39q-72 -121 -72 -266 q0 -61 19 -146z" />
<glyph unicode="@" horiz-adv-x="1501" d="M53 567q57 160 149.5 309.5t217.5 280.5q246 258 516 258q211 0 333 -99t122 -306q0 -133 -26 -254t-82 -243t-120.5 -207t-148.5 -150q-154 -115 -292 -143.5t-177 -28.5q-47 0 -116 43t-101 94l-25 39l-12 47q-6 31 -6 92q0 115 118 377l119 256l475 -168l9 43l8 51 l8 82q0 102 -38 179t-146 77q-176 0 -420 -194.5t-365 -434.5zM573 539q0 -111 48.5 -222.5t154.5 -156.5q39 45 119 202.5t80 231.5v49h-391l-9 -51z" />
<glyph unicode="A" horiz-adv-x="1314" d="M61 291q0 293 138.5 612.5t425.5 599.5q147 -160 243 -360l86 -201l82 -221l54 -2q27 0 51 -8q45 -6 100 -31l-182 -53l45 -265l14 -114l8 -76v-154l-489 -45l39 105l45 131q51 147 51 235v86l-12 7l-68 -25l-51 -25l-47 -28l-68 -43l-47 -37q-61 -43 -104 -98l-45 -62 l-37 -51q-35 -63 -49 -115l-27 -104q-12 -49 -12 -96v-29l8 -43q-68 113 -113 250q-6 23 -11 43t-17 86q-8 61 -9.5 87.5t-1.5 43.5zM403 637l179 45l172 33v30q0 41 -9 72l-12 49l-24 58q-20 63 -36 103t-24 54l-43 -61l-65 -105l-39 -69z" />
<glyph unicode="B" horiz-adv-x="1183" d="M35 115l84 331l33 160q12 74 12 119v766q39 0 56.5 -2t84.5 -19q84 -10 144 -26q66 -8 124 -19.5t111 -27.5q102 -25 199 -94l94 -70q43 -35 53 -62q0 -63 -98 -210q-51 -76 -80 -115q-35 -47 -53 -66l123 -67l153 -74v-82l-8 -35l-8 -35q0 -152 -199 -323 q-186 -158 -383 -225zM422 649l53 -526q84 43 144.5 114.5t60.5 157.5q0 80 -74 152l-37 26l-47 27l-43 25zM424 737q63 41 107 73t67 54q55 49 55 125q0 55 -36.5 129t-94.5 113l-47 -113l-31 -125l-14 -123z" />
<glyph unicode="C" horiz-adv-x="1153" d="M70 258q59 78 88.5 203t29.5 233q0 123 -22 207q-14 55 -30.5 94t-27 58.5t-28.5 44.5l362 387l633 -262l-282 -557q0 33 -2.5 64.5t-9.5 75.5t-36 107q-45 123 -165 228q-37 -31 -70 -146q-10 -47 -18.5 -112.5t-8.5 -108.5q0 -213 67.5 -374.5t192.5 -161.5 q47 0 162 37.5t160 82.5l-397 -428z" />
<glyph unicode="D" horiz-adv-x="1193" d="M63 141l52 240q30 161 30 243v5v856h56q172 0 482.5 -105.5t408.5 -203.5q0 -254 -38 -452t-159 -401.5t-365 -392.5zM395 631q0 -121 24.5 -233.5t94.5 -215.5q115 100 170 244q23 70 39 145q6 37 10 71t4 73q0 29 -2 59.5t-10 77.5t-27 92q-35 104 -145 221l-39 -65 l-37 -72q-6 -14 -21.5 -54t-27.5 -79q-33 -152 -33 -264z" />
<glyph unicode="E" horiz-adv-x="1230" d="M10 170l324 625l-289 413l768 346l258 -718l-113 116l-100 88q-86 68 -192 68q-45 0 -104.5 -18.5t-96.5 -57.5l403 -362l-65 -8q-9 1 -19 1q-86 -1 -204 -95q-131 -106 -131 -212q0 -49 45 -61l98 -14q115 0 259.5 85t283.5 230l-375 -684q-178 102 -368.5 166.5 t-381.5 91.5z" />
<glyph unicode="F" horiz-adv-x="1071" d="M37 502l123 209q61 109 63 133q0 43 -37 178l-75 285l864 186v-571q-98 94 -203.5 145t-236.5 84l-5 -25l15 -110l8 -78l14 -70l211 -92q111 -55 199 -168l-387 -45q0 -227 -58 -436q-29 -104 -74.5 -210.5t-113.5 -213.5q0 199 -20 410l-9 77q0 39 -20 148l-14 92 q-6 57 -21 98l-104 -16z" />
<glyph unicode="G" horiz-adv-x="1228" d="M70 258q59 82 88.5 207t29.5 229v37l-2 31l-2 26q0 27 -18 99q-20 98 -86 207l362 391l650 -258l-273 -400l2 29q0 94 -68.5 196.5t-172.5 131.5q-31 -20 -72 -162q-25 -133 -25 -260q0 -86 6.5 -158t22.5 -152.5t39.5 -140t62.5 -121.5q49 49 75 118t26 149q0 41 -19 90 l-51 92l490 133q-49 -82 -85 -194.5t-36 -190.5q0 -55 18.5 -114.5t50.5 -100.5q-68 -74 -217 -139l-137 -47l-168 -47z" />
<glyph unicode="H" horiz-adv-x="1275" d="M164 2v1278l375 221l-2 -590l129 -41l102 -28v563l379 88v-664q0 -219 -102.5 -548.5t-253.5 -456.5v856l-35 4q-147 0 -246 -100q-45 -51 -68 -109q-20 -68 -20 -129q0 -70 27 -168q10 -45 30.5 -89t50.5 -87h-366z" />
<glyph unicode="I" horiz-adv-x="770" d="M164 2v1483l559 -223q-115 -158 -180 -371q-31 -109 -45.5 -204t-14.5 -200q0 -135 23.5 -237.5t85.5 -247.5h-428z" />
<glyph unicode="J" horiz-adv-x="698" d="M10 -334l162 709v1110l401 -144v-573q0 -145 -31.5 -284.5t-101.5 -274.5q-129 -266 -430 -543z" />
<glyph unicode="K" horiz-adv-x="1202" d="M82 -53l4 194l6 164l8 156l9 149l8 250l20 498q37 29 121 76l109 59v-285l26 -391q139 94 257 300t169 384l318 -309q-31 -84 -154 -229l-117 -119q-57 -55 -110 -92q113 -100 217 -363q47 -123 73.5 -242.5t26.5 -201.5v-60l-647 756l-4 -27q0 -57 39 -204l37 -146 l49 -155z" />
<glyph unicode="L" horiz-adv-x="1046" d="M137 2v1331l469 160q0 -80 -4 -117t-37 -233q-23 -170 -51 -293q-25 -131 -61 -285q-8 -39 -16.5 -70.5t-22.5 -72.5q-16 -63 -45 -146l26 -4q104 0 314.5 80t257.5 158l-179 -508h-651z" />
<glyph unicode="M" horiz-adv-x="1761" d="M137 2v1446l402 -139l272 184l260 -184l266 184l303 -221v-354l-14 -121q-12 -125 -41 -245t-88 -253l-53 -125q-27 -63 -66 -127q-72 -129 -164 -250l66 1288q0 37 -8 54l-74 82l-41 -39q-37 -25 -45 -47l-8 -134l-6 -170q0 -96 -37 -253l-37 -138q-18 -66 -45 -127 l-25 -57l-30 -59l-68 -123l-80 -133l-92 -144l72 1288v25q0 12 -19 41l-61 61q-135 -129 -190.5 -322.5t-55.5 -402.5q0 -156 23 -245q12 -70 32 -119l25 -57l37 -64h-410z" />
<glyph unicode="N" horiz-adv-x="1232" d="M137 2v1446l402 -139l272 184l299 -221v-346l-6 -52l-10 -71q0 -180 -52 -348q-25 -90 -55 -162l-37 -86l-45 -76q-90 -170 -221 -358l72 1308v25q0 20 -21 43l-59 63q-117 -117 -189 -329q-29 -106 -43 -201l-10 -96l-4 -103v-58.5t4 -55.5q0 -20 2 -35t17 -72 q6 -45 30 -121q4 -20 10.5 -37.5t12.5 -31.5l33 -70h-402z" />
<glyph unicode="O" horiz-adv-x="1148" d="M88 625q0 115 18.5 228.5t58.5 234t103.5 215t165.5 190.5l615 -326q0 -246 -37 -446q-18 -100 -56 -196.5t-108 -209.5q-123 -209 -369 -393l-172 101q-51 35 -91 88t-84 217t-44 297zM350 606q0 -125 21.5 -212t87.5 -226q106 63 167.5 225t61.5 305q0 61 -10 111.5 t-21 77.5l-22 59q-27 72 -60 111q-31 43 -81 67q-66 -84 -105 -239.5t-39 -278.5z" />
<glyph unicode="P" horiz-adv-x="1142" d="M137 -86v1579l955 -229v-119q0 -168 -114 -383t-290 -326l-158 -100v-299zM397 834q0 -90 21.5 -150.5t95.5 -165.5q111 61 168 174l20 47l19 52l14 59l4 59q0 43 -14 86q-10 41 -43 103q-47 96 -137 133q-66 -72 -107 -192.5t-41 -204.5z" />
<glyph unicode="Q" horiz-adv-x="1206" d="M88 625q0 115 18.5 228.5t58.5 234t103.5 215t165.5 190.5l256 -135l152 -78l207 -115q0 -127 -4.5 -214t-15.5 -178t-33.5 -168t-69.5 -175q-82 -178 -254 -346l278 -45q236 -35 383 -107q-170 -14 -381 -98t-366 -211l-41 141q-25 100 -47.5 127t-126 89.5t-129 85 t-47.5 69.5l-27 78l-33 80l-26 113q-8 49 -14.5 107t-6.5 112zM350 606q0 -135 23 -217l30 -106l23 -60l31 -57q117 80 173 228t56 304q0 61 -10 111.5t-21 77.5l-22 59q-27 72 -60 111q-31 43 -81 67q-66 -86 -104 -240.5t-38 -277.5z" />
<glyph unicode="R" horiz-adv-x="1161" d="M137 106v1209l420 178l256 -158l236 -141q0 -176 -38 -299t-194 -233q121 -147 164 -338l14 -80l13 -113l10 -121l2 -125l-608 752l303 311l-172 256l-47 -98l-37 -88l-25 -68l-22 -80q-27 -154 -27 -317q0 -170 24.5 -298t106.5 -306z" />
<glyph unicode="S" horiz-adv-x="1077" d="M80 899l127 410l686 184l45 -625q-45 104 -176 190.5t-242 86.5l-39 -4q18 -168 156 -373q123 -184 315 -242v-30l-57 -177l-68 -204l-278 -84l-305 -92l-154 649q43 -92 169 -173t245 -100l80 9q-18 74 -72 157q-49 88 -127 183q-154 190 -305 235z" />
<glyph unicode="T" horiz-adv-x="1218" d="M10 1047l35 366l1139 35l-246 -420l-174 47l-117 23l-31 2l-20 -92l-4 -117v-74v-115l8 -77l6 -95q2 -27 5 -44t16 -66q18 -111 43.5 -197t64.5 -160q-55 0 -115.5 -8t-121.5 -26l-121 -37l-60 -25l-57 -28v292l2 43l27 193l8 74l16 80l31 170q31 160 68 301l-43 4l-35 2 h-51q-27 0 -41 -4q-25 0 -74 -13z" />
<glyph unicode="U" horiz-adv-x="1183" d="M78 512q0 256 116.5 592t294.5 547l-75 -1313q0 -43 20 -72l53 -63q127 135 189 336q29 98 44 198.5t15 198.5l-6 100l-20 125q-12 76 -33 137l-19 58q-8 29 -11 34t-17 31h401v-1446l-401 140l-275 -187l-118 92l-156 132z" />
<glyph unicode="V" horiz-adv-x="1228" d="M72 1296v168q25 -18 57 -18l53 8l348 6l19 4l43 2l-78 -176l-20 -57l-37 -109q-45 -180 -45 -307q0 -100 18.5 -207.5t48.5 -160.5q264 264 383 581q53 150 86 314.5t33 306.5l49 -156l41 -162q31 -152 31 -293q0 -283 -123 -565q-59 -135 -166 -272q-96 -125 -242 -256 q-236 287 -362 614q-59 160 -92 321.5t-33 309.5l-10 68z" />
<glyph unicode="W" horiz-adv-x="1689" d="M80 842q0 84 6 137l12 76q8 33 27 80q41 154 119 278l436 2q-111 -111 -184.5 -346t-73.5 -418q0 -117 20 -217q2 -20 7.5 -43.5t21.5 -67.5t55 -112q82 57 113 129l31 192l49 265l94 479l68 358l75 -211l31 -96l27 -94q43 -178 43 -359l-6 -131l-4 -71l-11 -90l-24 -127 l-35 -152q0 -14 22 -39l45 -53l62 41l24 24l25 31l23 105l8 75l221 1131q80 -160 123 -358q25 -109 37 -199.5t12 -186.5v-79q-6 -57 -8 -86q0 -35 -7.5 -83t-19.5 -104q-16 -102 -39 -186q-18 -90 -51 -180l-84 -52l-92 -61l-156 -104l-231 184l-277 -184l-262 135 q-27 20 -84 104l-49 84l-43 86q-37 88 -66.5 226.5t-29.5 267.5z" />
<glyph unicode="X" horiz-adv-x="1357" d="M-8 340l127 57l100 54q33 12 161 117.5t136 138.5q0 53 -111.5 145t-154.5 92q-20 0 -49 4t-72 19l-94 28l444 498l197 -545l280 529l334 -349l-133 -59q-76 -33 -135 -84l-72 -61l-82 -84q-86 -92 -86 -123l6 -21l17 -12q12 -53 110.5 -142t149.5 -108l98 -28l68 -9 l41 -4l-381 -454l-260 563l-293 -545z" />
<glyph unicode="Y" horiz-adv-x="1372" d="M18 1102l261 399q59 -63 109 -127.5t92 -136.5t75 -145l61 -154l60 -197l37 -135q6 6 6 19l2 22q0 186 104 414q45 100 117 211q33 49 74 101t90 104l227 -410q-272 -197 -381.5 -358.5t-109.5 -366.5q0 -74 12 -160l12 -80q6 -33 9.5 -42t19.5 -58l-438 -45l73 397 l-63 164l-45 90q-16 35 -33 72q-18 27 -27 39q-29 53 -63 92q-123 174 -281 291z" />
<glyph unicode="Z" horiz-adv-x="1099" d="M-25 -16l617 991q-43 82 -109 115q-71 26 -132 26h-5h-39q-27 0 -43 -4q-25 0 -61 -18q-51 -12 -113 -93l119 484l848 -215q-199 -199 -342 -457q-29 -57 -53.5 -113.5t-51 -122t-47.5 -128.5q-12 -35 -43 -138l21 -4q51 0 190 64l227 110l-30 -286l-8 -248 q-72 41 -213.5 68.5t-268.5 27.5q-168 0 -248 -16z" />
<glyph unicode="[" horiz-adv-x="849" d="M172 1411v37l498 221l53 -254l-23 2q-115 0 -182 -180q-31 -90 -47 -216t-16 -296q0 -279 52 -450t263 -171l-25 -118l-32 -152l-531 283q6 35 21 143q8 66 18 133l15 170l6 164l-6 145q0 111 -21 242z" />
<glyph unicode="\" horiz-adv-x="831" d="M25 1225l71 145l37 76l25 65q74 -123 135 -239q29 -51 58.5 -112.5t60.5 -133.5l98 -240l43 -116l41 -125l76 -248l84 -295h-72z" />
<glyph unicode="]" horiz-adv-x="819" d="M111 96l24 -2q113 0 182 174q27 82 45 213l11 137l4 168q0 281 -44 451t-222 170l53 270l524 -274v-29l-8 -33l-29 -96l-18 -94l-21 -117l-14 -133l-6 -135l6 -129q0 -106 20 -244l44 -299v-31l-496 -221l-25 97z" />
<glyph unicode="a" horiz-adv-x="989" d="M61 410v79l459 185q-27 80 -98 123q-23 16 -68 32q-23 6 -43 10.5t-47 4.5q-43 0 -103.5 -18.5t-74.5 -45.5l307 291l494 -240q-49 -55 -74 -142t-25 -189q0 -57 5 -74l18 -94q6 -35 19.5 -61.5t21.5 -41.5q16 -23 25 -32l-512 -269q-121 59 -212.5 216t-91.5 266z M358 418q0 -31 10.5 -62.5t17.5 -44t26 -37.5q45 -70 127 -90l10 117l8 117l-18 196l-97 -88q-76 -72 -84 -108z" />
<glyph unicode="b" horiz-adv-x="1013" d="M53 100q4 4 39 161t35 192v819l328 221v-406l456 -235q0 -260 -105.5 -499.5t-371.5 -405.5zM324 459q0 -84 24.5 -179.5t77.5 -148.5q100 84 142 178t42 211q0 45 -6 82t-22 76q-25 70 -131 164q-61 -88 -101 -191q-26 -109 -26 -186v-6z" />
<glyph unicode="c" horiz-adv-x="970" d="M61 178l43 68l33 82l19 86l6 92v33v24l-4 23l-19 90q-12 57 -69 129l307 293l518 -187l-229 -417q0 94 -43 183t-144 165q-76 -94 -76 -285q0 -133 49.5 -261t200.5 -128q29 0 101.5 18.5t95.5 40.5l-293 -288z" />
<glyph unicode="d" horiz-adv-x="1032" d="M61 502l86 604l410 -201v375l336 221v-444q0 -274 -62.5 -540.5t-123 -367t-181.5 -161.5l-135 -60q-49 0 -153.5 133.5t-124.5 180.5l-29 84l-16 75q-6 31 -7 101zM295 641q0 -80 80 -265.5t155 -215.5l35 188l8 86l2 37v64l-6 112l-4 113l8 12q-96 0 -151 -6l-127 -18 v-107z" />
<glyph unicode="e" horiz-adv-x="995" d="M61 188q47 57 74 155.5t27 164.5v31q0 14 -3 42.5t-5 40t-13 40.5q-18 80 -71 151l510 266q104 -53 204 -207q92 -147 93 -260v-92l-447 -174q18 -88 92 -129t154 -41q53 0 98 12.5t94 55.5l-315 -297zM395 602l21 -199l114 111q44 45 54 80q0 59 -43 137q-49 68 -127 92 l-13 -110z" />
<glyph unicode="f" horiz-adv-x="888" d="M18 786l123 115q35 39 47 82q6 18 10.5 39.5t6.5 34.5l-12 102l-11 94l156 88l233 144q109 -92 191 -236q68 -125 88 -256l-385 219l-105 -49l170 -239l17 -41q6 -16 8 -30.5t2 -47.5v-80q0 -143 -13.5 -267t-39.5 -229l-31 -118q-10 -31 -16 -53.5t-29 -75.5 q-29 -80 -31 -84q-18 -35 -26 -52l-72 -143l-6 178l-21 246l-51 545z" />
<glyph unicode="g" horiz-adv-x="985" d="M70 563q0 158 67.5 303.5t231.5 257.5l508 -239v-117q0 -84 -19.5 -160t-71.5 -168q-86 -164 -221 -272l90 -102l109 -97l-68 -176l-39 -119l-243 -61l-224 -51l-69 420q25 -55 84 -95l49 -26l76 -29l135 8l-82 105l-135 166q-92 123 -135 215t-43 237zM287 580 q0 -74 10 -105l14 -41l27 -43q49 -68 135 -110q59 61 86 129l19 67l8 72l-15 106q-4 27 -14 43l-12 27l-31 45q-47 82 -86 82q-31 0 -74 -70l-35 -53l-22 -47l-8 -51z" />
<glyph unicode="h" horiz-adv-x="1026" d="M119 2v1278l334 221v-553l227 133l223 -161v-275q0 -178 -90 -404.5t-235 -406.5l51 930l2 31q0 18 -8.5 33.5t-59.5 60.5q-109 -123 -157 -262l-33 -131q-12 -68 -13 -136q0 -78 18.5 -171t67.5 -187h-327z" />
<glyph unicode="i" horiz-adv-x="641" d="M119 1528l100 2q76 0 207 -53q135 -49 166 -86q-68 0 -184 -86q-55 -39 -93.5 -79t-50.5 -79v-14zM139 4v1088l428 -162q-102 -131 -151 -281q-20 -68 -32.5 -143.5t-12.5 -149.5q0 -72 18.5 -165t67.5 -187h-318z" />
<glyph unicode="j" horiz-adv-x="581" d="M4 -483l143 655v934l285 -125v-565q0 -106 -31.5 -228t-95.5 -247q-123 -262 -301 -424zM45 1403q109 47 231 76l125 14l138 6l-50 -94l-49 -105l-75 -184q-8 35 -40 73t-98 97q-111 104 -182 117z" />
<glyph unicode="k" horiz-adv-x="983" d="M127 72v1208l324 221l-2 -432l217 -106l211 -95v-30q0 -104 -55.5 -225t-178.5 -181q121 -109 163 -239t42 -281l-496 541l107 104l141 125l-149 188q-47 -63 -91 -188q-34 -118 -34 -274v-9q0 -129 23.5 -234.5t80.5 -207.5l-166 57z" />
<glyph unicode="l" horiz-adv-x="604" d="M137 2v1278l336 221v-303q0 -129 -12 -256q0 -53 -5 -96t-12 -70q0 -20 -8 -64t-16 -85q-51 -322 -146 -625h-137z" />
<glyph unicode="m" horiz-adv-x="1449" d="M121 2v1042l325 -96l89 45l145 88l192 -133l230 133l223 -161v-275q0 -195 -88 -407q-45 -106 -100.5 -203.5t-137.5 -200.5l50 928l2 33q0 18 -8.5 33.5t-59.5 50.5l-78 -58l-6 -198q0 -41 -5 -80t-17 -99q-25 -168 -82 -270l-45 -80l-37 -57l-135 -203l49 930l2 33 q0 20 -17 39l-16 20l-25 23q-102 -76 -156.5 -225.5t-54.5 -301.5q0 -86 18.5 -163.5t67.5 -186.5h-325z" />
<glyph unicode="n" horiz-adv-x="1030" d="M121 2v1042l325 -96l89 45l145 88l223 -161v-275q0 -178 -90 -404.5t-235 -406.5l49 930l2 33q0 20 -17 39l-16 20l-25 23q-100 -74 -159 -234q-23 -74 -37 -151q-6 -39 -10.5 -75t-4.5 -69v-38.5t3.5 -44t5.5 -36t12 -45.5q4 -18 9 -38.5t13 -45.5l19 -49l24 -51h-325z " />
<glyph unicode="o" horiz-adv-x="989" d="M70 414v49q0 176 62.5 342t240.5 301l504 -238v-127l-3 -32q0 -27 -8 -60l-26 -131l-15 -55q-6 -31 -20 -60q-18 -57 -61.5 -122.5t-173.5 -203.5t-164 -138q-16 0 -99 45l-63 39q-33 18 -43 32q-23 20 -47 66l-37 90l-19 47l-18 68zM297 449l6 -91q2 -18 8 -44.5 t15 -53.5q25 -98 77 -139q74 59 129 180q20 59 33 115.5t13 101.5q0 96 -35 172q-29 80 -123 146q-61 -92 -92 -196.5t-31 -190.5z" />
<glyph unicode="p" horiz-adv-x="1013" d="M111 -473v1579l800 -229v-127l-8 -43l-6 -52q0 -90 -30.5 -178t-100.5 -207q-119 -190 -328 -321v-299zM328 362q4 -36 18 -73l10 -37l19 -43l49 -74q90 61 139 172q23 53 35 106.5t12 110.5q0 82 -37.5 174.5t-123.5 147.5q-57 -70 -97 -197q-28 -121 -28 -189 q0 -62 4 -98z" />
<glyph unicode="q" horiz-adv-x="1024" d="M61 168q0 270 98.5 504.5t379.5 398.5l391 -151l-21 -80l-26 -117l-23 -148v-827l-338 -221l-2 395l-246 133zM369 494q0 -94 33.5 -174t123.5 -146q57 80 103 193l24 92l9 96q0 78 -25 162t-82 168q-86 -57 -136 -173t-50 -218z" />
<glyph unicode="r" horiz-adv-x="731" d="M119 1053l106 -52l56 -24l57 -19l297 175v-412l-86 45l-70 35q-61 -106 -92 -219q-27 -121 -27 -217q0 -190 86 -363h-325z" />
<glyph unicode="s" horiz-adv-x="882" d="M72 662l100 294l541 134l49 -459q-37 78 -140.5 136t-170.5 58h-33q-6 -6 -6 -26q0 -98 105.5 -235.5t244.5 -170.5v-31l-8 -28l-11 -35l-20 -47l-70 -170l-454 -117l-123 465q0 -29 112 -108q111 -68 168 -68h90q-29 125 -138 241.5t-236 166.5z" />
<glyph unicode="t" horiz-adv-x="778" d="M18 829l471 463l7 -149l6 -152l94 -51l115 -57q-129 -123 -197 -258q-49 -123 -49 -277q0 -94 18 -180q6 -35 27 -78l47 -88h-332v739z" />
<glyph unicode="u" horiz-adv-x="993" d="M70 109l2 274q0 195 93 421t245 390l-60 -932l-2 -33l12 -30q14 -25 48 -49q109 86 159 235q23 70 37 148.5t14 144.5q0 125 -22 182l-25 74l-14 41l-27 51h328v-1042l-326 96l-79 -41l-160 -92z" />
<glyph unicode="v" horiz-adv-x="1013" d="M70 582v55q0 37 4 55l2 41l16 72q6 25 14.5 55.5t20.5 59.5l20 51l27 55h391q-111 -104 -166 -254q-8 -25 -16 -59.5t-19.5 -94t-11.5 -135.5q0 -90 18.5 -185t63.5 -167l39 29q31 25 64 112l53 224l69 331l72 359l51 -127l47 -150q39 -168 39 -264q0 -188 -31.5 -333.5 t-78.5 -198.5q-33 -41 -148 -115l-63 -37l-51 -22q-14 0 -86 38l-74 43l-78 58q-74 61 -131 211q-29 78 -43 147.5t-14 145.5z" />
<glyph unicode="w" horiz-adv-x="1431" d="M61 606q0 100 27 193q10 39 43 102l68 125h374q-106 -109 -161 -270q-23 -74 -37 -152q-6 -39 -10.5 -74.5t-4.5 -68.5q0 -76 18.5 -160t65.5 -160q90 33 115 127l6 82l10 68q41 147 101 434l74 334q70 -182 99.5 -299t29.5 -258v-92l-11 -56q0 -37 -10 -73l-8 -50 l-21 -84l-22 -73l8 -15l16 -18l33 -27q96 39 119 123l14 137q41 147 95 404l77 381q63 -150 99 -293l28 -135l9 -80l2 -41q0 -133 -39 -287l-62 -248l-65 -43l-78 -47l-127 -73l-193 131l-153 -93l-80 -38q-20 0 -90 34l-49 23l-66 31q-31 16 -65 57l-66 92q-35 45 -78 189 q-35 139 -35 241z" />
<glyph unicode="x" horiz-adv-x="1198" d="M27 135l45 84q16 29 23 42t30 44l117 189q-16 -16 -17 -56q0 -45 27 -97t84 -79q66 53 93.5 123t27.5 154q0 147 -109 243q-51 43 -115.5 70t-142.5 27l-45 -7l453 279l143 -291l162 230l176 -84l139 -64l-209 -344l11 41l-5 39q0 20 -10 33l-24 47q-29 59 -70 59 q-14 0 -43 -35l-41 -59q-10 -18 -24.5 -71.5t-14.5 -96.5q0 -78 21.5 -135.5t74.5 -112.5q92 -96 242 -96h29q37 0 55 6l-426 -270l-188 307l-148 -254z" />
<glyph unicode="y" horiz-adv-x="985" d="M70 109v272q0 193 102 428q47 115 107.5 212t130.5 173l-60 -930l-2 -35l12 -32l56 -47q109 109 157 247q20 66 32.5 136.5t12.5 142.5v39v30l-4 29q0 33 -18 98q-8 35 -22.5 71t-43.5 83h330v-627l-6 -45l-18 -149q-6 -66 -33 -139q-4 -10 -15.5 -38t-19.5 -44 q-16 -37 -27 -58q-2 -6 -24 -41q-49 -100 -121 -194q-61 -86 -164 -183l100 564l-18 2l-65 -35l-150 -92z" />
<glyph unicode="z" horiz-adv-x="872" d="M23 258l380 283q0 98 -72.5 161.5t-168.5 63.5l-49 -8l-60 -19l201 351l534 -312l-296 -360q111 -74 153.5 -148.5t42.5 -169.5q0 -150 -82 -245q-37 -47 -96 -88l-72 -50l-51 -28q-129 -66 -326 -125l246 274q88 94 88 201q0 115 -91 169t-216 54h-41z" />
<glyph unicode="{" horiz-adv-x="1087" d="M119 655q268 262 433 508t165 445l340 -160v-47q0 -84 -118 -221.5t-261 -261.5l-146 -125q0 -20 39 -152l31 -98l27 -82q10 -35 13 -42t20 -38q6 -14 30 -74q18 -43 39 -86l57 -117q35 -68 80 -129q39 -53 109 -118l-107 37l-141 63q-96 43 -199 207l-202 315 q-96 145 -209 176z" />
<glyph unicode="|" horiz-adv-x="595" d="M137 -174v1702l334 291l-6 -664q0 -248 -19.5 -430t-70.5 -406l-101 -493h-137z" />
<glyph unicode="}" horiz-adv-x="1021" d="M35 72v39q0 113 199.5 317.5t332.5 288.5l-65 213l-51 160q-41 131 -124 283.5t-208 283.5l28 -12l58 -15q37 -6 151 -76q100 -59 232 -233l82 -137l39 -66l53 -76q98 -145 217 -184q-86 -80 -162 -162l-151 -166q-135 -160 -215 -313q-35 -76 -56 -151l-14 -76l-6 -78z " />
<glyph unicode="&#xa9;" horiz-adv-x="1587" d="M94 309v29v31l2 30l19 269l8 -54q6 -23 80 -168q61 -127 184 -246.5t311 -119.5q274 0 437 252t163 485q0 180 -106.5 297t-286.5 117t-403 -124t-393 -316q88 143 187 247.5t218 180.5q238 143 469 143q254 0 375 -164t121 -389q0 -319 -232.5 -577.5t-558.5 -258.5 q-184 0 -325.5 68t-204.5 164zM446 381q29 31 50 127q6 31 13 70.5t7 66.5q0 82 -13.5 123t-56.5 113l236 233l399 -153l-184 -338q0 74 -29 129q-25 61 -94 125q-23 -10 -47 -80q-6 -31 -10 -57.5t-4 -61.5q0 -45 8 -94t27 -97q37 -94 122 -94q27 0 95 19l47 18 q20 10 32 23l-225 -271z" />
<glyph unicode="&#xad;" d="M180 887l164 -2q106 0 303 -58l248 -67q-74 0 -134.5 -13.5t-131.5 -52.5q-127 -61 -230 -202z" />
<glyph unicode="&#xae;" horiz-adv-x="1593" d="M88 319l10 173l17 167l6 -57q6 -33 96 -182q43 -78 88 -137.5t101 -110.5q106 -94 286 -94l88 6l37 8l43 14l82 37q37 23 88 64l-334 395q16 23 37 37l47 45l99 92l-103 129q-37 -25 -69 -139q-25 -111 -25 -205q0 -66 18.5 -162t53.5 -159l-129 22l-115 21v735l276 106 l160 -96l154 -88l2 -35q0 -82 -35 -149q-31 -76 -115 -135q41 -41 72 -113t55 -254q88 90 156 260l25 74l24 98q6 33 10 63.5t4 67.5q0 180 -106.5 297t-284.5 117q-176 0 -412.5 -130t-383.5 -310q45 72 91 132t97 113q94 100 217 183q238 143 467 143q233 0 368.5 -161 t135.5 -388q0 -317 -237.5 -578.5t-561.5 -261.5q-160 0 -277.5 51.5t-197.5 131.5l-98 110q-18 27 -27 53z" />
<glyph unicode="&#xb0;" horiz-adv-x="561" d="M45 1204v66q6 27 10 54.5t31 80.5q43 96 129 160l277 -135v-91l-7 -43l-10 -41q-8 -39 -13 -57t-16 -47q-16 -47 -63 -107q-39 -49 -87 -94t-63 -45l-53 19q-39 20 -67 53q-31 25 -52 94l-12 62zM172 1192l4 -35l12 -41l29 -102q41 25 76 98l22 68l9 53q0 59 -27 106 q-23 53 -59 68q-37 -47 -52 -109l-10 -51z" />
<glyph unicode="&#xb1;" horiz-adv-x="1134" d="M90 39v139h957v-139h-957zM90 539v139h408v250h141v-250h408v-139h-408v-250h-141v250h-408z" />
<glyph unicode="&#xb5;" horiz-adv-x="1191" d="M152 -285l4 119l4 182l-2 207l-4 195v502h190v-607q0 -145 28.5 -194t102.5 -49q117 0 197 169t80 414v267h190v-672q0 -92 18.5 -135t59.5 -43t64.5 42t23.5 126v28h45l2 -18v-27q0 -102 -49 -174q-49 -66 -137 -65q-98 0 -154.5 87t-56.5 265q-43 -180 -125 -266 t-203 -86q-86 0 -151 53q-55 55 -82 158l-2 -58q0 -74 14 -140.5t51 -150.5q66 -158 68 -186q0 -39 -23.5 -62.5t-64.5 -23.5q-45 0 -66.5 37t-21.5 106z" />
<glyph unicode="&#xb6;" horiz-adv-x="1247" d="M70 582q0 139 24.5 263t77.5 242q100 227 381 398l594 -152l-47 -194l-25 -150v-960l-258 -80v1124q-57 31 -143 62v-1115l-70 -34l-65 -37l-125 -80v477z" />
<glyph unicode="&#xb7;" horiz-adv-x="618" d="M119 825l117 -2q29 0 104 -22l168 -51q-41 0 -73 -8.5t-75 -32.5q-80 -31 -116 -111l-51 92z" />
<glyph unicode="&#xf7;" horiz-adv-x="1134" d="M88 414v139h959v-139h-959zM451 207q0 47 37.5 82t80.5 35q49 0 82 -33t33 -84q0 -49 -35 -82q-31 -35 -80 -35q-51 0 -86 35q-33 39 -32 82zM451 758q0 47 37.5 81.5t80.5 34.5q47 0 81 -36.5t34 -79.5q0 -49 -35 -82q-31 -35 -80 -35q-51 0 -86 33q-33 39 -32 84z" />
<glyph unicode="&#xfd;" horiz-adv-x="0" />
<glyph unicode="&#x2000;" horiz-adv-x="909" />
<glyph unicode="&#x2001;" horiz-adv-x="1819" />
<glyph unicode="&#x2002;" horiz-adv-x="909" />
<glyph unicode="&#x2003;" horiz-adv-x="1819" />
<glyph unicode="&#x2004;" horiz-adv-x="606" />
<glyph unicode="&#x2005;" horiz-adv-x="454" />
<glyph unicode="&#x2006;" horiz-adv-x="303" />
<glyph unicode="&#x2007;" horiz-adv-x="303" />
<glyph unicode="&#x2008;" horiz-adv-x="227" />
<glyph unicode="&#x2009;" horiz-adv-x="363" />
<glyph unicode="&#x200a;" horiz-adv-x="101" />
<glyph unicode="&#x2010;" d="M180 887l164 -2q106 0 303 -58l248 -67q-74 0 -134.5 -13.5t-131.5 -52.5q-127 -61 -230 -202z" />
<glyph unicode="&#x2011;" d="M180 887l164 -2q106 0 303 -58l248 -67q-74 0 -134.5 -13.5t-131.5 -52.5q-127 -61 -230 -202z" />
<glyph unicode="&#x2012;" d="M180 887l164 -2q106 0 303 -58l248 -67q-74 0 -134.5 -13.5t-131.5 -52.5q-127 -61 -230 -202z" />
<glyph unicode="&#x2013;" horiz-adv-x="1287" d="M180 887l235 -2q152 0 434 -58l355 -67q-106 0 -192.5 -13.5t-188.5 -52.5q-182 -61 -329 -202z" />
<glyph unicode="&#x2014;" horiz-adv-x="2311" d="M180 887l470 -2q303 0 868 -58l710 -67q-212 0 -385.5 -13.5t-376.5 -52.5q-364 -61 -659 -202z" />
<glyph unicode="&#x2018;" horiz-adv-x="530" d="M137 799q43 266 111 428q31 74 74 141l59 90l45 62l-4 -428l-8 -60l-6 -61z" />
<glyph unicode="&#x2019;" horiz-adv-x="466" d="M137 1341l256 179l-6 -217q0 -45 -5 -81t-17 -96q-25 -147 -138 -327z" />
<glyph unicode="&#x201c;" horiz-adv-x="917" d="M137 809q29 147 52.5 244.5t43.5 152.5q8 29 24.5 64t40.5 70.5t58.5 83.5t65.5 87l-4 -22l2 -121l2 -170l-10 -104l-4 -117l-48 -33l-57 -35zM575 801l3 248q0 23 2 49t8 55l16 76l27 76q55 160 110 215l15 -138v-41q6 -23 8 -32l14 -97l19 -104q10 -53 12 -66.5 t16 -62.5z" />
<glyph unicode="&#x201d;" horiz-adv-x="862" d="M137 1339l248 179v-234l-2 -55q0 -12 -2 -32.5t-8 -43.5q-6 -47 -33 -111q-14 -39 -24.5 -65.5t-28.5 -63.5l-25 -53l-35 -63zM541 809v330q0 184 12 209q81 25 278 172q-94 -371 -139 -476q-43 -119 -151 -235z" />
<glyph unicode="&#x2022;" horiz-adv-x="944" d="M98 1044h164q135 0 306.5 -49t318.5 -112q-158 0 -301.5 -72t-239.5 -231z" />
<glyph unicode="&#x202f;" horiz-adv-x="363" />
<glyph unicode="&#x205f;" horiz-adv-x="454" />
<glyph unicode="&#xe000;" horiz-adv-x="1146" d="M0 0v1147h1147v-1147h-1147z" />
</font>
</defs>
</svg>
