<?xml version="1.0" standalone="no"?>
<!DOCTYPE svg PUBLIC "-//W3C//DTD SVG 1.1//EN" "http://www.w3.org/Graphics/SVG/1.1/DTD/svg11.dtd" >
<svg xmlns="http://www.w3.org/2000/svg">
<metadata></metadata>
<defs>
<font id="1-prolook_uprightregular" horiz-adv-x="2167" >
<font-face units-per-em="2048" ascent="1638" descent="-410" />
<missing-glyph horiz-adv-x="1362" />
<glyph horiz-adv-x="2048" />
<glyph horiz-adv-x="2048" />
<glyph unicode="&#xd;" horiz-adv-x="1362" />
<glyph unicode=" "  horiz-adv-x="1362" />
<glyph unicode="&#x09;" horiz-adv-x="1362" />
<glyph unicode="&#xa0;" horiz-adv-x="1362" />
<glyph unicode="!" horiz-adv-x="836" d="M145 0v270h406v-270h-406zM145 913l35 -575h338l33 575v574h-406v-574z" />
<glyph unicode="%" horiz-adv-x="2728" d="M145 795q0 -50 35 -84.5t86 -34.5h504q49 0 84 34.5t35 84.5v573q0 49 -35 84t-84 35h-504q-49 0 -84 -35q-37 -37 -37 -86v-571zM315 834v495q0 25 16.5 41t39.5 16h295q22 0 38.5 -16t16.5 -41v-495q0 -23 -16.5 -39.5t-38.5 -16.5h-295q-23 0 -39.5 14.5t-16.5 41.5z M721 0h67l439 1487h-68zM1059 119q0 -49 34.5 -84t86.5 -35h503q50 0 84 35q35 35 35 84v573q0 49 -35 84q-34 35 -84 35h-503q-52 0 -86.5 -35t-34.5 -86v-571zM1227 158v495q0 25 16 41q17 17 39 17h295q22 0 39 -17q16 -16 16 -41v-495q0 -23 -16.5 -39.5t-38.5 -16.5 h-295q-22 0 -39 15q-16 14 -16 41z" />
<glyph unicode="'" horiz-adv-x="836" d="M145 1217v270h406v-270l-236 -203h-102l102 203h-170z" />
<glyph unicode="(" horiz-adv-x="1141" d="M145 170v1149q0 65 59.5 116.5t143.5 51.5h406v-168h-109q-37 0 -65 -23q-29 -22 -29 -51v-1003q0 -31 27 -52q26 -20 67 -20h109v-170h-404q-88 0 -145 47q-60 47 -60 123z" />
<glyph unicode=")" horiz-adv-x="1143" d="M145 0h406q86 0 145 49q58 47 58 121v1149q0 67 -58 119q-59 49 -145 49h-406v-168h109q37 0 65 -23q29 -22 29 -51v-1003q0 -31 -26 -52q-27 -20 -68 -20h-109v-170z" />
<glyph unicode="*" horiz-adv-x="805" d="M145 1210l35 -59l86 51l39 -18v-103h68v103l37 18l86 -51l34 59l-88 50v45l88 49l-34 59l-86 -51l-37 24v101h-68v-101l-39 -24l-86 51l-35 -59l88 -49v-45z" />
<glyph unicode="," horiz-adv-x="836" d="M145 0v270h406v-270l-236 -203h-102l102 203h-170z" />
<glyph unicode="-" horiz-adv-x="1038" d="M145 406h541v270h-541v-270z" />
<glyph unicode="." horiz-adv-x="836" d="M145 0v270h406v-270h-406z" />
<glyph unicode="0" horiz-adv-x="1488" d="M0 219q0 -92 64 -156q63 -63 158 -63h1046q92 0 156 63q63 64 63 156v1047q0 90 -63 155q-64 66 -156 66h-1046q-91 0 -156 -66q-66 -65 -66 -155v-1047zM449 305v879q0 43 28 71q29 29 72 29h406q41 0 71 -29q31 -28 31 -71v-879q0 -41 -31 -72q-30 -30 -71 -30h-406 q-43 0 -72 28q-28 29 -28 74z" />
<glyph unicode="1" horiz-adv-x="715" d="M3 1102h203v-967q0 -55 -18 -94q-21 -41 -49 -41h575q-29 0 -47 39q-21 37 -21 96v1352h-135l-508 -182v-203z" />
<glyph unicode="2" horiz-adv-x="1488" d="M2 0h1418l67 270q-22 -22 -39 -32q-51 -35 -96 -35h-911v229q0 43 20 57q19 15 90 29l731 148q76 14 138 82q69 75 69 170v348q0 92 -63 157q-66 64 -156 64h-1200l-68 -270q29 28 66 49q37 18 70 18h817q39 0 66.5 -27.5t27.5 -66.5v-70q0 -39 -27 -57q-26 -21 -75 -29 l-725 -149q-107 -23 -162 -84q-58 -64 -58 -131v-670z" />
<glyph unicode="3" horiz-adv-x="1491" d="M3 270l68 -270h1200q90 0 156 66q63 63 63 153v303q0 92 -63 158q-66 63 -156 63q90 2 156 68q63 63 63 154v301q0 92 -63 157q-66 64 -156 64h-1200l-68 -270q29 28 66 49q37 18 70 18h817q39 0 66.5 -27.5t27.5 -66.5v-250q0 -39 -27.5 -66.5t-66.5 -27.5h-443 q-55 0 -94 20q-41 19 -41 47v-338q0 27 41 48q39 20 94 20h443q37 0 65 -29q29 -28 29 -67v-250q0 -39 -27.5 -66.5t-66.5 -27.5h-817q-43 0 -91 30q-22 15 -45 37z" />
<glyph unicode="4" horiz-adv-x="1622" d="M0 406h981v-271q0 -57 -18 -96q-21 -39 -49 -39h573q-26 0 -47 41q-20 39 -20 94v271h202v337h-202v744h-473l-947 -811v-270zM392 743l589 506v-506h-589z" />
<glyph unicode="5" horiz-adv-x="1485" d="M-1 676q0 26 41 47q39 20 95 20h819q39 0 67 -26q27 -29 27 -68v-352q0 -39 -27.5 -66.5t-66.5 -27.5h-817q-43 0 -90 30q-23 15 -46 37l68 -270h1198q92 0 156 63q63 64 63 156v506q0 90 -63.5 155.5t-155.5 65.5h-827v338h911q33 0 76 -20q43 -23 59 -47l-67 270h-1420 v-811z" />
<glyph unicode="6" horiz-adv-x="1494" d="M5 219q0 -92 64 -156q63 -63 158 -63h1046q92 0 156 63q63 64 63 156v506q0 90 -63.5 155.5t-155.5 65.5h-727q-43 0 -72 -28q-28 -29 -28 -72v344q0 39 27.5 66.5t66.5 27.5h815q43 0 90 -31q23 -14 45 -36l-67 270h-1196q-91 0 -156 -66q-66 -65 -66 -155v-1047z M446 297v352q0 39 28 68q27 26 66 26h420q39 0 67 -26q27 -29 27 -68v-352q0 -39 -27.5 -66.5t-66.5 -27.5h-420q-39 0 -66.5 27.5t-27.5 66.5z" />
<glyph unicode="7" horiz-adv-x="1488" d="M2 1217q29 28 66 49q37 18 70 18h823q37 0 37 -18q0 -9 -4 -13q-4 -6 -7 -8q-137 -137 -258 -293q-153 -196 -278 -426q-148 -268 -221 -526h440q135 442 379 807q215 321 440 477v203h-1419z" />
<glyph unicode="8" horiz-adv-x="1491" d="M2 219q0 -92 64 -156q63 -63 158 -63h1046q92 0 156 63q63 64 63 156v375q0 59 -78 108q-51 33 -174 76q164 62 209 99q43 34 43 84v305q0 90 -63 155q-64 66 -156 66h-1046q-91 0 -156 -66q-66 -65 -66 -155v-305q0 -72 117 -127q39 -19 137 -56q-127 -45 -174 -73 q-80 -50 -80 -111v-375zM443 305v203q0 43 28 72q29 28 72 28h406q41 0 71 -28q31 -29 31 -72v-203q0 -41 -31 -72q-30 -30 -71 -30h-406q-43 0 -72 28q-28 29 -28 74zM443 981v203q0 43 28 71q29 29 72 29h406q41 0 71 -29q31 -28 31 -71v-203q0 -41 -31 -72 q-30 -30 -71 -30h-406q-43 0 -72 28q-28 29 -28 74z" />
<glyph unicode="9" horiz-adv-x="1491" d="M3 760q0 -92 64 -156q63 -63 158 -63h727q43 0 71 28q29 29 29 74v-338q0 -43 -29.5 -72.5t-70.5 -29.5h-811q-43 0 -90 30q-23 15 -46 37l68 -270h1200q92 0 156 63q63 64 63 156v1047q0 90 -63 155q-64 66 -156 66h-1048q-91 0 -156 -66q-66 -65 -66 -155v-506z M444 846v338q0 43 28 71q29 29 72 29h408q43 0 71 -29q29 -28 29 -71v-338q0 -43 -29 -72q-30 -31 -71 -31h-408q-43 0 -72 29q-28 29 -28 74z" />
<glyph unicode=":" horiz-adv-x="836" d="M145 0v270h406v-270h-406zM145 473v270h406v-270h-406z" />
<glyph unicode=";" horiz-adv-x="836" d="M145 0v270h406v-270l-236 -203h-102l102 203h-170zM145 473v270h406v-270h-406z" />
<glyph unicode="?" d="M145 1270q19 16 29 24q35 25 68 25h688q37 0 65 -29q29 -28 29 -67v-250q0 -39 -27.5 -66.5t-66.5 -27.5h-244q-82 0 -141 -60q-60 -59 -60 -141v-340h406v276q0 39 26.5 68t67.5 29h246q82 0 141 59q58 57 58 139v377q0 80 -58.5 140.5t-140.5 60.5h-1032zM485 0v270 h406v-270h-406z" />
<glyph unicode="A" horiz-adv-x="1825" d="M0 0h295l2 70l172 336h678l138 -332q4 -11 4 -19q0 -10 -4 -18q-11 -19 -33 -37h573q-28 29 -43 49q-20 27 -33 55l-575 1383h-477l43 -101l-654 -1284q-43 -59 -86 -102zM570 608l266 531l221 -531h-487z" />
<glyph unicode="B" horiz-adv-x="1552" d="M-3 1487h2q28 0 49 -37q18 -39 18 -98v-1217q0 -55 -18 -94q-21 -41 -49 -41h1335q92 0 156 63q63 64 63 156v303q0 90 -63.5 155.5t-155.5 65.5q92 0 155.5 63.5t63.5 156.5v303q0 90 -63 155q-64 66 -156 66h-1337zM489 203v440h506q41 0 71 -31q31 -30 31 -71v-236 q0 -41 -31 -72q-30 -30 -71 -30h-506zM489 846v438h506q41 0 71 -29q31 -28 31 -71v-238q0 -41 -29 -69q-30 -31 -73 -31h-506z" />
<glyph unicode="C" horiz-adv-x="1288" d="M0 219q0 -92 64 -156q63 -63 158 -63h997l68 270q-23 -22 -39 -32q-52 -35 -97 -35h-610q-43 0 -72 28q-28 29 -28 74v879q0 43 28 71q29 29 72 29h608q33 0 76 -20q43 -23 60 -47l-68 270h-995q-91 0 -156 -66q-66 -65 -66 -155v-1047z" />
<glyph unicode="D" horiz-adv-x="1549" d="M-4 0h1335q92 0 156 63q63 64 63 156v1047q0 90 -63 155q-64 66 -156 66h-1335q28 0 49 -37q18 -39 18 -98v-1217q0 -55 -18 -94q-21 -41 -49 -41zM489 203v1081h506q41 0 71 -29q31 -28 31 -71v-879q0 -41 -31 -72q-30 -30 -71 -30h-506z" />
<glyph unicode="E" horiz-adv-x="1358" d="M3 -3h1284l68 270q-25 -22 -39 -32q-52 -35 -97 -35h-708v440h608q57 0 96 -18q39 -21 39 -50v338q0 -28 -37 -47q-39 -20 -98 -20h-608v438h708q33 0 76 -20q43 -23 60 -47l-68 270h-1284q28 0 49 -37q18 -39 18 -98v-1217q0 -55 -18 -94q-21 -41 -49 -41z" />
<glyph unicode="F" horiz-adv-x="1349" d="M-2 0h575q-28 0 -47 39q-20 37 -20 96v508h608q57 0 96 -18q39 -21 39 -50v338q0 -28 -37 -47q-39 -20 -98 -20h-608v438h708q33 0 76 -20q43 -23 60 -47l-68 270h-1284q28 0 49 -37q18 -39 18 -98v-1217q0 -55 -18 -94q-21 -41 -49 -41z" />
<glyph unicode="G" horiz-adv-x="1561" d="M5 219q0 -92 64 -156q63 -63 158 -63h733q35 0 65 39q29 37 29 70q0 -37 20 -64q7 -10 46 -45h440q-39 35 -47 45q-21 27 -21 64v583q0 58 21 96q18 39 47 39h-979v-270q24 23 39 33q51 35 96 35h236q41 0 71 -31q31 -31 31 -72v-217q0 -41 -31 -72q-30 -30 -71 -30h-404 q-43 0 -72.5 29.5t-29.5 72.5v879q0 41 29.5 70.5t72.5 29.5h809q33 0 76 -20q43 -23 59 -47l-67 270h-1198q-91 0 -156 -66q-66 -65 -66 -155v-1047z" />
<glyph unicode="H" horiz-adv-x="1622" d="M-2 0h575q-28 0 -47 39q-20 37 -20 96v508h608v-508q0 -57 -18 -96q-21 -39 -50 -39h574q-27 0 -47 41q-21 39 -21 94v1217q0 57 21 96q18 39 47 39h-574q27 0 48 -39q20 -41 20 -96v-506h-608v506q0 55 20 96q19 39 47 39h-575q28 0 49 -37q18 -39 18 -98v-1217 q0 -55 -18 -94q-21 -41 -49 -41z" />
<glyph unicode="I" horiz-adv-x="573" d="M-1 0h575q-28 0 -47 39q-20 37 -20 96v1217q0 55 20 96q19 39 47 39h-575q28 0 49 -37q18 -39 18 -98v-1217q0 -55 -18 -94q-21 -41 -49 -41z" />
<glyph unicode="J" horiz-adv-x="1355" d="M2 270l67 -270l998 -2q92 0 155 63q64 64 64 156v1135q0 55 20 96q19 39 48 39h-576q29 0 49 -37q19 -39 19 -98v-1047q0 -43 -29 -72q-31 -30 -72 -30h-608q-43 0 -90 30q-23 15 -45 37z" />
<glyph unicode="K" horiz-adv-x="1588" d="M-1 0h575q-28 0 -47 39q-20 37 -20 96v338l217 234l342 -707h522q-43 29 -68 66l-473 987l373 401q27 27 66 33h-332q0 -19 -10 -33l-637 -676v574q0 55 20 96q19 39 47 39h-575q28 0 49 -37q18 -39 18 -98v-1217q0 -55 -18 -94q-21 -41 -49 -41z" />
<glyph unicode="L" horiz-adv-x="1352" d="M-1 0h1284l68 270q-25 -22 -39 -32q-52 -35 -97 -35h-708v1149q0 55 20 96q19 39 47 39h-575q28 0 49 -37q18 -39 18 -98v-1217q0 -55 -18 -94q-21 -41 -49 -41z" />
<glyph unicode="M" horiz-adv-x="2058" d="M-1 0h338q-27 0 -47 41q-21 39 -21 94v985l469 -1120h330l485 1155v-1020q0 -55 -18 -94q-21 -41 -49 -41h575q-29 0 -47 39q-20 37 -20 96v1217q0 55 20 96q18 39 47 39h-590l-438 -1049l-440 1049h-594q28 0 49 -37q18 -39 18 -98v-1217q0 -55 -18 -94q-21 -41 -49 -41 z" />
<glyph unicode="N" horiz-adv-x="1619" d="M-3 0h338q-29 0 -47 39q-21 37 -21 96v1014l776 -1149h508v1352q0 55 21 96q18 39 47 39h-338q26 0 47 -39q20 -41 20 -96v-1014l-778 1149h-573q26 0 47 -39q20 -41 20 -96v-1217q0 -57 -18 -96q-21 -39 -49 -39z" />
<glyph unicode="O" horiz-adv-x="1564" d="M6 219q0 -92 64 -156q63 -63 158 -63h1114q92 0 155 63q64 64 64 156v1047q0 90 -64 155q-63 66 -155 66h-1114q-91 0 -156 -66q-66 -65 -66 -155v-1047zM447 305v879q0 43 28 71q29 29 72 29h473q41 0 72 -29q31 -28 31 -71v-879q0 -41 -31 -72q-31 -30 -72 -30h-473 q-43 0 -72 28q-28 29 -28 74z" />
<glyph unicode="P" horiz-adv-x="1552" d="M0 0h575q-28 0 -47 39q-20 37 -20 96v406h827q92 0 156 63q63 64 63 156v506q0 90 -63 155q-64 66 -156 66h-1335q28 0 49 -37q18 -39 18 -98v-1217q0 -55 -18 -94q-21 -41 -49 -41zM508 743v541h506q41 0 71 -29q31 -28 31 -71v-338q0 -41 -31 -72q-30 -31 -71 -31h-506 z" />
<glyph unicode="Q" horiz-adv-x="1561" d="M5 219q0 -92 64 -156q63 -63 158 -63h694l98 -135h203l-98 135h217q92 0 155 63q64 64 64 156v1047q0 90 -64 155q-63 66 -155 66h-1114q-91 0 -156 -66q-66 -65 -66 -155v-1047zM446 305v879q0 43 28 71q29 29 72 29h473q41 0 72 -29q31 -28 31 -71v-879q0 -41 -31 -72 q-31 -30 -72 -30h-43l-125 170h-203l123 -170h-225q-43 0 -72 28q-28 29 -28 74z" />
<glyph unicode="R" horiz-adv-x="1619" d="M-3 0h575q-28 0 -47 39q-20 37 -20 96v508h303l270 -643h477h68q-49 27 -80 66q-8 10 -43 69l-215 508h47q90 0 156 64q63 61 63 153v406q0 92 -63 157q-66 64 -156 64h-1333q29 0 47 -39t18 -96v-1217q0 -55 -18 -94q-21 -41 -49 -41zM505 846v438h506q41 0 71 -29 q31 -28 31 -71v-238q0 -41 -29 -69q-30 -31 -73 -31h-506z" />
<glyph unicode="S" horiz-adv-x="1491" d="M0 270l68 -270h1202q92 0 156 63q63 64 63 156v541q0 90 -63 155q-64 66 -156 66h-727q-43 0 -72 29q-28 28 -28 71v103q0 43 28 71q29 29 72 29h813q43 0 90 -31q23 -14 45 -36l-67 270h-1200q-91 0 -156 -66q-66 -65 -66 -155v-506q0 -92 64 -156q63 -63 158 -63h725 q41 0 71 -29q31 -29 31 -72l-2 -135q0 -43 -29.5 -72.5t-70.5 -29.5h-813q-43 0 -91 30q-22 15 -45 37z" />
<glyph unicode="T" horiz-adv-x="1455" d="M2 1217q28 28 65 49q37 18 70 18h373v-1149q0 -57 -19.5 -96t-48.5 -39h574q-27 0 -48 41q-20 39 -20 94v1149h373q43 0 90 -31q22 -14 45 -36l-68 270h-1319z" />
<glyph unicode="U" horiz-adv-x="1619" d="M-4 1487q28 0 49 -37q18 -39 18 -98v-1133q0 -92 64 -156q63 -63 158 -63h1046q92 0 156 63q63 64 63 156v1133q0 57 21 96q18 39 47 39h-338q29 0 49 -37q19 -39 19 -98v-1047q0 -43 -29 -72q-31 -30 -72 -30h-643q-43 0 -72 28q-28 29 -28 74v1047q0 55 20 96 q19 39 47 39h-575z" />
<glyph unicode="V" horiz-adv-x="1555" d="M-2 1487h522v-68l354 -1036l387 1038v66h291q-22 -14 -33 -25q-18 -18 -26 -41l-549 -1421h-406l-483 1419q-6 21 -14 33q-11 12 -43 35z" />
<glyph unicode="W" horiz-adv-x="2340" d="M0 1487q37 -23 63 -47q27 -25 35 -54l406 -1386h419l252 913l269 -913h420l382 1389q11 36 37 61q17 14 58 37h-281l-287 -1047l-311 1047h-338l-289 -1047l-307 1047h-528z" />
<glyph unicode="X" horiz-adv-x="1652" d="M0 1487h637v-33q0 -16 13 -35l233 -360l266 348q17 25 17 47v33h338q-21 -8 -31 -17q-33 -22 -66 -63l-409 -526l473 -723q20 -35 81.5 -88.5t100.5 -69.5h-637v35q0 14 -12 33l-289 444l-334 -432q-16 -25 -16 -45v-35h-338q27 12 43 25q27 20 53 53l473 614l-413 637 q-19 33 -80 88q-64 53 -103 70z" />
<glyph unicode="Y" horiz-adv-x="1649" d="M0 1487q113 -94 205 -230l457 -770v-352q0 -55 -19 -94q-20 -41 -49 -41h576q-29 0 -47 39q-21 37 -21 96v352l420 875q16 31 51 70q45 49 76 55h-364q0 -27 -5 -57q-4 -33 -20 -68l-272 -561l-334 561q-21 39 -25 70q-6 30 -8 55h-621z" />
<glyph unicode="Z" horiz-adv-x="1491" d="M3 0h1285l67 270q-24 -22 -39 -32q-51 -35 -96 -35h-561l831 1284h-1284l-67 -270q28 28 65 49q37 18 70 18h563z" />
<glyph unicode="_" horiz-adv-x="1241" d="M73 3v-270h1088v270h-1088z" />
<glyph unicode="a" horiz-adv-x="1337" d="M2 201q0 -82 60 -142q59 -59 141 -59h584q35 0 65 39q29 37 29 70q0 -46 14 -76q13 -33 33 -33h406q-19 0 -33 35q-14 33 -14 74v772q0 80 -58 141q-59 59 -141 59h-1032l-54 -217q19 17 29 25q35 24 68 24h688q37 0 65 -28q29 -29 29 -68v-149q0 32 -31 71 q-30 39 -67 39h-559q-93 0 -156 -67q-66 -70 -66 -172v-338zM408 264v250q0 39 29 68q26 26 65 26h285q39 0 67 -26q27 -29 27 -68v-250q0 -39 -27 -65q-28 -29 -67 -29h-285q-39 0 -65 29q-29 26 -29 65z" />
<glyph unicode="b" horiz-adv-x="1352" d="M-1 0h430q18 0 30.5 33t12.5 76q0 -31 32.5 -70t65.5 -39h586q82 0 139 49q56 47 56 121v743q0 72 -56 121q-57 47 -139 47h-586q-35 0 -65 -37q-33 -38 -33 -71v514h-406h-67q28 0 49 -37q18 -39 18 -98v-1217q0 -55 -18 -94q-21 -41 -49 -41zM472 242v559q0 30 32.5 69 t65.5 39h287q39 0 63 -20q25 -21 25 -53v-592q0 -31 -25 -51q-26 -23 -63 -23h-285q-41 0 -69 20q-31 21 -31 52z" />
<glyph unicode="c" horiz-adv-x="1058" d="M0 201q0 -80 60 -140q59 -59 141 -59h795l61 217q-18 -16 -28 -24q-35 -25 -66 -25h-463q-39 0 -65 29q-29 26 -29 65v555q0 39 29 68q26 26 65 26h463q29 0 63 -22q13 -8 31 -27l-51 219h-805q-82 0 -141.5 -59t-59.5 -141v-682z" />
<glyph unicode="d" horiz-adv-x="1331" d="M2 219q0 -92 64 -156q63 -63 158 -63h557q37 0 69 39q31 37 31 70q0 -46 12 -76q11 -33 31 -33h406q-19 0 -31 33t-12 76v1378h-455q20 0 35 -29q14 -28 14 -69v-416q0 33 -31 71q-30 37 -67 37h-559q-91 0 -156.5 -65.5t-65.5 -155.5v-641zM408 270v541q0 47 31 76 q28 26 71 26h271q41 0 71 -28q29 -31 29 -74v-541q0 -43 -29 -71q-28 -29 -71 -29h-271q-41 0 -71.5 28.5t-30.5 71.5z" />
<glyph unicode="e" horiz-adv-x="1288" d="M2 201q0 -82 60 -142q59 -59 141 -59h1022l62 217q-19 -16 -29 -22q-37 -25 -68 -25h-688q-39 0 -65 29q-29 26 -29 65v195h879v422q0 80 -58 141q-59 59 -141 59h-883h-2q-82 0 -141.5 -59t-59.5 -141v-680zM408 629v188q0 39 26.5 67.5t67.5 28.5h285q37 0 65 -28 q29 -29 29 -68v-188h-473z" />
<glyph unicode="f" horiz-adv-x="1119" d="M2 913h236v-815q0 -43 -12 -69q-15 -29 -37 -29h502q-23 0 -35 29q-13 26 -13 73v811h408v168h-408v144q0 37 23 65q22 29 51 29h279q43 0 88 -25q22 -12 35 -24l-33 217h-627q-92 0 -156.5 -68.5t-64.5 -169.5v-168h-236v-168z" />
<glyph unicode="g" horiz-adv-x="1331" d="M0 -188l54 -218h1032q80 0 139 60q60 59 60 141v1178q0 41 14 76q14 32 35 32h-408q-18 0 -33 -32q-14 -35 -14 -76q0 33 -29 71q-28 37 -65 37h-584q-82 0 -141.5 -59t-59.5 -141v-680q0 -82 60 -142q59 -59 141 -59h584q35 0 65 39q29 37 29 70v-250q0 -39 -27 -68 q-26 -29 -67 -29h-688q-29 0 -66 25q-10 8 -31 25zM406 264v553q0 39 26.5 67.5t67.5 28.5h285q37 0 65 -28q29 -29 29 -68v-553q0 -39 -27 -65q-28 -29 -67 -29h-285q-39 0 -65 29q-29 26 -29 65z" />
<glyph unicode="h" horiz-adv-x="1379" d="M2 0h502q-18 0 -33 31q-14 28 -14 71v711q0 45 31 74q28 26 71 26h271q43 0 71 -28q29 -29 29 -72v-715q0 -43 -12 -69q-15 -29 -37 -29h502q-19 0 -33 31q-14 28 -14 71v742q0 102 -64 170q-63 67 -156 67h-561q-35 0 -65 -37q-33 -38 -33 -71v514h-455q21 0 35 -29 q14 -28 14 -69v-1291q0 -43 -12 -69q-14 -29 -37 -29z" />
<glyph unicode="i" horiz-adv-x="503" d="M2 0h502q-18 0 -33 31q-14 28 -14 71v979h-455q21 0 35 -28.5t14 -69.5v-885q0 -43 -12 -69q-14 -29 -37 -29zM51 1184h406v303h-406v-303z" />
<glyph unicode="j" horiz-adv-x="882" d="M3 217l54 -217h606q92 0 156 63q63 64 63 156v862h-455q21 0 35 -28.5t14 -69.5v-713q0 -43 -28.5 -71.5t-71.5 -28.5h-276q-33 0 -68 23q-10 6 -29 24zM476 1184h406v303h-406v-303z" />
<glyph unicode="k" horiz-adv-x="1452" d="M-4 0h502q-18 0 -33 31q-14 28 -14 71v242l203 170l315 -514h483q-39 18 -63 49l-438 717l344 291q16 12 32 18q15 4 29 6h-307q0 -16 -10 -24l-588 -492v922h-455q21 0 35 -29q14 -28 14 -69v-1291q0 -43 -12 -69q-14 -29 -37 -29z" />
<glyph unicode="l" horiz-adv-x="500" d="M-1 0h502q-18 0 -33 31q-14 28 -14 71v1385h-455q21 0 35 -29q14 -28 14 -69v-1291q0 -43 -12 -69q-14 -29 -37 -29z" />
<glyph unicode="m" horiz-adv-x="2125" d="M2 0h502q-18 0 -33 31q-14 28 -14 71v715q0 39 26.5 67.5t67.5 28.5h217q37 0 65.5 -28.5t28.5 -67.5l2 -719q0 -41 -14 -69.5t-35 -28.5h500q-20 0 -33 29q-12 26 -12 73v715q0 39 26.5 67.5t67.5 28.5h215q37 0 65.5 -28.5t28.5 -67.5v-719q0 -43 -12 -69 q-14 -29 -37 -29h502q-18 0 -33 31q-14 28 -14 71v779q0 80 -57 141q-60 59 -142 59h-547q-32 0 -49 -22q-16 -25 -16 -86q0 31 -31 69q-31 39 -65 39h-650q-32 0 -49 -22q-16 -25 -16 -86q0 31 -31 69q-31 39 -65 39h-359q21 0 35 -28.5t14 -69.5v-885q0 -43 -12 -69 q-14 -29 -37 -29z" />
<glyph unicode="n" horiz-adv-x="1379" d="M-3 0h502q-18 0 -33 31q-14 28 -14 71v715q0 39 26.5 67.5t67.5 28.5h285q37 0 65 -28q29 -29 29 -68v-719q0 -43 -12 -69q-15 -29 -37 -29h502q-19 0 -33 31q-14 28 -14 71v779q0 80 -58 141q-59 59 -141 59h-584q-35 0 -65.5 -37.5t-30.5 -70.5q0 53 -6 69 q-15 39 -58 39h-391q21 0 35 -28.5t14 -69.5v-885q0 -43 -12 -69q-14 -29 -37 -29z" />
<glyph unicode="o" horiz-adv-x="1355" d="M3 201q0 -80 60 -140q57 -61 139 -61h950q82 0 142 59q59 60 59 142v680q0 82 -59.5 141t-141.5 59h-950q-80 0 -139.5 -59t-59.5 -141v-680zM409 264v553q0 39 26.5 67.5t67.5 28.5h350q37 0 66 -28.5t29 -67.5v-553q0 -39 -27 -65q-29 -29 -68 -29h-350q-39 0 -65 29 q-29 26 -29 65z" />
<glyph unicode="p" horiz-adv-x="1331" d="M-1 -406h502q-18 0 -33 31q-14 29 -14 70v414q0 -31 30.5 -70t63.5 -39h586q80 0 139 59q60 60 60 142v680q0 80 -58 141q-59 59 -141 59h-586q-35 0 -63 -37q-31 -38 -31 -71q0 45 -12 78q-15 30 -35 30h-408q21 0 35 -28.5t14 -69.5v-1290q0 -43 -12 -70 q-14 -29 -37 -29zM454 264v553q0 39 26.5 67.5t67.5 28.5h285q37 0 65 -28q29 -29 29 -68v-553q0 -39 -27 -65q-28 -29 -67 -29h-285q-39 0 -65 29q-29 26 -29 65z" />
<glyph unicode="q" horiz-adv-x="1334" d="M2 238q0 -103 63.5 -170.5t158.5 -67.5h559q35 0 67 39q31 37 31 70v-416q0 -43 -12 -70q-15 -29 -37 -29h502q-19 0 -33 31q-14 29 -14 70v1278q0 45 14 78q12 30 33 30h-406q-18 0 -33 -32q-14 -35 -14 -76q0 33 -29 71q-28 37 -65 37h-563q-93 0 -156 -67 q-66 -70 -66 -170v-606zM408 270v541q0 47 31 76q28 26 71 26h271q41 0 71 -28q29 -31 29 -74v-541q0 -43 -29 -71q-28 -29 -71 -29h-271q-41 0 -71.5 28.5t-30.5 71.5z" />
<glyph unicode="r" horiz-adv-x="961" d="M-2 0h522q-45 0 -55 23q-12 22 -12 75v713q0 47 31 76q28 26 71 26h406v168h-412q-35 0 -65.5 -37.5t-30.5 -70.5q0 53 -6 69q-15 39 -58 39h-391q21 0 35 -28.5t14 -69.5v-885q0 -43 -12 -69q-14 -29 -37 -29z" />
<glyph unicode="s" horiz-adv-x="1288" d="M3 633q0 -103 63.5 -170.5t158.5 -67.5h557q41 0 71 -28q29 -31 29 -74v-23q0 -43 -29 -71q-28 -29 -71 -29h-672q-31 0 -66 23q-10 6 -30 24l53 -217h1001q93 0 156 63q64 64 64 156v254q0 102 -64 170q-63 68 -156 68h-557q-41 0 -71 30q-31 31 -31 72t31 72 q28 28 71 28h650q43 0 88 -24q14 -8 36 -25l-34 217h-1026q-93 0 -156 -67q-66 -70 -66 -170v-211z" />
<glyph unicode="t" horiz-adv-x="1113" d="M0 879h236v-641q0 -103 63 -170q64 -68 158 -68h596l64 217q-19 -16 -29 -22q-37 -25 -68 -25h-276q-41 0 -72 28.5t-31 71.5v779h408v-170h-408v440l-405 -68v-202h-236v-170z" />
<glyph unicode="u" horiz-adv-x="1404" d="M-1 1081q21 0 35 -28.5t14 -69.5v-782q0 -82 60 -142q59 -59 141 -59h584q35 0 65 39q29 37 29 70q20 -66 68 -109h405q-47 43 -67 109v972h-455q20 0 34.5 -28.5t14.5 -69.5v-719q0 -39 -27 -65q-28 -29 -67 -29h-285q-39 0 -65 29q-29 26 -29 65v817h-455z" />
<glyph unicode="v" horiz-adv-x="1513" d="M-2 1081q20 -12 34 -20q13 -10 23 -29l481 -1032h373l549 1032q8 19 21.5 29t37.5 20h-250v-49l-407 -762l-359 762v49h-503z" />
<glyph unicode="w" horiz-adv-x="2016" d="M-3 1081q39 -20 64 -43q22 -22 31 -57l274 -981h418l223 821l227 -821h420l266 981q9 31 33 55q25 25 62 45h-273v-98l-176 -659l-211 757h-459l-202 -757l-183 657v100h-514z" />
<glyph unicode="x" horiz-adv-x="1355" d="M-1 1081h584v-24q4 -17 8 -25l187 -274l260 266q14 12 14 33v24h303q-12 -8 -20 -12q-33 -20 -62 -45l-401 -410l332 -501q16 -23 67 -62t84 -51h-588v25q-4 16 -10 24l-174 266l-254 -258q-12 -18 -12 -32v-25h-307q8 4 14 6q35 19 66 51l397 404l-336 508 q-14 18 -68 61q-55 41 -84 51z" />
<glyph unicode="y" horiz-adv-x="1337" d="M-1 1081q21 0 35 -28.5t14 -69.5v-782q0 -82 60 -142q59 -59 141 -59h580q35 0 67 39q31 37 31 70v-250q0 -39 -27 -68q-26 -29 -67 -29h-688q-29 0 -66 25q-10 8 -31 25l54 -218h1032q80 0 139 60q60 59 60 141v1286h-455q20 0 34.5 -28.5t14.5 -69.5v-721 q0 -39 -27 -65q-28 -29 -67 -29h-285q-39 0 -65 29q-29 26 -29 65v819h-455z" />
<glyph unicode="z" horiz-adv-x="1373" d="M0 0h1182l53 217q-18 -16 -28 -22q-37 -25 -68 -25h-463l701 911h-1182l-53 -217q18 17 28 25q35 24 68 24h514z" />
<glyph unicode="&#xa1;" />
<glyph unicode="&#xa2;" />
<glyph unicode="&#xa3;" horiz-adv-x="1706" />
<glyph unicode="&#xa4;" horiz-adv-x="2353" />
<glyph unicode="&#xa5;" />
<glyph unicode="&#xa6;" horiz-adv-x="3809" />
<glyph unicode="&#xa7;" horiz-adv-x="2019" />
<glyph unicode="&#xa8;" horiz-adv-x="2236" />
<glyph unicode="&#xa9;" horiz-adv-x="2234" />
<glyph unicode="&#xaa;" horiz-adv-x="2351" />
<glyph unicode="&#xab;" horiz-adv-x="2234" />
<glyph unicode="&#xac;" horiz-adv-x="2744" />
<glyph unicode="&#xad;" horiz-adv-x="1070" d="M145 406h801v270h-801v-270z" />
<glyph unicode="&#xae;" horiz-adv-x="2267" />
<glyph unicode="&#xaf;" horiz-adv-x="2241" />
<glyph unicode="&#xb0;" horiz-adv-x="3398" />
<glyph unicode="&#xb4;" horiz-adv-x="1552" d="M145 1217h170l-102 -203h102l236 203v270h-406v-270zM618 1217h170l-102 -203h102l236 203v270h-406v-270z" />
<glyph unicode="&#xb5;" horiz-adv-x="1552" d="M145 1014h406v270h-168l100 203h-100l-238 -203v-270zM618 1014h406v270h-168l100 203h-100l-238 -203v-270z" />
<glyph unicode="&#xbe;" horiz-adv-x="852" d="M156 557q0 84 59 143q59 60 143 60t144 -60q59 -59 59 -143t-59.5 -143.5t-143.5 -59.5t-143 59.5t-59 143.5z" />
<glyph unicode="&#xc0;" horiz-adv-x="2988" d="M147 0h295l2 70l170 336h680l138 -332q4 -11 4 -19q0 -10 -4 -18q-11 -19 -33 -37h573q-39 41 -45 49q-20 25 -33 55l-575 1383h-475l41 -101l-652 -1284q-43 -59 -86 -102zM721 608l266 531l223 -531h-489z" />
<glyph unicode="&#xc1;" horiz-adv-x="2474" d="M78 0h1335q92 0 156 63q63 64 63 156v406q0 90 -63 155q-64 66 -156 66h-827v438h811q43 0 90 -31q22 -14 45 -36l-68 270h-1386q28 0 49 -37q18 -39 18 -98v-1217q0 -55 -18 -94q-21 -41 -49 -41zM586 203v440h506q41 0 71 -31q31 -30 31 -71v-236q0 -41 -31 -72 q-30 -30 -71 -30h-506z" />
<glyph unicode="&#xc2;" horiz-adv-x="2474" d="M76 1487h2q28 0 49 -37q18 -39 18 -98v-1217q0 -55 -18 -94q-21 -41 -49 -41h1335q92 0 156 63q63 64 63 156v303q0 90 -63.5 155.5t-155.5 65.5q92 0 155.5 63.5t63.5 156.5v303q0 90 -63 155q-64 66 -156 66h-1337zM586 203v440h506q41 0 71 -31q31 -30 31 -71v-236 q0 -41 -31 -72q-30 -30 -71 -30h-506zM586 846v438h506q41 0 71 -29q31 -28 31 -71v-238q0 -41 -29 -69q-30 -31 -73 -31h-506z" />
<glyph unicode="&#xc3;" horiz-adv-x="2163" d="M78 0h575q-28 0 -47 39q-20 37 -20 96v1149h708q33 0 76 -20q43 -23 60 -47l-68 270h-1284q28 0 49 -37q18 -39 18 -98v-1217q0 -55 -18 -94q-21 -41 -49 -41z" />
<glyph unicode="&#xc4;" horiz-adv-x="2679" d="M137 203v-408h305q-26 0 -47 41q-20 39 -20 94v70h1157v-70q0 -57 -19.5 -96t-48.5 -39h303v408h-135v1149q0 57 21 96q18 39 47 39h-1284v-768q0 -248 -88 -408q-29 -51 -88 -108h-103zM442 203q60 55 88 108q88 160 88 410v563h576v-1081h-752z" />
<glyph unicode="&#xc5;" d="M78 0h1284l68 270q-25 -22 -39 -32q-52 -35 -97 -35h-708v440h608q57 0 96 -18q39 -21 39 -50v338q0 -28 -37 -47q-39 -20 -98 -20h-608v438h708q33 0 76 -20q43 -23 60 -47l-68 270h-1284q28 0 49 -37q18 -39 18 -98v-1217q0 -55 -18 -94q-21 -41 -49 -41z" />
<glyph unicode="&#xc6;" horiz-adv-x="4264" d="M145 0h541l377 694l199 -221v-336q0 -59 -19 -96q-20 -39 -49 -39h573q-26 0 -47 41q-20 39 -20 94v338l198 219l377 -694h541q-10 6 -18 12q-50 39 -86 107l-500 923l350 375q10 13 68 41q18 10 59 29h-377v-33l-612 -676v576q0 57 19.5 96t47.5 39h-573q27 0 47 -39 q21 -41 21 -96v-576l-613 676v33h-377q39 -19 58 -29q61 -33 69 -43l351 -375l-500 -923q-31 -58 -70 -92q-12 -11 -35 -25z" />
<glyph unicode="&#xc7;" horiz-adv-x="2064" d="M78 270l67 -270h998q92 0 155 63q64 64 64 156v303q0 90 -64 156q-63 65 -155 65q92 0 155 64q64 63 64 156v303q0 90 -64 155q-63 66 -155 66h-957l-67 -270q28 28 65 49q37 18 70 18h567q43 0 72 -29q29 -28 29 -71l2 -238q0 -41 -29 -69q-31 -31 -74 -31h-338 q-55 0 -94 20q-41 19 -41 47v-338q0 27 41 48q39 20 94 20h338q41 0 72 -31q31 -30 31 -71v-236q0 -41 -31 -72q-31 -30 -72 -30h-608q-43 0 -90 30q-23 15 -45 37z" />
<glyph unicode="&#xc8;" horiz-adv-x="2572" d="M78 0h405l711 1014v-879q0 -57 -18 -96q-21 -39 -50 -39h574q-27 0 -47 41q-21 39 -21 94v1217q0 57 21 96q18 39 47 39h-422l-692 -987v852q0 55 20 96q19 39 47 39h-575q28 0 49 -37q18 -39 18 -98v-1217q0 -55 -18 -94q-21 -41 -49 -41z" />
<glyph unicode="&#xc9;" horiz-adv-x="2574" d="M78 0h405l711 1014v-879q0 -57 -18 -96q-21 -39 -50 -39h574q-27 0 -47 41q-21 39 -21 94v1217q0 57 21 96q18 39 47 39h-422l-692 -987v852q0 55 20 96q19 39 47 39h-575q28 0 49 -37q18 -39 18 -98v-1217q0 -55 -18 -94q-21 -41 -49 -41zM584 1554v338q0 -26 41 -47 q39 -20 94 -20h338q57 0 96 19.5t39 47.5v-338q0 29 -39 47.5t-96 18.5h-338q-55 0 -94 -18q-41 -19 -41 -48z" />
<glyph unicode="&#xca;" horiz-adv-x="2515" d="M78 0h575q-28 0 -47 39q-20 37 -20 96v338l217 234l342 -707h522q-43 29 -68 66l-473 987l373 401q27 27 66 33h-332q0 -19 -10 -33l-637 -676v574q0 55 20 96q19 39 47 39h-575q28 0 49 -37q18 -39 18 -98v-1217q0 -55 -18 -94q-21 -41 -49 -41z" />
<glyph unicode="&#xcb;" horiz-adv-x="2423" d="M80 270l65 -270h154q92 0 156 63q63 64 63 156v1065h574v-1149q0 -55 -19 -94q-20 -41 -49 -41h575q-28 0 -47 39q-20 37 -20 96v1217q0 55 20 96q19 39 47 39h-1351q26 0 47 -39q20 -41 20 -96v-1047q0 -41 -30 -72q-31 -30 -72 -30q-47 0 -94 33q-15 10 -39 34z" />
<glyph unicode="&#xcc;" horiz-adv-x="3252" d="M78 0h338q-27 0 -47 41q-21 39 -21 94v985l469 -1120h330l485 1155v-1020q0 -55 -18 -94q-21 -41 -49 -41h575q-29 0 -47 39q-20 37 -20 96v1217q0 55 20 96q18 39 47 39h-590l-438 -1049l-440 1049h-594q28 0 49 -37q18 -39 18 -98v-1217q0 -55 -18 -94q-21 -41 -49 -41 z" />
<glyph unicode="&#xcd;" horiz-adv-x="2572" d="M78 0h575q-28 0 -47 39q-20 37 -20 96v508h608v-508q0 -57 -18 -96q-21 -39 -50 -39h574q-27 0 -47 41q-21 39 -21 94v1217q0 57 21 96q18 39 47 39h-574q27 0 48 -39q20 -41 20 -96v-506h-608v506q0 55 20 96q19 39 47 39h-575q28 0 49 -37q18 -39 18 -98v-1217 q0 -55 -18 -94q-21 -41 -49 -41z" />
<glyph unicode="&#xce;" horiz-adv-x="2576" d="M145 219q0 -92 64 -156q63 -63 158 -63h1114q92 0 155 63q64 64 64 156v1047q0 90 -64 155q-63 66 -155 66h-1114q-91 0 -156 -66q-66 -65 -66 -155v-1047zM586 305v879q0 43 28 71q29 29 72 29h473q41 0 72 -29q31 -28 31 -71v-879q0 -41 -31 -72q-31 -30 -72 -30h-473 q-43 0 -72 28q-28 29 -28 74z" />
<glyph unicode="&#xcf;" horiz-adv-x="2572" d="M78 0h575q-28 0 -47 39q-20 37 -20 96v1149h608v-1149q0 -57 -18 -96q-21 -39 -50 -39h574q-27 0 -47 41q-21 39 -21 94v1217q0 57 21 96q18 39 47 39h-1622q28 0 49 -37q18 -39 18 -98v-1217q0 -55 -18 -94q-21 -41 -49 -41z" />
<glyph unicode="&#xd0;" horiz-adv-x="2474" d="M78 0h575q-28 0 -47 39q-20 37 -20 96v406h827q92 0 156 63q63 64 63 156v506q0 90 -63 155q-64 66 -156 66h-1335q28 0 49 -37q18 -39 18 -98v-1217q0 -55 -18 -94q-21 -41 -49 -41zM586 743v541h506q41 0 71 -29q31 -28 31 -71v-338q0 -41 -31 -72q-30 -31 -71 -31 h-506z" />
<glyph unicode="&#xd1;" horiz-adv-x="2173" d="M145 219q0 -92 64 -156q63 -63 158 -63h997l68 270q-23 -22 -39 -32q-52 -35 -97 -35h-610q-43 0 -72 28q-28 29 -28 74v879q0 43 28 71q29 29 72 29h608q33 0 76 -20q43 -23 60 -47l-68 270h-995q-91 0 -156 -66q-66 -65 -66 -155v-1047z" />
<glyph unicode="&#xd2;" horiz-adv-x="2320" d="M78 1217q28 28 65 49q37 18 70 18h373v-1149q0 -57 -19.5 -96t-48.5 -39h574q-27 0 -48 41q-20 39 -20 94v1149h373q43 0 90 -31q22 -14 45 -36l-68 270h-1319z" />
<glyph unicode="&#xd3;" horiz-adv-x="2703" d="M135 1487h619q2 -25 8 -53q4 -29 26 -72l334 -561l271 561q14 31 22 82q2 16 4 43h365q-33 -6 -72 -49q-41 -45 -55 -76l-576 -1194q-41 -74 -96 -115q-74 -53 -176 -53h-156l-43 266q33 -24 78 -43q43 -20 82 -20q76 0 90 24l41 80l-291 494l-270 456q-92 136 -205 230z " />
<glyph unicode="&#xd4;" horiz-adv-x="3240" d="M145 457q0 -92 64 -156q63 -63 158 -63h557v-103q0 -57 -19.5 -96t-48.5 -39h574q-27 0 -48 41q-20 39 -20 94v103h559q92 0 156 63q63 64 63 156v643q0 90 -63 155q-66 64 -156 64h-559v33q0 57 19.5 96t48.5 39h-574q27 0 47 -39q21 -41 21 -96v-33h-557 q-93 0 -156 -64q-66 -65 -66 -155v-643zM586 543v473q0 43 28 71q29 29 72 29h238v-676h-238q-41 0 -70 31q-30 29 -30 72zM1362 440v676h237q43 0 72 -29q29 -28 29 -71v-473q0 -41 -29 -72t-72 -31h-237z" />
<glyph unicode="&#xd5;" horiz-adv-x="2595" d="M63 1487h637v-33q0 -16 13 -35l231 -360l268 348q17 29 17 47v33h338q-19 -8 -31 -17q-33 -22 -68 -63l-407 -526l471 -723q20 -35 82 -86q59 -54 102 -72h-637v35q0 14 -12 33l-289 444l-336 -432q-14 -27 -14 -45v-35h-338q27 12 43 25q27 20 53 53l473 614l-413 637 q-21 35 -82.5 88t-100.5 70z" />
<glyph unicode="&#xd6;" horiz-adv-x="2679" d="M78 0h1454v-70q0 -57 -19.5 -96t-48.5 -39h303v408h-135v1149q0 57 21 96q18 39 47 39h-574q27 0 48 -39q20 -41 20 -96v-1149h-608v1149q0 55 20 96q19 39 47 39h-575q28 0 49 -37q18 -39 18 -98v-1217q0 -55 -18 -94q-21 -41 -49 -41z" />
<glyph unicode="&#xd7;" horiz-adv-x="2542" d="M57 1487q27 0 47 -39q21 -41 21 -96v-592q0 -92 63 -156q64 -63 156 -63h827v-406q0 -55 -18 -94q-20 -41 -49 -41h575q-28 0 -47 39q-20 37 -20 96v1217q0 55 20 96q19 39 47 39h-575q29 0 49 -37q18 -39 18 -98v-609h-505q-43 0 -72 31q-31 29 -31 72v506q0 57 21 96 q18 39 47 39h-574z" />
<glyph unicode="&#xd8;" horiz-adv-x="3447" d="M78 0h2197q-28 0 -47 39q-20 37 -20 96v1217q0 55 20 96q19 39 47 39h-575q29 0 49 -37q18 -39 18 -98v-1149h-370v1149q0 55 20 96q19 39 47 39h-575q29 0 49 -37q18 -39 18 -98v-1149h-370v1149q0 55 20 96q19 39 47 39h-575q28 0 49 -37q18 -39 18 -98v-1217 q0 -55 -18 -94q-21 -41 -49 -41z" />
<glyph unicode="&#xd9;" horiz-adv-x="3561" d="M78 0h2036v-70q0 -55 -19 -94q-20 -41 -49 -41h305v408h-135v1149q0 55 20 96q19 39 48 39h-576q29 0 49 -37q19 -39 19 -98v-1149h-371v1149q0 55 20 96q19 39 48 39h-576q29 0 49 -37q19 -39 19 -98v-1149h-379v1149q0 55 20 96q19 39 47 39h-575q28 0 49 -37 q18 -39 18 -98v-1217q0 -55 -18 -94q-21 -41 -49 -41z" />
<glyph unicode="&#xda;" horiz-adv-x="2836" d="M147 1217q29 28 66 49q37 18 70 18h102v-1149q0 -55 -18 -94q-21 -41 -50 -41l1336 -2q92 0 155 63q64 64 64 156v508q0 90 -64 156q-63 65 -155 65h-828v406q0 55 21 96q18 39 47 39h-678zM825 203v540h506q41 0 72 -28.5t31 -71.5v-338q0 -41 -31 -72q-31 -30 -72 -30 h-506z" />
<glyph unicode="&#xdb;" horiz-adv-x="3449" d="M78 0h1335q92 0 156 63q63 64 63 156v506q0 90 -63.5 155.5t-155.5 65.5h-827v406q0 55 20 96q19 39 47 39h-575q28 0 49 -37q18 -39 18 -98v-1217q0 -55 -18 -94q-21 -41 -49 -41zM586 203v540h506q41 0 71 -28q31 -29 31 -72v-338q0 -41 -31 -72q-30 -30 -71 -30h-506z M1700 0h575q-28 0 -47 39q-20 37 -20 96v1217q0 55 20 96q19 39 47 39h-575q29 0 49 -37q18 -39 18 -98v-1217q0 -55 -18 -94q-20 -41 -49 -41z" />
<glyph unicode="&#xdc;" horiz-adv-x="2474" d="M78 0h1335q92 0 156 63q63 64 63 156v506q0 90 -63.5 155.5t-155.5 65.5h-827v406q0 55 20 96q19 39 47 39h-575q28 0 49 -37q18 -39 18 -98v-1217q0 -55 -18 -94q-21 -41 -49 -41zM586 203v540h506q41 0 71 -28q31 -29 31 -72v-338q0 -41 -31 -72q-30 -30 -71 -30h-506z " />
<glyph unicode="&#xdd;" horiz-adv-x="2105" d="M104 270l68 -270h999q91 0 154 63q64 64 64 156v1047q0 90 -64 155q-63 66 -154 66h-958l-68 -270q23 22 39 32q52 35 97 35h567q43 0 74 -29q28 -30 28 -75v43v-377h-440q-55 0 -94 20q-41 19 -41 47v-338q0 27 41 48q39 20 94 20h440v-338q0 -43 -28 -72 q-31 -30 -74 -30h-608q-45 0 -95 33q-16 10 -41 34z" />
<glyph unicode="&#xde;" horiz-adv-x="3652" d="M78 0h575q-28 0 -47 39q-20 37 -20 96v508h270v-424q0 -92 64 -156q63 -63 155 -63h1116q93 0 156 63q63 64 63 156v1047q0 90 -63 155q-63 66 -156 66h-1116q-90 0 -153 -64q-66 -65 -66 -157v-420h-270v506q0 55 20 96q19 39 47 39h-575q28 0 49 -37q18 -39 18 -98 v-1217q0 -55 -18 -94q-21 -41 -49 -41zM1294 305v879q0 41 31 71q29 29 72 29h473q43 0 72 -29q28 -28 28 -71v-879q0 -43 -28 -72q-31 -30 -72 -30h-473q-43 0 -72 30q-31 29 -31 72z" />
<glyph unicode="&#xdf;" horiz-adv-x="2578" d="M74 0h67h477l271 643h305v-508q0 -57 -18 -96q-21 -39 -50 -39h574q-27 0 -47 41q-21 39 -21 94v1217q0 57 21 96q18 39 47 39h-1333q-91 0 -156 -66q-66 -65 -66 -155v-406q0 -90 63.5 -153.5t158.5 -63.5h45l-213 -508q-23 -35 -43 -67q-33 -41 -82 -68zM586 946v238 q0 43 28 71q29 29 72 29h508v-438h-508q-43 0 -72 28q-28 29 -28 72z" />
<glyph unicode="&#xe0;" horiz-adv-x="2238" d="M145 201q0 -82 60 -142q59 -59 141 -59h584q35 0 65 39q29 37 29 70q0 -46 14 -76q13 -33 33 -33h406q-19 0 -33 35q-14 33 -14 74v772q0 80 -58 141q-59 59 -141 59h-1032l-54 -217q19 17 29 25q35 24 68 24h688q37 0 65 -28q29 -29 29 -68v-149q0 32 -31 71 q-30 39 -67 39h-559q-93 0 -156 -67q-66 -70 -66 -172v-338zM551 264v250q0 39 29 68q26 26 65 26h285q39 0 67 -26q27 -29 27 -68v-250q0 -39 -27 -65q-28 -29 -67 -29h-285q-39 0 -65 29q-29 26 -29 65z" />
<glyph unicode="&#xe1;" d="M145 219q0 -92 64 -156q63 -63 158 -63h864q80 0 139 59q60 60 60 142v680q0 80 -58 141q-59 59 -141 59h-586q-35 0 -63 -37q-31 -38 -31 -71v250q0 39 27 67q26 29 67 29h688q29 0 66 -25q10 -8 31 -24l-54 217h-1009q-91 0 -156 -66q-66 -65 -66 -155v-1047zM551 264 v553q0 39 26.5 67.5t67.5 28.5h285q37 0 65 -28q29 -29 29 -68v-553q0 -39 -27 -65q-28 -29 -67 -29h-285q-39 0 -65 29q-29 26 -29 65z" />
<glyph unicode="&#xe2;" d="M82 1081h14q21 0 35 -28.5t14 -69.5v-885q0 -43 -12 -69q-14 -29 -37 -29h1135q80 0 139 59q60 60 60 142v178q0 65 -60 113q-59 47 -143 47q84 0 143 47q60 47 60 112v183q0 80 -58 141q-59 59 -141 59h-1149zM551 170v289h379q39 0 67 -27q27 -29 27 -67v-101 q0 -39 -27 -65q-28 -29 -67 -29h-379zM551 629v284h379q37 0 65 -28q29 -29 29 -68v-94q0 -39 -27.5 -66.5t-66.5 -27.5h-379z" />
<glyph unicode="&#xe3;" horiz-adv-x="1706" d="M96 -2h502q-18 0 -33 31q-14 28 -14 69v815h477q29 0 66 -24q10 -8 30 -25l-53 217h-975q21 0 35 -28.5t14 -69.5v-887q0 -98 -49 -98z" />
<glyph unicode="&#xe4;" horiz-adv-x="2353" d="M63 -150h283q-27 0 -45 29t-18 70v51h1050v-49q0 -43 -16.5 -72t-44.5 -29h280v320h-122v911h-1082v-536q0 -180 -82 -295q-26 -37 -82 -80h-121v-320zM354 170q56 41 82 78q82 114 82 297v368h506v-743h-670z" />
<glyph unicode="&#xe5;" d="M145 201q0 -82 60 -142q59 -59 141 -59h1022l62 217q-19 -16 -29 -22q-37 -25 -68 -25h-688q-39 0 -65 29q-29 26 -29 65v195h879v422q0 80 -58 141q-59 59 -141 59h-883h-2q-82 0 -141.5 -59t-59.5 -141v-680zM551 629v188q0 39 26.5 67.5t67.5 28.5h285q37 0 65 -28 q29 -29 29 -68v-188h-473z" />
<glyph unicode="&#xe6;" horiz-adv-x="3809" d="M150 0h497l348 504l133 -115v-291q0 -43 -12 -69q-14 -29 -37 -29h502q-22 0 -35 29q-12 26 -12 73v287l133 115l348 -504h500q-27 14 -43 29q-31 24 -53 57l-461 672l323 272q9 8 84 37q13 4 35 14h-350v-22l-516 -447v471h-455q21 0 35 -28.5t14 -71.5v-371l-514 445 v24h-350q35 -14 53 -20q58 -25 66 -33l324 -270l-463 -672q-33 -49 -76 -76q-6 -4 -18 -10z" />
<glyph unicode="&#xe7;" horiz-adv-x="2019" d="M145 217l54 -217h934q81 0 141 59q59 60 59 142v178q0 67 -59.5 114.5t-143.5 47.5q87 2 146 49q57 45 57 112v179q0 82 -59.5 141t-140.5 59h-895l-54 -217q19 17 29 25q35 24 68 24h553q36 0 65 -28.5t29 -67.5v-94q0 -39 -27 -66q-29 -28 -67 -28h-252q-58 0 -93 14 q-34 12 -34 35v-266q0 18 39 32q36 15 88 15h252q38 0 67 -27q27 -29 27 -67v-101q0 -39 -27 -65q-29 -29 -67 -29h-592q-31 0 -66 23q-10 6 -31 24z" />
<glyph unicode="&#xe8;" horiz-adv-x="2236" d="M96 0h361l567 737v-639q0 -43 -12 -69q-15 -29 -37 -29h502q-19 0 -33 31q-14 28 -14 71v979h-328l-551 -719v719h-455q21 0 35 -28.5t14 -69.5v-885q0 -43 -12 -69q-14 -29 -37 -29z" />
<glyph unicode="&#xe9;" horiz-adv-x="2234" d="M96 0h361l567 737v-639q0 -43 -12 -69q-15 -29 -37 -29h502q-19 0 -33 31q-14 28 -14 71v979h-328l-551 -719v719h-455q21 0 35 -28.5t14 -69.5v-885q0 -43 -12 -69q-14 -29 -37 -29zM551 1251v236q12 -21 18 -27t17 -6h438q10 0 18 8q7 6 17 25v-236q-12 21 -19 27 q-6 6 -16 6h-438q-11 0 -17 -6q-8 -8 -18 -27z" />
<glyph unicode="&#xea;" horiz-adv-x="2351" d="M96 0h502q-18 0 -33 31q-14 28 -14 71v242l203 170l315 -514h483q-39 18 -63 49l-438 717l344 291q16 12 32 18q15 4 29 6h-307q0 -16 -10 -24l-588 -492v922h-455q21 0 35 -29q14 -28 14 -69v-1291q0 -43 -12 -69q-14 -29 -37 -29z" />
<glyph unicode="&#xeb;" horiz-adv-x="2234" d="M113 238l67 -238h152q92 0 155 63q64 64 64 156v694h473v-815q0 -43 -12 -69q-15 -29 -37 -29h502q-19 0 -33 31q-14 28 -14 71v979h-1131q20 0 34.5 -28.5t14.5 -69.5v-678q0 -43 -29.5 -72.5t-70.5 -29.5q-49 0 -96 16q-17 4 -39 19z" />
<glyph unicode="&#xec;" horiz-adv-x="2744" d="M96 0h264q-20 0 -32 29q-13 26 -13 73v713l435 -815h219l391 842v-744q0 -41 -14.5 -69.5t-34.5 -28.5h499q-20 0 -32 29q-13 26 -13 73v979h-481l-309 -675l-361 675h-518q21 0 35 -28.5t14 -69.5v-885q0 -43 -12 -69q-14 -29 -37 -29z" />
<glyph unicode="&#xed;" horiz-adv-x="2238" d="M96 0h502q-18 0 -33 31q-14 28 -14 71v371h473v-375q0 -43 -12 -69q-15 -29 -37 -29h502q-19 0 -33 31q-14 28 -14 71v979h-455q20 0 34.5 -28.5t14.5 -69.5v-340h-473v438h-455q21 0 35 -28.5t14 -69.5v-885q0 -43 -12 -69q-14 -29 -37 -29z" />
<glyph unicode="&#xee;" horiz-adv-x="2267" d="M145 201q0 -82 60 -142q59 -59 141 -59h950q82 0 142 59q59 60 59 142v680q0 82 -59.5 141t-141.5 59h-950q-82 0 -141.5 -59t-59.5 -141v-680zM551 264v553q0 39 26.5 67.5t67.5 28.5h350q39 0 68 -28.5t29 -67.5v-553q0 -39 -27 -65q-29 -29 -70 -29h-350q-39 0 -65 29 q-29 26 -29 65z" />
<glyph unicode="&#xef;" horiz-adv-x="2241" d="M96 0h502q-18 0 -33 31q-14 28 -14 71v811h473v-815q0 -43 -12 -69q-15 -29 -37 -29h502q-19 0 -33 31q-14 28 -14 71v979h-1334q21 0 35 -28.5t14 -69.5v-885q0 -43 -12 -69q-14 -29 -37 -29z" />
<glyph unicode="&#xf0;" d="M96 -406h502q-18 0 -33 31q-14 29 -14 70v414q0 -31 30.5 -70t63.5 -39h586q80 0 139 59q60 60 60 142v680q0 80 -58 141q-59 59 -141 59h-586q-35 0 -63 -37q-31 -38 -31 -71q0 45 -12 78q-15 30 -35 30h-408q21 0 35 -28.5t14 -69.5v-1290q0 -43 -12 -70 q-14 -29 -37 -29zM551 264v553q0 39 26.5 67.5t67.5 28.5h285q37 0 65 -28q29 -29 29 -68v-553q0 -39 -27 -65q-28 -29 -67 -29h-285q-39 0 -65 29q-29 26 -29 65z" />
<glyph unicode="&#xf1;" horiz-adv-x="1823" d="M145 201q0 -82 60 -142q59 -59 141 -59h795l61 217q-18 -16 -28 -22q-37 -25 -66 -25h-463q-39 0 -65 29q-29 26 -29 65v553q0 39 26.5 67.5t67.5 28.5h463q31 0 66 -24q10 -8 28 -25l-51 217h-805q-82 0 -141.5 -59t-59.5 -141v-680z" />
<glyph unicode="&#xf2;" horiz-adv-x="1911" d="M109 864q20 17 30 25q37 24 66 24h276v-815q0 -41 -14 -69.5t-35 -28.5h500q-21 0 -33 29q-12 26 -12 73v811h278q29 0 66 -24q10 -8 31 -25l-54 217h-1046z" />
<glyph unicode="&#xf3;" d="M96 1081q21 0 35 -28.5t14 -69.5v-782q0 -82 60 -142q59 -59 141 -59h580q35 0 67 39q31 37 31 70v-250q0 -39 -27 -68q-26 -29 -67 -29h-688q-29 0 -66 25q-10 8 -31 25l54 -218h1032q80 0 139 60q60 59 60 141v1286h-455q20 0 34.5 -28.5t14.5 -69.5v-721 q0 -39 -27 -65q-28 -29 -67 -29h-285q-39 0 -65 29q-29 26 -29 65v819h-455z" />
<glyph unicode="&#xf4;" horiz-adv-x="3293" d="M145 201q0 -82 60 -142q59 -59 141 -59h512q35 0 68 39q30 37 30 70v-416q0 -43 -12 -70q-14 -29 -37 -29h502q-18 0 -33 31q-14 29 -14 70v414q0 -31 32.5 -70t65.5 -39h514q80 0 140 59q59 60 59 142v680q0 80 -57 141q-60 59 -142 59h-514q-35 0 -65 -37 q-33 -38 -33 -71v379h-455q21 0 35 -29t14 -70v-280q0 33 -30.5 70.5t-67.5 37.5h-512q-82 0 -141.5 -59t-59.5 -141v-680zM551 264v553q0 39 26.5 67.5t67.5 28.5h217q37 0 65.5 -28.5t28.5 -67.5v-553q0 -39 -26 -65q-29 -29 -68 -29h-217q-39 0 -65 29q-29 26 -29 65z M1362 256v555q0 39 29 68q26 26 65 26h217q39 0 68 -26q26 -29 26 -68v-555q0 -39 -26 -66q-29 -28 -68 -28h-217q-39 0 -65 28q-29 27 -29 66z" />
<glyph unicode="&#xf5;" horiz-adv-x="2267" d="M141 1081h584v-24q4 -17 8 -25l187 -274l260 266q14 12 14 33v24h303q-12 -8 -20 -12q-33 -20 -62 -45l-401 -410l332 -501q14 -19 69 -60q53 -43 82 -53h-588v25q-4 16 -10 24l-174 266l-254 -258q-12 -18 -12 -32v-25h-307q8 4 14 6q35 19 65 51l398 404l-336 508 q-14 18 -68 61q-55 41 -84 51z" />
<glyph unicode="&#xf6;" horiz-adv-x="2320" d="M96 0h1237v-49q0 -43 -16.5 -72t-44.5 -29h280v320h-122v911h-455q20 0 34.5 -28.5t14.5 -69.5v-813h-473v911h-455q21 0 35 -28.5t14 -69.5v-885q0 -43 -12 -69q-14 -29 -37 -29z" />
<glyph unicode="&#xf7;" horiz-adv-x="2263" d="M96 1081q21 0 35 -28.5t14 -69.5v-444q0 -82 60 -142q59 -59 141 -59h678v-240q0 -43 -12 -69q-15 -29 -37 -29h502q-19 0 -33 31q-14 28 -14 71v979h-455q20 0 34.5 -28.5t14.5 -69.5v-475h-379q-39 0 -65 29q-29 26 -29 65v479h-455z" />
<glyph unicode="&#xf8;" horiz-adv-x="3363" d="M96 0h2124q-18 0 -33 31q-14 28 -14 71v979h-455q21 0 35 -28.5t14 -69.5v-813h-405v911h-455q21 0 35 -28.5t14 -69.5v-813h-405v911h-455q21 0 35 -28.5t14 -69.5v-885q0 -43 -12 -69q-14 -29 -37 -29z" />
<glyph unicode="&#xf9;" horiz-adv-x="3484" d="M100 0h1981v-49q0 -43 -17 -72q-16 -29 -45 -29h281v320h-123v911h-455q21 0 35 -28q15 -29 15 -70v-813h-406v911h-455q21 0 35 -28q15 -29 15 -70v-813h-406v911h-455q21 0 35 -28q15 -29 15 -70v-885q0 -43 -13 -69q-14 -29 -37 -29z" />
<glyph unicode="&#xfa;" horiz-adv-x="2333" d="M53 864q19 17 29 25q35 24 68 24h106v-815q0 -41 -14.5 -69.5t-36.5 -28.5h413q19 0 31 33q13 33 13 76q0 -31 32 -70q33 -39 66 -39h579q82 0 142 59q59 60 59 142v342q0 82 -59.5 141t-141.5 59h-579q-35 0 -66 -36q-32 -39 -32 -72v446h-558zM666 264v215q0 39 26 68 q27 28 68 28h284q37 0 66 -28.5t29 -67.5v-215q0 -39 -27 -65q-29 -29 -68 -29h-284q-39 0 -66 29q-28 26 -28 65z" />
<glyph unicode="&#xfb;" horiz-adv-x="2955" d="M96 0h412q18 0 30.5 33t12.5 76q0 -31 32.5 -70t65.5 -39h582q80 0 139 59q60 60 60 142v342q0 80 -58 141q-59 59 -141 59h-582q-35 0 -65 -36q-33 -39 -33 -72v446h-455q21 0 35 -28.5t14 -69.5v-885q0 -43 -12 -69q-14 -29 -37 -29zM551 264v215q0 39 26.5 67.5 t67.5 28.5h285q37 0 65 -28q29 -29 29 -68v-215q0 -39 -27 -65q-28 -29 -67 -29h-285q-39 0 -65 29q-29 26 -29 65zM1448 0h502q-19 0 -33 31q-14 28 -14 71v979h-455q20 0 34.5 -28.5t14.5 -69.5v-885q0 -43 -12 -69q-15 -29 -37 -29z" />
<glyph unicode="&#xfc;" d="M96 0h412q18 0 30.5 33t12.5 76q0 -31 32.5 -70t65.5 -39h582q80 0 139 59q60 60 60 142v342q0 80 -58 141q-59 59 -141 59h-582q-35 0 -65 -36q-33 -39 -33 -72v446h-455q21 0 35 -28.5t14 -69.5v-885q0 -43 -12 -69q-14 -29 -37 -29zM551 264v215q0 39 26.5 67.5 t67.5 28.5h285q37 0 65 -28q29 -29 29 -68v-215q0 -39 -27 -65q-28 -29 -67 -29h-285q-39 0 -65 29q-29 26 -29 65z" />
<glyph unicode="&#xfd;" horiz-adv-x="2066" d="M145 217l54 -217h964q82 0 142 59q59 60 59 142v680q0 82 -59.5 141t-141.5 59h-964l-54 -217q19 17 29 25q35 24 68 24h622q37 0 65.5 -28.5t28.5 -67.5v-188h-348q-49 0 -86 16q-39 14 -39 33v-268q0 20 37 34q35 15 90 15h346v-195q0 -39 -26 -65q-29 -29 -68 -29 h-622q-31 0 -66 23q-10 6 -31 24z" />
<glyph unicode="&#xfe;" horiz-adv-x="3242" d="M96 0h502q-18 0 -33 31q-14 28 -14 71v371h270v-272q0 -82 60 -142q59 -59 141 -59h917q82 0 142 59q59 60 59 142v680q0 82 -59.5 141t-141.5 59h-917q-82 0 -141.5 -59t-59.5 -141v-238h-270v438h-455q21 0 35 -28.5t14 -69.5v-885q0 -43 -12 -69q-14 -29 -37 -29z M1227 264v553q0 39 26 68q27 28 68 28h319q37 0 66 -28.5t29 -67.5v-553q0 -39 -27 -65q-29 -29 -68 -29h-319q-39 0 -66 29q-28 26 -28 65z" />
<glyph unicode="&#xff;" horiz-adv-x="2236" d="M59 0h492l233 440h240v-342q0 -43 -12 -69q-15 -29 -37 -29h502q-19 0 -33 31q-14 28 -14 71v979h-1084q-82 0 -141.5 -59t-59.5 -141v-242q0 -80 59.5 -139.5t141.5 -59.5l-178 -340q-21 -34 -37 -51q-27 -29 -72 -49zM551 702v115q0 39 26.5 67.5t67.5 28.5h379v-305 h-379q-39 0 -65 29q-29 27 -29 65z" />
<glyph unicode="&#x2000;" horiz-adv-x="946" />
<glyph unicode="&#x2001;" horiz-adv-x="1892" />
<glyph unicode="&#x2002;" horiz-adv-x="946" />
<glyph unicode="&#x2003;" horiz-adv-x="1892" />
<glyph unicode="&#x2004;" horiz-adv-x="630" />
<glyph unicode="&#x2005;" horiz-adv-x="473" />
<glyph unicode="&#x2006;" horiz-adv-x="315" />
<glyph unicode="&#x2007;" horiz-adv-x="315" />
<glyph unicode="&#x2008;" horiz-adv-x="236" />
<glyph unicode="&#x2009;" horiz-adv-x="378" />
<glyph unicode="&#x200a;" horiz-adv-x="105" />
<glyph unicode="&#x2010;" horiz-adv-x="1038" d="M145 406h541v270h-541v-270z" />
<glyph unicode="&#x2011;" horiz-adv-x="1038" d="M145 406h541v270h-541v-270z" />
<glyph unicode="&#x2012;" horiz-adv-x="1038" d="M145 406h541v270h-541v-270z" />
<glyph unicode="&#x2013;" horiz-adv-x="1521" d="M145 406h1024v270h-1024v-270z" />
<glyph unicode="&#x2014;" horiz-adv-x="2545" d="M145 406h2048v270h-2048v-270z" />
<glyph unicode="&#x202f;" horiz-adv-x="378" />
<glyph unicode="&#x205f;" horiz-adv-x="473" />
<glyph unicode="&#xe000;" horiz-adv-x="1080" d="M0 0v1080h1080v-1080h-1080z" />
</font>
</defs>
</svg>
