<?xml version="1.0" standalone="no"?>
<!DOCTYPE svg PUBLIC "-//W3C//DTD SVG 1.1//EN" "http://www.w3.org/Graphics/SVG/1.1/DTD/svg11.dtd" >
<svg xmlns="http://www.w3.org/2000/svg">
<metadata></metadata>
<defs>
<font id="lhf_ballpark_scriptregular" horiz-adv-x="978" >
<font-face units-per-em="2048" ascent="1638" descent="-410" />
<missing-glyph horiz-adv-x="573" />
<glyph horiz-adv-x="2048" />
<glyph horiz-adv-x="2048" />
<glyph unicode="&#xd;" horiz-adv-x="2048" />
<glyph unicode=" "  horiz-adv-x="573" />
<glyph unicode="&#x09;" horiz-adv-x="573" />
<glyph unicode="&#xa0;" horiz-adv-x="573" />
<glyph unicode="!" horiz-adv-x="1425" d="M119 98q-33 -55 10 -90q37 -25 82 -10q68 20 106 88q31 51 -4 90q-25 23 -63 19q-14 -2 -31 -9q-12 -4 -22 -10q-47 -25 -78 -78zM326 264q20 -18 63 23l469 465q35 33 86 96q29 37 47 63q20 35 25 54q12 80 -39 106q-45 25 -100 -2q-37 -18 -76 -53q-51 -49 -105 -131 l-360 -559q-29 -43 -10 -62z" />
<glyph unicode="&#x22;" horiz-adv-x="655" d="M350 721q12 -10 31 6l264 236l33 32q18 25 18 43q-6 53 -59 52q-39 -2 -80 -62l-203 -276q-14 -20 -4 -31zM571 721q10 -10 29 6l279 250l18 18q18 25 18 43q-6 53 -59 52q-39 -2 -80 -62l-201 -276q-16 -20 -4 -31z" />
<glyph unicode="#" horiz-adv-x="2551" d="M92 317q-90 -227 107 -327q139 -72 329 -4q78 27 160 94q68 53 156 149q51 57 92 99l223 237l121 123q63 61 152 135q72 63 145 123l74 58q-31 -39 -70 -99l-68 -104q-98 -147 -176 -316q-74 -164 -114 -297q-25 -86 -19 -155q8 -80 58 -78q14 2 41 39l53 76 q98 133 233 284q164 182 436 414l95 82l100 82q119 88 182 100q55 4 64 -39q10 -41 -39 -100q-33 -39 2 -37q29 2 72 23q23 10 41 24q27 16 47 35q53 49 73 113q19 53 -16 94q-39 43 -111 35q-92 -10 -176 -60q-82 -47 -184 -125l-129 -104q-25 -20 -43 -35 q-199 -160 -340 -289l-84 -75q0 -2 -4 -7l-6 -4l8 39q14 51 31 103q39 125 75 200q92 188 189 320q43 59 22 67q-16 8 -53 -12q-37 -18 -110 -65q-68 -45 -158 -109l-113 -82q-51 -37 -114 -86l-209 -162q-121 -96 -219 -170q-117 -86 -203 -141q-72 -47 -129 -64 q-76 -25 -142 -4q-109 33 -77 131q8 20 26 48q16 20 -14 24q-33 4 -84 -12q-63 -23 -113 -64q-61 -51 -90 -125zM1741 299q0 -135 108 -158q86 -18 183 54q37 27 73 65q29 29 56 64q41 -12 82 0q-8 -102 94 -72q88 27 84 113q-4 94 -94 63q-31 -10 -56 -37q-33 -27 -65 -4 q68 100 78 178q10 61 -17 103q-57 92 -250 -13q-276 -154 -276 -356zM1948 412q12 74 67 137q65 75 131 98q53 18 80 -4q37 -33 -4 -133q-16 20 -49 16q-39 -2 -66 -39q-27 -35 -22 -69q0 -35 26 -62q-98 -80 -143 -41q-33 27 -20 97z" />
<glyph unicode="$" horiz-adv-x="952" d="M-94 104q57 -82 184 -102l-92 -119q-14 -20 10 -41h2q27 -23 41 -4l119 156h6q168 -4 324 84q164 90 207 227q29 92 22 187q-4 80 -37 184l250 323l21 -14q43 -37 14 -92q-4 -10 -14 -19l-13 -8q-2 -2 -4 -2q-37 -20 -35 -45q4 -33 72 -22q125 16 127 112q4 70 -51 115 q-23 20 -68 41l94 121q8 10 15 31q4 23 -8 30q-35 23 -60 -18l-110 -144q-23 6 -70 11q-174 6 -297 -84q-76 -57 -102 -154q-20 -70 -13 -137q8 -47 21 -113q2 -6 2 -12l16 -84l-313 -410q-115 25 -109 99q2 10 4 22l13 25q18 33 47 39q35 10 29 37t-54 30q-119 10 -180 -84 q-59 -90 -10 -166zM250 98l242 314q0 -6 -3 -11q-6 -135 -92 -227q-59 -63 -147 -76zM672 760q-18 119 63 201q53 51 123 55h10z" />
<glyph unicode="%" horiz-adv-x="940" d="M-90 113q-29 -72 10 -119t105 -37q121 16 190 94q35 37 45 66q14 35 -35 14q-74 -33 -114 -8q-29 16 -7 61q20 41 68 76q33 23 96 62l121 71q219 131 352 238q92 70 174 149q92 88 129 148l37 51q12 14 17 33q20 70 -17 73q-37 2 -67 -69l-8 -23q-6 -14 -13 -22 q-10 -14 -18 -29q-41 -45 -94 -98q-92 -92 -246 -92q-35 0 -62 6q-18 6 -36 14q22 33 38 80q25 59 13 104q-16 82 -125 64q-43 -10 -80 -23q-49 -18 -100 -49q-164 -104 -242 -217q-68 -104 -51 -182q23 -111 137 -105q92 6 178 68q33 23 68 55q25 23 53 58l31 34 q16 18 26 33q23 -4 64 -4q106 0 178 21l-92 -64q-141 -98 -336 -217l-119 -70q-72 -41 -112 -69q-119 -88 -156 -176zM219 659q-18 82 70 181q51 57 104 92q45 29 84 35q43 8 55 -25q10 -25 -8 -72q-6 -23 -26 -63q-7 6 -21 10q-6 2 -12 2h-8q-25 0 -43 -14q-20 -16 -21 -37 q-2 -25 33 -51h2q-29 -29 -55 -45q-49 -39 -99 -47q-20 -2 -30 2q-18 10 -25 32zM434 117q25 -113 137 -105q96 6 179 66q68 49 122 112q51 55 86 107q41 61 64 121q24 59 12 104q-16 82 -125 64q-43 -8 -82 -23q-47 -18 -100 -49q-158 -100 -240 -217q-70 -100 -53 -180z M664 225q-18 78 69 181q102 117 191 126q43 10 55 -24q10 -25 -8 -72q-37 -119 -152 -198q-53 -40 -98 -48q-10 -2 -19 0q-8 0 -14 3q-18 10 -24 32z" />
<glyph unicode="&#x26;" horiz-adv-x="1134" d="M49 193q0 -160 168 -160q92 0 211 61q47 25 98 60q41 29 86 63l-16 -47q-10 -27 -21 -45q-37 -70 -92 -125q-72 -70 -133 -70q55 23 56 68q0 47 -52 47q-102 0 -102 -98q0 -78 92 -78q43 0 111 35q57 31 98 65q162 143 182 328l78 49q51 27 86 27q41 0 41 -41 q0 -29 -22 -68q-4 -4 -11 -14q-4 -6 -6 -12q-8 -12 -8 -19q0 -8 12 -8q14 0 39 12q18 8 37 21q53 33 100 98q51 74 52 129q0 76 -82 76q-61 0 -164 -58q-39 -23 -82 -51l-68 -49q0 31 -4 72l-14 141q-2 39 -2 72l209 82q63 27 106 49q51 29 78 57q61 61 61 123q0 57 -45 84 q-37 23 -96 23q-74 0 -147 -37q-57 -31 -125 -88q-123 -111 -133 -275q-80 -31 -166 -78q-72 -39 -125 -71q-78 -49 -133 -97q-70 -59 -109 -118q-43 -68 -43 -135zM350 330q0 84 99 178q80 76 176 123q0 -31 2 -70l6 -139q2 -39 2 -70v-39q-10 -8 -19 -12l-22 -14 q-25 -16 -45 -27q-57 -31 -96 -31q-102 0 -103 101zM723 733q20 111 70 166q59 66 129 96q82 33 82 -45q0 -51 -115 -127q-43 -29 -94 -55q-39 -20 -72 -35z" />
<glyph unicode="'" horiz-adv-x="395" d="M285 571q10 -16 34 0l136 101q37 29 61 51q33 31 53 55q43 59 13 99q-16 23 -50 20q-25 -2 -45 -14q-41 -23 -65 -66q-31 -45 8 -76q6 -8 19 -10q-6 -14 -31 -39q-20 -18 -53 -43l-15 -10q-6 -4 -14 -10l-31 -21q-29 -18 -20 -37z" />
<glyph unicode="(" horiz-adv-x="845" d="M2 186q0 -180 68 -262q10 -14 16 -14q10 -4 14 10q2 4 0 10l-2 11q-16 82 2 188q35 180 140 381q119 217 286 377q119 113 224 168l30 14q16 8 29 16q8 6 4 15q-4 8 -12 6q-39 -10 -64 -21q-154 -57 -309 -172q-205 -154 -313 -323q-113 -180 -113 -404z" />
<glyph unicode=")" horiz-adv-x="841" d="M20 -82q2 -8 13 -6l30 10q18 4 31 10q150 55 305 170q197 145 310 320q111 174 110 397q1 180 -65 260l-4 4q-2 4 -5 4q-4 6 -8 7q-12 0 -14 -13q-2 -4 0 -10l2 -10q14 -78 -2 -184q-35 -186 -137 -377q-121 -217 -283 -371q-106 -104 -221 -168l-29 -14q-18 -8 -28 -15 q-8 -6 -5 -14z" />
<glyph unicode="*" horiz-adv-x="468" d="M260 809q0 -41 35 -41q10 0 29 6q16 4 38 14l37 19q14 6 29 14l-37 -102q-4 -16 -4 -25q0 -41 39 -41q37 0 41 49l8 109l39 -45q8 -10 16 -16q18 -20 31 -31q18 -12 29 -12q37 0 37 38q0 20 -31 43l-88 62l108 18q10 2 19 6q10 5 18 13t9 22q0 41 -35 41q-10 0 -29 -6 q-16 -4 -37 -14l-67 -33l36 102q6 18 7 25q0 39 -43 39q-35 0 -39 -49l-9 -109l-61 72l-23 22q-16 12 -30 13q-35 0 -35 -41q0 -23 29 -43l88 -60l-101 -18q-6 0 -10 -2q-12 -2 -20 -6q-23 -12 -23 -33z" />
<glyph unicode="+" horiz-adv-x="780" d="M-8 518q2 -37 51 -37h236v-241q0 -39 36 -39q37 0 37 39v241h234q43 0 43 37t-43 37h-234v240q0 31 -37 28q-37 -2 -36 -28v-240h-236q-51 0 -51 -37z" />
<glyph unicode="," horiz-adv-x="305" d="M-49 -160q8 -18 33 0l135 101q77 59 114 106q41 59 13 98q-16 23 -49 19q-12 0 -25 -4l-20 -8q-41 -23 -66 -66q-31 -47 8 -78q4 -4 19 -8q-4 -12 -31 -41q-20 -18 -53 -43l-15 -10q-6 -4 -14 -10l-31 -21q-29 -18 -18 -35z" />
<glyph unicode="-" horiz-adv-x="776" d="M209 240q10 -6 18 -4l11 6q57 25 100 24q35 0 100 -14q55 -14 115 -14q39 0 70 4q49 6 98 20q37 12 63 25q37 16 50 30q10 12 4 21q-4 8 -15 8q-8 0 -20 -6q-29 -18 -101 -18q-35 0 -104 14q-76 16 -111 16q-29 0 -65 -6q-45 -8 -94 -24q-43 -16 -82 -35q-29 -16 -37 -23 q-12 -16 0 -24z" />
<glyph unicode="." horiz-adv-x="303" d="M68 98q-33 -55 10 -90q33 -27 82 -10q68 20 106 88q31 51 -4 90q-25 23 -63 19q-14 -2 -31 -9q-12 -4 -23 -10q-46 -25 -77 -78z" />
<glyph unicode="/" horiz-adv-x="1181" d="M242 41q-10 -27 10 -41t35 8q43 59 94 123q43 55 98 119q70 80 156 170l80 80l80 80q137 131 241 268q82 111 107 174q12 29 -10 41q-23 12 -43 -21q-29 -47 -119 -135q-45 -45 -121 -114l-141 -129q-82 -76 -156 -158q-84 -92 -154 -184q-100 -141 -157 -281z" />
<glyph unicode="0" horiz-adv-x="1071" d="M-27 293q0 -14 2 -33l5 -33q45 -233 327 -233q140 -1 275 65q162 78 295 240q96 119 147 254q43 121 43 221q0 14 -4 33l-2 31q-47 227 -303 227q-111 0 -230 -49q-145 -59 -280 -182q-137 -125 -211 -275q-68 -139 -64 -266zM188 211l9 45q12 59 41 129q35 86 90 178 q68 106 157 215q55 70 109 115q45 39 86 63q33 16 63 25l23 4h16q84 0 101 -82q0 -10 2 -14q8 -104 -94 -299q-88 -168 -201 -305q-104 -127 -193 -174q-33 -18 -61 -27l-23 -4h-18q-88 0 -102 88q-2 2 -3 8z" />
<glyph unicode="1" horiz-adv-x="724" d="M0 4q6 -12 18 -8q75 12 132 12q74 0 133 -14q10 -2 18 6l70 106q102 156 247 343q100 127 213 262q123 147 259 303q6 6 6 14q0 10 -4 14l-13 5q-10 2 -24 -5l-125 -63q-49 -27 -84 -41l-107 -45q-74 -29 -110 -39q-53 -14 -54 -45q0 -18 25 -27q20 -4 37 4l156 60 l-791 -821q-8 -8 -2 -21z" />
<glyph unicode="2" horiz-adv-x="864" d="M-123 37q-4 -14 4 -27q10 -10 21 -10q8 0 16 6q4 2 10 10q39 51 76 70q33 12 68 12q76 0 170 -57q29 -18 65 -31q51 -16 103 -16q109 0 206 55q92 51 170 152l5 10q4 6 6 8q8 35 -25 23l-12 -6l-12 -11q-33 -27 -86 -26q-57 0 -185 53q-66 29 -151 29h-25q61 29 205 86 q117 45 176 73l78 41q291 170 284 391q-2 86 -57 138q-43 41 -113 49q-162 18 -290 -68q-51 -33 -86 -63q-45 -37 -80 -78q-95 -113 -111 -213q-12 -70 25 -100q35 -31 90 -13q61 18 113 66q41 35 65 76q25 37 27 67q4 33 -35 6q-59 -43 -103 -28q-61 20 -2 110 q76 123 224 123q102 0 114 -90q16 -104 -92 -217q-57 -59 -86 -86q-49 -45 -88 -68q-55 -33 -127 -69l-98 -49q-4 -2 -8 -5q-6 -4 -9 -4l-141 -67q-217 -113 -291 -234q-6 -8 -8 -18z" />
<glyph unicode="3" horiz-adv-x="929" d="M33 147q47 -158 250 -153q174 2 338 112q160 106 178 256q14 121 -74 195l-8 8q113 29 198 92q70 49 113 125q47 80 33 142q-14 72 -82 110q-57 33 -137 33q-152 2 -295 -106q-61 -45 -94 -95q-41 -59 -39 -121q4 -91 100 -77q88 16 107 92q8 31 -11 53q-20 25 -51 18 q-39 -6 -70 -47q0 6 5 19q33 74 100 117q82 51 145 51q96 4 97 -97q4 -86 -86 -182q-78 -84 -150 -98h-14q-6 0 -15 2q-31 10 -65 2q-43 -12 -41 -41q0 -27 39 -35q14 -2 35 2l53 8q10 0 14 -18q14 -43 -12 -131q-20 -80 -88 -150q-98 -102 -213 -120q-47 -8 -88 -2 q-49 10 -84 47q-29 35 -25 92q4 66 54 104q80 63 108 -24q12 -39 -22 -88q-23 -35 6 -31q12 2 28 10q14 6 29 15l33 22l37 31q41 43 51 90q29 115 -111 110q-51 0 -96 -14q-53 -18 -98 -57q-129 -121 -82 -271z" />
<glyph unicode="4" horiz-adv-x="1021" d="M-4 330q14 -45 63 -45q27 0 64 20l27 14q14 10 16 11l258 -27l-154 -215l-20 -29q-16 -20 -27 -36q-6 -8 2 -19q6 -10 19 -8q45 8 116 8q68 0 127 -10q10 -2 19 8l67 148l76 147q98 0 156 10q154 29 147 117q-4 68 -55 68q-20 2 -20 -19q6 -74 -154 -90l-27 -2l95 149 q82 131 127 195l190 252q25 33 41 51q6 6 6 19q-2 12 -12 20q-6 4 -17 6q-33 8 -75 -18q-166 -94 -437 -289q-227 -166 -458 -344h-66l-22 -4q-94 -25 -72 -88zM260 408q4 4 12 10l328 248q74 55 164 118l143 99q8 6 11 6l-101 -105l-137 -157l-201 -248l-119 18z" />
<glyph unicode="5" horiz-adv-x="1075" d="M70 131q49 -158 258 -135q127 14 225 59q72 33 156 97q190 150 198 321q6 215 -250 209q-31 -2 -77 -10l-70 -15l149 191h7q6 0 30 -17l21 -14q12 -8 24 -12q35 -10 70 -14q51 -8 102 2q106 23 191 90q74 59 135 168l6 16q4 10 -4 18q-10 8 -20 2q-12 -6 -23 -20 q-37 -43 -125 -43q-68 0 -143 16q-68 12 -131 4v5q0 10 -8 18t-19 8q-18 0 -37 -22l-377 -478q-4 -6 -6 -8l-4 -12q-6 -16 6 -27q12 -8 21 -8q16 0 28 12l7 7l16 16q57 43 147 43q135 0 101 -147q-27 -123 -146 -236q-104 -103 -202 -117q-49 -8 -88 -2q-49 10 -80 45 t-29 92q4 63 55 103q76 61 107 -25q10 -35 -23 -86q-25 -35 4 -30q12 2 29 10q14 6 29 14q39 23 67 51q39 41 52 88q29 115 -109 111q-53 -2 -94 -14q-53 -18 -96 -58q-127 -119 -80 -266z" />
<glyph unicode="6" horiz-adv-x="722" d="M-115 334q-33 -139 27 -242q61 -106 227 -106q217 0 389 141q147 121 179 270q18 96 -37 166q-68 76 -189 76q-92 0 -168 -29l-26 -10q-14 -4 -25 -10l37 49q86 127 154 192q129 133 305 144q82 4 96 -60q4 -37 -25 -77q-27 -35 -53 -50q-37 -18 -55 17q-20 35 6 90 q16 39 -12 29q-10 -2 -27 -13l-24 -20q-8 -6 -15 -12l-14 -17q-18 -18 -31 -37q-33 -47 -35 -96q-4 -53 33 -80q39 -27 96 -8q106 35 185 135q57 76 53 137q-9 82 -72 119q-49 29 -133 29q-141 0 -319 -100q-119 -63 -213 -154q-123 -113 -197 -223q-90 -129 -117 -250z M53 147q0 47 31 115l41 76q2 6 8 16l2 4t2 2q2 6 4 9q6 10 11 16l32 61q45 39 68 52q88 55 180 55q82 0 76 -84q-10 -123 -117 -262q-115 -147 -239 -148q-98 0 -99 88z" />
<glyph unicode="7" horiz-adv-x="839" d="M-18 12q0 -16 20 -16l43 6q43 6 88 6q72 0 135 -14h4q6 0 19 14l26 35l39 63q72 109 172 248l209 277q16 18 27 35q31 37 53 67q61 74 113 131l143 150q6 6 6 14q0 12 -8 21q-10 8 -20 8t-25 -13l-49 -38q-10 -6 -21 -11q-27 -12 -53 -12q-31 0 -65 8q-23 4 -66 17 q-43 12 -65 16q-35 8 -66 8q-18 0 -39 -2l-41 -6v2q0 20 -29 21q-23 0 -75 -33q-49 -31 -105 -76q-133 -111 -133 -164q0 -29 25 -29q10 0 24 17l27 35q43 51 113 51q33 0 69 -10q14 -4 33 -13l33 -12q41 -16 65 -25q37 -10 74 -10q41 0 92 21l-786 -774q-6 -6 -6 -13z" />
<glyph unicode="8" horiz-adv-x="958" d="M8 188q0 -86 66 -139q74 -57 200 -61q119 0 215 57q55 33 95 68q51 43 82 90q74 104 73 215q0 74 -39 155l5 2q63 25 102 43q55 25 100 52q137 86 148 215q12 129 -115 166q-131 41 -291 -33q-94 -45 -164 -123q-92 -109 -92 -215q0 -63 35 -137l-135 -45 q-49 -16 -78 -29q-102 -47 -158 -127q-49 -74 -49 -154zM154 186q-4 70 39 127q37 49 108 93q80 47 156 75q10 -20 26 -61q25 -61 25 -131q0 -129 -92 -185q-59 -35 -127 -30q-129 10 -135 112zM625 803v2q0 88 86 141q70 45 137 39q92 -6 82 -111q-6 -88 -90 -147 q-49 -35 -78 -51q-41 -23 -84 -37l-6 -2q-23 49 -33 80q-14 45 -14 86z" />
<glyph unicode="9" horiz-adv-x="958" d="M-61 133q4 -82 67 -119q51 -29 137 -28q137 0 320 98q109 63 213 154q115 106 196 223q88 133 117 252q31 137 -28 241q-61 106 -226 107q-223 0 -391 -141q-150 -123 -178 -273q-23 -94 37 -166q66 -76 188 -75q84 0 170 30q33 12 49 21l-47 -64l-4 -8l-65 -86 q-41 -53 -72 -84q-131 -133 -305 -143q-90 -4 -99 57q-8 33 27 80q25 35 51 49q37 18 58 -18q18 -33 -7 -90q-18 -37 9 -27q25 6 53 33q35 33 57 65q33 47 37 94q2 53 -35 80q-37 29 -94 11q-106 -35 -184 -136q-57 -78 -51 -137zM365 578q12 125 118 262q111 147 240 147 q98 0 98 -88q0 -47 -33 -115l-65 -122q-12 -20 -33 -62q-38 -33 -67 -51q-90 -55 -181 -55q-86 0 -77 84z" />
<glyph unicode=":" horiz-adv-x="405" d="M98 59q-14 -100 92 -69q99 31 113 123q16 100 -90 69q-102 -31 -115 -123zM279 371q-14 -100 90 -70q104 31 114 123q14 100 -92 70q-98 -31 -112 -123z" />
<glyph unicode=";" horiz-adv-x="256" d="M-49 -160q8 -18 33 0l135 101q77 59 114 106q41 59 13 98q-16 23 -49 19q-12 0 -25 -4l-20 -8q-41 -23 -66 -66q-31 -47 8 -78q4 -4 19 -8q-4 -12 -31 -41q-20 -18 -53 -43l-15 -10q-6 -4 -14 -10l-31 -21q-29 -18 -18 -35zM236 379q-16 -94 79 -64q91 27 103 111 q14 90 -82 63q-90 -27 -100 -110z" />
<glyph unicode="&#x3c;" horiz-adv-x="737" d="M39 496q4 -20 24 -29l472 -193q37 -14 49 19q12 31 -29 47l-389 158l395 159q45 18 33 52q-10 33 -51 16l-480 -197q-27 -12 -24 -32z" />
<glyph unicode="=" horiz-adv-x="724" d="M-31 311q0 -16 17 -30q18 -12 39 -7q47 16 96 23q59 6 139 -8l137 -23q76 -8 135 0q78 10 130 43q49 31 26 66q-6 10 -16 14q-14 6 -37 0q-88 -25 -180 -16q-27 2 -60 8l-41 8q-8 0 -12 2q-68 12 -113 15q-66 2 -116 -7q-66 -10 -109 -34q-35 -23 -35 -54zM-31 553 q0 -16 17 -29q16 -14 39 -6q47 16 96 23q59 6 139 -9l137 -22q74 -8 135 0q76 8 130 41q49 31 26 65q-6 12 -16 17q-14 6 -37 0q-88 -25 -180 -17q-27 3 -60 9l-53 8q-68 12 -113 14q-61 4 -116 -4q-63 -10 -109 -37q-35 -18 -35 -53z" />
<glyph unicode="&#x3e;" horiz-adv-x="737" d="M125 709q-10 -33 33 -52l393 -159l-389 -158q-39 -16 -27 -47q12 -33 49 -19l471 193q23 8 25 29q2 23 -25 32l-481 197q-37 16 -49 -16z" />
<glyph unicode="?" horiz-adv-x="1280" d="M180 86q-33 -53 10 -88q35 -25 80 -10q63 20 103 86q33 53 -4 86q-20 23 -60 18l-28 -6q-12 -4 -25 -10q-41 -23 -76 -76zM340 299q8 -25 25 -41q57 -53 114 -4q29 25 37 43q16 51 -16 33q-16 -12 -25 -8q-6 4 -10 16q-6 23 31 53q31 25 92 53q45 23 125 56l131 55 q70 31 110 55q152 88 211 193q78 131 -18 217q-78 68 -223 57q-68 -6 -136 -24q-55 -16 -94 -37q-94 -51 -149 -129q-27 -43 -17 -78q10 -27 31 -23q20 2 33 25q6 8 8 16l4 15l10 20q10 16 29 39q55 61 164 72q115 14 129 -92q12 -96 -119 -187q-35 -25 -125 -73l-168 -89 q-78 -41 -121 -77q-51 -45 -63 -90q-8 -35 0 -66z" />
<glyph unicode="@" horiz-adv-x="2465" d="M195 262q2 -133 102 -203q119 -84 360 -63q88 8 150 18q88 14 166 41q125 45 225 113q6 4 12 12t9 17q6 23 -13 26q-16 2 -37 -10q-53 -31 -104 -53q-61 -27 -115 -41q-63 -16 -135 -27q-53 -8 -106 -12q-184 -12 -295 84q-86 78 -66 184q16 84 86 174q82 102 201 172 q102 57 209 90q98 29 196 29q156 0 230 -55q63 -51 71 -137q15 -113 -98 -209q-39 -33 -86 -52q-53 -20 -82 -2q-33 18 -12 76q12 39 59 98q16 20 37 43l31 35q57 68 27 86q-23 10 -84 -43l-33 -30v14q-2 8 -2 16q-4 29 -33 47q-27 16 -61 17h-3q-102 0 -217 -51 q-131 -57 -211 -123q-125 -98 -133 -203q-8 -70 33 -107q39 -37 109 -36q51 0 106 24q20 10 39 23q16 8 29 18l71 53l-4 -18v-21q8 -80 117 -79q76 -2 172 43q39 16 82 43q35 18 76 47q76 51 135 133q66 92 70 172q2 125 -101 192q-92 57 -256 58q-147 0 -274 -35 q-143 -39 -256 -100q-139 -76 -238 -170q-162 -162 -155 -318zM682 397q-4 80 94 166q123 109 228 109q23 0 30 -8q4 -5 6 -11l4 -12q2 -47 -104 -158q-131 -131 -217 -131q-14 0 -21 6q-18 12 -20 39z" />
<glyph unicode="A" horiz-adv-x="1642" d="M33 247q0 -87 57 -159q84 -104 223 -106q55 0 113 12q72 16 141 53q150 78 301 223q61 55 111 107q43 43 86 92l268 8q-98 -90 -153 -176q-68 -100 -68 -191v-10q4 -111 119 -141q22 -5 47 -5q44 0 100 15q74 23 168 76q76 43 160 102q66 47 123 97l16 14l13 8l4 4 q18 14 26 23q25 20 15 37q-6 10 -13 12q-8 2 -24 -4q-29 -12 -123 -78q-10 -8 -33 -18q-27 -14 -53 -23q-47 -18 -77 -18q-14 0 -24 4q-59 23 -65 76q-1 6 0 12q0 74 86 201l59 10q10 2 19 2q16 2 33 8q12 2 24 6q14 4 14 19q0 14 -14 14q-16 -2 -59 0l-31 2q4 8 12 18 l13 17q14 20 24 31l287 321q70 78 80 148q1 10 2 18q0 39 -23 61q-32 33 -88 34q-65 0 -162 -46q-100 -45 -194 -102q-82 -51 -180 -125q-82 -59 -193 -148l-229 -186l-33 -25q-44 19 -44 48q0 16 11 34q31 49 125 70q39 9 39 23q0 7 -10 16q-25 18 -78 31q-34 7 -72 7 q-25 0 -53 -3q-84 -8 -162 -49q-70 -37 -82 -93q-2 -11 -2 -21q0 -48 54 -87q45 -35 165 -55l-57 -41q-33 -23 -55 -35q-128 -69 -224 -69q-30 0 -57 7q-84 20 -102 86q-4 15 -4 30q0 41 28 81q14 23 -20 24h-6q-35 0 -84 -20q-63 -27 -113 -72q-59 -57 -84 -135 q-18 -53 -18 -101zM1128 539l185 190q96 100 149 143q121 102 252 183q124 76 185 76q27 0 43 -15q12 -12 12 -28q0 -43 -76 -121q-35 -35 -76 -74l-160 -137q-45 -41 -77 -72l-78 -70l-78 -67q-76 -4 -158 -6z" />
<glyph unicode="B" horiz-adv-x="1421" d="M6 155q0 -92 68 -151q64 -53 155 -53q84 0 191 45q133 55 274 201q63 63 131 147q59 76 127 172q66 92 135 176q63 76 130 150l124 125q53 51 115 106q78 -23 125 -72q39 -40 39 -88q0 -10 -2 -20q-10 -63 -37 -98q-37 -47 -123 -80q-36 -13 -63 -13h-4h-7q-25 31 -86 39 q-12 2 -26 2l-31 -4q-37 -10 -49 -41q-2 -7 -2 -14q0 -24 29 -43q37 -25 94 -25l45 2q29 -35 31 -81q1 -14 1 -28q0 -125 -98 -202q-72 -56 -150 -56q-27 0 -55 7q-63 16 -71 64q-2 9 -2 17q0 31 22 64q14 18 -14 21q-29 0 -70 -16q-49 -20 -88 -58q-49 -45 -69 -106 q-14 -42 -14 -81q0 -68 44 -124q66 -82 174 -84h12q64 0 126 20q94 33 168 107q98 94 143 213q34 87 34 173q0 17 -1 34q-6 76 -39 127q31 4 82 20q244 84 264 240q2 16 3 30q0 70 -56 121q-70 68 -203 99l39 35q16 14 33 24q10 8 18 12q16 8 8 23q-5 11 -15 11q-3 0 -7 -1 l-25 -8l-31 -14q-63 -39 -104 -68q-45 6 -92 6q-21 1 -42 1q-106 0 -222 -17q-123 -16 -222 -47q-213 -63 -313 -195q-37 -50 -37 -94q0 -17 6 -33q23 -53 92 -65q33 -6 66 -6q48 0 96 12q63 16 115 47q49 29 70 59q7 10 7 17q0 12 -23 11q-8 0 -19 -1q-18 -2 -35 -2 q-63 0 -94 31q-17 17 -17 36q0 36 64 76q74 49 162 70q63 14 131 24q86 12 162 13q20 0 61 -4q-117 -92 -277 -236q-66 -59 -141 -129q-61 -57 -137 -129q-135 -129 -289 -233q-131 -90 -241 -109q-34 -5 -60 -5q-81 0 -81 51q0 5 1 11q2 9 2 15q0 18 -13 19q-16 0 -54 -32 q-59 -53 -68 -145v-15z" />
<glyph unicode="C" horiz-adv-x="823" d="M13 288q0 -16 1 -32q12 -190 176 -266q80 -38 174 -38q92 0 197 36q98 33 221 112q49 33 103 72q41 31 88 68q79 62 79 88q0 5 -3 8q-5 5 -14 5q-23 0 -72 -30l-68 -45q-43 -27 -76 -43q-73 -35 -150 -35q-50 0 -100 15q-111 31 -145 94q-33 58 -33 135q0 27 4 57 q4 35 23 86q49 -10 114 -10q28 0 58 2q227 14 391 88q115 53 176 97q80 55 137 135q49 69 49 129q0 24 -8 47q-23 76 -108 96q-48 12 -106 12q-91 0 -203 -30q-78 -20 -162 -56q-74 -33 -148 -73q-152 -84 -274 -185q-18 -14 -55 -47q-8 28 -8 57q0 54 28 111q27 55 98 131 q12 14 25 25l16 16q10 8 11 17q0 20 -21 20q-10 0 -27 -8l-32 -21q-41 -27 -78 -59q-45 -41 -74 -88q-56 -84 -56 -165q0 -49 21 -97q2 -12 11 -23l-33 -37q-6 -10 -15 -20l-14 -18q-118 -159 -118 -333zM459 668q25 45 45 73q82 119 211 207q111 76 227 119q101 35 189 35 q20 0 40 -2q97 -10 97 -76q0 -29 -19 -70q-47 -96 -188 -176q-59 -34 -94 -34q-39 0 -45 44q-1 6 -1 12q0 39 46 89q35 35 0 37q-29 0 -74 -17q-47 -18 -90 -53q-53 -45 -84 -104q-15 -28 -15 -52q0 -17 7 -32q-82 -8 -121 -9q-82 0 -131 9z" />
<glyph unicode="D" horiz-adv-x="1474" d="M14 128q0 -26 9 -52q23 -72 100 -103q47 -19 107 -19q31 0 65 5q115 16 199 82l12 10q8 6 16 10l80 -41q118 -56 262 -56q42 0 86 5q229 25 445 213q197 174 266 389q28 88 28 169q0 101 -44 188q-49 104 -144 162l53 47q16 14 33 24l19 13q14 8 8 22q-5 11 -16 11 q-3 0 -7 -1l-24 -8l-31 -14l-63 -37l-37 -25q-90 35 -174 43q-42 6 -89 6q-37 0 -77 -4q-66 -6 -172 -26q-203 -41 -338 -123q-141 -86 -172 -195q-8 -30 -8 -58q0 -60 36 -110q54 -75 153 -75h13q57 2 107 30q41 25 69 62q27 31 31 55q6 25 -12 18q-22 -8 -40.5 -8t-35.5 8 q-35 17 -35 72v6q4 125 197 215q138 61 273 61q16 0 32 -1q78 -2 160 -33l-131 -96q-70 -55 -125 -105l-164 -153q-113 -111 -166 -176l-166 -191l-96 25q-64 10 -122 10h-10q-56 0 -106 -8q-164 -27 -233 -162q-21 -41 -21 -81zM102 135v6q2 37 35 64q22 16 61 16 q31 0 72 -10q59 -14 123 -57q8 -8 21 -17q-16 -16 -33 -24q-72 -47 -131 -60q-19 -4 -36 -4q-55 0 -93 39q-19 18 -19 47zM799 276q20 20 35 41q74 88 165 220q74 102 185 231q121 141 248 258q76 -47 112 -111q43 -77 43 -161q0 -71 -31 -148q-78 -199 -260 -309 q-131 -80 -272 -82q-25 0 -74 12q-37 8 -88 25z" />
<glyph unicode="E" horiz-adv-x="880" d="M20 245q0 -57 23 -114q59 -133 211 -166q50 -12 104 -12q91 0 193 33q98 31 246 116q129 76 215 144q10 8 20 14l47 37q25 23 8 41q-3 4 -10 4q-23 0 -88 -41q-98 -66 -184 -106q-82 -39 -166 -40q-34 0 -68 7q-98 18 -137 69q-29 37 -41 82q-4 21 -4 43q0 36 12 72 q23 55 86 104l54 37l34 21q10 6 11 6q18 10 67 27q53 -56 127 -68q32 -5 57 -5q83 0 95 58q2 8 2 16q0 55 -90 74q-27 8 -62 13q-29 3 -51 3q-11 0 -20 -1q-6 14 -11 37v13q0 76 66 150q29 31 68 60q31 25 65 45q55 33 127 59q85 29 150 29h8q55 0 86 -21q31 -22 31 -65 q0 -14 -3 -29q-16 -94 -135 -137q-14 -5 -26 -5q-31 0 -39 36q-1 6 -1 12q0 34 36 76q29 31 -3 31q-25 0 -63 -19q-37 -16 -74 -49q-43 -41 -67 -94q-8 -21 -8 -39q0 -22 12 -41q23 -33 74 -33h12q63 4 125 31q51 23 110 65q100 76 119 174q3 14 3 28v7q0 67 -58 109 q-60 41 -150 41h-8q-211 -4 -366 -109q-84 -57 -132 -125q-55 -80 -59 -168q0 -41 6 -71q-31 -2 -74 -13q-102 -23 -204 -71q-117 -55 -191 -129q-76 -76 -104 -166q-13 -44 -13 -87z" />
<glyph unicode="F" horiz-adv-x="997" d="M57 191q0 -143 148 -209q66 -30 141 -30q91 0 195 44q76 31 157 104q63 57 150 160l229 295l64 -2q35 -2 61 0q-14 -37 -24 -68q-8 -29 -13 -51q-2 -14 13 -18q14 -4 18 10q2 10 25 51q29 47 61 86l41 10q10 2 16 7q18 4 33 10q33 14 58 39q62 60 62 102q0 5 -1 10 q-4 14 -18 25q-10 8 -23 8q-94 0 -199 -135h-104q55 66 115 121l112 108q59 57 109 90l18 13q6 4 17 12q14 10 18 12q14 8 8 23q-6 14 -22 10q-27 -4 -56 -20q-154 -90 -379 -285l-92 -82l-24 2q-42 3 -85 3q-64 0 -130 -7q-76 -8 -166 -31q-145 -37 -146 -106q0 -60 42 -60 h1q18 0 19 19q0 66 137 90q80 14 262 14h2q-53 -45 -96 -78q-51 -43 -102 -77q-70 -49 -127 -72q-47 -17 -90 -17q-27 0 -54 7q-93 22 -93 92q0 16 5 35q10 29 27 51q16 20 -19 22q-6 1 -12 1q-31 0 -72 -17q-61 -25 -110 -70q-59 -57 -86 -131q-21 -66 -21 -120zM596 840 q0 -32 18 -58q29 -43 92 -43h11q80 4 153 41q59 31 103 72q41 41 55 72q4 9 4 14q0 11 -14 11q-11 0 -31 -7q-43 -14 -76 -14t-55 14q-26 17 -27 40q0 11 7 24q14 33 63 61q89 51 204 51h17q76 -2 183 -26l90 -21q53 -14 88 -20q80 -14 143 -23q78 -10 143 -14l82 -4 q47 0 84 4q92 8 154 51l47 35q25 18 39 33q25 23 25 37q0 8 -9 12q-8 4 -18 2l-21 -10q-2 -2 -4 -3q-10 -6 -18 -8q-12 -6 -23 -10q-31 -12 -67 -18q-61 -10 -135 -17q-57 -4 -140 -6q-70 0 -121 2q-66 4 -120 12l-201 37q-59 12 -102 17q-55 6 -103 6q-143 0 -270 -58 q-169 -80 -232 -217q-18 -39 -18 -71z" />
<glyph unicode="G" horiz-adv-x="1128" d="M17 70q0 -17 3 -35q14 -109 113 -160q63 -35 146 -39q13 -1 27 -1q55 0 120 13q92 16 190 62q84 37 181 96q113 70 217 152q102 78 178 164l131 145q45 59 45 84q0 9 -6 14q-4 3 -11 3q-26 0 -96 -50q-49 -37 -108 -72q-106 -68 -213 -81q-27 -3 -49 -3q-46 0 -76 13 q-88 41 -88 134q0 42 18 95q49 -10 113 -10q27 0 57 2q227 14 387 88q117 53 177 96q78 53 133 133q50 70 50 131q0 22 -7 43q-25 74 -111 95q-48 12 -104 12q-90 0 -201 -31q-152 -43 -305 -129q-90 -51 -166 -102q-90 -61 -160 -125q-6 25 -6 51q0 56 29 115q27 61 94 131 l39 37q12 10 12 18q0 20 -20 21q-8 0 -25 -9l-33 -20q-41 -25 -78 -59q-45 -41 -73 -86q-55 -81 -55 -161q0 -50 22 -100l10 -22q-86 -94 -98 -209q-2 -17 -2 -34q0 -93 57 -163q74 -92 219 -100q16 -1 32 -1q41 0 87 7q51 8 100 25l76 26q39 14 70 29q-70 -55 -123 -90 q-133 -86 -279 -135q-72 -25 -161 -27h-11q-102 0 -141 37q-40 36 -40 73q0 27 20 54q18 23 41 35q20 10 -9 26q-31 14 -82 17q-51 0 -96 -14q-55 -20 -96 -60q-65 -65 -65 -149zM780 696q90 166 254 277q113 78 221 117q95 35 181 35q25 0 49 -3q96 -10 96 -76 q0 -28 -18 -67q-49 -100 -193 -178q-54 -28 -86 -28q-38 0 -45 40q-1 5 -1 11q0 37 46 87q33 35 -2 37h-6q-27 0 -66 -16q-47 -18 -88 -53q-55 -45 -84 -103q-14 -26 -14 -50q0 -15 6 -30q-55 -8 -121 -8h-21q-53 0 -108 8z" />
<glyph unicode="H" horiz-adv-x="1542" d="M60 226q0 -138 145 -201q68 -31 145 -31q89 0 189 41q76 31 155 102q66 57 150 158q74 86 137 160l178 204h273l-76 -69l-76 -74q-80 -84 -139 -174q-66 -103 -66 -193v-10q4 -109 117 -139q22 -5 47 -5q44 0 100 15q74 23 168 76q76 43 160 102q68 49 123 97l35 26 q16 14 24 23q23 20 13 37q-6 10 -13 12q-8 2 -22 -4q-29 -12 -123 -78q-10 -8 -33 -18q-27 -14 -53 -23q-49 -18 -78 -18q-14 0 -24 4q-27 10 -41 26q-20 23 -23 56v9q0 81 104 224l74 101q27 0 58 6q66 12 106 28q76 29 148 70q61 33 122 76q143 104 201 207q26 47 26 83 q0 26 -14 46q-14 23 -39 30q-16 6 -37 6t-47 -6q-53 -12 -120 -53q-78 -43 -174 -121q-135 -111 -265 -227q-37 -31 -67 -62l-295 -6q6 6 16 19q12 12 17 18q100 106 176 180q131 127 211 179q18 12 35 22l22 14q18 14 10 31q-7 11 -19 11q-6 0 -13 -3q-14 -6 -37 -18 l-23 -8q-8 -4 -14 -8q-10 -4 -19 -7q-51 -20 -104 -32q-26 -6 -52 -6q-39 0 -77 14l-70 33l-22 6q-12 2 -24 2q-52 0 -113 -35q-27 -14 -58 -37q-10 -8 -22 -18l-21 -17q-48 -42 -48 -62q0 -16 34 -16q8 0 24 9l33 12q17 6 32 6q25 0 44 -16q52 -42 119 -42q50 0 108 23 l-157 -131q-20 -18 -50 -43l-49 -43q-25 -18 -45 -39q-125 -4 -194 -10q-94 -8 -154 -25q-135 -37 -133 -120q0 -62 40 -62h5q18 0 18 23q0 67 140 94q66 12 180 18l-21 -16q-141 -119 -249 -195q-70 -49 -127 -69q-47 -17 -90 -17q-27 0 -52 7q-91 23 -92 92q0 16 6 35 q10 29 25 49q16 23 -17 24q-6 1 -11 1q-30 0 -72 -17q-59 -23 -109 -68q-59 -55 -86 -131q-24 -68 -24 -124zM1708 756l47 51l125 129q98 102 186 160q73 46 112 46q20 0 30 -12q5 -7 5 -16q0 -28 -44 -80q-57 -72 -148 -133q-66 -49 -149 -86q-70 -33 -131 -51z" />
<glyph unicode="I" horiz-adv-x="872" d="M31 221q0 -86 57 -158q84 -104 221 -108q51 0 99 8q59 8 114 33q88 37 180 113q84 70 172 174q45 53 66 82q174 53 297 145q45 35 66 57q27 33 8 47q-4 4 -12 4q-17 0 -52 -22q-8 -4 -22 -14l-92 -60q-51 -31 -109 -45l31 41q76 106 155 201q72 86 150 166 q115 119 233 219q18 16 41 35l39 35q19 17 19 30q0 7 -6 13q-8 7 -18 7t-23 -7l-56 -35q-145 -6 -282 -37q-92 -20 -183 -55q-76 -31 -137 -64q-193 -102 -332 -248q-74 -78 -98 -176q-8 -35 -8 -65q0 -61 33 -105q23 -29 59 -53q-78 -49 -157 -49q-31 0 -62 8 q-82 20 -92 82q-2 10 -2 21q0 39 30 81q16 23 -18 25h-7q-35 0 -83 -19q-63 -27 -113 -73q-61 -55 -88 -133q-18 -53 -18 -101zM759 620q-1 59 42 130q84 139 276 239q104 51 215 84q111 35 205 41q-59 -45 -133 -106q-63 -53 -141 -121q-72 -66 -158 -146 q-68 -61 -154 -143q-49 -45 -104 -92q-49 51 -48 114z" />
<glyph unicode="J" horiz-adv-x="1007" d="M7 -209q0 -64 42 -108q48 -52 126 -52h3q90 2 187 58q78 45 159 123l336 319l51 53q37 8 54 13q29 6 45 12q182 51 293 139q43 33 61 53q27 31 10 45q-5 4 -12 4q-18 0 -49 -20l-35 -24q-8 -6 -14 -9q-33 -25 -60 -39q-86 -49 -198 -77l213 229q154 174 286 352 q57 80 117 166q8 14 33 33l49 37q66 53 86 104q6 15 6 28q0 24 -20 40q-17 13 -37 13q-52 0 -123 -87q-12 -14 -25 -37q-4 -6 -10 -18l-27 -39l-22 -17l-35 -18q-35 -14 -78 -29l-61 -20l-455 -127q-141 -41 -233 -117q-111 -90 -135 -215q-6 -26 -6 -51q0 -68 46 -125 q58 -72 152 -72q14 0 29 2q59 6 108 41q43 27 72 68q25 35 29 61q4 27 -15 19q-25 -11 -47 -11q-17 0 -33 7q-43 18 -43 82v5q0 65 47 124q39 47 109 90t174 82l92 32l158 50q37 10 66 22l30 12l-102 -137q-135 -170 -297 -350l-113 -123l-121 -123l-49 -2l-55 -6 q-84 -6 -156 -18q-88 -14 -145 -33q-178 -53 -293 -146q-150 -121 -164 -247q-1 -11 -1 -21zM307 -110q0 103 144 190q39 23 108 45q63 20 137 35l82 14q-37 -33 -53 -49l-238 -223q-82 -76 -131 -76q-18 0 -24 6q-23 16 -25 47v11z" />
<glyph unicode="K" horiz-adv-x="1474" d="M60 171q0 -138 145 -202q66 -31 143 -31q89 0 191 42q76 31 155 102q66 57 150 156l137 161q90 104 164 187l61 69v-7q0 -34 33 -52q20 -10 45.5 -10t56.5 10q0 -43 -69 -107l-45 -38l-45 -33q-31 -23 -52 -41q-31 -25 -61 -53q-115 -109 -117 -228q0 -121 121 -151 q22 -5 47 -5q44 0 99 15q76 23 167 76q78 43 162 102q66 47 123 94l33 27q18 14 27 22q25 23 14 39q-8 8 -14 11q-8 2 -23 -4q-29 -10 -123 -76q-10 -8 -33 -19q-27 -14 -53 -24q-50 -19 -79 -19q-13 0 -21 4q-45 16 -60 54q-6 16 -6 36q0 38 23 91l45 98q33 78 33 117v30 q-2 4 -2 13l-2 10l24 14q66 35 135 84q59 41 142 107l57 49l59 45q66 45 119 51h9q43 0 55 -37q2 -7 2 -15q0 -35 -37 -83q-31 -37 4 -35q27 0 67 21q20 10 39 24q25 14 45 35q49 47 68 107q5 16 5 30q0 33 -25 60q-32 35 -87 35q-10 0 -20 -1q-80 -8 -168 -61 q-51 -29 -115 -78l-184 -137q-39 -29 -74 -51q-72 -47 -137 -82q-10 -8 -27 -14l-8 10q-23 27 -63 27q-14 0 -31 -3q88 96 158 162q131 127 211 178q16 12 35 23l22 14q18 12 8 31q-5 11 -17 11q-6 0 -13 -3l-58 -27q-23 -10 -55 -22q-41 -16 -84 -27q-25 -6 -49 -6 q-41 0 -80 17l-70 32l-22 6q-12 2 -24 2q-52 0 -116 -34q-27 -14 -57 -37q-10 -8 -22 -19l-19 -16q-50 -42 -50 -62q0 -16 36 -16q6 0 24 8l31 13q16 5 30 5q27 0 48 -18q49 -41 111 -41h7q50 0 109 25l-61 -51q-57 -47 -96 -82l-263 -221q-141 -119 -249 -195 q-72 -49 -127 -72q-44 -16 -85 -16h-5q-27 0 -52 6q-93 24 -94 90q0 18 8 39q6 23 25 49q14 23 -19 25q-6 1 -11 1q-30 0 -70 -17q-61 -23 -111 -68q-59 -55 -84 -131q-24 -68 -24 -124z" />
<glyph unicode="L" horiz-adv-x="1230" d="M14 128q0 -26 9 -52q23 -72 100 -103q47 -19 107 -19q31 0 65 5q115 16 199 82q6 4 16 10l20 8q72 -43 146 -67q84 -29 164 -29q117 2 272 82q63 33 133 78q55 37 119 84l115 86q29 23 14 43q-16 23 -57 -4l-58 -37q-8 -6 -12 -8q-16 -10 -29 -17l-61 -34 q-76 -37 -135 -41q-11 -1 -23 -1q-70 0 -149 21q-70 16 -164 55q45 49 98 121l51 68q18 27 50 71q4 4 10 15q6 10 10 14l20 29q117 2 256 35q53 12 109 30q41 10 86 27q121 41 217 98q88 53 143 123q52 66 53 127q0 13 -3 25q-23 106 -158 116q-8 1 -15 1l-15 -1 q-101 0 -216 -34q-139 -43 -289 -131q-76 -45 -149 -107q-66 -55 -131 -127l-82 -94q-98 13 -98 70q0 11 4 24q14 47 94 80q53 20 16 39q-29 14 -82 16q-13 1 -25 1q-45 0 -91 -11q-78 -20 -138 -68q-38 -31 -38 -74q0 -14 4 -30q16 -66 92 -100q82 -37 188 -39l-182 -236 q-117 31 -222 31q-54 0 -104 -8q-166 -31 -233 -162q-21 -41 -21 -81zM102 135v6q2 37 35 64q22 16 61 16q31 0 72 -10q59 -14 123 -57q8 -8 21 -17q-16 -16 -33 -24q-72 -47 -131 -60q-19 -4 -36 -4q-55 0 -93 39q-19 18 -19 47zM1102 670q23 31 67 88q74 92 144 157 q104 98 229 148q85 34 166 34q16 0 31 -1q72 -6 82 -56q2 -8 2 -17q0 -46 -45 -97q-43 -47 -115 -88q-140 -80 -279 -115q-68 -16 -135 -29q-78 -16 -147 -24z" />
<glyph unicode="M" horiz-adv-x="1941" d="M65 188q0 -128 136 -196q73 -38 159 -38q79 0 170 32q76 27 160 94q66 53 156 149l198 213l240 244q66 63 150 135q78 66 147 121l72 55l-56 -57q-53 -55 -112 -121l-107 -129q-137 -170 -239 -321l-90 -138q-58 -82 -78 -135q-16 -41 -16 -74q0 -8 1 -16q6 -45 50 -45 q27 0 102 90q49 61 115 133q55 59 133 135q80 82 207 189q109 92 249 201q96 74 170 127q90 63 158 108l14 10q4 2 7 4q12 8 20 15l-551 -514q-80 -80 -129 -158q-67 -99 -67 -189v-12q4 -111 118 -141q21 -6 46 -6q47 0 108 20q78 25 176 80q72 41 152 99q59 43 118 92 l58 49q25 20 14 37q-6 10 -14 12t-23 -4q-29 -12 -123 -78q-10 -8 -32 -18q-27 -14 -54 -23q-47 -18 -76 -18q-14 0 -24 4q-61 23 -66 82v6q0 81 107 227q68 94 145 191q92 113 172 194q121 127 191 215q33 41 33 63q0 27 -39 7l-23 -8q-16 -6 -33 -17q-96 -49 -256 -151 q-68 -43 -155 -103l-158 -112q-272 -193 -453 -350l-34 -27l26 41q68 109 158 223l51 64q31 39 58 69q68 84 137 158q98 111 139 160q33 45 31 65q0 11 -11 11q-9 0 -26 -7l-12 -6q-8 -2 -15 -6q-35 -16 -110 -66l-156 -106l-115 -82q-53 -39 -116 -88l-320 -246 q-63 -49 -108 -82q-121 -90 -203 -141q-72 -45 -129 -64q-40 -12 -76 -12q-33 0 -63 10q-86 27 -86 88q0 19 8 41q10 29 26 48q14 20 -16 24q-7 1 -14 1q-29 0 -70 -13q-61 -18 -113 -62q-61 -51 -90 -125q-29 -72 -29 -131z" />
<glyph unicode="N" horiz-adv-x="1501" d="M64 187q0 -128 135 -197q71 -37 156 -37q80 0 173 33q78 27 160 94q68 53 156 149q51 57 92 99l223 237l121 123q63 61 152 135q72 63 145 123l74 58q-31 -39 -70 -99l-68 -104q-98 -147 -176 -316q-74 -164 -114 -297q-20 -69 -20 -128q0 -14 1 -27q8 -78 56 -78h2 q14 2 41 39l53 76q98 133 233 284q164 182 436 414l95 82l100 82q119 88 182 100h9q47 0 55 -39q2 -7 2 -14q0 -37 -41 -86q-33 -39 2 -37q29 2 72 23q23 10 41 24q27 16 47 35q53 49 73 113q6 18 7 35q0 32 -23 59q-33 36 -89 36q-10 0 -22 -1q-92 -10 -176 -60 q-82 -47 -184 -125l-129 -104q-25 -20 -43 -35q-199 -160 -340 -289l-84 -75q0 -2 -4 -7l-6 -4l8 39q14 51 31 103q39 125 75 200q92 188 189 320q29 40 29 56q0 8 -7 11q-5 2 -11 2q-16 0 -42 -14q-37 -18 -110 -65q-68 -45 -158 -109l-113 -82q-51 -37 -114 -86l-209 -162 q-121 -96 -219 -170q-117 -86 -203 -141q-72 -47 -129 -64q-41 -14 -80 -14q-32 0 -62 10q-84 26 -84 90q0 19 7 41q8 20 26 48q16 20 -14 24q-7 1 -14 1q-29 0 -70 -13q-63 -23 -113 -64q-61 -51 -90 -125q-28 -71 -28 -130z" />
<glyph unicode="O" d="M19 261q0 -106 65 -191q88 -115 248 -115h16q125 4 264 70q121 55 248 151q109 84 209 189q86 90 145 174q43 59 78 129q43 82 64 155q22 75 23 136q0 90 -50 147q-56 65 -157 65h-3q-38 0 -82 -8q-172 -33 -327 -170q-127 -113 -160 -213q-9 -30 -9 -56q0 -47 30 -83 q39 -42 97 -42q9 0 19 1q94 10 178 119q37 47 48 80q2 8 2 13q0 12 -10 12q-11 0 -33 -13q-58 -33 -97 -33q-17 0 -30 6q-20 8 -20 33q0 16 9 39q16 49 54 90q117 123 254 150q28 5 53 5q80 0 121 -57q33 -47 33 -110q0 -128 -132 -324q-94 -139 -227 -245 q-156 -123 -289 -136q-16 -1 -30 -1q-131 0 -195 96q-43 62 -43 143q0 46 14 98q39 145 127 269q98 135 242 225q51 33 125 59q35 12 63 25l35 18l6 6q4 4 4 9q2 8 -6 12q-4 1 -6 1t-2 -1h-16q-10 0 -23 -2q-33 -4 -67 -15q-96 -29 -185 -75q-78 -43 -166 -107 q-92 -68 -166 -133q-86 -78 -151 -156q-74 -88 -119 -178q-51 -98 -67 -196q-6 -33 -6 -65z" />
<glyph unicode="P" horiz-adv-x="1265" d="M60 187q0 -138 145 -201q69 -32 150 -32q13 0 26 1q84 6 174 43q150 63 317 248q76 84 140 170q86 2 211 28q143 29 270 80q150 57 248 133q117 90 151 195q16 48 17 89q0 154 -232 210l62 51l20 12q14 8 6 23q-3 9 -13 9q-3 0 -7 -1q-27 -4 -55 -20q-43 -23 -95 -62 q-41 6 -84 6h-23q-113 0 -241 -18q-121 -18 -219 -49q-215 -68 -313 -199q-37 -49 -37 -91q0 -17 6 -34q23 -53 94 -65q32 -6 65 -6q47 0 97 12q63 16 117 49q47 31 67 59q7 10 7 17q0 11 -22 11q-8 0 -19 -1q-20 -2 -37 -2q-63 0 -92 29q-18 18 -17 37q0 36 60 77 q76 49 163 70q66 16 129 27q88 12 162 12q35 0 53 -2q-121 -92 -284 -238l-144 -133l-186 -174l-45 -41l-84 12q-141 29 -137 97q0 18 -19 20h-5q-40 0 -40 -61q-4 -82 133 -121q23 -6 68 -14l-59 -43q-72 -49 -127 -72q-47 -17 -90 -17q-27 0 -52 7q-92 25 -92 92 q0 17 6 37q8 29 25 49q14 23 -19 24q-6 1 -11 1q-30 0 -70 -17q-61 -25 -111 -70q-59 -55 -84 -129q-24 -68 -24 -124zM1077 506l156 186q76 88 131 152q133 150 238 241q117 -35 135 -114q4 -15 4 -31q0 -80 -96 -182q-94 -100 -226 -162q-147 -72 -342 -90z" />
<glyph unicode="Q" horiz-adv-x="802" d="M8 360q0 -25 4 -47q12 -76 64 -120q52 -48 129 -48t180 48q100 45 203 141q115 106 143 205q8 27 8 50q0 48 -32 81q-37 37 -89 37q-12 0 -24 -2q-84 -12 -164 -117q-33 -45 -41 -80q-10 -39 39 -8q53 33 91 33q15 0 28 -5q20 -8 20 -33q0 -15 -6 -34q-14 -47 -49 -86 q-74 -80 -162 -121q-71 -35 -127 -35q-60 0 -104 41q-37 33 -37 101q0 38 12 88q31 135 127 251q197 231 416 252q14 1 28 1q118 0 166 -95q30 -56 30 -130q0 -49 -13 -105q-31 -139 -115 -263q-84 -125 -194 -202q-90 -61 -211 -105q-55 -8 -123 -22q-37 -8 -39 -49 q0 -41 41 -41q37 0 53 -2q27 -2 47 -9q47 -14 84 -57q23 -25 49 -72l19 -39q12 -20 22 -32q48 -69 152 -69q10 0 22 1q92 6 195 66q72 45 127 92q45 35 45 55q0 6 -4 10q-8 10 -22 10q-17 0 -44 -16l-47 -26q-27 -16 -47 -25q-35 -15 -67 -15q-18 0 -35 5q-37 8 -60 59 l-37 86q-31 55 -88 80q-18 8 -39 10l-24 4q-4 2 -10 2h-13l25 13q119 55 227 145q70 55 140 121q129 121 204 240q90 141 107 282q3 25 3 49q0 109 -67 193q-82 99 -221 99q-16 0 -33 -1q-119 -8 -237 -61q-104 -45 -209 -125q-90 -68 -170 -156q-72 -78 -125 -158 q-31 -47 -57 -104q-35 -74 -52 -139q-12 -53 -12 -97z" />
<glyph unicode="R" horiz-adv-x="1466" d="M60 187q0 -138 145 -201q69 -32 150 -32q13 0 26 1q84 6 174 43q150 63 317 248q53 59 111 133q47 59 104 139q117 166 248 309q57 61 119 121q53 51 113 105q55 -23 94 -62q47 -48 47 -105q0 -23 -8 -48q-53 -162 -311 -220q-4 4 -9 11q-6 8 -8 10q-34 36 -76 36 q-15 0 -32 -5q-70 -20 -70 -61q0 -24 23 -54q14 -21 52 -21q14 0 31 3q10 0 17 2q2 0 4 -7q4 -6 2 -16q-16 -45 -68 -94q-33 -29 -59 -49q-8 -6 -12 -11l-64 -53q-108 -93 -108 -195q0 -14 2 -28q14 -104 112 -127q21 -5 44 -5q43 0 96 17q68 23 149 72q66 41 144 100 l163 131l13 13q23 20 12 37q-6 10 -12 12q-8 2 -25 -4q-29 -12 -123 -78q-12 -8 -33 -18l-53 -23q-47 -18 -76 -18q-14 0 -24 4q-45 16 -60 51q-6 15 -6 35q0 39 25 94q4 10 14 29l4 4l15 26q23 41 24 80v21l-4 20q195 31 322 119q125 88 135 201q1 11 1 21q0 78 -54 130 q-63 61 -175 90q41 38 64 56l33 26l20 12q14 8 6 23q-3 9 -13 9q-3 0 -7 -1q-27 -4 -55 -20q-68 -39 -131 -86q-41 6 -123 10h-25q-114 0 -240 -16q-125 -18 -219 -48q-219 -68 -313 -194q-39 -50 -39 -93q0 -17 6 -34q23 -53 94 -66q31 -6 63 -6q48 0 97 13q66 16 117 47 q49 31 67 59q8 11 8 18q0 11 -21 10q-8 0 -19 -1q-19 -2 -36 -2q-64 0 -93 30q-18 18 -17 37q0 36 62 76q76 49 164 70q66 16 129 24q77 12 143 12h18q23 0 50 -2l47 -6q-117 -92 -269 -229q-63 -57 -135 -125q-61 -55 -131 -123q-61 -57 -115 -102q-61 -51 -120 -92 q-72 -49 -127 -72q-47 -17 -90 -17q-27 0 -52 7q-92 25 -92 92q0 17 6 37q8 29 25 49q14 23 -19 24q-6 1 -11 1q-30 0 -70 -17q-61 -25 -111 -70q-59 -55 -84 -129q-24 -68 -24 -124z" />
<glyph unicode="S" horiz-adv-x="1253" d="M18 127q0 -19 11 -45q31 -68 139 -68q28 0 61 4q68 10 185 52l20 -19q129 -96 312 -96h22q121 4 238 57q127 57 219 164q127 150 166 365l12 67l49 37q80 63 137 113q80 68 133 125q78 88 105 157q11 32 11 60q0 45 -28 80q-31 38 -81 38q-37 0 -84 -20 q-119 -49 -195 -186q-35 -59 -66 -133q-25 -55 -53 -134l-45 -124l-59 -46q-139 -100 -301 -186q-106 -57 -250 -125l-74 -35q-31 35 -43 86q-7 27 -7 50q0 63 50 100q42 33 95 33h12q53 -6 61 -37q7 -31 20 -31q17 0 44 53q21 41 21 88q0 36 -13 76q-33 100 -127 131 q-29 10 -63 10h-6q-49 0 -109 -18q-121 -39 -185 -135q-79 -115 -79 -239q0 -102 53 -210q6 -18 24 -43l-80 -22q-52 -12 -90 -12h-6q-78 0 -96 47q-10 20 -31 12q-29 -11 -29 -41zM684 176l68 31q49 25 106 55l107 57q102 59 221 138l47 30l-10 -22q-51 -113 -148 -197 q-113 -98 -235 -110q-18 -1 -36 -1q-69 0 -120 19zM1430 731l22 76q33 100 90 194q41 74 105 111q36 21 61 21q17 0 29 -9q19 -15 19 -39q0 -51 -85 -141q-39 -41 -106 -98z" />
<glyph unicode="T" horiz-adv-x="784" d="M8 157q0 -90 68 -151q65 -55 157 -55q83 0 189 45q66 27 135 86q59 49 129 129q31 33 66 76l290 366q53 63 101 107l112 108q59 57 109 90l18 13q6 4 15 12q14 10 20 12q14 8 8 23q-8 14 -22 10l-25 -8l-30 -14q-74 -41 -174 -117q-94 -72 -203 -166q-23 -18 -49 -43 l-50 -45q-61 -55 -98 -86q-141 -113 -250 -187q-68 -47 -135 -73q-57 -25 -108 -33q-34 -5 -60 -6q-81 0 -81 50q0 6 1 13q1 8 1 14q0 20 -13 20q-16 0 -53 -32q-61 -51 -68 -143v-15zM390 862q0 -63 40 -117q53 -68 142 -68q11 0 22 1q55 4 102 35q39 25 66 63q25 31 29 55 q4 23 -13 17q-22 -10 -41 -10q-17 0 -32 8q-39 18 -39 76q0 131 208 182q52 12 118 12q46 0 100 -6q49 -6 112 -16l197 -37q51 -10 92 -17q100 -14 174 -18q22 -1 42 -1q151 0 230 52q51 35 76 70q15 21 15 34q0 11 -9 17q-5 3 -10 3q-2 0 -4 -1l-31 -20l-20 -9 q-27 -12 -64 -18q-70 -14 -182 -14q-37 0 -78 2l-409 32q-39 6 -58 7l-59 6q-110 11 -186 11q-22 0 -41 -1q-92 -6 -166 -23q-98 -23 -168 -65q-78 -49 -113 -103q-27 -37 -37 -92q-5 -24 -5 -47z" />
<glyph unicode="U" horiz-adv-x="1353" d="M18 160q0 -82 58 -142q57 -61 147 -63h7q77 0 173 41q111 47 234 137q61 43 129 100q57 47 125 109q-6 -6 -14 -20q-2 0 -5 -5l-10 -16q-67 -99 -67 -189v-12q4 -111 118 -141q21 -6 46 -6q47 0 108 20q78 25 176 80q72 41 152 99q59 43 118 92l58 49q25 20 14 37 q-6 10 -14 12t-23 -4q-29 -12 -123 -78q-10 -8 -32 -18q-27 -14 -54 -23q-47 -18 -76 -18q-14 0 -24 4q-61 23 -65 82v6q0 81 106 227q68 94 145 191q92 113 172 194q27 29 56 58l12 12l31 31q43 41 69 77q29 40 29 64q0 9 -4 16q-5 9 -14 9q-18 0 -54 -33l-174 -162 l-190 -168q-131 -113 -242 -205q-150 -121 -272 -194l-90 -52q-59 -33 -103 -53q-59 -25 -106 -31q-10 -1 -20 -1q-42 0 -64 22q-30 29 -30 68q0 19 7 40q18 55 86 132q33 37 76 77q37 35 82 76l448 391q8 6 19 15l33 26q6 6 10 8q18 12 8 31q-5 10 -16 10q-7 0 -15 -4 q-8 -2 -41 -18q-12 -8 -26 -14l-21 -13q-25 -8 -51 -18q-33 -10 -63 -19q-25 -6 -50 -6q-41 0 -79 17l-47 22q-14 6 -23 8l-23 6q-12 2 -24 2q-52 0 -113 -34q-29 -14 -57 -37l-43 -35q-48 -41 -48 -60q0 -16 32 -18q6 0 22 8l35 15q15 5 29 5q27 0 49 -18q46 -40 107 -40h3 h7q48 0 110 24q-25 -25 -63 -53l-64 -43l-2 -2q-119 -78 -319 -199q-80 -47 -146 -100q-78 -61 -123 -117q-94 -111 -114 -217q-5 -27 -5 -51z" />
<glyph unicode="V" horiz-adv-x="860" d="M17 672q0 -32 14 -60q30 -59 96 -59h4q78 2 154 37q59 29 102 69q41 39 53 70q4 9 4 15q0 12 -15 12q-10 0 -28 -6q-42 -14 -74.5 -14t-54.5 14q-40 29 -40 69q0 65 102 160q119 113 276 131q21 3 39 3q96 0 137 -69q27 -44 27 -114q0 -26 -4 -56q-18 -164 -158 -417 q-86 -158 -186 -285q-66 -86 -129 -152q-18 -18 -12 -47q4 -20 20 -20q7 0 16 4q16 6 48 27l59 39q106 66 262 200q113 96 279 252l299 277l94 82q106 88 201 141q70 41 120 59q66 23 146 29q15 1 30 1q83 0 154 -28q54 -20 79 -20q16 0 21 8q2 4 2 8q0 14 -18 37l-47 41 q-41 29 -80 43q-51 18 -115 21h-7q-118 0 -236 -66q-115 -63 -242 -170l-113 -96l-348 -322l37 88q43 115 43 210v16q-6 162 -98 253q-61 61 -152 84q-52 13 -106 13q-30 0 -60 -4q-94 -14 -188 -62q-82 -41 -168 -108q-61 -49 -121 -115q-66 -76 -96 -139q-22 -45 -22 -84z " />
<glyph unicode="W" horiz-adv-x="1351" d="M18 154q0 -82 58 -142q52 -57 160 -57h14q100 2 211 45q80 31 166 82q31 -66 88 -96q57 -32 125 -32q66 0 141 30q63 25 131 69q57 39 115 90q49 45 114 117q49 55 119 139l119 144q66 82 111 129q156 176 329 278q70 44 117 64q66 27 145 35q22 2 45 2q70 0 142 -23 q50 -19 76 -19q19 0 24 11q1 3 1 6q0 14 -21 37q-20 23 -45 39q-43 27 -82 41q-51 16 -115 16q-119 0 -242 -74q-115 -70 -237 -176q-51 -45 -109 -102q-41 -39 -104 -105q-35 -35 -80 -84q-29 -29 -86 -92l-201 -215q-41 -43 -98 -82q-63 -43 -115 -57q-30 -9 -56 -9 q-77 0 -112 79q18 12 56 41q63 47 114 88q59 47 111 94q96 86 153 170q39 60 39 107v8q-4 35 -32 57q-22 19 -60 19q-65 0 -174 -56q-102 -53 -186 -127q-119 -102 -191 -203q-88 -117 -94 -223q0 -31 2 -47q-47 -15 -83 -15q-8 0 -15 1q-53 4 -90 47q-24 27 -24 68 q0 39 22 91q35 82 110 166q33 37 76 78q37 35 82 76l448 391q8 6 19 14l33 27q6 6 10 8q18 12 8 31q-5 10 -16 10q-7 0 -15 -4q-8 -2 -41 -18q-12 -8 -26 -15l-21 -12q-51 -18 -114 -37q-26 -6 -51 -6q-40 0 -78 16l-47 23q-14 6 -23 8l-23 6q-12 2 -24 2q-52 0 -113 -34 q-29 -14 -57 -37l-43 -35q-50 -43 -50 -62q0 -16 34 -16q6 0 22 8l35 15q15 5 29 5q27 0 49 -18q47 -41 110 -41h7q48 0 110 25q-25 -25 -63 -53l-64 -43l-321 -201q-80 -47 -146 -100q-78 -61 -123 -117q-94 -111 -114 -217q-5 -27 -5 -51zM854 328l4 34q8 39 33 99 q41 94 119 170q72 72 137 104q43 23 72 23q23 0 38 -15q7 -7 7 -19q0 -20 -21 -52q-29 -39 -72 -80q-25 -27 -77 -76q-45 -39 -101 -84z" />
<glyph unicode="X" horiz-adv-x="1363" d="M15 113q0 -54 36 -97q54 -64 158 -64q50 0 110 15q47 12 119 56q61 39 150 104q115 86 205 166l147 131l-31 -45q-20 -29 -32 -47q-53 -90 -62 -168q-1 -15 -1 -29q0 -139 136 -174q22 -5 47 -5q94 0 228 75q80 43 168 106q63 45 131 103l61 51q23 20 10 37q-4 10 -12 12 t-22 -4q-29 -12 -125 -78q-25 -20 -90 -43q-56 -23 -89 -23q-12 0 -20 3q-60 20 -60 90q0 37 17 88q31 88 106 202l58 87q98 100 190 176q98 82 193 133q72 39 114 55q61 25 136 31q18 2 37 2q71 0 139 -25q49 -18 74 -18q18 0 22 10q2 4 2 8q0 13 -18 33q-20 20 -45 35 q-41 27 -76 39q-49 16 -111 16h-7q-110 0 -224 -63q-80 -45 -250 -179q-61 -47 -94 -75q22 59 22 115q0 23 -4 46q-16 121 -135 162q-54 21 -118 21q-39 0 -83 -8q-96 -18 -198 -74q-131 -72 -236 -209q-49 -68 -76 -129q-16 -40 -16 -75t16 -64q30 -54 91 -54h10 q78 6 149 43q59 33 96 74q39 39 52 72q2 7 2 12q0 13 -15 13q-11 0 -30 -7q-43 -18 -76 -18q-27 0 -49 12q-36 21 -36 66q0 20 7 45q35 102 150 166q61 35 124 38q9 1 18 1q58 0 89 -35q27 -29 27 -105q0 -106 -93 -264l-43 -59l-233 -185q-96 -76 -203 -131 q-35 -18 -82 -39l-73 -32q-55 -27 -140 -39q-61 -10 -114 -11q-103 0 -103 46q0 6 2 14q3 10 3 16q0 12 -11 12q-13 0 -43 -18q-51 -35 -68 -104q-5 -21 -5 -41z" />
<glyph unicode="Y" horiz-adv-x="1189" d="M24 6q0 -43 21 -86q31 -66 107 -106q75 -41 167 -41q19 0 39 2q109 8 215 47q90 33 189 90q90 53 184 127q80 61 170 145q61 57 129 125l232 230q18 20 51 51q2 4 6 6q0 2 6 6l39 39q61 59 102 102l148 150q25 23 37 39q37 37 61 74q31 41 31 65q0 8 -4 14q-5 9 -15 9 q-18 0 -55 -33l-170 -160q-49 -45 -123 -100l-166 -117q-2 0 -6 -4l-51 -37q-53 -37 -92 -61q-109 -70 -199 -107q-59 -23 -100 -23q-35 0 -57 17q-31 25 -31 65q0 13 4 29q14 53 65 107q51 55 115 112q53 49 121 107q51 43 78 63q41 37 76 64l127 102q18 12 10 31 q-6 10 -17 10q-7 0 -16 -4q-8 -2 -41 -18q-10 -8 -25 -15l-26 -14q-4 -2 -6 -2l-39 -14q-35 -12 -66 -19q-25 -6 -50 -6q-40 0 -79 16l-47 23q-12 6 -22 8l-23 6q-12 2 -24 2q-51 0 -113 -35q-29 -14 -57 -36l-43 -35q-50 -42 -50 -62q0 -16 35 -16q6 0 23 8l32 15 q16 5 30 5q28 0 48 -18q43 -37 111 -39q9 -1 18 -1q49 0 99 18l12 4q8 4 12 4l-16 -14q-49 -41 -144 -93l-18 -10q-4 -4 -10 -6l-135 -78q-63 -41 -111 -76q-59 -49 -92 -90q-74 -92 -74 -172q0 -73 60 -137q43 -45 127 -47q74 0 153 31q88 37 182 104l160 119q16 12 14 8 l125 96l-200 -198q-63 -61 -119 -109q-88 -72 -172 -121q-98 -53 -199 -78q-107 -25 -195 -25q-15 0 -30 1q-37 0 -74 6l-53 12q-66 16 -98 58q-21 25 -21 45q0 9 4 16q10 16 10 25q0 13 -20 13q-17 0 -49 -9q-76 -25 -119 -107q-23 -46 -23 -92z" />
<glyph unicode="Z" horiz-adv-x="1163" d="M18 -1q0 -24 19 -24q14 0 39 13q94 49 203 63q37 4 68 4q68 0 112 -20q137 -60 292 -60h5q155 4 284 76q78 43 166 107q68 49 131 104l19 14l12 9l4 4q18 14 27 22q23 20 10 37q-6 10 -12 12q-8 2 -23 -4q-29 -12 -123 -77l-18 -15l-31 -18q-43 -25 -76 -27 q-29 -3 -56 -3q-63 0 -109 17l-68 25q-49 18 -102 31q-47 11 -106 11q-40 0 -85 -5q-41 -4 -96 -14l-92 -19l-37 -16q78 63 309 188q37 20 100 47q51 23 123 51q53 23 125 50l146 55l75 31q70 29 121 51q141 61 225 115q180 113 244 198q46 64 46 88q0 15 -18 16 q-14 0 -40 -10q-117 -45 -240 -51q-17 -1 -34 -1q-119 0 -216 38q-150 53 -270 53q-23 0 -45 -2q-131 -14 -248 -104q-55 -45 -80 -80q-25 -41 4 -55q20 -8 54 20l32 29q23 16 46 26q38 16 84 16q12 0 24 -1q74 -8 172 -58q106 -54 220 -54q82 0 169 28q86 29 215 86 l-102 -70l-100 -61q-59 -35 -109 -58q-61 -31 -160 -67l-172 -68q-45 -18 -123 -47l-123 -45l-116 -45q-57 -25 -97 -45q-90 -47 -149 -80q-72 -39 -125 -72q-119 -74 -215 -163q-84 -80 -104 -164q-5 -20 -5 -32z" />
<glyph unicode="[" horiz-adv-x="956" d="M-100 -166h403q53 0 68 39q12 37 -31 37h-250l926 1264h256q41 0 53 34q14 43 -41 43h-348z" />
<glyph unicode="\" horiz-adv-x="997" d="M39 1022q25 -63 106 -174q104 -137 242 -268l80 -80l80 -80q86 -90 155 -170q55 -63 99 -119q51 -63 94 -123q14 -23 35 -8q20 14 10 41q-58 140 -158 281q-70 92 -153 184q-74 82 -156 158l-72 65q-45 39 -69 64q-76 70 -121 114q-92 88 -119 135q-20 33 -43 21t-10 -41 z" />
<glyph unicode="]" horiz-adv-x="1191" d="M-168 -127q-6 -39 41 -39h363l1034 1417h-387q-49 0 -56 -39q-6 -39 47 -38h201l-921 -1264h-265q-49 0 -57 -37z" />
<glyph unicode="^" horiz-adv-x="460" d="M68 1157q-8 -27 36 0l162 94l115 -94q12 -18 25 -14q8 4 12 14l-107 141q-29 33 -67 0z" />
<glyph unicode="`" horiz-adv-x="475" d="M127 756q-14 -18 6 -39q8 -8 47 -33l80 -51q45 -27 78 -45q37 -18 39 -19l10 6l-166 142l-24 20q-14 12 -27 19q-27 16 -43 0z" />
<glyph unicode="a" horiz-adv-x="802" d="M19 117q0 -54 34 -84q37 -35 109 -35q61 0 129 37l57 39q18 12 55 41l-4 -19q0 -10 2 -18q4 -80 115 -80q70 4 186 80q47 31 101 72q41 33 92 75l90 78q18 16 18 28q0 6 -4 11q-14 16 -41 -6l-81 -66q-86 -66 -134 -92q-25 -14 -47 -20q-31 -8 -47 0q-14 6 -18 22 q-6 23 6 53q12 38 59 95l66 78q37 44 37 67q0 13 -11 19q-3 2 -8 2q-22 0 -73 -43l-35 -31q2 12 0 29q-4 29 -33 47q-25 14 -61 14h-3q-49 0 -94 -8q-57 -12 -119 -39q-133 -57 -208 -123q-125 -98 -134 -201q-1 -11 -1 -22zM260 195v6q0 79 94 157q123 109 224 109 q37 0 40 -31q2 -44 -102 -153q-127 -131 -215 -131q-39 0 -41 43z" />
<glyph unicode="b" horiz-adv-x="561" d="M18 113q10 -115 150 -115q74 0 149 37q102 47 185 147q29 -10 63 -2q43 6 78 29q25 16 45 33l66 57q27 25 16 39q-14 14 -41 -6l-70 -56q-16 -12 -53 -28q-29 -12 -57 -8q27 31 49 67q31 60 31 106q0 30 -13 54q-23 46 -82 46q-9 0 -18 -1l-31 -6q-18 -4 -30 -14l303 356 q53 61 73 90q23 31 29 51q1 6 1 10q0 11 -7 15q-2 1 -5 1q-12 0 -34 -14q-29 -18 -70 -59l-641 -639q-27 -31 -45 -57q-41 -62 -41 -122v-11zM252 200v5q0 57 47 108l96 107q-12 -25 -18 -60q-1 -7 -1 -14q0 -38 19 -72q27 -47 62 -65q-70 -72 -136 -72h-4q-65 2 -65 63z M450 344q0 6 1 12q4 59 47 60q49 0 49 -47q0 -21 -10 -52q-8 -22 -39 -63q-35 18 -45 55l-2 23q-1 6 -1 12z" />
<glyph unicode="c" horiz-adv-x="489" d="M51 150q4 -145 158 -152h4q83 0 213 90q98 68 182 141l90 78q19 15 19 29q0 4 -2 8q-6 16 -43 -4l-84 -66q-159 -124 -233 -124h-1q-89 0 -89 75q0 17 5 39q16 82 119 154q76 49 131 49h10q6 0 11 -2q0 -2 4 -2q-61 -4 -84 -55q-10 -20 -10 -33q0 -33 55 -33q76 0 106 74 q10 22 9 39q0 55 -101 55q-76 0 -166 -37q-119 -51 -204 -137q-98 -98 -99 -186z" />
<glyph unicode="d" horiz-adv-x="813" d="M42 97q0 -98 116 -98q13 0 28 1q53 6 105 27l39 16q16 8 26 16q43 29 86 62q-4 -10 -6 -21q-2 -12 0 -22q4 -80 108 -80h5q47 0 113 33q53 27 122 75q37 25 78 58l160 137q27 23 14 37q-12 18 -41 -4l-84 -66q-80 -63 -131 -92q-10 -6 -20 -10q-14 -6 -25 -8 q-31 -10 -41 4q-5 6 -5 16q0 17 16 45q18 31 61 80l395 451q43 49 88 102q51 61 72 92q23 31 29 51q1 5 1 10q0 12 -8 15q-2 1 -5 1q-12 0 -33 -13q-29 -18 -70 -60l-530 -526v6q-2 74 -95 74q-47 0 -94 -8q-59 -12 -121 -37q-311 -129 -348 -318q-5 -25 -5 -46zM289 193v9 q0 74 96 156q125 104 225 105q41 0 41 -34q0 -50 -106 -153q-66 -63 -127 -96q-51 -28 -86 -28h-2q-37 0 -41 41z" />
<glyph unicode="e" horiz-adv-x="450" d="M16 153q0 -53 27 -94q35 -53 104 -61q12 -2 24 -2q33 0 69 12q39 12 86 39q69 43 118 80q63 47 127 102l91 78q18 15 18 28q0 4 -2 7q-8 16 -43 -2l-82 -66q-86 -68 -150 -100q-52 -24 -88 -24q-14 0 -26 4q-51 14 -58 75v2q4 2 13 2l12 3q57 8 131 38q82 35 133 78 q63 49 62 101q-6 57 -97 57q-80 0 -172 -39q-115 -51 -198 -135q-47 -49 -68 -82q-29 -47 -31 -94v-7zM242 291l4 10q31 72 94 113q55 39 100 47q10 4 23 4q12 0 20 -6q10 -8 10 -19q0 -9 -6 -20q-16 -27 -43 -49q-42 -33 -112 -60q-45 -16 -76 -18z" />
<glyph unicode="f" horiz-adv-x="464" d="M-421 -388q0 -12 3 -24q17 -80 63 -80q9 0 19 3q43 14 96 79l31 41q29 37 64 82l213 281l55 74l27 34q61 82 98 131q16 23 37 52l30 43q-3 -17 -3 -33q0 -76 67 -102q36 -15 71 -15q62 0 121 49l93 78q27 20 14 39q-14 14 -41 -6l-84 -66q-42 -33 -83 -33q-28 0 -56 15 q-37 20 -37 63q0 26 14 60q10 31 51 72l50 43h184q14 4 18 16l2 12q2 14 -10 19h-133l35 20q92 53 180 119q70 51 154 123q88 78 96 121q1 5 1 9q0 42 -54 42q-37 0 -84 -21q-59 -25 -127 -71l-115 -90q-49 -39 -102 -91q-41 -43 -95 -100l-55 -61h-104q-14 -4 -17 -17 l-4 -14q-4 -12 12 -16h68l-682 -732q-27 -31 -45 -53q-36 -50 -36 -95zM594 612q70 74 139 136q72 66 131 108q8 8 17 12l18 15q20 10 27 10h2q4 -2 4 -7q0 -3 -2 -7q-4 -8 -12 -17q-57 -61 -173 -145l-79 -58z" />
<glyph unicode="g" horiz-adv-x="729" d="M-376 -420q0 -33 26 -59t76 -26q40 0 94 16q94 29 200 94q63 39 140 104q61 53 135 123l94 96q96 49 168 92q49 33 105 70q43 31 88 64q35 25 65 49l33 24l92 80q17 16 17 28q0 5 -3 9q-12 16 -41 -6l-84 -66q-84 -66 -278 -192l-57 -35q27 29 63 74l12 14l2 2l66 76 q96 98 180 199q37 49 37 70q0 10 -8 14q-4 2 -10 2q-34 0 -115 -74v4q0 82 -98 82q-51 0 -97 -8q-57 -12 -118 -39q-121 -49 -203 -111q-131 -96 -146 -207q-1 -12 -1 -23q0 -55 32 -83q39 -37 109 -37q49 0 102 25q20 8 39 20l29 16l-11 -10q-16 -16 -36 -41l-46 -55 q-6 -6 -10 -8l-182 -49q-139 -37 -268 -107q-131 -74 -174 -151q-18 -33 -18 -60zM-183 -323q0 31 40 65q41 35 110 61q44 19 107 35l104 27q18 4 29 8l-37 -43q-72 -80 -119 -117q-76 -59 -143 -78q-22 -5 -38 -5q-40 0 -50 30q-3 8 -3 17zM299 195v6q0 77 96 157 q123 104 226 105q25 0 32 -8q9 -13 9 -23q0 -49 -105 -153q-129 -125 -217 -125q-14 0 -23 4q-16 12 -18 37z" />
<glyph unicode="h" horiz-adv-x="753" d="M44 39q0 -47 50 -47q25 0 90 78l56 67q33 43 53 64l78 75q59 55 96 80q45 31 90 54q27 12 43 16q20 6 31 4q18 -6 -13 -37l-110 -106q-27 -25 -45 -45q-45 -49 -62 -88q-11 -28 -11 -54q0 -27 13 -51q27 -49 93 -51h12q89 0 199 82q92 68 178 141l90 80q18 16 18 27 q0 6 -4 10q-12 16 -41 -6q-14 -10 -45 -37l-51 -41q-61 -49 -104 -72q-46 -23 -72 -23q-20 0 -29 13q-9 12 -8 28q0 46 70 126q70 77 70 123q0 4 -1 8q-6 49 -63 53h-5q-56 0 -147 -43q-16 -10 -57 -31l45 47l319 385q55 63 74 90q23 31 29 52q6 20 -6 24q-2 1 -5 1 q-11 0 -32 -13q-31 -18 -72 -59l-561 -545q-37 -35 -59 -60q-49 -51 -103 -122l-16 -21q-10 -14 -19 -29q-23 -37 -37 -73q-19 -46 -19 -74z" />
<glyph unicode="i" horiz-adv-x="419" d="M22 112q0 -13 3 -26q16 -84 129 -84q68 0 182 76q45 31 98 74q39 31 90 75l90 78q21 16 21 28q0 5 -4 9q-14 16 -41 -4l-84 -66q-55 -45 -90 -67q-51 -33 -84 -39q-9 -3 -17 -3q-28 0 -36 34q-2 6 -2 12q0 28 36 70l93 106q59 70 59 101q0 20 -23 24q-7 1 -14 1 q-56 0 -141 -79l-191 -178q-25 -27 -41 -51q-33 -48 -33 -91zM449 594q0 -18 4 -27q13 -25 43 -25q7 0 14 1q12 0 25 6q82 31 86 102v13l-5 12q-12 27 -46 27q-5 0 -11 -1l-24 -6q-82 -33 -86 -102z" />
<glyph unicode="j" horiz-adv-x="376" d="M-749 -435q0 -33 26 -59q26 -27 76 -27q39 0 94 17q96 27 201 92q63 39 139 105q61 53 135 123l109 110q82 41 155 88q49 33 105 70q43 31 88 63q35 25 65 50l33 24l92 78q25 23 15 37q-14 16 -41 -4l-84 -66q-33 -25 -105 -76q-90 -63 -174 -116l-33 -21l277 328 q58 68 58 99q0 19 -23 24q-7 1 -15 1q-57 0 -141 -77q-61 -57 -123 -129q-51 -59 -112 -137l-134 -174q-16 -20 -40 -58l-183 -49q-139 -37 -268 -106q-131 -72 -174 -150q-18 -33 -18 -60zM-556 -339q0 31 40 65q41 37 110 63q46 19 107 35q10 4 23 6l38 8q8 2 15 4 q4 2 12 4l16 2q18 4 29 9l-37 -43q-68 -74 -119 -115q-78 -59 -143 -78q-23 -6 -41 -6q-37 0 -47 29q-3 8 -3 17zM465 588q0 -12 4 -25q13 -27 43 -27q7 0 14 1l27 6q80 35 84 102q1 3 1 6q0 10 -5 21q-11 25 -41 25q-6 0 -14 -1q-14 0 -27 -6q-80 -28 -86 -102z" />
<glyph unicode="k" horiz-adv-x="657" d="M19 59q0 -8 1 -16q6 -41 43 -41q25 0 91 78l55 70q35 41 53 63l45 49q-38 -76 -38 -137q0 -17 3 -33q20 -90 113 -90q57 0 119 35q25 12 53 33l131 98l162 137q27 23 14 39q-12 16 -41 -6l-82 -66q-78 -59 -110 -77q-59 -37 -125 -37q-61 0 -70 78v8q0 56 27 100 q39 53 112 94l23 13q-8 -8 -12 -19q-8 -10 -8 -26q4 -47 65 -48q108 0 108 88q0 6 -1 13q-4 47 -78 53h-9q-35 0 -75 -14q-59 -23 -127 -70l59 66l322 385q53 66 71 92q23 31 29 51q2 7 2 12q0 10 -8 13q-2 1 -4 1q-11 0 -33 -14q-31 -18 -72 -59l-481 -467 q-166 -162 -242 -262l-34 -47q-23 -37 -37 -74t-14 -66z" />
<glyph unicode="l" horiz-adv-x="417" d="M23 110q0 -11 2 -22q20 -86 129 -86q68 0 182 78q45 29 98 72l180 153q29 23 17 39q-14 14 -41 -6l-84 -66q-55 -45 -90 -67q-51 -33 -84 -39q-9 -3 -17 -3q-28 0 -36 34q-1 5 -1 10q0 29 35 72l516 589q51 59 72 90q23 31 29 52q2 8 2 13q0 9 -6 11q-2 1 -5 1 q-12 0 -34 -13q-29 -18 -72 -59l-407 -406l-310 -303q-25 -27 -41 -51q-34 -49 -34 -93z" />
<glyph unicode="m" horiz-adv-x="1091" d="M23 104q0 -12 2 -24q12 -55 63 -76l6 -2q4 -2 8 -2q12 2 29 14q27 20 64 68l98 119q92 100 182 161q47 31 84 54q45 27 66 33q25 6 28 -7q2 -10 -6 -18l-143 -141q-41 -43 -66 -76q-29 -41 -49 -90q-13 -32 -13 -59q0 -9 1 -17q6 -39 41 -39q25 0 82 72l88 106 q63 74 119 119l41 33q20 18 36 28q51 35 82 54q43 25 70 30q18 2 25 -6q6 -10 -5 -16q-37 -41 -84 -84q-63 -59 -96 -96q-49 -51 -65 -86l-9 -29q-6 -23 -6 -41q8 -80 117 -86h7q48 0 100 27q37 16 94 59q43 31 96 72l176 147q18 16 18 28q0 6 -4 11q-12 16 -40 -6l-84 -66 q-117 -92 -183 -114l-14 -4h-16q-20 0 -27 18q-6 18 2 37q18 31 53 67l76 78l2 4q2 2 4 2l33 39q15 22 15 43q0 14 -7 29q-16 43 -84 43q-63 0 -149 -45q-33 -14 -74 -37q4 8 4 23q-6 61 -90 61q-68 0 -148 -41l-108 -61q-16 -8 -57 -33q57 67 57 97q0 19 -23 24q-7 1 -15 1 q-56 0 -140 -77l-144 -133q-61 -57 -88 -96q-32 -48 -32 -93z" />
<glyph unicode="n" horiz-adv-x="751" d="M18 97q0 -11 2 -21q12 -57 64 -76l16 -2q8 -2 17 4q29 18 73 76l99 119q55 61 121 114q63 53 133 97q35 23 78 32q20 6 28 -6q8 -8 0 -18q-27 -25 -84 -82q-63 -59 -96 -96q-49 -51 -66 -86q-6 -12 -10 -29q-6 -23 -4 -41q4 -84 115 -86h7q48 0 101 27q31 16 95 59 q102 72 180 141l90 78q19 15 19 26q0 6 -5 11q-12 18 -41 -4l-82 -66q-109 -88 -182 -114l-16 -4h-17q-20 0 -26 18q-8 18 2 37q16 31 55 67l47 45l41 48q16 16 25 30q16 23 16 45q0 13 -6 27q-20 43 -84 43q-35 0 -82 -14q-16 -4 -39 -13l-59 -24l-109 -60l-26 -18 q27 33 36 51q14 24 14 41q0 15 -12 23t-28 8q-51 0 -137 -82l-156 -150l-4 -4l-6 -6q-16 -14 -27 -26q-29 -31 -45 -58q-25 -45 -25 -81z" />
<glyph unicode="o" horiz-adv-x="563" d="M39 117q0 -55 45 -86q40 -29 93 -29h13q27 0 56 8q35 8 71 25q92 43 197 137q6 6 10 14q16 -6 35 -6q15 0 31 4q39 6 78 29q14 8 43 33l67 57q19 16 19 28q0 5 -4 9q-12 18 -41 -4l-70 -55q-29 -20 -51 -29q-31 -12 -58 -8q31 33 48 67q32 55 32 101q0 30 -14 57 q-22 47 -75 47q-11 0 -23 -2q-39 -4 -64 -18q-8 -8 -8 -2q-2 8 -8 10q-8 4 -33 2q-74 -8 -195 -105q-63 -49 -116 -114q-61 -78 -74 -137q-4 -18 -4 -33zM259 221q0 69 83 152q18 18 39 35q23 18 31 20l14 8q0 2 -8 -12q-2 -8 -6 -16t-6 -19q-6 -25 -5 -51q2 -31 17 -59 q25 -45 63 -66l-16 -16q-63 -56 -119 -56h-6q-76 4 -80 74q0 3 -1 6zM460 359q0 18 7 38q16 49 63 52h3q52 0 52 -48q0 -28 -18 -73q-16 -37 -45 -74q-29 16 -53 65q-9 19 -9 40z" />
<glyph unicode="p" horiz-adv-x="720" d="M-398 -426q0 -47 50 -47q25 0 90 76l70 86l286 331l111 119q-1 -6 -1 -13q0 -38 21 -75q23 -31 72 -47q35 -10 67 -10h11q135 10 274 86q117 66 199 137l90 78q20 16 20 27q0 6 -4 10q-14 16 -40 -4l-121 -95q-6 -6 -13 -12l-127 -90q31 31 52 62q53 72 65 131q6 24 6 45 q0 46 -28 80q-39 48 -108 48q-57 0 -136 -34l-47 -23l28 33q8 8 13 14l10 13q28 40 28 57q0 12 -12 14h-4q-31 0 -108 -73l-561 -545q-37 -35 -60 -59q-49 -51 -102 -123l-17 -21q-10 -14 -18 -29q-23 -37 -37 -73q-19 -46 -19 -74zM286 178q0 65 83 144q93 90 182 90 q12 0 24 -2q51 -8 51 -52q0 -33 -28 -86q-35 -63 -98 -114q-72 -55 -140 -56q-68 0 -73 64q-1 6 -1 12z" />
<glyph unicode="q" horiz-adv-x="665" d="M-55 -541q0 -49 48 -49h3q23 0 86 80l106 135l250 289l70 92q238 174 293 221l92 80q17 16 17 28q0 5 -3 9q-14 14 -41 -6l-243 -186l39 53q14 20 38 51q8 10 21 27l96 118q20 31 25 54q4 20 -6 24q-12 4 -37 -14q-29 -18 -68 -62l-26 -28q8 23 8 48q0 13 -2 26 q-10 31 -33 45q-31 16 -62 16h-2q-102 0 -215 -49q-123 -53 -209 -121q-125 -100 -133 -201q-1 -11 -1 -21q0 -55 36 -85q37 -35 107 -35q51 0 104 25q37 16 68 38l80 54l-324 -334q-47 -55 -98 -127l-33 -49q-23 -37 -35 -74q-16 -44 -16 -72zM298 206q0 70 93 152 q123 106 225 107q23 0 31 -8q8 -13 8 -25q0 -49 -102 -151q-127 -129 -213 -129q-14 0 -23 4q-18 14 -18 39q-1 5 -1 11z" />
<glyph unicode="r" horiz-adv-x="573" d="M105 282q0 -6 4 -12q14 -18 41 4l86 68q4 2 10 8l28 25l19 -31l-19 -20q-76 -94 -77 -203q0 -51 24 -82q33 -43 105 -43q53 0 131 51q29 18 63 47l55 43q53 41 103 84l92 78q18 16 18 27q0 6 -4 10q-14 16 -41 -4l-161 -123q-37 -29 -64 -39q-36 -16 -60 -16 q-46 0 -50 59v8q0 32 14 68q6 16 14 30l29 41q10 12 10 25q-4 43 -53 43q-23 0 -43 -12q-8 0 -21 4l-10 6q4 2 10 8q47 37 66 60q20 29 18 51q-4 39 -43 39q-29 0 -63 -25q-29 -23 -43 -45q-23 -37 -25 -74q-2 -6 -2 -20l-143 -111q-18 -14 -18 -27z" />
<glyph unicode="s" horiz-adv-x="540" d="M80 127q0 -31 22 -66q37 -55 119 -63q19 -1 38 -1q82 0 151 28q59 24 129 77l225 199q19 15 19 26q0 6 -5 11q-14 18 -41 -4l-139 -111q-41 -33 -70 -53v2q0 72 -30 129l-27 45q-2 2 -2 4q-6 8 -10 15q-18 33 -23 55q-10 37 4 49l49 43q27 20 39 35q14 20 7 43 q-10 23 -33 26q-10 3 -20 3q-22 0 -48 -11q-29 -10 -53 -43q-37 -47 -39 -114l-178 -142q-29 -23 -14 -37q10 -18 40 4l156 123l10 -47q10 -30 10 -62t-10 -67q-31 -82 -84 -123q-37 -30 -63 -30h-2q-11 0 -19 4q-8 2 -14 12q-4 8 -6 14l20 6q45 14 52 50q3 11 3 20 q0 32 -32 49q-14 6 -28 6l-62 -28q-41 -34 -41 -76z" />
<glyph unicode="t" horiz-adv-x="409" d="M22 106q0 -13 3 -26q16 -84 129 -84q68 0 182 76q45 31 98 73q39 31 90 76l90 78q29 23 17 37q-14 16 -41 -4l-84 -66q-55 -45 -90 -67q-51 -33 -84 -39q-10 -3 -17 -3q-28 0 -36 33q-2 6 -2 12q0 28 36 70l283 322h137q8 0 17 4q12 4 18 12l6 13q2 2 2 4q6 14 -8 18 h-131l94 111q55 66 74 92q20 29 26 49q2 8 2 13q0 9 -6 12q-3 1 -6 1q-12 0 -33 -12q-29 -18 -69 -59l-207 -207h-156q-10 0 -18 -4q-10 -4 -16 -14l-11 -15q-6 -14 8 -18h132l-353 -346q-27 -29 -43 -51q-33 -48 -33 -91z" />
<glyph unicode="u" horiz-adv-x="796" d="M22 110q0 -13 3 -26q16 -84 129 -84q47 0 118 39q53 29 131 86q-6 -18 -2 -41q20 -84 129 -84q68 0 183 78q43 29 98 72l182 153q19 16 19 28q0 5 -4 9q-14 16 -41 -4l-84 -66q-55 -45 -90 -67q-51 -33 -84 -39q-9 -3 -17 -3q-28 0 -37 34q-2 6 -2 13q0 31 35 79l92 106 q16 18 29 35q35 48 35 70q0 9 -6 14q-4 2 -9 2q-25 0 -92 -53l-65 -58l-166 -133q-55 -45 -90 -67q-51 -33 -84 -39q-9 -3 -17 -3q-28 0 -36 34q-2 6 -2 12q0 28 36 69l93 107q59 70 59 101q0 20 -23 24q-7 1 -14 1q-56 0 -141 -79l-191 -178q-25 -27 -41 -51 q-33 -48 -33 -91z" />
<glyph unicode="v" horiz-adv-x="565" d="M100 135q8 -115 45 -135q11 -5 28 -5q53 0 159 58q88 51 162 117l10 14q17 -5 40 -5q12 0 25 1q47 10 78 31q14 8 43 33l68 57q18 16 18 27q0 6 -4 10q-12 18 -41 -4l-69 -55q-27 -20 -52 -29l-30 -8l-27 -2l47 69q23 41 33 82q4 20 4 37q0 27 -10 47q-24 48 -83 48 q-9 0 -18 -1q-78 -10 -123 -88l-12 -26q-8 -20 -10 -48q-1 -8 -1 -16q0 -31 17 -68q25 -45 64 -67q-6 -4 -17 -14q-25 -23 -53 -35q-10 -6 -22 -10l-21 -9q-6 -2 -12 -2q-32 0 -51 66q-9 34 -9 70v7q0 43 11 89q10 37 24 65q23 39 23 56q0 12 -10 14q-16 4 -50 -23 q-10 -6 -20 -14l-25 -23q-55 -61 -92 -143q-37 -84 -37 -154v-14zM439 363q0 14 3 28q14 47 60 49h4q37 0 49 -34q4 -12 4 -26q0 -25 -12 -54q-16 -37 -45 -74q-29 16 -53 65q-10 22 -10 46z" />
<glyph unicode="w" horiz-adv-x="901" d="M22 106q0 -13 3 -26q16 -84 129 -84q66 0 178 74l33 22q2 -4 2 -14q19 -83 118 -83q18 0 39 3q88 12 183 78q29 20 61 47l61 55q4 6 5 4q4 6 8 8q25 -8 48 -8q11 0 21 2q33 2 74 27q25 16 45 33l66 57q18 17 18 29q0 6 -4 10q-12 16 -41 -6l-70 -55q-16 -14 -49 -29 q-8 -6 -22 -8q-16 -4 -33 0l53 55q43 47 66 84q20 37 20 67q0 10 -2 19q-10 41 -55 47q-6 1 -13 1l-65 -17q-66 -33 -102 -88q-34 -51 -34 -102q0 -20 5 -40q6 -31 29 -45q-10 -10 -17 -14q-55 -49 -100 -55q-8 -1 -15 -1q-36 0 -44 35q-1 5 -1 11q0 30 35 71l95 107 q58 66 58 98q0 17 -17 25q-10 4 -22 4q-52 0 -140 -80l-144 -133q-59 -53 -94 -107q-37 -23 -59 -24q-10 -3 -17 -3q-28 0 -36 33q-2 6 -2 12q0 28 36 70l93 107q59 67 59 99q0 15 -14 22q-11 6 -25 6q-51 0 -139 -80l-191 -178q-25 -27 -41 -51q-33 -48 -33 -91zM828 307 q0 29 22 68q42 61 69 61q5 0 9 -2q18 -6 18 -24q0 -12 -8 -29q-4 -10 -14 -23l-76 -94q-12 10 -19 31q-1 6 -1 12z" />
<glyph unicode="x" horiz-adv-x="733" d="M9 30q0 -3 1 -7q10 -31 47 -31q31 0 82 22q35 16 82 58q29 25 86 69q4 2 8 6l9 7q-2 -14 -2 -27q0 -98 94 -125q22 -7 47 -7q41 0 88 19q49 20 106 64l140 112q25 18 39 33l90 78q18 16 18 27q0 6 -4 10q-12 18 -41 -4l-127 -101l-63 -45l-23 -12q-25 -16 -45 -24 q-26 -12 -49.5 -12t-44.5 12q-33 21 -33 77v13q16 12 27 22l116 103q35 31 78 57q55 35 90 41q37 6 49 24q12 14 -2 29q-15 19 -43 19q-29 0 -73 -21q-23 -12 -64 -45q-14 -10 -33 -27l-26 -22q-41 -37 -90 -74q-8 -4 -13 -8q6 35 6 62q0 86 -59 102q-11 2 -23 3 q-37 0 -81 -24q-23 -12 -49 -30l-187 -146q-18 -20 -2 -33q12 -16 33 0l135 117q33 29 55 29q8 0 15 -4q15 -7 15 -33q0 -39 -34 -121l-102 -90q-35 -29 -66 -49q-71 -49 -118 -57q-59 -7 -59 -36z" />
<glyph unicode="y" horiz-adv-x="673" d="M-412 -401q0 -37 33 -70q27 -26 78 -26q40 0 94 16q94 29 199 94q131 82 276 227l86 88q88 45 174 97q51 33 105 69q45 31 90 64q35 25 65 49l31 24l90 78q20 18 20 31q0 4 -3 8q-14 14 -41 -6l-84 -66q-31 -25 -103 -75q-90 -63 -176 -117l-63 -41l6 10l102 113 q12 12 21 22q25 25 43 45q45 51 80 93q43 49 77 92q37 46 37 69q0 13 -12 19q-5 2 -11 2q-35 0 -110 -78l-59 -63q-70 -76 -129 -119q-78 -57 -160 -76q-20 -4 -45 6t-31 29q-1 6 -1 12q0 32 34 80l35 41l16 16l70 84q36 50 36 72q0 8 -5 12q-3 2 -9 2q-25 0 -92 -55 l-92 -74q-70 -55 -117 -98q-63 -61 -96 -109q-32 -46 -32 -80q0 -7 1 -14q8 -39 33 -59q29 -25 85 -25h9q82 2 226 97q16 8 45 28l-164 -174q-6 -6 -12 -8l-183 -49q-55 -14 -137 -47q-106 -43 -182 -88q-98 -59 -131 -117q-17 -28 -17 -55zM-211 -317q0 32 39 67 q43 35 111 62q45 18 106 34l90 25l17 2q20 4 28 8l-76 -84q-43 -47 -81 -76q-76 -57 -142 -75q-24 -6 -42 -6q-37 0 -48 28q-2 8 -2 15z" />
<glyph unicode="z" horiz-adv-x="661" d="M-362 -460v-9q6 -84 120 -84h11q123 6 292 127q106 76 189 172q66 82 90 150l12 43q31 14 84 45q45 25 88 53q76 47 158 113l170 143q18 17 18 29q0 6 -4 10q-12 16 -41 -6l-170 -136q-80 -59 -149 -106q-70 -47 -139 -80v19q0 10 -2 20q0 12 -5 29q12 8 19 14 q72 55 139 123q63 63 96 129q20 42 20 76q0 48 -40 78q-27 20 -77 20h-13q-53 -4 -105 -25q-57 -25 -96 -51q-25 -16 -53 -39q-18 -12 -53 -39l-50 -39q-10 -6 -16 -12q-27 -23 -12 -41q14 -16 45 6l78 60q10 8 20 14q29 18 53 29q32 16 55 16q12 0 21 -4q35 -15 35 -64 q0 -17 -4 -38q-6 -31 -21 -64q-20 -41 -53 -82q0 -2 -4 -6l-4 -6q-16 27 -45 41q-31 18 -70 18q-12 0 -24 -2q-51 -6 -90 -37q-48 -34 -48 -81v-9q7 -69 97 -69h12q59 4 109 30l28 19v-31l-6 -31l-115 -34q-33 -10 -57 -21l-74 -26q-45 -16 -80 -33q-94 -43 -180 -105 q-72 -53 -110 -96q-49 -61 -49 -120zM-162 -383q0 72 82 135q66 51 215 111q86 33 152 53q-42 -97 -99 -156q-39 -41 -73 -71q-45 -37 -84 -62q-76 -49 -129 -49h-7q-30 0 -45 16q-12 10 -12 23zM177 86q-1 13 13 31q15 22 41 22h2q35 0 58 -26q2 -2 4 -9q4 -6 4 -10 q0 -2 2 -4l-22 -18q-12 -8 -23 -13q-16 -6 -29 -6h-4q-12 0 -22 4q-25 10 -24 29z" />
<glyph unicode="{" horiz-adv-x="495" d="M-84 524q4 -25 23 -22q123 -12 163 -53q43 -43 43 -160v-158q0 -147 62 -203q61 -55 231 -55q33 -5 37 18t-37 25q-106 2 -143 39t-37 154v104q0 166 -47 229q-39 53 -158 82q117 29 158 82q47 66 47 232v104q0 115 37 154q35 35 143 41q37 -2 35 20q-2 23 -35 23 q-166 2 -231 -56q-61 -55 -62 -204v-158q0 -113 -41 -158q-45 -45 -165 -53q-27 -2 -23 -27z" />
<glyph unicode="|" horiz-adv-x="940" d="M49 352q0 -94 94 -94h652q94 0 94 94v652q0 94 -94 94h-652q-94 0 -94 -94v-652zM190 377v586h68v-533h82v-53h-150zM367 377v586h65v-248h80v248h63v-586h-63v282h-80v-282h-65zM614 377v586h162v-50h-96v-198h72v-53h-72v-285h-66z" />
<glyph unicode="}" horiz-adv-x="694" d="M180 -104q-4 -23 31 -23q170 0 231 55t62 203v158q0 117 43 160q41 41 164 53q33 -2 41 20q10 23 -41 29q-129 14 -166 53q-41 41 -41 158v158q0 150 -62 204q-59 53 -231 56q-35 0 -29 -21q4 -20 29 -22q106 -2 143 -41q39 -43 39 -154v-104q0 -168 45 -232 q39 -51 160 -82q-123 -29 -160 -82q-45 -59 -45 -229v-104q0 -115 -39 -154t-143 -39q-29 0 -31 -20z" />
<glyph unicode="~" horiz-adv-x="737" d="M74 358q2 -4 6 -2q10 6 10 4q47 27 107 27q37 0 102 -14q55 -12 111 -13h30q20 0 39 2q47 6 96 21q33 10 62 25q37 16 47 28q10 13 -2 13q-4 0 -16 -7q-29 -18 -107 -18q-35 0 -104 14q-41 8 -70 13q-23 2 -41 2q-12 0 -29 -2q-16 0 -34 -5q-47 -8 -93 -22 q-43 -16 -79 -35q-12 -6 -25 -14q-6 -2 -10 -6q-4 -6 0 -11z" />
<glyph unicode="&#xa1;" horiz-adv-x="632" d="M59 -186q-6 -82 45 -107q45 -20 103 8q37 20 72 58q49 49 98 135l332 577q25 43 6 62q-20 16 -64 -27l-477 -526l-47 -62q-29 -37 -45 -65q-18 -35 -23 -53zM715 725q-27 -57 8 -90q27 -20 65 -14q14 2 29 8l23 12q43 25 75 82q29 55 -16 88q-33 23 -82 6 q-61 -23 -102 -92z" />
<glyph unicode="&#xa2;" horiz-adv-x="399" d="M-29 356q0 -154 146 -186l-107 -154q-8 -12 -6 -26q2 -12 10 -21q10 -6 23 -2q16 6 31 29l114 166q63 0 137 37q63 31 136 88q57 47 125 112l102 107q6 6 6 14q0 16 -20 17q-8 0 -23 -11l-35 -30q-8 -6 -20 -19l-70 -65q-63 -53 -112 -78q-63 -31 -117 -19l123 177 q12 16 -17 28q-27 12 -43 -10l-121 -176q-35 27 -51 51q-25 33 -18 66q20 119 117 194q94 76 219 76q33 0 53 -14h-8q-102 0 -103 -86q0 -49 60 -50q51 0 88 39q33 33 33 74q0 78 -123 78q-180 0 -355 -133q-174 -135 -174 -273z" />
<glyph unicode="&#xa3;" horiz-adv-x="1155" d="M-53 66q-20 -104 41 -170q57 -63 164 -64q68 0 151 49q70 41 135 105l60 -111q41 -70 71 -111q92 -121 219 -120q76 0 138 37q72 43 86 118q12 72 -29 123t-111 51q-35 0 -96 -18q59 -31 55 -55q-6 -43 -67 -43q-59 0 -152 69q-33 25 -71 60l-56 51q55 66 119 164 l107 174h366q59 0 72 33q12 33 -45 32h-354l53 78q76 16 149 49q131 65 248 174q137 129 160 246q16 88 -78 88q-72 0 -152 -51q-61 -37 -116 -92q-45 -47 -94 -115q-33 -45 -84 -125l-78 -123q-104 8 -88 86q10 47 57 74q-29 29 -20 74q4 20 18 43q18 27 57 69 q-182 -98 -204 -227q-33 -168 143 -176l-45 -72h-258q-72 0 -84 -32q-12 -33 39 -33h258q-55 -76 -109 -133q-66 -70 -125 -109q-43 55 -90 88q-59 41 -123 41q-201 0 -237 -196zM111 147q10 51 75 52q84 -1 158 -95q-72 -31 -131 -30q-117 0 -102 73zM846 575 q43 57 106 130l115 126q41 45 88 80q59 45 98 45q23 1 17 -24q-4 -23 -29 -60q-14 -25 -39 -55q-150 -182 -356 -242z" />
<glyph unicode="&#xa4;" horiz-adv-x="399" d="M0 690l31 -28l88 86q51 -37 96 -37q57 0 102 34l82 -86l35 31l-84 88q31 45 31 103q0 43 -29 96l84 82l-35 35l-82 -86q-49 37 -98 36q-49 0 -104 -34l-86 84l-31 -37l84 -80q-35 -51 -35 -100q0 -43 37 -99zM104 877q0 115 111 114q115 1 115 -114q0 -113 -115 -113 q-111 0 -111 113z" />
<glyph unicode="&#xa5;" horiz-adv-x="1148" d="M-27 1030q43 -20 76 -39l35 -22q16 -10 22 -19l33 -37l78 -96q37 -45 68 -86q43 -57 96 -135q45 -63 78 -117h-213v-84h246q2 -18 2 -43v-45h-248v-86h246q0 -43 -3 -88l-2 -37q-2 -29 -59 -63q-23 -12 -53 -27l-49 -20l120 6q31 2 48 6q20 2 71 2l99 -4q61 -4 114 0 q-10 4 -16 8q-12 4 -21 10l-43 23q-49 33 -51 59l-8 125h238v86h-240l2 88h238v84h-226l88 125q53 80 88 125q23 31 58 72l125 147q20 25 67 47q35 14 86 31q-72 4 -141 0l-76 -2q-51 6 -145 2l-86 -6q203 -27 166 -78l-131 -184q-90 -129 -164 -219l-11 12q-8 8 -14 18 l-41 49q-55 76 -108 158l-115 176q-27 41 147 76q-51 2 -96 0q-35 0 -69 -2l-101 -6q-37 0 -102 4l-25 2q-14 0 -26 2q-29 2 -52 2z" />
<glyph unicode="&#xa7;" horiz-adv-x="614" d="M109 68q0 -16 2 -37l6 -39q2 -12 2 -23q2 -14 2 -28q2 -35 2 -76q33 86 55 80q94 -29 170 -23q96 6 156 68q10 10 22 35q16 31 23 63q20 92 -43 152l-72 53q51 20 96 59q96 90 31 217q-23 45 -100 99q-27 18 -66 41l-59 34q-12 6 -21 13q-10 6 -18 12q-20 14 -33 29 q-31 37 -20 84q16 84 94 108q78 25 135 -22q51 -45 68 -133l6 -31q0 -14 2 -27v-22q20 39 29 65q12 37 12 78q0 16 -2 37l-6 39q-2 12 -2 22q-2 14 -2 29q-2 35 -3 76q-33 -86 -55 -80q-94 29 -170 24q-96 -8 -153 -69q-10 -12 -25 -35q-16 -31 -22 -63q-23 -92 43 -152 l71 -53q-57 -25 -96 -60q-96 -86 -29 -217q23 -45 99 -98q27 -18 65 -41l59 -35q10 -6 19 -12q10 -6 18 -12q20 -14 33 -29q33 -37 23 -84q-16 -84 -97 -109q-76 -25 -133 23q-51 43 -69 133q-2 14 -4 31q-2 12 -2 26v23l-17 -33q-8 -18 -12 -33q-14 -37 -12 -77zM207 528 q-2 53 29 78q33 25 49 33q12 4 28 0q2 0 4 -2l72 -47q45 -33 68 -60q35 -41 35 -94q2 -53 -29 -78q-33 -27 -49 -32q-12 -4 -29 0l-37 22q-20 14 -39 27q-45 33 -67 59q-35 39 -35 94z" />
<glyph unicode="&#xa8;" horiz-adv-x="677" d="M315 629q0 -57 58 -39q53 18 53 72q0 57 -57 38q-58 -18 -54 -71zM492 629q0 -57 55 -39t55 72q-4 57 -57 38q-57 -18 -53 -71z" />
<glyph unicode="&#xa9;" horiz-adv-x="1191" d="M-4 510q0 -238 168 -406t405 -167q238 -1 406 167t168 406t-168 405q-168 168 -406 168t-405 -168q-168 -168 -168 -405zM74 510q0 205 145 350t350 146q208 -1 351 -146q145 -143 145 -350q0 -205 -145 -348q-145 -145 -351 -146q-205 0 -350 146q-145 143 -145 348z M203 483q-2 -92 63 -184q57 -78 123 -106q72 -33 150 -39q63 -4 127 10q45 10 86 29l34 16q16 10 33 10q14 0 27 -6q23 -12 22 -18l4 88q8 72 21 116l-21 9q0 -4 -16 -33q-20 -39 -49 -72q-39 -45 -88 -70q-59 -33 -127 -32q-117 0 -197 88q-74 84 -73 198q0 119 55 201 q66 102 194 107q141 6 201 -64q20 -27 31 -61q4 -14 6 -31l4 -27q33 74 33 129q0 20 -4 66l-6 41q0 -6 -25 -23q-29 -20 -55 -12q-78 25 -150 29q-59 4 -114 -8q-41 -8 -78 -25q-14 -6 -27 -14q-10 -4 -18 -11q-160 -113 -166 -301z" />
<glyph unicode="&#xab;" horiz-adv-x="989" d="M39 496q4 -20 24 -29l472 -193q37 -14 49 19q12 31 -29 47l-389 158l395 159q45 18 33 52q-10 33 -51 16l-480 -197q-27 -12 -24 -32zM397 496q2 -20 23 -29l473 -193q37 -14 49 19q10 31 -29 47l-389 158l394 159q45 18 34 52q-12 33 -51 16l-481 -197q-25 -10 -23 -32z " />
<glyph unicode="&#xad;" horiz-adv-x="776" d="M209 240q10 -6 18 -4l11 6q57 25 100 24q35 0 100 -14q55 -14 115 -14q39 0 70 4q49 6 98 20q37 12 63 25q37 16 50 30q10 12 4 21q-4 8 -15 8q-8 0 -20 -6q-29 -18 -101 -18q-35 0 -104 14q-76 16 -111 16q-29 0 -65 -6q-45 -8 -94 -24q-43 -16 -82 -35q-29 -16 -37 -23 q-12 -16 0 -24z" />
<glyph unicode="&#xae;" horiz-adv-x="481" d="M180 627q0 -137 135 -138q136 1 136 138q0 135 -136 135q-135 0 -135 -135zM199 627q0 117 116 116q117 0 117 -116q0 -119 -117 -119q-116 0 -116 119zM256 553q6 -2 12 0h25q8 -2 12 0q0 -2 -6 4q-6 4 -6 10l-2 62h16q4 0 8 -4q6 -4 15 -19l26 -43q4 -8 17 -10 q12 -4 20 4l-4 2q-6 2 -8 4q-8 8 -16 21q-8 10 -15 22q-14 23 -14 25q8 0 20 10q14 14 9 33q-6 23 -27 26q-8 2 -16 2l-43 -2l-23 2q0 2 8 -4q6 -4 6 -10l2 -18l-2 -103q0 -6 -6 -10q-8 -6 -8 -4zM291 637v45q0 8 8 10q6 4 12 2q8 0 19 -4q14 -8 16 -24q0 -25 -31 -29h-24z " />
<glyph unicode="&#xb0;" horiz-adv-x="438" d="M104 971q0 -143 144 -144q143 1 143 144q0 145 -143 145t-144 -145zM162 971q0 88 86 88t86 -88q0 -86 -86 -86t-86 86z" />
<glyph unicode="&#xb4;" horiz-adv-x="686" d="M221 1151l2 -10l373 98q25 10 25 33q0 25 -25 33q-14 6 -33 2l-35 -13q-45 -16 -168 -71q-61 -27 -96 -45q-43 -20 -43 -27z" />
<glyph unicode="&#xb6;" horiz-adv-x="679" d="M10 801q0 -109 72 -174q70 -68 194 -74v-553h68v991h129v-991h68v991h88v56h-340q-125 0 -203 -68q-76 -70 -76 -178z" />
<glyph unicode="&#xb8;" horiz-adv-x="399" d="M31 -137q-4 -31 20 -45q18 -8 25 -13q14 -8 43 -8l45 2q27 2 59 33q39 33 43 72q6 80 -106 69l18 41h-53l-37 -98q47 14 68 14q39 4 49 -16q10 -18 -8 -39q-47 -59 -129 -2q-35 18 -37 -10z" />
<glyph unicode="&#xba;" horiz-adv-x="745" d="M289 1214q0 -106 106 -106t107 106q0 106 -107 107q-106 0 -106 -107zM328 1214q-1 68 67 68t68 -68t-68 -67q-68 0 -67 67z" />
<glyph unicode="&#xbb;" horiz-adv-x="989" d="M92 709q-10 -33 33 -52l393 -159l-389 -158q-39 -16 -27 -47q12 -33 50 -19l471 193q20 8 24 29q2 20 -24 32l-482 197q-37 16 -49 -16zM451 709q-12 -33 32 -52l394 -159l-390 -158q-41 -16 -28 -47q12 -33 49 -19l471 193q23 8 25 29q2 20 -25 32l-479 197 q-39 16 -49 -16z" />
<glyph unicode="&#xbf;" horiz-adv-x="1026" d="M254 -162q51 -154 264 -86q147 47 254 195q51 72 51 151q0 111 -90 127q-51 12 -104 -20q-53 -35 -56 -90q0 -76 80 -72l27 6q-18 25 -18 35q0 33 38 37q39 4 54 -37q12 -39 -15 -96q-57 -115 -161 -135q-121 -25 -148 55q-37 96 68 203q18 20 49 47l125 116q37 37 69 70 q41 41 95 111q43 57 67 96l60 94l-21 2q0 -2 -4 2l-10 8l-99 -120q-57 -68 -106 -113q-43 -39 -90 -78l-199 -149q-121 -98 -166 -203q-39 -88 -14 -156zM928 760q-4 -100 98 -64q98 37 102 133q4 100 -98 64q-98 -37 -102 -133z" />
<glyph unicode="&#xc0;" horiz-adv-x="1652" d="M51 348q-49 -147 39 -260q84 -104 223 -106q55 0 113 12q72 16 141 53q150 78 301 223q61 55 111 107q43 43 86 92l268 8q-98 -90 -153 -176q-72 -106 -68 -201q4 -111 119 -141q59 -14 147 10q74 23 168 76q76 43 160 102q66 47 123 97l16 14l13 8l4 4q18 14 26 23 q25 20 15 37q-6 10 -13 12q-8 2 -24 -4q-29 -12 -123 -78q-10 -8 -33 -18q-27 -14 -53 -23q-70 -27 -101 -14q-59 23 -65 76q-8 76 86 213l59 10q10 2 19 2q16 2 33 8q12 2 24 6q14 4 14 19q0 14 -14 14q-16 -2 -59 0l-31 2q4 8 12 18l13 17q14 20 24 31l287 321 q70 78 80 148q6 53 -21 79q-70 72 -250 -12q-100 -45 -194 -102q-82 -51 -180 -125q-82 -59 -193 -148l-229 -186l-33 -25q-68 29 -33 82q31 49 125 70q59 14 29 39q-25 18 -78 31q-57 12 -125 4q-84 -8 -162 -49q-70 -37 -82 -93q-14 -61 52 -108q45 -35 165 -55l-57 -41 q-33 -23 -55 -35q-168 -90 -281 -62q-84 20 -102 86q-14 57 24 111q14 23 -20 24q-37 2 -90 -20q-63 -27 -113 -72q-59 -57 -84 -135zM1128 539l185 190q96 100 149 143q121 102 252 183q178 109 228 61q41 -41 -64 -149q-35 -35 -76 -74l-160 -137q-45 -41 -77 -72l-78 -70 l-78 -67q-76 -4 -158 -6zM1739 1540q-23 -25 10 -53q12 -12 70 -49q51 -33 118 -74q68 -41 115 -68q51 -29 55 -26l15 8l-244 209q-2 0 -4 4l-31 27q-23 16 -39 26q-43 20 -65 -4z" />
<glyph unicode="&#xc1;" horiz-adv-x="1652" d="M51 348q-49 -147 39 -260q84 -104 223 -106q55 0 113 12q72 16 141 53q150 78 301 223q61 55 111 107q43 43 86 92l268 8q-98 -90 -153 -176q-72 -106 -68 -201q4 -111 119 -141q59 -14 147 10q74 23 168 76q76 43 160 102q66 47 123 97l16 14l13 8l4 4q18 14 26 23 q25 20 15 37q-6 10 -13 12q-8 2 -24 -4q-29 -12 -123 -78q-10 -8 -33 -18q-27 -14 -53 -23q-70 -27 -101 -14q-59 23 -65 76q-8 76 86 213l59 10q10 2 19 2q16 2 33 8q12 2 24 6q14 4 14 19q0 14 -14 14q-16 -2 -59 0l-31 2q4 8 12 18l13 17q14 20 24 31l287 321 q70 78 80 148q6 53 -21 79q-70 72 -250 -12q-100 -45 -194 -102q-82 -51 -180 -125q-82 -59 -193 -148l-229 -186l-33 -25q-68 29 -33 82q31 49 125 70q59 14 29 39q-25 18 -78 31q-57 12 -125 4q-84 -8 -162 -49q-70 -37 -82 -93q-14 -61 52 -108q45 -35 165 -55l-57 -41 q-33 -23 -55 -35q-168 -90 -281 -62q-84 20 -102 86q-14 57 24 111q14 23 -20 24q-37 2 -90 -20q-63 -27 -113 -72q-59 -57 -84 -135zM1128 539l185 190q96 100 149 143q121 102 252 183q178 109 228 61q41 -41 -64 -149q-35 -35 -76 -74l-160 -137q-45 -41 -77 -72l-78 -70 l-78 -67q-76 -4 -158 -6zM1858 1315l10 -15q2 -2 61 9q53 10 129 26q78 16 137 31q66 16 82 25q39 18 27 49q-12 33 -59 24l-47 -14z" />
<glyph unicode="&#xc2;" horiz-adv-x="1652" d="M51 348q-49 -147 39 -260q84 -104 223 -106q55 0 113 12q72 16 141 53q150 78 301 223q61 55 111 107q43 43 86 92l268 8q-98 -90 -153 -176q-72 -106 -68 -201q4 -111 119 -141q59 -14 147 10q74 23 168 76q76 43 160 102q66 47 123 97l16 14l13 8l4 4q18 14 26 23 q25 20 15 37q-6 10 -13 12q-8 2 -24 -4q-29 -12 -123 -78q-10 -8 -33 -18q-27 -14 -53 -23q-70 -27 -101 -14q-59 23 -65 76q-8 76 86 213l59 10q10 2 19 2q16 2 33 8q12 2 24 6q14 4 14 19q0 14 -14 14q-16 -2 -59 0l-31 2q4 8 12 18l13 17q14 20 24 31l287 321 q70 78 80 148q6 53 -21 79q-70 72 -250 -12q-100 -45 -194 -102q-82 -51 -180 -125q-82 -59 -193 -148l-229 -186l-33 -25q-68 29 -33 82q31 49 125 70q59 14 29 39q-25 18 -78 31q-57 12 -125 4q-84 -8 -162 -49q-70 -37 -82 -93q-14 -61 52 -108q45 -35 165 -55l-57 -41 q-33 -23 -55 -35q-168 -90 -281 -62q-84 20 -102 86q-14 57 24 111q14 23 -20 24q-37 2 -90 -20q-63 -27 -113 -72q-59 -57 -84 -135zM1128 539l185 190q96 100 149 143q121 102 252 183q178 109 228 61q41 -41 -64 -149q-35 -35 -76 -74l-160 -137q-45 -41 -77 -72l-78 -70 l-78 -67q-76 -4 -158 -6zM1751 1292q-20 -33 49 0l234 115l127 -115q12 -18 28 -14q10 2 21 14l-105 172q-25 41 -88 0z" />
<glyph unicode="&#xc3;" horiz-adv-x="1652" d="M51 348q-49 -147 39 -260q84 -104 223 -106q55 0 113 12q72 16 141 53q150 78 301 223q61 55 111 107q43 43 86 92l268 8q-98 -90 -153 -176q-72 -106 -68 -201q4 -111 119 -141q59 -14 147 10q74 23 168 76q76 43 160 102q66 47 123 97l16 14l13 8l4 4q18 14 26 23 q25 20 15 37q-6 10 -13 12q-8 2 -24 -4q-29 -12 -123 -78q-10 -8 -33 -18q-27 -14 -53 -23q-70 -27 -101 -14q-59 23 -65 76q-8 76 86 213l59 10q10 2 19 2q16 2 33 8q12 2 24 6q14 4 14 19q0 14 -14 14q-16 -2 -59 0l-31 2q4 8 12 18l13 17q14 20 24 31l287 321 q70 78 80 148q6 53 -21 79q-70 72 -250 -12q-100 -45 -194 -102q-82 -51 -180 -125q-82 -59 -193 -148l-229 -186l-33 -25q-68 29 -33 82q31 49 125 70q59 14 29 39q-25 18 -78 31q-57 12 -125 4q-84 -8 -162 -49q-70 -37 -82 -93q-14 -61 52 -108q45 -35 165 -55l-57 -41 q-33 -23 -55 -35q-168 -90 -281 -62q-84 20 -102 86q-14 57 24 111q14 23 -20 24q-37 2 -90 -20q-63 -27 -113 -72q-59 -57 -84 -135zM1128 539l185 190q96 100 149 143q121 102 252 183q178 109 228 61q41 -41 -64 -149q-35 -35 -76 -74l-160 -137q-45 -41 -77 -72l-78 -70 l-78 -67q-76 -4 -158 -6zM1788 1292q4 -4 6 -2q8 0 8 4q41 20 88 21q27 0 86 -12q41 -10 92 -11q31 0 58 4q41 4 82 17l51 18q29 14 39 25q6 10 -2 10q-6 0 -12 -4q-27 -16 -89 -16q-29 0 -90 12q-57 12 -90 12h-24l-31 -4q-37 -6 -76 -20q-37 -14 -67 -29q-23 -14 -27 -19 q-4 -4 -2 -6z" />
<glyph unicode="&#xc4;" horiz-adv-x="1652" d="M51 348q-49 -147 39 -260q84 -104 223 -106q55 0 113 12q72 16 141 53q150 78 301 223q61 55 111 107q43 43 86 92l268 8q-98 -90 -153 -176q-72 -106 -68 -201q4 -111 119 -141q59 -14 147 10q74 23 168 76q76 43 160 102q66 47 123 97l16 14l13 8l4 4q18 14 26 23 q25 20 15 37q-6 10 -13 12q-8 2 -24 -4q-29 -12 -123 -78q-10 -8 -33 -18q-27 -14 -53 -23q-70 -27 -101 -14q-59 23 -65 76q-8 76 86 213l59 10q10 2 19 2q16 2 33 8q12 2 24 6q14 4 14 19q0 14 -14 14q-16 -2 -59 0l-31 2q4 8 12 18l13 17q14 20 24 31l287 321 q70 78 80 148q6 53 -21 79q-70 72 -250 -12q-100 -45 -194 -102q-82 -51 -180 -125q-82 -59 -193 -148l-229 -186l-33 -25q-68 29 -33 82q31 49 125 70q59 14 29 39q-25 18 -78 31q-57 12 -125 4q-84 -8 -162 -49q-70 -37 -82 -93q-14 -61 52 -108q45 -35 165 -55l-57 -41 q-33 -23 -55 -35q-168 -90 -281 -62q-84 20 -102 86q-14 57 24 111q14 23 -20 24q-37 2 -90 -20q-63 -27 -113 -72q-59 -57 -84 -135zM1128 539l185 190q96 100 149 143q121 102 252 183q178 109 228 61q41 -41 -64 -149q-35 -35 -76 -74l-160 -137q-45 -41 -77 -72l-78 -70 l-78 -67q-76 -4 -158 -6zM1886 1356q-14 -76 66 -53q80 25 94 98q14 74 -66 51q-80 -24 -94 -96zM2152 1356q-14 -76 66 -53q80 25 94 98q14 74 -65 51q-81 -24 -95 -96z" />
<glyph unicode="&#xc5;" horiz-adv-x="1652" d="M51 348q-49 -147 39 -260q84 -104 223 -106q55 0 113 12q72 16 141 53q150 78 301 223q61 55 111 107q43 43 86 92l268 8q-98 -90 -153 -176q-72 -106 -68 -201q4 -111 119 -141q59 -14 147 10q74 23 168 76q76 43 160 102q66 47 123 97l16 14l13 8l4 4q18 14 26 23 q25 20 15 37q-6 10 -13 12q-8 2 -24 -4q-29 -12 -123 -78q-10 -8 -33 -18q-27 -14 -53 -23q-70 -27 -101 -14q-59 23 -65 76q-8 76 86 213l59 10q10 2 19 2q16 2 33 8q12 2 24 6q14 4 14 19q0 14 -14 14q-16 -2 -59 0l-31 2q4 8 12 18l13 17q14 20 24 31l287 321 q70 78 80 148q6 53 -21 79q-70 72 -250 -12q-100 -45 -194 -102q-82 -51 -180 -125q-82 -59 -193 -148l-229 -186l-33 -25q-68 29 -33 82q31 49 125 70q59 14 29 39q-25 18 -78 31q-57 12 -125 4q-84 -8 -162 -49q-70 -37 -82 -93q-14 -61 52 -108q45 -35 165 -55l-57 -41 q-33 -23 -55 -35q-168 -90 -281 -62q-84 20 -102 86q-14 57 24 111q14 23 -20 24q-37 2 -90 -20q-63 -27 -113 -72q-59 -57 -84 -135zM1128 539l185 190q96 100 149 143q121 102 252 183q178 109 228 61q41 -41 -64 -149q-35 -35 -76 -74l-160 -137q-45 -41 -77 -72l-78 -70 l-78 -67q-76 -4 -158 -6zM1993 1356q0 -123 121 -123q122 0 122 123q0 121 -122 121q-121 0 -121 -121zM2042 1356q0 72 72 71q73 1 73 -71q0 -74 -73 -74q-72 0 -72 74z" />
<glyph unicode="&#xc6;" horiz-adv-x="2363" d="M51 348q-49 -147 39 -260q84 -104 223 -106q90 0 189 36q86 33 178 97q76 51 160 127l139 135q43 43 86 92q59 0 133 2l135 6q-98 -90 -153 -176q-102 -154 -62 -246q35 -78 168 -104q111 -23 266 -8q133 12 234 43q96 31 246 116q129 76 215 144q8 8 18 14l47 37 q25 23 10 41q-16 16 -98 -37q-98 -66 -184 -106q-117 -57 -236 -33q-96 18 -135 69q-31 37 -41 82q-14 57 8 115q25 59 109 119q74 55 143 76q51 -56 127 -68q135 -23 152 53q12 68 -88 90q-29 8 -64 13q-43 4 -69 2q-8 14 -11 37q-8 82 66 163q27 31 65 60q31 25 68 45 q53 33 127 59q88 31 158 29q53 0 84 -21q43 -29 30 -94q-18 -94 -135 -137q-55 -18 -65 31q-8 39 34 88q27 31 -4 31q-25 0 -61 -19q-39 -16 -74 -49q-45 -41 -67 -94q-20 -47 2 -80q27 -37 88 -33t125 31q49 23 110 65q100 76 119 174q16 92 -57 144q-61 43 -156 41 q-205 -4 -356 -103q10 59 -19 88q-43 43 -135 25q-78 -14 -186 -70q-84 -45 -183 -108l-71 -49l-49 -37q-82 -59 -193 -148l-229 -186l-33 -25q-68 29 -33 82q31 49 125 70q59 14 29 39q-25 18 -78 31q-57 12 -125 4q-84 -8 -162 -49q-70 -37 -82 -93q-14 -61 52 -108 q45 -35 165 -55l-57 -41q-33 -23 -55 -35q-168 -90 -281 -62q-84 20 -102 86q-14 57 24 111q14 23 -20 24q-37 2 -90 -20q-63 -27 -113 -72q-59 -57 -84 -135zM1128 539l185 190q96 100 149 143q121 102 252 183q178 109 228 61q41 -41 -64 -149q-35 -35 -76 -74l-160 -137 q-45 -41 -77 -72l-78 -70l-78 -67q-127 -8 -281 -8zM1733 690l104 117q-2 -6 -2 -12v-13q0 -41 6 -71q-25 -2 -55 -9z" />
<glyph unicode="&#xc7;" horiz-adv-x="950" d="M16 256q14 -233 244 -289l-57 -88q47 14 71 15q41 4 48 -17q4 -18 -21 -43q-68 -63 -154 -16q-27 18 -28 -2q-2 -18 16 -33q41 -23 109 -21q28 0 69 25q47 31 62 68q33 92 -84 82l14 22q127 -16 258 29q98 33 221 112q49 33 103 72q43 31 88 68q94 74 76 96 q-16 18 -84 -25l-68 -45q-45 -27 -78 -43q-121 -57 -250 -20q-109 31 -145 94q-45 78 -29 192q6 35 23 86q72 -14 172 -8q229 14 391 88q117 53 178 97q78 55 135 135q68 96 43 176q-25 76 -110 96q-125 31 -309 -18q-78 -20 -160 -56q-76 -33 -150 -73q-152 -84 -274 -185 q-18 -14 -55 -47q-23 80 20 168q27 55 98 131q12 14 25 25l16 16q10 8 11 17q0 20 -21 20q-10 0 -24 -8l-35 -21q-41 -27 -76 -59q-47 -41 -76 -88q-90 -135 -35 -262q2 -12 11 -23l-33 -37q-6 -10 -15 -20l-14 -18q-131 -178 -117 -365zM461 668q25 45 45 73 q84 119 211 207q111 76 227 119q125 43 230 33q139 -14 77 -146q-47 -96 -188 -176q-125 -72 -139 10q-8 43 45 101q35 35 0 37q-29 0 -74 -17q-47 -18 -90 -53q-53 -45 -84 -104q-23 -47 -8 -84q-82 -8 -121 -9q-82 0 -131 9z" />
<glyph unicode="&#xc8;" horiz-adv-x="974" d="M33 332q-31 -102 10 -201q59 -133 211 -166q133 -31 297 21q98 31 246 116q129 76 215 144q10 8 20 14l47 37q25 23 8 41q-14 16 -98 -37q-98 -66 -184 -106q-115 -55 -234 -33q-98 18 -137 69q-29 37 -41 82q-12 57 8 115q23 55 86 104l54 37l34 21q10 6 11 6 q18 10 67 27q53 -56 127 -68q137 -23 152 53q14 68 -88 90q-27 8 -62 13q-43 4 -71 2q-6 14 -11 37q-6 82 66 163q29 31 68 60q31 25 65 45q55 33 127 59q90 31 158 29q55 0 86 -21q41 -29 28 -94q-16 -94 -135 -137q-53 -18 -65 31q-8 39 35 88q29 31 -3 31q-25 0 -63 -19 q-37 -16 -74 -49q-43 -41 -67 -94q-18 -47 4 -80q25 -37 86 -33q63 4 125 31q51 23 110 65q100 76 119 174q18 92 -55 144q-63 43 -158 41q-211 -4 -366 -109q-84 -57 -132 -125q-55 -80 -59 -168q0 -41 6 -71q-31 -2 -74 -13q-102 -23 -204 -71q-117 -55 -191 -129 q-76 -76 -104 -166zM1008 1479q-23 -25 8 -54q14 -12 71 -49q51 -33 119 -73q66 -41 115 -68q51 -29 53 -27l15 9l-244 208l-2 5l-31 26q-23 16 -41 27q-41 20 -63 -4z" />
<glyph unicode="&#xc9;" horiz-adv-x="974" d="M33 332q-31 -102 10 -201q59 -133 211 -166q133 -31 297 21q98 31 246 116q129 76 215 144q10 8 20 14l47 37q25 23 8 41q-14 16 -98 -37q-98 -66 -184 -106q-115 -55 -234 -33q-98 18 -137 69q-29 37 -41 82q-12 57 8 115q23 55 86 104l54 37l34 21q10 6 11 6 q18 10 67 27q53 -56 127 -68q137 -23 152 53q14 68 -88 90q-27 8 -62 13q-43 4 -71 2q-6 14 -11 37q-6 82 66 163q29 31 68 60q31 25 65 45q55 33 127 59q90 31 158 29q55 0 86 -21q41 -29 28 -94q-16 -94 -135 -137q-53 -18 -65 31q-8 39 35 88q29 31 -3 31q-25 0 -63 -19 q-37 -16 -74 -49q-43 -41 -67 -94q-18 -47 4 -80q25 -37 86 -33q63 4 125 31q51 23 110 65q100 76 119 174q18 92 -55 144q-63 43 -158 41q-211 -4 -366 -109q-84 -57 -132 -125q-55 -80 -59 -168q0 -41 6 -71q-31 -2 -74 -13q-102 -23 -204 -71q-117 -55 -191 -129 q-76 -76 -104 -166zM1124 1274l11 -14q4 -2 63 8q53 10 129 26q78 16 137 31q66 16 80 25q41 18 27 49q-12 33 -60 24l-45 -14z" />
<glyph unicode="&#xca;" horiz-adv-x="974" d="M33 332q-31 -102 10 -201q59 -133 211 -166q133 -31 297 21q98 31 246 116q129 76 215 144q10 8 20 14l47 37q25 23 8 41q-14 16 -98 -37q-98 -66 -184 -106q-115 -55 -234 -33q-98 18 -137 69q-29 37 -41 82q-12 57 8 115q23 55 86 104l54 37l34 21q10 6 11 6 q18 10 67 27q53 -56 127 -68q137 -23 152 53q14 68 -88 90q-27 8 -62 13q-43 4 -71 2q-6 14 -11 37q-6 82 66 163q29 31 68 60q31 25 65 45q55 33 127 59q90 31 158 29q55 0 86 -21q41 -29 28 -94q-16 -94 -135 -137q-53 -18 -65 31q-8 39 35 88q29 31 -3 31q-25 0 -63 -19 q-37 -16 -74 -49q-43 -41 -67 -94q-18 -47 4 -80q25 -37 86 -33q63 4 125 31q51 23 110 65q100 76 119 174q18 92 -55 144q-63 43 -158 41q-211 -4 -366 -109q-84 -57 -132 -125q-55 -80 -59 -168q0 -41 6 -71q-31 -2 -74 -13q-102 -23 -204 -71q-117 -55 -191 -129 q-76 -76 -104 -166zM1018 1292q-18 -33 49 0l233 115l127 -115q12 -18 29 -14q12 2 21 14l-105 172q-23 41 -88 0z" />
<glyph unicode="&#xcb;" horiz-adv-x="974" d="M33 332q-31 -102 10 -201q59 -133 211 -166q133 -31 297 21q98 31 246 116q129 76 215 144q10 8 20 14l47 37q25 23 8 41q-14 16 -98 -37q-98 -66 -184 -106q-115 -55 -234 -33q-98 18 -137 69q-29 37 -41 82q-12 57 8 115q23 55 86 104l54 37l34 21q10 6 11 6 q18 10 67 27q53 -56 127 -68q137 -23 152 53q14 68 -88 90q-27 8 -62 13q-43 4 -71 2q-6 14 -11 37q-6 82 66 163q29 31 68 60q31 25 65 45q55 33 127 59q90 31 158 29q55 0 86 -21q41 -29 28 -94q-16 -94 -135 -137q-53 -18 -65 31q-8 39 35 88q29 31 -3 31q-25 0 -63 -19 q-37 -16 -74 -49q-43 -41 -67 -94q-18 -47 4 -80q25 -37 86 -33q63 4 125 31q51 23 110 65q100 76 119 174q18 92 -55 144q-63 43 -158 41q-211 -4 -366 -109q-84 -57 -132 -125q-55 -80 -59 -168q0 -41 6 -71q-31 -2 -74 -13q-102 -23 -204 -71q-117 -55 -191 -129 q-76 -76 -104 -166zM1071 1356q-14 -76 66 -53q80 25 94 98q16 74 -66 51q-80 -24 -94 -96zM1337 1356q-14 -76 66 -53q80 25 94 98q16 74 -65 51q-81 -24 -95 -96z" />
<glyph unicode="&#xcc;" horiz-adv-x="872" d="M49 322q-49 -147 39 -259q84 -104 221 -108q51 0 99 8q59 8 114 33q88 37 180 113q84 70 172 174q45 53 66 82q174 53 297 145q45 35 66 57q27 33 8 47q-14 14 -64 -18q-8 -4 -22 -14l-92 -60q-51 -31 -109 -45l31 41q76 106 155 201q72 86 150 166q115 119 233 219 q18 16 41 35l39 35q29 27 13 43q-16 14 -41 0l-56 -35q-145 -6 -282 -37q-92 -20 -183 -55q-76 -31 -137 -64q-193 -102 -332 -248q-74 -78 -98 -176q-25 -104 25 -170q23 -29 59 -53q-109 -68 -219 -41q-82 20 -92 82q-10 49 28 102q16 23 -18 25q-37 2 -90 -19 q-63 -27 -113 -73q-61 -55 -88 -133zM801 750q84 139 276 239q104 51 215 84q111 35 205 41q-59 -45 -133 -106q-63 -53 -141 -121q-72 -66 -158 -146q-68 -61 -154 -143q-49 -45 -104 -92q-94 98 -6 244zM1268 1540q-23 -25 8 -53q14 -12 72 -49q49 -33 118 -74 q66 -41 113 -68q53 -29 55 -26l15 8l-244 209l-4 4l-29 27q-23 16 -41 26q-41 20 -63 -4z" />
<glyph unicode="&#xcd;" horiz-adv-x="872" d="M49 322q-49 -147 39 -259q84 -104 221 -108q51 0 99 8q59 8 114 33q88 37 180 113q84 70 172 174q45 53 66 82q174 53 297 145q45 35 66 57q27 33 8 47q-14 14 -64 -18q-8 -4 -22 -14l-92 -60q-51 -31 -109 -45l31 41q76 106 155 201q72 86 150 166q115 119 233 219 q18 16 41 35l39 35q29 27 13 43q-16 14 -41 0l-56 -35q-145 -6 -282 -37q-92 -20 -183 -55q-76 -31 -137 -64q-193 -102 -332 -248q-74 -78 -98 -176q-25 -104 25 -170q23 -29 59 -53q-109 -68 -219 -41q-82 20 -92 82q-10 49 28 102q16 23 -18 25q-37 2 -90 -19 q-63 -27 -113 -73q-61 -55 -88 -133zM801 750q84 139 276 239q104 51 215 84q111 35 205 41q-59 -45 -133 -106q-63 -53 -141 -121q-72 -66 -158 -146q-68 -61 -154 -143q-49 -45 -104 -92q-94 98 -6 244zM1364 1315l10 -15q4 -2 64 9q53 10 129 26q78 16 137 31 q66 16 80 25q39 18 26 49q-12 33 -59 24l-45 -14z" />
<glyph unicode="&#xce;" horiz-adv-x="872" d="M49 322q-49 -147 39 -259q84 -104 221 -108q51 0 99 8q59 8 114 33q88 37 180 113q84 70 172 174q45 53 66 82q174 53 297 145q45 35 66 57q27 33 8 47q-14 14 -64 -18q-8 -4 -22 -14l-92 -60q-51 -31 -109 -45l31 41q76 106 155 201q72 86 150 166q115 119 233 219 q18 16 41 35l39 35q29 27 13 43q-16 14 -41 0l-56 -35q-145 -6 -282 -37q-92 -20 -183 -55q-76 -31 -137 -64q-193 -102 -332 -248q-74 -78 -98 -176q-25 -104 25 -170q23 -29 59 -53q-109 -68 -219 -41q-82 20 -92 82q-10 49 28 102q16 23 -18 25q-37 2 -90 -19 q-63 -27 -113 -73q-61 -55 -88 -133zM801 750q84 139 276 239q104 51 215 84q111 35 205 41q-59 -45 -133 -106q-63 -53 -141 -121q-72 -66 -158 -146q-68 -61 -154 -143q-49 -45 -104 -92q-94 98 -6 244zM1360 1313q-18 -33 49 0l233 114l127 -114q12 -18 29 -15 q12 2 21 15l-105 172q-23 41 -88 0z" />
<glyph unicode="&#xcf;" horiz-adv-x="872" d="M49 322q-49 -147 39 -259q84 -104 221 -108q51 0 99 8q59 8 114 33q88 37 180 113q84 70 172 174q45 53 66 82q174 53 297 145q45 35 66 57q27 33 8 47q-14 14 -64 -18q-8 -4 -22 -14l-92 -60q-51 -31 -109 -45l31 41q76 106 155 201q72 86 150 166q115 119 233 219 q18 16 41 35l39 35q29 27 13 43q-16 14 -41 0l-56 -35q-145 -6 -282 -37q-92 -20 -183 -55q-76 -31 -137 -64q-193 -102 -332 -248q-74 -78 -98 -176q-25 -104 25 -170q23 -29 59 -53q-109 -68 -219 -41q-82 20 -92 82q-10 49 28 102q16 23 -18 25q-37 2 -90 -19 q-63 -27 -113 -73q-61 -55 -88 -133zM801 750q84 139 276 239q104 51 215 84q111 35 205 41q-59 -45 -133 -106q-63 -53 -141 -121q-72 -66 -158 -146q-68 -61 -154 -143q-49 -45 -104 -92q-94 98 -6 244zM1393 1356q-14 -76 65 -53q80 25 94 98q16 74 -65 51 q-80 -24 -94 -96zM1659 1356q-14 -76 65 -53q80 25 95 98q16 74 -66 51q-80 -24 -94 -96z" />
<glyph unicode="&#xd0;" horiz-adv-x="1437" d="M23 76q23 -72 100 -103q72 -29 172 -14q115 16 199 82l12 10q8 6 16 10l80 -41q152 -72 348 -51q229 25 445 213q197 174 266 389q63 199 -16 357q-49 104 -144 162l53 47q16 14 33 24l19 13q14 8 8 22t-23 10l-24 -8l-31 -14l-63 -37l-37 -25q-90 35 -174 43 q-76 10 -166 2q-66 -6 -172 -26q-203 -41 -338 -123q-141 -86 -172 -195q-23 -80 16 -149q41 -74 123 -90h-168q-57 0 -57 -35q0 -39 57 -39h363l-146 -166l-96 25q-133 20 -238 2q-164 -27 -233 -162q-35 -68 -12 -133zM102 141q2 37 35 64q39 29 133 6q59 -14 123 -57 q8 -8 21 -17q-16 -16 -33 -24q-72 -47 -131 -60q-80 -16 -129 35q-21 20 -19 53zM645 584q90 18 148 98q20 29 24 49q2 20 -14 14q-43 -14 -76 0q-37 18 -35 78q4 125 197 215q154 68 305 60q78 -2 160 -33l-131 -96q-70 -55 -125 -105l-62 -57q-41 -39 -73 -70 q-96 -92 -154 -153h-164zM799 276q20 20 35 41q33 37 73 93l74 100h354q72 0 72 35q0 39 -72 39h-301q25 33 70 88l80 96q121 141 248 258q76 -47 112 -111q80 -143 12 -309q-78 -199 -260 -309q-131 -80 -272 -82q-25 0 -74 12q-37 8 -88 25z" />
<glyph unicode="&#xd1;" horiz-adv-x="2222" d="M92 317q-90 -227 107 -327q139 -72 329 -4q78 27 160 94q68 53 156 149q51 57 92 99l223 237l121 123q63 61 152 135q72 63 145 123l74 58q-31 -39 -70 -99l-68 -104q-98 -147 -176 -316q-74 -164 -114 -297q-25 -86 -19 -155q8 -80 58 -78q14 2 41 39l53 76 q98 133 233 284q164 182 436 414l95 82l100 82q119 88 182 100q55 4 64 -39q10 -41 -39 -100q-33 -39 2 -37q29 2 72 23q23 10 41 24q27 16 47 35q53 49 73 113q18 53 -16 94q-39 43 -111 35q-92 -10 -176 -60q-82 -47 -184 -125l-129 -104q-25 -20 -43 -35 q-199 -160 -340 -289l-84 -75q0 -2 -4 -7l-6 -4l8 39q14 51 31 103q39 125 75 200q92 188 189 320q43 59 22 67q-16 8 -53 -12q-37 -18 -110 -65q-68 -45 -158 -109l-113 -82q-51 -37 -114 -86l-209 -162q-121 -96 -219 -170q-117 -86 -203 -141q-72 -47 -129 -64 q-76 -25 -142 -4q-109 33 -77 131q8 20 26 48q16 20 -14 24q-33 4 -84 -12q-63 -23 -113 -64q-61 -51 -90 -125zM2095 1315q0 -4 8 -4q55 35 107 35q33 0 98 -15q63 -16 96 -16q53 0 144 24q49 14 78 29q35 18 34 39l-6 6l-20 -6l-21 -10q-12 -6 -22 -8q-12 -4 -27 -5 q-37 0 -108 17q-74 16 -111 16q-43 0 -141 -35q-47 -16 -76 -32q-33 -18 -33 -35z" />
<glyph unicode="&#xd2;" d="M25 326q-25 -145 59 -256q92 -121 264 -115q125 4 264 70q121 55 248 151q109 84 209 189q86 90 145 174q43 59 78 129q43 82 64 155q55 188 -27 283q-78 90 -242 57q-172 -33 -327 -170q-127 -113 -160 -213q-26 -84 21 -139q45 -49 116 -41q94 10 178 119q37 47 48 80 q12 43 -41 12q-82 -47 -127 -27q-33 14 -11 72q16 49 54 90q117 123 254 150q121 23 174 -52q98 -141 -99 -434q-94 -139 -227 -245q-156 -123 -289 -136q-154 -12 -225 95q-68 98 -29 241q39 145 127 269q98 135 242 225q51 33 125 59q35 12 63 25l35 18l6 6q4 4 4 9 q2 8 -6 12q-8 2 -8 0h-16q-10 0 -23 -2q-33 -4 -67 -15q-96 -29 -185 -75q-78 -43 -166 -107q-92 -68 -166 -133q-86 -78 -151 -156q-74 -88 -119 -178q-51 -98 -67 -196zM928 1479q-23 -25 8 -54q14 -12 70 -49q51 -33 120 -73q66 -41 113 -68q51 -29 55 -27l15 9l-244 208 l-4 5l-31 26q-20 16 -39 27q-43 20 -63 -4z" />
<glyph unicode="&#xd3;" d="M25 326q-25 -145 59 -256q92 -121 264 -115q125 4 264 70q121 55 248 151q109 84 209 189q86 90 145 174q43 59 78 129q43 82 64 155q55 188 -27 283q-78 90 -242 57q-172 -33 -327 -170q-127 -113 -160 -213q-26 -84 21 -139q45 -49 116 -41q94 10 178 119q37 47 48 80 q12 43 -41 12q-82 -47 -127 -27q-33 14 -11 72q16 49 54 90q117 123 254 150q121 23 174 -52q98 -141 -99 -434q-94 -139 -227 -245q-156 -123 -289 -136q-154 -12 -225 95q-68 98 -29 241q39 145 127 269q98 135 242 225q51 33 125 59q35 12 63 25l35 18l6 6q4 4 4 9 q2 8 -6 12q-8 2 -8 0h-16q-10 0 -23 -2q-33 -4 -67 -15q-96 -29 -185 -75q-78 -43 -166 -107q-92 -68 -166 -133q-86 -78 -151 -156q-74 -88 -119 -178q-51 -98 -67 -196zM1085 1274l11 -14q4 -2 61 8q55 10 131 26q78 16 135 31q66 16 82 25q39 18 27 49q-12 33 -59 24 l-46 -14z" />
<glyph unicode="&#xd4;" d="M25 326q-25 -145 59 -256q92 -121 264 -115q125 4 264 70q121 55 248 151q109 84 209 189q86 90 145 174q43 59 78 129q43 82 64 155q55 188 -27 283q-78 90 -242 57q-172 -33 -327 -170q-127 -113 -160 -213q-26 -84 21 -139q45 -49 116 -41q94 10 178 119q37 47 48 80 q12 43 -41 12q-82 -47 -127 -27q-33 14 -11 72q16 49 54 90q117 123 254 150q121 23 174 -52q98 -141 -99 -434q-94 -139 -227 -245q-156 -123 -289 -136q-154 -12 -225 95q-68 98 -29 241q39 145 127 269q98 135 242 225q51 33 125 59q35 12 63 25l35 18l6 6q4 4 4 9 q2 8 -6 12q-8 2 -8 0h-16q-10 0 -23 -2q-33 -4 -67 -15q-96 -29 -185 -75q-78 -43 -166 -107q-92 -68 -166 -133q-86 -78 -151 -156q-74 -88 -119 -178q-51 -98 -67 -196zM918 1292q-18 -33 49 0l233 115l127 -115q12 -18 29 -14q12 2 20 14l-104 172q-23 41 -88 0z" />
<glyph unicode="&#xd5;" d="M25 326q-25 -145 59 -256q92 -121 264 -115q125 4 264 70q121 55 248 151q109 84 209 189q86 90 145 174q43 59 78 129q43 82 64 155q55 188 -27 283q-78 90 -242 57q-172 -33 -327 -170q-127 -113 -160 -213q-26 -84 21 -139q45 -49 116 -41q94 10 178 119q37 47 48 80 q12 43 -41 12q-82 -47 -127 -27q-33 14 -11 72q16 49 54 90q117 123 254 150q121 23 174 -52q98 -141 -99 -434q-94 -139 -227 -245q-156 -123 -289 -136q-154 -12 -225 95q-68 98 -29 241q39 145 127 269q98 135 242 225q51 33 125 59q35 12 63 25l35 18l6 6q4 4 4 9 q2 8 -6 12q-8 2 -8 0h-16q-10 0 -23 -2q-33 -4 -67 -15q-96 -29 -185 -75q-78 -43 -166 -107q-92 -68 -166 -133q-86 -78 -151 -156q-74 -88 -119 -178q-51 -98 -67 -196zM977 1292q2 -4 4 -2q8 0 8 4q41 20 88 21q29 0 86 -12q41 -10 92 -11q33 0 60 4q39 4 80 17l51 18 q31 14 39 25q8 10 -2 10q-6 0 -13 -4q-25 -16 -88 -16q-29 0 -90 12q-55 12 -90 12h-22l-31 -4q-39 -6 -78 -20q-35 -14 -65 -29q-23 -14 -29 -19q-4 -4 0 -6z" />
<glyph unicode="&#xd6;" d="M25 326q-25 -145 59 -256q92 -121 264 -115q125 4 264 70q121 55 248 151q109 84 209 189q86 90 145 174q43 59 78 129q43 82 64 155q55 188 -27 283q-78 90 -242 57q-172 -33 -327 -170q-127 -113 -160 -213q-26 -84 21 -139q45 -49 116 -41q94 10 178 119q37 47 48 80 q12 43 -41 12q-82 -47 -127 -27q-33 14 -11 72q16 49 54 90q117 123 254 150q121 23 174 -52q98 -141 -99 -434q-94 -139 -227 -245q-156 -123 -289 -136q-154 -12 -225 95q-68 98 -29 241q39 145 127 269q98 135 242 225q51 33 125 59q35 12 63 25l35 18l6 6q4 4 4 9 q2 8 -6 12q-8 2 -8 0h-16q-10 0 -23 -2q-33 -4 -67 -15q-96 -29 -185 -75q-78 -43 -166 -107q-92 -68 -166 -133q-86 -78 -151 -156q-74 -88 -119 -178q-51 -98 -67 -196zM1053 1356q-14 -76 65 -53q80 25 94 98q14 74 -65 51q-80 -24 -94 -96zM1319 1356q-14 -76 65 -53 q80 25 95 98q14 74 -66 51q-80 -24 -94 -96z" />
<glyph unicode="&#xd8;" d="M20 326q-20 -123 37 -224q63 -111 191 -139l-111 -133q-18 -23 2 -31t41 15l119 141h45q123 4 262 68q123 55 248 153q109 82 209 189q88 90 147 174q41 59 78 129q41 82 64 155q55 188 -27 283q-10 10 -16 14l-17 15l101 120q31 37 -4 37q-17 0 -23 -4q-12 -6 -33 -33 l-84 -98q-74 25 -166 6q-174 -33 -327 -170q-127 -113 -160 -213q-29 -84 20 -139q45 -49 117 -41q29 2 70 25l-309 -369q-162 88 -101 309q39 145 127 269q96 135 242 225q49 33 125 59q33 12 61 25l37 18l4 6q6 4 6 9q0 8 -8 12q-6 2 -6 0h-16q-12 0 -25 -2 q-33 -4 -66 -15q-98 -29 -186 -75q-78 -43 -164 -107q-92 -68 -168 -133q-86 -78 -151 -156q-72 -88 -119 -178q-49 -98 -66 -196zM539 238l698 833q16 -12 25 -27q96 -141 -99 -434q-94 -139 -227 -245q-156 -123 -289 -136q-57 -6 -108 9zM778 856q16 49 56 90 q115 123 253 150q63 14 109 -4l-235 -279q0 23 -43 -2q-82 -47 -127 -27q-33 14 -13 72z" />
<glyph unicode="&#xd9;" horiz-adv-x="1396" d="M23 211q-23 -115 53 -193q57 -61 147 -63q80 -2 180 41q111 47 234 137q61 43 129 100q57 47 125 109q-6 -6 -14 -20q-2 0 -5 -5l-10 -16q-72 -106 -67 -201q4 -111 118 -141q61 -16 154 14q78 25 176 80q72 41 152 99q59 43 118 92l58 49q25 20 14 37q-6 10 -14 12 t-23 -4q-29 -12 -123 -78q-10 -8 -32 -18q-27 -14 -54 -23q-70 -27 -100 -14q-61 23 -65 82q-4 82 106 233q68 94 145 191q92 113 172 194q27 29 56 58l12 12l31 31q43 41 69 77q41 55 25 80q-14 27 -68 -24l-174 -162l-190 -168q-131 -113 -242 -205q-150 -121 -272 -194 l-90 -52q-59 -33 -103 -53q-59 -25 -106 -31q-57 -6 -84 21q-45 43 -23 108q18 55 86 132q33 37 76 77q37 35 82 76l448 391q8 6 19 15l33 26q6 6 10 8q18 12 8 31q-8 16 -31 6q-8 -2 -41 -18q-12 -8 -26 -14l-21 -13q-25 -8 -51 -18q-33 -10 -63 -19q-68 -16 -129 11 l-47 22q-14 6 -23 8l-23 6q-61 10 -137 -32q-29 -14 -57 -37l-43 -35q-88 -74 -16 -78q6 0 22 8l35 15q45 14 78 -13q47 -41 110 -40q51 -2 117 24q-25 -25 -63 -53l-64 -43l-2 -2q-119 -78 -319 -199q-80 -47 -146 -100q-78 -61 -123 -117q-94 -111 -114 -217zM1231 1479 q-23 -25 10 -54q12 -12 70 -49q51 -33 119 -73q66 -41 114 -68q51 -29 55 -27l15 9l-244 208q-2 0 -4 5l-31 26q-23 16 -39 27q-43 20 -65 -4z" />
<glyph unicode="&#xda;" horiz-adv-x="1396" d="M23 211q-23 -115 53 -193q57 -61 147 -63q80 -2 180 41q111 47 234 137q61 43 129 100q57 47 125 109q-6 -6 -14 -20q-2 0 -5 -5l-10 -16q-72 -106 -67 -201q4 -111 118 -141q61 -16 154 14q78 25 176 80q72 41 152 99q59 43 118 92l58 49q25 20 14 37q-6 10 -14 12 t-23 -4q-29 -12 -123 -78q-10 -8 -32 -18q-27 -14 -54 -23q-70 -27 -100 -14q-61 23 -65 82q-4 82 106 233q68 94 145 191q92 113 172 194q27 29 56 58l12 12l31 31q43 41 69 77q41 55 25 80q-14 27 -68 -24l-174 -162l-190 -168q-131 -113 -242 -205q-150 -121 -272 -194 l-90 -52q-59 -33 -103 -53q-59 -25 -106 -31q-57 -6 -84 21q-45 43 -23 108q18 55 86 132q33 37 76 77q37 35 82 76l448 391q8 6 19 15l33 26q6 6 10 8q18 12 8 31q-8 16 -31 6q-8 -2 -41 -18q-12 -8 -26 -14l-21 -13q-25 -8 -51 -18q-33 -10 -63 -19q-68 -16 -129 11 l-47 22q-14 6 -23 8l-23 6q-61 10 -137 -32q-29 -14 -57 -37l-43 -35q-88 -74 -16 -78q6 0 22 8l35 15q45 14 78 -13q47 -41 110 -40q51 -2 117 24q-25 -25 -63 -53l-64 -43l-2 -2q-119 -78 -319 -199q-80 -47 -146 -100q-78 -61 -123 -117q-94 -111 -114 -217zM1370 1253 l10 -14q2 -2 62 8q53 10 129 27q78 16 137 31q66 16 82 24q39 18 27 49q-14 33 -60 25l-47 -14z" />
<glyph unicode="&#xdb;" horiz-adv-x="1396" d="M23 211q-23 -115 53 -193q57 -61 147 -63q80 -2 180 41q111 47 234 137q61 43 129 100q57 47 125 109q-6 -6 -14 -20q-2 0 -5 -5l-10 -16q-72 -106 -67 -201q4 -111 118 -141q61 -16 154 14q78 25 176 80q72 41 152 99q59 43 118 92l58 49q25 20 14 37q-6 10 -14 12 t-23 -4q-29 -12 -123 -78q-10 -8 -32 -18q-27 -14 -54 -23q-70 -27 -100 -14q-61 23 -65 82q-4 82 106 233q68 94 145 191q92 113 172 194q27 29 56 58l12 12l31 31q43 41 69 77q41 55 25 80q-14 27 -68 -24l-174 -162l-190 -168q-131 -113 -242 -205q-150 -121 -272 -194 l-90 -52q-59 -33 -103 -53q-59 -25 -106 -31q-57 -6 -84 21q-45 43 -23 108q18 55 86 132q33 37 76 77q37 35 82 76l448 391q8 6 19 15l33 26q6 6 10 8q18 12 8 31q-8 16 -31 6q-8 -2 -41 -18q-12 -8 -26 -14l-21 -13q-25 -8 -51 -18q-33 -10 -63 -19q-68 -16 -129 11 l-47 22q-14 6 -23 8l-23 6q-61 10 -137 -32q-29 -14 -57 -37l-43 -35q-88 -74 -16 -78q6 0 22 8l35 15q45 14 78 -13q47 -41 110 -40q51 -2 117 24q-25 -25 -63 -53l-64 -43l-2 -2q-119 -78 -319 -199q-80 -47 -146 -100q-78 -61 -123 -117q-94 -111 -114 -217zM1305 1292 q-20 -33 49 0l233 115l127 -115q10 -18 27 -14q12 2 22 14l-104 172q-25 41 -88 0z" />
<glyph unicode="&#xdc;" horiz-adv-x="1396" d="M23 211q-23 -115 53 -193q57 -61 147 -63q80 -2 180 41q111 47 234 137q61 43 129 100q57 47 125 109q-6 -6 -14 -20q-2 0 -5 -5l-10 -16q-72 -106 -67 -201q4 -111 118 -141q61 -16 154 14q78 25 176 80q72 41 152 99q59 43 118 92l58 49q25 20 14 37q-6 10 -14 12 t-23 -4q-29 -12 -123 -78q-10 -8 -32 -18q-27 -14 -54 -23q-70 -27 -100 -14q-61 23 -65 82q-4 82 106 233q68 94 145 191q92 113 172 194q27 29 56 58l12 12l31 31q43 41 69 77q41 55 25 80q-14 27 -68 -24l-174 -162l-190 -168q-131 -113 -242 -205q-150 -121 -272 -194 l-90 -52q-59 -33 -103 -53q-59 -25 -106 -31q-57 -6 -84 21q-45 43 -23 108q18 55 86 132q33 37 76 77q37 35 82 76l448 391q8 6 19 15l33 26q6 6 10 8q18 12 8 31q-8 16 -31 6q-8 -2 -41 -18q-12 -8 -26 -14l-21 -13q-25 -8 -51 -18q-33 -10 -63 -19q-68 -16 -129 11 l-47 22q-14 6 -23 8l-23 6q-61 10 -137 -32q-29 -14 -57 -37l-43 -35q-88 -74 -16 -78q6 0 22 8l35 15q45 14 78 -13q47 -41 110 -40q51 -2 117 24q-25 -25 -63 -53l-64 -43l-2 -2q-119 -78 -319 -199q-80 -47 -146 -100q-78 -61 -123 -117q-94 -111 -114 -217zM1419 1356 q-14 -76 66 -53q78 25 94 98q14 74 -66 51q-82 -24 -94 -96zM1686 1356q-14 -76 65 -53q78 25 94 98q14 74 -65 51q-82 -24 -94 -96z" />
<glyph unicode="&#xdd;" horiz-adv-x="1189" d="M2 4q0 -106 98 -174q86 -57 199 -57q106 0 221 37q100 33 209 96q94 55 193 133q82 63 172 145q80 74 170 162l528 531l72 75q31 37 49 66q20 33 20 55q0 21 -16 21q-23 0 -55 -33l-170 -160q-119 -113 -359 -268q-125 -80 -219 -127q-106 -53 -160 -53q-88 0 -88 77 q0 59 95 164q39 43 94 94q49 45 110 97q45 39 111 90l162 133q27 25 26 31q0 20 -20 20q-8 0 -39 -14l-31 -15q-10 -6 -18 -8q-10 -6 -19 -8q-45 -23 -82 -33q-45 -14 -79 -14q-27 0 -56 8l-90 39q-25 8 -47 8q-53 0 -152 -57q-104 -61 -104 -109q0 -10 8 -14t19 -4 q6 0 16 4l21 10q31 12 51 13q14 0 30 -9l52 -30l22 -11q29 -8 64 -8q63 0 129 27q-45 -45 -156 -109l-98 -55q-61 -35 -101 -59q-115 -72 -170 -138q-74 -84 -73 -178q0 -184 190 -184q82 0 174 41q74 33 156 94q115 82 172 125l127 98l-193 -192q-111 -106 -200 -170 q-113 -82 -228 -123q-129 -47 -270 -47q-84 0 -162 24q-109 35 -108 99q0 8 8 20q6 12 6 21q0 6 -6 10q-6 2 -14 2q-76 0 -136 -68q-55 -66 -55 -141zM1599 1253l11 -14q4 -2 61 8q55 10 131 27q78 16 135 31q66 16 82 24q39 18 27 49q-12 33 -59 25l-45 -14z" />
<glyph unicode="&#xde;" horiz-adv-x="1024" d="M84 311q-82 -236 121 -325q80 -37 176 -31q84 6 174 43q150 63 317 248q43 49 109 127q76 88 104 127q86 2 211 28q143 29 271 80q150 57 248 133q117 90 151 195q78 227 -215 299l182 182q33 35 37 37l33 27l20 12q14 8 7 23q-6 12 -21 8q-27 -4 -55 -21q-10 -6 -53 -43 l-211 -196l-21 -17q-41 6 -84 6q-123 2 -264 -18q-121 -18 -219 -49q-215 -68 -314 -199q-53 -70 -30 -125q23 -53 94 -65q78 -14 162 6q63 16 116 49q47 31 68 59q25 35 -35 27q-92 -10 -129 27q-51 51 43 114q76 49 164 70q66 16 129 27q88 12 162 12q35 0 53 -2 q-121 -92 -285 -238l-143 -133l-186 -174l-45 -41l-84 12q-141 29 -137 97q0 18 -19 20q-45 4 -45 -61q-4 -82 133 -121q23 -6 68 -15q-6 -4 -29 -24l-90 -84q-23 -20 -29 -25q-70 -49 -121 -67q-68 -25 -133 -8q-115 31 -86 129q8 29 25 49q14 23 -19 24q-33 4 -81 -16 q-61 -25 -111 -70q-59 -55 -84 -129zM1151 590l156 186q76 88 131 152q133 150 237 241q117 -35 135 -114q23 -90 -92 -213q-94 -100 -225 -162q-147 -72 -342 -90z" />
<glyph unicode="&#xdf;" horiz-adv-x="2510" d="M29 82q39 -86 200 -64q68 10 185 52l20 -19q137 -102 334 -96q121 4 238 57q127 57 219 164q127 150 166 365l12 67l49 37q80 63 137 113q80 68 133 125q78 88 105 157q29 82 -17 140q-53 66 -165 18q-119 -49 -195 -186q-35 -59 -66 -133q-25 -55 -53 -134l-45 -124 l-59 -46q-139 -100 -301 -186q-106 -57 -250 -125l-74 -35q-31 35 -43 86q-25 100 43 150q47 37 107 33q53 -6 61 -37q16 -72 64 22q37 74 8 164q-33 100 -127 131q-74 25 -178 -8q-121 -39 -185 -135q-143 -209 -26 -449q6 -18 24 -43l-80 -22q-164 -37 -192 35 q-10 20 -31 12q-47 -18 -18 -86zM684 176l68 31q49 25 106 55l107 57q102 59 221 138l47 30l-10 -22q-51 -113 -148 -197q-113 -98 -235 -110q-92 -6 -156 18zM1298 82q39 -86 201 -64q68 10 184 52l21 -19q137 -102 334 -96q121 4 237 57q127 57 219 164q127 150 166 365 l13 67l49 37q80 63 137 113q80 68 133 125q78 88 105 157q29 82 -17 140q-53 66 -166 18q-119 -49 -194 -186q-35 -59 -66 -133q-25 -55 -53 -134l-45 -124l-59 -46q-139 -100 -302 -186q-106 -57 -249 -125l-74 -35q-31 35 -43 86q-25 100 43 150q47 37 106 33 q53 -6 62 -37q16 -72 63 22q37 74 8 164q-33 100 -126 131q-74 25 -179 -8q-121 -39 -184 -135q-143 -209 -27 -449q6 -18 25 -43l-80 -22q-164 -37 -192 35q-10 20 -31 12q-47 -18 -19 -86zM1430 731l22 76q33 100 90 194q41 74 105 111q59 35 90 12q59 -47 -66 -180 q-39 -41 -106 -98zM1954 176l67 31q49 25 107 55l106 57q102 59 222 138l47 30l-11 -22q-51 -113 -147 -197q-113 -98 -236 -110q-92 -6 -155 18zM2699 731l23 76q33 100 90 194q41 74 104 111q59 35 90 12q60 -47 -65 -180q-39 -41 -107 -98z" />
<glyph unicode="&#xe0;" horiz-adv-x="792" d="M20 139q-8 -70 33 -106q37 -35 109 -35q61 0 129 37l57 39q18 12 55 41l-4 -19q0 -10 2 -18q4 -80 115 -80q70 4 186 80q47 31 101 72q41 33 92 75l90 78q27 23 14 39q-14 16 -41 -6l-81 -66q-86 -66 -134 -92q-25 -14 -47 -20q-31 -8 -47 0q-14 6 -18 22q-6 23 6 53 q12 38 59 95l66 78q57 68 26 86q-20 10 -81 -41l-35 -31q2 12 0 29q-4 29 -33 47q-25 14 -61 14h-3q-49 0 -94 -8q-57 -12 -119 -39q-133 -57 -208 -123q-125 -98 -134 -201zM260 195q-4 82 94 163q123 109 224 109q37 0 40 -31q2 -44 -102 -153q-127 -131 -215 -131 q-39 0 -41 43zM494 756q-14 -18 6 -39q8 -8 47 -33l80 -51q45 -27 78 -45q35 -18 38 -19l11 6l-166 142l-25 20q-16 12 -26 19q-29 16 -43 0z" />
<glyph unicode="&#xe1;" horiz-adv-x="792" d="M20 139q-8 -70 33 -106q37 -35 109 -35q61 0 129 37l57 39q18 12 55 41l-4 -19q0 -10 2 -18q4 -80 115 -80q70 4 186 80q47 31 101 72q41 33 92 75l90 78q27 23 14 39q-14 16 -41 -6l-81 -66q-86 -66 -134 -92q-25 -14 -47 -20q-31 -8 -47 0q-14 6 -18 22q-6 23 6 53 q12 38 59 95l66 78q57 68 26 86q-20 10 -81 -41l-35 -31q2 12 0 29q-4 29 -33 47q-25 14 -61 14h-3q-49 0 -94 -8q-57 -12 -119 -39q-133 -57 -208 -123q-125 -98 -134 -201zM260 195q-4 82 94 163q123 109 224 109q37 0 40 -31q2 -44 -102 -153q-127 -131 -215 -131 q-39 0 -41 43zM537 610l6 -10q2 -2 41 4q39 4 90 12q53 8 92 17q45 10 57 14q27 10 19 33q-6 20 -39 18q-12 -2 -31 -8z" />
<glyph unicode="&#xe2;" horiz-adv-x="792" d="M20 139q-8 -70 33 -106q37 -35 109 -35q61 0 129 37l57 39q18 12 55 41l-4 -19q0 -10 2 -18q4 -80 115 -80q70 4 186 80q47 31 101 72q41 33 92 75l90 78q27 23 14 39q-14 16 -41 -6l-81 -66q-86 -66 -134 -92q-25 -14 -47 -20q-31 -8 -47 0q-14 6 -18 22q-6 23 6 53 q12 38 59 95l66 78q57 68 26 86q-20 10 -81 -41l-35 -31q2 12 0 29q-4 29 -33 47q-25 14 -61 14h-3q-49 0 -94 -8q-57 -12 -119 -39q-133 -57 -208 -123q-125 -98 -134 -201zM260 195q-4 82 94 163q123 109 224 109q37 0 40 -31q2 -44 -102 -153q-127 -131 -215 -131 q-39 0 -41 43zM545 592q-10 -23 33 0l143 80l86 -80q8 -14 18 -10q8 2 15 10l-78 119q-18 31 -57 0z" />
<glyph unicode="&#xe3;" horiz-adv-x="792" d="M20 139q-8 -70 33 -106q37 -35 109 -35q61 0 129 37l57 39q18 12 55 41l-4 -19q0 -10 2 -18q4 -80 115 -80q70 4 186 80q47 31 101 72q41 33 92 75l90 78q27 23 14 39q-14 16 -41 -6l-81 -66q-86 -66 -134 -92q-25 -14 -47 -20q-31 -8 -47 0q-14 6 -18 22q-6 23 6 53 q12 38 59 95l66 78q57 68 26 86q-20 10 -81 -41l-35 -31q2 12 0 29q-4 29 -33 47q-25 14 -61 14h-3q-49 0 -94 -8q-57 -12 -119 -39q-133 -57 -208 -123q-125 -98 -134 -201zM260 195q-4 82 94 163q123 109 224 109q37 0 40 -31q2 -44 -102 -153q-127 -131 -215 -131 q-39 0 -41 43zM508 627q0 -4 4 -4q35 23 70 22q20 0 63 -10q41 -10 66 -10q10 0 37 4l55 12q74 20 74 45l-3 4l-28 -10q-18 -8 -31 -8q-27 0 -74 10t-69 10q-29 0 -94 -22q-31 -10 -50 -21q-20 -12 -20 -22z" />
<glyph unicode="&#xe4;" horiz-adv-x="792" d="M20 139q-8 -70 33 -106q37 -35 109 -35q61 0 129 37l57 39q18 12 55 41l-4 -19q0 -10 2 -18q4 -80 115 -80q70 4 186 80q47 31 101 72q41 33 92 75l90 78q27 23 14 39q-14 16 -41 -6l-81 -66q-86 -66 -134 -92q-25 -14 -47 -20q-31 -8 -47 0q-14 6 -18 22q-6 23 6 53 q12 38 59 95l66 78q57 68 26 86q-20 10 -81 -41l-35 -31q2 12 0 29q-4 29 -33 47q-25 14 -61 14h-3q-49 0 -94 -8q-57 -12 -119 -39q-133 -57 -208 -123q-125 -98 -134 -201zM260 195q-4 82 94 163q123 109 224 109q37 0 40 -31q2 -44 -102 -153q-127 -131 -215 -131 q-39 0 -41 43z" />
<glyph unicode="&#xe5;" horiz-adv-x="792" d="M20 139q-8 -70 33 -106q37 -35 109 -35q61 0 129 37l57 39q18 12 55 41l-4 -19q0 -10 2 -18q4 -80 115 -80q70 4 186 80q47 31 101 72q41 33 92 75l90 78q27 23 14 39q-14 16 -41 -6l-81 -66q-86 -66 -134 -92q-25 -14 -47 -20q-31 -8 -47 0q-14 6 -18 22q-6 23 6 53 q12 38 59 95l66 78q57 68 26 86q-20 10 -81 -41l-35 -31q2 12 0 29q-4 29 -33 47q-25 14 -61 14h-3q-49 0 -94 -8q-57 -12 -119 -39q-133 -57 -208 -123q-125 -98 -134 -201zM260 195q-4 82 94 163q123 109 224 109q37 0 40 -31q2 -44 -102 -153q-127 -131 -215 -131 q-39 0 -41 43z" />
<glyph unicode="&#xe6;" horiz-adv-x="890" d="M14 121q0 -123 142 -123q63 0 131 37l57 39q18 12 53 41q10 -88 92 -109q27 -8 66 -8l57 2q86 0 222 84q53 33 108 76q43 33 88 69l62 52l32 30q14 18 15 27q0 12 -15 12q-16 0 -59 -31l-86 -69q-61 -45 -102 -70q-57 -31 -101 -30q-82 0 -86 81q94 10 209 70 q141 70 141 145q0 63 -96 64q-68 0 -143 -29q-66 -23 -129 -65q-4 2 -6 18l-2 17q-2 8 -7 16q-16 43 -88 43q-156 0 -344 -115q-94 -57 -149 -125q-61 -74 -62 -149zM254 203q0 86 117 176q113 88 200 88q41 0 41 -31q0 -67 -123 -176t-194 -108q-41 0 -41 51zM700 291 q25 61 88 117q70 57 132 57q31 0 30 -27q0 -51 -100 -100q-84 -41 -150 -47z" />
<glyph unicode="&#xe7;" horiz-adv-x="507" d="M27 -133q-2 -16 12 -31q39 -18 88 -16q27 2 61 22q41 25 54 56q33 74 -64 65l27 35q53 -2 117 27q45 20 104 63q100 68 182 141l90 78q25 20 19 37q-8 16 -45 -4l-84 -66q-160 -125 -234 -124q-109 0 -84 114q18 82 119 154q76 49 131 49h10q6 0 11 -2l4 -2 q-61 -4 -84 -55q-33 -66 45 -66t106 74q41 94 -92 94q-74 0 -166 -37q-119 -51 -204 -137q-98 -98 -99 -186q4 -121 113 -146l-51 -65q-10 -14 4 -15l41 6q84 6 20 -49q-57 -53 -129 -14q-20 16 -22 0z" />
<glyph unicode="&#xe8;" horiz-adv-x="475" d="M16 160q-2 -57 27 -101q35 -53 104 -61q43 -6 93 10q39 12 86 39q69 43 118 80q63 47 127 102l91 78q23 20 16 35q-8 16 -43 -2l-82 -66q-86 -68 -150 -100q-72 -33 -114 -20q-51 14 -58 75v2q4 2 13 2l12 3q57 8 131 38q82 35 133 78q63 49 62 101q-6 57 -97 57 q-80 0 -172 -39q-115 -51 -198 -135q-47 -49 -68 -82q-29 -47 -31 -94zM242 291l4 10q31 72 94 113q55 39 100 47q10 4 23 4q12 0 20 -6q18 -14 4 -39q-16 -27 -43 -49q-42 -33 -112 -60q-45 -16 -76 -18zM387 756q-14 -18 6 -39q8 -8 47 -33l80 -51q45 -27 78 -45 q35 -18 39 -19l10 6l-166 142l-24 20q-14 12 -27 19q-27 16 -43 0z" />
<glyph unicode="&#xe9;" horiz-adv-x="475" d="M16 160q-2 -57 27 -101q35 -53 104 -61q43 -6 93 10q39 12 86 39q69 43 118 80q63 47 127 102l91 78q23 20 16 35q-8 16 -43 -2l-82 -66q-86 -68 -150 -100q-72 -33 -114 -20q-51 14 -58 75v2q4 2 13 2l12 3q57 8 131 38q82 35 133 78q63 49 62 101q-6 57 -97 57 q-80 0 -172 -39q-115 -51 -198 -135q-47 -49 -68 -82q-29 -47 -31 -94zM242 291l4 10q31 72 94 113q55 39 100 47q10 4 23 4q12 0 20 -6q18 -14 4 -39q-16 -27 -43 -49q-42 -33 -112 -60q-45 -16 -76 -18zM410 590l6 -10q2 -2 41 4q39 4 90 12q53 8 94 16q45 10 55 15 q27 10 21 32q-8 20 -41 19q-12 -2 -31 -8z" />
<glyph unicode="&#xea;" horiz-adv-x="475" d="M16 160q-2 -57 27 -101q35 -53 104 -61q43 -6 93 10q39 12 86 39q69 43 118 80q63 47 127 102l91 78q23 20 16 35q-8 16 -43 -2l-82 -66q-86 -68 -150 -100q-72 -33 -114 -20q-51 14 -58 75v2q4 2 13 2l12 3q57 8 131 38q82 35 133 78q63 49 62 101q-6 57 -97 57 q-80 0 -172 -39q-115 -51 -198 -135q-47 -49 -68 -82q-29 -47 -31 -94zM242 291l4 10q31 72 94 113q55 39 100 47q10 4 23 4q12 0 20 -6q18 -14 4 -39q-16 -27 -43 -49q-42 -33 -112 -60q-45 -16 -76 -18zM377 580q-10 -23 33 0l143 79l86 -79q10 -14 20 -11q8 2 13 11 l-78 118q-18 31 -57 0z" />
<glyph unicode="&#xeb;" horiz-adv-x="475" d="M16 160q-2 -57 27 -101q35 -53 104 -61q43 -6 93 10q39 12 86 39q69 43 118 80q63 47 127 102l91 78q23 20 16 35q-8 16 -43 -2l-82 -66q-86 -68 -150 -100q-72 -33 -114 -20q-51 14 -58 75v2q4 2 13 2l12 3q57 8 131 38q82 35 133 78q63 49 62 101q-6 57 -97 57 q-80 0 -172 -39q-115 -51 -198 -135q-47 -49 -68 -82q-29 -47 -31 -94zM242 291l4 10q31 72 94 113q55 39 100 47q10 4 23 4q12 0 20 -6q18 -14 4 -39q-16 -27 -43 -49q-42 -33 -112 -60q-45 -16 -76 -18zM412 653q-12 -63 55 -41q66 18 76 80q10 59 -54 41q-67 -19 -77 -80 zM631 653q-12 -63 55 -41q66 18 76 80q10 59 -55 41q-66 -19 -76 -80z" />
<glyph unicode="&#xec;" horiz-adv-x="419" d="M25 86q16 -84 129 -84q68 0 182 76q45 31 98 74q39 31 90 75l90 78q29 23 17 37q-14 16 -41 -4l-84 -66q-55 -45 -90 -67q-51 -33 -84 -39q-43 -12 -53 31q-10 31 34 82l93 106q96 113 36 125q-59 12 -155 -78l-191 -178q-25 -27 -41 -51q-43 -63 -30 -117zM291 756 q-14 -18 6 -39q8 -8 47 -33l80 -51q45 -27 78 -45q37 -18 39 -19l10 6l-166 142l-25 20q-14 12 -26 19q-27 16 -43 0z" />
<glyph unicode="&#xed;" horiz-adv-x="419" d="M25 86q16 -84 129 -84q68 0 182 76q45 31 98 74q39 31 90 75l90 78q29 23 17 37q-14 16 -41 -4l-84 -66q-55 -45 -90 -67q-51 -33 -84 -39q-43 -12 -53 31q-10 31 34 82l93 106q96 113 36 125q-59 12 -155 -78l-191 -178q-25 -27 -41 -51q-43 -63 -30 -117zM367 631l8 -8 q2 -2 41 4t88 16q55 10 94 21q45 10 55 14q27 12 19 35t-41 16q-10 -2 -31 -8z" />
<glyph unicode="&#xee;" horiz-adv-x="419" d="M25 86q16 -84 129 -84q68 0 182 76q45 31 98 74q39 31 90 75l90 78q29 23 17 37q-14 16 -41 -4l-84 -66q-55 -45 -90 -67q-51 -33 -84 -39q-43 -12 -53 31q-10 31 34 82l93 106q96 113 36 125q-59 12 -155 -78l-191 -178q-25 -27 -41 -51q-43 -63 -30 -117zM301 580 q-10 -23 33 0l143 79l86 -79q10 -14 21 -11q8 2 12 11l-78 118q-18 31 -57 0z" />
<glyph unicode="&#xef;" horiz-adv-x="419" d="M25 86q16 -84 129 -84q68 0 182 76q45 31 98 74q39 31 90 75l90 78q29 23 17 37q-14 16 -41 -4l-84 -66q-55 -45 -90 -67q-51 -33 -84 -39q-43 -12 -53 31q-10 31 34 82l93 106q96 113 36 125q-59 12 -155 -78l-191 -178q-25 -27 -41 -51q-43 -63 -30 -117zM336 653 q-12 -63 55 -41q66 18 76 80q10 59 -53 41q-68 -19 -78 -80zM555 653q-12 -63 55 -41q66 18 76 80q10 59 -55 41q-66 -19 -76 -80z" />
<glyph unicode="&#xf0;" horiz-adv-x="813" d="M47 143q-33 -158 139 -143q53 6 105 27l39 16q16 8 26 16q43 29 86 62q-4 -10 -6 -21q-2 -12 0 -22q4 -82 113 -80q47 0 113 33q53 27 122 75q37 25 78 58l160 137q27 23 14 37q-12 18 -41 -4l-84 -66q-80 -63 -131 -92q-10 -6 -20 -10q-14 -6 -25 -8q-31 -10 -41 4 q-14 18 11 61q18 31 61 80l346 397h227q33 0 33 27t-33 27h-178l86 102q55 66 74 92q23 31 29 51q4 20 -7 25q-12 4 -38 -12q-29 -18 -70 -60l-199 -198h-334q-33 0 -32 -27q0 -27 32 -27h279l-276 -274v6q-2 74 -95 74q-47 0 -94 -8q-59 -12 -121 -37q-311 -129 -348 -318z M289 193q-6 78 96 165q125 104 225 105q39 0 41 -31q3 -50 -106 -156q-66 -63 -127 -96q-53 -29 -88 -28q-37 0 -41 41z" />
<glyph unicode="&#xf1;" horiz-adv-x="784" d="M20 76q12 -57 64 -76l16 -2q8 -2 17 4q29 18 73 76l99 119q55 61 121 114q63 53 133 97q35 23 78 32q20 6 28 -6q8 -8 0 -18q-27 -25 -84 -82q-63 -59 -96 -96q-49 -51 -66 -86q-6 -12 -10 -29q-6 -23 -4 -41q4 -84 115 -86q51 -2 108 27q31 16 95 59q102 72 180 141 l90 78q29 23 14 37q-12 18 -41 -4l-82 -66q-109 -88 -182 -114l-16 -4h-17q-20 0 -26 18q-8 18 2 37q16 31 55 67l47 45l41 48q16 16 25 30q25 37 10 72q-20 43 -84 43q-35 0 -82 -14q-16 -4 -39 -13l-59 -24l-109 -60l-26 -18q27 33 36 51q27 47 2 64q-53 33 -165 -74 l-156 -150l-4 -4l-6 -6q-16 -14 -27 -26q-29 -31 -45 -58q-33 -59 -23 -102zM528 627q0 -4 4 -4q35 23 70 22q20 0 64 -10q43 -10 65 -10q12 0 37 4l55 12q74 20 74 45l-2 4l-29 -10q-16 -8 -30 -8q-25 0 -72 10q-49 10 -72 10q-29 0 -92 -22q-31 -10 -49 -21 q-23 -12 -23 -22z" />
<glyph unicode="&#xf2;" horiz-adv-x="610" d="M74 150q-16 -80 41 -119q45 -33 106 -29q27 0 55 8q35 8 72 25q92 43 197 137q6 6 10 14q29 -10 66 -2q39 6 77 29q14 8 43 33l68 57q27 23 14 37q-12 18 -41 -4l-69 -55q-29 -20 -51 -29q-31 -12 -58 -8q31 33 47 67q53 92 19 158q-27 57 -99 45q-38 -4 -63 -18 q-8 -8 -8 -2q-2 8 -8 10q-8 4 -33 2q-74 -8 -195 -105q-63 -49 -117 -114q-61 -78 -73 -137zM291 215q-4 72 82 158q18 18 39 35q23 18 30 20l15 8q0 2 -8 -12q-2 -8 -7 -16q-4 -8 -6 -19q-6 -25 -4 -51q2 -31 17 -59q25 -45 63 -66l-16 -16q-66 -59 -125 -56q-76 4 -80 74z M418 756q-14 -18 6 -39q8 -8 47 -33l82 -51q43 -27 76 -45q37 -18 39 -19l10 6l-166 142l-25 20q-14 12 -26 19q-27 16 -43 0zM498 397q16 49 63 52q86 2 37 -121q-16 -37 -45 -74q-29 16 -53 65q-16 35 -2 78z" />
<glyph unicode="&#xf3;" horiz-adv-x="610" d="M74 150q-16 -80 41 -119q45 -33 106 -29q27 0 55 8q35 8 72 25q92 43 197 137q6 6 10 14q29 -10 66 -2q39 6 77 29q14 8 43 33l68 57q27 23 14 37q-12 18 -41 -4l-69 -55q-29 -20 -51 -29q-31 -12 -58 -8q31 33 47 67q53 92 19 158q-27 57 -99 45q-38 -4 -63 -18 q-8 -8 -8 -2q-2 8 -8 10q-8 4 -33 2q-74 -8 -195 -105q-63 -49 -117 -114q-61 -78 -73 -137zM291 215q-4 72 82 158q18 18 39 35q23 18 30 20l15 8q0 2 -8 -12q-2 -8 -7 -16q-4 -8 -6 -19q-6 -25 -4 -51q2 -31 17 -59q25 -45 63 -66l-16 -16q-66 -59 -125 -56q-76 4 -80 74z M473 610l8 -8q2 -2 41 4t90 17q53 10 93 20q45 10 55 14q27 12 18 35q-8 23 -41 17q-10 -2 -28 -9zM498 397q16 49 63 52q86 2 37 -121q-16 -37 -45 -74q-29 16 -53 65q-16 35 -2 78z" />
<glyph unicode="&#xf4;" horiz-adv-x="610" d="M74 150q-16 -80 41 -119q45 -33 106 -29q27 0 55 8q35 8 72 25q92 43 197 137q6 6 10 14q29 -10 66 -2q39 6 77 29q14 8 43 33l68 57q27 23 14 37q-12 18 -41 -4l-69 -55q-29 -20 -51 -29q-31 -12 -58 -8q31 33 47 67q53 92 19 158q-27 57 -99 45q-38 -4 -63 -18 q-8 -8 -8 -2q-2 8 -8 10q-8 4 -33 2q-74 -8 -195 -105q-63 -49 -117 -114q-61 -78 -73 -137zM291 215q-4 72 82 158q18 18 39 35q23 18 30 20l15 8q0 2 -8 -12q-2 -8 -7 -16q-4 -8 -6 -19q-6 -25 -4 -51q2 -31 17 -59q25 -45 63 -66l-16 -16q-66 -59 -125 -56q-76 4 -80 74z M469 592q-10 -23 33 0l143 80l86 -80q10 -14 21 -10q8 2 12 10l-78 119q-18 31 -57 0zM498 397q16 49 63 52q86 2 37 -121q-16 -37 -45 -74q-29 16 -53 65q-16 35 -2 78z" />
<glyph unicode="&#xf5;" horiz-adv-x="610" d="M74 150q-16 -80 41 -119q45 -33 106 -29q27 0 55 8q35 8 72 25q92 43 197 137q6 6 10 14q29 -10 66 -2q39 6 77 29q14 8 43 33l68 57q27 23 14 37q-12 18 -41 -4l-69 -55q-29 -20 -51 -29q-31 -12 -58 -8q31 33 47 67q53 92 19 158q-27 57 -99 45q-38 -4 -63 -18 q-8 -8 -8 -2q-2 8 -8 10q-8 4 -33 2q-74 -8 -195 -105q-63 -49 -117 -114q-61 -78 -73 -137zM291 215q-4 72 82 158q18 18 39 35q23 18 30 20l15 8q0 2 -8 -12q-2 -8 -7 -16q-4 -8 -6 -19q-6 -25 -4 -51q2 -31 17 -59q25 -45 63 -66l-16 -16q-66 -59 -125 -56q-76 4 -80 74z M453 606q0 -4 4 -4q35 23 69 23q20 0 64 -11q43 -10 65 -10q12 0 37 4l56 13q74 20 73 45l-2 4l-28 -11q-16 -8 -31 -8q-25 0 -72 11q-49 10 -72 10q-29 0 -92 -23q-31 -10 -49 -20q-23 -12 -22 -23zM498 397q16 49 63 52q86 2 37 -121q-16 -37 -45 -74q-29 16 -53 65 q-16 35 -2 78z" />
<glyph unicode="&#xf6;" horiz-adv-x="610" d="M74 150q-16 -80 41 -119q45 -33 106 -29q27 0 55 8q35 8 72 25q92 43 197 137q6 6 10 14q29 -10 66 -2q39 6 77 29q14 8 43 33l68 57q27 23 14 37q-12 18 -41 -4l-69 -55q-29 -20 -51 -29q-31 -12 -58 -8q31 33 47 67q53 92 19 158q-27 57 -99 45q-38 -4 -63 -18 q-8 -8 -8 -2q-2 8 -8 10q-8 4 -33 2q-74 -8 -195 -105q-63 -49 -117 -114q-61 -78 -73 -137zM291 215q-4 72 82 158q18 18 39 35q23 18 30 20l15 8q0 2 -8 -12q-2 -8 -7 -16q-4 -8 -6 -19q-6 -25 -4 -51q2 -31 17 -59q25 -45 63 -66l-16 -16q-66 -59 -125 -56q-76 4 -80 74z M442 653q-12 -63 56 -41q66 18 75 80q12 59 -53 41q-68 -19 -78 -80zM498 397q16 49 63 52q86 2 37 -121q-16 -37 -45 -74q-29 16 -53 65q-16 35 -2 78zM662 653q-12 -63 55 -41q66 18 76 80q10 59 -56 41q-65 -19 -75 -80z" />
<glyph unicode="&#xf8;" horiz-adv-x="610" d="M76 150q-18 -92 55 -130l-47 -49q-8 -10 2 -18q10 -10 16 0l54 57q33 -12 67 -8q27 0 56 8q35 8 71 25q92 43 197 137q6 6 10 14q29 -10 66 -2q39 6 77 29q14 8 43 33l68 57q27 23 14 37q-10 18 -41 -4l-69 -55q-27 -20 -51 -29q-31 -12 -58 -8q31 33 47 67q53 92 19 158 q-8 20 -25 29l70 67q8 8 -4 15q-12 6 -23 -5l-67 -65q-8 4 -23 6q-12 0 -27 -2q-39 -4 -63 -18q-8 -8 -8 -2q-2 8 -6 10q-10 4 -35 2q-72 -8 -195 -105q-63 -49 -116 -114q-61 -78 -74 -137zM299 188q-31 76 76 185q18 18 39 35q23 18 30 20l15 6l-15 -24q-6 -18 -10 -45 q-2 -23 0 -41zM313 166l129 129q4 -4 7 -8q0 -2 2 -4v-4q25 -45 63 -66l-16 -16q-66 -59 -125 -56q-37 4 -60 25zM494 346l98 96q45 -29 8 -114q-16 -37 -45 -74q-27 16 -53 65q-4 10 -8 27zM496 385q12 61 65 64z" />
<glyph unicode="&#xf9;" horiz-adv-x="796" d="M25 84q16 -84 129 -84q47 0 118 39q53 29 131 86q-6 -18 -2 -41q20 -84 129 -84q68 0 183 78q43 29 98 72l182 153q27 23 15 37q-14 16 -41 -4l-84 -66q-55 -45 -90 -67q-51 -33 -84 -39q-43 -12 -54 31q-10 33 33 92l92 106q16 18 29 35q49 68 29 84q-20 14 -101 -51 l-65 -58l-166 -133q-55 -45 -90 -67q-51 -33 -84 -39q-43 -12 -53 31q-10 31 34 81l93 107q96 113 36 125q-59 12 -155 -78l-191 -178q-25 -27 -41 -51q-43 -63 -30 -117zM496 756q-14 -18 6 -39q8 -8 47 -33l80 -51q45 -27 78 -45q37 -18 38 -19l11 6l-166 142l-25 20 q-14 12 -26 19q-27 16 -43 0z" />
<glyph unicode="&#xfa;" horiz-adv-x="796" d="M25 84q16 -84 129 -84q47 0 118 39q53 29 131 86q-6 -18 -2 -41q20 -84 129 -84q68 0 183 78q43 29 98 72l182 153q27 23 15 37q-14 16 -41 -4l-84 -66q-55 -45 -90 -67q-51 -33 -84 -39q-43 -12 -54 31q-10 33 33 92l92 106q16 18 29 35q49 68 29 84q-20 14 -101 -51 l-65 -58l-166 -133q-55 -45 -90 -67q-51 -33 -84 -39q-43 -12 -53 31q-10 31 34 81l93 107q96 113 36 125q-59 12 -155 -78l-191 -178q-25 -27 -41 -51q-43 -63 -30 -117zM551 569l8 -8q2 -2 41 4t88 17q55 10 94 20q45 10 56 14q27 12 18 35q-8 23 -41 17q-10 -2 -31 -9z " />
<glyph unicode="&#xfb;" horiz-adv-x="796" d="M25 84q16 -84 129 -84q47 0 118 39q53 29 131 86q-6 -18 -2 -41q20 -84 129 -84q68 0 183 78q43 29 98 72l182 153q27 23 15 37q-14 16 -41 -4l-84 -66q-55 -45 -90 -67q-51 -33 -84 -39q-43 -12 -54 31q-10 33 33 92l92 106q16 18 29 35q49 68 29 84q-20 14 -101 -51 l-65 -58l-166 -133q-55 -45 -90 -67q-51 -33 -84 -39q-43 -12 -53 31q-10 31 34 81l93 107q96 113 36 125q-59 12 -155 -78l-191 -178q-25 -27 -41 -51q-43 -63 -30 -117zM526 592q-10 -23 33 0l143 80l86 -80q10 -14 21 -10q8 2 12 10l-78 119q-18 31 -57 0z" />
<glyph unicode="&#xfc;" horiz-adv-x="796" d="M25 84q16 -84 129 -84q47 0 118 39q53 29 131 86q-6 -18 -2 -41q20 -84 129 -84q68 0 183 78q43 29 98 72l182 153q27 23 15 37q-14 16 -41 -4l-84 -66q-55 -45 -90 -67q-51 -33 -84 -39q-43 -12 -54 31q-10 33 33 92l92 106q16 18 29 35q49 68 29 84q-20 14 -101 -51 l-65 -58l-166 -133q-55 -45 -90 -67q-51 -33 -84 -39q-43 -12 -53 31q-10 31 34 81l93 107q96 113 36 125q-59 12 -155 -78l-191 -178q-25 -27 -41 -51q-43 -63 -30 -117zM500 633q-12 -63 55 -41q66 18 76 80q10 59 -53 41q-68 -19 -78 -80zM719 633q-12 -63 55 -41 q66 18 76 80q10 59 -55 41q-66 -19 -76 -80z" />
<glyph unicode="&#xfd;" horiz-adv-x="673" d="M-395 -346q-41 -68 16 -125q49 -47 172 -10q94 29 199 94q131 82 276 227l86 88q88 45 174 97q51 33 105 69q45 31 90 64q35 25 65 49l31 24l90 78q27 25 17 39q-14 14 -41 -6l-84 -66q-31 -25 -103 -75q-90 -63 -176 -117l-63 -41l6 10l102 113q12 12 21 22q25 25 43 45 q45 51 80 93q43 49 77 92q57 72 25 88q-33 16 -121 -76l-59 -63q-70 -76 -129 -119q-78 -57 -160 -76q-20 -4 -45 6t-31 29q-8 35 33 92l35 41l16 16l70 84q49 68 31 84q-20 14 -101 -53l-92 -74q-70 -55 -117 -98q-63 -61 -96 -109q-39 -55 -31 -94t33 -59q31 -27 94 -25 q82 2 226 97q16 8 45 28l-164 -174q-6 -6 -12 -8l-183 -49q-55 -14 -137 -47q-106 -43 -182 -88q-98 -59 -131 -117zM-209 -332q-12 39 37 82q43 35 111 62q45 18 106 34l90 25l17 2q20 4 28 8l-76 -84q-43 -47 -81 -76q-76 -57 -142 -75q-74 -20 -90 22zM565 610l8 -8 q4 -2 43 4q37 6 89 17q53 10 92 20q45 10 55 14q29 12 20 35q-8 23 -43 17q-10 -2 -28 -9z" />
<glyph unicode="&#xfe;" horiz-adv-x="1024" d="M-379 -352q-49 -121 31 -121q25 0 90 76l70 86l286 331l277 287q-4 -45 20 -88q23 -31 72 -47q41 -12 78 -10q135 10 274 86q117 66 199 137l90 78q29 23 16 37q-14 16 -41 -4l-120 -95q-6 -6 -13 -12l-127 -90q31 31 51 61q53 72 66 132q18 76 -22 124q-72 88 -244 15 l-47 -23q2 4 20 21q14 16 43 45l303 307q47 66 17 72q-29 6 -113 -74l-1042 -1026q-37 -35 -60 -59q-49 -51 -102 -123l-17 -21q-10 -14 -18 -29q-23 -37 -37 -73zM453 334q-8 70 82 155q106 102 206 89q88 -14 23 -138q-35 -63 -98 -114q-72 -55 -140 -56q-68 0 -73 64z " />
<glyph unicode="&#xff;" horiz-adv-x="673" d="M-395 -346q-41 -68 16 -125q49 -47 172 -10q94 29 199 94q131 82 276 227l86 88q88 45 174 97q51 33 105 69q45 31 90 64q35 25 65 49l31 24l90 78q27 25 17 39q-14 14 -41 -6l-84 -66q-31 -25 -103 -75q-90 -63 -176 -117l-63 -41l6 10l102 113q12 12 21 22q25 25 43 45 q45 51 80 93q43 49 77 92q57 72 25 88q-33 16 -121 -76l-59 -63q-70 -76 -129 -119q-78 -57 -160 -76q-20 -4 -45 6t-31 29q-8 35 33 92l35 41l16 16l70 84q49 68 31 84q-20 14 -101 -53l-92 -74q-70 -55 -117 -98q-63 -61 -96 -109q-39 -55 -31 -94t33 -59q31 -27 94 -25 q82 2 226 97q16 8 45 28l-164 -174q-6 -6 -12 -8l-183 -49q-55 -14 -137 -47q-106 -43 -182 -88q-98 -59 -131 -117zM-209 -332q-12 39 37 82q43 35 111 62q45 18 106 34l90 25l17 2q20 4 28 8l-76 -84q-43 -47 -81 -76q-76 -57 -142 -75q-74 -20 -90 22zM535 653 q-10 -63 55 -41q66 18 76 80q12 59 -54 41q-65 -19 -77 -80zM754 653q-10 -63 55 -41q66 18 76 80q12 59 -56 41q-63 -19 -75 -80z" />
<glyph unicode="&#x152;" horiz-adv-x="1662" d="M25 326q-25 -145 59 -256q92 -123 264 -115q152 6 324 98q145 78 291 209q-2 -70 24 -131q57 -133 209 -166q135 -31 299 21q98 31 246 116q129 76 215 144q8 8 18 14l49 37q25 23 9 41q-14 16 -99 -37q-98 -66 -184 -106q-115 -55 -233 -33q-98 18 -138 69 q-29 37 -41 82q-14 57 9 115q23 55 84 104l53 37l37 21q8 6 10 6q18 10 67 27q53 -56 127 -68q135 -23 152 53q14 68 -88 90q-27 8 -62 13q-43 4 -71 2q-6 14 -10 37q-6 82 65 163q29 31 68 60q31 25 65 45q53 33 127 59q90 31 158 29q55 0 86 -21q41 -29 29 -94 q-16 -94 -136 -137q-53 -18 -65 31q-8 39 35 88q29 31 -2 31q-27 0 -64 -19q-37 -16 -74 -49q-43 -41 -67 -94q-18 -47 4 -80q25 -37 86 -33q63 4 125 31q51 23 110 65q100 76 119 174q16 92 -55 144q-63 43 -158 41q-211 -4 -366 -109q-84 -57 -131 -125q-55 -80 -60 -168 q0 -41 6 -71q-31 -2 -73 -13q-111 -25 -207 -71q78 135 102 254q27 147 -43 225q-78 90 -242 57q-172 -33 -327 -170q-127 -113 -160 -213q-27 -84 21 -139q45 -49 116 -41q94 10 178 119q37 47 48 80q12 43 -41 12q-82 -47 -127 -27q-31 14 -11 72q16 49 54 90 q117 123 254 150q121 23 174 -52q98 -141 -99 -434q-92 -139 -225 -245q-156 -123 -291 -136q-154 -12 -225 95q-68 98 -29 241q39 145 127 269q98 135 242 225q51 33 125 59q35 12 63 25l35 18l6 6q4 4 4 9q2 8 -6 12q-8 2 -8 0h-16q-10 0 -23 -2q-33 -4 -67 -15 q-96 -29 -185 -75q-78 -43 -166 -107q-92 -68 -166 -133q-86 -78 -151 -156q-74 -88 -119 -178q-51 -98 -67 -196z" />
<glyph unicode="&#x153;" horiz-adv-x="964" d="M74 150q-16 -80 41 -119q45 -33 106 -29q57 2 125 33q90 43 193 133v-8q0 -59 26 -101q35 -53 105 -61q90 -12 227 78q49 31 109 80l178 151q25 20 16 35q-6 16 -43 -2l-137 -109q-37 -27 -68 -45q-86 -47 -141 -32q-10 2 -20 14q-10 10 -19 27q-18 31 -18 34l59 17 q66 16 96 28q82 35 133 78q63 49 62 101q-6 57 -96 57q-80 0 -172 -39q-90 -41 -160 -100q14 59 -6 98q-27 57 -99 45q-39 -4 -63 -18q-8 -8 -8 -2q-2 8 -8 10q-8 4 -33 2q-74 -8 -195 -105q-63 -49 -117 -114q-61 -78 -73 -137zM291 215q-4 74 82 158q43 43 84 63 q-80 -149 55 -223q-31 -31 -66 -51q-43 -23 -75 -21q-76 4 -80 74zM498 397q16 49 63 52q86 2 37 -121q-16 -37 -45 -74q-29 16 -53 65q-16 35 -2 78zM764 291q27 76 98 123q12 8 29 16q20 12 41 21q53 23 74 8q20 -14 0 -47q-8 -12 -21 -25q-10 -10 -18 -16 q-43 -33 -113 -60q-49 -18 -90 -20z" />
<glyph unicode="&#x178;" horiz-adv-x="1189" d="M45 -80q31 -66 107 -106q90 -49 206 -39q109 8 215 47q90 33 189 90q90 53 184 127q80 61 170 145q61 57 129 125l232 230q18 20 51 51q2 4 6 6q0 2 6 6l39 39q61 59 102 102l148 150q25 23 37 39q37 37 61 74q41 55 27 79q-14 27 -70 -24l-170 -160q-49 -45 -123 -100 l-166 -117q-2 0 -6 -4l-51 -37q-53 -37 -92 -61q-109 -70 -199 -107q-109 -43 -157 -6q-41 33 -27 94q14 53 65 107q51 55 115 112q53 49 121 107q51 43 78 63q41 37 76 64l127 102q18 12 10 31q-10 16 -33 6q-8 -2 -41 -18q-10 -8 -25 -15l-26 -14q-4 -2 -6 -2l-39 -14 q-35 -12 -66 -19q-66 -16 -129 10l-47 23q-12 6 -22 8l-23 6q-61 10 -137 -33q-29 -14 -57 -36l-43 -35q-92 -78 -15 -78q6 0 23 8l32 15q47 14 78 -13q43 -37 111 -39q57 -4 117 17l12 4q8 4 12 4l-16 -14q-49 -41 -144 -93l-18 -10q-4 -4 -10 -6l-135 -78 q-63 -41 -111 -76q-59 -49 -92 -90q-141 -174 -14 -309q43 -45 127 -47q74 0 153 31q88 37 182 104l160 119q16 12 14 8l125 96l-200 -198q-63 -61 -119 -109q-88 -72 -172 -121q-98 -53 -199 -78q-125 -29 -225 -24q-37 0 -74 6l-53 12q-66 16 -98 58q-31 37 -17 61 q37 57 -59 29q-76 -25 -119 -107q-45 -90 -2 -178zM1589 1356q-14 -76 66 -53q80 25 94 98q14 74 -66 51q-80 -24 -94 -96zM1855 1356q-14 -76 66 -53q80 25 94 98q14 74 -65 51q-81 -24 -95 -96z" />
<glyph unicode="&#x2c6;" horiz-adv-x="792" d="M547 592q-10 -23 33 0l143 80l86 -80q8 -14 20 -10q8 2 13 10l-78 119q-18 31 -57 0z" />
<glyph unicode="&#x2dc;" horiz-adv-x="1024" d="M283 1292q2 -4 4 -2q8 0 8 4q41 20 88 21q29 0 86 -12q41 -10 92 -11q31 0 60 4q39 4 79 17l52 18q29 14 39 25q7 10 -3 10q-6 0 -12 -4q-25 -16 -88 -16q-29 0 -90 12q-57 12 -90 12h-25l-28 -4q-39 -6 -78 -20q-37 -14 -66 -29q-25 -14 -28 -19q-4 -4 0 -6z" />
<glyph unicode="&#x2000;" horiz-adv-x="776" />
<glyph unicode="&#x2001;" horiz-adv-x="1553" />
<glyph unicode="&#x2002;" horiz-adv-x="776" />
<glyph unicode="&#x2003;" horiz-adv-x="1553" />
<glyph unicode="&#x2004;" horiz-adv-x="517" />
<glyph unicode="&#x2005;" horiz-adv-x="388" />
<glyph unicode="&#x2006;" horiz-adv-x="258" />
<glyph unicode="&#x2007;" horiz-adv-x="258" />
<glyph unicode="&#x2008;" horiz-adv-x="194" />
<glyph unicode="&#x2009;" horiz-adv-x="310" />
<glyph unicode="&#x200a;" horiz-adv-x="86" />
<glyph unicode="&#x2010;" horiz-adv-x="776" d="M209 240q10 -6 18 -4l11 6q57 25 100 24q35 0 100 -14q55 -14 115 -14q39 0 70 4q49 6 98 20q37 12 63 25q37 16 50 30q10 12 4 21q-4 8 -15 8q-8 0 -20 -6q-29 -18 -101 -18q-35 0 -104 14q-76 16 -111 16q-29 0 -65 -6q-45 -8 -94 -24q-43 -16 -82 -35q-29 -16 -37 -23 q-12 -16 0 -24z" />
<glyph unicode="&#x2011;" horiz-adv-x="776" d="M209 240q10 -6 18 -4l11 6q57 25 100 24q35 0 100 -14q55 -14 115 -14q39 0 70 4q49 6 98 20q37 12 63 25q37 16 50 30q10 12 4 21q-4 8 -15 8q-8 0 -20 -6q-29 -18 -101 -18q-35 0 -104 14q-76 16 -111 16q-29 0 -65 -6q-45 -8 -94 -24q-43 -16 -82 -35q-29 -16 -37 -23 q-12 -16 0 -24z" />
<glyph unicode="&#x2012;" horiz-adv-x="776" d="M209 240q10 -6 18 -4l11 6q57 25 100 24q35 0 100 -14q55 -14 115 -14q39 0 70 4q49 6 98 20q37 12 63 25q37 16 50 30q10 12 4 21q-4 8 -15 8q-8 0 -20 -6q-29 -18 -101 -18q-35 0 -104 14q-76 16 -111 16q-29 0 -65 -6q-45 -8 -94 -24q-43 -16 -82 -35q-29 -16 -37 -23 q-12 -16 0 -24z" />
<glyph unicode="&#x2013;" horiz-adv-x="1163" d="M213 240q16 -6 29 -4l17 6q92 25 161 24q56 0 161 -14q88 -14 184 -14q63 0 113 4q79 6 157 20q60 12 102 25q59 16 80 30q16 12 6 21q-6 8 -24 8q-13 0 -32 -6q-46 -18 -162 -18q-56 0 -167 14q-122 16 -179 16q-46 0 -104 -6q-72 -8 -151 -24q-69 -16 -132 -35 q-47 -16 -59 -23q-20 -16 0 -24z" />
<glyph unicode="&#x2014;" horiz-adv-x="2186" d="M222 240q32 -6 58 -4l35 6q184 25 322 24q112 0 321 -14q177 -14 370 -14q125 0 225 4q157 6 315 20q119 12 202 25q119 16 161 30q32 12 13 21q-13 8 -48 8q-26 0 -65 -6q-93 -18 -324 -18q-113 0 -335 14q-244 16 -356 16q-93 0 -209 -6q-145 -8 -302 -24 q-138 -16 -264 -35q-93 -16 -119 -23q-38 -16 0 -24z" />
<glyph unicode="&#x2018;" horiz-adv-x="370" d="M45 745q2 -94 94 -63q86 27 84 113q0 53 -49 63q53 80 156 105q18 6 16 24q-4 18 -22 14q-16 -2 -43 -14l-23 -10q-10 -4 -20 -10q-68 -35 -115 -80l-29 -29l-24 -33q-27 -41 -25 -80z" />
<glyph unicode="&#x2019;" horiz-adv-x="370" d="M172 672q2 -18 23 -15q14 2 41 15l24 10q8 4 21 10q66 35 114 80l27 29l27 33q25 41 24 79q-4 94 -94 64q-88 -27 -84 -113q0 -53 49 -63q-55 -80 -156 -105q-20 -6 -16 -24z" />
<glyph unicode="&#x201a;" horiz-adv-x="405" d="M29 -106q2 -18 22 -15q14 2 41 15l25 10l20 10q66 35 115 80l27 29l26 32q25 41 25 80q-4 94 -94 64q-88 -27 -84 -113q0 -53 49 -63q-55 -80 -156 -105q-20 -6 -16 -24z" />
<glyph unicode="&#x201c;" horiz-adv-x="610" d="M147 725q2 -94 95 -63q86 27 84 112q0 53 -50 64q53 80 156 104q18 6 17 25q-4 18 -23 14q-16 -2 -43 -14l-23 -11q-10 -4 -20 -10q-68 -35 -115 -80l-28 -28l-25 -33q-27 -41 -25 -80zM373 725q2 -94 94 -63q86 27 84 112q0 53 -49 64q53 80 155 104q18 6 17 25 q-4 18 -23 14q-16 -2 -43 -14l-22 -11q-10 -4 -21 -10q-68 -35 -114 -80l-29 -28l-25 -33q-27 -41 -24 -80z" />
<glyph unicode="&#x201d;" horiz-adv-x="370" d="M172 672q2 -18 23 -15q14 2 41 15l24 10q8 4 21 10q66 35 114 80l27 29l27 33q25 41 24 79q-4 94 -94 64q-88 -27 -84 -113q0 -53 49 -63q-55 -80 -156 -105q-20 -6 -16 -24zM397 672q2 -18 23 -15q14 2 41 15l24 10q8 4 21 10q66 35 115 80l26 29l27 33q25 41 24 79 q-4 94 -94 64q-88 -27 -84 -113q0 -53 49 -63q-55 -80 -155 -105q-20 -6 -17 -24z" />
<glyph unicode="&#x201e;" horiz-adv-x="503" d="M29 -106q2 -18 22 -15q14 2 41 15l25 10l20 10q66 35 115 80l27 29l26 32q25 41 25 80q-4 94 -94 64q-88 -27 -84 -113q0 -53 49 -63q-55 -80 -156 -105q-20 -6 -16 -24zM254 -106q2 -18 22 -15q14 2 41 15l25 10l20 10q66 35 115 80l27 29l26 32q25 41 25 80 q-4 94 -94 64q-88 -27 -84 -113q0 -53 49 -63q-55 -80 -156 -105q-20 -6 -16 -24z" />
<glyph unicode="&#x2022;" horiz-adv-x="1024" />
<glyph unicode="&#x202f;" horiz-adv-x="310" />
<glyph unicode="&#x2039;" horiz-adv-x="737" d="M39 496q4 -20 24 -29l472 -193q37 -14 49 19q12 31 -29 47l-389 158l395 159q45 18 33 52q-10 33 -51 16l-480 -197q-27 -12 -24 -32z" />
<glyph unicode="&#x203a;" horiz-adv-x="737" d="M125 709q-10 -33 33 -52l393 -159l-389 -158q-39 -16 -27 -47q12 -33 49 -19l471 193q23 8 25 29q2 23 -25 32l-481 197q-37 16 -49 -16z" />
<glyph unicode="&#x205f;" horiz-adv-x="388" />
<glyph unicode="&#x20ac;" horiz-adv-x="1024" d="M-336 659q-12 -39 31 -38h305q-27 -37 -63 -101h-213q-47 0 -58 -37q-10 -39 29 -39h209q-27 -80 -27 -145q0 -147 82 -240q90 -104 258 -104q106 0 238 74q109 63 233 178q53 49 111 106q47 49 98 107q39 43 84 98l68 80q8 8 8 12q0 6 -6 11q-6 2 -13 2q-23 0 -92 -68 l-35 -35q-6 -6 -18 -16l-19 -21q-49 -49 -81 -80q-47 -45 -91 -79q-49 -43 -94 -72q-109 -68 -196 -68q-117 0 -183 84q-59 72 -59 176h446q49 0 56 39q6 37 -29 37h-465q10 37 39 101h399q37 0 50 38q12 37 -23 37h-381q90 131 217 217q141 94 275 95q121 0 131 -82 q-20 18 -56 18q-61 0 -108 -47q-49 -45 -49 -96q0 -74 86 -74q80 0 135 66q51 61 51 129q0 63 -57 96q-51 29 -133 29q-176 0 -371 -101q-184 -96 -322 -250h-337q-45 0 -60 -37z" />
<glyph unicode="&#x2122;" horiz-adv-x="835" d="M51 911l2 -14q2 -8 2 -16v-25q0 6 8 18q10 16 27 17h62v-10q0 -10 2 -23l-2 -164q0 -10 -13 -16q-12 -8 -12 -6l59 2q10 -2 21 -2q0 -2 -10 4q-12 6 -13 18l-2 103l2 94h58q18 0 30 -17q8 -12 9 -18v25q0 8 2 16l2 14l-31 -4l-86 -2l-92 2q-25 0 -25 4zM287 672l47 2 q8 -2 20 0q0 -2 -12 6q-14 8 -14 18l4 95l10 88l16 -31q18 -35 29 -57l55 -121l21 47q25 55 41 88l37 70l10 -82l6 -97q2 -12 -14 -18q-16 -8 -17 -6q12 -2 25 0l10 2l39 -2q18 -2 27 0q0 -2 -17 6q-16 6 -18 18l-17 187q-2 8 13 16q12 8 12 6q-10 2 -20 0l-11 -2l-32 2 l-15 -35q-16 -39 -28 -61q-8 -20 -27 -53l-16 -31l-41 80l-45 100q-12 -2 -29 0h-37q0 2 14 -6q14 -10 15 -18v-29q-2 -33 -6 -61l-13 -97q-2 -12 -12 -18q-10 -8 -10 -6z" />
<glyph unicode="&#xe000;" horiz-adv-x="535" d="M0 0v535h535v-535h-535z" />
<glyph unicode="&#xfb01;" horiz-adv-x="860" d="M-418 -412q20 -96 82 -77q43 14 96 79l31 41q29 37 64 82l213 281l55 74l27 34q61 82 98 131q16 23 37 52l30 43q-16 -104 64 -135q49 -23 108 -9q-31 -51 -18 -98q16 -84 129 -84q68 0 182 76q45 31 99 74q39 31 90 75l90 78q29 23 16 37q-14 16 -41 -4l-84 -66 q-57 -45 -92 -67q-49 -33 -82 -39q-43 -12 -53 31q-10 31 35 82l92 106q96 113 37 125t-156 -78l-147 -135l-31 -25q-70 -55 -139 -18q-59 33 -23 123q10 31 51 72l50 43h184q14 4 18 16l2 12q2 14 -10 19h-133l35 20q92 53 180 119q70 51 154 123q88 78 96 121q6 51 -53 51 q-37 0 -84 -21q-59 -25 -127 -71l-115 -90q-49 -39 -102 -91q-41 -43 -95 -100l-55 -61h-104q-14 -4 -17 -17l-4 -14q-4 -12 12 -16h68l-682 -732q-27 -31 -45 -53q-45 -63 -33 -119zM594 612q70 74 139 136q72 66 131 108q8 8 17 12l18 15q23 12 29 10q6 -4 2 -14 q-4 -8 -12 -17q-57 -61 -173 -145l-79 -58zM893 594q0 -18 4 -27q16 -31 57 -24q12 0 25 6q82 31 86 102v13l-4 12q-14 31 -57 26l-25 -6q-82 -33 -86 -102z" />
<glyph unicode="&#xfb02;" horiz-adv-x="868" d="M-418 -412q20 -96 82 -77q43 14 96 79l31 41q29 37 64 82l213 281l55 74l27 34q61 82 98 131q16 23 37 52l30 43q-16 -104 64 -135q43 -20 102 -11q-29 -51 -18 -94q20 -86 129 -86q68 0 182 78q43 29 98 72l181 153q27 23 16 39q-14 14 -41 -6l-84 -66q-57 -45 -92 -67 q-49 -33 -82 -39q-43 -12 -53 31q-10 31 35 82l516 589q49 59 71 90q20 31 29 52q4 20 -6 24q-12 4 -37 -12q-31 -18 -72 -59l-407 -406l-264 -258q-4 -4 -13 -10l-16 -17q-70 -55 -139 -18q-59 33 -23 123q10 31 51 72l50 43h184q14 4 18 16l2 12q2 14 -10 19h-133l35 20 q92 53 180 119q70 51 154 123q88 78 96 121q6 51 -53 51q-37 0 -84 -21q-59 -25 -127 -71l-115 -90q-49 -39 -102 -91q-41 -43 -95 -100l-55 -61h-104q-14 -4 -17 -17l-4 -14q-4 -12 12 -16h68l-682 -732q-27 -31 -45 -53q-45 -63 -33 -119zM594 612q70 74 139 136 q72 66 131 108q8 8 17 12l18 15q23 12 29 10q6 -4 2 -14q-4 -8 -12 -17q-57 -61 -173 -145l-79 -58z" />
</font>
</defs>
</svg>
