<?xml version="1.0" standalone="no"?>
<!DOCTYPE svg PUBLIC "-//W3C//DTD SVG 1.1//EN" "http://www.w3.org/Graphics/SVG/1.1/DTD/svg11.dtd" >
<svg xmlns="http://www.w3.org/2000/svg">
<metadata></metadata>
<defs>
<font id="1-prolook_percivalregular" horiz-adv-x="0" >
<font-face units-per-em="2048" ascent="1638" descent="-410" />
<missing-glyph horiz-adv-x="577" />
<glyph horiz-adv-x="2048" />
<glyph horiz-adv-x="2048" />
<glyph unicode="&#xd;" horiz-adv-x="577" />
<glyph unicode=" "  horiz-adv-x="577" />
<glyph unicode="&#x09;" horiz-adv-x="577" />
<glyph unicode="&#xa0;" horiz-adv-x="577" />
<glyph unicode="!" horiz-adv-x="598" d="M143 1288q0 12 13 21q6 4 51 22l6 4l117 47q35 12 57 13q45 0 66 -88l2 -23v-786l-297 -115v795q0 33 -4 49q-10 55 -11 61zM158 -37v86v121v59q68 47 139.5 81t157.5 52v-49v-112v-101l-25 -16q-94 -63 -151.5 -89t-120.5 -32z" />
<glyph unicode="&#x22;" horiz-adv-x="681" d="M90 1378q0 41 36 69t69 28t63.5 -28t30.5 -69q0 -129 -31 -220t-63 -91q-31 0 -68 92t-37 219zM383 1378q0 41 36 69t68 28q33 0 64 -28t31 -69q0 -129 -31 -220t-64 -91q-31 0 -67.5 92t-36.5 219z" />
<glyph unicode="#" horiz-adv-x="1193" d="M72 401l30 144h230l71 344h-227l29 143h231l84 402h144l-84 -402h172l84 402h143l-84 -402h227l-28 -143h-230l-73 -344h229l-31 -144h-229l-84 -401h-144l84 401h-172l-86 -401h-143l86 401h-229zM475 545h172l74 344h-174z" />
<glyph unicode="$" horiz-adv-x="1521" d="M72 98q0 8 8 21q8 10 41 47l84 84q129 117 241 117q16 0 35 -3.5t41.5 -6.5t47 -12t53.5 -26l6 56l4 39l6 45l12 133l2 20l9 74q-41 -23 -72 -52.5t-49 -47.5q-31 -35 -54 -35q-29 0 -141 92q-45 37 -75.5 98.5t-30.5 124.5q0 68 37.5 149t115.5 169q29 33 51 55 q4 4 66 57q106 88 172 125l20 13l29 14l4 39l4 43l13 84l51 43l-23 -213l45 -23l21 193l55 43l-24 -256q6 -2 16 -6q27 -12 53 -23l47 -16q174 -47 226 -47q27 0 53 10l63 41l51 26q-43 -57 -75 -79q-78 -53 -156 -105.5t-127 -52.5q-14 0 -42 3t-48 5l-35 2l-41 6l-8 2 l-4 -43l-2 -30l-10 -117l-4 -39l-9 -84l41 31l78 57q39 27 66 27q23 0 108 -29l105 -39l6 -2l45 -22q104 -64 143 -154q35 -72 35 -143q0 -123 -131 -248l-43 -37l-4 -4l-105 -84l-94 -76l-59 -49q-12 -10 -31.5 -24.5t-38.5 -24.5l-33 -19q-80 -37 -141 -37q-18 0 -29 3 l-16 -168l-57 -43l24 225l-45 26l-26 -208l-50 -43l25 270l-20 10l-46 25q-190 102 -278 102q-37 0 -66.5 -11t-70.5 -38l-43 -37zM471 1130q0 -31 5 -71.5t10.5 -55t21.5 -45.5q49 -100 81 -139t77 -57l4 45l22 233l8 93v16l2 18l3 25l-87 39q-33 20 -67 29 q-10 6 -26.5 -2.5t-30 -29t-18.5 -42t-5 -56.5zM672 295l47 -16l8 71l6 62q4 39 27 303q12 113 16 164l19 200l2 39l6 56l-45 8l-4 -37l-2 -23l-7 -63l-12 -135l-24 -254l-13 -135l-10 -103l-6 -63zM770 250l25 -10l20 -13l37 -16q41 -18 75 -29.5t54 -17.5t51 -6 q84 0 136.5 66t52.5 177q0 94 -65.5 185.5t-176.5 148.5q-39 20 -73 32.5t-58 16.5h-12l-17 2l-4 -57l-41 -418l-2 -18z" />
<glyph unicode="%" horiz-adv-x="1912" d="M72 995q0 47 2 76t14 64q23 76 40 101.5t58 51.5l64 37l24 14l48 27l61 29q119 59 197 59q61 0 129.5 -31.5t117 -84.5t68.5 -119q23 -74 23 -129q0 -135 -140 -248l-43 -31l-30 -20l-91 -56l-67 -43q-72 -45 -156 -45q-109 0 -192 76q-90 82 -119 221zM276 1112 q0 -102 35 -168.5t119 -128.5l64 -39q51 -23 88 -22q114 0 114 182v45q0 104 -32.5 173t-106.5 126q-23 18 -57.5 37.5t-53.5 25.5q-41 14 -67 15q-25 0 -42.5 -18.5t-28.5 -50.5t-15 -44t-10 -43l-4 -43zM440 47q0 18 4.5 44t34.5 77q39 63 146 211l233 315l57 78l218 281 q143 188 196 252q43 53 127 143l10 -47q8 -35 11.5 -51.5t3.5 -30.5q0 -31 -18.5 -56.5t-78.5 -88.5q-76 -86 -112 -127q-18 -23 -84 -101l-184 -237l-238 -312q-113 -147 -166 -221q-76 -102 -141 -213q-18 41 -19 84zM997 322q0 47 2 76.5t15 64.5q23 70 41 98.5t55 50.5 l64 39l26 15l49 24l58 31q127 61 200 61q55 0 124 -30.5t117 -83.5t73 -123q23 -74 22 -129q0 -137 -139 -246l-45 -35l-29 -20l-90 -54l-67 -43q-72 -45 -156 -45q-111 0 -197 78t-116 217zM1200 438q0 -98 36 -167.5t118 -129.5q37 -27 65 -39q51 -23 90 -22 q113 0 113 180v47q0 109 -31.5 174.5t-109.5 126.5q-66 49 -109 62.5t-65 13.5q-47 0 -78 -80l-21 -76l-6 -43z" />
<glyph unicode="&#x26;" horiz-adv-x="2301" d="M70 516q0 78 64.5 139.5t207.5 124.5q43 16 78 31q55 20 112 37l29 10l25 8l-17 17l-45 43q-78 74 -100 110q-55 80 -55 135q0 88 161 162l129 51l107 29q57 12 127 28.5t119 16.5q88 0 198 -145q57 -76 58 -131q0 -74 -105 -181q-45 -45 -110 -94l-45 -30l26 -25l17 -18 l30 -27l80 -70l131 -119l70 -61l39 -37l20 -18l27 -27l20 35l29 115q8 35 19.5 77.5t11.5 75.5q0 45 -31 54.5t-131 9.5h-8l-66 -8l-14 36q-12 25 29 70t102 90q20 10 37 10q2 0 51 -4l49 -6l60 -6l28 -4l101 -6q31 0 55.5 -1t44.5 -1q18 0 25 2l100 20q2 2 6 0q8 -6 12 -24 q2 -14 -9 -33t-46 -53q-74 -68 -96.5 -79t-79.5 -11t-61 -3l-7 -88q0 -23 -10 -50t-43 -85q-55 -102 -158 -143l41 -37l29 -25l37 -32l127 -109l86 -72l115 -94l65 -51q168 -127 223 -127q33 0 68 41l43 -4l-21 -14l-16 -9l-180 -100l-76 -37q-113 -53 -131 -53 q-16 0 -33 14q-29 27 -57 51l-53 43l-109 89l-184 153q-45 37 -107 90q-23 18 -43 37q-35 37 -45 43q-10 8 -18 8l-51 -30l-101 -56l-96 -45l-39 -18l-55 -27l-92 -43q-80 -37 -137.5 -54t-106.5 -17q-63 0 -124.5 33.5t-147.5 111.5q-66 66 -105 127q-104 170 -104 264z M358 664q0 -78 95 -211q63 -94 196 -193q66 -47 114 -69.5t99 -22.5q90 0 291 88l57 29l-110 104l-156 141l-98 91l-62 59l-120 115l-23 20l-29 25l-39 -9q-215 -61 -215 -167zM666 1284q8 -45 31.5 -84t95.5 -123q18 -23 62 -66.5t79 -74.5l22 -21l23 -20q72 43 72 133 q-1 37 -13 90q-6 31 -30 68q-31 45 -86 100q-27 29 -40.5 39t-41 25.5t-54 24.5t-43.5 9q-39 0 -61.5 -30.5t-15.5 -69.5z" />
<glyph unicode="'" horiz-adv-x="454" d="M133 1378q0 41 32 69t62 28q35 0 70 -28t35 -69q0 -131 -36 -221t-69 -90q-31 0 -59 86q-35 100 -35 225z" />
<glyph unicode="(" horiz-adv-x="679" d="M80 598q0 55 6 121q0 303 164 530q150 207 385 291l-21 -18l-16 -19q-80 -84 -135 -195.5t-84 -250.5q-39 -168 -39 -314q0 -172 52 -309t159 -264l22 -25l39 -43l4 -6l19 -24q-57 -37 -128 -61.5t-147 -33.5l-38 -4q-37 23 -58.5 52.5t-76 137t-81 212t-26.5 223.5z" />
<glyph unicode=")" horiz-adv-x="679" d="M43 72l14 18l11 12l8 9l51 59l35 41q86 115 132 248t46 293q0 135 -35 289.5t-90 266t-133 195.5l-19 19l-20 18q227 -80 375.5 -295t177.5 -526q0 -193 -16 -293q-23 -135 -91 -266q-49 -96 -73.5 -131t-57.5 -56l-39 4q-152 14 -276 95z" />
<glyph unicode="*" horiz-adv-x="768" d="M57 903l49 33l29 20l72 50l72 49l18 12l61 41l-82 41l-102 55l-45 25l-29 18l-43 23l52 12l53 12q6 -4 10 -6q14 -8 45 -35l68 -53l28 -20l27 -23l22 -20l-8 71l-10 113l-2 14q-2 12 -5 30.5t-3 31.5q0 25 16.5 37t73.5 32l12 2l-6 -49l-2 -35l-4 -43l-12 -118l-2 -19 l-9 -67l17 16l26 25l11 8l71 63q49 43 82 43q20 0 51 -8l41 -10l11 -4l-43 -23l-33 -18l-37 -21l-113 -59l-82 -41l52 -33l28 -20l68 -47l80 -52l18 -12l62 -41l-6 -4l-25 -10q-35 -18 -55 -19q-27 0 -80 56l-10 12l-82 88l-17 14l-35 37l7 -39l4 -32l10 -95l6 -45l8 -80 q4 -12 -22.5 -30.5t-65.5 -36.5l-14 -6l6 53l4 45l6 68l8 110l7 94l-25 -28l-18 -21l-11 -10l-80 -84q-20 -20 -46.5 -44t-49.5 -24q-20 0 -61 23q-12 6 -17 8z" />
<glyph unicode="+" horiz-adv-x="1228" d="M96 428v184h426v424h185v-424h426v-184h-426v-428h-185v428h-426z" />
<glyph unicode="," horiz-adv-x="495" d="M43 170q23 25 57 53q14 12 31 27q125 102 154 102q18 0 46.5 -23.5t39.5 -33.5q37 -31 51 -48.5t16 -27.5l-30 -72l-35 -90l-31 -69l-82 -176l-31 -66l-32 -63l-19 -7q12 51 18.5 116t6.5 114q0 76 -2 101.5t-6 31.5l-80 63q-14 10 -28.5 24.5z" />
<glyph unicode="-" horiz-adv-x="831" d="M57 608l11 41l43 94q31 57 55 77t65 20h457q51 0 86 20q-4 -27 -6 -33q-2 -4 -12 -28q-57 -117 -82 -143.5t-80 -26.5h-420q-61 0 -68 -4z" />
<glyph unicode="." horiz-adv-x="440" d="M72 -37v86v121v59q66 47 138.5 80t158.5 53v-49v-112v-101l-25 -16q-94 -63 -152.5 -89t-119.5 -32z" />
<glyph unicode="/" horiz-adv-x="1097" d="M55 57q0 109 16.5 149t112.5 173l234 315l59 80l215 279q139 180 198.5 251.5t127.5 143.5l6 -25l4 -22l6 -45q6 -55 6 -88q0 -68 -41 -129q-8 -12 -84 -109l-182 -237l-55 -70l-92 -115l-191 -235l-233 -285l-41 -47l-58 -61q-8 39 -8 77z" />
<glyph unicode="0" horiz-adv-x="1345" d="M51 676q0 137 82 262t289 291q80 66 143 106q162 113 269 113q123 0 280 -166q47 -54 84 -115q92 -158 92 -329q0 -205 -133 -426q-53 -90 -139 -181q-240 -248 -350 -247q-61 0 -164 51l-49 26q-166 94 -271.5 239.5t-126.5 299.5q-6 41 -6 76zM330 885 q0 -78 18.5 -149.5t64.5 -159t107.5 -162t124.5 -119.5l6 -2l117 -64q90 -53 141 -53q49 0 78 56.5t53 199.5q6 35 9.5 81t3.5 103q0 113 -39 212.5t-109 185.5q-111 135 -239 182q-20 8 -63.5 20.5t-76.5 12.5q-125 0 -176 -189q-8 -35 -14 -75.5t-6 -79.5z" />
<glyph unicode="1" horiz-adv-x="708" d="M47 1147l21 18l30 23l121 98l19 12l129 91q41 29 67.5 43t52.5 24q20 4 25 4q27 0 27 -20l-2 -1272l-39 -23l-19 -8l-88 -41l-72 -59l-73 -47l-8 -4l-29 -21l2 1274l-35 -25q-61 -37 -129 -67z" />
<glyph unicode="2" horiz-adv-x="1056" d="M57 840q0 92 59.5 188t198.5 227q33 33 68 59.5t51 39.5q156 109 254 108q121 0 227 -176q61 -106 62 -194q0 -96 -63.5 -212t-206.5 -282l-127 -141l-70 -74q-45 -47 -66 -70q-29 -31 -36 -43l-13 -16l-18 -25h655q-37 -39 -66.5 -61.5t-103.5 -67.5l-6 -6l-72 -59 l-10 -8l-37 -27h-616q18 55 51 94q8 10 94 107l33 39l123 147l45 53q123 152 165 228.5t42 156.5v31q-4 23 -6 46.5t-9 41.5q-23 94 -73 160q-63 82 -111.5 115.5t-99.5 33.5q-18 0 -29 -2q-27 -47 -27 -108q0 -41 13.5 -123t55.5 -148.5t110 -111.5q-33 -63 -77 -113.5 t-128 -116.5l-31 -24q-109 49 -162 166q-18 41 -30.5 86t-12.5 82z" />
<glyph unicode="3" horiz-adv-x="1017" d="M29 172q0 53 116 150q96 74 119 73q18 0 115 -131q12 -18 41 -35.5t82 -33.5q12 -4 29.5 -6.5t29.5 -2.5q119 0 119 156q2 33 -4 68q-29 164 -180 223q-31 12 -64 17t-78 5q12 6 41 23.5t43 28.5q160 121 160 258q0 70 -43 137l-37 49q-29 25 -59.5 42t-73.5 27.5 t-84 10.5q-82 0 -133 -51q47 59 111 114q178 152 264 152q39 0 94 -12q117 -25 182 -97q82 -84 82 -155q0 -86 -127 -215l-59 -60l-58 -59q41 0 62 -4q170 -30 231 -180q23 -61 23 -99q0 -49 -31 -95t-117 -132l-63 -62q-68 -59 -135 -110q-59 -45 -101 -72 q-176 -113 -260 -112q-74 0 -162 75q-39 35 -57 61.5t-18 53.5z" />
<glyph unicode="4" horiz-adv-x="1290" d="M-8 532q31 57 84 125q61 80 178 213q160 182 308.5 323.5t314.5 270.5l2 -43l2 -24v-170l-2 -215l-2 -162v-8v-64h59l47 -2l201 2h24h80q-61 -53 -105 -101t-116 -140l-8 -5l-27 -32q-18 12 -43 20q-41 14 -80 15q-23 0 -35 -3v-327l17 -51q2 -6 -10.5 -17.5t-38.5 -30.5 l-19 -10l-90 -63q-57 -39 -76.5 -50.5t-33.5 -11.5q-43 0 -43 43v518h-60h-467h-61zM250 778h330l2 35l4 55v74v25q0 70 -13 147q-37 -20 -64.5 -42.5t-72.5 -70.5l-30 -34l-66 -68q-43 -45 -53 -57q-25 -29 -37 -64z" />
<glyph unicode="5" horiz-adv-x="1005" d="M23 111l206 239l41 -12l9 -2l75 -43l39 -21q49 -23 58 -26q35 -14 55 -19.5t45 -5.5q57 0 94 39t37 100t-31 121q-51 104 -111.5 156.5t-123.5 52.5q-74 0 -150 -63l-86 -80l-6 -8l-31 -23l25 690l328 234l469 2l-260 -217l-248 -13l-17 -372l35 8l17 2l94 22l28 9 q43 10 70 8q123 0 209 -109q68 -86 68 -166t-69 -174t-214 -215l-115 -88q-227 -150 -293 -149q-33 0 -84 17.5t-85.5 33.5t-55.5 31q-35 29 -22 41z" />
<glyph unicode="6" horiz-adv-x="989" d="M31 449q0 139 86 376q35 98 80 181q29 53 58.5 108t49.5 84q41 63 64.5 93t40.5 40l288 176l-14 -14q-6 -6 -20 -31l-5 -6l-16 -33l-63 -94l-37 -49q-16 -27 -57.5 -98.5t-63.5 -126.5l-76 -207l-4 -21l-6 -28l59 47l41 31l90 67q66 51 117 51q57 0 156 -65 q16 -12 35.5 -30t33.5 -34q90 -109 90 -198q0 -55 -31.5 -118t-101.5 -155l-57 -67q-59 -66 -115.5 -120t-95.5 -85q-92 -76 -146.5 -111t-93.5 -35q-41 0 -78.5 36t-97 120t-85 153.5t-25.5 162.5zM309 666q0 -51 29 -170q12 -49 39 -86q74 -123 125 -166t116 -43 q59 78 60 200q0 34 -2 50q-6 61 -29.5 113t-73.5 114q-96 109 -180 108h-33q-16 -6 -22 -8q-29 -57 -29 -112z" />
<glyph unicode="7" horiz-adv-x="1032" d="M27 1153q35 70 77 113q106 113 149.5 137t139.5 24l119 9l59 6l172 10l29 2l45 2l113 2l82 2l-15 -26l-10 -21l-10 -16l-47 -80l-19 -37l-57 -98l-41 -72q-37 -70 -57 -117q-29 -61 -49 -119q41 -8 75 -8h51.5t63.5 2h25l61 -6l-268 -190l-27 4h-44t-42 2 q-39 -51 -60.5 -95t-43.5 -128l-31 -121l-6 -27l-29 -119l-14 -51l-326 -162q0 59 17 99q33 63 61 123l80 163l20 41l82 168l8 15l15 32l24 56q-14 0 -28.5 2t-22.5 2q-31 0 -65.5 -5t-73.5 -12h-8l-43 -2l24 25q51 53 108.5 90t147.5 70l58 20q23 8 49 49q35 55 98 195 l51 111l-37 -3h-26q-45 0 -146 -10q-31 -4 -133 -14l-88 -8l-94 -13l-74 -10h-14z" />
<glyph unicode="8" horiz-adv-x="1042" d="M31 289q0 88 78 200q18 33 61 74q35 33 53 49l58 52l6 6l18 24l-61 51q-63 49 -92 92.5t-29 92.5q0 123 235 323q74 63 146 105q154 90 250 90q82 0 151 -57q96 -78 96 -150t-108 -168l-92 -82l-82 -69l-39 -41l14 -7l15 -6l36 -18q61 -31 105.5 -62.5t71.5 -62.5 q43 -49 65.5 -94t22.5 -90q0 -76 -72 -160t-240 -203q-43 -31 -72.5 -50t-58.5 -34q-193 -115 -264 -114q-72 0 -172 102t-100 207zM311 530q0 -106 127 -219.5t199 -113.5q24 0 55 10q39 49 39 102q0 59 -49 146q-27 41 -68 73q-51 41 -149 97q-43 23 -51 26q-25 12 -58 23 l-20 -39q-25 -55 -25 -105zM420 1149q0 -133 192 -231l35 -15q55 43 55 117q0 92 -94 166q-72 57 -129 57q-18 0 -41 -6q-18 -47 -18 -88z" />
<glyph unicode="9" horiz-adv-x="1050" d="M37 836q0 137 116.5 302t234.5 240.5t237 75.5q70 0 134 -23.5t109 -62.5q74 -63 108 -122.5t34 -137.5q0 -121 -90 -301q-33 -70 -57.5 -111t-104.5 -164q-66 -98 -117 -163q-98 -135 -129 -173t-45 -49l-4 -4l-80 -34l-98 -60l-47 -26l-86 -52q25 45 49 81t78 100 l112 127q70 78 84 96t35 59l-68 -12q-16 -2 -45 -2q-70 0 -127 34.5t-131 123.5q-102 123 -102 258zM295 1081q0 -59 21.5 -131.5t68.5 -133t129 -118.5q18 -14 37.5 -25t28.5 -16l28 -16l23 -12q39 31 59.5 80t30.5 147q2 14 2 39q0 182 -186 289l-48 24q-86 35 -120 35 q-72 0 -72 -125q-2 -25 -2 -37z" />
<glyph unicode=":" horiz-adv-x="495" d="M100 -37v86v121v59q72 51 142.5 83t152.5 50v-49v-112v-101l-22 -16q-94 -63 -152.5 -89t-120.5 -32zM100 623v90v118v62q27 18 68 43t72 37q82 37 155 53v-51v-113v-100l-22 -14q-100 -68 -155.5 -92.5t-117.5 -32.5z" />
<glyph unicode=";" horiz-adv-x="481" d="M43 170q23 25 57 53q14 12 31 27q125 102 154 102q18 0 46.5 -23.5t39.5 -33.5q37 -31 51 -48.5t16 -27.5l-30 -72l-35 -90l-31 -69l-82 -176l-31 -66l-32 -63l-19 -7q12 51 18.5 116t6.5 114q0 76 -2 101.5t-6 31.5l-80 63q-14 10 -28.5 24.5zM102 623v90v118v62 q27 18 68 43t72 37q82 37 155 53v-51v-113v-100l-22 -14q-100 -68 -155.5 -92.5t-117.5 -32.5z" />
<glyph unicode="&#x3c;" horiz-adv-x="1228" d="M96 457v123l1037 473v-164l-820 -371l820 -350v-184z" />
<glyph unicode="=" horiz-adv-x="1228" d="M96 225v154h1037v-154h-1037zM96 627v153h1037v-153h-1037z" />
<glyph unicode="&#x3e;" horiz-adv-x="1228" d="M96 -16v174l830 360l-830 371v164l1037 -473v-123z" />
<glyph unicode="?" horiz-adv-x="675" d="M43 1190q16 35 27.5 51t40.5 45q127 119 237 119q84 0 187 -74q96 -68 96 -164q-1 -71 -56 -161l-30 -43q-57 -86 -82 -131.5t-41 -102.5q-23 -80 -23 -154q0 -39 7 -75l-273 -115q-2 20 -3 35.5t-1 28.5q0 74 20.5 144.5t71.5 168.5q23 41 34 60.5t54 80.5q25 37 25 78 q0 76 -96 152q-57 41 -125 53q-14 4 -36 4h-34zM129 -37v86v121v59q57 33 111.5 59.5t109.5 45.5l76 28v-49v-112v-101l-25 -16q-94 -63 -151 -89t-121 -32z" />
<glyph unicode="@" horiz-adv-x="1638" d="M53 705q0 348 240 575q231 219 567 219q309 0 517 -185t208 -466q0 -227 -129 -379q-121 -143 -280 -143q-96 0 -156 65q-45 49 -45 88q-49 -57 -111 -98q-82 -55 -145 -55q-88 0 -141 51q-70 68 -70 221q0 203 136 365.5t284 162.5q59 0 94 -18q51 -27 76 -96l28 88h148 l-131 -527q-4 -14 -12.5 -51t-8.5 -47q0 -35 19.5 -61.5t68.5 -26.5q106 0 197 117q104 135 104 342q0 242 -193.5 417t-457.5 175q-276 0 -450 -195q-184 -207 -185 -563q0 -268 187.5 -449.5t468.5 -181.5q135 0 243 31q72 20 195 76l29 -56q-133 -59 -222 -86 q-127 -39 -243 -39q-344 0 -587 207t-243 523zM655 598q0 -96 41 -141t107 -45q86 0 168 143q90 160 90 363q0 55 -22.5 88.5t-69.5 33.5q-96 0 -197 -116q-117 -137 -117 -326z" />
<glyph unicode="A" horiz-adv-x="1331" d="M-45 936q0 16 3 37.5t8 53.5t42 88t129 151q102 104 163.5 143t135.5 39q45 0 96.5 -10.5t77 -19.5t58.5 -25q49 -29 69.5 -49.5t20.5 -45.5q0 -45 -115 -143l-35 -29l-22 -16l-27 -16q-63 160 -258 184q-12 2 -33 2q-123 0 -123 -119q0 -25 7 -55q33 -168 165 -168 l-32 -43l-86 -80q-37 -35 -60.5 -50t-42.5 -15q-20 0 -57 16q-84 37 -84 170zM-10 53l180 133l125 86l10 9q68 51 99.5 113.5t50.5 172.5l2 21l12 147q16 168 79.5 270.5t215.5 204.5q29 20 64.5 39t105.5 54l78 36l35 19l100 51q29 -18 36 -43t7 -98v-13l-6 -227 q0 -43 2 -157.5t2 -159.5q0 -139 9 -230.5t34 -183.5q33 -127 108 -127q19 0 37 6q-27 -39 -53.5 -63.5t-103.5 -75.5l-78 -51l-11 -9q-33 8 -53 34t-55 106q-25 55 -43 143q-25 117 -25 227v123q-43 -23 -76.5 -45t-86.5 -65l-39 -35l-21 -16q-51 45 -104 63l-31 8l-72 -71 q-92 -88 -125.5 -116t-95.5 -67l86 -39l10 -6l174 -53l23 -8l70 -27l-43 -27l-21 -18l-96 -76q-6 -6 -21 -12q-27 -14 -49 -23l-137 48q-160 53 -221 53q-41 0 -88 -25zM649 625q51 29 72 41q31 20 65 51l70 -47l76 -45q16 18 20 38.5t4 81.5l-2 148q0 76 4.5 227.5 t4.5 153.5q-53 -12 -98.5 -43t-86.5 -92q-20 -29 -32.5 -62t-36.5 -135l-29 -125l-6 -39l-12 -59l-9 -43l-2 -21l-2 -14v-16z" />
<glyph unicode="B" horiz-adv-x="1646" d="M-72 987q29 37 51.5 59.5t92.5 88.5l49 49q47 -23 78.5 -45.5t72.5 -63.5l39 37l51 51l44 39l30 29l27 22q45 35 80 57.5t73 39.5l-4 -7l-18 -40q-23 -47 -32 -74t-9 -39v-596q0 -41 -49 -90l-64 -60l-28 -24l-41 -37q33 10 86 10l12 -2l14 -2l39 37q27 35 39 49 q31 39 37 47q47 72 64.5 113t17.5 72v536q0 23 22.5 49.5t90.5 75.5q111 80 153 80q23 0 55 -16l60 -46l67 -45l15 -8l71 -30q37 -18 65 -26.5t48 -8.5q25 0 41 4l-14 -19l-8 -10q-18 -23 -33 -37t-47 -45l-99 -98l-49 -47l-35 -39l-14 -12l-20 -23l36 10q102 25 183 25 q147 0 228 -73t81 -197q0 -19 -4 -52q-6 -43 -22.5 -79.5t-59.5 -102.5q-20 -27 -36.5 -50.5t-61.5 -72.5l-43 -41l-37 -43l-51 -49l-35 -35l-39 -35q-98 -86 -158 -118q-74 -41 -145 -41q-123 0 -514 174q-41 18 -80 24q-23 6 -45.5 8.5t-48.5 2.5q-78 0 -156 -39 q80 47 141 104q78 70 113 128.5t35 109.5v604q-39 -35 -68 -66q-18 -20 -112 -127l-66 -73l-31 43q-47 57 -96 88l-14 8zM526 381l33 -16l23 -13q27 -12 49 -21t88 -32l104 -39l72 -24l43 -15q76 -25 121 -36t76 -11q35 0 59.5 17.5t67.5 64.5l38 53q53 92 54 183 q0 100 -66.5 174.5t-191.5 105.5l-74 12q-16 2 -31.5 2h-23.5q-51 0 -78 -9t-39 -27l-29 -39l-8 -11l-55 -59l-78 -94l-47 -53l-35 -37l-33 -37zM909 862l49 27q12 8 21.5 19.5t71.5 84.5l57 66q-25 14 -49 24q-43 20 -87 29.5t-54 11.5h-9v-262z" />
<glyph unicode="C" horiz-adv-x="1310" d="M55 696q0 182 114 344t347 299q72 43 132.5 68t117.5 39v-191q55 43 158 154l12 12q18 16 55 43l58 -34l36 -23l68 -33l35 -18l45 -31q-14 -31 -27.5 -51.5t-42.5 -54.5l-30 -39l-11 -15l-20 -24q-30 -42 -30 -87q0 -8 1 -16l-4 11l-16 32q-33 61 -71 88t-130 54 q-14 2 -49 30l-37 -51v-444q0 -10 -11.5 -27.5t-47.5 -64.5l-35 -41l-47 -54l-35 -34q-16 -18 -34.5 -37t-41.5 -37l-18 -14l-25 -19q43 -61 102 -104q106 -76 194.5 -99.5t231.5 -23.5q82 0 154 25.5t152 76.5q14 8 27.5 16.5t27.5 20.5q-80 -88 -180 -164 q-273 -198 -492 -198h-2q-231 0 -432 225q-72 82 -119 178q-80 160 -80 313zM254 885q0 -82 41 -193q12 -33 20.5 -49t20.5 -39q39 -82 59.5 -108.5t50.5 -40.5q82 49 82 168v682l-18 -9l-12 -8q-23 -16 -56.5 -46t-64.5 -64q-61 -74 -92 -147t-31 -146z" />
<glyph unicode="D" horiz-adv-x="1398" d="M-45 1421q0 14 10 29q29 37 74 72q66 47 96.5 66.5t61.5 31.5q-4 -8 -7 -21q-2 -10 -2 -18q0 -51 117 -82l107 -31h10q49 -10 88 -16t125 -14l76 -6q86 0 124.5 -6.5t86.5 -18.5q266 -51 329 -133q74 -94 74 -416q0 -35 -2 -98.5t-2 -91.5q-23 -236 -54.5 -314 t-144.5 -174q-10 -8 -61 -43q-27 -18 -54.5 -36.5t-55 -36t-50.5 -27.5q-100 -53 -131 -53q-25 0 -84 30l-133 64l-41 22l-106 54l-31 16q-100 43 -135 53t-60 6l-86 -45l-57 -20q49 49 110 86l35 20l23 13l55 26l84 41q70 35 99.5 72t56.5 117q12 45 12 59v471q0 18 8 36.5 t35 53.5l4 4l76 66l10 8l27 27l-49 4l-31 4l-60 6l-126 10l-218 29q-96 12 -164.5 36.5t-68.5 67.5zM88 295q18 25 25 43q29 53 40 90t11 74v536q0 43 42 87t138 83q51 20 119 29l35 2q-8 -8 -13 -12q-12 -12 -20 -27q-29 -31 -49 -76q-10 -23 -19.5 -51.5t-9.5 -46.5v-436 q0 -55 -43 -111q-49 -66 -156 -135q-51 -33 -73 -41l-9 -4zM451 375q74 -25 101.5 -37t125.5 -62l199 -98l55 -28l16 -9l31 -14q47 41 66.5 92t31.5 176q2 10 2 63.5t2 86.5l-2 22v21l-57 -23l-51 -18l-74 -25l-88 -30l-158 -52l-149 -49zM528 430l29 10l27 9l63 16l74 24 l51 17l113 35l135 47l24 10l35 12v45l-6 41l-39 -14l-10 -2l-84 -29l-27 -8l-30 -12l-105 -35l-53 -23q-86 -33 -107.5 -47t-56.5 -57l-26 -29zM653 575l29 11l14 4l56 18l170 62l104 37l16 8l29 10l-2 43l-4 39v16l-16 144q-10 109 -30 132t-155 101l-116 57l-13 -532 q0 -68 -18.5 -100.5t-63.5 -49.5z" />
<glyph unicode="E" horiz-adv-x="1435" d="M-72 174l86 68q117 92 162 155.5t45 120.5v653q0 10 4 21q6 16 25 45q6 10 14 22.5t37 43.5q37 41 90 75.5t139 71.5q10 6 33 13t43 16l-39 -41l-41 -45l-39 -43q-27 -29 -36 -43.5t-9 -24.5v-618q0 -49 -30.5 -100.5t-108.5 -123.5l-57 -49l-47 -37l-17 -12q57 0 99 -45 q55 -61 69.5 -81.5t18.5 -33.5q4 0 8 2q10 4 43 27l33 20q82 47 130 66.5t91 19.5q39 0 82 -10q14 -4 62 -17.5t117 -37t191 -68.5q29 -10 56.5 -16t48.5 -6q47 0 123 45l47 31l20 12q-37 -51 -82 -90t-114 -80q-164 -96 -221 -96q-41 0 -148 45l-55 24l-47 21l-95 43 l-57 22q-98 35 -143 35q-76 0 -256 -149q-10 -10 -21 -17q-27 -16 -49 -28l-39 55q-66 86 -89 106.5t-77 32.5zM485 393l13 25l4 8l35 76l6 10q24 41 24 144v8v518q0 8 19 24q27 25 86 64l47 33l76 43l55 30q70 39 115 60l20 10l35 14l29 -8l77 -22q88 -25 141.5 -43.5 t106.5 -45.5q-29 -27 -53.5 -46t-81.5 -60l-84 -55l-14 -11l-101 25l-151 49l-12 4q-4 2 -28 1t-58 -7v-485l55 20l108 94l21 19l57 43q53 -18 87 -34.5t114 -59.5q20 -8 24 -11q29 -10 58 -18q-37 -45 -83 -83t-122 -81l-51 -27l-41 17l-33 12l-41 17l-84 32l-67 29 q-25 -49 -60 -97t-86 -106q-70 -76 -96.5 -97.5t-65.5 -31.5z" />
<glyph unicode="F" horiz-adv-x="1187" d="M-143 590q137 145 325 229l8 43l-12 94q-4 37 -4 50q0 68 102 170l46 38q100 88 206 140l-24 -25q-63 -63 -82 -96q-25 -43 -25 -100q0 -25 6.5 -62t16.5 -84l55 -223l4 -12l68 -197l31 -90q37 -133 36 -209q0 -96 -69 -186l-4 -4l-86 -95l-9 -6l-30 -37l67 -34l43 43 q57 59 90 101t50 73q29 49 40 85.5t11 82.5q0 66 -31 182q-6 31 -20 84q-39 131 -80 270l-8 29q-16 72 -21 98q-16 78 -16 111q0 47 24 88q18 29 86 102l72 72q68 61 106 92q57 45 111 61l90 -43q96 -47 130 -65.5t85 -50.5l-22 -21l-19 -16l-78 -66l-36 -30l-70 -62l-51 27 q-51 29 -103.5 54.5t-93.5 41.5q-12 -53 -12 -107q0 -55 15.5 -114.5t45.5 -122.5l23 -47h57l64 2h196l47 -2h52q-45 -23 -82 -47q-23 -14 -82 -62l-52 -43q-16 -14 -46.5 -24.5t-90.5 -18.5q-2 -16 -3 -33.5t-1 -27.5q0 -6 4 -43t4 -72q2 -14 2 -22q0 -70 -48 -153 t-173 -224q-90 -100 -219 -217l-14 -13l-113 -96l-14 -12l-45 -43l-51 33q-119 71 -185 71h-2q-51 0 -115 -41q12 18 22.5 32.5t33.5 35.5q164 176 235 176q45 0 148 -45l14 -6q27 33 27 74q0 47 -29 159l-12 41l-17 54l-39 120l-73 226q-55 22 -105 22h-4q-66 0 -239 -45z " />
<glyph unicode="G" horiz-adv-x="1511" d="M84 719q0 317 352 559q68 45 134.5 81t148.5 66q49 20 63 25q6 2 13 2v-192q53 45 84 75q14 14 73 80q6 6 13 12q14 12 55 41l55 -32l39 -23l66 -33l37 -20l45 -31q-55 -98 -148 -205l-51 -61l-25 -27l-71 -84q39 18 69.5 27.5t69.5 9.5h72q119 -14 193.5 -97t74.5 -192 q0 -61 -23 -108q-18 -41 -38.5 -74t-76 -105.5t-141.5 -160.5q-137 -139 -245.5 -203.5t-204.5 -64.5q-123 0 -285 102q-80 51 -147.5 129t-114.5 176q-86 172 -86 328zM283 912q0 -99 43 -214l39 -88q41 -84 60 -109.5t50 -41.5q41 35 60.5 78t19.5 108l2 53v13v600 q-31 -12 -72 -41t-86 -74q-116 -126 -116 -284zM500 432q16 -25 37.5 -50.5t48.5 -47.5q94 -76 186 -114t168 -38q102 0 180 60q131 98 131 237q0 133 -127 242q-104 90 -211 90q-88 0 -131 -61l-26 -35l-17 -23l-28 -35l-31 -41l-31 -34q-74 -90 -149 -150zM791 803l18 14 l14 10l74 74q90 90 123 137.5t43 102.5q-45 31 -66 37q-82 31 -105.5 42t-60.5 37l-36 -49z" />
<glyph unicode="H" horiz-adv-x="1536" d="M125 -16v1153l264 188v-1247zM506 -16v1118q0 33 15.5 66.5t60.5 80.5q29 33 90 78l53 35l35 20l55 31q45 27 78 33t104 6q20 0 48 -4t51 -6q96 -14 135 -24.5t69 -26.5l-24 -27l-19 -18l-16 -19l-70 -63l-67 -64l-53 12l-31 7l-156 38q-12 4 -32.5 7.5t-51.5 7.5v-455 q43 33 84 76q31 33 76 84q27 31 45.5 44t42.5 13q18 0 49 -9t86 -30q154 -59 229.5 -148t75.5 -192q0 -111 -84 -217q-27 -37 -63 -71q-49 -45 -84 -78l-57 -53q-221 -201 -222 -355q0 -35 10.5 -78t28.5 -92l29 -61q-63 47 -96 102q-53 90 -53 152q0 82 112 200l55 50 l105 90l8 6q47 35 72 115q8 27 8 63q0 68 -36 137.5t-109 132.5q-29 25 -48.5 38.5t-50.5 29.5q-111 59 -157 59q-39 0 -56 -45v-700z" />
<glyph unicode="I" horiz-adv-x="1130" d="M0 201q49 53 93 92t126 96l35 21l22 -7l27 25l29 23l47 41l37 32l63 58q6 10 6 16q0 12 -49 43l-63 55q-12 10 -31.5 17.5t-56.5 13.5q37 49 77 84q8 6 111 90l180 148l135 108l15 14l53 52h-547q-121 0 -186.5 -22.5t-120.5 -78.5l23 29q68 86 94 112.5t59 57.5 q18 16 37 35q55 47 81 63.5t46 16.5h596l111 -6l57 -3q-33 -31 -51.5 -69.5t-24.5 -93.5v-86v-748q-31 -45 -60.5 -76.5t-103.5 -95.5l-73 -63l-70 -60q-61 -51 -121 -92q-49 -35 -100 -66q-45 12 -68 23q-49 27 -94 51l-23 10l-106 58q-61 33 -110.5 52t-100.5 30zM311 393 l78 -35l23 -10l77 -43l99 -55q55 -31 84 -45q20 -8 55 -21q31 20 40 45t9 84l2 97v362q-45 -18 -65.5 -31.5t-100.5 -81.5l-141 -120l-113 -101l-22 -22zM537 913q49 -14 68.5 -23t41.5 -26q95 -69 105 -69q4 0 26 6l-2 100q0 59 6.5 108t18.5 117l-33 -22l-31 -23 l-131 -106l-37 -33z" />
<glyph unicode="J" horiz-adv-x="1419" d="M-215 -244l68 103q37 47 57 69q33 37 55 56q74 68 90 82q63 51 121 51q63 0 369 -154l57 -31q2 -2 10 -4q18 -6 39 -12q43 39 66 82q39 76 39 154q0 80 -41 143q-6 8 -16.5 19.5t-22.5 25.5l-12 10l-64 51l-35 27l41 47l25 29l61 69l37 39l53 70q-25 8 -39 16 q-102 55 -102 148q0 55 41 137q8 16 26.5 44t63.5 89q6 6 25 58h-484q-51 0 -106 -72l-35 -51l-10 -13q33 86 88 168q37 47 60.5 77t41.5 48q59 61 97 85t71 24h504h90q25 0 72 18l-15 -26q-66 -100 -145 -160q-8 -6 -76 -53q-43 -31 -58 -37t-15 -58q0 -33 9 -60.5 t34 -62.5q55 -76 129 -100l4 25l2 20v10v86q0 80 17.5 112t105.5 112l36 32q68 55 109 83t96 55l-10 -11l-39 -45q-57 -66 -80.5 -109.5t-23.5 -82.5v-658q0 -57 -39 -120q-45 -74 -176 -209q-29 -33 -76 -75t-139 -116q-135 -113 -234.5 -185.5t-193.5 -127.5l-29 12l-23 8 l-12 7l-98 47l-137 55l-50 20q-35 12 -63.5 22.5t-46.5 10.5t-36.5 -13t-57.5 -48zM758 608l43 -2q147 -20 147 -182q0 -63 -28.5 -146t-85.5 -180l-29 -49q14 8 25.5 17.5t23.5 19.5q96 78 143 176q23 49 34 96.5t11 90.5v432l-36 -33l-39 -33l-140 -135l-34 -35z" />
<glyph unicode="K" horiz-adv-x="1396" d="M-72 156q16 25 23 28l59 58l29 26q80 80 109.5 133.5t29.5 102.5v596q0 74 68 141q76 78 246 152l65 24l-8 -4l-29 -18l-39 -31q-55 -47 -77.5 -82t-22.5 -68v-628q0 -39 -31 -83t-112 -114l-48 -37l-47 -30l-18 -13l35 -18l55 -35q88 -51 135 -90l43 33l45 32 q106 78 170 78q25 0 51 -10q57 -25 89 -63.5t32 -81.5l-90 -62l-14 -12l-74 -64l-8 -6l-35 -26q-18 29 -42.5 51t-57.5 43q-88 51 -115 51q-20 0 -39.5 -17.5t-32.5 -27.5l-59 -55l-14 -15l-11 -8l-30 -26l-58 45l-30 20l-88 64l-9 6zM330 309q41 29 69 70q43 53 72 110.5 t35 94.5v65v510q0 16 17.5 38t76.5 71l43 35l88 59l31 22l6 5l98 59q16 10 30.5 15t21.5 5l49 -18q27 -10 49 -18q90 -35 186 -66l107 -33q-37 -49 -131 -137l-70 -61q-96 25 -207 59l-78 29l-90 14l2 -332l31 29l10 8l66 62l61 51l35 -15q129 -51 213 -125l-39 -41l-25 -28 l-116 -113l-56 -63l25 -11l29 -18q80 -43 140 -112.5t122 -200.5l35 -84q33 12 60.5 27t70.5 42l-19 -22l-10 -15l-12 -14l-70 -76l-102 -106q-37 -37 -58 -55q-33 -27 -71 -31l-29 94q-47 131 -113.5 221t-162.5 156l-37 24l-19 13q33 49 74 88q20 20 96 86q8 4 19.5 16.5 t34.5 46.5l-72 43q-66 39 -87.5 49.5t-51.5 16.5q-23 -164 -105 -291q-66 -100 -129 -158.5t-143 -89.5z" />
<glyph unicode="L" horiz-adv-x="1323" d="M-100 166l88 80l61 51l31 25q25 20 33 32q47 53 63.5 89t16.5 75v713q0 10 11 23.5t54 52.5q25 20 129.5 82.5t190.5 78.5q-74 -35 -117 -94q-25 -33 -36 -57.5t-11 -40.5v-614q0 -51 -29 -100.5t-111 -123.5q-31 -31 -57 -47l-45 -37l-16 -12q35 0 70.5 -22.5 t80.5 -79.5q20 -27 33 -58l39 21l14 8l101 57l8 6q74 43 139 43q55 0 154 -28l305 -105q59 -20 102 -20q45 0 123 43l49 31l21 12q-72 -96 -199 -168q-57 -33 -106 -59q-70 -37 -115 -37q-41 0 -148 45l-55 22l-43 21l-98 43l-58 22q-98 35 -143 35q-74 0 -254 -149 q-6 -6 -27.5 -18.5t-42.5 -24.5l-22 18l-14 14l-68 74q-23 23 -45.5 40t-56.5 38zM408 393l18 15l29 22q47 39 65.5 78t18.5 90v578q0 10 16 26.5t78 63.5l43 30l59 37l56 37l100 60l20 10l31 14l35 -10l47 -14q51 -16 98 -36t80 -36q-18 -18 -48 -42t-87 -65l-98 -67 q-37 10 -69 22.5t-89 40.5q-8 6 -49 10v-526q0 -29 -13.5 -55.5t-60.5 -77.5q-25 -31 -74 -72q-88 -78 -123.5 -101.5t-82.5 -31.5z" />
<glyph unicode="M" horiz-adv-x="2736" d="M-143 -92q25 27 61.5 61.5t61.5 55.5l94 69q55 39 90 55.5t55 16.5q10 0 31 -4l8 20q18 55 18 105v803q0 25 26 57.5t95 85.5l58 39q98 63 146 85.5t124 39.5l-23 -19l-45 -45q-14 -10 -20 -16q-12 -14 -16 -21q-70 -80 -91.5 -116.5t-21.5 -69.5v-688q0 -27 -15.5 -62.5 t-54.5 -85.5q-10 -12 -39.5 -41.5t-50.5 -46.5l-49 -34l45 -13l12 -2l109 -35q57 0 131 111q20 33 28.5 59.5t8.5 49.5v739q0 20 12 40.5t64 84.5l92 98l43 43q6 4 39 33q74 61 101.5 75.5t80.5 14.5q16 0 44 -1t67 -1q25 0 52 -4t50 -8q197 -31 267.5 -82t70.5 -156v-18 l20 6l11 6l71 53l13 10l84 64q57 45 96 71.5t90 55.5q18 2 38.5 2h31.5h34q25 -4 37 -4q258 -33 383 -156t125 -338q0 -25 -3 -58.5t-5 -51.5q-14 -121 -84 -231.5t-221 -235.5q-47 -41 -96 -72l67 -27l27 -8l170 -57l10 -4q23 -6 41 -15q31 -18 51 -28q-41 -37 -90 -74 t-102 -68l-31 -20l-27 -14q-66 45 -185.5 81.5t-191.5 36.5q-14 0 -31.5 -2t-27.5 -2q18 8 51 33q223 162 314.5 299t91.5 301q0 227 -74 332.5t-260 148.5q-33 8 -77 12.5t-87 4.5q-84 0 -139 -17.5t-103 -52.5l-12 -8l-10 -8v-361l8 -2l74 -6q70 -8 85 -9t56 -1 q49 0 71.5 3t90.5 17q0 -55 -23 -98q-57 -106 -133 -117q-31 -4 -166 -4l-63 2v-473l-232 -110v589l-32 5q-59 6 -107 6q-131 0 -250 -60l13 25l16 35l25 45q61 106 90.5 128.5t107.5 22.5h72h18h11l36 2v332q0 14 -6 25q-14 27 -65 57q-29 18 -69 26.5t-128 8.5l-39 2h-41 h-63h-49l-29 -2h-12l-19 -2v-832q0 -72 -45 -138t-141 -124q-78 -45 -150 -57l9 -10l12 -9q25 -23 61 -32q-12 -31 -30 -49l-107 -72q-78 -51 -94 -51q-8 0 -39 10l-72 39q-43 25 -97 39t-108 14q-61 0 -122 -18q-45 -12 -84 -33z" />
<glyph unicode="N" horiz-adv-x="1669" d="M-143 1262q31 57 71.5 93t124.5 79l66 34q-1 -7 -1 -14q0 -42 22 -60q26 -22 124 -42l115 -25l8 -2h27q41 0 82 6l43 15q16 -61 16 -117v-23q-4 -16 -4 -24l16 10l8 6l68 59q23 20 45 43q12 12 49 39l15 15l86 65q45 35 73.5 48.5t65.5 13.5q39 0 119 -13q41 -4 59 -10 q430 -90 430 -461q0 -48 -10 -120q-18 -117 -90 -223.5t-230 -239.5l-94 -72l70 -25l29 -12l153 -55l35 -12q8 -2 92 -48q-82 -74 -192 -143l-29 -16l-27 -17q-39 25 -80 43.5t-111.5 39t-110.5 28.5t-75 8q-29 0 -59 -6l29 25l78 65q178 150 260 278t94 261v54v34 q0 100 -21 147l-43 -30l-34 -25l-185 -139l-219 -164l-135 -96l-51 -41l-31 -25l-47 -37v-198q0 -88 61 -146q-25 -18 -43 -24.5t-116 -30.5l-131 -31q-29 4 -40.5 30.5t-11.5 92.5l2 100v940q-16 10 -26 15q-39 18 -232 18q-55 0 -91 15.5t-66 46.5zM551 492l41 28l35 25 l114 84l68 51l217 162l182 133l35 26l43 35q-12 18 -23.5 34.5t-29.5 35.5l-55 -43l-17 -10l-143 -109l-25 -16l-370 -273l-72 -53v-110zM551 655l57 37l13 10l90 68l71 53l156 113l39 31l162 118l30 23l39 27q-72 51 -149.5 69.5t-210.5 18.5q-154 0 -205 -15.5t-92 -66.5 v-486z" />
<glyph unicode="O" horiz-adv-x="1638" d="M68 692v50q0 18 8 67q29 207 140.5 339t381.5 265l92 45l10 -26l9 -27q18 -47 28 -96q33 14 58.5 31.5t87.5 66.5q72 55 155 55q88 0 181.5 -56t193.5 -177q70 -86 109 -184.5t49 -217.5q0 -205 -58 -342q-63 -150 -219 -282q-84 -72 -143 -108t-135 -64 q-45 -16 -86 -27.5t-84 -17.5t-86 -6q-178 0 -329.5 85t-252.5 246q-110 174 -110 381zM274 831q0 -137 40 -231t118 -154l14 29q35 82 35 156v669q-80 0 -127 -73q-55 -86 -73 -283q-6 -61 -7 -113zM453 428q49 -66 132 -125t230 -131q49 -23 100.5 -38t104.5 -15 q139 0 230 110.5t91 309.5l-4 96q-18 184 -82 303l-53 -35l-39 -22l-110 -70l-86 -53q-176 -106 -267 -164q-53 -35 -163 -107l-27 -20zM645 592l41 24l8 5l76 49l72 43l338 211l24 16l39 27l-37 71q-72 -29 -168 -92l-63 -43l-72 -45l-112 -74l-52 -34l-16 -45 q-35 -68 -78 -113zM739 791l49 28l76 47l31 21l133 80l109 69l22 13l25 14q-84 113 -236 184q-49 23 -79.5 34t-49.5 15q-8 2 -14 2h-14q-51 0 -52 -34v-473z" />
<glyph unicode="P" horiz-adv-x="1894" d="M-143 999l22 29l60 70q129 129 194 129q18 0 43 -10.5t49 -26.5l84 -55l13 -9l53 -39l18 -14q49 23 79 42.5t136 103.5l76 55q287 199 459 199q145 0 375 -127q66 -35 129 -93q98 -94 142 -208t44 -259q0 -221 -240 -458l-207 -170l-40 -35l-29 -23l-31 -26 q-16 -10 -34.5 -22.5t-41.5 -20.5q-72 -31 -131 -31q-68 0 -159 39l-9 4l-125 66l-12 6l-47 20q-18 -55 -18 -110q0 -61 36 -246l7 -39l-72 -27q-88 -33 -122 -43t-83 -14v1180v26l2 88q0 57 9.5 94t31.5 78l-16 -12l-15 -8l-41 -31l-43 -33l-22 -18l-78 -59l-86 -66 l-37 -29q-14 25 -29.5 42.5t-39.5 39.5q-102 94 -150 94q-25 0 -59 -18l-31 -16zM719 1087l4 -110v-33l4 -90l2 -436l76 55l399 328l180 149l29 25l47 41q-156 217 -430 266q-59 10 -74 12q-55 8 -96 9q-88 0 -114.5 -46.5t-26.5 -169.5zM727 258l797 637l-41 80l-756 -610 v-107zM954 379l15 -21l14 -14q33 -31 55 -49q35 -29 70 -49q55 -35 106.5 -55.5t92.5 -20.5q127 0 229 205q10 23 24.5 60.5t20.5 70.5q14 63 14 129q0 115 -49 213q-47 -29 -93 -64.5t-118 -93.5l-176 -141l-86 -70l-57 -49l-29 -24z" />
<glyph unicode="Q" horiz-adv-x="1693" d="M61 696q0 307 283 553q90 78 179 127t163 68q20 -37 31.5 -73t11.5 -73q49 16 80 39q43 37 82 70q25 18 48.5 30.5t57.5 28.5q55 -12 107.5 -32.5t120.5 -61.5q162 -98 243.5 -213t81.5 -239q0 -193 -188 -375l-51 -41l-8 -6l-74 -56l-8 -6l-31 -22l49 -33l37 -25 l213 -125l254 -145l80 -43q193 -100 239 -100q27 0 88 22q19 4 60 -4l-58 -29l-30 -16q-109 -55 -176 -94l-111 -43l-51 28l-45 23l-78 43l-109 57l-213 117q-43 25 -102 55q-43 23 -78 39l-37 17l-45 20l-24 -12l-19 -10l-16 -11l-60 -34l-43 -23q-160 -86 -288 -86 q-186 0 -369 201q-70 80 -108 157q-88 164 -89 336zM268 844q0 -125 64 -244q49 -94 98 -135q33 16 44 40.5t11 86.5l2 84v362v13l-2 59q0 72 -5 99.5t-25 80.5q-27 -4 -46.5 -19.5t-46.5 -56.5q-59 -84 -83 -256q-10 -68 -11 -114zM442 444q18 -25 39 -47t43 -43 q74 -68 161 -114.5t155 -59.5q29 -4 55.5 -7t50.5 -3q55 0 84 31l-16 12l-19 14q-20 12 -37.5 25.5t-35.5 30.5l26 20l19 10l112 62q119 59 159 115.5t50 181.5q4 29 4 49q0 18 -4 51q-14 123 -57 203t-144 162q-47 43 -116 80q-139 79 -184 79h-1q-29 0 -57 -32v-547 q0 -33 -18.5 -64.5t-57.5 -60.5l-14 -10l-125 -88z" />
<glyph unicode="R" horiz-adv-x="1753" d="M-115 1073q39 57 91.5 100.5t150.5 96.5l35 18q63 29 92 29q20 0 37.5 -11.5t38.5 -35.5l43 -47l12 -15l18 -26l17 -21l12 8l10 9l29 18l35 25l45 28q78 45 146.5 76t131.5 47l-38 -35l-43 -34q-59 -55 -80 -88t-21 -68v-531q0 -39 -22.5 -74.5t-94.5 -111.5l-43 -37 l-41 -43q41 -23 83 -48.5t85 -59.5l107 -90q16 -16 100 -17l-26 -18l-21 -15q-33 -23 -87 -51t-114 -53l-47 -21q-43 10 -63.5 22.5t-87.5 63.5l-17 13l-63 49q-61 49 -113 49q-20 0 -43 -6l15 6l41 19q39 18 63 36q92 59 129 106.5t37 94.5v696l-53 -30q-18 -14 -45 -37 t-56 -49q-6 -6 -28.5 -16.5t-34.5 -14.5l-12 27q-74 151 -143 151h-1q-45 0 -123 -53zM639 379l78 113q35 49 45 73.5t10 50.5v576q0 14 19.5 32.5t93.5 65.5q33 20 50 29.5t81 40.5q23 12 68.5 32.5t64.5 28.5q61 25 104 36t80 11q80 0 209 -90q43 -29 68 -57 q88 -100 88 -191q0 -129 -205 -299l-63 -49l-27 -16l-92 -61l-11 -7l-36 -24q57 -45 92 -86t86 -123l63 -98l27 -45l63 -101l7 -12q27 -51 38 -51q10 0 80 41l11 8q-45 -51 -62 -60q-250 -170 -272 -170q-8 0 -15 13q-14 35 -26 69l-86 136l-107 155l-6 8l-106 127 q-61 74 -105 74q-29 0 -57 -33l18 25q111 139 287 139h25q18 -4 26 -4q59 27 98 66q51 49 78 105t27 110q0 147 -158 229l-63 31q-117 51 -172 51q-14 0 -28.5 -4t-33.5 -10v-494q0 -31 -18.5 -62.5t-77.5 -101.5q-4 -6 -12 -16t-25 -27l-31 -26l-77 -76q-63 -59 -86 -70 l-9 -4z" />
<glyph unicode="S" horiz-adv-x="1390" d="M-57 94q33 66 80 113q88 90 155.5 128t136.5 38q33 0 79 -8.5t89 -36.5l6 59l5 41l4 39l14 145l2 25l8 78l-12 -17l-31 -32q-33 -41 -54.5 -60.5t-53.5 -46.5l-49 19q-102 45 -156.5 118.5t-54.5 169.5q0 158 151 334q43 51 115 111q84 68 138 101.5t103 51.5l31 -12 l23 -8l28 -12l66 -29q31 -12 53.5 -20.5t71.5 -20.5l43 -12q53 -12 97 -18.5t63 -6.5q29 0 47 6l51 29l16 8l35 18q-14 -20 -33.5 -39.5t-29.5 -27.5q-78 -53 -157 -105.5t-132 -52.5q-37 0 -117 13l-47 6l-4 -43l-2 -31l-4 -41l-8 -76l-11 -129l25 17l14 10q14 10 34 24.5 t44 36.5l53 31l56 -12q162 -39 242.5 -92.5t119.5 -141.5q35 -80 35 -141q0 -125 -137 -256l-37 -35l-109 -88l-43 -35l-39 -33l-24 -22l-49 -39q-55 -47 -103 -66q-78 -36 -121 -36h-2q-27 0 -62.5 12t-88.5 35l-47 20l-37 19l-88 43q-96 49 -140 58t-49 9q-12 2 -34 2 q-55 0 -125 -49q-6 -4 -17 -12q-10 -8 -26 -25zM342 1059q4 -35 27 -88q43 -88 76.5 -125t76.5 -53l13 104l22 201l12 106l-77 35l-15 6l-59 29q-5 2 -11 2q-20 0 -42 -29q-14 -23 -18.5 -48t-4.5 -69v-71zM518 313q39 -25 88 -37l6 76l6 58l48 477l14 205l4 38l4 54h-20 l-23 4l-22 4l-21 4l-6 -57l-10 -88l-13 -109l-12 -127l-12 -131l-12 -123l-9 -110l-4 -66zM641 258q25 -16 55.5 -29.5t87.5 -35.5l70 -21q25 -8 53 -8q78 0 130.5 67.5t52.5 178.5q0 66 -38 136t-106 132q-41 39 -94 70q-86 41 -131 47l-12 2l-19 2l-6 -64l-39 -416l-2 -18 z" />
<glyph unicode="T" horiz-adv-x="1548" d="M-72 793q0 98 12.5 145t57.5 111l65 79l23 27l61 78l25 27q96 104 153.5 140t112.5 36h891l45 2l109 2q88 0 117 4t92 24l-23 -22l-10 -10l-72 -74l-16 -19l-47 -43q-68 -51 -140.5 -75.5t-185.5 -24.5h-51h-14l-66 2h-31v-575q0 -20 -13 -43t-62 -76l-35 -35l-8 -6 l-84 -74l-31 -28l-12 -11q-12 -10 -29 -18t-31 -17q47 53 69.5 120t22.5 163v600h-118v-532q0 -25 -14.5 -57.5t-47.5 -88.5l-65 -88l-33 -41l-21 -24l-22 -23l-21 -20l-20 -21l76 -8q123 -18 188 -37l80 -26l8 -3l109 -34q12 -2 45.5 -11.5t52.5 -11.5q100 -24 152 -24h4 q45 0 74.5 17t70.5 62l14 19q-12 -41 -37.5 -73t-89.5 -83q-145 -119 -282 -119q-51 0 -113 13l-78 18l-41 10l-24 7l-99 26l-36 10q-164 39 -259 39q-102 0 -167 -53l36 45l99 64q123 80 167 185t44 345v94v146l-2 20q0 70 8 97.5t47 76.5l43 58l4 4q6 10 6 22h-346 q-61 -61 -61 -158q0 -33 6 -69.5t22 -79.5q10 -39 35 -76l-29 -31l-24 -26q-61 -57 -66 -62q-12 -10 -47 -38l-33 -29l-32 -25q-35 25 -46.5 59.5t-11.5 125.5z" />
<glyph unicode="U" horiz-adv-x="1521" d="M-43 1167l8 13l10 10q49 68 99 110q76 72 139 107t109 35h442v-721l360 291v198q0 14 -36.5 33t-83.5 33l-41 10q18 16 45.5 36.5t42.5 31.5q141 88 190 88q18 0 38.5 -9.5t47.5 -29t37 -31.5t10 -22v-1041q6 -10 14.5 -23.5t34.5 -49.5q47 -70 86 -70q7 0 27 4 q-41 -55 -92 -99t-121 -77l-49 -21l-92 76q-68 68 -68 105q0 18 8 34l-26 -10l-58 -55l-45 -35q-145 -115 -313 -115q-76 0 -160 25q-162 49 -271.5 192.5t-135.5 354.5q-4 27 -6.5 79t-2.5 54q0 92 30 149.5t106 118.5q16 16 49 35l63 45l41 25l41 26q33 23 55 41 q12 10 23 21v90h-336q-55 0 -90 -8.5t-96 -36.5zM358 860q0 -35 7 -82l8 -51l6 -39l16 -80q12 -53 26.5 -79.5t43.5 -51.5q37 18 45 45t8 121l2 463l-16 -10l-15 -9l-32 -26q-98 -86 -99 -201zM479 444l58 -53q12 8 32 23q57 43 219 172l142 112l139 117l57 47l-2 101 l-63 -52q-98 -78 -168 -133q-100 -80 -166 -135l-100 -82l-62 -49l-33 -29zM565 356q27 -39 65 -65.5t136 -72.5t192 -46q88 0 166 43v64v469v63l-41 -33l-10 -8l-80 -63l-47 -39l-143 -117l-15 -10l-55 -45l-84 -72l-33 -27z" />
<glyph unicode="V" horiz-adv-x="1744" d="M-287 1044l11 17l4 6q14 18 24 27q20 20 58 49l71 59l45 39l49 37q66 45 105 64.5t78 19.5q37 0 83 -22.5t121.5 -72.5t129.5 -130l20 18l16 12l9 9l92 57l123 92l41 33q88 61 140 83.5t118 22.5q41 0 133 -10q225 -29 355 -163t130 -324q0 -123 -57 -250 q-74 -158 -211 -303q-147 -158 -383 -316q-51 -35 -103.5 -65.5t-107.5 -57.5l-68 60q-115 100 -186.5 140t-134.5 40q-12 0 -41 -4t-45 -10q-10 -4 -41 -21l39 35l20 16q76 59 107 82q92 70 151 113l621 463l117 86l-7 18q-14 41 -39 78l-118 -90l-613 -465l-116 -90 l-156 -115l-43 -32l-61 -43q47 41 75 83q55 76 82 136.5t27 126.5q0 111 -92 280q-82 156 -197 234q-101 69 -160 69h-2q-39 0 -88 -32l-33 -23l-26 -18l-21 -15zM485 522l76 56l6 4l623 473l82 61q-47 53 -112.5 83t-182.5 44l-125 6q-72 0 -104.5 -4t-65.5 -16 q-70 -29 -106.5 -52.5t-61.5 -52.5l4 -14l19 -66q16 -49 26 -91t12.5 -65.5t2.5 -62.5q0 -106 -70 -260zM664 401q70 0 122 -28.5t125 -110.5l33 -37q35 -45 51.5 -62.5t36.5 -27.5q76 57 130.5 128t101.5 181q55 129 80.5 221.5t25.5 168.5v59q-6 25 -8 35l-57 -43l-17 -13 l-174 -129l-178 -135l-29 -22l-174 -129l-31 -25z" />
<glyph unicode="W" horiz-adv-x="2093" d="M-143 1219l22 22l29 29l51 45q68 59 112 83.5t85 24.5q33 0 71.5 -13t110.5 -46q20 -8 43 -25q10 -8 45 -32v-131l18 8l11 6l8 6l67 57l21 19l78 61l30 23q27 20 64 45q45 31 72 31q25 0 67 -17q66 -29 117 -49q27 -10 55.5 -26.5t42.5 -22.5v-107l23 15l12 10l90 72 l21 16l90 70l100 73q43 31 60 31q23 0 108 -53q18 -10 31 -19q8 -6 61 -47q168 -135 256 -294.5t88 -311.5q0 -43 -6 -84q-25 -127 -47 -170t-135 -168l-53 -55l-60 -59l-92 -89q-63 -66 -105 -100.5t-94 -69.5q-41 6 -69.5 17.5t-95.5 50.5l-50 29q-41 23 -66.5 35 t-43.5 18q-35 14 -68 20.5t-55 6.5q-27 0 -45 -7l-6 -4l-45 -24l-27 -15q57 88 132 156t362 295l61 49l47 35l176 133l19 14l73 56l-26 53l-10 18l-11 21q-76 -57 -158.5 -121.5t-136.5 -107.5l-45 -35l-172 -144l-121 -98l-30 -29l-31 -24l-57 -53l-25 -25l-4 -6l-25 -43 q-16 -31 -55 -72q-45 -49 -100 -92q-70 -55 -168 -107q-29 6 -39 15l-6 2l-68 43l-41 24q-92 55 -161.5 81t-127.5 26q-35 0 -75 -10l-29 -11l68 56q45 35 60 54t26 54v830l-29 16q-111 66 -217 66q-12 0 -28.5 -2t-24.5 -2zM291 360q49 0 100 -10t105 -28q29 -6 57 -23 l94 -49l39 -25l31 -20l16 -10l25 -17q59 27 59 90v865q-27 14 -37 20q-33 18 -57 29q-127 49 -166 49q-29 0 -51.5 -16.5t-65.5 -63.5l-14 -18v-558q0 -35 -9 -59t-33 -48l-36 -36t-33 -39l-8 -12zM1022 473l65 53l150 121l184 148l152 120l65 54q-33 45 -70.5 81.5 t-99.5 82.5q-45 33 -90 63q-31 20 -57 37q-80 43 -115 43q-39 0 -110 -80l-19 -22v-568q0 -78 -55 -133zM1145 330q35 6 61 6q39 0 119 -23l102 -37l41 -20l64 -25l41 -18l59 -25q49 27 69.5 74t47.5 203q18 121 18 180q0 70 -28 143l-62 -47l-329 -252l-43 -32l-101 -80z " />
<glyph unicode="X" horiz-adv-x="1286" d="M-86 -141l10 10l6 6l66 43l24 16q207 154 284 261.5t134 324.5l23 90l4 17v20l-90 4q-68 0 -143.5 -1t-159.5 -27l10 20l8 14l12 17q94 123 124 141.5t122 18.5l78 -3q0 61 -55 173l-25 43l-6 10q-12 20 -20.5 34.5t-20.5 28.5q-104 135 -178 135q-29 0 -60 -18l9 6 l65 41q84 57 140.5 87t132.5 59q43 -23 74.5 -55t82.5 -107q23 -29 38 -75t28 -122l8 -53l4 -37l2 -14q43 168 154 333q74 109 103.5 141t74.5 46q106 -70 194 -166l21 -27q-10 -10 -39 -32q-41 -33 -109 -78l-61 -39q-23 12 -49.5 30.5t-59.5 47.5q-23 20 -38 20 q-20 0 -48 -57l-45 -109l-20 -67q-14 -63 -14 -148v-28l39 -5h40q88 0 148.5 5.5t130.5 21.5q2 -8 2 -27q0 -47 -51 -110q-37 -45 -62.5 -55.5t-91.5 -10.5l-90 -2l-18 -2l-25 -2q6 -61 25.5 -111.5t58.5 -107.5t150 -149q25 -25 49 -43.5t51 -38.5q104 -78 152.5 -104 t111.5 -38q-59 -37 -130 -56t-195 -19h-74q-37 31 -64 57q-35 35 -71 86q-100 131 -135 202.5t-35 143.5q0 25 2 37l-11 -19l-8 -16l-2 -6l-31 -41l-8 -12l-53 -88l-31 -43q-51 -76 -103 -126.5t-159 -127.5q-117 -88 -178 -121t-129 -47z" />
<glyph unicode="Y" horiz-adv-x="1372" d="M-115 -279q31 31 69 65t107 91l107 86l33 27l147 108l-26 11l-29 12q-119 47 -238 47l29 25l53 51l21 18q41 41 41 88v801q0 6 -9 14q-8 8 -42.5 35t-70.5 40t-77 13q-23 0 -35 -2l23 23l18 18l37 33q78 68 116 95.5t60 27.5q20 0 70 -27l106 -51l39 -20l45 -25v-74 l41 37q23 25 44.5 42.5t43.5 35.5q41 33 82 61q49 35 76 35q12 0 48 -10t56.5 -15t54 -11.5t89 -12.5t72 -7t63.5 -1h47q18 4 25 4q96 10 178 43l-64 -37q-111 -76 -149.5 -208t-38.5 -423q0 -66 15.5 -135t49.5 -184l41 -121l17 -51q23 -63 22 -105q0 -88 -233 -286 q-39 -33 -107.5 -80t-169.5 -111q-76 -47 -140 -78.5t-124 -54.5l-39 16l-22 11l-51 18l-72 33l-39 14q-78 27 -148.5 46.5t-121.5 19.5h-9l-77 -12zM156 -90q49 8 66.5 9t29.5 1q84 0 229.5 -45t208.5 -74q78 -37 109 -37q37 0 116 48q57 33 83 69.5t26 98.5q0 57 -33 161 q-2 16 -4 21l-8 16l-8 21l-8 24l-21 -10l-12 -6l-76 -49l-45 -33l-80 -51q-111 -61 -137 -62q-12 0 -29.5 6.5t-44.5 16.5l-82 35l-12 6l-23 8l-32 10l-33 -24l-49 -37l-97 -84l-14 -17zM319 358q154 -27 324 -98l59 -22l89 -39q39 -14 57 -15q33 0 94 49l12 13 q-39 117 -55 250q-6 78 -6 135q0 72 8 127l2 14l2 12l-55 -41l-6 -6l-150 -102q-172 -121 -184 -129q-100 -72 -137 -105l-23 -16zM418 477l28 19l17 12l117 82q125 86 145 100q68 47 127 94l18 15l33 26l4 33l4 35l9 47l-23 -14l-10 -11l-86 -61l-234 -168l-47 -33l-53 -37 q0 -53 -25 -96zM471 662l49 30q57 37 121 82q76 55 127 92l115 82l18 17l29 16q8 55 34.5 109.5t71.5 103.5l41 43l-26 2l-13 2l-110 2h-140h-32h-23q-57 0 -76 6l-82 15q-70 0 -104 -50v-552z" />
<glyph unicode="Z" horiz-adv-x="1632" d="M70 991q0 55 36 111q47 70 170 174l91 74q86 63 111.5 76.5t64.5 13.5h43l133 -8l39 -5l114 -10l27 -2l111 -8h55q47 0 65.5 2t65.5 18l27 11l26 8q11 6 62 12l-84 -102l-60 -72l-86 -102l-215 -256l-342 -408q-197 -231 -233 -270q-43 -47 -131 -119q59 98 178 244 l88 106l39 49l63 74l41 49l19 21l24 28q-16 -6 -34 -6q-41 0 -115 43q-10 6 -19 13q-20 14 -30 26l59 47l125 82q61 43 72 43q8 0 25.5 -13t31.5 -23.5t47 -18.5l35 37l27 31l26 30l60 72l65 82l23 26l39 50l28 32l4 4l19 25q-61 -37 -125 -49t-187 -12l-223 6l-170 8l-16 2 l-84 -6q0 -39 10 -64l43 -84l8 -16l23 -43l-27 -29q-51 -51 -106.5 -91t-112.5 -68q-27 20 -45 56t-18 99zM223 74q43 51 82 86l12 10l33 25q16 12 43 43q37 43 107 129l239 297l283 344q94 113 178 211q102 119 193 202q-10 -45 -27.5 -72.5t-101.5 -127.5l-150 -179 l-127 -151l-53 -66q31 -4 49 -10q57 -18 102 -63l-28 -27l-27 -27l-106 -88l-29 -22l-33 -25q-27 4 -53 10q-23 10 -33 15l-35 14l-61 -76l-115 -141l-24 -31l-35 -45l45 13l18 2l39 4q43 6 74 6q25 0 51.5 -5t69.5 -18l174 -59l20 -4l181 -55q119 -37 174 -37q35 0 82 12 q-10 49 -27.5 74.5t-85.5 93.5l-51 55q47 53 90 78q133 80 164 80q29 0 63 -35q14 -14 55 -59q14 -14 30 -38.5t30 -51.5l-21 -25l-18 -18q-74 -70 -182 -150q-29 -20 -72 -50t-88 -54q-162 -88 -277 -88q-57 0 -108 14l-68 16l-73 23l-158 43l-39 10l-111 29 q-68 18 -104 18q-41 0 -119 -39z" />
<glyph unicode="[" horiz-adv-x="645" d="M195 -291q0 102 6 266q14 385 14 607q0 328 -4 523t-16 316h448q-27 -43 -37 -86l-225 13v-1565q127 0 262 16l-37 -90h-411z" />
<glyph unicode="\" horiz-adv-x="1097" d="M66 1270q0 33 6 86l6 45l4 22l6 25q68 -72 127 -143.5t199 -251.5l215 -279l59 -80l234 -315q96 -131 112.5 -171t16.5 -151q0 -39 -9 -77l-57 61l-41 47l-233 285l-191 235l-92 115l-55 70l-183 237q-49 63 -81 111q-43 63 -43 129z" />
<glyph unicode="]" horiz-adv-x="645" d="M2 -291q27 43 37 86l225 -12v1565q-127 0 -262 -17l37 90h412q0 -102 -7 -266q-14 -385 -14 -606q0 -328 4.5 -523.5t16.5 -316.5h-449z" />
<glyph unicode="^" horiz-adv-x="1228" d="M188 584l371 747h111l370 -747h-122l-304 600l-303 -600h-123z" />
<glyph unicode="_" horiz-adv-x="1024" d="M0 -307h1024v-103h-1024v103z" />
<glyph unicode="`" d="M279 1399l8 22l30 -4q23 0 80.5 20.5t91.5 37.5q33 -45 84 -99l168 -164l-84 -61q-61 43 -217 137q-129 78 -161 111z" />
<glyph unicode="a" horiz-adv-x="985" d="M61 229q0 82 119 154l125 74l6 4l123 61l86 39l10 4l13 8l24 15q-2 20 -4 28q-8 20 -10 31q-35 113 -89 169t-110 56q-23 0 -43 -10l-37 -31l-10 -8l-33 -28q14 47 48 80.5t114 78.5l53 25q98 51 148 51q59 0 166 -86q57 -45 79.5 -76.5t22.5 -56.5v-678l-295 -151v178 l-78 -47l-71 -41l-88 -49q-66 -39 -117 -39q-82 0 -131 147q-20 55 -21 98zM301 352q0 -18 6 -36.5t19 -53.5q43 -104 133 -104q41 0 88 20l20 10v361q-20 -6 -41.5 -12.5t-56.5 -22.5q-168 -86 -168 -162z" />
<glyph unicode="b" horiz-adv-x="1208" d="M109 1303l65 30l12 4l93 31q33 10 49 13t34 3q57 0 58 -102v-381l29 27l28 22l35 23q90 66 92 65q57 39 80 39q14 0 30.5 -9t28.5 -15l64 -35l24 -14l43 -29q59 -37 87 -62q78 -55 107 -95t54 -116q16 -55 17 -110q0 -35 -6.5 -71t-20.5 -72q-29 -78 -76 -127.5 t-151 -112.5l-11 -8l-94 -51l-28 -19l-101 -59l-125 -66q-45 -26 -78 -26h-2q-33 0 -104 38q-37 16 -76 48q-74 55 -108.5 109t-34.5 108v888q0 12 -2 34t-6 50l-4 31zM416 520q0 -74 7 -102.5t44 -98t91 -131t126 -61.5q82 0 129 80q39 66 39 176q0 63 -14 129 q-14 74 -37 113t-92 108l-68 58q-72 55 -109.5 74.5t-72.5 19.5q-10 0 -39 -4v-47q0 -78 -1 -156t-3 -158z" />
<glyph unicode="c" horiz-adv-x="917" d="M61 492q0 104 33 182q63 129 109 155l39 23l30 16l64 33l117 57l112 50q47 18 62 18q31 0 200 -104q44 -25 95 -68l-64 -49l-6 -4l-117 -66q-72 -43 -84 -43q-14 0 -63 43q-63 55 -98 77t-91 40q-31 -37 -40 -78t-9 -139v-60q6 -49 20.5 -91t50.5 -100t73 -99 q66 -78 114.5 -109t106.5 -31q20 0 30 2l-40 -26l-27 -17l-19 -8l-129 -73q-78 -45 -112 -46q-23 0 -49.5 14.5t-66.5 44.5t-74.5 66.5t-67.5 83.5q-78 109 -94 232q-2 25 -3.5 43t-1.5 31z" />
<glyph unicode="d" horiz-adv-x="1198" d="M61 492q0 106 52.5 198t154.5 160l60 37l100 47l10 6l35 18l-37 35l-16 15l-80 75q-59 53 -59 78q0 23 45 58l96 71l18 13q4 4 17 12q8 6 35 20q90 57 126.5 77t73.5 30l-71 -53q-72 -53 -72 -70q0 -16 100 -109l33 -28l133 -111q322 -264 322 -455q0 -90 -62.5 -180 t-191.5 -192l-88 -72l-62 -47q-78 -61 -143.5 -98t-128.5 -58q-57 14 -101.5 43t-123.5 107q-86 86 -130.5 182t-44.5 191zM338 641q0 -72 34 -134.5t124 -164.5l26 -31l25 -24l61 -62q37 -37 61.5 -52t57.5 -26q31 20 52.5 42t37.5 53q41 63 41 147q0 59 -17.5 120.5 t-58.5 139.5q-29 53 -67 101q-45 55 -111 110q-18 18 -45 36.5t-59 37.5q-57 -16 -94 -59.5t-54 -122.5l-10 -54q-2 -14 -3 -31.5t-1 -25.5z" />
<glyph unicode="e" horiz-adv-x="874" d="M61 485q0 92 35 166t101 140q37 35 72.5 59t101.5 59l41 23l110 55q23 10 52.5 27.5t41.5 17.5q23 0 144 -106q62 -55 117 -135l-31 -23l-25 -16l-16 -11l-107 -84l-145 -104q-100 -74 -123 -90l-18 -17l-31 -26q23 -33 52.5 -69t58.5 -62q18 -20 37.5 -35.5t41.5 -32.5 q53 -41 85 -57.5t63 -16.5q8 0 33 5l-43 -27l-68 -41l-72 -43q-31 -18 -61 -35q-41 -24 -61 -24h-1q-16 0 -38.5 11t-65.5 34.5t-109 78.5q-90 82 -131 176.5t-41 202.5zM313 625q0 -51 14.5 -96.5t41.5 -84.5l34 21l31 22l109 86l35 29l28 25q-29 51 -52.5 76.5 t-113.5 97.5l-65 51q-8 -16 -15.5 -30.5t-15.5 -37.5q-31 -86 -31 -159z" />
<glyph unicode="f" horiz-adv-x="661" d="M-51 692l14 15l10 8q23 23 121 90l35 18v33l2 45l4 68q14 125 30.5 166t74.5 79l51 35l20 15l95 55l28 12l82 43q45 23 92 47q23 10 33 11q27 0 135 -115q20 -25 40.5 -48.5t45.5 -60.5l-33 -22l-28 -17l-113 -67l-35 -21l-30 -16q-41 29 -74 58.5t-86 90.5l-43 35v-362 l82 -4h12l139 4h19h63q-27 -53 -59 -78q-76 -66 -99.5 -82t-44.5 -16q-31 6 -59 8q-12 2 -53 -8v-557q0 -84 47 -131q-25 -16 -49 -17q-23 0 -84 19q-12 4 -47 -7.5t-109 -48.5q-12 -6 -55 -6v737h-78z" />
<glyph unicode="g" horiz-adv-x="1191" d="M-33 -223l103 59l32 19l134 67l86 45q-57 37 -105 86q-158 164 -158 342q0 111 62.5 232t119 175t197.5 126q86 45 199 76h526q-49 -16 -74.5 -54.5t-52.5 -146.5q-8 -29 -13 -50.5t-10 -69.5t-9.5 -88t-4.5 -77q0 -59 12.5 -112.5t35.5 -108.5l16 -45l18 -37 q18 -41 30.5 -81t12.5 -71q0 -72 -60 -142.5t-204 -164.5l-102 -65l-33 -19l-49 -32l-25 -15l-53 -31q-88 -51 -162 -59q-14 -2 -45 -2q-70 0 -137.5 23.5t-140 75t-125.5 116.5zM285 -88q18 -43 53 -71.5t125 -69.5q117 -55 196 -56q51 0 107 15q150 37 149 139 q1 43 -28 106q-29 61 -58.5 99.5t-66.5 68.5l-51 -24l-68 -29l-49 -24l-51 -25l-90 -43l-72 -33l-45 -24l-21 -13zM334 565q0 -147 104 -280q59 -76 115.5 -112t108.5 -36q51 0 92 37l-9 27l-6 26l-12 54q-18 104 -18 180q0 129 51 203q43 63 62.5 99t31.5 71l-31 2h-18 h-250l-117 -2h-20h-27l-22 -60q-35 -113 -35 -209z" />
<glyph unicode="h" horiz-adv-x="1171" d="M96 1290q20 10 48 21.5t44 15.5l111 39q43 14 70 14q29 0 39 -21.5t10 -78.5v-428l67 47l27 19l104 71q27 18 50 33q33 20 51 20t84 -36l30 -19q137 -90 207 -197.5t70 -220.5q0 -127 -80 -237l-35 -41l-59 -64q-4 -6 -4 -10q-6 -18 -6 -31l20 7l23 4l34 10l33 10 q-25 -25 -43 -37t-86 -45l-57 -29l-68 -34l-37 -21l-73 -37l-8 -4l-33 -16q72 43 119 104q100 125 100 269q0 193 -174 350q-76 70 -119 97.5t-76 27.5q-29 0 -61 -23v-719l-295 -120v1191q0 55 -4 73t-23 46z" />
<glyph unicode="i" horiz-adv-x="542" d="M37 889q51 41 86 63q156 96 199 97q45 0 90 -101q8 -25 8 -37v-673q0 -31 5 -56.5t46 -36.5q28 -1 55 13l-34 -23l-35 -22l-13 -7l-147 -79q-76 -41 -111 -41q-41 0 -59 77l-4 39v633q0 113 -86 154zM80 1227l88 67q68 45 101.5 63.5t56.5 18.5q35 0 131 -90l18 -18 l-57 -43l-117 -68q-59 -35 -84 -35q-37 0 -115 78z" />
<glyph unicode="j" horiz-adv-x="544" d="M29 848q82 96 231 174l41 18q74 -45 130 -189t56 -345q0 -121 -19.5 -245t-64.5 -263l-34 -107q-16 -31 -47 -61.5t-86.5 -68t-93.5 -57t-70 -26.5q31 29 41 57.5t10 96.5v145v764q0 14 -6 27.5t-32 39.5t-56 40zM53 1206q41 57 90 90q121 80 158 80q35 0 127 -86l18 -20 q-33 -33 -57 -49l-115 -68q-25 -16 -46 -28.5t-38 -12.5q-16 0 -124 84z" />
<glyph unicode="k" horiz-adv-x="1079" d="M109 1278q0 18 13 28.5t50 20.5l25 6l102 35q53 16 74 16q27 0 37 -21.5t10 -76.5v-416l57 33l23 15l116 69l39 25q33 20 57.5 31.5t43.5 11.5q33 0 61.5 -31t79.5 -115q59 -96 59 -151q0 -72 -100 -146l-127 -71l-8 -4l-35 -21q53 -33 80 -56.5t90 -97.5l100 -112 q57 -68 80 -87.5t64 -37.5l-25 -19l-33 -18q-115 -70 -229 -115q-59 33 -98 72q-20 18 -76 82l-107 121q-55 63 -69 76.5t-43 21.5v-278l-297 -95v1207q0 31 -7 59.5t-7 38.5zM420 389l51 29l94 57l10 4l76 43q29 29 29 74q0 31 -16 76q-39 111 -74 159t-76 48 q-33 0 -80 -25l-14 -8v-457z" />
<glyph unicode="l" horiz-adv-x="542" d="M109 1286q20 14 53 32.5t49 24.5q104 43 143 43q45 0 64 -88l2 -22v-909l4 -43q20 -92 56 -143.5t93 -74.5q-37 -27 -77.5 -45t-124.5 -45l-107 -34q-98 51 -133 196q-6 25 -6 29q-2 12 -2 33v927v15l-4 35z" />
<glyph unicode="m" horiz-adv-x="1679" d="M-4 831l61 60l11 6l98 76q61 49 100 49q31 0 54.5 -28.5t54.5 -102.5l24 -55q47 25 98.5 56.5t125.5 82.5q27 20 56.5 32.5t47.5 12.5q41 0 94 -53l99 -88l14 -17l43 -37l43 33q23 16 43 31.5t41 25.5q164 104 209 105q31 0 62.5 -20.5t90.5 -69.5l39 -35q27 -25 41 -43 q4 -4 8 -10v-602q0 -49 52 -101q32 -33 98 -33q-49 -41 -102 -69q-66 -29 -91 -39q-66 -29 -90 -29q-37 0 -133 103q-29 33 -28 88v547q0 12 -16.5 32.5t-57.5 55.5q-61 49 -105 49q-31 0 -55 -25l-37 -31v-722l-299 -97v738q0 16 -30.5 46.5t-71.5 59.5t-68 29 q-35 0 -88 -41l-14 -17v-718l-295 -105v776q0 37 -22.5 63.5t-59.5 33.5q-16 2 -23 2q-6 0 -22 -5z" />
<glyph unicode="n" horiz-adv-x="1163" d="M43 872l27 23l75 53q109 68 154 68q61 0 107 -162l12 -18l26 20l27 16l133 76l98 45q78 31 109 31q35 0 141 -57q59 -33 78 -73t19 -140q0 -29 -4.5 -180.5t-4.5 -282.5q0 -31 11.5 -52.5t34 -48t71.5 -38.5q-18 -20 -31.5 -31.5t-23.5 -20.5q-195 -129 -215 -129 q-18 0 -43 21q-37 35 -66 61q-14 12 -24.5 27.5t-10.5 32.5v635q-8 16 -16 26q-27 33 -84 66q-46 30 -87 30h-3q-45 0 -109 -41l-24 -20v-739l-297 -107v770q0 55 -53 115z" />
<glyph unicode="o" horiz-adv-x="1228" d="M63 438q0 70 3.5 102.5t17.5 77.5q37 115 62.5 145t146.5 101q14 10 35 21q43 23 59 30q225 117 336 117q76 0 168 -43q82 -35 143 -103.5t92 -158.5q29 -96 29 -168q0 -172 -178 -317l-57 -43l-37 -23l-117 -72l-88 -57q-94 -59 -203 -59q-141 0 -252.5 100t-148.5 285 q-2 10 -5 27.5t-6 37.5zM328 590q0 -133 45 -220t151 -165q47 -31 86 -49q68 -29 115 -29q147 0 147 233v60q0 133 -44 224t-138 165q-76 57 -145 82q-53 16 -80 16q-35 0 -56.5 -21.5t-43.5 -82.5q-6 -18 -14.5 -44t-12.5 -54l-8 -54z" />
<glyph unicode="p" horiz-adv-x="1126" d="M-39 717l19 18l10 10q39 31 67 52q8 6 97 65q25 16 48 29.5t31 17.5q72 37 93.5 46.5t42.5 9.5q31 0 30 -43q0 -29 -4 -37l54 18l114 92q74 55 94 56q12 0 33 -11q10 -4 49 -28l35 -23q261 -172 281 -403q0 -102 -25 -154q-31 -63 -131 -143q-37 -33 -154 -107l-83 -49 l-142 -78q-53 -30 -82 -30h-2q-14 0 -41 10v-365l-272 -129v647h-25l-22 2l-37 3l-35 2l27 24l26 25l33 26l33 27v500l-55 -29l-50 -23zM395 365l45 -29l29 -19l139 -88l76 -49q135 53 135 201q0 72 -37 150.5t-116 162.5q-27 31 -65 64t-69 51q-76 47 -110 47q-10 0 -27 -4 v-487z" />
<glyph unicode="q" horiz-adv-x="1269" d="M61 432q0 193 172 346q35 33 74 58q55 33 99 57l26 12l33 23l55 33l35 18q39 23 74 33t86 10q43 0 63.5 -2t75.5 -14q135 -27 214 -116t79 -204v-1026l-281 -119v598l-59 -35l-123 -77l-6 -4q-86 -49 -176 -50q-78 0 -178 45q-59 27 -105 72q-53 45 -89 103.5t-52 119.5 q-8 25 -12.5 57.5t-4.5 61.5zM328 594q0 -193 155 -328q90 -82 189 -106q25 -6 55.5 -11.5t52.5 -5.5q49 1 86 19v413q0 47 -37 103q-43 63 -114 108q-51 33 -91 43.5t-76 17.5t-61 7q-68 0 -101.5 -42t-51.5 -144z" />
<glyph unicode="r" horiz-adv-x="839" d="M29 858q12 16 22 26.5t25 22.5l121 76q66 39 77 39q16 0 37 -16q33 -31 61.5 -56.5t53.5 -77.5l41 23l22 10l31 19l103 61q61 37 77 37q14 0 60 -59q16 -25 25.5 -36.5t50.5 -58.5l30 -37l17 -18q-29 -31 -60.5 -56.5t-103.5 -70.5l-31 -20q-59 -61 -59 -144l-2 27 q-8 53 -31 92l-68 88l-75 96q-14 10 -33 17v-746l-297 -121v680l-2 35q-18 121 -92 168z" />
<glyph unicode="s" horiz-adv-x="1191" d="M61 557q0 92 70 178t213 168q41 23 73 38t70 30q115 51 158 51q47 0 191 -68l120 -67q-23 -25 -49 -47.5t-82 -57.5l-82 -53l-30 -20q-55 20 -86 34.5t-125 59.5l-35 18q-49 23 -76 23q-47 0 -52 -37t-5 -53v-23q4 -16 4 -24q14 -94 43 -139.5t88 -71.5l31 24l53 39l10 8 l119 86q80 55 115 56q31 0 98 -31l82 -49q149 -103 149 -182q0 -78 -139 -195q-39 -31 -90 -66q-68 -45 -152 -92l-69 -37q-174 -84 -246 -84t-227 78q-35 16 -58 33q-37 27 -55 41l25 16l35 29q70 47 116 78q55 37 107 65l26 -14l19 -10l14 -10l76 -52l45 -24 q63 -33 105 -46.5t90 -13.5q55 0 85.5 25t30.5 65q0 14 -6 33q-16 63 -113 144q-125 104 -190 104q-27 0 -53 -16l-66 -64l-28 -26q-145 -117 -187 -117q-25 0 -46 20.5t-56 69.5q-18 23 -29 51q-29 68 -29 125z" />
<glyph unicode="t" horiz-adv-x="690" d="M-43 797q117 82 238 176q150 115 280 233v-41v-22v-86v-17l-2 -45l29 2l18 2h103l34 2h78l-16 -24l-12 -19l-23 -28q-76 -92 -97.5 -108.5t-76.5 -16.5l-37 2l2 -451q4 -8 6 -16q6 -16 19 -39q53 -106 133 -139l-21 -23l-22 -26q-43 -47 -79 -76t-89 -64l-35 15 q-31 16 -47 25.5t-45 29.5q-61 49 -89 92t-28 82l-2 582l-37 -2h-12l-92 -4z" />
<glyph unicode="u" horiz-adv-x="1163" d="M29 852q14 20 28.5 33.5t24.5 21.5l4 4l113 70q66 41 82 41t42.5 -27.5t45.5 -46.5q29 -37 32 -41q12 -23 19 -33v-630q0 -16 20.5 -41t65.5 -47q18 -12 45 -13q37 0 108 31q45 16 86 51v480q0 20 -13 46.5t-50 71.5l-25 25q27 49 60 72q68 51 86 65q55 41 78 41 q18 0 39 -16q10 -8 50 -50t55 -65t15 -33v-631q0 -8 10.5 -20t22.5 -23.5t37 -21.5l-29 -21l-16 -12l-127 -98l-84 -55q-33 33 -47 58t-47 105l-29 43q-33 -31 -64.5 -57.5t-58.5 -42.5q-168 -109 -225 -109q-41 0 -86 29q-33 20 -115 92q-59 51 -59 99v536q0 10 -14.5 31.5 t-57.5 66.5z" />
<glyph unicode="v" horiz-adv-x="1220" d="M-29 788l31 31l27 25l20 18q174 141 213 142q27 0 57 -35q14 -16 41 -56l21 -32l20 -39l5 -11l22 19l14 12l23 19l45 43l31 26q160 119 274 119q27 0 51 -6q201 -35 262 -203q20 -61 21 -112q0 -106 -74 -224q-80 -125 -258 -288q-94 -86 -180 -152t-174 -119 q-53 68 -86 144q-23 53 -74 178l-110 260q-59 137 -100.5 182t-121.5 59zM418 819q14 -59 26 -90q29 -72 60 -143l78 -185q31 -74 63 -147q14 -29 49 -84q88 47 147.5 149.5t59.5 212.5q0 33 -6 68q-23 125 -99.5 196.5t-185.5 71.5q-78 0 -117.5 -10t-74.5 -39z" />
<glyph unicode="w" horiz-adv-x="1792" d="M2 829l137 105l86 53q20 12 44 22.5t44 10.5q10 0 27.5 -7t38 -28.5t31.5 -42.5l45 -84l168 100q49 29 111.5 59t82.5 30q41 0 74 -19q20 -12 59 -47l133 -121q-4 -25 -2 -37q4 -31 10.5 -45t8.5 -22l182 -486q8 -23 13 -39t18 -16q16 0 49 31q78 68 111 114 q45 63 45 129q0 111 -34 194t-77 118q-59 47 -80 57q-59 31 -147 31q-47 -4 -93 -21q14 12 164 109q49 31 152 96q10 2 31 2q68 0 138 -32.5t118 -94.5q82 -104 82 -213q0 -63 -37 -125q-70 -106 -154 -198q-59 -66 -102 -99l-402 -348l-311 699q-41 92 -86 145 q-59 68 -127 68q-29 0 -60.5 -16.5t-27.5 -31.5l135 -292l121 -281l33 -94q1 -4 1 -8q0 -25 -50 -60q-29 -18 -58 -37l-129 -90l-51 92l-123 289l-145 330q-10 23 -36 61.5t-52 67.5q-18 20 -36 28.5t-34 8.5q-14 0 -25 -4q-8 -6 -14 -11z" />
<glyph unicode="x" horiz-adv-x="1105" d="M-90 -219l70 57l200 176q92 78 139 152q35 55 68 149q14 43 14 74q0 57 -34 57q-12 2 -35 3h-35l-168 -21l219 160q-16 72 -60 125t-153 121l-35 22l78 84q109 90 168 90t156 -90l35 -35l63 -59l178 151q31 27 35 29q31 23 64 23q31 0 73 -15l178 -61q-23 -41 -44 -63.5 t-107 -98.5l-66 -59l-92 34q-98 33 -145 33h-37q-20 -6 -29 -8q14 -47 21 -74q20 -70 35 -108l309 14q-25 -27 -51.5 -48.5t-42.5 -33.5q-84 -61 -127 -82.5t-88 -29.5q27 -43 46 -65t72 -60q63 -47 97 -72q106 -78 131 -90l-54 -51l-43 -33q-123 -96 -157 -96 q-31 0 -119 69l-180 148l-117 -113q-37 -39 -78 -72q-25 -20 -84 -63q-76 -55 -121 -86q-61 -43 -94 -58z" />
<glyph unicode="y" horiz-adv-x="1159" d="M-29 768q12 14 19 23q18 23 30 34q61 72 117 105t96 33q43 0 58 -31q70 -139 131 -301q4 -14 16 -39q37 -68 76 -143l45 -89l33 -59l43 -84q33 20 62.5 52t56.5 81q53 92 53 195q0 147 -107 248q-79 77 -170 77h-2q-31 0 -59.5 -7t-69.5 -40l13 17l10 12q23 29 44 50.5 t58 51.5q133 119 242 119q84 0 188 -69q16 -14 32 -26.5t32 -35.5q55 -78 55 -172q0 -111 -72 -231q-78 -133 -235 -267l-59 -51l-43 -41q-45 -41 -125 -123q-53 -55 -88 -92l-21 -20l-14 -19q33 10 59.5 12.5t69.5 2.5q80 0 184 -41l59 -21l13 -4l51 -10l-33 -31l-22 -18 l-119 -97q-20 -16 -44 -34.5t-40 -18.5q-10 0 -28.5 5t-53.5 18l-35 10q-115 31 -149.5 38t-51.5 5l-79 -16l-7 -2l-24 -5l12 13l58 55q113 119 159 188l-28 68l-31 63l-47 99l-47 100l-113 219q-63 125 -84.5 159t-73.5 85z" />
<glyph unicode="z" horiz-adv-x="1181" d="M-143 -182l24 30q217 248 291 248q39 0 88 -20.5t92 -38.5q18 -6 37 -14q4 -2 21 -13l174 -88q96 -51 127.5 -64.5t87.5 -25.5q55 61 55 145q0 82 -55 168q-92 135 -258 136q-27 0 -57.5 -6.5t-51 -13.5t-59.5 -28l16 25l10 21q14 25 34 50l40 50l227 258l15 18l63 82 h-24l-15 2l-28 2l-80 9l-144 4l-14 2h-121q-82 0 -102.5 -7.5t-71.5 -56.5l-37 -39l-6 -6q66 104 205 240l88 80q39 29 70 49q44 28 83 28h3q37 -4 63 -6l109 -12l22 -4l51 -8l80 -15q66 -12 103 -12q37 1 82 17l-21 -29l-12 -14l-113 -136l-143 -161l-82 -97l-41 -43 l-20 -24l-31 -35q70 41 147 41q80 0 148.5 -43t122.5 -133q63 -100 63 -183q0 -104 -96 -196l-33 -29l-8 -6l-74 -55l-12 -11l-70 -51l-41 -30l-67 -48l-17 -12l-82 -53q-49 -35 -80 -35q-25 0 -65 21l-121 57l-16 6l-47 25q-131 57 -191.5 77.5t-111.5 20.5q-12 0 -31 -2 t-29 -2l-43 -4z" />
<glyph unicode="{" horiz-adv-x="681" d="M76 565q90 29 121.5 85.5t31.5 168.5v291q0 184 95 256q74 55 235 55v-24q-92 -25 -128 -89.5t-36 -185.5v-270q0 -129 -28 -186q-35 -70 -138 -99q100 -31 133 -96t33 -192v-271q0 -123 35 -185.5t129 -88.5v-25q-162 0 -235 55q-94 70 -95 256v291q0 115 -30.5 169.5 t-122.5 84.5z" />
<glyph unicode="|" horiz-adv-x="454" d="M135 -25v1524h184v-1524h-184z" />
<glyph unicode="}" horiz-adv-x="681" d="M123 -266q92 25 128 89t36 185v271q0 129 31.5 192.5t134.5 91.5q-100 31 -133 96.5t-33 192.5v270q0 123 -35 185.5t-129 89.5v24q162 0 235 -55q94 -70 95 -256v-291q0 -115 30.5 -169t122.5 -85q-90 -29 -121.5 -85t-31.5 -169v-291q0 -184 -95 -256q-74 -55 -235 -55 v25z" />
<glyph unicode="~" horiz-adv-x="1228" d="M121 489q39 84 112.5 120t163.5 36q51 0 230.5 -50t206.5 -50q53 0 94 25.5t86 93.5l94 -107q-39 -84 -114.5 -125t-162.5 -41q-49 0 -227 55.5t-209 55.5q-53 0 -94 -25.5t-86 -93.5z" />
<glyph unicode="&#xa1;" horiz-adv-x="598" d="M147 -287v787l297 114v-794q1 -33 5 -49q10 -55 10 -62q0 -12 -13 -20q-6 -4 -51 -23l-6 -4l-117 -47q-35 -12 -57 -12q-45 0 -65 88zM147 635v49v113v100l25 16q94 63 151.5 89t120.5 32v-86v-121v-59q-68 -47 -139.5 -81t-157.5 -52z" />
<glyph unicode="&#xa2;" horiz-adv-x="962" d="M72 504q0 102 36.5 184t69.5 117t103 72l122 63l27 16l37 21l31 307l108 64l-31 -330q18 10 27 12q12 4 27 4q35 0 205 -100q25 -14 48 -31.5t52 -42.5q-23 -18 -31 -26t-31 -21l-8 -4l-114 -68q-72 -43 -88 -43q-20 0 -101 74l-14 12l-49 -485l16 -23q55 -66 114.5 -94 t129.5 -28l-27 -19l-37 -22q-113 -68 -227 -117l-2 -57l-8 -107l-4 -31l-4 -39l-111 -90l39 328l-17 10l-16 10q-66 39 -125 105q-117 131 -141 291q-6 47 -6 88zM336 674q0 -51 9 -91t34 -96q6 -16 14 -32q2 -6 21 -31l8 84l2 27l22 198l5 62l4 73q-29 0 -50.5 -17 t-45 -65.5t-23.5 -111.5z" />
<glyph unicode="&#xa3;" horiz-adv-x="1581" d="M43 166l16 14l11 8q4 4 22 19q37 29 76 55q20 16 39.5 35.5t52.5 56.5q129 147 129 320v24q-33 6 -47 8.5t-51 2.5q-66 0 -187 -21l-61 -8l12 20l13 21l18 31q55 84 72.5 99t72.5 26l72 12l14 2l50 8l4 21v14q2 14 2 43v31q-4 20 -6 43.5t-6.5 53.5t-4.5 48q0 45 21 72 q14 16 84 67l35 25l36 22l70 47l86 50l12 6l21 8l-4 -6l-49 -47q-49 -45 -60.5 -67.5t-11.5 -94.5l-6 -143v-27l-2 -131l-2 -49q0 -197 -41 -283t-193 -221l-45 -41l-8 -8q35 0 71 -22.5t81 -80.5q12 -14 20 -29.5t12 -23.5l39 19l15 8l102 57l6 4q72 43 137 43 q53 0 156 -28q76 -23 139 -43q23 -8 166 -58q68 -23 103 -22q35 0 71 16q16 8 51 27l50 28l20 15l-2 -15l-26.5 -26.5t-32.5 -26.5q-29 -27 -71 -56.5t-63 -41.5q-166 -96 -225 -96q-45 0 -147 43l-56 24l-43 21l-98 41l-57 24q-12 4 -61.5 18.5t-80.5 14.5q-72 0 -256 -148 q-6 -6 -27.5 -18t-41.5 -25l-41 54q-66 86 -89.5 105.5t-76.5 31.5zM551 383l8 8l6 6q39 43 57.5 102.5t32.5 207.5l4 75l3 68l2 74l2 106v25l4 51q0 51 30 78q2 2 88 65l95 66l53 33l31 18l67 41q45 23 56 23q8 0 30.5 -7.5l46.5 -15.5l113 -41l66 -31q-20 -20 -48 -41.5 t-88 -62.5l-84 -55l-14 -11q-41 8 -64.5 16.5t-68.5 30.5q-25 6 -37 7q-8 0 -37 -5q-10 -57 -16 -120.5t-6 -147.5l2 -47q72 -25 147 -25q55 0 180 17l48 8q4 -25 4 -29q0 -18 -13.5 -33.5t-72.5 -72.5l-58 -53q-25 -18 -41 -21q-10 -2 -71 -2l-144 2l-6 -26 q-23 -92 -65.5 -140.5t-159.5 -107.5q-18 -10 -43 -19.5t-39 -13.5z" />
<glyph unicode="&#xa4;" horiz-adv-x="983" d="M29 270l102 103q-100 123 -100 286q0 80 25.5 154t74.5 133l-102 103l73 73l103 -102q61 49 133 74.5t154 25.5q78 0 152.5 -26.5t133.5 -73.5l103 102l73 -73l-102 -103q100 -123 100 -287q0 -80 -25.5 -153.5t-74.5 -132.5l102 -103l-73 -73l-103 102 q-61 -49 -133 -74.5t-153 -25.5q-78 0 -153 26.5t-134 73.5l-103 -102zM188 659q0 -135 86 -225t218 -90q129 0 216 91t87 224q0 135 -86 225.5t-217 90.5q-129 0 -216.5 -91t-87.5 -225z" />
<glyph unicode="&#xa5;" horiz-adv-x="1372" d="M-115 -279q31 31 69 65t107 91l107 86l33 27l147 108l-26 11l-29 12q-119 47 -238 47l29 25l53 51l21 18q41 41 41 88v801q0 6 -9 14q-8 8 -42.5 35t-70.5 40t-77 13q-23 0 -35 -2l23 23l18 18l37 33q78 68 116 95.5t60 27.5q20 0 70 -27l106 -51l39 -20l45 -25v-74 l41 37q23 25 44.5 42.5t43.5 35.5q41 33 82 61q49 35 76 35q12 0 48 -10t56.5 -15t54 -11.5t89 -12.5t72 -7t63.5 -1h47q18 4 25 4q96 10 178 43l-64 -37q-111 -76 -149.5 -208t-38.5 -423q0 -45 8 -92t23 -108h135q51 0 86 20q-4 -27 -6 -33q-2 -4 -13 -28 q-49 -100 -74.5 -133t-62.5 -37l10 -29l17 -51q23 -63 22 -105q0 -88 -233 -286q-39 -33 -107.5 -80t-169.5 -111q-76 -47 -140 -78.5t-124 -54.5l-39 16l-22 11l-51 18l-72 33l-39 14q-78 27 -148.5 46.5t-121.5 19.5h-9l-77 -12zM156 -90q49 8 66.5 9t29.5 1 q84 0 229.5 -45t208.5 -74q78 -37 109 -37q37 0 116 48q57 33 83 69.5t26 98.5q0 57 -33 161q-2 16 -4 21l-8 16l-8 21l-8 24l-21 -10l-12 -6l-76 -49l-45 -33l-80 -51q-111 -61 -137 -62q-12 0 -29.5 6.5t-44.5 16.5l-82 35l-12 6l-23 8l-32 10l-33 -24l-49 -37l-97 -84 l-14 -17zM319 358q154 -27 324 -98l59 -22l89 -39q39 -14 57 -15q33 0 94 49l12 13q-10 29 -21 71.5t-13 55.5h-121q-61 0 -68 -4l-49 -17l10 41l43 94q31 57 55.5 77t65.5 20h37q0 45 1 87t7 87l2 14l2 12l-55 -41l-6 -6l-150 -102q-172 -121 -184 -129q-100 -72 -137 -105 l-23 -16zM418 477l28 19l17 12l117 82q125 86 145 100q68 47 127 94l18 15l33 26l4 33l4 35l9 47l-23 -14l-10 -11l-86 -61l-234 -168l-47 -33l-53 -37q0 -53 -25 -96zM471 662l49 30q57 37 121 82q76 55 127 92l115 82l18 17l29 16q8 55 34.5 109.5t71.5 103.5l41 43l-26 2 l-13 2l-110 2h-140h-32h-23q-57 0 -76 6l-82 15q-70 0 -104 -50v-552z" />
<glyph unicode="&#xa6;" />
<glyph unicode="&#xa7;" horiz-adv-x="985" d="M41 719q0 49 47 110q37 49 119 125q-33 12 -50.5 48t-17.5 73q0 80 107 195q86 92 268 229q201 -139 301 -139q12 0 19 4q16 10 45 53l26 -16q-70 -111 -123 -168t-82 -57q-51 0 -171.5 62t-143.5 62h-27q-35 0 -53 -11t-18 -50q0 -35 45 -49t84 -25l428 -143 q57 -18 82 -96q16 -51 16 -121q0 -37 -16.5 -70t-100.5 -160q29 -12 37 -45.5t8 -78.5q0 -74 -75 -172q-88 -115 -314 -322l-22 18q14 12 14 29q0 51 -105.5 118.5t-177.5 67.5q-27 0 -54 -16t-62 -61l-27 22q70 109 154 189q72 70 100 69q43 0 176 -94t156 -94 q51 0 64.5 10t13.5 61q0 72 -172 130l-402 129q-51 16 -73.5 55t-22.5 129zM182 862q0 -35 37 -66.5t92 -52.5l486 -157q16 31 20 45q4 12 4 22q-2 13 -2 23q0 90 -178 145l-401 125q-23 -23 -40.5 -41t-17.5 -43z" />
<glyph unicode="&#xa8;" d="M301 1266q25 16 74 63t80 70q68 -51 69 -53q45 -37 45 -60q0 -20 -18 -43q-68 -68 -131 -139l-25 22q10 14 0 29l-12 16q0 6 -16 23q-47 45 -66 72zM645 1278q41 27 80 55q51 37 86 66q117 -91 117 -109q0 -25 -35 -63q-66 -66 -117 -123l-24 22q10 14 0 25q-6 6 -13 14 q0 12 -47 62q-37 39 -47 51z" />
<glyph unicode="&#xa9;" horiz-adv-x="1572" d="M102 657q0 287 200 486.5t486 199.5q287 0 487 -199.5t200 -486.5t-199 -487.5t-488 -200.5q-285 0 -485.5 201t-200.5 487zM180 657q0 -252 178.5 -430t429.5 -178q250 0 429.5 177t179.5 431q0 250 -178.5 428.5t-430.5 178.5q-250 0 -429 -177.5t-179 -429.5zM416 641 q0 100 38 183t117 141q53 37 110.5 54t106.5 17q61 0 130 -18q27 -8 55 -17q8 -2 24 -2q41 0 47 33h39l9 -256h-41q-8 49 -37 96q-39 63 -99 91q-20 8 -50.5 14t-51.5 6q-115 0 -188 -92q-39 -49 -59.5 -116.5t-20.5 -135.5q0 -127 61.5 -217t171.5 -90q98 0 151.5 15 t119.5 71l24 20l23 -37q-66 -66 -105 -90q-86 -55 -190 -55q-41 0 -61.5 2t-65.5 14q-123 33 -190.5 136.5t-67.5 232.5z" />
<glyph unicode="&#xaa;" horiz-adv-x="591" d="M37 954q0 47 72 93l73 45l78 38l51 23l6 4l9 4l14 8q0 12 -8 37q-23 68 -55.5 101.5t-65.5 33.5q-12 0 -25 -6l-22 -18l-6 -6l-19 -17q8 27 27.5 48.5t69.5 48.5l32 14q59 31 88 31q37 0 101 -52q37 -31 49 -47t12 -32v-408l-178 -90v106l-47 -28l-43 -25l-51 -29 q-43 -25 -70 -24q-49 0 -80 88q-12 35 -12 59zM180 1028q0 -14 15 -53q27 -63 81 -64q23 0 52 13l12 6v217l-59 -21q-100 -51 -101 -98z" />
<glyph unicode="&#xab;" />
<glyph unicode="&#xac;" />
<glyph unicode="&#xad;" />
<glyph unicode="&#xae;" horiz-adv-x="1572" d="M100 647q0 287 200 486.5t486 199.5q285 0 486 -200.5t201 -485.5t-201 -485.5t-486 -200.5q-287 0 -486.5 199.5t-199.5 486.5zM178 645q0 -250 178.5 -428t429.5 -178q250 0 429.5 177t179.5 431q0 252 -179.5 429t-431.5 177q-250 0 -428 -178t-178 -430zM459 301v35 q43 0 69.5 12t26.5 41v574q0 43 -12.5 51t-75.5 8v35h334q55 0 86 -3t63.5 -15.5t57.5 -28.5q35 -25 47 -46.5t18 -47t6 -46.5q0 -45 -17.5 -81.5t-45 -61.5t-49.5 -35q-41 -20 -88 -20l237 -307q10 -14 25.5 -21.5t46.5 -7.5v-35h-189l-264 352h-53v-260q0 -31 28.5 -44 t65.5 -13v-35h-317zM680 975l2 -277h33q35 0 57.5 2t52.5 15q121 41 121 141q0 17 -2 25q-6 70 -49 102q-31 25 -68 25l-104 8q-16 0 -29.5 -11.5t-13.5 -29.5z" />
<glyph unicode="&#xaf;" d="M317 1163q47 92 52 99q29 49 69 49l365 -2q35 0 47 22l24 -16q-55 -143 -96 -144l-420 -4q-14 -10 -16 -18z" />
<glyph unicode="&#xb0;" />
<glyph unicode="&#xb1;" />
<glyph unicode="&#xb2;" />
<glyph unicode="&#xb3;" />
<glyph unicode="&#xb4;" d="M373 1212q106 117 119 131q59 70 102 132q31 -14 82 -23.5t84 -9.5l31 4l8 -23q-43 -43 -205 -157q-82 -57 -162 -115z" />
<glyph unicode="&#xb5;" horiz-adv-x="1163" d="M29 852q14 20 28.5 33.5t24.5 21.5l4 4l113 70q66 41 82 41t42.5 -27.5t45.5 -46.5q29 -37 32 -41q12 -23 19 -33v-630q0 -16 20.5 -41t65.5 -47q18 -12 45 -13q37 0 108 31q45 16 86 51v480q0 20 -13 46.5t-50 71.5l-25 25q27 49 60 72q68 51 86 65q55 41 78 41 q18 0 39 -16q10 -8 50 -50t55 -65t15 -33v-631q0 -8 10.5 -20t22.5 -23.5t37 -21.5l-29 -21l-16 -12l-127 -98l-84 -55q-33 33 -47 58t-47 105l-29 43q-33 -31 -64.5 -57.5t-58.5 -42.5q-63 -41 -84 -53q-63 -39 -104 -49v-156q0 -31 5 -56.5t46 -35.5q29 -2 55 12l-34 -22 l-35 -23l-13 -6l-147 -80q-76 -41 -111 -41q-41 0 -59 78l-4 39v1040q0 10 -14.5 31.5t-57.5 66.5z" />
<glyph unicode="&#xb6;" />
<glyph unicode="&#xb7;" horiz-adv-x="440" d="M72 598v86v121v59q66 47 138.5 80t158.5 53v-49v-112v-101l-25 -16q-94 -63 -152.5 -89t-119.5 -32z" />
<glyph unicode="&#xb8;" d="M250 -184q59 70 92 108q57 68 86 113h55l-59 -84q76 -43 104.5 -71.5t28.5 -51.5q0 -43 -207 -266l-55 39q90 96 90 121q0 23 -35 45t-100 47z" />
<glyph unicode="&#xb9;" />
<glyph unicode="&#xba;" horiz-adv-x="737" d="M37 1102q0 16 4 36.5t10 43.5q23 70 36 87t89 60l55 31q68 35 118 53.5t85 18.5q27 0 44.5 -5.5t61.5 -24t81 -59.5t55 -96t18 -100q0 -102 -108 -191l-35 -26l-21 -12l-71 -44l-51 -34q-29 -18 -59 -26.5t-62 -8.5q-86 0 -152.5 59.5t-89.5 169.5l-6 39q-2 18 -2 29z M197 1165q0 -147 118 -231q6 -4 23.5 -14.5t28.5 -14.5q37 -18 69 -18q88 0 88 141v35q0 84 -25.5 136t-84.5 97q-51 37 -86 48.5t-49 11.5q-37 0 -60 -64q-6 -18 -8 -26q-6 -18 -8 -33l-4 -31z" />
<glyph unicode="&#xbb;" />
<glyph unicode="&#xbc;" />
<glyph unicode="&#xbd;" />
<glyph unicode="&#xbe;" />
<glyph unicode="&#xbf;" horiz-adv-x="675" d="M51 -170q0 72 55 162l31 43q57 86 82 131t44.5 113.5t19.5 142.5q0 39 -7 76l273 114q2 -20 3 -35.5t1 -27.5q0 -74 -20.5 -144.5t-71.5 -168.5q-23 -41 -34 -60.5t-54 -81.5q-25 -37 -25 -78q0 -76 96 -151q57 -41 125 -53q16 -4 34 -4.5t36 -0.5q-16 -35 -27.5 -51 t-40.5 -45q-127 -119 -237 -119q-84 0 -183.5 71t-99.5 167zM256 635v49v113v100l25 16q94 63 151 89t121 32v-86v-121v-59q-57 -33 -111.5 -59.5t-109.5 -44.5z" />
<glyph unicode="&#xc0;" horiz-adv-x="1331" d="M-45 936q0 16 3 37.5t8 53.5t42 88t129 151q102 104 163.5 143t135.5 39q45 0 96.5 -10.5t77 -19.5t58.5 -25q49 -29 69.5 -49.5t20.5 -45.5q0 -45 -115 -143l-35 -29l-22 -16l-27 -16q-63 160 -258 184q-12 2 -33 2q-123 0 -123 -119q0 -25 7 -55q33 -168 165 -168 l-32 -43l-86 -80q-37 -35 -60.5 -50t-42.5 -15q-20 0 -57 16q-84 37 -84 170zM-10 53l180 133l125 86l10 9q68 51 99.5 113.5t50.5 172.5l2 21l12 147q16 168 79.5 270.5t215.5 204.5q29 20 64.5 39t105.5 54l78 36l35 19l100 51q29 -18 36 -43t7 -98v-13l-6 -227 q0 -43 2 -157.5t2 -159.5q0 -139 9 -230.5t34 -183.5q33 -127 108 -127q19 0 37 6q-27 -39 -53.5 -63.5t-103.5 -75.5l-78 -51l-11 -9q-33 8 -53 34t-55 106q-25 55 -43 143q-25 117 -25 227v123q-43 -23 -76.5 -45t-86.5 -65l-39 -35l-21 -16q-51 45 -104 63l-31 8l-72 -71 q-92 -88 -125.5 -116t-95.5 -67l86 -39l10 -6l174 -53l23 -8l70 -27l-43 -27l-21 -18l-96 -76q-6 -6 -21 -12q-27 -14 -49 -23l-137 48q-160 53 -221 53q-41 0 -88 -25zM555 1725l8 22l30 -4q23 0 80.5 20.5t91.5 37.5q33 -45 84 -99l168 -164l-84 -61q-61 43 -217 137 q-129 78 -161 111zM649 625q51 29 72 41q31 20 65 51l70 -47l76 -45q16 18 20 38.5t4 81.5l-2 148q0 76 4.5 227.5t4.5 153.5q-53 -12 -98.5 -43t-86.5 -92q-20 -29 -32.5 -62t-36.5 -135l-29 -125l-6 -39l-12 -59l-9 -43l-2 -21l-2 -14v-16z" />
<glyph unicode="&#xc1;" horiz-adv-x="1331" d="M-45 936q0 16 3 37.5t8 53.5t42 88t129 151q102 104 163.5 143t135.5 39q45 0 96.5 -10.5t77 -19.5t58.5 -25q49 -29 69.5 -49.5t20.5 -45.5q0 -45 -115 -143l-35 -29l-22 -16l-27 -16q-63 160 -258 184q-12 2 -33 2q-123 0 -123 -119q0 -25 7 -55q33 -168 165 -168 l-32 -43l-86 -80q-37 -35 -60.5 -50t-42.5 -15q-20 0 -57 16q-84 37 -84 170zM-10 53l180 133l125 86l10 9q68 51 99.5 113.5t50.5 172.5l2 21l12 147q16 168 79.5 270.5t215.5 204.5q29 20 64.5 39t105.5 54l78 36l35 19l100 51q29 -18 36 -43t7 -98v-13l-6 -227 q0 -43 2 -157.5t2 -159.5q0 -139 9 -230.5t34 -183.5q33 -127 108 -127q19 0 37 6q-27 -39 -53.5 -63.5t-103.5 -75.5l-78 -51l-11 -9q-33 8 -53 34t-55 106q-25 55 -43 143q-25 117 -25 227v123q-43 -23 -76.5 -45t-86.5 -65l-39 -35l-21 -16q-51 45 -104 63l-31 8l-72 -71 q-92 -88 -125.5 -116t-95.5 -67l86 -39l10 -6l174 -53l23 -8l70 -27l-43 -27l-21 -18l-96 -76q-6 -6 -21 -12q-27 -14 -49 -23l-137 48q-160 53 -221 53q-41 0 -88 -25zM649 625q51 29 72 41q31 20 65 51l70 -47l76 -45q16 18 20 38.5t4 81.5l-2 148q0 76 4.5 227.5 t4.5 153.5q-53 -12 -98.5 -43t-86.5 -92q-20 -29 -32.5 -62t-36.5 -135l-29 -125l-6 -39l-12 -59l-9 -43l-2 -21l-2 -14v-16zM748 1538q106 117 119 131q59 70 102 132q31 -14 82 -23.5t84 -9.5l31 4l8 -23q-43 -43 -205 -157q-82 -57 -162 -115z" />
<glyph unicode="&#xc2;" horiz-adv-x="1331" d="M-45 936q0 16 3 37.5t8 53.5t42 88t129 151q102 104 163.5 143t135.5 39q45 0 96.5 -10.5t77 -19.5t58.5 -25q49 -29 69.5 -49.5t20.5 -45.5q0 -45 -115 -143l-35 -29l-22 -16l-27 -16q-63 160 -258 184q-12 2 -33 2q-123 0 -123 -119q0 -25 7 -55q33 -168 165 -168 l-32 -43l-86 -80q-37 -35 -60.5 -50t-42.5 -15q-20 0 -57 16q-84 37 -84 170zM-10 53l180 133l125 86l10 9q68 51 99.5 113.5t50.5 172.5l2 21l12 147q16 168 79.5 270.5t215.5 204.5q29 20 64.5 39t105.5 54l78 36l35 19l100 51q29 -18 36 -43t7 -98v-13l-6 -227 q0 -43 2 -157.5t2 -159.5q0 -139 9 -230.5t34 -183.5q33 -127 108 -127q19 0 37 6q-27 -39 -53.5 -63.5t-103.5 -75.5l-78 -51l-11 -9q-33 8 -53 34t-55 106q-25 55 -43 143q-25 117 -25 227v123q-43 -23 -76.5 -45t-86.5 -65l-39 -35l-21 -16q-51 45 -104 63l-31 8l-72 -71 q-92 -88 -125.5 -116t-95.5 -67l86 -39l10 -6l174 -53l23 -8l70 -27l-43 -27l-21 -18l-96 -76q-6 -6 -21 -12q-27 -14 -49 -23l-137 48q-160 53 -221 53q-41 0 -88 -25zM533 1524q162 143 323 286q66 -70 174 -151q94 -72 107 -72l29 4l12 -22l-166 -95q-41 27 -93 78 t-99 101q-20 -25 -70 -66q-123 -100 -135 -113zM649 625q51 29 72 41q31 20 65 51l70 -47l76 -45q16 18 20 38.5t4 81.5l-2 148q0 76 4.5 227.5t4.5 153.5q-53 -12 -98.5 -43t-86.5 -92q-20 -29 -32.5 -62t-36.5 -135l-29 -125l-6 -39l-12 -59l-9 -43l-2 -21l-2 -14v-16z " />
<glyph unicode="&#xc3;" horiz-adv-x="1331" d="M-45 936q0 16 3 37.5t8 53.5t42 88t129 151q102 104 163.5 143t135.5 39q45 0 96.5 -10.5t77 -19.5t58.5 -25q49 -29 69.5 -49.5t20.5 -45.5q0 -45 -115 -143l-35 -29l-22 -16l-27 -16q-63 160 -258 184q-12 2 -33 2q-123 0 -123 -119q0 -25 7 -55q33 -168 165 -168 l-32 -43l-86 -80q-37 -35 -60.5 -50t-42.5 -15q-20 0 -57 16q-84 37 -84 170zM-10 53l180 133l125 86l10 9q68 51 99.5 113.5t50.5 172.5l2 21l12 147q16 168 79.5 270.5t215.5 204.5q29 20 64.5 39t105.5 54l78 36l35 19l100 51q29 -18 36 -43t7 -98v-13l-6 -227 q0 -43 2 -157.5t2 -159.5q0 -139 9 -230.5t34 -183.5q33 -127 108 -127q19 0 37 6q-27 -39 -53.5 -63.5t-103.5 -75.5l-78 -51l-11 -9q-33 8 -53 34t-55 106q-25 55 -43 143q-25 117 -25 227v123q-43 -23 -76.5 -45t-86.5 -65l-39 -35l-21 -16q-51 45 -104 63l-31 8l-72 -71 q-92 -88 -125.5 -116t-95.5 -67l86 -39l10 -6l174 -53l23 -8l70 -27l-43 -27l-21 -18l-96 -76q-6 -6 -21 -12q-27 -14 -49 -23l-137 48q-160 53 -221 53q-41 0 -88 -25zM590 1497q63 102 127 149q47 35 80 35q27 0 162 -47q63 -23 100 -22q23 0 33 6q23 14 55 61l49 -22 q-70 -113 -111.5 -149t-90.5 -36q-33 0 -133.5 35t-141.5 35q-27 0 -44 -14.5t-40 -49.5zM649 625q51 29 72 41q31 20 65 51l70 -47l76 -45q16 18 20 38.5t4 81.5l-2 148q0 76 4.5 227.5t4.5 153.5q-53 -12 -98.5 -43t-86.5 -92q-20 -29 -32.5 -62t-36.5 -135l-29 -125 l-6 -39l-12 -59l-9 -43l-2 -21l-2 -14v-16z" />
<glyph unicode="&#xc4;" horiz-adv-x="1331" d="M-45 936q0 16 3 37.5t8 53.5t42 88t129 151q102 104 163.5 143t135.5 39q45 0 96.5 -10.5t77 -19.5t58.5 -25q49 -29 69.5 -49.5t20.5 -45.5q0 -45 -115 -143l-35 -29l-22 -16l-27 -16q-63 160 -258 184q-12 2 -33 2q-123 0 -123 -119q0 -25 7 -55q33 -168 165 -168 l-32 -43l-86 -80q-37 -35 -60.5 -50t-42.5 -15q-20 0 -57 16q-84 37 -84 170zM-10 53l180 133l125 86l10 9q68 51 99.5 113.5t50.5 172.5l2 21l12 147q16 168 79.5 270.5t215.5 204.5q29 20 64.5 39t105.5 54l78 36l35 19l100 51q29 -18 36 -43t7 -98v-13l-6 -227 q0 -43 2 -157.5t2 -159.5q0 -139 9 -230.5t34 -183.5q33 -127 108 -127q19 0 37 6q-27 -39 -53.5 -63.5t-103.5 -75.5l-78 -51l-11 -9q-33 8 -53 34t-55 106q-25 55 -43 143q-25 117 -25 227v123q-43 -23 -76.5 -45t-86.5 -65l-39 -35l-21 -16q-51 45 -104 63l-31 8l-72 -71 q-92 -88 -125.5 -116t-95.5 -67l86 -39l10 -6l174 -53l23 -8l70 -27l-43 -27l-21 -18l-96 -76q-6 -6 -21 -12q-27 -14 -49 -23l-137 48q-160 53 -221 53q-41 0 -88 -25zM559 1635q25 16 74 63t80 70q68 -51 69 -53q45 -37 45 -60q0 -20 -18 -43q-68 -68 -131 -139l-25 22 q10 14 0 29l-12 16q0 6 -16 23q-47 45 -66 72zM649 625q51 29 72 41q31 20 65 51l70 -47l76 -45q16 18 20 38.5t4 81.5l-2 148q0 76 4.5 227.5t4.5 153.5q-53 -12 -98.5 -43t-86.5 -92q-20 -29 -32.5 -62t-36.5 -135l-29 -125l-6 -39l-12 -59l-9 -43l-2 -21l-2 -14v-16z M903 1647q41 27 80 55q51 37 86 66q117 -91 117 -109q0 -25 -35 -63q-66 -66 -117 -123l-24 22q10 14 0 25q-6 6 -13 14q0 12 -47 62q-37 39 -47 51z" />
<glyph unicode="&#xc5;" horiz-adv-x="1331" d="M-45 936q0 16 3 37.5t8 53.5t42 88t129 151q102 104 163.5 143t135.5 39q45 0 96.5 -10.5t77 -19.5t58.5 -25q49 -29 69.5 -49.5t20.5 -45.5q0 -45 -115 -143l-35 -29l-22 -16l-27 -16q-63 160 -258 184q-12 2 -33 2q-123 0 -123 -119q0 -25 7 -55q33 -168 165 -168 l-32 -43l-86 -80q-37 -35 -60.5 -50t-42.5 -15q-20 0 -57 16q-84 37 -84 170zM-10 53l180 133l125 86l10 9q68 51 99.5 113.5t50.5 172.5l2 21l12 147q16 168 79.5 270.5t215.5 204.5q29 20 64.5 39t105.5 54l78 36l35 19l100 51q29 -18 36 -43t7 -98v-13l-6 -227 q0 -43 2 -157.5t2 -159.5q0 -139 9 -230.5t34 -183.5q33 -127 108 -127q19 0 37 6q-27 -39 -53.5 -63.5t-103.5 -75.5l-78 -51l-11 -9q-33 8 -53 34t-55 106q-25 55 -43 143q-25 117 -25 227v123q-43 -23 -76.5 -45t-86.5 -65l-39 -35l-21 -16q-51 45 -104 63l-31 8l-72 -71 q-92 -88 -125.5 -116t-95.5 -67l86 -39l10 -6l174 -53l23 -8l70 -27l-43 -27l-21 -18l-96 -76q-6 -6 -21 -12q-27 -14 -49 -23l-137 48q-160 53 -221 53q-41 0 -88 -25zM649 625q51 29 72 41q31 20 65 51l70 -47l76 -45q16 18 20 38.5t4 81.5l-2 148q0 76 4.5 227.5 t4.5 153.5q-53 -12 -98.5 -43t-86.5 -92q-20 -29 -32.5 -62t-36.5 -135l-29 -125l-6 -39l-12 -59l-9 -43l-2 -21l-2 -14v-16z" />
<glyph unicode="&#xc6;" horiz-adv-x="2154" d="M-45 936q0 16 3 37.5t8 53.5t42 88t129 151q102 104 163.5 143t135.5 39q45 0 96.5 -10.5t77 -19.5t58.5 -25q49 -29 69.5 -49.5t20.5 -45.5q0 -45 -115 -143l-35 -29l-22 -16l-27 -16q-63 160 -258 184q-12 2 -33 2q-123 0 -123 -119q0 -25 7 -55q33 -168 165 -168 l-32 -43l-86 -80q-37 -35 -60.5 -50t-42.5 -15q-20 0 -57 16q-84 37 -84 170zM-10 53l180 133l125 86l10 9q68 51 99.5 113.5t50.5 172.5l2 21l12 147q16 168 79.5 270.5t215.5 204.5q29 20 64.5 39t105.5 54l78 36l35 19l223 92q10 6 32.5 13t43.5 16l-39 -41l-41 -45 l-39 -43q-27 -29 -36 -43.5t-9 -24.5v-618q0 -49 -31 -100.5t-109 -123.5l-57 -49l-47 -37l-16 -12q57 0 98 -45q55 -61 69.5 -81.5t18.5 -33.5q4 0 8 2q10 4 43 27l33 20q82 47 130 66.5t91 19.5q39 0 82 -10q14 -4 62.5 -17.5t117 -37t191.5 -68.5q29 -10 56.5 -16 t47.5 -6q47 0 123 45l47 31l21 12q-37 -51 -82 -90t-115 -80q-164 -96 -221 -96q-41 0 -148 45l-55 24l-47 21l-94 43q-39 12 -58 18q-51 18 -84.5 27.5t-60.5 9.5q-49 0 -99 -30.5t-155 -116.5q-10 -10 -20 -17q-27 -16 -50 -28l-38 55q-66 86 -89.5 106.5t-76.5 32.5 l86 68q96 76 149 141q45 57 55 106l-4 121q-43 -23 -76.5 -45t-86.5 -65l-39 -35l-21 -16q-51 45 -104 63l-31 8l-72 -71q-92 -88 -125.5 -116t-95.5 -67l86 -39l10 -6l174 -53l23 -8l70 -27l-43 -27l-21 -18l-96 -76q-6 -6 -21 -12q-27 -14 -49 -23l-137 48 q-160 53 -221 53q-41 0 -88 -25zM649 625q51 29 72 41q31 20 65 51l70 -47l76 -45q16 18 20 38.5t4 81.5l-2 148q0 76 4.5 227.5t4.5 153.5q-53 -12 -98.5 -43t-86.5 -92q-20 -29 -32.5 -62t-36.5 -135l-29 -125l-6 -39l-12 -59l-9 -43l-2 -21l-2 -14v-16zM1225 393l12 25 l4 8l35 76l6 10q25 43 25 152v518q0 8 18 24q27 25 86 64l47 33l76 43l55 30q70 39 115 60l20 10l35 14l29 -8l78 -22q88 -25 141.5 -43.5t106.5 -45.5q-29 -27 -53.5 -46t-82.5 -60l-84 -55l-14 -11l-100 25l-152 49l-12 4q-4 2 -27.5 1t-58.5 -7v-485l55 20l109 94l20 19 l58 43q53 -18 86.5 -34.5t113.5 -59.5q20 -8 25 -11q29 -10 57 -18q-37 -45 -83 -83t-122 -81l-51 -27l-41 17l-33 12l-41 17l-84 32l-67 29q-25 -49 -59.5 -97t-86.5 -106q-70 -76 -96 -97.5t-65 -31.5z" />
<glyph unicode="&#xc7;" horiz-adv-x="1310" d="M55 696q0 182 114 344t347 299q72 43 132.5 68t117.5 39v-191q55 43 158 154l12 12q18 16 55 43l58 -34l36 -23l68 -33l35 -18l45 -31q-14 -31 -27.5 -51.5t-42.5 -54.5l-30 -39l-11 -15l-20 -24q-35 -49 -29 -103l-4 11l-16 32q-33 61 -71 88t-130 54q-14 2 -49 30 l-37 -51v-444q0 -10 -11.5 -27.5t-47.5 -64.5l-35 -41l-47 -54l-35 -34q-16 -18 -34.5 -37t-41.5 -37l-18 -14l-25 -19q43 -61 102 -104q106 -76 194.5 -99.5t231.5 -23.5q82 0 154 25.5t152 76.5q14 8 27.5 16.5t27.5 20.5q-80 -88 -180 -164q-250 -178 -447 -196l-20 -29 q76 -43 104.5 -71.5t28.5 -51.5q0 -43 -207 -266l-55 39q90 96 90 121q0 23 -35 45t-100 47l137 164q-117 0 -219.5 56t-202.5 169q-72 82 -119 178q-80 160 -80 313zM254 885q0 -82 41 -193q12 -33 20.5 -49t20.5 -39q39 -82 59.5 -108.5t50.5 -40.5q82 49 82 168v682 l-18 -9l-12 -8q-23 -16 -56.5 -46t-64.5 -64q-61 -74 -92 -147t-31 -146z" />
<glyph unicode="&#xc8;" horiz-adv-x="1466" d="M-72 174l86 68q117 92 162 155.5t45 120.5v653q0 10 4 21q6 16 25 45q6 10 14 22.5t37 43.5q37 41 90 75.5t139 71.5q10 6 33 13t43 16l-39 -41l-41 -45l-39 -43q-27 -29 -36 -43.5t-9 -24.5v-618q0 -49 -30.5 -100.5t-108.5 -123.5l-57 -49l-47 -37l-17 -12q57 0 99 -45 q55 -61 69.5 -81.5t18.5 -33.5q4 0 8 2q10 4 43 27l33 20q82 47 130 66.5t91 19.5q39 0 82 -10q14 -4 62 -17.5t117 -37t191 -68.5q29 -10 56.5 -16t48.5 -6q47 0 123 45l47 31l20 12q-37 -51 -82 -90t-114 -80q-164 -96 -221 -96q-41 0 -148 45l-55 24l-47 21l-95 43 l-57 22q-98 35 -143 35q-76 0 -256 -149q-10 -10 -21 -17q-27 -16 -49 -28l-39 55q-66 86 -89 106.5t-77 32.5zM439 1725l8 22l30 -4q23 0 80.5 20.5t91.5 37.5q33 -45 84 -99l168 -164l-84 -61q-61 43 -217 137q-129 78 -161 111zM485 393l13 25l4 8l35 76l6 10 q25 43 24 152v518q0 8 19 24q27 25 86 64l47 33l76 43l55 30q70 39 115 60l20 10l35 14l29 -8l77 -22q88 -25 141.5 -43.5t106.5 -45.5q-29 -27 -53.5 -46t-81.5 -60l-84 -55l-14 -11l-101 25l-151 49l-12 4q-4 2 -28 1t-58 -7v-485l55 20l108 94l21 19l57 43 q53 -18 87 -34.5t114 -59.5q20 -8 24 -11q29 -10 58 -18q-37 -45 -83 -83t-122 -81l-51 -27l-41 17l-33 12l-41 17l-84 32l-67 29q-25 -49 -60 -97t-86 -106q-70 -76 -96.5 -97.5t-65.5 -31.5z" />
<glyph unicode="&#xc9;" horiz-adv-x="1466" d="M-72 174l86 68q117 92 162 155.5t45 120.5v653q0 10 4 21q6 16 25 45q6 10 14 22.5t37 43.5q37 41 90 75.5t139 71.5q10 6 33 13t43 16l-39 -41l-41 -45l-39 -43q-27 -29 -36 -43.5t-9 -24.5v-618q0 -49 -30.5 -100.5t-108.5 -123.5l-57 -49l-47 -37l-17 -12q57 0 99 -45 q55 -61 69.5 -81.5t18.5 -33.5q4 0 8 2q10 4 43 27l33 20q82 47 130 66.5t91 19.5q39 0 82 -10q14 -4 62 -17.5t117 -37t191 -68.5q29 -10 56.5 -16t48.5 -6q47 0 123 45l47 31l20 12q-37 -51 -82 -90t-114 -80q-164 -96 -221 -96q-41 0 -148 45l-55 24l-47 21l-95 43 l-57 22q-98 35 -143 35q-76 0 -256 -149q-10 -10 -21 -17q-27 -16 -49 -28l-39 55q-66 86 -89 106.5t-77 32.5zM485 393l13 25l4 8l35 76l6 10q25 43 24 152v518q0 8 19 24q27 25 86 64l47 33l76 43l55 30q70 39 115 60l20 10l35 14l29 -8l77 -22q88 -25 141.5 -43.5 t106.5 -45.5q-29 -27 -53.5 -46t-81.5 -60l-84 -55l-14 -11l-101 25l-151 49l-12 4q-4 2 -28 1t-58 -7v-485l55 20l108 94l21 19l57 43q53 -18 87 -34.5t114 -59.5q20 -8 24 -11q29 -10 58 -18q-37 -45 -83 -83t-122 -81l-51 -27l-41 17l-33 12l-41 17l-84 32l-67 29 q-25 -49 -60 -97t-86 -106q-70 -76 -96.5 -97.5t-65.5 -31.5zM674 1538q106 117 119 131q59 70 102 132q31 -14 82 -23.5t84 -9.5l31 4l8 -23q-43 -43 -205 -157q-82 -57 -162 -115z" />
<glyph unicode="&#xca;" horiz-adv-x="1466" d="M-72 174l86 68q117 92 162 155.5t45 120.5v653q0 10 4 21q6 16 25 45q6 10 14 22.5t37 43.5q37 41 90 75.5t139 71.5q10 6 33 13t43 16l-39 -41l-41 -45l-39 -43q-27 -29 -36 -43.5t-9 -24.5v-618q0 -49 -30.5 -100.5t-108.5 -123.5l-57 -49l-47 -37l-17 -12q57 0 99 -45 q55 -61 69.5 -81.5t18.5 -33.5q4 0 8 2q10 4 43 27l33 20q82 47 130 66.5t91 19.5q39 0 82 -10q14 -4 62 -17.5t117 -37t191 -68.5q29 -10 56.5 -16t48.5 -6q47 0 123 45l47 31l20 12q-37 -51 -82 -90t-114 -80q-164 -96 -221 -96q-41 0 -148 45l-55 24l-47 21l-95 43 l-57 22q-98 35 -143 35q-76 0 -256 -149q-10 -10 -21 -17q-27 -16 -49 -28l-39 55q-66 86 -89 106.5t-77 32.5zM441 1524q162 143 323 286q66 -70 174 -151q94 -72 107 -72l29 4l12 -22l-166 -95q-41 27 -93 78t-99 101q-20 -25 -70 -66q-123 -100 -135 -113zM485 393l13 25 l4 8l35 76l6 10q25 43 24 152v518q0 8 19 24q27 25 86 64l47 33l76 43l55 30q70 39 115 60l20 10l35 14l29 -8l77 -22q88 -25 141.5 -43.5t106.5 -45.5q-29 -27 -53.5 -46t-81.5 -60l-84 -55l-14 -11l-101 25l-151 49l-12 4q-4 2 -28 1t-58 -7v-485l55 20l108 94l21 19 l57 43q53 -18 87 -34.5t114 -59.5q20 -8 24 -11q29 -10 58 -18q-37 -45 -83 -83t-122 -81l-51 -27l-41 17l-33 12l-41 17l-84 32l-67 29q-25 -49 -60 -97t-86 -106q-70 -76 -96.5 -97.5t-65.5 -31.5z" />
<glyph unicode="&#xcb;" horiz-adv-x="1466" d="M-72 174l86 68q117 92 162 155.5t45 120.5v653q0 10 4 21q6 16 25 45q6 10 14 22.5t37 43.5q37 41 90 75.5t139 71.5q10 6 33 13t43 16l-39 -41l-41 -45l-39 -43q-27 -29 -36 -43.5t-9 -24.5v-618q0 -49 -30.5 -100.5t-108.5 -123.5l-57 -49l-47 -37l-17 -12q57 0 99 -45 q55 -61 69.5 -81.5t18.5 -33.5q4 0 8 2q10 4 43 27l33 20q82 47 130 66.5t91 19.5q39 0 82 -10q14 -4 62 -17.5t117 -37t191 -68.5q29 -10 56.5 -16t48.5 -6q47 0 123 45l47 31l20 12q-37 -51 -82 -90t-114 -80q-164 -96 -221 -96q-41 0 -148 45l-55 24l-47 21l-95 43 l-57 22q-98 35 -143 35q-76 0 -256 -149q-10 -10 -21 -17q-27 -16 -49 -28l-39 55q-66 86 -89 106.5t-77 32.5zM485 393l13 25l4 8l35 76l6 10q25 43 24 152v518q0 8 19 24q27 25 86 64l47 33l76 43l55 30q70 39 115 60l20 10l35 14l29 -8l77 -22q88 -25 141.5 -43.5 t106.5 -45.5q-29 -27 -53.5 -46t-81.5 -60l-84 -55l-14 -11l-101 25l-151 49l-12 4q-4 2 -28 1t-58 -7v-485l55 20l108 94l21 19l57 43q53 -18 87 -34.5t114 -59.5q20 -8 24 -11q29 -10 58 -18q-37 -45 -83 -83t-122 -81l-51 -27l-41 17l-33 12l-41 17l-84 32l-67 29 q-25 -49 -60 -97t-86 -106q-70 -76 -96.5 -97.5t-65.5 -31.5zM516 1635q25 16 74 63t80 70q68 -51 69 -53q45 -37 45 -60q0 -20 -18 -43q-68 -68 -131 -139l-25 22q10 14 0 29l-12 16q0 6 -16 23q-47 45 -66 72zM860 1647q41 27 80 55q51 37 86 66q117 -91 117 -109 q0 -25 -35 -63q-66 -66 -117 -123l-24 22q10 14 0 25q-6 6 -13 14q0 12 -47 62q-37 39 -47 51z" />
<glyph unicode="&#xcc;" horiz-adv-x="1130" d="M0 201q49 53 93 92t126 96l35 21l22 -7l27 25l29 23l47 41l37 32l63 58q6 10 6 16q0 12 -49 43l-63 55q-12 10 -31.5 17.5t-56.5 13.5q37 49 77 84q8 6 111 90l180 148l135 108l15 14l53 52h-547q-121 0 -186.5 -22.5t-120.5 -78.5l23 29q68 86 94 112.5t59 57.5 q18 16 37 35q55 47 81 63.5t46 16.5h596l111 -6l57 -3q-33 -31 -51.5 -69.5t-24.5 -93.5v-86v-748q-31 -45 -60.5 -76.5t-103.5 -95.5l-73 -63l-70 -60q-61 -51 -121 -92q-49 -35 -100 -66q-45 12 -68 23q-49 27 -94 51l-23 10l-106 58q-61 33 -110.5 52t-100.5 30zM311 393 l78 -35l23 -10l77 -43l99 -55q55 -31 84 -45q20 -8 55 -21q31 20 40 45t9 84l2 97v362q-45 -18 -65.5 -31.5t-100.5 -81.5l-141 -120l-113 -101l-22 -22zM402 1725l8 22l30 -4q23 0 80.5 20.5t91.5 37.5q33 -45 84 -99l168 -164l-84 -61q-61 43 -217 137q-129 78 -161 111z M537 913q49 -14 68.5 -23t41.5 -26q96 -70 105 -69q4 0 26 6l-2 100q0 59 6.5 108t18.5 117l-33 -22l-31 -23l-131 -106l-37 -33z" />
<glyph unicode="&#xcd;" horiz-adv-x="1130" d="M0 201q49 53 93 92t126 96l35 21l22 -7l27 25l29 23l47 41l37 32l63 58q6 10 6 16q0 12 -49 43l-63 55q-12 10 -31.5 17.5t-56.5 13.5q37 49 77 84q8 6 111 90l180 148l135 108l15 14l53 52h-547q-121 0 -186.5 -22.5t-120.5 -78.5l23 29q68 86 94 112.5t59 57.5 q18 16 37 35q55 47 81 63.5t46 16.5h596l111 -6l57 -3q-33 -31 -51.5 -69.5t-24.5 -93.5v-86v-748q-31 -45 -60.5 -76.5t-103.5 -95.5l-73 -63l-70 -60q-61 -51 -121 -92q-49 -35 -100 -66q-45 12 -68 23q-49 27 -94 51l-23 10l-106 58q-61 33 -110.5 52t-100.5 30zM311 393 l78 -35l23 -10l77 -43l99 -55q55 -31 84 -45q20 -8 55 -21q31 20 40 45t9 84l2 97v362q-45 -18 -65.5 -31.5t-100.5 -81.5l-141 -120l-113 -101l-22 -22zM537 913q49 -14 68.5 -23t41.5 -26q96 -70 105 -69q4 0 26 6l-2 100q0 59 6.5 108t18.5 117l-33 -22l-31 -23 l-131 -106l-37 -33zM557 1538q106 117 119 131q59 70 102 132q31 -14 82 -23.5t84 -9.5l31 4l8 -23q-43 -43 -205 -157q-82 -57 -162 -115z" />
<glyph unicode="&#xce;" horiz-adv-x="1130" d="M0 201q49 53 93 92t126 96l35 21l22 -7l27 25l29 23l47 41l37 32l63 58q6 10 6 16q0 12 -49 43l-63 55q-12 10 -31.5 17.5t-56.5 13.5q37 49 77 84q8 6 111 90l180 148l135 108l15 14l53 52h-547q-121 0 -186.5 -22.5t-120.5 -78.5l23 29q68 86 94 112.5t59 57.5 q18 16 37 35q55 47 81 63.5t46 16.5h596l111 -6l57 -3q-33 -31 -51.5 -69.5t-24.5 -93.5v-86v-748q-31 -45 -60.5 -76.5t-103.5 -95.5l-73 -63l-70 -60q-61 -51 -121 -92q-49 -35 -100 -66q-45 12 -68 23q-49 27 -94 51l-23 10l-106 58q-61 33 -110.5 52t-100.5 30z M293 1524q162 143 323 286q66 -70 174 -151q94 -72 107 -72l29 4l12 -22l-166 -95q-41 27 -93 78t-99 101q-20 -25 -70 -66q-123 -100 -135 -113zM311 393l78 -35l23 -10l77 -43l99 -55q55 -31 84 -45q20 -8 55 -21q31 20 40 45t9 84l2 97v362q-45 -18 -65.5 -31.5 t-100.5 -81.5l-141 -120l-113 -101l-22 -22zM537 913q49 -14 68.5 -23t41.5 -26q96 -70 105 -69q4 0 26 6l-2 100q0 59 6.5 108t18.5 117l-33 -22l-31 -23l-131 -106l-37 -33z" />
<glyph unicode="&#xcf;" horiz-adv-x="1130" d="M0 201q49 53 93 92t126 96l35 21l22 -7l27 25l29 23l47 41l37 32l63 58q6 10 6 16q0 12 -49 43l-63 55q-12 10 -31.5 17.5t-56.5 13.5q37 49 77 84q8 6 111 90l180 148l135 108l15 14l53 52h-547q-121 0 -186.5 -22.5t-120.5 -78.5l23 29q68 86 94 112.5t59 57.5 q18 16 37 35q55 47 81 63.5t46 16.5h596l111 -6l57 -3q-33 -31 -51.5 -69.5t-24.5 -93.5v-86v-748q-31 -45 -60.5 -76.5t-103.5 -95.5l-73 -63l-70 -60q-61 -51 -121 -92q-49 -35 -100 -66q-45 12 -68 23q-49 27 -94 51l-23 10l-106 58q-61 33 -110.5 52t-100.5 30zM311 393 l78 -35l23 -10l77 -43l99 -55q55 -31 84 -45q20 -8 55 -21q31 20 40 45t9 84l2 97v362q-45 -18 -65.5 -31.5t-100.5 -81.5l-141 -120l-113 -101l-22 -22zM344 1635q25 16 74 63t80 70q68 -51 69 -53q45 -37 45 -60q0 -20 -18 -43q-68 -68 -131 -139l-25 22q10 14 0 29 l-12 16q0 6 -16 23q-47 45 -66 72zM537 913q49 -14 68.5 -23t41.5 -26q96 -70 105 -69q4 0 26 6l-2 100q0 59 6.5 108t18.5 117l-33 -22l-31 -23l-131 -106l-37 -33zM688 1647q41 27 80 55q51 37 86 66q117 -91 117 -109q0 -25 -35 -63q-66 -66 -117 -123l-24 22q10 14 0 25 q-6 6 -13 14q0 12 -47 62q-37 39 -47 51z" />
<glyph unicode="&#xd0;" />
<glyph unicode="&#xd1;" horiz-adv-x="1669" d="M-143 1262q31 57 71.5 93t124.5 79l66 34q-4 -53 21.5 -74.5t123.5 -41.5l115 -25l8 -2h27q41 0 82 6l43 15q16 -61 16 -117v-23q-4 -16 -4 -24l16 10l8 6l68 59q23 20 45 43q12 12 49 39l15 15l86 65q45 35 73.5 48.5t65.5 13.5q39 0 119 -13q41 -4 59 -10 q430 -90 430 -461q0 -48 -10 -120q-18 -117 -90 -223.5t-230 -239.5l-94 -72l70 -25l29 -12l153 -55l35 -12q8 -2 92 -48q-82 -74 -192 -143l-29 -16l-27 -17q-39 25 -80 43.5t-111.5 39t-110.5 28.5t-75 8q-29 0 -59 -6l29 25l78 65q178 150 260 278t94 261v54v34 q0 100 -21 147l-43 -30l-34 -25l-185 -139l-219 -164l-135 -96l-51 -41l-31 -25l-47 -37v-198q0 -88 61 -146q-25 -18 -43 -24.5t-116 -30.5l-131 -31q-29 4 -40.5 30.5t-11.5 92.5l2 100v940q-16 10 -26 15q-39 18 -232 18q-55 0 -91 15.5t-66 46.5zM252 1497 q63 102 127 149q47 35 80 35q27 0 162 -47q63 -23 100 -22q23 0 33 6q23 14 55 61l49 -22q-70 -113 -111.5 -149t-90.5 -36q-33 0 -133.5 35t-141.5 35q-27 0 -44 -14.5t-40 -49.5zM551 492l41 28l35 25l114 84l68 51l217 162l182 133l35 26l43 35q-12 18 -23.5 34.5 t-29.5 35.5l-55 -43l-17 -10l-143 -109l-25 -16l-370 -273l-72 -53v-110zM551 655l57 37l13 10l90 68l71 53l156 113l39 31l162 118l30 23l39 27q-72 51 -149.5 69.5t-210.5 18.5q-154 0 -205 -15.5t-92 -66.5v-486z" />
<glyph unicode="&#xd2;" horiz-adv-x="1638" d="M68 696v45.5t8 67.5q29 207 140.5 339t381.5 265l92 45l10 -26l9 -27q18 -47 28 -96q33 14 58.5 31.5t87.5 66.5q72 55 155 55q88 0 181.5 -56t193.5 -177q70 -86 109 -184.5t49 -217.5q0 -205 -58 -342q-63 -150 -219 -282q-84 -72 -143 -108t-135 -64 q-45 -16 -86 -27.5t-84 -17.5t-86 -6q-178 0 -329.5 85t-252.5 246q-111 176 -110 385zM274 831q0 -137 40 -231t118 -154l14 29q35 82 35 156v669q-80 0 -127 -73q-55 -86 -73 -283q-6 -61 -7 -113zM453 428q49 -66 132 -125t230 -131q49 -23 100.5 -38t104.5 -15 q139 0 230 110.5t91 309.5l-4 96q-18 184 -82 303l-53 -35l-39 -22l-110 -70l-86 -53q-176 -106 -267 -164q-53 -35 -163 -107l-27 -20zM506 1725l8 22l30 -4q23 0 80.5 20.5t91.5 37.5q33 -45 84 -99l168 -164l-84 -61q-61 43 -217 137q-129 78 -161 111zM645 592l41 24 l8 5l76 49l72 43l338 211l24 16l39 27l-37 71q-72 -29 -168 -92l-63 -43l-72 -45l-112 -74l-52 -34l-16 -45q-35 -68 -78 -113zM739 791l49 28l76 47l31 21l133 80l109 69l22 13l25 14q-84 113 -236 184q-49 23 -79.5 34t-49.5 15q-8 2 -14 2h-14q-51 0 -52 -34v-473z" />
<glyph unicode="&#xd3;" horiz-adv-x="1638" d="M68 696v45.5t8 67.5q29 207 140.5 339t381.5 265l92 45l10 -26l9 -27q18 -47 28 -96q33 14 58.5 31.5t87.5 66.5q72 55 155 55q88 0 181.5 -56t193.5 -177q70 -86 109 -184.5t49 -217.5q0 -205 -58 -342q-63 -150 -219 -282q-84 -72 -143 -108t-135 -64 q-45 -16 -86 -27.5t-84 -17.5t-86 -6q-178 0 -329.5 85t-252.5 246q-111 176 -110 385zM274 831q0 -137 40 -231t118 -154l14 29q35 82 35 156v669q-80 0 -127 -73q-55 -86 -73 -283q-6 -61 -7 -113zM453 428q49 -66 132 -125t230 -131q49 -23 100.5 -38t104.5 -15 q139 0 230 110.5t91 309.5l-4 96q-18 184 -82 303l-53 -35l-39 -22l-110 -70l-86 -53q-176 -106 -267 -164q-53 -35 -163 -107l-27 -20zM637 1538q106 117 119 131q59 70 102 132q31 -14 82 -23.5t84 -9.5l31 4l8 -23q-43 -43 -205 -157q-82 -57 -162 -115zM645 592l41 24 l8 5l76 49l72 43l338 211l24 16l39 27l-37 71q-72 -29 -168 -92l-63 -43l-72 -45l-112 -74l-52 -34l-16 -45q-35 -68 -78 -113zM739 791l49 28l76 47l31 21l133 80l109 69l22 13l25 14q-84 113 -236 184q-49 23 -79.5 34t-49.5 15q-8 2 -14 2h-14q-51 0 -52 -34v-473z" />
<glyph unicode="&#xd4;" horiz-adv-x="1638" d="M68 696v45.5t8 67.5q29 207 140.5 339t381.5 265l92 45l10 -26l9 -27q18 -47 28 -96q33 14 58.5 31.5t87.5 66.5q72 55 155 55q88 0 181.5 -56t193.5 -177q70 -86 109 -184.5t49 -217.5q0 -205 -58 -342q-63 -150 -219 -282q-84 -72 -143 -108t-135 -64 q-45 -16 -86 -27.5t-84 -17.5t-86 -6q-178 0 -329.5 85t-252.5 246q-111 176 -110 385zM274 831q0 -137 40 -231t118 -154l14 29q35 82 35 156v669q-80 0 -127 -73q-55 -86 -73 -283q-6 -61 -7 -113zM453 428q49 -66 132 -125t230 -131q49 -23 100.5 -38t104.5 -15 q139 0 230 110.5t91 309.5l-4 96q-18 184 -82 303l-53 -35l-39 -22l-110 -70l-86 -53q-176 -106 -267 -164q-53 -35 -163 -107l-27 -20zM471 1524q162 143 323 286q66 -70 174 -151q94 -72 107 -72l29 4l12 -22l-166 -95q-41 27 -93 78t-99 101q-20 -25 -70 -66 q-123 -100 -135 -113zM645 592l41 24l8 5l76 49l72 43l338 211l24 16l39 27l-37 71q-72 -29 -168 -92l-63 -43l-72 -45l-112 -74l-52 -34l-16 -45q-35 -68 -78 -113zM739 791l49 28l76 47l31 21l133 80l109 69l22 13l25 14q-84 113 -236 184q-49 23 -79.5 34t-49.5 15 q-8 2 -14 2h-14q-51 0 -52 -34v-473z" />
<glyph unicode="&#xd5;" horiz-adv-x="1638" d="M68 696v45.5t8 67.5q29 207 140.5 339t381.5 265l92 45l10 -26l9 -27q18 -47 28 -96q33 14 58.5 31.5t87.5 66.5q72 55 155 55q88 0 181.5 -56t193.5 -177q70 -86 109 -184.5t49 -217.5q0 -205 -58 -342q-63 -150 -219 -282q-84 -72 -143 -108t-135 -64 q-45 -16 -86 -27.5t-84 -17.5t-86 -6q-178 0 -329.5 85t-252.5 246q-111 176 -110 385zM274 831q0 -137 40 -231t118 -154l14 29q35 82 35 156v669q-80 0 -127 -73q-55 -86 -73 -283q-6 -61 -7 -113zM453 428q49 -66 132 -125t230 -131q49 -23 100.5 -38t104.5 -15 q139 0 230 110.5t91 309.5l-4 96q-18 184 -82 303l-53 -35l-39 -22l-110 -70l-86 -53q-176 -106 -267 -164q-53 -35 -163 -107l-27 -20zM467 1497q63 102 127 149q47 35 80 35q27 0 162 -47q63 -23 100 -22q23 0 33 6q23 14 55 61l49 -22q-70 -113 -111.5 -149t-90.5 -36 q-33 0 -133.5 35t-141.5 35q-27 0 -44 -14.5t-40 -49.5zM645 592l41 24l8 5l76 49l72 43l338 211l24 16l39 27l-37 71q-72 -29 -168 -92l-63 -43l-72 -45l-112 -74l-52 -34l-16 -45q-35 -68 -78 -113zM739 791l49 28l76 47l31 21l133 80l109 69l22 13l25 14 q-84 113 -236 184q-49 23 -79.5 34t-49.5 15q-8 2 -14 2h-14q-51 0 -52 -34v-473z" />
<glyph unicode="&#xd6;" horiz-adv-x="1638" d="M68 696v45.5t8 67.5q29 207 140.5 339t381.5 265l92 45l10 -26l9 -27q18 -47 28 -96q33 14 58.5 31.5t87.5 66.5q72 55 155 55q88 0 181.5 -56t193.5 -177q70 -86 109 -184.5t49 -217.5q0 -205 -58 -342q-63 -150 -219 -282q-84 -72 -143 -108t-135 -64 q-45 -16 -86 -27.5t-84 -17.5t-86 -6q-178 0 -329.5 85t-252.5 246q-111 176 -110 385zM274 831q0 -137 40 -231t118 -154l14 29q35 82 35 156v669q-80 0 -127 -73q-55 -86 -73 -283q-6 -61 -7 -113zM453 428q49 -66 132 -125t230 -131q49 -23 100.5 -38t104.5 -15 q139 0 230 110.5t91 309.5l-4 96q-18 184 -82 303l-53 -35l-39 -22l-110 -70l-86 -53q-176 -106 -267 -164q-53 -35 -163 -107l-27 -20zM528 1635q25 16 74 63t80 70q68 -51 69 -53q45 -37 45 -60q0 -20 -18 -43q-68 -68 -131 -139l-25 22q10 14 0 29l-12 16q0 6 -16 23 q-47 45 -66 72zM645 592l41 24l8 5l76 49l72 43l338 211l24 16l39 27l-37 71q-72 -29 -168 -92l-63 -43l-72 -45l-112 -74l-52 -34l-16 -45q-35 -68 -78 -113zM739 791l49 28l76 47l31 21l133 80l109 69l22 13l25 14q-84 113 -236 184q-49 23 -79.5 34t-49.5 15q-8 2 -14 2 h-14q-51 0 -52 -34v-473zM872 1647q41 27 80 55q51 37 86 66q117 -91 117 -109q0 -25 -35 -63q-66 -66 -117 -123l-24 22q10 14 0 25q-6 6 -13 14q0 12 -47 62q-37 39 -47 51z" />
<glyph unicode="&#xd7;" />
<glyph unicode="&#xd8;" horiz-adv-x="1638" d="M68 696v45.5t8 67.5q29 207 140.5 339t381.5 265l92 45l10 -26l9 -27q18 -47 28 -96q33 14 58.5 31.5t87.5 66.5q72 55 155 55q121 0 258 -112q76 96 103 141l6 -25l4 -22l6 -45l-72 -94l70 -76q70 -86 109 -184.5t49 -217.5q0 -205 -58 -342q-63 -150 -219 -282 q-84 -72 -143 -108t-135 -64q-45 -16 -86 -27.5t-84 -17.5t-86 -6q-209 0 -377 114l-121 -151l-57 -62q-8 31 -15 60q0 8 7 18l137 172q-94 78 -156 180q-111 176 -110 385zM274 831q0 -137 40 -231t118 -154l14 29q35 82 35 156v669q-80 0 -127 -73q-55 -86 -73 -283 q-6 -61 -7 -113zM453 428q27 -33 28 -35l35 -35l191 240l-170 -111l-27 -20zM563 319q45 -35 107.5 -71.5t144.5 -75.5q49 -23 100.5 -38t104.5 -15q139 0 230 110.5t91 309.5l-4 96q-18 184 -82 303l-53 -35l-39 -22l-110 -70l-86 -53l-101 -62zM645 592l41 24l8 5l64 41 l168 210l-23 -14l-112 -74l-52 -34l-16 -45q-35 -68 -78 -113zM739 791l49 28l76 47l31 21l80 47l151 194q-72 68 -178 119q-49 23 -79.5 34t-49.5 15q-8 2 -14 2h-14q-51 0 -52 -34v-473zM915 760l265 164l24 16l39 27l-37 71q-49 -18 -112 -55v-2zM1137 1036l22 13l25 14 l-13 16z" />
<glyph unicode="&#xd9;" horiz-adv-x="1521" d="M-43 1167l8 13l10 10q49 68 99 110q76 72 139 107t109 35h442v-721l360 291v198q0 14 -36.5 33t-83.5 33l-41 10q18 16 45.5 36.5t42.5 31.5q141 88 190 88q18 0 38.5 -9.5t47.5 -29t37 -31.5t10 -22v-1041q6 -10 14.5 -23.5t34.5 -49.5q47 -70 86 -70q7 0 27 4 q-41 -55 -92 -99t-121 -77l-49 -21l-92 76q-68 68 -68 105q0 18 8 34l-26 -10l-58 -55l-45 -35q-145 -115 -313 -115q-76 0 -160 25q-162 49 -271.5 192.5t-135.5 354.5q-4 27 -6.5 79t-2.5 54q0 92 30 149.5t106 118.5q16 16 49 35l63 45l41 25l41 26q33 23 55 41 q12 10 23 21v90h-336q-55 0 -90 -8.5t-96 -36.5zM358 860q0 -35 7 -82l8 -51l6 -39l16 -80q12 -53 26.5 -79.5t43.5 -51.5q37 18 45 45t8 121l2 463l-16 -10l-15 -9l-32 -26q-98 -86 -99 -201zM479 444l58 -53q12 8 32 23q57 43 219 172l142 112l139 117l57 47l-2 101 l-63 -52q-98 -78 -168 -133q-100 -80 -166 -135l-100 -82l-62 -49l-33 -29zM555 1725l8 22l30 -4q23 0 80.5 20.5t91.5 37.5q33 -45 84 -99l168 -164l-84 -61q-61 43 -217 137q-129 78 -161 111zM565 356q27 -39 65 -65.5t136 -72.5t192 -46q88 0 166 43v64v469v63l-41 -33 l-10 -8l-80 -63l-47 -39l-143 -117l-15 -10l-55 -45l-84 -72l-33 -27z" />
<glyph unicode="&#xda;" horiz-adv-x="1521" d="M-43 1167l8 13l10 10q49 68 99 110q76 72 139 107t109 35h442v-721l360 291v198q0 14 -36.5 33t-83.5 33l-41 10q18 16 45.5 36.5t42.5 31.5q141 88 190 88q18 0 38.5 -9.5t47.5 -29t37 -31.5t10 -22v-1041q6 -10 14.5 -23.5t34.5 -49.5q47 -70 86 -70q7 0 27 4 q-41 -55 -92 -99t-121 -77l-49 -21l-92 76q-68 68 -68 105q0 18 8 34l-26 -10l-58 -55l-45 -35q-145 -115 -313 -115q-76 0 -160 25q-162 49 -271.5 192.5t-135.5 354.5q-4 27 -6.5 79t-2.5 54q0 92 30 149.5t106 118.5q16 16 49 35l63 45l41 25l41 26q33 23 55 41 q12 10 23 21v90h-336q-55 0 -90 -8.5t-96 -36.5zM358 860q0 -35 7 -82l8 -51l6 -39l16 -80q12 -53 26.5 -79.5t43.5 -51.5q37 18 45 45t8 121l2 463l-16 -10l-15 -9l-32 -26q-98 -86 -99 -201zM479 444l58 -53q12 8 32 23q57 43 219 172l142 112l139 117l57 47l-2 101 l-63 -52q-98 -78 -168 -133q-100 -80 -166 -135l-100 -82l-62 -49l-33 -29zM565 356q27 -39 65 -65.5t136 -72.5t192 -46q88 0 166 43v64v469v63l-41 -33l-10 -8l-80 -63l-47 -39l-143 -117l-15 -10l-55 -45l-84 -72l-33 -27zM748 1538q106 117 119 131q59 70 102 132 q31 -14 82 -23.5t84 -9.5l31 4l8 -23q-43 -43 -205 -157q-82 -57 -162 -115z" />
<glyph unicode="&#xdb;" horiz-adv-x="1521" d="M-43 1167l8 13l10 10q49 68 99 110q76 72 139 107t109 35h442v-721l360 291v198q0 14 -36.5 33t-83.5 33l-41 10q18 16 45.5 36.5t42.5 31.5q141 88 190 88q18 0 38.5 -9.5t47.5 -29t37 -31.5t10 -22v-1041q6 -10 14.5 -23.5t34.5 -49.5q47 -70 86 -70q7 0 27 4 q-41 -55 -92 -99t-121 -77l-49 -21l-92 76q-68 68 -68 105q0 18 8 34l-26 -10l-58 -55l-45 -35q-145 -115 -313 -115q-76 0 -160 25q-162 49 -271.5 192.5t-135.5 354.5q-4 27 -6.5 79t-2.5 54q0 92 30 149.5t106 118.5q16 16 49 35l63 45l41 25l41 26q33 23 55 41 q12 10 23 21v90h-336q-55 0 -90 -8.5t-96 -36.5zM358 860q0 -35 7 -82l8 -51l6 -39l16 -80q12 -53 26.5 -79.5t43.5 -51.5q37 18 45 45t8 121l2 463l-16 -10l-15 -9l-32 -26q-98 -86 -99 -201zM477 1524q162 143 323 286q66 -70 174 -151q94 -72 107 -72l29 4l12 -22 l-166 -95q-41 27 -93 78t-99 101q-20 -25 -70 -66q-123 -100 -135 -113zM479 444l58 -53q12 8 32 23q57 43 219 172l142 112l139 117l57 47l-2 101l-63 -52q-98 -78 -168 -133q-100 -80 -166 -135l-100 -82l-62 -49l-33 -29zM565 356q27 -39 65 -65.5t136 -72.5t192 -46 q88 0 166 43v64v469v63l-41 -33l-10 -8l-80 -63l-47 -39l-143 -117l-15 -10l-55 -45l-84 -72l-33 -27z" />
<glyph unicode="&#xdc;" horiz-adv-x="1521" d="M-43 1167l8 13l10 10q49 68 99 110q76 72 139 107t109 35h442v-721l360 291v198q0 14 -36.5 33t-83.5 33l-41 10q18 16 45.5 36.5t42.5 31.5q141 88 190 88q18 0 38.5 -9.5t47.5 -29t37 -31.5t10 -22v-1041q6 -10 14.5 -23.5t34.5 -49.5q47 -70 86 -70q7 0 27 4 q-41 -55 -92 -99t-121 -77l-49 -21l-92 76q-68 68 -68 105q0 18 8 34l-26 -10l-58 -55l-45 -35q-145 -115 -313 -115q-76 0 -160 25q-162 49 -271.5 192.5t-135.5 354.5q-4 27 -6.5 79t-2.5 54q0 92 30 149.5t106 118.5q16 16 49 35l63 45l41 25l41 26q33 23 55 41 q12 10 23 21v90h-336q-55 0 -90 -8.5t-96 -36.5zM358 860q0 -35 7 -82l8 -51l6 -39l16 -80q12 -53 26.5 -79.5t43.5 -51.5q37 18 45 45t8 121l2 463l-16 -10l-15 -9l-32 -26q-98 -86 -99 -201zM479 444l58 -53q12 8 32 23q57 43 219 172l142 112l139 117l57 47l-2 101 l-63 -52q-98 -78 -168 -133q-100 -80 -166 -135l-100 -82l-62 -49l-33 -29zM534 1635q25 16 74 63t80 70q68 -51 69 -53q45 -37 45 -60q0 -20 -18 -43q-68 -68 -131 -139l-25 22q10 14 0 29l-12 16q0 6 -16 23q-47 45 -66 72zM565 356q27 -39 65 -65.5t136 -72.5t192 -46 q88 0 166 43v64v469v63l-41 -33l-10 -8l-80 -63l-47 -39l-143 -117l-15 -10l-55 -45l-84 -72l-33 -27zM878 1647q41 27 80 55q51 37 86 66q117 -91 117 -109q0 -25 -35 -63q-66 -66 -117 -123l-24 22q10 14 0 25q-6 6 -13 14q0 12 -47 62q-37 39 -47 51z" />
<glyph unicode="&#xdd;" />
<glyph unicode="&#xde;" />
<glyph unicode="&#xdf;" horiz-adv-x="1308" d="M-51 692l14 15l10 8q23 23 121 90l35 18v33l2 45l4 68q14 125 30.5 166t74.5 79l51 35l20 15l95 55l28 12l82 43q59 33 88 43q41 16 72 17q70 0 180 -117q2 -4 82 -62q31 -23 47 -47q31 -33 45 -49q45 -53 45 -72q0 -18 -126 -81.5t-247 -122.5l-149 -107h100h56.5 t54.5 2q61 0 91 -6t73 -27l82 -49q121 -84 176 -143q74 -80 74 -152q0 -75 -86 -149q-39 -49 -72 -84q-41 -43 -96 -74l-70 -37q-35 -16 -97.5 -50t-84.5 -34q-23 0 -78 31q-35 20 -90 47q-35 16 -58 33q-37 27 -55 41l25 16l34 29q23 16 97 70q41 31 84 55l26 -14l19 -11 l14 -10l76 -51l45 -25q31 -18 63 -37q8 -4 52 -4q18 0 31.5 21.5t13.5 54.5q0 25 -8.5 50.5t-55.5 64.5q-51 37 -100 76q-80 68 -115 79q-35 4 -61 9l-111 12q-37 51 -53 82q-55 98 -55 162q0 37 39.5 76.5t162.5 109.5q23 12 50.5 30.5t27.5 43.5t-24 59q-16 23 -48 53 q-37 39 -88 99q-18 23 -71 82q-4 8 -63.5 -13.5t-59.5 -44.5v-1095q0 -84 47 -131q-25 -16 -49 -17q-23 0 -84 19q-12 4 -47 -7.5t-109 -48.5q-12 -6 -55 -6v737h-78z" />
<glyph unicode="&#xe0;" horiz-adv-x="985" d="M61 229q0 82 119 154l125 74l6 4l123 61l86 39l10 4l13 8l24 15q-2 20 -4 28q-8 20 -10 31q-35 113 -89 169t-110 56q-23 0 -43 -10l-37 -31l-10 -8l-33 -28q14 47 48 80.5t114 78.5l53 25q98 51 148 51q59 0 166 -86q57 -45 79.5 -76.5t22.5 -56.5v-678l-295 -151v178 l-78 -47l-71 -41l-88 -49q-66 -39 -117 -39q-82 0 -131 147q-20 55 -21 98zM261 1399l8 22l30 -4q23 0 80.5 20.5t91.5 37.5q33 -45 84 -99l168 -164l-84 -61q-61 43 -217 137q-129 78 -161 111zM301 352q0 -18 6 -36.5t19 -53.5q43 -104 133 -104q41 0 88 20l20 10v361 q-20 -6 -41.5 -12.5t-56.5 -22.5q-168 -86 -168 -162z" />
<glyph unicode="&#xe1;" horiz-adv-x="985" d="M61 229q0 82 119 154l125 74l6 4l123 61l86 39l10 4l13 8l24 15q-2 20 -4 28q-8 20 -10 31q-35 113 -89 169t-110 56q-23 0 -43 -10l-37 -31l-10 -8l-33 -28q14 47 48 80.5t114 78.5l53 25q98 51 148 51q59 0 166 -86q57 -45 79.5 -76.5t22.5 -56.5v-678l-295 -151v178 l-78 -47l-71 -41l-88 -49q-66 -39 -117 -39q-82 0 -131 147q-20 55 -21 98zM275 1212q106 117 119 131q59 70 102 132q31 -14 82 -23.5t84 -9.5l31 4l8 -23q-43 -43 -205 -157q-82 -57 -162 -115zM301 352q0 -18 6 -36.5t19 -53.5q43 -104 133 -104q41 0 88 20l20 10v361 q-20 -6 -41.5 -12.5t-56.5 -22.5q-168 -86 -168 -162z" />
<glyph unicode="&#xe2;" horiz-adv-x="985" d="M61 229q0 82 119 154l125 74l6 4l123 61l86 39l10 4l13 8l24 15q-2 20 -4 28q-8 20 -10 31q-35 113 -89 169t-110 56q-23 0 -43 -10l-37 -31l-10 -8l-33 -28q14 47 48 80.5t114 78.5l53 25q98 51 148 51q59 0 166 -86q57 -45 79.5 -76.5t22.5 -56.5v-678l-295 -151v178 l-78 -47l-71 -41l-88 -49q-66 -39 -117 -39q-82 0 -131 147q-20 55 -21 98zM219 1174q162 143 323 286q66 -70 174 -151q94 -72 107 -72l29 4l12 -22l-166 -95q-41 27 -93 78t-99 101q-20 -25 -70 -66q-123 -100 -135 -113zM301 352q0 -18 6 -36.5t19 -53.5 q43 -104 133 -104q41 0 88 20l20 10v361q-20 -6 -41.5 -12.5t-56.5 -22.5q-168 -86 -168 -162z" />
<glyph unicode="&#xe3;" horiz-adv-x="985" d="M61 229q0 82 119 154l125 74l6 4l123 61l86 39l10 4l13 8l24 15q-2 20 -4 28q-8 20 -10 31q-35 113 -89 169t-110 56q-23 0 -43 -10l-37 -31l-10 -8l-33 -28q14 47 48 80.5t114 78.5l53 25q98 51 148 51q59 0 166 -86q57 -45 79.5 -76.5t22.5 -56.5v-678l-295 -151v178 l-78 -47l-71 -41l-88 -49q-66 -39 -117 -39q-82 0 -131 147q-20 55 -21 98zM186 1147q63 102 127 149q47 35 80 35q27 0 162 -47q63 -23 100 -22q23 0 33 6q23 14 55 61l49 -22q-70 -113 -111.5 -149t-90.5 -36q-33 0 -133.5 35t-141.5 35q-27 0 -44 -14.5t-40 -49.5z M301 352q0 -18 6 -36.5t19 -53.5q43 -104 133 -104q41 0 88 20l20 10v361q-20 -6 -41.5 -12.5t-56.5 -22.5q-168 -86 -168 -162z" />
<glyph unicode="&#xe4;" horiz-adv-x="985" d="M61 229q0 82 119 154l125 74l6 4l123 61l86 39l10 4l13 8l24 15q-2 20 -4 28q-8 20 -10 31q-35 113 -89 169t-110 56q-23 0 -43 -10l-37 -31l-10 -8l-33 -28q14 47 48 80.5t114 78.5l53 25q98 51 148 51q59 0 166 -86q57 -45 79.5 -76.5t22.5 -56.5v-678l-295 -151v178 l-78 -47l-71 -41l-88 -49q-66 -39 -117 -39q-82 0 -131 147q-20 55 -21 98zM166 1266q25 16 74 63t80 70q68 -51 69 -53q45 -37 45 -60q0 -20 -18 -43q-68 -68 -131 -139l-25 22q10 14 0 29l-12 16q0 6 -16 23q-47 45 -66 72zM301 352q0 -18 6 -36.5t19 -53.5 q43 -104 133 -104q41 0 88 20l20 10v361q-20 -6 -41.5 -12.5t-56.5 -22.5q-168 -86 -168 -162zM510 1278q41 27 80 55q51 37 86 66q117 -91 117 -109q0 -25 -35 -63q-66 -66 -117 -123l-24 22q10 14 0 25q-6 6 -13 14q0 12 -47 62q-37 39 -47 51z" />
<glyph unicode="&#xe5;" horiz-adv-x="985" d="M61 229q0 82 119 154l125 74l6 4l123 61l86 39l10 4l13 8l24 15q-2 20 -4 28q-8 20 -10 31q-35 113 -89 169t-110 56q-23 0 -43 -10l-37 -31l-10 -8l-33 -28q14 47 48 80.5t114 78.5l53 25q98 51 148 51q59 0 166 -86q57 -45 79.5 -76.5t22.5 -56.5v-678l-295 -151v178 l-78 -47l-71 -41l-88 -49q-66 -39 -117 -39q-82 0 -131 147q-20 55 -21 98zM301 352q0 -18 6 -36.5t19 -53.5q43 -104 133 -104q41 0 88 20l20 10v361q-20 -6 -41.5 -12.5t-56.5 -22.5q-168 -86 -168 -162zM348 1278q0 72 51.5 123t122.5 51q70 0 121 -51t51 -123 q0 -74 -49 -123t-123 -49q-72 0 -123 49t-51 123zM426 1278q0 -41 27.5 -68.5t68.5 -27.5t67.5 26.5t26.5 69.5q0 39 -26.5 67.5t-67.5 28.5t-68.5 -27.5t-27.5 -68.5z" />
<glyph unicode="&#xe6;" horiz-adv-x="1388" d="M61 229q0 82 119 154l125 74l6 4l123 61l86 39l10 4l13 8l24 15q-2 20 -4 28q-8 20 -10 31q-35 113 -89 169t-110 56q-23 0 -43 -10l-37 -31l-10 -8l-33 -28q14 47 48 80.5t114 78.5l53 25q98 51 148 51q59 0 166 -86q51 -41 67 -63l52 28l41 23l110 55q23 10 52.5 27.5 t41.5 17.5q23 0 144 -106q61 -55 116 -135l-30 -23l-25 -16l-16 -11l-107 -84l-145 -104q-100 -74 -123 -90l-18 -17l-31 -26q23 -33 52.5 -69t57.5 -62q18 -20 38 -35.5t42 -32.5q53 -41 85 -57.5t63 -16.5q8 0 33 5l-43 -27l-68 -41l-72 -43q-31 -18 -61 -35 q-43 -25 -62 -24q-16 0 -38.5 11t-65.5 34.5t-103.5 76t-99.5 107.5l-80 -51l-78 -47l-71 -41l-88 -49q-66 -39 -117 -39q-82 0 -131 147q-20 55 -21 98zM301 352q0 -18 6 -36.5t19 -53.5q43 -104 133 -104q41 0 88 20l20 10v361q-20 -6 -41.5 -12.5t-56.5 -22.5 q-168 -86 -168 -162zM821 625q0 -51 14.5 -96.5t41.5 -84.5l34 21l31 22l109 86l34 29l29 25q-29 51 -52.5 76.5t-113.5 97.5l-65 51q-8 -16 -15.5 -30.5t-15.5 -37.5q-31 -86 -31 -159z" />
<glyph unicode="&#xe7;" horiz-adv-x="917" d="M61 492q0 104 33 182q63 129 109 155l39 23l30 16l64 33l117 57l112 50q47 18 62 18q31 0 200 -104q44 -25 95 -68l-64 -49l-6 -4l-117 -66q-72 -43 -84 -43q-14 0 -63 43q-63 55 -98 77t-91 40q-31 -37 -40 -78t-9 -139v-60q6 -49 20.5 -91t50.5 -100t73 -99 q66 -78 114.5 -109t106.5 -31q20 0 30 2l-40 -26l-27 -17l-19 -8l-129 -73q-25 -14 -44 -24.5t-42 -16.5l-20 -29q76 -43 104.5 -71.5t28.5 -51.5q0 -43 -207 -266l-55 39q90 96 90 121q0 23 -35 45t-100 47l139 166q-14 4 -27 12q-8 4 -65 45q-35 27 -69.5 63.5t-67.5 83.5 q-78 109 -94 232q-2 25 -3.5 43t-1.5 31z" />
<glyph unicode="&#xe8;" horiz-adv-x="874" d="M61 485q0 92 35 166t101 140q37 35 72.5 59t101.5 59l41 23l110 55q23 10 52.5 27.5t41.5 17.5q23 0 144 -106q62 -55 117 -135l-31 -23l-25 -16l-16 -11l-107 -84l-145 -104q-100 -74 -123 -90l-18 -17l-31 -26q23 -33 52.5 -69t58.5 -62q18 -20 37.5 -35.5t41.5 -32.5 q53 -41 85 -57.5t63 -16.5q8 0 33 5l-43 -27l-68 -41l-72 -43q-31 -18 -61 -35q-43 -25 -62 -24q-16 0 -38.5 11t-65.5 34.5t-109 78.5q-90 82 -131 176.5t-41 202.5zM211 1399l8 22l30 -4q23 0 80.5 20.5t91.5 37.5q33 -45 84 -99l168 -164l-84 -61q-61 43 -217 137 q-129 78 -161 111zM313 625q0 -51 14.5 -96.5t41.5 -84.5l34 21l31 22l109 86l35 29l28 25q-29 51 -52.5 76.5t-113.5 97.5l-65 51q-8 -16 -15.5 -30.5t-15.5 -37.5q-31 -86 -31 -159z" />
<glyph unicode="&#xe9;" horiz-adv-x="874" d="M61 485q0 92 35 166t101 140q37 35 72.5 59t101.5 59l41 23l110 55q23 10 52.5 27.5t41.5 17.5q23 0 144 -106q62 -55 117 -135l-31 -23l-25 -16l-16 -11l-107 -84l-145 -104q-100 -74 -123 -90l-18 -17l-31 -26q23 -33 52.5 -69t58.5 -62q18 -20 37.5 -35.5t41.5 -32.5 q53 -41 85 -57.5t63 -16.5q8 0 33 5l-43 -27l-68 -41l-72 -43q-31 -18 -61 -35q-43 -25 -62 -24q-16 0 -38.5 11t-65.5 34.5t-109 78.5q-90 82 -131 176.5t-41 202.5zM226 1212q106 117 119 131q59 70 102 132q31 -14 82 -23.5t84 -9.5l31 4l8 -23q-43 -43 -205 -157 q-82 -57 -162 -115zM313 625q0 -51 14.5 -96.5t41.5 -84.5l34 21l31 22l109 86l35 29l28 25q-29 51 -52.5 76.5t-113.5 97.5l-65 51q-8 -16 -15.5 -30.5t-15.5 -37.5q-31 -86 -31 -159z" />
<glyph unicode="&#xea;" horiz-adv-x="874" d="M61 485q0 92 35 166t101 140q37 35 72.5 59t101.5 59l41 23l110 55q23 10 52.5 27.5t41.5 17.5q23 0 144 -106q62 -55 117 -135l-31 -23l-25 -16l-16 -11l-107 -84l-145 -104q-100 -74 -123 -90l-18 -17l-31 -26q23 -33 52.5 -69t58.5 -62q18 -20 37.5 -35.5t41.5 -32.5 q53 -41 85 -57.5t63 -16.5q8 0 33 5l-43 -27l-68 -41l-72 -43q-31 -18 -61 -35q-43 -25 -62 -24q-16 0 -38.5 11t-65.5 34.5t-109 78.5q-90 82 -131 176.5t-41 202.5zM119 1174q162 143 323 286q66 -70 174 -151q94 -72 107 -72l29 4l12 -22l-166 -95q-41 27 -93 78t-99 101 q-20 -25 -70 -66q-123 -100 -135 -113zM313 625q0 -51 14.5 -96.5t41.5 -84.5l34 21l31 22l109 86l35 29l28 25q-29 51 -52.5 76.5t-113.5 97.5l-65 51q-8 -16 -15.5 -30.5t-15.5 -37.5q-31 -86 -31 -159z" />
<glyph unicode="&#xeb;" horiz-adv-x="874" d="M61 485q0 92 35 166t101 140q37 35 72.5 59t101.5 59l41 23l110 55q23 10 52.5 27.5t41.5 17.5q23 0 144 -106q62 -55 117 -135l-31 -23l-25 -16l-16 -11l-107 -84l-145 -104q-100 -74 -123 -90l-18 -17l-31 -26q23 -33 52.5 -69t58.5 -62q18 -20 37.5 -35.5t41.5 -32.5 q53 -41 85 -57.5t63 -16.5q8 0 33 5l-43 -27l-68 -41l-72 -43q-31 -18 -61 -35q-43 -25 -62 -24q-16 0 -38.5 11t-65.5 34.5t-109 78.5q-90 82 -131 176.5t-41 202.5zM129 1266q25 16 74 63t80 70q68 -51 69 -53q45 -37 45 -60q0 -20 -18 -43q-68 -68 -131 -139l-25 22 q10 14 0 29l-12 16q0 6 -16 23q-47 45 -66 72zM313 625q0 -51 14.5 -96.5t41.5 -84.5l34 21l31 22l109 86l35 29l28 25q-29 51 -52.5 76.5t-113.5 97.5l-65 51q-8 -16 -15.5 -30.5t-15.5 -37.5q-31 -86 -31 -159zM473 1278q41 27 80 55q51 37 86 66q117 -91 117 -109 q0 -25 -35 -63q-66 -66 -117 -123l-24 22q10 14 0 25q-6 6 -13 14q0 12 -47 62q-37 39 -47 51z" />
<glyph unicode="&#xec;" horiz-adv-x="542" d="M37 889q51 41 86 63q156 96 199 97q45 0 90 -101q8 -25 8 -37v-673q0 -31 5 -56.5t46 -36.5q28 -1 55 13l-34 -23l-35 -22l-13 -7l-147 -79q-76 -41 -111 -41q-41 0 -59 77l-4 39v633q0 113 -86 154zM39 1399l8 22l30 -4q23 0 80.5 20.5t91.5 37.5q33 -45 84 -99 l168 -164l-84 -61q-61 43 -217 137q-129 78 -161 111z" />
<glyph unicode="&#xed;" horiz-adv-x="542" d="M37 889q51 41 86 63q156 96 199 97q45 0 90 -101q8 -25 8 -37v-673q0 -31 5 -56.5t46 -36.5q28 -1 55 13l-34 -23l-35 -22l-13 -7l-147 -79q-76 -41 -111 -41q-41 0 -59 77l-4 39v633q0 113 -86 154zM60 1212q106 117 119 131q59 70 102 132q31 -14 82 -23.5t84 -9.5 l31 4l8 -23q-43 -43 -205 -157q-82 -57 -162 -115z" />
<glyph unicode="&#xee;" horiz-adv-x="542" d="M-47 1174q162 143 323 286q66 -70 174 -151q94 -72 107 -72l29 4l12 -22l-166 -95q-41 27 -93 78t-99 101q-20 -25 -70 -66q-123 -100 -135 -113zM37 889q51 41 86 63q156 96 199 97q45 0 90 -101q8 -25 8 -37v-673q0 -31 5 -56.5t46 -36.5q28 -1 55 13l-34 -23l-35 -22 l-13 -7l-147 -79q-76 -41 -111 -41q-41 0 -59 77l-4 39v633q0 113 -86 154z" />
<glyph unicode="&#xef;" horiz-adv-x="542" d="M-43 1266q25 16 74 63t80 70q68 -51 69 -53q45 -37 45 -60q0 -20 -18 -43q-68 -68 -131 -139l-25 22q10 14 0 29l-12 16q0 6 -16 23q-47 45 -66 72zM37 889q51 41 86 63q156 96 199 97q45 0 90 -101q8 -25 8 -37v-673q0 -31 5 -56.5t46 -36.5q28 -1 55 13l-34 -23 l-35 -22l-13 -7l-147 -79q-76 -41 -111 -41q-41 0 -59 77l-4 39v633q0 113 -86 154zM301 1278q41 27 80 55q51 37 86 66q117 -91 117 -109q0 -25 -35 -63q-66 -66 -117 -123l-24 22q10 14 0 25q-6 6 -13 14q0 12 -47 62q-37 39 -47 51z" />
<glyph unicode="&#xf0;" />
<glyph unicode="&#xf1;" horiz-adv-x="1163" d="M43 872l27 23l75 53q109 68 154 68q61 0 107 -162l12 -18l26 20l27 16l133 76l98 45q78 31 109 31q35 0 141 -57q59 -33 78 -73t19 -140q0 -29 -4.5 -180.5t-4.5 -282.5q0 -31 11.5 -52.5t34 -48t71.5 -38.5q-18 -20 -31.5 -31.5t-23.5 -20.5q-195 -129 -215 -129 q-18 0 -43 21q-37 35 -66 61q-14 12 -24.5 27.5t-10.5 32.5v635q-8 16 -16 26q-27 33 -84 66q-47 31 -90 30q-45 0 -109 -41l-24 -20v-739l-297 -107v770q0 55 -53 115zM282 1147q63 102 127 149q47 35 80 35q27 0 162 -47q63 -23 100 -22q23 0 33 6q23 14 55 61l49 -22 q-70 -113 -111.5 -149t-90.5 -36q-33 0 -133.5 35t-141.5 35q-27 0 -44 -14.5t-40 -49.5z" />
<glyph unicode="&#xf2;" horiz-adv-x="1228" d="M63 438q0 70 3.5 102.5t17.5 77.5q37 115 62.5 145t146.5 101q14 10 35 21q43 23 59 30q225 117 336 117q76 0 168 -43q82 -35 143 -103.5t92 -158.5q29 -96 29 -168q0 -172 -178 -317l-57 -43l-37 -23l-117 -72l-88 -57q-94 -59 -203 -59q-141 0 -252.5 100t-148.5 285 q-2 10 -5 27.5t-6 37.5zM328 590q0 -133 45 -220t151 -165q47 -31 86 -49q68 -29 115 -29q147 0 147 233v60q0 133 -44 224t-138 165q-76 57 -145 82q-53 16 -80 16q-35 0 -56.5 -21.5t-43.5 -82.5q-6 -18 -14.5 -44t-12.5 -54l-8 -54zM334 1399l8 22l30 -4q23 0 80.5 20.5 t91.5 37.5q33 -45 84 -99l168 -164l-84 -61q-61 43 -217 137q-129 78 -161 111z" />
<glyph unicode="&#xf3;" horiz-adv-x="1228" d="M63 438q0 70 3.5 102.5t17.5 77.5q37 115 62.5 145t146.5 101q14 10 35 21q43 23 59 30q225 117 336 117q76 0 168 -43q82 -35 143 -103.5t92 -158.5q29 -96 29 -168q0 -172 -178 -317l-57 -43l-37 -23l-117 -72l-88 -57q-94 -59 -203 -59q-141 0 -252.5 100t-148.5 285 q-2 10 -5 27.5t-6 37.5zM328 590q0 -133 45 -220t151 -165q47 -31 86 -49q68 -29 115 -29q147 0 147 233v60q0 133 -44 224t-138 165q-76 57 -145 82q-53 16 -80 16q-35 0 -56.5 -21.5t-43.5 -82.5q-6 -18 -14.5 -44t-12.5 -54l-8 -54zM373 1212q106 117 119 131 q59 70 102 132q31 -14 82 -23.5t84 -9.5l31 4l8 -23q-43 -43 -205 -157q-82 -57 -162 -115z" />
<glyph unicode="&#xf4;" horiz-adv-x="1228" d="M63 438q0 70 3.5 102.5t17.5 77.5q37 115 62.5 145t146.5 101q14 10 35 21q43 23 59 30q225 117 336 117q76 0 168 -43q82 -35 143 -103.5t92 -158.5q29 -96 29 -168q0 -172 -178 -317l-57 -43l-37 -23l-117 -72l-88 -57q-94 -59 -203 -59q-141 0 -252.5 100t-148.5 285 q-2 10 -5 27.5t-6 37.5zM291 1174q162 143 323 286q66 -70 174 -151q94 -72 107 -72l29 4l12 -22l-166 -95q-41 27 -93 78t-99 101q-20 -25 -70 -66q-123 -100 -135 -113zM328 590q0 -133 45 -220t151 -165q47 -31 86 -49q68 -29 115 -29q147 0 147 233v60q0 133 -44 224 t-138 165q-76 57 -145 82q-53 16 -80 16q-35 0 -56.5 -21.5t-43.5 -82.5q-6 -18 -14.5 -44t-12.5 -54l-8 -54z" />
<glyph unicode="&#xf5;" horiz-adv-x="1228" d="M63 438q0 70 3.5 102.5t17.5 77.5q37 115 62.5 145t146.5 101q14 10 35 21q43 23 59 30q225 117 336 117q76 0 168 -43q82 -35 143 -103.5t92 -158.5q29 -96 29 -168q0 -172 -178 -317l-57 -43l-37 -23l-117 -72l-88 -57q-94 -59 -203 -59q-141 0 -252.5 100t-148.5 285 q-2 10 -5 27.5t-6 37.5zM295 1147q63 102 127 149q47 35 80 35q27 0 162 -47q63 -23 100 -22q23 0 33 6q23 14 55 61l49 -22q-70 -113 -111.5 -149t-90.5 -36q-33 0 -133.5 35t-141.5 35q-27 0 -44 -14.5t-40 -49.5zM328 590q0 -133 45 -220t151 -165q47 -31 86 -49 q68 -29 115 -29q147 0 147 233v60q0 133 -44 224t-138 165q-76 57 -145 82q-53 16 -80 16q-35 0 -56.5 -21.5t-43.5 -82.5q-6 -18 -14.5 -44t-12.5 -54l-8 -54z" />
<glyph unicode="&#xf6;" horiz-adv-x="1228" d="M63 438q0 70 3.5 102.5t17.5 77.5q37 115 62.5 145t146.5 101q14 10 35 21q43 23 59 30q225 117 336 117q76 0 168 -43q82 -35 143 -103.5t92 -158.5q29 -96 29 -168q0 -172 -178 -317l-57 -43l-37 -23l-117 -72l-88 -57q-94 -59 -203 -59q-141 0 -252.5 100t-148.5 285 q-2 10 -5 27.5t-6 37.5zM289 1266q25 16 74 63t80 70q68 -51 69 -53q45 -37 45 -60q0 -20 -18 -43q-68 -68 -131 -139l-25 22q10 14 0 29l-12 16q0 6 -16 23q-47 45 -66 72zM328 590q0 -133 45 -220t151 -165q47 -31 86 -49q68 -29 115 -29q147 0 147 233v60q0 133 -44 224 t-138 165q-76 57 -145 82q-53 16 -80 16q-35 0 -56.5 -21.5t-43.5 -82.5q-6 -18 -14.5 -44t-12.5 -54l-8 -54zM633 1278q41 27 80 55q51 37 86 66q117 -91 117 -109q0 -25 -35 -63q-66 -66 -117 -123l-24 22q10 14 0 25q-6 6 -13 14q0 12 -47 62q-37 39 -47 51z" />
<glyph unicode="&#xf7;" />
<glyph unicode="&#xf8;" horiz-adv-x="1228" d="M63 438q0 70 3.5 102.5t17.5 77.5q37 115 62.5 145t146.5 101q14 10 35 21q43 23 59 30q233 117 338 117q63 0 145 -35q74 90 99 119q41 49 80 105l6 -25l4 -22l6 -46q0 -18 -16 -41q-47 -57 -103 -126q51 -35 88 -74q61 -70 92 -160q29 -96 29 -168q0 -172 -178 -317 l-57 -43l-37 -23l-117 -72l-88 -57q-94 -59 -203 -59q-131 0 -235 86l-66 -78l-41 -47l-57 -62q-8 39 -8 78q0 33 47 84q70 74 71 78q-39 47 -68.5 108.5t-43.5 137.5q-2 10 -5 27.5t-6 37.5zM328 590q0 -131 49 -228l108 136l60 80l166 215l-21 16q-76 57 -145 82 q-53 16 -80 16q-35 0 -56.5 -21.5t-43.5 -82.5q-6 -18 -14.5 -44t-12.5 -54l-8 -54zM422 297q39 -43 102 -92q47 -31 86 -49q68 -29 115 -29q147 0 147 233v60q0 104 -24.5 177t-77.5 136l-25 -33l-55 -69l-92 -115z" />
<glyph unicode="&#xf9;" horiz-adv-x="1163" d="M29 852q14 20 28.5 33.5t24.5 21.5l4 4l113 70q66 41 82 41t42.5 -27.5t45.5 -46.5q29 -37 32 -41q12 -23 19 -33v-630q0 -16 20.5 -41t65.5 -47q18 -12 45 -13q37 0 108 31q45 16 86 51v480q0 20 -13 46.5t-50 71.5l-25 25q27 49 60 72q68 51 86 65q55 41 78 41 q18 0 39 -16q10 -8 50 -50t55 -65t15 -33v-631q0 -8 10.5 -20t22.5 -23.5t37 -21.5l-29 -21l-16 -12l-127 -98l-84 -55q-33 33 -47 58t-47 105l-29 43q-33 -31 -64.5 -57.5t-58.5 -42.5q-168 -109 -225 -109q-41 0 -86 29q-33 20 -115 92q-59 51 -59 99v536q0 10 -14.5 31.5 t-57.5 66.5zM297 1399l8 22l30 -4q23 0 80.5 20.5t91.5 37.5q33 -45 84 -99l168 -164l-84 -61q-61 43 -217 137q-129 78 -161 111z" />
<glyph unicode="&#xfa;" horiz-adv-x="1163" d="M29 852q14 20 28.5 33.5t24.5 21.5l4 4l113 70q66 41 82 41t42.5 -27.5t45.5 -46.5q29 -37 32 -41q12 -23 19 -33v-630q0 -16 20.5 -41t65.5 -47q18 -12 45 -13q37 0 108 31q45 16 86 51v480q0 20 -13 46.5t-50 71.5l-25 25q27 49 60 72q68 51 86 65q55 41 78 41 q18 0 39 -16q10 -8 50 -50t55 -65t15 -33v-631q0 -8 10.5 -20t22.5 -23.5t37 -21.5l-29 -21l-16 -12l-127 -98l-84 -55q-33 33 -47 58t-47 105l-29 43q-33 -31 -64.5 -57.5t-58.5 -42.5q-168 -109 -225 -109q-41 0 -86 29q-33 20 -115 92q-59 51 -59 99v536q0 10 -14.5 31.5 t-57.5 66.5zM355 1212q106 117 119 131q59 70 102 132q31 -14 82 -23.5t84 -9.5l31 4l8 -23q-43 -43 -205 -157q-82 -57 -162 -115z" />
<glyph unicode="&#xfb;" horiz-adv-x="1163" d="M29 852q14 20 28.5 33.5t24.5 21.5l4 4l113 70q66 41 82 41t42.5 -27.5t45.5 -46.5q29 -37 32 -41q12 -23 19 -33v-630q0 -16 20.5 -41t65.5 -47q18 -12 45 -13q37 0 108 31q45 16 86 51v480q0 20 -13 46.5t-50 71.5l-25 25q27 49 60 72q68 51 86 65q55 41 78 41 q18 0 39 -16q10 -8 50 -50t55 -65t15 -33v-631q0 -8 10.5 -20t22.5 -23.5t37 -21.5l-29 -21l-16 -12l-127 -98l-84 -55q-33 33 -47 58t-47 105l-29 43q-33 -31 -64.5 -57.5t-58.5 -42.5q-168 -109 -225 -109q-41 0 -86 29q-33 20 -115 92q-59 51 -59 99v536q0 10 -14.5 31.5 t-57.5 66.5zM266 1174q162 143 323 286q66 -70 174 -151q94 -72 107 -72l29 4l12 -22l-166 -95q-41 27 -93 78t-99 101q-20 -25 -70 -66q-123 -100 -135 -113z" />
<glyph unicode="&#xfc;" horiz-adv-x="1163" d="M29 852q14 20 28.5 33.5t24.5 21.5l4 4l113 70q66 41 82 41t42.5 -27.5t45.5 -46.5q29 -37 32 -41q12 -23 19 -33v-630q0 -16 20.5 -41t65.5 -47q18 -12 45 -13q37 0 108 31q45 16 86 51v480q0 20 -13 46.5t-50 71.5l-25 25q27 49 60 72q68 51 86 65q55 41 78 41 q18 0 39 -16q10 -8 50 -50t55 -65t15 -33v-631q0 -8 10.5 -20t22.5 -23.5t37 -21.5l-29 -21l-16 -12l-127 -98l-84 -55q-33 33 -47 58t-47 105l-29 43q-33 -31 -64.5 -57.5t-58.5 -42.5q-168 -109 -225 -109q-41 0 -86 29q-33 20 -115 92q-59 51 -59 99v536q0 10 -14.5 31.5 t-57.5 66.5zM264 1266q25 16 74 63t80 70q68 -51 69 -53q45 -37 45 -60q0 -20 -18 -43q-68 -68 -131 -139l-25 22q10 14 0 29l-12 16q0 6 -16 23q-47 45 -66 72zM608 1278q41 27 80 55q51 37 86 66q117 -91 117 -109q0 -25 -35 -63q-66 -66 -117 -123l-24 22q10 14 0 25 q-6 6 -13 14q0 12 -47 62q-37 39 -47 51z" />
<glyph unicode="&#xfd;" />
<glyph unicode="&#xfe;" />
<glyph unicode="&#xff;" horiz-adv-x="1159" d="M-29 768q12 14 19 23q18 23 30 34q61 72 117 105t96 33q43 0 58 -31q70 -139 131 -301q4 -14 16 -39q37 -68 76 -143l45 -89l33 -59l43 -84q33 20 62.5 52t56.5 81q53 92 53 195q0 147 -107 248q-80 78 -172 77q-31 0 -59.5 -7t-69.5 -40l13 17l10 12q23 29 44 50.5 t58 51.5q133 119 242 119q84 0 188 -69q16 -14 32 -26.5t32 -35.5q55 -78 55 -172q0 -111 -72 -231q-78 -133 -235 -267l-59 -51l-43 -41q-45 -41 -125 -123q-53 -55 -88 -92l-21 -20l-14 -19q33 10 59.5 12.5t69.5 2.5q80 0 184 -41l59 -21l13 -4l51 -10l-33 -31l-22 -18 l-119 -97q-20 -16 -44 -34.5t-40 -18.5q-10 0 -28.5 5t-53.5 18l-35 10q-115 31 -149.5 38t-51.5 5l-79 -16l-7 -2l-24 -5l12 13l58 55q113 119 159 188l-28 68l-31 63l-47 99l-47 100l-113 219q-63 125 -84.5 159t-73.5 85zM215 1266q25 16 74 63t80 70q68 -51 69 -53 q45 -37 45 -60q0 -20 -18 -43q-68 -68 -131 -139l-25 22q10 14 0 29l-12 16q0 6 -16 23q-47 45 -66 72zM559 1278q41 27 80 55q51 37 86 66q117 -91 117 -109q0 -25 -35 -63q-66 -66 -117 -123l-24 22q10 14 0 25q-6 6 -13 14q0 12 -47 62q-37 39 -47 51z" />
<glyph unicode="&#x152;" horiz-adv-x="2506" d="M68 696v45.5t8 67.5q29 207 140.5 339t381.5 265l92 45l10 -26l9 -27q18 -47 28 -96q33 14 58.5 31.5t87.5 66.5q72 55 155 55q80 0 170 -51t183 -158l41 50q37 41 90 75.5t139 71.5q10 6 33 13.5t43 15.5l-39 -41l-41 -45l-39 -43q-27 -29 -36 -43.5t-9 -24.5v-487v-84 v-47q0 -16 -10 -41q-41 -229 -269 -420q-84 -72 -143 -108t-135 -64q-45 -16 -86 -27.5t-84 -17.5t-86 -6q-178 0 -329.5 85t-252.5 246q-111 176 -110 385zM274 831q0 -137 40 -231t118 -154l14 29q35 82 35 156v669q-80 0 -127 -73q-55 -86 -73 -283q-6 -61 -7 -113z M453 428q49 -66 132 -125t230 -131q49 -23 100.5 -38t104.5 -15q139 0 230 110.5t91 309.5l-4 96q-18 184 -82 303l-53 -35l-39 -22l-110 -70l-86 -53q-176 -106 -267 -164q-53 -35 -163 -107l-27 -20zM645 592l41 24l8 5l76 49l72 43l338 211l24 16l39 27l-37 71 q-72 -29 -168 -92l-63 -43l-72 -45l-112 -74l-52 -34l-16 -45q-35 -68 -78 -113zM739 791l49 28l76 47l31 21l133 80l109 69l22 13l25 14q-84 113 -236 184q-49 23 -79.5 34t-49.5 15q-8 2 -14 2h-14q-51 0 -52 -34v-473zM1182 35q12 4 139 82q115 70 168 106l33 21 q70 41 123 59.5t96 18.5q55 0 170 -33q43 -12 111.5 -36t191.5 -69q29 -10 56.5 -16t47.5 -6q47 0 123 45l47 31l21 12q-37 -51 -82 -90t-115 -80q-164 -96 -221 -96q-41 0 -147 45l-56 24l-47 21l-94 43l-57 22q-98 35 -144 35q-76 0 -256 -149q-10 -10 -20 -17 q-27 -16 -49 -28zM1573 393l12 25l4 8l35 76l6 10q25 43 25 152v518q0 8 18 24q27 25 86 64l47 33l76 43l55 30q70 39 115 60l21 10l34 14l29 -8l78 -22q88 -25 141.5 -43.5t106.5 -45.5q-29 -27 -53.5 -46t-81.5 -60l-84 -55l-15 -11l-100 25l-152 49l-12 4q-4 2 -27.5 1 t-58.5 -7v-485l55 20l109 94l20 19l58 43q53 -18 87 -34.5t113 -59.5q20 -8 25 -11q29 -10 57 -18q-37 -45 -83 -83t-121 -81l-52 -27l-41 17l-32 12l-41 17l-84 32l-68 29q-25 -49 -59.5 -97t-85.5 -106q-70 -76 -96.5 -97.5t-65.5 -31.5z" />
<glyph unicode="&#x153;" horiz-adv-x="1691" d="M63 438q0 70 3.5 102.5t17.5 77.5q37 115 62.5 145t146.5 101q14 10 35 21q43 23 59 30q225 117 336 117q76 0 168 -43q82 -35 143 -102l35 -45q18 12 45 28q37 23 70 39l41 23l110 55q23 10 52.5 27.5t42.5 17.5q23 0 143 -106q62 -55 117 -135l-31 -23l-25 -16l-16 -11 l-107 -84l-145 -104q-100 -74 -123 -90l-18 -17l-31 -26q23 -33 52.5 -69t58.5 -62q18 -20 37.5 -35.5t41.5 -32.5q53 -41 85 -57.5t63 -16.5q8 0 33 5l-43 -27l-68 -41l-72 -43q-31 -18 -61 -35q-43 -25 -61 -24q-16 0 -39 11t-66 34.5t-106.5 79t-102.5 112.5l-26 -20 l-37 -23l-117 -72l-88 -57q-94 -59 -203 -59q-141 0 -252.5 100t-148.5 285q-2 10 -5 27.5t-6 37.5zM328 590q0 -133 45 -220t151 -165q47 -31 86 -49q68 -29 115 -29q147 0 147 233v60q0 133 -44 224t-138 165q-76 57 -145 82q-53 16 -80 16q-35 0 -56.5 -21.5t-43.5 -82.5 q-6 -18 -14.5 -44t-12.5 -54l-8 -54zM1126 625q0 -51 14.5 -96.5t41.5 -84.5l35 21l30 22l109 86l35 29l28 25q-29 51 -52.5 76.5t-113.5 97.5l-65 51q-8 -16 -15.5 -30.5t-15.5 -37.5q-31 -86 -31 -159z" />
<glyph unicode="&#x178;" horiz-adv-x="1372" d="M-115 -279q31 31 69 65t107 91l107 86l33 27l147 108l-26 11l-29 12q-119 47 -238 47l29 25l53 51l21 18q41 41 41 88v801q0 6 -9 14q-8 8 -42.5 35t-70.5 40t-77 13q-23 0 -35 -2l23 23l18 18l37 33q78 68 116 95.5t60 27.5q20 0 70 -27l106 -51l39 -20l45 -25v-74 l41 37q23 25 44.5 42.5t43.5 35.5q41 33 82 61q49 35 76 35q12 0 48 -10t56.5 -15t54 -11.5t89 -12.5t72 -7t63.5 -1h47q18 4 25 4q96 10 178 43l-64 -37q-111 -76 -149.5 -208t-38.5 -423q0 -66 15.5 -135t49.5 -184l41 -121l17 -51q23 -63 22 -105q0 -88 -233 -286 q-39 -33 -107.5 -80t-169.5 -111q-76 -47 -140 -78.5t-124 -54.5l-39 16l-22 11l-51 18l-72 33l-39 14q-78 27 -148.5 46.5t-121.5 19.5h-9l-77 -12zM156 -90q49 8 66.5 9t29.5 1q84 0 229.5 -45t208.5 -74q78 -37 109 -37q37 0 116 48q57 33 83 69.5t26 98.5q0 57 -33 161 q-2 16 -4 21l-8 16l-8 21l-8 24l-21 -10l-12 -6l-76 -49l-45 -33l-80 -51q-111 -61 -137 -62q-12 0 -29.5 6.5t-44.5 16.5l-82 35l-12 6l-23 8l-32 10l-33 -24l-49 -37l-97 -84l-14 -17zM319 358q154 -27 324 -98l59 -22l89 -39q39 -14 57 -15q33 0 94 49l12 13 q-39 117 -55 250q-6 78 -6 135q0 72 8 127l2 14l2 12l-55 -41l-6 -6l-150 -102q-172 -121 -184 -129q-100 -72 -137 -105l-23 -16zM418 477l28 19l17 12l117 82q125 86 145 100q68 47 127 94l18 15l33 26l4 33l4 35l9 47l-23 -14l-10 -11l-86 -61l-234 -168l-47 -33l-53 -37 q0 -53 -25 -96zM471 662l49 30q57 37 121 82q76 55 127 92l115 82l18 17l29 16q8 55 34.5 109.5t71.5 103.5l41 43l-26 2l-13 2l-110 2h-140h-32h-23q-57 0 -76 6l-82 15q-70 0 -104 -50v-552zM485 1635q25 16 74 63t80 70q68 -51 69 -53q45 -37 45 -60q0 -20 -18 -43 q-68 -68 -131 -139l-25 22q10 14 0 29l-12 16q0 6 -16 23q-47 45 -66 72zM829 1647q41 27 80 55q51 37 86 66q117 -91 117 -109q0 -25 -35 -63q-66 -66 -117 -123l-24 22q10 14 0 25q-6 6 -13 14q0 12 -47 62q-37 39 -47 51z" />
<glyph unicode="&#x2c6;" d="M291 1174q162 143 323 286q66 -70 174 -151q94 -72 107 -72l29 4l12 -22l-166 -95q-41 27 -93 78t-99 101q-20 -25 -70 -66q-123 -100 -135 -113z" />
<glyph unicode="&#x2dc;" d="M307 1147q63 102 127 149q47 35 80 35q27 0 162 -47q63 -23 100 -22q23 0 33 6q23 14 55 61l49 -22q-70 -113 -111.5 -149t-90.5 -36q-33 0 -133.5 35t-141.5 35q-27 0 -44 -14.5t-40 -49.5z" />
<glyph unicode="&#x2000;" horiz-adv-x="905" />
<glyph unicode="&#x2001;" horiz-adv-x="1810" />
<glyph unicode="&#x2002;" horiz-adv-x="905" />
<glyph unicode="&#x2003;" horiz-adv-x="1810" />
<glyph unicode="&#x2004;" horiz-adv-x="603" />
<glyph unicode="&#x2005;" horiz-adv-x="452" />
<glyph unicode="&#x2006;" horiz-adv-x="301" />
<glyph unicode="&#x2007;" horiz-adv-x="301" />
<glyph unicode="&#x2008;" horiz-adv-x="226" />
<glyph unicode="&#x2009;" horiz-adv-x="362" />
<glyph unicode="&#x200a;" horiz-adv-x="100" />
<glyph unicode="&#x2010;" horiz-adv-x="831" d="M57 608l11 41l43 94q31 57 55 77t65 20h457q51 0 86 20q-4 -27 -6 -33q-2 -4 -12 -28q-57 -117 -82 -143.5t-80 -26.5h-420q-61 0 -68 -4z" />
<glyph unicode="&#x2011;" horiz-adv-x="831" d="M57 608l11 41l43 94q31 57 55 77t65 20h457q51 0 86 20q-4 -27 -6 -33q-2 -4 -12 -28q-57 -117 -82 -143.5t-80 -26.5h-420q-61 0 -68 -4z" />
<glyph unicode="&#x2012;" horiz-adv-x="831" d="M57 608l11 41l43 94q31 57 55 77t65 20h457q51 0 86 20q-4 -27 -6 -33q-2 -4 -12 -28q-57 -117 -82 -143.5t-80 -26.5h-420q-61 0 -68 -4z" />
<glyph unicode="&#x2013;" horiz-adv-x="921" d="M-14 502v215h936v-215h-936z" />
<glyph unicode="&#x2014;" horiz-adv-x="1843" d="M-14 502v215h1857v-215h-1857z" />
<glyph unicode="&#x2018;" horiz-adv-x="495" d="M57 932l31 74l35 90l33 69q20 51 45.5 101.5t36.5 72.5l30 66l31 63l18 7q-12 -51 -18 -116t-6 -114q0 -76 2 -100.5t6 -34.5l80 -61q19 -13 72 -68q-45 -49 -88 -82q-127 -100 -154 -100q-16 0 -37 14q-6 4 -46 39t-54.5 52.5t-16.5 27.5z" />
<glyph unicode="&#x2019;" horiz-adv-x="495" d="M43 1272q20 23 45 45q12 10 43 37q127 100 154 100q18 0 46.5 -23.5t39.5 -33.5q35 -29 53 -51q12 -14 14 -23l-30 -74l-35 -88l-31 -69l-82 -179l-31 -65l-32 -62l-19 -8q12 51 18.5 117t6.5 115q0 74 -2 99.5t-6 33.5l-80 61z" />
<glyph unicode="&#x201a;" />
<glyph unicode="&#x201c;" horiz-adv-x="944" d="M55 932l31 74l35 90l33 69q20 51 45.5 101.5t36.5 72.5l30 66l31 63l18 7q-12 -51 -18 -116t-6 -114q0 -76 2 -100.5t6 -34.5l80 -61q19 -13 72 -68q-45 -49 -89 -82q-127 -100 -153 -100q-16 0 -37 14q-6 4 -46 39t-54.5 52.5t-16.5 27.5zM506 932l31 74l34 90l33 69 q20 51 46 101.5t36 72.5l31 66l31 63l18 7q-12 -51 -18.5 -116t-6.5 -114q0 -76 2 -100.5t7 -34.5l79 -61q19 -13 72 -68q-45 -49 -88 -82q-127 -100 -154 -100q-16 0 -36 14q-6 4 -46 39t-54.5 52.5t-16.5 27.5z" />
<glyph unicode="&#x201d;" horiz-adv-x="944" d="M43 1272q20 23 45 45q12 10 43 37q127 100 154 100q18 0 46.5 -23.5t39.5 -33.5q35 -29 53 -51q12 -14 14 -23l-30 -74l-35 -88l-31 -69l-82 -179l-31 -65l-32 -62l-19 -8q12 51 18.5 117t6.5 115q0 74 -2 99.5t-6 33.5l-80 61zM485 1272q20 23 45 45q12 10 43 37 q127 100 154 100q18 0 47 -23.5t39 -33.5q35 -29 53 -51q12 -14 15 -23l-31 -74l-35 -88l-31 -69l-82 -179l-30 -65l-33 -62l-18 -8q12 51 18 117t6 115q0 74 -2 99.5t-6 33.5l-80 61z" />
<glyph unicode="&#x201e;" />
<glyph unicode="&#x2022;" horiz-adv-x="1024" d="M152 643q111 88 174 152q86 88 141 190q47 -82 147 -172q86 -77 195 -147q-98 -78 -185 -169t-159 -196q-80 133 -146.5 207t-166.5 135z" />
<glyph unicode="&#x2026;" horiz-adv-x="1320" d="M72 -37v86v121v59q66 47 138.5 80t158.5 53v-49v-112v-101l-25 -16q-94 -63 -152.5 -89t-119.5 -32zM512 -37v86v121v59q66 47 138.5 80t158.5 53v-49v-112v-101l-25 -16q-94 -63 -152.5 -89t-119.5 -32zM952 -37v86v121v59q66 47 138.5 80t158.5 53v-49v-112v-101 l-24 -16q-94 -63 -152.5 -89t-120.5 -32z" />
<glyph unicode="&#x202f;" horiz-adv-x="362" />
<glyph unicode="&#x2039;" />
<glyph unicode="&#x203a;" />
<glyph unicode="&#x205f;" horiz-adv-x="452" />
<glyph unicode="&#x2122;" horiz-adv-x="1771" d="M35 1147l6 192h633l6 -192l-37 -2q0 72 -35 110.5t-119 38.5l-73 2v-620q0 -33 25.5 -45.5t74.5 -12.5v-34h-319v34q51 0 76.5 11.5t25.5 46.5v620l-74 -2q-82 0 -117.5 -38.5t-35.5 -110.5zM737 1305v34h228l262 -573l250 573h223v-34q-49 0 -72.5 -7.5t-23.5 -44.5 v-577q0 -33 24.5 -45.5t73.5 -12.5v-34h-318v34q51 0 76 11.5t25 46.5v551l-266 -643h-37l-287 610v-518q0 -33 25.5 -45.5t76.5 -12.5v-34h-256v34q51 0 76 11.5t25 46.5v559q0 43 -18.5 56.5t-57.5 13.5h-29z" />
<glyph unicode="&#xe000;" horiz-adv-x="1050" d="M0 0v1050h1050v-1050h-1050z" />
</font>
</defs>
</svg>
