<?xml version="1.0" standalone="no"?>
<!DOCTYPE svg PUBLIC "-//W3C//DTD SVG 1.1//EN" "http://www.w3.org/Graphics/SVG/1.1/DTD/svg11.dtd" >
<svg xmlns="http://www.w3.org/2000/svg">
<metadata></metadata>
<defs>
<font id="1-prolook_demonizedregular" horiz-adv-x="761" >
<font-face units-per-em="2048" ascent="1638" descent="-410" />
<missing-glyph horiz-adv-x="500" />
<glyph horiz-adv-x="2048" />
<glyph horiz-adv-x="2048" />
<glyph unicode="&#xd;" />
<glyph unicode=" " />
<glyph unicode="!" horiz-adv-x="1001" d="M123 236q0 98 68.5 166.5t166.5 68.5t167 -68.5t69 -166.5t-68.5 -167t-167.5 -69q-98 0 -166.5 68.5t-68.5 167.5zM250 631l297 755l-223 252l976 -2l-129 -313h-102l-360 -866q-37 84 -130.5 138t-205.5 54q-61 0 -123 -18z" />
<glyph unicode="&#x22;" horiz-adv-x="1515" d="M451 1020l198 487q25 59 83.5 95t127.5 36q98 0 167 -68.5t69 -166.5q0 -31 -9 -62q-63 -160 -198 -235q-154 -86 -438 -86zM1106 1020l199 487q25 59 83 95t128 36q98 0 166.5 -68.5t68.5 -166.5q0 -31 -8 -62q-63 -160 -199 -235q-154 -86 -438 -86z" />
<glyph unicode="#" horiz-adv-x="1515" d="M53 946l49 133h1301l-49 -133h-1301zM53 1141l142 133l92 250l-88 114h635l75 -82l-98 -258h82l-19 -45q-45 -113 -192 -112h-164l154 391h-150l-88 -227h82l-18 -45q-49 -119 -181 -119h-264zM897 1221q37 104 115 305q45 113 211 112h303l78 -75l-125 -310 q-45 -113 -211 -112h-297zM1135 1253h129l110 281h-129z" />
<glyph unicode="$" horiz-adv-x="1572" d="M229 428l133 309h472l-43 -98h253l89 205h-476l-215 155l115 269q29 68 145 114q111 43 234 43h96l-172 213h670l-84 -213h342l-127 -295h-406l39 89h-264l-78 -179h478l172 -163l-89 -222q-90 -227 -421 -227h-50l172 -213h-669l86 213h-402z" />
<glyph unicode="%" horiz-adv-x="2457" d="M414 1006q45 125 139 366q55 137 252 137h362l95 -92l-150 -370q-55 -137 -254 -138h-354zM698 1044h156l133 338h-156zM713 0l753 1417l-172 221h758l-754 -1417l172 -221h-757zM1503 221q45 125 139 367q55 137 252 137h363l94 -92l-149 -371q-55 -137 -254 -137h-355z M1788 260h156l133 338h-156z" />
<glyph unicode="&#x26;" horiz-adv-x="1474" d="M111 246q51 154 127 364q31 78 96 135q76 66 155 66q-31 8 -49 18q-33 14 -48 37t-19 62q-2 33 4 51l88 213q31 78 96 135q76 66 156 66h145l-172 213h567l-83 -213h126l152 -170l-72 -183h-376l49 123h-217l-99 -258h365l-80 -217h-363q-80 -193 -77 -196h215l39 110 h372l-131 -356h-319l172 -213h-568l84 213h-335z" />
<glyph unicode="'" horiz-adv-x="860" d="M451 1020l198 487q25 59 83.5 95t127.5 36q98 0 167 -68.5t69 -166.5q0 -31 -9 -62q-63 -160 -198 -235q-154 -86 -438 -86z" />
<glyph unicode="(" horiz-adv-x="1478" d="M-33 -90l701 1767q47 117 157 205q123 94 250 94h559l-133 -338h-301l-657 -1638h301l-135 -338h-533z" />
<glyph unicode=")" horiz-adv-x="1478" d="M-135 -338l133 338h301l657 1638h-301l136 338h532l209 -247l-701 -1768q-47 -117 -157 -205q-123 -94 -250 -94h-559z" />
<glyph unicode="*" />
<glyph unicode="+" horiz-adv-x="1052" d="M238 594l122 307h205l78 191h332l-78 -191h205l-123 -307h-205l-78 -191h-331l77 191h-204z" />
<glyph unicode="," d="M-51 -147l198 487q25 59 83.5 95t127.5 36q98 0 167 -68.5t69 -166.5q0 -31 -8 -62q-63 -160 -199 -235q-154 -86 -438 -86z" />
<glyph unicode="-" horiz-adv-x="1007" d="M238 594l122 307h699l-123 -307h-698z" />
<glyph unicode="." d="M123 236q0 98 68.5 166.5t166.5 68.5t167 -68.5t69 -166.5t-68.5 -167t-167.5 -69q-98 0 -166.5 68.5t-68.5 167.5z" />
<glyph unicode="/" horiz-adv-x="1089" d="M16 0l754 1417l-172 221h758l-754 -1417l172 -221h-758z" />
<glyph unicode="0" horiz-adv-x="1853" d="M0 256l457 1143q41 104 184 176q131 63 262 63h742l208 -247l-440 -1092q-47 -117 -158 -205q-123 -94 -249 -94h-799zM580 336h301l387 964h-301z" />
<glyph unicode="1" horiz-adv-x="1413" d="M0 0l342 340l379 975h-299l409 323h582l-516 -1306h178l-41 -92q-100 -240 -383 -240h-651z" />
<glyph unicode="2" horiz-adv-x="1699" d="M0 0l250 688q41 111 143 182q125 88 316 88h516l129 340h-303l-64 -163h-526l186 503h1061l225 -249l-172 -459q-43 -115 -161.5 -200t-249.5 -85h-553l-117 -313h287l51 143h559l-78 -205q-102 -270 -612 -270h-887z" />
<glyph unicode="3" horiz-adv-x="1699" d="M0 0l199 502h536l-69 -174h311l139 368h-520l113 310h520q113 276 110 282h-307l-57 -160h-531l187 510h1079l217 -245q-33 -96 -96 -275q-43 -111 -139 -194q-106 -92 -222 -93q104 -29 140 -81q20 -29 24 -84q4 -49 -4 -74l-125 -305q-43 -111 -139 -195 q-106 -92 -221 -92h-1145z" />
<glyph unicode="4" horiz-adv-x="1923" d="M162 510l123 317l864 811l840 -2l-322 -811h248l-125 -315h-244l-78 -182l207 2q-61 -141 -90 -185q-57 -76 -158 -108q-111 -37 -327 -37h-516l331 332l76 178h-829zM936 827h190l177 408z" />
<glyph unicode="5" horiz-adv-x="1679" d="M0 0l201 502h528l-67 -170h301l137 344h-871l385 962h1352l-194 -487h-482l60 149h-314l-127 -315h557q100 0 155.5 -52t55.5 -134q0 -49 -20 -101l-172 -430q-43 -109 -170 -188.5t-254 -79.5h-1061z" />
<glyph unicode="6" horiz-adv-x="1691" d="M98 250l447 1132q45 113 190 187q139 70 289 69h983l-199 -487h-483l64 158h-316l-131 -322h528q109 0 176.5 -55t67.5 -137q0 -37 -16 -76l-185 -453q-43 -109 -169.5 -187.5t-256.5 -78.5h-729zM690 340h303l140 340h-310z" />
<glyph unicode="7" horiz-adv-x="1591" d="M307 1135l199 503h1458l-141 -327l-637 -979h178l-41 -92q-100 -240 -383 -240h-557l850 1311h-305l-78 -176h-543z" />
<glyph unicode="8" horiz-adv-x="1736" d="M100 244l142 381q47 125 293 192q-61 4 -98.5 44t-37.5 102q0 45 78 241q74 188 107 242q63 102 299 192h862l237 -237q-27 -72 -112 -283q-43 -111 -139 -194q-106 -92 -222 -93q104 -29 140 -81q20 -29 24 -84q4 -49 -4 -74l-125 -305q-43 -111 -139 -195 q-106 -92 -221 -92h-836zM692 328h303l135 334h-309zM944 961h297l137 348h-303z" />
<glyph unicode="9" horiz-adv-x="1667" d="M0 0l199 487h483l-64 -157h316l131 321h-528q-109 0 -176.5 55.5t-67.5 137.5q0 37 16 76l185 452q43 109 170 187.5t256 78.5h729l260 -249l-447 -1133q-45 -113 -187 -184.5t-292 -71.5h-983zM877 961h309l131 337h-303z" />
<glyph unicode=":" horiz-adv-x="843" d="M123 236q0 98 68.5 166.5t166.5 68.5t167 -68.5t69 -166.5t-68.5 -167t-167.5 -69q-98 0 -166.5 68.5t-68.5 167.5zM375 848q0 98 68.5 166.5t166.5 68.5t167 -68.5t69 -166.5t-68.5 -167t-167.5 -69q-98 0 -166.5 69t-68.5 167z" />
<glyph unicode=";" horiz-adv-x="847" d="M-51 -147l198 487q25 59 83.5 95t127.5 36q98 0 167 -68.5t69 -166.5q0 -31 -8 -62q-63 -160 -199 -235q-154 -86 -438 -86zM375 848q0 98 68.5 166.5t166.5 68.5t167 -68.5t69 -166.5t-68.5 -167t-167.5 -69q-98 0 -166.5 69t-68.5 167z" />
<glyph unicode="&#x3c;" horiz-adv-x="1413" d="M150 819l604 496l-138 78h607l-605 -496l138 -78l-138 -78l605 -495h-607l138 78z" />
<glyph unicode="=" horiz-adv-x="1003" d="M135 358l123 308h698l-122 -308h-699zM319 819l123 307h699l-123 -307h-699z" />
<glyph unicode="&#x3e;" horiz-adv-x="1413" d="M252 246l604 495l-137 78l137 78l-604 496h606l-137 -78l604 -496l-604 -495l137 -78h-606z" />
<glyph unicode="?" horiz-adv-x="1421" d="M123 236q0 98 68.5 166.5t166.5 68.5t167 -68.5t69 -166.5t-68.5 -167t-167.5 -69q-98 0 -166.5 68.5t-68.5 167.5zM250 631l125 313h555l139 361h-549l31 81l-223 252h1085l246 -274l-207 -533q-39 -98 -141 -143q-72 -31 -224 -47h-309q-18 -53 -69 -184 q-37 84 -130.5 138t-205.5 54q-61 0 -123 -18z" />
<glyph unicode="@" horiz-adv-x="1576" d="M41 748q0 309 219 528t528 219t528.5 -219t219.5 -528t-219 -528.5t-529 -219.5q-309 0 -528 219t-219 529zM225 748q0 -233 165 -398.5t398 -165.5q172 0 311.5 93.5t205.5 246.5q-12 -29 -71.5 -50t-137.5 -21h-697l-94 94l154 379q23 57 86 94q57 33 112 33h547 l-157 -398h98q84 0 144.5 47t60.5 115q-29 209 -189 351.5t-373 142.5q-233 0 -398 -165t-165 -398zM602 588h152l135 319h-156z" />
<glyph unicode="A" horiz-adv-x="2035" d="M-207 0l350 272l719 1114l-192 252h1472l-121 -329h-161l-158 -977h170l-37 -90q-55 -135 -133 -181q-104 -61 -367 -61h-291l95 426h-316l-241 -426h-789zM1010 750h200l125 575z" />
<glyph unicode="B" horiz-adv-x="1724" d="M-207 0l342 340l416 1046l-223 252h1407l229 -254l-135 -346q-39 -98 -141 -143q-72 -31 -224 -47q204 -43 204 -199q0 -9 -1 -18l-137 -344q-45 -113 -139 -195q-106 -92 -222 -92h-1376zM682 328h319l140 344h-322zM946 985h314l124 309h-315z" />
<glyph unicode="C" horiz-adv-x="1703" d="M100 256l457 1143q41 104 186 176q129 63 261 63h741l207 -247l-105 -261h-547l68 170h-301l-387 -964h301l90 223h549l-107 -260q-47 -117 -159 -205q-121 -94 -248 -94h-799z" />
<glyph unicode="D" horiz-adv-x="1720" d="M-207 0l342 340l416 1046l-223 252h1407l229 -254l-438 -1097q-43 -111 -140 -195q-106 -92 -221 -92h-1372zM684 348h313l387 959h-305z" />
<glyph unicode="E" horiz-adv-x="1644" d="M-207 0l342 340l416 1046l-223 252h1659l-199 -505h-471l72 178h-318l-123 -312h430l-123 -307h-432l-139 -350h317l86 217h472l-97 -242q-66 -164 -180 -231q-137 -84 -418 -84z" />
<glyph unicode="F" horiz-adv-x="1368" d="M-207 0l342 340l416 1046l-223 252l1650 -2l-194 -506h-504l72 179h-297l-129 -318h420l-121 -307h-418l-141 -354h178l-39 -90q-100 -240 -383 -240h-629z" />
<glyph unicode="G" horiz-adv-x="1708" d="M100 256l457 1143q41 104 186 176q129 63 261 63h741l209 -247l-107 -261h-547l68 170h-301l-387 -964h301l104 258h-149l125 307h698l-246 -602q-47 -117 -159 -205q-121 -94 -248 -94h-799z" />
<glyph unicode="H" horiz-adv-x="1869" d="M-207 0l342 340l416 1046l-223 252h866l-262 -608h319l189 453l-135 155h866l-127 -315h-111l-395 -993h178l-39 -90q-100 -240 -383 -240h-440l285 719h-318l-155 -389h178l-39 -90q-100 -240 -383 -240h-629z" />
<glyph unicode="I" horiz-adv-x="987" d="M-207 0l342 340l416 1046l-223 252h956l-129 -315h-102l-394 -993h179l-39 -90q-100 -240 -383 -240h-623z" />
<glyph unicode="J" horiz-adv-x="1667" d="M106 268l193 486h520l-164 -412h289l412 1042l-230 254h994l-133 -329h-109l-387 -977q-131 -332 -528 -332h-590z" />
<glyph unicode="K" horiz-adv-x="1853" d="M-207 0l342 340l416 1046l-223 252h866l-219 -520l354 90l96 230l-129 200h856l-124 -327h-127q-16 -57 -35 -105q-47 -109 -99 -137q-94 -51 -249 -92q-129 -29 -258 -59q115 -61 229 -125q143 -96 143 -197q0 -25 -112 -266h178q-80 -184 -150 -246q-92 -84 -272 -84 h-428l270 635l-284 131l-168 -436h178q-80 -184 -150 -246q-92 -84 -272 -84h-629z" />
<glyph unicode="L" horiz-adv-x="1658" d="M-207 0l342 340l416 1046l-223 252h991l-133 -325h-113l-395 -961h313l96 205h486q-45 -119 -105 -270q-43 -111 -139 -195q-106 -92 -221 -92h-1315z" />
<glyph unicode="M" horiz-adv-x="2406" d="M-207 0l342 340l416 1046l-223 252h766l229 -688l754 688h647l-146 -350h-116l-389 -958h178q-80 -184 -150 -246q-92 -84 -272 -84h-410l324 838l-686 -615l-199 643l-334 -866h-731z" />
<glyph unicode="N" horiz-adv-x="1875" d="M-207 0l342 340l416 1046l-223 252h831l203 -815l317 815h664l-145 -350h-117l-381 -958q-80 -184 -150 -246q-92 -84 -272 -84h-234l-196 834l-334 -834h-721z" />
<glyph unicode="O" horiz-adv-x="1699" d="M100 256l457 1143q41 104 184 176q131 63 263 63h731l209 -247l-431 -1092q-47 -117 -157 -205q-123 -94 -250 -94h-799zM680 336h301l387 964h-301z" />
<glyph unicode="P" horiz-adv-x="1748" d="M-207 0l342 340l416 1046l-223 252h1407l245 -274l-206 -533q-39 -98 -142 -143q-72 -31 -223 -47h-584q-45 -117 -120 -311h180l-39 -90q-100 -240 -383 -240h-670zM938 944h313l140 361h-316z" />
<glyph unicode="Q" horiz-adv-x="1861" d="M100 256l457 1143q41 104 184 176q131 63 263 63h741l209 -247l-424 -1055h180l-41 -96q-102 -240 -379 -240h-983zM680 336h301l387 964h-301z" />
<glyph unicode="R" horiz-adv-x="1869" d="M-207 0l342 340l416 1046l-223 252l1380 -2l248 -239q-53 -160 -152 -422q-20 -47 -69 -100.5t-142 -98.5q-47 -23 -198 -53q209 -119 209 -236q0 -23 -60 -157h178q-80 -184 -149 -246q-92 -84 -273 -84h-452l242 553l-285 131l-139 -354h178q-80 -184 -150 -246 q-92 -84 -272 -84h-629zM961 1001h290l109 279h-303z" />
<glyph unicode="S" horiz-adv-x="1675" d="M0 0l201 504h526l-61 -158h297l135 336h-533l-231 260l180 457q43 106 188 176q131 63 259 63h1003l-192 -481h-480l56 139h-316l-129 -311h596q186 0 187 -147q0 -55 -25 -115l-178 -436q-47 -117 -142 -197q-104 -90 -219 -90h-1122z" />
<glyph unicode="T" horiz-adv-x="1525" d="M102 0l342 340l416 971h-166l-78 -178h-442l225 505l1745 -2l-196 -503h-445l78 176h-180l-389 -977h180l-37 -90q-55 -135 -133 -181q-104 -61 -367 -61h-553z" />
<glyph unicode="U" horiz-adv-x="1798" d="M100 250l449 1132l-184 256h833l-524 -1302h299l475 1145l-137 157h850l-140 -335h-118l-400 -1004q-55 -117 -162 -203q-121 -96 -245 -96h-789z" />
<glyph unicode="V" horiz-adv-x="1613" d="M0 0l403 1382l-2 2l-188 254h821l-420 -1296l660 1141l-146 153h887l-135 -327h-156l-594 -1012q-63 -115 -184 -203q-133 -94 -260 -94h-686z" />
<glyph unicode="W" horiz-adv-x="2539" d="M0 0l412 1382l-181 256h803l-364 -1181l633 1032l-150 149h756l-314 -1183l607 1034l-150 149h858l-135 -315h-119q-145 -254 -436 -748q-57 -98 -115 -194q-100 -162 -196 -256q-131 -125 -254 -125h-545l166 623q-57 -104 -115 -209q-102 -176 -198 -277 q-131 -139 -254 -139z" />
<glyph unicode="X" horiz-adv-x="1740" d="M-207 0l918 860q-39 139 -152 520l-248 258h695l114 -389l217 211l-110 178h854l-129 -309h-221l-498 -491l149 -508h199q-41 -147 -138 -238.5t-222 -91.5h-271l-141 451l-487 -451h-529z" />
<glyph unicode="Y" horiz-adv-x="1298" d="M-80 0l377 344l209 524l-137 512l-267 258h695l110 -387l209 199l-110 188h837l-129 -315h-198l-484 -492l-186 -495h182q-39 -137 -141 -227q-111 -96 -258 -109h-709z" />
<glyph unicode="Z" horiz-adv-x="1609" d="M0 0l217 541l1096 772h-312l-71 -139h-479l190 464h1311l-209 -532l-1102 -766h334l72 164h503q-41 -190 -190 -344q-158 -160 -328 -160h-1032z" />
<glyph unicode="[" horiz-adv-x="1478" d="M-135 -338q-27 -70 923 2314h846l-133 -338h-301l-657 -1638h301l-135 -338h-844z" />
<glyph unicode="\" horiz-adv-x="1556" d="M221 1638h758l-172 -221l549 -1417h-758l172 221z" />
<glyph unicode="]" horiz-adv-x="1478" d="M-135 -338l133 338h301l657 1638h-301l136 338h843q27 70 -923 -2314h-846z" />
<glyph unicode="^" horiz-adv-x="1433" d="M287 1280l518 358h244l303 -358h-410l-68 209l-178 -209h-409z" />
<glyph unicode="_" horiz-adv-x="1024" d="M-133 -307l123 307h1044l-123 -307h-1044z" />
<glyph unicode="`" horiz-adv-x="966" d="M539 2019q0 76 54 130.5t130 54.5q125 0 164 -99l168 -415q-229 10 -353 88q-104 66 -157 196q-6 25 -6 45z" />
<glyph unicode="a" horiz-adv-x="1558" d="M59 156l254 632q39 96 146 156q94 53 188 53h909l-262 -661h164l-39 -90q-106 -246 -379 -246h-823zM555 225h250l227 533h-260z" />
<glyph unicode="b" horiz-adv-x="1449" d="M-172 0l278 268l453 1141l-180 229h706l-258 -651h471l175 -162l-234 -598q-90 -227 -422 -227h-989zM539 227h270l213 547h-270z" />
<glyph unicode="c" horiz-adv-x="1441" d="M61 156l246 632q35 88 139 150q98 59 189 59h899l-125 -297h-424l35 86h-258l-221 -561h250l43 107h428l-37 -86q-104 -246 -373 -246h-629z" />
<glyph unicode="d" horiz-adv-x="1542" d="M66 170l239 602q35 88 139 150q98 59 189 59h469l162 440l-170 217h696l-514 -1323h168l-37 -90q-92 -225 -373 -225h-778zM526 225h277l215 553h-270z" />
<glyph unicode="e" horiz-adv-x="1433" d="M61 156l244 632q41 104 146 162q86 47 184 47h659l170 -166l-170 -407h-676l-77 -199h250l43 107h428l-37 -86q-104 -246 -373 -246h-629zM707 633h256l61 151h-258z" />
<glyph unicode="f" horiz-adv-x="1028" d="M-154 0l252 254l217 512h-178l84 235h172l154 398q100 239 381 239h2h442l-102 -254h-297l-144 -380h293l-96 -238h-285l-172 -436h179l-39 -90q-100 -240 -383 -240h-480z" />
<glyph unicode="g" horiz-adv-x="1421" d="M-129 -250l61 139h441l-41 -100h237l111 211h-477l-144 156l244 632q39 96 146 156q94 53 188 53h874l-397 -997q-86 -201 -123 -252q-92 -131 -248 -158h-708zM530 219h252l205 539h-252z" />
<glyph unicode="h" horiz-adv-x="1615" d="M-166 0l279 268l446 1149l-174 221h723l-260 -649h534l160 -160l-196 -514h163l-36 -90q-92 -225 -373 -225h-340l309 782h-299l-178 -452h164l-37 -90q-98 -240 -357 -240h-528z" />
<glyph unicode="i" horiz-adv-x="811" d="M-166 0q68 59 277 270l200 514l-172 213h670l-274 -682h163l-36 -90q-92 -225 -373 -225h-455zM457 1157l135 330h416l-47 -105q-111 -225 -373 -225h-131z" />
<glyph unicode="j" horiz-adv-x="763" d="M-426 -410l94 228h260l396 968l-168 211h706l-379 -940q-98 -229 -133 -280q-102 -160 -256 -187h-520zM457 1157l135 330h416l-47 -105q-111 -225 -373 -225h-131z" />
<glyph unicode="k" horiz-adv-x="1617" d="M-166 0l279 268l444 1149l-172 221h723l-326 -827l340 72l54 112h497l-51 -112q-84 -186 -313 -197l-219 -10l110 -49q168 -76 168 -201q0 -49 -22 -111h163l-36 -90q-92 -225 -367 -225h-346l188 471l-243 133l-113 -274h164l-37 -90q-98 -240 -357 -240h-528z" />
<glyph unicode="l" horiz-adv-x="884" d="M-158 0l279 268l444 1149l-172 221h758l-545 -1308h178l-39 -90q-100 -240 -383 -240h-520z" />
<glyph unicode="m" horiz-adv-x="2385" d="M-164 0l281 268l186 500l-176 229h2030l153 -166l-196 -516h161l-37 -90q-92 -225 -383 -225h-329l309 782h-301l-176 -452h164l-45 -105q-96 -225 -383 -225h-330l309 782h-301l-176 -452h164l-37 -90q-98 -240 -358 -240h-529z" />
<glyph unicode="n" horiz-adv-x="1628" d="M-164 0l281 268l186 500l-176 229h1268l153 -166l-196 -516h161l-36 -90q-92 -225 -383 -225h-330l309 782h-301l-176 -452h164l-37 -90q-98 -240 -358 -240h-529z" />
<glyph unicode="o" horiz-adv-x="1454" d="M74 160q74 209 231 610q90 227 422 227h604l156 -151l-250 -619q-90 -227 -422 -227h-592zM549 225h260l221 563h-260z" />
<glyph unicode="p" horiz-adv-x="1480" d="M-309 -410l239 238l389 936l-188 233h1196l180 -172l-223 -571q-98 -188 -289 -254h-530l-55 -117h176l-27 -67q-92 -225 -383 -226h-485zM549 217h268q6 -2 217 557h-276z" />
<glyph unicode="q" horiz-adv-x="1419" d="M63 160q39 96 252 612q92 225 383 225h820l-459 -1114h176l-27 -67q-92 -225 -383 -226h-307l172 410h-475zM537 225h254l206 541h-262z" />
<glyph unicode="r" horiz-adv-x="1433" d="M-164 0l268 256l199 512l-176 229h1167l170 -166l-94 -221h-420l68 172h-246l-176 -452h164l-37 -90q-98 -240 -358 -240h-529z" />
<glyph unicode="s" horiz-adv-x="1474" d="M0 0l133 309h471l-43 -98h254l88 205h-475l-215 155l115 269q29 68 145 114q111 43 234 43h852l-127 -295h-406l39 89h-264l-78 -179h477l172 -163l-88 -222q-90 -227 -422 -227h-862z" />
<glyph unicode="t" horiz-adv-x="987" d="M0 0l346 907h-231l98 244h225l117 303l-160 182l735 2l-190 -487h236l-99 -244h-231l-205 -526h190l-43 -105q-115 -276 -413 -276h-375z" />
<glyph unicode="u" horiz-adv-x="1538" d="M61 154l248 622l-127 221h658l-316 -794h246l311 794h453l-268 -682h161l-36 -90q-92 -225 -367 -225h-772z" />
<glyph unicode="v" horiz-adv-x="1310" d="M78 156l223 608l-149 233h655l-264 -794l506 794h454l-557 -817q-123 -180 -371 -180h-311z" />
<glyph unicode="w" horiz-adv-x="2293" d="M84 143l213 609l-131 245h651l-270 -800l510 800h710l-270 -800l510 800h479q-172 -250 -555 -817q-123 -180 -370 -180h-531l139 485l-208 -305q-123 -180 -371 -180h-305z" />
<glyph unicode="x" horiz-adv-x="1536" d="M-164 0l725 547l-121 246l-241 202h610l98 -207l297 207h508l-645 -487l107 -193h223l-37 -90q-92 -225 -383 -225h-133l-121 260l-361 -260h-526z" />
<glyph unicode="y" horiz-adv-x="1376" d="M-129 -410l385 410l90 784l-201 213h590l-57 -456l348 456h514l-936 -1114h156l-27 -67q-92 -225 -383 -226h-479z" />
<glyph unicode="z" horiz-adv-x="1646" d="M0 0l184 336l996 459h-306l-45 -88h-467l156 290h1229l-139 -331l-1010 -453h320l57 102h487l-65 -120q-39 -74 -148 -123q-150 -72 -401 -72h-848z" />
<glyph unicode="{" />
<glyph unicode="|" />
<glyph unicode="}" />
<glyph unicode="~" horiz-adv-x="1433" d="M369 1067l123 307q59 59 163 60q98 0 288 -59.5t288 -59.5q105 0 164 59l-123 -307q-59 -59 -164 -59q-98 0 -287.5 59t-288.5 59q-104 0 -163 -59z" />
<glyph unicode="&#xa0;" />
<glyph unicode="&#xa1;" horiz-adv-x="1001" d="M123 2l129 313h102l361 867q37 -84 130 -138.5t206 -54.5q62 1 123 19l-297 -756l223 -252zM829 1403q0 98 69 166.5t167 68.5t166.5 -68.5t68.5 -166.5t-68.5 -167t-166.5 -69t-167 69t-69 167z" />
<glyph unicode="&#xa2;" horiz-adv-x="1327" d="M283 573l172 445q25 61 98 104q68 41 131 41h152l-121 150h469l-60 -150h189l-88 -209h-295l22 62h-180l-154 -393h175l30 73h299l-26 -59q-78 -172 -260 -172h-72l121 -150h-469l59 150h-80z" />
<glyph unicode="&#xa3;" />
<glyph unicode="&#xa4;" horiz-adv-x="1595" d="M244 700l39 93h176l28 73h-184l39 90h182l105 261q29 74 131 122q90 45 182 45h518l146 -174l-74 -182h-383l47 119h-211l-76 -191h209l-39 -90h-207l-30 -73h217l-39 -93h-213l-92 -227h211l63 156h383l-74 -183q-33 -82 -110 -143q-84 -66 -174 -65h-559l-146 180 l113 282h-178z" />
<glyph unicode="&#xa5;" />
<glyph unicode="&#xa6;" />
<glyph unicode="&#xa7;" />
<glyph unicode="&#xa8;" horiz-adv-x="1228" d="M410 1831q0 59 41 100t100 41t100 -41t41 -100t-41 -100t-100 -41t-100 41t-41 100zM868 1831q0 59 41 100t101 41q59 0 100 -41t41 -100t-41 -100t-100 -41t-100.5 41t-41.5 100z" />
<glyph unicode="&#xa9;" horiz-adv-x="1191" d="M408 993l190 430l307 215h434l119 -215l-190 -430l-310 -211h-434zM571 1053l74 -131h316l194 131l139 313l-75 135h-314l-194 -135zM639 1065l98 252q14 35 55.5 59.5t75.5 24.5h361l-49 -119h-170l14 35h-104l-89 -225h101l16 43h172l-14 -35q-41 -98 -150 -99h-251z " />
<glyph unicode="&#xaa;" />
<glyph unicode="&#xab;" />
<glyph unicode="&#xac;" />
<glyph unicode="&#xad;" horiz-adv-x="1007" d="M238 594l122 307h699l-123 -307h-698z" />
<glyph unicode="&#xae;" horiz-adv-x="1191" d="M408 993l190 430l307 215h434l119 -215l-190 -430l-310 -211h-434zM571 1053l74 -131h316l194 131l139 313l-75 135h-314l-194 -135zM639 1016l86 86l129 323h264l62 -59q-12 -41 -37 -106q-6 -14 -17.5 -25.5t-35.5 -24.5q-8 -4 -50 -12q51 -29 52 -59q0 -6 -15 -39h45 q-37 -84 -106 -84h-113l62 139l-72 33l-35 -88h45q-37 -84 -106 -84h-158zM932 1268h72l28 69h-76z" />
<glyph unicode="&#xaf;" />
<glyph unicode="&#xb0;" horiz-adv-x="1024" d="M422 1337q27 76 84 219q33 82 149 82h219l56 -55l-90 -221q-33 -82 -152 -82h-213zM592 1360h94l80 203h-94z" />
<glyph unicode="&#xb1;" />
<glyph unicode="&#xb2;" horiz-adv-x="1146" d="M303 819l125 344q49 135 229 135h258l66 170h-152l-32 -82h-262l92 252h530l113 -125l-86 -229q-20 -57 -80 -99t-125 -42h-277l-59 -158h143l27 72h279l-39 -103q-51 -135 -305 -135h-445z" />
<glyph unicode="&#xb3;" horiz-adv-x="1146" d="M311 819l101 252h268l-35 -88h156l69 184h-260l56 156h260q57 139 55 141h-154l-28 -80h-264l92 254h540l109 -122q-16 -49 -49 -138q-23 -55 -70 -96q-53 -47 -110 -47q23 -6 34 -12q25 -12 35 -29q25 -35 10 -78l-61 -153q-23 -55 -70 -97q-53 -47 -110 -47h-574z" />
<glyph unicode="&#xb4;" horiz-adv-x="966" d="M410 1690l168 415q39 98 163 99q76 0 130.5 -54.5t54.5 -130.5q0 -20 -6 -45q-53 -131 -158 -196q-123 -78 -352 -88z" />
<glyph unicode="&#xb5;" />
<glyph unicode="&#xb6;" />
<glyph unicode="&#xb7;" />
<glyph unicode="&#xb8;" horiz-adv-x="819" d="M-72 -383q0 31 9 61q63 160 198 236q153 86 438 86l-198 -487q-25 -59 -83.5 -95t-127.5 -36q-98 0 -167 68.5t-69 166.5z" />
<glyph unicode="&#xb9;" horiz-adv-x="942" d="M201 819l170 170l190 488h-149l204 161h291l-258 -653h88l-20 -45q-51 -121 -191 -121h-325z" />
<glyph unicode="&#xba;" />
<glyph unicode="&#xbb;" />
<glyph unicode="&#xbc;" horiz-adv-x="2508" d="M252 819l170 170l190 488h-149l205 161h290l-258 -653h88l-20 -45q-51 -121 -190 -121h-326zM477 0l754 1417l-172 221h758l-754 -1417l172 -221h-758zM1298 256l62 158l432 405h420l-160 -405h123l-61 -158h-123l-39 -92l104 2q-43 -98 -78 -125q-57 -41 -211 -41h-258 l166 166l39 90h-416zM1686 414h96l88 204z" />
<glyph unicode="&#xbd;" horiz-adv-x="2682" d="M252 819l170 170l190 488h-149l205 161h290l-258 -653h88l-20 -45q-51 -121 -190 -121h-326zM477 0l754 1417l-172 221h758l-754 -1417l172 -221h-758zM1362 0l125 344q49 135 229 135h258l66 170h-152l-33 -82h-262l93 252h530l113 -125l-86 -229q-20 -57 -80 -99 t-125 -42h-277l-59 -158h143l27 72h278l-39 -103q-51 -135 -305 -135h-444z" />
<glyph unicode="&#xbe;" horiz-adv-x="2775" d="M305 819l101 252h268l-35 -88h156l69 184h-260l55 156h261q57 139 55 141h-154l-28 -80h-265l93 254h540l109 -122q-16 -49 -49 -138q-23 -55 -70 -96q-53 -47 -111 -47q53 -14 70 -41q25 -35 10 -78l-61 -153q-23 -55 -70 -97q-53 -47 -110 -47h-574zM743 0l754 1417 l-172 221h758l-754 -1417l172 -221h-758zM1565 256l61 158l432 405h420l-160 -405h123l-61 -158h-123l-39 -92l104 2q-43 -98 -77 -125q-57 -41 -211 -41h-258l166 166l38 90h-415zM1952 414h96l88 204z" />
<glyph unicode="&#xbf;" horiz-adv-x="1421" d="M123 274l207 533q39 98 141 143q72 31 223 47h310q18 53 69 185q37 -84 130 -138.5t206 -54.5q62 1 123 19l-125 -314h-555l-139 -360h549l-31 -82l223 -252h-1085zM1188 1403q0 98 68.5 166.5t166.5 68.5t167 -68.5t69 -166.5t-68.5 -167t-167.5 -69q-98 0 -166.5 69 t-68.5 167z" />
<glyph unicode="&#xc0;" horiz-adv-x="2035" d="M-207 0l350 272l719 1114l-192 252h1472l-121 -329h-161l-158 -977h170l-37 -90q-55 -135 -133 -181q-104 -61 -367 -61h-291l95 426h-316l-241 -426h-789zM1010 750h200l125 575zM1153 2019q0 76 54 130.5t130 54.5q125 0 164 -99l168 -415q-229 10 -353 88 q-104 66 -157 196q-6 25 -6 45z" />
<glyph unicode="&#xc1;" horiz-adv-x="2035" d="M-207 0l350 272l719 1114l-192 252h1472l-121 -329h-161l-158 -977h170l-37 -90q-55 -135 -133 -181q-104 -61 -367 -61h-291l95 426h-316l-241 -426h-789zM1010 750h200l125 575zM1229 1690l168 415q39 98 163 99q76 0 130.5 -54.5t54.5 -130.5q0 -20 -6 -45 q-53 -131 -158 -196q-123 -78 -352 -88z" />
<glyph unicode="&#xc2;" horiz-adv-x="2035" d="M-207 0l350 272l719 1114l-192 252h1472l-121 -329h-161l-158 -977h170l-37 -90q-55 -135 -133 -181q-104 -61 -367 -61h-291l95 426h-316l-241 -426h-789zM901 1690l518 358h244l303 -358h-410l-68 208l-178 -208h-409zM1010 750h200l125 575z" />
<glyph unicode="&#xc3;" horiz-adv-x="2035" d="M-207 0l350 272l719 1114l-192 252h1472l-121 -329h-161l-158 -977h170l-37 -90q-55 -135 -133 -181q-104 -61 -367 -61h-291l95 426h-316l-241 -426h-789zM983 1749l123 205q59 59 163 59q98 0 288 -59.5t288 -59.5q105 1 164 60l-123 -205q-59 -59 -164 -59 q-98 0 -287.5 59t-288.5 59q-104 0 -163 -59zM1010 750h200l125 575z" />
<glyph unicode="&#xc4;" horiz-adv-x="2035" d="M-207 0l350 272l719 1114l-192 252h1472l-121 -329h-161l-158 -977h170l-37 -90q-55 -135 -133 -181q-104 -61 -367 -61h-291l95 426h-316l-241 -426h-789zM1010 750h200l125 575zM1127 1831q0 59 41 100t100 41t100 -41t41 -100t-41 -100t-100 -41t-100 41t-41 100z M1585 1831q0 59 41 100t101 41q59 0 100 -41t41 -100t-41 -100t-100 -41t-100.5 41t-41.5 100z" />
<glyph unicode="&#xc5;" horiz-adv-x="2035" d="M-207 0l350 272l719 1114l-192 252h1472l-121 -329h-161l-158 -977h170l-37 -90q-55 -135 -133 -181q-104 -61 -367 -61h-291l95 426h-316l-241 -426h-789zM1010 750h200l125 575zM1241 1747q27 76 84 219q33 82 149 82h219l56 -55l-90 -221q-33 -82 -152 -82h-213z M1411 1769h94l80 203h-94z" />
<glyph unicode="&#xc6;" horiz-adv-x="2588" d="M-207 0l350 272l719 1114l-192 252h2261l-199 -505h-471l72 178h-318l-123 -312h430l-122 -307h-433l-139 -350h318l86 217h471l-97 -242q-66 -164 -180 -231q-137 -84 -418 -84l-764 -2l95 426h-316l-241 -426h-789zM1010 750h200l125 575z" />
<glyph unicode="&#xc7;" horiz-adv-x="1703" d="M100 256l457 1143q41 104 186 176q129 63 261 63h741l207 -247l-105 -261h-547l68 170h-301l-387 -964h301l90 223h549l-107 -260q-47 -117 -159 -205q-121 -94 -248 -94h-799zM338 -383q0 31 9 61q63 160 198 236q153 86 438 86l-198 -487q-25 -59 -83.5 -95t-127.5 -36 q-98 0 -167 68.5t-69 166.5z" />
<glyph unicode="&#xc8;" horiz-adv-x="1644" d="M-207 0l342 340l416 1046l-223 252h1659l-199 -505h-471l72 178h-318l-123 -312h430l-123 -307h-432l-139 -350h317l86 217h472l-97 -242q-66 -164 -180 -231q-137 -84 -418 -84zM1051 2019q0 76 54 130.5t130 54.5q125 0 164 -99l168 -415q-229 10 -353 88 q-104 66 -157 196q-6 25 -6 45z" />
<glyph unicode="&#xc9;" horiz-adv-x="1644" d="M-207 0l342 340l416 1046l-223 252h1659l-199 -505h-471l72 178h-318l-123 -312h430l-123 -307h-432l-139 -350h317l86 217h472l-97 -242q-66 -164 -180 -231q-137 -84 -418 -84zM1024 1690l168 415q39 98 163 99q76 0 130.5 -54.5t54.5 -130.5q0 -20 -6 -45 q-53 -131 -158 -196q-123 -78 -352 -88z" />
<glyph unicode="&#xca;" horiz-adv-x="1644" d="M-207 0l342 340l416 1046l-223 252h1659l-199 -505h-471l72 178h-318l-123 -312h430l-123 -307h-432l-139 -350h317l86 217h472l-97 -242q-66 -164 -180 -231q-137 -84 -418 -84zM697 1690l518 358h244l303 -358h-410l-68 208l-178 -208h-409z" />
<glyph unicode="&#xcb;" horiz-adv-x="1644" d="M-207 0l342 340l416 1046l-223 252h1659l-199 -505h-471l72 178h-318l-123 -312h430l-123 -307h-432l-139 -350h317l86 217h472l-97 -242q-66 -164 -180 -231q-137 -84 -418 -84zM820 1831q0 59 41 100t100 41t100 -41t41 -100t-41 -100t-100 -41t-100 41t-41 100z M1278 1831q0 59 41 100t101 41q59 0 100 -41t41 -100t-41 -100t-100 -41t-100.5 41t-41.5 100z" />
<glyph unicode="&#xcc;" horiz-adv-x="987" d="M-207 0l342 340l416 1046l-223 252h956l-129 -315h-102l-394 -993h179l-39 -90q-100 -240 -383 -240h-623zM539 2019q0 76 54 130.5t130 54.5q125 0 164 -99l168 -415q-229 10 -353 88q-104 66 -157 196q-6 25 -6 45z" />
<glyph unicode="&#xcd;" horiz-adv-x="987" d="M-207 0l342 340l416 1046l-223 252h956l-129 -315h-102l-394 -993h179l-39 -90q-100 -240 -383 -240h-623zM615 1690l168 415q39 98 163 99q76 0 130.5 -54.5t54.5 -130.5q0 -20 -6 -45q-53 -131 -158 -196q-123 -78 -352 -88z" />
<glyph unicode="&#xce;" horiz-adv-x="987" d="M-207 0l342 340l416 1046l-223 252h956l-129 -315h-102l-394 -993h179l-39 -90q-100 -240 -383 -240h-623zM287 1690l518 358h244l303 -358h-410l-68 208l-178 -208h-409z" />
<glyph unicode="&#xcf;" horiz-adv-x="987" d="M-207 0l342 340l416 1046l-223 252h956l-129 -315h-102l-394 -993h179l-39 -90q-100 -240 -383 -240h-623zM512 1831q0 59 41 100t100 41t100 -41t41 -100t-41 -100t-100 -41t-100 41t-41 100zM970 1831q0 59 41 100t101 41q59 0 100 -41t41 -100t-41 -100t-100 -41 t-100.5 41t-41.5 100z" />
<glyph unicode="&#xd0;" />
<glyph unicode="&#xd1;" horiz-adv-x="1875" d="M-207 0l342 340l416 1046l-223 252h831l203 -815l317 815h664l-145 -350h-117l-381 -958q-80 -184 -150 -246q-92 -84 -272 -84h-234l-196 834l-334 -834h-721zM983 1749l123 205q59 59 163 59q98 0 288 -59.5t288 -59.5q105 1 164 60l-123 -205q-59 -59 -164 -59 q-98 0 -287.5 59t-288.5 59q-104 0 -163 -59z" />
<glyph unicode="&#xd2;" horiz-adv-x="1699" d="M100 256l457 1143q41 104 184 176q131 63 263 63h731l209 -247l-431 -1092q-47 -117 -157 -205q-123 -94 -250 -94h-799zM680 336h301l387 964h-301zM1051 2019q0 76 54 130.5t130 54.5q125 0 164 -99l168 -415q-229 10 -353 88q-104 66 -157 196q-6 25 -6 45z" />
<glyph unicode="&#xd3;" horiz-adv-x="1699" d="M100 256l457 1143q41 104 184 176q131 63 263 63h731l209 -247l-431 -1092q-47 -117 -157 -205q-123 -94 -250 -94h-799zM680 336h301l387 964h-301zM1127 1690l168 415q39 98 163 99q76 0 130.5 -54.5t54.5 -130.5q0 -20 -6 -45q-53 -131 -158 -196q-123 -78 -352 -88z " />
<glyph unicode="&#xd4;" horiz-adv-x="1699" d="M100 256l457 1143q41 104 184 176q131 63 263 63h731l209 -247l-431 -1092q-47 -117 -157 -205q-123 -94 -250 -94h-799zM680 336h301l387 964h-301zM799 1690l518 358h244l303 -358h-410l-68 208l-178 -208h-409z" />
<glyph unicode="&#xd5;" horiz-adv-x="1699" d="M100 256l457 1143q41 104 184 176q131 63 263 63h731l209 -247l-431 -1092q-47 -117 -157 -205q-123 -94 -250 -94h-799zM680 336h301l387 964h-301zM881 1749l123 205q59 59 163 59q98 0 288 -59.5t288 -59.5q105 1 164 60l-123 -205q-59 -59 -164 -59q-98 0 -287.5 59 t-288.5 59q-104 0 -163 -59z" />
<glyph unicode="&#xd6;" horiz-adv-x="1699" d="M100 256l457 1143q41 104 184 176q131 63 263 63h731l209 -247l-431 -1092q-47 -117 -157 -205q-123 -94 -250 -94h-799zM680 336h301l387 964h-301zM922 1831q0 59 41 100t100 41t100 -41t41 -100t-41 -100t-100 -41t-100 41t-41 100zM1380 1831q0 59 41 100t101 41 q59 0 100 -41t41 -100t-41 -100t-100 -41t-100.5 41t-41.5 100z" />
<glyph unicode="&#xd7;" />
<glyph unicode="&#xd8;" />
<glyph unicode="&#xd9;" horiz-adv-x="1798" d="M100 250l449 1132l-184 256h833l-524 -1302h299l475 1145l-137 157h850l-140 -335h-118l-400 -1004q-55 -117 -162 -203q-121 -96 -245 -96h-789zM1051 2019q0 76 54 130.5t130 54.5q125 0 164 -99l168 -415q-229 10 -353 88q-104 66 -157 196q-6 25 -6 45z" />
<glyph unicode="&#xda;" horiz-adv-x="1798" d="M100 250l449 1132l-184 256h833l-524 -1302h299l475 1145l-137 157h850l-140 -335h-118l-400 -1004q-55 -117 -162 -203q-121 -96 -245 -96h-789zM1127 1690l168 415q39 98 163 99q76 0 130.5 -54.5t54.5 -130.5q0 -20 -6 -45q-53 -131 -158 -196q-123 -78 -352 -88z" />
<glyph unicode="&#xdb;" horiz-adv-x="1798" d="M100 250l449 1132l-184 256h833l-524 -1302h299l475 1145l-137 157h850l-140 -335h-118l-400 -1004q-55 -117 -162 -203q-121 -96 -245 -96h-789zM799 1690l518 358h244l303 -358h-410l-68 208l-178 -208h-409z" />
<glyph unicode="&#xdc;" horiz-adv-x="1798" d="M100 250l449 1132l-184 256h833l-524 -1302h299l475 1145l-137 157h850l-140 -335h-118l-400 -1004q-55 -117 -162 -203q-121 -96 -245 -96h-789zM922 1831q0 59 41 100t100 41t100 -41t41 -100t-41 -100t-100 -41t-100 41t-41 100zM1380 1831q0 59 41 100t101 41 q59 0 100 -41t41 -100t-41 -100t-100 -41t-100.5 41t-41.5 100z" />
<glyph unicode="&#xdd;" horiz-adv-x="1298" d="M-80 0l377 344l209 524l-137 512l-267 258h695l110 -387l209 199l-110 188h837l-129 -315h-198l-484 -492l-186 -495h182q-39 -137 -141 -227q-111 -96 -258 -109h-709zM820 1690l168 415q39 98 163 99q76 0 130.5 -54.5t54.5 -130.5q0 -20 -6 -45q-53 -131 -158 -196 q-123 -78 -352 -88z" />
<glyph unicode="&#xde;" />
<glyph unicode="&#xdf;" horiz-adv-x="2633" d="M0 0l133 309h471l-43 -98h254l88 205h-475l-215 155l115 269q29 68 145 114q111 43 234 43h2011l-127 -295h-406l39 89h-264l-78 -179h477l172 -163l-88 -222q-90 -227 -422 -227h-2021zM723 612h477l172 -163l-55 -140h446l-43 -98h254l88 205h-475l-215 155l58 131 h-404l39 89h-264z" />
<glyph unicode="&#xe0;" horiz-adv-x="1558" d="M59 156l254 632q39 96 146 156q94 53 188 53h909l-262 -661h164l-39 -90q-106 -246 -379 -246h-823zM555 225h250l227 533h-260zM744 1405q0 76 54 130.5t130 54.5q125 0 164 -99l168 -415q-229 10 -353 88q-104 66 -157 196q-6 25 -6 45z" />
<glyph unicode="&#xe1;" horiz-adv-x="1558" d="M59 156l254 632q39 96 146 156q94 53 188 53h909l-262 -661h164l-39 -90q-106 -246 -379 -246h-823zM555 225h250l227 533h-260zM820 1076l168 415q39 98 163 99q76 0 130.5 -54.5t54.5 -130.5q0 -20 -6 -45q-53 -131 -158 -196q-123 -78 -352 -88z" />
<glyph unicode="&#xe2;" horiz-adv-x="1558" d="M59 156l254 632q39 96 146 156q94 53 188 53h909l-262 -661h164l-39 -90q-106 -246 -379 -246h-823zM492 1076l518 358h244l303 -358h-410l-68 208l-178 -208h-409zM555 225h250l227 533h-260z" />
<glyph unicode="&#xe3;" horiz-adv-x="1558" d="M59 156l254 632q39 96 146 156q94 53 188 53h909l-262 -661h164l-39 -90q-106 -246 -379 -246h-823zM555 225h250l227 533h-260zM574 1135l123 205q59 59 163 59q98 0 288 -59.5t288 -59.5q105 1 164 60l-123 -205q-59 -59 -164 -59q-98 0 -287.5 59t-288.5 59 q-104 0 -163 -59z" />
<glyph unicode="&#xe4;" horiz-adv-x="1558" d="M59 156l254 632q39 96 146 156q94 53 188 53h909l-262 -661h164l-39 -90q-106 -246 -379 -246h-823zM555 225h250l227 533h-260zM615 1217q0 59 41 100t100 41t100 -41t41 -100t-41 -100t-100 -41t-100 41t-41 100zM1073 1217q0 59 41 100t101 41q59 0 100 -41t41 -100 t-41 -100t-100 -41t-100.5 41t-41.5 100z" />
<glyph unicode="&#xe5;" horiz-adv-x="1558" d="M59 156l254 632q39 96 146 156q94 53 188 53h909l-262 -661h164l-39 -90q-106 -246 -379 -246h-823zM555 225h250l227 533h-260zM791 1133q27 76 84 219q33 82 149 82h219l56 -55l-90 -221q-33 -82 -152 -82h-213zM961 1155h94l80 203h-94z" />
<glyph unicode="&#xe6;" horiz-adv-x="2129" d="M59 156l254 632q39 96 146 156q94 53 188 53h1344l170 -166l-170 -407h-676l-78 -199h250l43 107h428l-37 -86q-104 -246 -373 -246h-1331zM555 225h250l227 533h-260zM1403 633h256l61 151h-258z" />
<glyph unicode="&#xe7;" horiz-adv-x="1441" d="M61 156l246 632q35 88 139 150q98 59 189 59h899l-125 -297h-424l35 86h-258l-221 -561h250l43 107h428l-37 -86q-104 -246 -373 -246h-629zM133 -383q0 31 9 61q63 160 198 236q153 86 438 86l-198 -487q-25 -59 -83.5 -95t-127.5 -36q-98 0 -167 68.5t-69 166.5z" />
<glyph unicode="&#xe8;" horiz-adv-x="1433" d="M61 156l244 632q41 104 146 162q86 47 184 47h659l170 -166l-170 -407h-676l-77 -199h250l43 107h428l-37 -86q-104 -246 -373 -246h-629zM707 633h256l61 151h-258zM744 1405q0 76 54 130.5t130 54.5q125 0 164 -99l168 -415q-229 10 -353 88q-104 66 -157 196 q-6 25 -6 45z" />
<glyph unicode="&#xe9;" horiz-adv-x="1433" d="M61 156l244 632q41 104 146 162q86 47 184 47h659l170 -166l-170 -407h-676l-77 -199h250l43 107h428l-37 -86q-104 -246 -373 -246h-629zM707 633h256l61 151h-258zM820 1076l168 415q39 98 163 99q76 0 130.5 -54.5t54.5 -130.5q0 -20 -6 -45q-53 -131 -158 -196 q-123 -78 -352 -88z" />
<glyph unicode="&#xea;" horiz-adv-x="1433" d="M61 156l244 632q41 104 146 162q86 47 184 47h659l170 -166l-170 -407h-676l-77 -199h250l43 107h428l-37 -86q-104 -246 -373 -246h-629zM492 1076l518 358h244l303 -358h-410l-68 208l-178 -208h-409zM707 633h256l61 151h-258z" />
<glyph unicode="&#xeb;" horiz-adv-x="1433" d="M61 156l244 632q41 104 146 162q86 47 184 47h659l170 -166l-170 -407h-676l-77 -199h250l43 107h428l-37 -86q-104 -246 -373 -246h-629zM615 1217q0 59 41 100t100 41t100 -41t41 -100t-41 -100t-100 -41t-100 41t-41 100zM707 633h256l61 151h-258zM1073 1217 q0 59 41 100t101 41q59 0 100 -41t41 -100t-41 -100t-100 -41t-100.5 41t-41.5 100z" />
<glyph unicode="&#xec;" horiz-adv-x="811" d="M-166 0q68 59 277 270l200 514l-172 213h670l-274 -682h163l-36 -90q-92 -225 -373 -225h-455zM232 1405q0 76 54 130.5t130 54.5q125 0 164 -99l168 -415q-229 10 -353 88q-104 66 -157 196q-6 25 -6 45z" />
<glyph unicode="&#xed;" horiz-adv-x="811" d="M-166 0q68 59 277 270l200 514l-172 213h670l-274 -682h163l-36 -90q-92 -225 -373 -225h-455zM308 1076l168 415q39 98 163 99q76 0 130.5 -54.5t54.5 -130.5q0 -20 -6 -45q-53 -131 -158 -196q-123 -78 -352 -88z" />
<glyph unicode="&#xee;" horiz-adv-x="811" d="M-166 0q68 59 277 270l200 514l-172 213h670l-274 -682h163l-36 -90q-92 -225 -373 -225h-455zM-20 1076l518 358h244l303 -358h-410l-68 208l-178 -208h-409z" />
<glyph unicode="&#xef;" horiz-adv-x="811" d="M-166 0q68 59 277 270l200 514l-172 213h670l-274 -682h163l-36 -90q-92 -225 -373 -225h-455zM205 1217q0 59 41 100t100 41t100 -41t41 -100t-41 -100t-100 -41t-100 41t-41 100zM663 1217q0 59 41 100t101 41q59 0 100 -41t41 -100t-41 -100t-100 -41t-100.5 41 t-41.5 100z" />
<glyph unicode="&#xf0;" />
<glyph unicode="&#xf1;" horiz-adv-x="1628" d="M-164 0l281 268l186 500l-176 229h1268l153 -166l-196 -516h161l-36 -90q-92 -225 -383 -225h-330l309 782h-301l-176 -452h164l-37 -90q-98 -240 -358 -240h-529zM369 1135l123 205q59 59 163 59q98 0 288 -59.5t288 -59.5q105 1 164 60l-123 -205q-59 -59 -164 -59 q-98 0 -287.5 59t-288.5 59q-104 0 -163 -59z" />
<glyph unicode="&#xf2;" horiz-adv-x="1454" d="M74 160q74 209 231 610q90 227 422 227h604l156 -151l-250 -619q-90 -227 -422 -227h-592zM549 225h260l221 563h-260zM744 1405q0 76 54 130.5t130 54.5q125 0 164 -99l168 -415q-229 10 -353 88q-104 66 -157 196q-6 25 -6 45z" />
<glyph unicode="&#xf3;" horiz-adv-x="1454" d="M74 160q74 209 231 610q90 227 422 227h604l156 -151l-250 -619q-90 -227 -422 -227h-592zM549 225h260l221 563h-260zM820 1076l168 415q39 98 163 99q76 0 130.5 -54.5t54.5 -130.5q0 -20 -6 -45q-53 -131 -158 -196q-123 -78 -352 -88z" />
<glyph unicode="&#xf4;" horiz-adv-x="1454" d="M74 160q74 209 231 610q90 227 422 227h604l156 -151l-250 -619q-90 -227 -422 -227h-592zM492 1076l518 358h244l303 -358h-410l-68 208l-178 -208h-409zM549 225h260l221 563h-260z" />
<glyph unicode="&#xf5;" horiz-adv-x="1454" d="M74 160q74 209 231 610q90 227 422 227h604l156 -151l-250 -619q-90 -227 -422 -227h-592zM471 1135l123 205q59 59 163 59q98 0 288 -59.5t288 -59.5q105 1 164 60l-123 -205q-59 -59 -164 -59q-98 0 -287.5 59t-288.5 59q-104 0 -163 -59zM549 225h260l221 563h-260z " />
<glyph unicode="&#xf6;" horiz-adv-x="1454" d="M74 160q74 209 231 610q90 227 422 227h604l156 -151l-250 -619q-90 -227 -422 -227h-592zM549 225h260l221 563h-260zM615 1217q0 59 41 100t100 41t100 -41t41 -100t-41 -100t-100 -41t-100 41t-41 100zM1073 1217q0 59 41 100t101 41q59 0 100 -41t41 -100t-41 -100 t-100 -41t-100.5 41t-41.5 100z" />
<glyph unicode="&#xf7;" />
<glyph unicode="&#xf8;" />
<glyph unicode="&#xf9;" horiz-adv-x="1538" d="M61 154l248 622l-127 221h658l-316 -794h246l311 794h453l-268 -682h161l-36 -90q-92 -225 -367 -225h-772zM744 1405q0 76 54 130.5t130 54.5q125 0 164 -99l168 -415q-229 10 -353 88q-104 66 -157 196q-6 25 -6 45z" />
<glyph unicode="&#xfa;" horiz-adv-x="1538" d="M61 154l248 622l-127 221h658l-316 -794h246l311 794h453l-268 -682h161l-36 -90q-92 -225 -367 -225h-772zM820 1076l168 415q39 98 163 99q76 0 130.5 -54.5t54.5 -130.5q0 -20 -6 -45q-53 -131 -158 -196q-123 -78 -352 -88z" />
<glyph unicode="&#xfb;" horiz-adv-x="1538" d="M61 154l248 622l-127 221h658l-316 -794h246l311 794h453l-268 -682h161l-36 -90q-92 -225 -367 -225h-772zM492 1076l518 358h244l303 -358h-410l-68 208l-178 -208h-409z" />
<glyph unicode="&#xfc;" horiz-adv-x="1538" d="M61 154l248 622l-127 221h658l-316 -794h246l311 794h453l-268 -682h161l-36 -90q-92 -225 -367 -225h-772zM615 1217q0 59 41 100t100 41t100 -41t41 -100t-41 -100t-100 -41t-100 41t-41 100zM1073 1217q0 59 41 100t101 41q59 0 100 -41t41 -100t-41 -100t-100 -41 t-100.5 41t-41.5 100z" />
<glyph unicode="&#xfd;" horiz-adv-x="1376" d="M-129 -410l385 410l90 784l-201 213h590l-57 -456l348 456h514l-936 -1114h156l-27 -67q-92 -225 -383 -226h-479zM717 1076l168 415q39 98 163 99q76 0 130.5 -54.5t54.5 -130.5q0 -20 -6 -45q-53 -131 -158 -196q-123 -78 -352 -88z" />
<glyph unicode="&#xfe;" horiz-adv-x="2019" d="M102 1079v123q0 29 22.5 51.5t51.5 22.5h133q29 0 51.5 -22.5t22.5 -51.5v-123q0 -29 -22.5 -51t-51.5 -22h-133q-29 0 -51.5 22.5t-22.5 50.5zM113 477l4 33q10 4 12 2q6 -20 33 -23l14 15q-6 6 -6 10q0 2 2 6t2 10q0 12 -8 25q-4 2 -12 18q-2 -2 -19 -2q6 10 21 27 q0 6 -9 14q-12 -8 -12 -22q-12 14 -8 18q10 6 40 51.5t48 51.5q-6 16 -6 30q0 12 6 25v-6q6 -6 31 -15q2 2 9 7.5t9 7.5q-4 20 -14 59l6 25q0 -12 10 -8q6 -59 37 -60q2 12 -10 21h6q2 10 10 28q12 -12 37 -34q6 0 6 10q-12 4 -24 16h6q4 6 24 12h17q18 0 45 -10q6 0 35 15 q-8 -10 -33 -35q8 -4 31 -15l-13 25q35 -2 29 -25h25l-5 33q23 20 35 21q-10 -6 -20 -35v-25q18 -18 26 -39v-96q-16 20 -16 39q-12 0 -12 -4q-2 6 -15 18q-4 -2 -30 -28q-2 23 4 32q16 0 26 5q-2 4 -20 22q-10 -6 -27 -22q0 -12 11 -37q-4 0 -13.5 2t-13.5 2q-8 -4 -27 -19 q8 8 15 35q-6 10 -23 29h-31q-20 0 -30 -15q10 -2 18 -2q10 0 19 2q6 -14 20 -38q-18 4 -51 22q-12 -8 -41 -24q-25 -33 -25 -46q0 -10 4 -12q8 10 25 25q8 0 18 28l31 -16q-6 -6 -24 -12q-18 -12 -33 -33q0 -4 4 -12q2 -6 0 -9l-14 -14q-2 -10 -5 -43q0 -6 7 -12 q14 14 12 14q18 -29 53 -82q-14 0 -42 2t-42 2q-6 -2 -16 -6q-14 8 -37 4q-27 -4 -45 0q-16 -2 -29 11q14 0 31 16q-6 4 -10 4q-6 0 -11 -6q2 2 2 6t-4 14l-14 -24zM113 571h6q4 -2 2 -8q0 -8 -6 -12q-4 6 -2 20zM115 61v328q0 20 20 21h262q41 0 41 -41v-123q0 -41 -41 -41 h-8l49 -144q0 -20 -20 -20h-41q-20 0 -21 20l-41 123q-20 20 -20 21h-37q-20 0 -20 -21v-123q0 -20 -21 -20h-82q-20 0 -20 20zM127 1079q0 -49 49 -49h133q49 0 49 49v123q0 49 -49 49h-133q-49 0 -49 -49v-123zM152 1067v147q0 12 12 13h145q25 0 25 -25v-24 q0 -12 -12 -13h-25q-12 0 -12 13v12q0 12 -13 12h-34q-12 0 -13 -12v-98q0 -12 13 -13h34q12 0 13 13v12q0 12 12 12h25q12 0 12 -12v-25q0 -25 -25 -24h-145q-12 0 -12 12zM156 102q0 -20 20 -20q21 0 21 20v246q0 20 -21 21q-20 0 -20 -21v-246zM162 457q33 0 33 8 q-8 6 -23 16q0 -10 -10 -24zM176 1092q0 -12 12 -13q13 1 13 13v98q0 12 -13 12q-12 0 -12 -12v-98zM227 829q18 35 33 45q20 5 45 -40q-4 6 -35 24q-25 -6 -43 -29zM238 266q0 -20 20 -20h78q20 0 20 20v82q0 20 -20 21h-78q-20 0 -20 -21v-82zM244 715l8 -4l22 32l-6 5z M266 752h8v22h-8v-22zM319 549q12 -12 19 -31q8 -6 24 -14q0 -41 5 -33q-4 -2 10 -29q-14 2 -23 -6q2 4 -12 31q0 2 4 9t2 11q8 4 -20 5q-2 20 -9 57zM344 520v39q21 -15 62 -33q-12 0 -13 -14q0 20 -12 16q-4 -8 -4 -16q0 -12 8 -29q-14 8 -23 37h-18zM401 471q6 2 7 8 q0 6 -7 17l17 -11q13 0 31 25q0 -20 -19 -39q-12 0 -16 4q0 -6 -4 -20q0 4 -9 16zM424 983v147q0 35 49 50l215 61q25 6 25 25v37q0 25 -25 24h-92q-14 0 -24.5 -24.5t-24.5 -24.5h-98q-25 0 -25 25v24q0 49 49 49h289q49 0 49 -49v-98q0 -35 -49 -49l-166 -50 q-25 -8 -25 -24v-98q0 -25 25 -25h92q25 0 25 25v49q0 25 24 24h49q25 0 25 -24v-74q0 -49 -49 -49h-289q-49 0 -49 49zM430 565q0 20 12 33l47 -4l5 -29q-10 -10 -29 -24l4 -23q-8 4 -23 19l3 6q0 4 -19 22zM459 782l10 -18l8 4l-12 18zM473 1008q0 -25 25 -25q24 0 24 25 v98q0 25 -24 24q-25 0 -25 -24v-98zM477 844l12 16l7 -4l-11 -18zM500 860q22 23 32 29l-4 -31q-6 14 -14 8q-4 0 -14 -6zM563 475v393q0 25 25 25h311q49 0 49 -49v-74q0 -25 -24 -25h-50q-25 0 -24 25v49q0 25 -25 25h-90q-25 0 -24 -25v-295q0 -25 24 -24h90q25 0 25 24 v99q0 25 -25 24h-67q-23 0 -23 25t23 24h141q49 0 49 -49v-172q0 -25 -24 -24h-336q-25 0 -25 24zM602 61v328q0 20 21 21h262q41 0 41 -41v-62q0 -20 -21 -20h-41q-20 0 -20 20v41q0 20 -21 21h-78q-20 0 -20 -21v-246q0 -20 20 -20h78q20 0 21 20v82q0 20 -21 21h-57 q-20 0 -21 20q0 20 21 21h119q41 0 41 -41v-144q0 -20 -21 -20h-282q-20 0 -21 20zM612 524q0 -25 25 -24q25 -1 25 24v295q0 25 -25 25t-25 -25v-295zM643 102q0 -20 21 -20q20 0 20 20v246q0 20 -20 21q-20 0 -21 -21v-246zM852 983v344q0 49 49 49h295q49 0 49 -49v-344 q0 -49 -49 -49h-295q-49 0 -49 49zM901 1008q0 -25 25 -25q24 0 24 25v295q0 25 -24 24q-25 0 -25 -24v-295zM956 61v103q0 20 21 20h180q20 0 21 21v61q0 20 -21 21h-57q-20 0 -21 -21v-20q0 -20 -20 -21h-82q-20 0 -21 21v61q0 20 21 21h242q41 0 41 -41v-226 q0 -20 -21 -20h-262q-20 0 -21 20zM989 475v393q0 25 25 25h98q25 0 25 -25v-344q0 -25 24 -24h25q25 0 24 24v246q0 25 25 25h49q25 0 25 -25v-246q0 -25 24 -24h25q25 0 24 24v344q0 25 25 25h49q25 0 25 -25v-368q0 -49 -49 -49h-418q-25 0 -25 24zM997 102q0 -20 21 -20 q20 0 20 20v21q0 20 -20 20t-21 -20v-21zM997 266q0 -20 21 -20q20 0 20 20t-20 21q-20 0 -21 -21zM999 1032q0 -49 50 -49h49q49 0 49 49v246q0 49 -49 49h-49q-49 0 -50 -49v-246zM1038 524q0 -25 25 -24q24 -1 24 24v295q0 25 -24 25q-25 0 -25 -25v-295zM1049 1106v98 q0 25 24 25q25 0 25 -25v-98q0 -25 -25 -25t-24 25zM1079 102q0 -20 21 -20h57q21 0 21 20v21q0 20 -21 20h-57q-20 0 -21 -20v-21zM1286 983v344q0 49 49 49h295q49 0 49 -49v-344q0 -49 -49 -49h-295q-49 0 -49 49zM1290 82v20q0 20 21 21h82q12 0 20 -20.5t21 -20.5h57 q20 0 20 20v41q0 20 -20 21h-160q-41 0 -41 41v82q0 41 41 41h221q41 0 41 -41v-21q0 -20 -20 -20h-41q-12 0 -20.5 20.5t-20.5 20.5h-57q-20 0 -21 -21v-41q0 -20 21 -20h118q41 0 41 -41v-82q0 -41 -41 -41h-221q-41 0 -41 41zM1331 225q0 -20 21 -20q20 0 20 20v41 q0 20 -20 21q-20 0 -21 -21v-41zM1335 1008q0 -25 25 -25q24 0 24 25v295q0 25 -24 24q-25 0 -25 -24v-295zM1434 1032q0 -49 49 -49h49q49 0 49 49v246q0 49 -49 49h-49q-49 0 -49 -49v-246zM1483 1106v98q0 25 24 25q25 0 25 -25v-98q0 -25 -25 -25t-24 25zM1522 500v73 q0 25 24 25h99q25 0 24 -25v-49q0 -25 25 -24h90q25 0 24 24v99q0 25 -24 24h-90q-25 0 -25 25t25 24h90q25 0 24 25v98q0 25 -24 25h-90q-25 0 -25 -25v-49q0 -25 -24 -25h-99q-25 0 -24 25v74q0 49 49 49h287q49 0 49 -49v-148q0 -14 -6 -24q6 -10 6 -25v-147 q0 -49 -49 -49h-287q-49 0 -49 49zM1571 524q0 -25 24 -24q25 -1 25 24t-25 25t-24 -25zM1571 819q0 -25 24 -24q25 -1 25 24t-25 25t-24 -25zM1624 307q0 20 21 21h20q20 0 21 20v41q0 20 20 21h82q20 0 20 -21v-41q0 -20 21 -20h57q21 -1 21 -21t-21 -20h-57 q-20 0 -21 -21v-205q0 -20 -20 -20h-82q-20 0 -20 20v205q0 20 -21 21h-20q-20 0 -21 20zM1720 1303v49q0 25 25 24h147q25 0 25 -24v-394q0 -25 -25 -24h-98q-25 0 -25 24v295q0 14 -24.5 24.5t-24.5 25.5zM1726 102q0 -20 21 -20q20 0 20 20v246q0 20 -20 21 q-20 0 -21 -21v-246zM1819 1008q0 -25 24 -25q25 0 25 25v295q0 25 -25 24q-25 0 -24 -24v-295z" />
<glyph unicode="&#xff;" horiz-adv-x="1376" d="M-129 -410l385 410l90 784l-201 213h590l-57 -456l348 456h514l-936 -1114h156l-27 -67q-92 -225 -383 -226h-479zM512 1217q0 59 41 100t100 41t100 -41t41 -100t-41 -100t-100 -41t-100 41t-41 100zM970 1217q0 59 41 100t101 41q59 0 100 -41t41 -100t-41 -100 t-100 -41t-100.5 41t-41.5 100z" />
<glyph unicode="&#x152;" horiz-adv-x="2506" d="M100 256l457 1143q41 104 184 176q131 63 263 63h1845l-201 -508h-471l72 179h-318l-123 -312h430l-122 -307h-433l-139 -350h318l86 217h471l-97 -242q-66 -164 -180 -231q-137 -84 -418 -84h-1417zM680 336h301l387 964h-301z" />
<glyph unicode="&#x153;" horiz-adv-x="2129" d="M74 160q74 209 231 610q90 227 422 227h1264l170 -166l-170 -407h-676l-78 -197q-90 -227 -422 -227h-592zM549 225h260l221 563h-260zM1137 0q160 88 202 225h148l43 107h428l-37 -86q-104 -246 -373 -246h-411zM1403 633h256l61 151h-258z" />
<glyph unicode="&#x178;" horiz-adv-x="1298" d="M-80 0l377 344l209 524l-137 512l-267 258h695l110 -387l209 199l-110 188h837l-129 -315h-198l-484 -492l-186 -495h182q-39 -137 -141 -227q-111 -96 -258 -109h-709zM615 1831q0 59 41 100t100 41t100 -41t41 -100t-41 -100t-100 -41t-100 41t-41 100zM1073 1831 q0 59 41 100t101 41q59 0 100 -41t41 -100t-41 -100t-100 -41t-100.5 41t-41.5 100z" />
<glyph unicode="&#x2c6;" horiz-adv-x="1433" d="M287 1690l518 358h244l303 -358h-410l-68 208l-178 -208h-409z" />
<glyph unicode="&#x2dc;" horiz-adv-x="1433" d="M369 1749l123 205q59 59 163 59q98 0 288 -59.5t288 -59.5q105 1 164 60l-123 -205q-59 -59 -164 -59q-98 0 -287.5 59t-288.5 59q-104 0 -163 -59z" />
<glyph unicode="&#x2000;" horiz-adv-x="1102" />
<glyph unicode="&#x2001;" horiz-adv-x="2204" />
<glyph unicode="&#x2002;" horiz-adv-x="1102" />
<glyph unicode="&#x2003;" horiz-adv-x="2204" />
<glyph unicode="&#x2004;" horiz-adv-x="734" />
<glyph unicode="&#x2005;" horiz-adv-x="551" />
<glyph unicode="&#x2006;" horiz-adv-x="367" />
<glyph unicode="&#x2007;" horiz-adv-x="367" />
<glyph unicode="&#x2008;" horiz-adv-x="275" />
<glyph unicode="&#x2009;" horiz-adv-x="440" />
<glyph unicode="&#x200a;" horiz-adv-x="122" />
<glyph unicode="&#x2010;" horiz-adv-x="1007" d="M238 594l122 307h699l-123 -307h-698z" />
<glyph unicode="&#x2011;" horiz-adv-x="1007" d="M238 594l122 307h699l-123 -307h-698z" />
<glyph unicode="&#x2012;" horiz-adv-x="1007" d="M238 594l122 307h699l-123 -307h-698z" />
<glyph unicode="&#x2013;" horiz-adv-x="1212" d="M238 594l122 307h904l-123 -307h-903z" />
<glyph unicode="&#x2014;" horiz-adv-x="1417" d="M238 594l122 307h1108l-122 -307h-1108z" />
<glyph unicode="&#x2018;" horiz-adv-x="860" d="M451 1255q0 31 8 62q63 160 198 235q154 86 439 86l-199 -487q-25 -59 -83 -95t-128 -36q-98 0 -166.5 68.5t-68.5 166.5z" />
<glyph unicode="&#x2019;" horiz-adv-x="860" d="M451 1020l198 487q25 59 83.5 95t127.5 36q98 0 167 -68.5t69 -166.5q0 -31 -9 -62q-63 -160 -198 -235q-154 -86 -438 -86z" />
<glyph unicode="&#x201a;" />
<glyph unicode="&#x201c;" horiz-adv-x="1515" d="M451 1255q0 31 8 62q63 160 198 235q154 86 439 86l-199 -487q-25 -59 -83 -95t-128 -36q-98 0 -166.5 68.5t-68.5 166.5zM1106 1255q0 31 8 62q63 160 199 235q153 86 438 86l-199 -487q-25 -59 -83 -95t-128 -36q-98 0 -166.5 68.5t-68.5 166.5z" />
<glyph unicode="&#x201d;" horiz-adv-x="1515" d="M451 1020l198 487q25 59 83.5 95t127.5 36q98 0 167 -68.5t69 -166.5q0 -31 -9 -62q-63 -160 -198 -235q-154 -86 -438 -86zM1106 1020l199 487q25 59 83 95t128 36q98 0 166.5 -68.5t68.5 -166.5q0 -31 -8 -62q-63 -160 -199 -235q-154 -86 -438 -86z" />
<glyph unicode="&#x201e;" />
<glyph unicode="&#x2022;" horiz-adv-x="802" d="M332 819q0 98 68.5 167t166.5 69t167 -69t69 -167t-68.5 -166.5t-167.5 -68.5q-98 0 -166.5 68.5t-68.5 166.5z" />
<glyph unicode="&#x2026;" horiz-adv-x="2285" d="M123 236q0 98 68.5 166.5t166.5 68.5t167 -68.5t69 -166.5t-68.5 -167t-167.5 -69q-98 0 -166.5 68.5t-68.5 167.5zM885 236q0 98 68.5 166.5t166.5 68.5t167 -68.5t69 -166.5t-68.5 -167t-167.5 -69q-98 0 -166.5 68.5t-68.5 167.5zM1647 236q0 98 68.5 166.5 t166.5 68.5t167 -68.5t69 -166.5t-69 -167t-167 -69t-166.5 68.5t-68.5 167.5z" />
<glyph unicode="&#x202f;" horiz-adv-x="440" />
<glyph unicode="&#x2039;" />
<glyph unicode="&#x203a;" />
<glyph unicode="&#x205f;" horiz-adv-x="551" />
<glyph unicode="&#x2122;" horiz-adv-x="1212" d="M547 1229l51 110h41l84 191h-41l-18 -41h-76l67 149h357l-68 -149h-76l19 41h-41l-84 -191h41l-51 -110h-205zM870 1229l52 110h41l84 191h-41l49 108h153l15 -125l129 125h153l-49 -108h-41l-84 -191h41l-51 -110h-195l52 110h41l41 97l-78 -76h-54l-12 76l-41 -97h41 l-51 -110h-195z" />
<glyph unicode="&#xe000;" horiz-adv-x="993" d="M0 0v993h993v-993h-993z" />
</font>
</defs>
</svg>
