<?xml version="1.0" standalone="no"?>
<!DOCTYPE svg PUBLIC "-//W3C//DTD SVG 1.1//EN" "http://www.w3.org/Graphics/SVG/1.1/DTD/svg11.dtd" >
<svg xmlns="http://www.w3.org/2000/svg">
<metadata></metadata>
<defs>
<font id="1-prolook_fastlaneitalic" horiz-adv-x="563" >
<font-face units-per-em="2048" ascent="1638" descent="-410" />
<missing-glyph horiz-adv-x="374" />
<glyph horiz-adv-x="2048" />
<glyph horiz-adv-x="2048" />
<glyph unicode="&#xd;" horiz-adv-x="374" />
<glyph unicode=" "  horiz-adv-x="374" />
<glyph unicode="&#x09;" horiz-adv-x="374" />
<glyph unicode="&#xa0;" horiz-adv-x="374" />
<glyph unicode="!" horiz-adv-x="352" d="M84 84q0 57 46 100t101 43q41 0 70 -25.5t29 -66.5q0 -57 -46.5 -100t-101.5 -43q-41 0 -69.5 25.5t-28.5 66.5zM236 397l141 838q2 8 2 16q0 47 -27 117h232l-246 -971h-102z" />
<glyph unicode="&#x22;" horiz-adv-x="671" d="M317 1157q0 94 9 129q10 49 52 84t93 35q41 0 68.5 -26.5t27.5 -67.5q0 -60 -166 -379h-77q-6 170 -7 225zM610 1157q0 94 8 129q10 49 52.5 84t93.5 35q41 0 68.5 -26.5t27.5 -67.5q0 -60 -166 -379h-78q-6 170 -6 225z" />
<glyph unicode="#" horiz-adv-x="815" d="M125 399l33 158h190l43 207h-82q-53 0 -112 -23l32 158h191q25 119 24 158q0 23 -2 43h142l-43 -201h186q27 119 27 158q0 23 -2 43h141l-43 -201h135l-29 -135h-135l-45 -207h137l-28 -135h-137l-35 -162h-121l35 162h-187l-34 -162h-121l34 162h-83q-53 0 -111 -23z M469 557h186l45 207h-188z" />
<glyph unicode="$" horiz-adv-x="737" d="M121 256l47 123q57 -23 94 -23h111l67 324q-209 -2 -209 154q0 119 74 227q82 121 195 121h47q25 113 24 139q0 23 -4 49h82l-39 -188h64q25 113 24 139q0 23 -4 49h82l-41 -188h170l-49 -123q-57 23 -141 22l-62 -290q201 0 201 -160q0 -127 -74 -242 q-82 -133 -200 -133h-41l-54 -256h-63l55 256h-63l-56 -256h-61l53 256h-229zM428 848q0 -47 37 -55l57 272q-59 -31 -80 -131q-14 -68 -14 -86zM434 356h43h21l69 324h-63zM526 791h64l63 290h-65zM565 377q55 35 86 182q8 37 8 57q0 45 -30 58z" />
<glyph unicode="%" horiz-adv-x="937" d="M45 0q72 74 107 127l841 1243h144q-78 -88 -113 -139l-834 -1231h-145zM199 956q0 61 16 142q31 147 74 200q59 72 196 72q86 0 125 -22q55 -31 56 -111q0 -59 -25 -159.5t-53 -147.5q-41 -68 -101 -84q-35 -10 -133 -10q-156 0 -155 120zM287 977q0 -104 108 -105 q113 0 160 226q18 84 18 127q0 106 -94 106q-84 0 -127 -80q-27 -47 -49 -153q-16 -82 -16 -121zM532 121q0 61 17 139q33 150 76 203q59 72 196 72q84 0 125 -23q53 -31 53 -111q0 -59 -24.5 -159.5t-50.5 -147.5q-41 -68 -103 -86q-33 -8 -133 -8q-156 0 -156 121z M621 141q0 -106 108 -106q115 0 162 225q18 86 18 129q0 106 -94 107q-84 0 -129 -80q-25 -47 -47 -156q-18 -80 -18 -119z" />
<glyph unicode="&#x26;" horiz-adv-x="835" d="M94 324q0 141 64 282q76 166 192 197q-41 53 -41 149q0 61 15 133q37 158 139 228q92 61 260 61q135 0 242 -65l-107 -119q-25 70 -164 70q-84 0 -143 -101q-51 -90 -51 -178q0 -139 184 -137h10q6 35 6 71q0 23 -2 43l207 70l-39 -184h123l-26 -127h-129l-109 -514 q-4 -16 -4 -29q0 -33 41 -33q39 0 102 33l-51 -147q-88 -31 -139 -31q-43 0 -131 2h-131q-152 0 -235 87t-83 239zM297 250q0 -55 42 -99.5t95 -44.5q104 0 111 35l125 584q-12 2 -31 2h-37q-41 0 -65 -2q-49 -4 -98.5 -46t-69.5 -91q-25 -63 -47 -166q-25 -115 -25 -172z " />
<glyph unicode="'" horiz-adv-x="337" d="M319 1257q0 55 46.5 99.5t101.5 44.5q41 0 69.5 -26.5t28.5 -67.5q0 -74 -76.5 -178.5t-148.5 -104.5l-18 51q76 35 88 88q-90 6 -91 94z" />
<glyph unicode="(" horiz-adv-x="591" d="M207 301q0 164 37 336q59 281 192 510q180 307 406 307l-15 -68q-125 -2 -249 -315q-82 -205 -132 -434q-55 -260 -55 -471q0 -279 117 -279l-12 -65q-289 0 -289 479z" />
<glyph unicode=")" horiz-adv-x="622" d="M72 -178l14 65q125 2 250 318q82 203 129 432q55 260 55 473q0 276 -117 276l15 68q287 0 287 -481q0 -166 -35 -336q-59 -283 -195 -510q-180 -305 -403 -305z" />
<glyph unicode="*" horiz-adv-x="688" d="M180 745q0 53 68 84q63 23 129.5 45.5t66.5 59.5q0 31 -97 63.5t-97 77.5q0 31 25.5 61.5t54.5 30.5q37 0 88 -73.5t80 -73.5q39 0 47 76v104q0 133 86 133q51 0 51 -51q0 -39 -38 -118t-38 -113q0 -31 23 -31q29 0 111.5 73.5t119.5 73.5q49 0 49 -61q0 -53 -69 -84 q-63 -20 -129 -43.5t-66 -60.5q0 -31 97.5 -64t97.5 -78q0 -31 -27 -61.5t-55 -30.5q-37 0 -88.5 75t-79.5 75q-39 0 -47 -76v-105q0 -135 -86 -135q-51 0 -51 51q0 39 37.5 118t37.5 116q0 31 -22 31q-29 0 -112 -75t-120 -75q-47 0 -47 61z" />
<glyph unicode="+" horiz-adv-x="571" d="M170 573l33 156h190q29 135 29 174q0 23 -2 43h141l-45 -217h189l-29 -135h-189l-45 -207h-120l43 207h-84q-53 0 -111 -21z" />
<glyph unicode="," horiz-adv-x="346" d="M86 104q0 55 45 99.5t102 44.5q41 0 69 -26.5t28 -67.5q0 -74 -74 -177q-80 -106 -150 -106l-18 51q76 35 88 88q-90 6 -90 94z" />
<glyph unicode="-" horiz-adv-x="612" d="M193 573l32 158h504l-29 -135h-397q-53 0 -110 -23z" />
<glyph unicode="." horiz-adv-x="356" d="M84 92q0 55 46 99.5t101 44.5q41 0 70 -27t29 -68q0 -55 -46.5 -99t-101.5 -44q-43 0 -70.5 26.5t-27.5 67.5z" />
<glyph unicode="/" horiz-adv-x="823" d="M14 2q70 74 107 127l842 1243h143q-80 -88 -113 -139l-835 -1231h-144z" />
<glyph unicode="0" horiz-adv-x="882" d="M141 283q0 160 49 385q72 338 147 470t163 182t243 50q150 0 215 -43q78 -51 103 -192q4 -20 4 -54q0 -166 -61.5 -432t-133.5 -409q-86 -166 -176 -209q-71 -35 -272 -35q-158 0 -219.5 62.5t-61.5 224.5zM367 250q0 -70 36 -92q29 -16 105 -17q86 0 131 64 q20 31 60 141.5t85 327.5q60 279 60 424q0 137 -119 137q-104 0 -156 -68q-29 -35 -71 -157q-100 -279 -125 -664q-6 -76 -6 -96z" />
<glyph unicode="1" horiz-adv-x="360" d="M94 2l271 1270q6 23 6 51q0 25 -4 49h223l-291 -1370h-205z" />
<glyph unicode="2" horiz-adv-x="722" d="M29 0l129 604q16 82 67 135q57 61 135 62q33 0 97 -2h96q84 0 112.5 21.5t47.5 105.5q45 209 45 260q0 84 -92 84h-193q-37 0 -102 -23l2 123h424q68 0 110.5 -53t42.5 -123q0 -20 -4 -45q-8 -86 -47 -254q-43 -117 -105.5 -161t-162.5 -44h-178q-80 0 -99 -86l-90 -420 q-2 -8 -2 -16q0 -68 94 -68h215q39 0 105 23l-4 -123h-643z" />
<glyph unicode="3" horiz-adv-x="759" d="M45 41l119 143q23 -31 90 -55q61 -23 104 -23q57 0 117 45.5t84.5 101.5t47 163.5t22.5 171.5q0 156 -127 155q-49 0 -101 -30l-4 147q39 -4 84 -4q102 0 146 43q39 37 59 143q8 33 8 68q0 150 -102 150q-139 0 -197 -70l-53 119q133 66 272 65q283 0 283 -200 q0 -94 -43 -201q-45 -113 -113 -170q106 -31 107 -213q0 -231 -137 -406q-150 -186 -375 -186q-223 0 -291 43z" />
<glyph unicode="4" horiz-adv-x="819" d="M129 346l29 129l504 756q43 63 75 139h244l-190 -895h112l-57 -129h-84l-74 -346h-203l74 346h-430zM289 475h297l137 641z" />
<glyph unicode="5" horiz-adv-x="763" d="M43 0l49 123q57 -23 94 -23h254q92 0 129 84q14 33 66.5 268.5t52.5 270.5q0 66 -49 65h-420l123 582h608l-49 -123q-57 23 -94 23h-287l-80 -371h258q104 0 142.5 -44t38.5 -150q0 -37 -19 -130q-31 -119 -88 -354q-18 -84 -88 -149q-74 -72 -154 -72h-487z" />
<glyph unicode="6" horiz-adv-x="819" d="M123 311q0 119 47 340q72 332 174 488q154 231 434 231h197l-33 -149q-76 33 -205 32q-160 0 -241 -184q-31 -72 -84 -319q102 106 233 106q117 0 193.5 -79t76.5 -197q0 -63 -20 -156q-41 -190 -141 -301q-117 -129 -297 -129q-334 0 -334 317zM344 295q0 -188 129 -189 q102 0 170 197q53 156 53 289q0 141 -100 141q-174 0 -238 -309q-14 -68 -14 -129z" />
<glyph unicode="7" horiz-adv-x="688" d="M160 0l547 1245h-275q-57 0 -131 -22l23 147h645l-604 -1370h-205z" />
<glyph unicode="8" horiz-adv-x="788" d="M109 299q0 141 61 287q74 172 186 211q-49 53 -49 151q0 53 15 117q66 309 354 309q254 0 254 -200q0 -94 -43 -201q-45 -113 -113 -170q109 -33 109 -213q0 -231 -123 -402q-138 -190 -359 -190q-293 0 -292 301zM319 254q0 -147 105 -148q150 0 215 310q23 104 23 170 q0 147 -105 147q-150 0 -217 -317q-20 -98 -21 -162zM496 977q0 -125 86 -125q70 0 114 119q37 94 37 180q0 109 -76 109q-78 0 -125 -107q-37 -86 -36 -176z" />
<glyph unicode="9" horiz-adv-x="837" d="M154 2l32 150q76 -33 203 -33q162 0 244 184q31 70 82 318q-100 -104 -232 -105q-119 0 -194.5 79t-75.5 198q0 61 20 155q39 190 142 301q117 129 297 129q332 0 332 -323q0 -121 -46 -336q-45 -207 -100 -342q-70 -168 -199 -268q-139 -107 -311 -107h-194zM432 780 q0 -143 100 -143q174 0 238 309q14 70 14 129q0 190 -129 191q-104 0 -170 -199q-53 -156 -53 -287z" />
<glyph unicode=":" horiz-adv-x="323" d="M90 96q0 55 45 99.5t103 44.5q41 0 68.5 -27t27.5 -68q0 -55 -45.5 -99t-102.5 -44q-41 0 -68.5 26.5t-27.5 67.5zM186 557q0 55 46.5 99t103.5 44q41 0 68.5 -26.5t27.5 -67.5q0 -55 -46 -99t-101 -44q-41 0 -70 26.5t-29 67.5z" />
<glyph unicode=";" horiz-adv-x="321" d="M90 94q0 57 45 100.5t103 43.5q41 0 68.5 -26t27.5 -67q0 -76 -74 -176q-79 -108 -149 -108l-19 51q76 37 88 90q-90 4 -90 92zM188 557q0 55 45.5 99t102.5 44q41 0 68.5 -26.5t27.5 -67.5q0 -55 -45 -99t-102 -44q-41 0 -69 26.5t-28 67.5z" />
<glyph unicode="&#x3c;" horiz-adv-x="491" d="M209 616l358 324h113l-361 -324l224 -321h-113z" />
<glyph unicode="=" horiz-adv-x="565" d="M131 403l33 156h504l-29 -135h-397q-53 0 -111 -21zM203 745l35 158l501 -2l-28 -133h-396q-53 0 -112 -23z" />
<glyph unicode="&#x3e;" horiz-adv-x="462" d="M106 295l359 321l-221 324h110l224 -324l-361 -321h-111z" />
<glyph unicode="?" horiz-adv-x="702" d="M160 84q0 57 46 100t101 43q41 0 70 -25.5t29 -66.5q0 -57 -46.5 -100t-101.5 -43q-41 0 -69.5 25.5t-28.5 66.5zM229 342l58 262q39 186 202 197q-8 0 68 0q70 0 96 28q23 23 39 97q45 211 45 260q0 84 -92 84h-229q-37 0 -103 -23l2 123h461q68 0 111 -53t43 -123 q0 -20 -4 -45q-8 -86 -47 -254q-41 -111 -94.5 -153t-188.5 -50q-102 -8 -119 -88q-39 -164 -39 -223q0 -23 4 -39h-213z" />
<glyph unicode="@" horiz-adv-x="847" d="M190 518q0 68 19 152q47 217 141 286q88 68 307 68q154 0 222 -27q109 -43 108 -170q0 -143 -74 -270q-88 -145 -221 -145q-8 0 -28 2q-45 4 -55.5 12t-16.5 51q-29 -31 -105 -31q-63 0 -63 72q0 23 12 84q10 39 21 57q45 86 192 86q10 41 10 56q0 35 -49 35t-73 -11v52 h141q70 0 70 -60q0 -10 -3 -22l-61 -287q-4 -23 -4 -39q0 -25 14 -25q23 0 64 52q33 39 49 71q63 125 63 267q0 92 -59 129q-47 27 -145 26q-172 0 -244 -78q-53 -61 -92 -245q-18 -88 -19 -150q0 -195 191 -194l-8 -41q-145 4 -215 47q-88 55 -89 190zM514 520 q0 -31 35 -31q45 0 55 50l35 161q-88 0 -102 -69q-23 -106 -23 -111z" />
<glyph unicode="A" horiz-adv-x="794" d="M27 0q57 86 90 164l465 1075q-18 0 -56 2h-57q-100 0 -166 -24l6 153h486l-9 -1370h-161q18 80 18 168q0 31 -2 78q-4 63 -4 80h-264l-146 -326h-200zM434 459h199l-10 420z" />
<glyph unicode="B" horiz-adv-x="833" d="M49 1221l6 151l774 2q98 0 148 -78q41 -66 41 -170q0 -113 -45 -225q-47 -119 -127 -188q63 -70 63 -199q0 -176 -100 -334q-115 -180 -279 -180h-430q18 41 31 102l211 992q23 100 131 137l2 12h-299q-61 -2 -127 -22zM346 139l86 2q109 0 186 115q68 104 68 219 q0 166 -174 168h-59zM483 782h86q102 0 179 101q69 92 69 198q0 162 -158 162h-77z" />
<glyph unicode="C" horiz-adv-x="794" d="M143 336q0 141 47 358q143 678 463 678h351l-33 -158q-49 23 -103 23h-170q-100 0 -196 -225q-66 -150 -101 -318q-47 -219 -47 -346q0 -205 113 -205h117q94 0 207 47l-5 -190h-399q-244 0 -244 336z" />
<glyph unicode="D" horiz-adv-x="860" d="M20 1219l7 153h702h59q229 -16 230 -336q0 -137 -45 -342q-148 -694 -492 -694h-397l233 1094q20 100 127 137l2 10h-317q-37 0 -109 -22zM319 143h140q147 0 252 355q84 282 84 489q0 256 -164 256h-78z" />
<glyph unicode="E" horiz-adv-x="759" d="M88 2l262 1235q-66 0 -117 -23l-10 158h772l-32 -158q-49 23 -103 23h-307l-82 -391h356l-34 -158q-47 23 -101 23h-250l-123 -574h308q53 0 112 21l-34 -156h-617z" />
<glyph unicode="F" horiz-adv-x="745" d="M96 0l262 1235q-53 0 -116 -23l-11 158h775l-35 -158q-49 23 -103 23h-307l-82 -391h357l-35 -158q-47 23 -101 23h-249l-152 -709h-203z" />
<glyph unicode="G" horiz-adv-x="833" d="M203 692q143 678 463 678h348l-35 -158q-47 23 -100 23h-168q-100 0 -197 -225q-63 -150 -100 -318q-47 -219 -47 -346q0 -205 112 -205h84q63 0 84 101l62 288q6 27 6 58q0 25 -4 47h223l-135 -635h-400q-243 0 -243 331q0 144 47 361z" />
<glyph unicode="H" horiz-adv-x="854" d="M84 0l270 1270q4 23 4 51q0 25 -4 49h224l-127 -604h301l106 504q6 23 6 51q0 25 -4 49h221l-290 -1370h-203l135 631h-301l-135 -631h-203z" />
<glyph unicode="I" horiz-adv-x="333" d="M68 0l270 1270q4 23 4 51q0 25 -2 49h223l-293 -1370h-202z" />
<glyph unicode="J" horiz-adv-x="651" d="M47 0l31 139q37 -22 65 -22h2h183q88 0 102 67l217 1024q4 53 17 160l217 2l-267 -1253q-10 -47 -50 -83t-87 -36z" />
<glyph unicode="K" horiz-adv-x="829" d="M47 0l270 1270q4 23 5 51q0 25 -3 49h224l-129 -606l327 475q47 68 70 131h168l-373 -549l176 -694q13 -53 52 -127h-259l-182 672l-141 -672h-205z" />
<glyph unicode="L" horiz-adv-x="663" d="M82 0l270 1270q4 23 4 51q0 25 -4 49h226l-265 -1235h250q53 0 113 23l-35 -158h-559z" />
<glyph unicode="M" horiz-adv-x="1320" d="M98 0l269 1264q4 27 4 57q0 25 -2 49h301l106 -1046l475 899q41 74 68 147h231l-290 -1370h-205l194 909l-471 -909h-221l-76 854l-180 -854h-203z" />
<glyph unicode="N" horiz-adv-x="995" d="M88 0l268 1270q6 23 6 51q0 25 -4 49h258l220 -874l163 774q2 10 2 20q0 39 -20 80h244l-291 -1370h-223l-230 899l-190 -899h-203z" />
<glyph unicode="O" horiz-adv-x="919" d="M139 283q0 160 49 387q72 340 146 467q76 135 176 186q90 49 250 49q154 0 225 -43q88 -51 113 -192q4 -20 4 -54q0 -166 -62 -430q-61 -272 -133 -411q-88 -166 -188 -211q-76 -35 -281 -35q-162 0 -230.5 62.5t-68.5 224.5zM367 276q0 -86 41 -114q31 -20 118 -21 q90 0 142 64q31 37 69 143q37 100 84 326q58 268 58 395q0 84 -25 121q-31 45 -111 45q-106 0 -165 -64q-39 -45 -82 -161q-129 -348 -129 -734z" />
<glyph unicode="P" horiz-adv-x="757" d="M35 1225l6 147h725q199 0 199 -274q0 -178 -97 -355q-110 -204 -272 -204h-2h-203l-115 -539h-204q16 39 28 96l215 1010q20 94 125 129l2 12l-295 2q-53 0 -112 -24zM420 670h80q111 0 190 147q66 125 66 248q0 184 -140 184h-73z" />
<glyph unicode="Q" horiz-adv-x="974" d="M166 283q0 160 47 387q72 338 146.5 470t175.5 183q92 49 251 49q152 0 224 -43q90 -53 112 -192q4 -23 4 -56q0 -166 -59 -428q-61 -268 -135 -411q-90 -176 -209 -222l35 -331q0 12 0 -21q0 -47 73 -47h216q29 0 75 23l-30 -142h-435q-72 0 -86 119l-49 375h-61 q-160 0 -227.5 62.5t-67.5 224.5zM393 276q0 -86 41 -114q29 -20 117 -21q90 0 141 64q31 37 70 143q37 100 86 326q57 268 57 395q0 84 -26 121q-31 45 -111 45q-106 0 -164 -64q-41 -45 -84 -161q-127 -348 -127 -734z" />
<glyph unicode="R" horiz-adv-x="851" d="M27 1219l6 153h774q104 0 162 -72q51 -66 51 -174q0 -139 -78 -272q-80 -141 -203 -192l62 -535q8 -55 53 -127h-258l-80 602q-2 16 -12 39h-72l-137 -641h-217q18 39 33 102l211 990q8 45 46 83.5t83 53.5l2 12h-297q-63 0 -129 -22zM461 780h86q102 0 178 101 q70 91 70 200q0 162 -158 162h-78z" />
<glyph unicode="S" horiz-adv-x="782" d="M80 0l49 123q57 -23 94 -23h230q90 0 127 84q14 33 54 217.5t40 216.5q0 45 -37 58q-16 4 -78 4h-54h-54q-115 0 -158 40t-43 154q0 57 22 140q20 68 39 135q18 84 90 152.5t154 68.5h406l-50 -123q-57 23 -94 23h-174q-68 0 -102 -45q-25 -31 -45 -109 q-53 -217 -54 -264q0 -43 29 -55q16 -8 66 -9q25 0 73 3h76q104 0 142 -44.5t38 -150.5q0 -37 -14 -111q-25 -88 -68 -264q-18 -82 -89.5 -151.5t-153.5 -69.5h-461z" />
<glyph unicode="T" horiz-adv-x="729" d="M262 0q18 39 31 102l211 990q23 102 129 137l2 12h-209q-53 0 -113 -22l6 151h689l-33 -151q-53 22 -103 22h-4q2 0 -127 0l-264 -1241h-215z" />
<glyph unicode="U" horiz-adv-x="907" d="M125 186l217 1022q12 61 14 162l217 -2l-235 -1102q-4 -23 -4 -41q0 -106 86 -106h141q53 0 96 47q37 43 48 100l200 942q4 53 17 160l217 2l-252 -1184q-16 -72 -64 -125q-53 -61 -121 -61h-473q-110 0 -110 133q0 27 6 53z" />
<glyph unicode="V" horiz-adv-x="784" d="M299 1372h203l26 -936l318 772q35 86 51 164h162l-574 -1372h-157l-6 1208q-2 78 -23 164z" />
<glyph unicode="W" horiz-adv-x="1345" d="M305 1372h201l29 -928l315 764q24 59 24 86q0 20 -14 78h25q164 0 178 -6l29 -922l315 764q35 86 51 164h162l-573 -1372h-158l-6 940l-391 -940h-158l-8 1208q0 78 -21 164z" />
<glyph unicode="X" horiz-adv-x="894" d="M12 0l490 723l-129 510q-12 49 -56 137h258l99 -391l266 391h145l-370 -549l174 -694q14 -53 53 -127h-258l-143 565l-383 -565h-146z" />
<glyph unicode="Y" horiz-adv-x="782" d="M281 0q33 63 51 152l135 628q-35 152 -70 303q-43 176 -108 287h266l100 -391l265 391h145l-395 -586l-166 -784h-223z" />
<glyph unicode="Z" horiz-adv-x="800" d="M70 0l671 1235h-278q-68 0 -115 -23l-14 158h706l-663 -1233h311q70 0 139 23l-34 -160h-723z" />
<glyph unicode="[" horiz-adv-x="378" d="M39 -182l348 1634h291l-21 -104h-188l-303 -1426h188l-22 -104h-293z" />
<glyph unicode="\" horiz-adv-x="702" d="M303 1370h141l199 -1243q8 -55 51 -127h-141l-197 1233q-8 51 -53 137z" />
<glyph unicode="]" horiz-adv-x="458" d="M66 -178l22 104h186l304 1422h-189l23 104h293l-349 -1630h-290z" />
<glyph unicode="^" horiz-adv-x="645" d="M272 1059l27 123l319 137l261 -137l-27 -123l-260 137z" />
<glyph unicode="_" horiz-adv-x="684" d="M-47 -319l18 79h654l-17 -79h-655z" />
<glyph unicode="`" horiz-adv-x="825" d="M629 1516h141l102 -113h-63z" />
<glyph unicode="a" horiz-adv-x="702" d="M80 152q0 158 53 239q125 195 442 195q20 60 20 71l-1 19q0 67 -87 67h-3h-98q-45 0 -101 -22l4 123h326q160 0 160 -139q0 -25 -7 -54q-37 -170 -110 -512q-9 -47 -9 -102q0 -18 1 -37h-219l14 68q-61 -68 -232 -68q-66 0 -109.5 43t-43.5 109zM287 168q0 -72 78 -72 q49 0 84.5 33t46.5 82l59 274q-82 0 -149 -41q-72 -47 -89 -122q-31 -143 -30 -154z" />
<glyph unicode="b" horiz-adv-x="718" d="M49 0q37 78 49 139l232 1084q10 57 10 124v23h217l-125 -588q55 63 111 64h180q41 0 68.5 -31t27.5 -72q0 -10 -2 -22l-123 -582q-14 -59 -78.5 -99t-132.5 -40q-168 0 -202 68l-27 -68h-205zM307 174q0 -86 72 -86q47 0 82 38t45 87l90 418q2 12 2 24q0 78 -78 78 q-98 0 -121 -110l-88 -410q-4 -20 -4 -39z" />
<glyph unicode="c" horiz-adv-x="616" d="M133 438q82 385 320 408q27 2 86 2q152 0 219 -64l-123 -67q-29 49 -129 49q-88 0 -129 -135q-76 -256 -76 -404q0 -168 152 -168q-6 0 155 23l-2 -84h-336q-161 0 -161 230q0 95 24 210z" />
<glyph unicode="d" horiz-adv-x="733" d="M94 117q0 12 2 22l123 582q10 47 55 86t93 39h188q55 0 86 -64l94 441q10 49 10 122v25h216l-263 -1231q-9 -46 -9 -101q0 -18 1 -38h-203l2 68q-63 -68 -243 -68q-55 0 -101 31q-51 33 -51 86zM311 180q0 -92 84 -92q98 0 125 125l88 410q2 14 2 28q0 82 -84 82 q-45 0 -78.5 -29.5t-44.5 -72.5l-88 -418q-4 -18 -4 -33z" />
<glyph unicode="e" horiz-adv-x="686" d="M109 233q0 82 26 207q84 383 318 406q29 4 98 4q51 0 74 -4q152 -16 151 -219v-6q0 -79 -24 -181h-420q-29 -160 -29 -227q0 -145 150 -145q29 0 157 16l-2 -84h-280q-98 0 -158.5 65.5t-60.5 167.5zM356 551h215q18 86 19 113q0 104 -82 104q-104 0 -152 -217z" />
<glyph unicode="f" horiz-adv-x="569" d="M88 0l150 709h-66l29 137h65l86 403q10 49 50 85t87 36h390l-29 -141q-37 22 -66 22h-2h-147q-90 0 -107 -67l-71 -340h264l-33 -158q-49 23 -102 23h-158l-149 -709h-191z" />
<glyph unicode="g" horiz-adv-x="692" d="M0 -485l29 139q39 -23 67 -23h189q88 0 102 68l78 362q-55 -61 -111 -61h-180q-41 0 -68.5 29.5t-27.5 70.5q0 12 2 25l125 580q12 61 80 102q61 37 129 37q168 0 202 -66l15 66h219q-39 -76 -51 -139l-228 -1074q-10 -47 -50 -82.5t-87 -35.5zM295 172q0 -78 78 -78 q98 0 123 111l86 411q4 19 4 37q0 86 -72 86q-47 0 -82 -37.5t-45 -85.5l-88 -419q-4 -12 -4 -25z" />
<glyph unicode="h" horiz-adv-x="704" d="M57 0l265 1249q10 49 50 85t87 36h434l-29 -141q-37 22 -65 22h-2h-185q-92 0 -106 -67l-86 -404q57 61 112 62h175q41 0 70.5 -30t29.5 -71q0 -12 -2 -22l-133 -621q-4 -23 -4 -51q0 -22 2 -47h-221l133 625q2 14 2 26q0 80 -80 80q-94 0 -117 -106l-133 -625h-197z" />
<glyph unicode="i" horiz-adv-x="348" d="M90 0l158 737q4 25 4 58q0 23 -2 49h223l-178 -844h-205zM301 985l37 176h203l-37 -176h-203z" />
<glyph unicode="j" horiz-adv-x="315" d="M-256 -487l29 139q39 -23 67 -23h74q88 0 102 68l209 985q4 53 17 160l215 2l-258 -1215q-10 -47 -49.5 -82.5t-86.5 -35.5zM283 985l39 176h202l-37 -176h-204z" />
<glyph unicode="k" horiz-adv-x="743" d="M57 0l265 1249q10 49 49 85t88 36h434l-29 -141q-37 22 -65 22h-2h-187q-90 0 -104 -67l-135 -631q12 10 272 291h260q-92 -51 -139 -105l-180 -204h57q41 0 70.5 -30t29.5 -71q0 -12 -2 -22l-67 -314q-4 -23 -4 -51q0 -23 2 -47h-221l71 332q2 18 2 35q0 75 -74 75h-2 h-98l-94 -442h-197z" />
<glyph unicode="l" horiz-adv-x="354" d="M94 0l271 1270q4 23 4 51q0 25 -2 49h223l-293 -1370h-203z" />
<glyph unicode="m" horiz-adv-x="1132" d="M88 0l158 739q4 25 4 56q0 25 -2 49h219l-10 -82q88 92 225 92q127 0 172 -86q61 84 215 84q170 0 170 -119q0 -16 -4 -33l-150 -700h-198l131 616q4 14 4 29q0 78 -80 78q-98 0 -121 -107l-131 -616h-205l131 616q2 14 2 27q0 78 -75 78q-94 0 -117 -105l-131 -616h-207 z" />
<glyph unicode="n" horiz-adv-x="718" d="M72 0l155 739q6 25 6 58q0 23 -4 49h217l-10 -84q88 92 217 92q158 0 158 -113q0 -18 -6 -43l-148 -698h-198l133 623q2 14 2 26q0 78 -78 78q-86 0 -108 -104l-134 -623h-202z" />
<glyph unicode="o" horiz-adv-x="694" d="M121 174q0 96 39 275q41 190 82 260q53 86 127 118q61 29 170 29q102 0 151 -25q70 -33 88 -122q2 -14 2 -37q0 -100 -37 -269q-41 -176 -86 -258q-55 -102 -129 -133q-51 -20 -184 -20q-115 0 -162 33q-61 41 -61 149zM305 209q0 -111 84 -111q100 0 166 322l8 41 q23 107 23 166q0 114 -71 114h-1q-109 0 -168 -278q-41 -188 -41 -254z" />
<glyph unicode="p" horiz-adv-x="718" d="M-41 -485q37 80 51 145l221 1045q10 50 10 109q0 15 -1 30h209l-7 -66q61 66 236 66q59 0 104 -31t45 -90q0 -14 -4 -33l-116 -549q-12 -61 -66 -101t-117 -40h-108q-106 0 -125 61l-117 -546h-215zM317 176q0 -82 80 -82q43 0 77 30t42 73l90 417q2 19 2 35q0 90 -78 90 q-96 0 -122 -125l-86 -409q-4 -14 -5 -29z" />
<glyph unicode="q" horiz-adv-x="696" d="M94 100q0 12 2 25l123 580q14 61 82 102q61 37 129 37q156 0 188 -66l23 66h211q-37 -76 -51 -139l-213 -1004q-2 -8 -2 -14q0 -53 76 -54h188q29 0 78 23l-31 -141h-436q-39 0 -63.5 26.5t-24.5 65.5q0 14 4 26l90 428q-53 -61 -109 -61h-168q-41 0 -68.5 29.5 t-27.5 70.5zM311 170q0 -76 72 -76q90 0 115 111l88 411q4 21 4 39q0 84 -66 84q-45 0 -77.5 -37.5t-43.5 -85.5l-88 -419q-4 -12 -4 -27z" />
<glyph unicode="r" horiz-adv-x="526" d="M63 0l156 739q6 23 6 56q0 25 -2 49h211l-10 -82q27 31 79 56.5t93 25.5q84 0 119 -49l-133 -140v7q2 79 -72 79h-2q-88 0 -111 -102l-135 -639h-199z" />
<glyph unicode="s" horiz-adv-x="651" d="M72 2l49 121q57 -23 90 -23h151q74 0 115 57.5t41 133.5q0 63 -63 76q-12 2 -115 2q-178 0 -178 159q0 43 10 97q18 82 90 151.5t152 69.5h338l-50 -123q-55 22 -91 22h-3h-104q-76 0 -117 -65q-35 -55 -35 -135q0 -66 78 -66h33q23 2 33 2q102 0 143 -20q63 -31 63 -121 q0 -135 -59 -229q-72 -109 -199 -109h-372z" />
<glyph unicode="t" horiz-adv-x="430" d="M106 96q0 14 3 31l200 944q12 53 13 148l221 69l-92 -440h127l-27 -129h-129l-109 -512q-4 -18 -4 -29q0 -35 41 -35q40 0 103 33l-50 -147q-100 -31 -151 -31q-145 0 -146 98z" />
<glyph unicode="u" horiz-adv-x="720" d="M113 150l125 589q6 23 6 56q0 25 -4 49h219l-133 -625q-2 -12 -2 -24q0 -80 75 -80q88 0 111 104l133 625h39h164l-158 -742q-4 -23 -4 -53q0 -24 2 -49l-215 2l8 80q-86 -92 -221 -92q-149 0 -149 117q0 20 4 43z" />
<glyph unicode="v" horiz-adv-x="681" d="M213 844h227l19 -535l211 414q29 55 39 121h125l-420 -844h-140l-34 723q-4 55 -27 121z" />
<glyph unicode="w" horiz-adv-x="1046" d="M201 846h225l20 -533l175 342q-6 125 -29 191h227v-2l19 -531l194 412q27 55 39 121h125l-403 -844h-142l-22 461l-230 -461h-139l-35 723q-2 57 -24 121z" />
<glyph unicode="x" horiz-adv-x="688" d="M47 0l301 375l-82 348q-12 51 -57 121h242l67 -258l109 137q39 49 41 121h182l-301 -375l123 -469h-236l-59 256l-207 -256h-123z" />
<glyph unicode="y" horiz-adv-x="729" d="M27 -487l30 141q39 -23 68 -23h188q88 0 103 68l78 362q-61 -61 -127 -61h-113q-57 0 -98 29q-47 31 -47 84q0 14 4 28l127 602q6 23 6 56q0 20 -2 45h221l-137 -647q-4 -12 -4 -25q0 -78 77 -78q98 0 121 111l137 637l197 2l-258 -1213q-10 -47 -49 -82.5t-86 -35.5 h-436z" />
<glyph unicode="z" horiz-adv-x="686" d="M37 -2l506 713h-189q-66 0 -112 -25l-17 158h385q107 0 232 -2l-498 -709h209q68 0 139 25l-35 -160h-620z" />
<glyph unicode="{" horiz-adv-x="595" d="M203 401l37 170q121 8 188 131q43 76 76 232l33 151q76 354 251 355h105l-14 -70h-7q-92 0 -149 -86q-35 -53 -66 -168q-18 -61 -53 -227q-29 -123 -92 -232q-76 -129 -170 -172q106 -35 107 -249q0 -82 -35 -244t-35 -246q0 -143 125 -143l-17 -70h-104q-121 0 -121 182 q0 86 39 255t39 255q0 166 -137 176z" />
<glyph unicode="|" horiz-adv-x="288" d="M27 -467l405 1903h43l-405 -1903h-43z" />
<glyph unicode="}" horiz-adv-x="598" d="M20 -467l15 70h8q92 0 147 86q35 53 68 170q16 59 53 225q27 123 88 233q78 141 172 168q-104 57 -104 263q0 80 34 238.5t34 238.5q0 145 -123 145l14 70h104q123 0 123 -183q0 -86 -40 -254.5t-40 -254.5q0 -166 138 -177l-37 -170q-121 -8 -189 -131q-43 -78 -75 -233 l-33 -150q-76 -354 -250 -354h-107z" />
<glyph unicode="~" horiz-adv-x="948" d="M160 344q111 289 309 289q82 0 181.5 -79t146.5 -79q80 0 143 154l115 -49q-29 -100 -107 -174q-86 -82 -186 -82q-66 0 -163 79.5t-155 79.5q-63 0 -104 -67q-14 -23 -53 -123z" />
<glyph unicode="&#xa1;" horiz-adv-x="352" d="M-66 -504h232l168 971h-103l-215 -838q-10 -45 -82 -133zM203 731q0 -41 27.5 -67.5t70.5 -26.5q96 0 137 92q10 25 11 49q0 41 -28 67.5t-71 26.5q-96 0 -137 -92q-10 -27 -10 -49z" />
<glyph unicode="&#xa3;" />
<glyph unicode="&#xa4;" />
<glyph unicode="&#xa7;" />
<glyph unicode="&#xa8;" horiz-adv-x="1071" d="M629 1450q0 31 24.5 57.5t55.5 26.5q53 0 53 -53q0 -33 -24.5 -58.5t-57.5 -25.5q-51 0 -51 53zM840 1450q0 31 24.5 57.5t57.5 26.5q51 0 51 -55q0 -31 -24.5 -56.5t-57.5 -25.5q-51 0 -51 53z" />
<glyph unicode="&#xaa;" />
<glyph unicode="&#xab;" />
<glyph unicode="&#xac;" />
<glyph unicode="&#xad;" horiz-adv-x="612" d="M193 573l32 158h504l-29 -135h-397q-53 0 -110 -23z" />
<glyph unicode="&#xaf;" />
<glyph unicode="&#xb1;" />
<glyph unicode="&#xb2;" />
<glyph unicode="&#xb3;" />
<glyph unicode="&#xb4;" horiz-adv-x="825" d="M690 1403l150 113h143l-229 -113h-64z" />
<glyph unicode="&#xb5;" />
<glyph unicode="&#xb7;" />
<glyph unicode="&#xb8;" horiz-adv-x="946" d="M242 -383l8 43q29 -4 43 -4q47 0 90 40t43 87q0 57 -61 57q-8 0 -21 -2l139 178h54l-62 -79q86 -23 86 -109q0 -88 -73.5 -152.5t-163.5 -64.5q-35 0 -82 6z" />
<glyph unicode="&#xb9;" />
<glyph unicode="&#xbb;" />
<glyph unicode="&#xbc;" />
<glyph unicode="&#xbd;" />
<glyph unicode="&#xbe;" />
<glyph unicode="&#xbf;" horiz-adv-x="702" d="M-33 -322q0 20 4 46q8 86 47 253q43 111 96.5 153t186.5 50q102 8 121 88q37 165 37 224q0 23 -4 38h213l-56 -262q-41 -186 -204 -196q8 0 -68 0q-70 0 -94.5 -26t-40.5 -99q-45 -211 -45 -260q0 -84 92 -84h229q37 0 105 22l-4 -123h-459q-70 0 -113 53.5t-43 122.5z M492 737q0 57 46 100.5t101 43.5q43 0 70.5 -26t27.5 -67q0 -57 -46 -100t-101 -43q-41 0 -69.5 25.5t-28.5 66.5z" />
<glyph unicode="&#xc0;" horiz-adv-x="714" d="M27 0q57 86 90 164l465 1075q-18 0 -56 2h-57q-100 0 -166 -24l6 153h486l-9 -1370h-161q18 80 18 168q0 31 -2 78q-4 63 -4 80h-264l-146 -326h-200zM434 459h199l-10 420zM629 1516h141l102 -113h-63z" />
<glyph unicode="&#xc1;" horiz-adv-x="714" d="M27 0q57 86 90 164l465 1075q-18 0 -56 2h-57q-100 0 -166 -24l6 153h486l-9 -1370h-161q18 80 18 168q0 31 -2 78q-4 63 -4 80h-264l-146 -326h-200zM434 459h199l-10 420zM690 1403l150 113h143l-229 -113h-64z" />
<glyph unicode="&#xc2;" horiz-adv-x="714" d="M27 0q57 86 90 164l465 1075q-18 0 -56 2h-57q-100 0 -166 -24l6 153h486l-9 -1370h-161q18 80 18 168q0 31 -2 78q-4 63 -4 80h-264l-146 -326h-200zM434 459h199l-10 420zM610 1403l95 113h194l47 -113h-63l-86 88l-125 -88h-62z" />
<glyph unicode="&#xc3;" horiz-adv-x="714" d="M27 0q57 86 90 164l465 1075q-18 0 -56 2h-57q-100 0 -166 -24l6 153h486l-9 -1370h-161q18 80 18 168q0 31 -2 78q-4 63 -4 80h-264l-146 -326h-200zM434 459h199l-10 420zM586 1403q29 127 139 127q41 0 98.5 -34t81.5 -34q45 0 72 68h18q-27 -129 -141 -129 q-41 0 -98.5 34.5t-81.5 34.5q-41 0 -70 -67h-18z" />
<glyph unicode="&#xc4;" horiz-adv-x="714" d="M27 0q57 86 90 164l465 1075q-18 0 -56 2h-57q-100 0 -166 -24l6 153h486l-9 -1370h-161q18 80 18 168q0 31 -2 78q-4 63 -4 80h-264l-146 -326h-200zM434 459h199l-10 420zM555 1450q0 31 23.5 57.5t56.5 26.5q53 0 53 -53q0 -33 -24.5 -58.5t-57.5 -25.5q-51 0 -51 53z M766 1450q0 31 24.5 57.5t57.5 26.5q51 0 51 -55q0 -31 -24.5 -56.5t-57.5 -25.5q-51 0 -51 53z" />
<glyph unicode="&#xc5;" horiz-adv-x="714" d="M27 0q57 86 90 164l465 1075q-18 0 -56 2h-57q-100 0 -166 -24l6 153h486l-9 -1370h-161q18 80 18 168q0 31 -2 78q-4 63 -4 80h-264l-146 -326h-200zM434 459h199l-10 420zM639 1421q0 49 40 84t91 35q35 0 61.5 -21.5t26.5 -56.5q0 -49 -41 -84t-90 -35 q-37 0 -62.5 21.5t-25.5 56.5zM678 1430q0 -51 57 -52q31 0 57.5 22.5t26.5 53.5q0 51 -57 51q-33 0 -58.5 -22.5t-25.5 -52.5z" />
<glyph unicode="&#xc6;" horiz-adv-x="1067" d="M0 0q57 86 90 164l465 1075q-18 0 -55 2h-58q-100 0 -163 -24l6 153h1034l-33 -158q-49 23 -102 23h-307l-164 -774h170l-33 -158q-49 23 -150 23h-18l-39 -191h307q53 0 111 23l-33 -158h-135h-135h-217q-41 0 -131 -2l69 328h-131l-147 -326h-201zM408 459h100l90 420z " />
<glyph unicode="&#xc7;" horiz-adv-x="804" d="M137 336q0 141 47 358q143 678 463 678h350l-32 -158q-49 23 -103 23h-170q-100 0 -196 -225q-63 -150 -101 -318q-47 -219 -47 -346q0 -205 113 -205h117q94 0 206 47l-4 -190h-399q-244 0 -244 336zM242 -383l8 43q29 -4 43 -4q47 0 90 40t43 87q0 57 -61 57 q-8 0 -21 -2l139 178h54l-62 -79q86 -23 86 -109q0 -88 -73.5 -152.5t-163.5 -64.5q-35 0 -82 6z" />
<glyph unicode="&#xc8;" horiz-adv-x="684" d="M88 2l262 1235q-66 0 -117 -23l-10 158h772l-32 -158q-49 23 -103 23h-307l-82 -391h356l-34 -158q-47 23 -101 23h-250l-123 -574h308q53 0 112 21l-34 -156h-617zM610 1516h142l102 -113h-63z" />
<glyph unicode="&#xc9;" horiz-adv-x="684" d="M88 2l262 1235q-66 0 -117 -23l-10 158h772l-32 -158q-49 23 -103 23h-307l-82 -391h356l-34 -158q-47 23 -101 23h-250l-123 -574h308q53 0 112 21l-34 -156h-617zM598 1403l150 113h143l-229 -113h-64z" />
<glyph unicode="&#xca;" horiz-adv-x="684" d="M88 2l262 1235q-66 0 -117 -23l-10 158h772l-32 -158q-49 23 -103 23h-307l-82 -391h356l-34 -158q-47 23 -101 23h-250l-123 -574h308q53 0 112 21l-34 -156h-617zM537 1403l94 113h194l47 -113h-63l-86 88l-125 -88h-61z" />
<glyph unicode="&#xcb;" horiz-adv-x="684" d="M88 2l262 1235q-66 0 -117 -23l-10 158h772l-32 -158q-49 23 -103 23h-307l-82 -391h356l-34 -158q-47 23 -101 23h-250l-123 -574h308q53 0 112 21l-34 -156h-617zM555 1450q0 31 23.5 57.5t56.5 26.5q53 0 53 -53q0 -33 -24.5 -58.5t-57.5 -25.5q-51 0 -51 53z M766 1450q0 31 24.5 57.5t57.5 26.5q51 0 51 -55q0 -31 -24.5 -56.5t-57.5 -25.5q-51 0 -51 53z" />
<glyph unicode="&#xcc;" horiz-adv-x="301" d="M68 0l270 1270q4 23 4 51q0 25 -4 49h225l-293 -1370h-202zM315 1516h142l102 -113h-63z" />
<glyph unicode="&#xcd;" horiz-adv-x="301" d="M68 0l270 1270q4 23 4 51q0 25 -4 49h225l-293 -1370h-202zM358 1403l150 113h143l-229 -113h-64z" />
<glyph unicode="&#xce;" horiz-adv-x="301" d="M68 0l270 1270q4 23 4 51q0 25 -4 49h225l-293 -1370h-202zM297 1403l94 113h195l47 -113h-64l-86 88l-125 -88h-61z" />
<glyph unicode="&#xcf;" horiz-adv-x="301" d="M68 0l270 1270q4 23 4 51q0 25 -4 49h225l-293 -1370h-202zM315 1450q0 31 23.5 57.5t56.5 26.5q53 0 54 -53q0 -33 -24.5 -58.5t-57.5 -25.5q-51 0 -52 53zM526 1450q0 31 24.5 57.5t57.5 26.5q51 0 51 -55q0 -31 -24 -56.5t-57 -25.5q-51 0 -52 53z" />
<glyph unicode="&#xd1;" horiz-adv-x="894" d="M88 0l268 1270q6 23 6 51q0 25 -4 49h258l220 -874l163 774q2 10 2 20q0 39 -20 80h244l-291 -1370h-223l-230 899l-190 -899h-203zM586 1403q29 127 139 127q41 0 98.5 -34t81.5 -34q45 0 72 68h18q-27 -129 -141 -129q-41 0 -98.5 34.5t-81.5 34.5q-41 0 -70 -67h-18z " />
<glyph unicode="&#xd2;" horiz-adv-x="919" d="M139 283q0 160 49 387q72 340 146 467q76 135 176 186q90 49 250 49q154 0 225 -43q88 -51 113 -192q4 -20 4 -54q0 -166 -62 -430q-61 -272 -133 -411q-88 -166 -188 -211q-76 -35 -281 -35q-162 0 -230.5 62.5t-68.5 224.5zM367 276q0 -86 41 -114q31 -20 118 -21 q90 0 142 64q31 37 69 143q37 100 84 326q58 268 58 395q0 84 -25 121q-31 45 -111 45q-106 0 -165 -64q-39 -45 -82 -161q-129 -348 -129 -734zM629 1516h141l102 -113h-63z" />
<glyph unicode="&#xd3;" horiz-adv-x="919" d="M139 283q0 160 49 387q72 340 146 467q76 135 176 186q90 49 250 49q154 0 225 -43q88 -51 113 -192q4 -20 4 -54q0 -166 -62 -430q-61 -272 -133 -411q-88 -166 -188 -211q-76 -35 -281 -35q-162 0 -230.5 62.5t-68.5 224.5zM367 276q0 -86 41 -114q31 -20 118 -21 q90 0 142 64q31 37 69 143q37 100 84 326q58 268 58 395q0 84 -25 121q-31 45 -111 45q-106 0 -165 -64q-39 -45 -82 -161q-129 -348 -129 -734zM672 1403l149 113h144l-230 -113h-63z" />
<glyph unicode="&#xd4;" horiz-adv-x="919" d="M139 283q0 160 49 387q72 340 146 467q76 135 176 186q90 49 250 49q154 0 225 -43q88 -51 113 -192q4 -20 4 -54q0 -166 -62 -430q-61 -272 -133 -411q-88 -166 -188 -211q-76 -35 -281 -35q-162 0 -230.5 62.5t-68.5 224.5zM367 276q0 -86 41 -114q31 -20 118 -21 q90 0 142 64q31 37 69 143q37 100 84 326q58 268 58 395q0 84 -25 121q-31 45 -111 45q-106 0 -165 -64q-39 -45 -82 -161q-129 -348 -129 -734zM610 1403l95 113h194l47 -113h-63l-86 88l-125 -88h-62z" />
<glyph unicode="&#xd5;" horiz-adv-x="919" d="M139 283q0 160 49 387q72 340 146 467q76 135 176 186q90 49 250 49q154 0 225 -43q88 -51 113 -192q4 -20 4 -54q0 -166 -62 -430q-61 -272 -133 -411q-88 -166 -188 -211q-76 -35 -281 -35q-162 0 -230.5 62.5t-68.5 224.5zM367 276q0 -86 41 -114q31 -20 118 -21 q90 0 142 64q31 37 69 143q37 100 84 326q58 268 58 395q0 84 -25 121q-31 45 -111 45q-106 0 -165 -64q-39 -45 -82 -161q-129 -348 -129 -734zM586 1403q29 127 139 127q41 0 98.5 -34t81.5 -34q45 0 72 68h18q-27 -129 -141 -129q-41 0 -98.5 34.5t-81.5 34.5 q-41 0 -70 -67h-18z" />
<glyph unicode="&#xd6;" horiz-adv-x="919" d="M139 283q0 160 49 387q72 340 146 467q76 135 176 186q90 49 250 49q154 0 225 -43q88 -51 113 -192q4 -20 4 -54q0 -166 -62 -430q-61 -272 -133 -411q-88 -166 -188 -211q-76 -35 -281 -35q-162 0 -230.5 62.5t-68.5 224.5zM367 276q0 -86 41 -114q31 -20 118 -21 q90 0 142 64q31 37 69 143q37 100 84 326q58 268 58 395q0 84 -25 121q-31 45 -111 45q-106 0 -165 -64q-39 -45 -82 -161q-129 -348 -129 -734zM629 1450q0 31 23.5 57.5t56.5 26.5q53 0 53 -53q0 -33 -24.5 -58.5t-57.5 -25.5q-51 0 -51 53zM840 1450q0 31 24.5 57.5 t57.5 26.5q51 0 51 -55q0 -31 -24.5 -56.5t-57.5 -25.5q-51 0 -51 53z" />
<glyph unicode="&#xd8;" horiz-adv-x="919" d="M37 2q70 74 106 127l842 1243h143q-78 -88 -112 -139l-834 -1231h-145zM127 283q0 160 47 387q72 340 145 467q78 135 177 186q92 49 252 49q154 0 223 -43q88 -51 112 -192q4 -20 4 -54q0 -166 -61 -430q-61 -272 -133 -411q-86 -166 -188 -211q-76 -35 -281 -35 q-162 0 -229.5 62.5t-67.5 224.5zM354 276q0 -86 41 -114q29 -20 117 -21q90 0 141 64q31 37 70 143q37 100 86 326q57 268 57 395q0 84 -26 121q-31 45 -111 45q-106 0 -164 -64q-41 -45 -84 -161q-127 -348 -127 -734z" />
<glyph unicode="&#xd9;" horiz-adv-x="907" d="M119 135q0 25 6 51l217 1022q12 61 14 162l217 -2l-235 -1102q-4 -23 -4 -41q0 -106 86 -106h141q53 0 96 47q37 43 48 100l200 942q4 53 17 160l217 2l-252 -1184q-16 -72 -64 -125q-53 -61 -121 -61h-473q-111 0 -110 135zM629 1516h141l102 -113h-63z" />
<glyph unicode="&#xda;" horiz-adv-x="907" d="M119 135q0 25 6 51l217 1022q12 61 14 162l217 -2l-235 -1102q-4 -23 -4 -41q0 -106 86 -106h141q53 0 96 47q37 43 48 100l200 942q4 53 17 160l217 2l-252 -1184q-16 -72 -64 -125q-53 -61 -121 -61h-473q-111 0 -110 135zM635 1403l149 113h144l-230 -113h-63z" />
<glyph unicode="&#xdb;" horiz-adv-x="907" d="M119 135q0 25 6 51l217 1022q12 61 14 162l217 -2l-235 -1102q-4 -23 -4 -41q0 -106 86 -106h141q53 0 96 47q37 43 48 100l200 942q4 53 17 160l217 2l-252 -1184q-16 -72 -64 -125q-53 -61 -121 -61h-473q-111 0 -110 135zM592 1403l94 113h195l47 -113h-64l-86 88 l-125 -88h-61z" />
<glyph unicode="&#xdc;" horiz-adv-x="907" d="M119 135q0 25 6 51l217 1022q12 61 14 162l217 -2l-235 -1102q-4 -23 -4 -41q0 -106 86 -106h141q53 0 96 47q37 43 48 100l200 942q4 53 17 160l217 2l-252 -1184q-16 -72 -64 -125q-53 -61 -121 -61h-473q-111 0 -110 135zM610 1450q0 31 23.5 57.5t56.5 26.5 q53 0 53 -53q0 -33 -24 -58.5t-57 -25.5q-51 0 -52 53zM821 1450q0 31 24.5 57.5t57.5 26.5q51 0 51 -55q0 -31 -24.5 -56.5t-57.5 -25.5q-51 0 -51 53z" />
<glyph unicode="&#xdd;" horiz-adv-x="1112" />
<glyph unicode="&#xde;" />
<glyph unicode="&#xdf;" horiz-adv-x="684" d="M35 -2l217 1022q33 154 154.5 254t277.5 100q283 0 283 -217q0 -111 -49 -215q-53 -121 -146 -160q12 2 16 2q68 0 101 -90q25 -68 24 -147q0 -63 -16 -139q-91 -410 -535 -410l25 108q137 0 205 82q51 63 84 211q18 90 18 148q0 141 -102 141q-51 0 -109 -37l31 144 q197 -2 250 268q6 25 6 49q0 55 -26.5 101.5t-77.5 46.5q-160 0 -201 -199l-227 -1063h-203z" />
<glyph unicode="&#xe0;" horiz-adv-x="702" d="M80 152q0 158 53 239q125 195 442 195q20 61 19.5 71.5t-0.5 18.5q0 68 -90 67h-98q-45 0 -101 -22l4 123h326q160 0 160 -139q0 -25 -7 -54q-37 -170 -110 -512q-12 -63 -8 -139h-219l14 68q-61 -68 -232 -68q-66 0 -109.5 43t-43.5 109zM287 168q0 -72 78 -72 q49 0 84.5 33t46.5 82l59 274q-82 0 -149 -41q-72 -47 -89 -122q-31 -143 -30 -154zM444 1004h144l102 -113h-63z" />
<glyph unicode="&#xe1;" horiz-adv-x="702" d="M80 152q0 158 53 239q125 195 442 195q20 61 19.5 71.5t-0.5 18.5q0 68 -90 67h-98q-45 0 -101 -22l4 123h326q160 0 160 -139q0 -25 -7 -54q-37 -170 -110 -512q-12 -63 -8 -139h-219l14 68q-61 -68 -232 -68q-66 0 -109.5 43t-43.5 109zM287 168q0 -72 78 -72 q49 0 84.5 33t46.5 82l59 274q-82 0 -149 -41q-72 -47 -89 -122q-31 -143 -30 -154zM508 891l149 113h144l-230 -113h-63z" />
<glyph unicode="&#xe2;" horiz-adv-x="702" d="M80 152q0 158 53 239q125 195 442 195q20 61 19.5 71.5t-0.5 18.5q0 68 -90 67h-98q-45 0 -101 -22l4 123h326q160 0 160 -139q0 -25 -7 -54q-37 -170 -110 -512q-12 -63 -8 -139h-219l14 68q-61 -68 -232 -68q-66 0 -109.5 43t-43.5 109zM287 168q0 -72 78 -72 q49 0 84.5 33t46.5 82l59 274q-82 0 -149 -41q-72 -47 -89 -122q-31 -143 -30 -154zM426 891l96 113h195l47 -113h-64l-86 88l-125 -88h-63z" />
<glyph unicode="&#xe3;" horiz-adv-x="702" d="M80 152q0 158 53 239q125 195 442 195q20 61 19.5 71.5t-0.5 18.5q0 68 -90 67h-98q-45 0 -101 -22l4 123h326q160 0 160 -139q0 -25 -7 -54q-37 -170 -110 -512q-12 -63 -8 -139h-219l14 68q-61 -68 -232 -68q-66 0 -109.5 43t-43.5 109zM287 168q0 -72 78 -72 q49 0 84.5 33t46.5 82l59 274q-82 0 -149 -41q-72 -47 -89 -122q-31 -143 -30 -154zM401 891q31 127 142 127q41 0 97 -34t83 -34q45 0 72 68h18q-27 -129 -141 -129q-41 0 -98.5 34.5t-81.5 34.5q-41 0 -70 -67h-21z" />
<glyph unicode="&#xe4;" horiz-adv-x="702" d="M80 152q0 158 53 239q125 195 442 195q20 61 19.5 71.5t-0.5 18.5q0 68 -90 67h-98q-45 0 -101 -22l4 123h326q160 0 160 -139q0 -25 -7 -54q-37 -170 -110 -512q-12 -63 -8 -139h-219l14 68q-61 -68 -232 -68q-66 0 -109.5 43t-43.5 109zM287 168q0 -72 78 -72 q49 0 84.5 33t46.5 82l59 274q-82 0 -149 -41q-72 -47 -89 -122q-31 -143 -30 -154zM444 938q0 31 25 57.5t57 26.5q53 0 54 -53q0 -33 -24.5 -58.5t-57.5 -25.5q-53 0 -54 53zM655 938q0 31 26 57.5t56 26.5q53 0 54 -55q0 -31 -24.5 -56.5t-57.5 -25.5q-53 0 -54 53z" />
<glyph unicode="&#xe5;" horiz-adv-x="702" d="M80 152q0 158 53 239q125 195 442 195q20 61 19.5 71.5t-0.5 18.5q0 68 -90 67h-98q-45 0 -101 -22l4 123h326q160 0 160 -139q0 -25 -7 -54q-37 -170 -110 -512q-12 -63 -8 -139h-219l14 68q-61 -68 -232 -68q-66 0 -109.5 43t-43.5 109zM287 168q0 -72 78 -72 q49 0 84.5 33t46.5 82l59 274q-82 0 -149 -41q-72 -47 -89 -122q-31 -143 -30 -154zM492 909q0 49 40.5 84t90.5 35q37 0 63.5 -21.5t26.5 -56.5q0 -49 -41 -84t-90 -35q-37 0 -63.5 21.5t-26.5 56.5zM532 918q0 -51 58 -52q31 0 56.5 22.5t25.5 53.5q0 51 -56 51 q-33 0 -58.5 -22.5t-25.5 -52.5z" />
<glyph unicode="&#xe6;" horiz-adv-x="1071" d="M53 152q0 158 51 239q125 195 445 195q18 61 18 72.5v19.5q0 66 -129 65q-102 0 -159 -22l4 123h323q74 0 115 -33q66 39 209 39q59 0 80 -4q152 -18 151 -219q1 -78 -24 -187h-420q-29 -160 -29 -231q0 -141 150 -141q27 0 157 16l-2 -84h-278q-129 0 -195 119 q-66 -119 -323 -119q-59 0 -101.5 45t-42.5 107zM260 168q0 -72 78 -72q49 0 85 33t46 82l59 274q-82 0 -149 -41q-72 -47 -88 -122q-31 -143 -31 -154zM741 551h215q18 86 19 113q0 104 -82 104q-104 0 -152 -217z" />
<glyph unicode="&#xe7;" horiz-adv-x="671" d="M127 231q0 92 25 207q82 385 317 408q27 2 86 2q152 0 219 -64l-123 -67q-29 49 -129 49q-86 0 -127 -135q-78 -256 -78 -404q0 -168 152 -168q-6 0 156 23l-2 -84h-334q-162 0 -162 233zM168 -383l8 43q29 -4 43 -4q47 0 90 40t43 87q0 57 -61 57q-8 0 -21 -2l140 178 h53l-62 -79q86 -23 86 -109q0 -88 -73.5 -152.5t-163.5 -64.5q-35 0 -82 6z" />
<glyph unicode="&#xe8;" horiz-adv-x="686" d="M109 233q0 82 26 207q84 383 318 406q29 4 98 4q51 0 74 -4q152 -16 151 -219q1 -81 -24 -187h-420q-29 -160 -29 -227q0 -145 150 -145q29 0 157 16l-2 -84h-280q-98 0 -158.5 65.5t-60.5 167.5zM356 551h215q18 86 19 113q0 104 -82 104q-104 0 -152 -217zM389 1004 h143l103 -113h-64z" />
<glyph unicode="&#xe9;" horiz-adv-x="686" d="M109 233q0 82 26 207q84 383 318 406q29 4 98 4q51 0 74 -4q152 -16 151 -219q1 -81 -24 -187h-420q-29 -160 -29 -227q0 -145 150 -145q29 0 157 16l-2 -84h-280q-98 0 -158.5 65.5t-60.5 167.5zM356 551h215q18 86 19 113q0 104 -82 104q-104 0 -152 -217zM489 891 l150 113h143l-229 -113h-64z" />
<glyph unicode="&#xea;" horiz-adv-x="686" d="M109 233q0 82 26 207q84 383 318 406q29 4 98 4q51 0 74 -4q152 -16 151 -219q1 -81 -24 -187h-420q-29 -160 -29 -227q0 -145 150 -145q29 0 157 16l-2 -84h-280q-98 0 -158.5 65.5t-60.5 167.5zM356 551h215q18 86 19 113q0 104 -82 104q-104 0 -152 -217zM389 891 l96 113h195l47 -113h-63l-86 88l-125 -88h-64z" />
<glyph unicode="&#xeb;" horiz-adv-x="686" d="M109 233q0 82 26 207q84 383 318 406q29 4 98 4q51 0 74 -4q152 -16 151 -219q1 -81 -24 -187h-420q-29 -160 -29 -227q0 -145 150 -145q29 0 157 16l-2 -84h-280q-98 0 -158.5 65.5t-60.5 167.5zM356 551h215q18 86 19 113q0 104 -82 104q-104 0 -152 -217zM389 938 q0 31 24.5 57.5t57.5 26.5q53 0 53 -53q0 -33 -24.5 -58.5t-57.5 -25.5q-53 0 -53 53zM600 938q0 31 25.5 57.5t56.5 26.5q53 0 53 -55q0 -31 -24.5 -56.5t-57.5 -25.5q-53 0 -53 53z" />
<glyph unicode="&#xec;" horiz-adv-x="313" d="M90 0l158 737q4 25 4 58q0 23 -2 49h223l-178 -844h-205zM223 1004h144l102 -113h-63z" />
<glyph unicode="&#xed;" horiz-adv-x="313" d="M90 0l158 737q4 25 4 58q0 23 -2 49h223l-178 -844h-205zM268 891l150 113h143l-229 -113h-64z" />
<glyph unicode="&#xee;" horiz-adv-x="313" d="M90 0l158 737q4 25 4 58q0 23 -2 49h223l-178 -844h-205zM205 891l96 113h195l47 -113h-64l-86 88l-125 -88h-63z" />
<glyph unicode="&#xef;" horiz-adv-x="313" d="M90 0l158 737q4 25 4 58q0 23 -2 49h223l-178 -844h-205zM205 938q0 31 24.5 57.5t57.5 26.5q53 0 53 -53q0 -33 -24.5 -58.5t-57.5 -25.5q-53 0 -53 53zM416 938q0 31 25.5 57.5t56.5 26.5q53 0 53 -55q0 -31 -24.5 -56.5t-57.5 -25.5q-53 0 -53 53z" />
<glyph unicode="&#xf0;" />
<glyph unicode="&#xf1;" horiz-adv-x="647" d="M70 0l157 739q6 25 6 58q0 23 -4 49h217l-10 -84q88 92 217 92q158 0 158 -113q0 -18 -6 -43l-148 -698h-198l133 623q2 14 2 26q0 78 -78 78q-86 0 -108 -104l-134 -623h-204zM383 891q31 127 141 127q41 0 97.5 -34t83.5 -34q45 0 71 68h19q-27 -129 -142 -129 q-41 0 -98 34.5t-82 34.5q-41 0 -70 -67h-20z" />
<glyph unicode="&#xf2;" horiz-adv-x="694" d="M121 174q0 96 39 275q41 190 82 260q53 86 127 118q61 29 170 29q102 0 151 -25q70 -33 88 -122q2 -14 2 -37q0 -100 -37 -269q-41 -176 -86 -258q-55 -102 -129 -133q-51 -20 -184 -20q-115 0 -162 33q-61 41 -61 149zM305 209q0 -111 84 -111q100 0 166 322l8 41 q23 107 23 166q0 115 -72 114q-109 0 -168 -278q-41 -188 -41 -254zM371 1004h143l102 -113h-63z" />
<glyph unicode="&#xf3;" horiz-adv-x="694" d="M121 174q0 96 39 275q41 190 82 260q53 86 127 118q61 29 170 29q102 0 151 -25q70 -33 88 -122q2 -14 2 -37q0 -100 -37 -269q-41 -176 -86 -258q-55 -102 -129 -133q-51 -20 -184 -20q-115 0 -162 33q-61 41 -61 149zM305 209q0 -111 84 -111q100 0 166 322l8 41 q23 107 23 166q0 115 -72 114q-109 0 -168 -278q-41 -188 -41 -254zM471 891l150 113h143l-229 -113h-64z" />
<glyph unicode="&#xf4;" horiz-adv-x="694" d="M121 174q0 96 39 275q41 190 82 260q53 86 127 118q61 29 170 29q102 0 151 -25q70 -33 88 -122q2 -14 2 -37q0 -100 -37 -269q-41 -176 -86 -258q-55 -102 -129 -133q-51 -20 -184 -20q-115 0 -162 33q-61 41 -61 149zM305 209q0 -111 84 -111q100 0 166 322l8 41 q23 107 23 166q0 115 -72 114q-109 0 -168 -278q-41 -188 -41 -254zM389 891l96 113h195l47 -113h-63l-86 88l-125 -88h-64z" />
<glyph unicode="&#xf5;" horiz-adv-x="694" d="M121 174q0 96 39 275q41 190 82 260q53 86 127 118q61 29 170 29q102 0 151 -25q70 -33 88 -122q2 -14 2 -37q0 -100 -37 -269q-41 -176 -86 -258q-55 -102 -129 -133q-51 -20 -184 -20q-115 0 -162 33q-61 41 -61 149zM305 209q0 -111 84 -111q100 0 166 322l8 41 q23 107 23 166q0 115 -72 114q-109 0 -168 -278q-41 -188 -41 -254zM365 891q31 127 141 127q41 0 97 -34t83 -34q45 0 72 68h18q-27 -129 -141 -129q-41 0 -98.5 34.5t-81.5 34.5q-41 0 -70 -67h-20z" />
<glyph unicode="&#xf6;" horiz-adv-x="694" d="M121 174q0 96 39 275q41 190 82 260q53 86 127 118q61 29 170 29q102 0 151 -25q70 -33 88 -122q2 -14 2 -37q0 -100 -37 -269q-41 -176 -86 -258q-55 -102 -129 -133q-51 -20 -184 -20q-115 0 -162 33q-61 41 -61 149zM305 209q0 -111 84 -111q100 0 166 322l8 41 q23 107 23 166q0 115 -72 114q-109 0 -168 -278q-41 -188 -41 -254zM408 938q0 31 24.5 57.5t56.5 26.5q53 0 54 -53q0 -33 -24.5 -58.5t-57.5 -25.5q-53 0 -53 53zM618 938q0 31 26 57.5t56 26.5q53 0 54 -55q0 -31 -24.5 -56.5t-57.5 -25.5q-53 0 -54 53z" />
<glyph unicode="&#xf8;" horiz-adv-x="694" d="M23 6q51 45 75 80l602 760h109q-57 -53 -82 -84l-596 -756h-108zM111 174q0 96 39 275q41 190 81 260q51 86 125 118q63 29 172 29q102 0 152 -25q70 -33 88 -122q2 -14 2 -37q0 -100 -39 -269q-39 -176 -84 -258q-55 -102 -129 -133q-51 -20 -184 -20q-115 0 -164 33 q-59 41 -59 149zM295 209q0 -111 84 -111q100 0 166 322l8 41q22 107 22 166q0 115 -71 114q-109 0 -168 -278q-41 -188 -41 -254z" />
<glyph unicode="&#xf9;" horiz-adv-x="649" d="M109 109q0 18 4 41l125 589q6 23 6 56q0 25 -4 49h30h189l-133 -625q-2 -12 -2 -24q0 -80 75 -80q88 0 111 104l133 625h203l-158 -742q-4 -23 -4 -53q0 -24 2 -49l-215 2l8 80q-86 -92 -221 -92q-150 0 -149 119zM389 1004h143l103 -113h-64z" />
<glyph unicode="&#xfa;" horiz-adv-x="649" d="M109 109q0 18 4 41l125 589q6 23 6 56q0 25 -4 49h30h189l-133 -625q-2 -12 -2 -24q0 -80 75 -80q88 0 111 104l133 625h203l-158 -742q-4 -23 -4 -53q0 -24 2 -49l-215 2l8 80q-86 -92 -221 -92q-150 0 -149 119zM508 891l149 113h144l-230 -113h-63z" />
<glyph unicode="&#xfb;" horiz-adv-x="649" d="M109 109q0 18 4 41l125 589q6 23 6 56q0 25 -4 49h30h189l-133 -625q-2 -12 -2 -24q0 -80 75 -80q88 0 111 104l133 625h203l-158 -742q-4 -23 -4 -53q0 -24 2 -49l-215 2l8 80q-86 -92 -221 -92q-150 0 -149 119zM389 891l96 113h195l47 -113h-63l-86 88l-125 -88h-64z " />
<glyph unicode="&#xfc;" horiz-adv-x="649" d="M109 109q0 18 4 41l125 589q6 23 6 56q0 25 -4 49h30h189l-133 -625q-2 -12 -2 -24q0 -80 75 -80q88 0 111 104l133 625h203l-158 -742q-4 -23 -4 -53q0 -24 2 -49l-215 2l8 80q-86 -92 -221 -92q-150 0 -149 119zM408 938q0 31 24.5 57.5t56.5 26.5q53 0 54 -53 q0 -33 -24.5 -58.5t-57.5 -25.5q-53 0 -53 53zM618 938q0 31 26 57.5t56 26.5q53 0 54 -55q0 -31 -24.5 -56.5t-57.5 -25.5q-53 0 -54 53z" />
<glyph unicode="&#xfe;" />
<glyph unicode="&#xff;" horiz-adv-x="655" />
<glyph unicode="&#x152;" horiz-adv-x="1208" d="M133 283q0 160 47 387q72 338 146.5 468t169 182t249.5 52h-2h711l-35 -158q-49 23 -102 23h-178q-31 -129 -82 -391h227l-35 -158q-47 23 -221 23l-123 -574h178q53 0 113 21l-35 -158h-717q-170 0 -235 55q-76 59 -76 228zM360 276q0 -86 41 -114q31 -20 117 -21 q92 0 141 64q31 37 70 143q43 115 90 340q51 238 51 344q0 207 -139 203h-14q-100 -2 -154 -68q-31 -39 -74 -157q-129 -348 -129 -734z" />
<glyph unicode="&#x153;" horiz-adv-x="1107" d="M113 174q0 98 39 275q41 188 81 260q51 86 125 118q63 29 172 29q150 0 201 -61q74 55 232 55q57 0 79 -4q152 -16 152 -219q0 -78 -25 -187h-419q-29 -160 -29 -229q0 -143 149 -143q27 0 158 16l-2 -84h-281q-96 0 -155 61q-68 -70 -215 -69q-139 0 -187 22 q-76 37 -75 160zM297 209q0 -111 84 -111q100 0 166 322l8 41q23 107 23 166q0 115 -72 114q-109 0 -168 -278q-41 -188 -41 -254zM774 551h215q18 86 19 113q0 104 -82 104q-104 0 -152 -217z" />
<glyph unicode="&#x178;" horiz-adv-x="704" />
<glyph unicode="&#x2c6;" horiz-adv-x="915" d="M610 1403l95 113h194l47 -113h-63l-86 88l-125 -88h-62z" />
<glyph unicode="&#x2dc;" horiz-adv-x="1026" d="M586 1403q29 127 139 127q41 0 98.5 -34t81.5 -34q45 0 72 68h18q-27 -129 -141 -129q-41 0 -98.5 34.5t-81.5 34.5q-41 0 -70 -67h-18z" />
<glyph unicode="&#x2000;" horiz-adv-x="770" />
<glyph unicode="&#x2001;" horiz-adv-x="1540" />
<glyph unicode="&#x2002;" horiz-adv-x="770" />
<glyph unicode="&#x2003;" horiz-adv-x="1540" />
<glyph unicode="&#x2004;" horiz-adv-x="513" />
<glyph unicode="&#x2005;" horiz-adv-x="385" />
<glyph unicode="&#x2006;" horiz-adv-x="256" />
<glyph unicode="&#x2007;" horiz-adv-x="256" />
<glyph unicode="&#x2008;" horiz-adv-x="192" />
<glyph unicode="&#x2009;" horiz-adv-x="308" />
<glyph unicode="&#x200a;" horiz-adv-x="85" />
<glyph unicode="&#x2010;" horiz-adv-x="612" d="M193 573l32 158h504l-29 -135h-397q-53 0 -110 -23z" />
<glyph unicode="&#x2011;" horiz-adv-x="612" d="M193 573l32 158h504l-29 -135h-397q-53 0 -110 -23z" />
<glyph unicode="&#x2012;" horiz-adv-x="612" d="M193 573l32 158h504l-29 -135h-397q-53 0 -110 -23z" />
<glyph unicode="&#x2013;" horiz-adv-x="444" d="M188 573l33 156h307l-26 -133h-244q-33 0 -70 -23z" />
<glyph unicode="&#x2014;" horiz-adv-x="653" d="M193 573l32 158h504l-29 -135h-397q-53 0 -110 -23z" />
<glyph unicode="&#x2018;" horiz-adv-x="376" d="M305 1137q0 74 77 178t148 104l19 -51q-78 -35 -90 -88q90 -6 90 -94q0 -55 -45.5 -99.5t-102.5 -44.5q-41 0 -68.5 27t-27.5 68z" />
<glyph unicode="&#x2019;" horiz-adv-x="372" d="M324 1278q0 55 46 99t101 44q41 0 69.5 -26.5t28.5 -67.5q0 -74 -75 -176q-78 -109 -150 -109l-18 52q76 37 88 90q-90 4 -90 94z" />
<glyph unicode="&#x201c;" horiz-adv-x="694" d="M309 1137q0 74 76 178t147 104l19 -51q-76 -35 -88 -88q90 -6 90 -94q0 -55 -45 -99.5t-102 -44.5q-41 0 -69 27t-28 68zM602 1137q0 74 76 178t147 104l19 -51q-76 -35 -88 -88q90 -6 90 -94q0 -55 -45.5 -99.5t-102.5 -44.5q-41 0 -68.5 27t-27.5 68z" />
<glyph unicode="&#x201d;" horiz-adv-x="704" d="M371 1278q0 55 45 99t102 44q41 0 68.5 -26.5t27.5 -67.5q0 -74 -73 -176q-80 -109 -150 -109l-18 52q76 37 88 90q-90 4 -90 94zM655 1278q0 55 45 99t103 44q41 0 68.5 -26.5t27.5 -67.5q0 -74 -74 -176q-77 -109 -149 -109l-19 52q76 37 88 90q-90 4 -90 94z" />
<glyph unicode="&#x2026;" horiz-adv-x="966" d="M102 137q0 55 46.5 99.5t101.5 44.5q41 0 69.5 -27t28.5 -68q0 -55 -46 -99t-101 -44q-43 0 -71 26.5t-28 67.5zM412 137q0 55 45 99.5t102 44.5q41 0 68.5 -27t27.5 -68q0 -55 -45 -99t-102 -44q-41 0 -68.5 26.5t-27.5 67.5zM719 137q0 55 46 99.5t101 44.5 q41 0 70 -27t29 -68q0 -55 -46.5 -99t-101.5 -44q-43 0 -70.5 26.5t-27.5 67.5z" />
<glyph unicode="&#x202f;" horiz-adv-x="308" />
<glyph unicode="&#x205f;" horiz-adv-x="385" />
<glyph unicode="&#xe000;" horiz-adv-x="839" d="M0 0v840h840v-840h-840z" />
</font>
</defs>
</svg>
