<?xml version="1.0" standalone="no"?>
<!DOCTYPE svg PUBLIC "-//W3C//DTD SVG 1.1//EN" "http://www.w3.org/Graphics/SVG/1.1/DTD/svg11.dtd" >
<svg xmlns="http://www.w3.org/2000/svg">
<metadata></metadata>
<defs>
<font id="1-prolook_cityboldregular" horiz-adv-x="0" >
<font-face units-per-em="2048" ascent="1638" descent="-410" />
<missing-glyph horiz-adv-x="647" />
<glyph horiz-adv-x="2048" />
<glyph horiz-adv-x="2048" />
<glyph unicode="&#xd;" horiz-adv-x="2048" />
<glyph unicode=" "  horiz-adv-x="647" />
<glyph unicode="&#x09;" horiz-adv-x="647" />
<glyph unicode="&#xa0;" horiz-adv-x="647" />
<glyph unicode="!" horiz-adv-x="364" d="M20 129q0 57 35 103.5t101 58.5v2h20q63 -2 100 -48t39 -102v-3v-3q0 -10 -1 -19t-3 -20q-8 -27 -24.5 -52.5t-42.5 -43.5q-8 -2 -18.5 -3t-20.5 -1q-6 -2 -12.5 -2h-12.5h-11t-9 2q-49 2 -91 35t-44 86zM51 416v940h242v-940h-242z" />
<glyph unicode="&#x22;" horiz-adv-x="745" d="M16 915l185 445h168l-189 -445h-164zM344 911l184 437h164l-184 -437h-164z" />
<glyph unicode="#" horiz-adv-x="1085" d="M20 369l39 155h181l63 269h-199l31 155h209l88 383h184l-92 -383h181l83 383h189l-92 -383h155l-36 -155h-156l-68 -269h168l-37 -155h-172l-92 -365h-182l102 365h-180l-98 -365h-176l96 365h-189zM416 520h180l63 268h-176z" />
<glyph unicode="$" horiz-adv-x="1081" d="M16 803v356q20 76 80 128t135 67l261 2v133h79v-133h437v-408h-328v148h-113v-287h285q76 -27 128 -88.5t52 -138.5v-322v-6v-4q-6 -80 -48 -150.5t-124 -97.5l-301 2v-135h-72v135h-454v399h340v-139h114v307h-264q-82 14 -139 79t-68 153zM373 809h114v278h-114v-278z M567 252h113v323h-113v-323z" />
<glyph unicode="%" horiz-adv-x="1781" d="M20 662v526q4 37 25 67.5t51 55.5q4 2 8.5 3t8.5 3q12 6 24.5 10t26.5 6v2l424 -4q57 -16 99 -57t48 -105v-452q0 -68 -35.5 -119t-99.5 -72l-465 2q-45 18 -73.5 50t-41.5 84zM299 739h150v369h-150v-369zM532 0l564 1352h116l-565 -1352h-115zM1012 111v536 q10 53 42.5 89t82.5 55v2h454q12 -4 22.5 -8.5t18.5 -10.5q6 -4 11.5 -6t9.5 -6t7 -9t7 -12q4 -6 9 -14t12 -14q8 -14 15 -26.5t13 -24.5v-541q-8 -41 -30.5 -74t-57.5 -45l-508 2q-18 2 -35.5 12.5t-31.5 22.5q-12 16 -23.5 34.5t-17.5 37.5zM1292 197h152v366h-152v-366z " />
<glyph unicode="&#x26;" horiz-adv-x="1253" d="M20 383q0 6 2.5 17.5t6.5 21.5q4 6 6 12t6 12l266 259l-160 176l-8 26v361q0 14 4 28.5t13 24.5q12 10 27.5 18.5t29.5 14.5v2h530q29 -10 45.5 -25.5t26.5 -32.5v-346q0 -16 -3 -31.5t-7 -25.5l-141 -143l137 -136l172 160l139 -151l-164 -164l256 -268l-196 -189 l-252 256h-17l-264 -248q-10 -4 -21.5 -6t-23.5 -2q-8 -2 -15 -2h-16q-6 0 -12 1t-12 1h-3h-3q-4 2 -10.5 2h-10.5q-84 78 -163 159t-152 169q0 4 -2 8t-2 8q-4 8 -6.5 16.5t-2.5 16.5zM324 420l147 -135l125 123l-127 155zM416 1004l100 -107l88 90v176h-188v-159z" />
<glyph unicode="'" horiz-adv-x="405" d="M16 915l168 441h168l-184 -441h-152z" />
<glyph unicode="(" horiz-adv-x="552" d="M8 473q0 35 2 71t4 70q2 29 5.5 55.5t5.5 53.5l4 70l39 206q47 121 134 206t210 132q23 4 43 6.5t37 2.5v2v-308q-72 -35 -102 -95t-46 -132q0 -27 -2 -55.5t-2 -57.5q-2 -8 -2 -16v-16q-2 -47 -4 -95.5t-2 -95.5q0 -45 2 -91t4 -93v-17.5t2 -19.5q0 -29 2 -56.5t2 -54.5 q0 -4 1 -7t1 -7q10 -59 43 -110.5t98 -63.5v-317q-170 8 -285.5 129.5t-158.5 271.5q-14 109 -24.5 217.5t-10.5 214.5z" />
<glyph unicode=")" horiz-adv-x="552" d="M20 1038v310q162 -10 285 -137.5t156 -280.5q6 -47 12 -94.5t10 -94.5q6 -72 9.5 -143.5t3.5 -138.5q0 -37 -1 -76t-3 -76q-4 -39 -6.5 -78t-6.5 -75v-4.5v-4.5q-20 -164 -120.5 -308t-274.5 -185q-4 0 -9 -1t-12 -1h-1h-1q-6 0 -11 -1t-9 -1h-12v309q72 27 106.5 92.5 t36.5 140.5q2 33 3 67t3 69q0 33 1 66.5t1 66.5q0 43 -1 88t-3 90q-4 55 -7 111.5t-9 109.5q-12 59 -49 107.5t-91 72.5z" />
<glyph unicode="*" horiz-adv-x="849" d="M8 977l76 215l256 -143l-59 303h235l-55 -303l256 135l84 -207l-305 -37l231 -215l-190 -133l-138 256l-127 -256l-196 129l231 219z" />
<glyph unicode="+" horiz-adv-x="1060" d="M25 475v189h391v469h205v-469h387v-189h-387v-424h-205v424h-391z" />
<glyph unicode="," horiz-adv-x="448" d="M4 -188l215 469h168l-215 -469h-168z" />
<glyph unicode="-" horiz-adv-x="552" d="M4 336v217h496v-217h-496z" />
<glyph unicode="." horiz-adv-x="360" d="M16 145l4 15q4 51 45 88t95 43v2q68 -2 104.5 -49t38.5 -105v-3v-3v-9t-2 -9q-4 -35 -23.5 -66t-58.5 -47q-6 -2 -14 -3t-17 -1q-4 -2 -10 -2h-10q-59 0 -105.5 45t-46.5 104z" />
<glyph unicode="/" horiz-adv-x="661" d="M16 4l463 1348h121l-475 -1348h-109z" />
<glyph unicode="0" horiz-adv-x="1017" d="M8 203v956q16 68 70.5 125t126.5 70v2h555q82 -16 131 -63.5t82 -123.5v-909q-2 -16 -4 -31.5t-6 -31.5q-16 -74 -64.5 -134.5t-130.5 -60.5l-549 2q-82 8 -133 65.5t-78 133.5zM391 281h209v790h-209v-790z" />
<glyph unicode="1" horiz-adv-x="784" d="M12 1120l264 236h375v-1071h88v-281h-563v281h92v743h-16l-121 -104z" />
<glyph unicode="2" horiz-adv-x="1040" d="M12 4v172q162 127 314.5 270.5t289.5 298.5v342h-225v-256h-350v324q16 100 80.5 145.5t167.5 57.5v2l487 -4q102 -14 151.5 -87t59.5 -167v-434l-412 -379h416v-285h-979z" />
<glyph unicode="3" horiz-adv-x="1040" d="M4 186v258h365v-163h219v311l-219 4v164l243 323h-252v-139h-319v412h942v-219l-203 -301q78 -2 123 -55.5t58 -118.5v-414q-6 -96 -62.5 -158.5t-146.5 -87.5l-551 2q-72 16 -123 63.5t-74 118.5z" />
<glyph unicode="4" horiz-adv-x="1085" d="M25 432v307l475 617h389v-676h139v-248h-131v-151h84v-277h-520v277h76v151h-512zM289 680h248v324z" />
<glyph unicode="5" horiz-adv-x="1017" d="M16 633v727h916v-268h-547v-152l358 -4q76 -10 141.5 -63.5t80.5 -131.5v-532q-8 -84 -65.5 -142.5t-139.5 -64.5l-508 2q-84 -2 -145.5 55.5t-81.5 135.5q0 4 -1 8t-1 10q0 4 -1.5 8t-1.5 8v242h367v-186h213v348h-584z" />
<glyph unicode="6" horiz-adv-x="1017" d="M0 1114q0 92 68.5 165t162.5 79v2l496 -4q78 -10 141.5 -65.5t75.5 -133.5v-217h-344v139h-213v-248h369q72 -10 131 -61t78 -121v-452q-12 -80 -74 -135.5t-143 -59.5l-560 2q-70 16 -115.5 72.5t-68.5 122.5v888q0 2 -1 5.5t-1 7.5t-1 8t-1 6zM391 281h209v272h-209 v-272z" />
<glyph unicode="7" horiz-adv-x="1085" d="M25 911v449h999v-193l-395 -1163h-406l406 1075h-256v-168h-348z" />
<glyph unicode="8" horiz-adv-x="1017" d="M4 895v225q0 96 62.5 157.5t156.5 76.5v2h533q78 -10 132 -61.5t73 -129.5v-254q-4 -37 -14.5 -66.5t-28.5 -60.5q-2 -4 -6.5 -10t-8.5 -12q-20 -14 -41.5 -26.5t-44.5 -22.5q-6 -4 -13 -7.5t-16 -7.5q78 -31 120 -89t61 -136v-268q-18 -78 -74.5 -140.5t-138.5 -62.5 l-541 2q-80 6 -129 65.5t-72 129.5q-2 4 -3 9t-3 9v270q10 70 60.5 126.5t115.5 80.5q-66 27 -115 78t-65 123zM385 827h215v240h-215v-240zM387 276h213v273h-213v-273z" />
<glyph unicode="9" horiz-adv-x="1017" d="M4 758v391q16 96 87 148.5t169 60.5v2l508 -4q78 -16 130 -70.5t71 -132.5v-901q-6 -61 -22.5 -109.5t-61.5 -89.5q-16 -10 -35 -18t-35 -15q-18 -6 -36.5 -10t-35.5 -8l-467 2q-100 2 -159.5 63.5t-79.5 149.5v211h350v-143h213v256h-381q-82 8 -145.5 68.5t-69.5 148.5 zM385 805h215v270h-215v-270z" />
<glyph unicode=":" horiz-adv-x="364" d="M25 133q0 53 36.5 95t90.5 51v2h16q59 -2 97 -47.5t42 -100.5v-5v-5v-7v-7q-4 -31 -18.5 -60t-44.5 -47q-8 -2 -16.5 -4t-16.5 -4q-10 0 -18.5 -1t-16.5 -1q-57 0 -101 39t-50 102zM29 729q0 8 1 17.5t3 17.5q0 10 2 19.5t4 17.5q2 4 3 8t1 8q14 25 42 44.5t56 27.5 q2 0 5.5 1t5.5 1v2h41q51 -12 82.5 -52t37.5 -83q2 -6 2 -11.5v-9.5v-5v-7q-4 -33 -24.5 -62.5t-59.5 -48.5q-8 -4 -18 -7t-20 -7q-6 0 -12.5 -1t-12.5 -1q-51 0 -93 37t-46 94z" />
<glyph unicode=";" horiz-adv-x="573" d="M20 -209l220 485h168l-220 -485h-168zM219 756v6t2 8q6 39 41 74t74 41q4 2 8 2h8v2q70 -2 115 -48t45 -104q0 -10 -2 -21t-6 -22q-2 -10 -6 -19t-11 -18q-12 -20 -32.5 -34.5t-40.5 -22.5q-12 -2 -21.5 -4t-19.5 -2q-39 0 -75 21.5t-58 54.5q-2 8 -5.5 15t-5.5 15 q-2 12 -4 23.5t-2 21.5z" />
<glyph unicode="&#x3c;" horiz-adv-x="532" d="M4 453l223 335h248l-215 -335l215 -328h-248z" />
<glyph unicode="=" horiz-adv-x="788" d="M4 365v122h735v-122h-735zM4 668v137h735v-137h-735z" />
<glyph unicode="&#x3e;" horiz-adv-x="532" d="M4 125l223 324l-223 339h252l219 -339l-215 -324h-256z" />
<glyph unicode="?" horiz-adv-x="788" d="M25 1032v228q12 33 37.5 58t62.5 32v2h496q45 -14 71.5 -44t34.5 -77v-492q-4 -55 -31.5 -95t-79.5 -50l-208 2v-184h-244v448h244v285h-152v-113h-231zM135 154q0 2 1 5t1 5v3v3q2 2 2 4v4q10 43 47 72t78 35q6 2 11.5 2h9.5l22 2q57 -10 88 -51t33 -91v-2v-4 q0 -10 -1 -20t-5 -23q-6 -23 -19.5 -45t-33.5 -39q-8 -4 -17.5 -7t-19.5 -5t-21.5 -2h-21.5q-59 0 -106.5 44t-47.5 110z" />
<glyph unicode="@" horiz-adv-x="1169" d="M12 598q0 14 1 29.5t1 31.5q16 244 160.5 451t396.5 231v2h54q10 -2 19 -2t18 -2q137 -10 257.5 -94t159.5 -219q8 -37 15.5 -79t11.5 -87q0 -18 1 -35.5t1 -33.5t-1 -32t-1 -30q-10 -133 -65.5 -254t-176.5 -180q-6 -2 -11 -4t-11 -4q-16 -6 -31.5 -9.5t-30.5 -3.5 q-66 0 -108.5 51.5t-46.5 129.5q-2 -27 -13.5 -53.5t-27.5 -51.5q-20 -27 -50 -48t-63 -28h-7h-7q-8 0 -16.5 1t-18.5 6q-8 2 -17.5 6t-17.5 10q-53 41 -73.5 102.5t-20.5 126.5q0 14 1 30.5t3 33.5q2 20 4 39.5t6 38.5q0 8 2 14t2 12q6 25 13.5 52.5t17.5 56.5 q25 76 69 144.5t117 94.5q4 0 9.5 1t11.5 1q4 0 9 1.5t9 1.5t8.5 -1.5t8.5 -1.5t9 -1t7 -1q35 -8 59.5 -33.5t36.5 -58.5l21 74h114q-8 -49 -17 -98t-17 -97q-18 -98 -36 -195t-34 -196v-4v-4q-2 -2 -2 -4v-4q0 -33 20.5 -58.5t51.5 -25.5q4 0 10 1t14 5q6 2 12.5 5t10.5 5 q82 63 124 162.5t52 206.5q2 23 3 43t1 41q0 16 -1 32.5t-1 32.5q-2 33 -7 66t-11 59q-39 121 -144.5 203t-238.5 82l-25 2q-205 -29 -313.5 -193.5t-130.5 -359.5q-4 -29 -6.5 -58.5t-2.5 -58.5v-18t2 -18q0 -16 2.5 -32t4.5 -30q0 -12 2 -23.5t2 -23.5q2 -16 5 -31.5 t5 -29.5q33 -141 130 -260t253 -125q131 0 244.5 75.5t207.5 165.5q18 18 37 36.5t37 37.5q2 -4 3 -10t1 -15v-8v-8q0 -10 -2 -22.5t-6 -24.5q-86 -135 -219 -214t-285 -79q-23 0 -46 2t-46 6q-25 4 -48.5 9.5t-45.5 13.5q-186 74 -277.5 244.5t-91.5 365.5zM408 477 q0 -6 1 -12t1 -14v-2v-3q0 -6 1 -12t1 -12q10 -39 27.5 -61.5t56.5 -22.5q27 14 46 39.5t31 52.5q6 10 10.5 20.5t8.5 18.5q23 55 43 120.5t29 133.5q4 23 6 47.5t2 46.5q0 10 -1 20.5t-1 20.5q-2 14 -3 27.5t-3 23.5q-2 6 -6.5 13.5t-6.5 13.5q-4 6 -7 13t-7 14 q-8 6 -17.5 9t-19.5 3v2q-29 -8 -51.5 -31.5t-38.5 -50.5q-4 -8 -8 -16.5t-6 -16.5q-27 -63 -47.5 -130.5t-30.5 -137.5q-6 -29 -8 -58.5t-2 -58.5z" />
<glyph unicode="A" horiz-adv-x="1292" d="M20 4v281h105l186 1071h621l209 -1067h96v-285h-440l-41 332h-236l-45 -332h-455zM545 575h180l-88 549h-12z" />
<glyph unicode="B" horiz-adv-x="1144" d="M8 1083v273l877 -4q111 -10 152.5 -91t47.5 -176q2 -14 2 -29.5v-29.5v-11v-11q0 -12 -1 -23.5t-1 -22.5q0 -16 -1 -31.5t-1 -29.5q-16 -76 -71.5 -131t-134.5 -68q72 -18 127 -63t75 -117l4 -278q-2 -84 -47 -146.5t-121 -91.5l-903 2v277l101 4v794zM483 272h222v283 h-222v-283zM483 815h217v252h-217v-252z" />
<glyph unicode="C" horiz-adv-x="997" d="M4 266q0 2 1 7.5t1 9.5v1v1q0 4 1 9t1 7v840q23 94 76 145t147 72v2h697v-436h-328v159h-213v-794h213v215h340v-500h-713q-100 4 -161.5 85t-61.5 177z" />
<glyph unicode="D" horiz-adv-x="1124" d="M16 1079v281l865 -4q84 -14 136 -81t58 -145v-937q-8 -78 -62.5 -125.5t-123.5 -65.5l-869 2v277l93 4v794h-97zM492 281h213v790h-213v-790z" />
<glyph unicode="E" horiz-adv-x="1105" d="M16 4v281h93v794h-93v277h1004v-424h-315v147h-218v-252l293 -4v-252h-293v-286h218v180h335v-461h-1024z" />
<glyph unicode="F" horiz-adv-x="1105" d="M25 4v281h96v794h-96v281h1032v-436h-340v151h-217v-264h288v-240l-288 -4v-282h96v-281h-571z" />
<glyph unicode="G" horiz-adv-x="1017" d="M0 1081q0 10 1 19.5t1 17.5q12 86 70.5 158t150.5 78v2h725v-387h-336v106h-225v-790h221v256h-116v282h473v-819h-734q-111 4 -159.5 83t-67.5 175v805l-1 2t-1 4t-1 4t-1 4z" />
<glyph unicode="H" horiz-adv-x="1232" d="M12 4v281h92v794h-92v277h471v-525h209v525h479v-281h-100v-790h100v-281h-479v537h-209v-537h-471z" />
<glyph unicode="I" horiz-adv-x="641" d="M16 1075v281h568v-281h-92v-790h96v-281h-559v277h84v794h-97z" />
<glyph unicode="J" horiz-adv-x="1085" d="M4 258v254h373v-223h164v790h-88v281h571v-281h-104v-891q-8 -68 -64.5 -120t-122.5 -64q-8 0 -15 -1t-13 -1l-500 2q-94 23 -139.5 93.5t-61.5 160.5z" />
<glyph unicode="K" horiz-adv-x="1253" d="M12 4v285h92v794h-92v277h488l4 -572l272 572h377v-281l-137 -4l-168 -299h252v-487h88v-285h-483v516h-205v-516h-488z" />
<glyph unicode="L" horiz-adv-x="1105" d="M25 1083v277h583v-281h-96v-790h172v231h365v-516h-1020v285h92v794h-96z" />
<glyph unicode="M" horiz-adv-x="1632" d="M20 1079v281h445l340 -580l328 580h440v-281l-88 -4v-786h98v-285h-455v727l-309 -547q-41 63 -84 130t-86 135t-87 134t-87 132v-711h-450v277l88 4v794h-93z" />
<glyph unicode="N" horiz-adv-x="1337" d="M25 4v281h96v794h-96v281h450l365 -680v676h452v-277l-88 -4v-1071h-360l-365 688v-688h-454z" />
<glyph unicode="O" horiz-adv-x="1017" d="M16 190v973q10 53 42 95t77 71q10 2 20.5 4t20.5 4q4 2 9 3t12 3q14 2 29.5 5.5t29.5 5.5v2h508q78 -10 134 -68.5t71 -134.5v-905q0 -90 -57.5 -155.5t-135.5 -90.5l-553 2q-82 14 -133 62.5t-74 123.5zM391 281h209v790h-209v-790z" />
<glyph unicode="P" horiz-adv-x="1105" d="M4 4v281l92 4v790h-92v277l852 -4q72 -10 128 -63.5t77 -123.5v-422q-14 -78 -70.5 -126t-126.5 -74l-389 2v-256l96 -4v-281h-567zM475 780h213v287h-213v-287z" />
<glyph unicode="Q" horiz-adv-x="1017" d="M8 250v854q4 100 78 175t174 75l25 2h450q94 -16 164 -76.5t70 -165.5v-905q-18 -78 -63.5 -128t-117.5 -79l-184 2v-168h-213v168h-190q-82 27 -131.5 94.5t-61.5 151.5zM391 281h209v786h-209v-786z" />
<glyph unicode="R" horiz-adv-x="1232" d="M12 4v277l92 4v790l-92 4v281h815q96 -2 174 -74t78 -168v-14l-8 -223q-8 -78 -61.5 -125t-116.5 -78q78 -18 123 -64.5t55 -128.5q2 -18 3 -36.5t3 -36.5q0 -18 1 -37t1 -37v-49l92 -4v-281h-366h-5q-40 0 -64 32q-26 34 -29 75q-2 4 -2 9v9v424h-218v-549h-475z M483 809h217v258h-217v-258z" />
<glyph unicode="S" horiz-adv-x="1040" d="M4 825v324q6 61 42 108.5t93 75.5q31 4 60.5 9.5t56.5 11.5v2h676v-395h-332v118h-213v-256h381q53 -10 99 -37.5t77 -74.5q6 -16 11.5 -32.5t11.5 -31.5q4 -16 8 -32.5t6 -32.5v-359q0 -6 -1 -10t-1 -8q-12 -76 -72.5 -139.5t-146.5 -63.5l-727 2v416h362v-131h205v274 h-364q-104 4 -163 84t-69 178z" />
<glyph unicode="T" horiz-adv-x="1273" d="M8 860v496h1200v-500h-272v223h-135v-794h92v-281h-557v281h84v794h-131v-219h-281z" />
<glyph unicode="U" horiz-adv-x="1232" d="M12 1079v277h475v-1071h213v1071h471v-277h-88v-815q0 -18 -2 -34.5t-8 -34.5q-20 -72 -75.5 -132.5t-133.5 -60.5l-536 2q-100 4 -154.5 77t-64.5 165v833h-97z" />
<glyph unicode="V" horiz-adv-x="1273" d="M8 1079v277h412l180 -987l139 710h-96v277h569v-281h-92l-252 -1071h-544l-220 1075h-96z" />
<glyph unicode="W" horiz-adv-x="1888" d="M25 1079v281h563v-281h-113l109 -667l204 948h287l217 -936l80 651h-100v281h561v-281h-88l-176 -1071h-453l-180 784l-164 -784h-473l-186 1075h-88z" />
<glyph unicode="X" horiz-adv-x="1212" d="M8 4v281h101l272 399l-260 395h-92v277h356l211 -344l88 143v201h461v-281h-96l-240 -383l258 -407h96v-281h-354l-225 381l-113 -197v-184h-463z" />
<glyph unicode="Y" horiz-adv-x="1144" d="M8 1079v277h383l164 -420l172 420h369v-285h-105l-243 -487v-299h88v-281h-560v281h93v282l-244 512h-117z" />
<glyph unicode="Z" horiz-adv-x="1040" d="M4 4v260l504 811h-197v-102h-295v383h932v-252l-495 -815h211v135h313v-420h-973z" />
<glyph unicode="[" horiz-adv-x="573" d="M20 485q0 72 2.5 143.5t4.5 143.5q4 96 10 191.5t14 189.5q16 84 83 138.5t151 62.5v2h243v-273l-168 -4v-1155l168 -4v-285l-256 5q-84 14 -140 70.5t-81 133.5q0 2 -1 5.5t-1 5.5t-1 4t-1 6q-6 78 -10 154.5t-8 154.5t-6.5 156t-2.5 155z" />
<glyph unicode="\" horiz-adv-x="1060" d="M12 1280h164l836 -1288h-152z" />
<glyph unicode="]" horiz-adv-x="552" d="M20 -88h173v1163h-173v281h244q51 -8 99.5 -30.5t85.5 -63.5q6 -12 11 -24.5t11 -25.5q8 -23 15.5 -43t13.5 -39l4 -1230q-12 -109 -71.5 -174.5t-164.5 -90.5h-248v277z" />
<glyph unicode="^" horiz-adv-x="661" d="M16 1024l193 276h211l188 -276h-125l-168 172l-168 -172h-131z" />
<glyph unicode="_" horiz-adv-x="1273" d="M12 -424h1213v-84h-1213v84z" />
<glyph unicode="`" horiz-adv-x="405" d="M16 1356h160l184 -441h-163z" />
<glyph unicode="a" horiz-adv-x="913" d="M8 137v254q16 61 59.5 89t100.5 34l293 2v164h-162v-76h-258v176q0 2 2 6.5t2 6.5q14 39 49 70.5t78 31.5v2h471q55 -10 88 -51t45 -92v-510h88v-240h-403v96l-105 -96h-243q-43 16 -74 51t-31 82zM299 219h162v141h-162v-141z" />
<glyph unicode="b" horiz-adv-x="913" d="M25 1116v240h403v-547l96 84h215q49 -8 89 -46t40 -89v-615q-6 -53 -39.5 -92t-80.5 -49l-211 2l-105 96l-4 -96h-395v240l76 4v868h-84zM428 236h125v411h-125v-411z" />
<glyph unicode="c" horiz-adv-x="788" d="M8 133v580q6 70 37 120t107 62v2h411q6 -2 11.5 -2t11.5 -2q53 -6 98 -42t51 -89v-195h-282v92h-125v-411h125v88h274v-232q-14 -53 -55 -77.5t-88 -24.5l-428 2q-53 2 -91 39t-57 90z" />
<glyph unicode="d" horiz-adv-x="913" d="M8 725q0 61 35 112.5t100 57.5l209 2l101 -86v297h-80v248h399v-1112h88v-240h-407v96l-109 -96q-10 -2 -22.5 -3t-22.5 -1h-24.5h-22.5h-8h-8q-72 0 -135.5 28.5t-88.5 100.5zM328 240h125v411h-125v-411z" />
<glyph unicode="e" horiz-adv-x="849" d="M8 174v547q0 61 38 110.5t97 63.5v2h490q39 -2 73.5 -18.5t61.5 -44.5q10 -18 18.5 -38t14.5 -42v-367h-461v-168h156v88h305v-172q-2 -10 -4 -17t-4 -16q-12 -29 -34 -55.5t-46 -40.5q-4 0 -8.5 -1t-8.5 -1t-8 -1t-8 -1l-508 2h-8q-36 0 -64 18q-32 20 -57 48 q-10 29 -19.5 54.5t-15.5 49.5zM336 537h160v135h-160v-135z" />
<glyph unicode="f" horiz-adv-x="593" d="M20 4v240h93v415h-93v240h93v305q10 39 26.5 74t53.5 55l8 4t10 4q4 2 8 4.5t8 4.5v2h314v-248l-117 -4v-201h88v-244h-84v-411h84v-240h-492z" />
<glyph unicode="g" horiz-adv-x="913" d="M8 174v543q0 63 37 116.5t102 61.5v2h197l105 -88v88h415v-242h-92v-860q0 -10 -2 -22.5t-6 -24.5q-12 -37 -42 -68.5t-71 -31.5h-487q-57 0 -92 43t-35 96v141h282v-80h138v252l-92 -96h-236q-18 4 -38.5 15.5t-43.5 25.5q-6 16 -13 32.5t-11 33.5q-6 14 -9.5 30.5 t-5.5 32.5zM328 244h133v407h-133v-407z" />
<glyph unicode="h" horiz-adv-x="1017" d="M20 1112v236h416v-537l92 86h207q70 -14 108 -61.5t38 -120.5v-475h88v-236h-410v647h-127v-647h-407v240h88v868h-93z" />
<glyph unicode="i" horiz-adv-x="573" d="M20 647v246h404v-653h88v-236h-487v232h84v411h-89zM113 1153q0 8 1 16.5t3 16.5q2 12 5 24.5t7 20.5q14 29 45 48t66 19v2h24q51 -14 81 -53t32 -82v-4v-4q0 -8 -1 -16t-3 -19q-8 -27 -27.5 -53.5t-48.5 -42.5q-4 -2 -10 -4t-11 -4q-12 -4 -22 -6t-18 -2q-53 0 -88 43 t-35 100z" />
<glyph unicode="j" horiz-adv-x="489" d="M20 655v238h408v-1124q-8 -51 -40 -83t-81 -46h-282v239h88v776h-93zM125 1151l4 12q2 55 37 94t94 46v2h25q59 -2 86.5 -47.5t27.5 -100.5v-9t-2 -11q-4 -49 -34.5 -90t-86.5 -41q-2 0 -5 1t-7 1q-2 0 -5 1t-7 1q-53 6 -90 46t-37 95z" />
<glyph unicode="k" horiz-adv-x="1017" d="M16 4v240h97v872h-93v232h408v-807l197 356h303v-242h-160l-72 -135h181v-280h88v-236h-406v315h-131v-315h-412z" />
<glyph unicode="l" horiz-adv-x="552" d="M8 4v236h88v868h-88v244h408v-1112h84v-236h-492z" />
<glyph unicode="m" horiz-adv-x="1441" d="M12 664v233h408v-104l104 104l232 -4q18 -4 34.5 -12.5t24.5 -18.5q16 -14 26.5 -30.5t18.5 -36.5l96 102q6 -2 14.5 -1t18.5 1q10 2 22.5 2t24.5 2h15.5h15.5h22.5t22.5 -2q72 -6 132.5 -40t60.5 -118v-497h88v-240h-402v647h-127v-647h-319v655h-125v-655h-316v655z " />
<glyph unicode="n" horiz-adv-x="997" d="M4 659v238h404v-109l120 109h197q47 -14 81 -47t46 -80v-530h92v-236h-403v647h-129v-647h-320v655h-88z" />
<glyph unicode="o" horiz-adv-x="829" d="M20 133v606q6 57 52.5 97.5t99.5 52.5q2 0 6 1t6 1v2h404q82 -4 137 -61.5t55 -141.5v-481q0 -51 -22.5 -97t-57.5 -81q-20 -8 -41.5 -16.5t-37.5 -12.5l-449 2q-53 4 -83 35t-56 72q-2 6 -5 11t-8 11zM332 231h133v416h-133v-416z" />
<glyph unicode="p" horiz-adv-x="933" d="M25 -131l96 2v784h-96v238h411v-105l123 105h197q51 -16 83.5 -54t45.5 -89v-562q0 -12 -1 -21t-1 -20q-8 -51 -39 -95t-84 -50l-219 2l-105 92v-225l80 -2v-229h-491v229zM436 236h123v407h-123v-407z" />
<glyph unicode="q" horiz-adv-x="913" d="M4 174v557q0 57 29.5 97t79.5 67v2h227l109 -88v88h411v-238h-88v-784h88v-227h-491v227h84v225l-109 -96h-209q-51 2 -80.5 41t-42.5 86q-2 10 -4 21.5t-4 21.5zM328 244h125v407h-125v-407z" />
<glyph unicode="r" horiz-adv-x="849" d="M20 4v240h89v411h-89v238h408v-84l88 84h201q10 -6 19 -15.5t20 -19.5q2 -2 6 -5t6 -7q4 -4 7 -8t5 -9q4 -4 7.5 -8t5.5 -8v-309h-248v147h-117v-407h84v-240h-492z" />
<glyph unicode="s" horiz-adv-x="849" d="M12 4v277h307v-68h164q2 2 3 7t1 11q2 8 3.5 14.5t1.5 12.5v5v5q-2 12 -7.5 24.5t-13.5 20.5l-459 119v303q0 61 39 106.5t96 53.5v2h637v-268h-288v55h-168v-80l473 -129v-336q0 -59 -39 -93t-90 -44z" />
<glyph unicode="t" horiz-adv-x="552" d="M20 659v238l84 2v293h324v-293l80 -2v-242h-84v-411h84v-240h-404v655h-84z" />
<glyph unicode="u" horiz-adv-x="1017" d="M16 659v238h408v-649h129v649h319v-653h89v-240h-408v96l-100 -96h-238q-51 20 -78.5 66.5t-27.5 99.5v489h-93z" />
<glyph unicode="v" horiz-adv-x="956" d="M16 659v238h349l100 -573l94 569h348v-234h-80l-147 -655h-436l-152 655h-76z" />
<glyph unicode="w" horiz-adv-x="1400" d="M12 659v238h348l72 -578l121 578h258l129 -578l64 578h331v-242h-71l-109 -651h-358l-113 404l-104 -404h-371l-113 655h-84z" />
<glyph unicode="x" horiz-adv-x="888" d="M20 4v240h84l136 209l-127 206h-93v238h287l117 -184l113 184h290v-242h-88l-123 -202l127 -209h84v-240h-290l-109 184l-113 -184h-295z" />
<glyph unicode="y" horiz-adv-x="976" d="M16 655v242h357l92 -561l94 561h352v-242h-80l-286 -1007h-352v235h92l22 92l-207 680h-84z" />
<glyph unicode="z" horiz-adv-x="849" d="M8 4v201l432 475h-176v-88h-244v305h781v-217l-416 -457h170v92h250v-311h-797z" />
<glyph unicode="{" horiz-adv-x="595" d="M16 569v140q2 -2 6.5 -3t8.5 -1h1h1q4 0 8 -1.5t6 -1.5q43 0 76 29t33 82v668q10 31 24.5 61.5t34.5 59.5q10 6 20.5 12t20.5 12q14 6 27.5 11t23.5 10v2h238v-129h-180v-693q-18 -61 -51 -108t-87 -78q27 -12 51.5 -34.5t45.5 -47.5q8 -10 15 -20.5t13 -20.5q2 -6 3 -11 t3 -11t3 -11.5t4 -11.5v-696h180v-121h-246q-59 14 -94 52t-41 108v596q0 6 -1 14t-3 16q-6 33 -17.5 64t-29.5 51q-25 4 -49.5 7t-47.5 5z" />
<glyph unicode="|" horiz-adv-x="237" d="M16 -16v1661h164v-1661h-164z" />
<glyph unicode="}" horiz-adv-x="593" d="M8 -223h180v698q16 53 50 95t81 71q-47 31 -79.5 78t-51.5 106v695h-180v129h236q10 -4 21 -9.5t24 -11.5q10 -6 21.5 -12t21.5 -14q23 -29 37 -60t22 -63v-664q4 -55 34 -84t75 -29q4 0 8 1.5t8 1.5h4h4q2 2 6.5 2h6.5v-136q-25 -4 -49.5 -7t-47.5 -7q-27 -29 -40 -66.5 t-15 -80.5v-594q-2 -66 -38 -106t-95 -54h-244v121z" />
<glyph unicode="~" horiz-adv-x="768" d="M20 1030q10 90 75 156.5t153 66.5h12t14 -2q10 0 19.5 -2t17.5 -4l168 -57q2 -2 5 -3t5 -1q4 0 6.5 -1t4.5 -1q4 0 8 1t8 1t6 1t4 1q6 2 12.5 3t10.5 1q23 10 41 30.5t28 43.5q2 2 3.5 5t3.5 5v2h84q-12 -94 -78 -166t-160 -72q-2 0 -6 1t-8 1h-4t-7 2h-5h-5t-3 1t-3 1 t-3 1.5t-3 1.5l-193 65q-2 -2 -6 -1t-8 1q-6 0 -9 1t-7 1q-33 0 -56.5 -23.5t-44.5 -50.5q0 -2 -1 -3l-3 -3q-4 -2 -9 -5t-11 -3q-6 -2 -11.5 -3t-9.5 -1t-8 1t-8 1q-6 2 -10 3t-9 3z" />
<glyph unicode="&#xa1;" />
<glyph unicode="&#xa2;" />
<glyph unicode="&#xa3;" />
<glyph unicode="&#xa4;" />
<glyph unicode="&#xa5;" />
<glyph unicode="&#xa6;" />
<glyph unicode="&#xa7;" />
<glyph unicode="&#xa8;" />
<glyph unicode="&#xa9;" />
<glyph unicode="&#xaa;" />
<glyph unicode="&#xab;" />
<glyph unicode="&#xac;" />
<glyph unicode="&#xad;" />
<glyph unicode="&#xae;" />
<glyph unicode="&#xaf;" />
<glyph unicode="&#xb0;" />
<glyph unicode="&#xb1;" />
<glyph unicode="&#xb2;" />
<glyph unicode="&#xb3;" />
<glyph unicode="&#xb4;" />
<glyph unicode="&#xb5;" />
<glyph unicode="&#xb6;" />
<glyph unicode="&#xb7;" />
<glyph unicode="&#xb8;" />
<glyph unicode="&#xb9;" />
<glyph unicode="&#xba;" />
<glyph unicode="&#xbb;" />
<glyph unicode="&#xbc;" />
<glyph unicode="&#xbd;" />
<glyph unicode="&#xbe;" />
<glyph unicode="&#xbf;" />
<glyph unicode="&#xc0;" />
<glyph unicode="&#xc1;" />
<glyph unicode="&#xc2;" />
<glyph unicode="&#xc3;" />
<glyph unicode="&#xc4;" />
<glyph unicode="&#xc5;" />
<glyph unicode="&#xc6;" />
<glyph unicode="&#xc7;" />
<glyph unicode="&#xc8;" />
<glyph unicode="&#xc9;" />
<glyph unicode="&#xca;" />
<glyph unicode="&#xcb;" />
<glyph unicode="&#xcc;" />
<glyph unicode="&#xcd;" />
<glyph unicode="&#xce;" />
<glyph unicode="&#xcf;" />
<glyph unicode="&#xd0;" />
<glyph unicode="&#xd1;" />
<glyph unicode="&#xd2;" />
<glyph unicode="&#xd3;" />
<glyph unicode="&#xd4;" />
<glyph unicode="&#xd5;" />
<glyph unicode="&#xd6;" />
<glyph unicode="&#xd7;" />
<glyph unicode="&#xd8;" />
<glyph unicode="&#xd9;" />
<glyph unicode="&#xda;" />
<glyph unicode="&#xdb;" />
<glyph unicode="&#xdc;" />
<glyph unicode="&#xdd;" />
<glyph unicode="&#xde;" />
<glyph unicode="&#xdf;" />
<glyph unicode="&#xe0;" />
<glyph unicode="&#xe1;" />
<glyph unicode="&#xe2;" />
<glyph unicode="&#xe3;" />
<glyph unicode="&#xe4;" />
<glyph unicode="&#xe5;" />
<glyph unicode="&#xe6;" />
<glyph unicode="&#xe7;" />
<glyph unicode="&#xe8;" />
<glyph unicode="&#xe9;" />
<glyph unicode="&#xea;" />
<glyph unicode="&#xeb;" />
<glyph unicode="&#xec;" />
<glyph unicode="&#xed;" />
<glyph unicode="&#xee;" />
<glyph unicode="&#xef;" />
<glyph unicode="&#xf0;" />
<glyph unicode="&#xf1;" />
<glyph unicode="&#xf2;" />
<glyph unicode="&#xf3;" />
<glyph unicode="&#xf4;" />
<glyph unicode="&#xf5;" />
<glyph unicode="&#xf6;" />
<glyph unicode="&#xf7;" />
<glyph unicode="&#xf8;" />
<glyph unicode="&#xf9;" />
<glyph unicode="&#xfa;" />
<glyph unicode="&#xfb;" />
<glyph unicode="&#xfc;" />
<glyph unicode="&#xfd;" />
<glyph unicode="&#xfe;" />
<glyph unicode="&#xff;" />
<glyph unicode="&#x152;" />
<glyph unicode="&#x153;" />
<glyph unicode="&#x178;" />
<glyph unicode="&#x2c6;" />
<glyph unicode="&#x2dc;" />
<glyph unicode="&#x2000;" horiz-adv-x="824" />
<glyph unicode="&#x2001;" horiz-adv-x="1649" />
<glyph unicode="&#x2002;" horiz-adv-x="824" />
<glyph unicode="&#x2003;" horiz-adv-x="1649" />
<glyph unicode="&#x2004;" horiz-adv-x="549" />
<glyph unicode="&#x2005;" horiz-adv-x="412" />
<glyph unicode="&#x2006;" horiz-adv-x="274" />
<glyph unicode="&#x2007;" horiz-adv-x="274" />
<glyph unicode="&#x2008;" horiz-adv-x="206" />
<glyph unicode="&#x2009;" horiz-adv-x="329" />
<glyph unicode="&#x200a;" horiz-adv-x="91" />
<glyph unicode="&#x2010;" horiz-adv-x="552" d="M4 336v217h496v-217h-496z" />
<glyph unicode="&#x2011;" horiz-adv-x="552" d="M4 336v217h496v-217h-496z" />
<glyph unicode="&#x2012;" horiz-adv-x="552" d="M4 336v217h496v-217h-496z" />
<glyph unicode="&#x2013;" />
<glyph unicode="&#x2014;" />
<glyph unicode="&#x2018;" />
<glyph unicode="&#x2019;" />
<glyph unicode="&#x201a;" />
<glyph unicode="&#x201c;" />
<glyph unicode="&#x201d;" />
<glyph unicode="&#x201e;" />
<glyph unicode="&#x2022;" />
<glyph unicode="&#x2026;" />
<glyph unicode="&#x202f;" horiz-adv-x="329" />
<glyph unicode="&#x2039;" />
<glyph unicode="&#x203a;" />
<glyph unicode="&#x205f;" horiz-adv-x="412" />
<glyph unicode="&#x2122;" />
<glyph unicode="&#xe000;" horiz-adv-x="895" d="M0 0v895h895v-895h-895z" />
</font>
</defs>
</svg>
