<?xml version="1.0" encoding="UTF-8" standalone="no"?>
<svg
   xmlns:dc="http://purl.org/dc/elements/1.1/"
   xmlns:cc="http://creativecommons.org/ns#"
   xmlns:rdf="http://www.w3.org/1999/02/22-rdf-syntax-ns#"
   xmlns:svg="http://www.w3.org/2000/svg"
   xmlns="http://www.w3.org/2000/svg"
   xmlns:xlink="http://www.w3.org/1999/xlink"
   xmlns:sodipodi="http://sodipodi.sourceforge.net/DTD/sodipodi-0.dtd"
   xmlns:inkscape="http://www.inkscape.org/namespaces/inkscape"
   id="jersey_back"
   width="100%"
   height="100%"
   preserveAspectRatio="xMinYMin meet"
   viewBox="0 0 315.375 297.22875"
   version="1.1"
   inkscape:version="0.48.4 r9939"
   sodipodi:docname="jersey_back.svg">
  <metadata
     id="metadata155">
    <rdf:RDF>
      <cc:Work
         rdf:about="">
        <dc:format>image/svg+xml</dc:format>
        <dc:type
           rdf:resource="http://purl.org/dc/dcmitype/StillImage" />
      </cc:Work>
    </rdf:RDF>
  </metadata>
  <sodipodi:namedview
     pagecolor="#ffffff"
     bordercolor="#666666"
     borderopacity="1"
     objecttolerance="10"
     gridtolerance="10"
     guidetolerance="10"
     inkscape:pageopacity="0"
     inkscape:pageshadow="2"
     inkscape:window-width="1366"
     inkscape:window-height="705"
     id="namedview153"
     showgrid="false"
     inkscape:zoom="2.2457747"
     inkscape:cx="156.01411"
     inkscape:cy="273.74133"
     inkscape:window-x="-4"
     inkscape:window-y="-4"
     inkscape:window-maximized="1"
     inkscape:current-layer="layer1" />
  <defs
     id="defs10593">
    <clipPath
       clipPathUnits="userSpaceOnUse"
       id="clipPath3055">
      <path
         d="M 0,612 1008,612 1008,0 0,0 0,612 z"
         id="path3057" />
    </clipPath>
    <clipPath
       clipPathUnits="userSpaceOnUse"
       id="clipPath3111">
      <path
         style="fill:none;stroke:none"
         d="m 551.08256,147.5225 -6.15561,53.71282 33.94123,-0.18522 -1.04137,-55.85319 z"
         id="path3113" />
    </clipPath>
    <clipPath
       clipPathUnits="userSpaceOnUse"
       id="clipPath3141">
      <path
         style="fill:none;stroke:none"
         d="m -225.04586,625.91546 4.38599,50.38839 -30.80883,0.6579 0.52857,-52.99188 z"
         id="path3143" />
    </clipPath>
    <clipPath
       clipPathUnits="userSpaceOnUse"
       id="clipPath3193">
      <path
         style="fill:none;stroke:none"
         d="m 539.66332,217.74726 8.68734,-52.77946 28.14554,-0.95131 -0.46039,53.25616 z"
         id="path3195" />
    </clipPath>
    <clipPath
       clipPathUnits="userSpaceOnUse"
       id="clipPath3197">
      <path
         style="fill:none;stroke:none"
         d="m -142.418,704.33815 -10.27677,-52.37574 -28.57363,-0.45076 2.07565,53.2177 z"
         id="path3199" />
    </clipPath>
    <clipPath
       clipPathUnits="userSpaceOnUse"
       id="clipPath3934">
      <path
         style="fill:none;stroke:none"
         d="m 558.49201,133.88138 1.04235,-51.927289 31.27942,-0.387826 1.10898,52.536845 z"
         id="path3936" />
    </clipPath>
    <clipPath
       clipPathUnits="userSpaceOnUse"
       id="clipPath3940">
      <path
         style="fill:none;stroke:none"
         d="m -243.26248,608.07595 2.25338,50.60491 -25.39087,0.12001 0.47062,-51.00645 z"
         id="path3942" />
    </clipPath>
    <clipPath
       clipPathUnits="userSpaceOnUse"
       id="clipPath3946">
      <path
         style="fill:none;stroke:none"
         d="m 272.86587,547.81995 0.35571,48.4905 48.12999,0.17702 -0.1734,-48.67073 z"
         id="path3948" />
    </clipPath>
    <clipPath
       clipPathUnits="userSpaceOnUse"
       id="clipPath3934-4">
      <path
         style="fill:none;stroke:none"
         d="m 558.49201,133.88138 1.04235,-51.927289 31.27942,-0.387826 1.10898,52.536845 z"
         id="path3936-0" />
    </clipPath>
    <clipPath
       clipPathUnits="userSpaceOnUse"
       id="clipPath3987">
      <path
         style="fill:none;stroke:#000000;stroke-width:1px;stroke-linecap:butt;stroke-linejoin:miter;stroke-opacity:1"
         d="m -247.03402,606.61727 -26.04455,-0.10224 -0.036,49.82149 28.46943,0.0206 z"
         id="path3989" />
    </clipPath>
    <clipPath
       clipPathUnits="userSpaceOnUse"
       id="clipPath3987-1">
      <path
         inkscape:connector-curvature="0"
         style="fill:none;stroke:#000000;stroke-width:1px;stroke-linecap:butt;stroke-linejoin:miter;stroke-opacity:1"
         d="m -247.03402,606.61727 -26.04455,-0.10224 -0.036,49.82149 28.46943,0.0206 z"
         id="path3989-7" />
    </clipPath>
    <clipPath
       clipPathUnits="userSpaceOnUse"
       id="clipPath3232">
      <path
         id="path3234"
         d="m 525.59965,156.43454 -26.04454,-0.10224 -0.036,49.82149 28.46943,0.0206 z"
         style="fill:none;stroke:#000000;stroke-width:1px;stroke-linecap:butt;stroke-linejoin:miter;stroke-opacity:1"
         inkscape:connector-curvature="0" />
    </clipPath>
  </defs>
  <g
     id="layer1"
     transform="translate(-142.03125,-511.75)">
    <path
       style="fill:#ffffff;fill-opacity:1;fill-rule:nonzero;stroke:none"
       d="m 232.64995,555.65575 -0.0937,48.5 -10.875,154.875 2,1.6875 5.71875,4.21875 6.90625,5.15625 6.375,5.1875 5.3125,4.625 8.4375,9.6875 -7,-198.28125 -16.7813,-35.65625 z m 135.3125,0 -18.3125,35.65625 -7.15625,201.21875 10.375,-9.34375 5.6875,-6.1875 5.90625,-5.78125 6.65625,-5.46875 5.71875,-4.375 2.3125,-0.9375 -11.125,-156.28125 -0.0625,-48.5 z"
       id="path3285back" />
    <path
       style="fill:none;fill-opacity:1;fill-rule:nonzero;stroke:none"
       d="m 232.64995,555.65575 -0.0937,48.5 -10.875,154.875 2,1.6875 5.71875,4.21875 6.90625,5.15625 6.375,5.1875 5.3125,4.625 8.4375,9.6875 -7,-198.28125 -16.7813,-35.65625 z m 135.3125,0 -18.3125,35.65625 -7.15625,201.21875 10.375,-9.34375 5.6875,-6.1875 5.90625,-5.78125 6.65625,-5.46875 5.71875,-4.375 2.3125,-0.9375 -11.125,-156.28125 -0.0625,-48.5 z"
       id="path3285inf" />
    <path
       style="fill:#ffffff;fill-opacity:1;fill-rule:nonzero;stroke:none"
       d="m 367.55625,603.78075 12.3125,156.125 10.53125,-136.4375 -22.84375,-19.6875 z m -135,0.375 -22.5,19.71875 11.625,134.90625 10.875,-154.625 z"
       id="path3293back" />
    <path
       style="fill:none;fill-opacity:1;fill-rule:nonzero;stroke:none"
       d="m 367.55625,603.78075 12.3125,156.125 10.53125,-136.4375 -22.84375,-19.6875 z m -135,0.375 -22.5,19.71875 11.625,134.90625 10.875,-154.625 z"
       id="path3293inf" />
    <path
       style="fill:#ffffff;fill-opacity:1;fill-rule:nonzero;stroke:none"
       d="m 150.49425,603.781 3.53125,19.6875 55.84375,0.40625 22.90625,-20.09375 -82.28125,0 z m 217.75001,0 22.15625,19.6875 55.3125,0.25 3.90625,-19.9375 -81.375,0 z"
       id="path3317back" />
    <path
       style="fill:none;fill-opacity:1;fill-rule:nonzero;stroke:none"
       d="m 150.49425,603.781 3.53125,19.6875 55.84375,0.40625 22.90625,-20.09375 -82.28125,0 z m 217.75001,0 22.15625,19.6875 55.3125,0.25 3.90625,-19.9375 -81.375,0 z"
       id="path3317inf" />
    <path
       style="fill:#ffffff;fill-opacity:1;fill-rule:nonzero;stroke:none"
       d="m 266.74375,512.437 -56.6875,12.53125 -67.125,37.0625 7.5625,41.75 82.125,0 0.0937,-48.125 45.75,-34.09375 -6.375,-3.15625 -3.625,-2.5 -1.71875,-3.46875 z m 66.96875,0 -2.46875,2.75 -3.09375,2.84375 -5.71875,3.46875 45.53125,34.15625 0.25,48.125 81.0625,0 7.59375,-41.90625 -66.875,-36.6875 -56.28125,-12.75 z"
       id="path3333back" />
    <path
       style="fill:none;fill-opacity:1;fill-rule:nonzero;stroke:none"
       d="m 266.74375,512.437 -56.6875,12.53125 -67.125,37.0625 7.5625,41.75 82.125,0 0.0937,-48.125 45.75,-34.09375 -6.375,-3.15625 -3.625,-2.5 -1.71875,-3.46875 z m 66.96875,0 -2.46875,2.75 -3.09375,2.84375 -5.71875,3.46875 45.53125,34.15625 0.25,48.125 81.0625,0 7.59375,-41.90625 -66.875,-36.6875 -56.28125,-12.75 z"
       id="path3333inf" />
    <path
       id="path3281back"
       style="fill:#ffffff;fill-opacity:1;fill-rule:nonzero;stroke:none"
       d="m 278.356,521.55425 -45.70875,34.1075 16.68125,35.66375 7.00125,198.61625 6.9025,6.395 7.4225,5.30375 10.6,4.855 6.1925,1.3675 9.175,0.64375 9.23625,-0.5225 6.9425,-0.96625 7.78625,-2.59625 8.0225,-3.42375 8.5175,-4.4225 5.2775,-4.055 7.14625,-201.195 18.03,-35.66375 -45.235,-34.1475 -6.29125,1.59125 -9.17375,1.3675 -12.36125,0.11 -8.55375,-0.9525 -7.61,-2.07625 z" />
    <path
       id="path3281inf"
       style="fill:none;fill-opacity:1;fill-rule:nonzero;stroke:none"
       d="m 278.356,521.55425 -45.70875,34.1075 16.68125,35.66375 7.00125,198.61625 6.9025,6.395 7.4225,5.30375 10.6,4.855 6.1925,1.3675 9.175,0.64375 9.23625,-0.5225 6.9425,-0.96625 7.78625,-2.59625 8.0225,-3.42375 8.5175,-4.4225 5.2775,-4.055 7.14625,-201.195 18.03,-35.66375 -45.235,-34.1475 -6.29125,1.59125 -9.17375,1.3675 -12.36125,0.11 -8.55375,-0.9525 -7.61,-2.07625 z" />
    <path
       id="path5051"
       style="fill:none;stroke:#7b7979;stroke-width:0.96375;stroke-linecap:butt;stroke-linejoin:miter;stroke-miterlimit:4;stroke-opacity:1;stroke-dasharray:none"
       d="m 379.86947,759.9126 9.51125,-136.115 56.32375,-0.235 11.17625,-61.6425 -67.0675,-36.84125 -56.7525,-12.75375 c 0,0 -4.04625,12.41 -33.05,12.41 -29.00375,0 -33.62,-12.3325 -33.62,-12.3325 l -56.75125,12.75375 -67.07,36.84375 11.1775,61.64125 56.3225,0.23375 11.18,135.09125 c 0,0 21.71875,15.40625 27.98,22.29375 6.2625,6.8875 19.95875,27.76875 48.84125,27.2375 34.1225,-0.62625 55.1,-25.6725 55.1,-25.6725 0,0 15.2025,-17.65125 26.69875,-22.9125 z" />
    <path
       id="path3281"
       style="fill:#c1bfbd;fill-opacity:0;fill-rule:nonzero;stroke:none"
       d="m 278.45597,521.55447 -45.70875,34.1075 16.68125,35.66375 7.00125,198.61625 6.9025,6.395 7.4225,5.30375 10.6,4.855 6.1925,1.3675 9.175,0.64375 9.23625,-0.5225 6.9425,-0.96625 7.78625,-2.59625 8.0225,-3.42375 8.5175,-4.4225 5.2775,-4.055 7.14625,-201.195 18.03,-35.66375 -45.235,-34.1475 -6.29125,1.59125 -9.17375,1.3675 -12.36125,0.11 -8.55375,-0.9525 -7.61,-2.07625 z" />
    <path
       style="fill:#c1bfbd;fill-opacity:0;fill-rule:nonzero;stroke:none"
       d="m 90.5625,43.8125 -0.09375,48.5 -10.875,154.875 2,1.6875 5.71875,4.21875 6.90625,5.15625 6.375,5.1875 5.3125,4.625 8.4375,9.6875 -7,-198.28125 L 90.5625,43.8125 z m 135.3125,0 -18.3125,35.65625 -7.15625,201.21875 10.375,-9.34375 5.6875,-6.1875 5.90625,-5.78125 6.65625,-5.46875 5.71875,-4.375 2.3125,-0.9375 -11.125,-156.28125 -0.0625,-48.5 z"
       transform="translate(142.08759,511.84322)"
       id="path3285" />
    <path
       style="fill:#c1bfbd;fill-opacity:0;fill-rule:nonzero;stroke:none"
       d="m 225.46875,91.9375 12.3125,156.125 L 248.3125,111.625 225.46875,91.9375 z m -135,0.375 -22.5,19.71875 11.625,134.90625 10.875,-154.625 z"
       transform="translate(142.08759,511.84322)"
       id="path3293" />
    <path
       style="fill:#c1bfbd;fill-opacity:0;fill-rule:nonzero;stroke:none"
       d="m 8.40625,91.9375 3.53125,19.6875 55.84375,0.40625 22.90625,-20.09375 -82.28125,0 z m 217.75,0 22.15625,19.6875 55.3125,0.25 3.90625,-19.9375 -81.375,0 z"
       id="path3317"
       transform="translate(142.08759,511.84322)" />
    <path
       style="fill:#c1bfbd;fill-opacity:0;fill-rule:nonzero;stroke:none"
       d="m 124.65625,0.59375 -56.6875,12.53125 -67.125,37.0625 7.5625,41.75 82.125,0 L 90.625,43.8125 136.375,9.71875 130,6.5625 l -3.625,-2.5 -1.71875,-3.46875 z m 66.96875,0 -2.46875,2.75 -3.09375,2.84375 -5.71875,3.46875 45.53125,34.15625 0.25,48.125 81.0625,0 7.59375,-41.90625 -66.875,-36.6875 -56.28125,-12.75 z"
       id="path3333"
       transform="translate(142.08759,511.84322)" />
    <path
       id="path5055"
       style="fill:none;stroke:#7b7979;stroke-width:0.59500003;stroke-linecap:round;stroke-linejoin:miter;stroke-miterlimit:4;stroke-opacity:1;stroke-dasharray:1.875, 2.5;stroke-dashoffset:0"
       d="m 353.17034,775.32522 c 0,0 15.2025,-17.65125 26.69875,-22.9125" />
    <path
       id="path5059"
       style="fill:none;stroke:#7b7979;stroke-width:0.59500003;stroke-linecap:round;stroke-linejoin:miter;stroke-miterlimit:4;stroke-opacity:1;stroke-dasharray:1.875, 2.5;stroke-dashoffset:0"
       d="m 298.07022,800.99784 c 34.12375,-0.62625 55.1,-25.6725 55.1,-25.6725" />
    <path
       id="path5063"
       style="fill:none;stroke:#7b7979;stroke-width:0.59500003;stroke-linecap:round;stroke-linejoin:miter;stroke-miterlimit:4;stroke-opacity:1;stroke-dasharray:1.875, 2.5;stroke-dashoffset:0"
       d="m 249.22985,773.76022 c 6.2625,6.8875 19.95875,27.76875 48.84,27.2375" />
    <path
       id="path5067"
       style="fill:none;stroke:#7b7979;stroke-width:0.59500003;stroke-linecap:round;stroke-linejoin:miter;stroke-miterlimit:4;stroke-opacity:1;stroke-dasharray:1.875, 2.5;stroke-dashoffset:0"
       d="m 221.24883,751.46659 c 0,0 21.71875,15.40625 27.98125,22.29375" />
    <path
       id="path5071"
       style="fill:none;stroke:#7b7979;stroke-width:0.59500003;stroke-linecap:round;stroke-linejoin:miter;stroke-miterlimit:4;stroke-opacity:1;stroke-dasharray:1.875, 2.5;stroke-dashoffset:0"
       d="m 353.17034,772.82522 c 0,0 15.2025,-17.65125 26.69875,-22.9125" />
    <path
       id="path5075"
       style="fill:none;stroke:#7b7979;stroke-width:0.59500003;stroke-linecap:round;stroke-linejoin:miter;stroke-miterlimit:4;stroke-opacity:1;stroke-dasharray:1.875, 2.5;stroke-dashoffset:0"
       d="m 298.07022,798.49784 c 34.12375,-0.62625 55.1,-25.6725 55.1,-25.6725" />
    <path
       id="path5079"
       style="fill:none;stroke:#7b7979;stroke-width:0.59500003;stroke-linecap:round;stroke-linejoin:miter;stroke-miterlimit:4;stroke-opacity:1;stroke-dasharray:1.875, 2.5;stroke-dashoffset:0"
       d="m 249.22985,771.26022 c 6.2625,6.8875 19.95875,27.76875 48.84,27.2375" />
    <path
       id="path5083"
       style="fill:none;stroke:#7b7979;stroke-width:0.59500003;stroke-linecap:round;stroke-linejoin:miter;stroke-miterlimit:4;stroke-opacity:1;stroke-dasharray:1.875, 2.5;stroke-dashoffset:0"
       d="m 221.24883,748.96659 c 0,0 21.71875,15.40625 27.98125,22.29375" />
    <path
       id="path5087"
       style="fill:#0000ff;stroke:#7b7979;stroke-width:0.59500003;stroke-linecap:round;stroke-linejoin:miter;stroke-miterlimit:4;stroke-opacity:1;stroke-dasharray:none"
       d="m 250.75697,515.91597 c 0,0 0.17,0.27875 0.51625,0.77625" />
    <path
       id="path5091"
       style="fill:none;stroke:#7b7979;stroke-width:0.59500003;stroke-linecap:round;stroke-linejoin:miter;stroke-miterlimit:4;stroke-opacity:1;stroke-dasharray:1.885, 2.51375;stroke-dashoffset:0"
       d="m 252.78572,518.69497 c 5.2075,6.44875 20.7325,21.83 49.9225,21.17125 30.3,-0.685 42.05625,-16.4125 45.28875,-22.00625" />
    <path
       id="path5095"
       style="fill:none;stroke:#7b7979;stroke-width:0.59500003;stroke-linecap:round;stroke-linejoin:miter;stroke-miterlimit:4;stroke-opacity:1;stroke-dasharray:none"
       d="m 348.60122,516.74972 c 0.275,-0.54 0.3975,-0.84375 0.3975,-0.84375" />
    <path
       id="path5099"
       style="fill:#0000ff;stroke:#7b7979;stroke-width:0.59500003;stroke-linecap:round;stroke-linejoin:miter;stroke-miterlimit:4;stroke-opacity:1;stroke-dasharray:none"
       d="m 249.37634,518.41597 c 0,0 0.1725,0.27625 0.525,0.77" />
    <path
       id="path5103"
       style="fill:none;stroke:#7b7979;stroke-width:0.59500003;stroke-linecap:round;stroke-linejoin:miter;stroke-miterlimit:4;stroke-opacity:1;stroke-dasharray:1.84875, 2.465;stroke-dashoffset:0"
       d="m 251.40509,521.13397 c 5.28625,6.41125 21.2,21.89375 51.2075,21.23125 31.105,-0.685 43.14,-16.4675 46.42625,-22.035" />
    <path
       id="path5107"
       style="fill:none;stroke:#7b7979;stroke-width:0.59500003;stroke-linecap:round;stroke-linejoin:miter;stroke-miterlimit:4;stroke-opacity:1;stroke-dasharray:none"
       d="m 349.64372,519.24547 c 0.28,-0.53625 0.405,-0.83875 0.405,-0.83875" />
    <path
       id="path5111"
       style="fill:none;stroke:#7b7979;stroke-width:0.59500003;stroke-linecap:round;stroke-linejoin:miter;stroke-miterlimit:4;stroke-opacity:1;stroke-dasharray:none"
       d="M 256.42959,788.52285 249.42834,591.32535 232.64709,555.6616" />
    <path
       id="path5115"
       style="fill:none;stroke:#7b7979;stroke-width:0.59500003;stroke-linecap:round;stroke-linejoin:miter;stroke-miterlimit:4;stroke-opacity:1;stroke-dasharray:none"
       d="m 255.0746,787.03847 -0.0325,-0.9375" />
    <path
       id="path5119"
       style="fill:none;stroke:#7b7979;stroke-width:0.59500003;stroke-linecap:round;stroke-linejoin:miter;stroke-miterlimit:4;stroke-opacity:1;stroke-dasharray:1.8775, 2.5025;stroke-dashoffset:0"
       d="m 254.95247,783.60035 -6.77375,-191.025 -14.70375,-32.15875" />
    <path
       id="path5123"
       style="fill:none;stroke:#7b7979;stroke-width:0.59500003;stroke-linecap:round;stroke-linejoin:miter;stroke-miterlimit:4;stroke-opacity:1;stroke-dasharray:none"
       d="m 232.95421,559.27785 -0.39,-0.8525" />
    <path
       id="path5127"
       style="fill:none;stroke:#7b7979;stroke-width:0.59500003;stroke-linecap:round;stroke-linejoin:miter;stroke-miterlimit:4;stroke-opacity:1;stroke-dasharray:none"
       d="m 257.67959,789.94184 -0.005,-0.9375" />
    <path
       id="path5131"
       style="fill:none;stroke:#7b7979;stroke-width:0.59500003;stroke-linecap:round;stroke-linejoin:miter;stroke-miterlimit:4;stroke-opacity:1;stroke-dasharray:1.8625, 2.48375;stroke-dashoffset:0"
       d="m 257.66122,786.52022 -0.0175,-3.08 -6.965,-193.365 -15.94875,-33.29875" />
    <path
       id="path5135"
       style="fill:none;stroke:#7b7979;stroke-width:0.59500003;stroke-linecap:round;stroke-linejoin:miter;stroke-miterlimit:4;stroke-opacity:1;stroke-dasharray:none"
       d="m 234.19446,555.65659 -0.405,-0.845" />
    <path
       id="path5139"
       style="fill:none;stroke:#7b7979;stroke-width:0.59500003;stroke-linecap:round;stroke-linejoin:miter;stroke-miterlimit:4;stroke-opacity:1;stroke-dasharray:none"
       d="m 342.50497,791.79247 0.165,-6.66625 6.98125,-193.80125 18.03,-35.6625" />
    <path
       id="path5143"
       style="fill:none;stroke:#7b7979;stroke-width:0.59500003;stroke-linecap:round;stroke-linejoin:miter;stroke-miterlimit:4;stroke-opacity:1;stroke-dasharray:none"
       d="m 343.90022,790.52234 0.005,-0.9375" />
    <path
       id="path5147"
       style="fill:none;stroke:#7b7979;stroke-width:0.59500003;stroke-linecap:round;stroke-linejoin:miter;stroke-miterlimit:4;stroke-opacity:1;stroke-dasharray:1.87625, 2.50125;stroke-dashoffset:0"
       d="m 343.91609,787.08297 0.004,-0.70625 6.98125,-193.80125 16.13,-32.33875" />
    <path
       id="path5151"
       style="fill:none;stroke:#7b7979;stroke-width:0.59500003;stroke-linecap:round;stroke-linejoin:miter;stroke-miterlimit:4;stroke-opacity:1;stroke-dasharray:none"
       d="m 367.58922,559.11797 0.41875,-0.83875" />
    <path
       id="path5155"
       style="fill:none;stroke:#7b7979;stroke-width:0.59500003;stroke-linecap:round;stroke-linejoin:miter;stroke-miterlimit:4;stroke-opacity:1;stroke-dasharray:none"
       d="m 341.20135,792.7001 0.0238,-0.9375" />
    <path
       id="path5163"
       style="fill:none;stroke:#7b7979;stroke-width:0.59500003;stroke-linecap:round;stroke-linejoin:miter;stroke-miterlimit:4;stroke-opacity:1;stroke-dasharray:none"
       d="m 366.00722,555.24885 0.42375,-0.83625" />
    <path
       id="path5167"
       style="fill:none;stroke:#7b7979;stroke-width:0.59500003;stroke-linecap:round;stroke-linejoin:miter;stroke-miterlimit:4;stroke-opacity:1;stroke-dasharray:none"
       d="m 148.54872,559.34135 0.1675,0.9225" />
    <path
       id="path5171"
       style="fill:none;stroke:#7b7979;stroke-width:0.59500003;stroke-linecap:round;stroke-linejoin:miter;stroke-miterlimit:4;stroke-opacity:1;stroke-dasharray:1.86125, 2.4825;stroke-dashoffset:0"
       d="m 149.15783,562.70684 10.59875,58.6225" />
    <path
       id="path5175"
       style="fill:none;stroke:#7b7979;stroke-width:0.59500003;stroke-linecap:round;stroke-linejoin:miter;stroke-miterlimit:4;stroke-opacity:1;stroke-dasharray:none"
       d="m 159.97696,622.55059 0.1675,0.9225" />
    <path
       id="path5179"
       style="fill:none;stroke:#7b7979;stroke-width:0.59500003;stroke-linecap:round;stroke-linejoin:miter;stroke-miterlimit:4;stroke-opacity:1;stroke-dasharray:none"
       d="m 151.04872,559.34135 0.1675,0.9225" />
    <path
       id="path5183"
       style="fill:none;stroke:#7b7979;stroke-width:0.59500003;stroke-linecap:round;stroke-linejoin:miter;stroke-miterlimit:4;stroke-opacity:1;stroke-dasharray:1.86125, 2.4825;stroke-dashoffset:0"
       d="m 151.65783,562.70684 10.59875,58.6225" />
    <path
       id="path5187"
       style="fill:none;stroke:#7b7979;stroke-width:0.59500003;stroke-linecap:round;stroke-linejoin:miter;stroke-miterlimit:4;stroke-opacity:1;stroke-dasharray:none"
       d="m 162.47696,622.55059 0.1675,0.9225" />
    <path
       id="path5191"
       style="fill:none;stroke:#7b7979;stroke-width:0.59500003;stroke-linecap:round;stroke-linejoin:miter;stroke-miterlimit:4;stroke-opacity:1;stroke-dasharray:none"
       d="m 278.45597,521.55447 -45.80875,34.1075 0,48.13125 -22.39875,19.94" />
    <path
       id="path5195"
       style="fill:#0000ff;stroke:#7b7979;stroke-width:0.59500003;stroke-linecap:round;stroke-linejoin:miter;stroke-miterlimit:4;stroke-opacity:1;stroke-dasharray:none"
       d="m 276.85197,520.92884 -0.7525,0.56125" />
    <path
       id="path5199"
       style="fill:none;stroke:#7b7979;stroke-width:0.59500003;stroke-linecap:round;stroke-linejoin:miter;stroke-miterlimit:4;stroke-opacity:1;stroke-dasharray:1.86625, 2.4875;stroke-dashoffset:0"
       d="m 274.10659,522.97722 -40.87875,30.5" />
    <path
       id="path5203"
       style="fill:none;stroke:#7b7979;stroke-width:0.59500003;stroke-linecap:round;stroke-linejoin:miter;stroke-miterlimit:4;stroke-opacity:1;stroke-dasharray:none"
       d="m 232.23158,554.22047 -0.7525,0.56125 -0.001,0.9375" />
    <path
       id="path5207"
       style="fill:none;stroke:#7b7979;stroke-width:0.59500003;stroke-linecap:round;stroke-linejoin:miter;stroke-miterlimit:4;stroke-opacity:1;stroke-dasharray:1.895, 2.5275;stroke-dashoffset:0"
       d="m 231.47471,558.24572 -0.055,42.95875" />
    <path
       id="path5211"
       style="fill:none;stroke:#7b7979;stroke-width:0.59500003;stroke-linecap:round;stroke-linejoin:miter;stroke-miterlimit:4;stroke-opacity:1;stroke-dasharray:none"
       d="m 231.41858,602.4676 -0.001,0.9375 -0.70125,0.62375" />
    <path
       id="path5215"
       style="fill:none;stroke:#7b7979;stroke-width:0.59500003;stroke-linecap:round;stroke-linejoin:miter;stroke-miterlimit:4;stroke-opacity:1;stroke-dasharray:1.83375, 2.445;stroke-dashoffset:0"
       d="m 228.89171,605.65422 -18.25875,16.255" />
    <path
       id="path5219"
       style="fill:none;stroke:#7b7979;stroke-width:0.59500003;stroke-linecap:round;stroke-linejoin:miter;stroke-miterlimit:4;stroke-opacity:1;stroke-dasharray:none"
       d="m 209.72058,622.72272 -0.70125,0.62375" />
    <path
       id="path5223"
       style="fill:#0000ff;stroke:#7b7979;stroke-width:0.59500003;stroke-linecap:round;stroke-linejoin:miter;stroke-miterlimit:4;stroke-opacity:1;stroke-dasharray:none"
       d="m 280.08684,522.11235 -0.75375,0.55875" />
    <path
       id="path5227"
       style="fill:none;stroke:#7b7979;stroke-width:0.59500003;stroke-linecap:round;stroke-linejoin:miter;stroke-miterlimit:4;stroke-opacity:1;stroke-dasharray:1.89875, 2.53125;stroke-dashoffset:0"
       d="m 277.3011,524.17834 -41.6775,30.90625" />
    <path
       id="path5231"
       style="fill:none;stroke:#7b7979;stroke-width:0.59500003;stroke-linecap:round;stroke-linejoin:miter;stroke-miterlimit:4;stroke-opacity:1;stroke-dasharray:none"
       d="m 234.60708,555.83847 -0.75375,0.55875 0,0.9375" />
    <path
       id="path5235"
       style="fill:none;stroke:#7b7979;stroke-width:0.59500003;stroke-linecap:round;stroke-linejoin:miter;stroke-miterlimit:4;stroke-opacity:1;stroke-dasharray:1.86375, 2.485;stroke-dashoffset:0"
       d="m 233.85147,559.81984 -0.0238,42.24875" />
    <path
       id="path5239"
       style="fill:none;stroke:#7b7979;stroke-width:0.59500003;stroke-linecap:round;stroke-linejoin:miter;stroke-miterlimit:4;stroke-opacity:1;stroke-dasharray:none"
       d="m 233.82696,603.31109 0,0.9375 -0.70125,0.62375" />
    <path
       id="path5243"
       style="fill:none;stroke:#7b7979;stroke-width:0.59500003;stroke-linecap:round;stroke-linejoin:miter;stroke-miterlimit:4;stroke-opacity:1;stroke-dasharray:1.83375, 2.445;stroke-dashoffset:0"
       d="m 231.30133,606.49772 -18.25875,16.255" />
    <path
       id="path5247"
       style="fill:none;stroke:#7b7979;stroke-width:0.59500003;stroke-linecap:round;stroke-linejoin:miter;stroke-miterlimit:4;stroke-opacity:1;stroke-dasharray:none"
       d="m 212.13022,623.56622 -0.70125,0.62375" />
    <path
       id="path5251"
       style="fill:none;stroke:#7b7979;stroke-width:0.59500003;stroke-linecap:round;stroke-linejoin:miter;stroke-miterlimit:4;stroke-opacity:1;stroke-dasharray:none"
       d="m 232.64659,603.79259 -81.5975,0" />
    <path
       id="path5255"
       style="fill:none;stroke:#7b7979;stroke-width:0.59500003;stroke-linecap:round;stroke-linejoin:miter;stroke-miterlimit:4;stroke-opacity:1;stroke-dasharray:none"
       d="m 232.64659,602.54259 -0.9375,0" />
    <path
       id="path5259"
       style="fill:none;stroke:#7b7979;stroke-width:0.59500003;stroke-linecap:round;stroke-linejoin:miter;stroke-miterlimit:4;stroke-opacity:1;stroke-dasharray:1.84, 2.4525;stroke-dashoffset:0"
       d="m 229.25671,602.54259 -76.04375,0" />
    <path
       id="path5263"
       style="fill:none;stroke:#7b7979;stroke-width:0.59500003;stroke-linecap:round;stroke-linejoin:miter;stroke-miterlimit:4;stroke-opacity:1;stroke-dasharray:none"
       d="m 151.98622,602.54259 -0.9375,0" />
    <path
       id="path5267"
       style="fill:none;stroke:#7b7979;stroke-width:0.59500003;stroke-linecap:round;stroke-linejoin:miter;stroke-miterlimit:4;stroke-opacity:1;stroke-dasharray:none"
       d="m 231.24283,605.0426 -0.9375,0" />
    <path
       id="path5271"
       style="fill:none;stroke:#7b7979;stroke-width:0.59500003;stroke-linecap:round;stroke-linejoin:miter;stroke-miterlimit:4;stroke-opacity:1;stroke-dasharray:1.91, 2.5475;stroke-dashoffset:0"
       d="m 227.75772,605.0426 -74.49875,0" />
    <path
       id="path5275"
       style="fill:none;stroke:#7b7979;stroke-width:0.59500003;stroke-linecap:round;stroke-linejoin:miter;stroke-miterlimit:4;stroke-opacity:1;stroke-dasharray:none"
       d="m 151.98622,605.0426 -0.9375,0" />
    <path
       id="path5279"
       style="fill:none;stroke:#7b7979;stroke-width:0.59500003;stroke-linecap:round;stroke-linejoin:miter;stroke-miterlimit:4;stroke-opacity:1;stroke-dasharray:none"
       d="m 232.64659,603.79259 -10.9725,154.9825" />
    <path
       id="path5283"
       style="fill:none;stroke:#7b7979;stroke-width:0.59500003;stroke-linecap:round;stroke-linejoin:miter;stroke-miterlimit:4;stroke-opacity:1;stroke-dasharray:none"
       d="m 231.39659,603.79259 -0.0662,0.935" />
    <path
       id="path5287"
       style="fill:#c1bfbd;fill-opacity:1;stroke:#7b7979;stroke-width:0.59500003;stroke-linecap:round;stroke-linejoin:miter;stroke-miterlimit:4;stroke-opacity:1;stroke-dasharray:1.84875, 2.46625;stroke-dashoffset:0"
       d="m 231.15609,607.18735 -10.58,149.4225" />
    <path
       id="path5291"
       style="fill:none;stroke:#7b7979;stroke-width:0.59500003;stroke-linecap:round;stroke-linejoin:miter;stroke-miterlimit:4;stroke-opacity:1;stroke-dasharray:none"
       d="m 220.48958,757.83985 -0.0662,0.935" />
    <path
       id="path5295"
       style="fill:none;stroke:#7b7979;stroke-width:0.59500003;stroke-linecap:round;stroke-linejoin:miter;stroke-miterlimit:4;stroke-opacity:1;stroke-dasharray:none"
       d="m 233.89659,603.79259 -0.0662,0.935" />
    <path
       id="path5299"
       style="fill:none;stroke:#7b7979;stroke-width:0.59500003;stroke-linecap:round;stroke-linejoin:miter;stroke-miterlimit:4;stroke-opacity:1;stroke-dasharray:1.84875, 2.46625;stroke-dashoffset:0"
       d="m 233.65609,607.18735 -10.58,149.4225" />
    <path
       id="path5303"
       style="fill:none;stroke:#7b7979;stroke-width:0.59500003;stroke-linecap:round;stroke-linejoin:miter;stroke-miterlimit:4;stroke-opacity:1;stroke-dasharray:none"
       d="m 222.98958,757.83985 -0.0662,0.935" />
    <path
       id="path5307"
       style="fill:none;stroke:#7b7979;stroke-width:0.59500003;stroke-linecap:round;stroke-linejoin:miter;stroke-miterlimit:4;stroke-opacity:1;stroke-dasharray:none"
       d="m 452.10587,559.34135 -0.1675,0.9225" />
    <path
       id="path5311"
       style="fill:none;stroke:#7b7979;stroke-width:0.59500003;stroke-linecap:round;stroke-linejoin:miter;stroke-miterlimit:4;stroke-opacity:1;stroke-dasharray:1.86125, 2.4825;stroke-dashoffset:0"
       d="m 451.49797,562.70684 -10.59875,58.6225" />
    <path
       id="path5315"
       style="fill:none;stroke:#7b7979;stroke-width:0.59500003;stroke-linecap:round;stroke-linejoin:miter;stroke-miterlimit:4;stroke-opacity:1;stroke-dasharray:none"
       d="m 440.67757,622.55059 -0.1675,0.9225" />
    <path
       id="path5319"
       style="fill:none;stroke:#7b7979;stroke-width:0.59500003;stroke-linecap:round;stroke-linejoin:miter;stroke-miterlimit:4;stroke-opacity:1;stroke-dasharray:none"
       d="m 449.60587,559.34135 -0.1675,0.9225" />
    <path
       id="path5323"
       style="fill:none;stroke:#7b7979;stroke-width:0.59500003;stroke-linecap:round;stroke-linejoin:miter;stroke-miterlimit:4;stroke-opacity:1;stroke-dasharray:1.86125, 2.4825;stroke-dashoffset:0"
       d="m 448.99797,562.70684 -10.59875,58.6225" />
    <path
       id="path5327"
       style="fill:none;stroke:#7b7979;stroke-width:0.59500003;stroke-linecap:round;stroke-linejoin:miter;stroke-miterlimit:4;stroke-opacity:1;stroke-dasharray:none"
       d="m 438.17757,622.55059 -0.1675,0.9225" />
    <path
       id="path5331"
       style="fill:none;stroke:#7b7979;stroke-width:0.59500003;stroke-linecap:round;stroke-linejoin:miter;stroke-miterlimit:4;stroke-opacity:1;stroke-dasharray:none"
       d="m 322.04234,521.29622 45.965,34.36625 0,48.13 22.39875,19.94125" />
    <path
       id="path5335"
       style="fill:#0000ff;stroke:#7b7979;stroke-width:0.59500003;stroke-linecap:round;stroke-linejoin:miter;stroke-miterlimit:4;stroke-opacity:1;stroke-dasharray:none"
       d="m 323.79772,520.71522 0.75,0.5625" />
    <path
       id="path5339"
       style="fill:none;stroke:#7b7979;stroke-width:0.59500003;stroke-linecap:round;stroke-linejoin:miter;stroke-miterlimit:4;stroke-opacity:1;stroke-dasharray:1.87, 2.49375;stroke-dashoffset:0"
       d="m 326.54184,522.77509 40.88625,30.695" />
    <path
       id="path5343"
       style="fill:none;stroke:#7b7979;stroke-width:0.59500003;stroke-linecap:round;stroke-linejoin:miter;stroke-miterlimit:4;stroke-opacity:1;stroke-dasharray:none"
       d="m 368.42547,554.2186 0.75,0.5625 10e-4,0.9375" />
    <path
       id="path5347"
       style="fill:none;stroke:#7b7979;stroke-width:0.59500003;stroke-linecap:round;stroke-linejoin:miter;stroke-miterlimit:4;stroke-opacity:1;stroke-dasharray:1.895, 2.5275;stroke-dashoffset:0"
       d="m 369.17984,558.24572 0.055,42.95875" />
    <path
       id="path5351"
       style="fill:none;stroke:#7b7979;stroke-width:0.59500003;stroke-linecap:round;stroke-linejoin:miter;stroke-miterlimit:4;stroke-opacity:1;stroke-dasharray:none"
       d="m 369.23597,602.4676 10e-4,0.9375 0.70125,0.62375" />
    <path
       id="path5355"
       style="fill:none;stroke:#7b7979;stroke-width:0.59500003;stroke-linecap:round;stroke-linejoin:miter;stroke-miterlimit:4;stroke-opacity:1;stroke-dasharray:1.83375, 2.445;stroke-dashoffset:0"
       d="m 371.76285,605.65422 18.25875,16.255" />
    <path
       id="path5359"
       style="fill:none;stroke:#7b7979;stroke-width:0.59500003;stroke-linecap:round;stroke-linejoin:miter;stroke-miterlimit:4;stroke-opacity:1;stroke-dasharray:none"
       d="m 390.93397,622.72272 0.70125,0.62375" />
    <path
       id="path5363"
       style="fill:#0000ff;stroke:#7b7979;stroke-width:0.59500003;stroke-linecap:round;stroke-linejoin:miter;stroke-miterlimit:4;stroke-opacity:1;stroke-dasharray:none"
       d="m 320.65809,522.11235 0.7525,0.55875" />
    <path
       id="path5367"
       style="fill:none;stroke:#7b7979;stroke-width:0.59500003;stroke-linecap:round;stroke-linejoin:miter;stroke-miterlimit:4;stroke-opacity:1;stroke-dasharray:1.89625, 2.5275;stroke-dashoffset:0"
       d="m 323.4401,524.17897 41.5925,30.905" />
    <path
       id="path5371"
       style="fill:none;stroke:#7b7979;stroke-width:0.59500003;stroke-linecap:round;stroke-linejoin:miter;stroke-miterlimit:4;stroke-opacity:1;stroke-dasharray:none"
       d="m 366.04872,555.83784 0.7525,0.55875 0,0.9375" />
    <path
       id="path5375"
       style="fill:none;stroke:#7b7979;stroke-width:0.59500003;stroke-linecap:round;stroke-linejoin:miter;stroke-miterlimit:4;stroke-opacity:1;stroke-dasharray:1.86375, 2.485;stroke-dashoffset:0"
       d="m 366.80309,559.81984 0.0238,42.24875" />
    <path
       id="path5379"
       style="fill:none;stroke:#7b7979;stroke-width:0.59500003;stroke-linecap:round;stroke-linejoin:miter;stroke-miterlimit:4;stroke-opacity:1;stroke-dasharray:none"
       d="m 366.82747,603.31109 0,0.9375 0.70125,0.62375" />
    <path
       id="path5383"
       style="fill:none;stroke:#7b7979;stroke-width:0.59500003;stroke-linecap:round;stroke-linejoin:miter;stroke-miterlimit:4;stroke-opacity:1;stroke-dasharray:1.83375, 2.445;stroke-dashoffset:0"
       d="m 369.3531,606.49772 18.25875,16.255" />
    <path
       id="path5387"
       style="fill:none;stroke:#7b7979;stroke-width:0.59500003;stroke-linecap:round;stroke-linejoin:miter;stroke-miterlimit:4;stroke-opacity:1;stroke-dasharray:none"
       d="m 388.52434,623.56622 0.70125,0.62375" />
    <path
       id="path5391"
       style="fill:none;stroke:#7b7979;stroke-width:0.59500003;stroke-linecap:round;stroke-linejoin:miter;stroke-miterlimit:4;stroke-opacity:1;stroke-dasharray:none"
       d="m 368.00797,603.79259 80.995,0" />
    <path
       id="path5395"
       style="fill:none;stroke:#7b7979;stroke-width:0.59500003;stroke-linecap:round;stroke-linejoin:miter;stroke-miterlimit:4;stroke-opacity:1;stroke-dasharray:none"
       d="m 368.00797,602.54259 0.9375,0" />
    <path
       id="path5399"
       style="fill:none;stroke:#7b7979;stroke-width:0.59500003;stroke-linecap:round;stroke-linejoin:miter;stroke-miterlimit:4;stroke-opacity:1;stroke-dasharray:1.84, 2.4525;stroke-dashoffset:0"
       d="m 371.39785,602.54259 76.04375,0" />
    <path
       id="path5403"
       style="fill:none;stroke:#7b7979;stroke-width:0.59500003;stroke-linecap:round;stroke-linejoin:miter;stroke-miterlimit:4;stroke-opacity:1;stroke-dasharray:none"
       d="m 448.66837,602.54259 0.9375,0" />
    <path
       id="path5407"
       style="fill:none;stroke:#7b7979;stroke-width:0.59500003;stroke-linecap:round;stroke-linejoin:miter;stroke-miterlimit:4;stroke-opacity:1;stroke-dasharray:none"
       d="m 369.41172,605.0426 0.9375,0" />
    <path
       id="path5411"
       style="fill:none;stroke:#7b7979;stroke-width:0.59500003;stroke-linecap:round;stroke-linejoin:miter;stroke-miterlimit:4;stroke-opacity:1;stroke-dasharray:1.895, 2.52625;stroke-dashoffset:0"
       d="m 372.87609,605.0426 73.9075,0" />
    <path
       id="path5415"
       style="fill:none;stroke:#7b7979;stroke-width:0.59500003;stroke-linecap:round;stroke-linejoin:miter;stroke-miterlimit:4;stroke-opacity:1;stroke-dasharray:none"
       d="m 448.04697,605.0426 0.9375,0" />
    <path
       id="path5419"
       style="fill:none;stroke:#7b7979;stroke-width:0.59500003;stroke-linecap:round;stroke-linejoin:miter;stroke-miterlimit:4;stroke-opacity:1;stroke-dasharray:none"
       d="m 368.00797,603.79259 10.9725,154.9825" />
    <path
       id="path5423"
       style="fill:none;stroke:#7b7979;stroke-width:0.59500003;stroke-linecap:round;stroke-linejoin:miter;stroke-miterlimit:4;stroke-opacity:1;stroke-dasharray:none"
       d="m 369.25797,603.79259 0.0663,0.935" />
    <path
       id="path5427"
       style="fill:none;stroke:#7b7979;stroke-width:0.59500003;stroke-linecap:round;stroke-linejoin:miter;stroke-miterlimit:4;stroke-opacity:1;stroke-dasharray:1.86125, 2.48125;stroke-dashoffset:0"
       d="m 369.49959,607.20259 10.33875,146.02125" />
    <path
       id="path5431"
       style="fill:none;stroke:#7b7979;stroke-width:0.59500003;stroke-linecap:round;stroke-linejoin:miter;stroke-miterlimit:4;stroke-opacity:1;stroke-dasharray:none"
       d="m 379.92572,754.46159 0.0662,0.935" />
    <path
       id="path5435"
       style="fill:none;stroke:#7b7979;stroke-width:0.59500003;stroke-linecap:round;stroke-linejoin:miter;stroke-miterlimit:4;stroke-opacity:1;stroke-dasharray:none"
       d="m 366.75797,603.79259 0.0663,0.935" />
    <path
       id="path5439"
       style="fill:none;stroke:#7b7979;stroke-width:0.59500003;stroke-linecap:round;stroke-linejoin:miter;stroke-miterlimit:4;stroke-opacity:1;stroke-dasharray:1.84875, 2.46625;stroke-dashoffset:0"
       d="m 366.99847,607.18735 10.57875,149.4225" />
    <path
       id="path5443"
       style="fill:none;stroke:#7b7979;stroke-width:0.59500003;stroke-linecap:round;stroke-linejoin:miter;stroke-miterlimit:4;stroke-opacity:1;stroke-dasharray:none"
       d="m 377.66497,757.83985 0.0663,0.935" />
    <path
       style="fill:none;stroke:none"
       d="m 3.8231424,48.949938 -2.7774634,1.494776 11.055285,61.010406 3.371412,0.0337 z m 308.3885976,0.320887 -11.33357,62.113535 2.41669,0.0355 11.07132,-61.009602 z"
       id="path3087"
       transform="translate(142.03125,511.75)" />
    <path
       style="fill:none;stroke:none"
       d="m 91.993811,43.195389 -1.10543,0.860922 0.05082,3.386681 15.034339,32.797725 6.82968,195.135673 3.13737,3.51548 -7.19538,-200.608223 z m 132.154549,-0.279856 -17.25894,36.196641 -7.86915,202.209606 2.73082,-2.15594 7.69521,-199.532035 16.27245,-32.633414 0.006,-2.894264 z"
       transform="translate(142.03125,511.75)"
       id="path3115" />
    <path
       style="fill:none;stroke:none"
       d="m 266.0463,512.8679 -1.78082,0.46077 c 12.26407,17.88918 59.48285,17.08969 70.92634,-0.13637 l -1.85267,-0.3096 c -8.38418,15.75248 -57.05113,16.62804 -67.29285,-0.0148 z"
       id="path3136" />
    <path
       style="fill:none;stroke:none"
       d="m 182.16879,9.0929556 -3.34992,1.4303344 45.86339,34.164692 0.14877,48.052825 22.03817,19.550613 0.12203,-0.69117 2.76852,-0.0126 -22.40031,-19.959699 -0.005,-48.56922 z m -47.95143,0.3660424 -44.827031,33.51871 -0.03981,48.671376 -22.33887,19.947616 1.338809,0.19538 0.219634,1.56397 23.253951,-20.760711 0.11704,-47.926751 45.791397,-33.86186 c -0.74199,-0.31846 -1.76456,-0.722313 -3.51512,-1.34773 z"
       transform="translate(142.03125,511.75)"
       id="path3138" />
    <path
       style="fill:none;stroke:none"
       d="m 89.350964,92.040068 -10.3891,145.907972 0.649648,9.03879 1.378629,0.91621 10.920104,-155.868584 z m 137.904226,0.0451 -2.60892,-0.05322 11.2071,156.693202 1.8181,-0.92788 0.121,-6.87743 z"
       transform="translate(142.03125,511.75)"
       id="path3159" />
    <path
       style="fill:none;stroke:none"
       d="m 225.86185,90.65983 0.0864,2.724325 80.70226,0.02847 0.40979,-2.676791 z M 90.463928,90.755611 8.2708418,90.623397 8.8012902,93.44871 90.463928,93.334932 z"
       transform="translate(142.03125,511.75)"
       id="path3180" />
    <text
       id="backnumbertxt">
      <tspan
         id="backnumber"
         class="backnumber base3"
         x="301"
         y="665"
         style="line-spacing:1px;">34</tspan>
    </text>
    <text
       id="backnametxt">
      <tspan
         id="backname"
         class="backname"
         x="302"
         y="585"
         style="line-spacing:1px;">LAST NAME</tspan>
      </text>
    <image
       y="547.04834"
       x="278.18399"
       id="tl6"
       xlink:href=""
       height="0"
       width="30"
       transform="matrix(0.9999367,-0.01125167,0.01125167,0.9999367,0,0)"
       clip-path="url(#clipPath3946)" />
    <image
       y="606.48303"
       x="-263.23358"
       id="tl8"
       xlink:href=""
       height="0"
       width="30"
       transform="matrix(0.51933029,-0.85457361,0.85457361,0.51933029,31.118301,16.718739)"
       clip-path="url(#clipPath3987)" />
    <image
       y="156.32306"
       x="484.90967"
       id="tl5"
       xlink:href=""
       height="0"
       width="30"
       transform="matrix(0.48391262,0.87511632,-0.87511632,0.48391262,74.932932,29.203421)"
       clip-path="url(#clipPath3232)"
       inkscape:label="tl5" />
	   <path
       style="fill:#ffffff;stroke:none"
       d="m 129.35809,534.34128 20.62339,22.98485 44.3954,-24.24429 -19.83624,-13.69646 -43.76567,0.78716 z"
       id="logobleed1"
       class="logobleed"
       inkscape:connector-curvature="0"
       inkscape:label="#path3134" />
    <path
       style="fill:#ffffff;stroke:none"
       d="m 470.60547,534.62832 -20.62339,22.98485 -44.3954,-24.2443 19.83624,-13.69645 43.76568,0.78715 z"
       id="logobleed2"
       class="logobleed"
       inkscape:connector-curvature="0"
       inkscape:label="#path3134-1" />
  </g>
</svg>
