<?xml version="1.0" encoding="utf-8"?>
<!-- Generator: Adobe Illustrator 19.0.1, SVG Export Plug-In . SVG Version: 6.00 Build 0)  -->
<svg version="1.2" baseProfile="tiny" id="Layer_1" xmlns="http://www.w3.org/2000/svg" xmlns:xlink="http://www.w3.org/1999/xlink"
	 x="0px" y="0px" viewBox="0 0 480 670" xml:space="preserve">
<g id="XMLID_3_">
	<path id="XMLID_1268_" fill="#594E50" d="M2.2-1.6h-3.3C-0.4-1.2,0.9-1.3,2.2-1.6z"/>
	<path id="XMLID_1269_" fill="#594E50" d="M324.5-1.6h-5.4C321.2-0.2,323.2-0.2,324.5-1.6z"/>
	<path id="XMLID_1270_" fill="#594E50" d="M307.6,0.1c1-0.5,1.8-1,2.6-1.7H306C306.6-1.1,307.2-0.5,307.6,0.1z"/>
	<path id="XMLID_1271_" fill="#594E50" d="M333.6-1.6h-3.3C331-1.2,332.3-1.3,333.6-1.6z"/>
	<path id="XMLID_1272_" fill="#594E50" d="M363.4,1.9c-0.3,0-0.5,0-0.8,0c-0.2,0-0.4,0.1-0.6,0.1c0,0-0.1,0-0.1,0
		c-0.5,0.1-1,0.2-1.4,0.4c-0.1,0-0.1,0-0.2,0.1h-0.1c-0.3,0.1-0.6,0.3-0.9,0.5c0,0,0,0,0,0c-0.1,0.1-0.2,0.2-0.3,0.3c0,0,0,0,0,0
		c-0.1,0.1-0.2,0.2-0.2,0.3c0,0,0,0.1,0,0.1c0,0.1-0.1,0.2-0.1,0.2c0,0,0,0.1,0,0.1c0,0.1,0,0.1,0,0.2c0,0.1,0,0.1,0,0.2
		c0,0.1,0,0.1,0,0.2c0,0.1,0.1,0.2,0.2,0.4c0.1,0.1,0.2,0.3,0.3,0.4c-1.5,0.9-3,1.4-5,0.3c-3.9-2.3-8.2-0.2-9.7-2.9
		c-1.9,1.5-2.6,6-0.3,7.9c1.6,1.4,2.8-0.1,4.3-0.8c3.7-1.9,5-0.6,6.8,0.5c1.9,1.1,17.4,5.5,22.1-0.8c0.3-0.3,0.5-0.6,0.8-0.9
		c4.5-5,10-0.9,11.2,0.9c1.3,1.9,10.4-1.4,11.2,2.2c0.8,3.6,1.1,4.7,8.3,1.9c7.2-2.8,6.7,4.4,4.3,7.5c-0.8,1-2,1.4-3.3,1.5
		c0.7,1.3,1.1,2.3,1.2,3.9c0.2,2.7,2,2.9,7.8,5.8c4.1,2.1,11.4,3.8,18,4.7c2.7,0.3,5.2,0.5,7.4,0.5c7.6,0,17.4-0.8,22-2.9
		c4.6-2.1,4.8-3.9,4-6.4c-0.8-2.4,2.7-7.2-1.1-6.9c-0.1,0-0.2,0-0.3,0c-4.1,0.5-8.4,0.9-12-3.5c-3.6-4.4-3.8-7.9-13.6-7.3
		c-2.3,0.1-4.5,0.2-6.4,0.2c-6.3-0.1-10.6-1.3-13.4-3.7c-0.4-0.3-0.7-0.7-1.1-1c-0.2-0.2-0.3-0.3-0.5-0.5c-0.2-0.2-0.4-0.4-0.6-0.6
		c-0.2-0.3-0.5-0.5-0.7-0.8c-0.1-0.1-0.2-0.3-0.4-0.4c-0.2-0.3-0.4-0.5-0.6-0.8c-0.1-0.1-0.2-0.2-0.3-0.4h0c-0.5-0.7-0.9-1.4-1.1-2
		c0,0,0,0,0,0c0-0.1-0.1-0.2-0.1-0.3c0,0,0,0,0,0c0-0.1,0-0.2-0.1-0.3c0,0,0,0,0,0c0-0.1,0-0.2,0-0.2c0,0,0,0,0-0.1
		c0-0.1,0-0.1,0-0.2c0,0,0,0,0-0.1c0,0,0-0.1,0.1-0.1c0,0,0,0,0.1-0.1c0,0,0.1-0.1,0.1-0.1c0,0,0.1,0,0.1,0c0,0,0.1-0.1,0.1-0.1
		c0,0,0.1,0,0.1,0c0.1,0,0.1,0,0.2,0c0.1,0,0.1,0,0.2,0c0.1,0,0.1,0,0.2,0c0.1,0,0.2,0,0.3,0c0.1,0,0.1,0,0.2,0c0.2,0,0.3,0,0.5,0.1
		c1.8,0.4,3.3,0,4.9-0.6h-55.5C367.8,1.6,365.7,1.9,363.4,1.9z"/>
	<path id="XMLID_1273_" fill="#594E50" d="M2.3,114.3c3.4,1.6,3.5,5.6,11.2,6c1.6,0.1,5.3,0.1,7.3-1.1c1.4-0.5,1.6-3,3.4-3.9
		c2.6-1.2,3.4-0.6,5.1-0.7c2.2,0.6,1.3,1.2,3.9,2.8c4.8,2.9,5.5,0,8.7-3.2c3.2-3.2,6.4-2.1,10.9,2.1c4.5,4.3,3.2,4.3,9.6,4
		c3.7-0.2,3.9-3.7,3.5-6.7c-2.5-1-4.9-2.5-6.9-4.7c-0.1-0.1-0.3-0.3-0.4-0.4c-7.5-8.8-10,3.1-14.4-2.9c-0.4-0.7-0.6-1.5-0.9-2.3
		c-0.4-4.7,5.4-10.5-0.2-12.6c-1.6-0.6-3.1-1-4.7-1.4c0,0,0,0,0,0c-1.2,3.2-5.6,2.1-9,0.7c-3.5-1.4-7.7,0.1-5.9,2.7
		c1.8,2.6,0,3.3-9,4.8c-9,1.5-9.5-1.4-9.3-3.3c0.2-1.9-0.5-2.3-4.9-2.5c-0.5,0-1,0-1.3,0.1v22.3C-0.4,113.9,0.6,113.8,2.3,114.3z"/>
	<path id="XMLID_1274_" fill="#594E50" d="M0.6,219.6c1,2.3,3.3,5.2,4.9,3.5c1.6-1.7,3-2.8,5.7-2.3c2.7,0.5,3.6-2.1,2.4-4.3
		c-1.2-2.2-5.1-1.1-7.2-0.5c-2.1,0.6-4.9-2.6-7.1-4.5c-0.1-0.1-0.3-0.2-0.4-0.3v6.9C-0.4,218.4,0.3,218.9,0.6,219.6z"/>
	<path id="XMLID_1275_" fill="#594E50" d="M2.7,239.4c3.2,0.3,2.1-2.5,4.5-5.8c0.4-0.5,0.9-1,1.5-1.5c0.4-0.9,1-1.4,2.2-1.9
		c-3.7-0.9-5.2,3.6-7.8,4.6c0-0.1-0.2,0-0.7,0.2c-0.1,0-0.1,0-0.2,0c-0.6,0-1.3-0.1-2.1-0.6c-0.4-0.2-0.8-0.5-1.2-0.9v9.2
		C2,241.9,0,239.2,2.7,239.4z"/>
	<path id="XMLID_1276_" fill="#594E50" d="M3,329.6c2.6-1.4,5.7-3.4,8.6-4.6c-2.4-7.4-9-8-12.4-3.5c-0.1,0.2-0.3,0.3-0.4,0.5v7.8
		C-0.2,330.3,1.5,330.1,3,329.6z"/>
	<path id="XMLID_1277_" fill="#594E50" d="M35.4,193.7c-1-1.2-2.3-2.3-5.1-1.9c-6.1,0.9-11.1-3.7-13.3-4.8c-2.2-1.1-4.4,3.2-1.1,6.1
		c0.6,0.5,1.1,1.2,1.6,1.9c0.8,1.3,1.2,2.8,1.2,4.1c0,1-0.2,1.9-0.6,2.6c-0.1,0.4-0.5,0.9-1.1,1.5c-1.7,1.5-0.9,5.7,3.2,6.4
		c2.8,0.5,3.7,1.7,4.1,3.4c0.1,0.2,0.2,0.4,0.2,0.7c0.5,3.7,5.1,8.3,7.9,8.1c9.4-0.8,1.4,6.6,9.9,5c8-1.5,13.9,1.7,8.6,4.5
		c0.2,0,0.4,0,0.6,0c5.4,0.4,10.5,1.5,12.1-1.9c1.5-3.1,3.5-3.7,7.8-3.8c-3.6-0.7-5.2-2.9-5.1-4.3c-0.1-1.9,2.2-2,3.8-1.4
		c1.7,0.6,2.4-1.2,4.2-1.7c1.8-0.5,5,0.6,6.4,1.1c1.4,0.5,2.3-2.7,2.4-4c0.1-1.3,0.8-2.2,2.7-2.6c1.9-0.4,3-1.4,6.4-0.3
		c0.1,0,0.2,0.1,0.3,0.1c0.1,0,0.1,0,0.2,0c0.7,0.1,1.3,0.1,1.7,0c0,0,0.1,0,0.1,0c0,0,0,0,0,0c1.1-0.5,1.5-1.8,2-3.2
		c0-0.1,0-0.3,0.1-0.4c0.2-0.3,0.3-0.6,0.3-0.8c0.1-0.5,0.1-1,0-1.6c-0.1-0.4-0.2-0.7-0.3-1.1c-0.5-2.5-3.5-3-3.7-5.2
		c-0.2-2.5-1-3.6-4-3.7c-3-0.1-4.1,0.8-5.5,3c-1.4,2.1-4.1,1.4-4.4-0.3c-0.3-1.7-1.8-1.8-5.3,0.6c-1.5,1.1-2.1,1.9-1.9,2.8
		c0.1,0.2,0.2,0.3,0.4,0.5c1.3,1.5,4.4,2.3,3.7,4c-0.7,1.7-2.3,4.4-6.1,4.7c-3.9,0.3-4.7-1.1-4.7-3.3c0-1.1-0.2-2-0.8-2.8
		c-0.7-0.7-1.8-1-3.7-0.4c-5.8,1.8-9.8,1.1-9.7-2.9c0.1-2.9-3.3-4.6-7-5.3c-1.3-0.2-2.7-0.3-4-0.3C37.5,196.9,36.7,195.1,35.4,193.7
		z"/>
	<path id="XMLID_1278_" fill="#594E50" d="M32.1,1.9c-0.3,0-0.5,0-0.8,0C31.1,2,30.9,2,30.7,2c-0.1,0-0.1,0-0.2,0
		c-0.5,0.1-1,0.2-1.4,0.4c-0.1,0-0.1,0-0.2,0.1h-0.1C28.5,2.7,28.2,2.8,28,3c0,0,0,0,0,0c-0.1,0.1-0.2,0.2-0.3,0.3c0,0,0,0,0,0
		c-0.1,0.1-0.1,0.2-0.2,0.2c0,0,0,0.1,0,0.1c0,0.1-0.1,0.1-0.1,0.2c0,0,0,0.1,0,0.1c0,0.1,0,0.1,0,0.2c0,0.1,0,0.1,0,0.2
		c0,0,0,0.1,0,0.1c0,0.1,0.1,0.2,0.2,0.4c0.1,0.1,0.2,0.3,0.3,0.4c-1.5,0.9-3,1.4-5,0.3c-3.9-2.3-8.2-0.2-9.7-2.9
		c-1.9,1.5-2.6,6-0.3,7.9c1.6,1.4,2.8-0.1,4.3-0.8c3.7-1.9,5-0.6,6.8,0.5c1.9,1.1,17.4,5.5,22.1-0.8c0.3-0.3,0.5-0.6,0.8-0.9
		c4.5-5,10-0.9,11.2,0.9c1.3,1.9,10.4-1.4,11.2,2.2c0.8,3.6,1.1,4.7,8.3,1.9c7.2-2.8,6.7,4.4,4.3,7.5c-0.8,1-2,1.4-3.3,1.5
		c0.7,1.3,1.1,2.3,1.2,3.9c0.2,2.7,2,2.9,7.8,5.8c4.1,2.1,11.4,3.8,18,4.7c2.7,0.3,5.2,0.5,7.4,0.5c7.6,0,17.4-0.8,22-2.9
		c4.6-2.1,4.8-3.9,4-6.4c-0.8-2.4,2.7-7.2-1.1-6.9c-0.1,0-0.2,0-0.3,0c-4.1,0.5-8.4,0.9-12-3.5c-3.6-4.4-3.8-7.9-13.6-7.3
		c-2.3,0.1-4.5,0.2-6.4,0.2C99.2,10.6,94.8,9.4,92,7c-0.4-0.3-0.7-0.7-1.1-1c-0.2-0.2-0.5-0.5-0.7-0.7C90.1,5.2,90,5,89.8,4.9
		c-0.3-0.3-0.6-0.6-0.8-0.9c-0.1-0.1-0.1-0.2-0.2-0.2c-0.3-0.3-0.5-0.6-0.8-1c-0.1-0.1-0.1-0.1-0.2-0.2h0c-0.3-0.4-0.6-0.9-0.8-1.3
		c0,0,0,0,0,0c-0.1-0.1-0.1-0.2-0.2-0.4c0,0,0,0,0,0c0-0.1-0.1-0.2-0.1-0.3c0,0,0,0,0-0.1c0-0.1-0.1-0.2-0.1-0.3c0,0,0,0,0-0.1
		c0-0.1,0-0.2,0-0.2c0,0,0-0.1,0-0.1c0-0.1,0-0.1,0-0.2c0,0,0-0.1,0-0.1c0,0,0-0.1,0-0.1c0,0,0-0.1,0-0.1c0,0,0-0.1,0.1-0.1
		c0,0,0,0,0.1-0.1c0,0,0.1-0.1,0.1-0.1c0,0,0.1,0,0.1-0.1C87-1,87-1,87-1c0,0,0.1,0,0.1,0c0,0,0.1,0,0.1,0c0.1,0,0.1,0,0.2,0
		c0.1,0,0.1,0,0.2,0c0.1,0,0.2,0,0.3,0c0.1,0,0.1,0,0.2,0c0.2,0,0.3,0,0.5,0.1c1.8,0.4,3.3,0,4.9-0.6H38C36.4,1.6,34.3,1.9,32.1,1.9
		z"/>
	<path id="XMLID_1279_" fill="#594E50" d="M87.4,363.7c4.1,2.1,11.4,3.8,18,4.7c2.7,0.3,5.2,0.5,7.4,0.5c7.6,0,17.4-0.8,22-2.9
		c4.6-2.1,4.8-3.9,4-6.4c-0.8-2.4,2.7-7.2-1.1-6.9c-0.1,0-0.2,0-0.3,0c-4.1,0.5-8.4,0.9-12-3.5c-3.6-4.4-3.8-7.9-13.6-7.3
		c-2.3,0.1-4.5,0.2-6.4,0.2c-6.3-0.1-10.6-1.3-13.4-3.7c-0.4-0.3-0.7-0.7-1.1-1c-0.2-0.2-0.4-0.4-0.6-0.6c-0.2-0.2-0.3-0.3-0.5-0.5
		c-0.3-0.3-0.5-0.6-0.8-0.9c-0.1-0.1-0.2-0.2-0.3-0.3c-0.2-0.3-0.5-0.6-0.7-0.8c-0.1-0.1-0.2-0.2-0.2-0.3h-0.1
		c-0.2-0.3-0.4-0.6-0.6-0.9c0,0,0,0,0,0c-0.1-0.1-0.1-0.2-0.2-0.4c0,0,0,0,0,0c-0.1-0.1-0.1-0.2-0.2-0.3c0,0,0,0,0,0
		c0-0.1-0.1-0.2-0.1-0.3c0,0,0,0,0-0.1c0-0.1-0.1-0.2-0.1-0.3c0,0,0,0,0-0.1c0-0.1,0-0.1,0-0.2c0,0,0-0.1,0-0.1c0-0.1,0-0.1,0-0.2
		c0,0,0-0.1,0-0.1c0-0.1,0-0.1,0-0.1c0,0,0-0.1,0-0.1c0,0,0-0.1,0.1-0.1c0,0,0,0,0.1-0.1c0,0,0.1-0.1,0.1-0.1c0,0,0.1,0,0.1-0.1
		c0,0,0.1,0,0.1-0.1c0,0,0.1,0,0.1,0c0,0,0.1,0,0.1,0c0.1,0,0.1,0,0.2,0c0.1,0,0.1,0,0.2,0c0.1,0,0.2,0,0.3,0c0.1,0,0.1,0,0.2,0
		c0.2,0,0.3,0,0.5,0.1c5,1,8.4-3.7,14.2-3.7c0.8,0,1.7,0.1,2.6,0.2c5.7,0.6,13.3,2.8,18,2.8c5.4,0,10.4-2.3,14.8-2.5
		c4.4-0.2,7.6,0.4,7.4-1.9c-0.2-2.3-4.4-4.6-10.6-4.2c-6.2,0.4-9.6-0.2-11.2-2.5c-1.6-2.3-5.6-3.5-10.2-3.1
		c-4.6,0.4-7.4-2.9-3.2-3.5c4.2-0.6,7.8-4.4,12.2-1.7c4.4,2.7,8-3.9,14-2.3c6,1.7,14.2,3.1,22,3.9c7.8,0.8,12,0,12.6-2.5
		c0.1-0.2,0-0.4-0.1-0.6c-0.9-1.5-8,0.2-18.1-2.1c-11.2-2.5-24.2-6-26-9.6c-1.8-3.5-2-7.3,5.4-5.8c7.4,1.5,12.6-1.9,12.4-4.2
		c-0.2-2.3-9-6.9-22-7.3c-7.6-0.2-13.9-1.9-17.4-3.8c-2.5-1.4-3.6-2.9-2.6-4.1c0.5-0.6,1.4-1.3,2.6-2c4.3-2.4,12.6-4.4,20.8-0.3
		c10.4,5.2,11.2,6.4,21.8,5.4c10.6-1,22.2-4.4,30.8,1.2c8.6,5.6-1.8,7.5-6.4,8.7c-4.6,1.2-9.6,0-7.8,4.4c1.8,4.4,14.8,3.3,18.8,6.6
		c0.2,0.1,0.4,0.3,0.6,0.4c0.1,0,0.1,0.1,0.2,0.1c0.2,0.1,0.3,0.2,0.5,0.3c0.1,0,0.2,0.1,0.2,0.1c0.2,0.1,0.4,0.2,0.6,0.2
		c0.1,0,0.2,0.1,0.2,0.1c0.2,0.1,0.4,0.1,0.6,0.2c0.1,0,0.2,0,0.2,0.1c0.2,0.1,0.5,0.1,0.7,0.2c0.1,0,0.1,0,0.2,0
		c0.3,0.1,0.6,0.1,0.8,0.2c0,0,0.1,0,0.1,0c0.3,0.1,0.6,0.1,1,0.2c0,0,0,0,0,0c3.3,0.5,7.3,0.7,10.7,1.2v0c0.7,0.1,1.3,0.2,1.9,0.3
		c0,0,0,0,0.1,0c0.3,0.1,0.5,0.1,0.8,0.2c0.1,0,0.1,0,0.1,0c0.2,0.1,0.5,0.1,0.7,0.2c0.1,0,0.1,0,0.2,0.1c0.2,0.1,0.4,0.1,0.6,0.2
		c0.1,0,0.2,0.1,0.3,0.1c0.2,0.1,0.3,0.1,0.4,0.2c0.1,0.1,0.2,0.1,0.3,0.2c0.1,0.1,0.2,0.1,0.3,0.2c0.2,0.1,0.4,0.2,0.6,0.4
		c3.3,2.4,7.7,0.9,11.4-1.1c1.4-0.8,2.7-1.6,3.8-2.3c4-2.5,4.8-5.6-2.6-5.6c-0.8,0-1.6-0.1-2.4-0.1c-1.7,0.2-3.2,0.3-4.6,0.4
		c-6.4,0.2-9-5.4-11.6-10c-0.1-0.2-0.3-0.4-0.4-0.6v-0.1c-0.1-0.1-0.1-0.1-0.2-0.2c-0.1-0.1-0.3-0.2-0.4-0.3c-0.1,0-0.1-0.1-0.2-0.1
		c-0.2-0.1-0.3-0.2-0.5-0.3c-0.1,0-0.1,0-0.2-0.1c-0.2-0.1-0.4-0.1-0.6-0.2c-0.1,0-0.1,0-0.2,0c-0.2,0-0.4-0.1-0.6-0.1
		c-0.1,0-0.1,0-0.2,0c-0.2,0-0.5,0-0.7,0c0,0-0.1,0-0.1,0c-2,0.1-4.2,0.7-5.9,1c0,0,0,0-0.1,0c-0.2,0-0.4,0-0.6,0.1
		c-0.1,0-0.1,0-0.2,0c-0.2,0-0.3,0-0.5,0c-0.1,0-0.1,0-0.2,0c-0.1,0-0.3,0-0.4-0.1c-0.1,0-0.1,0-0.2,0c-0.2,0-0.3-0.1-0.5-0.2
		c-1.5-0.9-0.6-2.1,0.8-3.8c0.9-1.2,2.1-2.5,3-4.3c0.1-0.1,0.1-0.3,0.2-0.4c-1.1,0.1-2.3,0.3-4,0.1c-1-0.1-2.1-0.4-3.4-0.9
		c-9-3.5-14.2-3.5-18-7.5c-3.7-3.8,4.2-7.8,11.3-9.8c-5-6.2-3.6-9.6-1.3-12.7c2-2.6,2.9-4.6,1.8-7.2c-0.7-0.9-1.6-1.8-2.4-2.8
		c-1.1,1.3-2.7,1.6-5.5,0.3c-0.7-0.3-1.4-0.9-1.9-1.7c-0.3-0.7-0.7-1.6-1-2.8c-0.5-1.7-1.1-3.3-1.7-4.8c-1.7-3.9-3.9-6.9-7.3-7.1
		c-3.6-0.2-8-0.4-10.5,2.9c3.2,1.6,6.2,5.2,3.1,10c-4.2,6.6-26.2,3.2-26.2,3.2l-4.4-2.4c-0.1,0.2-0.2,0.3-0.3,0.2
		c0,0-0.3-0.3-0.8-0.7c-0.3,0.7-0.9,1.1-1.6,1.4c-1.4,0.2-2.7,0.5-3.8,1c-2.2,0.5-4.3,1.3-4.7,3.6c-3.1,6,1.3,9.1,9.3,9.3
		c8,0.2,20,1.5,22.2,5c2.2,3.5-5.8,7.1-8,7.1c-2.2,0-7.8-1.7-10.8,1.2c-3,2.9-6.6,7.5-9.2,7.1c-1.4-0.2-4.1-1.9-7.2-3
		c-2.6-0.9-5.5-1.4-8-0.2c-5.4,2.7-12.6,6.9-17.4,5c-4.8-1.9-8.2-1.9-11.6,0.4c-0.2,0.1-0.5,0.3-0.8,0.4c-2.8,1.8-12.4,0.7-14.9,0.3
		c-0.6-0.1-1.3-0.2-2-0.2c-1.7,0-3.1,0.2-3.9,0.6c-3.4,1.9-7.6,4.2-3.8,4.8c0.2,0,0.3,0.1,0.5,0.1c3.7,0.6,8.7,1.5,13.3,3.9
		c4.8,2.5,11.8-1.7,19.6,3.1c7.8,4.8,14.8,13.9,21.6,15.4c2.2,0.5,4.8,0.5,7.4,0.4c5.2-0.2,10.1-0.7,11.2,2.1
		c1.3,3.3-5.3,6.5-11.2,6.6c-1.5,0-2.9-0.1-4.2-0.6c-6.2-2.1-12.6-6.9-19-4.6c-6.4,2.3-11.2,3.5-15,1.2c-3.8-2.3-10-2.7-12.4-0.6
		c-2.4,2.1-11.3-1.5-12.9,1.1c-1.5,2.6-2.1,3.9,2.5,6.2c4.6,2.3,0.4,6.2,4.6,7.9c4.2,1.7,9.6,3.7,9.2,6.2c-0.4,2.5-5.2,3.9-9.4,3.1
		c-4.2-0.8-8.6-1.5-10.2,3.3c-1.6,4.8-4,5.2-6.6,5.2c-0.2,0-0.5,0-0.7,0c-0.1,0-0.3,0-0.4,0.1c-0.1,0-0.2,0-0.3,0
		c-0.2,0-0.4,0.1-0.6,0.1c0,0,0,0-0.1,0c-0.2,0.1-0.4,0.1-0.6,0.2h0c-0.1,0-0.3,0.1-0.4,0.1h-0.3c0,0,0,0,0,0
		c-0.1,0.1-0.3,0.1-0.4,0.2c0,0,0,0,0,0c-0.1,0.1-0.2,0.1-0.3,0.2c0,0,0,0-0.1,0.1c-0.1,0.1-0.2,0.1-0.2,0.2c0,0-0.1,0.1-0.1,0.1
		c-0.1,0.1-0.1,0.1-0.2,0.2c0,0,0,0.1-0.1,0.1c0,0.1-0.1,0.1-0.1,0.2c0,0.1,0,0.1,0,0.2c0,0.1,0,0.1,0,0.2c0,0.1,0,0.1,0,0.2
		c0,0,0,0.1,0,0.1c0,0.1,0.1,0.2,0.2,0.4c0.1,0.1,0.2,0.3,0.3,0.4c-1.5,0.9-3,1.4-5,0.3c-3.9-2.3-8.2-0.2-9.7-2.9
		c-1.9,1.5-2.6,6-0.3,7.9c1.6,1.4,2.8-0.1,4.3-0.8c3.7-1.9,5-0.6,6.8,0.5c1.9,1.1,17.4,5.5,22.1-0.8c0.3-0.3,0.5-0.6,0.8-0.9
		c4.5-5,10-0.9,11.2,0.9c1.3,1.9,10.4-1.4,11.2,2.2c0.8,3.6,1.1,4.7,8.3,1.9c7.2-2.8,6.7,4.4,4.3,7.5c-0.8,1-2,1.4-3.3,1.5
		c0.7,1.3,1.1,2.3,1.2,3.9C79.8,360.6,81.6,360.8,87.4,363.7z"/>
	<path id="XMLID_1280_" fill="#594E50" d="M8.7,162.7c5.8-1.7,9.3-2.5,11.5-2.3c1.1,0.5,2.1,1.1,3.1,1.6c0.5,0.6,0.8,1.4,1.1,2.4
		c1.6,4.8,1,16.4,8.4,14.8c0.5-0.1,0.9-0.2,1.4-0.4c-2.3-1.2,4.9-5.4,10.4-4.8c5.6,0.6,6.2-0.6,10.8-2c0.5-0.1,0.9-0.3,1.2-0.5
		c0.6-0.7,0.4-1.5-1.4-2.5c-4.6-2.6-6.6-5.8-1.6-7.6c5-1.8,4.4-8.6-2.4-9.2c-6.8-0.6-8.6-6.6-3.6-8.2c1.8-0.6,3.6-1.5,4.7-2.6
		c0.5-0.5,0.9-1,1-1.5c0.2-0.9-0.3-1.9-2-2.7c-1-0.5-2.3-0.9-4.1-1.2c-0.9-0.2-1.7-0.3-2.5-0.4c-4.9-0.5-6.9,0.8-8.5,2.1
		c-4.8,1.7-5.9,3.9-8.5-1.3c-0.1-0.2-0.3-0.5-0.4-0.7c-4.5-6-21,2.2-22.5-1.5c-1.6-3.9,7.5-1.1,5.9-5c-0.7-1.8-3.8-3.3-7.3-4h0
		c-1.5-0.3-3-0.4-4.5-0.3v37.1C0.3,163.8,2.8,164.4,8.7,162.7z"/>
	<path id="XMLID_1281_" fill="#594E50" d="M2.3,445.7c3.4,1.6,3.5,5.6,11.2,6c1.6,0.1,5.3,0.1,7.3-1.1c1.4-0.5,1.6-3,3.4-3.9
		c2.6-1.2,3.4-0.6,5.1-0.7c2.2,0.6,1.3,1.2,3.9,2.8c4.8,2.9,5.5,0,8.7-3.2c3.2-3.2,6.4-2.1,10.9,2.1c4.5,4.3,3.2,4.3,9.6,4
		c3.7-0.2,3.9-3.7,3.5-6.7c-2.5-1-4.9-2.5-6.9-4.7c-0.1-0.1-0.3-0.3-0.4-0.4c-7.5-8.8-10,3.1-14.4-2.9c-0.4-0.7-0.6-1.5-0.9-2.3
		c-0.4-4.7,5.4-10.5-0.2-12.6c-1.6-0.6-3.1-1-4.7-1.4c0,0,0,0,0,0c-1.2,3.2-5.6,2.1-9,0.7c-3.5-1.4-7.7,0.1-5.9,2.7
		c1.8,2.6,0,3.3-9,4.8c-9,1.5-9.5-1.4-9.3-3.3c0.2-1.9-0.5-2.3-4.9-2.5c-0.5,0-1,0-1.3,0.1v22.3C-0.4,445.3,0.6,445.2,2.3,445.7z"/>
	<path id="XMLID_1282_" fill="#594E50" d="M0.6,551c1,2.3,3.3,5.2,4.9,3.5c1.6-1.7,3-2.8,5.7-2.3c2.7,0.5,3.6-2.1,2.4-4.3
		c-1.2-2.2-5.1-1.1-7.2-0.5c-2.1,0.6-4.9-2.6-7.1-4.5c-0.1-0.1-0.3-0.2-0.4-0.3v6.9C-0.4,549.8,0.3,550.3,0.6,551z"/>
	<path id="XMLID_1283_" fill="#594E50" d="M2.7,570.8c3.2,0.3,2.1-2.5,4.5-5.8c0.4-0.5,0.9-1,1.5-1.5c0.4-0.9,1-1.4,2.2-1.9
		c-3.7-0.9-5.2,3.6-7.8,4.6c0-0.1-0.2,0-0.7,0.2c-0.1,0-0.1,0-0.2,0c-0.6,0-1.3-0.1-2.1-0.6c-0.4-0.2-0.8-0.5-1.2-0.9v9.2
		C2,573.3,0,570.5,2.7,570.8z"/>
	<path id="XMLID_1284_" fill="#594E50" d="M3,661c2.6-1.4,5.7-3.4,8.6-4.6c-2.4-7.4-9-8-12.4-3.5c-0.1,0.2-0.3,0.3-0.4,0.5v7.8
		C-0.2,661.7,1.5,661.4,3,661z"/>
	<path id="XMLID_1285_" fill="#594E50" d="M35.4,525c-1-1.2-2.3-2.3-5.1-1.9c-6.1,0.9-11.1-3.7-13.3-4.8c-2.2-1.1-4.4,3.2-1.1,6.1
		c0.6,0.5,1.1,1.2,1.6,1.9c0.8,1.3,1.2,2.8,1.2,4.1c0,1-0.2,1.9-0.6,2.6c-0.1,0.4-0.5,0.9-1.1,1.5c-1.7,1.5-0.9,5.7,3.2,6.4
		c2.8,0.5,3.7,1.7,4.1,3.4c0.1,0.2,0.2,0.4,0.2,0.7c0.5,3.7,5.1,8.3,7.9,8.1c9.4-0.8,1.4,6.6,9.9,5c8-1.5,13.9,1.7,8.6,4.5
		c0.2,0,0.4,0,0.6,0c5.4,0.4,10.5,1.5,12.1-1.9c1.5-3.1,3.5-3.7,7.8-3.8c-3.6-0.7-5.2-2.9-5.1-4.3c-0.1-1.9,2.2-2,3.8-1.4
		c1.7,0.6,2.4-1.2,4.2-1.7c1.8-0.5,5,0.6,6.4,1.1c1.4,0.5,2.3-2.7,2.4-4c0.1-1.3,0.8-2.2,2.7-2.6c1.9-0.4,3-1.4,6.4-0.3
		c0.1,0,0.2,0.1,0.3,0.1c0.1,0,0.1,0,0.2,0c0.7,0.1,1.3,0.1,1.7,0c0,0,0.1,0,0.1,0c0,0,0,0,0,0c1.1-0.5,1.5-1.8,2-3.2
		c0-0.1,0-0.3,0.1-0.4c0.2-0.3,0.3-0.6,0.3-0.8c0.1-0.5,0.1-1,0-1.6c-0.1-0.4-0.2-0.7-0.3-1.1c-0.5-2.5-3.5-3-3.7-5.2
		c-0.2-2.5-1-3.6-4-3.7c-3-0.1-4.1,0.8-5.5,3c-1.4,2.1-4.1,1.4-4.4-0.3c-0.3-1.7-1.8-1.8-5.3,0.6c-1.5,1.1-2.1,1.9-1.9,2.8
		c0.1,0.2,0.2,0.3,0.4,0.5c1.3,1.5,4.4,2.3,3.7,4c-0.7,1.7-2.3,4.4-6.1,4.7c-3.9,0.3-4.7-1.1-4.7-3.3c0-1.1-0.2-2-0.8-2.8
		c-0.7-0.7-1.8-1-3.7-0.4c-5.8,1.8-9.8,1.1-9.7-2.9c0.1-2.9-3.3-4.6-7-5.3c-1.3-0.2-2.7-0.3-4-0.3C37.5,528.2,36.7,526.5,35.4,525z"
		/>
	<path id="XMLID_1286_" fill="#594E50" d="M8.7,494.1c5.8-1.7,9.3-2.5,11.5-2.3c1.1,0.5,2.1,1.1,3.1,1.6c0.5,0.6,0.8,1.4,1.1,2.4
		c1.6,4.8,1,16.4,8.4,14.8c0.5-0.1,0.9-0.2,1.4-0.4c-2.3-1.2,4.9-5.4,10.4-4.8c5.6,0.6,6.2-0.6,10.8-2c0.5-0.1,0.9-0.3,1.2-0.5
		c0.6-0.7,0.4-1.5-1.4-2.5c-4.6-2.6-6.6-5.8-1.6-7.6c5-1.8,4.4-8.6-2.4-9.2c-6.8-0.6-8.6-6.6-3.6-8.2c1.8-0.6,3.6-1.5,4.7-2.6
		c0.5-0.5,0.9-1,1-1.5c0.2-0.9-0.3-1.9-2-2.7c-1-0.5-2.3-0.9-4.1-1.2c-0.9-0.2-1.7-0.3-2.5-0.4c-4.9-0.5-6.9,0.8-8.5,2.1
		c-4.8,1.7-5.9,3.9-8.5-1.3c-0.1-0.2-0.3-0.5-0.4-0.7c-4.5-6-21,2.2-22.5-1.5c-1.6-3.9,7.5-1.1,5.9-5c-0.7-1.8-3.8-3.3-7.3-4h0
		c-1.5-0.3-3-0.4-4.5-0.3v37.1C0.3,495.2,2.8,495.8,8.7,494.1z"/>
	<path id="XMLID_1287_" fill="#594E50" d="M162,113.9c8-0.6,24-3,22.4,1.1c-2,5.2,7.5,3.9,10.7,5.5c1.5,0.8,3,1.8,5,2.2v0
		c0,0,0.1,0,0.1,0v0c0.1,0,0.2,0,0.2,0c0.2,0,0.4,0.1,0.6,0.1c0.1,0,0.2,0,0.3,0c0.2,0,0.4,0,0.6,0c0.1,0,0.2,0,0.4,0
		c0.2,0,0.4,0,0.6-0.1c0.1,0,0.3-0.1,0.4-0.1c0.2,0,0.4-0.1,0.6-0.1c0.2,0,0.3-0.1,0.5-0.1c0.2-0.1,0.4-0.1,0.6-0.2
		c0.2-0.1,0.4-0.2,0.6-0.2c0.2-0.1,0.4-0.1,0.6-0.2c0.3-0.1,0.5-0.2,0.8-0.4c0.2-0.1,0.3-0.1,0.5-0.2c0.4-0.2,0.9-0.5,1.4-0.8
		c7.5-4.4,4,0,8.3,2.8c4.2,2.7,2.7-3.8,13.9,2.1h0c0.1,0,0.2,0.1,0.2,0.1c0.9,0.5,2.1,0.8,3.5,1c0,0,0-0.1,0-0.1
		c-1.6-4.5,2.9-4.7,5.1-2.1c2.1,2.5,4.3,0.5,4.7-0.9c0.4-1.5,0-3.7,4.7-4.3c4.7-0.5,6.5-0.1,8,2.5c1.5,2.7,1.9,2.9,4,1.7
		c2.1-1.2,4.1-0.1,6.7,1.1c5.9-3,9-12,7.7-16.7c-0.3-1.2-0.3-1.9,0-2.2c1.3-3.1,8.9-1.6,12.9,2.5c4.8,4.8,7.6-4.2,14.6-4.1
		c9.3,0.1,4.8,8.2,11.4,6.8c6.6-1.4,5.4,3.5,8.1,4.2c7.8,2.2,5.8-2.2,11.2-0.6c3.4,1.6,3.5,5.6,11.2,6c1.6,0.1,5.3,0.1,7.3-1.1
		c1.4-0.5,1.6-3,3.4-3.9c2.6-1.2,3.4-0.6,5.1-0.7c2.2,0.6,1.3,1.2,3.9,2.8c4.8,2.9,5.5,0,8.7-3.2c3.2-3.2,6.4-2.1,10.9,2.1
		c4.5,4.3,3.2,4.3,9.6,4c3.7-0.2,3.9-3.7,3.5-6.7c-2.5-1-4.9-2.5-6.9-4.7c-0.1-0.1-0.3-0.3-0.4-0.4c-7.5-8.8-10,3.1-14.4-2.9
		c-0.4-0.7-0.6-1.5-0.9-2.3c-0.4-4.7,5.4-10.5-0.2-12.6c-1.6-0.6-3.1-1-4.7-1.4c0,0,0,0,0,0c-1.2,3.2-5.6,2.1-9,0.7
		c-3.5-1.4-7.7,0.1-5.9,2.7c1.8,2.6,0,3.3-9,4.8c-9,1.5-9.5-1.4-9.3-3.3c0.2-1.9-0.5-2.3-4.9-2.5c-4.4-0.1-3.5,3-8.2,4.8
		c-4.8,1.8-7.9-3.6-8.8-5.3c-0.7-1.4-4.3-4.7-8.9-6.5c-4.1-0.9-9.2-1.1-16.1,0.1c-2.3,4.4-7.7,8.4-17.4,8c-12.8-0.6-35.2,0.8-49.6-3
		c-0.4-0.1-0.8-0.2-1.2-0.3c-0.1,0-0.2,0-0.3-0.1c-0.3-0.1-0.5-0.1-0.8-0.2c-0.1,0-0.2,0-0.4-0.1c-0.2,0-0.5-0.1-0.7-0.1
		c-0.1,0-0.2,0-0.3,0c-0.2,0-0.5-0.1-0.7-0.1c-0.1,0-0.2,0-0.2,0c-0.3,0-0.5,0-0.8-0.1c-0.1,0-0.1,0-0.2,0c-0.3,0-0.5,0-0.8,0
		c0,0-0.1,0-0.1,0c-0.3,0-0.6,0-0.8,0c0,0,0,0,0,0c-7.4,0.1-11.2,3.5-15.1-0.4c0,0,0,0,0,0v0c0,0-0.1-0.1-0.1-0.1v-0.2
		c-0.2-0.2-0.3-0.3-0.5-0.5c0,0,0,0,0,0c-0.1-0.2-0.3-0.4-0.4-0.6c0,0-0.1-0.1-0.1-0.1c-0.1-0.2-0.2-0.3-0.4-0.5
		c-0.2-0.2-0.3-0.5-0.5-0.8c-4.6-7.7-8.3-5.5-14.5-7.4c-0.8,0-1.6-0.2-2.7-0.5c-3.8-1.2,4.2,3.4-1.2,5.6c-5.4,2.2-5.8-0.2-10-1.8
		c-4.2-1.6-4-2-10-1.2c-6,0.8-12.8-2.6-7.8-6c5-3.4,5-6.8-2-6c-7,0.8-11.8,5.8-16.2,5.6c-4.4-0.2-3.4-1.6-5.8-4
		c-2.4-2.4-5.2-1.6-9-0.4c-2,0.6-3.3,0.1-4.5-0.7c-1.8,1.9-7.1,1.1-11.6,0.4c-0.9,0.6-2,1.1-3,1.7c-4.2,4.5-1,11.1-1.4,16.5
		C98,93.4,87.8,94.6,82,89.6c-2.3-1.9-5.6-2.8-9.1-2.9c-5.3-0.1-10.8,1.6-12.8,4c-1,1.2-1.5,2.1-1.4,2.8c0.1,1.7,3.2,2.5,11,3.3
		c11.2,1.1,14.8,0.8,16.9,6.9c0.4,1.3,0.7,1.7,1,1.7c1.2,0.1,3-6,17.8,3.1c0,0,0,0,0,0c7.1,4.4,10.5,5.4,12.4,5.1
		c0.6-0.3,1.1-0.6,1.6-0.9c1-1.2,1.2-3,2.6-3.8c0.5-0.5,1.4-1,2.7-1.6c4.5-1.9,10.4,2.1,16.3,0c5.9-2.1,13.9-3.5,16.8-0.5
		c2.5,2.5,2.1,4.1-1.5,5C157.2,113,158.2,114.2,162,113.9z"/>
	<path id="XMLID_1288_" fill="#594E50" d="M253.8,250.9c2.1,1.1,4.1,2.4,6.1,3.9c0.2-0.3,0.4-0.7,0.7-1c0.9-2,2.8-3.1,5.2-3.8
		c4.3-1.4,4.8,2.2,8,0c1.9-1.3,3.6,0.2,5.9,1.6c2.4-1.7,5.3-3.8,7.9-5.2c5.6-3,8.7-11.6,12.7-10.2c4,1.4,4,7.5,11.2,7.5
		c6.8,0-0.5,5.5,3.5,8.7c1.7-0.8,3.5-2.4,4.6-4.5c2.1-4.2,1.9-4.7,8.3-4.7c6.4,0,2.9-3.9,6.1-3.6c3.2,0.3,2.1-2.5,4.5-5.8
		c0.4-0.5,0.9-1,1.5-1.5c0.4-0.9,1-1.4,2.2-1.9c-3.7-0.9-5.2,3.6-7.8,4.6c0-0.1-0.2,0-0.7,0.2c-0.1,0-0.1,0-0.2,0
		c-0.6,0-1.3-0.1-2.1-0.6c-0.6-0.4-1.2-0.8-1.8-1.3c-1-1.3-1.8-2.8-1.8-3.8c0-2.1,0.9-2.8-1.9-3.5c-2.8-0.7-3.1-5.5-1.5-7.1
		c1.6-1.6,6.4-1.4,7.4,0.9c1,2.3,3.3,5.2,4.9,3.5c1.6-1.7,3-2.8,5.7-2.3c2.7,0.5,3.6-2.1,2.4-4.3c-1.2-2.2-5.1-1.1-7.2-0.5
		c-2.1,0.6-4.9-2.6-7.1-4.5c-2.2-1.9-5.2-0.6-7.8,1.9c-0.2,0.2-0.4,0.4-0.6,0.6c-0.1,0.1-0.3,0.2-0.4,0.2c-0.2,0.2-0.3,0.3-0.5,0.5
		c-2.2,2.2-5.1,0.8-7.8,0.5c-2-0.2-2.3-1.9-2.1-4.2c-7.3-1.4-12.9,3.3-14.5-0.2c-1.6-3.6-1.3-4.2-7.7,0.6
		c-6.4,4.7-19.4,5.3-26.6,2.2c-0.4-0.3-0.9-0.6-1.4-0.8c-4.1-2.2-4.9-0.6-4.9-0.6c0,0.1,0,0.2,0.1,0.3c0.4,1.4,0,2.5-0.6,3.2
		c-0.9,0.8-2.6,1.3-5,0.9c-6.5-0.9-4.6,5.6,0.4,8.4c4.9,2.8,15.4,10.1,25.4,7.2c10-2.9,14.7,5.9,7.2,6.9c-7.4,0.9-12.1,5.4-19.7,0.9
		c-7.7-4.5-13.1,5.4-22.4,1c-9.3-4.4-3.5,5.6-16,1.3c-3.4-1.2-6.5-0.8-9.5,0.1c4.5,2.6,9.3,3.8,12.3,4.5
		C233.7,248.4,245.4,245.2,253.8,250.9z"/>
	<path id="XMLID_1289_" fill="#594E50" d="M311.4,273.7c-6.9-1.7-10.6-3.2-13.1-8.9c-2.1-4.8-5.1-2.7-9-1c-3.9,2.6-5.2,1.8-9.6,1
		c-1.4-0.3-2.8,0.2-4.1,0.9c5.8,0.5,6.9,7.3,7.4,11.6c0.5,4.4,3.2,0,10.9,2.2c5.8,1.7,11.7,1.5,17.9,1c2.2-2.6,4.5-4.9,8.5-6.6
		C317.3,274.1,314.2,274.4,311.4,273.7z"/>
	<path id="XMLID_1290_" fill="#594E50" d="M294.3,304.2c-4.5-1.7-10.7,0-16.5,1.7c-5.9,1.7-11.2,4.2-9.6,6.9
		c1.6,2.8,7.2-0.8,8.3,3.6c1.1,4.4,2.1,5,6.9,3.9c4.8-1.1,9.6,1.4,18.9,6.9c2.4,1.4,4.1,2.9,5.3,4.4c1.4-0.7,2.7-1.6,3.8-2.7
		c3-2.9,5-1,7.4,0.8c2.4,1.9,4.8,1.7,6.2-0.4c1.4-2.1,3.4-0.4,5.2,0.6c0.9,0.5,2.6,0.2,4.2-0.2c2.6-1.4,5.7-3.4,8.6-4.6
		c-2.4-7.4-9-8-12.4-3.5c-4.3,5.5-16.8,6.4-13.9-5c1.2-4.9,2.5-7.7,3.7-9.2c0.6-0.8,1.2-1.4,2-1.5c0.3-0.1,0.6-0.2,0.9-0.2
		c0.4-1-4.6-6.1-9.4-2.5c-5.4,3.9-9.4,0-11.6-2.9c-0.2-0.2-0.4-0.4-0.6-0.6C299.9,302.1,297.8,305.5,294.3,304.2z"/>
	<path id="XMLID_1291_" fill="#594E50" d="M366.8,193.7c-1-1.2-2.3-2.3-5.1-1.9c-6.1,0.9-11.1-3.7-13.3-4.8
		c-2.2-1.1-4.4,3.2-1.1,6.1c0.6,0.5,1.1,1.2,1.6,1.9c0.8,1.3,1.2,2.8,1.2,4.1c0,1-0.2,1.9-0.6,2.6c-0.1,0.4-0.5,0.9-1.1,1.5
		c-1.7,1.5-0.9,5.7,3.2,6.4c2.8,0.5,3.7,1.7,4.1,3.4c0.1,0.2,0.2,0.4,0.2,0.7c0.5,3.7,5.1,8.3,7.9,8.1c9.4-0.8,1.4,6.6,9.9,5
		c8-1.5,13.9,1.7,8.6,4.5c0.2,0,0.4,0,0.6,0c5.4,0.4,10.5,1.5,12.1-1.9c1.5-3.1,3.5-3.7,7.8-3.8c-3.6-0.7-5.2-2.9-5.1-4.3
		c-0.1-1.9,2.2-2,3.8-1.4c1.7,0.6,2.4-1.2,4.2-1.7c1.8-0.5,5,0.6,6.4,1.1c1.4,0.5,2.3-2.7,2.4-4c0.1-1.3,0.8-2.2,2.7-2.6
		c1.9-0.4,3-1.4,6.4-0.3c0.1,0,0.2,0.1,0.3,0.1c0.1,0,0.1,0,0.2,0c0.7,0.1,1.3,0.1,1.7,0c0,0,0.1,0,0.1,0c0,0,0,0,0,0
		c1.1-0.5,1.5-1.8,1.9-3.2c0-0.1,0-0.3,0.1-0.4c0.2-0.3,0.3-0.6,0.3-0.8c0.1-0.5,0.1-1,0-1.6c-0.1-0.4-0.2-0.7-0.3-1.1
		c-0.5-2.5-3.5-3-3.7-5.2c-0.2-2.5-1-3.6-4-3.7c-3-0.1-4.1,0.8-5.5,3c-1.4,2.1-4.1,1.4-4.4-0.3c-0.3-1.7-1.8-1.8-5.3,0.6
		c-1.5,1.1-2.1,1.9-1.9,2.8c0.1,0.2,0.2,0.3,0.4,0.5c1.3,1.5,4.4,2.3,3.7,4c-0.7,1.7-2.3,4.4-6.1,4.7c-3.9,0.3-4.7-1.1-4.7-3.3
		c0-1.1-0.2-2-0.8-2.8c-0.7-0.7-1.8-1-3.7-0.4c-5.8,1.8-9.8,1.1-9.7-2.9c0.1-2.9-3.3-4.6-7-5.3c-1.3-0.2-2.7-0.3-4-0.3
		C368.9,196.9,368,195.1,366.8,193.7z"/>
	<path id="XMLID_1292_" fill="#594E50" d="M269,12c1,0,1.9-0.1,2.8-0.1c2.6-1.5,6.9-3.1,13.2-2.2c3.6,0.5,5.9,1,7.5,1
		c0.6-0.1,1.2-0.3,1.8-0.4c-5.2-3.8-12.1-6.8-20.3-5.5c-12.5,1.9-14.1,1.9-19.7-2.2c0,0-0.1-0.1-0.1-0.1h-0.1c0,0-0.1,0-0.1-0.1h0
		c-3.9-2.7-9.4-3.8-15.2-3.8c0,0,0,0,0,0c-0.5,0-1,0-1.5,0c0,0-0.1,0-0.1,0c-0.5,0-1,0-1.5,0.1c-0.1,0-0.3,0-0.4,0
		c-0.4,0-0.8,0.1-1.2,0.1c-0.2,0-0.5,0.1-0.7,0.1c-0.3,0-0.6,0.1-0.9,0.1c-0.5,0.1-1.1,0.1-1.6,0.2c-0.4,0.1-0.8,0.1-1.3,0.2
		c-0.1,0-0.2,0-0.2,0c-0.4,0.1-0.8,0.1-1.2,0.1c0,0-0.1,0-0.1,0c-6.8,0.8-17.4,1.4-23.8,2.7c-0.1,0-0.2,0-0.3,0.1h-0.2
		c-0.1,0-0.3,0.1-0.4,0.1c-0.2,0.1-0.5,0.1-0.7,0.2c-0.1,0-0.2,0.1-0.4,0.1c-0.4,0.1-0.8,0.2-1.2,0.4c-0.1,0-0.2,0.1-0.3,0.1
		c-0.2,0.1-0.3,0.1-0.4,0.2c-0.1,0-0.2,0.1-0.3,0.1v0.1c-0.1,0.1-0.2,0.1-0.3,0.2c-0.1,0.1-0.2,0.1-0.2,0.2
		c-0.1,0.1-0.3,0.2-0.3,0.4c-1.7,2.7-2.5,3.6,0.8,4.2v0c0,0,0.1,0,0.1,0v0c0.3,0.1,0.7,0.1,1,0.2c0,0,0,0,0,0c0.2,0,0.4,0.1,0.6,0.1
		c0.2,0,0.4,0.1,0.7,0.1c3.1-0.8,6.6-1.9,10.2-3.3C224.5,1.5,251.9,12.6,269,12z"/>
	<path id="XMLID_1293_" fill="#594E50" d="M459.4,69.9c-2.4-2.4-5.2-1.6-9-0.4c-2,0.6-3.3,0.1-4.5-0.7c-1.8,1.9-7.1,1.1-11.6,0.4
		c-0.9,0.6-2,1.1-3,1.7c-4.2,4.5-1,11.1-1.4,16.5c-0.5,6.1-10.7,7.2-16.5,2.2c-2.3-1.9-5.6-2.8-9.1-2.9c-5.3-0.1-10.8,1.6-12.8,4
		c-1,1.2-1.5,2.1-1.4,2.8c0.1,1.7,3.2,2.5,11,3.3c11.2,1.1,14.8,0.8,16.9,6.9c0.4,1.3,0.7,1.7,1,1.7c1.2,0.1,3-6,17.8,3.1
		c0,0,0,0,0,0c7.1,4.4,10.5,5.4,12.4,5.1c0.6-0.3,1.1-0.6,1.6-0.9c1-1.2,1.2-3,2.6-3.8c0.5-0.5,1.4-1,2.7-1.6
		c4.5-1.9,10.4,2.1,16.3,0c2.3-0.9,5-1.6,7.6-1.9V68.6c-6.2,1.2-10.7,5.6-14.8,5.4C460.8,73.7,461.8,72.3,459.4,69.9z"/>
	<path id="XMLID_1294_" fill="#594E50" d="M177.7,172.9c4.3,1.5,10-1.1,13.9-5.1c0.2-0.2,0.4-0.4,0.6-0.6c0.1-0.1,0.1-0.1,0.1-0.2
		c2.5-2.7,3.2-3.8,7.8-4.7v0c0.6-0.1,1.3-0.2,2-0.3c0,0,0.1,0,0.1,0c0.3,0,0.6-0.1,0.9-0.1c0.4,0,0.8-0.1,1.2-0.1
		c9.5-1.1,5.7-3.7,12.5-8.4c6.8-4.7,12.8,2.8,20.7,2.4c7.9-0.4,9.9-3.7,14-6c4.1-2.2,8,5.7,12.9,4.2c4.9-1.5,9.2,6.8,9.2,13.2
		c0,6.4-8.1,7.6-12.7,5.7c-4.5-1.9-14.8,6.1-18.9,8.4c-4.1,2.4-0.9,6.4,2,8.4c1.4,1,4.5,2,8,2.8c-1-4.6,0.6-10.4,7.3-7.5
		c10.1,4.4,12.8-5.5,22.4-0.6c9.6,5,17.1,2.8,21.9,2.2c4.8-0.6,17.1-2.2,16.5-6.1c-0.5-3.9-1.6-7.2-10.7-4.4
		c-9.1,2.8-15.5-5-9.1-7.8c0.8-0.4,1.6-0.9,2.4-1.5c7.5-4.3,19.6-14.5,23.5-10.8c4,3.8,1.6,10.4,13.8,6.8c5.8-1.7,9.3-2.5,11.5-2.3
		c1.1,0.5,2.1,1.1,3.1,1.6c0.5,0.6,0.8,1.4,1.1,2.4c1.6,4.8,1,16.4,8.4,14.8c0.5-0.1,0.9-0.2,1.4-0.4c-2.3-1.2,4.9-5.4,10.4-4.8
		c5.6,0.6,6.2-0.6,10.8-2c0.5-0.1,0.9-0.3,1.2-0.5c0.6-0.7,0.4-1.5-1.4-2.5c-4.6-2.6-6.6-5.8-1.6-7.6c5-1.8,4.4-8.6-2.4-9.2
		c-6.8-0.6-8.6-6.6-3.6-8.2c1.8-0.6,3.6-1.5,4.7-2.6c0.5-0.5,0.9-1,1-1.5c0.2-0.9-0.3-1.9-2-2.7c-1-0.5-2.3-0.9-4.1-1.2
		c-0.9-0.2-1.7-0.3-2.5-0.4c-4.9-0.5-6.9,0.8-8.5,2.1c-4.8,1.7-5.9,3.9-8.5-1.3c-0.1-0.2-0.3-0.5-0.4-0.7c-4.5-6-21,2.2-22.5-1.5
		c-1.6-3.9,7.5-1.1,5.9-5c-0.7-1.8-3.8-3.3-7.3-4h0c-2.2-0.4-4.7-0.5-6.9,0h0c-1.8,0.4-3.4,1.1-4.5,2.3c-3.3,3.4-8,0.9-14.4-0.4
		c-2.2-0.4-4.6-0.7-7.2-0.5c-3.7,0.7-4.6,4.1-3.2,5.7c1.5,1.6,1.7,4.3-1.7,5.3c-3.5,1.1-4,0.9-4.9-1.3c-0.9-2.3,1.3-4.3-1.1-5.2
		c-2.4-0.9-3.7,0.3-4.7,1.6c-0.9,1.3-1.9,4.9-3.9,2.7c-2-2.3-2-4.3-4.9-3.6c-2.9,0.7-6.8,2.4-6.1,4.3c1.5,1.7-1.3,2.9-6.3,4.1
		c-0.5,0.1-0.9,0.2-1.4,0.4c-1.2,0.4-2.5,0.7-4,0.9c-4.8,0.7-11.4,0.4-19.3-0.6c-9.4-1.1-11.7-5.5-28.3,3.3c-1,0.5-2,1-3,1.5
		c-0.5,0.2-0.9,0.4-1.4,0.6c-0.5,0.2-1,0.5-1.5,0.7c-0.6,0.3-1.2,0.5-1.8,0.7c-0.4,0.1-0.7,0.3-1.1,0.4c-0.7,0.2-1.3,0.4-2,0.6
		c-0.3,0.1-0.6,0.2-1,0.3v0c-11.7,3.5-23.7,3.5-38,3.2c-1.1,0-2.3-0.1-3.5-0.1c-2.9-0.1-12.3-6.9-36.8-5.8c-8.1,0.4-10.7,3.9,0,8.3
		c10.7,4.4,14.3,3.9,14.9,11.1c0.3,3.5,0.8,5.8,2,7.5c2.5-1.4,7.1-2.5,11.5-2.7C155.8,170.6,173.4,171.4,177.7,172.9z"/>
	<path id="XMLID_1295_" fill="#594E50" d="M453.3,146.6c-8.1,0.4-10.7,3.9,0,8.3c10.7,4.4,14.3,3.9,14.9,11.1c0.3,3.5,0.8,5.8,2,7.5
		c2.2-1.2,5.9-2.2,9.7-2.5v-21.9C474.2,147.5,465.7,146.1,453.3,146.6z"/>
	<path id="XMLID_1296_" fill="#594E50" d="M162,445.3c8-0.6,24-3,22.4,1.1c-2,5.2,7.5,3.9,10.7,5.5c1.5,0.8,3,1.8,5,2.2l0,0
		c0,0,0.1,0,0.1,0v0c0.1,0,0.2,0,0.2,0c0.2,0,0.4,0.1,0.6,0.1c0.1,0,0.2,0,0.3,0c0.2,0,0.4,0,0.6,0c0.1,0,0.2,0,0.4,0
		c0.2,0,0.4,0,0.6-0.1c0.1,0,0.3-0.1,0.4-0.1c0.2,0,0.4-0.1,0.6-0.1c0.2,0,0.4-0.1,0.5-0.2c0.2-0.1,0.4-0.1,0.6-0.2
		c0.2-0.1,0.4-0.2,0.7-0.2c0.2-0.1,0.3-0.1,0.5-0.2c0.3-0.1,0.5-0.3,0.8-0.4c0.1-0.1,0.3-0.1,0.4-0.2c0.4-0.2,0.9-0.5,1.4-0.8
		c7.5-4.4,4,0,8.3,2.8c4.2,2.7,2.7-3.8,13.9,2.1h0c0.1,0,0.2,0.1,0.2,0.1c0.9,0.5,2.1,0.8,3.5,1c0,0,0-0.1,0-0.1
		c-1.6-4.5,2.9-4.7,5.1-2.1c2.1,2.5,4.3,0.5,4.7-0.9c0.4-1.5,0-3.7,4.7-4.3c4.7-0.5,6.5-0.1,8,2.5c1.5,2.7,1.9,2.9,4,1.7
		c2.1-1.2,4.1-0.1,6.7,1.1c5.9-3,9-12,7.7-16.7c-0.3-1.2-0.3-1.9,0-2.2c1.3-3.1,8.9-1.6,12.9,2.5c4.8,4.8,7.6-4.2,14.6-4.1
		c9.3,0.1,4.8,8.2,11.4,6.8c6.6-1.4,5.4,3.5,8.1,4.2c7.8,2.2,5.8-2.2,11.2-0.6c3.4,1.6,3.5,5.6,11.2,6c1.6,0.1,5.3,0.1,7.3-1.1
		c1.4-0.5,1.6-3,3.4-3.9c2.6-1.2,3.4-0.6,5.1-0.7c2.2,0.6,1.3,1.2,3.9,2.8c4.8,2.9,5.5,0,8.7-3.2c3.2-3.2,6.4-2.1,10.9,2.1
		c4.5,4.3,3.2,4.3,9.6,4c3.7-0.2,3.9-3.7,3.5-6.7c-2.5-1-4.9-2.5-6.9-4.7c-0.1-0.1-0.3-0.3-0.4-0.4c-7.5-8.8-10,3.1-14.4-2.9
		c-0.4-0.7-0.6-1.5-0.9-2.3c-0.4-4.7,5.4-10.5-0.2-12.6c-1.6-0.6-3.1-1-4.7-1.4c0,0,0,0,0,0c-1.2,3.2-5.6,2.1-9,0.7
		c-3.5-1.4-7.7,0.1-5.9,2.7c1.8,2.6,0,3.3-9,4.8c-9,1.5-9.5-1.4-9.3-3.3c0.2-1.9-0.5-2.3-4.9-2.5c-4.4-0.1-3.5,3-8.2,4.8
		c-4.8,1.8-7.9-3.6-8.8-5.3c-0.7-1.4-4.3-4.7-8.9-6.5c-4.1-0.9-9.2-1.1-16.1,0.1c-2.3,4.4-7.7,8.4-17.4,8c-12.8-0.6-35.2,0.8-49.6-3
		c-0.4-0.1-0.8-0.2-1.2-0.3c-0.1,0-0.2,0-0.3-0.1c-0.3-0.1-0.5-0.1-0.8-0.2c-0.1,0-0.2,0-0.3-0.1c-0.3,0-0.5-0.1-0.7-0.1
		c-0.1,0-0.2,0-0.3,0c-0.2,0-0.5-0.1-0.7-0.1c-0.1,0-0.2,0-0.3,0c-0.2,0-0.5,0-0.7-0.1c-0.1,0-0.1,0-0.2,0c-0.3,0-0.5,0-0.8,0
		c0,0-0.1,0-0.1,0c-0.3,0-0.6,0-0.8,0c0,0,0,0,0,0c-7.4,0.1-11.2,3.5-15.1-0.4c0,0,0,0,0,0v0c0,0-0.1-0.1-0.1-0.1v-0.2
		c-0.2-0.2-0.3-0.3-0.5-0.5l0,0c-0.1-0.2-0.3-0.4-0.4-0.6c0,0-0.1-0.1-0.1-0.1c-0.1-0.2-0.2-0.3-0.4-0.5c-0.2-0.2-0.3-0.5-0.5-0.8
		c-4.6-7.7-8.3-5.5-14.5-7.4c-0.8,0-1.6-0.2-2.7-0.5c-3.8-1.2,4.2,3.4-1.2,5.6c-5.4,2.2-5.8-0.2-10-1.8c-4.2-1.6-4-2-10-1.2
		c-6,0.8-12.8-2.6-7.8-6c5-3.4,5-6.8-2-6c-7,0.8-11.8,5.8-16.2,5.6c-4.4-0.2-3.4-1.6-5.8-4c-2.4-2.4-5.2-1.6-9-0.4
		c-2,0.6-3.3,0.1-4.5-0.7c-1.8,1.9-7.1,1.1-11.6,0.4c-0.9,0.6-2,1.1-3,1.7c-4.2,4.5-1,11.1-1.4,16.5c-0.5,6.1-10.7,7.2-16.5,2.2
		c-2.3-1.9-5.6-2.8-9.1-2.9c-5.3-0.1-10.8,1.6-12.8,4c-1,1.2-1.5,2.1-1.4,2.8c0.1,1.7,3.2,2.5,11,3.3c11.2,1.1,14.8,0.8,16.9,6.9
		c0.4,1.3,0.7,1.7,1,1.7c1.2,0.1,3-6,17.8,3.1c0,0,0,0,0,0c7.1,4.4,10.5,5.4,12.4,5.1c0.6-0.3,1.1-0.6,1.6-0.9c1-1.2,1.2-3,2.6-3.8
		c0.5-0.5,1.4-1,2.7-1.6c4.5-1.9,10.4,2.1,16.3,0c5.9-2.1,13.9-3.5,16.8-0.5c2.5,2.5,2.1,4.1-1.5,5
		C157.2,444.4,158.2,445.6,162,445.3z"/>
	<path id="XMLID_1297_" fill="#594E50" d="M253.8,582.2c2.1,1.1,4.1,2.4,6.1,3.9c0.2-0.3,0.4-0.7,0.7-1c0.9-2,2.8-3.1,5.2-3.8
		c4.3-1.4,4.8,2.2,8,0c1.9-1.3,3.6,0.2,5.9,1.6c2.4-1.7,5.3-3.8,7.9-5.2c5.6-3,8.7-11.6,12.7-10.2c4,1.4,4,7.5,11.2,7.5
		c6.8,0-0.5,5.5,3.5,8.7c1.7-0.8,3.5-2.4,4.6-4.5c2.1-4.2,1.9-4.7,8.3-4.7c6.4,0,2.9-3.9,6.1-3.6c3.2,0.3,2.1-2.5,4.5-5.8
		c0.4-0.5,0.9-1,1.5-1.5c0.4-0.9,1-1.4,2.2-1.9c-3.7-0.9-5.2,3.6-7.8,4.6c0-0.1-0.2,0-0.7,0.2c-0.1,0-0.1,0-0.2,0
		c-0.6,0-1.3-0.1-2.1-0.6c-0.6-0.4-1.2-0.8-1.8-1.3c-1-1.3-1.8-2.8-1.8-3.8c0-2.1,0.9-2.8-1.9-3.5c-2.8-0.7-3.1-5.5-1.5-7.1
		c1.6-1.6,6.4-1.4,7.4,0.9c1,2.3,3.3,5.2,4.9,3.5c1.6-1.7,3-2.8,5.7-2.3c2.7,0.5,3.6-2.1,2.4-4.3c-1.2-2.2-5.1-1.1-7.2-0.5
		c-2.1,0.6-4.9-2.6-7.1-4.5c-2.2-1.9-5.2-0.6-7.8,1.9c-0.2,0.2-0.4,0.4-0.6,0.6c-0.1,0.1-0.3,0.2-0.4,0.2c-0.2,0.2-0.3,0.3-0.5,0.5
		c-2.2,2.2-5.1,0.8-7.8,0.5c-2-0.2-2.3-1.9-2.1-4.2c-7.3-1.4-12.9,3.3-14.5-0.2c-1.6-3.6-1.3-4.2-7.7,0.6
		c-6.4,4.7-19.4,5.3-26.6,2.2c-0.4-0.3-0.9-0.6-1.4-0.8c-4.1-2.2-4.9-0.6-4.9-0.6c0,0.1,0,0.2,0.1,0.3c0.4,1.4,0,2.5-0.6,3.2
		c-0.9,0.8-2.6,1.3-5,0.9c-6.5-0.9-4.6,5.6,0.4,8.4c4.9,2.8,15.4,10.1,25.4,7.2c10-2.9,14.7,5.9,7.2,6.9c-7.4,0.9-12.1,5.4-19.7,0.9
		c-7.7-4.5-13.1,5.4-22.4,1c-9.3-4.4-3.5,5.6-16,1.3c-3.4-1.2-6.5-0.8-9.5,0.1c4.5,2.6,9.3,3.8,12.3,4.5
		C233.7,579.7,245.4,576.6,253.8,582.2z"/>
	<path id="XMLID_1298_" fill="#594E50" d="M320.4,605.4c-3.1,0.1-6.2,0.4-9-0.3c-6.9-1.7-10.6-3.2-13.1-8.9c-2.1-4.8-5.1-2.7-9-1
		c-3.9,2.6-5.2,1.8-9.6,1c-1.4-0.3-2.8,0.2-4.1,0.9c5.8,0.5,6.9,7.3,7.4,11.6c0.5,4.4,3.2,0,10.9,2.2c5.8,1.7,11.7,1.5,17.9,1
		C314.1,609.4,316.4,607.1,320.4,605.4z"/>
	<path id="XMLID_1299_" fill="#594E50" d="M330.6,652.9c-4.3,5.5-16.8,6.4-13.9-5c1.2-4.9,2.5-7.7,3.7-9.2c0.6-0.8,1.2-1.4,2-1.5
		c0.3-0.1,0.6-0.2,0.9-0.2c0.4-1-4.6-6.1-9.4-2.5c-5.4,3.9-9.4,0-11.6-2.9c-0.2-0.2-0.4-0.4-0.6-0.6c-2,2.6-4.1,6-7.6,4.7
		c-4.5-1.7-10.7,0-16.5,1.7c-5.9,1.7-11.2,4.2-9.6,6.9c1.6,2.8,7.2-0.8,8.3,3.6c1.1,4.4,2.1,5,6.9,3.9c4.8-1.1,9.6,1.4,18.9,6.9
		c2.4,1.4,4.1,2.9,5.3,4.4c1.4-0.7,2.7-1.6,3.8-2.7c3-2.9,5-1,7.4,0.8c2.4,1.9,4.8,1.7,6.2-0.4c1.4-2.1,3.4-0.4,5.2,0.6
		c0.9,0.5,2.6,0.2,4.2-0.2c2.6-1.4,5.7-3.4,8.6-4.6C340.7,649,334.1,648.4,330.6,652.9z"/>
	<path id="XMLID_1300_" fill="#594E50" d="M111.8,673.4c-2.3,0.1-4.5,0.2-6.4,0.2c-6.3-0.1-10.6-1.3-13.4-3.7
		c-0.4-0.3-0.7-0.7-1.1-1c-0.2-0.2-0.4-0.4-0.6-0.6c-0.2-0.2-0.4-0.4-0.6-0.6c-0.2-0.2-0.3-0.4-0.5-0.6c-0.2-0.2-0.4-0.4-0.6-0.6
		c-0.1-0.2-0.3-0.3-0.4-0.5c-0.2-0.2-0.4-0.5-0.5-0.7h0c0,0,0,0,0,0h0c0-0.1-0.1-0.1-0.1-0.2c-0.1-0.1-0.1-0.2-0.2-0.2
		c0,0-0.1-0.1-0.1-0.1c-0.1-0.1-0.1-0.2-0.2-0.3c0,0,0-0.1-0.1-0.1c-0.1-0.1-0.1-0.2-0.2-0.3c0,0,0,0,0-0.1
		c-0.1-0.1-0.1-0.2-0.2-0.3c0,0,0,0,0-0.1c0-0.1-0.1-0.2-0.1-0.3c0,0,0,0,0,0c0-0.1-0.1-0.2-0.1-0.3c0,0,0,0,0,0
		c0-0.1,0-0.2-0.1-0.3c0,0,0,0,0,0c0-0.1,0-0.2,0-0.2c0,0,0,0,0,0c0-0.1,0-0.1,0-0.2c0,0,0,0,0,0c0-0.1,0-0.1,0.1-0.2
		c0,0,0,0,0.1-0.1c0,0,0.1-0.1,0.1-0.1c0,0,0.1,0,0.1-0.1c0,0,0.1,0,0.1-0.1c0,0,0.1,0,0.2,0c0,0,0.1,0,0.1,0c0.1,0,0.2,0,0.2,0
		c0,0,0.1,0,0.1,0c0.1,0,0.2,0,0.3,0c0,0,0.1,0,0.1,0c0.2,0,0.3,0,0.5,0.1c5,1,8.4-3.7,14.2-3.7c0.8,0,1.7,0.1,2.6,0.2
		c5.7,0.6,13.3,2.8,18,2.8c5.4,0,10.4-2.3,14.8-2.5c4.4-0.2,7.6,0.4,7.4-1.9c-0.2-2.3-4.4-4.6-10.6-4.2c-6.2,0.4-9.6-0.2-11.2-2.5
		c-1.6-2.3-5.6-3.5-10.2-3.1c-4.6,0.4-7.4-2.9-3.2-3.5c4.2-0.6,7.8-4.4,12.2-1.7c4.4,2.7,8-3.9,14-2.3c6,1.7,14.2,3.1,22,3.9
		c7.8,0.8,12,0,12.6-2.5c0.1-0.2,0-0.4-0.1-0.6c-0.9-1.5-8,0.2-18.1-2.1c-11.2-2.5-24.2-6-26-9.6c-1.8-3.5-2-7.3,5.4-5.8
		c7.4,1.5,12.6-1.9,12.4-4.2c-0.2-2.3-9-6.9-22-7.3c-7.6-0.2-13.9-1.9-17.4-3.8c-2.5-1.4-3.6-2.9-2.6-4.1c0.5-0.6,1.4-1.3,2.6-2
		c4.3-2.4,12.6-4.4,20.8-0.3c10.4,5.2,11.2,6.4,21.8,5.4c10.6-1,22.2-4.4,30.8,1.2c8.6,5.6-1.8,7.5-6.4,8.7c-4.6,1.2-9.6,0-7.8,4.4
		c1.8,4.4,14.8,3.3,18.8,6.6c0.2,0.1,0.4,0.3,0.6,0.4c0.1,0,0.2,0.1,0.2,0.1c0.1,0.1,0.3,0.2,0.4,0.2c0.1,0,0.2,0.1,0.3,0.1
		c0.2,0.1,0.3,0.1,0.5,0.2c0.1,0,0.2,0.1,0.3,0.1c0.2,0.1,0.4,0.1,0.5,0.2c0.1,0,0.2,0.1,0.3,0.1c0.2,0.1,0.4,0.1,0.6,0.2
		c0.1,0,0.2,0,0.3,0.1c0.2,0,0.5,0.1,0.7,0.1c0.1,0,0.2,0,0.3,0c0.3,0,0.5,0.1,0.8,0.1c0.1,0,0.1,0,0.2,0c0.3,0,0.6,0.1,1,0.1
		c0,0,0,0,0,0c3.1,0.4,6.6,0.6,9.6,1.1v0c0,0,0,0,0,0c0.3,0,0.6,0.1,0.9,0.1c0,0,0,0,0.1,0c0.3,0.1,0.6,0.1,0.9,0.2c0,0,0.1,0,0.1,0
		c0.3,0.1,0.5,0.1,0.8,0.2c0.1,0,0.1,0,0.2,0c0.2,0.1,0.5,0.1,0.7,0.2c0.1,0,0.1,0,0.2,0.1c0.2,0.1,0.4,0.1,0.6,0.2
		c0.1,0,0.2,0.1,0.3,0.1c0.1,0.1,0.3,0.1,0.4,0.2c0.1,0.1,0.2,0.1,0.3,0.2c0.1,0.1,0.2,0.1,0.3,0.2c0.2,0.1,0.4,0.2,0.6,0.4
		c3.3,2.4,7.7,0.9,11.4-1.1c1.4-0.8,2.7-1.6,3.8-2.3c4-2.5,4.8-5.6-2.6-5.6c-0.8,0-1.6-0.1-2.4-0.1c-1.7,0.2-3.2,0.3-4.6,0.4
		c-6.4,0.2-9-5.4-11.6-10c-0.1-0.2-0.3-0.4-0.4-0.6v-0.1c-0.1-0.1-0.1-0.1-0.2-0.2c-0.1-0.1-0.3-0.2-0.4-0.3c-0.1,0-0.1-0.1-0.2-0.1
		c-0.2-0.1-0.3-0.2-0.5-0.3c-0.1,0-0.1,0-0.2-0.1c-0.2-0.1-0.4-0.1-0.6-0.2c-0.1,0-0.1,0-0.2,0c-0.2,0-0.4-0.1-0.6-0.1
		c-0.1,0-0.1,0-0.2,0c-0.2,0-0.5,0-0.7,0c0,0-0.1,0-0.1,0c-0.3,0-0.5,0-0.8,0.1c0,0,0,0,0,0c-1.7,0.2-3.6,0.7-5.1,0.9c0,0,0,0-0.1,0
		c-0.2,0-0.4,0-0.6,0.1c-0.1,0-0.1,0-0.2,0c-0.2,0-0.3,0-0.5,0c-0.1,0-0.1,0-0.2,0c-0.1,0-0.3,0-0.4-0.1c-0.1,0-0.1,0-0.2,0
		c-0.2,0-0.3-0.1-0.5-0.2c-1.5-0.9-0.6-2.1,0.8-3.8c0.9-1.2,2.1-2.5,3-4.3c0.1-0.1,0.1-0.3,0.2-0.4c-1.1,0.1-2.3,0.3-4,0.1
		c-1-0.1-2.1-0.4-3.4-0.9c-9-3.5-14.2-3.5-18-7.5c-3.7-3.8,4.2-7.8,11.3-9.8c-5-6.2-3.6-9.6-1.3-12.7c2-2.6,2.9-4.6,1.8-7.2
		c-0.7-0.9-1.6-1.8-2.4-2.8c-1.1,1.3-2.7,1.6-5.5,0.3c-0.7-0.3-1.4-0.9-1.9-1.7c-0.3-0.7-0.7-1.6-1-2.8c-0.5-1.7-1.1-3.3-1.7-4.8
		c-1.7-3.9-3.9-6.9-7.3-7.1c-3.6-0.2-8-0.4-10.5,2.9c3.2,1.6,6.2,5.2,3.1,10c-4.2,6.6-26.2,3.2-26.2,3.2l-4.4-2.4
		c-0.1,0.2-0.2,0.3-0.3,0.2c0,0-0.3-0.3-0.8-0.7c-0.3,0.7-0.9,1.1-1.6,1.4c-1.4,0.2-2.7,0.5-3.8,1c-2.2,0.5-4.3,1.3-4.7,3.6
		c-3.1,6,1.3,9.1,9.3,9.3c8,0.2,20,1.5,22.2,5c2.2,3.5-5.8,7.1-8,7.1c-2.2,0-7.8-1.7-10.8,1.2c-3,2.9-6.6,7.5-9.2,7.1
		c-1.4-0.2-4.1-1.9-7.2-3c-2.6-0.9-5.5-1.4-8-0.2c-5.4,2.7-12.6,6.9-17.4,5c-4.8-1.9-8.2-1.9-11.6,0.4c-0.2,0.1-0.5,0.3-0.8,0.4
		c-2.8,1.8-12.4,0.7-14.9,0.3c-0.6-0.1-1.3-0.2-2-0.2c-1.7,0-3.1,0.2-3.9,0.6c-3.4,1.9-7.6,4.2-3.8,4.8c0.2,0,0.3,0.1,0.5,0.1
		c3.7,0.6,8.7,1.5,13.3,3.9c4.8,2.5,11.8-1.7,19.6,3.1c7.8,4.8,14.8,13.9,21.6,15.4c2.2,0.5,4.8,0.5,7.4,0.4
		c5.2-0.2,10.1-0.7,11.2,2.1c1.3,3.3-5.3,6.5-11.2,6.6c-1.5,0-2.9-0.1-4.2-0.6c-6.2-2.1-12.6-6.9-19-4.6s-11.2,3.5-15,1.2
		c-3.8-2.3-10-2.7-12.4-0.6c-2.4,2.1-11.3-1.5-12.9,1.1c-1.5,2.6-2.1,3.9,2.5,6.2c4.6,2.3,0.4,6.2,4.6,7.9c4.2,1.7,9.6,3.7,9.2,6.2
		c-0.4,2.5-5.2,3.9-9.4,3.1c-4.2-0.8-8.6-1.5-10.2,3.3c-1.6,4.8-4,5.2-6.6,5.2c-0.3,0-0.5,0-0.8,0c-0.3,0-0.5,0.1-0.8,0.1
		c0,0,0,0,0,0c-0.5,0.1-1,0.3-1.5,0.4c0,0,0,0,0,0h0c0,0,0,0,0,0c-0.2,0.1-0.3,0.1-0.5,0.2c0,0,0,0,0,0c-0.1,0.1-0.3,0.2-0.4,0.3
		c0,0,0,0,0,0c-0.1,0.1-0.2,0.2-0.3,0.3c0,0,0,0-0.1,0.1c-0.1,0.1-0.2,0.2-0.2,0.2c0,0,0,0.1-0.1,0.1c0,0.1-0.1,0.1-0.1,0.2
		c0,0.1,0,0.1,0,0.2c0,0.1,0,0.1,0,0.2c0,0.1,0,0.2,0,0.2c0,0,0,0.1,0,0.1c0,0.1,0.1,0.2,0.2,0.4c0.1,0.1,0.2,0.3,0.3,0.4
		c-1.5,0.9-3,1.4-5,0.3c-3.9-2.3-8.2-0.2-9.7-2.9c-1.9,1.5-2.6,6-0.3,7.9c1.6,1.4,2.8-0.1,4.3-0.8c3.7-1.9,5-0.6,6.8,0.5
		c0.6,0.4,2.7,1.1,5.4,1.7h13.2c1.4-0.5,2.7-1.3,3.5-2.5c0.3-0.3,0.5-0.6,0.8-0.9c4.5-5,10-0.9,11.2,0.9c1.3,1.9,10.4-1.4,11.2,2.2
		c0,0.1,0,0.2,0.1,0.3h51.3C118.8,673.8,116.4,673.2,111.8,673.4z"/>
	<path id="XMLID_1301_" fill="#594E50" d="M366.8,525c-1-1.2-2.3-2.3-5.1-1.9c-6.1,0.9-11.1-3.7-13.3-4.8c-2.2-1.1-4.4,3.2-1.1,6.1
		c0.6,0.5,1.1,1.2,1.6,1.9c0.8,1.3,1.2,2.8,1.2,4.1c0,1-0.2,1.9-0.6,2.6c-0.1,0.4-0.5,0.9-1.1,1.5c-1.7,1.5-0.9,5.7,3.2,6.4
		c2.8,0.5,3.7,1.7,4.1,3.4c0.1,0.2,0.2,0.4,0.2,0.7c0.5,3.7,5.1,8.3,7.9,8.1c9.4-0.8,1.4,6.6,9.9,5c8-1.5,13.9,1.7,8.6,4.5
		c0.2,0,0.4,0,0.6,0c5.4,0.4,10.5,1.5,12.1-1.9c1.5-3.1,3.5-3.7,7.8-3.8c-3.6-0.7-5.2-2.9-5.1-4.3c-0.1-1.9,2.2-2,3.8-1.4
		c1.7,0.6,2.4-1.2,4.2-1.7c1.8-0.5,5,0.6,6.4,1.1c1.4,0.5,2.3-2.7,2.4-4c0.1-1.3,0.8-2.2,2.7-2.6c1.9-0.4,3-1.4,6.4-0.3
		c0.1,0,0.2,0.1,0.3,0.1c0.1,0,0.1,0,0.2,0c0.7,0.1,1.3,0.1,1.7,0c0,0,0.1,0,0.1,0c0,0,0,0,0,0c1.1-0.5,1.5-1.8,1.9-3.2
		c0-0.1,0-0.3,0.1-0.4c0.2-0.3,0.3-0.6,0.3-0.8c0.1-0.5,0.1-1,0-1.6c-0.1-0.4-0.2-0.7-0.3-1.1c-0.5-2.5-3.5-3-3.7-5.2
		c-0.2-2.5-1-3.6-4-3.7c-3-0.1-4.1,0.8-5.5,3c-1.4,2.1-4.1,1.4-4.4-0.3c-0.3-1.7-1.8-1.8-5.3,0.6c-1.5,1.1-2.1,1.9-1.9,2.8
		c0.1,0.2,0.2,0.3,0.4,0.5c1.3,1.5,4.4,2.3,3.7,4c-0.7,1.7-2.3,4.4-6.1,4.7c-3.9,0.3-4.7-1.1-4.7-3.3c0-1.1-0.2-2-0.8-2.8
		c-0.7-0.7-1.8-1-3.7-0.4c-5.8,1.8-9.8,1.1-9.7-2.9c0.1-2.9-3.3-4.6-7-5.3c-1.3-0.2-2.7-0.3-4-0.3C368.9,528.2,368,526.5,366.8,525z
		"/>
	<path id="XMLID_1302_" fill="#594E50" d="M285.1,341.1c3.6,0.5,5.9,1,7.5,1c0.6-0.1,1.2-0.3,1.8-0.4c-5.2-3.8-12.1-6.8-20.3-5.5
		c-2.3,0.4-4.3,0.7-6,0.9c0,0-0.1,0-0.1,0c-1.6,0.2-3,0.3-4.2,0.4c0,0-0.1,0-0.1,0c-0.2,0-0.3,0-0.5,0c-0.1,0-0.2,0-0.3,0
		c-0.1,0-0.2,0-0.3,0c-0.1,0-0.2,0-0.2,0c-0.1,0-0.2,0-0.3,0c-0.1,0-0.1,0-0.2,0c-0.1,0-0.2,0-0.3,0c-0.1,0-0.1,0-0.2,0
		c-0.1,0-0.2,0-0.3,0c-0.1,0-0.2,0-0.3,0c-0.1,0-0.1,0-0.2,0c-0.1,0-0.2,0-0.3-0.1c0,0-0.1,0-0.1,0c-0.1,0-0.2-0.1-0.3-0.1
		c0,0-0.1,0-0.1,0c-0.1,0-0.2-0.1-0.3-0.1c0,0-0.1,0-0.1,0c-0.1,0-0.2-0.1-0.3-0.1c0,0-0.1,0-0.1,0c-0.1,0-0.2-0.1-0.3-0.1
		c0,0-0.1,0-0.1,0c-0.1,0-0.2-0.1-0.3-0.1c0,0-0.1,0-0.1-0.1c-0.1,0-0.2-0.1-0.3-0.1c-0.1,0-0.1-0.1-0.2-0.1c-0.1,0-0.2-0.1-0.2-0.1
		c-0.1,0-0.1-0.1-0.2-0.1c-0.1,0-0.1-0.1-0.2-0.1c-0.1,0-0.1-0.1-0.2-0.1c-0.1,0-0.1-0.1-0.2-0.1c-0.1,0-0.2-0.1-0.2-0.1
		c-0.1,0-0.1-0.1-0.2-0.1c-0.1-0.1-0.2-0.1-0.2-0.2c0,0-0.1-0.1-0.1-0.1c-0.3-0.2-0.5-0.4-0.8-0.6c0,0-0.1-0.1-0.1-0.1
		c-0.1-0.1-0.3-0.2-0.4-0.3h-0.2c-0.1-0.1-0.2-0.1-0.2-0.1c-3.9-2.7-9.4-3.7-15.1-3.7c0,0,0,0-0.1,0c-0.5,0-1,0-1.5,0
		c-0.1,0-0.2,0-0.2,0c-0.4,0-0.9,0-1.4,0.1c-0.1,0-0.3,0-0.4,0c-0.4,0-0.8,0.1-1.2,0.1c-0.2,0-0.5,0.1-0.7,0.1
		c-0.3,0-0.6,0.1-0.9,0.1c-0.5,0.1-1.1,0.1-1.6,0.2c-0.4,0.1-0.8,0.1-1.2,0.2c-0.1,0-0.3,0-0.4,0c-0.3,0-0.7,0.1-1,0.1
		c-0.1,0-0.2,0-0.4,0c-0.4,0-0.8,0.1-1.2,0.1c-0.1,0-0.1,0-0.2,0c-6.6,0.7-15.8,1.3-21.8,2.5c-0.2,0-0.5,0.1-0.7,0.1h-0.6
		c-0.1,0-0.2,0.1-0.4,0.1c-0.1,0-0.3,0.1-0.4,0.1c-0.2,0.1-0.4,0.1-0.6,0.2c-0.2,0-0.3,0.1-0.5,0.1c-0.1,0-0.2,0.1-0.3,0.1
		c-0.4,0.1-0.7,0.3-1,0.4c0,0-0.1,0-0.1,0v0.1c-0.1,0.1-0.2,0.1-0.3,0.2c-0.1,0.1-0.2,0.1-0.2,0.2c-0.1,0.1-0.3,0.2-0.3,0.4
		c-1.7,2.7-2.5,3.6,0.8,4.2l0,0c0,0,0.1,0,0.1,0v0c0.3,0.1,0.7,0.1,1,0.2c0,0,0,0,0,0c0.2,0,0.4,0.1,0.6,0.1c0.2,0,0.4,0.1,0.7,0.1
		c3.1-0.8,6.6-1.9,10.2-3.3c11.7-4.5,39.2,6.6,56.3,6.1c1,0,1.9-0.1,2.8-0.1C274.4,341.8,278.7,340.2,285.1,341.1z"/>
	<path id="XMLID_1303_" fill="#594E50" d="M479.2,219.1c0.3,0.1,0.5,0.3,0.8,0.4v-1.3C479.7,218.5,479.5,218.7,479.2,219.1z"/>
	<path id="XMLID_1304_" fill="#594E50" d="M456.1,232.2l-4.4-2.4c-0.1,0.2-0.2,0.3-0.3,0.2c0,0-0.3-0.3-0.8-0.7
		c-0.3,0.7-0.9,1.1-1.6,1.4c-1.3,0.2-2.7,0.5-3.8,1c-2.2,0.5-4.3,1.3-4.7,3.6c-3.1,6,1.3,9.1,9.3,9.3c8,0.2,20,1.5,22.2,5
		c2.2,3.5-5.8,7.1-8,7.1c-2.2,0-7.8-1.7-10.8,1.2c-3,2.9-6.6,7.5-9.2,7.1c-1.4-0.2-4.1-1.9-7.2-3c-2.6-0.9-5.5-1.4-8-0.2
		c-5.4,2.7-12.6,6.9-17.4,5c-4.8-1.9-8.2-1.9-11.6,0.4c-0.2,0.1-0.5,0.3-0.8,0.4c-2.8,1.8-12.4,0.7-14.9,0.3c-0.6-0.1-1.3-0.2-2-0.2
		c-1.7,0-3.1,0.2-3.9,0.6c-3.4,1.9-7.6,4.2-3.8,4.8c0.2,0,0.3,0.1,0.5,0.1c3.7,0.6,8.7,1.5,13.3,3.9c4.8,2.5,11.8-1.7,19.6,3.1
		c7.8,4.8,14.8,13.9,21.6,15.4c2.2,0.5,4.8,0.5,7.4,0.4c5.2-0.2,10.1-0.7,11.2,2.1c1.3,3.3-5.3,6.5-11.2,6.6c-1.5,0-2.9-0.1-4.2-0.6
		c-6.2-2.1-12.6-6.9-19-4.6c-6.4,2.3-11.2,3.5-15,1.2c-3.8-2.3-10-2.7-12.4-0.6c-2.4,2.1-11.3-1.5-12.9,1.1
		c-1.5,2.6-2.1,3.9,2.5,6.2c4.6,2.3,0.4,6.2,4.6,7.9c4.2,1.7,9.6,3.7,9.2,6.2c-0.4,2.5-5.2,3.9-9.4,3.1c-4.2-0.8-8.6-1.5-10.2,3.3
		c-1.6,4.8-4,5.2-6.6,5.2c-0.2,0-0.5,0-0.7,0c-0.1,0-0.3,0-0.4,0.1c-0.1,0-0.2,0-0.3,0c-0.2,0-0.4,0.1-0.6,0.1c0,0,0,0-0.1,0
		c-0.2,0.1-0.4,0.1-0.6,0.2h0c-0.1,0-0.3,0.1-0.4,0.1h-0.3c-0.1,0.1-0.3,0.1-0.4,0.2c0,0,0,0,0,0c-0.1,0.1-0.2,0.1-0.3,0.2
		c0,0,0,0-0.1,0.1c-0.1,0.1-0.2,0.1-0.2,0.2c0,0-0.1,0.1-0.1,0.1c-0.1,0.1-0.1,0.1-0.2,0.2c0,0,0,0.1-0.1,0.1c0,0.1-0.1,0.1-0.1,0.2
		c0,0.1,0,0.1,0,0.2c0,0.1,0,0.1,0,0.2c0,0.1,0,0.1,0,0.2c0,0,0,0.1,0,0.1c0,0.1,0.1,0.2,0.2,0.4c0.1,0.1,0.2,0.3,0.3,0.4
		c-1.5,0.9-3,1.4-5,0.3c-3.9-2.3-8.2-0.2-9.7-2.9c-1.9,1.5-2.6,6-0.3,7.9c1.6,1.4,2.8-0.1,4.3-0.8c3.7-1.9,5-0.6,6.8,0.5
		c1.9,1.1,17.4,5.5,22.1-0.8c0.3-0.3,0.5-0.6,0.8-0.9c4.5-5,10-0.9,11.2,0.9c1.3,1.9,10.4-1.4,11.2,2.2c0.8,3.6,1.1,4.7,8.3,1.9
		c7.2-2.8,6.7,4.4,4.3,7.5c-0.8,1-2,1.4-3.3,1.5c0.7,1.3,1.1,2.3,1.2,3.9c0.2,2.7,2,2.9,7.8,5.8c4.1,2.1,11.4,3.8,18,4.7
		c2.7,0.3,5.2,0.5,7.4,0.5c7.6,0,17.4-0.8,22-2.9c4.6-2.1,4.8-3.9,4-6.4c-0.8-2.4,2.7-7.2-1.1-6.9c-0.1,0-0.2,0-0.3,0
		c-4.1,0.5-8.4,0.9-12-3.5c-3.6-4.4-3.8-7.9-13.6-7.3c-2.3,0.1-4.5,0.2-6.4,0.2c-6.3-0.1-10.6-1.3-13.4-3.7c-0.4-0.3-0.7-0.7-1.1-1
		c-0.2-0.2-0.3-0.3-0.5-0.5c-0.2-0.2-0.4-0.4-0.6-0.6c-0.2-0.2-0.4-0.5-0.6-0.7c-0.1-0.2-0.3-0.3-0.4-0.4c-0.2-0.3-0.4-0.5-0.6-0.8
		c-0.1-0.1-0.2-0.2-0.3-0.4h-0.1c-0.3-0.5-0.6-0.9-0.8-1.3c0,0,0,0,0,0c-0.1-0.1-0.1-0.2-0.2-0.4c0,0,0,0,0,0c0-0.1-0.1-0.2-0.1-0.3
		c0,0,0,0,0,0c0-0.1-0.1-0.2-0.1-0.3c0,0,0,0,0-0.1c0-0.1,0-0.2,0-0.2c0,0,0,0,0-0.1c0-0.1,0-0.1,0-0.2c0,0,0,0,0-0.1
		c0-0.1,0-0.1,0-0.2c0,0,0,0,0-0.1c0,0,0-0.1,0.1-0.1c0,0,0,0,0.1-0.1c0,0,0.1-0.1,0.1-0.1c0,0,0.1,0,0.1-0.1c0,0,0.1,0,0.1-0.1
		c0,0,0.1,0,0.1,0c0,0,0.1,0,0.1,0c0.1,0,0.1,0,0.2,0c0.1,0,0.1,0,0.2,0c0.1,0,0.2,0,0.3,0c0.1,0,0.1,0,0.2,0c0.2,0,0.3,0,0.5,0.1
		c5,1,8.4-3.7,14.2-3.7c0.8,0,1.7,0.1,2.6,0.2c5.7,0.6,13.3,2.8,18,2.8c5.4,0,10.4-2.3,14.8-2.5c4.4-0.2,7.6,0.4,7.4-1.9
		c-0.2-2.3-4.4-4.6-10.6-4.2c-6.2,0.4-9.6-0.2-11.2-2.5c-1.6-2.3-5.6-3.5-10.2-3.1c-4.6,0.4-7.4-2.9-3.2-3.5
		c4.2-0.6,7.8-4.4,12.2-1.7c4.4,2.7,8-3.9,14-2.3c3.4,1,7.6,1.8,12,2.6v-4.8c-10-2.4-20-5.5-21.6-8.5c-1.8-3.5-2-7.3,5.4-5.8
		c7.4,1.5,12.6-1.9,12.4-4.2c-0.2-2.3-9-6.9-22-7.3c-7.6-0.2-13.9-1.9-17.4-3.8c-2.5-1.4-3.6-2.9-2.6-4.1c0.5-0.6,1.4-1.3,2.6-2
		c4.3-2.4,12.6-4.4,20.8-0.3c10.4,5.2,11.2,6.4,21.8,5.4c0.2,0,0.4,0,0.6-0.1v-44C473,234.8,456.1,232.2,456.1,232.2z"/>
	<path id="XMLID_1305_" fill="#594E50" d="M177.7,504.3c4.3,1.5,10-1.1,13.9-5.1c0.2-0.2,0.4-0.4,0.6-0.6c0,0,0.1-0.1,0.1-0.1
		c2.6-2.8,3.2-3.9,7.9-4.8v0c0,0,0.1,0,0.1,0v0c0,0,0.1,0,0.1,0c0.3,0,0.5-0.1,0.8-0.1c0,0,0,0,0.1,0c0.3,0,0.6-0.1,0.9-0.1
		c0.1,0,0.2,0,0.3,0c0.3,0,0.5-0.1,0.8-0.1c0.4,0,0.8-0.1,1.2-0.1c9.5-1.1,5.7-3.7,12.5-8.4c6.8-4.7,12.8,2.8,20.7,2.4
		c7.9-0.4,9.9-3.7,14-6c4.1-2.2,8,5.7,12.9,4.2c4.9-1.5,9.2,6.8,9.2,13.2c0,6.4-8.1,7.6-12.7,5.7c-4.5-1.9-14.8,6.1-18.9,8.4
		c-4.1,2.4-0.9,6.4,2,8.4c1.4,1,4.5,2,8,2.8c-1-4.6,0.6-10.5,7.3-7.5c10.1,4.4,12.8-5.5,22.4-0.6c9.6,5,17.1,2.8,21.9,2.2
		c4.8-0.6,17.1-2.2,16.5-6.1c-0.5-3.9-1.6-7.2-10.7-4.4c-9.1,2.8-15.5-5-9.1-7.8c0.8-0.4,1.6-0.9,2.4-1.5
		c7.5-4.3,19.6-14.5,23.5-10.8c4,3.8,1.6,10.4,13.8,6.8c5.8-1.7,9.3-2.5,11.5-2.3c1.1,0.5,2.1,1.1,3.1,1.6c0.5,0.6,0.8,1.4,1.1,2.4
		c1.6,4.8,1,16.4,8.4,14.8c0.5-0.1,0.9-0.2,1.4-0.4c-2.3-1.2,4.9-5.4,10.4-4.8c5.6,0.6,6.2-0.6,10.8-2c0.5-0.1,0.9-0.3,1.2-0.5
		c0.6-0.7,0.4-1.5-1.4-2.5c-4.6-2.6-6.6-5.8-1.6-7.6c5-1.8,4.4-8.6-2.4-9.2c-6.8-0.6-8.6-6.6-3.6-8.2c1.8-0.6,3.6-1.5,4.7-2.6
		c0.5-0.5,0.9-1,1-1.5c0.2-0.9-0.3-1.9-2-2.7c-1-0.5-2.3-0.9-4.1-1.2c-0.9-0.2-1.7-0.3-2.5-0.4c-4.9-0.5-6.9,0.8-8.5,2.1
		c-4.8,1.7-5.9,3.9-8.5-1.3c-0.1-0.2-0.3-0.5-0.4-0.7c-4.5-6-21,2.2-22.5-1.5c-1.6-3.9,7.5-1.1,5.9-5c-0.7-1.8-3.8-3.3-7.3-4h0
		c-2.2-0.4-4.7-0.5-6.9,0h0c-1.8,0.4-3.4,1.1-4.5,2.3c-3.3,3.4-8,0.9-14.4-0.4c-2.2-0.4-4.6-0.7-7.2-0.5c-3.7,0.7-4.6,4.1-3.2,5.7
		c1.5,1.6,1.7,4.3-1.7,5.3c-3.5,1.1-4,0.9-4.9-1.3c-0.9-2.3,1.3-4.3-1.1-5.2c-2.4-0.9-3.7,0.3-4.7,1.6c-0.9,1.3-1.9,4.9-3.9,2.7
		c-2-2.3-2-4.3-4.9-3.6c-2.9,0.7-6.8,2.4-6.1,4.3c1.5,1.7-1.3,2.9-6.3,4.1c-0.5,0.1-0.9,0.2-1.4,0.4c-1.2,0.4-2.5,0.7-4,0.9
		c-4.8,0.7-11.4,0.4-19.3-0.6c-9.4-1.1-11.7-5.5-28.3,3.3c-1,0.5-2,1-3,1.5c-0.5,0.2-1,0.4-1.5,0.7c-0.5,0.2-1,0.4-1.5,0.6
		c-0.6,0.3-1.3,0.5-1.9,0.7c-0.3,0.1-0.7,0.3-1,0.4c-0.7,0.3-1.4,0.5-2.1,0.7c-0.3,0.1-0.5,0.2-0.8,0.3v0c0,0-0.1,0-0.1,0v0
		c0,0-0.1,0-0.1,0c-11.6,3.4-23.5,3.5-37.7,3.1c-1.1,0-2.3-0.1-3.5-0.1c-2.9-0.1-12.3-6.9-36.8-5.8c-8.1,0.4-10.7,3.9,0,8.3
		c10.7,4.4,14.3,3.9,14.9,11.1c0.3,3.5,0.8,5.8,2,7.5c2.5-1.4,7.1-2.5,11.5-2.7C155.8,502,173.4,502.8,177.7,504.3z"/>
	<path id="XMLID_1306_" fill="#594E50" d="M459.4,401.3c-2.4-2.4-5.2-1.6-9-0.4c-2,0.6-3.3,0.1-4.5-0.7c-1.8,1.9-7.1,1.1-11.6,0.4
		c-0.9,0.6-2,1.1-3,1.7c-4.2,4.5-1,11.1-1.4,16.5c-0.5,6.1-10.7,7.2-16.5,2.2c-2.3-1.9-5.6-2.8-9.1-2.9c-5.3-0.1-10.8,1.6-12.8,4
		c-1,1.2-1.5,2.1-1.4,2.8c0.1,1.7,3.2,2.5,11,3.3c11.2,1.1,14.8,0.8,16.9,6.9c0.4,1.3,0.7,1.7,1,1.7c1.2,0.1,3-6,17.8,3.1
		c0,0,0,0,0,0c7.1,4.4,10.5,5.4,12.4,5.1c0.6-0.3,1.1-0.6,1.6-0.9c1-1.2,1.2-3,2.6-3.8c0.5-0.5,1.4-1,2.7-1.6
		c4.5-1.9,10.4,2.1,16.3,0c2.3-0.9,5-1.6,7.6-1.9v-36.8c-6.2,1.2-10.7,5.6-14.8,5.4C460.8,405.1,461.8,403.7,459.4,401.3z"/>
	<path id="XMLID_1307_" fill="#594E50" d="M479.2,550.4c0.3,0.1,0.5,0.3,0.8,0.4v-1.3C479.7,549.8,479.5,550.1,479.2,550.4z"/>
	<path id="XMLID_1308_" fill="#594E50" d="M443.2,673.4c-2.3,0.1-4.5,0.2-6.4,0.2c-6.3-0.1-10.6-1.3-13.4-3.7
		c-0.4-0.3-0.7-0.7-1.1-1c-0.2-0.2-0.4-0.4-0.6-0.6c-0.2-0.2-0.4-0.4-0.6-0.6c-0.2-0.2-0.4-0.4-0.5-0.6c-0.2-0.2-0.4-0.4-0.5-0.6
		c-0.2-0.2-0.3-0.4-0.4-0.5c-0.2-0.2-0.4-0.4-0.5-0.7h0c0,0,0,0,0,0h0c0-0.1-0.1-0.1-0.1-0.2c-0.1-0.1-0.1-0.1-0.2-0.2
		c0-0.1-0.1-0.1-0.1-0.2c-0.1-0.1-0.1-0.2-0.2-0.2c0,0,0-0.1-0.1-0.1c-0.1-0.1-0.1-0.2-0.2-0.3c0,0,0-0.1-0.1-0.1
		c0-0.1-0.1-0.2-0.1-0.2c0,0,0-0.1-0.1-0.1c0-0.1-0.1-0.2-0.1-0.2c0,0,0-0.1,0-0.1c0-0.1-0.1-0.1-0.1-0.2c0,0,0-0.1,0-0.1
		c0-0.1,0-0.1,0-0.2c0,0,0-0.1,0-0.1c0-0.1,0-0.1,0-0.2c0,0,0-0.1,0-0.1c0,0,0-0.1,0-0.1c0,0,0-0.1,0.1-0.1c0,0,0-0.1,0-0.1
		c0,0,0.1-0.1,0.1-0.1c0,0,0,0,0.1-0.1c0,0,0.1-0.1,0.2-0.1c0,0,0,0,0.1,0c0.1,0,0.1,0,0.2,0c0,0,0.1,0,0.1,0c0.1,0,0.2,0,0.2,0
		c0,0,0.1,0,0.1,0c0.1,0,0.2,0,0.3,0c0,0,0.1,0,0.1,0c0.2,0,0.3,0,0.5,0.1c5,1,8.4-3.7,14.2-3.7c0.8,0,1.7,0.1,2.6,0.2
		c5.7,0.6,13.3,2.8,18,2.8c5.4,0,10.4-2.3,14.8-2.5c4.4-0.2,7.6,0.4,7.4-1.9c-0.2-2.3-4.4-4.6-10.6-4.2c-6.2,0.4-9.6-0.2-11.2-2.5
		c-1.6-2.3-5.6-3.5-10.2-3.1c-4.6,0.4-7.4-2.9-3.2-3.5c4.2-0.6,7.8-4.4,12.2-1.7c4.4,2.7,8-3.9,14-2.3c3.4,1,7.6,1.8,12,2.6v-4.8
		c-10-2.4-20-5.5-21.6-8.5c-1.8-3.5-2-7.3,5.4-5.8c7.4,1.5,12.6-1.9,12.4-4.2c-0.2-2.3-9-6.9-22-7.3c-7.6-0.2-13.9-1.9-17.4-3.8
		c-2.5-1.4-3.6-2.9-2.6-4.1c0.5-0.6,1.4-1.3,2.6-2c4.3-2.4,12.6-4.4,20.8-0.3c10.4,5.2,11.2,6.4,21.8,5.4c0.2,0,0.4,0,0.6-0.1v-44
		c-7,3.8-23.9,1.2-23.9,1.2l-4.4-2.4c-0.1,0.2-0.2,0.3-0.3,0.2c0,0-0.3-0.3-0.8-0.7c-0.3,0.7-0.9,1.1-1.6,1.4
		c-1.3,0.2-2.7,0.5-3.8,1c-2.2,0.5-4.3,1.3-4.7,3.6c-3.1,6,1.3,9.1,9.3,9.3c8,0.2,20,1.5,22.2,5c2.2,3.5-5.8,7.1-8,7.1
		c-2.2,0-7.8-1.7-10.8,1.2c-3,2.9-6.6,7.5-9.2,7.1c-1.4-0.2-4.1-1.9-7.2-3c-2.6-0.9-5.5-1.4-8-0.2c-5.4,2.7-12.6,6.9-17.4,5
		c-4.8-1.9-8.2-1.9-11.6,0.4c-0.2,0.1-0.5,0.3-0.8,0.4c-2.8,1.8-12.4,0.7-14.9,0.3c-0.6-0.1-1.3-0.2-2-0.2c-1.7,0-3.1,0.2-3.9,0.6
		c-3.4,1.9-7.6,4.2-3.8,4.8c0.2,0,0.3,0.1,0.5,0.1c3.7,0.6,8.7,1.5,13.3,3.9c4.8,2.5,11.8-1.7,19.6,3.1c7.8,4.8,14.8,13.9,21.6,15.4
		c2.2,0.5,4.8,0.5,7.4,0.4c5.2-0.2,10.1-0.7,11.2,2.1c1.3,3.3-5.3,6.5-11.2,6.6c-1.5,0-2.9-0.1-4.2-0.6c-6.2-2.1-12.6-6.9-19-4.6
		c-6.4,2.3-11.2,3.5-15,1.2c-3.8-2.3-10-2.7-12.4-0.6c-2.4,2.1-11.3-1.5-12.9,1.1c-1.5,2.6-2.1,3.9,2.5,6.2c4.6,2.3,0.4,6.2,4.6,7.9
		c4.2,1.7,9.6,3.7,9.2,6.2c-0.4,2.5-5.2,3.9-9.4,3.1c-4.2-0.8-8.6-1.5-10.2,3.3c-1.6,4.8-4,5.2-6.6,5.2c-0.3,0-0.5,0-0.8,0
		c-0.2,0-0.5,0.1-0.7,0.1c0,0,0,0-0.1,0c-0.5,0.1-1,0.3-1.5,0.4c0,0,0,0,0,0h0c0,0,0,0,0,0c-0.3,0.1-0.6,0.3-0.9,0.5c0,0,0,0,0,0
		c-0.1,0.1-0.2,0.2-0.3,0.3c0,0,0,0,0,0c-0.1,0.1-0.2,0.2-0.2,0.3c0,0,0,0,0,0.1c-0.1,0.1-0.1,0.2-0.1,0.3c0,0,0,0.1,0,0.1
		c0,0.1,0,0.2,0,0.2c0,0.1,0,0.1,0,0.2c0,0.1,0,0.1,0,0.2c0,0.1,0.1,0.2,0.2,0.4c0.1,0.1,0.2,0.3,0.3,0.4c-1.5,0.9-3,1.4-5,0.3
		c-3.9-2.3-8.2-0.2-9.7-2.9c-1.9,1.5-2.6,6-0.3,7.9c1.6,1.4,2.8-0.1,4.3-0.8c3.7-1.9,5-0.6,6.8,0.5c0.6,0.4,2.7,1.1,5.4,1.7h13.2
		c1.4-0.5,2.7-1.3,3.5-2.5c0.3-0.3,0.5-0.6,0.8-0.9c4.5-5,10-0.9,11.2,0.9c1.3,1.9,10.4-1.4,11.2,2.2c0,0.1,0,0.2,0.1,0.3h51.3
		C450.2,673.8,447.7,673.2,443.2,673.4z"/>
	<path id="XMLID_1309_" fill="#594E50" d="M453.3,478c-8.1,0.4-10.7,3.9,0,8.3c10.7,4.4,14.3,3.9,14.9,11.1c0.3,3.5,0.8,5.8,2,7.5
		c2.2-1.2,5.9-2.2,9.7-2.5v-21.9C474.2,478.9,465.7,477.4,453.3,478z"/>
	<path id="XMLID_1310_" fill="#594E50" d="M274.1,667.7c-12.5,1.9-14.1,1.9-19.7-2.2c-0.1,0-0.1-0.1-0.2-0.1h0c0,0,0,0,0,0l0,0
		c-2.5-1.8-5.6-2.8-9.1-3.4c0,0,0,0,0,0c-0.5-0.1-1-0.1-1.5-0.2c0,0-0.1,0-0.1,0c-0.5-0.1-1-0.1-1.4-0.1c-0.1,0-0.2,0-0.4,0
		c-0.4,0-0.8,0-1.2-0.1c-0.2,0-0.4,0-0.6,0c-0.3,0-0.7,0-1,0c-0.3,0-0.6,0-0.8,0c-0.3,0-0.5,0-0.8,0c-0.4,0-0.9,0-1.3,0.1
		c-0.1,0-0.2,0-0.3,0c-0.5,0-1,0.1-1.5,0.1c0,0-0.1,0-0.1,0c-1.1,0.1-2.1,0.2-3.2,0.4c-0.4,0.1-0.8,0.1-1.3,0.2
		c-0.2,0-0.5,0.1-0.7,0.1c-0.2,0-0.5,0.1-0.7,0.1c-0.2,0-0.4,0-0.6,0.1c-0.3,0-0.6,0.1-0.9,0.1c-0.1,0-0.2,0-0.3,0
		c-6.8,0.7-16.4,1.3-22.3,2.6h0c0,0-0.1,0-0.1,0H204c0,0-0.1,0-0.1,0c-0.7,0.1-1.3,0.3-1.8,0.5c-0.1,0-0.2,0.1-0.3,0.1
		c-0.2,0.1-0.4,0.1-0.6,0.2c-0.1,0-0.2,0.1-0.3,0.1c-0.2,0.1-0.3,0.1-0.5,0.2c-0.1,0-0.2,0.1-0.2,0.1v0.1c-0.1,0.1-0.2,0.1-0.3,0.2
		c-0.1,0.1-0.2,0.1-0.2,0.2c-0.1,0.1-0.3,0.2-0.3,0.4c-1.7,2.7-2.5,3.6,0.8,4.2v0c0,0,0.1,0,0.1,0v0c0.3,0.1,0.7,0.1,1,0.2
		c0.1,0,0.2,0,0.3,0c0.1,0,0.2,0,0.3,0c0.2,0,0.4,0.1,0.7,0.1c3.1-0.8,6.6-1.9,10.2-3.3c11.7-4.5,39.2,6.6,56.3,6.1
		c1,0,1.9-0.1,2.8-0.1c2.6-1.5,6.9-3.1,13.2-2.2c3.6,0.5,5.9,1,7.5,1c0.6-0.1,1.2-0.3,1.8-0.4C289.1,669.4,282.2,666.4,274.1,667.7z
		"/>
</g>
</svg>
