<?xml version="1.0" encoding="utf-8"?>
<!-- Generator: Adobe Illustrator 19.0.1, SVG Export Plug-In . SVG Version: 6.00 Build 0)  -->
<svg version="1.2" baseProfile="tiny" id="Layer_1" xmlns="http://www.w3.org/2000/svg" xmlns:xlink="http://www.w3.org/1999/xlink"
	 x="0px" y="0px" viewBox="0 0 480 670" xml:space="preserve">
<g id="XMLID_4_">
	<path id="XMLID_1311_" fill="#B7B09F" d="M63.8,229.3c-1.7,3.5-6.7,2.3-12.1,1.9c-0.2,0-0.4,0-0.6,0c-0.3,0.2-0.7,0.4-1.2,0.5
		c-7.2,2.9-9.1,3.2-5.3,8c0,0.1,0.1,0.1,0.1,0.2c2.7,1.5,6.1,2.4,8.9,2.5c5.6,0.2,8.5,1,12.3,2.1c7.7,2.3,13.1,6.4,15.2,4
		c2.1-2.4,0.4-4.3-3.2-5.3c-3.6-1-2.6-5.3,1.6-5c4.2,0.3,9.5,0.9,12-1.2c2.5-2.1,7.1-3,5-5.4c-2.1-2.4-5.5-1.8-5.5-3.1
		c-0.1-1.4,1.1-3.2,5.1-1.8c2.5,0.9,6.8,1.9,9.5,1.6c1.6-0.2,2.7-0.9,2.3-2.4c-0.3-1.1-1.1-2.4-2.3-3.6c-0.4-0.4-0.8-0.8-1.3-1.1
		l-1-0.5l0-0.2c-3.4-2.1-8.3-3.3-14.1-1.3c-10.3,3.4-10.3,6.4-15.8,6.4c-0.6,0-1.2,0-1.7,0C67.3,225.7,65.3,226.3,63.8,229.3z"/>
	<path id="XMLID_1312_" fill="#B7B09F" d="M12,31.8c-1.4-2.2-5.6-3-4.3-5.6c1.4-2.8,10.4,2.7,9.6,0.2c-1.4-4.6,5.2-3.8,8.4-0.6
		c2.4,2.4,2.4,4.4,2.4,7.4c1.7-0.1,4.1-0.8,7.5-2.3c8.3-3.6,11.2-8.3,16.3-6.4c8.9,3.4,16,2.5,18.9-0.3c1.9-1.8,5.1-1.2,7.6-1.5
		c1.3-0.1,2.5-0.5,3.3-1.5c2.4-3,2.9-10.2-4.3-7.5c-7.2,2.8-7.5,1.7-8.3-1.9c-0.8-3.6-9.9-0.3-11.2-2.2c-1.3-1.8-6.7-5.9-11.2-0.9
		c-0.3,0.3-0.5,0.6-0.8,0.9c-4.7,6.4-20.3,1.9-22.1,0.8c-1.8-1.1-3.1-2.4-6.8-0.5c-1.5,0.6-2.7,2.1-4.3,0.8
		c-2.3-1.9-1.6-6.5,0.3-7.9c0-0.1-0.1-0.1-0.1-0.2h0c-0.1-0.3-0.2-0.7-0.3-1.1c0,0,0,0,0-0.1c0-0.2-0.1-0.4-0.1-0.6
		c0-0.2,0-0.5,0-0.7c0-0.6,0-1.1-0.1-1.6H2.2c-1.3,0.3-2.6,0.4-3.3,0v33.1c1.2,0.7,2.2,1,3.1,1.1C6.4,34.5,9.9,33.5,12,31.8z"/>
	<path id="XMLID_1313_" fill="#B7B09F" d="M192.8,306.2c0.4,0.3,0.9,0.6,1.3,0.9c0,0,0,0,0,0c0.4,0.3,0.8,0.6,1.2,0.8c0,0,0,0,0.1,0
		c0.4,0.3,0.7,0.5,1.1,0.8c0,0,0,0,0.1,0c0.4,0.3,0.7,0.5,1,0.7c0,0,0,0,0,0c1.3,1,2.2,1.8,2.5,2.4c0,0,0,0,0,0v0
		c0.1,0.1,0.1,0.2,0.1,0.3v0.4c0,0.1-0.1,0.2-0.1,0.2v0c0,0,0,0,0,0c-0.1,0.2-0.4,0.3-0.8,0.4c0,0,0,0,0,0c-0.2,0-0.4,0.1-0.6,0.1
		c0,0-0.1,0-0.1,0c-0.2,0-0.5,0.1-0.8,0.1c-5.5,0.3-14.8-0.2-17.7,0.8c-2.9,1-7.3,2.8-5.7,5.3c1.6,2.5,8.3-1.4,14.9,0.6
		c0.3,0.1,0.6,0.2,0.9,0.2c0.1,0,0.2,0,0.2,0c0.2,0,0.4,0.1,0.6,0.1c0.1,0,0.2,0,0.3,0c0.2,0,0.4,0,0.5,0c0.1,0,0.2,0,0.2,0
		c0.2,0,0.4,0,0.5,0c0.1,0,0.1,0,0.2,0c0.2,0,0.4,0,0.5-0.1c0,0,0.1,0,0.1,0c0.2,0,0.4-0.1,0.6-0.1c0,0,0,0,0.1,0
		c2.2-0.6,4-1.8,6.1-2.2l0,0v0c0,0,0.1,0,0.1,0v0c0,0,0,0,0,0c0.3-0.1,0.6-0.1,1-0.1c0,0,0,0,0,0c0.3,0,0.7,0,1,0c0,0,0,0,0,0
		c0.3,0,0.7,0.1,1.1,0.2c0,0,0,0,0,0c0.4,0.1,0.8,0.2,1.2,0.4c6.4,2.5,22.3,1.9,26-1.1c3.7-3,6.3-8.4,10.5-6.5
		c4.3,1.9,7.5-0.7,9.3-2.9c1.9-2.2-2-3.9-5.7-2.8c-3.7,1.1-6.9,1.8-8.4-0.6c-1.5-2.4-6.1-3.5-11.3-2.4c-4,0.8-4.4-1.6-7-2
		c-3.7,2-8,3.5-11.4,1.1c-0.2-0.1-0.4-0.2-0.6-0.4c-0.1-0.1-0.2-0.1-0.3-0.2c-0.1-0.1-0.2-0.1-0.3-0.2c-0.1-0.1-0.3-0.1-0.4-0.2
		c-0.1,0-0.2-0.1-0.3-0.1c-0.2-0.1-0.4-0.1-0.6-0.2c-0.1,0-0.1,0-0.2-0.1c-0.2-0.1-0.5-0.1-0.7-0.2c0,0-0.1,0-0.1,0
		c-0.3-0.1-0.5-0.1-0.8-0.2c0,0,0,0-0.1,0c-0.6-0.1-1.2-0.2-1.9-0.3v0v0c-3.4-0.5-7.4-0.7-10.7-1.2c0,0,0,0,0,0
		c-0.3-0.1-0.7-0.1-1-0.2c0,0-0.1,0-0.1,0c-0.3-0.1-0.6-0.1-0.8-0.2c-0.1,0-0.1,0-0.2,0c-0.2-0.1-0.5-0.1-0.7-0.2
		c-0.1,0-0.2,0-0.2-0.1c-0.2-0.1-0.4-0.1-0.6-0.2c-0.1,0-0.2,0-0.2-0.1c-0.2-0.1-0.4-0.1-0.6-0.2c-0.1,0-0.2-0.1-0.2-0.1
		c-0.2-0.1-0.3-0.2-0.5-0.3c-0.1,0-0.1-0.1-0.2-0.1c-0.2-0.1-0.4-0.3-0.6-0.4c-4-3.3-17-2.3-18.8-6.6c-1.8-4.4,3.2-3.1,7.8-4.4
		c4.6-1.2,15-3.1,6.4-8.7c-8.6-5.6-20.2-2.3-30.8-1.2c-10.6,1-11.4-0.2-21.8-5.4c-8.2-4.1-16.5-2.1-20.8,0.3c-1.2,0.7-2.1,1.4-2.6,2
		c-1,1.2,0.1,2.7,2.6,4.1c3.5,1.9,9.8,3.6,17.4,3.8c13,0.4,21.8,5,22,7.3c0.2,2.3-5,5.6-12.4,4.2c-7.4-1.5-7.2,2.3-5.4,5.8
		c1.8,3.5,14.8,7.1,26,9.6c10.1,2.2,17.2,0.6,18.1,2.1c2.1-0.2,4.1-0.5,6.3-0.6C182.1,307.9,186.6,302,192.8,306.2z"/>
	<path id="XMLID_1314_" fill="#B7B09F" d="M30.9,132.9c-0.7,2-2.2,2.9-3.6,3.1c0.2,0.2,0.3,0.4,0.4,0.7c2.7,5.1,3.7,2.9,8.5,1.3
		c1.7-1.3,3.7-2.6,8.5-2.1c-1.2-2.1-2.2-4-2.6-5C40.5,126.7,32.8,127.8,30.9,132.9z"/>
	<path id="XMLID_1315_" fill="#B7B09F" d="M1.1,279c5.6,8,9.1,10,10.7,6.6c1.6-3.3,1.1-11.6-5.1-14.1c-2.6-1-5.2-1.8-7.8-2.4v7.4
		C-0.4,277.2,0.4,278,1.1,279z"/>
	<path id="XMLID_1316_" fill="#B7B09F" d="M1.6,253.5c-1.3-1.7-5.1-3,0.3-5.5c0.1-0.1,0.3-0.1,0.4-0.2c0.2,0,0.4-0.1,0.6-0.1
		c5.4-1.2,6.6-1.4,10,1.2c3.4,2.6,6.2-2.4,4.8-6.4c-1.4-4,7.8-4.6,10.2-8c2.4-3.4-4.4-0.8-7.2-2.8c-2.8-2-4.2-3-8.2-2
		c-0.7,0.2-1.2,0.3-1.6,0.5c-1.2,0.5-1.7,1-2.2,1.9c-0.6,0.4-1.1,0.9-1.5,1.5c-2.4,3.3-1.3,6.1-4.5,5.8c-2.7-0.2-0.7,2.5-3.8,3.3
		v13.5C1.7,256.7,2.7,254.9,1.6,253.5z"/>
	<path id="XMLID_1317_" fill="#B7B09F" d="M63.8,560.7c-1.7,3.5-6.7,2.3-12.1,1.9c-0.2,0-0.4,0-0.6,0c-0.3,0.2-0.7,0.4-1.2,0.5
		c-7.2,2.9-9.1,3.2-5.3,8c0,0.1,0.1,0.1,0.1,0.2c2.7,1.5,6.1,2.4,8.9,2.5c5.6,0.2,8.5,1,12.3,2.1c7.7,2.3,13.1,6.4,15.2,4
		c2.1-2.4,0.4-4.3-3.2-5.3c-3.6-1-2.6-5.3,1.6-5c4.2,0.3,9.5,0.9,12-1.2c2.5-2.1,7.1-3,5-5.4c-2.1-2.4-5.5-1.8-5.5-3.1
		c-0.1-1.4,1.1-3.2,5.1-1.8c2.5,0.9,6.8,1.9,9.5,1.6c1.6-0.2,2.7-0.9,2.3-2.4c-0.3-1.1-1.1-2.4-2.3-3.6c-0.4-0.4-0.8-0.8-1.3-1.1
		l-1-0.5l0-0.2c-3.4-2.1-8.3-3.3-14.1-1.3c-10.3,3.4-10.3,6.4-15.8,6.4c-0.6,0-1.2,0-1.7,0C67.3,557,65.3,557.6,63.8,560.7z"/>
	<path id="XMLID_1318_" fill="#B7B09F" d="M12,363.2c-1.4-2.2-5.6-3-4.3-5.6c1.4-2.8,10.4,2.7,9.6,0.2c-1.4-4.6,5.2-3.8,8.4-0.6
		c2.4,2.4,2.4,4.4,2.4,7.4c1.7-0.1,4.1-0.8,7.5-2.3c8.3-3.6,11.2-8.3,16.3-6.4c8.9,3.4,16,2.5,18.9-0.3c1.9-1.8,5.1-1.2,7.6-1.5
		c1.3-0.1,2.5-0.5,3.3-1.5c2.4-3,2.9-10.2-4.3-7.5c-7.2,2.8-7.5,1.7-8.3-1.9c-0.8-3.6-9.9-0.3-11.2-2.2c-1.3-1.8-6.7-5.9-11.2-0.9
		c-0.3,0.3-0.5,0.6-0.8,0.9c-4.7,6.4-20.3,1.9-22.1,0.8c-1.8-1.1-3.1-2.4-6.8-0.5c-1.5,0.6-2.7,2.1-4.3,0.8
		c-2.3-1.9-1.6-6.5,0.3-7.9c0,0,0-0.1,0-0.1H13c-0.1-0.2-0.1-0.4-0.2-0.6c0,0,0,0,0,0c0-0.2-0.1-0.3-0.1-0.5c0-0.1,0-0.1,0-0.2
		c0-0.1,0-0.3-0.1-0.5c0-0.2,0-0.5,0-0.7c0-2.6-0.3-4.7-0.9-6.5c-2.9,1.2-6,3.3-8.6,4.6c-1.6,0.4-3.3,0.7-4.2,0.2v33
		c1.2,0.7,2.2,1,3.1,1.1C6.4,365.8,9.9,364.9,12,363.2z"/>
	<path id="XMLID_1319_" fill="#B7B09F" d="M30.9,464.2c-0.7,2-2.2,2.9-3.6,3.1c0.2,0.2,0.3,0.4,0.4,0.7c2.7,5.1,3.7,2.9,8.5,1.3
		c1.7-1.3,3.7-2.6,8.5-2.1c-1.2-2.1-2.2-4-2.6-5C40.5,458.1,32.8,459.2,30.9,464.2z"/>
	<path id="XMLID_1320_" fill="#B7B09F" d="M1.1,610.4c5.6,8,9.1,10,10.7,6.6c1.6-3.3,1.1-11.6-5.1-14.1c-2.6-1-5.2-1.8-7.8-2.4v7.4
		C-0.4,608.6,0.4,609.4,1.1,610.4z"/>
	<path id="XMLID_1321_" fill="#B7B09F" d="M1.6,584.9c-1.3-1.7-5.1-3,0.3-5.5c0.1-0.1,0.3-0.1,0.4-0.2c0.2,0,0.4-0.1,0.6-0.1
		c5.4-1.2,6.6-1.4,10,1.2c3.4,2.6,6.2-2.4,4.8-6.4c-1.4-4,7.8-4.6,10.2-8c2.4-3.4-4.4-0.8-7.2-2.8c-2.8-2-4.2-3-8.2-2
		c-0.7,0.2-1.2,0.3-1.6,0.5c-1.2,0.5-1.7,1-2.2,1.9c-0.6,0.4-1.1,0.9-1.5,1.5c-2.4,3.3-1.3,6.1-4.5,5.8c-2.7-0.2-0.7,2.5-3.8,3.3
		v13.5C1.7,588.1,2.7,586.2,1.6,584.9z"/>
	<path id="XMLID_1322_" fill="#B7B09F" d="M250.1,206c0.5,0,1-0.1,1.7-0.3c0.5-0.1,0.9-0.3,1.4-0.5c1.5-0.5,3.1-1.1,4.9-1.9
		c2.2-1,4-1.6,5.7-2.1c1,0,2,0.1,3.1,0.4c4.8,1.4,8.2,1.3,9.5-0.2c0.3-0.4,0.5-0.8,0.6-1.3c0.3-2.6-3.5-6.8-10.1-6.5
		c-0.5,0-0.9,0-1.4,0c-0.6,0-1.3-0.1-2.1,0c-3.1,0.1-7.5-0.5-11.3-1.4c-3.5-0.8-6.6-1.8-8-2.8c-2.9-2.1-6.1-6.1-2-8.4
		c4.1-2.4,14.4-10.4,18.9-8.4c4.5,1.9,12.7,0.7,12.7-5.7c0-6.4-4.3-14.7-9.2-13.2c-4.9,1.5-8.8-6.4-12.9-4.2c-4.1,2.2-6.1,5.5-14,6
		c-7.9,0.4-13.9-7.1-20.7-2.4c-6.8,4.7-3.1,7.3-12.5,8.4c-0.4,0-0.8,0.1-1.2,0.1c-0.3,0-0.6,0.1-0.9,0.1c0,0-0.1,0-0.1,0
		c-0.7,0.1-1.4,0.2-2,0.3v0v0c-4.6,0.9-5.3,2-7.8,4.7c0,0.1-0.1,0.1-0.1,0.2c-0.2,0.2-0.4,0.4-0.6,0.6c-3.9,4-9.6,6.6-13.9,5.1
		c-4.3-1.5-21.9-2.4-27.3-2.1c-4.4,0.2-9,1.3-11.5,2.7c-0.6,0.3-1.1,0.7-1.5,1.1c-1.6,1.8-0.1,2.1,4.8,3.2c4.9,1.1,8.5,1.1,12,3.5
		c0.5,0.3,1,0.6,1.6,0.8c4.1,1.7,11.2,2.1,15.6,0.8c5.1-1.5,8.8,0.6,12.5-1.8c3.7-2.4,12.7-5.7,14.3-4.8c1.6,0.8-1.9,5.1-5.7,7.3
		c-3.9,2.2-5.7,10-2.5,11.9c3.4,2.1-3.6,7.1,0.1,10.2c0,0,0.1,0.1,0.1,0.1c1.1-1.1,2.6-2.1,4.6-2.8c1.9-0.6,3.6-1.2,5.2-1.6v0
		c0,0,0.1,0,0.1,0v0c0,0,0.1,0,0.1,0c0.3-0.1,0.6-0.2,0.8-0.2c0.3-0.1,0.6-0.2,0.9-0.2c4.4-1.1,7-0.9,8.2,2.7
		c1.8,5.3-1.7,9.1-7.4,14.2c-5.7,5.1-0.2,8.4,4.7,10c4.9,1.6,2.7-12.2,9.6-12.5c6.9-0.3,6.4-0.9,6.1-8.1c-0.3-7.2,15.3-4.9,19-4.5
		c2.6,0.3,3.2,2.1,0.8,3.4C245.6,206.3,247.8,206.4,250.1,206z"/>
	<path id="XMLID_1323_" fill="#B7B09F" d="M395.2,229.3c-1.7,3.5-6.7,2.3-12.1,1.9c-0.2,0-0.4,0-0.6,0c-0.3,0.2-0.7,0.4-1.2,0.5
		c-7.2,2.9-9.1,3.2-5.3,8c0,0.1,0.1,0.1,0.1,0.2c2.7,1.5,6.1,2.4,8.9,2.5c5.6,0.2,8.5,1,12.3,2.1c7.7,2.3,13.1,6.4,15.2,4
		c2.1-2.4,0.4-4.3-3.2-5.3c-3.6-1-2.6-5.3,1.6-5c4.2,0.3,9.5,0.9,12-1.2c2.5-2.1,7.1-3,5-5.4c-2.1-2.4-5.5-1.8-5.5-3.1
		c-0.1-1.4,1.1-3.2,5.1-1.8c2.5,0.9,6.8,1.9,9.5,1.6c1.6-0.2,2.7-0.9,2.3-2.4c-0.3-1.1-1.1-2.4-2.3-3.6c-0.4-0.4-0.8-0.8-1.3-1.1
		l-1-0.5l0-0.2c-3.4-2.1-8.3-3.3-14.1-1.3c-10.3,3.4-10.3,6.4-15.8,6.4c-0.6,0-1.2,0-1.7,0C398.7,225.7,396.6,226.3,395.2,229.3z"/>
	<path id="XMLID_1324_" fill="#B7B09F" d="M298.5,0.7c-0.2,0-0.4-0.1-0.5-0.1c-0.1,0-0.1,0-0.2,0c-0.1,0-0.2,0-0.3,0
		c-0.1,0-0.2,0-0.2,0c-0.1,0-0.1,0-0.2,0c-0.1,0-0.1,0-0.2,0c0,0-0.1,0-0.1,0c-0.1,0-0.1,0-0.2,0c0,0-0.1,0-0.1,0
		c-0.1,0-0.1,0-0.2,0c0,0-0.1,0-0.1,0c-0.1,0-0.1,0-0.2,0.1c0,0,0,0-0.1,0c-0.1,0-0.1,0.1-0.1,0.1c0,0,0,0-0.1,0
		c0,0-0.1,0.1-0.1,0.1c0,0,0,0,0,0c0,0-0.1,0.1-0.1,0.1c0,0,0,0,0,0c0,0-0.1,0.1-0.1,0.2c0,0,0,0,0,0c0,0.1,0,0.1,0,0.2c0,0,0,0,0,0
		c0,0.1,0,0.1,0,0.2c0,0,0,0,0,0c0,0.1,0,0.1,0,0.2c0,0,0,0,0,0c0,0.1,0,0.2,0,0.3c0,0,0,0,0,0c0,0.1,0,0.2,0,0.3h0
		c0,0.2,0.1,0.3,0.1,0.5c0.1,0.6,0.3,1.3,0.5,2c0.3,1.2,0.5,2.5,0,3.5c-0.4,0.9-0.8,1.5-1.4,1.8c0,0-0.1,0-0.2,0
		c-0.6,0.1-1.2,0.3-1.8,0.4c-1.6,0-3.9-0.5-7.5-1c-6.3-0.9-10.6,0.7-13.2,2.2c-0.4,0.3-0.8,0.5-1.2,0.7c-2.4,1.7-2.4,3.9,4.6,6.6
		c7,2.7,7,2.7,12.6,0.2c5.6-2.5,11.6,2.1,14.4,6.4c2.8,4.4,9,1.2,13.6-2.1c2.3-1.7,4.4-1,6.4,0.4c1.5,1.5,2.4,2.7,4.4,4.2
		c0.3,0.3,0.7,0.7,1,1c2.4,2.2,4.1,2.9,5.7,3.1c4.5,1.9,8,0.9,10-0.8c-1.4-2.2-5.6-3-4.3-5.6c1.4-2.8,10.4,2.7,9.6,0.2
		c-1.4-4.6,5.2-3.8,8.4-0.6c2.4,2.4,2.4,4.4,2.4,7.4c1.7-0.1,4.1-0.8,7.5-2.3c8.3-3.6,11.2-8.3,16.3-6.4c8.9,3.4,16,2.5,18.9-0.3
		c1.9-1.8,5.1-1.2,7.6-1.5c1.3-0.1,2.5-0.5,3.3-1.5c2.4-3,2.9-10.2-4.3-7.5c-7.2,2.8-7.5,1.7-8.3-1.9c-0.8-3.6-9.9-0.3-11.2-2.2
		c-1.3-1.8-6.7-5.9-11.2-0.9c-0.3,0.3-0.5,0.6-0.8,0.9c-4.7,6.4-20.3,1.9-22.1,0.8c-1.8-1.1-3.1-2.4-6.8-0.5
		c-1.5,0.6-2.7,2.1-4.3,0.8c-2.3-1.9-1.6-6.5,0.3-7.9c0-0.1-0.1-0.1-0.1-0.2h0c0,0,0,0,0-0.1h0c0,0,0,0,0,0c-0.1-0.3-0.2-0.6-0.3-1
		c0,0,0,0,0-0.1c0-0.2-0.1-0.4-0.1-0.6c0-0.2,0-0.5,0-0.7c0-0.6,0-1.1-0.1-1.6h-10.3c-1.3,0.3-2.6,0.4-3.3,0h-5.7
		c-1.4,1.4-3.4,1.4-5.4,0h-8.9c-0.8,0.7-1.7,1.3-2.6,1.7C305.3,1.2,302.4,1.6,298.5,0.7z"/>
	<path id="XMLID_1325_" fill="#B7B09F" d="M468.8,174.6c-1.6,1.8-0.1,2.1,4.8,3.2c2.4,0.5,4.5,0.8,6.4,1.2v-8
		c-3.8,0.4-7.6,1.4-9.7,2.5C469.6,173.9,469.1,174.2,468.8,174.6z"/>
	<path id="XMLID_1326_" fill="#B7B09F" d="M457.6,269.8c-8.2-4.1-16.5-2.1-20.8,0.3c-1.2,0.7-2.1,1.4-2.6,2c-1,1.2,0.1,2.7,2.6,4.1
		c3.5,1.9,9.8,3.6,17.4,3.8c13,0.4,21.8,5,22,7.3c0.2,2.3-5,5.6-12.4,4.2c-7.4-1.5-7.2,2.3-5.4,5.8c1.6,3.1,11.6,6.1,21.6,8.5v-30.6
		c-0.2,0-0.4,0-0.6,0.1C468.8,276.2,468,275,457.6,269.8z"/>
	<path id="XMLID_1327_" fill="#B7B09F" d="M367.6,137.9c1.7-1.3,3.7-2.6,8.5-2.1c-1.2-2.1-2.2-4-2.7-5c-1.6-4-9.3-2.9-11.2,2.1
		c-0.7,2-2.2,2.9-3.6,3.1c0.2,0.2,0.3,0.4,0.4,0.7C361.8,141.8,362.8,139.6,367.6,137.9z"/>
	<path id="XMLID_1328_" fill="#B7B09F" d="M261,123.4c-2.1,1.2-2.5,0.9-4-1.7c-1.5-2.7-3.3-3.1-8-2.5c-4.7,0.5-4.3,2.8-4.7,4.3
		c-0.4,1.5-2.5,3.5-4.7,0.9c-2.1-2.5-6.7-2.4-5.1,2.1c0,0,0,0.1,0,0.1c1.6,4.5,4.1,7.7,7.1,6.5c3.1-1.2,11.6,0,12.8,2.1
		c1.2,2.1-2.5,7.4,4.9,6.2c0,0.1,0,0.1,0,0.2c1.5-0.2,2.8-0.5,4-0.9c0.5-0.1,1-0.2,1.4-0.4c5-1.1,7.9-2.3,6.3-4.1
		c-0.7-1.9,3.2-3.6,6.1-4.3c2.9-0.7,2.9,1.3,4.9,3.6c2,2.3,2.9-1.3,3.9-2.7c0.9-1.3,2.3-2.5,4.7-1.6c2.4,0.9,0.1,2.9,1.1,5.2
		c0.9,2.3,1.5,2.4,4.9,1.3c3.5-1.1,3.2-3.7,1.7-5.3c-1.5-1.6-0.5-5,3.2-5.7c2.6-0.2,5,0.1,7.2,0.5c1.2-1.1,2-2.2,2.2-3.3
		c0.7-4-4.7-4-12.1-0.8c-7.4,3.2-16,1.7-17.9-0.3c-1.9-2-3.1-4.7-9.2-0.2c-1.9,1.4-3.2,1.8-4.3,1.6
		C265.1,123.3,263.1,122.2,261,123.4z"/>
	<path id="XMLID_1329_" fill="#B7B09F" d="M340,232.1c-0.6,0.4-1.1,0.9-1.5,1.5c-2.4,3.3-1.3,6.1-4.5,5.8c-3.2-0.3,0.3,3.6-6.1,3.6
		c-6.4,0-6.1,0.6-8.3,4.7c-1.1,2.1-2.8,3.7-4.6,4.5c-1.7,0.8-3.4,0.9-4.5-0.1c-2.1-1.9-7.2-6.9-12.8-4.4c-5.6,2.5-6.1,4.4-12,5.3
		c-2.5,0.3-4.4-0.5-6.1-1.5c-2.3-1.3-4.1-2.8-5.9-1.6c-3.2,2.2-3.7-1.4-8,0c-2.4,0.8-4.4,1.8-5.2,3.8c-0.2,0.3-0.5,0.6-0.7,1
		c-0.3,0.5-0.6,1-0.9,1.6c-1.9,3.9-11.5-2.2-14.1,0.6c-2.4,2.5-2.9,9.5-9.2,7.6c-0.7-0.2-1.4-0.5-2.3-0.9c-3.1-1.6-5.3-1.6-6.8-0.9
		c-0.3,0.2-0.6,0.4-0.9,0.6c-1.9,1.6-2.3,4.7-2.5,6.4c-0.3,3,2.3,11.1,13.1,4.2c20.1-12.9,14.7-3.4,30.1-3.6c0.2,0,0.4,0,0.6,0
		c3.3-0.1,5.9-2.9,8.7-4.4c1.3-0.7,2.6-1.1,4.1-0.9c4.3,0.8,5.7,1.6,9.6-1c3.8-1.7,6.9-3.8,9,1c2.4,5.7,6.1,7.2,13.1,8.9
		c2.8,0.7,5.9,0.3,9,0.3c4.4-0.1,8.7,0.3,12,5c5.6,8,9.1,10,10.7,6.6c1.6-3.3,1.1-11.6-5.1-14.1c-6.1-2.5-12.5-3.3-17.9-4.2
		c-5.3-0.8-6.1-4.7-3.2-8.6c2.9-3.9,6.4-5.5,10.9-3.3c4.5,2.2,6.4-0.3,5.1-1.9c-1.3-1.7-5.1-3,0.3-5.5c0.1-0.1,0.3-0.1,0.4-0.2
		c0.2,0,0.4-0.1,0.6-0.1c5.4-1.2,6.6-1.4,10,1.2c3.4,2.6,6.2-2.4,4.8-6.4c-1.4-4,7.8-4.6,10.2-8c2.4-3.4-4.4-0.8-7.2-2.8
		c-2.8-2-4.2-3-8.2-2c-0.7,0.2-1.2,0.3-1.6,0.5C341.1,230.7,340.5,231.2,340,232.1z"/>
	<path id="XMLID_1330_" fill="#B7B09F" d="M250.1,537.4c0.5,0,1-0.1,1.7-0.3c0.5-0.1,0.9-0.3,1.4-0.5c1.5-0.5,3.1-1.1,4.9-1.9
		c2.2-1,4-1.6,5.7-2.1c1,0,2,0.1,3.1,0.4c4.8,1.4,8.2,1.3,9.5-0.2c0.3-0.4,0.5-0.8,0.6-1.3c0.3-2.6-3.5-6.8-10.1-6.5
		c-0.5,0-0.9,0-1.4,0c-0.6,0-1.3-0.1-2.1,0c-3.1,0.1-7.5-0.5-11.3-1.4c-3.5-0.8-6.6-1.8-8-2.8c-2.9-2.1-6.1-6.1-2-8.4
		c4.1-2.4,14.4-10.4,18.9-8.4c4.5,1.9,12.7,0.7,12.7-5.7c0-6.4-4.3-14.7-9.2-13.2c-4.9,1.5-8.8-6.4-12.9-4.2c-4.1,2.2-6.1,5.5-14,6
		c-7.9,0.4-13.9-7.1-20.7-2.4c-6.8,4.7-3.1,7.3-12.5,8.4c-0.4,0-0.8,0.1-1.2,0.1c-0.3,0-0.5,0.1-0.8,0.1c-0.1,0-0.2,0-0.3,0
		c-0.3,0-0.6,0.1-0.9,0.1c0,0,0,0-0.1,0c-0.3,0-0.6,0.1-0.8,0.1c0,0-0.1,0-0.1,0c0,0-0.1,0-0.1,0v0v0c-4.7,0.9-5.3,2-7.9,4.8
		c0,0-0.1,0.1-0.1,0.1c-0.2,0.2-0.4,0.4-0.6,0.6c-3.9,4-9.6,6.6-13.9,5.1c-4.3-1.5-21.9-2.4-27.3-2.1c-4.4,0.2-9,1.3-11.5,2.7
		c-0.6,0.3-1.1,0.7-1.5,1.1c-1.6,1.8-0.1,2.1,4.8,3.2c4.9,1.1,8.5,1.1,12,3.5c0.5,0.3,1,0.6,1.6,0.8c4.1,1.7,11.2,2.1,15.6,0.8
		c5.1-1.5,8.8,0.6,12.5-1.8c3.7-2.4,12.7-5.7,14.3-4.8c1.6,0.8-1.9,5.1-5.7,7.3c-3.9,2.2-5.7,10-2.5,11.9c3.4,2.1-3.6,7.1,0.1,10.2
		c0,0,0.1,0.1,0.1,0.1c1.1-1.1,2.6-2.1,4.6-2.8c1.9-0.6,3.6-1.2,5.2-1.6v0c0,0,0.1,0,0.1,0v0c0,0,0.1,0,0.1,0
		c0.3-0.1,0.5-0.2,0.8-0.2c0.3-0.1,0.6-0.2,0.9-0.3c4.4-1.1,7-0.9,8.2,2.7c1.8,5.3-1.7,9.1-7.4,14.2c-5.7,5.1-0.2,8.4,4.7,10
		c4.9,1.6,2.7-12.2,9.6-12.5c6.9-0.3,6.4-0.9,6.1-8.1c-0.3-7.2,15.3-4.9,19-4.5c2.6,0.3,3.2,2.1,0.8,3.4
		C245.6,537.7,247.8,537.8,250.1,537.4z"/>
	<path id="XMLID_1331_" fill="#B7B09F" d="M206.5,632.7c-0.2-0.1-0.4-0.2-0.6-0.4c-0.1-0.1-0.2-0.1-0.3-0.2
		c-0.1-0.1-0.2-0.1-0.3-0.2c-0.1-0.1-0.3-0.1-0.4-0.2c-0.1,0-0.2-0.1-0.3-0.1c-0.2-0.1-0.4-0.1-0.6-0.2c-0.1,0-0.1,0-0.2-0.1
		c-0.2-0.1-0.4-0.1-0.7-0.2c-0.1,0-0.1,0-0.2,0c-0.3-0.1-0.5-0.1-0.8-0.2c0,0-0.1,0-0.1,0c-0.3-0.1-0.6-0.1-0.9-0.2c0,0,0,0-0.1,0
		c-0.3-0.1-0.6-0.1-0.9-0.1c0,0,0,0,0,0v0c-3-0.4-6.5-0.7-9.6-1.1c0,0,0,0,0,0c-0.3,0-0.6-0.1-1-0.1c-0.1,0-0.1,0-0.2,0
		c-0.3,0-0.5-0.1-0.8-0.1c-0.1,0-0.2,0-0.3,0c-0.2,0-0.5-0.1-0.7-0.1c-0.1,0-0.2,0-0.3-0.1c-0.2,0-0.4-0.1-0.6-0.2
		c-0.1,0-0.2-0.1-0.3-0.1c-0.2-0.1-0.4-0.1-0.5-0.2c-0.1,0-0.2-0.1-0.3-0.1c-0.2-0.1-0.3-0.1-0.5-0.2c-0.1,0-0.2-0.1-0.3-0.1
		c-0.2-0.1-0.3-0.2-0.4-0.2c-0.1,0-0.2-0.1-0.2-0.1c-0.2-0.1-0.4-0.3-0.6-0.4c-4-3.3-17-2.3-18.8-6.6c-1.8-4.4,3.2-3.1,7.8-4.4
		c4.6-1.2,15-3.1,6.4-8.7c-8.6-5.6-20.2-2.3-30.8-1.2c-10.6,1-11.4-0.2-21.8-5.4c-8.2-4.1-16.5-2.1-20.8,0.3c-1.2,0.7-2.1,1.4-2.6,2
		c-1,1.2,0.1,2.7,2.6,4.1c3.5,1.9,9.8,3.6,17.4,3.8c13,0.4,21.8,5,22,7.3c0.2,2.3-5,5.6-12.4,4.2c-7.4-1.5-7.2,2.3-5.4,5.8
		c1.8,3.5,14.8,7.1,26,9.6c10.1,2.2,17.2,0.6,18.1,2.1c2.1-0.2,4.1-0.5,6.3-0.6c4.7-0.3,9.2-6.2,15.3-2.1c0.9,0.6,1.7,1.2,2.5,1.7
		c0,0,0,0,0,0c0.4,0.3,0.8,0.5,1.1,0.8c0,0,0,0,0,0c0.4,0.3,0.7,0.5,1,0.7c0,0,0,0,0,0c1.3,1,2.2,1.8,2.5,2.4c0,0,0,0,0,0v0
		c0.1,0.1,0.1,0.2,0.1,0.3v0.4c0,0.1-0.1,0.2-0.1,0.2v0l0,0c-0.1,0.2-0.4,0.3-0.8,0.4c0,0,0,0,0,0c-0.2,0-0.4,0.1-0.6,0.1
		c0,0-0.1,0-0.1,0c-0.2,0-0.5,0.1-0.8,0.1c-5.5,0.3-14.8-0.2-17.7,0.8c-2.9,1-7.3,2.8-5.7,5.3c1.6,2.5,8.3-1.4,14.9,0.6
		c0.3,0.1,0.6,0.2,0.9,0.2c0.1,0,0.2,0,0.2,0c0.2,0,0.4,0.1,0.6,0.1c0.1,0,0.2,0,0.3,0c0.2,0,0.4,0,0.5,0c0.1,0,0.2,0,0.2,0
		c0.2,0,0.4,0,0.5,0c0.1,0,0.1,0,0.2,0c0.2,0,0.4,0,0.5-0.1c0,0,0.1,0,0.1,0c0.2,0,0.4-0.1,0.6-0.1c0,0,0,0,0.1,0
		c2.2-0.6,4-1.8,6.1-2.2l0,0v0c0,0,0.1,0,0.1,0v0l0,0c0.3-0.1,0.6-0.1,1-0.1c0,0,0,0,0,0c0.3,0,0.7,0,1,0c0,0,0,0,0,0
		c0.3,0,0.7,0.1,1.1,0.2c0,0,0,0,0,0c0.4,0.1,0.8,0.2,1.2,0.4c6.4,2.5,22.3,1.9,26-1.1c3.7-3,6.3-8.4,10.5-6.5
		c4.3,1.9,7.5-0.7,9.3-2.9c1.9-2.2-2-3.9-5.7-2.8c-3.7,1.1-6.9,1.8-8.4-0.6c-1.5-2.4-6.1-3.5-11.3-2.4c-4,0.8-4.4-1.6-7-2
		C214.1,633.6,209.8,635.1,206.5,632.7z"/>
	<path id="XMLID_1332_" fill="#B7B09F" d="M395.2,560.7c-1.7,3.5-6.7,2.3-12.1,1.9c-0.2,0-0.4,0-0.6,0c-0.3,0.2-0.7,0.4-1.2,0.5
		c-7.2,2.9-9.1,3.2-5.3,8c0,0.1,0.1,0.1,0.1,0.2c2.7,1.5,6.1,2.4,8.9,2.5c5.6,0.2,8.5,1,12.3,2.1c7.7,2.3,13.1,6.4,15.2,4
		c2.1-2.4,0.4-4.3-3.2-5.3c-3.6-1-2.6-5.3,1.6-5c4.2,0.3,9.5,0.9,12-1.2c2.5-2.1,7.1-3,5-5.4c-2.1-2.4-5.5-1.8-5.5-3.1
		c-0.1-1.4,1.1-3.2,5.1-1.8c2.5,0.9,6.8,1.9,9.5,1.6c1.6-0.2,2.7-0.9,2.3-2.4c-0.3-1.1-1.1-2.4-2.3-3.6c-0.4-0.4-0.8-0.8-1.3-1.1
		l-1-0.5l0-0.2c-3.4-2.1-8.3-3.3-14.1-1.3c-10.3,3.4-10.3,6.4-15.8,6.4c-0.6,0-1.2,0-1.7,0C398.7,557,396.6,557.6,395.2,560.7z"/>
	<path id="XMLID_1333_" fill="#B7B09F" d="M330.2,329.8c-1.8-1-3.8-2.7-5.2-0.6c-1.4,2.1-3.8,2.3-6.2,0.4c-2.4-1.9-4.4-3.7-7.4-0.8
		c-1.1,1.1-2.4,2.1-3.8,2.7c-2.3,1.1-5.2,1.5-9.2,0.6c-0.4-0.1-0.7-0.1-1-0.2c0,0,0,0,0,0c-0.3,0-0.5,0-0.7,0c0,0,0,0,0,0
		c-0.2,0-0.4,0-0.6,0.1c0,0,0,0,0,0c-0.2,0-0.3,0.1-0.4,0.2c0,0,0,0,0,0c-0.1,0.1-0.2,0.2-0.3,0.3c0,0,0,0,0,0
		c-0.1,0.1-0.1,0.2-0.1,0.4c0,0,0,0,0,0c0,0.1,0,0.3,0,0.4c0,0,0,0,0,0c0,0.2,0,0.3,0,0.5c0,0,0,0,0,0h0c0,0.2,0.1,0.4,0.1,0.7
		c0.1,0.6,0.3,1.2,0.4,1.8c0.3,1.2,0.5,2.5,0,3.5c-0.4,0.9-0.8,1.5-1.4,1.8c0,0-0.1,0-0.2,0c-0.6,0.1-1.2,0.3-1.8,0.4
		c-1.6,0-3.9-0.5-7.5-1c-6.3-0.9-10.6,0.7-13.2,2.2c-0.4,0.3-0.8,0.5-1.2,0.7c-2.4,1.7-2.4,3.9,4.6,6.6c7,2.7,7,2.7,12.6,0.2
		c5.6-2.5,11.6,2.1,14.4,6.4c2.8,4.4,9,1.2,13.6-2.1c2.3-1.7,4.4-1,6.4,0.4c1.5,1.5,2.4,2.7,4.4,4.2c0.3,0.3,0.7,0.7,1,1
		c2.4,2.2,4.1,2.9,5.7,3.1c4.5,1.9,8,0.9,10-0.8c-1.4-2.2-5.6-3-4.3-5.6c1.4-2.8,10.4,2.7,9.6,0.2c-1.4-4.6,5.2-3.8,8.4-0.6
		c2.4,2.4,2.4,4.4,2.4,7.4c1.7-0.1,4.1-0.8,7.5-2.3c8.3-3.6,11.2-8.3,16.3-6.4c8.9,3.4,16,2.5,18.9-0.3c1.9-1.8,5.1-1.2,7.6-1.5
		c1.3-0.1,2.5-0.5,3.3-1.5c2.4-3,2.9-10.2-4.3-7.5c-7.2,2.8-7.5,1.7-8.3-1.9c-0.8-3.6-9.9-0.3-11.2-2.2c-1.3-1.8-6.7-5.9-11.2-0.9
		c-0.3,0.3-0.5,0.6-0.8,0.9c-4.7,6.4-20.3,1.9-22.1,0.8c-1.8-1.1-3.1-2.4-6.8-0.5c-1.5,0.6-2.7,2.1-4.3,0.8
		c-2.3-1.9-1.6-6.5,0.3-7.9c0,0,0-0.1,0-0.1h-0.1c0,0,0-0.1-0.1-0.1h0c0,0,0,0,0,0c-0.1-0.1-0.1-0.3-0.1-0.5c0,0,0,0,0,0
		c0-0.2-0.1-0.3-0.1-0.5c0-0.1,0-0.1,0-0.2c0-0.1,0-0.3-0.1-0.5c0-0.2,0-0.5,0-0.7c0-2.6-0.3-4.7-0.9-6.5c-2.9,1.2-6,3.3-8.6,4.6
		C332.9,330.1,331.1,330.3,330.2,329.8z"/>
	<path id="XMLID_1334_" fill="#B7B09F" d="M367.6,469.3c1.7-1.3,3.7-2.6,8.5-2.1c-1.2-2.1-2.2-4-2.7-5c-1.6-4-9.3-2.9-11.2,2.1
		c-0.7,2-2.2,2.9-3.6,3.1c0.2,0.2,0.3,0.4,0.4,0.7C361.8,473.2,362.8,471,367.6,469.3z"/>
	<path id="XMLID_1335_" fill="#B7B09F" d="M261,454.8c-2.1,1.2-2.5,0.9-4-1.7c-1.5-2.7-3.3-3.1-8-2.5c-4.7,0.5-4.3,2.8-4.7,4.3
		c-0.4,1.5-2.5,3.5-4.7,0.9c-2.1-2.5-6.7-2.4-5.1,2.1c0,0,0,0.1,0,0.1c1.6,4.5,4.1,7.7,7.1,6.5c3.1-1.2,11.6,0,12.8,2.1
		c1.2,2.1-2.5,7.4,4.9,6.2c0,0.1,0,0.1,0,0.2c1.5-0.2,2.8-0.5,4-0.9c0.5-0.1,1-0.2,1.4-0.4c5-1.1,7.9-2.3,6.3-4.1
		c-0.7-1.9,3.2-3.6,6.1-4.3c2.9-0.7,2.9,1.3,4.9,3.6c2,2.3,2.9-1.3,3.9-2.7c0.9-1.3,2.3-2.5,4.7-1.6c2.4,0.9,0.1,2.9,1.1,5.2
		c0.9,2.3,1.5,2.4,4.9,1.3c3.5-1.1,3.2-3.7,1.7-5.3c-1.5-1.6-0.5-5,3.2-5.7c2.6-0.2,5,0.1,7.2,0.5c1.2-1.1,2-2.2,2.2-3.3
		c0.7-4-4.7-4-12.1-0.8c-7.4,3.2-16,1.7-17.9-0.3c-1.9-2-3.1-4.7-9.2-0.2c-1.9,1.4-3.2,1.8-4.3,1.6
		C265.1,454.6,263.1,453.6,261,454.8z"/>
	<path id="XMLID_1336_" fill="#B7B09F" d="M279.8,596.3c4.3,0.8,5.7,1.6,9.6-1c3.8-1.7,6.9-3.8,9,1c2.4,5.7,6.1,7.2,13.1,8.9
		c2.8,0.7,5.9,0.3,9,0.3c4.4-0.1,8.7,0.3,12,5c5.6,8,9.1,10,10.7,6.6c1.6-3.3,1.1-11.6-5.1-14.1c-6.1-2.5-12.5-3.3-17.9-4.2
		c-5.3-0.8-6.1-4.7-3.2-8.6c2.9-3.9,6.4-5.5,10.9-3.3c4.5,2.2,6.4-0.3,5.1-1.9c-1.3-1.7-5.1-3,0.3-5.5c0.1-0.1,0.3-0.1,0.4-0.2
		c0.2,0,0.4-0.1,0.6-0.1c5.4-1.2,6.6-1.4,10,1.2c3.4,2.6,6.2-2.4,4.8-6.4c-1.4-4,7.8-4.6,10.2-8c2.4-3.4-4.4-0.8-7.2-2.8
		c-2.8-2-4.2-3-8.2-2c-0.7,0.2-1.2,0.3-1.6,0.5c-1.2,0.5-1.7,1-2.2,1.9c-0.6,0.4-1.1,0.9-1.5,1.5c-2.4,3.3-1.3,6.1-4.5,5.8
		c-3.2-0.3,0.3,3.6-6.1,3.6c-6.4,0-6.1,0.6-8.3,4.7c-1.1,2.1-2.8,3.7-4.6,4.5c-1.7,0.8-3.4,0.9-4.5-0.1c-2.1-1.9-7.2-6.9-12.8-4.4
		c-5.6,2.5-6.1,4.4-12,5.3c-2.5,0.3-4.4-0.5-6.1-1.5c-2.3-1.3-4.1-2.8-5.9-1.6c-3.2,2.2-3.7-1.4-8,0c-2.4,0.8-4.4,1.8-5.2,3.8
		c-0.2,0.3-0.5,0.6-0.7,1c-0.3,0.5-0.6,1-0.9,1.6c-1.9,3.9-11.5-2.2-14.1,0.6c-2.4,2.5-2.9,9.5-9.2,7.6c-0.7-0.2-1.4-0.5-2.3-0.9
		c-3.1-1.6-5.3-1.6-6.8-0.9c-0.3,0.2-0.6,0.4-0.9,0.6c-1.9,1.6-2.3,4.7-2.5,6.4c-0.3,3,2.3,11.1,13.1,4.2
		c20.1-12.9,14.7-3.4,30.1-3.6c0.2,0,0.4,0,0.6,0c3.3-0.1,5.9-2.9,8.7-4.4C277,596.4,278.4,596,279.8,596.3z"/>
	<path id="XMLID_1337_" fill="#B7B09F" d="M468.8,506c-1.6,1.8-0.1,2.1,4.8,3.2c2.4,0.5,4.5,0.8,6.4,1.2v-8
		c-3.8,0.4-7.6,1.4-9.7,2.5C469.6,505.3,469.1,505.6,468.8,506z"/>
	<path id="XMLID_1338_" fill="#B7B09F" d="M457.6,601.2c-8.2-4.1-16.5-2.1-20.8,0.3c-1.2,0.7-2.1,1.4-2.6,2c-1,1.2,0.1,2.7,2.6,4.1
		c3.5,1.9,9.8,3.6,17.4,3.8c13,0.4,21.8,5,22,7.3c0.2,2.3-5,5.6-12.4,4.2c-7.4-1.5-7.2,2.3-5.4,5.8c1.6,3.1,11.6,6.1,21.6,8.5v-30.6
		c-0.2,0-0.4,0-0.6,0.1C468.8,607.6,468,606.4,457.6,601.2z"/>
	<path id="XMLID_1339_" fill="#B7B09F" d="M58,672.4c-1.3-1.8-6.7-5.9-11.2-0.9c-0.3,0.3-0.5,0.6-0.8,0.9c-0.9,1.2-2.1,2-3.5,2.5
		h26.8c0-0.1,0-0.2-0.1-0.3C68.4,671,59.3,674.4,58,672.4z"/>
	<path id="XMLID_1340_" fill="#B7B09F" d="M17.1,672.8c-1.5,0.6-2.7,2.1-4.3,0.8c-2.3-1.9-1.6-6.5,0.3-7.9c0-0.1-0.1-0.1-0.1-0.2h0
		c0,0,0,0,0,0h0c0,0,0,0,0,0c-0.1-0.3-0.2-0.6-0.3-1c0,0,0,0,0,0c0-0.2-0.1-0.4-0.1-0.6c0-0.2,0-0.5,0-0.8c0-2.6-0.3-4.7-0.9-6.5
		c-2.9,1.2-6,3.3-8.6,4.6c-1.6,0.4-3.3,0.7-4.2,0.2v13.7h30.4c-2.7-0.6-4.8-1.3-5.4-1.7C22.1,672.2,20.8,670.9,17.1,672.8z"/>
	<path id="XMLID_1341_" fill="#B7B09F" d="M389.4,672.4c-1.3-1.8-6.7-5.9-11.2-0.9c-0.3,0.3-0.5,0.6-0.8,0.9c-0.9,1.2-2.1,2-3.5,2.5
		h26.8c0-0.1,0-0.2-0.1-0.3C399.8,671,390.7,674.4,389.4,672.4z"/>
	<path id="XMLID_1342_" fill="#B7B09F" d="M348.5,672.8c-1.5,0.6-2.7,2.1-4.3,0.8c-2.3-1.9-1.6-6.5,0.3-7.9c0-0.1-0.1-0.1-0.1-0.2h0
		c0,0,0,0,0,0h0c0,0,0,0,0,0c-0.1-0.3-0.2-0.6-0.3-1c0,0,0,0,0,0c0-0.2-0.1-0.4-0.1-0.6c0-0.2,0-0.5,0-0.8c0-2.6-0.3-4.7-0.9-6.5
		c-2.9,1.2-6,3.3-8.6,4.6c-1.6,0.4-3.3,0.7-4.2,0.2c-1.8-1-3.8-2.7-5.2-0.6c-1.4,2.1-3.8,2.3-6.2,0.4c-2.4-1.9-4.4-3.7-7.4-0.8
		c-1.1,1.1-2.4,2.1-3.8,2.7c-2.3,1.1-5.2,1.5-9.2,0.6c-0.2,0-0.4-0.1-0.5-0.1c-0.1,0-0.1,0-0.2,0c-0.1,0-0.2,0-0.3,0
		c-0.1,0-0.1,0-0.2,0c-0.1,0-0.2,0-0.2,0c-0.1,0-0.1,0-0.2,0c-0.1,0-0.1,0-0.2,0c-0.1,0-0.1,0-0.2,0c0,0-0.1,0-0.1,0
		c-0.1,0-0.1,0-0.2,0c0,0,0,0-0.1,0c-0.1,0-0.1,0-0.2,0.1c0,0,0,0-0.1,0c-0.1,0-0.1,0.1-0.1,0.1c0,0,0,0-0.1,0c0,0-0.1,0.1-0.1,0.1
		c0,0,0,0,0,0c0,0-0.1,0.1-0.1,0.1c0,0,0,0,0,0c0,0,0,0.1-0.1,0.2c0,0,0,0,0,0c0,0.1,0,0.1,0,0.2c0,0,0,0,0,0c0,0.1,0,0.1,0,0.2
		c0,0,0,0,0,0c0,0.2,0,0.5,0,0.8h0c0,0,0,0.1,0,0.1c0.1,0.7,0.3,1.5,0.5,2.4c0.3,1.2,0.5,2.5,0,3.5c-0.4,0.9-0.8,1.5-1.4,1.8
		c0,0-0.1,0-0.2,0c-0.6,0.1-1.2,0.3-1.8,0.4c-1.6,0-3.9-0.5-7.5-1c-6.3-0.9-10.6,0.7-13.2,2.2c-0.1,0-0.1,0.1-0.2,0.1h89
		c-2.7-0.6-4.8-1.3-5.4-1.7C353.4,672.2,352.1,670.9,348.5,672.8z"/>
</g>
</svg>
