<?xml version="1.0" encoding="utf-8"?>
<!-- Generator: Adobe Illustrator 19.0.1, SVG Export Plug-In . SVG Version: 6.00 Build 0)  -->
<svg version="1.2" baseProfile="tiny" id="Layer_1" xmlns="http://www.w3.org/2000/svg" xmlns:xlink="http://www.w3.org/1999/xlink"
	 x="0px" y="0px" viewBox="0 0 480 670" xml:space="preserve">
<g id="XMLID_1_">
	<path id="XMLID_1343_" fill="#8A8274" d="M344,0.8c0,0.2,0,0.4,0.1,0.6c0,0,0,0,0,0.1c0.1,0.4,0.2,0.7,0.3,1c0,0,0,0,0,0
		c0,0,0,0,0,0.1h0h0c0,0.1,0,0.1,0.1,0.2c1.5,2.8,5.8,0.7,9.7,2.9c1.9,1.1,3.5,0.6,5-0.3c-0.1-0.1-0.2-0.3-0.3-0.4
		c-0.1-0.1-0.2-0.2-0.2-0.4c0-0.1,0-0.1,0-0.2c0-0.1,0-0.1,0-0.2c0-0.1,0-0.1,0-0.2c0,0,0-0.1,0-0.1c0-0.1,0.1-0.2,0.1-0.2
		c0,0,0-0.1,0-0.1c0.1-0.1,0.1-0.2,0.2-0.3c0,0,0,0,0,0c0.1-0.1,0.2-0.2,0.3-0.3c0,0,0,0,0,0c0.2-0.2,0.5-0.3,0.9-0.5h0.1
		c0.1,0,0.1,0,0.2-0.1c0.4-0.2,0.9-0.3,1.4-0.4c0,0,0.1,0,0.1,0c0.2,0,0.4-0.1,0.6-0.1c0.3,0,0.5,0,0.8,0c2.3,0,4.4-0.3,5.9-3.5
		h-25.4c0,0.5,0.1,1.1,0.1,1.6C344,0.3,344,0.5,344,0.8z"/>
	<path id="XMLID_1344_" fill="#8A8274" d="M4.7,69.8c4.5,0.8,3.4,4.3,10.5,4.3c1.4,0,1.3,1.7,1.9,3.4c0,0.1,0,0.1,0,0.2
		c0.3,2.1,2.3,3.9,5.3,3.5c3.1-0.4,3.1-1.3,7.5,0.5c4.4,1.9,3.7-2.9,8-5.6c4.3-2.7,4.9-4.8,0.7-6c-4.3-1.2-2.8-3.7-3.1-7.1
		c-0.3-3.3-6.5-2.8-9.7-0.3c-3.2,2.5-6.5,0.8-8.3-1.6c-1.7-2.4-2.8,2.8-8.3,4.7c-1.2,0.4-2.1,0.6-2.7,0.6c-1-0.4-1.8-0.9-2-1.6
		c0-0.5,0.1-1,0.3-1.6c0.2-0.3,0.4-0.6,0.7-0.9c0.9-0.9,1.7-1.7,2.3-2.4c1.1-0.7,2.2-1.3,2.7-2.1c1.1-1.7,0.3-2.4-1.9-3.7
		c-0.5-0.3-1-0.7-1.4-1.1c-1.3-2.9-0.5-7.5,4.6-5.4c4,1.7,9.7,1.8,11.8,0.3c1-0.7,1.3-1.9,0-3.4c-0.2-0.3-0.5-0.6-0.7-0.8
		c-4.9-5.5-4.3,0.2-10.9-3.6c-2.3-1.3,2-2.9,1-6.5c-0.4-0.4-0.7-0.8-0.9-1.2c-0.1-0.2-0.2-0.4-0.3-0.6c-2,1.7-5.5,2.7-10,0.8
		C1,32.5,0,32.2-1.1,31.5v43C1.1,72.5,1.9,69.3,4.7,69.8z"/>
	<path id="XMLID_1345_" fill="#8A8274" d="M12.6,0.8c0,0.2,0,0.4,0.1,0.6c0,0,0,0,0,0.1c0.1,0.4,0.2,0.8,0.3,1.1h0h0
		c0,0.1,0,0.1,0.1,0.2c1.5,2.8,5.8,0.7,9.7,2.9c2,1.1,3.5,0.6,5-0.3c-0.1-0.1-0.2-0.3-0.3-0.4c-0.1-0.1-0.2-0.2-0.2-0.4
		c0,0,0-0.1,0-0.1c0-0.1,0-0.1,0-0.2c0-0.1,0-0.1,0-0.2c0,0,0-0.1,0-0.1c0-0.1,0.1-0.2,0.1-0.2c0,0,0-0.1,0-0.1
		c0.1-0.1,0.1-0.2,0.2-0.2c0,0,0,0,0,0C27.8,3.2,27.9,3.1,28,3c0,0,0,0,0,0c0.2-0.2,0.5-0.3,0.9-0.5H29c0.1,0,0.1,0,0.2-0.1
		c0.4-0.2,0.9-0.3,1.4-0.4c0.1,0,0.1,0,0.2,0c0.2,0,0.4-0.1,0.6-0.1c0.3,0,0.5,0,0.8,0c2.3,0,4.4-0.3,5.9-3.5H12.5
		c0,0.5,0.1,1.1,0.1,1.6C12.6,0.3,12.6,0.5,12.6,0.8z"/>
	<path id="XMLID_1346_" fill="#8A8274" d="M200.2,149.3L200.2,149.3c0.3-0.1,0.6-0.3,1-0.4c0.7-0.2,1.3-0.4,2-0.6
		c0.4-0.1,0.7-0.3,1.1-0.4c0.6-0.2,1.2-0.5,1.8-0.7c0.5-0.2,1-0.5,1.5-0.7c0.5-0.2,0.9-0.4,1.4-0.6c1-0.5,2-1,3-1.5
		c16.5-8.9,18.9-4.4,28.3-3.3c8,0.9,14.5,1.2,19.3,0.6c0-0.1,0-0.1,0-0.2c-7.4,1.2-3.7-4.1-4.9-6.2c-1.2-2.1-9.7-3.3-12.8-2.1
		c-3,1.2-5.5-2.1-7.1-6.5c-1.4-0.2-2.6-0.6-3.5-1c-0.1,0-0.2-0.1-0.2-0.1h0c-11.2-5.9-9.6,0.7-13.9-2.1c-4.3-2.8-0.8-7.2-8.3-2.8
		c-0.5,0.3-0.9,0.5-1.4,0.8c-0.2,0.1-0.3,0.1-0.5,0.2c-0.3,0.1-0.5,0.3-0.8,0.4c-0.2,0.1-0.4,0.1-0.6,0.2c-0.2,0.1-0.4,0.2-0.6,0.2
		c-0.2,0.1-0.4,0.1-0.6,0.2c-0.2,0-0.3,0.1-0.5,0.1c-0.2,0-0.4,0.1-0.6,0.1c-0.1,0-0.3,0.1-0.4,0.1c-0.2,0-0.4,0-0.6,0.1
		c-0.1,0-0.2,0-0.4,0c-0.2,0-0.4,0-0.6,0c-0.1,0-0.2,0-0.3,0c-0.2,0-0.4,0-0.6-0.1c-0.1,0-0.2,0-0.2,0v0v0c0,0-0.1,0-0.1,0
		c-2-0.4-3.5-1.4-5-2.2c-3.2-1.7-12.7-0.3-10.7-5.5c1.6-4.2-14.4-1.7-22.4-1.1c-3.7,0.3-4.8-0.9-5.7-2.2c-0.6,0.1-1.2,0.3-1.9,0.4
		c-5.3,0.8-5.6,4.5-4.8,6.4c0.8,1.9-6.1,9.1-9.6,4.3c-1.5-2.1-4.4-3.1-7-3.4c-0.5,0-0.9-0.1-1.4-0.1c-2.8,0-4.8,0.8-3.3,2.1
		c2.9,2.7-4,2.1-7.5,0c-3.3-2-13.8-2.6-17.8-2.7c-0.6,0.1-1.2,0.1-1.8,0.2c-10.2,1.2-11.6,3.7-9.9,6.5h0c1.4,2.2,4.6,4.6,7.2,6.8
		c1.2,1,3.7,2.1,6.9,3.2c12.3,4.1,35.6,7.5,43.2,4c9.6-4.4,26.1,1.7,27.2,4.4c1.1,2.8-3.2,6.1-9.1,5.5c-2.5-0.2-3.9,1.1-4.5,3.1
		C176.5,152.9,188.5,152.8,200.2,149.3z"/>
	<path id="XMLID_1347_" fill="#8A8274" d="M86.6,103.6c-2.1-6.1-5.7-5.7-16.9-6.9c-7.8-0.8-10.9-1.5-11-3.3c0-0.7,0.5-1.7,1.4-2.8
		c1.9-2.4,7.5-4.1,12.8-4c3.4,0.1,6.8,0.9,9.1,2.9c5.9,5,16,3.9,16.5-2.2c0.5-5.3-2.7-11.9,1.4-16.5c1-0.6,2.1-1.1,3-1.7
		c0,0,0,0,0.1,0c2.9-1.9,1.3-2.8-0.9-3.9c-2.3-1.1-6.3,1.3-10.7,2.3c-4.4,0.9-5.2-4-5.3-5.9C86,59.8,83,58,77.7,57.4
		c-2.4-0.2-3.4-0.3-4-0.1c-1.3,0.2-2.4,0.8-3.3,1.4c-2,1.4-2.8-2.2-6.8-1c-0.2,0.1-0.4,0.1-0.7,0.2c-1.8,1-1.4,2.5-0.5,3.1
		c3.4,2.2,4.6,3.9,5.5,5.1c1.2,1.6,1.9,2.2,6.6,1.8c3.2-0.3,5.7,0.4,7.4,1.6c-1.3,1.4-3.9,2.7-7.2,2.8c-6.1,0.3-7.5,2.1-6.4,5.1
		c1.1,2.9,3.7,9.9-2.4,7.5c-6.1-2.4-10.7-2.7-12-0.3s-4.3,2.9-8,0.5c-3-2-6.2-0.9-7.3,3.5c0,0.2-0.1,0.4-0.1,0.6c0,0,0,0.1,0,0.1
		c1.6,0.3,3.1,0.8,4.7,1.4c5.6,2-0.2,7.9,0.2,12.6c0.2,0.8,0.5,1.5,0.9,2.3c4.4,5.9,6.9-5.9,14.4,2.9c0.1,0.2,0.3,0.3,0.4,0.4
		c2,2.2,4.4,3.7,6.9,4.7c7.2,2.7,15.4,1.1,18.5-2.9c1.3-1.7,2.3-3.5,3.3-5.3C87.4,105.3,87.1,104.9,86.6,103.6z"/>
	<path id="XMLID_1348_" fill="#8A8274" d="M4.7,401.1c4.5,0.8,3.4,4.3,10.5,4.3c1.4,0,1.3,1.7,1.9,3.4c0,0.1,0,0.1,0,0.2
		c0.3,2.1,2.3,3.9,5.3,3.5c3.1-0.4,3.1-1.3,7.5,0.5c4.4,1.9,3.7-2.9,8-5.6c4.3-2.7,4.9-4.8,0.7-6c-4.3-1.2-2.8-3.7-3.1-7.1
		c-0.3-3.3-6.5-2.8-9.7-0.3c-3.2,2.5-6.5,0.8-8.3-1.6c-1.7-2.4-2.8,2.8-8.3,4.7c-1.2,0.4-2.1,0.6-2.7,0.6c-1-0.4-1.8-0.9-2-1.6
		c0-0.5,0.1-1,0.3-1.6c0.2-0.3,0.4-0.6,0.7-0.9c0.9-0.9,1.7-1.7,2.3-2.4c1.1-0.7,2.2-1.3,2.7-2.1c1.1-1.7,0.3-2.4-1.9-3.7
		c-0.5-0.3-1-0.7-1.4-1.1c-1.3-2.9-0.5-7.5,4.6-5.4c4,1.7,9.7,1.8,11.8,0.3c1-0.7,1.3-1.9,0-3.4c-0.2-0.3-0.5-0.6-0.7-0.8
		c-4.9-5.5-4.3,0.2-10.9-3.6c-2.3-1.3,2-2.9,1-6.5c-0.4-0.4-0.7-0.8-0.9-1.2c-0.1-0.2-0.2-0.4-0.3-0.6c-2,1.7-5.5,2.7-10,0.8
		c-0.9-0.1-1.9-0.4-3.1-1.1v43C1.1,403.9,1.9,400.7,4.7,401.1z"/>
	<path id="XMLID_1349_" fill="#8A8274" d="M199.9,480.8c0,0,0.1,0,0.1,0c0,0,0.1,0,0.1,0v0c0.3-0.1,0.5-0.2,0.8-0.3
		c0.7-0.2,1.4-0.4,2.1-0.7c0.3-0.1,0.7-0.3,1-0.4c0.6-0.2,1.3-0.5,1.9-0.7c0.5-0.2,1-0.4,1.5-0.6c0.5-0.2,1-0.4,1.5-0.7
		c1-0.5,2-1,3-1.5c16.5-8.9,18.9-4.4,28.3-3.3c8,0.9,14.5,1.2,19.3,0.6c0-0.1,0-0.1,0-0.2c-7.4,1.2-3.7-4.1-4.9-6.2
		c-1.2-2.1-9.7-3.3-12.8-2.1c-3,1.2-5.5-2.1-7.1-6.5c-1.4-0.2-2.6-0.6-3.5-1c-0.1,0-0.2-0.1-0.2-0.1h0c-11.2-5.9-9.6,0.7-13.9-2.1
		c-4.3-2.8-0.8-7.2-8.3-2.8c-0.5,0.3-0.9,0.5-1.4,0.8c-0.2,0.1-0.3,0.1-0.4,0.2c-0.3,0.1-0.6,0.3-0.8,0.4c-0.2,0.1-0.4,0.1-0.5,0.2
		c-0.2,0.1-0.4,0.2-0.7,0.2c-0.2,0.1-0.4,0.1-0.6,0.2c-0.2,0.1-0.4,0.1-0.5,0.2c-0.2,0-0.4,0.1-0.6,0.1c-0.1,0-0.3,0.1-0.4,0.1
		c-0.2,0-0.4,0-0.6,0.1c-0.1,0-0.3,0-0.4,0c-0.2,0-0.4,0-0.6,0c-0.1,0-0.2,0-0.3,0c-0.2,0-0.4,0-0.6-0.1c-0.1,0-0.2,0-0.2,0v0v0
		c0,0-0.1,0-0.1,0c-2-0.4-3.5-1.4-5-2.2c-3.2-1.7-12.7-0.3-10.7-5.5c1.6-4.2-14.4-1.7-22.4-1.1c-3.7,0.3-4.8-0.9-5.7-2.2
		c-0.6,0.1-1.2,0.3-1.9,0.4c-5.3,0.8-5.6,4.5-4.8,6.4c0.8,1.9-6.1,9.1-9.6,4.3c-1.5-2.1-4.4-3.1-7-3.4c-0.5,0-0.9-0.1-1.4-0.1
		c-2.8,0-4.8,0.8-3.3,2.1c2.9,2.7-4,2.1-7.5,0c-3.3-2-13.8-2.6-17.8-2.7c-0.6,0.1-1.2,0.1-1.8,0.2c-10.2,1.2-11.6,3.7-9.9,6.5h0
		c1.4,2.2,4.6,4.6,7.2,6.8c1.2,1,3.7,2.1,6.9,3.2c12.3,4.1,35.6,7.5,43.2,4c9.6-4.4,26.1,1.7,27.2,4.4c1.1,2.8-3.2,6.1-9.1,5.5
		c-2.5-0.2-3.9,1.1-4.5,3.1C176.4,484.2,188.3,484.2,199.9,480.8z"/>
	<path id="XMLID_1350_" fill="#8A8274" d="M86.6,435c-2.1-6.1-5.7-5.7-16.9-6.9c-7.8-0.8-10.9-1.5-11-3.3c0-0.7,0.5-1.7,1.4-2.8
		c1.9-2.4,7.5-4.1,12.8-4c3.4,0.1,6.8,0.9,9.1,2.9c5.9,5,16,3.9,16.5-2.2c0.5-5.3-2.7-11.9,1.4-16.5c1-0.6,2.1-1.1,3-1.7
		c0,0,0,0,0.1,0c2.9-1.9,1.3-2.8-0.9-3.9c-2.3-1.1-6.3,1.3-10.7,2.3c-4.4,0.9-5.2-4-5.3-5.9c-0.1-1.9-3.1-3.7-8.4-4.3
		c-2.4-0.2-3.4-0.3-4-0.1c-1.3,0.2-2.4,0.8-3.3,1.4c-2,1.4-2.8-2.2-6.8-1c-0.2,0.1-0.4,0.1-0.7,0.2c-1.8,1-1.4,2.5-0.5,3.1
		c3.4,2.2,4.6,3.9,5.5,5.1c1.2,1.6,1.9,2.2,6.6,1.8c3.2-0.3,5.7,0.4,7.4,1.6c-1.3,1.4-3.9,2.7-7.2,2.8c-6.1,0.3-7.5,2.1-6.4,5.1
		c1.1,2.9,3.7,9.9-2.4,7.5c-6.1-2.4-10.7-2.7-12-0.3c-1.3,2.4-4.3,2.9-8,0.5c-3-2-6.2-0.9-7.3,3.5c0,0.2-0.1,0.4-0.1,0.6
		c0,0,0,0.1,0,0.1c1.6,0.3,3.1,0.8,4.7,1.4c5.6,2-0.2,7.9,0.2,12.6c0.2,0.8,0.5,1.5,0.9,2.3c4.4,5.9,6.9-5.9,14.4,2.9
		c0.1,0.2,0.3,0.3,0.4,0.4c2,2.2,4.4,3.7,6.9,4.7c7.2,2.7,15.4,1.1,18.5-2.9c1.3-1.7,2.3-3.5,3.3-5.3
		C87.4,436.7,87.1,436.3,86.6,435z"/>
	<path id="XMLID_1351_" fill="#8A8274" d="M285.8,253c5.9-0.8,6.4-2.8,12-5.3c5.6-2.5,10.7,2.5,12.8,4.4c1.1,1,2.8,0.9,4.5,0.1
		c-4-3.2,3.3-8.7-3.5-8.7c-7.2,0-7.2-6.1-11.2-7.5c-4-1.4-7.1,7.2-12.7,10.2c-2.6,1.4-5.5,3.4-7.9,5.2
		C281.4,252.4,283.3,253.3,285.8,253z"/>
	<path id="XMLID_1354_" fill="#8A8274" d="M11.7,325c0.6,1.8,0.9,3.9,0.9,6.5c0,0.3,0,0.5,0,0.7c0,0.2,0,0.3,0.1,0.5
		c0,0.1,0,0.1,0,0.2c0,0.2,0.1,0.4,0.1,0.5c0,0,0,0,0,0c0.1,0.2,0.1,0.4,0.2,0.6h0.1h0c0,0,0,0.1,0,0.1c1.5,2.8,5.8,0.7,9.7,2.9
		c2,1.1,3.5,0.6,5-0.3c-0.1-0.1-0.2-0.3-0.3-0.4c-0.1-0.1-0.1-0.2-0.2-0.4c0,0,0-0.1,0-0.1c0-0.1,0-0.1,0-0.2c0-0.1,0-0.1,0-0.2
		c0-0.1,0-0.1,0-0.2c0-0.1,0-0.1,0.1-0.2c0,0,0-0.1,0.1-0.1c0-0.1,0.1-0.1,0.2-0.2c0,0,0-0.1,0.1-0.1c0.1-0.1,0.1-0.1,0.2-0.2
		c0,0,0,0,0.1-0.1c0.1-0.1,0.2-0.1,0.3-0.2c0,0,0,0,0,0c0.1-0.1,0.3-0.1,0.4-0.2c0,0,0,0,0,0h0H29c0.1-0.1,0.3-0.1,0.4-0.1
		c0.2-0.1,0.4-0.1,0.6-0.2c0,0,0,0,0.1,0c0.2,0,0.4-0.1,0.6-0.1c0.1,0,0.2,0,0.3,0c0.1,0,0.3,0,0.4-0.1c0.2,0,0.5,0,0.7,0
		c2.6,0,5-0.4,6.6-5.2c1.6-4.8,6-4.2,10.2-3.3c4.2,0.8,9-0.6,9.4-3.1c0.4-2.5-5-4.6-9.2-6.2c-4.2-1.7,0-5.6-4.6-7.9
		c-4.6-2.3-4-3.5-2.5-6.2c1.5-2.6,10.5,1,12.9-1.1c2.4-2.1,8.6-1.7,12.4,0.6c3.8,2.3,8.6,1,15-1.2c6.4-2.3,12.8,2.5,19,4.6
		c1.3,0.4,2.7,0.6,4.2,0.6c5.9-0.1,12.5-3.3,11.2-6.6c-1.1-2.8-6-2.3-11.2-2.1c-2.5,0.1-5.2,0.1-7.4-0.4
		c-6.8-1.5-13.8-10.6-21.6-15.4c-7.8-4.8-14.8-0.6-19.6-3.1c-4.6-2.4-9.5-3.2-13.3-3.9c-0.2,0-0.3-0.1-0.5-0.1
		c-3.8-0.6,0.4-2.9,3.8-4.8c0.8-0.4,2.2-0.6,3.9-0.6c0.7,0,1.4,0.1,2,0.2c2.5,0.5,12.1,1.5,14.9-0.3c0.3-0.1,0.6-0.2,0.8-0.4
		c3.4-2.3,6.8-2.3,11.6-0.4c4.8,1.9,12-2.3,17.4-5c2.5-1.2,5.4-0.8,8,0.2c3.1,1.1,5.8,2.7,7.2,3c2.6,0.4,6.2-4.2,9.2-7.1
		c3-2.9,8.6-1.2,10.8-1.2c2.2,0,10.2-3.5,8-7.1c-2.2-3.5-14.2-4.8-22.2-5c-8-0.2-12.4-3.3-9.3-9.3c0.4-2.4,2.5-3.1,4.7-3.6
		c1.2-0.4,2.5-0.8,3.8-1c0.8-0.3,1.3-0.8,1.6-1.4c0.4,0.4,0.7,0.6,0.8,0.7c0,0,0.1-0.1,0.3-0.2l4.4,2.4c0,0,22,3.4,26.2-3.2
		c3.1-4.8,0.1-8.3-3.1-10c2.5-3.3,6.9-3.1,10.5-2.9c3.5,0.2,5.7,3.1,7.3,7.1c0.6,1.5,1.2,3.2,1.7,4.8c0.4,1.2,0.7,2.1,1,2.8
		c0.6,0.7,1.2,1.3,1.9,1.7c2.8,1.4,4.4,1.1,5.5-0.3c0.2-0.2,0.3-0.4,0.4-0.6c0.3-0.5,0.7-1.2,1-1.9c0.8-1.7,1.6-4,2.9-6.4
		c3.7-6.9,15.5,6.4,18.7,11.9c0.2,0.3,0.3,0.6,0.5,0.8c0.2,0.3,0.4,0.5,0.6,0.8v0c0,0.1,0.1,0.1,0.1,0.2v0.1c0,0,0,0,0,0
		c1.6,1.8,3.8,3.2,6.3,4.2c0,0,0,0,0.1,0c0.3,0.1,0.7,0.3,1,0.4c0,0,0.1,0,0.1,0c0.3,0.1,0.6,0.2,1,0.3c0.1,0,0.1,0,0.2,0.1
		c0.3,0.1,0.6,0.2,0.9,0.2c0.1,0,0.2,0,0.3,0.1c0.3,0.1,0.5,0.1,0.8,0.2c0.1,0,0.3,0,0.4,0c0.2,0,0.5,0.1,0.7,0.1c0.2,0,0.3,0,0.5,0
		c0.2,0,0.4,0,0.6,0c0.2,0,0.4,0,0.6,0c0.2,0,0.4,0,0.5,0c0.2,0,0.4,0,0.6-0.1c0.1,0,0.3,0,0.4,0c0.4,0,0.7-0.1,1-0.2
		c0,0,0.1,0,0.1,0.1c2.9-0.9,6.1-1.2,9.5-0.1c12.5,4.2,6.7-5.7,16-1.3c9.3,4.4,14.7-5.5,22.4-1c7.7,4.5,12.3,0,19.7-0.9
		c7.4-1,2.8-9.8-7.2-6.9c-10,2.9-20.5-4.5-25.4-7.2c-4.9-2.8-6.8-9.3-0.4-8.4c2.4,0.3,4-0.1,5-0.9c0.6-0.8,1-1.8,0.6-3.2
		c-0.4-0.9-1.3-1.8-2.6-2.6c-4.9-2.8-17.5,2-19.2,0.3c-1.7-1.7-3.9-2.8,3.6-3.2c2.3-0.1,3.9-0.5,4.9-1c2.4-1.2,1.8-3.1-0.8-3.4
		c-3.8-0.4-19.4-2.7-19,4.5c0.3,7.2,0.9,7.8-6.1,8.1c-6.9,0.3-4.7,14.1-9.6,12.5c-4.9-1.6-10.4-4.9-4.7-10c5.7-5.1,9.2-8.9,7.4-14.2
		c-1.3-3.6-3.8-3.8-8.2-2.7c-0.3,0.1-0.6,0.2-0.9,0.2c-0.3,0.1-0.5,0.2-0.8,0.2c0,0-0.1,0-0.1,0c0,0-0.1,0-0.1,0v0v0
		c-1.6,0.5-3.3,1-5.2,1.6c-2.1,0.7-3.5,1.6-4.6,2.8c0,0-0.1-0.1-0.1-0.1c-3.7-3.2,3.3-8.2-0.1-10.2c-3.2-1.9-1.3-9.7,2.5-11.9
		c3.9-2.2,7.3-6.5,5.7-7.3c-1.6-0.8-10.5,2.5-14.3,4.8c-3.7,2.4-7.5,0.3-12.5,1.8c-4.4,1.3-11.5,0.9-15.6-0.8
		c-10.9,4.2-11,9.4-20.8,1.8c-0.7-0.6-1.4-1-2-1.4c-8.9-3.2-9.6,0.7-20.1,0.7c-2.9,0-5.3-0.2-7.5-0.5c-6-1.1-9.6-4-15.5-10.5
		c-8-8.9-13.9-1.7-18.7-9.4c-4.8-7.8-6.4-4.4-5.3-12.2c0.3-2.2,1.7-3.1,3.6-3.4c1.8-0.2,3.6,0.1,5.9,1.5c3.5,2.1,7.2,0,6.9-2.4
		c-0.3-2.4,0-3.5,5.3-2.1c5.3,1.3,5.2-5.3-1.1-5.3c-8.7-0.1-3.9-4.4-8-6.6c-2.4-1.2-10.1-3.9-18.5,5.1c-3.1,3.5-5.7,4.4-7.8,4.3
		c-1.1,1.1-2.9,2-4.7,2.6c-5,1.6-3.2,7.6,3.6,8.2c6.8,0.6,7.4,7.4,2.4,9.2c-5,1.8-3,5,1.6,7.6c1.9,1.1,2.1,1.8,1.4,2.5
		c-0.4,0.2-0.8,0.3-1.2,0.5c-4.6,1.4-5.2,2.6-10.8,2c-5.6-0.6-12.7,3.5-10.4,4.8c0,0,0,0,0,0c2.4,1.2,1.4,3.2-1.8,3.8
		c-3.2,0.6-2.8,5.2,4.6,3.4c4.3-1,7.1-2.3,9.2-2.9c1-0.2,2-0.2,3,0c0.3,0.1,0.5,0.3,0.8,0.5c2.4,2,2.8,4.4,8.4,2.8
		c0.7-0.2,1.5-0.3,2.2-0.4c2.6,0.5,4.9,1.4,5.9,3.7c2.4,5.3-4,7.4-8.9,5.2c-2.6-1.2-8.2-0.5-12.6,1.5c-0.4,0.2-0.7,0.3-1.1,0.5
		c3.7,0.6,7,2.4,7,5.3c-0.1,3.9,3.9,4.6,9.7,2.9c2-0.6,3-0.2,3.7,0.4c0.5,0.7,0.8,1.7,0.8,2.8c0,2.3,0.8,3.6,4.7,3.3
		c3.9-0.3,5.5-2.9,6.1-4.7c0.7-1.7-2.4-2.5-3.7-4c-0.1-0.1-0.2-0.3-0.4-0.5c-0.2-0.9,0.4-1.8,1.9-2.8c3.5-2.4,5-2.4,5.3-0.6
		c0.3,1.7,3,2.5,4.4,0.3c1.4-2.1,2.5-3,5.5-3c3,0.1,3.7,1.2,4,3.7c0.2,2.2,3.2,2.7,3.7,5.2c0.2,0.4,0.3,0.7,0.3,1.1
		c0,0.6,0,1.1,0,1.6c-0.1,0.3-0.2,0.6-0.3,0.8c0,0.1,0,0.3-0.1,0.4c-0.5,1.4-0.9,2.7-2,3.2c0,0,0,0,0,0c0,0-0.1,0-0.1,0
		c-0.5,0.1-1,0.1-1.7,0c-0.1,0-0.1,0-0.2,0c-0.1,0-0.2-0.1-0.3-0.1c-3.4-1.1-4.5-0.1-6.4,0.3c-1.9,0.4-2.6,1.3-2.7,2.6
		c-0.1,1.3-1,4.5-2.4,4c-1.4-0.5-4.6-1.6-6.4-1.1c-1.8,0.5-2.5,2.3-4.2,1.7c-1.6-0.5-3.9-0.5-3.8,1.4c-0.1,1.5,1.5,3.6,5.1,4.3
		c0.5,0,1.1,0,1.7,0c5.4,0,5.5-3,15.8-6.4c5.8-1.9,10.8-0.8,14.1,1.3l0,0.2l1,0.5c0.5,0.4,0.9,0.7,1.3,1.1c1.2,1.2,2,2.5,2.3,3.6
		c0.4,1.5-0.7,2.2-2.3,2.4c-2.7,0.3-7-0.7-9.5-1.6c-4.1-1.4-5.2,0.5-5.1,1.8c0.1,1.4,3.4,0.7,5.5,3.1c2.1,2.4-2.5,3.3-5,5.4
		c-2.5,2.1-7.8,1.5-12,1.2c-4.2-0.3-5.2,4.1-1.6,5c3.6,1,5.3,2.9,3.2,5.3c-2.1,2.4-7.5-1.7-15.2-4c-3.9-1.2-6.7-1.9-12.3-2.1
		c-2.8-0.1-6.2-1.1-8.9-2.5c0-0.1-0.1-0.1-0.1-0.2c-3.7-4.8-1.9-5.1,5.3-8c0.4-0.2,0.8-0.4,1.2-0.5c5.3-2.8-0.6-6-8.6-4.5
		c-8.5,1.6-0.6-5.8-9.9-5c-2.8,0.2-7.4-4.3-7.9-8.1c0-0.3-0.1-0.5-0.2-0.7c-0.4-1.7-1.2-3-4.1-3.4c-4.1-0.7-4.9-4.9-3.2-6.4
		c0.6-0.5,0.9-1,1.1-1.5c0.4-0.7,0.6-1.6,0.6-2.6c-3.4,1.3-7.4,0.6-10.2-0.4c-2.6-0.9-5.4-0.5-6.2,0.8c-1.2,1-1.1,1.6,0.2,2.5
		c1.2,0.8,1.6,2.9-0.2,4c-0.7,0.3-1.6,0.6-2.4,0.8c-0.3,0.1-0.6,0.2-1.1,0.2v4.3c0.1,0.1,0.3,0.2,0.4,0.3c2.2,1.9,5,5.1,7.1,4.5
		c2.1-0.6,6-1.7,7.2,0.5c1.2,2.2,0.3,4.8-2.4,4.3c-2.7-0.5-4.1,0.6-5.7,2.3c-1.6,1.7-3.9-1.2-4.9-3.5c-0.3-0.7-0.9-1.2-1.7-1.5v15.4
		c0.4,0.3,0.8,0.6,1.2,0.9c0.8,0.5,1.5,0.7,2.1,0.6c0.1,0,0.1,0,0.2,0c0.5-0.2,0.7-0.2,0.7-0.2c2.5-1,4.1-5.5,7.8-4.6
		c0.4-0.2,1-0.3,1.6-0.5c4-1,5.4,0,8.2,2c2.8,2,9.6-0.6,7.2,2.8c-2.4,3.4-11.6,4-10.2,8c1.4,4-1.4,9-4.8,6.4
		c-3.4-2.6-4.6-2.4-10-1.2c-0.2,0.1-0.4,0.1-0.6,0.1c-0.1,0.1-0.3,0.1-0.4,0.2c-5.3,2.5-1.6,3.9-0.3,5.5c1.1,1.3,0.1,3.2-2.7,2.7
		v12.9c2.6,0.6,5.2,1.3,7.8,2.4c6.1,2.5,6.7,10.8,5.1,14.1C10.1,289,6.7,287,1.1,279c-0.7-1-1.4-1.8-2.2-2.4v4.3
		c1.1,0.5,1.6,1.3,1.1,2.2c-0.2,0.4-0.6,0.9-1.1,1.4V322c0.1-0.2,0.3-0.3,0.4-0.5C2.7,317,9.3,317.6,11.7,325z M105.4,208.5
		c-0.4-0.4-0.8-0.7-1.1-0.9c-1-0.1-2.2-0.2-3.5-1.9c-2.8-3.4-0.8-7.8,6.6-3.8c7.4,4,1.8-2.2,10-1.8c8.2,0.4,9.6,5.8,14.4,10.6
		c4.8,4.8,8.8-2,10.8,3.2c1.4,3.6,0.1,4.9-1.4,6.4c-0.8,2.1-1.2,4.9-6.9,4.9c-3.4,0-4.6-1.5-5.8-3.3c-1.2-1.8-3.1-1.6-5.7-0.3
		c-0.1,0-0.2,0.1-0.2,0.1c-0.3,0-0.5,0.1-0.8,0.1c-0.8,0-1.7-0.3-2.7-0.8c-0.2-0.4-0.4-0.9-0.2-1.6c0.1-0.4,3.1-2.1,0.5-5.6
		c-1.2-1.6-2.8-0.7-4.9-1.4c-2.1-0.7-2,2.3-4.8,1.7C106.8,213.5,107,210.2,105.4,208.5z"/>
	<path id="XMLID_1355_" fill="#8A8274" d="M199.3,277.2C199.3,277.2,199.3,277.2,199.3,277.2c0.2,0.3,0.5,0.6,0.8,0.9c0,0,0,0,0,0v0
		c0,0.1,0.1,0.1,0.1,0.2v0.2c0.3,0.4,0.6,0.7,0.9,1.1c1.8,2.3,5.2,3.3,8.8,1.5c3.6-1.9,6.2-1.9,9,0.8c2.6,2.6,6-1.2,10.2-1.4
		c0.2,0,0.5,0,0.8,0c4.6,0.2,12.4,2.9,16.6,6c0.9,0.7,2.1,1.1,3.1,1.2c3.7,0.4,7.4-2.1,4.5-4.5c-3.8-3.1-15.6-7.1-9.2-8.5
		c6.4-1.5,14-2.5,18.6-0.8c1.8,0.6,2.9-1.3,3-3.6c-15.4,0.2-10.1-9.3-30.1,3.6c-10.8,7-13.3-1.1-13.1-4.2c0.1-1.7,0.6-4.7,2.5-6.4
		c-3.2-3.5-9-6.2-14.9-3.2c-0.2,0.1-0.4,0.2-0.6,0.3c-0.1,0-0.1,0-0.2,0.1c-0.1,0.1-0.3,0.1-0.4,0.2c-0.1,0-0.1,0-0.2,0.1
		c-0.1,0-0.2,0.1-0.3,0.1c-0.1,0-0.1,0-0.2,0c-0.1,0-0.2,0-0.3,0.1c-0.1,0-0.1,0-0.2,0c-0.1,0-0.2,0-0.3,0c-0.1,0-0.1,0-0.1,0
		c-0.1,0-0.2,0-0.3,0c0,0-0.1,0-0.1,0c-0.1,0-0.2,0-0.3,0c0,0-0.1,0-0.1,0c-0.1,0-0.2,0-0.3-0.1c0,0-0.1,0-0.1,0
		c-0.1,0-0.2-0.1-0.3-0.1c0,0-0.1,0-0.1,0c-0.1,0-0.2-0.1-0.3-0.2c0,0,0,0-0.1,0c-0.1-0.1-0.2-0.1-0.3-0.2c0,0,0,0-0.1,0
		c-0.1-0.1-0.2-0.1-0.3-0.2c0,0,0,0,0,0c-0.1-0.1-0.2-0.2-0.3-0.3c0,0,0,0,0,0c-1.8-1.9-2.9-5.4-5.1-6.5v0c0,0-0.1-0.1-0.1-0.1v0
		c-0.1,0-0.1,0-0.2-0.1c-0.1,0-0.2-0.1-0.4-0.1c-0.1,0-0.2,0-0.3,0c-0.1,0-0.2,0-0.4,0c-0.1,0-0.3,0-0.4,0c-0.1,0-0.2,0-0.3,0
		c-0.3,0-0.5,0.1-0.8,0.2c-7,2.3-11.6,0-18.8,1.9c-0.2,0.1-0.5,0.1-0.7,0.2c-7,2-14.9,6-11.3,9.8c3.8,3.9,9,3.9,18,7.5
		c1.3,0.5,2.5,0.8,3.4,0.9c1.7,0.2,2.9,0,4-0.1c0.1,0,0.3,0,0.4,0C194.1,272.7,195.7,273.1,199.3,277.2z"/>
	<path id="XMLID_1358_" fill="#8A8274" d="M119,69.5c3.8-1.2,6.6-2,9,0.4c2.4,2.4,1.4,3.8,5.8,4c4.4,0.2,9.2-4.8,16.2-5.6
		c7-0.8,7,2.6,2,6c-5,3.4,1.8,6.8,7.8,6c6-0.8,5.8-0.4,10,1.2c4.2,1.6,4.6,4,10,1.8c5.4-2.2-2.6-6.8,1.2-5.6
		c1.1,0.3,1.9,0.5,2.7,0.5c6.2,2,10-0.3,14.5,7.4c0.2,0.3,0.3,0.5,0.5,0.8c0.1,0.2,0.2,0.4,0.4,0.5c0,0,0.1,0.1,0.1,0.1
		c0.1,0.2,0.3,0.4,0.4,0.6c0,0,0,0,0,0c0.2,0.2,0.3,0.4,0.5,0.5v0v0.2c0,0,0.1,0.1,0.1,0.1c0,0,0,0,0,0c3.9,3.8,7.6,0.5,15.1,0.4
		c0,0,0,0,0,0c0.3,0,0.5,0,0.8,0c0,0,0.1,0,0.1,0c0.3,0,0.5,0,0.8,0c0.1,0,0.1,0,0.2,0c0.2,0,0.5,0,0.8,0.1c0.1,0,0.2,0,0.2,0
		c0.2,0,0.5,0.1,0.7,0.1c0.1,0,0.2,0,0.3,0c0.2,0,0.5,0.1,0.7,0.1c0.1,0,0.2,0,0.4,0.1c0.3,0,0.5,0.1,0.8,0.2c0.1,0,0.2,0,0.3,0.1
		c0.4,0.1,0.8,0.2,1.2,0.3c14.4,3.9,36.8,2.5,49.6,3c9.7,0.4,15.1-3.6,17.4-8c0.7-1.4,1.2-2.9,1.3-4.2c0.5-5.5-14.7-2.2-8.8-9.4
		c3.2-3.9,24.3-5.8,35.5,1.1c15.2,9.4,13.2-3.5,18.5-2.6c4.5,0.8,3.4,4.3,10.5,4.3c1.4,0,1.3,1.7,1.9,3.4c0,0.1,0,0.1,0,0.2
		c0.3,2.1,2.3,3.9,5.3,3.5c3.1-0.4,3.1-1.3,7.5,0.5c4.4,1.9,3.7-2.9,8-5.6c4.3-2.7,4.9-4.8,0.7-6c-4.3-1.2-2.8-3.7-3.1-7.1
		c-0.3-3.3-6.5-2.8-9.7-0.3c-3.2,2.5-6.5,0.8-8.3-1.6c-1.7-2.4-2.8,2.8-8.3,4.7c-1.2,0.4-2,0.6-2.7,0.6c-1-0.4-1.8-0.9-2-1.6
		c0-0.5,0.1-1,0.3-1.6c0.2-0.3,0.4-0.6,0.7-0.9c0.9-0.9,1.7-1.7,2.3-2.4c1.1-0.7,2.2-1.3,2.7-2.1c1.1-1.7,0.3-2.4-1.9-3.7
		c-0.5-0.3-1-0.7-1.4-1.1c-1.3-2.9-0.5-7.5,4.6-5.4c4,1.7,9.7,1.8,11.8,0.3c1-0.7,1.3-1.9,0-3.4c-0.2-0.3-0.5-0.6-0.7-0.8
		c-4.9-5.5-4.3,0.2-10.9-3.6c-2.3-1.3,2-2.9,1-6.5c-0.4-0.4-0.7-0.8-0.9-1.2c-0.1-0.2-0.2-0.4-0.3-0.6c-2,1.7-5.5,2.7-10,0.8
		c-1.5-0.2-3.3-1-5.7-3.1c-0.3-0.3-0.7-0.6-1-1c-2-1.6-2.9-2.7-4.4-4.2c-2-1.4-4.1-2.1-6.4-0.4c-4.6,3.3-10.8,6.4-13.6,2.1
		c-2.8-4.4-8.8-8.9-14.4-6.4c-5.6,2.5-5.6,2.5-12.6-0.2c-7-2.7-7-5-4.6-6.6c0.3-0.2,0.7-0.5,1.2-0.7c-0.9,0-1.9,0.1-2.8,0.1
		c-17.1,0.6-44.5-10.5-56.3-6.1c-3.7,1.4-7.1,2.5-10.2,3.3c-0.8,0.2-1.6,0.4-2.3,0.6v0c-14.5,3.3-22.7,1-25.5,1.7c0,0,0,0,0,0
		c-0.1,0-0.1,0.1-0.2,0.1c0,0-0.1,0-0.1,0c-0.1,0-0.1,0.1-0.2,0.1c0,0,0,0-0.1,0c0,0-0.1,0.1-0.1,0.1c0,0,0,0-0.1,0.1
		c0,0-0.1,0.1-0.1,0.2c0,0,0,0,0,0.1c0,0.1,0,0.1-0.1,0.2c0,0,0,0.1,0,0.1c0,0.1,0,0.2,0,0.3c0,0,0,0,0,0.1c0,0.1,0,0.2,0,0.4
		c0.5,5,10.7,11.1-14.4,8.9c-12.4-1.1-18.8-1.5-21.6-0.7c3.8-0.2,0.3,4.5,1.1,6.9c0.8,2.5,0.6,4.4-4,6.4c-4.6,2.1-14.4,2.9-22,2.9
		c-2.2,0-4.7-0.2-7.4-0.5c-6.6-0.8-13.9-2.6-18-4.7c-5.8-2.9-7.6-3.1-7.8-5.8c-0.1-1.5-0.6-2.5-1.2-3.9c-2.6,0.3-5.7-0.3-7.6,1.5
		c-2.9,2.8-10,3.7-18.9,0.3c-5.1-1.9-8,2.8-16.3,6.4c-3.5,1.5-5.8,2.3-7.5,2.3c0,0.9,0,1.8,0,2.9c1,1.8,4.2,1.3,8.7,3.3
		c6,2.6,11.9,11.8,16.6,11.1c0.6-0.2,1.2-0.5,1.8-0.7c1.9-0.9,3.9-2,6.2-2.6c3-1.2,5.7-1.9,7.3-1c3,1.8,4.6,4.2,13.8,2.2
		c9.2-2,16.5-0.7,15.7,3.1c-0.9,4.1-7.5,3.1-6.9,5.9c0.6,2.8,2,5.3,8.6,4.3c6.6-1,11.9-2.6,14,1.3c1.7,3,1.7,4.9,0.7,5.9
		C115.8,69.7,117,70.2,119,69.5z M176.1,34.4c0.1-0.1,0.2-0.2,0.3-0.3c0,0,0,0,0,0c0.1-0.1,0.2-0.2,0.3-0.3c0,0,0.1-0.1,0.1-0.1
		c0.1-0.1,0.2-0.2,0.3-0.3c0.1-0.1,0.1-0.1,0.2-0.2c0.1-0.1,0.2-0.1,0.2-0.2c0.1-0.1,0.1-0.1,0.2-0.2c0.1-0.1,0.2-0.1,0.3-0.2
		c0.1-0.1,0.2-0.1,0.3-0.2c0.1-0.1,0.2-0.1,0.2-0.2c0.1-0.1,0.2-0.2,0.3-0.2c0.1-0.1,0.1-0.1,0.2-0.2c0.1-0.1,0.3-0.2,0.4-0.2
		c0.1,0,0.1-0.1,0.2-0.1c0.1-0.1,0.3-0.2,0.4-0.3c0.1,0,0.1-0.1,0.2-0.1c0.2-0.1,0.3-0.2,0.5-0.3c0.1,0,0.1-0.1,0.2-0.1
		c0.2-0.1,0.4-0.2,0.6-0.3c0,0,0.1,0,0.1-0.1c0.2-0.1,0.4-0.2,0.6-0.3c0,0,0.1,0,0.1,0c0.2-0.1,0.5-0.2,0.7-0.3c0,0,0,0,0.1,0
		c0.3-0.1,0.5-0.2,0.8-0.3c0,0,0,0,0,0c4.8-2.1,10.9-3.6,16.1-3.2c0,0,0,0,0,0v0c0,0,0.1,0,0.1,0v0c0.2,0,0.4,0.1,0.7,0.1
		c0.3,0,0.6,0.1,1,0.1c0.5,0.1,1.1,0.2,1.6,0.4c9.1,2.8,7.2-1.9,13.1,2.5c5.9,4.4-1.1,5,1.9,8.9c2.9,3.9,16.3,2.8,21.6-0.6
		c5.3-3.3,8-10.5,15.7-6.4c7.7,4.2,14.1,8.9,20.5,5.8c6.4-3,9.3-6.1,14.1-3.3c4.8,2.8,8.3-2.2,14.7-0.8c6.4,1.4,10.7,1.9,12.3,4.7
		c1.6,2.8,5.6-1.4,6.7,1.7c1.1,3-16,7.5-20,5.5S293.5,38,289,40.3c-4.5,2.2-8,1.7-10.1,0.3c-2.1-1.4-2.7-1.4-6.4,0.6
		c-3.7,1.9-9.3-5-15.5,0.3c-6.1,5.3-17.6,9.1-25.3,6.9c-7.7-2.2-15.5-4.2-16.5,0.3c-1.1,4.4-1.1,8.6,7.2,10.2
		c5.5,1.1,1.3,7.5-2.7,11.4c-4,3.9-5.9,1.4-6.7-0.3c-0.8-1.7-6.7-3.6-10.7-4.2c-0.2,0-0.5-0.1-0.7-0.1c-0.2,0-0.3-0.1-0.4-0.1
		c0,0-0.1,0-0.1,0c-0.2,0-0.3-0.1-0.5-0.2c0,0,0,0,0,0c-0.2-0.1-0.3-0.1-0.4-0.2c0,0,0,0,0,0v0c0,0-0.1,0-0.1-0.1V65
		c-1-0.7-0.9-1.9,0-3.7V61c0-0.1,0.1-0.2,0.1-0.3v0c0.1-0.2,0.2-0.3,0.3-0.5c1.7-3,3.1-4.6-0.3-5.3c0,0-0.1,0-0.1,0v0c0,0,0,0,0,0
		c-0.1,0-0.3,0-0.4-0.1c-0.2,0-0.4-0.1-0.6-0.1c-5.1-0.6-8-2.8-2.7-5.3c5.3-2.5,4-5.5,1.3-6.4c-2.7-0.8-8.8,2.5-14.7,1.7
		C177.2,43.9,173.2,38.6,176.1,34.4z"/>
	<path id="XMLID_1359_" fill="#8A8274" d="M471.3,122.7c-1.5-2.1-4.4-3.1-7-3.4c-0.5,0-0.9-0.1-1.4-0.1c-2.8,0-4.8,0.8-3.3,2.1
		c2.9,2.7-4,2.1-7.5,0c-3.3-2-13.8-2.6-17.8-2.7c-0.6,0.1-1.2,0.1-1.8,0.2c-10.2,1.2-11.6,3.7-9.9,6.5h0c1.4,2.2,4.6,4.6,7.2,6.8
		c1.2,1,3.7,2.1,6.9,3.2c12.3,4.1,35.6,7.5,43.2,4V121C478.1,123.5,473.8,126.2,471.3,122.7z"/>
	<path id="XMLID_1360_" fill="#8A8274" d="M469.1,21.3c3.8-0.2,0.3,4.5,1.1,6.9c0.8,2.5,0.6,4.4-4,6.4c-4.6,2.1-14.4,2.9-22,2.9
		c-2.2,0-4.7-0.2-7.4-0.5c-6.6-0.8-13.9-2.6-18-4.7c-5.8-2.9-7.6-3.1-7.8-5.8c-0.1-1.5-0.6-2.5-1.2-3.9c-2.6,0.3-5.7-0.3-7.6,1.5
		c-2.9,2.8-10,3.7-18.9,0.3c-5.1-1.9-8,2.8-16.3,6.4c-3.5,1.5-5.8,2.3-7.5,2.3c0,0.9,0,1.8,0,2.9c1,1.8,4.2,1.3,8.7,3.3
		c6,2.6,11.9,11.8,16.6,11.1c0.6-0.2,1.2-0.5,1.8-0.7c1.9-0.9,3.9-2,6.2-2.6c3-1.2,5.7-1.9,7.3-1c3,1.8,4.6,4.2,13.8,2.2
		c9.2-2,16.5-0.7,15.7,3.1c-0.9,4.1-7.5,3.1-6.9,5.9c0.6,2.8,2,5.3,8.6,4.3c6.6-1,11.9-2.6,14,1.3c1.7,3,1.7,4.9,0.7,5.9
		c1.2,0.9,2.4,1.4,4.5,0.7c3.8-1.2,6.6-2,9,0.4c2.4,2.4,1.4,3.8,5.8,4c4.1,0.2,8.5-4.1,14.8-5.4V21.1
		C474.4,20.7,470.9,20.7,469.1,21.3z"/>
	<path id="XMLID_1361_" fill="#8A8274" d="M433.5,65.3c-2.3-1.1-6.3,1.3-10.7,2.3c-4.4,0.9-5.2-4-5.3-5.9c-0.1-1.9-3.1-3.7-8.4-4.3
		c-2.4-0.2-3.4-0.3-4-0.1c-1.3,0.2-2.4,0.8-3.3,1.4c-2,1.4-2.8-2.2-6.8-1c-0.2,0.1-0.4,0.1-0.7,0.2c-1.8,1-1.4,2.5-0.5,3.1
		c3.4,2.2,4.6,3.9,5.5,5.1c1.2,1.6,1.9,2.2,6.6,1.8c3.2-0.3,5.7,0.4,7.4,1.6c-1.3,1.4-3.9,2.7-7.2,2.8c-6.1,0.3-7.5,2.1-6.4,5.1
		c1.1,2.9,3.7,9.9-2.4,7.5c-6.1-2.4-10.7-2.7-12-0.3c-1.3,2.4-4.3,2.9-8,0.5c-3-2-6.2-0.9-7.3,3.5c0,0.2-0.1,0.4-0.1,0.6
		c0,0,0,0.1,0,0.1c1.6,0.3,3.1,0.8,4.7,1.4c5.6,2-0.2,7.9,0.2,12.6c0.2,0.8,0.5,1.5,0.9,2.3c4.4,5.9,6.9-5.9,14.4,2.9
		c0.1,0.2,0.3,0.3,0.4,0.4c2,2.2,4.4,3.7,6.9,4.7c7.2,2.7,15.4,1.1,18.5-2.9c1.3-1.7,2.3-3.5,3.3-5.3c-0.3,0-0.6-0.5-1-1.7
		c-2.1-6.1-5.7-5.7-16.9-6.9c-7.8-0.8-10.9-1.5-11-3.3c0-0.7,0.5-1.7,1.4-2.8c1.9-2.4,7.5-4.1,12.8-4c3.4,0.1,6.8,0.9,9.1,2.9
		c5.9,5,16,3.9,16.5-2.2c0.5-5.3-2.7-11.9,1.4-16.5c1-0.6,2.1-1.1,3-1.7c0,0,0,0,0.1,0C437.3,67.3,435.7,66.4,433.5,65.3z"/>
	<path id="XMLID_1362_" fill="#8A8274" d="M311.5,574.9c-7.2,0-7.2-6.1-11.2-7.5c-4-1.4-7.1,7.2-12.7,10.2c-2.6,1.4-5.5,3.4-7.9,5.2
		c1.7,1,3.6,1.8,6.1,1.5c5.9-0.8,6.4-2.8,12-5.3c5.6-2.5,10.7,2.5,12.8,4.4c1.1,1,2.8,0.9,4.5,0.1
		C311,580.4,318.4,574.9,311.5,574.9z"/>
	<path id="XMLID_1365_" fill="#8A8274" d="M11.7,656.4c0.6,1.8,0.9,3.9,0.9,6.5c0,0.3,0,0.5,0,0.8c0,0.2,0,0.4,0.1,0.6c0,0,0,0,0,0
		c0.1,0.4,0.2,0.7,0.3,1c0,0,0,0,0,0c0,0,0,0,0,0h0c0,0.1,0.1,0.2,0.1,0.2c1.5,2.8,5.8,0.7,9.7,2.9c2,1.1,3.5,0.6,5-0.3
		c-0.1-0.1-0.2-0.3-0.3-0.4c-0.1-0.1-0.2-0.2-0.2-0.4c0,0,0-0.1,0-0.1c0-0.1,0-0.2,0-0.2c0-0.1,0-0.1,0-0.2c0-0.1,0-0.1,0-0.2
		c0-0.1,0.1-0.1,0.1-0.2c0,0,0-0.1,0.1-0.1c0.1-0.1,0.1-0.2,0.2-0.2c0,0,0,0,0.1-0.1c0.1-0.1,0.2-0.2,0.3-0.3c0,0,0,0,0,0
		c0.1-0.1,0.3-0.2,0.4-0.3c0,0,0,0,0,0c0.1-0.1,0.3-0.2,0.5-0.2c0,0,0,0,0,0h0h0c0,0,0,0,0,0c0.5-0.2,1-0.3,1.5-0.4c0,0,0,0,0,0
		c0.3,0,0.5-0.1,0.8-0.1c0.3,0,0.5,0,0.8,0c2.6,0,5-0.4,6.6-5.2c1.6-4.8,6-4.2,10.2-3.3c4.2,0.8,9-0.6,9.4-3.1
		c0.4-2.5-5-4.6-9.2-6.2c-4.2-1.7,0-5.6-4.6-7.9c-4.6-2.3-4-3.5-2.5-6.2c1.5-2.6,10.5,1,12.9-1.1c2.4-2.1,8.6-1.7,12.4,0.6
		c3.8,2.3,8.6,1,15-1.2s12.8,2.5,19,4.6c1.3,0.4,2.7,0.6,4.2,0.6c5.9-0.1,12.5-3.3,11.2-6.6c-1.1-2.8-6-2.3-11.2-2.1
		c-2.5,0.1-5.2,0.1-7.4-0.4c-6.8-1.5-13.8-10.6-21.6-15.4c-7.8-4.8-14.8-0.6-19.6-3.1c-4.6-2.4-9.5-3.2-13.3-3.9
		c-0.2,0-0.3-0.1-0.5-0.1c-3.8-0.6,0.4-2.9,3.8-4.8c0.8-0.4,2.2-0.6,3.9-0.6c0.7,0,1.4,0.1,2,0.2c2.5,0.5,12.1,1.5,14.9-0.3
		c0.3-0.1,0.6-0.2,0.8-0.4c3.4-2.3,6.8-2.3,11.6-0.4c4.8,1.9,12-2.3,17.4-5c2.5-1.2,5.4-0.8,8,0.2c3.1,1.1,5.8,2.7,7.2,3
		c2.6,0.4,6.2-4.2,9.2-7.1c3-2.9,8.6-1.2,10.8-1.2c2.2,0,10.2-3.5,8-7.1c-2.2-3.5-14.2-4.8-22.2-5c-8-0.2-12.4-3.3-9.3-9.3
		c0.4-2.4,2.5-3.1,4.7-3.6c1.2-0.4,2.5-0.8,3.8-1c0.8-0.3,1.3-0.8,1.6-1.4c0.4,0.4,0.7,0.6,0.8,0.7c0,0,0.1-0.1,0.3-0.2l4.4,2.4
		c0,0,22,3.4,26.2-3.2c3.1-4.8,0.1-8.3-3.1-10c2.5-3.3,6.9-3.1,10.5-2.9c3.5,0.2,5.7,3.1,7.3,7.1c0.6,1.5,1.2,3.2,1.7,4.8
		c0.4,1.2,0.7,2.1,1,2.8c0.6,0.7,1.2,1.3,1.9,1.7c2.8,1.4,4.4,1.1,5.5-0.3c0.2-0.2,0.3-0.4,0.4-0.6c0.3-0.5,0.7-1.2,1-1.9
		c0.8-1.7,1.6-4,2.9-6.4c3.7-6.9,15.5,6.4,18.7,11.9c0.2,0.3,0.3,0.6,0.5,0.8c0.2,0.3,0.4,0.5,0.6,0.8v0c0,0.1,0.1,0.1,0.1,0.2v0.1
		c0,0,0,0,0,0c1.6,1.8,3.8,3.2,6.3,4.2c0,0,0,0,0,0c0.3,0.1,0.7,0.3,1,0.4c0,0,0.1,0,0.1,0c0.3,0.1,0.6,0.2,1,0.3c0.1,0,0.1,0,0.2,0
		c0.3,0.1,0.6,0.2,0.9,0.2c0.1,0,0.2,0,0.3,0.1c0.3,0.1,0.6,0.1,0.8,0.2c0.1,0,0.2,0,0.4,0c0.2,0,0.5,0.1,0.7,0.1c0.2,0,0.3,0,0.5,0
		c0.2,0,0.4,0,0.6,0c0.2,0,0.4,0,0.6,0c0.2,0,0.4,0,0.5,0c0.2,0,0.4,0,0.7-0.1c0.1,0,0.3,0,0.4,0c0.4,0,0.7-0.1,1-0.2
		c0,0,0.1,0,0.1,0.1c2.9-0.9,6.1-1.2,9.5-0.1c12.5,4.2,6.7-5.7,16-1.3c9.3,4.4,14.7-5.5,22.4-1c7.7,4.5,12.3,0,19.7-0.9
		c7.4-1,2.8-9.8-7.2-6.9c-10,2.9-20.5-4.5-25.4-7.2c-4.9-2.8-6.8-9.3-0.4-8.4c2.4,0.3,4-0.1,5-0.9c0.6-0.8,1-1.8,0.6-3.2
		c-0.4-0.9-1.3-1.8-2.6-2.6c-4.9-2.8-17.5,2-19.2,0.3c-1.7-1.7-3.9-2.8,3.6-3.2c2.3-0.1,3.9-0.5,4.9-1c2.4-1.2,1.8-3.1-0.8-3.4
		c-3.8-0.4-19.4-2.7-19,4.5c0.3,7.2,0.9,7.8-6.1,8.1c-6.9,0.3-4.7,14.1-9.6,12.5c-4.9-1.6-10.4-4.9-4.7-10c5.7-5.1,9.2-8.9,7.4-14.2
		c-1.3-3.6-3.8-3.8-8.2-2.7c-0.3,0.1-0.6,0.2-0.9,0.3c-0.3,0.1-0.5,0.2-0.8,0.2c0,0-0.1,0-0.1,0c0,0-0.1,0-0.1,0v0v0
		c-1.6,0.5-3.3,1-5.2,1.6c-2.1,0.7-3.5,1.6-4.6,2.8c0,0-0.1-0.1-0.1-0.1c-3.7-3.2,3.3-8.2-0.1-10.2c-3.2-1.9-1.3-9.7,2.5-11.9
		c3.9-2.2,7.3-6.5,5.7-7.3c-1.6-0.8-10.5,2.5-14.3,4.8c-3.7,2.4-7.5,0.3-12.5,1.8c-4.4,1.3-11.5,0.9-15.6-0.8
		c-10.9,4.2-11,9.4-20.8,1.8c-0.7-0.6-1.4-1-2-1.4c-8.9-3.2-9.6,0.7-20.1,0.7c-2.9,0-5.3-0.2-7.5-0.5c-6-1.1-9.6-4-15.5-10.5
		c-8-8.9-13.9-1.7-18.7-9.4c-4.8-7.8-6.4-4.4-5.3-12.2c0.3-2.2,1.7-3.1,3.6-3.4c1.8-0.2,3.6,0.1,5.9,1.5c3.5,2.1,7.2,0,6.9-2.4
		c-0.3-2.4,0-3.5,5.3-2.1c5.3,1.3,5.2-5.3-1.1-5.3c-8.7-0.1-3.9-4.4-8-6.6c-2.4-1.2-10.1-3.9-18.5,5.1c-3.1,3.5-5.7,4.4-7.8,4.3
		c-1.1,1.1-2.9,2-4.7,2.6c-5,1.6-3.2,7.6,3.6,8.2c6.8,0.6,7.4,7.4,2.4,9.2c-5,1.8-3,5,1.6,7.6c1.9,1.1,2.1,1.8,1.4,2.5
		c-0.4,0.2-0.8,0.3-1.2,0.5c-4.6,1.4-5.2,2.6-10.8,2c-5.6-0.6-12.7,3.5-10.4,4.8c0,0,0,0,0,0c2.4,1.2,1.4,3.2-1.8,3.8
		c-3.2,0.6-2.8,5.2,4.6,3.4c4.3-1,7.1-2.3,9.2-2.9c1-0.2,2-0.2,3,0c0.3,0.1,0.5,0.3,0.8,0.5c2.4,2,2.8,4.4,8.4,2.8
		c0.7-0.2,1.5-0.3,2.2-0.4c2.6,0.5,4.9,1.4,5.9,3.7c2.4,5.3-4,7.4-8.9,5.2c-2.6-1.2-8.2-0.5-12.6,1.5c-0.4,0.2-0.7,0.3-1.1,0.5
		c3.7,0.6,7,2.4,7,5.3c-0.1,3.9,3.9,4.6,9.7,2.9c2-0.6,3-0.2,3.7,0.4c0.5,0.7,0.8,1.7,0.8,2.8c0,2.3,0.8,3.6,4.7,3.3
		c3.9-0.3,5.5-2.9,6.1-4.7c0.7-1.7-2.4-2.5-3.7-4c-0.1-0.1-0.2-0.3-0.4-0.5c-0.2-0.9,0.4-1.8,1.9-2.8c3.5-2.4,5-2.4,5.3-0.6
		c0.3,1.7,3,2.5,4.4,0.3c1.4-2.1,2.5-3,5.5-3c3,0.1,3.7,1.2,4,3.7c0.2,2.2,3.2,2.7,3.7,5.2c0.2,0.4,0.3,0.7,0.3,1.1
		c0,0.6,0,1.1,0,1.6c-0.1,0.3-0.2,0.6-0.3,0.8c0,0.1,0,0.3-0.1,0.4c-0.5,1.4-0.9,2.7-2,3.2c0,0,0,0,0,0c0,0-0.1,0-0.1,0
		c-0.5,0.1-1,0.1-1.7,0c-0.1,0-0.1,0-0.2,0c-0.1,0-0.2-0.1-0.3-0.1c-3.4-1.1-4.5-0.1-6.4,0.3c-1.9,0.4-2.6,1.3-2.7,2.6
		c-0.1,1.3-1,4.5-2.4,4c-1.4-0.5-4.6-1.6-6.4-1.1c-1.8,0.5-2.5,2.3-4.2,1.7c-1.6-0.5-3.9-0.5-3.8,1.4c-0.1,1.5,1.5,3.6,5.1,4.3
		c0.5,0,1.1,0,1.7,0c5.4,0,5.5-3,15.8-6.4c5.8-1.9,10.8-0.8,14.1,1.3l0,0.2l1,0.5c0.5,0.4,0.9,0.7,1.3,1.1c1.2,1.2,2,2.5,2.3,3.6
		c0.4,1.5-0.7,2.2-2.3,2.4c-2.7,0.3-7-0.7-9.5-1.6c-4.1-1.4-5.2,0.5-5.1,1.8c0.1,1.4,3.4,0.7,5.5,3.1c2.1,2.4-2.5,3.3-5,5.4
		c-2.5,2.1-7.8,1.5-12,1.2c-4.2-0.3-5.2,4.1-1.6,5c3.6,1,5.3,2.9,3.2,5.3c-2.1,2.4-7.5-1.7-15.2-4c-3.9-1.2-6.7-1.9-12.3-2.1
		c-2.8-0.1-6.2-1.1-8.9-2.5c0-0.1-0.1-0.1-0.1-0.2c-3.7-4.8-1.9-5.1,5.3-8c0.4-0.2,0.8-0.4,1.2-0.5c5.3-2.8-0.6-6-8.6-4.5
		c-8.5,1.6-0.6-5.8-9.9-5c-2.8,0.2-7.4-4.3-7.9-8.1c0-0.3-0.1-0.5-0.2-0.7c-0.4-1.7-1.2-3-4.1-3.4c-4.1-0.7-4.9-4.9-3.2-6.4
		c0.6-0.5,0.9-1,1.1-1.5c0.4-0.7,0.6-1.6,0.6-2.6c-3.4,1.3-7.4,0.6-10.2-0.4c-2.6-0.9-5.4-0.5-6.2,0.8c-1.2,1-1.1,1.6,0.2,2.5
		c1.2,0.8,1.6,2.9-0.2,4c-0.7,0.3-1.6,0.6-2.4,0.8c-0.3,0.1-0.6,0.2-1.1,0.2v4.3c0.1,0.1,0.3,0.2,0.4,0.3c2.2,1.9,5,5.1,7.1,4.5
		c2.1-0.6,6-1.7,7.2,0.5c1.2,2.2,0.3,4.8-2.4,4.3c-2.7-0.5-4.1,0.6-5.7,2.3c-1.6,1.7-3.9-1.2-4.9-3.5c-0.3-0.7-0.9-1.2-1.7-1.5v15.4
		c0.4,0.3,0.8,0.6,1.2,0.9c0.8,0.5,1.5,0.7,2.1,0.6c0.1,0,0.1,0,0.2,0c0.5-0.2,0.7-0.2,0.7-0.2c2.5-1,4.1-5.5,7.8-4.6
		c0.4-0.2,1-0.3,1.6-0.5c4-1,5.4,0,8.2,2c2.8,2,9.6-0.6,7.2,2.8c-2.4,3.4-11.6,4-10.2,8c1.4,4-1.4,9-4.8,6.4
		c-3.4-2.6-4.6-2.4-10-1.2c-0.2,0.1-0.4,0.1-0.6,0.1c-0.1,0.1-0.3,0.1-0.4,0.2c-5.3,2.5-1.6,3.9-0.3,5.5c1.1,1.3,0.1,3.2-2.7,2.7
		v12.9c2.6,0.6,5.2,1.3,7.8,2.4c6.1,2.5,6.7,10.8,5.1,14.1c-1.6,3.3-5.1,1.4-10.7-6.6c-0.7-1-1.4-1.8-2.2-2.4v4.3
		c1.1,0.5,1.6,1.3,1.1,2.2c-0.2,0.4-0.6,0.9-1.1,1.4v37.5c0.1-0.2,0.3-0.3,0.4-0.5C2.7,648.4,9.3,649,11.7,656.4z M105.4,539.8
		c-0.4-0.4-0.8-0.7-1.1-0.9c-1-0.1-2.2-0.2-3.5-1.9c-2.8-3.4-0.8-7.8,6.6-3.8c7.4,4,1.8-2.2,10-1.8c8.2,0.4,9.6,5.8,14.4,10.6
		c4.8,4.8,8.8-2,10.8,3.2c1.4,3.6,0.1,4.9-1.4,6.4c-0.8,2.1-1.2,4.9-6.9,4.9c-3.4,0-4.6-1.5-5.8-3.3c-1.2-1.8-3.1-1.6-5.7-0.3
		c-0.1,0-0.2,0.1-0.2,0.1c-0.3,0-0.5,0.1-0.8,0.1c-0.8,0-1.7-0.3-2.7-0.8c-0.2-0.4-0.4-0.9-0.2-1.6c0.1-0.4,3.1-2.1,0.5-5.6
		c-1.2-1.6-2.8-0.7-4.9-1.4c-2.1-0.7-2,2.3-4.8,1.7C106.8,544.9,107,541.6,105.4,539.8z"/>
	<path id="XMLID_1366_" fill="#8A8274" d="M236.3,605.1c-10.8,7-13.3-1.1-13.1-4.2c0.1-1.7,0.6-4.7,2.5-6.4c-3.2-3.5-9-6.2-14.9-3.2
		c-0.2,0.1-0.4,0.2-0.6,0.3c-0.1,0-0.1,0-0.2,0.1c-0.1,0.1-0.3,0.1-0.4,0.2c-0.1,0-0.1,0-0.2,0.1c-0.1,0-0.2,0.1-0.3,0.1
		c-0.1,0-0.1,0-0.2,0c-0.1,0-0.2,0-0.3,0.1c-0.1,0-0.1,0-0.2,0c-0.1,0-0.2,0-0.3,0c-0.1,0-0.1,0-0.2,0c-0.1,0-0.2,0-0.3,0
		c-0.1,0-0.1,0-0.1,0c-0.1,0-0.2,0-0.3,0c0,0-0.1,0-0.1,0c-0.1,0-0.2,0-0.3-0.1c0,0-0.1,0-0.1,0c-0.1,0-0.2-0.1-0.3-0.1
		c0,0-0.1,0-0.1-0.1c-0.1,0-0.2-0.1-0.3-0.1c0,0-0.1,0-0.1-0.1c-0.1-0.1-0.2-0.1-0.3-0.2c0,0,0,0-0.1-0.1c-0.1-0.1-0.2-0.1-0.3-0.2
		c0,0,0,0,0,0c-0.1-0.1-0.2-0.2-0.3-0.3c0,0,0,0,0,0c-1.8-1.9-2.9-5.4-5.1-6.5v0c0,0-0.1-0.1-0.1-0.1v0c-0.1,0-0.1,0-0.2-0.1
		c-0.1,0-0.2-0.1-0.4-0.1c-0.1,0-0.2,0-0.3,0c-0.1,0-0.2,0-0.4,0c-0.1,0-0.3,0-0.4,0c-0.1,0-0.2,0-0.3,0c-0.3,0-0.5,0.1-0.8,0.2
		c-7,2.3-11.6,0-18.8,1.9c-0.2,0.1-0.5,0.1-0.7,0.2c-7,2-14.9,6-11.3,9.8c3.8,3.9,9,3.9,18,7.5c1.3,0.5,2.5,0.8,3.4,0.9
		c1.7,0.2,2.9,0,4-0.1c0.1,0,0.3,0,0.4,0c1.9-0.2,3.5,0.2,7,4.3c0,0,0,0,0,0c0.2,0.3,0.5,0.6,0.7,0.9c0,0,0,0,0,0.1v0
		c0,0.1,0.1,0.1,0.1,0.2v0.2c0.3,0.4,0.6,0.7,0.9,1.1c1.8,2.3,5.2,3.3,8.8,1.5c3.6-1.9,6.2-1.9,9,0.8c2.6,2.6,6-1.2,10.2-1.4
		c0.2,0,0.5,0,0.8,0c4.6,0.2,12.4,2.9,16.6,6c0.9,0.7,2.1,1.1,3.1,1.2c3.7,0.4,7.4-2.1,4.5-4.5c-3.8-3.1-15.6-7.1-9.2-8.5
		c6.4-1.5,14-2.5,18.6-0.8c1.8,0.6,2.9-1.3,3-3.6C251.1,601.7,256.4,592.2,236.3,605.1z"/>
	<path id="XMLID_1369_" fill="#8A8274" d="M119,400.9c3.8-1.2,6.6-2,9,0.4c2.4,2.4,1.4,3.8,5.8,4c4.4,0.2,9.2-4.8,16.2-5.6
		c7-0.8,7,2.6,2,6c-5,3.4,1.8,6.8,7.8,6c6-0.8,5.8-0.4,10,1.2c4.2,1.6,4.6,4,10,1.8c5.4-2.2-2.6-6.8,1.2-5.6
		c1.1,0.3,1.9,0.5,2.7,0.5c6.2,2,10-0.3,14.5,7.4c0.2,0.3,0.3,0.5,0.5,0.8c0.1,0.2,0.2,0.4,0.4,0.5c0,0,0.1,0.1,0.1,0.1
		c0.1,0.2,0.3,0.4,0.4,0.6l0,0c0.2,0.2,0.3,0.4,0.5,0.5v0v0.2c0,0,0.1,0.1,0.1,0.1c0,0,0,0,0,0c3.9,3.8,7.6,0.5,15.1,0.4
		c0,0,0,0,0,0c0.3,0,0.5,0,0.8,0c0,0,0.1,0,0.1,0c0.3,0,0.5,0,0.8,0c0.1,0,0.1,0,0.2,0c0.2,0,0.5,0,0.7,0.1c0.1,0,0.2,0,0.3,0
		c0.2,0,0.5,0.1,0.7,0.1c0.1,0,0.2,0,0.3,0c0.2,0,0.5,0.1,0.7,0.1c0.1,0,0.2,0,0.3,0.1c0.3,0,0.5,0.1,0.8,0.2c0.1,0,0.2,0,0.3,0.1
		c0.4,0.1,0.8,0.2,1.2,0.3c14.4,3.9,36.8,2.5,49.6,3c9.7,0.4,15.1-3.6,17.4-8c0.7-1.4,1.2-2.9,1.3-4.2c0.5-5.5-14.7-2.2-8.8-9.4
		c3.2-3.9,24.3-5.8,35.5,1.1c15.2,9.4,13.2-3.5,18.5-2.6c4.5,0.8,3.4,4.3,10.5,4.3c1.4,0,1.3,1.7,1.9,3.4c0,0.1,0,0.1,0,0.2
		c0.3,2.1,2.3,3.9,5.3,3.5c3.1-0.4,3.1-1.3,7.5,0.5c4.4,1.9,3.7-2.9,8-5.6c4.3-2.7,4.9-4.8,0.7-6c-4.3-1.2-2.8-3.7-3.1-7.1
		c-0.3-3.3-6.5-2.8-9.7-0.3c-3.2,2.5-6.5,0.8-8.3-1.6c-1.7-2.4-2.8,2.8-8.3,4.7c-1.2,0.4-2,0.6-2.7,0.6c-1-0.4-1.8-0.9-2-1.6
		c0-0.5,0.1-1,0.3-1.6c0.2-0.3,0.4-0.6,0.7-0.9c0.9-0.9,1.7-1.7,2.3-2.4c1.1-0.7,2.2-1.3,2.7-2.1c1.1-1.7,0.3-2.4-1.9-3.7
		c-0.5-0.3-1-0.7-1.4-1.1c-1.3-2.9-0.5-7.5,4.6-5.4c4,1.7,9.7,1.8,11.8,0.3c1-0.7,1.3-1.9,0-3.4c-0.2-0.3-0.5-0.6-0.7-0.8
		c-4.9-5.5-4.3,0.2-10.9-3.6c-2.3-1.3,2-2.9,1-6.5c-0.4-0.4-0.7-0.8-0.9-1.2c-0.1-0.2-0.2-0.4-0.3-0.6c-2,1.7-5.5,2.7-10,0.8
		c-1.5-0.2-3.3-1-5.7-3.1c-0.3-0.3-0.7-0.6-1-1c-2-1.6-2.9-2.7-4.4-4.2c-2-1.4-4.1-2.1-6.4-0.4c-4.6,3.3-10.8,6.4-13.6,2.1
		c-2.8-4.4-8.8-8.9-14.4-6.4c-5.6,2.5-5.6,2.5-12.6-0.2c-7-2.7-7-5-4.6-6.6c0.3-0.2,0.7-0.5,1.2-0.7c-0.9,0-1.9,0.1-2.8,0.1
		c-17.1,0.6-44.5-10.5-56.3-6.1c-3.7,1.4-7.1,2.5-10.2,3.3c-0.8,0.2-1.6,0.4-2.3,0.6v0c0,0-0.1,0-0.1,0v0c-0.1,0-0.1,0-0.1,0
		c-0.5,0.1-1,0.2-1.6,0.3c0,0-0.1,0-0.1,0c-12.8,2.6-20.3,0.8-23.2,1.3c0,0,0,0,0,0c-0.1,0-0.2,0-0.3,0.1c0,0,0,0,0,0
		c-0.1,0-0.2,0.1-0.2,0.1c0,0,0,0-0.1,0c-0.1,0-0.1,0.1-0.2,0.1c0,0-0.1,0-0.1,0c0,0-0.1,0.1-0.1,0.1c0,0,0,0-0.1,0.1
		c0,0-0.1,0.1-0.1,0.1c0,0,0,0,0,0.1c0,0.1,0,0.1-0.1,0.2c0,0,0,0.1,0,0.1c0,0.1,0,0.2,0,0.3c0,0,0,0,0,0.1c0,0.1,0,0.2,0,0.4
		c0.5,5,10.7,11.1-14.4,8.9c-12.4-1.1-18.8-1.5-21.6-0.7c3.8-0.2,0.3,4.5,1.1,6.9c0.8,2.5,0.6,4.4-4,6.4c-4.6,2.1-14.4,2.9-22,2.9
		c-2.2,0-4.7-0.2-7.4-0.5c-6.6-0.8-13.9-2.6-18-4.7c-5.8-2.9-7.6-3.1-7.8-5.8c-0.1-1.5-0.6-2.5-1.2-3.9c-2.6,0.3-5.7-0.3-7.6,1.5
		c-2.9,2.8-10,3.7-18.9,0.3c-5.1-1.9-8,2.8-16.3,6.4c-3.5,1.5-5.8,2.3-7.5,2.3c0,0.9,0,1.8,0,2.9c1,1.8,4.2,1.3,8.7,3.3
		c6,2.6,11.9,11.8,16.6,11.1c0.6-0.2,1.2-0.5,1.8-0.7c1.9-0.9,3.9-2,6.2-2.6c3-1.2,5.7-1.9,7.3-1c3,1.8,4.6,4.2,13.8,2.2
		c9.2-2,16.5-0.7,15.7,3.1c-0.9,4.1-7.5,3.1-6.9,5.9c0.6,2.8,2,5.3,8.6,4.3c6.6-1,11.9-2.6,14,1.3c1.7,3,1.7,4.9,0.7,5.9
		C115.8,401.1,117,401.6,119,400.9z M176.1,365.8c0.1-0.1,0.2-0.2,0.3-0.3c0,0,0,0,0,0c0.1-0.1,0.2-0.2,0.3-0.3c0,0,0.1-0.1,0.1-0.1
		c0.1-0.1,0.2-0.2,0.3-0.3c0.1-0.1,0.1-0.1,0.2-0.2c0.1-0.1,0.2-0.1,0.2-0.2c0.1-0.1,0.1-0.1,0.2-0.2c0.1-0.1,0.2-0.1,0.3-0.2
		c0.1-0.1,0.2-0.1,0.3-0.2c0.1-0.1,0.2-0.1,0.3-0.2c0.1-0.1,0.2-0.1,0.3-0.2c0.1-0.1,0.2-0.1,0.2-0.2c0.1-0.1,0.3-0.2,0.4-0.2
		c0.1,0,0.1-0.1,0.2-0.1c0.1-0.1,0.3-0.2,0.4-0.3c0.1,0,0.1-0.1,0.2-0.1c0.2-0.1,0.3-0.2,0.5-0.3c0.1,0,0.1-0.1,0.2-0.1
		c0.2-0.1,0.4-0.2,0.6-0.3c0,0,0.1,0,0.1-0.1c0.2-0.1,0.5-0.2,0.7-0.3c0,0,0,0,0.1,0c0.2-0.1,0.5-0.2,0.7-0.3c0,0,0,0,0,0
		c0.3-0.1,0.5-0.2,0.8-0.3c0,0,0,0,0,0c4.9-2.1,11.1-3.6,16.2-3.2v0c0.2,0,0.4,0.1,0.6,0.1c0.3,0,0.7,0.1,1,0.1
		c0.5,0.1,1.1,0.2,1.6,0.4c9.1,2.8,7.2-1.9,13.1,2.5c5.9,4.4-1.1,5,1.9,8.9c2.9,3.9,16.3,2.8,21.6-0.6c5.3-3.3,8-10.5,15.7-6.4
		c7.7,4.2,14.1,8.9,20.5,5.8c6.4-3,9.3-6.1,14.1-3.3c4.8,2.8,8.3-2.2,14.7-0.8c6.4,1.4,10.7,1.9,12.3,4.7c1.6,2.8,5.6-1.4,6.7,1.7
		c1.1,3-16,7.5-20,5.5s-10.4-6.6-14.9-4.4c-4.5,2.2-8,1.7-10.1,0.3c-2.1-1.4-2.7-1.4-6.4,0.6c-3.7,1.9-9.3-5-15.5,0.3
		c-6.1,5.3-17.6,9.1-25.3,6.9c-7.7-2.2-15.5-4.2-16.5,0.3c-1.1,4.4-1.1,8.6,7.2,10.2c5.5,1.1,1.3,7.5-2.7,11.4
		c-4,3.9-5.9,1.4-6.7-0.3c-0.8-1.7-6.7-3.6-10.7-4.2c-0.2,0-0.5-0.1-0.7-0.1c-0.2,0-0.3-0.1-0.4-0.1c0,0-0.1,0-0.2,0
		c-0.2,0-0.3-0.1-0.5-0.2c0,0,0,0,0,0c-0.1-0.1-0.3-0.1-0.4-0.2c0,0,0,0,0,0v0c0,0-0.1,0-0.1-0.1v-0.1c-1-0.7-0.9-1.9,0-3.7v-0.3
		c0-0.1,0.1-0.2,0.1-0.3v0c0.1-0.2,0.2-0.3,0.3-0.5c1.7-3,3.1-4.6-0.3-5.3c0,0-0.1,0-0.1,0v0c-0.1,0-0.3-0.1-0.5-0.1
		c-0.2,0-0.4-0.1-0.6-0.1c-5.1-0.6-8-2.8-2.7-5.3c5.3-2.5,4-5.5,1.3-6.4c-2.7-0.8-8.8,2.5-14.7,1.7
		C177.2,375.2,173.2,370,176.1,365.8z"/>
	<path id="XMLID_1372_" fill="#8A8274" d="M466.4,183.9c-0.7-0.6-1.4-1-2-1.4c-8.9-3.2-9.6,0.7-20.1,0.7c-2.9,0-5.3-0.2-7.5-0.5
		c-6-1.1-9.6-4-15.5-10.5c-8-8.9-13.9-1.7-18.7-9.4c-4.8-7.8-6.4-4.4-5.3-12.2c0.3-2.2,1.7-3.1,3.6-3.4c1.8-0.2,3.6,0.1,5.9,1.5
		c3.5,2.1,7.2,0,6.9-2.4c-0.3-2.4,0-3.5,5.3-2.1c5.3,1.3,5.2-5.3-1.1-5.3c-8.7-0.1-3.9-4.4-8-6.6c-2.4-1.2-10.1-3.9-18.5,5.1
		c-3.1,3.5-5.7,4.4-7.8,4.3c-1.1,1.1-2.9,2-4.7,2.6c-5,1.6-3.2,7.6,3.6,8.2c6.8,0.6,7.4,7.4,2.4,9.2c-5,1.8-3,5,1.6,7.6
		c1.9,1.1,2.1,1.8,1.4,2.5c-0.4,0.2-0.8,0.3-1.2,0.5c-4.6,1.4-5.2,2.6-10.8,2c-5.6-0.6-12.7,3.5-10.4,4.8c0,0,0,0,0,0
		c2.4,1.2,1.4,3.2-1.8,3.8c-3.2,0.6-2.8,5.2,4.6,3.4c4.3-1,7.1-2.3,9.2-2.9c1-0.2,2-0.2,3,0c0.3,0.1,0.5,0.3,0.8,0.5
		c2.4,2,2.8,4.4,8.4,2.8c0.7-0.2,1.5-0.3,2.2-0.4c2.6,0.5,4.9,1.4,5.9,3.7c2.4,5.3-4,7.4-8.9,5.2c-2.6-1.2-8.2-0.5-12.6,1.5
		c-0.4,0.2-0.7,0.3-1.1,0.5c3.7,0.6,7,2.4,7,5.3c-0.1,3.9,3.9,4.6,9.7,2.9c2-0.6,3-0.2,3.7,0.4c0.5,0.7,0.8,1.7,0.8,2.8
		c0,2.3,0.8,3.6,4.7,3.3c3.9-0.3,5.5-2.9,6.1-4.7c0.7-1.7-2.4-2.5-3.7-4c-0.1-0.1-0.2-0.3-0.4-0.5c-0.2-0.9,0.4-1.8,1.9-2.8
		c3.5-2.4,5-2.4,5.3-0.6c0.3,1.7,3,2.5,4.4,0.3c1.4-2.1,2.5-3,5.5-3c3,0.1,3.7,1.2,4,3.7c0.2,2.2,3.2,2.7,3.7,5.2
		c0.2,0.4,0.3,0.7,0.3,1.1c0.1,0.6,0,1.1,0,1.6c-0.1,0.3-0.2,0.6-0.3,0.8c0,0.1,0,0.3-0.1,0.4c-0.5,1.4-0.9,2.7-1.9,3.2c0,0,0,0,0,0
		c0,0-0.1,0-0.1,0c-0.5,0.1-1,0.1-1.7,0c-0.1,0-0.1,0-0.2,0c-0.1,0-0.2-0.1-0.3-0.1c-3.4-1.1-4.5-0.1-6.4,0.3
		c-1.9,0.4-2.6,1.3-2.7,2.6c-0.1,1.3-1,4.5-2.4,4c-1.4-0.5-4.6-1.6-6.4-1.1c-1.8,0.5-2.5,2.3-4.2,1.7c-1.6-0.5-3.9-0.5-3.8,1.4
		c-0.1,1.5,1.5,3.6,5.1,4.3c0.5,0,1.1,0,1.7,0c5.4,0,5.5-3,15.8-6.4c5.8-1.9,10.8-0.8,14.1,1.3l0,0.2l1,0.5c0.5,0.4,0.9,0.7,1.3,1.1
		c1.2,1.2,2,2.5,2.3,3.6c0.4,1.5-0.7,2.2-2.3,2.4c-2.7,0.3-7-0.7-9.5-1.6c-4.1-1.4-5.2,0.5-5.1,1.8c0.1,1.4,3.4,0.7,5.5,3.1
		c2.1,2.4-2.5,3.3-5,5.4c-2.5,2.1-7.8,1.5-12,1.2c-4.2-0.3-5.2,4.1-1.6,5c3.6,1,5.3,2.9,3.2,5.3c-2.1,2.4-7.5-1.7-15.2-4
		c-3.9-1.2-6.7-1.9-12.3-2.1c-2.8-0.1-6.2-1.1-8.9-2.5c0-0.1-0.1-0.1-0.1-0.2c-3.7-4.8-1.9-5.1,5.3-8c0.4-0.2,0.8-0.4,1.2-0.5
		c5.3-2.8-0.6-6-8.6-4.5c-8.5,1.6-0.6-5.8-9.9-5c-2.8,0.2-7.4-4.3-7.9-8.1c0-0.3-0.1-0.5-0.2-0.7c-0.4-1.7-1.2-3-4.1-3.4
		c-4.1-0.7-4.9-4.9-3.2-6.4c0.6-0.5,0.9-1,1.1-1.5c0.4-0.7,0.6-1.6,0.6-2.6c-3.4,1.3-7.4,0.6-10.2-0.4c-2.6-0.9-5.4-0.5-6.2,0.8
		c-1.2,1-1.1,1.6,0.2,2.5c1.2,0.8,1.6,2.9-0.2,4c-0.7,0.3-1.6,0.6-2.4,0.8c-0.5,0.2-1.5,0.3-2.8,0.5c-0.7-0.1-1.4-0.3-2.2-0.7
		c-2.8-1.4-14.2-1.1-14.6,2.2c-0.1,0.8-0.2,1.6-0.3,2.3c-0.2,2.2,0,3.9,2.1,4.2c2.7,0.3,5.6,1.7,7.8-0.5c0.2-0.2,0.3-0.3,0.5-0.5
		c0.1-0.1,0.3-0.2,0.4-0.2c0.2-0.2,0.4-0.4,0.6-0.6c2.6-2.5,5.6-3.8,7.8-1.9c2.2,1.9,5,5.1,7.1,4.5c2.1-0.6,6-1.7,7.2,0.5
		c1.2,2.2,0.3,4.8-2.4,4.3c-2.7-0.5-4.1,0.6-5.7,2.3c-1.6,1.7-3.9-1.2-4.9-3.5c-1-2.3-5.8-2.5-7.4-0.9c-1.6,1.6-1.3,6.4,1.5,7.1
		c2.8,0.7,1.9,1.4,1.9,3.5c0,1,0.7,2.5,1.8,3.8c0.6,0.5,1.2,1,1.8,1.3c0.8,0.5,1.5,0.7,2.1,0.6c0.1,0,0.1,0,0.2,0
		c0.5-0.2,0.7-0.2,0.7-0.2c2.5-1,4.1-5.5,7.8-4.6c0.4-0.2,1-0.3,1.6-0.5c4-1,5.4,0,8.2,2c2.8,2,9.6-0.6,7.2,2.8
		c-2.4,3.4-11.6,4-10.2,8c1.4,4-1.4,9-4.8,6.4c-3.4-2.6-4.6-2.4-10-1.2c-0.2,0.1-0.4,0.1-0.6,0.1c-0.1,0.1-0.3,0.1-0.4,0.2
		c-5.3,2.5-1.6,3.9-0.3,5.5c1.3,1.7-0.5,4.2-5.1,1.9c-4.5-2.2-8-0.6-10.9,3.3c-2.9,3.9-2.1,7.8,3.2,8.6c5.3,0.8,11.7,1.7,17.9,4.2
		c6.1,2.5,6.7,10.8,5.1,14.1c-1.6,3.3-5.1,1.4-10.7-6.6c-3.3-4.7-7.6-5.1-12-5c-4,1.7-6.3,4-8.5,6.6c2.1-0.1,4.2-0.3,6.4-0.5
		c8.5-0.6,14.4,0.3,13.1,3c-1.2,2.6-8.3,5.9-14.2,5.6c-3.8-1.4-6.9-1.9-7.7-0.3c-0.8,1.7-3.8,4.4-10.4,0.4c-6.6-3.9-13,1-16.6,3.3
		c-3.6,2.3,1.2,6.6,6.6,5.6c5-1,10.3-0.7,12.8,1.7c0.2,0.2,0.4,0.4,0.6,0.6c2.2,2.9,6.2,6.9,11.6,2.9c4.8-3.5,9.8,1.6,9.4,2.5
		c-0.3,0-0.6,0.1-0.9,0.2c-0.7,0.2-1.4,0.7-2,1.5c-1.3,1.6-2.5,4.4-3.7,9.2c-2.9,11.4,9.6,10.5,13.9,5c3.4-4.5,10-3.9,12.4,3.5
		c0.6,1.8,0.9,3.9,0.9,6.5c0,0.3,0,0.5,0,0.7c0,0.2,0,0.3,0.1,0.5c0,0.1,0,0.1,0,0.2c0,0.2,0.1,0.3,0.1,0.5c0,0,0,0,0,0
		c0,0.2,0.1,0.3,0.1,0.5c0,0,0,0,0,0c0,0,0,0.1,0.1,0.1h0.1h0c0,0,0,0.1,0,0.1c1.5,2.8,5.8,0.7,9.7,2.9c1.9,1.1,3.5,0.6,5-0.3
		c-0.1-0.1-0.2-0.3-0.3-0.4c-0.1-0.1-0.1-0.2-0.2-0.4c0,0,0-0.1,0-0.1c0-0.1,0-0.1,0-0.2c0-0.1,0-0.1,0-0.2c0-0.1,0-0.1,0-0.2
		c0-0.1,0.1-0.1,0.1-0.2c0,0,0-0.1,0.1-0.1c0-0.1,0.1-0.1,0.2-0.2c0,0,0-0.1,0.1-0.1c0.1-0.1,0.1-0.1,0.2-0.2c0,0,0,0,0.1-0.1
		c0.1-0.1,0.2-0.1,0.3-0.2c0,0,0,0,0,0c0.1-0.1,0.3-0.2,0.4-0.2h0.3c0.1-0.1,0.3-0.1,0.4-0.1c0.2-0.1,0.4-0.1,0.6-0.2c0,0,0,0,0.1,0
		c0.2,0,0.4-0.1,0.6-0.1c0.1,0,0.2,0,0.3,0c0.1,0,0.3,0,0.4-0.1c0.2,0,0.5,0,0.7,0c2.6,0,5-0.4,6.6-5.2c1.6-4.8,6-4.2,10.2-3.3
		c4.2,0.8,9-0.6,9.4-3.1c0.4-2.5-5-4.6-9.2-6.2c-4.2-1.7,0-5.6-4.6-7.9c-4.6-2.3-4-3.5-2.5-6.2c1.5-2.6,10.5,1,12.9-1.1
		c2.4-2.1,8.6-1.7,12.4,0.6c3.8,2.3,8.6,1,15-1.2c6.4-2.3,12.8,2.5,19,4.6c1.3,0.4,2.7,0.6,4.2,0.6c5.9-0.1,12.5-3.3,11.2-6.6
		c-1.1-2.8-6-2.3-11.2-2.1c-2.5,0.1-5.2,0.1-7.4-0.4c-6.8-1.5-13.8-10.6-21.6-15.4c-7.8-4.8-14.8-0.6-19.6-3.1
		c-4.6-2.4-9.5-3.2-13.3-3.9c-0.2,0-0.3-0.1-0.5-0.1c-3.8-0.6,0.4-2.9,3.8-4.8c0.8-0.4,2.2-0.6,3.9-0.6c0.7,0,1.4,0.1,2,0.2
		c2.5,0.5,12.1,1.5,14.9-0.3c0.3-0.1,0.6-0.2,0.8-0.4c3.4-2.3,6.8-2.3,11.6-0.4c4.8,1.9,12-2.3,17.4-5c2.5-1.2,5.4-0.8,8,0.2
		c3.1,1.1,5.8,2.7,7.2,3c2.6,0.4,6.2-4.2,9.2-7.1c3-2.9,8.6-1.2,10.8-1.2c2.2,0,10.2-3.5,8-7.1c-2.2-3.5-14.2-4.8-22.2-5
		c-8-0.2-12.4-3.3-9.3-9.3c0.4-2.4,2.5-3.1,4.7-3.6c1.2-0.4,2.5-0.8,3.8-1c0.8-0.3,1.3-0.8,1.6-1.4c0.4,0.4,0.7,0.6,0.8,0.7
		c0,0,0.1-0.1,0.3-0.2l4.4,2.4c0,0,16.8,2.6,23.9-1.2v-11.6c-0.3-0.2-0.5-0.3-0.8-0.4c0.2-0.3,0.5-0.6,0.8-0.8v-32.6
		C475.4,188.2,473.4,189.3,466.4,183.9z M472.6,220.2c-0.8,2.1-1.2,4.9-6.9,4.9c-3.4,0-4.6-1.5-5.8-3.3c-1.2-1.8-3.1-1.6-5.7-0.3
		c-0.1,0-0.2,0.1-0.2,0.1c-0.3,0-0.5,0.1-0.8,0.1c-0.8,0-1.7-0.3-2.7-0.8c-0.2-0.4-0.4-0.9-0.2-1.6c0.1-0.4,3.1-2.1,0.5-5.6
		c-1.2-1.6-2.8-0.7-4.9-1.4c-2.1-0.7-2,2.3-4.8,1.7c-2.8-0.6-2.6-3.9-4.2-5.6c-0.4-0.4-0.8-0.7-1.1-0.9c-1-0.1-2.2-0.2-3.5-1.9
		c-2.8-3.4-0.8-7.8,6.6-3.8c7.4,4,1.8-2.2,10-1.8c8.2,0.4,9.6,5.8,14.4,10.6c4.8,4.8,8.8-2,10.8,3.2
		C475.3,217.4,474.1,218.7,472.6,220.2z"/>
	<path id="XMLID_1373_" fill="#8A8274" d="M471.3,454.1c-1.5-2.1-4.4-3.1-7-3.4c-0.5,0-0.9-0.1-1.4-0.1c-2.8,0-4.8,0.8-3.3,2.1
		c2.9,2.7-4,2.1-7.5,0c-3.3-2-13.8-2.6-17.8-2.7c-0.6,0.1-1.2,0.1-1.8,0.2c-10.2,1.2-11.6,3.7-9.9,6.5h0c1.4,2.2,4.6,4.6,7.2,6.8
		c1.2,1,3.7,2.1,6.9,3.2c12.3,4.1,35.6,7.5,43.2,4v-18.5C478.1,454.8,473.8,457.5,471.3,454.1z"/>
	<path id="XMLID_1374_" fill="#8A8274" d="M433.5,396.7c-2.3-1.1-6.3,1.3-10.7,2.3c-4.4,0.9-5.2-4-5.3-5.9c-0.1-1.9-3.1-3.7-8.4-4.3
		c-2.4-0.2-3.4-0.3-4-0.1c-1.3,0.2-2.4,0.8-3.3,1.4c-2,1.4-2.8-2.2-6.8-1c-0.2,0.1-0.4,0.1-0.7,0.2c-1.8,1-1.4,2.5-0.5,3.1
		c3.4,2.2,4.6,3.9,5.5,5.1c1.2,1.6,1.9,2.2,6.6,1.8c3.2-0.3,5.7,0.4,7.4,1.6c-1.3,1.4-3.9,2.7-7.2,2.8c-6.1,0.3-7.5,2.1-6.4,5.1
		c1.1,2.9,3.7,9.9-2.4,7.5c-6.1-2.4-10.7-2.7-12-0.3c-1.3,2.4-4.3,2.9-8,0.5c-3-2-6.2-0.9-7.3,3.5c0,0.2-0.1,0.4-0.1,0.6
		c0,0,0,0.1,0,0.1c1.6,0.3,3.1,0.8,4.7,1.4c5.6,2-0.2,7.9,0.2,12.6c0.2,0.8,0.5,1.5,0.9,2.3c4.4,5.9,6.9-5.9,14.4,2.9
		c0.1,0.2,0.3,0.3,0.4,0.4c2,2.2,4.4,3.7,6.9,4.7c7.2,2.7,15.4,1.1,18.5-2.9c1.3-1.7,2.3-3.5,3.3-5.3c-0.3,0-0.6-0.5-1-1.7
		c-2.1-6.1-5.7-5.7-16.9-6.9c-7.8-0.8-10.9-1.5-11-3.3c0-0.7,0.5-1.7,1.4-2.8c1.9-2.4,7.5-4.1,12.8-4c3.4,0.1,6.8,0.9,9.1,2.9
		c5.9,5,16,3.9,16.5-2.2c0.5-5.3-2.7-11.9,1.4-16.5c1-0.6,2.1-1.1,3-1.7c0,0,0,0,0.1,0C437.3,398.7,435.7,397.7,433.5,396.7z"/>
	<path id="XMLID_1377_" fill="#8A8274" d="M466.4,515.3c-0.7-0.6-1.4-1-2-1.4c-8.9-3.2-9.6,0.7-20.1,0.7c-2.9,0-5.3-0.2-7.5-0.5
		c-6-1.1-9.6-4-15.5-10.5c-8-8.9-13.9-1.7-18.7-9.4c-4.8-7.8-6.4-4.4-5.3-12.2c0.3-2.2,1.7-3.1,3.6-3.4c1.8-0.2,3.6,0.1,5.9,1.5
		c3.5,2.1,7.2,0,6.9-2.4c-0.3-2.4,0-3.5,5.3-2.1c5.3,1.3,5.2-5.3-1.1-5.3c-8.7-0.1-3.9-4.4-8-6.6c-2.4-1.2-10.1-3.9-18.5,5.1
		c-3.1,3.5-5.7,4.4-7.8,4.3c-1.1,1.1-2.9,2-4.7,2.6c-5,1.6-3.2,7.6,3.6,8.2c6.8,0.6,7.4,7.4,2.4,9.2c-5,1.8-3,5,1.6,7.6
		c1.9,1.1,2.1,1.8,1.4,2.5c-0.4,0.2-0.8,0.3-1.2,0.5c-4.6,1.4-5.2,2.6-10.8,2c-5.6-0.6-12.7,3.5-10.4,4.8c0,0,0,0,0,0
		c2.4,1.2,1.4,3.2-1.8,3.8c-3.2,0.6-2.8,5.2,4.6,3.4c4.3-1,7.1-2.3,9.2-2.9c1-0.2,2-0.2,3,0c0.3,0.1,0.5,0.3,0.8,0.5
		c2.4,2,2.8,4.4,8.4,2.8c0.7-0.2,1.5-0.3,2.2-0.4c2.6,0.5,4.9,1.4,5.9,3.7c2.4,5.3-4,7.4-8.9,5.2c-2.6-1.2-8.2-0.5-12.6,1.5
		c-0.4,0.2-0.7,0.3-1.1,0.5c3.7,0.6,7,2.4,7,5.3c-0.1,3.9,3.9,4.6,9.7,2.9c2-0.6,3-0.2,3.7,0.4c0.5,0.7,0.8,1.7,0.8,2.8
		c0,2.3,0.8,3.6,4.7,3.3c3.9-0.3,5.5-2.9,6.1-4.7c0.7-1.7-2.4-2.5-3.7-4c-0.1-0.1-0.2-0.3-0.4-0.5c-0.2-0.9,0.4-1.8,1.9-2.8
		c3.5-2.4,5-2.4,5.3-0.6c0.3,1.7,3,2.5,4.4,0.3c1.4-2.1,2.5-3,5.5-3c3,0.1,3.7,1.2,4,3.7c0.2,2.2,3.2,2.7,3.7,5.2
		c0.2,0.4,0.3,0.7,0.3,1.1c0.1,0.6,0,1.1,0,1.6c-0.1,0.3-0.2,0.6-0.3,0.8c0,0.1,0,0.3-0.1,0.4c-0.5,1.4-0.9,2.7-1.9,3.2c0,0,0,0,0,0
		c0,0-0.1,0-0.1,0c-0.5,0.1-1,0.1-1.7,0c-0.1,0-0.1,0-0.2,0c-0.1,0-0.2-0.1-0.3-0.1c-3.4-1.1-4.5-0.1-6.4,0.3
		c-1.9,0.4-2.6,1.3-2.7,2.6c-0.1,1.3-1,4.5-2.4,4c-1.4-0.5-4.6-1.6-6.4-1.1c-1.8,0.5-2.5,2.3-4.2,1.7c-1.6-0.5-3.9-0.5-3.8,1.4
		c-0.1,1.5,1.5,3.6,5.1,4.3c0.5,0,1.1,0,1.7,0c5.4,0,5.5-3,15.8-6.4c5.8-1.9,10.8-0.8,14.1,1.3l0,0.2l1,0.5c0.5,0.4,0.9,0.7,1.3,1.1
		c1.2,1.2,2,2.5,2.3,3.6c0.4,1.5-0.7,2.2-2.3,2.4c-2.7,0.3-7-0.7-9.5-1.6c-4.1-1.4-5.2,0.5-5.1,1.8c0.1,1.4,3.4,0.7,5.5,3.1
		c2.1,2.4-2.5,3.3-5,5.4c-2.5,2.1-7.8,1.5-12,1.2c-4.2-0.3-5.2,4.1-1.6,5c3.6,1,5.3,2.9,3.2,5.3c-2.1,2.4-7.5-1.7-15.2-4
		c-3.9-1.2-6.7-1.9-12.3-2.1c-2.8-0.1-6.2-1.1-8.9-2.5c0-0.1-0.1-0.1-0.1-0.2c-3.7-4.8-1.9-5.1,5.3-8c0.4-0.2,0.8-0.4,1.2-0.5
		c5.3-2.8-0.6-6-8.6-4.5c-8.5,1.6-0.6-5.8-9.9-5c-2.8,0.2-7.4-4.3-7.9-8.1c0-0.3-0.1-0.5-0.2-0.7c-0.4-1.7-1.2-3-4.1-3.4
		c-4.1-0.7-4.9-4.9-3.2-6.4c0.6-0.5,0.9-1,1.1-1.5c0.4-0.7,0.6-1.6,0.6-2.6c-3.4,1.3-7.4,0.6-10.2-0.4c-2.6-0.9-5.4-0.5-6.2,0.8
		c-1.2,1-1.1,1.6,0.2,2.5c1.2,0.8,1.6,2.9-0.2,4c-0.7,0.3-1.6,0.6-2.4,0.8c-0.5,0.2-1.5,0.3-2.8,0.5c-0.7-0.1-1.4-0.3-2.2-0.7
		c-2.8-1.4-14.2-1.1-14.6,2.2c-0.1,0.8-0.2,1.6-0.3,2.3c-0.2,2.2,0,3.9,2.1,4.2c2.7,0.3,5.6,1.7,7.8-0.5c0.2-0.2,0.3-0.3,0.5-0.5
		c0.1-0.1,0.3-0.2,0.4-0.2c0.2-0.2,0.4-0.4,0.6-0.6c2.6-2.5,5.6-3.8,7.8-1.9c2.2,1.9,5,5.1,7.1,4.5c2.1-0.6,6-1.7,7.2,0.5
		c1.2,2.2,0.3,4.8-2.4,4.3c-2.7-0.5-4.1,0.6-5.7,2.3c-1.6,1.7-3.9-1.2-4.9-3.5c-1-2.3-5.8-2.5-7.4-0.9c-1.6,1.6-1.3,6.4,1.5,7.1
		c2.8,0.7,1.9,1.4,1.9,3.5c0,1,0.7,2.5,1.8,3.8c0.6,0.5,1.2,1,1.8,1.3c0.8,0.5,1.5,0.7,2.1,0.6c0.1,0,0.1,0,0.2,0
		c0.5-0.2,0.7-0.2,0.7-0.2c2.5-1,4.1-5.5,7.8-4.6c0.4-0.2,1-0.3,1.6-0.5c4-1,5.4,0,8.2,2c2.8,2,9.6-0.6,7.2,2.8
		c-2.4,3.4-11.6,4-10.2,8c1.4,4-1.4,9-4.8,6.4c-3.4-2.6-4.6-2.4-10-1.2c-0.2,0.1-0.4,0.1-0.6,0.1c-0.1,0.1-0.3,0.1-0.4,0.2
		c-5.3,2.5-1.6,3.9-0.3,5.5c1.3,1.7-0.5,4.2-5.1,1.9c-4.5-2.2-8-0.6-10.9,3.3c-2.9,3.9-2.1,7.8,3.2,8.6c5.3,0.8,11.7,1.7,17.9,4.2
		c6.1,2.5,6.7,10.8,5.1,14.1c-1.6,3.3-5.1,1.4-10.7-6.6c-3.3-4.7-7.6-5.1-12-5c-4,1.7-6.3,4-8.5,6.6c2.1-0.1,4.2-0.3,6.4-0.5
		c8.5-0.6,14.4,0.3,13.1,3c-1.2,2.6-8.3,5.9-14.2,5.6c-3.8-1.4-6.9-1.9-7.7-0.3c-0.8,1.7-3.8,4.4-10.4,0.4c-6.6-3.9-13,1-16.6,3.3
		c-3.6,2.3,1.2,6.6,6.6,5.6c5-1,10.3-0.7,12.8,1.7c0.2,0.2,0.4,0.4,0.6,0.6c2.2,2.9,6.2,6.9,11.6,2.9c4.8-3.5,9.8,1.6,9.4,2.5
		c-0.3,0-0.6,0.1-0.9,0.2c-0.7,0.2-1.4,0.7-2,1.5c-1.3,1.6-2.5,4.4-3.7,9.2c-2.9,11.4,9.6,10.5,13.9,5c3.4-4.5,10-3.9,12.4,3.5
		c0.6,1.8,0.9,3.9,0.9,6.5c0,0.3,0,0.5,0,0.8c0,0.2,0,0.4,0.1,0.6c0,0,0,0,0,0c0.1,0.4,0.2,0.7,0.3,1c0,0,0,0,0,0c0,0,0,0,0,0h0
		c0,0.1,0.1,0.2,0.1,0.2c1.5,2.8,5.8,0.7,9.7,2.9c1.9,1.1,3.5,0.6,5-0.3c-0.1-0.1-0.2-0.3-0.3-0.4c-0.1-0.1-0.2-0.2-0.2-0.4
		c0-0.1,0-0.1,0-0.2c0-0.1,0-0.1,0-0.2c0-0.1,0-0.2,0-0.2c0,0,0-0.1,0-0.1c0-0.1,0.1-0.2,0.1-0.3c0,0,0,0,0-0.1
		c0.1-0.1,0.1-0.2,0.2-0.3c0,0,0,0,0,0c0.1-0.1,0.2-0.2,0.3-0.3c0,0,0,0,0,0c0.3-0.2,0.6-0.3,0.9-0.5c0,0,0,0,0,0h0h0c0,0,0,0,0,0
		c0.5-0.2,1-0.3,1.5-0.4c0,0,0,0,0.1,0c0.2,0,0.5-0.1,0.7-0.1c0.3,0,0.5,0,0.8,0c2.6,0,5-0.4,6.6-5.2c1.6-4.8,6-4.2,10.2-3.3
		c4.2,0.8,9-0.6,9.4-3.1c0.4-2.5-5-4.6-9.2-6.2c-4.2-1.7,0-5.6-4.6-7.9c-4.6-2.3-4-3.5-2.5-6.2c1.5-2.6,10.5,1,12.9-1.1
		c2.4-2.1,8.6-1.7,12.4,0.6c3.8,2.3,8.6,1,15-1.2c6.4-2.3,12.8,2.5,19,4.6c1.3,0.4,2.7,0.6,4.2,0.6c5.9-0.1,12.5-3.3,11.2-6.6
		c-1.1-2.8-6-2.3-11.2-2.1c-2.5,0.1-5.2,0.1-7.4-0.4c-6.8-1.5-13.8-10.6-21.6-15.4c-7.8-4.8-14.8-0.6-19.6-3.1
		c-4.6-2.4-9.5-3.2-13.3-3.9c-0.2,0-0.3-0.1-0.5-0.1c-3.8-0.6,0.4-2.9,3.8-4.8c0.8-0.4,2.2-0.6,3.9-0.6c0.7,0,1.4,0.1,2,0.2
		c2.5,0.5,12.1,1.5,14.9-0.3c0.3-0.1,0.6-0.2,0.8-0.4c3.4-2.3,6.8-2.3,11.6-0.4c4.8,1.9,12-2.3,17.4-5c2.5-1.2,5.4-0.8,8,0.2
		c3.1,1.1,5.8,2.7,7.2,3c2.6,0.4,6.2-4.2,9.2-7.1c3-2.9,8.6-1.2,10.8-1.2c2.2,0,10.2-3.5,8-7.1c-2.2-3.5-14.2-4.8-22.2-5
		c-8-0.2-12.4-3.3-9.3-9.3c0.4-2.4,2.5-3.1,4.7-3.6c1.2-0.4,2.5-0.8,3.8-1c0.8-0.3,1.3-0.8,1.6-1.4c0.4,0.4,0.7,0.6,0.8,0.7
		c0,0,0.1-0.1,0.3-0.2l4.4,2.4c0,0,16.8,2.6,23.9-1.2v-11.6c-0.3-0.2-0.5-0.3-0.8-0.4c0.2-0.3,0.5-0.6,0.8-0.8V517
		C475.4,519.6,473.4,520.7,466.4,515.3z M472.6,551.6c-0.8,2.1-1.2,4.9-6.9,4.9c-3.4,0-4.6-1.5-5.8-3.3c-1.2-1.8-3.1-1.6-5.7-0.3
		c-0.1,0-0.2,0.1-0.2,0.1c-0.3,0-0.5,0.1-0.8,0.1c-0.8,0-1.7-0.3-2.7-0.8c-0.2-0.4-0.4-0.9-0.2-1.6c0.1-0.4,3.1-2.1,0.5-5.6
		c-1.2-1.6-2.8-0.7-4.9-1.4c-2.1-0.7-2,2.3-4.8,1.7c-2.8-0.6-2.6-3.9-4.2-5.6c-0.4-0.4-0.8-0.7-1.1-0.9c-1-0.1-2.2-0.2-3.5-1.9
		c-2.8-3.4-0.8-7.8,6.6-3.8c7.4,4,1.8-2.2,10-1.8c8.2,0.4,9.6,5.8,14.4,10.6c4.8,4.8,8.8-2,10.8,3.2
		C475.3,548.8,474.1,550.1,472.6,551.6z"/>
	<path id="XMLID_1378_" fill="#8A8274" d="M469.1,352.6c3.8-0.2,0.3,4.5,1.1,6.9c0.8,2.5,0.6,4.4-4,6.4c-4.6,2.1-14.4,2.9-22,2.9
		c-2.2,0-4.7-0.2-7.4-0.5c-6.6-0.8-13.9-2.6-18-4.7c-5.8-2.9-7.6-3.1-7.8-5.8c-0.1-1.5-0.6-2.5-1.2-3.9c-2.6,0.3-5.7-0.3-7.6,1.5
		c-2.9,2.8-10,3.7-18.9,0.3c-5.1-1.9-8,2.8-16.3,6.4c-3.5,1.5-5.8,2.3-7.5,2.3c0,0.9,0,1.8,0,2.9c1,1.8,4.2,1.3,8.7,3.3
		c6,2.6,11.9,11.8,16.6,11.1c0.6-0.2,1.2-0.5,1.8-0.7c1.9-0.9,3.9-2,6.2-2.6c3-1.2,5.7-1.9,7.3-1c3,1.8,4.6,4.2,13.8,2.2
		c9.2-2,16.5-0.7,15.7,3.1c-0.9,4.1-7.5,3.1-6.9,5.9c0.6,2.8,2,5.3,8.6,4.3c6.6-1,11.9-2.6,14,1.3c1.7,3,1.7,4.9,0.7,5.9
		c1.2,0.9,2.4,1.4,4.5,0.7c3.8-1.2,6.6-2,9,0.4c2.4,2.4,1.4,3.8,5.8,4c4.1,0.2,8.5-4.1,14.8-5.4v-47.4
		C474.4,352.1,470.9,352.1,469.1,352.6z"/>
	<path id="XMLID_1379_" fill="#8A8274" d="M269,674.9c-17.1,0.6-44.5-10.5-56.3-6.1c-3.7,1.4-7.1,2.5-10.2,3.3
		c-0.8,0.2-1.6,0.4-2.3,0.6v0c-13.4,3-21.5,1.3-24.8,1.6c0,0,0,0,0,0c-0.1,0-0.2,0-0.3,0c0,0-0.1,0-0.1,0c-0.1,0-0.2,0-0.2,0.1
		c0,0-0.1,0-0.1,0c-0.1,0-0.1,0-0.2,0.1c0,0-0.1,0-0.1,0c-0.1,0-0.1,0.1-0.1,0.1c0,0-0.1,0-0.1,0.1c0,0-0.1,0.1-0.1,0.1
		c0,0-0.1,0-0.1,0.1c0,0,0,0,0,0.1h97.8c0.1,0,0.1-0.1,0.2-0.1C270.9,674.8,270,674.9,269,674.9z"/>
</g>
</svg>
