<?xml version="1.0" encoding="utf-8"?>
<!-- Generator: Adobe Illustrator 19.0.1, SVG Export Plug-In . SVG Version: 6.00 Build 0)  -->
<svg version="1.2" baseProfile="tiny" id="Layer_1" xmlns="http://www.w3.org/2000/svg" xmlns:xlink="http://www.w3.org/1999/xlink"
	 x="0px" y="0px" viewBox="0 0 480 670" xml:space="preserve">
<g id="XMLID_1_">
	<g id="XMLID_122_">
		<path id="XMLID_124_" fill="#8A8274" d="M356.4,7.8c-1,0-2-0.3-2.9-0.8c-1.5-0.9-3.1-1-4.7-1.1c-1.8-0.1-3.9-0.2-5.1-1.9h-0.2
			L343,3c-0.2-0.4-0.3-0.8-0.4-1.3l0-0.1c0-0.2-0.1-0.4-0.1-0.6c0-0.3,0-0.6,0-0.9c0-0.5,0-1.1-0.1-1.6l-0.1-1.6h29.4L370.7-1
			c-1.9,3.8-4.6,4.4-7.3,4.4c-0.2,0-0.4,0-0.6,0c-0.2,0-0.3,0-0.5,0.1l-0.1,0c-0.4,0.1-0.8,0.2-1.2,0.3l-0.1,0.1L360.6,4l-0.1,0
			c-0.1,0.1-0.2,0.1-0.3,0.2c0,0,0,0-0.1,0c0,0,1.3,1.4,1.3,1.4l-1.6,1C359.1,7.2,357.8,7.8,356.4,7.8L356.4,7.8z"/>
	</g>
	<g id="XMLID_118_">
		<path id="XMLID_120_" fill="#8A8274" d="M31.6,83.6c-0.7,0-1.5-0.2-2.3-0.5c-1.7-0.7-2.7-1-3.4-1c-0.4,0-0.8,0.1-1.3,0.2
			c-0.5,0.1-1.1,0.3-2,0.4c-0.4,0-0.7,0.1-1.1,0.1c-3.2,0-5.6-2-6-4.8c0-0.1,0-0.1,0-0.2c-0.1-0.4-0.2-0.7-0.3-1.1
			c-0.1-0.3-0.2-0.8-0.3-1c-4.6,0-6.2-1.5-7.6-2.7c-0.9-0.8-1.5-1.3-3-1.6c-0.1,0-0.2,0-0.3,0c-0.7,0-1.2,0.6-2.2,1.9
			c-0.6,0.8-1.2,1.7-2.1,2.4l-2.5,2.1V28.8l2.3,1.4c0.9,0.5,1.7,0.8,2.5,0.9l0.2,0l0.2,0.1c1.4,0.6,2.8,0.9,4.1,0.9
			c1.7,0,3.2-0.5,4.4-1.5l1.3-1.1l0.9,1.4c0.1,0.2,0.3,0.5,0.4,0.8c0,0.1,0.2,0.3,0.5,0.7l0.3,0.3l0.1,0.4c0.7,2.5-0.5,4.3-1.2,5.4
			c-0.1,0.1-0.2,0.2-0.2,0.4c1.3,0.7,2.3,1,3.2,1c0.5,0,0.9-0.1,1.3-0.2c0.5-0.1,0.9-0.2,1.5-0.2c1.6,0,3.1,0.9,5,3.1
			c0.2,0.3,0.5,0.5,0.7,0.8c0.9,1.1,1.3,2.2,1.2,3.3c-0.1,0.6-0.4,1.5-1.5,2.3c-1.6,1.1-3.9,1.3-5.6,1.3c-2.6,0-5.4-0.5-7.6-1.5
			c-0.7-0.3-1.2-0.4-1.7-0.4c-0.6,0-0.8,0.2-1,0.5c-0.4,0.7-0.4,2,0,3.1c0.3,0.3,0.6,0.5,0.9,0.7c1.8,1.1,4.3,2.7,2.3,5.8
			c-0.7,1.1-1.8,1.8-3,2.5l-0.1,0c-0.6,0.6-1.3,1.4-2.3,2.3c-0.2,0.2-0.3,0.3-0.4,0.5C6,64.1,6,64.3,5.9,64.4
			c0.1,0.1,0.3,0.3,0.7,0.5c0.5-0.1,1.2-0.2,2-0.5c2.3-0.8,3.7-2.3,4.9-3.5c1-1,1.8-1.9,3-1.9c0.8,0,1.5,0.4,2.1,1.2
			c0.8,1.1,2.2,2.2,3.7,2.2c0.8,0,1.6-0.3,2.4-0.9c1.8-1.5,4.6-2.4,7-2.4c3,0,4.9,1.4,5.1,3.7c0.1,0.9,0,1.7,0,2.4
			c-0.1,2.2-0.1,2.7,2,3.3c0.9,0.3,3.6,1,4,3.3c0.3,2.3-2.3,4.2-4.2,5.5c-1.4,0.9-2.2,2.1-2.9,3.2C34.8,82,33.8,83.6,31.6,83.6z"/>
	</g>
	<g id="XMLID_114_">
		<path id="XMLID_116_" fill="#8A8274" d="M25,7.8c-1,0-2-0.3-2.9-0.8c-1.5-0.9-3.1-1-4.7-1.1c-1.8-0.1-3.9-0.2-5.1-1.9H12l-0.4-0.9
			c-0.2-0.4-0.3-0.9-0.4-1.5l0-0.1c0-0.2-0.1-0.4-0.1-0.6c0-0.3,0-0.6,0-0.9c0-0.5,0-1.1-0.1-1.6l-0.1-1.6h29.4L39.3-1
			c-1.9,3.8-4.6,4.4-7.3,4.4c-0.2,0-0.4,0-0.6,0c-0.2,0-0.3,0-0.5,0.1l-0.1,0c-0.4,0.1-0.8,0.2-1.2,0.3l-0.1,0.1L29.3,4l-0.1,0
			c-0.1,0.1-0.2,0.1-0.3,0.2c0,0-0.1,0.1-0.1,0.1c0,0,1.3,1.4,1.3,1.4l-1.6,1C27.7,7.2,26.5,7.8,25,7.8C25,7.8,25,7.8,25,7.8z"/>
	</g>
	<g id="XMLID_110_">
		<path id="XMLID_112_" fill="#8A8274" d="M171.9,154.2c-3.4,0-7-0.1-9.7-0.1l-2,0l0.6-1.9c0.8-2.7,2.8-4.2,5.4-4.2
			c0.2,0,0.4,0,0.7,0c0.4,0,0.8,0.1,1.1,0.1c3.1,0,5.3-1.2,6.1-2.4c0.3-0.4,0.4-0.8,0.2-1.2c-0.7-1.2-8.9-5-17.6-5
			c-3,0-5.6,0.5-7.6,1.4c-2.3,1.1-5.9,1.6-10.6,1.6c-11,0-25.6-2.8-33.7-5.5c-3.6-1.2-6.1-2.4-7.4-3.5c-0.5-0.5-1.1-0.9-1.7-1.4
			c-2.3-1.9-4.6-3.8-5.8-5.7c-0.9-1.5-1.1-2.9-0.5-4.2c1.1-2.3,4.7-3.7,11.5-4.6c0.6-0.1,1.2-0.1,1.8-0.2l0.1,0l0.1,0
			c0.6,0,14.2,0.2,18.6,2.9c1.4,0.9,3.5,1.4,5,1.6c-0.5-0.8-0.3-1.5-0.2-1.9c0.7-1.8,3.4-2,5-2l0.2,0l1.5,0.1c1.8,0.2,5.9,1,8.1,4
			c0.5,0.7,1.1,1,1.8,1c2.3,0,4.9-3,5.2-4c-0.5-1.3-0.6-3.2,0.3-4.9c0.7-1.3,2.3-2.9,5.7-3.4c0.7-0.1,1.3-0.2,1.8-0.3l1-0.2l0.6,0.8
			c0.6,0.9,1.1,1.6,3.5,1.6c0.3,0,0.6,0,0.9,0c1.5-0.1,3.3-0.3,5.2-0.5c3.8-0.4,8.1-0.8,11.5-0.8c4,0,6,0.6,6.9,1.9
			c0.5,0.7,0.6,1.6,0.2,2.5c-0.1,0.4-0.3,0.8-0.1,1.1c0.5,0.8,3.3,1.2,5.1,1.4c1.9,0.2,3.7,0.5,4.9,1.1c0.3,0.2,0.7,0.4,1,0.5
			c1.2,0.7,2.3,1.3,3.6,1.5l0.1,0l0.4,0.1c0.1,0,0.2,0,0.3,0c0,0,0.5,0,0.6,0l0.1,0l0.4,0c0.1,0,0.3,0,0.4,0c0.1,0,0.5-0.1,0.5-0.1
			c0.1,0,0.2,0,0.4-0.1c0.1,0,0.2,0,0.3-0.1l0.4-0.1c0.1,0,0.2-0.1,0.3-0.1c0.1,0,0.2-0.1,0.4-0.1l0.4-0.2c0.1,0,0.2-0.1,0.3-0.1
			c0.2-0.1,0.4-0.2,0.6-0.3c0,0,0.5-0.2,0.6-0.3c0.4-0.2,0.8-0.4,1.3-0.7c2.5-1.5,4-2.1,5.1-2.1c1.8,0,2.4,1.4,2.8,2.4
			c0.4,0.9,0.8,1.8,1.9,2.5c0.5,0.3,0.9,0.5,1.1,0.5c0.2,0,0.5-0.1,0.9-0.3c0.8-0.4,1.8-0.8,3.4-0.8c2.1,0,4.6,0.8,8,2.5l0.6,0.3
			c0.7,0.4,1.8,0.7,3,0.9l0.9,0.1l0.3,0.9c1.3,3.6,3,5.8,4.5,5.8c0.2,0,0.5,0,0.7-0.1c1-0.4,2.3-0.6,4-0.6c3.4,0,9.3,0.9,10.6,3.4
			c0.6,1,0.5,2.3,0.4,3.4c-0.1,0.7-0.2,1.7,0.1,1.9c0.1,0.1,0.5,0.3,1.3,0.3c0.5,0,1,0,1.6-0.1l1.5-0.2l0.3,1.5c0,0,0,0.1,0,0.2
			l0.2,1.5l-1.5,0.2c-1.8,0.2-3.8,0.4-6.2,0.4c-3.7,0-8.1-0.3-13.5-0.9c-2.3-0.3-4.2-0.7-5.9-1.1c-2.1-0.5-3.9-0.9-6.1-0.9
			c-4,0-8.7,1.6-15.5,5.2c-1,0.5-2,1-3,1.5c-0.3,0.2-0.6,0.3-1,0.4l-0.9,0.4c-0.4,0.2-0.7,0.3-1.1,0.5c-0.5,0.2-1,0.4-1.5,0.6
			l-0.8,0.3c-0.2,0.1-0.5,0.2-0.7,0.3c-0.6,0.2-1.2,0.4-1.7,0.6l-0.2,0.1v0l-1.1,0.4C190.6,153.8,180.5,154.2,171.9,154.2
			C171.9,154.2,171.9,154.2,171.9,154.2z"/>
	</g>
	<g id="XMLID_102_">
		<path id="XMLID_105_" fill="#8A8274" d="M73.3,116.5c-2.7,0-5.5-0.5-8-1.5c-2.9-1.1-5.5-2.8-7.5-5.1l-0.1-0.1
			c-0.1-0.1-0.2-0.2-0.3-0.4c-1.6-1.9-3-2.8-4.3-2.8c-1,0-1.9,0.5-2.8,1.1c-1.1,0.6-2.1,1.2-3.4,1.2c-1.4,0-2.7-0.8-3.9-2.4
			l-0.1-0.1l-0.1-0.1c-0.4-0.8-0.7-1.6-0.9-2.5l0-0.1l0-0.1c-0.2-2.1,0.6-4.2,1.3-6.1c1.4-3.8,1.3-4.6-0.5-5.3c-1.5-0.6-3-1-4.5-1.3
			l-1.4-0.3l0.2-1.5l0-0.2l0-0.1c0-0.1,0.1-0.2,0.1-0.3l0-0.1l0-0.1c0.9-3.5,3.1-5.5,5.9-5.5c1.2,0,2.5,0.4,3.7,1.2
			c1.3,0.9,2.6,1.3,3.6,1.3c1,0,1.8-0.4,2.2-1.3c0.6-1.1,2-2.4,5.2-2.4c2.3,0,5.2,0.7,8.7,2c0.8,0.3,1.3,0.4,1.6,0.4
			c0.2,0,0.2,0,0.2,0c0.2-0.3,0.2-1.6-1.3-5.7l-0.1-0.2c-0.6-1.7-0.6-3.2,0.2-4.4c1.1-1.7,3.5-2.5,7.5-2.7c1.8-0.1,3.3-0.5,4.4-1.1
			c-0.9-0.3-1.9-0.4-3-0.4c-0.4,0-0.9,0-1.3,0.1c-1,0.1-1.8,0.1-2.6,0.1c-3.2,0-4.3-1.1-5.4-2.5l-0.2-0.2c-0.8-1.1-2-2.6-4.9-4.5
			c-0.9-0.6-1.5-1.6-1.4-2.7c0-0.7,0.3-2,2.1-3l0.2-0.1l0.2,0c0.2-0.1,0.4-0.1,0.6-0.2c0.7-0.2,1.4-0.3,2-0.3c1.7,0,2.8,0.7,3.6,1.2
			c0.2,0.1,0.6,0.3,0.7,0.4c0,0,0,0,0.1-0.1c1.2-0.9,2.5-1.4,3.8-1.6c0.4-0.1,0.8-0.2,1.5-0.2c0.7,0,1.6,0.1,3,0.2
			c5.8,0.6,9.5,2.7,9.7,5.7c0.1,1.1,0.5,4.6,2.8,4.6c0.2,0,0.5,0,0.7-0.1c1.5-0.3,2.9-0.8,4.3-1.3c2-0.7,3.7-1.3,5.3-1.3
			c0.7,0,1.4,0.1,2,0.4c1.5,0.7,3.3,1.5,3.4,3.3c0.1,1.5-1.3,2.6-2.3,3.2c-0.6,0.4-1.2,0.7-1.8,1c-0.4,0.2-0.8,0.4-1.2,0.6
			c-2.2,2.5-1.7,5.9-1.3,9.5c0.3,2,0.5,4,0.3,5.9c-0.4,4-4.1,6.7-9.3,6.7c-3.6,0-7.1-1.3-9.7-3.5c-1.8-1.5-4.7-2.4-8.1-2.5
			c-0.2,0-0.3,0-0.5,0c-5.2,0-9.7,1.7-11.1,3.4c-1.1,1.3-1.1,1.8-1.1,1.8c0.5,0.6,3.7,1.3,9.7,1.9c1.1,0.1,2.2,0.2,3.2,0.3
			c8.8,0.8,12.8,1.2,15,7.5c0.1,0.4,0.2,0.6,0.3,0.8l1.8,0.1l-1.5,2.7c-0.9,1.6-1.9,3.3-3.1,4.9C83.2,114.6,78.5,116.5,73.3,116.5
			C73.3,116.5,73.3,116.5,73.3,116.5z"/>
	</g>
	<g id="XMLID_94_">
		<path id="XMLID_96_" fill="#8A8274" d="M31.6,415c-0.7,0-1.5-0.2-2.3-0.5c-1.7-0.7-2.7-1-3.4-1c-0.4,0-0.8,0.1-1.3,0.2
			c-0.5,0.1-1.1,0.3-2,0.4c-0.4,0-0.7,0.1-1.1,0.1c-3.1,0-5.6-2-6-4.8c0-0.1,0-0.1,0-0.2c-0.1-0.4-0.2-0.7-0.3-1.1
			c-0.1-0.3-0.2-0.8-0.3-1c-4.6,0-6.2-1.5-7.6-2.7c-0.9-0.8-1.5-1.3-3-1.6c-0.1,0-0.2,0-0.3,0c-0.7,0-1.2,0.6-2.2,1.9
			c-0.6,0.8-1.2,1.7-2.1,2.4l-2.5,2.1v-48.9l2.3,1.4c0.9,0.5,1.7,0.8,2.5,0.9l0.2,0l0.2,0.1c1.4,0.6,2.8,0.9,4.1,0.9
			c1.7,0,3.2-0.5,4.4-1.5l1.3-1.1l0.9,1.4c0.1,0.2,0.3,0.5,0.4,0.8c0,0.1,0.2,0.3,0.5,0.7l0.3,0.3l0.1,0.4c0.7,2.5-0.5,4.3-1.2,5.4
			c-0.1,0.1-0.2,0.2-0.2,0.4c1.3,0.7,2.3,1,3.2,1c0.5,0,0.9-0.1,1.3-0.2c0.5-0.1,0.9-0.2,1.5-0.2c1.6,0,3.1,0.9,5,3.1
			c0.2,0.3,0.5,0.5,0.7,0.8c0.9,1.1,1.3,2.2,1.2,3.3c-0.1,0.6-0.4,1.5-1.5,2.3c-1.6,1.1-3.9,1.3-5.6,1.3c-2.6,0-5.4-0.5-7.6-1.5
			c-0.7-0.3-1.2-0.4-1.7-0.4c-0.6,0-0.8,0.2-1,0.5c-0.4,0.7-0.4,2,0,3.1c0.3,0.3,0.6,0.5,0.9,0.7c1.8,1.1,4.3,2.7,2.3,5.8
			c-0.7,1.1-1.8,1.8-3,2.5l-0.1,0c-0.6,0.6-1.3,1.4-2.3,2.3c-0.2,0.2-0.3,0.3-0.4,0.5c-0.1,0.2-0.1,0.4-0.1,0.6
			c0.1,0.1,0.3,0.3,0.7,0.5c0.5-0.1,1.2-0.2,2-0.5c2.3-0.8,3.7-2.3,4.9-3.5c1-1,1.8-1.9,3-1.9c0.8,0,1.5,0.4,2.1,1.2
			c0.8,1.1,2.2,2.2,3.7,2.2c0.8,0,1.6-0.3,2.4-0.9c1.8-1.5,4.6-2.4,7-2.4c3,0,4.9,1.4,5.1,3.7c0.1,0.9,0,1.7,0,2.4
			c-0.1,2.2-0.1,2.7,2,3.3c0.9,0.3,3.6,1,4,3.3c0.3,2.3-2.3,4.2-4.2,5.5c-1.4,0.9-2.2,2.1-2.9,3.2C34.8,413.4,33.8,415,31.6,415z"/>
	</g>
	<g id="XMLID_90_">
		<path id="XMLID_91_" fill="#8A8274" d="M171.8,485.5c-3.4,0-7-0.1-9.6-0.1l-2,0l0.6-1.9c0.8-2.7,2.8-4.2,5.4-4.2
			c0.2,0,0.4,0,0.7,0c0.4,0,0.8,0.1,1.1,0.1c3.1,0,5.3-1.2,6.1-2.4c0.3-0.4,0.4-0.8,0.2-1.2c-0.7-1.2-8.9-5-17.6-5
			c-3,0-5.6,0.5-7.6,1.4c-2.3,1.1-5.9,1.6-10.6,1.6c-11,0-25.6-2.8-33.7-5.5c-3.6-1.2-6.1-2.4-7.4-3.5c-0.5-0.5-1.1-0.9-1.7-1.4
			c-2.3-1.9-4.6-3.8-5.8-5.7c-0.9-1.5-1.1-2.9-0.5-4.2c1.1-2.3,4.7-3.7,11.5-4.6c0.6-0.1,1.2-0.1,1.8-0.2l0.1,0l0.1,0
			c0.6,0,14.2,0.2,18.6,2.9c1.4,0.9,3.5,1.4,5,1.6c-0.5-0.8-0.3-1.5-0.2-1.9c0.7-1.8,3.4-2,5-2l0.2,0l1.5,0.1c1.8,0.2,5.9,1,8.1,4
			c0.5,0.7,1.1,1,1.8,1c2.3,0,4.9-3,5.2-4c-0.5-1.3-0.6-3.2,0.3-4.9c0.7-1.3,2.3-2.9,5.7-3.4c0.7-0.1,1.3-0.2,1.8-0.3l1-0.2l0.6,0.8
			c0.6,0.9,1.1,1.6,3.5,1.6c0.3,0,0.6,0,0.9,0c1.5-0.1,3.3-0.3,5.2-0.5c3.8-0.4,8.1-0.8,11.5-0.8c4,0,6,0.6,6.9,1.9
			c0.5,0.7,0.6,1.6,0.2,2.5c-0.1,0.4-0.3,0.8-0.1,1.1c0.5,0.8,3.3,1.2,5.1,1.4c1.9,0.2,3.7,0.5,4.9,1.1c0.3,0.2,0.7,0.4,1,0.5
			c1.2,0.7,2.3,1.3,3.6,1.5l0.1,0l0.4,0.1c0.1,0,0.2,0,0.2,0l0.6,0l0.5,0c0.1,0,0.2,0,0.4,0c0.1,0,0.1,0,0.2,0l0.3-0.1
			c0.1,0,0.2,0,0.3-0.1c0.1,0,0.2-0.1,0.3-0.1l0.4-0.1c0.1,0,0.2-0.1,0.3-0.1c0.1,0,0.3-0.1,0.4-0.2l0.4-0.1c0.1,0,0.2-0.1,0.3-0.1
			c0.2-0.1,0.4-0.2,0.6-0.3l0.6-0.3c0.4-0.2,0.8-0.4,1.3-0.7c2.5-1.5,4-2.1,5.1-2.1c1.8,0,2.4,1.4,2.8,2.4c0.4,0.9,0.8,1.8,1.9,2.5
			c0.5,0.3,0.9,0.5,1.1,0.5c0.2,0,0.5-0.1,0.9-0.3c0.8-0.4,1.8-0.8,3.4-0.8c2.1,0,4.6,0.8,8,2.5l0.6,0.3c0.7,0.4,1.8,0.7,3,0.9
			l0.9,0.1l0.3,0.9c1.3,3.6,3,5.8,4.5,5.8c0.2,0,0.5,0,0.7-0.1c1-0.4,2.3-0.6,4-0.6c3.4,0,9.3,0.9,10.6,3.4c0.6,1,0.5,2.3,0.4,3.4
			c-0.1,0.7-0.2,1.7,0.1,1.9c0.1,0.1,0.5,0.3,1.3,0.3c0.5,0,1,0,1.6-0.1l1.5-0.2l0.3,1.5c0,0,0,0.1,0,0.2l0.2,1.5l-1.5,0.2
			c-1.8,0.2-3.9,0.4-6.2,0.4c-3.7,0-8.1-0.3-13.5-0.9c-2.3-0.3-4.2-0.7-5.9-1.1c-2.1-0.5-3.9-0.9-6.1-0.9c-4,0-8.7,1.6-15.5,5.2
			c-1,0.5-2,1-3,1.5c-0.3,0.2-0.7,0.3-1,0.5l-1,0.4c-0.3,0.2-0.7,0.3-1,0.5c-0.6,0.2-1.1,0.4-1.7,0.6l-0.7,0.3
			c-0.2,0.1-0.4,0.2-0.6,0.2c-0.6,0.2-1.3,0.4-1.9,0.6v0l-1.1,0.4l-0.3,0.1C190.5,485.1,180.4,485.5,171.8,485.5z"/>
	</g>
	<g id="XMLID_88_">
		<path id="XMLID_89_" fill="#8A8274" d="M73.3,447.8c-2.7,0-5.5-0.5-8-1.5c-2.9-1.1-5.5-2.8-7.5-5.1l-0.1-0.1
			c-0.1-0.1-0.2-0.2-0.3-0.4c-1.6-1.9-3-2.8-4.3-2.8c-1,0-1.9,0.5-2.8,1.1c-1.1,0.6-2.1,1.2-3.4,1.2c-1.4,0-2.7-0.8-3.9-2.4
			l-0.1-0.1l-0.1-0.1c-0.4-0.8-0.7-1.6-0.9-2.5l0-0.1l0-0.1c-0.2-2.1,0.6-4.2,1.3-6.1c1.4-3.8,1.3-4.6-0.5-5.3c-1.5-0.6-3-1-4.5-1.3
			l-1.4-0.3l0.2-1.5l0-0.2l0-0.1c0-0.1,0.1-0.2,0.1-0.3l0-0.1l0-0.1c0.9-3.5,3.1-5.5,5.9-5.5c1.2,0,2.5,0.4,3.7,1.2
			c1.3,0.9,2.6,1.3,3.6,1.3c1,0,1.8-0.4,2.2-1.3c0.6-1.1,2-2.4,5.2-2.4c2.3,0,5.2,0.7,8.7,2c0.8,0.3,1.3,0.4,1.6,0.4
			c0.2,0,0.2,0,0.2,0c0.2-0.3,0.2-1.6-1.3-5.7l-0.1-0.2c-0.6-1.7-0.6-3.2,0.2-4.4c1.1-1.7,3.5-2.5,7.5-2.7c1.8-0.1,3.3-0.5,4.4-1.1
			c-0.9-0.3-1.9-0.4-3-0.4c-0.4,0-0.9,0-1.3,0.1c-1,0.1-1.8,0.1-2.6,0.1c-3.2,0-4.3-1.1-5.4-2.5l-0.2-0.2c-0.8-1.1-2-2.6-4.9-4.5
			c-0.9-0.6-1.5-1.6-1.4-2.7c0-0.7,0.3-2,2.1-3l0.2-0.1l0.2,0c0.2-0.1,0.4-0.1,0.6-0.2c0.7-0.2,1.4-0.3,2-0.3c1.7,0,2.8,0.7,3.6,1.2
			c0.2,0.1,0.6,0.3,0.7,0.4c0,0,0,0,0.1-0.1c1.2-0.9,2.5-1.4,3.8-1.6c0.4-0.1,0.8-0.2,1.5-0.2c0.7,0,1.6,0.1,3,0.2
			c5.8,0.6,9.5,2.7,9.7,5.7c0.1,1.1,0.5,4.6,2.8,4.6c0.2,0,0.5,0,0.7-0.1c1.5-0.3,2.9-0.8,4.3-1.3c2-0.7,3.7-1.3,5.3-1.3
			c0.7,0,1.4,0.1,2,0.4c1.5,0.7,3.3,1.5,3.4,3.3c0.1,1.5-1.3,2.6-2.3,3.2c-0.6,0.4-1.2,0.7-1.8,1c-0.4,0.2-0.8,0.4-1.2,0.6
			c-2.2,2.5-1.7,5.9-1.3,9.5c0.3,2,0.5,4,0.3,5.9c-0.4,4-4.1,6.7-9.3,6.7c-3.6,0-7.1-1.3-9.7-3.5c-1.8-1.5-4.7-2.4-8.1-2.5
			c-0.2,0-0.3,0-0.5,0c-5.2,0-9.7,1.7-11.1,3.4c-1.1,1.3-1.1,1.8-1.1,1.8c0.5,0.6,3.7,1.3,9.7,1.8c1.1,0.1,2.2,0.2,3.2,0.3
			c8.8,0.8,12.8,1.2,15,7.5c0.1,0.4,0.2,0.6,0.3,0.8l1.8,0.1l-1.5,2.7c-0.9,1.6-1.9,3.3-3.1,4.9C83.2,446,78.5,447.8,73.3,447.8
			C73.3,447.8,73.3,447.8,73.3,447.8z"/>
	</g>
	<g id="XMLID_85_">
		<path id="XMLID_87_" fill="#8A8274" d="M284.7,254.5c-2.4,0-4.2-0.9-5.7-1.8l-2-1.2l1.9-1.4c3.1-2.3,5.9-4,8.1-5.3
			c2.2-1.2,4.1-3.5,5.7-5.5c2.2-2.7,4.2-5.1,6.8-5.1c0.5,0,0.9,0.1,1.4,0.2c2,0.7,3.1,2.2,4.2,3.6c1.5,2,2.8,3.8,6.5,3.8
			c1.3,0,3,0.1,4,1.4c0.9,1.3,0.5,2.8,0.2,4.1c-0.5,1.8-0.6,2.7,0.3,3.5l1.9,1.5l-2.2,1c-1.1,0.5-2.1,0.8-3.1,0.8
			c-1.2,0-2.2-0.4-3-1.1l-0.3-0.3c-1.7-1.6-4.9-4.5-8.3-4.5c-0.9,0-1.7,0.2-2.6,0.6c-2,0.9-3.3,1.7-4.5,2.4c-2.1,1.3-3.9,2.4-7.9,3
			C285.6,254.5,285.1,254.5,284.7,254.5L284.7,254.5z"/>
	</g>
	<g id="XMLID_80_">
		<path id="XMLID_81_" fill="#8A8274" d="M25,339.2c-1,0-2-0.3-2.9-0.8c-1.5-0.9-3.1-1-4.7-1.1c-1.8-0.1-3.8-0.2-5.1-1.8h-0.2
			l-0.5-0.9c-0.1-0.2-0.2-0.5-0.3-0.8l0-0.1c0-0.1-0.1-0.3-0.1-0.6l0-0.2c0-0.2-0.1-0.4-0.1-0.6c0-0.3,0-0.5,0-0.8
			c0-2.3-0.3-4.3-0.8-6c-1.1-3.3-3.2-5.3-5.6-5.3c-1.5,0-3.1,0.8-4.2,2.2c-0.1,0.2-0.3,0.4-0.5,0.6l-2.6,2.9v-42l0.5-0.4
			c0.5-0.5,0.7-0.8,0.8-0.9c0,0,0,0,0,0c-0.1-0.1-0.2-0.1-0.4-0.2l-0.9-0.4v-8.5l2.5,2.1c0.9,0.8,1.7,1.7,2.5,2.7
			c4.9,7,6.9,7.6,7.4,7.6c0.1,0,0.3,0,0.7-0.7c0.8-1.6,1-4.8-0.1-7.6c-0.6-1.5-1.8-3.5-4.1-4.4c-2.2-0.9-4.7-1.7-7.6-2.3l-1.2-0.3
			v-15.9l1.7,0.3c0.2,0,0.4,0.1,0.6,0.1c0.6,0,0.8-0.2,0.8-0.2c0,0,0,0,0,0c0,0,0-0.1-0.1-0.2c-0.2-0.2-0.5-0.5-0.9-0.8
			c-0.9-0.8-2.2-1.9-2-3.5c0.2-1.7,2.1-2.8,3.6-3.5c0.1-0.1,0.6-0.3,0.6-0.3l0.2,0c0.1,0,0.3,0,0.5-0.1c2.5-0.6,4.1-0.9,5.5-0.9
			c2.2,0,3.8,0.9,5.7,2.4c0.2,0.2,0.6,0.4,1,0.4c0.5,0,0.9-0.4,1-0.7c0.7-0.9,1.1-2.7,0.5-4.4c-1.3-3.7,2.6-5.3,5.7-6.6
			c1.6-0.7,3.3-1.4,4.3-2.3c-0.3,0-0.5,0-0.8,0c-1.8,0-4.1,0-5.7-1.1c-2.1-1.5-3-2.1-4.6-2.1c-0.7,0-1.4,0.1-2.4,0.3
			c-0.6,0.1-1,0.3-1.4,0.4l-0.4,0.2l-0.5-0.1c-0.2,0-0.4-0.1-0.6-0.1c-1.1,0-1.9,0.8-3.2,2.1c-0.9,1-1.9,2-3.1,2.5l-1.4,0.6
			l-0.1-0.3c0,0-0.1,0-0.1,0c-0.9,0-1.8-0.3-2.7-0.8c-0.4-0.3-0.8-0.6-1.4-1l-0.6-0.5v-18.4l2.1,0.9c1.2,0.5,2.1,1.3,2.5,2.3
			c0.8,1.9,2,3.1,2.4,3.1c1.4-1.5,2.9-2.9,5.5-2.9c0.5,0,1,0,1.5,0.1c0.1,0,0.3,0,0.4,0c0.5,0,0.6-0.2,0.6-0.3
			c0.2-0.3,0.2-1.1-0.2-1.9c-0.2-0.4-0.7-0.5-1.5-0.5c-1.3,0-2.9,0.5-3.9,0.8c-0.3,0.1-0.6,0.1-1,0.1c-2.2,0-4.3-1.9-6.3-3.8
			c-0.4-0.4-0.9-0.8-1.3-1.2c-0.1-0.1-0.2-0.1-0.2-0.2l-0.7-0.4v-6.3l1.2-0.2c0.5-0.1,0.8-0.2,0.9-0.2l0.1,0c0.7-0.2,1.4-0.4,2-0.7
			c0.4-0.2,0.4-0.4,0.4-0.6c0-0.3-0.2-0.6-0.4-0.8c-0.8-0.5-1.6-1.3-1.7-2.4c0-1,0.6-1.8,1.2-2.3c0.8-1.1,2.4-1.7,4.4-1.7
			c1.1,0,2.3,0.2,3.3,0.6c1.3,0.5,3.3,1,5.5,1c1.3,0,2.6-0.2,3.6-0.6l2-0.7l0.1,2.1c0,1.3-0.2,2.4-0.7,3.3c-0.3,0.7-0.8,1.4-1.5,2
			c-0.3,0.2-0.4,0.9-0.2,1.6c0.2,0.5,0.7,1.8,2.7,2.2c3.8,0.6,4.8,2.7,5.3,4.5c0.1,0.3,0.2,0.6,0.3,0.9c0.4,3,4.2,6.8,6.2,6.8
			c0.6,0,1.1-0.1,1.5-0.1c4.8,0,5.3,2.7,5.5,4.2c0.2,1.1,0.2,1.1,1.1,1.1c0,0,0,0,0,0c0.5,0,1.1-0.1,1.8-0.2
			c1.4-0.3,2.9-0.4,4.3-0.4c3.5,0,7.4,0.9,8.1,3.5c0.2,0.9,0.2,2.7-2.7,4.2c-0.4,0.2-0.8,0.4-1.3,0.6l-1.5,0.6
			c-2.2,0.9-4.7,1.9-4.8,2.4c0,0.1-0.1,0.6,1.5,2.6c2.5,1.3,5.5,2.1,7.9,2.2c5.7,0.2,8.8,1,12.7,2.2c2.8,0.8,5.2,1.9,7.3,2.8
			c2.4,1,4.4,1.9,5.6,1.9c0.5,0,0.6-0.1,0.7-0.2c0.2-0.2,0.6-0.8,0.5-1.1c-0.1-0.4-0.9-1.1-3-1.7c-2.6-0.7-3.5-2.7-3.3-4.3
			c0.2-1.8,1.9-3.7,4.9-3.7c0.1,0,0.3,0,0.4,0c0.5,0,1,0.1,1.5,0.1c1.4,0.1,2.8,0.2,4.2,0.2c2.6,0,4.3-0.4,5.2-1.2
			c0.9-0.8,2-1.4,3-1.9c0.7-0.4,1.6-0.9,2-1.2c0,0-0.1-0.1-0.1-0.1c-0.8-0.9-2-1.3-3.1-1.6c-1.1-0.3-2.8-0.8-2.9-2.5
			c0-1,0.3-2,1-2.7c0.5-0.5,1.5-1.2,3.1-1.2c0.9,0,1.9,0.2,3,0.6c2.3,0.8,5.7,1.6,8,1.6c0.3,0,0.6,0,0.8,0c0.7-0.1,1-0.3,1-0.3
			c0,0,0-0.1,0-0.2c-0.2-0.9-0.9-2-1.9-2.9c-0.3-0.3-0.7-0.6-1.1-0.9l-1.4-0.8l-0.1-0.2c-1.5-0.9-3.9-1.8-7-1.8
			c-1.8,0-3.6,0.3-5.4,0.9c-4.8,1.6-7.2,3-9.1,4.2c-2.2,1.3-3.8,2.3-7.1,2.3c-0.6,0-1.1,0-1.7,0l-0.2,0l-0.2,0
			c-4.3-0.9-6.4-3.6-6.3-5.8c0-1.1,0.4-1.8,0.8-2.2c0.6-0.7,1.6-1,2.8-1c0.7,0,1.5,0.1,2.2,0.4c0.1,0,0.1,0,0.2,0
			c0.2,0,0.5-0.3,0.9-0.5c0.6-0.4,1.3-1,2.3-1.2c0.4-0.1,0.9-0.2,1.5-0.2c1.8,0,3.9,0.6,5.4,1.2c0.3-0.5,0.7-1.7,0.8-2.6
			c0.2-2.1,1.5-3.4,3.9-4c0.4-0.1,0.7-0.2,1.1-0.3c0.8-0.2,1.7-0.5,2.9-0.5c1,0,2,0.2,3.2,0.6c0.1,0,0.1,0,0.2,0l0.2,0
			c0.2,0,0.4,0.1,0.6,0.1c0.1,0,0.3,0,0.4,0l0,0c0.3-0.2,0.7-1.2,1-2l0-0.1c0-0.1,0.1-0.5,0.1-0.5l0.2-0.3c0.1-0.1,0.1-0.3,0.2-0.4
			c0-0.3,0-0.6,0-1.1c0-0.2-0.1-0.5-0.2-0.7l-0.1-0.1l0-0.1c-0.2-0.7-0.7-1.2-1.5-1.9c-0.9-0.8-2.1-1.8-2.3-3.5
			c-0.2-1.9-0.4-2.3-2.5-2.3l-0.3,0c-2.1,0-2.7,0.5-3.9,2.3c-0.8,1.3-2.1,2-3.5,2c-1.8,0-3.3-1.2-3.6-2.8c-0.4,0.1-1.3,0.4-2.9,1.6
			c-0.8,0.5-1.1,0.9-1.2,1.1c0.3,0.3,0.9,0.7,1.4,1c1.3,0.8,3.4,2.2,2.5,4.4c-1.3,3.4-3.9,5.4-7.4,5.6c-0.4,0-0.7,0-1,0
			c-3.5,0-5.2-1.6-5.2-4.9c0-0.8-0.1-1.3-0.4-1.7c-0.2-0.2-0.5-0.3-0.9-0.3c-0.4,0-0.8,0.1-1.3,0.2c-2.1,0.7-4,1-5.7,1
			c-2.1,0-3.7-0.5-4.7-1.6c-0.6-0.6-1.4-1.8-1.3-3.7c0.1-2-3.1-3.3-5.7-3.7l-4.5-0.8l4-2.1c0.4-0.2,0.7-0.4,1.1-0.5
			c3.1-1.4,6.7-2.2,9.7-2.2c1.6,0,3,0.2,4,0.7c1.1,0.5,2.2,0.7,3.4,0.7c1.7,0,3-0.5,3.6-1.4c0.4-0.6,0.4-1.5-0.1-2.6
			c-0.6-1.4-2-2.3-4.6-2.8c-0.6,0.1-1.2,0.2-1.7,0.3c-1.4,0.4-2.5,0.6-3.5,0.6c-2.7,0-3.9-1.3-5.1-2.5c-0.4-0.4-0.7-0.8-1.2-1.1
			c-0.1-0.1-0.2-0.1-0.3-0.2c-0.3-0.1-0.6-0.1-0.9-0.1c-0.4,0-0.8,0-1.3,0.1c-0.7,0.2-1.7,0.5-2.8,0.9c-1.7,0.6-3.8,1.3-6.4,2
			c-1.2,0.3-2.4,0.5-3.4,0.5c-3.4,0-4.8-1.7-4.9-3.2c-0.2-1.7,1.2-3.2,3.1-3.6c1.1-0.2,1.6-0.5,1.8-0.7c-0.1-0.1-0.2-0.2-0.4-0.3
			l-0.1,0l-0.1,0c-0.9-0.5-1.3-1.4-1.1-2.5c0.7-2.7,6.8-5.2,11.2-5.2c0.4,0,0.9,0,1.3,0.1c0.9,0.1,1.7,0.1,2.4,0.1c2,0,3-0.4,4.7-1
			c0.8-0.3,1.8-0.7,3-1.1c-0.1-0.1-0.3-0.2-0.5-0.3c-3.6-2.1-5.5-4.3-5.3-6.4c0.1-1.7,1.5-3,3.9-3.9c1.6-0.6,2.5-1.8,2.3-3.2
			c-0.2-1.3-1.4-2.8-4.3-3.1c-4.9-0.4-7.5-3.4-7.8-5.9c-0.3-2.4,1.2-4.4,3.9-5.2c1.7-0.5,3.3-1.4,4.1-2.2l0.4-0.4l0.6,0
			c2.1,0,4.3-1.3,6.7-3.9c5.4-5.7,10.5-6.9,13.9-6.9c3.1,0,5.4,1,6.4,1.5c2.2,1.2,2.6,3,2.8,4.2c0.3,1.4,0.4,2.2,4.5,2.2
			c4.2,0,6.4,2.6,6.4,4.9c0,1.7-1.3,3.6-4,3.6c-0.5,0-1.1-0.1-1.7-0.2c-1.4-0.4-2.5-0.5-3.2-0.5c-0.2,0-0.3,0-0.4,0
			c0,0.2,0,0.5,0.1,1c0.1,1.1-0.3,2.2-1.1,3.1c-1,1.2-2.7,1.8-4.4,1.8c-1.3,0-2.6-0.4-3.8-1.1c-1.5-0.9-2.8-1.4-4.1-1.4
			c-0.3,0-0.5,0-0.8,0.1c-1.7,0.3-2.1,1.1-2.3,2.2c-0.6,4.2-0.4,4.4,1,5.8c0.9,1,2.3,2.4,4.2,5.4c1.9,3.1,3.9,3.3,6.7,3.6
			c3.2,0.3,7.3,0.6,11.8,5.6c5.5,6.1,9,9,14.6,10.1c2,0.4,4.2,0.5,7.2,0.5c4.1,0,6.6-0.6,8.8-1.2c1.7-0.4,3.2-0.8,5.1-0.8
			c2,0,4.1,0.4,6.7,1.4l0.2,0.1l0.1,0.1c0.7,0.5,1.4,0.9,2.1,1.5c3.2,2.5,5.3,3.5,7,3.5c1.5,0,2.9-0.8,5-2c1.9-1.1,4.2-2.4,7.4-3.6
			l0.6-0.2l0.6,0.2c2.2,0.9,5.5,1.5,8.9,1.5c2.2,0,4.2-0.2,5.7-0.7c2-0.6,3.8-0.7,5.2-0.7c0.5,0,0.9,0,1.4,0c0.4,0,0.8,0,1.2,0
			c1.7,0,3-0.2,4.3-1c3.5-2.2,11.3-5.2,14.3-5.2c0.6,0,1.1,0.1,1.4,0.3c0.7,0.4,1.2,1.1,1.2,2c0.1,2.6-4,6.3-6.9,8
			c-1.8,1.1-3.4,4.1-3.4,6.8c0,1.3,0.3,2.2,0.9,2.5c2.8,1.7,1.5,4.5,0.6,6.4c-0.7,1.5-1,2.4-0.9,3c1.1-0.9,2.4-1.5,3.9-2
			c0,0,3.4-1.1,4.2-1.3v0l1.1-0.4l0.6,1.4l-0.4-1.4c0,0,0.7-0.2,1-0.3c0.3-0.1,0.6-0.2,0.9-0.3c1.7-0.4,3-0.6,4.2-0.6
			c2.9,0,4.8,1.4,5.8,4.3c2.1,6.2-1.9,10.5-7.8,15.8c-1,0.9-2.1,2.2-1.9,3.4c0.3,1.4,2.6,3,6,4.1c0.1,0,0.2,0.1,0.3,0.1
			c0.6,0,1.3-2.6,1.7-3.9c1-3.6,2.4-8.4,7.1-8.7c1.5-0.1,4-0.2,4.5-0.7c0.4-0.4,0.3-2.2,0.2-4.4l-0.1-1.4c-0.1-1.5,0.4-2.9,1.4-4
			c1.8-1.9,5.1-2.8,10.2-2.8c3.3,0,6.6,0.4,8.3,0.6l0.7,0.1c2,0.2,3.4,1.2,3.6,2.7c0.2,1.4-0.6,2.7-2.3,3.5
			c-1.4,0.7-3.2,1.1-5.5,1.2c-1.4,0.1-2.4,0.2-3,0.2c0.1,0.1,0.2,0.2,0.3,0.3c0.1,0,0.3,0,0.6,0c1.1,0,3-0.3,4.9-0.6
			c2.6-0.4,5.6-0.9,8.3-0.9c2.2,0,3.9,0.4,5.2,1.1c1.5,0.9,2.7,2,3.2,3.2l0.1,0.1l0,0.1c0.5,1.7,0.2,3.2-0.8,4.5l-0.1,0.1l-0.1,0.1
			c-1.1,0.9-2.6,1.4-4.5,1.4c-0.5,0-1.1,0-1.7-0.1c-0.3,0-0.6-0.1-0.9-0.1c-0.6,0-1.3,0.1-1.5,0.6c-0.3,1,1.1,3.6,3.7,5.1
			c0.6,0.3,1.2,0.7,1.9,1.1c4.4,2.6,11.1,6.6,18,6.6c1.5,0,3-0.2,4.4-0.6c1.5-0.4,2.9-0.6,4.3-0.6c5.1,0,8.4,2.9,8.5,5.8
			c0.1,1.8-1.1,4.2-5,4.7c-2.2,0.3-4.1,0.9-6,1.4c-2.4,0.7-4.7,1.4-7.3,1.4c-2.5,0-4.9-0.7-7.4-2.2c-1.1-0.7-2.3-1-3.5-1
			c-1.8,0-3.7,0.7-5.6,1.5c-2.2,0.9-4.8,1.9-7.6,1.9c-1.9,0-3.7-0.4-5.5-1.3c-1.4-0.7-2.5-1-3.2-1c-0.7,0-0.9,0.3-1.6,1
			c-0.9,1.1-2.2,2.5-5.3,2.5c-1.5,0-3.4-0.4-5.7-1.2c-1.3-0.5-2.6-0.7-4-0.7c-1.4,0-2.9,0.2-4.5,0.7l-0.6,0.2l-0.2-0.1
			c-0.2,0-0.4,0.1-0.6,0.1c-0.1,0-0.2,0-0.3,0l-0.3,0c-0.2,0-0.4,0-0.6,0c-0.1,0-0.4,0-0.4,0l-0.1-1.5l-0.1,1.5l-0.4,0l-0.2,0
			c-0.2,0-0.3,0-0.5,0l-0.3,0c-0.1,0-0.2,0-0.4,0c-0.2,0-0.4-0.1-0.7-0.1c0,0-0.4-0.1-0.5-0.1c-0.3,0-0.6-0.1-0.9-0.2l-0.3-0.1
			c-0.3-0.1-0.6-0.2-1-0.2l-0.2-0.1c-0.3-0.1-0.7-0.2-1-0.3l-0.1,0c-0.4-0.1-0.7-0.3-1.1-0.4c-2.8-1.1-5.2-2.7-6.9-4.6l-0.4-0.4
			l0-0.2c-0.2-0.2-0.3-0.4-0.5-0.6c-0.2-0.3-0.4-0.6-0.6-1c-2.7-4.6-10.4-13.1-14.3-13.1c-0.5,0-1.2,0.1-1.7,1.2
			c-0.9,1.6-1.5,3.2-2.1,4.6c-0.3,0.6-0.5,1.2-0.8,1.7c-0.4,0.9-0.8,1.5-1.1,2.1c-0.2,0.3-0.4,0.5-0.6,0.7c-1,1.1-2.2,1.7-3.5,1.7
			c-1.1,0-2.3-0.3-3.8-1c-0.9-0.4-1.7-1.1-2.5-2.1l-0.1-0.1l-0.1-0.1c-0.4-0.8-0.7-1.7-1.1-3c-0.6-1.9-1.1-3.4-1.7-4.7
			c-1.7-4.1-3.6-6-6-6.2c-0.9-0.1-1.7-0.1-2.6-0.1c-2.4,0-4.2,0.4-5.4,1.3c1.6,1.2,2.8,2.8,3.2,4.5c0.6,2.1,0.1,4.3-1.3,6.5
			c-2,3.2-7.3,4.8-15.7,4.8c-6.2,0-11.8-0.9-12-0.9l-0.3,0l-3.9-2.1c-0.1,0-0.2,0-0.3,0h-0.6l0,0c-0.3,0.2-0.7,0.5-1.2,0.7l-0.2,0.1
			l-0.2,0c-1.3,0.2-2.5,0.5-3.6,0.9l-0.1,0l-0.1,0c-2.4,0.6-3.4,1.2-3.6,2.4l0,0.2l-0.1,0.2c-0.9,1.8-1.1,3.3-0.5,4.3
			c1,1.7,4.1,2.7,8.4,2.8c6.1,0.2,20.5,1,23.4,5.7c0.8,1.3,0.8,2.7,0.1,4.1c-1.7,3.1-7.1,5.3-9.3,5.3c-0.6,0-1.3-0.1-2.1-0.2
			c-1-0.1-2.2-0.3-3.4-0.3c-2,0-3.3,0.4-4.2,1.3c-0.6,0.6-1.2,1.3-1.9,1.9c-2.8,2.9-5.4,5.6-8,5.6c-0.2,0-0.4,0-0.6,0
			c-0.9-0.1-2.1-0.7-3.5-1.4c-1.2-0.6-2.5-1.2-3.9-1.7c-1.6-0.6-2.9-0.8-4.1-0.8c-1,0-1.9,0.2-2.7,0.6c-0.5,0.3-1.1,0.6-1.7,0.8
			c-4.4,2.2-9.3,4.8-13.7,4.8c-1.2,0-2.3-0.2-3.2-0.6c-2.2-0.9-3.9-1.3-5.5-1.3c-1.7,0-3.2,0.5-4.7,1.5c-0.3,0.2-0.6,0.3-1,0.5
			c-1.3,0.8-3.5,1.1-6.8,1.1c-3.6,0-7.5-0.5-9.1-0.8c-0.5-0.1-1.2-0.2-1.8-0.2c-2.1,0-2.9,0.3-3.1,0.4l-0.1,0.1
			c-1,0.5-2.5,1.4-3.5,2c3.5,0.6,8.7,1.5,13.6,4c0.9,0.5,2.1,0.7,3.8,0.7c0.8,0,1.7,0,2.6-0.1c1-0.1,2.1-0.1,3.1-0.1
			c2.7,0,6.3,0.3,10.2,2.7c3.2,2,6.3,4.7,9.3,7.3c4.2,3.7,8.2,7.1,11.9,7.9c1.2,0.3,2.7,0.4,4.6,0.4c0.8,0,1.6,0,2.4,0l1.4-0.1
			c1.2-0.1,2.4-0.1,3.5-0.1c3.2,0,6.6,0.4,7.7,3.2c0.5,1.2,0.3,2.6-0.5,3.7c-2.1,3.1-7.8,4.8-12.1,4.9l-0.3,0
			c-1.6,0-3.1-0.2-4.4-0.6c-1.7-0.6-3.5-1.4-5.2-2.1c-3.2-1.5-6.6-3-9.8-3c-1.1,0-2.1,0.2-3.1,0.5c-4.3,1.5-7.8,2.5-10.8,2.5
			c-2.1,0-3.9-0.5-5.5-1.4c-1.8-1.1-4.4-1.8-6.8-1.8c-1.7,0-3.2,0.4-3.9,1c-1.1,0.9-2.7,1-3.7,1c-1.2,0-2.5-0.2-3.8-0.3
			c-1.2-0.1-2.4-0.3-3.4-0.3c-1.4,0-1.6,0.3-1.6,0.3c-0.4,0.7-1,1.7-0.9,2.1c0.1,0.2,0.5,0.8,2.7,2c3.2,1.6,3.2,4,3.3,5.6
			c0,1.4,0.1,1.8,1.2,2.3l0.3,0.1c5.1,2,10.4,4.1,9.8,7.8c-0.5,3.2-4.7,4.6-8.4,4.6c-0.9,0-1.9-0.1-2.7-0.3
			c-1.3-0.3-2.9-0.5-4.2-0.5c-2.4,0-3.6,0.8-4.3,2.9c-1.9,5.7-5.1,6.2-8,6.2c-0.2,0-0.4,0-0.6,0c-0.1,0-0.2,0-0.3,0l-0.3,0
			c-0.2,0-0.3,0.1-0.5,0.1c-0.2,0.1-0.4,0.1-0.6,0.2l-0.1,0c-0.1,0-0.1,0-0.2,0.1l-0.3,0.1h-0.2c-0.1,0.1-0.2,0.1-0.2,0.1
			c0,0,0,0,0,0c0,0,1.3,1.4,1.3,1.4l-1.6,1C27.7,338.5,26.5,339.2,25,339.2z M126.1,219c1.5,0,2.8,0.7,3.6,2
			c1.1,1.6,1.9,2.6,4.5,2.6c4.1,0,4.6-1.5,5.3-3.3c0.1-0.2,0.2-0.5,0.3-0.7l0.1-0.3l0.2-0.2c1.4-1.4,2.1-2.1,1-4.8
			c-0.4-1.1-0.8-1.1-1-1.1c-0.4,0-0.9,0.1-1.5,0.3c-0.8,0.2-1.8,0.4-2.8,0.4c-1.9,0-3.6-0.7-5.1-2.3c-1.3-1.3-2.4-2.7-3.4-4
			c-2.7-3.4-4.7-5.9-10-6.2c-0.2,0-0.5,0-0.7,0c-2.4,0-2.8,0.6-3.2,1.4c-0.3,0.6-1,1.8-2.6,1.8c-1,0-2.2-0.4-4.2-1.5
			c-2.2-1.2-3.5-1.4-4.3-1.4c-0.5,0-1,0.1-1.2,0.5c-0.2,0.5-0.1,1.4,0.8,2.5c1,1.2,1.7,1.3,2.5,1.3l0.4,0l0.3,0.2
			c0.5,0.3,1,0.7,1.5,1.2c0.8,0.9,1.2,1.9,1.6,2.8c0.6,1.5,0.9,2.1,1.8,2.3c0.1,0,0.3,0,0.4,0c0.3,0,0.5-0.1,0.9-0.6
			c0.5-0.5,1.3-1.3,2.5-1.3c0.3,0,0.7,0.1,1,0.2c0.6,0.2,1.2,0.2,1.8,0.3c1.2,0.1,2.7,0.1,3.8,1.7c1.9,2.5,1.8,4.8-0.2,7
			c0.7,0.3,1.2,0.4,1.4,0.4c0.1,0,0.3,0,0.4,0C123.7,219.4,125,219,126.1,219z"/>
	</g>
	<g id="XMLID_78_">
		<path id="XMLID_79_" fill="#8A8274" d="M250.4,289.2c-0.3,0-0.7,0-1-0.1c-1.4-0.2-2.8-0.7-3.9-1.5c-3.8-2.8-11.3-5.5-15.8-5.7
			l-0.2,0c-0.1,0-0.3,0-0.4,0c-1.4,0.1-2.8,0.7-4.1,1.2c-1.4,0.6-2.7,1.1-4.1,1.1c-1.2,0-2.3-0.4-3.2-1.3c-1.2-1.2-2.3-1.7-3.6-1.7
			c-1,0-2.2,0.4-3.7,1.1c-1.4,0.8-2.9,1.1-4.4,1.1c-2.5,0-4.8-1.1-6.3-3c-0.3-0.4-0.6-0.8-0.9-1.1l-0.3-0.4v-0.2
			c-0.2-0.2-0.4-0.4-0.5-0.6l-0.1-0.1l0,0c-3-3.4-4.3-3.7-5.2-3.7c-0.2,0-0.3,0-0.5,0c-0.1,0-0.2,0-0.4,0l-0.4,0
			c-0.6,0.1-1.3,0.2-2.2,0.2l0,0c-0.6,0-1.2,0-1.8-0.1c-1.2-0.2-2.4-0.5-3.7-1c-3.1-1.2-5.8-2-8.1-2.7c-4.3-1.3-7.7-2.3-10.4-5.1
			c-1.5-1.6-1.5-3.1-1.2-4.1c1.2-4.5,10.4-7.4,13.1-8.2c0.2-0.1,0.5-0.1,0.8-0.2c2.9-0.8,5.4-0.9,7.5-0.9c0.7,0,1.3,0,2,0
			c0.6,0,1.3,0,1.9,0c2.2,0,4.5-0.1,7.3-1c0.4-0.1,0.7-0.2,1.1-0.3c0.1,0,0.3,0,0.4,0l0.2,1.5l0-1.5c0.1,0,0.3,0,0.4,0
			c0.2,0,0.4,0,0.6,0l0.1,0c0.1,0,0.2,0,0.4,0.1c0.2,0,0.4,0.1,0.5,0.2c0.1,0,0.2,0.1,0.3,0.1l0.9,0.4v0.2c1.3,1,2.2,2.5,3.1,3.9
			c0.6,1,1.1,1.9,1.7,2.5c0.1,0.1,0.1,0.1,0.2,0.2c0.1,0.1,0.1,0.1,0.2,0.2c0.1,0.1,0.2,0.1,0.2,0.2c0.1,0.1,0.1,0.1,0.2,0.1
			l0.1,0.1c0,0,0.2,0.1,0.2,0.1c0,0,0.2,0.1,0.2,0.1c0,0,0.2,0,0.2,0c0,0,0.3,0,0.3,0c0,0,0.3,0,0.3,0c0,0,0.3-0.1,0.3-0.1
			c0.1,0,0.1,0,0.2-0.1l0.2-0.1c0.1,0,0.2-0.1,0.3-0.1l0.1,0c0.2-0.1,0.3-0.2,0.5-0.2c1.9-1,3.9-1.5,6-1.5c3.9,0,7.9,1.9,10.7,5
			l1,1.1l-1.1,1c-1.1,0.9-1.8,2.8-2,5.4c-0.1,0.9,0.2,2.9,1.4,4.1c0.7,0.8,1.6,1.2,2.8,1.2c1.8,0,4-0.8,6.6-2.5
			c7.9-5.1,12.3-7,15.8-7c2,0,3.5,0.6,5.1,1.3c2.2,0.9,4.7,1.9,9.6,1.9l2.1,0l-0.1,1.6c-0.1,3.1-1.7,5.2-3.8,5.2
			c-0.4,0-0.8-0.1-1.2-0.2c-1.4-0.5-3.2-0.8-5.5-0.8c-3.3,0-7.5,0.6-12.3,1.6c0,0-0.1,0-0.1,0c1,0.8,3,1.8,4.4,2.5
			c2.1,1.1,4.2,2.2,5.5,3.3c2,1.6,1.7,3.4,1.4,4C255.8,287.9,253.3,289.2,250.4,289.2z"/>
	</g>
	<g id="XMLID_64_">
		<path id="XMLID_67_" fill="#8A8274" d="M273.6,94.4c-0.5,0-0.9,0-1.4,0c-3.4-0.1-7.6-0.2-12.1-0.2c-12.1,0-27.1-0.1-37.8-2.9
			c-0.4-0.1-0.7-0.2-1.1-0.3l-0.4-0.1c-0.2,0-0.4-0.1-0.6-0.1l-0.3-0.1c-0.3,0-0.5-0.1-0.7-0.1l-0.3,0c-0.3,0-0.5-0.1-0.7-0.1
			l-0.2,0c-0.2,0-0.5,0-0.7-0.1l-0.2,0c-0.2,0-0.5,0-0.7,0c-0.3,0-0.9,0-0.9,0c-2.6,0-4.7,0.5-6.5,0.9c-1.6,0.3-2.9,0.6-4.3,0.6
			c-2.1,0-3.8-0.7-5.4-2.3l-0.2-0.2l-0.4-0.4v-0.2c0,0-0.2-0.3-0.2-0.3c-0.1-0.2-0.3-0.3-0.4-0.5l-0.1-0.1c-0.2-0.2-0.3-0.4-0.4-0.6
			c-0.2-0.3-0.3-0.5-0.5-0.8c-2.9-4.9-5.2-5.3-8.7-5.7c-1.4-0.2-3-0.4-4.8-1c-0.2,0-0.3,0-0.5,0c0.3,0.7,0.4,1.5,0.2,2.4
			c-0.3,1.2-1.2,2.1-2.8,2.7c-1.7,0.7-3,1-4.2,1c-1.8,0-3-0.7-4.2-1.4c-0.8-0.5-1.6-0.9-2.7-1.3c-0.6-0.2-1-0.4-1.5-0.6
			c-1.7-0.7-2.3-0.9-3.7-0.9c-0.9,0-2.1,0.1-4.1,0.4c-0.7,0.1-1.3,0.1-2,0.1c-3.9,0-8.2-1.5-9.1-4.2c-0.3-1-0.4-2.8,2.2-4.6
			c2.4-1.6,2.9-2.8,2.9-3c0,0,0,0,0,0c0,0-0.5-0.4-2.1-0.4c-0.5,0-1.1,0-1.7,0.1c-3.3,0.4-6.2,1.8-8.8,3.1c-2.5,1.3-4.9,2.5-7.3,2.5
			c-0.1,0-0.2,0-0.3,0c-3.6-0.2-4.4-1.1-5.5-2.8c-0.3-0.5-0.7-1.1-1.3-1.7c-0.8-0.8-1.6-1.1-2.7-1.1c-1.3,0-2.8,0.4-4.8,1.1
			c-0.8,0.2-1.5,0.4-2.2,0.4l0,0c-1.6,0-2.8-0.7-3.6-1.3l-1.4-1l1.2-1.3c0.5-0.5,0.2-2.1-1-4.1c-0.5-0.9-1.3-1.7-3.8-1.7
			c-1.7,0-3.7,0.3-6,0.7c-0.9,0.1-1.8,0.3-2.7,0.4c-1,0.2-2,0.2-2.9,0.2c-5.5,0-6.9-3.3-7.4-5.7c-0.6-2.6,1.9-3.5,3.5-4.1
			c1.8-0.7,3.1-1.2,3.3-2.5c0.1-0.3,0-0.5-0.1-0.7c-0.5-0.7-2.5-1.5-6.1-1.5c-2.3,0-4.9,0.3-7.6,0.9c-2.4,0.5-4.5,0.8-6.3,0.8
			c-3.9,0-5.8-1.3-7.5-2.4c-0.4-0.2-0.7-0.5-1.1-0.7c-0.2-0.1-0.6-0.2-1-0.2c-1.4,0-3.5,0.8-5,1.3l-0.1,0l-0.1,0
			c-1.8,0.5-3.5,1.3-5.1,2.1l-0.8,0.4c-0.7,0.3-1.4,0.6-2,0.8L53.7,52l-0.1,0c-0.2,0-0.5,0.1-0.7,0.1c-3.1,0-6.2-2.8-9.4-5.8
			c-2.4-2.2-4.9-4.4-7.2-5.5c-1.9-0.8-3.5-1.2-4.9-1.5c-2-0.5-3.7-0.8-4.6-2.4l-0.2-0.3l0-0.4c0-1.1,0-2.1,0-2.9l0-1.4l1.4-0.1
			c1.4-0.1,3.6-0.7,7-2.2c2.9-1.2,5-2.6,7-3.8c2.8-1.7,4.9-3.1,7.6-3.1c0.9,0,1.9,0.2,2.8,0.6c3.6,1.4,7.1,2.1,10.2,2.1
			c3.2,0,5.8-0.8,7.1-2.1c1.9-1.8,4.3-1.8,6.5-1.8c0.7,0,1.4,0,2-0.1l1-0.1l0.5,0.9c0.7,1.4,1.3,2.6,1.4,4.4
			c0.1,1.2,0.4,1.4,3.9,3.1c0.9,0.4,1.9,0.9,3,1.5c3.7,1.9,10.6,3.6,17.5,4.5c2.7,0.3,5.2,0.5,7.2,0.5c7.6,0,17.1-0.9,21.4-2.8
			c4.1-1.8,3.7-3,3.2-4.6c-0.4-1.3,0-2.9,0.3-4.2c0.1-0.5,0.3-1.3,0.3-1.7c0,0-0.2,0-0.2,0l-0.5-2.9c1.1-0.3,2.7-0.5,4.9-0.5
			c3.7,0,9.1,0.4,17.2,1.1c3.5,0.3,6.4,0.5,8.7,0.5c5.7,0,6.4-1,6.5-1.1c0.2-0.4-0.5-1.8-1-2.6c-0.6-1.2-1.3-2.6-1.5-4
			c0-0.2,0-0.4,0-0.6l0-0.1l0-0.1c0-0.2,0-0.3,0.1-0.4l0-0.1l0-0.1c0-0.1,0.1-0.3,0.1-0.4l0.1-0.1l0.1-0.1c0.1-0.1,0.1-0.2,0.2-0.3
			l0.1-0.1l0.1-0.1c0-0.1,0.1-0.1,0.2-0.2l0.1-0.1l0.1-0.1c0.1,0,0.2-0.1,0.3-0.2l0.1,0l0.1,0c0.1,0,0.2-0.1,0.3-0.1l0.1,0
			c0.5-0.1,1.1-0.2,2.1-0.2c0.8,0,1.7,0,2.7,0.1c1.4,0.1,3.1,0.2,5.2,0.2c4.8,0,9.7-0.5,14.6-1.6l0.9-0.2c0.7-0.2,1.5-0.3,2.3-0.5
			c3.3-0.8,6.7-1.9,10.1-3.2c2-0.8,4.5-1.2,7.6-1.2c6.6,0,14.7,1.7,23.4,3.5c8.6,1.8,17.4,3.7,24.5,3.7c0.4,0,0.8,0,1.2,0l2.8-0.1
			l0.8,2.8c-0.4,0.2-0.8,0.5-1.1,0.7c-0.6,0.4-0.8,0.8-0.8,0.9c0,0,0.2,1.3,5.1,3.1c3.4,1.3,5.1,2,6.4,2c1.2,0,2.5-0.6,5.1-1.7
			c1.2-0.6,2.6-0.8,3.9-0.8c5.1,0,9.8,3.9,12.3,7.8c0.6,1,1.5,1.5,2.7,1.5c2.1,0,5.2-1.4,8.7-3.9c1.2-0.8,2.4-1.3,3.7-1.3
			c1.5,0,2.9,0.6,4.5,1.7l0.1,0.1l0.1,0.1c0.4,0.4,0.8,0.8,1.1,1.2c1,1,1.8,1.9,3.2,3l0.1,0.1l0.1,0.1c0.3,0.3,0.6,0.6,0.9,0.9
			c2.4,2.2,3.9,2.6,4.8,2.7l0.2,0l0.2,0.1c1.4,0.6,2.8,0.9,4.1,0.9c1.7,0,3.2-0.5,4.4-1.5l1.3-1.1l0.9,1.4c0.2,0.3,0.3,0.6,0.4,0.8
			c0,0.1,0.2,0.3,0.5,0.7l0.3,0.3l0.1,0.4c0.7,2.5-0.5,4.3-1.2,5.4c-0.1,0.1-0.2,0.2-0.2,0.4c1.3,0.7,2.3,1,3.2,1
			c0.5,0,0.9-0.1,1.3-0.2c0.5-0.1,0.9-0.2,1.5-0.2c1.6,0,3.1,0.9,5,3.1c0.2,0.3,0.5,0.5,0.7,0.8c0.9,1.1,1.3,2.2,1.2,3.3
			c-0.1,0.6-0.4,1.5-1.5,2.3c-1.6,1.1-3.9,1.3-5.6,1.3c-2.6,0-5.4-0.5-7.6-1.5c-0.7-0.3-1.2-0.4-1.7-0.4c-0.6,0-0.8,0.2-1,0.5
			c-0.4,0.7-0.4,2,0,3.1c0.3,0.3,0.6,0.5,0.9,0.7c1.8,1.1,4.3,2.7,2.3,5.8c-0.7,1.1-1.8,1.8-3,2.5l-0.1,0c-0.6,0.6-1.3,1.4-2.3,2.3
			c-0.2,0.2-0.3,0.3-0.4,0.5c-0.1,0.2-0.1,0.4-0.1,0.6c0.1,0.1,0.3,0.3,0.7,0.5c0.5-0.1,1.2-0.2,2-0.5c2.3-0.8,3.7-2.3,4.9-3.5
			c1-1,1.8-1.9,3-1.9c0.8,0,1.5,0.4,2.1,1.2c0.8,1.1,2.2,2.2,3.7,2.2c0.8,0,1.6-0.3,2.4-0.9c1.8-1.5,4.6-2.4,7-2.4
			c3,0,4.9,1.4,5.1,3.7c0.1,0.9,0,1.7,0,2.4c-0.1,2.2-0.1,2.7,2,3.3c0.9,0.3,3.6,1,4,3.3c0.3,2.3-2.3,4.2-4.2,5.5
			c-1.4,0.9-2.2,2.1-2.9,3.2c-0.9,1.4-2,3-4.1,3c-0.7,0-1.5-0.2-2.3-0.5c-1.7-0.7-2.7-1-3.4-1c-0.4,0-0.8,0.1-1.3,0.2
			c-0.5,0.1-1.1,0.3-2,0.4c-0.4,0-0.7,0.1-1.1,0.1c-3.1,0-5.6-2-6-4.8c0-0.1,0-0.1,0-0.2c-0.1-0.4-0.2-0.7-0.3-1.1
			c-0.1-0.3-0.2-0.8-0.3-1c-4.6,0-6.2-1.5-7.6-2.7c-0.9-0.8-1.5-1.3-3-1.6c-0.1,0-0.2,0-0.3,0c-0.7,0-1.2,0.6-2.1,1.9
			c-1.3,1.8-3.1,4.2-6.8,4.2c-2.6,0-5.8-1.2-9.8-3.7c-4.5-2.8-11.4-4.4-19.1-4.4c-7.4,0-13.3,1.5-14.4,3c-1.1,1.4-1,1.8-1,1.8
			c0.2,0.5,2.5,1,3.6,1.3c2.9,0.7,7,1.7,6.6,5.5c-0.2,1.6-0.7,3.2-1.4,4.7C289.5,88.2,285,94.4,273.6,94.4z M201.2,64
			c0.1,0,0.2,0.1,0.3,0.1l0.1,0c0.1,0,0.2,0.1,0.4,0.1c0.2,0,0.4,0.1,0.6,0.1c3.2,0.4,10.5,2.3,11.8,5c0.5,1,1,1.5,1.5,1.5
			c0.4,0,1.3-0.2,2.7-1.6c3.1-3,5.2-6.5,4.8-8c0-0.1-0.2-0.6-1.4-0.8c-3.9-0.8-6.5-2.2-7.8-4.3c-1.6-2.4-1.2-5.3-0.6-7.8
			c0.4-1.7,1.8-3.8,6.2-3.8c3.4,0,7.9,1.2,12.2,2.4c1.3,0.4,2.9,0.6,4.5,0.6c6.4,0,14.6-3,19.4-7.2c1.9-1.6,3.9-2.4,6.1-2.4
			c2.1,0,3.9,0.7,5.6,1.3c1.2,0.4,2.4,0.8,3.2,0.8c0.3,0,0.6-0.1,0.8-0.2c0.2-0.1,0.5-0.2,0.7-0.4c-0.2,0-0.4,0-0.6,0
			c-4.5,0-9-2.5-13.7-5.2c-1.1-0.6-2.1-1.2-3.2-1.8c-1.3-0.7-2.5-1.1-3.6-1.1c-2.4,0-4.2,1.8-6.3,3.8c-1.3,1.3-2.7,2.6-4.3,3.6
			c-3.1,1.9-8.7,3.2-14,3.2c-3.3,0-7.7-0.5-9.6-3.1c-1.9-2.5-0.8-4.3-0.2-5.5c0.6-1,0.8-1.4-1.4-3.1c-2-1.5-2.8-1.7-3.3-1.7
			c-0.3,0-0.6,0.1-1,0.2c-0.7,0.1-1.5,0.3-2.6,0.3c-1.6,0-3.4-0.3-5.6-1c-0.4-0.1-0.9-0.2-1.4-0.3c-0.2,0-0.4-0.1-0.6-0.1l-0.6-0.1
			c-0.1,0-0.2,0-0.3,0l-0.5,0c-0.4,0-0.7,0-1.1,0c-4.1,0-9.2,1.2-13.9,3.2c-0.3,0.1-0.5,0.2-0.8,0.3c-0.3,0.1-0.5,0.2-0.7,0.3
			c-0.3,0.1-0.5,0.2-0.7,0.3l-0.8-1.3l0.7,1.3c-0.2,0.1-0.8,0.4-0.8,0.4l-0.6,0.4l-0.7,0.4l-0.5,0.4l-0.7,0.5l-0.4,0.3l-0.4,0.3
			c-0.1,0.1-0.3,0.3-0.3,0.3c-0.1,0.1-0.2,0.2-0.3,0.3c-0.1,0.1-0.2,0.2-0.2,0.3c-1,1.4-0.8,2.8-0.4,3.7c0.9,2.1,3.4,3.8,6.3,4.2
			c0.6,0.1,1.2,0.1,1.8,0.1c2.4,0,4.8-0.6,7-1.1c1.8-0.4,3.3-0.8,4.7-0.8c0.6,0,1,0.1,1.5,0.2c2,0.6,3.3,2.1,3.4,3.8
			c0.1,1.5-0.6,3.6-4.5,5.4c-1.2,0.6-1.7,1-1.9,1.2c0.4,0.3,1.5,0.9,4.1,1.2c0.2,0,0.4,0.1,0.6,0.1c0.2,0,0.3,0.1,0.5,0.1l1.2,0.2
			l0,0.1c0.8,0.3,1.6,0.8,2,1.7c0.7,1.5-0.2,2.9-1.2,4.7c-0.2,0.3-0.4,0.6-0.5,0.9c-0.1,0.1-0.2,0.4-0.2,0.4v0.3l-0.2,0.3
			c-0.7,1.4-0.6,1.7-0.6,1.7l0,0c0,0,0,0,0.1,0.1L201.2,64z M291.6,38.2c3.5,0,7.3,2.1,10.4,3.8c0.9,0.5,1.8,1,2.5,1.3
			c0.2,0.1,0.8,0.3,2.4,0.3c5.6,0,13.8-2.7,15.4-4.2c-0.3,0-0.8,0.1-1.2,0.2c-0.6,0.1-1.3,0.3-2,0.3c-1.7,0-2.6-1-3.1-1.8
			c-1.1-1.9-4.2-2.5-9-3.5c-0.7-0.2-1.5-0.3-2.3-0.5c-0.7-0.1-1.3-0.2-2-0.2c-1.7,0-3.3,0.5-4.8,1c-1.4,0.5-2.9,0.9-4.5,0.9
			c-1.3,0-2.6-0.3-3.8-1.1c-1-0.6-2-0.9-2.9-0.9c-1.7,0-3.6,1-6.1,2.3c-1,0.5-2.1,1.2-3.4,1.8c0.9,0.2,1.7,0.6,2.5,1.2
			c1,0.6,2.2,1,3.5,1c1.6,0,3.3-0.5,5.1-1.3C289.3,38.4,290.4,38.2,291.6,38.2z"/>
	</g>
	<g id="XMLID_56_">
		<path id="XMLID_58_" fill="#8A8274" d="M470,142.4c-11,0-25.6-2.8-33.7-5.5c-3.6-1.2-6.1-2.4-7.4-3.5c-0.5-0.5-1.1-0.9-1.7-1.4
			c-2.3-1.9-4.6-3.8-5.8-5.7c-0.9-1.5-1.1-2.9-0.5-4.2c1.1-2.3,4.7-3.7,11.5-4.6c0.6-0.1,1.2-0.1,1.8-0.2l0.1,0l0.1,0
			c0.6,0,14.2,0.2,18.6,2.9c1.4,0.9,3.5,1.4,5,1.6c-0.5-0.8-0.3-1.5-0.2-1.9c0.7-1.8,3.4-2,5-2l0.2,0l1.5,0.1c1.8,0.2,5.9,1,8.1,4
			c0.5,0.7,1.1,1,1.8,1c1.5,0,3.4-1.4,4.5-2.8l2.7-3.5v23.8l-0.9,0.4C478.3,141.8,474.8,142.4,470,142.4z"/>
	</g>
	<g id="XMLID_52_">
		<path id="XMLID_53_" fill="#8A8274" d="M465.1,75.4c-3.6-0.2-4.4-1.1-5.5-2.8c-0.3-0.5-0.7-1.1-1.3-1.7c-0.8-0.8-1.6-1.1-2.7-1.1
			c-1.3,0-2.8,0.4-4.8,1.1c-0.8,0.2-1.5,0.4-2.2,0.4c-1.6,0-2.8-0.7-3.6-1.3l-1.4-1l1.2-1.3c0.5-0.5,0.2-2.1-1-4.1
			c-0.5-0.9-1.3-1.7-3.8-1.7c-1.7,0-3.7,0.3-6,0.7c-0.9,0.1-1.8,0.3-2.7,0.4c-1,0.2-2,0.2-2.9,0.2c-5.5,0-6.9-3.3-7.4-5.7
			c-0.6-2.6,1.9-3.5,3.5-4.1c1.8-0.7,3.1-1.2,3.3-2.5c0.1-0.3,0-0.5-0.1-0.7c-0.5-0.7-2.5-1.5-6.1-1.5c-2.3,0-4.9,0.3-7.6,0.9
			c-2.4,0.5-4.5,0.8-6.3,0.8c-3.9,0-5.8-1.3-7.5-2.4c-0.4-0.2-0.7-0.5-1.1-0.7c-0.2-0.1-0.6-0.2-1-0.2c-1.4,0-3.5,0.8-5,1.3l-0.1,0
			l-0.1,0c-1.8,0.5-3.5,1.3-5.1,2.1l-0.8,0.4c-0.7,0.3-1.4,0.6-2,0.8l-0.1,0.1l-0.1,0c-0.2,0-0.5,0.1-0.7,0.1
			c-3.1,0-6.2-2.8-9.4-5.8c-2.4-2.2-4.9-4.4-7.2-5.5c-1.9-0.8-3.5-1.2-4.9-1.5c-2-0.5-3.7-0.8-4.6-2.4l-0.2-0.3l0-0.4
			c0-1.1,0-2.1,0-2.9l0-1.4l1.4-0.1c1.4-0.1,3.6-0.7,7-2.2c2.9-1.2,5-2.6,7-3.8c2.8-1.7,4.9-3.1,7.6-3.1c0.9,0,1.9,0.2,2.8,0.6
			c3.6,1.4,7.1,2.1,10.2,2.1c3.2,0,5.8-0.8,7.1-2.1c1.9-1.8,4.3-1.8,6.5-1.8c0.7,0,1.4,0,2-0.1l1-0.1l0.5,0.9
			c0.7,1.4,1.3,2.6,1.4,4.4c0.1,1.2,0.4,1.4,3.9,3.1c0.9,0.4,1.9,0.9,3,1.5c3.7,1.9,10.6,3.6,17.5,4.5c2.7,0.3,5.2,0.5,7.2,0.5
			c7.6,0,17.1-0.9,21.4-2.8c4.1-1.8,3.7-3,3.2-4.6c-0.4-1.3,0-2.8,0.3-4.2c0.1-0.5,0.3-1.3,0.4-1.7c0,0-0.2,0-0.2,0l-0.5-2.9
			c1.1-0.3,2.7-0.5,4.9-0.5c1.7,0,3.8,0.1,6.5,0.3l1.4,0.1v50.1l-1.2,0.2c-2.8,0.6-5.2,1.8-7.5,2.9c-2.5,1.3-4.9,2.5-7.3,2.5
			C465.5,75.5,465.2,75.5,465.1,75.4z"/>
	</g>
	<g id="XMLID_50_">
		<path id="XMLID_51_" fill="#8A8274" d="M404.6,116.5c-2.7,0-5.5-0.5-8-1.5c-2.9-1.1-5.5-2.8-7.5-5.1l-0.1-0.1
			c-0.1-0.1-0.2-0.3-0.4-0.4c-1.6-1.9-3-2.8-4.3-2.8c-1,0-1.9,0.5-2.8,1.1c-1.1,0.6-2.1,1.2-3.4,1.2c-1.4,0-2.7-0.8-3.9-2.4
			l-0.1-0.1l-0.1-0.1c-0.4-0.8-0.7-1.6-0.9-2.5l0-0.1l0-0.1c-0.2-2.1,0.6-4.2,1.3-6.1c1.4-3.8,1.3-4.6-0.5-5.3c-1.5-0.6-3-1-4.5-1.3
			l-1.4-0.3l0.3-1.5l0-0.2l0-0.1c0-0.1,0.1-0.2,0.1-0.3l0-0.1l0-0.1c0.9-3.5,3.1-5.5,5.9-5.5c1.2,0,2.5,0.4,3.7,1.2
			c1.3,0.9,2.6,1.3,3.6,1.3c1,0,1.8-0.4,2.2-1.3c0.6-1.1,2-2.4,5.2-2.4c2.3,0,5.2,0.7,8.7,2c0.8,0.3,1.3,0.4,1.6,0.4
			c0.2,0,0.2,0,0.2,0c0.2-0.3,0.2-1.6-1.3-5.7l-0.1-0.2c-0.6-1.7-0.6-3.2,0.2-4.4c1.1-1.7,3.5-2.5,7.5-2.7c1.8-0.1,3.3-0.5,4.4-1.1
			c-0.9-0.3-1.9-0.4-3-0.4c-0.4,0-0.9,0-1.3,0.1c-1,0.1-1.8,0.1-2.6,0.1c-3.2,0-4.3-1.1-5.4-2.5l-0.2-0.2c-0.8-1.1-2-2.6-4.9-4.5
			c-0.9-0.6-1.5-1.6-1.4-2.7c0-0.7,0.3-2,2-3l0.2-0.1l0.2,0c0.2-0.1,0.4-0.1,0.6-0.2c0.7-0.2,1.4-0.3,2-0.3c1.7,0,2.8,0.7,3.6,1.2
			c0.2,0.1,0.6,0.3,0.7,0.4c0,0,0,0,0.1-0.1c1.2-0.9,2.5-1.4,3.8-1.6c0.4-0.1,0.8-0.2,1.5-0.2c0.7,0,1.6,0.1,3,0.2
			c5.8,0.6,9.5,2.7,9.7,5.7c0.1,1.1,0.5,4.6,2.8,4.6c0.2,0,0.5,0,0.7-0.1c1.5-0.3,2.9-0.8,4.3-1.3c2-0.7,3.7-1.3,5.3-1.3
			c0.7,0,1.4,0.1,2,0.4c1.5,0.7,3.3,1.5,3.4,3.3c0.1,1.5-1.3,2.6-2.3,3.2l-0.1,0.1c-0.5,0.3-1.1,0.6-1.7,1c-0.4,0.2-0.8,0.4-1.2,0.6
			c-2.2,2.5-1.7,5.9-1.2,9.5c0.3,2,0.5,4,0.3,5.9c-0.4,4-4.1,6.7-9.3,6.7l0,0c-3.6,0-7.1-1.3-9.7-3.5c-1.8-1.5-4.7-2.4-8.1-2.5
			c-0.2,0-0.3,0-0.5,0c-5.2,0-9.7,1.7-11.1,3.4c-1.1,1.3-1.1,1.8-1.1,1.8c0.5,0.6,3.7,1.3,9.7,1.9c1.1,0.1,2.2,0.2,3.2,0.3
			c8.8,0.8,12.8,1.2,15,7.6c0.1,0.4,0.2,0.6,0.3,0.8l1.8,0.1l-1.5,2.7c-0.9,1.6-1.9,3.3-3.1,4.9
			C414.6,114.6,409.9,116.5,404.6,116.5z"/>
	</g>
	<g id="XMLID_44_">
		<path id="XMLID_46_" fill="#8A8274" d="M284.7,585.9c-2.4,0-4.2-0.9-5.7-1.8l-2-1.2l1.9-1.4c3.1-2.3,5.9-4,8.1-5.3
			c2.2-1.2,4.1-3.5,5.7-5.5c2.2-2.7,4.2-5.1,6.8-5.1c0.5,0,0.9,0.1,1.4,0.2c2,0.7,3.1,2.2,4.2,3.6c1.5,2,2.8,3.8,6.5,3.8
			c1.3,0,3,0.1,4,1.4c0.9,1.3,0.5,2.8,0.2,4.1c-0.5,1.8-0.6,2.7,0.3,3.5l1.9,1.5l-2.2,1c-1.1,0.5-2.1,0.8-3.1,0.8l0,0
			c-1.2,0-2.2-0.4-3-1.1l-0.3-0.3c-1.7-1.6-4.9-4.5-8.3-4.5c-0.9,0-1.7,0.2-2.6,0.6c-2,0.9-3.3,1.7-4.5,2.4c-2.1,1.3-3.9,2.4-7.9,3
			C285.6,585.9,285.1,585.9,284.7,585.9z"/>
	</g>
	<g id="XMLID_38_">
		<path id="XMLID_39_" fill="#8A8274" d="M25,670.7c-1,0-2-0.3-2.9-0.8c-1.5-0.9-3.1-1-4.7-1.1c-1.9-0.1-3.9-0.2-5.2-1.9H12l-0.4-1
			c-0.2-0.4-0.3-0.8-0.4-1.3l0-0.1c0-0.2-0.1-0.4-0.1-0.7c0-0.3,0-0.6,0-0.9c0-2.3-0.3-4.3-0.8-6c-1.1-3.3-3.2-5.3-5.6-5.3
			c-1.5,0-3.1,0.8-4.2,2.2c-0.1,0.2-0.3,0.4-0.5,0.6l-2.6,2.9v-42l0.5-0.4c0.5-0.5,0.7-0.8,0.8-0.9c0,0,0,0,0,0
			c-0.1-0.1-0.2-0.1-0.4-0.2l-0.9-0.4v-8.5l2.5,2.1c0.9,0.8,1.7,1.7,2.5,2.7c4.9,7,6.9,7.6,7.4,7.6c0.1,0,0.3,0,0.7-0.7
			c0.8-1.6,1-4.8-0.1-7.6c-0.6-1.5-1.8-3.5-4.1-4.4c-2.2-0.9-4.7-1.7-7.6-2.3l-1.2-0.3v-15.9l1.7,0.3c0.2,0,0.4,0.1,0.6,0.1
			c0.6,0,0.8-0.2,0.8-0.2l0,0c0,0,0-0.1-0.1-0.2c-0.2-0.2-0.5-0.5-0.9-0.8c-0.9-0.8-2.2-1.9-2-3.5c0.2-1.7,2.1-2.8,3.6-3.5l0.6-0.3
			l0.2,0c0.1,0,0.3,0,0.5-0.1c2.5-0.6,4.1-0.9,5.5-0.9c2.2,0,3.8,0.9,5.7,2.4c0.2,0.2,0.6,0.4,1,0.4c0.5,0,0.9-0.4,1-0.7
			c0.7-0.9,1.1-2.7,0.5-4.4c-1.3-3.7,2.6-5.3,5.7-6.6c1.6-0.7,3.3-1.4,4.3-2.3c-0.3,0-0.5,0-0.8,0c-1.8,0-4.1,0-5.7-1.2
			c-2.1-1.5-3-2.1-4.6-2.1c-0.7,0-1.4,0.1-2.4,0.3c-0.6,0.1-1,0.3-1.4,0.4l-0.4,0.2l-0.5-0.1c-0.2,0-0.4-0.1-0.6-0.1
			c-1.1,0-1.9,0.8-3.2,2.1c-0.9,1-1.9,2-3.1,2.5l-1.4,0.6l-0.1-0.3c0,0-0.1,0-0.1,0c-0.9,0-1.8-0.3-2.7-0.8c-0.4-0.3-0.8-0.6-1.4-1
			l-0.6-0.5v-18.4l2.1,0.9c1.2,0.5,2.1,1.3,2.5,2.3c0.8,1.9,2,3.1,2.4,3.1c1.4-1.5,2.9-2.9,5.5-2.9c0.5,0,1,0,1.5,0.1
			c0.1,0,0.3,0,0.4,0c0.5,0,0.6-0.2,0.6-0.3c0.2-0.3,0.2-1.1-0.2-1.9c-0.2-0.4-0.7-0.5-1.5-0.5c-1.3,0-2.9,0.5-3.9,0.8
			c-0.3,0.1-0.6,0.1-1,0.1c-2.2,0-4.3-1.9-6.3-3.8c-0.4-0.4-0.9-0.8-1.3-1.2c-0.1-0.1-0.2-0.1-0.2-0.2l-0.7-0.4v-6.3l1.2-0.2
			c0.6-0.1,0.8-0.2,0.9-0.2l0.1,0c0.7-0.2,1.4-0.4,2-0.7c0.4-0.2,0.4-0.4,0.4-0.6c0-0.3-0.2-0.6-0.4-0.8C1,534,0.1,533.2,0,532.1
			c0-1,0.6-1.8,1.2-2.3c0.8-1.1,2.4-1.7,4.4-1.7c1.1,0,2.3,0.2,3.3,0.6c1.3,0.5,3.3,1,5.5,1c1.3,0,2.6-0.2,3.6-0.6l2-0.7l0.1,2.1
			c0,1.3-0.2,2.4-0.7,3.3c-0.3,0.7-0.8,1.4-1.5,2c-0.3,0.2-0.4,0.9-0.2,1.6c0.2,0.5,0.7,1.8,2.7,2.2c3.8,0.6,4.8,2.7,5.3,4.5
			c0.1,0.3,0.2,0.6,0.3,0.9c0.4,3,4.2,6.8,6.2,6.8c0.6,0,1.1-0.1,1.5-0.1c4.8,0,5.3,2.7,5.5,4.2c0.2,1.1,0.2,1.1,1.1,1.1
			c0,0,0,0,0,0c0.5,0,1.1-0.1,1.8-0.2c1.4-0.3,2.9-0.4,4.3-0.4c3.5,0,7.4,0.9,8.1,3.5c0.2,0.9,0.2,2.7-2.7,4.2
			c-0.4,0.2-0.8,0.4-1.3,0.6l-1.5,0.6c-2.2,0.9-4.7,1.9-4.8,2.4c0,0.1-0.1,0.6,1.5,2.6c2.5,1.3,5.5,2.1,7.9,2.2
			c5.7,0.2,8.8,1,12.7,2.2c2.8,0.8,5.2,1.9,7.3,2.8c2.4,1,4.4,1.9,5.6,1.9c0.5,0,0.6-0.1,0.7-0.2c0.2-0.2,0.6-0.8,0.5-1.1
			c-0.1-0.4-0.9-1.1-3-1.7c-2.6-0.7-3.5-2.7-3.3-4.3c0.2-1.8,1.9-3.7,4.9-3.7c0.1,0,0.3,0,0.4,0c0.5,0,1,0.1,1.5,0.1
			c1.4,0.1,2.8,0.2,4.2,0.2c2.6,0,4.3-0.4,5.2-1.2c0.9-0.8,2-1.4,3-1.9c0.7-0.4,1.6-0.9,2-1.2c0,0-0.1-0.1-0.1-0.1
			c-0.8-0.9-2-1.3-3.1-1.6c-1.1-0.3-2.8-0.8-2.9-2.5c0-1,0.3-2,1-2.7c0.5-0.5,1.5-1.2,3.1-1.2c0.9,0,1.9,0.2,3,0.6
			c2.3,0.8,5.7,1.6,8,1.6c0.3,0,0.6,0,0.8,0c0.7-0.1,1-0.3,1-0.3c0,0,0-0.1,0-0.2c-0.2-0.9-0.9-2-1.9-2.9c-0.3-0.3-0.7-0.6-1.1-0.9
			l-1.4-0.8l-0.1-0.2c-1.5-0.9-3.9-1.8-7-1.8c-1.8,0-3.6,0.3-5.4,0.9c-4.8,1.6-7.2,3-9.1,4.2c-2.2,1.3-3.8,2.3-7.1,2.3
			c-0.6,0-1.1,0-1.7,0l-0.2,0l-0.2,0c-4.3-0.9-6.4-3.6-6.3-5.8c0-1.1,0.4-1.8,0.8-2.2c0.6-0.7,1.6-1,2.8-1c0.7,0,1.5,0.1,2.2,0.4
			c0.1,0,0.1,0,0.2,0c0.2,0,0.5-0.3,0.9-0.5c0.6-0.4,1.3-1,2.3-1.2c0.4-0.1,0.9-0.2,1.5-0.2c1.8,0,3.9,0.6,5.4,1.2
			c0.3-0.5,0.7-1.7,0.8-2.6c0.2-2.1,1.5-3.4,3.9-4c0.4-0.1,0.7-0.2,1.1-0.3c0.8-0.2,1.7-0.5,2.9-0.5c1,0,2,0.2,3.2,0.6
			c0.1,0,0.3,0.1,0.3,0.1l0.1,0c0.2,0,0.4,0.1,0.6,0.1c0.1,0,0.3,0,0.4,0c0.4-0.2,0.7-1.2,1-2.1l0-0.1c0-0.1,0.1-0.5,0.1-0.5
			l0.2-0.3c0.1-0.1,0.1-0.3,0.2-0.4c0-0.3,0-0.6,0-1.1c0-0.2-0.1-0.5-0.2-0.7l-0.1-0.1l0-0.1c-0.2-0.7-0.7-1.2-1.5-1.9
			c-0.9-0.8-2.1-1.8-2.3-3.5c-0.2-1.9-0.4-2.3-2.5-2.3l-0.3,0c-2.1,0-2.7,0.5-3.9,2.3c-0.8,1.3-2.1,2-3.5,2c-1.8,0-3.3-1.2-3.6-2.8
			c-0.4,0.1-1.3,0.4-2.9,1.6c-0.8,0.5-1.1,0.9-1.2,1.1c0.3,0.3,0.9,0.7,1.4,1c1.3,0.8,3.4,2.2,2.5,4.4c-1.3,3.4-3.9,5.4-7.4,5.6
			c-0.4,0-0.7,0-1,0c-3.5,0-5.2-1.6-5.2-4.9c0-0.8-0.1-1.3-0.4-1.7c-0.2-0.2-0.5-0.3-0.9-0.3c-0.4,0-0.8,0.1-1.3,0.2
			c-2.1,0.7-4,1-5.7,1c-2.1,0-3.7-0.5-4.7-1.6c-0.6-0.6-1.4-1.8-1.3-3.7c0.1-2-3.1-3.3-5.7-3.7l-4.4-0.8l4-2.1
			c0.4-0.2,0.7-0.4,1.1-0.5c3.1-1.4,6.7-2.2,9.7-2.2c1.6,0,3,0.2,4,0.7c1.1,0.5,2.2,0.7,3.4,0.7c1.7,0,3-0.5,3.6-1.4
			c0.4-0.6,0.4-1.5-0.1-2.6c-0.6-1.4-2-2.3-4.6-2.8c-0.6,0.1-1.2,0.2-1.7,0.3c-1.4,0.4-2.5,0.6-3.5,0.6c-2.7,0-3.9-1.3-5.1-2.5
			c-0.4-0.4-0.7-0.8-1.2-1.1c-0.1-0.1-0.2-0.1-0.3-0.2c-0.3-0.1-0.6-0.1-0.9-0.1c-0.4,0-0.8,0-1.3,0.1c-0.7,0.2-1.7,0.5-2.8,0.9
			c-1.7,0.6-3.8,1.3-6.4,2c-1.2,0.3-2.4,0.5-3.4,0.5c-3.4,0-4.8-1.7-4.9-3.2c-0.2-1.7,1.2-3.2,3.1-3.6c1.1-0.2,1.6-0.5,1.8-0.7
			c-0.1-0.1-0.2-0.2-0.4-0.3l-0.1,0l-0.1-0.1c-0.9-0.5-1.3-1.4-1.1-2.4c0.7-2.7,6.8-5.2,11.2-5.2c0.4,0,0.9,0,1.3,0.1
			c0.9,0.1,1.7,0.1,2.4,0.1c2,0,3-0.4,4.7-1c0.8-0.3,1.8-0.7,3-1.1c-0.1-0.1-0.3-0.2-0.5-0.3c-3.6-2.1-5.5-4.3-5.3-6.4
			c0.1-1.7,1.5-3,3.9-3.9c1.6-0.6,2.5-1.8,2.3-3.2c-0.2-1.3-1.4-2.8-4.3-3.1c-4.9-0.4-7.5-3.4-7.8-5.9c-0.3-2.4,1.2-4.4,3.9-5.2
			c1.7-0.5,3.3-1.4,4.1-2.2l0.4-0.4l0.6,0c2.1,0,4.3-1.3,6.7-3.9c5.4-5.7,10.5-6.9,13.9-6.9c3.1,0,5.4,1,6.4,1.5
			c2.2,1.2,2.6,3,2.8,4.2c0.3,1.4,0.4,2.2,4.5,2.2c4.2,0,6.4,2.6,6.4,5c0,1.7-1.3,3.6-4,3.6c-0.5,0-1.1-0.1-1.7-0.2
			c-1.4-0.4-2.5-0.5-3.2-0.5c-0.2,0-0.3,0-0.4,0c0,0.2,0,0.5,0.1,1c0.1,1.1-0.3,2.2-1.1,3.1c-1,1.2-2.7,1.8-4.4,1.8
			c-1.3,0-2.6-0.4-3.8-1.1c-1.5-0.9-2.8-1.4-4.1-1.4c-0.3,0-0.5,0-0.8,0.1c-1.7,0.3-2.1,1.1-2.3,2.2c-0.6,4.2-0.4,4.4,1,5.8
			c0.9,1,2.3,2.4,4.2,5.4c1.9,3.1,3.9,3.3,6.7,3.6c3.2,0.3,7.3,0.6,11.8,5.6c5.5,6.1,9,9,14.6,10.1c2,0.4,4.2,0.5,7.2,0.5
			c4.1,0,6.6-0.6,8.8-1.2c1.7-0.4,3.2-0.8,5.1-0.8c2,0,4.1,0.4,6.7,1.4l0.2,0.1l0.1,0.1c0.7,0.5,1.4,0.9,2.1,1.5
			c3.2,2.5,5.3,3.5,7,3.5c1.5,0,2.9-0.8,5-2c1.9-1.1,4.2-2.4,7.4-3.6l0.6-0.2l0.6,0.2c2.2,0.9,5.5,1.5,8.9,1.5
			c2.2,0,4.2-0.2,5.7-0.7c2-0.6,3.8-0.7,5.2-0.7c0.5,0,0.9,0,1.4,0c0.4,0,0.8,0,1.2,0c1.7,0,3-0.2,4.3-1c3.5-2.2,11.3-5.2,14.3-5.2
			c0.6,0,1.1,0.1,1.4,0.3c0.7,0.4,1.2,1.1,1.2,2c0.1,2.6-4,6.3-6.9,8c-1.8,1.1-3.4,4.1-3.4,6.8c0,1.3,0.3,2.2,0.9,2.5
			c2.8,1.7,1.5,4.5,0.6,6.4c-0.7,1.5-1,2.4-0.9,3c1.1-0.9,2.4-1.5,3.9-2l1.9-0.6c0.8-0.2,1.5-0.5,2.2-0.7l1.1-0.4
			c0,0,0.8-0.2,1.1-0.3c0.3-0.1,0.6-0.2,1-0.3c1.7-0.4,3-0.6,4.2-0.6c2.9,0,4.8,1.4,5.8,4.3c2.1,6.2-1.9,10.5-7.8,15.8
			c-1,0.9-2.1,2.2-1.9,3.4c0.3,1.4,2.6,3,6,4.1c0.1,0,0.2,0.1,0.3,0.1c0.6,0,1.3-2.6,1.7-3.9c1-3.6,2.4-8.4,7.1-8.7
			c1.5-0.1,4-0.2,4.5-0.7c0.4-0.4,0.3-2.2,0.2-4.4l-0.1-1.4c-0.1-1.5,0.4-2.9,1.4-4c1.8-1.9,5.1-2.8,10.2-2.8c3.3,0,6.6,0.4,8.3,0.6
			l0.7,0.1c2,0.2,3.4,1.2,3.6,2.7c0.2,1.4-0.6,2.7-2.3,3.5c-1.4,0.7-3.2,1.1-5.5,1.2c-1.4,0.1-2.4,0.2-3,0.2
			c0.1,0.1,0.2,0.2,0.3,0.3c0.1,0,0.3,0,0.6,0c1.1,0,3-0.3,4.9-0.6c2.6-0.4,5.6-0.9,8.3-0.9c2.2,0,3.9,0.4,5.2,1.1
			c1.5,0.9,2.7,2,3.2,3.2l0.1,0.1l0,0.1c0.5,1.7,0.2,3.2-0.8,4.5l-0.1,0.1l-0.1,0.1c-1.1,0.9-2.6,1.4-4.5,1.4c-0.5,0-1.1,0-1.7-0.1
			c-0.3,0-0.6-0.1-0.9-0.1c-0.6,0-1.3,0.1-1.5,0.6c-0.3,1,1.1,3.6,3.7,5.1c0.6,0.3,1.2,0.7,1.9,1.1c4.4,2.6,11.1,6.6,18,6.6
			c1.5,0,3-0.2,4.4-0.6c1.5-0.4,2.9-0.6,4.3-0.6c5.1,0,8.4,2.9,8.5,5.8c0.1,1.8-1.1,4.2-5,4.7c-2.2,0.3-4.1,0.9-6,1.4
			c-2.4,0.7-4.7,1.4-7.3,1.4c-2.5,0-4.9-0.7-7.4-2.2c-1.1-0.7-2.3-1-3.5-1c-1.8,0-3.7,0.7-5.6,1.5c-2.2,0.9-4.8,1.9-7.6,1.9
			c-1.9,0-3.7-0.4-5.5-1.3c-1.4-0.7-2.5-1-3.2-1c-0.7,0-0.9,0.3-1.6,1c-0.9,1.1-2.2,2.5-5.3,2.5c-1.5,0-3.4-0.4-5.7-1.2
			c-1.3-0.4-2.6-0.7-4-0.7c-1.4,0-2.9,0.2-4.5,0.7l-0.6,0.2l-0.2-0.1c-0.2,0-0.4,0.1-0.6,0.1c-0.1,0-0.6,0.1-0.6,0.1
			c-0.2,0-0.4,0-0.6,0c-0.1,0-1,0-1,0l-0.2,0c-0.2,0-0.4,0-0.6,0c0,0-0.5,0-0.6,0c-0.2,0-0.5-0.1-0.8-0.1l-0.4-0.1
			c-0.3,0-0.6-0.1-0.9-0.2l-0.3-0.1c-0.3-0.1-0.7-0.2-1-0.2l-0.2-0.1c-0.3-0.1-0.7-0.2-1-0.3l-0.1,0c-0.4-0.1-0.7-0.3-1.1-0.4
			c-2.8-1.1-5.1-2.7-6.9-4.6l-0.4-0.4l0-0.2c-0.2-0.2-0.3-0.4-0.5-0.6c-0.2-0.3-0.4-0.6-0.6-1c-2.7-4.6-10.4-13.1-14.3-13.1
			c-0.5,0-1.2,0.1-1.7,1.2c-0.9,1.6-1.5,3.2-2.1,4.6c-0.3,0.6-0.5,1.2-0.8,1.7c-0.4,0.9-0.8,1.5-1.1,2.1c-0.2,0.3-0.4,0.5-0.6,0.7
			c-1,1.1-2.2,1.7-3.5,1.7c-1.1,0-2.3-0.3-3.8-1c-0.9-0.4-1.7-1.1-2.5-2.1l-0.1-0.1l-0.1-0.1c-0.4-0.8-0.7-1.7-1.1-3
			c-0.6-1.9-1.1-3.4-1.7-4.7c-1.7-4.1-3.6-6-6-6.2c-0.9-0.1-1.7-0.1-2.6-0.1c-2.4,0-4.2,0.4-5.4,1.3c1.6,1.2,2.8,2.8,3.2,4.5
			c0.6,2.1,0.1,4.3-1.3,6.5c-2,3.2-7.3,4.8-15.7,4.8c-6.2,0-11.8-0.9-12-0.9l-0.3,0l-3.9-2.1c-0.1,0-0.2,0-0.3,0h-0.6l0,0
			c-0.3,0.3-0.7,0.5-1.2,0.7l-0.2,0.1l-0.2,0c-1.3,0.2-2.5,0.5-3.6,0.9l-0.1,0l-0.1,0c-2.4,0.6-3.4,1.2-3.6,2.4l0,0.2l-0.1,0.2
			c-0.9,1.8-1.1,3.3-0.5,4.3c1,1.7,4.1,2.7,8.4,2.8c6.1,0.2,20.5,1,23.4,5.7c0.8,1.3,0.8,2.7,0.1,4.1c-1.7,3.1-7.1,5.3-9.3,5.3
			c-0.6,0-1.3-0.1-2.1-0.2c-1-0.1-2.2-0.3-3.4-0.3c-2,0-3.3,0.4-4.2,1.3c-0.6,0.6-1.2,1.3-1.9,1.9c-2.8,2.9-5.4,5.6-8,5.6
			c-0.2,0-0.4,0-0.6,0c-0.9-0.1-2.1-0.7-3.5-1.4c-1.2-0.6-2.5-1.2-3.9-1.7c-1.6-0.6-2.9-0.8-4.1-0.8c-1,0-1.9,0.2-2.7,0.6
			c-0.5,0.3-1.1,0.6-1.7,0.8c-4.4,2.2-9.3,4.8-13.7,4.8c-1.2,0-2.3-0.2-3.2-0.6c-2.2-0.9-3.9-1.3-5.5-1.3c-1.7,0-3.2,0.5-4.7,1.5
			c-0.3,0.2-0.6,0.3-1,0.5c-1.3,0.8-3.5,1.1-6.8,1.1c-3.6,0-7.5-0.5-9.1-0.8c-0.5-0.1-1.2-0.2-1.8-0.2c-2.1,0-2.9,0.3-3.1,0.4
			l-0.1,0.1c-1,0.5-2.5,1.4-3.5,2c3.5,0.6,8.7,1.5,13.6,4c0.9,0.5,2.1,0.7,3.8,0.7c0.8,0,1.7,0,2.6-0.1c1-0.1,2.1-0.1,3.1-0.1
			c2.7,0,6.3,0.3,10.2,2.7c3.2,2,6.3,4.7,9.3,7.3c4.2,3.7,8.2,7.1,11.9,7.9c1.2,0.3,2.7,0.4,4.6,0.4c0.8,0,1.6,0,2.4,0l1.4-0.1
			c1.2,0,2.4-0.1,3.5-0.1c3.2,0,6.6,0.4,7.7,3.2c0.5,1.2,0.3,2.6-0.5,3.7c-2.1,3.1-7.8,4.8-12.1,4.9l-0.3,0c-1.6,0-3.1-0.2-4.4-0.6
			c-1.7-0.6-3.5-1.4-5.2-2.1c-3.2-1.5-6.6-3-9.8-3c-1.1,0-2.1,0.2-3.1,0.5C78.5,634,75,635,71.9,635c-2.1,0-3.9-0.5-5.5-1.4
			c-1.8-1.1-4.4-1.8-6.8-1.8c-1.7,0-3.2,0.4-3.9,1c-1.1,0.9-2.7,1-3.7,1c-1.2,0-2.5-0.2-3.8-0.3c-1.2-0.1-2.4-0.3-3.4-0.3
			c-1.4,0-1.6,0.3-1.6,0.3c-0.4,0.7-1,1.7-0.9,2.1c0.1,0.2,0.5,0.8,2.7,2c3.2,1.6,3.2,4,3.3,5.6c0,1.4,0.1,1.8,1.2,2.3l0.3,0.1
			c5.1,2,10.4,4.1,9.8,7.8c-0.5,3.2-4.7,4.6-8.4,4.6c-0.9,0-1.9-0.1-2.7-0.3c-1.3-0.3-2.9-0.5-4.2-0.5c-2.4,0-3.6,0.8-4.3,2.9
			c-1.9,5.7-5.1,6.2-8,6.2c-0.2,0-0.4,0-0.6,0c-0.2,0-0.4,0.1-0.6,0.1l-0.1,0c-0.4,0.1-0.8,0.2-1.1,0.3l-0.3,0.1h0
			c0,0-0.1,0.1-0.1,0.1c-0.1,0-0.1,0.1-0.2,0.1l0,0l-0.1,0.1c0,0,1.3,1.4,1.3,1.4l-1.6,1C27.7,670,26.5,670.7,25,670.7z
			 M126.1,550.4c1.5,0,2.8,0.7,3.6,2c1.1,1.6,1.9,2.6,4.5,2.6c4.1,0,4.6-1.5,5.3-3.3c0.1-0.2,0.2-0.5,0.3-0.7l0.1-0.3l0.2-0.2
			c1.4-1.4,2.1-2.1,1-4.8c-0.4-1.1-0.8-1.1-1-1.1c-0.4,0-0.9,0.1-1.5,0.3c-0.8,0.2-1.8,0.4-2.8,0.4c-1.9,0-3.6-0.7-5.1-2.3
			c-1.3-1.3-2.4-2.7-3.4-4c-2.7-3.4-4.7-5.9-10-6.2c-0.2,0-0.5,0-0.7,0c-2.4,0-2.8,0.6-3.2,1.4c-0.3,0.6-1,1.8-2.6,1.8
			c-1,0-2.2-0.4-4.2-1.5c-2.2-1.2-3.5-1.4-4.3-1.4c-0.5,0-1,0.1-1.2,0.5c-0.2,0.5-0.1,1.4,0.8,2.5c1,1.2,1.7,1.3,2.5,1.3l0.4,0
			l0.3,0.2c0.5,0.3,1,0.7,1.5,1.2c0.8,0.9,1.2,1.9,1.6,2.8c0.6,1.5,0.9,2.1,1.8,2.3c0.1,0,0.3,0,0.4,0c0.3,0,0.5-0.1,0.9-0.6
			c0.5-0.5,1.3-1.3,2.5-1.3c0.3,0,0.7,0.1,1,0.2c0.6,0.2,1.2,0.2,1.8,0.3c1.2,0.1,2.7,0.1,3.8,1.7c1.9,2.5,1.8,4.8-0.2,7
			c0.7,0.3,1.2,0.4,1.4,0.4c0.1,0,0.3,0,0.4,0C123.7,550.8,125,550.4,126.1,550.4z"/>
	</g>
	<g id="XMLID_36_">
		<path id="XMLID_37_" fill="#8A8274" d="M250.4,620.5c-0.3,0-0.7,0-1-0.1c-1.4-0.2-2.8-0.7-3.9-1.5c-3.8-2.8-11.3-5.5-15.8-5.7
			l-0.2,0c-0.1,0-0.3,0-0.4,0c-1.4,0.1-2.8,0.7-4.1,1.2c-1.4,0.6-2.7,1.1-4.1,1.1c-1.2,0-2.3-0.4-3.2-1.3c-1.2-1.2-2.3-1.7-3.6-1.7
			c-1,0-2.2,0.4-3.7,1.1c-1.4,0.8-2.9,1.1-4.4,1.1c-2.5,0-4.8-1.1-6.3-3c-0.3-0.4-0.6-0.8-0.9-1.1l-0.3-0.4v-0.2
			c-0.2-0.2-0.4-0.5-0.6-0.7c-3.1-3.5-4.3-3.8-5.3-3.8c-0.2,0-0.3,0-0.5,0c-0.1,0-0.2,0-0.4,0l-0.4,0c-0.6,0.1-1.3,0.2-2.2,0.2
			c-0.6,0-1.2,0-1.8-0.1c-1.2-0.2-2.4-0.5-3.7-1c-3.1-1.2-5.8-2-8.1-2.7c-4.3-1.3-7.7-2.3-10.4-5.1c-1.5-1.6-1.5-3.1-1.2-4.1
			c1.2-4.5,10.4-7.4,13.1-8.2c0.2-0.1,0.4-0.1,0.7-0.2c3-0.8,5.5-0.9,7.5-0.9c0.7,0,1.3,0,2,0c0.6,0,1.3,0,1.9,0
			c2.2,0,4.5-0.1,7.3-1c0.4-0.1,0.7-0.2,1.1-0.3c0.1,0,0.3,0,0.4,0l0.2,0c0.1,0,0.3,0,0.4,0c0.3,0,0.4,0,0.6,0l0.1,0
			c0.1,0,0.2,0,0.3,0.1c0.2,0,0.4,0.1,0.5,0.2c0.1,0,0.2,0.1,0.3,0.1l0.9,0.4v0.2c1.3,1,2.2,2.5,3.1,3.9c0.6,1,1.1,1.9,1.7,2.5
			c0.1,0.1,0.1,0.1,0.2,0.2c0.1,0.1,0.2,0.1,0.2,0.2c0.1,0.1,0.2,0.1,0.2,0.2c0.1,0.1,0.2,0.1,0.2,0.1l0.1,0.1c0,0,0.2,0.1,0.2,0.1
			c0,0,0.2,0.1,0.2,0.1l0.2,0l0.3,0l0.3,0c0.1,0,0.3-0.1,0.3-0.1c0.1,0,0.1,0,0.2,0l0.2-0.1c0.1,0,0.2-0.1,0.3-0.1l0.1-0.1
			c0.2-0.1,0.4-0.2,0.5-0.2c1.9-1,3.9-1.5,6-1.5c3.9,0,7.9,1.9,10.7,5l1,1.1l-1.1,1c-1.1,0.9-1.8,2.8-2,5.4
			c-0.1,0.9,0.2,2.9,1.4,4.1c0.7,0.8,1.6,1.2,2.8,1.2c0,0,0,0,0,0c1.8,0,4-0.8,6.6-2.5c7.9-5.1,12.3-7,15.8-7c2,0,3.5,0.6,5.1,1.3
			c2.2,0.9,4.7,1.9,9.6,1.9l2.1,0l-0.1,1.6c-0.1,3.1-1.7,5.2-3.8,5.2c-0.4,0-0.8-0.1-1.2-0.2c-1.4-0.5-3.2-0.8-5.5-0.8
			c-3.3,0-7.5,0.6-12.3,1.6c0,0-0.1,0-0.1,0c1,0.8,3,1.8,4.4,2.5c2.1,1.1,4.2,2.2,5.5,3.3c2,1.6,1.7,3.4,1.4,4
			C255.8,619.2,253.3,620.5,250.4,620.5z"/>
	</g>
	<g id="XMLID_26_">
		<path id="XMLID_29_" fill="#8A8274" d="M273.6,425.8c-0.5,0-0.9,0-1.4,0c-3.4-0.1-7.6-0.2-12.1-0.2c-12.1,0-27.1-0.1-37.8-2.9
			c-0.4-0.1-0.7-0.2-1.1-0.3l-0.5-0.1c-0.2,0-0.4-0.1-0.6-0.1l-0.3,0c-0.3,0-0.5-0.1-0.7-0.1l-0.3,0c-0.3,0-0.5-0.1-0.7-0.1l-0.3,0
			c-0.3,0-0.5,0-0.7-0.1l-0.2,0c-0.2,0-0.5,0-0.7,0c-0.3,0-0.9,0-0.9,0c-2.5,0-4.6,0.5-6.5,0.9c-1.6,0.3-2.9,0.6-4.3,0.6
			c-2.1,0-3.8-0.7-5.3-2.2l-0.2-0.2l-0.4-0.4v-0.2c0,0-0.1-0.1-0.1-0.1c-0.2-0.2-0.3-0.4-0.5-0.7l-0.1-0.1c-0.2-0.2-0.3-0.4-0.4-0.6
			c-0.2-0.3-0.3-0.5-0.5-0.8c-2.9-4.9-5.2-5.2-8.7-5.7c-1.4-0.2-3-0.4-4.8-1c-0.2,0-0.3,0-0.5,0c0.3,0.7,0.4,1.5,0.2,2.4
			c-0.3,1.2-1.2,2.1-2.8,2.7c-1.7,0.7-3,1-4.2,1c-1.8,0-3-0.7-4.2-1.4c-0.8-0.5-1.6-0.9-2.7-1.3c-0.6-0.2-1-0.4-1.5-0.6
			c-1.7-0.7-2.3-0.9-3.7-0.9c-0.9,0-2.1,0.1-4.1,0.4c-0.7,0.1-1.3,0.1-2,0.1c-3.9,0-8.2-1.5-9.1-4.2c-0.3-1-0.4-2.8,2.2-4.6
			c2.4-1.6,2.9-2.8,2.9-3c0,0,0,0,0,0c0,0-0.5-0.4-2.1-0.4c-0.5,0-1.1,0-1.7,0.1c-3.3,0.4-6.2,1.8-8.8,3.1c-2.5,1.3-4.9,2.5-7.3,2.5
			c-0.1,0-0.2,0-0.3,0c-3.6-0.2-4.4-1.1-5.5-2.8c-0.3-0.5-0.7-1.1-1.3-1.7c-0.8-0.8-1.6-1.1-2.7-1.1c-1.3,0-2.8,0.4-4.8,1.1
			c-0.8,0.2-1.5,0.4-2.2,0.4c-1.6,0-2.8-0.7-3.6-1.3l-1.4-1l1.2-1.3c0.5-0.5,0.2-2.1-1-4.1c-0.5-0.9-1.3-1.7-3.8-1.7
			c-1.7,0-3.6,0.3-6,0.7c-0.9,0.1-1.8,0.3-2.7,0.4c-1,0.2-2,0.2-2.9,0.2c-5.5,0-6.9-3.3-7.4-5.7c-0.6-2.6,1.9-3.5,3.5-4.1
			c1.8-0.7,3.1-1.2,3.3-2.5c0.1-0.3,0-0.5-0.1-0.7c-0.5-0.7-2.5-1.5-6.1-1.5c-2.3,0-4.9,0.3-7.6,0.9c-2.4,0.5-4.5,0.8-6.3,0.8
			c-3.9,0-5.8-1.3-7.5-2.4c-0.4-0.2-0.7-0.5-1.1-0.7c-0.2-0.1-0.6-0.2-1-0.2c-1.4,0-3.5,0.8-5,1.3l-0.1,0l-0.1,0
			c-1.8,0.5-3.5,1.3-5.1,2.1l-0.8,0.4c-0.7,0.3-1.4,0.6-2,0.8l-0.1,0l-0.1,0c-0.2,0-0.5,0.1-0.7,0.1c-3.1,0-6.2-2.8-9.4-5.8
			c-2.4-2.2-4.9-4.4-7.2-5.5c-1.9-0.8-3.5-1.2-4.9-1.5c-2-0.5-3.7-0.8-4.6-2.4l-0.2-0.3l0-0.4c0-1.1,0-2.1,0-2.9l0-1.4l1.4-0.1
			c1.4-0.1,3.6-0.7,7-2.2c2.9-1.2,5-2.6,7-3.8c2.8-1.7,4.9-3.1,7.6-3.1c0.9,0,1.9,0.2,2.8,0.6c3.6,1.4,7.1,2.1,10.2,2.1
			c3.2,0,5.8-0.8,7.1-2.1c1.9-1.8,4.3-1.8,6.5-1.8c0.7,0,1.4,0,2-0.1l1-0.1l0.5,0.9c0.7,1.4,1.3,2.6,1.4,4.4
			c0.1,1.2,0.4,1.4,3.9,3.1c0.9,0.4,1.9,0.9,3,1.5c3.7,1.9,10.6,3.6,17.5,4.5c2.7,0.3,5.2,0.5,7.2,0.5c7.6,0,17.1-0.9,21.4-2.8
			c4.1-1.8,3.7-3,3.2-4.6c-0.4-1.3,0-2.8,0.3-4.2c0.1-0.5,0.3-1.3,0.3-1.7c0,0-0.2,0-0.2,0l-0.5-2.9c1.1-0.3,2.7-0.5,4.9-0.5
			c3.7,0,9.1,0.4,17.2,1.1c3.5,0.3,6.4,0.5,8.7,0.5c5.7,0,6.4-1,6.5-1.1c0.2-0.4-0.5-1.8-1-2.6c-0.6-1.2-1.3-2.6-1.5-4
			c0-0.2,0-0.4,0-0.6l0-0.1l0-0.1c0-0.2,0-0.3,0.1-0.4l0-0.1l0.1-0.2c0-0.1,0.1-0.2,0.1-0.3l0.1-0.1l0.1-0.1c0-0.1,0.1-0.2,0.2-0.3
			l0.1-0.1l0.1-0.1c0-0.1,0.1-0.1,0.2-0.2l0.1-0.1l0.1-0.1c0.1,0,0.2-0.1,0.3-0.2l0.1,0l0.1,0c0,0,0.2-0.1,0.3-0.1l0.1,0l0.1,0
			c0.1,0,0.2-0.1,0.4-0.1c0.5-0.1,1-0.1,1.7-0.1c0.8,0,1.7,0,2.7,0.1c1.4,0.1,3.1,0.2,5.1,0.2c4.6,0,9-0.5,13.7-1.4
			c0.4-0.1,0.7-0.1,1-0.2l0.9-0.2c0.7-0.2,1.5-0.3,2.3-0.5c3.3-0.8,6.7-1.9,10.1-3.2c2-0.8,4.5-1.2,7.6-1.2c6.6,0,14.7,1.7,23.4,3.5
			c8.6,1.8,17.4,3.7,24.5,3.7c0.4,0,0.8,0,1.2,0l2.8-0.1l0.8,2.8c-0.4,0.2-0.8,0.5-1.1,0.7c-0.6,0.4-0.8,0.8-0.8,0.9
			c0,0,0.2,1.3,5.1,3.1c3.4,1.3,5.1,2,6.4,2c1.2,0,2.5-0.6,5.1-1.7c1.2-0.6,2.6-0.8,3.9-0.8c5.1,0,9.8,3.9,12.3,7.8
			c0.6,1,1.5,1.5,2.7,1.5c2.1,0,5.2-1.4,8.7-3.9c1.2-0.8,2.4-1.3,3.7-1.3c1.5,0,2.9,0.6,4.5,1.7l0.1,0.1l0.1,0.1
			c0.4,0.4,0.8,0.8,1.1,1.2c1,1,1.8,1.9,3.2,3l0.1,0.1l0.1,0.1c0.3,0.3,0.6,0.6,0.9,0.9c2.4,2.2,3.9,2.6,4.8,2.7l0.2,0l0.2,0.1
			c1.4,0.6,2.8,0.9,4.1,0.9c1.7,0,3.2-0.5,4.4-1.5l1.3-1.1l0.9,1.4c0.2,0.3,0.3,0.6,0.4,0.8c0,0.1,0.2,0.3,0.5,0.7l0.3,0.3l0.1,0.4
			c0.7,2.5-0.5,4.3-1.2,5.4c-0.1,0.1-0.2,0.2-0.2,0.4c1.3,0.7,2.3,1,3.2,1c0.5,0,0.9-0.1,1.3-0.2c0.5-0.1,0.9-0.2,1.5-0.2
			c1.6,0,3.1,0.9,5,3.1c0.2,0.3,0.5,0.5,0.7,0.8c0.9,1.1,1.3,2.2,1.2,3.3c-0.1,0.6-0.4,1.5-1.5,2.3c-1.6,1.1-3.9,1.3-5.6,1.3
			c-2.6,0-5.4-0.5-7.6-1.5c-0.7-0.3-1.2-0.4-1.7-0.4c-0.6,0-0.8,0.2-1,0.5c-0.4,0.7-0.4,2,0,3.1c0.3,0.3,0.6,0.5,0.9,0.7
			c1.8,1.1,4.3,2.7,2.3,5.8c-0.7,1.1-1.8,1.8-3,2.5l0,0c-0.6,0.6-1.3,1.4-2.3,2.3c-0.2,0.2-0.3,0.3-0.4,0.5
			c-0.1,0.2-0.1,0.4-0.1,0.6c0.1,0.1,0.3,0.3,0.7,0.5c0.5-0.1,1.2-0.2,2-0.5c2.3-0.8,3.7-2.3,4.9-3.5c1-1,1.8-1.9,3-1.9
			c0.8,0,1.5,0.4,2.1,1.2c0.8,1.1,2.2,2.2,3.7,2.2c0.8,0,1.6-0.3,2.4-0.9c1.8-1.5,4.6-2.4,7-2.4c3,0,4.9,1.4,5.1,3.7
			c0.1,0.9,0,1.7,0,2.4c-0.1,2.2-0.1,2.7,2,3.3c0.9,0.3,3.6,1,4,3.3c0.3,2.3-2.3,4.2-4.2,5.5c-1.4,0.9-2.2,2.1-2.9,3.2
			c-0.9,1.4-2,3-4.1,3c-0.7,0-1.5-0.2-2.3-0.5c-1.7-0.7-2.7-1-3.4-1c-0.4,0-0.8,0.1-1.3,0.2c-0.5,0.1-1.1,0.3-2,0.4
			c-0.4,0-0.7,0.1-1.1,0.1c-3.1,0-5.6-2-6-4.8c0-0.1,0-0.1,0-0.2c-0.1-0.4-0.2-0.7-0.3-1.1c-0.1-0.3-0.2-0.8-0.3-1
			c-4.6,0-6.2-1.5-7.6-2.7c-0.9-0.8-1.5-1.3-3-1.6c-0.1,0-0.2,0-0.3,0c-0.7,0-1.2,0.6-2.1,1.9c-1.3,1.8-3.1,4.2-6.8,4.2
			c-2.6,0-5.8-1.2-9.8-3.7c-4.5-2.8-11.4-4.4-19.1-4.4c-7.4,0-13.3,1.5-14.4,3c-1.1,1.4-1,1.8-1,1.8c0.2,0.5,2.5,1,3.6,1.3
			c2.9,0.7,7,1.7,6.6,5.5c-0.2,1.6-0.7,3.2-1.4,4.7C289.5,419.6,285,425.8,273.6,425.8z M201.6,395.5c0.2,0,0.2,0.1,0.4,0.1
			c0.2,0,0.4,0.1,0.6,0.1c3.2,0.4,10.5,2.3,11.8,5c0.5,1,1,1.5,1.5,1.5c0.4,0,1.3-0.2,2.7-1.6c3.1-3,5.2-6.5,4.8-8
			c0-0.2-0.2-0.6-1.4-0.8c-3.9-0.8-6.5-2.2-7.8-4.3c-1.6-2.4-1.2-5.3-0.6-7.8c0.4-1.7,1.8-3.8,6.2-3.8c3.4,0,7.9,1.2,12.2,2.4
			c1.3,0.4,2.9,0.6,4.5,0.6c6.4,0,14.6-3,19.4-7.2c1.9-1.6,3.9-2.4,6.1-2.4c2.1,0,3.9,0.7,5.6,1.3c1.2,0.4,2.4,0.8,3.2,0.8
			c0.3,0,0.6-0.1,0.8-0.2c0.2-0.1,0.5-0.3,0.7-0.4c-0.2,0-0.4,0-0.6,0c-4.5,0-9-2.5-13.7-5.2c-1.1-0.6-2.1-1.2-3.2-1.8
			c-1.3-0.7-2.5-1.1-3.6-1.1c-2.4,0-4.2,1.8-6.3,3.8c-1.3,1.3-2.7,2.6-4.3,3.6c-3.1,1.9-8.7,3.2-14,3.2c-3.3,0-7.7-0.5-9.6-3.1
			c-1.9-2.5-0.8-4.3-0.2-5.5c0.6-1,0.8-1.4-1.4-3.1c-2-1.5-2.8-1.7-3.3-1.7c-0.3,0-0.6,0.1-1,0.2c-0.7,0.1-1.5,0.3-2.6,0.3
			c-1.6,0-3.4-0.3-5.6-1c-0.4-0.1-0.9-0.2-1.4-0.3c-0.2,0-0.4-0.1-0.7-0.1l-0.5-0.1c-0.1,0-0.2,0-0.3,0l-0.6-0.1c-0.3,0-0.6,0-0.9,0
			c-4.1,0-9.2,1.2-13.9,3.2c0,0-0.5,0.2-0.8,0.3c-0.3,0.1-0.5,0.2-0.7,0.3c-0.3,0.1-0.8,0.4-0.8,0.4c-0.2,0.1-0.6,0.3-0.6,0.3
			l-0.7,0.4l-0.7,0.4l-0.9,0.6l-0.5,0.3l-0.4,0.3l-0.4,0.3c-0.1,0.1-0.3,0.3-0.3,0.3c-0.1,0.1-0.2,0.2-0.2,0.3
			c-0.1,0.1-0.2,0.2-0.2,0.3c-1,1.4-0.8,2.8-0.4,3.7c0.9,2.1,3.4,3.8,6.3,4.2c0.6,0.1,1.2,0.1,1.8,0.1c2.4,0,4.8-0.6,7-1.1
			c1.8-0.4,3.3-0.8,4.7-0.8c0.6,0,1,0.1,1.5,0.2c1.9,0.6,3.3,2.1,3.4,3.8c0.1,1.5-0.6,3.6-4.5,5.4c-1.2,0.6-1.7,1-1.9,1.2
			c0.4,0.3,1.5,0.9,4.1,1.2c0.2,0,0.4,0.1,0.6,0.1c0.2,0,0.4,0.1,0.5,0.1l1.2,0.2v0.1c0.8,0.3,1.6,0.8,2,1.6
			c0.7,1.5-0.2,2.9-1.2,4.7c-0.2,0.3-0.4,0.6-0.5,0.9c-0.1,0.2-0.2,0.3-0.2,0.4v0.3l-0.2,0.3c-0.7,1.4-0.6,1.7-0.6,1.7
			c0,0,0,0,0.1,0.1l0.3,0.2c0.1,0,0.2,0.1,0.3,0.1l0,0.1l0.1,0.1v0.1L201.6,395.5z M291.6,369.6c3.5,0,7.3,2.1,10.4,3.8
			c0.9,0.5,1.8,1,2.5,1.3c0.2,0.1,0.8,0.3,2.4,0.3c5.6,0,13.8-2.7,15.4-4.2c-0.3,0-0.8,0.1-1.2,0.2c-0.6,0.1-1.3,0.3-2,0.3
			c-1.7,0-2.6-1-3.1-1.8c-1.1-1.9-4.2-2.5-9-3.5c-0.7-0.1-1.5-0.3-2.3-0.5c-0.7-0.1-1.3-0.2-2-0.2c-1.7,0-3.3,0.5-4.8,1
			c-1.4,0.5-2.9,0.9-4.5,0.9c-1.3,0-2.6-0.3-3.8-1.1c-1-0.6-2-0.9-2.9-0.9c-1.7,0-3.6,1-6.1,2.3c-1,0.5-2.1,1.2-3.4,1.8
			c0.9,0.2,1.7,0.6,2.5,1.2c1,0.6,2.2,1,3.5,1c1.6,0,3.3-0.5,5.1-1.3C289.3,369.8,290.4,369.6,291.6,369.6z"/>
	</g>
	<g id="XMLID_19_">
		<path id="XMLID_20_" fill="#8A8274" d="M356.4,339.2c-1,0-2-0.3-2.9-0.8c-1.5-0.9-3.1-1-4.7-1.1c-1.8-0.1-3.8-0.2-5.1-1.8h-0.2
			l-0.4-0.9c0-0.1,0-0.1-0.1-0.2l0-0.1l0,0c-0.1-0.2-0.1-0.4-0.2-0.6c-0.1-0.2-0.1-0.4-0.1-0.7c0-0.1,0-0.1,0-0.2
			c0-0.2-0.1-0.4-0.1-0.6c0-0.3,0-0.5,0-0.8c0-2.3-0.3-4.3-0.8-6c-1.1-3.3-3.2-5.3-5.6-5.3c-1.5,0-3.1,0.8-4.2,2.2
			c-2.1,2.7-5.9,4.5-9.5,4.5c-2.6,0-4.7-0.9-6-2.6c-1-1.4-2.1-3.9-1-8.2c1.2-4.8,2.5-8,4-9.8c0.5-0.7,1.1-1.3,1.8-1.6
			c-0.8-0.7-2-1.4-3.5-1.4c-0.9,0-1.8,0.3-2.7,0.9c-1.8,1.3-3.6,2-5.4,2c-3,0-5.7-1.7-8.3-5.2c-0.1-0.1-0.2-0.3-0.4-0.4
			c-1.2-1.1-3.6-1.8-6.6-1.8c-1.5,0-3.2,0.2-4.9,0.5c-0.6,0.1-1.3,0.2-1.9,0.2c-3.6,0-6.8-1.9-7.6-4.4c-0.5-1.6,0.2-3.2,1.8-4.2
			c0.3-0.2,0.6-0.4,1-0.6c2.7-1.7,6.7-4.4,11.2-4.4c2.1,0,4.1,0.6,6,1.7c2,1.2,3.8,1.8,5.3,1.8c2.1,0,2.8-1.2,3-1.6
			c0.4-0.8,1.3-1.8,3.5-1.8c1.4,0,3.3,0.4,5.8,1.3c0.1,0,0.3,0,0.4,0c5.7,0,11.4-3.2,12.2-4.8c0,0,0,0,0,0c-0.3-0.2-1.8-1-7.1-1
			c-1.4,0-2.9,0.1-4.5,0.2c-1.3,0.1-2.5,0.2-3.8,0.3c-0.9,0.1-1.7,0.1-2.6,0.2l-3.6,0.3l2.3-2.7c2.5-2.9,5-5.2,9-7l0.3-0.1l0.3,0
			c0.4,0,0.8,0,1.3,0c4,0,8.6,0.7,12.1,5.7c4.9,7,6.9,7.6,7.4,7.6c0.1,0,0.3,0,0.7-0.7c0.8-1.6,1-4.8-0.1-7.6
			c-0.6-1.5-1.8-3.5-4.1-4.4c-5.4-2.2-11.1-3.1-16.1-3.8l-1.4-0.2c-3.7-0.6-5.2-2.4-5.8-3.8c-0.9-2.1-0.3-4.7,1.6-7.2
			c2.5-3.3,5.2-4.9,8.3-4.9c1.5,0,3,0.4,4.5,1.1c1.2,0.6,2,0.7,2.5,0.7c0.6,0,0.8-0.2,0.8-0.2c0,0,0-0.1-0.1-0.2
			c-0.2-0.2-0.5-0.5-0.9-0.8c-0.9-0.8-2.2-1.9-2-3.5c0.2-1.7,2.1-2.8,3.6-3.5c0.1,0,0.6-0.3,0.6-0.3l0.2,0c0.1,0,0.3,0,0.5-0.1
			c2.5-0.6,4.1-0.9,5.5-0.9c2.2,0,3.8,0.9,5.7,2.4c0.2,0.2,0.6,0.4,1,0.4c0.5,0,0.9-0.4,1-0.7c0.7-0.9,1.1-2.7,0.5-4.4
			c-1.3-3.7,2.6-5.3,5.7-6.6c1.6-0.7,3.3-1.4,4.3-2.3c-0.3,0-0.5,0-0.8,0c-1.8,0-4.1,0-5.7-1.1c-2.1-1.5-3-2.1-4.6-2.1
			c-0.7,0-1.4,0.1-2.4,0.3c-0.6,0.1-1,0.3-1.4,0.4l-0.4,0.2l-0.5-0.1c-0.2,0-0.4-0.1-0.6-0.1c-1.1,0-1.9,0.8-3.2,2.1
			c-0.9,1-1.9,2-3.1,2.5l-1.5,0.6l-0.1-0.3c0,0-0.1,0-0.1,0c-0.9,0-1.8-0.3-2.7-0.8c-0.6-0.4-1.3-0.9-2-1.5l-0.1-0.1l-0.1-0.1
			c-1-1.2-2.1-3.1-2.1-4.8c0-0.6,0.1-1,0.1-1.4c0-0.1,0-0.3,0-0.4c-0.1-0.1-0.4-0.2-0.9-0.3c-1.6-0.4-2.8-1.7-3.3-3.6
			c-0.6-2.3-0.2-4.7,1.1-6c0.9-0.9,2.5-1.5,4.3-1.5c2.1,0,4.6,0.7,5.5,2.8c0.8,1.9,2,3.1,2.4,3.1c1.4-1.5,2.9-2.9,5.5-2.9
			c0.5,0,1,0,1.5,0.1c0.1,0,0.3,0,0.4,0c0.5,0,0.6-0.2,0.6-0.3c0.2-0.3,0.2-1.1-0.2-1.9c-0.2-0.4-0.7-0.5-1.5-0.5
			c-1.3,0-2.9,0.5-3.9,0.8c-0.3,0.1-0.6,0.1-1,0.1c-2.2,0-4.3-1.9-6.3-3.8c-0.4-0.4-0.9-0.8-1.3-1.2c-0.4-0.4-0.9-0.5-1.4-0.5
			c-1.2,0-2.8,0.9-4.4,2.4l-0.7,0.7c0,0-0.3,0.2-0.4,0.3c-0.1,0.1-0.2,0.2-0.3,0.3c-1.1,1.1-2.5,1.7-4.2,1.7c-1.1,0-2.1-0.2-3.1-0.4
			c-0.6-0.1-1.2-0.2-1.8-0.3c-3.8-0.4-3.5-4.4-3.4-5.8c0.1-0.6,0.1-1.3,0.2-1.9l0.1-0.5c0.5-4,8.2-4.3,10.6-4.3
			c1.3,0,4.4,0.1,6.2,0.9c0.6,0.3,1.1,0.4,1.5,0.5c0.6-0.1,1.9-0.3,2.4-0.4l0.1,0c0.7-0.2,1.4-0.4,2-0.7c0.4-0.2,0.4-0.4,0.4-0.6
			c0-0.3-0.2-0.6-0.4-0.8c-0.8-0.5-1.6-1.3-1.7-2.4c0-1,0.6-1.8,1.2-2.3c0.8-1.1,2.4-1.7,4.4-1.7c1.1,0,2.3,0.2,3.3,0.6
			c1.3,0.5,3.3,1,5.5,1c1.3,0,2.6-0.2,3.6-0.6l2-0.7l0.1,2.1c0,1.3-0.2,2.4-0.7,3.3c-0.3,0.7-0.8,1.4-1.5,2
			c-0.3,0.2-0.4,0.9-0.2,1.6c0.2,0.5,0.7,1.8,2.7,2.2c3.8,0.6,4.8,2.7,5.3,4.5c0.1,0.3,0.2,0.6,0.3,0.9c0.4,3,4.2,6.8,6.2,6.8
			c0.6,0,1.1-0.1,1.5-0.1c4.8,0,5.3,2.7,5.5,4.2c0.2,1.1,0.2,1.1,1.1,1.1c0,0,0,0,0,0c0.5,0,1.1-0.1,1.8-0.2
			c1.4-0.3,2.9-0.4,4.3-0.4c3.5,0,7.4,0.9,8.1,3.5c0.2,0.9,0.2,2.7-2.7,4.2c-0.4,0.2-0.8,0.4-1.3,0.6l-1.5,0.6
			c-2.2,0.9-4.7,1.9-4.8,2.4c0,0.1-0.1,0.6,1.5,2.6c2.5,1.3,5.5,2.1,7.9,2.2c5.7,0.2,8.8,1,12.7,2.2c2.8,0.8,5.2,1.9,7.3,2.8
			c2.4,1,4.4,1.9,5.6,1.9c0.5,0,0.6-0.1,0.7-0.2c0.2-0.2,0.6-0.8,0.5-1.1c-0.1-0.4-0.9-1.1-3-1.7c-2.6-0.7-3.5-2.7-3.3-4.3
			c0.2-1.8,1.9-3.7,4.9-3.7c0.1,0,0.3,0,0.4,0c0.5,0,1,0.1,1.5,0.1c1.4,0.1,2.8,0.2,4.2,0.2c2.6,0,4.3-0.4,5.2-1.2
			c0.9-0.8,2-1.4,3-1.9c0.7-0.4,1.6-0.9,2-1.2c0,0-0.1-0.1-0.1-0.1c-0.8-0.9-2-1.3-3.1-1.6c-1.2-0.3-2.8-0.8-2.9-2.5
			c0-1,0.3-2,1-2.7c0.5-0.5,1.5-1.2,3.1-1.2c0.9,0,1.9,0.2,3,0.6c2.3,0.8,5.7,1.6,8,1.6c0.3,0,0.6,0,0.8,0c0.7-0.1,1-0.3,1-0.3
			c0,0,0-0.1,0-0.2c-0.2-0.9-0.9-2-1.9-2.9c-0.3-0.3-0.7-0.6-1.1-0.9l-1.4-0.8l-0.1-0.2c-1.5-0.9-3.9-1.8-7-1.8
			c-1.8,0-3.6,0.3-5.4,0.9c-4.8,1.6-7.2,3-9.1,4.2c-2.2,1.3-3.8,2.3-7.1,2.3c-0.6,0-1.1,0-1.7,0l-0.2,0l-0.2,0
			c-4.3-0.9-6.4-3.6-6.3-5.8c0-1.1,0.4-1.8,0.8-2.2c0.6-0.7,1.6-1,2.8-1c0.7,0,1.5,0.1,2.2,0.4c0.1,0,0.1,0,0.2,0
			c0.2,0,0.5-0.3,0.9-0.5c0.6-0.4,1.3-1,2.3-1.2c0.4-0.1,0.9-0.2,1.5-0.2c1.8,0,3.9,0.6,5.4,1.2c0.3-0.5,0.7-1.7,0.8-2.6
			c0.2-2.1,1.5-3.4,3.9-4c0.4-0.1,0.7-0.2,1.1-0.3c0.8-0.2,1.7-0.5,2.9-0.5c1,0,2,0.2,3.2,0.6c0.1,0,0.1,0,0.2,0l0.2,0
			c0.2,0,0.4,0.1,0.6,0.1c0.1,0,0.3,0,0.4,0l0.1,0c0.3-0.2,0.6-1.2,0.9-2l0-0.1c0-0.1,0.1-0.5,0.1-0.5l0.2-0.3
			c0.1-0.1,0.1-0.3,0.2-0.4c0-0.3,0-0.6,0-1.1c0-0.2-0.1-0.4-0.2-0.7l-0.1-0.1l0-0.1c-0.2-0.7-0.7-1.2-1.5-1.9
			c-0.9-0.8-2.1-1.8-2.3-3.5c-0.2-1.9-0.4-2.3-2.5-2.3l-0.3,0c-2.1,0-2.7,0.5-3.9,2.3c-0.8,1.3-2.1,2-3.5,2c-1.8,0-3.3-1.2-3.6-2.8
			c-0.4,0.1-1.3,0.4-2.9,1.6c-0.8,0.5-1.1,0.9-1.2,1.1c0.3,0.3,0.9,0.7,1.4,1c1.3,0.8,3.4,2.2,2.5,4.4c-1.3,3.4-3.9,5.4-7.4,5.6
			c-0.4,0-0.7,0-1,0c-3.5,0-5.2-1.6-5.2-4.9c0-0.8-0.1-1.3-0.4-1.7c-0.2-0.2-0.5-0.3-0.9-0.3c-0.4,0-0.8,0.1-1.3,0.2
			c-2.1,0.7-4,1-5.7,1c-2.1,0-3.7-0.5-4.7-1.6c-0.6-0.6-1.4-1.8-1.3-3.7c0.1-2-3.1-3.3-5.7-3.7l-4.5-0.8l4-2.1
			c0.4-0.2,0.7-0.4,1.1-0.5c3.1-1.4,6.7-2.2,9.7-2.2c1.6,0,3,0.2,4,0.7c1.1,0.5,2.2,0.7,3.4,0.7c1.7,0,3-0.5,3.6-1.4
			c0.4-0.6,0.4-1.5-0.1-2.6c-0.6-1.4-2-2.3-4.6-2.8c-0.6,0.1-1.2,0.2-1.7,0.3c-1.4,0.4-2.5,0.6-3.5,0.6c-2.7,0-3.9-1.3-5.1-2.5
			c-0.4-0.4-0.7-0.8-1.2-1.1c-0.1-0.1-0.2-0.1-0.3-0.2c-0.3-0.1-0.6-0.1-0.9-0.1c-0.4,0-0.8,0-1.3,0.1c-0.7,0.2-1.7,0.5-2.8,0.9
			c-1.7,0.6-3.8,1.3-6.4,2c-1.2,0.3-2.4,0.5-3.4,0.5c-3.4,0-4.8-1.7-4.9-3.2c-0.2-1.7,1.2-3.2,3.1-3.6c1.1-0.2,1.6-0.5,1.8-0.7
			c-0.1-0.1-0.2-0.2-0.4-0.3l-0.1,0l-0.1-0.1c-0.9-0.5-1.3-1.4-1.1-2.4c0.7-2.7,6.8-5.2,11.2-5.2c0.4,0,0.9,0,1.3,0.1
			c0.9,0.1,1.7,0.1,2.4,0.1c2,0,3-0.4,4.7-1c0.8-0.3,1.8-0.7,3-1.1c-0.1-0.1-0.3-0.2-0.5-0.3c-3.6-2.1-5.5-4.3-5.3-6.4
			c0.1-1.7,1.5-3,3.9-3.9c1.6-0.6,2.5-1.8,2.3-3.2c-0.2-1.3-1.4-2.8-4.3-3.1c-5-0.4-7.5-3.4-7.8-5.9c-0.3-2.4,1.2-4.4,3.9-5.2
			c1.7-0.5,3.3-1.4,4.1-2.2l0.4-0.4l0.6,0c2.1,0,4.3-1.3,6.7-3.9c5.4-5.7,10.5-6.9,13.9-6.9c3.1,0,5.4,1,6.4,1.5
			c2.2,1.2,2.6,3,2.8,4.2c0.3,1.4,0.4,2.2,4.5,2.2c4.2,0,6.4,2.6,6.4,4.9c0,1.7-1.3,3.6-4,3.6c-0.5,0-1.1-0.1-1.7-0.2
			c-1.4-0.4-2.5-0.5-3.2-0.5c-0.2,0-0.3,0-0.4,0c0,0.2,0,0.5,0.1,1c0.1,1.1-0.3,2.2-1.1,3.1c-1,1.2-2.7,1.8-4.4,1.8
			c-1.3,0-2.6-0.4-3.8-1.1c-1.5-0.9-2.8-1.4-4.1-1.4c-0.3,0-0.5,0-0.8,0.1c-1.7,0.3-2.1,1.1-2.3,2.2c-0.6,4.2-0.4,4.4,1,5.8
			c0.9,1,2.3,2.4,4.2,5.4c1.9,3.1,3.9,3.3,6.7,3.6c3.2,0.3,7.3,0.6,11.8,5.6c5.5,6.1,9,9,14.6,10.1c2,0.4,4.2,0.5,7.2,0.5
			c4.1,0,6.6-0.6,8.8-1.2c1.7-0.4,3.2-0.8,5.1-0.8c2,0,4.1,0.4,6.7,1.4l0.2,0.1l0.1,0.1c0.7,0.5,1.4,0.9,2.1,1.5
			c3.2,2.5,5.3,3.5,7,3.5c1.5,0,2.9-0.8,4.9-2l2.2-1.3v49l-0.8,0.4c-2.7,1.5-7,2.2-12.8,2.2c-6.2,0-11.8-0.9-12-0.9l-0.3,0l-3.9-2.1
			c-0.1,0-0.2,0-0.3,0h-0.6l0,0c-0.3,0.2-0.7,0.5-1.2,0.6l-0.2,0.1l-0.2,0c-1.3,0.2-2.5,0.5-3.6,0.9l-0.1,0l-0.1,0
			c-2.4,0.6-3.4,1.2-3.6,2.4l0,0.2l-0.1,0.2c-0.9,1.8-1.1,3.3-0.5,4.3c1,1.7,4.1,2.7,8.4,2.8c6.1,0.2,20.5,1,23.4,5.7
			c0.8,1.3,0.8,2.7,0.1,4.1c-1.7,3.1-7.1,5.3-9.3,5.3c-0.6,0-1.3-0.1-2.1-0.2c-1-0.1-2.2-0.3-3.4-0.3c-2,0-3.3,0.4-4.2,1.3
			c-0.6,0.6-1.3,1.3-1.9,1.9c-2.8,2.9-5.4,5.6-8,5.6c-0.2,0-0.4,0-0.6,0c-0.9-0.1-2.1-0.7-3.5-1.4c-1.2-0.6-2.5-1.2-3.9-1.7
			c-1.6-0.6-2.9-0.8-4.1-0.8c-1,0-1.9,0.2-2.7,0.6c-0.5,0.3-1.1,0.6-1.7,0.8c-4.4,2.2-9.3,4.8-13.7,4.8c-1.2,0-2.3-0.2-3.2-0.6
			c-2.2-0.9-3.9-1.3-5.5-1.3c-1.7,0-3.2,0.5-4.7,1.5c-0.3,0.2-0.6,0.3-1,0.5c-1.3,0.8-3.5,1.1-6.8,1.1c-3.6,0-7.5-0.5-9.1-0.8
			c-0.5-0.1-1.2-0.2-1.8-0.2c-2.1,0-2.9,0.3-3.1,0.4l-0.1,0.1c-1,0.5-2.5,1.4-3.5,2c3.5,0.6,8.7,1.5,13.5,4c0.9,0.5,2.1,0.7,3.8,0.7
			c0.8,0,1.7,0,2.6-0.1c1-0.1,2.1-0.1,3.1-0.1c2.7,0,6.3,0.3,10.2,2.7c3.2,2,6.3,4.7,9.3,7.3c4.2,3.7,8.2,7.1,11.9,7.9
			c1.2,0.3,2.7,0.4,4.6,0.4c0.8,0,1.6,0,2.4,0l1.4-0.1c1.2-0.1,2.4-0.1,3.5-0.1c3.2,0,6.6,0.4,7.7,3.2c0.5,1.2,0.3,2.6-0.5,3.7
			c-2.1,3.1-7.8,4.8-12.1,4.9l-0.3,0c-1.6,0-3.1-0.2-4.4-0.6c-1.7-0.6-3.5-1.4-5.2-2.1c-3.2-1.5-6.6-3-9.8-3c-1.1,0-2.1,0.2-3.1,0.5
			c-4.3,1.5-7.8,2.5-10.8,2.5c-2.1,0-3.9-0.5-5.5-1.4c-1.8-1.1-4.4-1.8-6.8-1.8c-1.7,0-3.2,0.4-3.9,1c-1.1,0.9-2.7,1-3.7,1
			c-1.2,0-2.5-0.2-3.8-0.3c-1.2-0.1-2.4-0.3-3.4-0.3c-1.3,0-1.6,0.3-1.6,0.3c-0.4,0.7-1,1.7-0.9,2.1c0.1,0.2,0.5,0.8,2.7,2
			c3.2,1.6,3.2,4,3.3,5.6c0,1.4,0.1,1.8,1.2,2.3l0.3,0.1c5.1,2,10.4,4.1,9.8,7.8c-0.5,3.2-4.7,4.6-8.4,4.6c-0.9,0-1.9-0.1-2.7-0.3
			c-1.3-0.3-2.9-0.5-4.2-0.5c-2.4,0-3.6,0.8-4.3,2.9c-1.9,5.7-5.1,6.2-8,6.2c-0.2,0-0.4,0-0.6,0c-0.1,0-0.2,0-0.3,0l-0.3,0
			c-0.2,0-0.3,0.1-0.5,0.1c-0.2,0.1-0.4,0.1-0.6,0.2l-0.1,0c-0.1,0-0.1,0-0.2,0.1l-0.3,0.1h-0.2c-0.1,0.1-0.2,0.1-0.2,0.1
			c0,0,0,0,0,0c0,0,1.3,1.4,1.3,1.4l-1.6,1C359.1,338.5,357.8,339.2,356.4,339.2z M457.5,219c1.5,0,2.8,0.7,3.6,2
			c1.1,1.6,1.9,2.6,4.5,2.6c4.1,0,4.6-1.5,5.3-3.3c0.1-0.2,0.2-0.5,0.3-0.7l0.1-0.3l0.2-0.2c1.4-1.4,2.1-2.1,1-4.8
			c-0.4-1.1-0.8-1.1-1-1.1c-0.4,0-0.9,0.1-1.5,0.3c-0.8,0.2-1.8,0.4-2.8,0.4c-1.9,0-3.6-0.7-5.1-2.3c-1.3-1.3-2.4-2.7-3.4-4
			c-2.7-3.4-4.7-5.9-10-6.2c-0.2,0-0.5,0-0.7,0c-2.4,0-2.8,0.6-3.2,1.4c-0.3,0.6-1,1.8-2.6,1.8c-1,0-2.2-0.4-4.2-1.5
			c-2.2-1.2-3.5-1.4-4.3-1.4c-0.5,0-1,0.1-1.2,0.5c-0.2,0.5-0.1,1.4,0.8,2.5c1,1.2,1.7,1.3,2.5,1.3l0.4,0l0.3,0.2
			c0.5,0.3,1,0.7,1.5,1.2c0.8,0.9,1.2,1.9,1.6,2.8c0.6,1.5,0.9,2.1,1.8,2.3c0.1,0,0.3,0,0.4,0c0.3,0,0.5-0.1,0.9-0.6
			c0.5-0.5,1.3-1.3,2.5-1.3c0.3,0,0.7,0.1,1,0.2c0.6,0.2,1.2,0.2,1.8,0.3c1.2,0.1,2.7,0.1,3.8,1.7c1.9,2.5,1.8,4.8-0.2,7
			c0.7,0.3,1.2,0.4,1.4,0.4c0.1,0,0.3,0,0.4,0C455.1,219.4,456.4,219,457.5,219z"/>
	</g>
	<g id="XMLID_17_">
		<path id="XMLID_18_" fill="#8A8274" d="M470,473.8c-11,0-25.6-2.8-33.7-5.5c-3.6-1.2-6.1-2.4-7.4-3.5c-0.5-0.5-1.1-0.9-1.7-1.4
			c-2.3-1.9-4.6-3.8-5.8-5.7c-0.9-1.5-1.1-2.9-0.5-4.2c1.1-2.3,4.7-3.7,11.5-4.6c0.6-0.1,1.2-0.1,1.8-0.2l0.1,0l0.1,0
			c0.6,0,14.2,0.2,18.6,2.9c1.4,0.9,3.5,1.4,5,1.6c-0.5-0.8-0.3-1.5-0.2-1.9c0.7-1.8,3.4-2,5-2l0.2,0l1.5,0.1c1.8,0.2,5.9,1,8.1,4
			c0.5,0.7,1.1,1,1.8,1c1.5,0,3.4-1.4,4.5-2.8l2.7-3.5v23.8l-0.9,0.4C478.3,473.2,474.8,473.8,470,473.8z"/>
	</g>
	<g id="XMLID_14_">
		<path id="XMLID_16_" fill="#8A8274" d="M404.6,447.8c-2.7,0-5.5-0.5-8-1.5c-2.9-1.1-5.5-2.8-7.5-5.1l-0.1-0.1
			c-0.1-0.1-0.2-0.3-0.4-0.4c-1.6-1.9-3-2.8-4.3-2.8c-1,0-1.9,0.5-2.8,1.1c-1.1,0.6-2.1,1.2-3.4,1.2c-1.4,0-2.7-0.8-3.9-2.4
			l-0.1-0.1l-0.1-0.1c-0.4-0.8-0.7-1.6-0.9-2.5l0-0.1l0-0.1c-0.2-2.1,0.6-4.2,1.3-6.1c1.4-3.8,1.3-4.6-0.5-5.3c-1.5-0.6-3-1-4.5-1.3
			l-1.4-0.3l0.3-1.5l0-0.2l0-0.1c0-0.1,0.1-0.2,0.1-0.3l0-0.1l0-0.1c0.9-3.5,3.1-5.5,5.9-5.5c1.2,0,2.5,0.4,3.7,1.2
			c1.3,0.9,2.6,1.3,3.6,1.3c1,0,1.8-0.4,2.2-1.3c0.6-1.1,2-2.4,5.2-2.4c2.3,0,5.2,0.7,8.7,2c0.8,0.3,1.3,0.4,1.6,0.4
			c0.2,0,0.2,0,0.2,0c0.2-0.3,0.2-1.6-1.3-5.7l-0.1-0.2c-0.6-1.7-0.6-3.2,0.2-4.4c1.1-1.7,3.5-2.5,7.5-2.7c1.8-0.1,3.3-0.5,4.4-1.1
			c-0.9-0.3-1.9-0.4-3-0.4c-0.4,0-0.9,0-1.3,0.1c-1,0.1-1.8,0.1-2.6,0.1c-3.2,0-4.3-1.1-5.4-2.5l-0.2-0.2c-0.8-1.1-2-2.6-4.9-4.5
			c-0.9-0.6-1.5-1.6-1.4-2.7c0-0.7,0.3-2,2-3l0.2-0.1l0.2,0c0.2,0,0.4-0.1,0.6-0.2c0.7-0.2,1.4-0.3,2-0.3c1.7,0,2.8,0.7,3.6,1.2
			c0.2,0.1,0.6,0.3,0.7,0.4c0,0,0,0,0.1-0.1c1.2-0.9,2.5-1.4,3.8-1.6c0.4-0.1,0.8-0.2,1.5-0.2c0.7,0,1.6,0.1,3,0.2
			c5.8,0.6,9.5,2.7,9.7,5.7c0.1,1.1,0.5,4.6,2.8,4.6c0.2,0,0.5,0,0.7-0.1c1.5-0.3,2.9-0.8,4.3-1.3c2-0.7,3.7-1.3,5.3-1.3
			c0.7,0,1.4,0.1,2,0.4c1.5,0.7,3.3,1.5,3.4,3.3c0.1,1.5-1.3,2.6-2.3,3.2l-0.1,0.1c-0.5,0.3-1.1,0.6-1.7,1c-0.4,0.2-0.8,0.4-1.2,0.6
			c-2.2,2.5-1.7,5.9-1.2,9.5c0.3,2,0.5,4,0.3,5.9c-0.4,4-4.1,6.7-9.3,6.7c0,0,0,0,0,0c-3.6,0-7.1-1.3-9.7-3.5
			c-1.8-1.5-4.7-2.4-8.1-2.5c-0.2,0-0.3,0-0.5,0c-5.2,0-9.7,1.7-11.1,3.4c-1.1,1.3-1.1,1.8-1.1,1.8c0.5,0.6,3.7,1.3,9.7,1.8
			c1.1,0.1,2.2,0.2,3.2,0.3c8.8,0.8,12.8,1.2,15,7.6c0.1,0.4,0.2,0.6,0.3,0.8l1.8,0.1l-1.6,2.7c-0.9,1.6-1.9,3.3-3.1,4.9
			C414.6,446,409.9,447.8,404.6,447.8z"/>
	</g>
	<g id="XMLID_7_">
		<path id="XMLID_8_" fill="#8A8274" d="M356.4,670.7c-1,0-2-0.3-2.9-0.8c-1.5-0.9-3.1-1-4.7-1.1c-1.9-0.1-3.9-0.2-5.2-1.9h-0.1
			l-0.4-1c-0.2-0.4-0.3-0.8-0.4-1.3l0-0.1c0-0.2-0.1-0.5-0.1-0.7c0-0.3,0-0.6,0-0.9c0-2.3-0.3-4.3-0.8-6c-1.1-3.3-3.2-5.3-5.6-5.3
			c-1.5,0-3.1,0.8-4.2,2.2c-2.1,2.7-5.9,4.5-9.5,4.5c-2.6,0-4.7-0.9-6-2.6c-1.1-1.4-2.1-3.9-1-8.2c1.2-4.8,2.5-8,4-9.8
			c0.5-0.7,1.1-1.3,1.8-1.6c-0.8-0.7-2-1.4-3.5-1.4c-0.9,0-1.8,0.3-2.7,0.9c-1.8,1.3-3.6,2-5.4,2c-3,0-5.7-1.7-8.3-5.2
			c-0.1-0.1-0.2-0.3-0.4-0.4c-1.2-1.1-3.6-1.8-6.6-1.8c-1.5,0-3.2,0.2-4.9,0.5c-0.6,0.1-1.3,0.2-1.9,0.2c-3.6,0-6.8-1.9-7.6-4.4
			c-0.5-1.6,0.2-3.2,1.8-4.2c0.3-0.2,0.6-0.4,1-0.6c2.7-1.7,6.7-4.4,11.2-4.4c2.1,0,4.1,0.6,6,1.7c2,1.2,3.8,1.8,5.3,1.8
			c2.1,0,2.8-1.2,3-1.6c0.4-0.8,1.3-1.8,3.5-1.8c1.4,0,3.3,0.4,5.8,1.3c0.1,0,0.3,0,0.4,0c5.7,0,11.4-3.2,12.2-4.8c0,0,0,0,0,0
			c-0.3-0.2-1.8-1-7.1-1c-1.4,0-2.9,0.1-4.5,0.2c-1.3,0.1-2.5,0.2-3.8,0.3c-0.9,0.1-1.8,0.1-2.6,0.2l-3.6,0.2l2.3-2.7
			c2.5-2.9,5-5.2,9-7l0.3-0.1l0.3,0c0.4,0,0.8,0,1.3,0c4,0,8.6,0.7,12.1,5.7c4.9,7,6.9,7.6,7.4,7.6c0.1,0,0.3,0,0.7-0.7
			c0.8-1.6,1-4.8-0.1-7.6c-0.6-1.5-1.8-3.5-4.1-4.4c-5.4-2.2-11.1-3.1-16.1-3.8l-1.4-0.2c-3.7-0.6-5.2-2.4-5.8-3.8
			c-0.9-2.1-0.3-4.7,1.6-7.2c2.5-3.3,5.2-4.9,8.3-4.9c1.5,0,3,0.4,4.5,1.1c1.2,0.6,2.1,0.7,2.5,0.7c0.6,0,0.8-0.2,0.8-0.2
			c0,0,0-0.1-0.1-0.2c-0.2-0.2-0.5-0.5-0.9-0.8c-0.9-0.8-2.2-1.9-2-3.5c0.2-1.7,2.1-2.8,3.6-3.5l0.6-0.3l0.2,0c0.1,0,0.3,0,0.5-0.1
			c2.5-0.6,4.1-0.9,5.5-0.9c2.2,0,3.8,0.9,5.7,2.4c0.2,0.2,0.6,0.4,1,0.4c0.5,0,0.9-0.4,1-0.7c0.7-0.9,1.1-2.7,0.5-4.4
			c-1.3-3.7,2.6-5.3,5.7-6.6c1.6-0.7,3.3-1.4,4.3-2.3c-0.3,0-0.5,0-0.8,0c-1.8,0-4.1,0-5.7-1.2c-2.1-1.5-3-2.1-4.6-2.1
			c-0.7,0-1.4,0.1-2.4,0.3c-0.6,0.1-1,0.3-1.4,0.4l-0.4,0.2l-0.5-0.1c-0.2,0-0.4-0.1-0.6-0.1c-1.1,0-1.9,0.8-3.2,2.1
			c-0.9,1-1.9,2-3.1,2.5l-1.5,0.6l-0.1-0.3c0,0-0.1,0-0.1,0c-0.9,0-1.8-0.3-2.7-0.8c-0.6-0.4-1.3-0.9-2-1.5l-0.1-0.1l-0.1-0.1
			c-1-1.2-2.1-3.1-2.1-4.8c0-0.5,0.1-1,0.1-1.4c0-0.1,0-0.3,0-0.4c-0.1-0.1-0.4-0.2-0.9-0.3c-1.6-0.4-2.8-1.7-3.3-3.6
			c-0.6-2.3-0.2-4.7,1.1-6c0.9-0.9,2.5-1.5,4.3-1.5c2.1,0,4.6,0.7,5.5,2.8c0.8,1.9,2,3.1,2.4,3.1c1.4-1.5,2.9-2.9,5.5-2.9
			c0.5,0,1,0,1.5,0.1c0.1,0,0.3,0,0.4,0c0.5,0,0.6-0.2,0.6-0.3c0.2-0.3,0.2-1.1-0.2-1.9c-0.2-0.4-0.7-0.5-1.5-0.5
			c-1.3,0-2.9,0.5-3.9,0.8c-0.3,0.1-0.6,0.1-1,0.1c-2.2,0-4.3-1.9-6.3-3.8c-0.4-0.4-0.9-0.8-1.3-1.2c-0.4-0.4-0.9-0.5-1.4-0.5
			c-1.2,0-2.8,0.9-4.4,2.4l-0.7,0.7c0,0-0.3,0.2-0.4,0.3c-0.1,0.1-0.2,0.2-0.3,0.3c-1.1,1.1-2.5,1.7-4.2,1.7c-1.1,0-2.1-0.2-3.1-0.4
			c-0.6-0.1-1.2-0.2-1.8-0.3c-3.8-0.4-3.5-4.4-3.4-5.8c0.1-0.6,0.1-1.3,0.2-1.9l0.1-0.5c0.5-4,8.2-4.3,10.6-4.3
			c1.3,0,4.4,0.1,6.2,0.9c0.6,0.3,1.1,0.4,1.5,0.5c0.6-0.1,1.9-0.3,2.4-0.4l0.1,0c0.7-0.2,1.4-0.4,2-0.7c0.4-0.2,0.4-0.4,0.4-0.6
			c0-0.3-0.2-0.6-0.4-0.8c-0.8-0.5-1.6-1.3-1.7-2.4c0-1,0.6-1.8,1.2-2.3c0.8-1.1,2.4-1.7,4.4-1.7c1.1,0,2.3,0.2,3.3,0.6
			c1.3,0.5,3.3,1,5.5,1c1.3,0,2.6-0.2,3.6-0.6l2-0.7l0.1,2.1c0,1.3-0.2,2.4-0.7,3.3c-0.3,0.7-0.8,1.4-1.5,2
			c-0.3,0.2-0.4,0.9-0.2,1.6c0.2,0.5,0.7,1.8,2.7,2.2c3.8,0.6,4.8,2.7,5.3,4.5c0.1,0.3,0.2,0.6,0.3,0.9c0.4,3,4.2,6.8,6.2,6.8
			c0.6,0,1.1-0.1,1.5-0.1c4.8,0,5.3,2.7,5.5,4.2c0.2,1.1,0.2,1.1,1.1,1.1c0,0,0,0,0,0c0.5,0,1.1-0.1,1.8-0.2
			c1.4-0.3,2.9-0.4,4.3-0.4c3.5,0,7.4,0.9,8.1,3.5c0.2,0.9,0.2,2.7-2.7,4.2c-0.4,0.2-0.8,0.4-1.3,0.6l-1.5,0.6
			c-2.2,0.9-4.7,1.9-4.8,2.4c0,0.1-0.1,0.6,1.5,2.6c2.5,1.3,5.5,2.1,7.9,2.2c5.7,0.2,8.8,1,12.7,2.2c2.8,0.8,5.2,1.9,7.3,2.8
			c2.4,1,4.4,1.9,5.6,1.9c0.5,0,0.6-0.1,0.7-0.2c0.2-0.2,0.6-0.8,0.5-1.1c-0.1-0.4-0.9-1.1-3-1.7c-2.6-0.7-3.5-2.7-3.3-4.3
			c0.2-1.8,1.9-3.7,4.9-3.7c0.1,0,0.3,0,0.4,0c0.5,0,1,0.1,1.5,0.1c1.4,0.1,2.8,0.2,4.2,0.2c2.6,0,4.3-0.4,5.2-1.2
			c0.9-0.8,2-1.4,3-1.9c0.7-0.4,1.6-0.9,2-1.2c0,0-0.1-0.1-0.1-0.1c-0.8-0.9-2-1.3-3.1-1.6c-1.2-0.3-2.8-0.8-2.9-2.5
			c0-1,0.3-2,1-2.7c0.5-0.5,1.5-1.2,3.1-1.2c0.9,0,1.9,0.2,3,0.6c2.3,0.8,5.7,1.6,8,1.6c0.3,0,0.6,0,0.8,0c0.7-0.1,1-0.3,1-0.3
			c0,0,0-0.1,0-0.2c-0.2-0.9-0.9-2-1.9-2.9c-0.3-0.3-0.7-0.6-1.1-0.9l-1.4-0.8l-0.1-0.2c-1.5-0.9-3.9-1.8-7-1.8
			c-1.8,0-3.6,0.3-5.4,0.9c-4.8,1.6-7.2,3-9.1,4.2c-2.2,1.3-3.8,2.3-7.1,2.3c-0.6,0-1.1,0-1.7,0l-0.2,0l-0.2,0
			c-4.3-0.9-6.4-3.6-6.3-5.8c0-1.1,0.4-1.8,0.8-2.2c0.6-0.7,1.6-1,2.8-1c0.7,0,1.5,0.1,2.2,0.4c0.1,0,0.1,0,0.2,0
			c0.2,0,0.5-0.3,0.9-0.5c0.6-0.4,1.3-1,2.3-1.2c0.4-0.1,0.9-0.2,1.5-0.2c1.8,0,3.9,0.6,5.4,1.2c0.3-0.5,0.7-1.7,0.8-2.6
			c0.2-2.1,1.5-3.4,3.9-4c0.4-0.1,0.7-0.2,1.1-0.3c0.8-0.2,1.7-0.5,2.9-0.5c1,0,2,0.2,3.2,0.6c0.1,0,0.3,0.1,0.3,0.1l0.1,0
			c0.2,0,0.4,0.1,0.6,0.1c0.1,0,0.3,0,0.4,0c0.4-0.2,0.7-1.2,1-2l0-0.1c0-0.1,0.1-0.5,0.1-0.5l0.2-0.3c0.1-0.1,0.1-0.3,0.2-0.4
			c0-0.3,0-0.6,0-1.1c0-0.2-0.1-0.4-0.2-0.7l-0.1-0.1l0-0.1c-0.2-0.7-0.7-1.2-1.5-1.9c-0.9-0.8-2.1-1.8-2.3-3.5
			c-0.2-1.9-0.4-2.3-2.5-2.3l-0.3,0c-2.1,0-2.7,0.5-3.9,2.3c-0.8,1.3-2.1,2-3.5,2c-1.8,0-3.3-1.2-3.6-2.8c-0.4,0.1-1.3,0.4-2.9,1.6
			c-0.8,0.5-1.1,0.9-1.2,1.1c0.3,0.3,0.9,0.7,1.4,1c1.3,0.8,3.4,2.2,2.5,4.4c-1.3,3.4-3.9,5.4-7.4,5.6c-0.4,0-0.7,0-1,0
			c-3.5,0-5.2-1.6-5.2-4.9c0-0.8-0.1-1.3-0.4-1.7c-0.2-0.2-0.5-0.3-0.9-0.3c-0.4,0-0.8,0.1-1.3,0.2c-2.1,0.7-4,1-5.7,1
			c-2.1,0-3.7-0.5-4.7-1.6c-0.6-0.6-1.4-1.8-1.3-3.7c0.1-2-3.1-3.3-5.7-3.7l-4.4-0.8l4-2.1c0.4-0.2,0.7-0.4,1.1-0.5
			c3.1-1.4,6.7-2.2,9.7-2.2c1.6,0,3,0.2,4,0.7c1.1,0.5,2.2,0.7,3.4,0.7c1.7,0,3-0.5,3.6-1.4c0.4-0.6,0.4-1.5-0.1-2.6
			c-0.6-1.4-2-2.3-4.6-2.8c-0.6,0.1-1.2,0.2-1.7,0.3c-1.4,0.4-2.5,0.6-3.5,0.6c-2.7,0-3.9-1.3-5.1-2.5c-0.4-0.4-0.7-0.8-1.2-1.1
			c-0.1-0.1-0.2-0.1-0.3-0.2c-0.3-0.1-0.6-0.1-0.9-0.1c-0.4,0-0.8,0-1.3,0.1c-0.7,0.2-1.7,0.5-2.8,0.9c-1.7,0.6-3.8,1.3-6.4,2
			c-1.2,0.3-2.4,0.5-3.4,0.5c-3.4,0-4.8-1.7-4.9-3.2c-0.2-1.7,1.2-3.2,3.1-3.6c1.1-0.2,1.6-0.5,1.8-0.7c-0.1-0.1-0.2-0.2-0.4-0.3
			l-0.1,0l-0.1,0c-0.9-0.5-1.3-1.5-1.1-2.5c0.7-2.7,6.8-5.2,11.2-5.2c0.4,0,0.9,0,1.3,0.1c0.9,0.1,1.7,0.1,2.4,0.1c2,0,3-0.4,4.7-1
			c0.8-0.3,1.8-0.7,3-1.1c-0.1-0.1-0.3-0.2-0.5-0.3c-3.6-2.1-5.5-4.3-5.3-6.4c0.1-1.7,1.5-3,3.9-3.9c1.6-0.6,2.5-1.8,2.3-3.2
			c-0.2-1.3-1.4-2.8-4.3-3.1c-4.9-0.4-7.5-3.4-7.8-5.9c-0.3-2.4,1.2-4.4,3.9-5.2c1.7-0.5,3.3-1.4,4.1-2.2l0.4-0.4l0.6,0
			c2.1,0,4.3-1.3,6.7-3.9c5.4-5.7,10.5-6.9,13.9-6.9c3.1,0,5.4,1,6.4,1.5c2.2,1.2,2.6,3,2.8,4.2c0.3,1.4,0.4,2.2,4.5,2.2
			c4.2,0,6.4,2.6,6.4,5c0,1.7-1.3,3.6-4,3.6c-0.5,0-1.1-0.1-1.7-0.2c-1.4-0.4-2.5-0.5-3.2-0.5c-0.2,0-0.3,0-0.4,0c0,0.2,0,0.5,0.1,1
			c0.1,1.1-0.3,2.2-1.1,3.1c-1,1.2-2.7,1.8-4.4,1.8c-1.3,0-2.6-0.4-3.8-1.1c-1.5-0.9-2.8-1.4-4.1-1.4c-0.3,0-0.5,0-0.8,0.1
			c-1.7,0.3-2.1,1.1-2.3,2.2c-0.6,4.2-0.4,4.4,1,5.8c0.9,1,2.3,2.4,4.2,5.4c1.9,3.1,3.9,3.3,6.7,3.6c3.2,0.3,7.3,0.6,11.8,5.6
			c5.5,6.1,9,9,14.6,10.1c2,0.4,4.2,0.5,7.2,0.5c4.1,0,6.6-0.6,8.8-1.2c1.7-0.4,3.2-0.8,5.1-0.8c2,0,4.1,0.4,6.7,1.4l0.2,0.1
			l0.1,0.1c0.7,0.5,1.4,0.9,2.1,1.5c3.2,2.5,5.3,3.5,7,3.5c1.5,0,2.9-0.8,4.9-2l2.2-1.3v49l-0.8,0.4c-2.7,1.5-7,2.2-12.8,2.2
			c-6.2,0-11.8-0.9-12-0.9l-0.3,0l-3.9-2.1c-0.1,0-0.2,0-0.3,0h-0.6l0,0c-0.3,0.3-0.7,0.5-1.2,0.7l-0.2,0.1l-0.2,0
			c-1.3,0.2-2.5,0.5-3.6,0.9l-0.1,0l-0.1,0c-2.4,0.6-3.4,1.2-3.6,2.4l0,0.2l-0.1,0.2c-0.9,1.8-1.1,3.3-0.5,4.3
			c1,1.7,4.1,2.7,8.4,2.8c6.1,0.2,20.5,1,23.4,5.7c0.8,1.3,0.8,2.7,0.1,4.1c-1.7,3.1-7.1,5.3-9.3,5.3c-0.6,0-1.3-0.1-2.1-0.2
			c-1-0.1-2.2-0.3-3.4-0.3c-2,0-3.3,0.4-4.2,1.3c-0.6,0.6-1.3,1.3-1.9,1.9c-2.8,2.9-5.4,5.6-8,5.6c-0.2,0-0.4,0-0.6,0
			c-0.9-0.1-2.1-0.7-3.5-1.4c-1.2-0.6-2.5-1.2-3.9-1.7c-1.6-0.6-2.9-0.8-4.1-0.8c-1,0-1.9,0.2-2.7,0.6c-0.5,0.3-1.1,0.6-1.7,0.8
			c-4.4,2.2-9.3,4.8-13.7,4.8c-1.2,0-2.3-0.2-3.2-0.6c-2.2-0.9-3.9-1.3-5.5-1.3c-1.7,0-3.2,0.5-4.7,1.5c-0.3,0.2-0.6,0.3-1,0.5
			c-1.3,0.8-3.5,1.1-6.8,1.1c-3.6,0-7.5-0.5-9.1-0.8c-0.5-0.1-1.2-0.2-1.8-0.2c-2.1,0-2.9,0.3-3.1,0.4l-0.1,0.1
			c-1,0.5-2.5,1.4-3.5,2c3.5,0.6,8.7,1.5,13.5,4c0.9,0.5,2.1,0.7,3.8,0.7c0.8,0,1.7,0,2.6-0.1c1-0.1,2.1-0.1,3.1-0.1
			c2.7,0,6.3,0.3,10.2,2.7c3.2,2,6.3,4.7,9.3,7.3c4.2,3.7,8.2,7.1,11.9,7.9c1.2,0.3,2.7,0.4,4.6,0.4c0.8,0,1.6,0,2.4,0l1.4-0.1
			c1.2,0,2.4-0.1,3.5-0.1c3.2,0,6.6,0.4,7.7,3.2c0.5,1.2,0.3,2.6-0.5,3.7c-2.1,3.1-7.8,4.8-12.1,4.9l-0.3,0c-1.6,0-3.1-0.2-4.4-0.6
			c-1.7-0.6-3.5-1.4-5.2-2.1c-3.2-1.5-6.6-3-9.8-3c-1.1,0-2.1,0.2-3.1,0.5c-4.3,1.5-7.8,2.5-10.8,2.5c-2.1,0-3.9-0.5-5.5-1.4
			c-1.8-1.1-4.4-1.8-6.8-1.8c-1.7,0-3.2,0.4-3.9,1c-1.1,0.9-2.7,1-3.7,1c-1.2,0-2.5-0.2-3.8-0.3c-1.2-0.1-2.4-0.3-3.4-0.3
			c-1.3,0-1.6,0.3-1.6,0.3c-0.4,0.7-1,1.7-0.9,2.1c0.1,0.2,0.5,0.8,2.7,2c3.2,1.6,3.2,4,3.3,5.6c0,1.4,0.1,1.8,1.2,2.3l0.3,0.1
			c5.1,2,10.4,4.1,9.8,7.8c-0.5,3.2-4.7,4.6-8.4,4.6c-0.9,0-1.9-0.1-2.7-0.3c-1.3-0.3-2.9-0.5-4.2-0.5c-2.4,0-3.6,0.8-4.3,2.9
			c-1.9,5.7-5.1,6.2-8,6.2c-0.2,0-0.4,0-0.6,0c-0.2,0-0.4,0.1-0.6,0.1l-0.1,0c-0.3,0.1-0.8,0.2-1.1,0.3l-0.3,0.1h0
			c-0.1,0.1-0.2,0.1-0.3,0.2l-0.1,0.1l0,0c0,0,1.3,1.4,1.3,1.4l-1.6,1C359.1,670,357.8,670.7,356.4,670.7z M457.5,550.4
			c1.5,0,2.8,0.7,3.6,2c1.1,1.6,1.9,2.6,4.5,2.6c4.1,0,4.6-1.5,5.3-3.3c0.1-0.2,0.2-0.5,0.3-0.7l0.1-0.3l0.2-0.2
			c1.4-1.4,2.1-2.1,1-4.8c-0.4-1.1-0.8-1.1-1-1.1c-0.4,0-0.9,0.1-1.5,0.3c-0.8,0.2-1.8,0.4-2.8,0.4c-1.9,0-3.6-0.7-5.1-2.3
			c-1.3-1.3-2.4-2.7-3.4-4c-2.7-3.4-4.7-5.9-10-6.2c-0.2,0-0.5,0-0.7,0c-2.4,0-2.8,0.6-3.2,1.4c-0.3,0.6-1,1.8-2.6,1.8
			c-1,0-2.2-0.4-4.2-1.5c-2.2-1.2-3.5-1.4-4.3-1.4c-0.5,0-1,0.1-1.2,0.5c-0.2,0.5-0.1,1.4,0.8,2.5c1,1.2,1.7,1.3,2.5,1.3l0.4,0
			l0.3,0.2c0.5,0.3,1,0.7,1.5,1.2c0.8,0.9,1.2,1.9,1.6,2.8c0.6,1.5,0.9,2.1,1.8,2.3c0.1,0,0.3,0,0.4,0c0.3,0,0.5-0.1,0.9-0.6
			c0.5-0.5,1.3-1.3,2.5-1.3c0.3,0,0.7,0.1,1,0.2c0.6,0.2,1.2,0.2,1.8,0.3c1.2,0.1,2.7,0.1,3.8,1.7c1.9,2.5,1.8,4.8-0.2,7
			c0.7,0.3,1.2,0.4,1.4,0.4c0.1,0,0.3,0,0.4,0C455.1,550.8,456.4,550.4,457.5,550.4z"/>
	</g>
	<g id="XMLID_5_">
		<path id="XMLID_6_" fill="#8A8274" d="M465.1,406.8c-3.6-0.2-4.4-1.1-5.5-2.8c-0.3-0.5-0.7-1.1-1.3-1.7c-0.8-0.8-1.6-1.1-2.7-1.1
			c-1.3,0-2.8,0.4-4.8,1.1c-0.8,0.2-1.5,0.4-2.2,0.4c-1.6,0-2.8-0.7-3.6-1.3l-1.4-1l1.2-1.2c0.5-0.5,0.2-2.1-1-4.1
			c-0.5-0.9-1.3-1.7-3.8-1.7c-1.7,0-3.7,0.3-6,0.7c-0.9,0.1-1.8,0.3-2.7,0.4c-1,0.2-2,0.2-2.9,0.2c-5.5,0-6.9-3.3-7.4-5.7
			c-0.6-2.6,1.9-3.5,3.5-4.1c1.8-0.7,3.1-1.2,3.3-2.5c0.1-0.3,0-0.5-0.1-0.7c-0.5-0.7-2.5-1.5-6.1-1.5c-2.3,0-4.9,0.3-7.6,0.9
			c-2.4,0.5-4.5,0.8-6.3,0.8c-3.9,0-5.8-1.3-7.5-2.4c-0.4-0.2-0.7-0.5-1.1-0.7c-0.2-0.1-0.6-0.2-1-0.2c-1.4,0-3.5,0.8-5,1.3l-0.1,0
			l-0.1,0c-1.8,0.5-3.5,1.3-5.1,2.1l-0.8,0.4c-0.7,0.3-1.4,0.6-2,0.8l-0.1,0l-0.1,0c-0.2,0-0.5,0.1-0.7,0.1c-3.1,0-6.2-2.8-9.4-5.8
			c-2.4-2.2-4.9-4.4-7.2-5.5c-1.9-0.8-3.5-1.2-4.9-1.5c-2-0.5-3.7-0.8-4.6-2.4l-0.2-0.3l0-0.4c0-1.1,0-2.1,0-2.9l0-1.4l1.4-0.1
			c1.4-0.1,3.6-0.7,7-2.2c2.9-1.2,5-2.6,7-3.8c2.8-1.7,4.9-3.1,7.6-3.1c0.9,0,1.9,0.2,2.8,0.6c3.6,1.4,7.1,2.1,10.2,2.1
			c3.2,0,5.8-0.8,7.1-2.1c1.9-1.8,4.3-1.8,6.5-1.8c0.7,0,1.4,0,2-0.1l1-0.1l0.5,0.9c0.7,1.4,1.3,2.6,1.4,4.4
			c0.1,1.2,0.4,1.4,3.9,3.1c0.9,0.4,1.9,0.9,3,1.5c3.7,1.9,10.6,3.6,17.5,4.5c2.7,0.3,5.2,0.5,7.2,0.5c7.6,0,17.1-0.9,21.4-2.8
			c4.1-1.8,3.7-3,3.2-4.6c-0.4-1.3,0-2.8,0.3-4.2c0.1-0.5,0.3-1.3,0.4-1.7c0,0-0.2,0-0.2,0l-0.5-2.9c1.1-0.3,2.7-0.5,4.9-0.5
			c1.7,0,3.8,0.1,6.5,0.3l1.4,0.1v50.1l-1.2,0.2c-2.8,0.6-5.2,1.8-7.5,2.9c-2.5,1.3-4.9,2.5-7.3,2.5
			C465.5,406.8,465.2,406.8,465.1,406.8z"/>
	</g>
	<g id="XMLID_3_">
		<path id="XMLID_4_" fill="#8A8274" d="M171.1,676.4l1.6-2.3l0.1-0.1l0.1-0.1c0.1-0.1,0.2-0.2,0.2-0.2c0.1-0.1,0.1-0.1,0.2-0.2
			l0.1-0.1l0.1-0.1c0.1-0.1,0.2-0.1,0.3-0.2l0.1,0l0.1-0.1c0.1,0,0.2-0.1,0.3-0.1l0.2,0c0.1,0,0.2-0.1,0.3-0.1l0.1,0
			c0.1,0,0.2,0,0.3,0l0.1,0l0.1,0c0.3,0,0.7,0,1.1,0c0.8,0,1.7,0,2.7,0.1c1.4,0.1,3.1,0.2,5.2,0.2c4.8,0,9.6-0.5,14.6-1.6l1-0.2
			c0.7-0.2,1.5-0.3,2.3-0.5c3.3-0.8,6.7-1.9,10.1-3.2c2-0.8,4.5-1.2,7.6-1.2c6.6,0,14.7,1.7,23.4,3.5c8.5,1.8,17.3,3.6,24.3,3.7h0.4
			c0.3,0,0.7,0,1,0l2.8-0.1l0.8,2.8l-0.5,0.3l-4.3,0L171.1,676.4z"/>
	</g>
</g>
</svg>
