<?xml version="1.0" encoding="utf-8"?>
<!-- Generator: Adobe Illustrator 19.0.1, SVG Export Plug-In . SVG Version: 6.00 Build 0)  -->
<svg version="1.2" baseProfile="tiny" id="Layer_1" xmlns="http://www.w3.org/2000/svg" xmlns:xlink="http://www.w3.org/1999/xlink"
	 x="0px" y="0px" viewBox="0 0 480 670" xml:space="preserve">
<g id="XMLID_2_">
	<path id="XMLID_1380_" fill="#DCD1C5" d="M420-1c-0.2,0-0.4-0.1-0.5-0.1c-0.1,0-0.1,0-0.2,0c-0.1,0-0.2,0-0.3,0c-0.1,0-0.1,0-0.2,0
		c-0.1,0-0.1,0-0.2,0c-0.1,0-0.1,0-0.2,0c0,0-0.1,0-0.1,0c-0.1,0-0.1,0-0.1,0.1c0,0-0.1,0-0.1,0c0,0-0.1,0.1-0.1,0.1
		c0,0,0,0-0.1,0.1c0,0-0.1,0.1-0.1,0.1c0,0,0,0,0,0.1c0,0.1,0,0.1,0,0.2c0,0,0,0,0,0.1c0,0.1,0,0.1,0,0.2c0,0,0,0,0,0
		c0,0.1,0,0.2,0.1,0.3c0,0,0,0,0,0c0,0.1,0.1,0.2,0.1,0.3c0,0,0,0,0,0c0.2,0.6,0.6,1.3,1.1,2h0c0.1,0.1,0.2,0.2,0.3,0.4
		c0.2,0.3,0.4,0.5,0.6,0.8c0.1,0.1,0.2,0.3,0.4,0.4c0.2,0.3,0.5,0.5,0.7,0.8c0.2,0.2,0.4,0.4,0.6,0.6c0.2,0.2,0.3,0.3,0.5,0.5
		c0.4,0.4,0.8,0.7,1.1,1c2.7,2.4,7.1,3.5,13.4,3.7c2,0,4.1,0,6.4-0.2c9.8-0.6,10,2.9,13.6,7.3c3.6,4.4,7.9,3.9,12,3.5
		c0.1,0,0.2,0,0.3,0c1.8-0.5,5.2-0.5,10.9-0.1V-1.6h-55.1C423.3-1,421.8-0.7,420-1z"/>
	<path id="XMLID_1381_" fill="#DCD1C5" d="M2.4,205.9c1.8-1,1.4-3.1,0.2-4c-1.3-0.9-1.4-1.5-0.2-2.5c0.8-1.3,3.5-1.7,6.2-0.8
		c2.8,1,6.8,1.7,10.2,0.4c0-1.3-0.5-2.8-1.2-4.1c-0.4-0.7-0.9-1.4-1.6-1.9c-3.3-2.9-1.1-7.2,1.1-6.1c2.2,1.1,7.2,5.7,13.3,4.8
		c2.8-0.4,4.1,0.6,5.1,1.9c1.2,1.5,2.1,3.2,4.7,3.1c1.3-0.1,2.6,0,4,0.3c0.3-0.2,0.7-0.3,1.1-0.5c4.4-1.9,9.9-2.7,12.6-1.5
		c4.9,2.2,11.2,0.1,8.9-5.2c-1-2.3-3.3-3.2-5.9-3.7c-0.7,0.1-1.5,0.2-2.2,0.4c-5.6,1.6-6-0.8-8.4-2.8c-0.2-0.2-0.5-0.4-0.8-0.5
		c-1-0.2-2-0.2-3,0c-2.1,0.5-5,1.8-9.2,2.9c-7.4,1.8-7.8-2.8-4.6-3.4c3.2-0.6,4.2-2.6,1.8-3.8c0,0,0,0,0,0c-0.4,0.2-0.9,0.3-1.4,0.4
		c-7.4,1.6-6.8-10-8.4-14.8c-0.3-1-0.7-1.8-1.1-2.4c-1-0.6-2.1-1.1-3.1-1.6c-2.2-0.2-5.7,0.6-11.5,2.3c-5.9,1.7-8.3,1.1-9.8-0.4V207
		c0.5-0.1,0.9-0.2,1.1-0.2C0.8,206.4,1.7,206.2,2.4,205.9z"/>
	<path id="XMLID_1382_" fill="#DCD1C5" d="M88.6-1c-0.2,0-0.4-0.1-0.5-0.1c-0.1,0-0.1,0-0.2,0c-0.1,0-0.2,0-0.3,0
		c-0.1,0-0.1,0-0.2,0c-0.1,0-0.1,0-0.2,0c-0.1,0-0.1,0-0.1,0c0,0-0.1,0-0.1,0C87-1,87-1,86.9-1c0,0-0.1,0-0.1,0.1
		c0,0-0.1,0.1-0.1,0.1c0,0,0,0-0.1,0.1c0,0,0,0.1-0.1,0.1c0,0,0,0.1,0,0.1c0,0,0,0.1,0,0.1c0,0,0,0.1,0,0.1c0,0.1,0,0.1,0,0.2
		c0,0,0,0.1,0,0.1c0,0.1,0,0.1,0,0.2c0,0,0,0,0,0.1c0,0.1,0.1,0.2,0.1,0.3c0,0,0,0,0,0.1c0,0.1,0.1,0.2,0.1,0.3c0,0,0,0,0,0
		C86.9,1,86.9,1.1,87,1.2c0,0,0,0,0,0c0.2,0.4,0.5,0.8,0.8,1.3h0C87.9,2.6,88,2.7,88,2.7c0.2,0.3,0.5,0.6,0.8,1
		c0.1,0.1,0.1,0.2,0.2,0.2c0.3,0.3,0.5,0.6,0.8,0.9C90,5,90.1,5.2,90.2,5.3c0.2,0.2,0.5,0.5,0.7,0.7c0.4,0.4,0.8,0.7,1.1,1
		c2.7,2.4,7.1,3.5,13.4,3.7c1.9,0,4.1,0,6.4-0.2c9.8-0.6,10,2.9,13.6,7.3c3.6,4.4,7.9,3.9,12,3.5c0.1,0,0.2,0,0.3,0
		c2.8-0.8,9.2-0.4,21.6,0.7c25.1,2.2,14.9-3.9,14.4-8.9c0-0.1,0-0.2,0-0.4c0,0,0,0,0-0.1c0-0.1,0-0.2,0-0.3c0,0,0-0.1,0-0.1
		c0-0.1,0-0.1,0.1-0.2c0,0,0,0,0-0.1c0-0.1,0.1-0.1,0.1-0.2c0,0,0,0,0.1-0.1c0,0,0.1-0.1,0.1-0.1c0,0,0,0,0.1,0
		c0.1,0,0.1-0.1,0.2-0.1c0,0,0.1,0,0.1,0c0.1,0,0.1-0.1,0.2-0.1c0,0,0,0,0,0c2.7-0.8,10.9,1.5,25.5-1.7v0v0c0.8-0.2,1.5-0.3,2.3-0.6
		c-0.2,0-0.5-0.1-0.7-0.1c-0.2,0-0.4-0.1-0.6-0.1c0,0,0,0,0,0c-0.4-0.1-0.7-0.1-1-0.2v0c-0.1,0-0.1,0-0.1,0
		c-3.3-0.7-2.5-1.6-0.8-4.2c0.1-0.1,0.2-0.2,0.3-0.4c0.1-0.1,0.2-0.1,0.2-0.2c0.1-0.1,0.2-0.2,0.3-0.2V3.7v0c0.1,0,0.2-0.1,0.3-0.1
		c0.1-0.1,0.3-0.1,0.4-0.2c0.1,0,0.2-0.1,0.3-0.1c0.4-0.1,0.7-0.3,1.2-0.4c0.1,0,0.2-0.1,0.4-0.1c0.2-0.1,0.4-0.1,0.7-0.2
		c0.1,0,0.3-0.1,0.4-0.1h0h0.2c0.1,0,0.2,0,0.3-0.1c6.4-1.3,17-1.9,23.8-2.7c0,0,0.1,0,0.1,0c0.4,0,0.8-0.1,1.2-0.1
		c0.1,0,0.2,0,0.2,0c0.4-0.1,0.9-0.1,1.3-0.2c0.5-0.1,1.1-0.2,1.6-0.2c0.3,0,0.6-0.1,0.9-0.1c0.2,0,0.5-0.1,0.7-0.1
		c0.4,0,0.8-0.1,1.2-0.1c0.1,0,0.3,0,0.4,0c0.5,0,1-0.1,1.5-0.1c0,0,0.1,0,0.1,0c0.5,0,1,0,1.5,0c0,0,0,0,0,0
		c5.8,0,11.3,1.1,15.2,3.8c0,0,0.1,0,0.1,0.1h0.1c0,0,0.1,0.1,0.1,0.1c5.6,4.2,7.2,4.2,19.7,2.2c8.2-1.3,15.1,1.7,20.3,5.5
		c0.1,0,0.1,0,0.2,0c0.6-0.3,1-0.9,1.4-1.8c0.4-1,0.2-2.3,0-3.5c-0.2-0.7-0.3-1.4-0.5-2c0-0.2-0.1-0.3-0.1-0.5h0c0-0.1,0-0.2,0-0.3
		c0,0,0,0,0,0c0-0.1,0-0.2,0-0.3c0,0,0,0,0,0c0-0.1,0-0.2,0-0.2c0,0,0,0,0,0c0-0.1,0-0.1,0-0.2c0,0,0,0,0,0c0-0.1,0-0.1,0-0.2
		c0,0,0,0,0,0c0-0.1,0-0.1,0.1-0.2c0,0,0,0,0,0c0,0,0.1-0.1,0.1-0.1c0,0,0,0,0,0c0,0,0.1-0.1,0.1-0.1c0,0,0,0,0.1,0
		c0,0,0.1-0.1,0.1-0.1c0,0,0,0,0.1,0c0.1,0,0.1,0,0.2-0.1c0,0,0.1,0,0.1,0c0.1,0,0.1,0,0.2,0c0,0,0.1,0,0.1,0c0.1,0,0.1,0,0.2,0
		c0,0,0.1,0,0.1,0c0.1,0,0.1,0,0.2,0c0.1,0,0.1,0,0.2,0c0.1,0,0.2,0,0.2,0c0.1,0,0.2,0,0.3,0c0.1,0,0.1,0,0.2,0
		c0.2,0,0.3,0.1,0.5,0.1c4,0.9,6.8,0.5,9.2-0.6c-0.5-0.6-1-1.1-1.7-1.7H93.5C92-1,90.4-0.7,88.6-1z"/>
	<path id="XMLID_1383_" fill="#DCD1C5" d="M3.4,125.4L3.4,125.4c3.5,0.7,6.5,2.2,7.3,4c1.6,3.9-7.5,1.1-5.9,5
		c1.5,3.7,18-4.4,22.5,1.5c1.4-0.3,2.9-1.1,3.6-3.1c1.9-5.1,9.6-6.1,11.2-2.1c0.4,1.1,1.4,3,2.6,5c0.8,0.1,1.6,0.2,2.5,0.4
		c1.8,0.3,3.1,0.7,4.1,1.2c1.7,0.8,2.3,1.8,2,2.7c-0.1,0.5-0.5,1-1,1.5c2.1,0,4.7-0.9,7.8-4.3c8.4-9,16.1-6.3,18.5-5.1
		c4.1,2.2-0.7,6.5,8,6.6c6.2,0.1,6.4,6.7,1.1,5.3c-5.3-1.3-5.6-0.3-5.3,2.1c0.3,2.4-3.5,4.5-6.9,2.4c-2.3-1.4-4.1-1.8-5.9-1.5
		c-1.8,0.3-3.3,1.2-3.6,3.4c-1.1,7.8,0.5,4.4,5.3,12.2c4.8,7.8,10.7,0.6,18.7,9.4c5.9,6.5,9.5,9.5,15.5,10.5
		c2.1,0.4,4.5,0.5,7.5,0.5c10.5,0,11.2-3.9,20.1-0.7c0.6,0.4,1.3,0.9,2,1.4c9.8,7.6,9.9,2.3,20.8-1.8c-0.6-0.3-1.2-0.5-1.6-0.8
		c-3.5-2.4-7.1-2.4-12-3.5c-4.9-1.1-6.4-1.4-4.8-3.2c0.3-0.4,0.8-0.7,1.5-1.1c-1.2-1.7-1.7-4.1-2-7.5c-0.7-7.2-4.3-6.6-14.9-11.1
		c-10.7-4.4-8.1-7.9,0-8.3c24.5-1.1,33.9,5.7,36.8,5.8c1.2,0,2.3,0.1,3.5,0.1c0.6-2,2.1-3.4,4.5-3.1c5.9,0.6,10.1-2.8,9.1-5.5
		c-1.1-2.8-17.6-8.9-27.2-4.4c-7.6,3.5-30.9,0.1-43.2-4c-3.2-1.1-5.7-2.2-6.9-3.2c-2.6-2.2-5.9-4.6-7.2-6.8h0
		c-1.7-2.8-0.3-5.3,9.9-6.5c0.6-0.1,1.2-0.1,1.8-0.2c4,0.1,14.5,0.6,17.8,2.7c3.5,2.1,10.4,2.7,7.5,0c-1.4-1.3,0.5-2.2,3.3-2.1
		c0.5,0,0.9,0.1,1.4,0.1c2.6,0.3,5.5,1.3,7,3.4c3.5,4.8,10.4-2.4,9.6-4.3c-0.8-1.9-0.5-5.6,4.8-6.4c0.7-0.1,1.4-0.2,1.9-0.4
		c3.6-0.9,4.1-2.4,1.5-5c-2.9-2.9-10.9-1.6-16.8,0.5c-5.9,2.1-11.7-1.9-16.3,0c-1.3,0.5-2.1,1.1-2.7,1.6c-1.4,0.8-1.6,2.6-2.6,3.8
		c-0.5,0.4-1,0.7-1.6,0.9c-1.9,0.4-5.4-0.7-12.4-5.1c0,0,0,0,0,0c-14.7-9.1-16.6-3.1-17.8-3.1c-1,1.8-2,3.7-3.3,5.3
		c-3.1,4-11.3,5.7-18.5,2.9c0.5,3,0.2,6.6-3.5,6.7c-6.4,0.3-5.1,0.3-9.6-4c-4.5-4.3-7.7-5.3-10.9-2.1c-3.2,3.2-3.9,6.2-8.7,3.2
		c-2.6-1.6-1.7-2.2-3.9-2.8c-1.7,0.1-2.5-0.5-5.1,0.7c-1.8,0.9-2,3.4-3.4,3.9c-2,1.2-5.7,1.2-7.3,1.1c-7.7-0.4-7.8-4.4-11.2-6
		c-1.7-0.5-2.6-0.4-3.4-0.1v10.9C0.4,125.1,1.9,125.2,3.4,125.4z"/>
	<path id="XMLID_1384_" fill="#DCD1C5" d="M294,279.6c-7.7-2.2-10.4,2.2-10.9-2.2c-0.5-4.3-1.5-11.1-7.4-11.6
		c-2.8,1.5-5.4,4.3-8.7,4.4c-0.2,0-0.4,0-0.6,0c-0.1,2.3-1.2,4.2-3,3.6c-4.6-1.7-12.2-0.6-18.6,0.8c-6.4,1.5,5.4,5.4,9.2,8.5
		c2.9,2.4-0.7,4.9-4.5,4.5c-1.1-0.1-2.2-0.5-3.1-1.2c-4.2-3.1-12-5.8-16.6-6c-0.3,0-0.5,0-0.8,0c-4.2,0.2-7.6,4-10.2,1.4
		c-2.8-2.7-5.4-2.7-9-0.8c-3.6,1.9-7,0.8-8.8-1.5c-0.3-0.4-0.6-0.8-0.9-1.1v0v-0.2c0-0.1-0.1-0.1-0.1-0.2c0,0,0,0,0,0
		c-0.3-0.3-0.5-0.6-0.8-0.9c0,0,0,0,0,0c-3.5-4-5.2-4.4-7-4.3c-0.1,0-0.3,0-0.4,0c0,0.1-0.1,0.3-0.2,0.4c-0.9,1.7-2.1,3.1-3,4.3
		c-1.4,1.8-2.2,2.9-0.8,3.8c0.1,0.1,0.3,0.1,0.5,0.2c0.1,0,0.1,0,0.2,0c0.1,0,0.3,0.1,0.4,0.1c0.1,0,0.1,0,0.2,0c0.2,0,0.3,0,0.5,0
		c0.1,0,0.1,0,0.2,0c0.2,0,0.4,0,0.6-0.1c0,0,0,0,0.1,0c1.7-0.3,3.9-0.9,5.9-1c0,0,0.1,0,0.1,0c0.2,0,0.5,0,0.7,0c0.1,0,0.1,0,0.2,0
		c0.2,0,0.4,0.1,0.6,0.1c0.1,0,0.1,0,0.2,0c0.2,0,0.4,0.1,0.6,0.2c0.1,0,0.1,0,0.2,0.1c0.2,0.1,0.3,0.2,0.5,0.3
		c0.1,0,0.1,0.1,0.2,0.1c0.1,0.1,0.3,0.2,0.4,0.3c0.1,0,0.1,0.1,0.2,0.1v0v0.1c0.2,0.2,0.3,0.4,0.4,0.6c2.6,4.6,5.2,10.2,11.6,10
		c1.3,0,2.9-0.2,4.6-0.4c0.8,0.1,1.6,0.1,2.4,0.1c7.4,0,6.6,3.1,2.6,5.6c-1.1,0.7-2.4,1.5-3.8,2.3c2.7,0.4,3.1,2.8,7,2
		c5.2-1.1,9.9,0,11.3,2.4c1.5,2.4,4.7,1.7,8.4,0.6c3.7-1.1,7.6,0.6,5.7,2.8c-1.9,2.2-5.1,4.8-9.3,2.9c-4.3-1.9-6.8,3.5-10.5,6.5
		c-3.7,3-19.6,3.6-26,1.1c-0.4-0.2-0.8-0.3-1.2-0.4c0,0,0,0,0,0c-0.4-0.1-0.7-0.1-1.1-0.2c0,0,0,0,0,0c-0.3,0-0.7,0-1,0c0,0,0,0,0,0
		c-0.3,0-0.6,0-1,0.1c0,0,0,0,0,0c0,0-0.1,0-0.1,0v0l0,0c-2.1,0.4-3.9,1.7-6.1,2.2c0,0,0,0-0.1,0c-0.2,0-0.4,0.1-0.6,0.1
		c0,0-0.1,0-0.1,0c-0.2,0-0.4,0-0.5,0.1c-0.1,0-0.1,0-0.2,0c-0.2,0-0.4,0-0.5,0c-0.1,0-0.1,0-0.2,0c-0.2,0-0.4,0-0.5,0
		c-0.1,0-0.2,0-0.3,0c-0.2,0-0.4-0.1-0.6-0.1c-0.1,0-0.2,0-0.2,0c-0.3-0.1-0.6-0.1-0.9-0.2c-6.7-1.9-13.3,1.9-14.9-0.6
		c-1.6-2.5,2.8-4.3,5.7-5.3c2.9-1,12.3-0.5,17.7-0.8c0.3,0,0.6,0,0.8-0.1c0,0,0.1,0,0.1,0c0.2,0,0.4-0.1,0.6-0.1c0,0,0,0,0,0
		c0.4-0.1,0.6-0.2,0.8-0.4c0,0,0,0,0,0c0.1-0.1,0.1-0.2,0.1-0.2v-0.4c0-0.1-0.1-0.2-0.1-0.3c0,0,0,0,0,0c-0.4-0.6-1.3-1.5-2.5-2.4
		c0,0,0,0,0,0c-0.3-0.2-0.6-0.5-1-0.7c0,0,0,0-0.1,0c-0.3-0.2-0.7-0.5-1.1-0.8c0,0,0,0-0.1,0c-0.4-0.3-0.8-0.5-1.2-0.8c0,0,0,0,0,0
		c-0.4-0.3-0.8-0.6-1.3-0.9c-6.1-4.2-10.7,1.8-15.3,2.1c-2.2,0.1-4.1,0.4-6.3,0.6c0.1,0.2,0.1,0.4,0.1,0.6
		c-0.6,2.5-4.8,3.3-12.6,2.5c-7.8-0.8-16-2.3-22-3.9c-6-1.7-9.6,5-14,2.3c-4.4-2.7-8,1-12.2,1.7c-4.2,0.6-1.4,3.9,3.2,3.5
		c4.6-0.4,8.6,0.8,10.2,3.1c1.6,2.3,5,2.9,11.2,2.5c6.2-0.4,10.4,1.9,10.6,4.2c0.2,2.3-3,1.7-7.4,1.9c-4.4,0.2-9.4,2.5-14.8,2.5
		c-4.7,0-12.3-2.2-18-2.8c-0.9-0.1-1.8-0.2-2.6-0.2c-5.8,0-9.2,4.8-14.2,3.7c-0.2,0-0.4-0.1-0.5-0.1c-0.1,0-0.1,0-0.2,0
		c-0.1,0-0.2,0-0.3,0c-0.1,0-0.1,0-0.2,0c-0.1,0-0.1,0-0.2,0c-0.1,0-0.1,0-0.1,0c-0.1,0-0.1,0-0.1,0c0,0-0.1,0-0.1,0.1
		c0,0-0.1,0-0.1,0.1c0,0-0.1,0.1-0.1,0.1c0,0-0.1,0-0.1,0.1c0,0,0,0.1-0.1,0.1c0,0,0,0,0,0.1c0,0,0,0.1,0,0.1c0,0,0,0.1,0,0.1
		c0,0.1,0,0.1,0,0.2c0,0,0,0.1,0,0.1c0,0.1,0,0.1,0,0.2c0,0,0,0,0,0.1c0,0.1,0,0.2,0.1,0.3c0,0,0,0,0,0.1c0,0.1,0.1,0.2,0.1,0.3
		c0,0,0,0,0,0c0,0.1,0.1,0.2,0.2,0.3c0,0,0,0,0,0c0.1,0.1,0.1,0.2,0.2,0.4c0,0,0,0,0,0c0.2,0.3,0.4,0.6,0.6,0.9h0.1
		c0.1,0.1,0.2,0.2,0.2,0.3c0.2,0.3,0.4,0.6,0.7,0.8c0.1,0.1,0.2,0.2,0.3,0.3c0.2,0.3,0.5,0.6,0.8,0.9c0.2,0.2,0.3,0.3,0.5,0.5
		c0.2,0.2,0.4,0.4,0.6,0.6c0.4,0.4,0.7,0.7,1.1,1c2.7,2.4,7.1,3.5,13.4,3.7c1.9,0,4.1,0,6.4-0.2c9.8-0.6,10,2.9,13.6,7.3
		c3.6,4.4,7.9,3.9,12,3.5c0.1,0,0.2,0,0.3,0c2.8-0.8,9.2-0.4,21.6,0.7c25.1,2.2,14.9-3.9,14.4-8.9c0-0.1,0-0.2,0-0.4c0,0,0,0,0-0.1
		c0-0.1,0-0.2,0-0.3c0,0,0-0.1,0-0.1c0-0.1,0-0.1,0.1-0.2c0,0,0-0.1,0-0.1c0,0,0.1-0.1,0.1-0.1c0,0,0,0,0.1-0.1c0,0,0.1-0.1,0.1-0.1
		c0,0,0.1,0,0.1,0c0.1,0,0.1-0.1,0.2-0.1c0,0,0,0,0.1,0c0.1,0,0.1-0.1,0.2-0.1c0,0,0,0,0,0c0.1,0,0.2-0.1,0.3-0.1c0,0,0,0,0,0
		c2.9-0.5,10.4,1.3,23.2-1.3c0,0,0.1,0,0.1,0c0.5-0.1,1-0.2,1.6-0.3c0.1,0,0.1,0,0.1,0c0,0,0.1,0,0.1,0v0v0c0.8-0.2,1.5-0.3,2.3-0.6
		c-0.2,0-0.5-0.1-0.7-0.1c-0.2,0-0.4-0.1-0.6-0.1c0,0,0,0,0,0c-0.4-0.1-0.7-0.1-1-0.2v0c-0.1,0-0.1,0-0.1,0
		c-3.3-0.7-2.5-1.6-0.8-4.2c0.1-0.1,0.2-0.2,0.3-0.4c0.1-0.1,0.2-0.1,0.2-0.2c0.1-0.1,0.2-0.2,0.3-0.2v-0.1v0c0,0,0.1,0,0.1,0
		c0.3-0.2,0.6-0.3,1-0.4c0.1,0,0.2-0.1,0.3-0.1c0.1,0,0.3-0.1,0.5-0.1c0.2-0.1,0.4-0.1,0.6-0.2c0.1,0,0.3-0.1,0.4-0.1
		c0.1,0,0.2-0.1,0.3-0.1h0h0.6c0.2,0,0.5-0.1,0.7-0.1c5.9-1.2,15.2-1.8,21.8-2.5c0.1,0,0.1,0,0.2,0c0.4,0,0.8-0.1,1.2-0.1
		c0.1,0,0.2,0,0.4,0c0.4,0,0.7-0.1,1-0.1c0.1,0,0.3,0,0.4,0c0.4-0.1,0.9-0.1,1.2-0.2c0.5-0.1,1-0.2,1.6-0.2c0.3,0,0.6-0.1,0.9-0.1
		c0.2,0,0.5-0.1,0.7-0.1c0.4,0,0.8-0.1,1.2-0.1c0.1,0,0.3,0,0.4,0c0.5,0,0.9-0.1,1.4-0.1c0.1,0,0.2,0,0.2,0c0.5,0,1,0,1.5,0
		c0,0,0,0,0.1,0c5.8,0,11.3,1,15.1,3.7c0.1,0.1,0.2,0.1,0.2,0.1h0.2c0.1,0.1,0.3,0.2,0.4,0.3c0,0,0.1,0.1,0.1,0.1
		c0.3,0.2,0.6,0.4,0.8,0.6c0,0,0.1,0.1,0.1,0.1c0.1,0.1,0.2,0.1,0.2,0.2c0.1,0,0.1,0.1,0.2,0.1c0.1,0.1,0.2,0.1,0.2,0.1
		c0.1,0,0.1,0.1,0.2,0.1c0.1,0,0.1,0.1,0.2,0.1c0.1,0,0.1,0.1,0.2,0.1c0.1,0,0.1,0.1,0.2,0.1c0.1,0,0.2,0.1,0.2,0.1
		c0.1,0,0.1,0.1,0.2,0.1c0.1,0,0.2,0.1,0.3,0.1c0,0,0.1,0,0.1,0.1c0.1,0,0.2,0.1,0.3,0.1c0,0,0.1,0,0.1,0c0.1,0,0.2,0.1,0.3,0.1
		c0,0,0.1,0,0.1,0c0.1,0,0.2,0.1,0.3,0.1c0,0,0.1,0,0.1,0c0.1,0,0.2,0.1,0.3,0.1c0,0,0.1,0,0.1,0c0.1,0,0.2,0.1,0.3,0.1
		c0,0,0.1,0,0.1,0c0.1,0,0.2,0,0.3,0.1c0.1,0,0.1,0,0.2,0c0.1,0,0.2,0,0.3,0c0.1,0,0.2,0,0.3,0c0.1,0,0.1,0,0.2,0c0.1,0,0.2,0,0.3,0
		c0.1,0,0.1,0,0.2,0c0.1,0,0.2,0,0.3,0c0.1,0,0.2,0,0.2,0c0.1,0,0.2,0,0.3,0c0.1,0,0.2,0,0.3,0c0.2,0,0.3,0,0.5,0c0,0,0.1,0,0.1,0
		c1.2,0,2.5-0.2,4.2-0.4c0,0,0.1,0,0.1,0c1.7-0.2,3.6-0.5,6-0.9c8.2-1.3,15.1,1.7,20.3,5.5c0.1,0,0.1,0,0.2,0c0.6-0.3,1-0.9,1.4-1.8
		c0.4-1,0.2-2.3,0-3.5c-0.2-0.6-0.3-1.3-0.4-1.8c0-0.2-0.1-0.5-0.1-0.7h0h0c0,0,0,0,0,0c0-0.2,0-0.4,0-0.5c0,0,0,0,0,0
		c0-0.2,0-0.3,0-0.4c0,0,0,0,0,0c0-0.1,0.1-0.3,0.1-0.4c0,0,0,0,0,0c0.1-0.1,0.2-0.2,0.3-0.3c0,0,0,0,0,0c0.1-0.1,0.2-0.1,0.4-0.2
		c0,0,0,0,0,0c0.2,0,0.3-0.1,0.6-0.1c0,0,0,0,0,0c0.2,0,0.5,0,0.7,0c0,0,0,0,0,0c0.3,0,0.6,0.1,1,0.2c4,0.9,6.8,0.5,9.2-0.6
		c-1.2-1.4-2.9-2.9-5.3-4.4c-9.3-5.5-14.1-8-18.9-6.9c-4.8,1.1-5.9,0.6-6.9-3.9c-1.1-4.4-6.7-0.8-8.3-3.6c-1.6-2.8,3.7-5.3,9.6-6.9
		c5.9-1.7,12-3.3,16.5-1.7c3.5,1.3,5.6-2.1,7.6-4.7c-2.5-2.3-7.8-2.6-12.8-1.7c-5.4,1-10.2-3.3-6.6-5.6c3.6-2.3,10-7.3,16.6-3.3
		c6.6,3.9,9.6,1.2,10.4-0.4c0.8-1.6,3.8-1.1,7.7,0.3c5.9,0.3,13-3.1,14.2-5.6c1.3-2.8-4.5-3.6-13.1-3c-2.2,0.1-4.3,0.3-6.4,0.5
		C305.7,281,299.8,281.2,294,279.6z"/>
	<path id="XMLID_1385_" fill="#DCD1C5" d="M5.2,94.3c-0.2,1.9,0.4,4.8,9.3,3.3c9-1.5,10.8-2.2,9-4.8c-1.8-2.6,2.4-4.1,5.9-2.7
		c3.4,1.4,7.8,2.5,9-0.7c0,0,0,0,0,0c0,0,0-0.1,0-0.1c0.1-0.2,0.1-0.4,0.1-0.6c1.1-4.3,4.3-5.4,7.3-3.5c3.7,2.4,6.7,1.9,8-0.5
		s5.9-2.1,12,0.3c6.1,2.4,3.5-4.5,2.4-7.5c-1.1-2.9,0.3-4.8,6.4-5.1c3.4-0.1,5.9-1.4,7.2-2.8c-1.6-1.1-4.1-1.9-7.4-1.6
		c-4.7,0.4-5.4-0.2-6.6-1.8C67,65,65.8,63.2,62.5,61c-0.9-0.6-1.3-2.1,0.5-3.1c0.2-0.1,0.5-0.1,0.7-0.2c4-1.2,4.8,2.4,6.8,1
		c0.9-0.6,2-1.2,3.3-1.4c0.5-0.2,1.5-0.2,4,0.1c5.3,0.5,8.3,2.4,8.4,4.3c0.1,1.9,0.9,6.8,5.3,5.9c4.4-0.9,8.4-3.3,10.7-2.3
		c2.3,1.1,3.9,2,0.9,3.9c0,0,0,0-0.1,0c4.5,0.7,9.8,1.5,11.6-0.4c1-1,1-2.8-0.7-5.9c-2.1-3.8-7.4-2.3-14-1.3c-6.6,1-8-1.5-8.6-4.3
		c-0.6-2.8,5.9-1.8,6.9-5.9c0.8-3.8-6.5-5.1-15.7-3.1c-9.2,2-10.8-0.4-13.8-2.2c-1.5-0.9-4.3-0.2-7.3,1c-2.3,0.6-4.3,1.7-6.2,2.6
		c-0.6,0.3-1.2,0.5-1.8,0.7c-4.7,0.7-10.6-8.5-16.6-11.1c-4.6-2-7.7-1.5-8.7-3.3c0-1.1,0-2.1,0-2.9c0-3.1,0-5-2.4-7.4
		c-3.2-3.2-9.8-4-8.4,0.6c0.8,2.5-8.2-3-9.6-0.2c-1.3,2.6,2.9,3.5,4.3,5.6c0.1,0.2,0.2,0.4,0.3,0.6c0.2,0.4,0.5,0.8,0.9,1.2
		c1,3.6-3.3,5.2-1,6.5c6.6,3.7,6-2,10.9,3.6c0.2,0.2,0.4,0.5,0.7,0.8c1.3,1.5,1.1,2.7,0,3.4c-2.1,1.5-7.8,1.4-11.8-0.3
		c-5-2.1-5.8,2.5-4.6,5.4c0.4,0.4,0.8,0.8,1.4,1.1c2.1,1.3,2.9,2,1.9,3.7c-0.5,0.8-1.6,1.4-2.7,2.1c-0.6,0.7-1.4,1.5-2.3,2.4
		c-0.3,0.3-0.6,0.6-0.7,0.9c-0.2,0.5-0.3,1.1-0.3,1.6c0.2,0.7,1,1.3,2,1.6c0.7,0,1.6-0.2,2.7-0.6c5.5-1.9,6.5-7.1,8.3-4.7
		c1.7,2.4,5.1,4.1,8.3,1.6c3.2-2.5,9.5-3.1,9.7,0.3c0.3,3.3-1.2,5.9,3.1,7.1c4.3,1.2,3.6,3.3-0.7,6c-4.3,2.7-3.6,7.5-8,5.6
		c-4.4-1.9-4.4-0.9-7.5-0.5c-3.1,0.4-5.1-1.3-5.3-3.5c0-0.1,0-0.1,0-0.2c-0.6-1.7-0.5-3.4-1.9-3.4c-7.1,0-6-3.5-10.5-4.3
		c-2.8-0.5-3.6,2.7-5.8,4.7v17.5c0.4-0.1,0.8-0.1,1.3-0.1C4.6,92,5.3,92.4,5.2,94.3z"/>
	<path id="XMLID_1386_" fill="#DCD1C5" d="M109.6,214.1c2.8,0.6,2.6-2.4,4.8-1.7c2.1,0.7,3.7-0.2,4.9,1.4c2.6,3.5-0.4,5.2-0.5,5.6
		c-0.1,0.7,0,1.2,0.2,1.6c1,0.5,2,0.8,2.7,0.8c0.3,0,0.5-0.1,0.8-0.1c0.1,0,0.2-0.1,0.2-0.1c2.6-1.3,4.5-1.5,5.7,0.3
		c1.2,1.8,2.4,3.3,5.8,3.3c5.7,0,6.1-2.9,6.9-4.9c1.5-1.5,2.8-2.8,1.4-6.4c-2-5.2-6,1.6-10.8-3.2c-4.8-4.8-6.2-10.2-14.4-10.6
		c-8.2-0.4-2.6,5.8-10,1.8c-7.4-4-9.4,0.4-6.6,3.8c1.3,1.6,2.5,1.8,3.5,1.9c0.4,0.2,0.8,0.5,1.1,0.9
		C107,210.2,106.8,213.5,109.6,214.1z"/>
	<path id="XMLID_1387_" fill="#DCD1C5" d="M0,283.2c0.5-1,0-1.7-1.1-2.2v3.6C-0.6,284.1-0.2,283.6,0,283.2z"/>
	<path id="XMLID_1388_" fill="#DCD1C5" d="M0,614.5c0.5-1,0-1.7-1.1-2.2v3.6C-0.6,615.4-0.2,615,0,614.5z"/>
	<path id="XMLID_1389_" fill="#DCD1C5" d="M2.4,537.2c1.8-1,1.4-3.1,0.2-4c-1.3-0.9-1.4-1.5-0.2-2.5c0.8-1.3,3.5-1.7,6.2-0.8
		c2.8,1,6.8,1.7,10.2,0.4c0-1.3-0.5-2.8-1.2-4.1c-0.4-0.7-0.9-1.4-1.6-1.9c-3.3-2.9-1.1-7.2,1.1-6.1c2.2,1.1,7.2,5.7,13.3,4.8
		c2.8-0.4,4.1,0.6,5.1,1.9c1.2,1.5,2.1,3.2,4.7,3.1c1.3-0.1,2.6,0,4,0.3c0.3-0.2,0.7-0.3,1.1-0.5c4.4-1.9,9.9-2.7,12.6-1.5
		c4.9,2.2,11.2,0.1,8.9-5.2c-1-2.3-3.3-3.2-5.9-3.7c-0.7,0.1-1.5,0.2-2.2,0.4c-5.6,1.6-6-0.8-8.4-2.8c-0.2-0.2-0.5-0.4-0.8-0.5
		c-1-0.2-2-0.2-3,0c-2.1,0.5-5,1.8-9.2,2.9c-7.4,1.8-7.8-2.8-4.6-3.4c3.2-0.6,4.2-2.6,1.8-3.8c0,0,0,0,0,0c-0.4,0.2-0.9,0.3-1.4,0.4
		c-7.4,1.6-6.8-10-8.4-14.8c-0.3-1-0.7-1.8-1.1-2.4c-1-0.6-2.1-1.1-3.1-1.6c-2.2-0.2-5.7,0.6-11.5,2.3c-5.9,1.7-8.3,1.1-9.8-0.4
		v44.7c0.5-0.1,0.9-0.2,1.1-0.2C0.8,537.8,1.7,537.6,2.4,537.2z"/>
	<path id="XMLID_1390_" fill="#DCD1C5" d="M3.4,456.8L3.4,456.8c3.5,0.7,6.5,2.2,7.3,4c1.6,3.9-7.5,1.1-5.9,5
		c1.5,3.7,18-4.4,22.5,1.5c1.4-0.3,2.9-1.1,3.6-3.1c1.9-5.1,9.6-6.1,11.2-2.1c0.4,1.1,1.4,3,2.6,5c0.8,0.1,1.6,0.2,2.5,0.4
		c1.8,0.3,3.1,0.7,4.1,1.2c1.7,0.8,2.3,1.8,2,2.7c-0.1,0.5-0.5,1-1,1.5c2.1,0,4.7-0.9,7.8-4.3c8.4-9,16.1-6.3,18.5-5.1
		c4.1,2.2-0.7,6.5,8,6.6c6.2,0.1,6.4,6.7,1.1,5.3c-5.3-1.3-5.6-0.3-5.3,2.1c0.3,2.4-3.5,4.5-6.9,2.4c-2.3-1.4-4.1-1.8-5.9-1.5
		c-1.8,0.3-3.3,1.2-3.6,3.4c-1.1,7.8,0.5,4.4,5.3,12.2c4.8,7.8,10.7,0.6,18.7,9.4c5.9,6.5,9.5,9.5,15.5,10.5
		c2.1,0.4,4.5,0.5,7.5,0.5c10.5,0,11.2-3.9,20.1-0.7c0.6,0.4,1.3,0.9,2,1.4c9.8,7.6,9.9,2.3,20.8-1.8c-0.6-0.3-1.2-0.5-1.6-0.8
		c-3.5-2.4-7.1-2.4-12-3.5c-4.9-1.1-6.4-1.4-4.8-3.2c0.3-0.4,0.8-0.7,1.5-1.1c-1.2-1.7-1.7-4.1-2-7.5c-0.7-7.2-4.3-6.6-14.9-11.1
		c-10.7-4.4-8.1-7.9,0-8.3c24.5-1.1,33.9,5.7,36.8,5.8c1.2,0,2.3,0.1,3.5,0.1c0.6-2,2.1-3.4,4.5-3.1c5.9,0.6,10.1-2.8,9.1-5.5
		c-1.1-2.8-17.6-8.9-27.2-4.4c-7.6,3.5-30.9,0.1-43.2-4c-3.2-1.1-5.7-2.2-6.9-3.2c-2.6-2.2-5.9-4.6-7.2-6.8h0
		c-1.7-2.8-0.3-5.3,9.9-6.5c0.6-0.1,1.2-0.1,1.8-0.2c4,0.1,14.5,0.6,17.8,2.7c3.5,2.1,10.4,2.7,7.5,0c-1.4-1.3,0.5-2.2,3.3-2.1
		c0.5,0,0.9,0.1,1.4,0.1c2.6,0.3,5.5,1.3,7,3.4c3.5,4.8,10.4-2.4,9.6-4.3c-0.8-1.9-0.5-5.6,4.8-6.4c0.7-0.1,1.4-0.2,1.9-0.4
		c3.6-0.9,4.1-2.4,1.5-5c-2.9-2.9-10.9-1.6-16.8,0.5c-5.9,2.1-11.7-1.9-16.3,0c-1.3,0.5-2.1,1.1-2.7,1.6c-1.4,0.8-1.6,2.6-2.6,3.8
		c-0.5,0.4-1,0.7-1.6,0.9c-1.9,0.4-5.4-0.7-12.4-5.1c0,0,0,0,0,0c-14.7-9.1-16.6-3.1-17.8-3.1c-1,1.8-2,3.7-3.3,5.3
		c-3.1,4-11.3,5.7-18.5,2.9c0.5,3,0.2,6.6-3.5,6.7c-6.4,0.3-5.1,0.3-9.6-4c-4.5-4.3-7.7-5.3-10.9-2.1c-3.2,3.2-3.9,6.2-8.7,3.2
		c-2.6-1.6-1.7-2.2-3.9-2.8c-1.7,0.1-2.5-0.5-5.1,0.7c-1.8,0.9-2,3.4-3.4,3.9c-2,1.2-5.7,1.2-7.3,1.1c-7.7-0.4-7.8-4.4-11.2-6
		c-1.7-0.5-2.6-0.4-3.4-0.1v10.9C0.4,456.4,1.9,456.5,3.4,456.8z"/>
	<path id="XMLID_1391_" fill="#DCD1C5" d="M5.2,425.7c-0.2,1.9,0.4,4.8,9.3,3.3c9-1.5,10.8-2.2,9-4.8c-1.8-2.6,2.4-4.1,5.9-2.7
		c3.4,1.4,7.8,2.5,9-0.7c0,0,0,0,0,0c0,0,0-0.1,0-0.1c0.1-0.2,0.1-0.4,0.1-0.6c1.1-4.3,4.3-5.4,7.3-3.5c3.7,2.4,6.7,1.9,8-0.5
		c1.3-2.4,5.9-2.1,12,0.3c6.1,2.4,3.5-4.5,2.4-7.5c-1.1-2.9,0.3-4.8,6.4-5.1c3.4-0.1,5.9-1.4,7.2-2.8c-1.6-1.1-4.1-1.9-7.4-1.6
		c-4.7,0.4-5.4-0.2-6.6-1.8c-0.9-1.2-2.1-2.9-5.5-5.1c-0.9-0.6-1.3-2.1,0.5-3.1c0.2-0.1,0.5-0.1,0.7-0.2c4-1.2,4.8,2.4,6.8,1
		c0.9-0.6,2-1.2,3.3-1.4c0.5-0.2,1.5-0.2,4,0.1c5.3,0.5,8.3,2.4,8.4,4.3c0.1,1.9,0.9,6.8,5.3,5.9c4.4-0.9,8.4-3.3,10.7-2.3
		c2.3,1.1,3.9,2,0.9,3.9c0,0,0,0-0.1,0c4.5,0.7,9.8,1.5,11.6-0.4c1-1,1-2.8-0.7-5.9c-2.1-3.8-7.4-2.3-14-1.3c-6.6,1-8-1.5-8.6-4.3
		c-0.6-2.8,5.9-1.8,6.9-5.9c0.8-3.8-6.5-5.1-15.7-3.1c-9.2,2-10.8-0.4-13.8-2.2c-1.5-0.9-4.3-0.2-7.3,1c-2.3,0.6-4.3,1.7-6.2,2.6
		c-0.6,0.3-1.2,0.5-1.8,0.7c-4.7,0.7-10.6-8.5-16.6-11.1c-4.6-2-7.7-1.5-8.7-3.3c0-1.1,0-2.1,0-2.9c0-3.1,0-5-2.4-7.4
		c-3.2-3.2-9.8-4-8.4,0.6c0.8,2.5-8.2-3-9.6-0.2c-1.3,2.6,2.9,3.5,4.3,5.6c0.1,0.2,0.2,0.4,0.3,0.6c0.2,0.4,0.5,0.8,0.9,1.2
		c1,3.6-3.3,5.2-1,6.5c6.6,3.7,6-2,10.9,3.6c0.2,0.2,0.4,0.5,0.7,0.8c1.3,1.5,1.1,2.7,0,3.4c-2.1,1.5-7.8,1.4-11.8-0.3
		c-5-2.1-5.8,2.5-4.6,5.4c0.4,0.4,0.8,0.8,1.4,1.1c2.1,1.3,2.9,2,1.9,3.7c-0.5,0.8-1.6,1.4-2.7,2.1c-0.6,0.7-1.4,1.5-2.3,2.4
		c-0.3,0.3-0.6,0.6-0.7,0.9c-0.2,0.5-0.3,1.1-0.3,1.6c0.2,0.7,1,1.3,2,1.6c0.7,0,1.6-0.2,2.7-0.6c5.5-1.9,6.5-7.1,8.3-4.7
		c1.7,2.4,5.1,4.1,8.3,1.6c3.2-2.5,9.5-3.1,9.7,0.3c0.3,3.3-1.2,5.9,3.1,7.1c4.3,1.2,3.6,3.3-0.7,6c-4.3,2.7-3.6,7.5-8,5.6
		c-4.4-1.9-4.4-0.9-7.5-0.5c-3.1,0.4-5.1-1.3-5.3-3.5c0-0.1,0-0.1,0-0.2c-0.6-1.7-0.5-3.4-1.9-3.4c-7.1,0-6-3.5-10.5-4.3
		c-2.8-0.5-3.6,2.7-5.8,4.7v17.5c0.4-0.1,0.8-0.1,1.3-0.1C4.6,423.4,5.3,423.8,5.2,425.7z"/>
	<path id="XMLID_1392_" fill="#DCD1C5" d="M109.6,545.5c2.8,0.6,2.6-2.4,4.8-1.7c2.1,0.7,3.7-0.2,4.9,1.4c2.6,3.5-0.4,5.2-0.5,5.6
		c-0.1,0.7,0,1.2,0.2,1.6c1,0.5,2,0.8,2.7,0.8c0.3,0,0.5-0.1,0.8-0.1c0.1,0,0.2-0.1,0.2-0.1c2.6-1.3,4.5-1.5,5.7,0.3
		c1.2,1.8,2.4,3.3,5.8,3.3c5.7,0,6.1-2.9,6.9-4.9c1.5-1.5,2.8-2.8,1.4-6.4c-2-5.2-6,1.6-10.8-3.2c-4.8-4.8-6.2-10.2-14.4-10.6
		c-8.2-0.4-2.6,5.8-10,1.8c-7.4-4-9.4,0.4-6.6,3.8c1.3,1.6,2.5,1.8,3.5,1.9c0.4,0.2,0.8,0.5,1.1,0.9
		C107,541.6,106.8,544.9,109.6,545.5z"/>
	<path id="XMLID_1393_" fill="#DCD1C5" d="M261.3,212.8c0.5,0.3,1,0.5,1.4,0.8c7.2,3,20.2,2.5,26.6-2.2c6.4-4.7,6.1-4.2,7.7-0.6
		c1.6,3.5,7.2-1.2,14.5,0.2c0.1-0.7,0.2-1.5,0.3-2.3c0.4-3.3,11.8-3.6,14.6-2.2c0.8,0.4,1.5,0.6,2.2,0.7c1.3-0.2,2.3-0.3,2.8-0.5
		c0.8-0.3,1.7-0.5,2.4-0.8c1.8-1,1.4-3.1,0.2-4c-1.3-0.9-1.4-1.5-0.2-2.5c0.8-1.3,3.5-1.7,6.2-0.8c2.8,1,6.8,1.7,10.2,0.4
		c0-1.3-0.5-2.8-1.2-4.1c-0.4-0.7-0.9-1.4-1.6-1.9c-3.3-2.9-1.1-7.2,1.1-6.1c2.2,1.1,7.2,5.7,13.3,4.8c2.8-0.4,4.1,0.6,5.1,1.9
		c1.2,1.5,2.1,3.2,4.7,3.1c1.3-0.1,2.6,0,4,0.3c0.3-0.2,0.7-0.3,1.1-0.5c4.4-1.9,9.9-2.7,12.6-1.5c4.9,2.2,11.2,0.1,8.9-5.2
		c-1-2.3-3.3-3.2-5.9-3.7c-0.7,0.1-1.5,0.2-2.2,0.4c-5.6,1.6-6-0.8-8.4-2.8c-0.2-0.2-0.5-0.4-0.8-0.5c-1-0.2-2-0.2-3,0
		c-2.1,0.5-5,1.8-9.2,2.9c-7.4,1.8-7.8-2.8-4.6-3.4c3.2-0.6,4.2-2.6,1.8-3.8c0,0,0,0,0,0c-0.4,0.2-0.9,0.3-1.4,0.4
		c-7.4,1.6-6.8-10-8.4-14.8c-0.3-1-0.7-1.8-1.1-2.4c-1-0.6-2.1-1.1-3.1-1.6c-2.2-0.2-5.7,0.6-11.5,2.3c-12.2,3.6-9.8-3-13.8-6.8
		c-3.9-3.7-16,6.5-23.5,10.8c-0.7,0.6-1.5,1.2-2.4,1.5c-6.4,2.8,0,10.5,9.1,7.8c9.1-2.8,10.1,0.6,10.7,4.4
		c0.5,3.9-11.7,5.5-16.5,6.1c-4.8,0.6-12.3,2.8-21.9-2.2c-9.6-5-12.3,5-22.4,0.6c-6.7-2.9-8.3,2.9-7.3,7.5c3.8,0.9,8.2,1.4,11.3,1.4
		c0.8,0,1.5,0,2.1,0c0.5,0,0.9,0,1.4,0c6.7-0.3,10.4,3.9,10.1,6.5c-0.1,0.5-0.3,1-0.6,1.3c-1.3,1.5-4.7,1.6-9.5,0.2
		c-1.1-0.3-2.1-0.4-3.1-0.4c-1.7,0.4-3.6,1.1-5.7,2.1c-1.8,0.8-3.4,1.4-4.9,1.9c-0.5,0.2-0.9,0.3-1.4,0.5c-0.7,0.2-1.2,0.3-1.7,0.3
		c-2.3,0.4-4.5,0.3-7,0c-1,0.5-2.6,0.9-4.9,1c-7.5,0.3-5.3,1.4-3.6,3.2c1.7,1.7,14.3-3.1,19.2-0.3c1.3,0.8,2.2,1.7,2.6,2.6
		c0-0.1,0-0.2-0.1-0.3C256.3,212.3,257.1,210.6,261.3,212.8z"/>
	<path id="XMLID_1394_" fill="#DCD1C5" d="M176.4,242.2c-2.3,3-3.7,6.5,1.3,12.7c0.2-0.1,0.5-0.1,0.7-0.2c7.2-1.9,11.8,0.4,18.8-1.9
		c0.3-0.1,0.6-0.2,0.8-0.2c0.1,0,0.2,0,0.3,0c0.1,0,0.3,0,0.4,0c0.1,0,0.3,0,0.4,0c0.1,0,0.2,0,0.3,0c0.1,0,0.3,0.1,0.4,0.1
		c0.1,0,0.1,0,0.2,0.1v0v0c0,0,0.1,0.1,0.1,0.1c2.2,1.2,3.3,4.6,5.1,6.5c0,0,0,0,0,0c0.1,0.1,0.2,0.2,0.3,0.3c0,0,0,0,0,0
		c0.1,0.1,0.2,0.2,0.3,0.2c0,0,0,0,0.1,0c0.1,0.1,0.2,0.1,0.3,0.2c0,0,0,0,0.1,0c0.1,0.1,0.2,0.1,0.3,0.2c0,0,0.1,0,0.1,0
		c0.1,0,0.2,0.1,0.3,0.1c0,0,0.1,0,0.1,0c0.1,0,0.2,0.1,0.3,0.1c0,0,0.1,0,0.1,0c0.1,0,0.2,0,0.3,0c0,0,0.1,0,0.1,0
		c0.1,0,0.2,0,0.3,0c0,0,0.1,0,0.1,0c0.1,0,0.2,0,0.3,0c0.1,0,0.1,0,0.2,0c0.1,0,0.2,0,0.3-0.1c0.1,0,0.1,0,0.2,0
		c0.1,0,0.2-0.1,0.3-0.1c0.1,0,0.1,0,0.2-0.1c0.1,0,0.3-0.1,0.4-0.2c0.1,0,0.1,0,0.2-0.1c0.2-0.1,0.4-0.2,0.6-0.3
		c5.9-3.1,11.7-0.4,14.9,3.2c0.3-0.2,0.6-0.4,0.9-0.6c1.5-0.8,3.6-0.7,6.8,0.9c0.8,0.4,1.6,0.7,2.3,0.9c6.4,1.9,6.8-5.1,9.2-7.6
		c2.7-2.8,12.3,3.3,14.1-0.6c0.3-0.5,0.6-1.1,0.9-1.6c-1.9-1.5-4-2.8-6.1-3.9c-8.4-5.6-20.1-2.5-25.2-3.7c-3-0.7-7.7-2-12.3-4.5
		c0,0-0.1,0-0.1-0.1c-0.3,0.1-0.7,0.1-1,0.2c-0.1,0-0.3,0-0.4,0c-0.2,0-0.4,0-0.6,0.1c-0.2,0-0.4,0-0.5,0c-0.2,0-0.4,0-0.6,0
		c-0.2,0-0.4,0-0.6,0c-0.2,0-0.3,0-0.5,0c-0.2,0-0.5-0.1-0.7-0.1c-0.1,0-0.3,0-0.4,0c-0.3,0-0.5-0.1-0.8-0.2c-0.1,0-0.2,0-0.3-0.1
		c-0.3-0.1-0.6-0.1-0.9-0.2c-0.1,0-0.1,0-0.2-0.1c-0.3-0.1-0.6-0.2-1-0.3c0,0-0.1,0-0.1,0c-0.3-0.1-0.7-0.2-1-0.4c0,0,0,0-0.1,0
		c-2.4-1-4.7-2.5-6.3-4.2c0,0,0,0,0,0v0V237c-0.1-0.1-0.1-0.1-0.1-0.2c-0.2-0.3-0.4-0.5-0.6-0.8c-0.2-0.3-0.4-0.5-0.5-0.8
		c-3.2-5.5-14.9-18.8-18.7-11.9c-1.3,2.4-2.1,4.7-2.9,6.4c-0.3,0.7-0.6,1.4-1,1.9c-0.1,0.2-0.3,0.4-0.4,0.6c0.8,1,1.7,1.9,2.4,2.8
		C179.4,237.6,178.4,239.6,176.4,242.2z"/>
	<path id="XMLID_1395_" fill="#DCD1C5" d="M183,44.7c5.9,0.8,12-2.5,14.7-1.7c2.7,0.8,4,3.9-1.3,6.4c-5.3,2.5-2.4,4.7,2.7,5.3
		c0.2,0,0.4,0,0.6,0.1c0.1,0,0.3,0,0.4,0.1c0,0,0,0,0,0v0v0c0.1,0,0.1,0,0.1,0c3.4,0.7,2,2.3,0.3,5.3c-0.1,0.2-0.2,0.4-0.3,0.5
		c0,0.1-0.1,0.2-0.1,0.3v0.3v0c-0.9,1.7-1,2.9,0,3.7v0v0.1c0,0,0.1,0,0.1,0.1c0,0,0,0,0,0c0.1,0.1,0.3,0.1,0.4,0.2c0,0,0,0,0,0
		c0.1,0.1,0.3,0.1,0.5,0.2c0,0,0.1,0,0.1,0c0.1,0,0.3,0.1,0.4,0.1c0.2,0,0.4,0.1,0.7,0.1c4,0.6,9.9,2.5,10.7,4.2
		c0.8,1.7,2.7,4.2,6.7,0.3c4-3.9,8.2-10.2,2.7-11.4c-8.3-1.7-8.3-5.8-7.2-10.2c1.1-4.4,8.8-2.5,16.5-0.3c7.7,2.2,19.2-1.7,25.3-6.9
		c6.1-5.3,11.7,1.7,15.5-0.3c3.7-1.9,4.3-1.9,6.4-0.6c2.1,1.4,5.6,1.9,10.1-0.3c4.5-2.2,10.9,2.5,14.9,4.4s21.1-2.5,20-5.5
		c-1.1-3-5.1,1.1-6.7-1.7c-1.6-2.8-5.9-3.3-12.3-4.7c-6.4-1.4-9.9,3.6-14.7,0.8c-4.8-2.8-7.7,0.3-14.1,3.3c-6.4,3-12.8-1.7-20.5-5.8
		c-7.7-4.2-10.4,3-15.7,6.4c-5.3,3.3-18.7,4.4-21.6,0.6c-2.9-3.9,4-4.4-1.9-8.9c-5.9-4.4-4,0.3-13.1-2.5c-0.5-0.2-1-0.3-1.6-0.4
		c-0.3-0.1-0.6-0.1-1-0.1c-0.2,0-0.4-0.1-0.7-0.1v0c0,0-0.1,0-0.1,0c0,0,0,0,0,0c-5.1-0.4-11.2,1.2-16.1,3.2c0,0,0,0,0,0
		c-0.3,0.1-0.5,0.2-0.8,0.3c0,0,0,0-0.1,0c-0.2,0.1-0.5,0.2-0.7,0.3c0,0-0.1,0-0.1,0c-0.2,0.1-0.4,0.2-0.6,0.3c0,0-0.1,0-0.1,0.1
		c-0.2,0.1-0.4,0.2-0.6,0.3c-0.1,0-0.1,0.1-0.2,0.1c-0.2,0.1-0.3,0.2-0.5,0.3c-0.1,0-0.1,0.1-0.2,0.1c-0.1,0.1-0.3,0.2-0.4,0.3
		c-0.1,0-0.1,0.1-0.2,0.1c-0.1,0.1-0.3,0.2-0.4,0.2c-0.1,0.1-0.1,0.1-0.2,0.2c-0.1,0.1-0.2,0.2-0.3,0.2c-0.1,0.1-0.2,0.1-0.2,0.2
		c-0.1,0.1-0.2,0.1-0.3,0.2c-0.1,0.1-0.2,0.1-0.3,0.2c-0.1,0.1-0.1,0.1-0.2,0.2c-0.1,0.1-0.2,0.1-0.2,0.2c-0.1,0.1-0.1,0.1-0.2,0.2
		c-0.1,0.1-0.2,0.2-0.3,0.3c0,0-0.1,0.1-0.1,0.1c-0.1,0.1-0.2,0.2-0.3,0.3c0,0,0,0,0,0c-0.1,0.1-0.2,0.2-0.3,0.3
		C173.2,38.6,177.2,43.9,183,44.7z"/>
	<path id="XMLID_1396_" fill="#DCD1C5" d="M456.1,107.3c-1.3,0.5-2.1,1.1-2.7,1.6c-1.4,0.8-1.6,2.6-2.6,3.8c-0.5,0.4-1,0.7-1.6,0.9
		c-1.9,0.4-5.4-0.7-12.4-5.1c0,0,0,0,0,0c-14.7-9.1-16.6-3.1-17.8-3.1c-1,1.8-2,3.7-3.3,5.3c-3.1,4-11.3,5.7-18.5,2.9
		c0.5,3,0.2,6.6-3.5,6.7c-6.4,0.3-5.1,0.3-9.6-4c-4.5-4.3-7.7-5.3-10.9-2.1c-3.2,3.2-3.9,6.2-8.7,3.2c-2.6-1.6-1.7-2.2-3.9-2.8
		c-1.7,0.1-2.5-0.5-5.1,0.7c-1.8,0.9-2,3.4-3.4,3.9c-2,1.2-5.7,1.2-7.3,1.1c-7.7-0.4-7.8-4.4-11.2-6c-5.4-1.6-3.4,2.8-11.2,0.6
		c-2.7-0.7-1.5-5.6-8.1-4.2c-6.6,1.4-2.1-6.7-11.4-6.8c-7-0.1-9.8,8.9-14.6,4.1c-4-4.1-11.6-5.6-12.9-2.5c-0.3,0.4-0.3,1.1,0,2.2
		c1.3,4.7-1.8,13.7-7.7,16.7c1,0.2,2.4-0.2,4.3-1.6c6.1-4.5,7.2-1.8,9.2,0.2c1.9,2,10.5,3.5,17.9,0.3c7.4-3.2,12.8-3.2,12.1,0.8
		c-0.2,1.1-1.1,2.2-2.2,3.3c6.4,1.2,11.2,3.8,14.4,0.4c1.2-1.2,2.8-2,4.5-2.3h0c2.2-0.5,4.6-0.4,6.9,0h0c3.5,0.7,6.5,2.2,7.3,4
		c1.6,3.9-7.5,1.1-5.9,5c1.5,3.7,18-4.4,22.5,1.5c1.4-0.3,2.9-1.1,3.6-3.1c1.9-5.1,9.6-6.1,11.2-2.1c0.4,1.1,1.4,3,2.7,5
		c0.8,0.1,1.6,0.2,2.5,0.4c1.8,0.3,3.1,0.7,4.1,1.2c1.7,0.8,2.3,1.8,2,2.7c-0.1,0.5-0.5,1-1,1.5c2.1,0,4.7-0.9,7.8-4.3
		c8.4-9,16.1-6.3,18.5-5.1c4.1,2.2-0.7,6.5,8,6.6c6.2,0.1,6.4,6.7,1.1,5.3c-5.3-1.3-5.6-0.3-5.3,2.1c0.3,2.4-3.5,4.5-6.9,2.4
		c-2.3-1.4-4.1-1.8-5.9-1.5c-1.8,0.3-3.3,1.2-3.6,3.4c-1.1,7.8,0.5,4.4,5.3,12.2c4.8,7.8,10.7,0.6,18.7,9.4
		c5.9,6.5,9.5,9.5,15.5,10.5c2.1,0.4,4.5,0.5,7.5,0.5c10.5,0,11.2-3.9,20.1-0.7c0.6,0.4,1.3,0.9,2,1.4c7,5.4,9,4.3,13.6,1.7V179
		c-1.9-0.4-4-0.7-6.4-1.2c-4.9-1.1-6.4-1.4-4.8-3.2c0.3-0.4,0.8-0.7,1.5-1.1c-1.2-1.7-1.7-4.1-2-7.5c-0.7-7.2-4.3-6.6-14.9-11.1
		c-10.7-4.4-8.1-7.9,0-8.3c12.4-0.6,20.9,0.9,26.7,2.5v-9.7c-7.6,3.5-30.9,0.1-43.2-4c-3.2-1.1-5.7-2.2-6.9-3.2
		c-2.6-2.2-5.9-4.6-7.2-6.8h0c-1.7-2.8-0.3-5.3,9.9-6.5c0.6-0.1,1.2-0.1,1.8-0.2c4,0.1,14.5,0.6,17.8,2.7c3.5,2.1,10.4,2.7,7.5,0
		c-1.4-1.3,0.5-2.2,3.3-2.1c0.5,0,0.9,0.1,1.4,0.1c2.6,0.3,5.5,1.3,7,3.4c2.5,3.4,6.7,0.7,8.7-1.8v-15.6c-2.6,0.4-5.3,1.1-7.6,1.9
		C466.5,109.4,460.7,105.4,456.1,107.3z"/>
	<path id="XMLID_1397_" fill="#DCD1C5" d="M344.5,33.5c1,3.6-3.3,5.2-1,6.5c6.6,3.7,6-2,10.9,3.6c0.2,0.2,0.4,0.5,0.7,0.8
		c1.3,1.5,1.1,2.7,0,3.4c-2.1,1.5-7.8,1.4-11.8-0.3c-5-2.1-5.8,2.5-4.6,5.4c0.4,0.4,0.8,0.8,1.4,1.1c2.1,1.3,2.9,2,1.9,3.7
		c-0.5,0.8-1.6,1.4-2.7,2.1c-0.6,0.7-1.4,1.5-2.3,2.4c-0.3,0.3-0.6,0.6-0.7,0.9c-0.2,0.5-0.3,1.1-0.3,1.6c0.2,0.7,1,1.3,2,1.6
		c0.7,0,1.6-0.2,2.7-0.6c5.5-1.9,6.5-7.1,8.3-4.7c1.7,2.4,5.1,4.1,8.3,1.6c3.2-2.5,9.5-3.1,9.7,0.3c0.3,3.3-1.2,5.9,3.1,7.1
		c4.3,1.2,3.6,3.3-0.7,6c-4.3,2.7-3.6,7.5-8,5.6c-4.4-1.9-4.4-0.9-7.5-0.5c-3.1,0.4-5.1-1.3-5.3-3.5c0-0.1,0-0.1,0-0.2
		c-0.6-1.7-0.5-3.4-1.9-3.4c-7.1,0-6-3.5-10.5-4.3c-5.3-0.9-3.3,12-18.5,2.6c-11.2-6.9-32.3-4.9-35.5-1.1c-5.9,7.2,9.3,3.9,8.8,9.4
		c-0.1,1.3-0.5,2.8-1.3,4.2c6.9-1.2,12-1,16.1-0.1c4.6,1.8,8.2,5.1,8.9,6.5c0.9,1.8,4,7.1,8.8,5.3c4.8-1.8,3.8-4.9,8.2-4.8
		c4.4,0.1,5.1,0.5,4.9,2.5c-0.2,1.9,0.4,4.8,9.3,3.3c9-1.5,10.8-2.2,9-4.8c-1.8-2.6,2.4-4.1,5.9-2.7c3.4,1.4,7.8,2.5,9-0.7
		c0,0,0,0,0,0c0,0,0-0.1,0-0.1c0.1-0.2,0.1-0.4,0.1-0.6c1.1-4.3,4.3-5.4,7.3-3.5c3.7,2.4,6.7,1.9,8-0.5c1.3-2.4,5.9-2.1,12,0.3
		c6.1,2.4,3.5-4.5,2.4-7.5c-1.1-2.9,0.3-4.8,6.4-5.1c3.4-0.1,5.9-1.4,7.2-2.8c-1.6-1.1-4.1-1.9-7.4-1.6c-4.7,0.4-5.4-0.2-6.6-1.8
		c-0.9-1.2-2.1-2.9-5.5-5.1c-0.9-0.6-1.3-2.1,0.5-3.1c0.2-0.1,0.5-0.1,0.7-0.2c4-1.2,4.8,2.4,6.8,1c0.9-0.6,2-1.2,3.3-1.4
		c0.5-0.2,1.5-0.2,4,0.1c5.3,0.5,8.3,2.4,8.4,4.3c0.1,1.9,0.9,6.8,5.3,5.9c4.4-0.9,8.4-3.3,10.7-2.3c2.3,1.1,3.9,2,0.9,3.9
		c0,0,0,0-0.1,0c4.5,0.7,9.8,1.5,11.6-0.4c1-1,1-2.8-0.7-5.9c-2.1-3.8-7.4-2.3-14-1.3c-6.6,1-8-1.5-8.6-4.3
		c-0.6-2.8,5.9-1.8,6.9-5.9c0.8-3.8-6.5-5.1-15.7-3.1c-9.2,2-10.8-0.4-13.8-2.2c-1.5-0.9-4.3-0.2-7.3,1c-2.3,0.6-4.3,1.7-6.2,2.6
		c-0.6,0.3-1.2,0.5-1.8,0.7c-4.7,0.7-10.6-8.5-16.6-11.1c-4.6-2-7.7-1.5-8.7-3.3c0-1.1,0-2.1,0-2.9c0-3.1,0-5-2.4-7.4
		c-3.2-3.2-9.8-4-8.4,0.6c0.8,2.5-8.2-3-9.6-0.2c-1.3,2.6,2.9,3.5,4.3,5.6c0.1,0.2,0.2,0.4,0.3,0.6
		C343.8,32.8,344.1,33.2,344.5,33.5z"/>
	<path id="XMLID_1398_" fill="#DCD1C5" d="M463.1,210.7c-4.8-4.8-6.2-10.2-14.4-10.6c-8.2-0.4-2.6,5.8-10,1.8
		c-7.4-4-9.4,0.4-6.6,3.8c1.3,1.6,2.5,1.8,3.5,1.9c0.4,0.2,0.8,0.5,1.1,0.9c1.6,1.7,1.4,5,4.2,5.6c2.8,0.6,2.6-2.4,4.8-1.7
		c2.1,0.7,3.7-0.2,4.9,1.4c2.6,3.5-0.4,5.2-0.5,5.6c-0.1,0.7,0,1.2,0.2,1.6c1,0.5,2,0.8,2.7,0.8c0.3,0,0.5-0.1,0.8-0.1
		c0.1,0,0.2-0.1,0.2-0.1c2.6-1.3,4.5-1.5,5.7,0.3c1.2,1.8,2.4,3.3,5.8,3.3c5.7,0,6.1-2.9,6.9-4.9c1.5-1.5,2.8-2.8,1.4-6.4
		C471.9,208.6,467.9,215.4,463.1,210.7z"/>
	<path id="XMLID_1399_" fill="#DCD1C5" d="M174,674.8c0,0,0.1-0.1,0.1-0.1c0,0,0.1,0,0.1-0.1c0,0,0.1-0.1,0.1-0.1c0,0,0.1,0,0.1,0
		c0.1,0,0.1-0.1,0.2-0.1c0,0,0.1,0,0.1,0c0.1,0,0.2,0,0.2-0.1c0,0,0.1,0,0.1,0c0.1,0,0.2,0,0.3,0c0,0,0,0,0,0
		c3.3-0.3,11.3,1.4,24.8-1.6v0v0c0.8-0.2,1.5-0.3,2.3-0.6c-0.2,0-0.5-0.1-0.7-0.1c-0.1,0-0.2,0-0.3,0c-0.1,0-0.2,0-0.3,0
		c-0.4-0.1-0.7-0.1-1-0.2v0c-0.1,0-0.1,0-0.1,0c-3.3-0.7-2.5-1.6-0.8-4.2c0.1-0.1,0.2-0.2,0.3-0.4c0.1-0.1,0.2-0.1,0.2-0.2
		c0.1-0.1,0.2-0.2,0.3-0.2v-0.1v0c0.1,0,0.2-0.1,0.2-0.1c0.1-0.1,0.3-0.1,0.5-0.2c0.1,0,0.2-0.1,0.3-0.1c0.2-0.1,0.4-0.1,0.6-0.2
		c0.1,0,0.2-0.1,0.3-0.1c0.5-0.2,1.1-0.3,1.8-0.5c0,0,0.1,0,0.1,0h0h0.1c0,0,0.1,0,0.1,0c5.8-1.3,15.4-1.9,22.3-2.6
		c0.1,0,0.2,0,0.3,0c0.3,0,0.6-0.1,0.9-0.1c0.2,0,0.4,0,0.6-0.1c0.2,0,0.5-0.1,0.7-0.1c0.2,0,0.5-0.1,0.7-0.1
		c0.4-0.1,0.9-0.1,1.3-0.2c1.1-0.2,2.1-0.3,3.2-0.4c0,0,0.1,0,0.1,0c0.5,0,1-0.1,1.5-0.1c0.1,0,0.2,0,0.3,0c0.4,0,0.9-0.1,1.3-0.1
		c0.3,0,0.5,0,0.8,0c0.3,0,0.6,0,0.8,0c0.3,0,0.7,0,1,0c0.2,0,0.4,0,0.6,0c0.4,0,0.8,0,1.2,0.1c0.1,0,0.2,0,0.4,0
		c0.5,0,1,0.1,1.4,0.1c0,0,0.1,0,0.1,0c0.5,0.1,1,0.1,1.5,0.2c0,0,0,0,0,0c3.5,0.6,6.6,1.6,9.1,3.4c0,0,0,0,0,0h0h0
		c0.1,0,0.1,0.1,0.2,0.1c5.6,4.2,7.2,4.2,19.7,2.2c8.2-1.3,15.1,1.7,20.3,5.5c0.1,0,0.1,0,0.2,0c0.6-0.3,1-0.9,1.4-1.8
		c0.4-1,0.2-2.3,0-3.5c-0.2-0.9-0.4-1.7-0.5-2.4c0,0,0-0.1,0-0.1h0c0-0.3-0.1-0.6,0-0.8c0,0,0,0,0,0c0-0.1,0-0.1,0-0.2c0,0,0,0,0,0
		c0-0.1,0-0.1,0-0.2c0,0,0,0,0,0c0-0.1,0-0.1,0.1-0.2c0,0,0,0,0,0c0,0,0.1-0.1,0.1-0.1c0,0,0,0,0,0c0,0,0.1-0.1,0.1-0.1
		c0,0,0,0,0.1,0c0,0,0.1-0.1,0.1-0.1c0,0,0,0,0.1,0c0.1,0,0.1,0,0.2-0.1c0,0,0,0,0.1,0c0.1,0,0.1,0,0.2,0c0,0,0.1,0,0.1,0
		c0.1,0,0.1,0,0.2,0c0.1,0,0.1,0,0.2,0c0.1,0,0.1,0,0.2,0c0.1,0,0.2,0,0.2,0c0.1,0,0.1,0,0.2,0c0.1,0,0.2,0,0.3,0c0.1,0,0.1,0,0.2,0
		c0.2,0,0.3,0.1,0.5,0.1c4,0.9,6.8,0.5,9.2-0.6c-1.2-1.4-2.9-2.9-5.3-4.4c-9.3-5.5-14.1-8-18.9-6.9c-4.8,1.1-5.9,0.6-6.9-3.9
		c-1.1-4.4-6.7-0.8-8.3-3.6c-1.6-2.8,3.7-5.3,9.6-6.9c5.9-1.7,12-3.3,16.5-1.7c3.5,1.3,5.6-2.1,7.6-4.7c-2.5-2.3-7.8-2.6-12.8-1.7
		c-5.4,1-10.2-3.3-6.6-5.6c3.6-2.3,10-7.3,16.6-3.3c6.6,3.9,9.6,1.2,10.4-0.4c0.8-1.6,3.8-1.1,7.7,0.3c5.9,0.3,13-3.1,14.2-5.6
		c1.3-2.8-4.5-3.6-13.1-3c-2.2,0.1-4.3,0.3-6.4,0.5c-6.2,0.4-12.1,0.6-17.9-1c-7.7-2.2-10.4,2.2-10.9-2.2
		c-0.5-4.3-1.5-11.1-7.4-11.6c-2.8,1.5-5.4,4.3-8.7,4.4c-0.2,0-0.4,0-0.6,0c-0.1,2.3-1.2,4.2-3,3.6c-4.6-1.7-12.2-0.6-18.6,0.8
		c-6.4,1.5,5.4,5.4,9.2,8.5c2.9,2.4-0.7,4.9-4.5,4.5c-1.1-0.1-2.2-0.5-3.1-1.2c-4.2-3.1-12-5.8-16.6-6c-0.3,0-0.5,0-0.8,0
		c-4.2,0.2-7.6,4-10.2,1.4c-2.8-2.7-5.4-2.7-9-0.8c-3.6,1.9-7,0.8-8.8-1.5c-0.3-0.4-0.6-0.8-0.9-1.1v0v-0.2c0-0.1-0.1-0.1-0.1-0.2
		c0,0,0,0,0-0.1c-0.3-0.3-0.5-0.6-0.7-0.9c0,0,0,0,0,0c-3.5-4-5.2-4.4-7-4.3c-0.1,0-0.3,0-0.4,0c0,0.1-0.1,0.3-0.2,0.4
		c-0.9,1.7-2.1,3.1-3,4.3c-1.4,1.8-2.2,2.9-0.8,3.8c0.1,0.1,0.3,0.1,0.5,0.2c0.1,0,0.1,0,0.2,0c0.1,0,0.3,0.1,0.4,0.1
		c0.1,0,0.1,0,0.2,0c0.2,0,0.3,0,0.5,0c0.1,0,0.1,0,0.2,0c0.2,0,0.4,0,0.6-0.1c0,0,0,0,0.1,0c1.5-0.2,3.3-0.7,5.1-0.9c0,0,0,0,0,0
		c0.3,0,0.5,0,0.8-0.1c0,0,0.1,0,0.1,0c0.2,0,0.5,0,0.7,0c0.1,0,0.1,0,0.2,0c0.2,0,0.4,0.1,0.6,0.1c0.1,0,0.1,0,0.2,0
		c0.2,0,0.4,0.1,0.6,0.2c0.1,0,0.1,0,0.2,0.1c0.2,0.1,0.3,0.2,0.5,0.3c0.1,0,0.1,0.1,0.2,0.1c0.1,0.1,0.3,0.2,0.4,0.3
		c0.1,0,0.1,0.1,0.2,0.1v0v0.1c0.2,0.2,0.3,0.4,0.4,0.6c2.6,4.6,5.2,10.2,11.6,10c1.3,0,2.9-0.2,4.6-0.4c0.8,0.1,1.6,0.1,2.4,0.1
		c7.4,0,6.6,3.1,2.6,5.6c-1.1,0.7-2.4,1.5-3.8,2.3c2.7,0.4,3.1,2.8,7,2c5.2-1.1,9.9,0,11.3,2.4c1.5,2.4,4.7,1.7,8.4,0.6
		c3.7-1.1,7.6,0.6,5.7,2.8c-1.9,2.2-5.1,4.8-9.3,2.9c-4.3-1.9-6.8,3.5-10.5,6.5c-3.7,3-19.6,3.6-26,1.1c-0.4-0.2-0.8-0.3-1.2-0.4
		c0,0,0,0,0,0c-0.4-0.1-0.7-0.1-1.1-0.2c0,0,0,0,0,0c-0.3,0-0.7,0-1,0c0,0,0,0,0,0c-0.3,0-0.6,0-1,0.1l0,0c0,0-0.1,0-0.1,0v0l0,0
		c-2.1,0.4-3.9,1.7-6.1,2.2c0,0,0,0-0.1,0c-0.2,0-0.4,0.1-0.6,0.1c0,0-0.1,0-0.1,0c-0.2,0-0.4,0-0.5,0.1c-0.1,0-0.1,0-0.2,0
		c-0.2,0-0.4,0-0.5,0c-0.1,0-0.1,0-0.2,0c-0.2,0-0.4,0-0.5,0c-0.1,0-0.2,0-0.3,0c-0.2,0-0.4-0.1-0.6-0.1c-0.1,0-0.2,0-0.2,0
		c-0.3-0.1-0.6-0.1-0.9-0.2c-6.7-1.9-13.3,1.9-14.9-0.6c-1.6-2.5,2.8-4.3,5.7-5.3c2.9-1,12.3-0.5,17.7-0.8c0.3,0,0.6,0,0.8-0.1
		c0,0,0.1,0,0.1,0c0.2,0,0.4-0.1,0.6-0.1c0,0,0,0,0,0c0.4-0.1,0.6-0.2,0.8-0.4c0,0,0,0,0,0c0.1-0.1,0.1-0.2,0.1-0.2v-0.4
		c0-0.1-0.1-0.2-0.1-0.3c0,0,0,0,0,0c-0.4-0.6-1.3-1.5-2.5-2.4c0,0,0,0,0,0c-0.3-0.2-0.6-0.5-1-0.7c0,0,0,0,0,0
		c-0.4-0.3-0.7-0.5-1.1-0.8c0,0,0,0,0,0c-0.8-0.5-1.6-1.1-2.5-1.7c-6.1-4.2-10.7,1.8-15.3,2.1c-2.2,0.1-4.1,0.4-6.3,0.6
		c0.1,0.2,0.1,0.4,0.1,0.6c-0.6,2.5-4.8,3.3-12.6,2.5c-7.8-0.8-16-2.3-22-3.9c-6-1.7-9.6,5-14,2.3c-4.4-2.7-8,1-12.2,1.7
		c-4.2,0.6-1.4,3.9,3.2,3.5c4.6-0.4,8.6,0.8,10.2,3.1c1.6,2.3,5,2.9,11.2,2.5c6.2-0.4,10.4,1.9,10.6,4.2c0.2,2.3-3,1.7-7.4,1.9
		c-4.4,0.2-9.4,2.5-14.8,2.5c-4.7,0-12.3-2.2-18-2.8c-0.9-0.1-1.8-0.2-2.6-0.2c-5.8,0-9.2,4.8-14.2,3.7c-0.2,0-0.4-0.1-0.5-0.1
		c0,0-0.1,0-0.1,0c-0.1,0-0.2,0-0.3,0c0,0-0.1,0-0.1,0c-0.1,0-0.2,0-0.2,0c-0.1,0-0.1,0-0.1,0c-0.1,0-0.1,0-0.2,0c0,0-0.1,0-0.1,0.1
		c0,0-0.1,0-0.1,0.1c0,0-0.1,0.1-0.1,0.1c0,0,0,0-0.1,0.1c0,0-0.1,0.1-0.1,0.2c0,0,0,0,0,0c0,0.1,0,0.1,0,0.2c0,0,0,0,0,0
		c0,0.1,0,0.2,0,0.2c0,0,0,0,0,0c0,0.1,0,0.2,0.1,0.3c0,0,0,0,0,0c0,0.1,0.1,0.2,0.1,0.3c0,0,0,0,0,0c0,0.1,0.1,0.2,0.1,0.3
		c0,0,0,0,0,0.1c0,0.1,0.1,0.2,0.2,0.3c0,0,0,0,0,0.1c0.1,0.1,0.1,0.2,0.2,0.3c0,0,0,0.1,0.1,0.1c0.1,0.1,0.1,0.2,0.2,0.3
		c0,0,0.1,0.1,0.1,0.1c0.1,0.1,0.1,0.2,0.2,0.2c0,0.1,0.1,0.1,0.1,0.2c0,0,0,0,0,0h0c0.2,0.2,0.4,0.5,0.5,0.7
		c0.1,0.2,0.3,0.3,0.4,0.5c0.2,0.2,0.4,0.4,0.6,0.6c0.2,0.2,0.3,0.4,0.5,0.6c0.2,0.2,0.4,0.4,0.6,0.6c0.2,0.2,0.4,0.4,0.6,0.6
		c0.4,0.4,0.8,0.7,1.1,1c2.7,2.4,7.1,3.5,13.4,3.7c1.9,0,4.1,0,6.4-0.2c4.5-0.3,7,0.3,8.7,1.5h53.3
		C173.9,674.9,173.9,674.9,174,674.8C174,674.8,174,674.8,174,674.8z"/>
	<path id="XMLID_1400_" fill="#DCD1C5" d="M261.3,544.2c0.5,0.3,1,0.5,1.4,0.8c7.2,3,20.2,2.5,26.6-2.2c6.4-4.7,6.1-4.2,7.7-0.6
		c1.6,3.5,7.2-1.2,14.5,0.2c0.1-0.7,0.2-1.5,0.3-2.3c0.4-3.3,11.8-3.6,14.6-2.2c0.8,0.4,1.5,0.6,2.2,0.7c1.3-0.2,2.3-0.3,2.8-0.5
		c0.8-0.3,1.7-0.5,2.4-0.8c1.8-1,1.4-3.1,0.2-4c-1.3-0.9-1.4-1.5-0.2-2.5c0.8-1.3,3.5-1.7,6.2-0.8c2.8,1,6.8,1.7,10.2,0.4
		c0-1.3-0.5-2.8-1.2-4.1c-0.4-0.7-0.9-1.4-1.6-1.9c-3.3-2.9-1.1-7.2,1.1-6.1c2.2,1.1,7.2,5.7,13.3,4.8c2.8-0.4,4.1,0.6,5.1,1.9
		c1.2,1.5,2.1,3.2,4.7,3.1c1.3-0.1,2.6,0,4,0.3c0.3-0.2,0.7-0.3,1.1-0.5c4.4-1.9,9.9-2.7,12.6-1.5c4.9,2.2,11.2,0.1,8.9-5.2
		c-1-2.3-3.3-3.2-5.9-3.7c-0.7,0.1-1.5,0.2-2.2,0.4c-5.6,1.6-6-0.8-8.4-2.8c-0.2-0.2-0.5-0.4-0.8-0.5c-1-0.2-2-0.2-3,0
		c-2.1,0.5-5,1.8-9.2,2.9c-7.4,1.8-7.8-2.8-4.6-3.4c3.2-0.6,4.2-2.6,1.8-3.8c0,0,0,0,0,0c-0.4,0.2-0.9,0.3-1.4,0.4
		c-7.4,1.6-6.8-10-8.4-14.8c-0.3-1-0.7-1.8-1.1-2.4c-1-0.6-2.1-1.1-3.1-1.6c-2.2-0.2-5.7,0.6-11.5,2.3c-12.2,3.6-9.8-3-13.8-6.8
		c-3.9-3.7-16,6.5-23.5,10.8c-0.7,0.6-1.5,1.2-2.4,1.5c-6.4,2.8,0,10.5,9.1,7.8c9.1-2.8,10.1,0.6,10.7,4.4
		c0.5,3.9-11.7,5.5-16.5,6.1c-4.8,0.6-12.3,2.8-21.9-2.2c-9.6-5-12.3,5-22.4,0.6c-6.7-2.9-8.3,2.9-7.3,7.5c3.8,0.9,8.2,1.4,11.3,1.4
		c0.8,0,1.5,0,2.1,0c0.5,0,0.9,0,1.4,0c6.7-0.3,10.4,3.9,10.1,6.5c-0.1,0.5-0.3,1-0.6,1.3c-1.3,1.5-4.7,1.6-9.5,0.2
		c-1.1-0.3-2.1-0.4-3.1-0.4c-1.7,0.4-3.6,1.1-5.7,2.1c-1.8,0.8-3.4,1.4-4.9,1.9c-0.5,0.2-0.9,0.3-1.4,0.5c-0.7,0.2-1.2,0.3-1.7,0.3
		c-2.3,0.4-4.5,0.3-7,0c-1,0.5-2.6,0.9-4.9,1c-7.5,0.3-5.3,1.4-3.6,3.2c1.7,1.7,14.3-3.1,19.2-0.3c1.3,0.8,2.2,1.7,2.6,2.6
		c0-0.1,0-0.2-0.1-0.3C256.3,543.6,257.1,542,261.3,544.2z"/>
	<path id="XMLID_1401_" fill="#DCD1C5" d="M197.2,584.1c0.3-0.1,0.6-0.2,0.8-0.2c0.1,0,0.2,0,0.3,0c0.1,0,0.3,0,0.4,0
		c0.1,0,0.3,0,0.4,0c0.1,0,0.2,0,0.3,0c0.1,0,0.3,0.1,0.4,0.1c0.1,0,0.1,0,0.2,0.1v0v0c0,0,0.1,0.1,0.1,0.1c2.2,1.2,3.3,4.6,5.1,6.5
		c0,0,0,0,0,0c0.1,0.1,0.2,0.2,0.3,0.3c0,0,0,0,0,0c0.1,0.1,0.2,0.1,0.3,0.2c0,0,0,0,0.1,0.1c0.1,0.1,0.2,0.1,0.3,0.2
		c0,0,0.1,0,0.1,0.1c0.1,0.1,0.2,0.1,0.3,0.1c0,0,0.1,0,0.1,0.1c0.1,0,0.2,0.1,0.3,0.1c0,0,0.1,0,0.1,0c0.1,0,0.2,0.1,0.3,0.1
		c0,0,0.1,0,0.1,0c0.1,0,0.2,0,0.3,0c0,0,0.1,0,0.1,0c0.1,0,0.2,0,0.3,0c0.1,0,0.1,0,0.2,0c0.1,0,0.2,0,0.3,0c0.1,0,0.1,0,0.2,0
		c0.1,0,0.2,0,0.3-0.1c0.1,0,0.1,0,0.2,0c0.1,0,0.2-0.1,0.3-0.1c0.1,0,0.1,0,0.2-0.1c0.1,0,0.3-0.1,0.4-0.2c0.1,0,0.1,0,0.2-0.1
		c0.2-0.1,0.4-0.2,0.6-0.3c5.9-3.1,11.7-0.4,14.9,3.2c0.3-0.2,0.6-0.4,0.9-0.6c1.5-0.8,3.6-0.7,6.8,0.9c0.8,0.4,1.6,0.7,2.3,0.9
		c6.4,1.9,6.8-5.1,9.2-7.6c2.7-2.8,12.3,3.3,14.1-0.6c0.3-0.5,0.6-1.1,0.9-1.6c-1.9-1.5-4-2.8-6.1-3.9c-8.4-5.6-20.1-2.5-25.2-3.7
		c-3-0.7-7.7-2-12.3-4.5c0,0-0.1,0-0.1-0.1c-0.3,0.1-0.7,0.1-1,0.2c-0.1,0-0.3,0-0.4,0c-0.2,0-0.4,0-0.7,0.1c-0.2,0-0.4,0-0.5,0
		c-0.2,0-0.4,0-0.6,0c-0.2,0-0.4,0-0.6,0c-0.2,0-0.3,0-0.5,0c-0.2,0-0.5-0.1-0.7-0.1c-0.1,0-0.2,0-0.4,0c-0.3,0-0.6-0.1-0.8-0.2
		c-0.1,0-0.2,0-0.3-0.1c-0.3-0.1-0.6-0.1-0.9-0.2c-0.1,0-0.1,0-0.2,0c-0.3-0.1-0.6-0.2-1-0.3c0,0-0.1,0-0.1,0
		c-0.3-0.1-0.7-0.2-1-0.4c0,0,0,0,0,0c-2.4-1-4.7-2.5-6.3-4.2c0,0,0,0,0,0v0v-0.1c-0.1-0.1-0.1-0.1-0.1-0.2
		c-0.2-0.3-0.4-0.5-0.6-0.8c-0.2-0.3-0.4-0.5-0.5-0.8c-3.2-5.5-14.9-18.8-18.7-11.9c-1.3,2.4-2.1,4.7-2.9,6.4
		c-0.3,0.7-0.6,1.4-1,1.9c-0.1,0.2-0.3,0.4-0.4,0.6c0.8,1,1.7,1.9,2.4,2.8c1.1,2.6,0.2,4.5-1.8,7.2c-2.3,3-3.7,6.5,1.3,12.7
		c0.2-0.1,0.5-0.1,0.7-0.2C185.6,584.1,190.2,586.4,197.2,584.1z"/>
	<path id="XMLID_1402_" fill="#DCD1C5" d="M454,310.3c-4.4-2.7-8,1-12.2,1.7c-4.2,0.6-1.4,3.9,3.2,3.5c4.6-0.4,8.6,0.8,10.2,3.1
		c1.6,2.3,5,2.9,11.2,2.5c6.2-0.4,10.4,1.9,10.6,4.2c0.2,2.3-3,1.7-7.4,1.9c-4.4,0.2-9.4,2.5-14.8,2.5c-4.7,0-12.3-2.2-18-2.8
		c-0.9-0.1-1.8-0.2-2.6-0.2c-5.8,0-9.2,4.8-14.2,3.7c-0.2,0-0.4-0.1-0.5-0.1c-0.1,0-0.1,0-0.2,0c-0.1,0-0.2,0-0.3,0
		c-0.1,0-0.1,0-0.2,0c-0.1,0-0.1,0-0.2,0c-0.1,0-0.1,0-0.1,0c0,0-0.1,0-0.1,0c0,0-0.1,0-0.1,0.1c0,0-0.1,0-0.1,0.1
		c0,0-0.1,0.1-0.1,0.1c0,0,0,0-0.1,0.1c0,0,0,0.1-0.1,0.1c0,0,0,0,0,0.1c0,0,0,0.1,0,0.2c0,0,0,0,0,0.1c0,0.1,0,0.1,0,0.2
		c0,0,0,0,0,0.1c0,0.1,0,0.2,0,0.2c0,0,0,0,0,0.1c0,0.1,0.1,0.2,0.1,0.3c0,0,0,0,0,0c0,0.1,0.1,0.2,0.1,0.3c0,0,0,0,0,0
		c0.1,0.1,0.1,0.2,0.2,0.4c0,0,0,0,0,0c0.2,0.4,0.5,0.9,0.8,1.3h0.1c0.1,0.1,0.2,0.2,0.3,0.4c0.2,0.3,0.4,0.5,0.6,0.8
		c0.1,0.2,0.3,0.3,0.4,0.4c0.2,0.2,0.4,0.5,0.6,0.7c0.2,0.2,0.4,0.4,0.6,0.6c0.2,0.2,0.3,0.3,0.5,0.5c0.4,0.4,0.7,0.7,1.1,1
		c2.7,2.4,7.1,3.5,13.4,3.7c2,0,4.1,0,6.4-0.2c9.8-0.6,10,2.9,13.6,7.3c3.6,4.4,7.9,3.9,12,3.5c0.1,0,0.2,0,0.3,0
		c1.8-0.5,5.2-0.5,10.9-0.1v-41.9c-4.4-0.7-8.6-1.6-12-2.6C462,306.3,458.4,313,454,310.3z"/>
	<path id="XMLID_1403_" fill="#DCD1C5" d="M183,376.1c5.9,0.8,12-2.5,14.7-1.7c2.7,0.8,4,3.9-1.3,6.4c-5.3,2.5-2.4,4.7,2.7,5.3
		c0.2,0,0.4,0,0.6,0.1c0.2,0,0.3,0.1,0.5,0.1v0c0.1,0,0.1,0,0.1,0c3.4,0.7,2,2.3,0.3,5.3c-0.1,0.2-0.2,0.4-0.3,0.5
		c0,0.1-0.1,0.2-0.1,0.3v0.3v0c-0.9,1.7-1,2.9,0,3.7v0v0.1c0,0,0.1,0,0.1,0.1c0,0,0,0,0,0c0.1,0.1,0.3,0.1,0.4,0.2c0,0,0,0,0,0
		c0.1,0.1,0.3,0.1,0.5,0.2c0,0,0.1,0,0.2,0c0.1,0,0.3,0.1,0.4,0.1c0.2,0,0.4,0.1,0.7,0.1c4,0.6,9.9,2.5,10.7,4.2
		c0.8,1.7,2.7,4.2,6.7,0.3c4-3.9,8.2-10.2,2.7-11.4c-8.3-1.7-8.3-5.8-7.2-10.2c1.1-4.4,8.8-2.5,16.5-0.3c7.7,2.2,19.2-1.7,25.3-6.9
		c6.1-5.3,11.7,1.7,15.5-0.3c3.7-1.9,4.3-1.9,6.4-0.6c2.1,1.4,5.6,1.9,10.1-0.3c4.5-2.2,10.9,2.5,14.9,4.4s21.1-2.5,20-5.5
		c-1.1-3-5.1,1.1-6.7-1.7c-1.6-2.8-5.9-3.3-12.3-4.7c-6.4-1.4-9.9,3.6-14.7,0.8c-4.8-2.8-7.7,0.3-14.1,3.3c-6.4,3-12.8-1.7-20.5-5.8
		c-7.7-4.2-10.4,3-15.7,6.4c-5.3,3.3-18.7,4.4-21.6,0.6c-2.9-3.9,4-4.4-1.9-8.9c-5.9-4.4-4,0.3-13.1-2.5c-0.5-0.2-1-0.3-1.6-0.4
		c-0.3-0.1-0.7-0.1-1-0.1c-0.2,0-0.4-0.1-0.6-0.1v0c-5.1-0.4-11.3,1.1-16.2,3.2c0,0,0,0,0,0c-0.3,0.1-0.5,0.2-0.8,0.3c0,0,0,0,0,0
		c-0.3,0.1-0.5,0.2-0.7,0.3c0,0,0,0-0.1,0c-0.2,0.1-0.5,0.2-0.7,0.3c0,0-0.1,0-0.1,0.1c-0.2,0.1-0.4,0.2-0.6,0.3
		c-0.1,0-0.1,0.1-0.2,0.1c-0.2,0.1-0.4,0.2-0.5,0.3c-0.1,0-0.1,0.1-0.2,0.1c-0.1,0.1-0.3,0.2-0.4,0.3c-0.1,0-0.1,0.1-0.2,0.1
		c-0.1,0.1-0.3,0.2-0.4,0.2c-0.1,0.1-0.2,0.1-0.2,0.2c-0.1,0.1-0.2,0.1-0.3,0.2c-0.1,0.1-0.2,0.1-0.3,0.2c-0.1,0.1-0.2,0.1-0.3,0.2
		c-0.1,0.1-0.2,0.1-0.3,0.2c-0.1,0.1-0.1,0.1-0.2,0.2c-0.1,0.1-0.2,0.1-0.2,0.2c-0.1,0.1-0.1,0.1-0.2,0.2c-0.1,0.1-0.2,0.2-0.3,0.3
		c0,0-0.1,0.1-0.1,0.1c-0.1,0.1-0.2,0.2-0.3,0.3c0,0,0,0,0,0c-0.1,0.1-0.2,0.2-0.3,0.3C173.2,370,177.2,375.2,183,376.1z"/>
	<path id="XMLID_1404_" fill="#DCD1C5" d="M456.1,438.6c-1.3,0.5-2.1,1.1-2.7,1.6c-1.4,0.8-1.6,2.6-2.6,3.8c-0.5,0.4-1,0.7-1.6,0.9
		c-1.9,0.4-5.4-0.7-12.4-5.1c0,0,0,0,0,0c-14.7-9.1-16.6-3.1-17.8-3.1c-1,1.8-2,3.7-3.3,5.3c-3.1,4-11.3,5.7-18.5,2.9
		c0.5,3,0.2,6.6-3.5,6.7c-6.4,0.3-5.1,0.3-9.6-4c-4.5-4.3-7.7-5.3-10.9-2.1c-3.2,3.2-3.9,6.2-8.7,3.2c-2.6-1.6-1.7-2.2-3.9-2.8
		c-1.7,0.1-2.5-0.5-5.1,0.7c-1.8,0.9-2,3.4-3.4,3.9c-2,1.2-5.7,1.2-7.3,1.1c-7.7-0.4-7.8-4.4-11.2-6c-5.4-1.6-3.4,2.8-11.2,0.6
		c-2.7-0.7-1.5-5.6-8.1-4.2c-6.6,1.4-2.1-6.7-11.4-6.8c-7-0.1-9.8,8.9-14.6,4.1c-4-4.1-11.6-5.6-12.9-2.5c-0.3,0.4-0.3,1.1,0,2.2
		c1.3,4.7-1.8,13.7-7.7,16.7c1,0.2,2.4-0.2,4.3-1.6c6.1-4.5,7.2-1.8,9.2,0.2c1.9,2,10.5,3.5,17.9,0.3c7.4-3.2,12.8-3.2,12.1,0.8
		c-0.2,1.1-1.1,2.2-2.2,3.3c6.4,1.2,11.2,3.8,14.4,0.4c1.2-1.2,2.8-2,4.5-2.3h0c2.2-0.5,4.6-0.4,6.9,0h0c3.5,0.7,6.5,2.2,7.3,4
		c1.6,3.9-7.5,1.1-5.9,5c1.5,3.7,18-4.4,22.5,1.5c1.4-0.3,2.9-1.1,3.6-3.1c1.9-5.1,9.6-6.1,11.2-2.1c0.4,1.1,1.4,3,2.7,5
		c0.8,0.1,1.6,0.2,2.5,0.4c1.8,0.3,3.1,0.7,4.1,1.2c1.7,0.8,2.3,1.8,2,2.7c-0.1,0.5-0.5,1-1,1.5c2.1,0,4.7-0.9,7.8-4.3
		c8.4-9,16.1-6.3,18.5-5.1c4.1,2.2-0.7,6.5,8,6.6c6.2,0.1,6.4,6.7,1.1,5.3c-5.3-1.3-5.6-0.3-5.3,2.1c0.3,2.4-3.5,4.5-6.9,2.4
		c-2.3-1.4-4.1-1.8-5.9-1.5c-1.8,0.3-3.3,1.2-3.6,3.4c-1.1,7.8,0.5,4.4,5.3,12.2c4.8,7.8,10.7,0.6,18.7,9.4
		c5.9,6.5,9.5,9.5,15.5,10.5c2.1,0.4,4.5,0.5,7.5,0.5c10.5,0,11.2-3.9,20.1-0.7c0.6,0.4,1.3,0.9,2,1.4c7,5.4,9,4.3,13.6,1.7v-6.6
		c-1.9-0.4-4-0.7-6.4-1.2c-4.9-1.1-6.4-1.4-4.8-3.2c0.3-0.4,0.8-0.7,1.5-1.1c-1.2-1.7-1.7-4.1-2-7.5c-0.7-7.2-4.3-6.6-14.9-11.1
		c-10.7-4.4-8.1-7.9,0-8.3c12.4-0.6,20.9,0.9,26.7,2.5v-9.7c-7.6,3.5-30.9,0.1-43.2-4c-3.2-1.1-5.7-2.2-6.9-3.2
		c-2.6-2.2-5.9-4.6-7.2-6.8h0c-1.7-2.8-0.3-5.3,9.9-6.5c0.6-0.1,1.2-0.1,1.8-0.2c4,0.1,14.5,0.6,17.8,2.7c3.5,2.1,10.4,2.7,7.5,0
		c-1.4-1.3,0.5-2.2,3.3-2.1c0.5,0,0.9,0.1,1.4,0.1c2.6,0.3,5.5,1.3,7,3.4c2.5,3.4,6.7,0.7,8.7-1.8v-15.6c-2.6,0.4-5.3,1.1-7.6,1.9
		C466.5,440.8,460.7,436.8,456.1,438.6z"/>
	<path id="XMLID_1405_" fill="#DCD1C5" d="M357,357.1c-3.2-3.2-9.8-4-8.4,0.6c0.8,2.5-8.2-3-9.6-0.2c-1.3,2.6,2.9,3.5,4.3,5.6
		c0.1,0.2,0.2,0.4,0.3,0.6c0.2,0.4,0.5,0.8,0.9,1.2c1,3.6-3.3,5.2-1,6.5c6.6,3.7,6-2,10.9,3.6c0.2,0.2,0.4,0.5,0.7,0.8
		c1.3,1.5,1.1,2.7,0,3.4c-2.1,1.5-7.8,1.4-11.8-0.3c-5-2.1-5.8,2.5-4.6,5.4c0.4,0.4,0.8,0.8,1.4,1.1c2.1,1.3,2.9,2,1.9,3.7
		c-0.5,0.8-1.6,1.4-2.7,2.1c-0.6,0.7-1.4,1.5-2.3,2.4c-0.3,0.3-0.6,0.6-0.7,0.9c-0.2,0.5-0.3,1.1-0.3,1.6c0.2,0.7,1,1.3,2,1.6
		c0.7,0,1.6-0.2,2.7-0.6c5.5-1.9,6.5-7.1,8.3-4.7c1.7,2.4,5.1,4.1,8.3,1.6c3.2-2.5,9.5-3.1,9.7,0.3c0.3,3.3-1.2,5.9,3.1,7.1
		c4.3,1.2,3.6,3.3-0.7,6c-4.3,2.7-3.6,7.5-8,5.6c-4.4-1.9-4.4-0.9-7.5-0.5c-3.1,0.4-5.1-1.3-5.3-3.5c0-0.1,0-0.1,0-0.2
		c-0.6-1.7-0.5-3.4-1.9-3.4c-7.1,0-6-3.5-10.5-4.3c-5.3-0.9-3.3,12-18.5,2.6c-11.2-6.9-32.3-4.9-35.5-1.1c-5.9,7.2,9.3,3.9,8.8,9.4
		c-0.1,1.3-0.5,2.8-1.3,4.2c6.9-1.2,12-1,16.1-0.1c4.6,1.8,8.2,5.1,8.9,6.5c0.9,1.8,4,7.1,8.8,5.3c4.8-1.8,3.8-4.9,8.2-4.8
		c4.4,0.1,5.1,0.5,4.9,2.5c-0.2,1.9,0.4,4.8,9.3,3.3c9-1.5,10.8-2.2,9-4.8c-1.8-2.6,2.4-4.1,5.9-2.7c3.4,1.4,7.8,2.5,9-0.7
		c0,0,0,0,0,0c0,0,0-0.1,0-0.1c0.1-0.2,0.1-0.4,0.1-0.6c1.1-4.3,4.3-5.4,7.3-3.5c3.7,2.4,6.7,1.9,8-0.5c1.3-2.4,5.9-2.1,12,0.3
		c6.1,2.4,3.5-4.5,2.4-7.5c-1.1-2.9,0.3-4.8,6.4-5.1c3.4-0.1,5.9-1.4,7.2-2.8c-1.6-1.1-4.1-1.9-7.4-1.6c-4.7,0.4-5.4-0.2-6.6-1.8
		c-0.9-1.2-2.1-2.9-5.5-5.1c-0.9-0.6-1.3-2.1,0.5-3.1c0.2-0.1,0.5-0.1,0.7-0.2c4-1.2,4.8,2.4,6.8,1c0.9-0.6,2-1.2,3.3-1.4
		c0.5-0.2,1.5-0.2,4,0.1c5.3,0.5,8.3,2.4,8.4,4.3c0.1,1.9,0.9,6.8,5.3,5.9c4.4-0.9,8.4-3.3,10.7-2.3c2.3,1.1,3.9,2,0.9,3.9
		c0,0,0,0-0.1,0c4.5,0.7,9.8,1.5,11.6-0.4c1-1,1-2.8-0.7-5.9c-2.1-3.8-7.4-2.3-14-1.3c-6.6,1-8-1.5-8.6-4.3
		c-0.6-2.8,5.9-1.8,6.9-5.9c0.8-3.8-6.5-5.1-15.7-3.1c-9.2,2-10.8-0.4-13.8-2.2c-1.5-0.9-4.3-0.2-7.3,1c-2.3,0.6-4.3,1.7-6.2,2.6
		c-0.6,0.3-1.2,0.5-1.8,0.7c-4.7,0.7-10.6-8.5-16.6-11.1c-4.6-2-7.7-1.5-8.7-3.3c0-1.1,0-2.1,0-2.9
		C359.5,361.5,359.5,359.6,357,357.1z"/>
	<path id="XMLID_1406_" fill="#DCD1C5" d="M463.1,542c-4.8-4.8-6.2-10.2-14.4-10.6c-8.2-0.4-2.6,5.8-10,1.8c-7.4-4-9.4,0.4-6.6,3.8
		c1.3,1.6,2.5,1.8,3.5,1.9c0.4,0.2,0.8,0.5,1.1,0.9c1.6,1.7,1.4,5,4.2,5.6c2.8,0.6,2.6-2.4,4.8-1.7c2.1,0.7,3.7-0.2,4.9,1.4
		c2.6,3.5-0.4,5.2-0.5,5.6c-0.1,0.7,0,1.2,0.2,1.6c1,0.5,2,0.8,2.7,0.8c0.3,0,0.5-0.1,0.8-0.1c0.1,0,0.2-0.1,0.2-0.1
		c2.6-1.3,4.5-1.5,5.7,0.3c1.2,1.8,2.4,3.3,5.8,3.3c5.7,0,6.1-2.9,6.9-4.9c1.5-1.5,2.8-2.8,1.4-6.4C471.9,540,467.9,546.8,463.1,542
		z"/>
	<path id="XMLID_1407_" fill="#DCD1C5" d="M480,642c-4.4-0.7-8.6-1.6-12-2.6c-6-1.7-9.6,5-14,2.3c-4.4-2.7-8,1-12.2,1.7
		c-4.2,0.6-1.4,3.9,3.2,3.5c4.6-0.4,8.6,0.8,10.2,3.1c1.6,2.3,5,2.9,11.2,2.5c6.2-0.4,10.4,1.9,10.6,4.2c0.2,2.3-3,1.7-7.4,1.9
		c-4.4,0.2-9.4,2.5-14.8,2.5c-4.7,0-12.3-2.2-18-2.8c-0.9-0.1-1.8-0.2-2.6-0.2c-5.8,0-9.2,4.8-14.2,3.7c-0.2,0-0.4-0.1-0.5-0.1
		c0,0-0.1,0-0.1,0c-0.1,0-0.2,0-0.3,0c0,0-0.1,0-0.1,0c-0.1,0-0.2,0-0.2,0c0,0-0.1,0-0.1,0c-0.1,0-0.1,0-0.2,0c0,0,0,0-0.1,0
		c-0.1,0-0.1,0-0.2,0.1c0,0,0,0-0.1,0.1c0,0-0.1,0.1-0.1,0.1c0,0,0,0.1,0,0.1c0,0,0,0.1-0.1,0.1c0,0,0,0.1,0,0.1c0,0,0,0.1,0,0.1
		c0,0,0,0.1,0,0.2c0,0,0,0.1,0,0.1c0,0.1,0,0.1,0,0.2c0,0,0,0.1,0,0.1c0,0.1,0,0.1,0.1,0.2c0,0,0,0.1,0,0.1c0,0.1,0.1,0.2,0.1,0.2
		c0,0,0,0.1,0.1,0.1c0,0.1,0.1,0.2,0.1,0.2c0,0,0,0.1,0.1,0.1c0,0.1,0.1,0.2,0.2,0.3c0,0,0,0.1,0.1,0.1c0,0.1,0.1,0.2,0.2,0.2
		c0,0.1,0.1,0.1,0.1,0.2c0,0.1,0.1,0.1,0.2,0.2c0,0.1,0.1,0.1,0.1,0.2c0,0,0,0,0,0h0c0.2,0.2,0.3,0.4,0.5,0.7
		c0.1,0.2,0.3,0.4,0.4,0.5c0.2,0.2,0.4,0.4,0.5,0.6c0.2,0.2,0.3,0.4,0.5,0.6c0.2,0.2,0.4,0.4,0.6,0.6c0.2,0.2,0.4,0.4,0.6,0.6
		c0.4,0.4,0.8,0.7,1.1,1c2.7,2.4,7.1,3.5,13.4,3.7c2,0,4.1,0,6.4-0.2c4.5-0.3,7,0.3,8.7,1.5H480V642z"/>
</g>
</svg>
