<?xml version="1.0" encoding="iso-8859-1"?>
<!-- Generator: Adobe Illustrator 18.0.0, SVG Export Plug-In . SVG Version: 6.00 Build 0)  -->
<!DOCTYPE svg PUBLIC "-//W3C//DTD SVG 1.1//EN" "http://www.w3.org/Graphics/SVG/1.1/DTD/svg11.dtd">
<svg version="1.1" id="Capa_1" xmlns="http://www.w3.org/2000/svg" xmlns:xlink="http://www.w3.org/1999/xlink" x="0px" y="0px"
	 viewBox="0 0 255.222 255.222" style="enable-background:new 0 0 255.222 255.222;" xml:space="preserve">
<g>
	<circle style="fill:none;stroke:#000000;stroke-width:13;stroke-miterlimit:10;" cx="127.611" cy="127.611" r="121.1"/>
	<path style="fill:none;stroke:#000000;stroke-width:13;stroke-miterlimit:10;" d="M230.508,63.768
		c-29.523-7.332-61.919-2.426-88.908,16.211c-8.04,5.552-15.103,11.978-21.16,19.062c-31.587,36.962-35.744,91.887-6.819,133.776
		c4.012,5.81,8.496,11.117,13.348,15.902"/>
	<path style="fill:none;stroke:#000000;stroke-width:13;stroke-miterlimit:10;" d="M8.961,151.969
		c20.081-20.702,34.409-45.533,42.508-72.115c5.157-16.895,7.791-34.504,7.81-52.214"/>
	<path style="fill:none;stroke:#000000;stroke-width:13;stroke-miterlimit:10;" d="M172.409,15.106
		c-15.685,5.206-30.907,12.708-45.191,22.572c-19.142,13.218-34.919,29.507-47.096,47.76
		c-27.146,40.66-36.478,91.005-25.723,138.677"/>
	<path style="fill:none;stroke:#000000;stroke-width:13;stroke-miterlimit:10;" d="M232.255,188.602
		c-29.494-40.856-68.476-71.012-111.816-89.561c-13.087-5.597-26.575-10.151-40.317-13.604c-9.454-2.373-19.021-4.24-28.654-5.582
		C40.204,78.288,28.84,77.429,17.44,77.29"/>
</g>
<g>
</g>
<g>
</g>
<g>
</g>
<g>
</g>
<g>
</g>
<g>
</g>
<g>
</g>
<g>
</g>
<g>
</g>
<g>
</g>
<g>
</g>
<g>
</g>
<g>
</g>
<g>
</g>
<g>
</g>
</svg>
