<?xml version="1.0" encoding="iso-8859-1"?>
<!-- Generator: Adobe Illustrator 19.0.0, SVG Export Plug-In . SVG Version: 6.00 Build 0)  -->
<svg version="1.1" id="Layer_1" xmlns="http://www.w3.org/2000/svg" xmlns:xlink="http://www.w3.org/1999/xlink" x="0px" y="0px"
	 viewBox="0 0 512.001 512.001" style="enable-background:new 0 0 512.001 512.001;" xml:space="preserve">
<g>
	<g>
		<path d="M256.321,306.567l-13.297-44.146c-1.734-5.762-1.958-11.906-1.942-17.688V132.166V76.398V15.561H124.477v60.837v55.767
			v135.296c0,14.219-5.537,27.588-15.592,37.641l-91.837,91.836c-22.732,22.733-22.732,59.72,0,82.453
			c11.366,11.365,26.297,17.049,41.226,17.049c14.93,0,29.86-5.683,41.226-17.049l58.256-58.256
			c9.485-9.485,22.037-15.634,35.346-17.312c20.833-2.628,39.489-13.672,51.798-30.516c0.82-1.122,1.613-2.271,2.376-3.445
			C259.484,351.082,262.781,328.012,256.321,306.567z M139.687,30.77h86.186v45.628h-86.186V30.77z M139.687,91.608h86.186v25.349
			h-86.186V91.608z M184.228,389.964c-14.016,3.133-27.037,10.231-37.225,20.418l-58.256,58.256
			c-16.801,16.803-44.14,16.803-60.943,0c-16.802-16.801-16.802-44.14,0-60.943l91.837-91.836
			c12.926-12.927,20.046-30.114,20.046-48.396V132.166h86.186v112.523c-0.016,5.414,0.197,11.622,1.531,17.905
			C195.338,299.617,182.218,338.25,184.228,389.964z M234.526,361.574c-0.568,0.873-1.16,1.725-1.767,2.563
			c-0.197,0.272-0.403,0.533-0.603,0.801c-0.422,0.563-0.849,1.12-1.289,1.666c-0.243,0.302-0.493,0.598-0.741,0.895
			c-0.421,0.502-0.847,0.997-1.282,1.483c-0.262,0.292-0.523,0.583-0.79,0.869c-0.455,0.491-0.921,0.969-1.392,1.443
			c-0.253,0.256-0.504,0.515-0.763,0.766c-0.573,0.557-1.159,1.098-1.752,1.63c-0.164,0.148-0.323,0.302-0.49,0.448
			c-0.767,0.672-1.549,1.324-2.346,1.957c-0.199,0.158-0.406,0.306-0.606,0.46c-0.605,0.467-1.216,0.928-1.838,1.372
			c-0.29,0.207-0.586,0.406-0.879,0.607c-0.551,0.379-1.106,0.75-1.67,1.11c-0.317,0.203-0.638,0.403-0.959,0.6
			c-0.565,0.347-1.137,0.682-1.713,1.011c-0.315,0.18-0.631,0.361-0.949,0.534c-0.642,0.35-1.293,0.684-1.948,1.011
			c-0.257,0.128-0.51,0.264-0.769,0.388c-0.924,0.444-1.857,0.87-2.804,1.267c-0.065,0.027-0.133,0.051-0.198,0.078
			c-0.876,0.365-1.761,0.708-2.656,1.032c-0.299,0.109-0.602,0.206-0.902,0.309c-0.671,0.231-1.346,0.455-2.027,0.663
			c-0.352,0.107-0.706,0.209-1.06,0.309c-0.33,0.094-0.664,0.178-0.996,0.267c-1.255-42.815,8.939-75.802,33.181-106.826
			l9.236,30.663c1.614,5.36,2.467,10.846,2.578,16.316C244.58,339.3,241.237,351.248,234.526,361.574z"/>
	</g>
</g>
<g>
	<g>
		<path d="M508.762,306.567l-13.297-44.146c-1.734-5.762-1.958-11.906-1.942-17.688V132.166V76.398V15.561H376.918v60.837v55.767
			v135.296c0,14.219-5.537,27.588-15.592,37.641l-91.837,91.836c-22.732,22.733-22.732,59.72,0,82.453
			c11.366,11.365,26.297,17.049,41.226,17.049s29.86-5.683,41.226-17.049l58.256-58.256c9.485-9.485,22.037-15.634,35.346-17.312
			c20.833-2.628,39.489-13.672,51.798-30.516c0.82-1.122,1.613-2.271,2.376-3.445C511.925,351.082,515.222,328.012,508.762,306.567z
			 M392.128,30.77h86.186v45.628h-86.186V30.77z M392.128,91.608h86.186v25.349h-86.186V91.608z M436.668,389.964
			c-14.016,3.134-27.037,10.231-37.224,20.418l-58.256,58.256c-16.801,16.803-44.14,16.803-60.943,0
			c-16.802-16.801-16.802-44.14,0-60.943l91.837-91.836c12.926-12.927,20.046-30.114,20.046-48.396V132.166h86.186v112.523
			c-0.016,5.414,0.197,11.622,1.531,17.905C447.779,299.618,434.658,338.251,436.668,389.964z M486.966,361.574
			c-0.567,0.873-1.16,1.725-1.767,2.563c-0.197,0.272-0.403,0.533-0.603,0.801c-0.422,0.563-0.849,1.12-1.288,1.666
			c-0.243,0.302-0.493,0.599-0.742,0.896c-0.42,0.501-0.846,0.996-1.281,1.481c-0.262,0.292-0.524,0.583-0.791,0.87
			c-0.455,0.49-0.921,0.968-1.39,1.442c-0.255,0.257-0.506,0.516-0.763,0.767c-0.571,0.556-1.156,1.095-1.748,1.626
			c-0.166,0.149-0.326,0.305-0.495,0.453c-0.766,0.672-1.548,1.324-2.345,1.956c-0.201,0.159-0.409,0.308-0.611,0.464
			c-0.603,0.465-1.212,0.925-1.832,1.367c-0.292,0.208-0.59,0.409-0.885,0.611c-0.549,0.377-1.101,0.747-1.662,1.106
			c-0.319,0.205-0.642,0.406-0.965,0.603c-0.563,0.345-1.132,0.679-1.704,1.006c-0.318,0.182-0.636,0.364-0.958,0.539
			c-0.637,0.348-1.283,0.678-1.932,1.003c-0.262,0.131-0.52,0.269-0.784,0.396c-0.921,0.444-1.852,0.868-2.796,1.264
			c-0.077,0.032-0.156,0.06-0.232,0.092c-0.864,0.359-1.737,0.698-2.619,1.018c-0.306,0.11-0.615,0.211-0.924,0.316
			c-0.664,0.228-1.331,0.45-2.004,0.656c-0.358,0.109-0.718,0.212-1.078,0.315c-0.327,0.093-0.657,0.176-0.986,0.264
			c-1.255-42.814,8.94-75.801,33.182-106.827l9.236,30.663C499.364,328.104,496.728,346.554,486.966,361.574z"/>
	</g>
</g>
<g>
</g>
<g>
</g>
<g>
</g>
<g>
</g>
<g>
</g>
<g>
</g>
<g>
</g>
<g>
</g>
<g>
</g>
<g>
</g>
<g>
</g>
<g>
</g>
<g>
</g>
<g>
</g>
<g>
</g>
</svg>
