<?xml version="1.0" encoding="utf-8"?>
<!-- Generator: Adobe Illustrator 21.1.0, SVG Export Plug-In . SVG Version: 6.00 Build 0)  -->
<svg version="1.1" id="Layer_1" xmlns="http://www.w3.org/2000/svg" xmlns:xlink="http://www.w3.org/1999/xlink" x="0px" y="0px"
	 viewBox="0 0 255 255" style="enable-background:new 0 0 255 255;" xml:space="preserve">
<style type="text/css">
	.st0{fill:#0E0E0E;}
</style>
<path class="st0" d="M239.1,86.9c-12-15.3-30.7-24.6-50.1-24.8c-40.1,0-80.2,0-120.3,0c-12-0.2-24,3.2-34.2,9.4
	C20.4,80,9.8,94,5.4,109.8c-1.5,4.9-1.8,9.8-2.4,14.9v5c0.6,5.6,1.1,11,2.9,16.4c4.6,15.6,15.4,29.2,29.5,37.4
	c6.7,4,13.9,6.3,21.4,8.1c3.8,0.6,7.2,1.1,10.9,1.1c3.6,0,11.8-1.1,11.8-1.1c13.6-2.6,25-8.5,35-18.1c8.3-0.4,16.6-0.1,24.9-0.2
	c2.5-0.3,3.5,1.5,5.2,2.9c8.9,8.1,19.7,12.8,31.3,15.4c8.6,2,22.8,0,22.8,0c15.7-2.9,30.2-11.2,40.1-23.8
	c9.2-11.5,14.4-26.1,14.1-40.9C253.2,112.5,248,98.2,239.1,86.9z M236,130.4c-1.1,16.5-10.9,31.6-25.4,39.4
	c-9.7,5.3-21.1,6.9-31.9,4.9c-11.7-2.2-22.5-8.9-29.5-18.4c-14-0.1-28,0-42,0c-5.1,6.3-11.1,11.5-18.5,14.9
	C76,177,60.5,177,47.9,170.9c-16.8-7.7-28.2-25.5-27.8-44c-0.2-19.3,12.4-37.5,30.3-44.5C56.6,80,63.1,79,69.7,79
	c36,0,72.1,0,108.1,0c6.2,0,12.1-0.3,18.2,0.7c11.6,2,22.3,8.4,29.6,17.6C233,106.5,236.8,118.6,236,130.4z"/>
<path class="st0" d="M93,117.8c-5-0.3-10,0-15-0.1c-0.1-5,0.2-10.1-0.1-15.1c0-2.1-2-4-4.1-4.1c-3.7-0.2-7.5-0.3-11.2,0
	c-2,0.2-3.6,2.2-3.7,4.1c-0.3,5,0,10-0.1,15c-4.8,0-9.6-0.1-14.4,0c-2.5-0.2-4.6,1.8-4.8,4.2c-0.2,3.6-0.3,7.3,0.1,10.9
	c0.4,2.3,2.4,4,4.8,3.9c4.8,0.1,9.6,0,14.4,0c0.1,5.1-0.2,10.2,0.1,15.2c0.2,2.3,2.4,4,4.6,4.1c3.4,0.1,6.8,0.2,10.2-0.1
	c1.9-0.2,3.9-1.8,4-3.8c0.3-5.1,0-10.2,0.1-15.4c5-0.1,10,0.1,15-0.1c2.1-0.1,3.9-1.7,4.2-3.7c0.3-3.7,0.2-7.5,0.1-11.2
	C97.2,119.7,95,117.8,93,117.8z"/>
<path class="st0" d="M195.3,114c2.9-3.8,2.8-9.4-0.8-12.8c-2.5-2.6-6.7-3.4-10.1-2.2c-6.1,2.3-8.2,10.1-3.9,15.1
	C184.3,118.7,191.6,118.6,195.3,114z"/>
<path class="st0" d="M174.7,120c-2.5-2.2-6.4-2.9-9.5-1.7c-6.2,2.3-8.3,10.2-4,15.2c4,4.8,11.8,4.3,15.2-0.9
	C179.1,128.6,178.4,123,174.7,120z"/>
<path class="st0" d="M204.3,118.1c-4.3,1.4-7.1,5.3-6.8,9.8c0.2,5.9,6.5,10.3,12.1,8.5c4.2-1.2,7.2-5.1,6.9-9.5
	C216.5,120.7,210.2,116.3,204.3,118.1z"/>
<path class="st0" d="M184.4,137.6c-4.3,1.6-6.8,5.9-6.1,10.5c0.8,5.8,7.3,9.8,12.8,7.4c5.2-1.8,7.5-7.9,5.4-12.8
	C194.4,138.1,189.1,135.7,184.4,137.6z"/>
</svg>
