<?xml version="1.0" encoding="utf-8"?>
<!-- Generator: Adobe Illustrator 21.1.0, SVG Export Plug-In . SVG Version: 6.00 Build 0)  -->
<svg version="1.1" id="Layer_1" xmlns="http://www.w3.org/2000/svg" xmlns:xlink="http://www.w3.org/1999/xlink" x="0px" y="0px"
	 viewBox="0 0 512 512" style="enable-background:new 0 0 512 512;" xml:space="preserve">
<g id="Page-1">
	<g id="_x30_37---Waypoint-Flag" transform="translate(0 -1)">
		<path id="Shape" d="M466.3,238.9c-27.2-13.6-52.5-30.9-74.9-51.4c11.5-43.6,20.1-87.8,25.6-132.6c1.3-10.4-4.5-13.8-6.3-14.6
			c-5.1-1.9-10.8,0-13.7,4.6c-39.6,47.4-93.8,42-151.2,36.2c-57.9-5.8-117.6-11.7-161.8,39.1c-6.2-7.7-16.4-11-25.9-8.4l-1,0.3
			c-13.1,3.7-20.8,17.3-17.1,30.4l88.3,316c2.6,9.1,10.9,15.5,20.4,15.5c1.9,0,3.9-0.3,5.7-0.8l7.7-2.2h0c5.4-1.5,10-5.1,12.8-10
			c2.8-4.9,3.5-10.7,1.9-16.1l-27.4-97.9c39.8-51.2,95.3-45.8,154.1-39.9c58.7,5.9,119.3,11.9,163.8-41.3l0,0
			c4.4-5.5,6.2-12.5,4.9-19.4C471.5,243.2,469.4,240.4,466.3,238.9L466.3,238.9z M162.2,454.1c-0.9,1.6-2.3,2.7-4.1,3.2l-7.7,2.2
			c-3.6,1-7.3-1.1-8.3-4.7l-88.3-316c-1.5-5.4,1.7-11.1,7.1-12.6l1-0.3c0.9-0.3,1.8-0.4,2.7-0.4c4.6,0,8.6,3.1,9.9,7.5l0.8,2.8v0
			l45.2,161.9L162.8,449C163.3,450.7,163.1,452.6,162.2,454.1z M456.1,256.7c-39.6,47.4-93.8,41.9-151.2,36.2
			c-57.2-5.7-116.2-11.6-160.3,37.3l-39.5-141.4l-14.9-53.4c39.8-51.2,95.3-45.7,154.1-39.8c55.8,5.6,113.4,11.3,157.2-34.1
			c-5.4,41.2-13.5,82.1-24.1,122.3c-1.4,5.2,0.2,10.8,4.2,14.4c23,21.1,48.7,38.9,76.5,53C458,253.1,457.3,255.1,456.1,256.7
			L456.1,256.7z"/>
	</g>
</g>
</svg>
