<?xml version="1.0" encoding="iso-8859-1"?>
<!-- Generator: Adobe Illustrator 19.0.0, SVG Export Plug-In . SVG Version: 6.00 Build 0)  -->
<svg version="1.1" id="Capa_1" xmlns="http://www.w3.org/2000/svg" xmlns:xlink="http://www.w3.org/1999/xlink" x="0px" y="0px"
	 viewBox="0 0 511.998 511.998" style="enable-background:new 0 0 511.998 511.998;" xml:space="preserve">
<g>
	<g>
		<path d="M489.713,457.508c-0.143-5.424-4.584-9.734-9.993-9.734c-0.044,0-0.088,0-0.131,0.001
			c-2.48,0.032-4.966,0.078-7.449,0.128c0.004-0.537,0.009-1.081,0.019-1.648c0.435-24.593-9.568-44.818-29.73-60.114
			c-16.699-12.669-38.234-20.572-57.234-27.545c-16.618-6.099-32.385-11.885-40.706-19.279l-25.642-148.222L465.972,16.443
			c2.506-2.975,3.06-7.133,1.419-10.66C465.751,2.255,462.213,0,458.324,0h-186.25c-3.174,0-6.159,1.506-8.044,4.06l-33.451,45.298
			c-0.008,0.011-0.017,0.023-0.025,0.034l-49.32,66.787c-2.015-4.698-3.664-9.424-4.908-14.116
			c-0.939-3.543-3.741-6.289-7.303-7.155c-3.564-0.866-7.313,0.286-9.773,3.002L54.254,213.771l-30.068,29.634
			c-1.908,1.88-2.981,4.448-2.98,7.127c0.002,2.679,1.078,5.246,2.988,7.124l123.726,121.68h-44.302c-5.522,0-10,4.477-10,10
			s4.478,10,10,10h64.638l31.043,30.53h-46.714c-5.522,0-10,4.477-10,10s4.478,10,10,10h67.051l17.674,17.382
			c0.245,0.241,0.502,0.469,0.771,0.683c48.894,39.057,109.178,44.066,156.235,44.067h0.009c23.272,0,46.567-1.415,69.093-2.784
			c6.03-0.366,12.013-0.729,17.935-1.062c5.399-0.303,9.579-4.844,9.436-10.25L489.713,457.508z M277.121,20h159.704l-78.274,92.918
			c-18.901-11.226-41.034-23.823-62.526-36.055c-15.426-8.78-30.167-17.17-42.784-24.525L277.121,20z M241.29,68.52
			c13.117,7.669,28.602,16.482,44.842,25.725c20.339,11.576,41.246,23.477,59.356,34.181l-41.983,49.837
			c-1.428,0.017-2.864,0.03-4.284,0.048c-32.273,0.413-60.148,0.77-81.982-15.435c-9.331-6.925-18.182-16.507-25.436-27.342
			L241.29,68.52z M162.747,123.834c1.017,2.382,2.112,4.754,3.285,7.11c1.348,2.705,2.804,5.375,4.338,8.006
			c0.368,0.911,0.873,1.77,1.511,2.552c9.057,14.821,20.855,28.098,33.438,37.435c27.256,20.23,59.755,19.814,94.158,19.373
			c0.106-0.001,0.214-0.002,0.32-0.004l7.958,46.003h-45.721c-5.522,0-10,4.477-10,10c0,5.523,4.477,10,10,10h49.182l3.959,22.886
			h-37.58c-5.522,0-10,4.477-10,10s4.478,10,10,10h41.04l6.692,38.684c0.326,1.885,1.186,3.636,2.477,5.047
			c10.904,11.914,30.138,18.972,50.5,26.445c36.669,13.457,74.586,27.373,73.859,68.53c-0.016,0.893-0.022,1.731-0.025,2.54
			c-1.958,0.061-3.918,0.123-5.855,0.185c-13.647,0.436-27.76,0.889-41.333,0.889c-58.871,0-106.401-8.495-147.014-49.952
			c-0.046-0.047-0.092-0.093-0.138-0.138L75.337,220.29L162.747,123.834z M462.204,489.253c-22.23,1.35-45.214,2.747-67.881,2.747
			h-0.008c-43.664-0.001-99.376-4.485-143.356-39.377L45.459,250.52l16.03-15.798L243.718,413.63
			c48.16,49.112,105.951,55.885,161.23,55.885c13.894,0,28.168-0.457,41.973-0.899c7.57-0.242,15.321-0.49,23.063-0.665
			l0.553,20.799C467.77,488.915,464.992,489.083,462.204,489.253z"/>
	</g>
</g>
<g>
	<g>
		<path d="M72.597,379.337h-0.512c-5.522,0-10,4.477-10,10s4.478,10,10,10h0.512c5.522,0,10-4.477,10-10
			S78.12,379.337,72.597,379.337z"/>
	</g>
</g>
<g>
	<g>
		<path d="M122.634,429.867h-0.513c-5.522,0-10,4.477-10,10s4.478,10,10,10h0.513c5.523,0,10-4.477,10-10
			S128.157,429.867,122.634,429.867z"/>
	</g>
</g>
<g>
</g>
<g>
</g>
<g>
</g>
<g>
</g>
<g>
</g>
<g>
</g>
<g>
</g>
<g>
</g>
<g>
</g>
<g>
</g>
<g>
</g>
<g>
</g>
<g>
</g>
<g>
</g>
<g>
</g>
</svg>
