<?xml version="1.0" encoding="utf-8"?>
<!-- Generator: Adobe Illustrator 23.0.2, SVG Export Plug-In . SVG Version: 6.00 Build 0)  -->
<svg version="1.1" id="Layer_1" xmlns="http://www.w3.org/2000/svg" xmlns:xlink="http://www.w3.org/1999/xlink" x="0px" y="0px"
	 viewBox="0 0 332.28 146.79" style="enable-background:new 0 0 332.28 146.79;" xml:space="preserve">
<style type="text/css">
	.st0{fill:#ED1C24;}
</style>
<g>
	<g>
		<path d="M48.18,90.65l-3.71-3.32c-2.84,1.83-6.26,2.89-10.02,2.89c-10.41,0-17.87-7.76-17.87-17.34v-0.1
			c0-9.59,7.56-17.44,17.97-17.44s17.87,7.76,17.87,17.34v0.1c0,3.56-1.11,6.89-2.99,9.68l3.47,2.94L48.18,90.65z M38.98,82.46
			l-5.49-4.67l4.72-5.3l5.54,5.01c0.58-1.35,0.92-2.94,0.92-4.62v-0.1c0-5.78-4.24-10.6-10.21-10.6s-10.12,4.72-10.12,10.5v0.1
			c0,5.78,4.24,10.6,10.21,10.6C36.18,83.38,37.68,83.09,38.98,82.46z"/>
		<path d="M58.49,75.19V55.92h7.42v19.08c0,5.49,2.75,8.33,7.27,8.33s7.27-2.75,7.27-8.09V55.92h7.42v19.03
			c0,10.21-5.73,15.22-14.79,15.22S58.49,85.11,58.49,75.19z"/>
		<path d="M95.78,55.92h7.42v33.72h-7.42V55.92z"/>
		<path d="M110.14,72.87v-0.1c0-9.59,7.23-17.44,17.58-17.44c6.36,0,10.16,2.12,13.3,5.2l-4.72,5.44c-2.6-2.36-5.25-3.81-8.62-3.81
			c-5.68,0-9.78,4.72-9.78,10.5v0.1c0,5.78,4,10.6,9.78,10.6c3.85,0,6.22-1.54,8.86-3.95l4.72,4.77c-3.47,3.71-7.32,6.02-13.83,6.02
			C117.51,90.22,110.14,82.56,110.14,72.87z"/>
		<path d="M147.19,55.92h7.42v14.74l13.68-14.74h8.96l-13.73,14.31l14.36,19.42h-8.91l-10.45-14.36l-3.9,4.05v10.31h-7.42V55.92z"/>
		<path d="M191.99,62.76h-10.26v-6.84h27.94v6.84h-10.26v26.88h-7.42V62.76z"/>
		<path d="M214.83,75.19V55.92h7.42v19.08c0,5.49,2.75,8.33,7.27,8.33s7.27-2.75,7.27-8.09V55.92h7.42v19.03
			c0,10.21-5.73,15.22-14.79,15.22S214.83,85.11,214.83,75.19z"/>
		<path d="M251.78,55.92h15.42c4.29,0,7.61,1.21,9.83,3.42c1.88,1.88,2.89,4.53,2.89,7.71v0.1c0,5.44-2.94,8.86-7.23,10.45
			l8.24,12.04h-8.67l-7.23-10.79h-5.83v10.79h-7.42V55.92z M266.71,72.3c3.61,0,5.68-1.93,5.68-4.77v-0.1
			c0-3.18-2.22-4.82-5.83-4.82h-7.37v9.68H266.71z"/>
		<path d="M286.61,55.92h6.84l15.8,20.76V55.92h7.32v33.72h-6.31L293.94,68.2v21.44h-7.32V55.92z"/>
	</g>
	<g>
		<polygon class="st0" points="130.44,14.71 111.43,31.59 111.43,31.59 130.44,14.71 		"/>
		<polygon class="st0" points="142.37,14.71 123.36,31.59 123.36,31.59 142.37,14.71 		"/>
		<polygon class="st0" points="142.37,14.71 123.36,31.59 142.4,48.49 142.4,48.51 154.33,48.51 154.33,48.49 135.3,31.59 
			154.33,14.69 142.4,14.69 142.37,14.71 		"/>
		<polygon class="st0" points="118.5,14.71 99.49,31.59 118.52,48.49 118.52,48.51 130.44,48.51 111.4,31.61 111.43,31.59 
			111.43,31.59 130.44,14.71 130.44,14.69 118.52,14.69 118.5,14.71 		"/>
	</g>
	<g>
		<polygon class="st0" points="215.25,130.85 234.26,113.97 234.26,113.97 215.25,130.85 		"/>
		<polygon class="st0" points="203.32,130.85 222.33,113.97 222.33,113.97 203.32,130.85 		"/>
		<polygon class="st0" points="227.19,130.85 246.2,113.97 246.2,113.97 227.19,130.85 		"/>
		<polygon class="st0" points="203.32,130.85 222.33,113.97 203.3,97.07 203.3,97.05 191.36,97.05 191.36,97.07 210.39,113.97 
			191.36,130.87 203.3,130.87 203.32,130.85 		"/>
		<polygon class="st0" points="227.19,130.85 246.2,113.97 227.17,97.07 227.17,97.05 215.25,97.05 234.29,113.94 234.26,113.97 
			234.26,113.97 215.25,130.85 215.25,130.87 227.17,130.87 227.19,130.85 		"/>
	</g>
</g>
</svg>
