<?xml version="1.0" encoding="utf-8"?>
<!-- Generator: Adobe Illustrator 23.0.4, SVG Export Plug-In . SVG Version: 6.00 Build 0)  -->
<svg version="1.1" id="Layer_1" xmlns="http://www.w3.org/2000/svg" xmlns:xlink="http://www.w3.org/1999/xlink" x="0px" y="0px"
	 viewBox="0 0 446.41 133.67" style="enable-background:new 0 0 446.41 133.67;" xml:space="preserve">
<style type="text/css">
	.st0{fill:#1FA349;}
</style>
<g>
	<g>
		<path d="M76.42,81.49l-0.98,4.78H57.32l-5.39-6.39l6.39-31.26l8-6.39h11.42l5.39,6.39l-5.81,28.44l-5.69,4.42H76.42z M72.67,50.53
			h-4.54l-5.61,27.45h4.54L72.67,50.53z"/>
		<path d="M96.41,77.98l7.31-35.74h10.2l-7.7,37.65l-7.87,6.39H86.92l-5.38-6.39l7.7-37.65h10.2l-7.31,35.74H96.41z"/>
		<path d="M119.2,42.24h10.2l-9,44.03h-10.2L119.2,42.24z"/>
		<path d="M147.23,50.53h-4.42l-5.61,27.45h4.42l2.16-10.56h9.88l-2.55,12.46l-8.05,6.39h-10.44l-5.89-6.39l6.39-31.26l7.95-6.39
			h10.99l5.44,6.39l-2.16,10.57h-9.88L147.23,50.53z"/>
		<path d="M168.16,67.43l-3.85,18.85h-10.2l9-44.03h10.2l-3.86,18.86L180,42.24h10.45l-12.92,20.51l5.26,23.52h-10.93L168.16,67.43z
			"/>
		<path d="M260.09,42.24h21.56l-1.7,8.29h-5.71l-7.31,35.74h-10.08l7.31-35.74h-5.77L260.09,42.24z"/>
		<path d="M291.47,77.98l7.31-35.74h10.2l-7.7,37.65l-7.87,6.39h-11.42l-5.38-6.39l7.7-37.65h10.2l-7.31,35.74H291.47z"/>
		<path d="M323.11,68.64h-4.18l-3.6,17.63h-10.2l9-44.03h17.38l5.52,6.39l-2.35,11.49l-5.93,4.36l4.19,4.17l-3.6,17.63h-9.82
			L323.11,68.64z M326.81,50.53h-4.18l-2.01,9.82h4.18L326.81,50.53z"/>
		<path d="M348.22,64.77l-4.4,21.5h-9.58l9-44.03h8.53l2.37,21.12l4.32-21.12h9.46l-9,44.03h-8.36L348.22,64.77z"/>
	</g>
	<g>
		<g>
			<polygon class="st0" points="194.74,54.35 185.63,77.44 196.48,69.38 210.18,73.78 			"/>
			<g>
				<path class="st0" d="M220.98,89.25c-11.04-2.7-17.93-11.55-19.27-21.24c-0.01-0.1-0.09-0.17-0.19-0.17c-1.19,0-8.58,0-9.96,0
					c-0.12,0-0.21,0.11-0.2,0.23c1.42,15.35,14.36,27.41,30.07,27.41c10.74,0,21.33-5.91,25.92-14.21
					C243.77,85.07,234.55,92.56,220.98,89.25z"/>
			</g>
		</g>
		<g>
			<polygon class="st0" points="248.02,75.58 257.13,52.49 246.28,60.56 232.58,56.15 			"/>
			<g>
				<path class="st0" d="M221.78,40.69c11.04,2.7,17.93,11.55,19.27,21.24c0.01,0.1,0.09,0.17,0.19,0.17c1.19,0,8.58,0,9.96,0
					c0.12,0,0.21-0.11,0.2-0.23c-1.42-15.35-14.36-27.41-30.07-27.41c-10.74,0-21.33,5.91-25.92,14.21
					C198.99,44.87,208.21,37.37,221.78,40.69z"/>
			</g>
		</g>
	</g>
</g>
</svg>
