<?xml version="1.0" encoding="utf-8"?>
<!-- Generator: Adobe Illustrator 21.1.0, SVG Export Plug-In . SVG Version: 6.00 Build 0)  -->
<svg version="1.1" id="Layer_1" xmlns="http://www.w3.org/2000/svg" xmlns:xlink="http://www.w3.org/1999/xlink" x="0px" y="0px"
	 viewBox="0 0 255 255" style="enable-background:new 0 0 255 255;" xml:space="preserve">
<style type="text/css">
	.st0{fill:#0E0E0E;}
</style>
<path class="st0" d="M249.5,51.3c-3-7.4-8.3-13.8-14.9-18.2c-7.9-5.3-17.6-7.5-27-6.7c-9.4,0.7-18.4,4.2-26.3,9.4
	c-8.9,6-16.4,14.1-21.7,23.5c-4.2,7.6-7,16.1-7.5,24.8h-0.5c-0.7,6.2-1.6,12.4-2.6,18.6c-0.8,4.3-1.6,8.6-3,12.7
	c-2.2,6.2-5.6,12.1-9.1,17.7c-0.4-0.4-0.7-0.7-1.1-1.1c-2.8,2.7-5.5,5.5-8.3,8.2c-2.7-2.7-5.4-5.4-8.1-8.1c-0.3,0.3-0.6,0.6-0.9,0.9
	c-3.2-5-6.2-10.3-8.4-15.8c-1.4-3.3-2.2-6.9-2.9-10.5c-1.5-7.5-2.6-15.1-3.5-22.8h-0.6c-0.5-8.8-3.4-17.6-7.8-25.2
	c-5-8.8-12-16.4-20.2-22.2c-7.4-5.1-15.8-8.7-24.8-9.9c-6.7-0.9-13.5-0.3-19.9,1.7c-6.3,2-12,5.7-16.6,10.5
	C8.6,44.3,5.1,51.2,3.6,58.6c-1.7,8-1,16.3,1.5,24.1c3.3,10.6,10,20.2,18.3,27.6c10.3,9.3,23.3,15.5,37.3,16.4l-0.1,0.5
	c4.6,0.5,9.3,1.2,13.9,1.9c5.6,0.9,11.3,1.9,16.7,3.5c6.5,2.2,12.7,5.7,18.4,9.4c-0.4,0.4-0.7,0.8-1.1,1.2c2.7,2.7,5.4,5.4,8.1,8.1
	c-6.8,6.8-13.5,13.5-20.3,20.3c-1.3,0-2.6,0-3.8,0.1c-1.1,1.1-2.2,2.2-3.3,3.4c5.1,5.1,10.2,10.2,15.3,15.3c1.2-1.2,2.4-2.4,3.6-3.6
	c-0.1-1.5-0.3-2.9-0.4-4.4c6.7-6.7,13.3-13.3,20-20c6.8,6.8,13.6,13.6,20.4,20.4c0,1.2,0,2.4,0,3.7c0,0.3,0.3,0.5,0.5,0.7
	c1,0.9,1.9,1.9,2.9,2.9c5.1-5.1,10.2-10.2,15.3-15.4c-1.2-1.2-2.4-2.4-3.6-3.6c-1.4,0.2-2.9,0.2-4.3,0.4
	c-6.7-6.7-13.4-13.4-20.1-20.1c2.5-2.5,5.1-5.1,7.6-7.6c0.2-0.2,0.4-0.4,0.5-0.7c-0.2-0.3-0.5-0.6-0.8-0.9c4.2-2.7,8.6-5.2,13.1-7.2
	c2.4-1.1,4.8-2.1,7.3-2.7c4-1.1,8.1-1.9,12.3-2.5c5.4-0.9,10.8-1.6,16.3-2.3c0-0.2,0-0.4,0-0.6c3.4-0.1,6.8-0.8,10-1.6
	c15.1-3.9,28.6-13.8,37.5-26.6c5.3-7.6,8.9-16.4,10-25.6C253.2,65.6,252.3,58.1,249.5,51.3z M36.8,68.8c-2.1-2.1-4.2-4.2-6.3-6.3
	c2.5-2.5,5-5,7.5-7.4c2.1,2.1,4.2,4.2,6.3,6.3C41.7,63.8,39.3,66.3,36.8,68.8z M45.7,62.8c2.2,2,4.2,4.2,6.3,6.2
	c-2.4,2.5-5,5-7.5,7.5c-2.1-2.1-4.2-4.2-6.3-6.3C40.7,67.8,43.2,65.3,45.7,62.8z M35,70.6c-2.5,2.5-5,5-7.4,7.5
	c-2.1-2.1-4.2-4.2-6.3-6.3c2.5-2.5,5-5,7.4-7.4C30.8,66.3,32.9,68.5,35,70.6z M29.5,79c2.4-2.3,4.6-4.7,7-6.9
	c2.1,2.1,4.2,4.2,6.3,6.3c-2.5,2.5-5,5-7.5,7.4c-2-2-4.1-4-6.1-6.1C29,79.4,29.3,79.2,29.5,79z M44.3,79.9c2.1,2.1,4.2,4.2,6.3,6.3
	c-2.5,2.5-5,5-7.4,7.4c-2.1-2.1-4.2-4.2-6.3-6.3C39.3,84.8,41.8,82.4,44.3,79.9z M46.1,78.1c2.5-2.5,5-5,7.5-7.4
	c2.1,2.1,4.2,4.2,6.3,6.3c-2.3,2.3-4.7,4.6-7,7c-0.2,0.2-0.5,0.6-0.7,0.2C50.1,82.2,48.1,80.1,46.1,78.1z M61.6,75.1
	c-2.1-2.1-4.2-4.2-6.3-6.3c2.5-2.5,5-5,7.5-7.5c2.1,2.1,4.2,4.2,6.3,6.3C66.6,70.2,64.1,72.7,61.6,75.1z M70.6,69.2
	c2.1,2.1,4.2,4.2,6.3,6.3c-2.5,2.5-5,5-7.5,7.5c-2.1-2.1-4.2-4.2-6.3-6.3C65.6,74.2,68.1,71.7,70.6,69.2z M61.4,78.4
	c2.1,2.1,4.2,4.2,6.3,6.3c-2.5,2.5-5,5-7.5,7.5c-2.1-2.1-4.2-4.2-6.3-6.3C56.4,83.4,58.9,80.9,61.4,78.4z M69.2,86.3
	c2.1,2.1,4.2,4.2,6.3,6.3c-2.5,2.5-5,5-7.5,7.5c-2.1-2.1-4.2-4.2-6.3-6.3C64.2,91.2,66.7,88.7,69.2,86.3z M70.9,84.5
	c2.5-2.5,5-5,7.5-7.4c2.1,2.1,4.2,4.2,6.3,6.3c-2.5,2.5-5,5-7.5,7.4C75.1,88.7,73,86.6,70.9,84.5z M86.2,84.8
	c2.1,2.1,4.1,4.1,6.2,6.2c-2.5,2.5-5,5-7.5,7.5c-2.1-2.1-4.2-4.1-6.2-6.2C81.2,89.8,83.7,87.3,86.2,84.8z M80.2,75.2
	c2.3-2.3,4.6-4.6,6.9-6.9c0.2-0.2,0.4-0.4,0.5-0.5c2.1,2.1,4.2,4.2,6.3,6.3c-2.5,2.5-5,5-7.4,7.5C84.4,79.4,82.3,77.4,80.2,75.2z
	 M78.7,73.7c-2.1-2.1-4.2-4.2-6.3-6.3c2.5-2.5,5-5,7.5-7.4c2.1,2.1,4.2,4.2,6.3,6.3C83.6,68.8,81.2,71.2,78.7,73.7z M78,58.7
	c-2.4,2.4-4.8,4.8-7.2,7.2c-2.1-2.1-4.2-4.2-6.3-6.3c2.5-2.5,5-5,7.4-7.4c2,1.9,3.9,3.9,5.9,5.8C78.1,58.2,78.3,58.5,78,58.7z
	 M63.1,58.1c-2.1-2.1-4.2-4.2-6.3-6.3c2.5-2.5,5-5,7.5-7.4c2.1,2.1,4.2,4.2,6.3,6.3C68,53.1,65.5,55.6,63.1,58.1z M61.3,59.9
	c-2.5,2.5-5,5-7.5,7.4c-2.1-2.1-4.2-4.2-6.3-6.3c2.5-2.5,5-5,7.5-7.4C57.1,55.7,59.2,57.8,61.3,59.9z M46,59.6
	c-2.1-2.1-4.2-4.2-6.3-6.3c2.5-2.5,4.9-5,7.5-7.4c2.1,2,4.2,4.2,6.3,6.3C51,54.6,48.5,57.1,46,59.6z M38.2,51.7
	c-2.1-2.1-4.3-4.3-6.4-6.4c2.5-2.5,5-5,7.5-7.5c2.1,2.1,4.3,4.3,6.4,6.4C43.2,46.8,40.7,49.3,38.2,51.7z M36.4,53.5
	c-2.1,2.1-4.3,4.2-6.4,6.4c-0.4,0.4-0.8,0.7-1.2,1.1c-2.1-2.1-4.2-4.2-6.4-6.4c2.5-2.5,5-5,7.5-7.5C32.1,49.2,34.3,51.4,36.4,53.5z
	 M27.2,62.8c-2.5,2.5-5,5-7.4,7.4c-2.1-2.1-4.3-4.3-6.4-6.4c2.5-2.5,5-5,7.4-7.4C22.9,58.5,25.1,60.6,27.2,62.8z M25.8,79.8
	c-2.5,2.5-5,5-7.5,7.5c-2-2-4.1-4-6.1-6.1c-0.3-0.3,0.1-0.5,0.2-0.7c2.3-2.3,4.7-4.7,7-7C21.6,75.6,23.7,77.7,25.8,79.8z M27.2,81.4
	c2.2,2,4.2,4.2,6.3,6.3c-2.5,2.5-5,5-7.4,7.5c-2.1-2.1-4.2-4.2-6.3-6.3C22.3,86.3,24.7,83.8,27.2,81.4z M35.1,89.1
	c2.1,2.1,4.2,4.2,6.3,6.3c-2.5,2.5-5,4.9-7.4,7.4c-2.2-2-4.2-4.2-6.3-6.3C30.1,94.1,32.6,91.6,35.1,89.1z M42.9,96.9
	c2.1,2.1,4.2,4.2,6.3,6.3c-2.5,2.5-5,5-7.5,7.5c-2.1-2.1-4.3-4.2-6.3-6.4C37.9,101.9,40.4,99.4,42.9,96.9z M44.6,95.1
	c2.5-2.5,4.9-5,7.5-7.4c2.2,2,4.2,4.2,6.3,6.3c-2.5,2.5-5,5-7.5,7.5C48.9,99.3,46.7,97.2,44.6,95.1z M59.9,95.5
	c2.1,2.1,4.2,4.2,6.3,6.3c-2.5,2.5-5,5-7.5,7.5c-2.1-2.1-4.2-4.2-6.3-6.3C54.9,100.5,57.4,98,59.9,95.5z M67.7,103.3
	c2.1,2,4.1,4.1,6.2,6.2c-2.5,2.5-5,5-7.5,7.5c-2.1-2.1-4.2-4.1-6.2-6.2C62.8,108.3,65.2,105.8,67.7,103.3z M69.5,101.5
	c2.5-2.5,5-5,7.5-7.4c2.1,2,4.2,4.1,6.2,6.2c-2.5,2.5-5,5-7.5,7.4C73.7,105.6,71.6,103.6,69.5,101.5z M84.6,101.8
	c0.4,0.2,0.8,0.7,1.1,1c1.9,1.9,3.8,3.8,5.6,5.7c-1,1.3-1.9,2.6-3.1,3.7c-1.4,1.4-2.9,2.5-4.5,3.6c-2.2-2.2-4.4-4.4-6.6-6.5
	C79.7,106.8,82.1,104.3,84.6,101.8z M86.5,100c2.5-2.5,5-5,7.5-7.4c1,1,2,1.9,2.9,2.9c0,0.3-0.1,0.7-0.1,1c-0.6,2.5-1.4,5-2.5,7.3
	c-0.4,0.9-0.8,1.7-1.4,2.5C90.7,104.2,88.6,102.1,86.5,100z M95.7,90.8c0.6-0.6,1.2-1.3,1.9-1.9c0,1.2-0.1,2.4-0.2,3.6
	C96.8,91.9,96.3,91.3,95.7,90.8z M95.5,75.6c0.2,0.3,0.5,0.5,0.6,0.8c0.8,3.1,1.3,6.3,1.5,9.4c-1.1,1.1-2.2,2.3-3.4,3.4
	c-2.1-2.1-4.1-4.1-6.2-6.2C90.5,80.6,92.9,78.1,95.5,75.6z M91.3,64.1c1.2,2.2,2.1,4.5,3.1,6.8c-1.7-1.6-3.3-3.3-4.9-4.9
	c0.5-0.5,0.9-0.9,1.4-1.4C90.9,64.4,91.1,64.3,91.3,64.1z M90.2,62.2c-0.8,0.8-1.5,1.6-2.3,2.3c-2.1-2.1-4.2-4.2-6.3-6.3
	c1.2-1.2,2.3-2.3,3.5-3.5C87,57,88.7,59.6,90.2,62.2z M83.8,53c-1.2,1.2-2.5,2.5-3.7,3.7c-2.1-2.1-4.2-4.2-6.3-6.3
	c1.3-1.3,2.5-2.6,3.8-3.8C79.9,48.5,81.9,50.7,83.8,53z M68.8,39.8c2.6,1.6,5,3.4,7.3,5.3c-1.3,1.3-2.5,2.5-3.8,3.8
	c-2.1-2.1-4.2-4.2-6.3-6.3C66.9,41.6,67.8,40.7,68.8,39.8z M58.8,34.9c2.8,1,5.5,2.3,8.1,3.8c-0.8,0.8-1.6,1.6-2.4,2.4
	c-2.1-2.2-4.3-4.2-6.4-6.4C58.3,34.7,58.6,34.8,58.8,34.9z M62.7,42.9c-2.5,2.5-5,5-7.4,7.4c-2.1-2.1-4.2-4.2-6.3-6.3
	c2.5-2.5,5-5,7.5-7.5C58.5,38.7,60.6,40.8,62.7,42.9z M45.1,32c2.6,0.1,5.2,0.5,7.7,1.1c0.8,0.5,1.4,1.4,2.1,2c-2.5,2.5-5,5-7.4,7.4
	c-2.1-2.1-4.3-4.3-6.4-6.4C42.4,34.7,43.7,33.3,45.1,32z M42.2,31.9c-0.9,0.9-1.8,1.8-2.7,2.6c-0.7-0.8-1.5-1.5-2.2-2.2
	C38.9,32.1,40.6,31.9,42.2,31.9z M34.3,32.9c1.2,1.1,2.3,2.3,3.4,3.5c-2.5,2.5-5,4.9-7.4,7.4c-1.8-1.8-3.6-3.6-5.4-5.4
	c-0.4-0.4-0.7-0.7-1-1.2C27.1,35.3,30.6,33.8,34.3,32.9z M21.7,38.8c2.3,2.3,4.5,4.5,6.8,6.8c-2.5,2.5-5,5-7.5,7.4
	c-2.2-2.2-4.4-4.4-6.6-6.6C16.5,43.5,18.8,40.9,21.7,38.8z M13,48.6c2.1,2.1,4.1,4.2,6.2,6.2c-2.4,2.6-5,5-7.4,7.5
	c-1-0.9-1.9-1.9-2.9-2.9C9.7,55.6,11.1,51.9,13,48.6z M8.5,62.5c0.5,0.5,1,1,1.5,1.5c-0.6,0.6-1.2,1.2-1.7,1.7
	C8.3,64.7,8.3,63.6,8.5,62.5z M9.6,77.5c-0.7-2.9-1.1-5.8-1.3-8.8c1.1-1.1,2.1-2.1,3.2-3.2c2.1,2.1,4.3,4.3,6.4,6.4
	c-2.5,2.5-5,5-7.4,7.4C9.9,78.9,9.9,78.3,9.6,77.5z M12.1,84.6c1.5,1.5,3,3,4.5,4.5c-0.5,0.5-1,1-1.5,1.5
	C13.9,88.6,12.9,86.6,12.1,84.6z M21.5,99.7c-2-2.3-3.7-4.7-5.3-7.3c0.5-0.5,0.9-0.9,1.4-1.4c0.2-0.2,0.3-0.3,0.5-0.5
	c2.1,2.1,4.2,4.2,6.3,6.3C23.4,97.8,22.4,98.8,21.5,99.7z M29.3,107.4c-2.3-1.9-4.5-3.9-6.4-6.2c1-1,1.9-2,2.9-2.9
	c2.1,2.1,4.2,4.2,6.3,6.2C31.2,105.6,30.3,106.5,29.3,107.4z M38.5,113.8c-2.6-1.5-5.1-3.2-7.5-5.1c0.7-0.7,1.4-1.4,2.1-2.2
	c0.3-0.2,0.4-0.5,0.7-0.2c2,2,4,4,6.1,6.1C39.5,112.9,39,113.4,38.5,113.8z M40.5,114.9c0.3-0.3,0.7-0.7,1-1c1,0.9,1.9,1.9,2.8,2.8
	C43,116.1,41.7,115.6,40.5,114.9z M49.5,118.5c-2.1-2.1-4.2-4.2-6.3-6.3c1.8-1.8,3.7-3.7,5.5-5.5c0.7-0.6,1.3-1.3,2-1.9
	c2.1,2.1,4.1,4.2,6.3,6.2C54.6,113.6,52,116,49.5,118.5z M62.2,121.2c-3.6-0.2-7.1-0.9-10.6-1.8c2.1-2.1,4.3-4.3,6.4-6.4
	c0.2-0.2,0.3-0.3,0.5-0.5c2.1,2.1,4.2,4.1,6.2,6.2C63.9,119.6,63.1,120.4,62.2,121.2z M65.2,121.2c0.3-0.3,0.6-0.6,0.9-0.9
	c0.4,0.3,0.7,0.6,1,0.9C66.5,121.2,65.9,121.2,65.2,121.2z M70.4,120.9c-0.8-0.8-1.6-1.6-2.4-2.4c2.5-2.5,5-5,7.4-7.5
	c2,2,4.1,4.1,6.1,6.1C78.1,119.1,74.3,120.2,70.4,120.9z M113,137c-2.2-1.4-4.4-2.7-6.6-4c-4.7-2.6-9.7-5-14.9-6.4
	c-4-1.1-8.1-1.9-12.2-2.6c3.6-1.4,7-3.3,10-5.8c5.1-4.1,8.9-9.5,11.2-15.5c1.1,6,2.2,12.6,4.7,18.2c2,4.9,4.6,9.5,7.4,14.1
	c0.5,0.9,1.1,1.7,1.6,2.6C113.7,137.5,113.3,137.3,113,137z M241.6,47.5c2.1,3.2,3.5,6.8,4.4,10.5c-1.1,1.1-2.3,2.3-3.4,3.4
	c-2.5-2.5-5-5-7.5-7.5C237.3,51.8,239.4,49.6,241.6,47.5z M191.2,75.7c-2.1,2.1-4.2,4.2-6.3,6.3c-2.5-2.5-5-5-7.5-7.4
	c1.9-2,3.9-3.9,5.8-5.8c0.2-0.2,0.3-0.3,0.5-0.5C186.3,70.8,188.8,73.3,191.2,75.7z M185.3,66.8c2.1-2.1,4.2-4.2,6.3-6.3
	c2.5,2.5,5,4.9,7.4,7.5c-2.1,2.1-4.2,4.2-6.3,6.3C190.2,71.8,187.8,69.3,185.3,66.8z M185.2,85.3c2.3,2.3,4.7,4.7,7,7
	c0.2,0.2,0.5,0.4,0.2,0.7c-2,2-4,4.1-6.1,6.1c-2.5-2.5-5-5-7.5-7.4c1.9-2,3.9-3.9,5.8-5.8C184.9,85.7,185.1,85.5,185.2,85.3z
	 M186.7,83.8c2.1-2.1,4.2-4.2,6.3-6.3c2.5,2.5,5,5,7.5,7.5c-1.8,1.8-3.6,3.6-5.4,5.5c-0.2,0.2-0.5,0.5-0.8,0.7
	c-0.3,0.1-0.5-0.3-0.7-0.5C191.3,88.4,189,86.1,186.7,83.8z M195,76.5c-0.1-0.2-0.5-0.4-0.2-0.6c2-2,4.1-4.1,6.1-6.1
	c2.5,2.4,5,5,7.5,7.4c-2.1,2.1-4.2,4.2-6.3,6.3C199.6,81.2,197.3,78.8,195,76.5z M215.6,68.9c0.2,0.2,0.5,0.4,0.2,0.7
	c-2,2-4,4-6.1,6.1c-2.5-2.5-5-5-7.5-7.5c1.9-1.9,3.9-3.9,5.8-5.8c0.2-0.2,0.3-0.3,0.5-0.5C211,64.2,213.3,66.6,215.6,68.9z
	 M210.1,60.4c2.1-2.1,4.2-4.2,6.3-6.3c2.5,2.5,5,5,7.5,7.5c-2.1,2.1-4.2,4.2-6.3,6.3C215.1,65.4,212.6,62.9,210.1,60.4z M210.1,78.9
	c2.5,2.5,5,5,7.4,7.5c-2.1,2.1-4.2,4.2-6.3,6.3c-2.5-2.5-5-5-7.5-7.5C205.9,83.2,207.9,81,210.1,78.9z M211.6,77.5
	c2.1-2.1,4.2-4.3,6.3-6.3c2.5,2.5,4.9,5,7.4,7.4c-2.1,2.1-4.2,4.2-6.3,6.3C216.5,82.4,214.1,79.9,211.6,77.5z M219.4,69.7
	c1.8-2,3.9-3.9,5.7-5.8c0.2-0.2,0.3-0.3,0.5-0.5c2.5,2.5,5,5,7.5,7.4c-2.1,2.1-4.2,4.2-6.3,6.3C224.4,74.7,221.9,72.1,219.4,69.7z
	 M225.4,60.1c-2.5-2.5-5-5-7.5-7.5c2.1-2.1,4.3-4.3,6.4-6.4c2.5,2.5,5,5,7.5,7.5C229.7,55.8,227.6,57.9,225.4,60.1z M216.2,50.8
	c-2.5-2.5-5-5-7.5-7.4c1.9-2,3.9-3.9,5.9-5.9c0.2-0.2,0.4-0.4,0.5-0.5c2.5,2.5,5,5,7.5,7.4C220.5,46.6,218.3,48.7,216.2,50.8z
	 M214.7,52.3c-2.1,2.1-4.2,4.2-6.3,6.3c-2.5-2.5-5-5-7.5-7.5c1.9-1.9,3.8-3.9,5.8-5.8c0.2-0.2,0.4-0.4,0.5-0.5
	C209.7,47.3,212.2,49.8,214.7,52.3z M206.9,60.1c-2.1,2.1-4.2,4.2-6.3,6.3c-2.5-2.5-5-5-7.5-7.5c2.1-2.1,4.2-4.2,6.3-6.3
	C201.9,55.2,204.4,57.6,206.9,60.1z M191.3,57.2c-2.5-2.5-5-5-7.5-7.4c1.9-2,3.9-3.9,5.8-5.8c0.2-0.2,0.3-0.3,0.5-0.5
	c2.5,2.5,5,5,7.5,7.5C195.5,53,193.4,55.1,191.3,57.2z M189.8,58.7c-2.1,2.1-4.2,4.2-6.3,6.3c-2.5-2.5-5-5-7.4-7.5
	c2.1-2.1,4.2-4.2,6.3-6.2C184.9,53.7,187.3,56.2,189.8,58.7z M182,66.5c-2.1,2.1-4.2,4.2-6.3,6.3c-2.5-2.5-5-5-7.5-7.5
	c2.1-2.1,4.2-4.2,6.3-6.3C177,61.5,179.5,64,182,66.5z M176,76.1c2.5,2.5,5,5,7.5,7.4c-2.1,2.1-4.2,4.2-6.3,6.3
	c-2.5-2.5-5-5-7.5-7.4C171.8,80.3,173.9,78.2,176,76.1z M175.6,91.4c-2.1,2.1-4.1,4.1-6.2,6.2c-2.5-2.5-4.9-5-7.4-7.4
	c0.3-0.3,0.5-0.6,0.8-0.9c1.8-1.8,3.6-3.6,5.4-5.4C170.7,86.4,173.2,88.9,175.6,91.4z M167.9,99.1c-2,2-4.1,4.1-6.1,6.1
	c-1.9-3.5-3.1-7.3-3.7-11.2c0.8-0.8,1.5-1.6,2.4-2.3C163,94.1,165.4,96.6,167.9,99.1z M163.6,106.9c1.9-1.8,3.7-3.7,5.5-5.5
	c0.2-0.2,0.3-0.3,0.5-0.5c2.4,2.4,4.9,4.8,7.2,7.3c0.3,0.3-0.1,0.5-0.3,0.7c-2.1,2.1-4.1,4.2-6.2,6.2c-2.8-2-5.2-4.5-7.1-7.4
	C163.1,107.4,163.5,107.1,163.6,106.9z M171.2,99.4c1.9-1.9,3.8-3.8,5.6-5.6c0.2-0.2,0.4-0.4,0.6-0.6c2.5,2.4,5,5,7.5,7.4
	c-2,2.1-4.1,4.1-6.2,6.2c-0.3-0.3-0.6-0.5-0.9-0.8C175.6,103.8,173.4,101.6,171.2,99.4z M186.6,102.4c2.5,2.5,5,4.9,7.5,7.5
	c-2.1,2-4.1,4.1-6.2,6.2c-2.5-2.5-5-5-7.5-7.5C182.5,106.5,184.6,104.5,186.6,102.4z M188.1,100.9c2.1-2.1,4.2-4.2,6.3-6.3
	c2.5,2.5,5,5,7.4,7.5c-2.1,2.1-4.2,4.2-6.3,6.3C193.1,105.8,190.6,103.4,188.1,100.9z M196,93.1c1.9-1.9,3.8-3.9,5.8-5.8
	c0.2-0.2,0.4-0.4,0.5-0.5c2.5,2.5,5,5,7.5,7.4c-2.1,2.1-4.2,4.2-6.3,6.3C200.9,98,198.4,95.6,196,93.1z M211.5,96
	c2.5,2.5,5,5,7.4,7.5c-2.1,2.1-4.2,4.2-6.3,6.3c-2.5-2.5-5-5-7.5-7.4C207.3,100.2,209.4,98.1,211.5,96z M213,94.5
	c2.1-2.1,4.2-4.2,6.3-6.3c0.7,0.5,1.2,1.2,1.9,1.8c1.9,1.9,3.8,3.7,5.6,5.6c-2.1,2.1-4.2,4.2-6.3,6.3C218,99.5,215.5,97,213,94.5z
	 M220.8,86.7c1.9-2,3.9-3.9,5.8-5.8c0.2-0.2,0.3-0.3,0.5-0.5c2.5,2.5,5,5,7.5,7.5c-2.1,2.1-4.2,4.2-6.3,6.3
	C225.8,91.7,223.3,89.2,220.8,86.7z M228.6,78.9c2.1-2.1,4.2-4.2,6.3-6.3c2.5,2.5,5,5,7.5,7.5c-1.6,1.6-3.2,3.2-4.8,4.8
	c-0.5,0.5-1,1-1.5,1.4C233.6,83.8,231.1,81.4,228.6,78.9z M234.7,69.3c-2.5-2.4-5-5-7.5-7.5c2.1-2.1,4.3-4.3,6.4-6.4
	c2.5,2.4,5,5,7.5,7.4C239,65,236.8,67.1,234.7,69.3z M240.1,45.4c-2.3,2.3-4.5,4.5-6.8,6.8c-2.5-2.5-5-5-7.5-7.5
	c2.2-2.2,4.4-4.4,6.6-6.6C235.4,40.1,238,42.5,240.1,45.4z M219.5,32.6c3.8,0.7,7.5,2.1,10.9,4c-2.1,2.1-4.2,4.2-6.2,6.2
	c-2.5-2.5-5-5-7.5-7.4C217.6,34.5,218.5,33.5,219.5,32.6z M216.4,32.1c-0.5,0.5-1,1-1.6,1.6c-0.6-0.6-1.2-1.1-1.7-1.7
	C214.2,31.9,215.3,32,216.4,32.1z M200.7,33.5c3.1-0.8,6.4-1.5,9.6-1.4c1,1,2.1,2.1,3.1,3.1c-2.1,2.1-4.3,4.3-6.4,6.4
	c-2.5-2.5-5-5-7.5-7.5C199.8,33.8,200.2,33.6,200.7,33.5z M198,35.7c2.5,2.5,5,5,7.4,7.4c-2.1,2.1-4.2,4.2-6.2,6.3
	c-0.5-0.4-1-0.9-1.4-1.3c-2-2-4.1-4.1-6.1-6.1C193.8,39.9,195.9,37.7,198,35.7z M194.4,35.7c-1.5,1.5-3,3-4.5,4.4
	c-0.5-0.5-1-1-1.5-1.5C190.3,37.5,192.3,36.6,194.4,35.7z M185.9,40.2c0.2-0.1,0.4-0.3,0.6-0.4c0.6,0.6,1.3,1.3,1.9,1.9
	c-2.1,2.1-4.2,4.2-6.3,6.3c-0.9-1-1.9-1.9-2.8-2.9C181.4,43.3,183.6,41.6,185.9,40.2z M177.7,46.6c1,1,1.9,1.9,2.9,2.9
	c-2.1,2.1-4.2,4.2-6.3,6.3c-0.9-0.9-1.9-1.8-2.8-2.8C173.4,50.8,175.4,48.5,177.7,46.6z M170.2,54.7c0.9,0.8,1.7,1.7,2.6,2.6
	c-2.1,2.1-4.2,4.2-6.3,6.3c-0.5-0.5-0.9-0.9-1.4-1.4C166.6,59.6,168.3,57.1,170.2,54.7z M163.7,64.8c0.1-0.2,0.2-0.4,0.3-0.7
	c0.3,0.3,0.6,0.6,1,1c-0.9,0.9-1.8,1.9-2.8,2.8C162.7,66.8,163.2,65.8,163.7,64.8z M166.2,67.3c0.2-0.2,0.3-0.3,0.5-0.5
	c2.3,2.3,4.6,4.7,7,7c0.2,0.2,0.6,0.5,0.2,0.7c-2,2-4,4-6.1,6.1c-2.5-2.5-5-5-7.5-7.5C162.4,71.2,164.3,69.3,166.2,67.3z M159.3,76
	c0.1-0.2,0.1-0.5,0.2-0.7c2.3,2.3,4.6,4.6,6.9,6.9c-2.1,2.1-4.1,4.2-6.2,6.2c-0.8-0.8-1.6-1.6-2.5-2.5
	C157.9,82.5,158.5,79.2,159.3,76z M158.7,89.8c-0.3,0.3-0.6,0.6-0.9,0.9c0-0.6,0-1.3,0-1.9C158,89.2,158.3,89.5,158.7,89.8z
	 M159.8,128c-6.5,2.5-12.7,6-18.5,9.8c0-0.5,0.3-0.8,0.5-1.2c0.9-1.3,1.7-2.7,2.6-4.1c2.7-4.7,5.3-9.6,7.1-14.7
	c1.6-4.8,2.5-9.8,3.3-14.8c1.4,3.6,3.3,6.9,5.7,10c4,5.1,9.5,9,15.6,11.3C170.6,125.1,165.2,126.1,159.8,128z M183.4,120.5
	c-3.8-0.7-7.5-2.1-10.8-4.1c0.4-0.4,0.7-0.8,1.2-1.2c1.7-1.7,3.4-3.5,5.2-5.2c2.5,2.5,5,5,7.5,7.5
	C185.4,118.6,184.4,119.6,183.4,120.5z M186.6,121c0.3-0.5,0.7-0.8,1-1.2c0.2-0.2,0.3-0.3,0.5-0.5c0.6,0.6,1.3,1.2,1.9,1.9
	C188.9,121.2,187.8,121.1,186.6,121z M200.8,120.1c-2.6,0.5-5.2,1-7.8,1.1c-1.1-1.1-2.2-2.3-3.4-3.4c2.1-2.1,4.1-4.2,6.2-6.2
	c2.5,2.4,5,5,7.5,7.5C202.7,119.9,201.8,119.9,200.8,120.1z M204.9,117.6c-2.5-2.5-5-5-7.5-7.5c1.9-1.9,3.9-3.9,5.8-5.8
	c0.2-0.2,0.3-0.3,0.5-0.5c2.5,2.5,5,5,7.5,7.4C209.1,113.4,206.9,115.4,204.9,117.6z M208,118c1.4-1.5,2.9-2.9,4.3-4.3
	c0.2-0.1,0.4-0.5,0.7-0.5c0.6,0.5,1.2,1.2,1.8,1.7C212.6,116.1,210.3,117.1,208,118z M216.7,113.8c-0.6-0.6-1.2-1.2-1.8-1.8
	c-0.2-0.2-0.5-0.4-0.2-0.7c2-2,4-4.1,6.1-6.1c1.2,1.1,2.3,2.4,3.5,3.5C221.9,110.6,219.4,112.3,216.7,113.8z M225.9,107.4
	c-1.2-1.2-2.5-2.5-3.7-3.7c2.1-2.1,4.2-4.2,6.3-6.3c1.3,1.3,2.6,2.5,3.8,3.8C230.4,103.5,228.2,105.5,225.9,107.4z M233.8,99.7
	c-1.2-1.3-2.5-2.5-3.7-3.8c1.9-1.9,3.8-3.8,5.7-5.7c0.2-0.2,0.4-0.5,0.7-0.5c0.9,0.8,1.8,1.8,2.7,2.7
	C237.5,95,235.8,97.4,233.8,99.7z M240.2,90.5c-0.8-0.8-1.6-1.6-2.4-2.4c2.1-2.1,4.2-4.3,6.4-6.4C243.3,84.8,241.9,87.7,240.2,90.5z
	 M245.8,76.5c-0.5,0.8-1.3,1.4-2,2.1c-2.5-2.5-5-4.9-7.4-7.5c2.1-2.1,4.3-4.3,6.4-6.4c1.4,1.3,2.7,2.7,4.1,4
	C246.8,71.3,246.5,73.9,245.8,76.5z M244.3,63.1c0.7-0.7,1.4-1.5,2.2-2.1c0.2,1.6,0.4,3.2,0.4,4.8C246.1,64.9,245.2,64,244.3,63.1z"
	/>
</svg>
