<?xml version="1.0" encoding="iso-8859-1"?>
<!-- Generator: Adobe Illustrator 18.0.0, SVG Export Plug-In . SVG Version: 6.00 Build 0)  -->
<!DOCTYPE svg PUBLIC "-//W3C//DTD SVG 1.1//EN" "http://www.w3.org/Graphics/SVG/1.1/DTD/svg11.dtd">
<svg version="1.1" id="Capa_1" xmlns="http://www.w3.org/2000/svg" xmlns:xlink="http://www.w3.org/1999/xlink" x="0px" y="0px"
	 viewBox="0 0 316.413 316.413" style="enable-background:new 0 0 316.413 316.413;" xml:space="preserve">
<g>
	<path style="fill:none;stroke:#000000;stroke-width:13;stroke-linecap:round;stroke-linejoin:round;stroke-miterlimit:10;" d="
		M294.994,65.221L38.701,51.82c-7.093-0.371-13.382,4.523-14.764,11.49L6.823,149.566c-1.852,9.333,4.461,18.281,13.858,19.776
		c0.059,0.009,0.117,0.019,0.174,0.028c51.472,8.44,90.746,53.128,90.746,106.989v0c0,15.354,12.447,27.801,27.801,27.801h34.288
		c34.29,0,62.088-27.798,62.088-62.088v-60.481c0-10.1,8.188-18.288,18.288-18.288h40.107c8.694,0,15.741-7.048,15.741-15.741V80.94
		C309.913,72.566,303.356,65.658,294.994,65.221z"/>
	<path style="fill:none;stroke:#000000;stroke-width:13;stroke-linecap:round;stroke-linejoin:round;stroke-miterlimit:10;" d="
		M47.038,52.258c26.309-24.363,67.037-40.005,112.751-40.005c53.053,0,99.397,21.064,124.269,52.395"/>
	<g>
		<path style="fill:none;stroke:#000000;stroke-width:13;stroke-linecap:round;stroke-linejoin:round;stroke-miterlimit:10;" d="
			M161.523,161.45c-2.778-15.597-10.8-26.874-20.268-26.874s-17.489,11.277-20.268,26.874H161.523z"/>
		<path style="fill:none;stroke:#000000;stroke-width:13;stroke-linecap:round;stroke-linejoin:round;stroke-miterlimit:10;" d="
			M121.346,187.397c3.065,14.628,10.82,25.021,19.909,25.021s16.844-10.392,19.909-25.021H121.346z"/>
	</g>
	
		<line style="fill:none;stroke:#000000;stroke-width:13;stroke-linejoin:round;stroke-miterlimit:10;" x1="141.255" y1="187.397" x2="141.255" y2="161.45"/>
	
		<line style="fill:none;stroke:#000000;stroke-width:13;stroke-linejoin:round;stroke-miterlimit:10;" x1="141.255" y1="304.16" x2="141.255" y2="212.418"/>
	
		<line style="fill:none;stroke:#000000;stroke-width:13;stroke-linejoin:round;stroke-miterlimit:10;" x1="141.255" y1="134.576" x2="141.255" y2="56.613"/>
	<path style="fill:none;stroke:#000000;stroke-width:13;stroke-linejoin:round;stroke-miterlimit:10;" d="M309.913,144.223
		c-0.936,0.158-1.89,0.241-2.873,0.241h-7.84c-9.61,0-17.394-7.793-17.394-17.394v-25.762c0-9.601,7.784-17.394,17.394-17.394h7.84
		c0.982,0,1.937,0.083,2.873,0.241"/>
</g>
<g>
</g>
<g>
</g>
<g>
</g>
<g>
</g>
<g>
</g>
<g>
</g>
<g>
</g>
<g>
</g>
<g>
</g>
<g>
</g>
<g>
</g>
<g>
</g>
<g>
</g>
<g>
</g>
<g>
</g>
</svg>
