<svg id="base" xmlns="http://www.w3.org/2000/svg" viewBox="0 0 1149.45 2052.2"><defs>

    <style>
    
        .cls-1 {
            fill: #c92124;
        }

    </style>
    
</defs><title>spartansxs_2</title><polygon id="front_body" class="cls-1" points="28.26 2052.2 28.12 1994.2 27.84 1881.75 27.33 1769.39 26.68 1656.96 25.74 1544.63 25.03 1477.19 24.12 1409.81 23.02 1342.4 21.69 1274.99 20.32 1215.15 18.82 1155.4 17.15 1095.59 15.25 1035.81 11.88 936.09 8.31 836.39 4.57 736.7 0.62 636.77 0.23 563.7 0 524.98 22.79 527.87 26.96 528.38 30.7 528.69 34.41 528.86 38.04 528.86 40.25 528.8 42.38 528.63 44.48 528.35 46.29 528.01 48.19 527.53 50.32 526.82 52.36 526.05 54.28 525.2 54.77 524.95 55.19 524.72 56.04 524.18 56.81 523.64 57.15 523.36 57.49 523.11 59.02 521.6 60.77 519.76 62.39 517.8 63.95 515.82 65.4 513.72 66.73 511.57 67.92 509.33 69.11 507 70.87 503.06 72.54 498.93 74.04 494.79 75.43 490.54 76.65 486.25 77.67 481.95 78.61 477.64 79.31 473.56 79.8 468.82 80.19 463.69 80.39 458.64 80.45 453.4 80.28 441.78 79.88 430.07 79.28 418.31 78.55 406.63 77.61 395.12 76.42 383.58 71.26 337.01 65.91 290.35 64.69 279.55 69.65 269.89 71.75 265.83 73.59 261.98 75.4 258.09 77.13 254.15 78.75 250.24 80.33 246.27 81.84 242.22 83.34 237.94 83.88 236.47 114.78 232.04 124.16 230.71 133.34 229.18 142.47 227.45 151.65 225.41 163.33 222.69 174.93 219.74 186.49 216.54 197.94 213.22 201.12 212.14 204.26 211.12 207.38 209.96 210.5 208.8 213.53 207.52 216.57 206.22 219.63 204.86 222.63 203.41 225.27 202.11 227.85 200.69 230.4 199.25 232.9 197.77 235.39 196.21 237.83 194.66 240.21 193.01 242.65 191.22 246.81 188.22 250.95 185.13 254.92 182.07 258.89 178.87 262.86 175.63 266.77 172.26 270.6 168.94 274.39 165.46 295.91 145.39 317.37 125.23 324.14 118.77 330.77 112.25 339.02 104.03 347.24 95.72 355.38 87.36 363.4 78.83 376.3 65.06 389.06 51.31 401.73 37.39 414.37 23.39 435.57 0 444.9 30.13 447.51 38.64 450.23 47 453 55.3 455.98 63.58 458.99 71.86 462.13 79.99 465.39 88.16 468.74 96.21 472.25 104.34 475.88 112.36 479.59 120.33 483.45 128.3 487.36 136.2 491.41 144 495.58 151.79 499.83 159.48 507.23 172.29 514.91 185.02 522.79 197.55 530.99 210.02 544.22 229.58 557.72 248.97 571.38 268.24 574.73 272.81 578.1 268.21 591.79 248.97 605.25 229.61 618.49 210.05 626.68 197.55 634.57 184.99 642.3 172.26 649.7 159.53 653.92 151.77 658.12 144.06 662.12 136.2 666 128.3 669.88 120.33 673.6 112.34 677.23 104.34 680.71 96.29 684.11 88.13 687.32 79.97 690.55 71.8 693.55 63.52 696.5 55.25 699.25 47 701.94 38.64 704.58 30.13 713.93 0 735.11 23.39 747.72 37.36 760.45 51.28 773.18 65.11 786.08 78.89 794.13 87.33 802.23 95.72 810.43 104.03 818.76 112.28 825.36 118.77 832.08 125.18 853.54 145.36 875.06 165.49 878.83 168.92 882.74 172.32 886.62 175.63 890.59 178.89 894.59 182.07 898.55 185.13 902.64 188.19 906.77 191.2 909.27 192.98 911.68 194.66 914.09 196.24 916.64 197.83 919.08 199.28 921.69 200.72 924.24 202.11 926.87 203.41 929.82 204.83 932.88 206.19 935.91 207.55 939 208.8 942.1 209.96 945.24 211.12 948.39 212.2 951.53 213.19 962.99 216.54 974.55 219.74 986.15 222.69 997.8 225.41 1006.92 227.39 1016.14 229.18 1025.32 230.71 1034.7 232.04 1065.63 236.47 1066.14 237.94 1067.64 242.25 1069.14 246.27 1070.73 250.21 1072.38 254.21 1074.11 258.12 1075.89 261.98 1077.73 265.83 1079.83 269.89 1084.76 279.5 1083.57 290.21 1080.09 316.91 1076.77 343.5 1073.65 370.12 1070.73 396.74 1069.82 406.09 1069.12 415.5 1068.55 425 1068.12 434.72 1067.92 438.83 1067.73 442.52 1067.64 445.98 1067.59 449.4 1067.61 452.83 1067.73 456.32 1067.87 459.75 1068.12 463.12 1068.35 465.96 1068.69 468.74 1069 471.51 1069.43 474.26 1069.99 477.04 1070.48 479.79 1071.13 482.48 1071.69 484.89 1072.77 488.52 1073.96 492.35 1075.3 496.23 1076.65 500 1077.68 502.52 1078.75 504.96 1079.86 507.35 1080.77 509.22 1082.01 511.37 1083.57 513.75 1085.22 516.08 1086.92 518.29 1088.02 519.53 1089.07 520.67 1090.2 521.77 1091.28 522.65 1091.77 522.99 1092.19 523.33 1093.18 524.01 1094.17 524.55 1094.77 524.83 1095.34 525.09 1097.46 526 1099.73 526.76 1102.08 527.47 1104.29 527.98 1105.65 528.24 1107.21 528.43 1108.77 528.52 1110.44 528.58 1114.47 528.6 1118.66 528.46 1122.83 528.18 1127.4 527.81 1149.45 525.4 1149.22 563.7 1148.8 636.75 1144.91 736.67 1141.12 836.34 1137.57 936.06 1134.23 1035.72 1132.27 1095.48 1130.6 1155.37 1129.07 1215.15 1127.74 1274.94 1126.4 1342.37 1125.3 1409.76 1124.36 1477.11 1123.68 1544.51 1122.8 1656.96 1122.12 1769.39 1121.64 1881.78 1121.33 1994.2 1121.19 2050.07 1082.98 2023.82 1016.42 1978.07 949.83 1932.29 935.21 1922.12 920.89 1911.94 890.65 1890.28 860.88 1868.8 850.45 1861.63 839.79 1854.51 829.02 1847.51 818.19 1840.62 809.58 1835.38 800.87 1830.24 792.17 1825.2 783.5 1820.44 777.8 1817.94 771.88 1815.45 765.92 1813.04 759.94 1810.66 753.88 1808.33 747.89 1806.12 741.83 1803.94 735.7 1801.84 729.61 1799.83 723.49 1797.9 717.36 1795.97 711.16 1794.16 704.98 1792.4 698.77 1790.7 692.56 1789.11 686.58 1787.64 671.3 1784.33 655.8 1781.21 640.29 1778.37 624.67 1775.79 611.89 1773.86 599.1 1772.22 586.21 1770.8 579.06 1770.01 574.3 1769.72 569 1769.87 561.09 1770.58 546.86 1771.8 532.69 1773.24 518.43 1775 501.17 1777.44 483.93 1780.16 466.7 1783.13 449.89 1786.31 443.25 1787.81 436.19 1789.48 429.31 1791.21 415.22 1794.9 408.33 1796.83 401.44 1798.84 394.56 1800.88 387.61 1803.06 380.72 1805.33 373.78 1807.63 366.92 1810.03 360.08 1812.47 353.28 1814.97 346.48 1817.55 340.81 1819.76 336.36 1822.31 329.61 1827.24 317.59 1835.32 305.57 1843.57 293.58 1851.87 287.66 1855.96 281.99 1860.07 276.26 1864.23 270.79 1868.29 250.81 1884.13 230.46 1900.03 209.99 1915.88 189.55 1931.5 159.17 1954.54 128.66 1977.56 98.16 2000.35 67.55 2023.06 28.26 2052.2 28.26 2052.2"/></svg>