<svg id="base"
    xmlns="http://www.w3.org/2000/svg"
    xmlns:xlink="http://www.w3.org/1999/xlink" viewBox="0 0 3909.13 2376.85">
    <defs>
        <style>
            .cls-1{fill:none;}.cls-2{fill:#c6093b;}.cls-3{fill:#fff;}.cls-4{fill:#0a0203;}.cls-5{fill:#231f20;}.cls-6{clip-path:url(#clip-path);}.cls-7{clip-path:url(#clip-path-2);}

            @@@

        </style>
        <clipPath id="clip-path" transform="translate(-34.23 -16.12)">
            <polygon class="cls-1" points="3141.11 2317.02 3139.84 2270.39 3139.5 2257.29 3139.04 2244.23 3138.45 2231.19 3137.77 2218.12 3137.03 2205.08 3136.09 2192.01 3135.1 2178.97 3134.02 2165.99 3133.09 2156.3 3132.04 2146.77 3130.93 2137.25 3129.69 2127.64 3128.36 2118.11 3126.91 2108.62 3125.38 2099.06 3123.71 2089.77 3122.63 2084.83 3120.36 2075.51 3117.75 2066.24 3114.95 2057.03 3113.5 2052.66 3111.66 2047.3 3107.95 2037.18 3103.98 2027.06 3099.81 2017.23 3097.66 2012.41 3097.49 2012.07 3097.34 2011.7 3094.74 2006.57 3092.07 2001.52 3089.24 1996.45 3086.43 1991.57 3083.37 1986.39 3080.28 1981.43 3077.11 1976.49 3073.99 1971.85 3071.01 1967.48 3067.44 1962.49 3063.98 1957.95 3060.72 1953.93 3057.4 1950.05 3053.92 1946.36 3050.32 1942.7 3046.58 1939.16 3043.94 1935.85 3041.25 1932.61 3038.53 1929.44 3035.72 1926.29 3032.91 1923.17 3029.99 1920.14 3027.05 1917.19 3024.01 1914.3 3020.95 1911.44 3017.86 1908.6 3014.88 1906.08 3011.45 1903.22 3008.17 1900.55 3004.82 1898 3001.51 1895.54 2998.19 1893.21 2994.08 1890.4 2990.34 1887.88 2986.11 1885.19 2982 1882.69 2977.92 1880.26 2973.78 1877.85 2969.61 1875.55 2965.28 1873.23 2956.77 1869 2952.52 1866.96 2948.13 1864.98 2943.74 1863.08 2939.31 1861.24 2934.86 1859.54 2930.47 1857.86 2920.69 1854.43 2911.05 1851.34 2901.27 1848.51 2891.69 1845.99 2881.4 1843.55 2871.31 1841.48 2861.13 1839.64 2851.27 1838.16 2842.99 1836.97 2834.8 1835.95 2826.49 1835.19 2818.41 1834.62 2806.03 1834 2793.75 1833.6 2781.51 1833.37 2769.4 1833.34 2761.21 1832.92 2753.08 1832.69 2744.97 1832.58 2736.92 1832.55 2728.78 1832.75 2720.7 1833.03 2712.6 1833.46 2704.52 1834 2696.41 1834.7 2688.39 1835.53 2680.4 1836.49 2672.32 1837.57 2664.32 1838.84 2656.33 1840.2 2648.34 1841.73 2640.54 1843.32 2633.63 1844.91 2626.88 1846.58 2620.1 1848.34 2613.39 1850.27 2606.75 1852.34 2600.15 1854.55 2593.63 1856.87 2587.05 1859.31 2580.62 1861.89 2574.18 1864.64 2567.83 1867.47 2561.51 1870.42 2555.3 1873.51 2549.15 1876.74 2542.92 1880.09 2537.13 1883.43 2533.7 1884.91 2527.38 1887.86 2521.14 1890.97 2514.97 1894.2 2508.87 1897.55 2502.89 1901.06 2496.91 1904.72 2491.07 1908.46 2488.35 1910.36 2485.6 1912.23 2480.55 1915.83 2475.68 1919.57 2470.86 1923.43 2466.1 1927.4 2461.48 1931.51 2457.03 1935.7 2452.63 1940.04 2450.51 1942.22 2446.57 1946.5 2442.91 1950.73 2439.31 1954.98 2435.99 1959.2 2432.59 1963.79 2429.39 1968.33 2426.27 1973.01 2423.61 1977.37 2420.12 1982.87 2416.83 1988.46 2413.74 1994.04 2410.88 1999.65 2408.67 2004.47 2406.37 2009.63 2404.27 2014.9 2402.29 2020.23 2400.22 2026.33 2398.29 2032.28 2396.45 2038.35 2394.75 2044.36 2393.13 2050.48 2391.66 2056.6 2390.3 2062.78 2389.08 2068.76 2387.83 2075.82 2386.7 2082.59 2385.59 2089.6 2384.77 2096.6 2383.95 2103.51 2383.32 2110.52 2382.79 2117.46 2382.33 2124.43 2382.13 2132.91 2381.99 2141.19 2381.91 2149.44 2381.99 2157.77 2382.16 2165.99 2382.47 2174.32 2382.87 2182.52 2383.35 2190.71 2384.12 2201.31 2385.03 2211.86 2386.05 2222.4 2387.09 2232.92 2388.29 2243.49 2389.59 2254.01 2390.98 2264.49 2392.51 2274.81 2398.72 2317.93 2426.07 2304.6 2438.18 2298.71 2450.14 2293.09 2462.16 2287.54 2474.26 2282.15 2486.34 2276.85 2498.55 2271.69 2510.83 2266.62 2523.1 2261.74 2533.34 2257.8 2543.65 2253.98 2553.94 2250.26 2564.2 2246.75 2574.64 2243.35 2585.15 2240.03 2595.61 2236.86 2605.9 2233.88 2615.91 2231.16 2626.14 2228.58 2636.34 2226.23 2646.64 2223.99 2656.93 2221.97 2667.33 2220.16 2677.67 2218.54 2687.94 2217.1 2695.22 2216.28 2702.53 2215.62 2709.96 2215.09 2717.42 2214.69 2730.51 2214.21 2743.67 2213.9 2756.82 2213.78 2768.36 2213.75 2777.82 2213.87 2790.49 2214.12 2803.19 2214.57 2815.75 2215.17 2822.86 2215.65 2829.89 2216.25 2836.9 2217.04 2843.76 2217.95 2848.69 2218.77 2859.74 2220.78 2870.72 2222.94 2881.6 2225.26 2886.99 2226.54 2892.48 2227.84 2903.26 2230.59 2913.94 2233.48 2930.53 2238.41 2938.58 2240.77 2946.31 2243.18 2954.08 2245.64 2961.85 2248.25 2975.17 2252.9 2988.44 2257.75 3001.7 2262.57 3014.88 2267.55 3053.21 2282.75 3108.74 2304.41 3141.11 2317.02 3141.11 2317.02"/>
        </clipPath>
        <clipPath id="clip-path-2" transform="translate(-34.23 -16.12)">
            <polygon class="cls-1" points="2381.91 1866.98 2383.18 1820.35 2383.52 1807.25 2383.98 1794.18 2384.57 1781.14 2385.25 1768.08 2385.99 1755.04 2386.93 1741.97 2387.92 1728.93 2388.99 1715.95 2389.93 1706.25 2390.98 1696.73 2392.09 1687.2 2393.33 1677.6 2394.66 1668.07 2396.11 1658.57 2397.64 1649.02 2399.31 1639.72 2400.39 1634.79 2402.66 1625.47 2405.26 1616.2 2408.07 1606.98 2409.52 1602.62 2411.36 1597.26 2415.07 1587.14 2419.04 1577.02 2423.21 1567.19 2425.36 1562.37 2425.53 1562.03 2425.67 1561.66 2428.28 1556.53 2430.95 1551.48 2433.78 1546.41 2436.59 1541.53 2439.65 1536.35 2442.74 1531.38 2445.91 1526.45 2449.03 1521.8 2452.01 1517.44 2455.58 1512.45 2459.04 1507.91 2462.3 1503.89 2465.61 1500 2469.1 1496.32 2472.7 1492.66 2476.44 1489.12 2479.08 1485.8 2481.77 1482.57 2484.49 1479.4 2487.3 1476.25 2490.11 1473.13 2493.03 1470.1 2495.97 1467.15 2499.01 1464.26 2502.07 1461.4 2505.16 1458.56 2508.13 1456.04 2511.56 1453.18 2514.85 1450.51 2518.2 1447.96 2521.51 1445.49 2524.83 1443.17 2528.94 1440.36 2532.68 1437.84 2536.91 1435.15 2541.02 1432.65 2545.1 1430.21 2549.24 1427.81 2553.4 1425.51 2557.74 1423.19 2566.24 1418.96 2570.5 1416.92 2574.89 1414.94 2579.28 1413.04 2583.71 1411.19 2588.16 1409.49 2592.55 1407.82 2602.33 1404.39 2611.97 1401.3 2621.75 1398.47 2631.33 1395.94 2641.62 1393.51 2651.71 1391.44 2661.89 1389.6 2671.75 1388.12 2680.03 1386.93 2688.22 1385.91 2696.53 1385.14 2704.6 1384.58 2716.99 1383.95 2729.26 1383.56 2741.51 1383.33 2753.61 1383.3 2761.81 1382.88 2769.94 1382.65 2778.05 1382.54 2786.1 1382.51 2794.24 1382.71 2802.31 1382.99 2810.42 1383.41 2818.5 1383.95 2826.61 1384.66 2834.63 1385.48 2842.62 1386.45 2850.7 1387.53 2858.7 1388.8 2866.69 1390.16 2874.68 1391.69 2882.48 1393.28 2889.39 1394.87 2896.14 1396.54 2902.92 1398.3 2909.63 1400.22 2916.27 1402.29 2922.87 1404.51 2929.39 1406.83 2935.97 1409.27 2942.4 1411.85 2948.84 1414.6 2955.19 1417.43 2961.51 1420.38 2967.72 1423.47 2973.87 1426.7 2980.1 1430.05 2985.89 1433.39 2989.32 1434.86 2995.64 1437.81 3001.87 1440.93 3008.05 1444.16 3014.15 1447.51 3020.13 1451.02 3026.11 1454.68 3031.95 1458.42 3034.67 1460.32 3037.42 1462.19 3042.47 1465.79 3047.34 1469.53 3052.16 1473.39 3056.92 1477.36 3061.54 1481.47 3065.99 1485.66 3070.39 1490 3072.51 1492.18 3076.45 1496.46 3080.11 1500.68 3083.71 1504.94 3087.03 1509.16 3090.43 1513.75 3093.63 1518.29 3096.75 1522.96 3099.41 1527.33 3102.9 1532.83 3106.19 1538.41 3109.28 1544 3112.14 1549.61 3114.35 1554.43 3116.65 1559.59 3118.75 1564.86 3120.73 1570.19 3122.8 1576.29 3124.73 1582.24 3126.57 1588.3 3128.27 1594.31 3129.89 1600.44 3131.36 1606.56 3132.72 1612.74 3133.94 1618.72 3135.19 1625.78 3136.32 1632.55 3137.43 1639.55 3138.25 1646.56 3139.07 1653.47 3139.69 1660.47 3140.23 1667.42 3140.69 1674.39 3140.88 1682.87 3141.03 1691.14 3141.11 1699.39 3141.03 1707.73 3140.86 1715.95 3140.54 1724.28 3140.15 1732.47 3139.67 1740.67 3138.9 1751.27 3137.99 1761.81 3136.97 1772.36 3135.92 1782.87 3134.73 1793.45 3133.43 1803.96 3132.04 1814.45 3130.51 1824.77 3124.3 1867.88 3096.95 1854.56 3084.84 1848.67 3072.88 1843.05 3060.86 1837.5 3048.76 1832.11 3036.68 1826.81 3024.47 1821.65 3012.19 1816.58 2999.92 1811.7 2989.68 1807.76 2979.37 1803.94 2969.08 1800.22 2958.82 1796.71 2948.38 1793.31 2937.87 1789.99 2927.41 1786.81 2917.12 1783.84 2907.11 1781.12 2896.88 1778.54 2886.67 1776.18 2876.38 1773.94 2866.09 1771.93 2855.69 1770.12 2845.34 1768.5 2835.08 1767.06 2827.8 1766.23 2820.48 1765.58 2813.06 1765.04 2805.6 1764.65 2792.51 1764.16 2779.35 1763.85 2766.2 1763.74 2754.66 1763.71 2745.2 1763.83 2732.53 1764.08 2719.83 1764.53 2707.27 1765.13 2700.15 1765.61 2693.12 1766.21 2686.12 1767 2679.26 1767.91 2674.33 1768.73 2663.28 1770.74 2652.3 1772.9 2641.42 1775.22 2636.03 1776.5 2630.53 1777.8 2619.76 1780.55 2609.08 1783.44 2592.49 1788.37 2584.44 1790.73 2576.7 1793.13 2568.94 1795.6 2561.17 1798.21 2547.85 1802.86 2534.58 1807.7 2521.32 1812.53 2508.13 1817.51 2469.81 1832.71 2414.28 1854.36 2381.91 1866.98 2381.91 1866.98"/>
        </clipPath>
    </defs>
    <title>spartansxs_1</title>
    <polygon class="cls-2" points="3230.37 930.95 3251.43 947.64 3294.43 981.69 3309.03 993.22 3300.44 1009.72 3298.49 1013.43 3296.73 1017.06 3295 1020.69 3293.39 1024.38 3291.8 1028.06 3290.3 1031.8 3288.88 1035.57 3287.52 1039.34 3285.9 1044.25 3284.31 1049.15 3282.84 1054.06 3281.42 1059.07 3280.12 1064.06 3278.87 1069.08 3277.68 1074.07 3276.6 1079.2 3275.39 1086.45 3274.02 1096.91 3271.81 1114.55 3269.94 1132.18 3268.41 1149.89 3267.39 1162 3266.68 1174.07 3266.23 1186.21 3266.09 1198.17 3266.43 1205.99 3266.94 1213.93 3267.65 1221.89 3268.61 1229.86 3269.69 1237.77 3271.02 1245.65 3272.49 1253.47 3274.19 1261.21 3275.81 1267.82 3277.63 1274.34 3279.55 1280.8 3281.74 1287.2 3284.06 1293.5 3286.58 1299.79 3289.28 1306 3292.14 1312.06 3294.24 1316.32 3296.48 1320.63 3298.77 1324.85 3301.15 1329.13 3303.68 1333.32 3306.2 1337.46 3308.86 1341.6 3311.53 1345.65 3314.22 1349.51 3316.91 1353.31 3319.75 1357.08 3322.64 1360.73 3325.56 1364.39 3328.59 1367.99 3331.68 1371.56 3334.2 1374.31 3340.53 1379.95 3347.7 1386.08 3355.01 1392.06 3362.41 1397.87 3369.92 1403.57 3377.57 1409.1 3385.31 1414.45 3393.11 1419.61 3397.61 1422.36 3402.15 1424.94 3406.77 1427.41 3411.51 1429.7 3416.3 1431.83 3421.14 1433.76 3424.2 1434.89 3427.27 1433.76 3432.11 1431.8 3436.93 1429.67 3441.64 1427.41 3446.23 1424.94 3450.79 1422.39 3455.3 1419.61 3463.1 1414.42 3470.86 1409.1 3478.49 1403.57 3485.97 1397.87 3493.4 1392.03 3500.68 1386.08 3507.85 1379.95 3514.2 1374.31 3516.76 1371.51 3519.85 1367.96 3522.85 1364.39 3525.77 1360.71 3528.69 1357.05 3531.47 1353.34 3534.19 1349.48 3536.88 1345.65 3539.57 1341.66 3542.18 1337.52 3544.76 1333.44 3547.23 1329.24 3549.61 1325.02 3551.96 1320.68 3554.17 1316.4 3556.24 1312.18 3559.11 1306.14 3561.77 1299.96 3564.35 1293.67 3566.67 1287.29 3568.83 1280.94 3570.81 1274.39 3572.63 1267.9 3574.21 1261.27 3575.89 1253.47 3577.42 1245.68 3578.69 1237.77 3579.85 1229.86 3580.73 1221.92 3581.41 1213.93 3581.98 1205.99 3582.32 1198.11 3582.26 1192.24 3581.98 1180.08 3581.47 1168.01 3580.56 1155.96 3580 1149.89 3579.29 1141.02 3577.61 1123.36 3575.57 1105.7 3573.11 1088.1 3571.8 1079.2 3570.73 1074.07 3569.57 1068.99 3568.35 1064.01 3566.96 1059.02 3565.57 1054.03 3564.09 1049.12 3562.56 1044.22 3560.89 1039.34 3559.56 1035.55 3558.09 1031.75 3556.64 1028.09 3555.05 1024.32 3553.38 1020.63 3551.71 1017.03 3549.89 1013.43 3547.97 1009.72 3539.38 993.22 3553.97 981.69 3596.98 947.64 3618.04 930.95 3630.79 954.59 3634.03 960.57 3637.28 966.89 3640.4 973.3 3643.46 979.79 3646.33 986.34 3649.08 992.97 3651.71 999.6 3654.29 1006.49 3656.62 1013.1 3658.83 1019.9 3660.93 1026.73 3662.88 1033.64 3664.7 1040.59 3666.37 1047.54 3669.29 1061.4 3670.73 1070.01 3672.15 1078.91 3673.45 1087.79 3674.7 1096.66 3675.86 1105.56 3676.91 1114.49 3677.88 1123.39 3678.76 1132.46 3679.41 1139.83 3679.92 1147.29 3680.43 1154.74 3680.77 1162.25 3681.05 1169.74 3681.22 1177.25 3681.36 1184.76 3681.36 1192.24 3681.36 1192.84 3681.05 1203.33 3680.51 1214.24 3679.64 1225.13 3678.53 1236.07 3677.17 1246.89 3675.47 1257.81 3673.57 1268.58 3671.36 1279.3 3669.12 1288.99 3666.57 1298.54 3663.76 1308.07 3660.7 1317.51 3657.44 1326.86 3653.81 1336.13 3650.01 1345.29 3645.9 1354.33 3645.62 1354.92 3642.84 1360.68 3639.72 1366.69 3636.49 1372.7 3633.06 1378.82 3629.8 1384.32 3626.34 1389.96 3622.77 1395.55 3619.03 1401.1 3615.54 1406.26 3611.63 1411.79 3607.64 1417.2 3603.33 1422.7 3598.96 1428.03 3594.37 1433.44 3589.66 1438.72 3584.76 1443.9 3584.39 1444.33 3583.97 1444.75 3579.8 1448.75 3575.32 1452.89 3570.78 1457 3566.22 1461.03 3561.54 1465.02 3556.89 1468.88 3552.1 1472.73 3547.34 1476.47 3542.52 1480.16 3537.62 1483.82 3532.69 1487.36 3527.64 1490.79 3522.59 1494.22 3517.49 1497.59 3512.31 1500.82 3507.01 1504.14 3502.67 1506.69 3498.13 1509.3 3493.57 1511.82 3488.92 1514.26 3484.27 1516.61 3479.57 1518.88 3474.83 1521.09 3470.01 1523.22 3465.25 1525.23 3460.38 1527.21 3455.47 1529.11 3450.57 1530.87 3445.66 1532.6 3440.64 1534.19 3435.68 1535.75 3430.67 1537.22 3424.2 1539.18 3417.74 1537.22 3413.06 1535.8 3408.07 1534.33 3403.09 1532.71 3398.18 1530.98 3393.25 1529.26 3388.35 1527.38 3383.53 1525.4 3378.68 1523.39 3373.95 1521.26 3369.18 1519.08 3364.45 1516.78 3359.83 1514.46 3355.21 1512.02 3350.59 1509.56 3346.08 1506.92 3341.43 1504.14 3336.39 1501.11 3331.17 1497.79 3326.07 1494.47 3320.99 1491.04 3316.01 1487.53 3311.07 1484.01 3306.11 1480.39 3301.29 1476.7 3296.53 1472.93 3291.74 1469.08 3287.09 1465.22 3282.41 1461.25 3277.91 1457.26 3273.32 1453.14 3268.86 1448.98 3264.47 1444.72 3264.05 1444.33 3263.65 1443.88 3259.09 1439.06 3254.38 1433.78 3249.76 1428.4 3245.05 1422.7 3241.06 1417.57 3237.09 1412.18 3233.18 1406.71 3229.38 1401.1 3225.95 1395.97 3222.29 1390.3 3218.83 1384.69 3215.4 1378.85 3212.14 1373.07 3208.86 1367.06 3205.8 1361.1 3202.79 1354.95 3202.51 1354.39 3198.65 1345.88 3194.8 1336.75 3191.17 1327.46 3187.85 1318.1 3184.79 1308.72 3181.98 1299.17 3179.43 1289.59 3177.22 1279.95 3174.98 1269.12 3173.03 1258.35 3171.32 1247.49 3169.94 1236.61 3168.77 1225.75 3167.92 1214.78 3167.36 1203.87 3166.93 1197.2 3167.05 1192.89 3167.1 1192.3 3167.07 1185.02 3167.16 1177.5 3167.33 1170.02 3167.7 1162.54 3168.01 1155.05 3168.52 1147.51 3169.09 1140.03 3169.71 1132.46 3170.59 1123.62 3171.55 1114.63 3172.57 1105.67 3173.74 1096.77 3174.98 1087.84 3177.22 1072.45 3179.15 1061.37 3180.48 1054.76 3181.98 1047.79 3183.66 1040.79 3185.47 1033.9 3187.43 1026.98 3189.52 1020.18 3191.71 1013.32 3194.17 1006.4 3196.61 999.88 3199.16 993.25 3201.91 986.65 3204.83 980.13 3207.81 973.61 3210.93 967.26 3214.21 960.88 3217.61 954.59 3230.37 930.95 3230.37 930.95"/>
    <polygon class="cls-2" points="3427.09 1420.5 3448.16 1403.81 3491.16 1369.76 3505.76 1358.22 3497.17 1341.73 3495.21 1338.01 3493.45 1334.39 3491.72 1330.76 3490.11 1327.07 3488.52 1323.39 3487.02 1319.65 3485.6 1315.88 3484.24 1312.11 3482.62 1307.2 3481.04 1302.3 3479.56 1297.39 3478.14 1292.38 3476.84 1287.39 3475.59 1282.37 3474.4 1277.38 3473.33 1272.25 3472.11 1264.99 3470.75 1254.53 3468.54 1236.9 3466.66 1219.27 3465.13 1201.56 3464.11 1189.45 3463.41 1177.38 3462.95 1165.24 3462.81 1153.28 3463.15 1145.46 3463.66 1137.52 3464.37 1129.56 3465.33 1121.59 3466.41 1113.68 3467.74 1105.8 3469.22 1097.98 3470.92 1090.24 3472.53 1083.63 3474.35 1077.11 3476.27 1070.65 3478.46 1064.24 3480.78 1057.95 3483.3 1051.66 3486 1045.45 3488.86 1039.38 3490.96 1035.13 3493.2 1030.82 3495.49 1026.6 3497.88 1022.32 3500.4 1018.13 3502.92 1013.99 3505.59 1009.85 3508.25 1005.79 3510.94 1001.94 3513.64 998.14 3516.47 994.37 3519.36 990.71 3522.28 987.06 3525.31 983.46 3528.4 979.89 3530.93 977.14 3537.25 971.5 3544.42 965.37 3551.73 959.39 3559.13 953.58 3566.64 947.88 3574.3 942.35 3582.03 937 3589.83 931.84 3594.34 929.09 3598.87 926.51 3603.49 924.04 3608.23 921.75 3613.02 919.62 3617.86 917.69 3620.93 916.56 3623.99 917.69 3628.84 919.65 3633.65 921.77 3638.36 924.04 3642.95 926.51 3647.51 929.06 3652.02 931.84 3659.82 937.02 3667.59 942.35 3675.21 947.88 3682.69 953.58 3690.12 959.42 3697.41 965.37 3704.58 971.5 3710.93 977.14 3713.48 979.94 3716.57 983.49 3719.57 987.06 3722.49 990.74 3725.41 994.4 3728.19 998.11 3730.91 1001.97 3733.6 1005.79 3736.3 1009.79 3738.91 1013.93 3741.48 1018.01 3743.95 1022.21 3746.33 1026.43 3748.68 1030.77 3750.89 1035.05 3752.97 1039.27 3755.83 1045.31 3758.49 1051.49 3761.07 1057.78 3763.4 1064.16 3765.55 1070.51 3767.53 1077.06 3769.35 1083.55 3770.94 1090.18 3772.61 1097.98 3774.14 1105.77 3775.41 1113.68 3776.58 1121.59 3777.46 1129.53 3778.14 1137.52 3778.7 1145.46 3779.04 1153.34 3778.99 1159.2 3778.7 1171.37 3778.19 1183.44 3777.29 1195.49 3776.72 1201.56 3776.01 1210.43 3774.34 1228.09 3772.3 1245.75 3769.83 1263.35 3768.53 1272.25 3767.45 1277.38 3766.29 1282.46 3765.07 1287.44 3763.68 1292.43 3762.29 1297.42 3760.82 1302.33 3759.29 1307.23 3757.61 1312.11 3756.28 1315.9 3754.81 1319.7 3753.36 1323.36 3751.77 1327.13 3750.1 1330.81 3748.43 1334.41 3746.61 1338.01 3744.69 1341.73 3736.1 1358.22 3750.7 1369.76 3793.7 1403.81 3814.76 1420.5 3827.51 1396.86 3830.75 1390.88 3834.01 1384.56 3837.13 1378.15 3840.19 1371.66 3843.05 1365.11 3845.8 1358.48 3848.43 1351.85 3851.01 1344.96 3853.34 1338.35 3855.55 1331.55 3857.65 1324.72 3859.6 1317.8 3861.42 1310.86 3863.09 1303.91 3866.01 1290.05 3867.46 1281.43 3868.87 1272.53 3870.18 1263.66 3871.42 1254.79 3872.59 1245.89 3873.64 1236.96 3874.6 1228.06 3875.48 1218.99 3876.13 1211.62 3876.64 1204.16 3877.15 1196.71 3877.49 1189.2 3877.77 1181.71 3877.94 1174.2 3878.09 1166.69 3878.09 1159.2 3878.09 1158.61 3877.77 1148.12 3877.24 1137.21 3876.36 1126.32 3875.25 1115.38 3873.89 1104.55 3872.19 1093.64 3870.29 1082.87 3868.08 1072.15 3865.84 1062.46 3863.29 1052.91 3860.48 1043.38 3857.42 1033.94 3854.16 1024.59 3850.53 1015.32 3846.74 1006.16 3842.63 997.12 3842.34 996.52 3839.56 990.77 3836.45 984.76 3833.21 978.75 3829.78 972.63 3826.52 967.13 3823.07 961.49 3819.49 955.9 3815.75 950.35 3812.26 945.19 3808.35 939.66 3804.36 934.25 3800.05 928.75 3795.68 923.42 3791.09 918 3786.39 912.73 3781.48 907.54 3781.11 907.12 3780.69 906.7 3776.52 902.7 3772.04 898.56 3767.51 894.45 3762.94 890.42 3758.26 886.43 3753.62 882.57 3748.83 878.72 3744.06 874.98 3739.24 871.29 3734.34 867.63 3729.41 864.09 3724.36 860.66 3719.32 857.23 3714.22 853.86 3709.03 850.63 3703.73 847.31 3699.39 844.76 3694.85 842.15 3690.29 839.63 3685.64 837.19 3680.99 834.84 3676.29 832.57 3671.55 830.36 3666.74 828.23 3661.97 826.22 3657.1 824.24 3652.19 822.34 3647.29 820.58 3642.39 818.85 3637.37 817.26 3632.41 815.7 3627.39 814.23 3620.93 812.27 3614.46 814.23 3609.79 815.65 3604.8 817.12 3599.81 818.74 3594.91 820.47 3589.97 822.19 3585.07 824.07 3580.25 826.05 3575.4 828.06 3570.67 830.19 3565.91 832.37 3561.17 834.67 3556.55 836.99 3551.93 839.43 3547.31 841.89 3542.8 844.53 3538.16 847.31 3533.11 850.34 3527.89 853.66 3522.79 856.98 3517.72 860.4 3512.73 863.92 3507.8 867.43 3502.84 871.06 3498.02 874.75 3493.26 878.52 3488.46 882.37 3483.82 886.23 3479.14 890.2 3474.63 894.19 3470.04 898.3 3465.59 902.47 3461.19 906.72 3460.77 907.12 3460.37 907.57 3455.81 912.39 3451.1 917.66 3446.48 923.05 3441.78 928.75 3437.78 933.88 3433.81 939.26 3429.9 944.74 3426.1 950.35 3422.67 955.48 3419.01 961.15 3415.56 966.76 3412.13 972.6 3408.87 978.38 3405.58 984.39 3402.52 990.35 3399.51 996.5 3399.23 997.06 3395.37 1005.57 3391.52 1014.7 3387.89 1023.99 3384.57 1033.35 3381.51 1042.73 3378.71 1052.28 3376.16 1061.86 3373.94 1071.5 3371.7 1082.33 3369.75 1093.1 3368.05 1103.96 3366.66 1114.84 3365.5 1125.7 3364.65 1136.67 3364.08 1147.58 3363.65 1154.24 3363.77 1158.55 3363.82 1159.15 3363.8 1166.43 3363.88 1173.94 3364.05 1181.43 3364.42 1188.91 3364.73 1196.39 3365.24 1203.93 3365.81 1211.42 3366.43 1218.99 3367.31 1227.83 3368.28 1236.82 3369.3 1245.78 3370.46 1254.68 3371.7 1263.61 3373.94 1279 3375.87 1290.08 3377.2 1296.68 3378.71 1303.66 3380.38 1310.66 3382.19 1317.55 3384.15 1324.46 3386.25 1331.27 3388.43 1338.13 3390.89 1345.05 3393.33 1351.56 3395.88 1358.2 3398.63 1364.8 3401.55 1371.32 3404.53 1377.84 3407.65 1384.19 3410.94 1390.57 3414.34 1396.86 3427.09 1420.5 3427.09 1420.5"/>
    <polygon class="cls-2" points="2481.39 1153.27 2523.55 1153.27 2694.9 1153.27 2866.26 1153.27 2908.41 1153.27 2885.05 1188.31 2857.38 1229.81 2885.05 1271.31 2908.41 1306.34 2866.26 1306.34 2694.9 1306.34 2523.55 1306.34 2481.39 1306.34 2504.75 1271.31 2532.42 1229.81 2504.75 1188.31 2481.39 1153.27 2481.39 1153.27"/>
    <polygon class="cls-3" points="3892.41 1968.38 3865.02 1955.06 3852.95 1949.22 3840.99 1943.55 3828.97 1937.99 3816.83 1932.61 3804.73 1927.31 3792.51 1922.15 3780.24 1917.07 3767.97 1912.2 3757.73 1908.26 3747.41 1904.43 3737.12 1900.74 3726.72 1897.2 3716.35 1893.71 3705.89 1890.45 3695.4 1887.22 3685.08 1884.3 3675.05 1881.58 3664.84 1878.97 3654.61 1876.62 3644.29 1874.44 3633.97 1872.43 3623.62 1870.61 3613.28 1868.94 3602.99 1867.52 3595.73 1866.73 3588.36 1866.08 3580.99 1865.54 3573.48 1865.14 3560.41 1864.66 3547.26 1864.35 3534.11 1864.26 3522.57 1864.23 3519.45 1864.26 3510.18 1864.38 3497.74 1864.69 3485.29 1865.17 3473.02 1865.77 3466.05 1866.25 3459.16 1866.9 3452.27 1867.66 3445.69 1868.57 3435.23 1870.39 3424.46 1872.43 3413.86 1874.67 3403.23 1877.08 3392.54 1879.71 3381.97 1882.55 3371.45 1885.52 3360.66 1888.81 3352.58 1891.19 3344.75 1893.6 3337.04 1896.07 3329.25 1898.7 3315.95 1903.38 3302.63 1908.14 3289.45 1913.05 3276.18 1918.04 3229.41 1936.43 3182.44 1954.83 3150.01 1967.56 3151.26 1920.84 3151.6 1907.75 3152.08 1894.71 3152.68 1881.69 3153.33 1868.6 3154.12 1855.5 3155.06 1842.49 3156.02 1829.48 3157.13 1816.53 3158.03 1806.89 3159.08 1797.31 3160.22 1787.73 3161.41 1778.2 3162.77 1768.68 3164.21 1759.18 3165.74 1749.66 3167.39 1740.28 3169.12 1732.99 3170.93 1725.85 3172.86 1718.76 3174.84 1711.84 3177.59 1703.54 3180.43 1695.46 3183.41 1687.35 3186.35 1679.76 3198.23 1649.48 3234.49 1634.91 3272.5 1619.66 3282.87 1615.64 3293.22 1611.72 3303.34 1607.98 3313.91 1604.21 3320.49 1601.89 3326.98 1599.73 3333.36 1597.72 3339.76 1595.82 3356.2 1590.72 3368 1587.4 3379.73 1584.34 3385.91 1582.81 3391.44 1581.45 3403.23 1578.76 3415.08 1576.32 3427.35 1573.97 3432.99 1572.97 3433.53 1572.89 3434.1 1572.83 3441.61 1571.76 3450 1570.73 3458.34 1569.86 3459.16 1569.83 3466.73 1569.23 3480.53 1568.41 3493.83 1567.82 3507.09 1567.45 3519.88 1567.19 3521.69 1567.19 3521.66 1567.19 3535.86 1566.99 3549.78 1567.02 3563.7 1567.16 3577.11 1567.45 3585.75 1567.82 3594.49 1568.35 3603.16 1569.03 3611.92 1569.94 3612.34 1570 3612.82 1570.06 3623.77 1571.41 3635.33 1573.09 3646.84 1574.96 3658.32 1577.09 3669.77 1579.35 3681.22 1581.9 3692.48 1584.6 3703.87 1587.52 3704.3 1587.63 3704.67 1587.71 3716.03 1590.97 3727.37 1594.4 3738.71 1597.92 3749.71 1601.55 3761.13 1605.4 3772.27 1609.32 3783.39 1613.4 3794.16 1617.56 3806.77 1622.53 3818.93 1627.37 3831.66 1632.7 3843.79 1637.92 3854.73 1642.68 3865.56 1647.53 3876.3 1652.54 3885.18 1656.82 3894.02 1687.75 3896.63 1697.41 3899.04 1707.19 3901.22 1716.97 3903.12 1726.61 3904.93 1738.94 3906.41 1750.99 3907.57 1762.75 3908.65 1774.94 3908.71 1775.42 3908.9 1783.65 3909.07 1791.95 3909.13 1800.14 3909.05 1808.42 3908.88 1816.7 3908.56 1824.92 3908.2 1833.17 3907.68 1841.3 3906.92 1851.9 3906.07 1862.48 3905.08 1872.99 3903.97 1883.48 3902.81 1893.97 3901.45 1904.49 3900.12 1915 3898.61 1925.27 3892.41 1968.38 3892.41 1968.38"/>
    <polygon class="cls-4" points="2347.68 1850.86 2348.96 1804.23 2349.3 1791.13 2349.75 1778.06 2350.34 1765.02 2351.03 1751.96 2351.76 1738.92 2352.7 1725.85 2353.69 1712.81 2354.77 1699.83 2355.7 1690.13 2356.75 1680.61 2357.86 1671.08 2359.1 1661.47 2360.44 1651.95 2361.88 1642.45 2363.41 1632.9 2365.09 1623.6 2366.16 1618.67 2368.43 1609.35 2371.04 1600.08 2373.84 1590.86 2375.29 1586.5 2377.13 1581.14 2380.84 1571.02 2384.81 1560.9 2388.98 1551.06 2391.14 1546.24 2391.3 1545.9 2391.45 1545.54 2394.05 1540.41 2396.72 1535.36 2399.55 1530.29 2402.36 1525.41 2405.42 1520.22 2408.51 1515.26 2411.69 1510.33 2414.8 1505.68 2417.78 1501.32 2421.35 1496.33 2424.81 1491.79 2428.07 1487.77 2431.39 1483.88 2434.87 1480.2 2438.47 1476.54 2442.22 1473 2444.85 1469.68 2447.55 1466.45 2450.27 1463.28 2453.07 1460.13 2455.88 1457.01 2458.8 1453.98 2461.75 1451.03 2464.78 1448.14 2467.84 1445.28 2470.93 1442.44 2473.91 1439.92 2477.34 1437.05 2480.63 1434.39 2483.97 1431.84 2487.29 1429.37 2490.6 1427.05 2494.71 1424.24 2498.45 1421.72 2502.68 1419.03 2506.79 1416.53 2510.87 1414.09 2515.01 1411.68 2519.18 1409.39 2523.51 1407.06 2532.02 1402.84 2536.27 1400.8 2540.66 1398.82 2545.06 1396.92 2549.48 1395.07 2553.93 1393.37 2558.32 1391.7 2568.1 1388.27 2577.74 1385.18 2587.52 1382.35 2597.1 1379.82 2607.39 1377.39 2617.48 1375.32 2627.66 1373.47 2637.52 1372 2645.8 1370.81 2653.99 1369.79 2662.3 1369.02 2670.38 1368.46 2682.76 1367.83 2695.04 1367.43 2707.28 1367.21 2719.39 1367.18 2727.58 1366.76 2735.72 1366.53 2743.82 1366.41 2751.87 1366.39 2760.01 1366.59 2768.09 1366.87 2776.19 1367.29 2784.27 1367.83 2792.38 1368.54 2800.4 1369.36 2808.39 1370.33 2816.47 1371.4 2824.47 1372.68 2832.46 1374.04 2840.45 1375.57 2848.25 1377.16 2855.17 1378.75 2861.91 1380.42 2868.69 1382.18 2875.41 1384.1 2882.04 1386.17 2888.64 1388.38 2895.16 1390.71 2901.74 1393.15 2908.18 1395.72 2914.61 1398.47 2920.96 1401.31 2927.28 1404.26 2933.49 1407.35 2939.64 1410.58 2945.88 1413.92 2951.66 1417.27 2955.09 1418.74 2961.41 1421.69 2967.65 1424.81 2973.82 1428.04 2979.92 1431.39 2985.9 1434.9 2991.88 1438.56 2997.72 1442.3 3000.44 1444.2 3003.19 1446.07 3008.24 1449.67 3013.11 1453.41 3017.93 1457.27 3022.7 1461.23 3027.32 1465.35 3031.76 1469.54 3036.16 1473.88 3038.28 1476.06 3042.22 1480.34 3045.88 1484.56 3049.48 1488.82 3052.8 1493.04 3056.2 1497.63 3059.4 1502.17 3062.52 1506.84 3065.19 1511.21 3068.67 1516.71 3071.96 1522.29 3075.05 1527.88 3077.91 1533.49 3080.13 1538.31 3082.42 1543.47 3084.52 1548.74 3086.5 1554.07 3088.57 1560.16 3090.5 1566.12 3092.34 1572.18 3094.04 1578.19 3095.66 1584.31 3097.13 1590.44 3098.49 1596.62 3099.71 1602.6 3100.96 1609.66 3102.09 1616.43 3103.2 1623.43 3104.02 1630.43 3104.84 1637.35 3105.47 1644.35 3106.01 1651.3 3106.46 1658.27 3106.66 1666.75 3106.8 1675.02 3106.88 1683.27 3106.8 1691.61 3106.63 1699.83 3106.32 1708.16 3105.92 1716.35 3105.44 1724.55 3104.67 1735.15 3103.76 1745.69 3102.74 1756.24 3101.7 1766.75 3100.51 1777.33 3099.2 1787.84 3097.81 1798.33 3096.28 1808.65 3090.07 1851.76 3062.72 1838.44 3050.62 1832.55 3038.65 1826.93 3026.64 1821.38 3014.53 1815.99 3002.45 1810.69 2990.24 1805.53 2977.96 1800.46 2965.69 1795.58 2955.46 1791.64 2945.14 1787.81 2934.85 1784.1 2924.59 1780.59 2914.16 1777.18 2903.64 1773.87 2893.18 1770.69 2882.89 1767.72 2872.88 1764.99 2862.65 1762.42 2852.45 1760.06 2842.16 1757.82 2831.87 1755.81 2821.46 1754 2811.12 1752.38 2800.86 1750.93 2793.57 1750.11 2786.26 1749.46 2778.83 1748.92 2771.38 1748.53 2758.28 1748.04 2745.13 1747.73 2731.97 1747.62 2720.44 1747.59 2710.97 1747.7 2698.3 1747.96 2685.6 1748.41 2673.04 1749.01 2665.93 1749.49 2658.9 1750.09 2651.89 1750.88 2645.03 1751.79 2640.1 1752.61 2629.05 1754.62 2618.08 1756.77 2607.19 1759.1 2601.81 1760.38 2596.31 1761.68 2585.54 1764.43 2574.85 1767.32 2558.27 1772.25 2550.22 1774.6 2542.48 1777.01 2534.71 1779.48 2526.94 1782.09 2513.62 1786.74 2500.35 1791.58 2487.09 1796.4 2473.91 1801.39 2435.58 1816.59 2380.05 1838.24 2347.68 1850.86 2347.68 1850.86"/>
    <polygon class="cls-3" points="3166.74 2305.85 3194.12 2292.52 3206.2 2286.68 3218.16 2281.01 3230.18 2275.46 3242.31 2270.07 3254.41 2264.77 3266.63 2259.61 3278.9 2254.54 3291.18 2249.66 3301.41 2245.72 3311.73 2241.9 3322.02 2238.21 3332.42 2234.67 3342.8 2231.18 3353.26 2227.92 3363.74 2224.69 3374.06 2221.77 3384.1 2219.05 3394.3 2216.44 3404.53 2214.09 3414.85 2211.91 3425.17 2209.89 3435.52 2208.08 3445.86 2206.41 3456.15 2204.99 3463.41 2204.2 3470.78 2203.54 3478.15 2203.01 3485.66 2202.61 3498.73 2202.13 3511.88 2201.82 3525.04 2201.73 3536.57 2201.7 3539.69 2201.73 3548.96 2201.84 3561.41 2202.16 3573.85 2202.64 3586.12 2203.23 3593.09 2203.71 3599.98 2204.37 3606.87 2205.13 3613.45 2206.04 3623.91 2207.85 3634.68 2209.89 3645.28 2212.13 3655.91 2214.54 3666.6 2217.18 3677.17 2220.01 3687.69 2222.99 3698.49 2226.28 3706.57 2228.66 3714.39 2231.07 3722.1 2233.53 3729.9 2236.17 3743.19 2240.85 3756.51 2245.61 3769.69 2250.51 3782.96 2255.5 3829.73 2273.9 3876.7 2292.3 3909.13 2305.03 3907.88 2258.31 3907.54 2245.21 3907.06 2232.17 3906.47 2219.16 3905.81 2206.07 3905.02 2192.97 3904.08 2179.96 3903.12 2166.95 3902.01 2153.99 3901.11 2144.36 3900.06 2134.78 3898.93 2125.2 3897.74 2115.67 3896.37 2106.15 3894.93 2096.65 3893.4 2087.13 3891.75 2077.74 3890.03 2070.46 3888.21 2063.31 3886.28 2056.23 3884.3 2049.31 3881.55 2041.01 3878.71 2032.93 3875.74 2024.82 3872.79 2017.22 3860.91 1986.95 3824.66 1972.38 3786.64 1957.13 3776.27 1953.1 3765.92 1949.19 3755.8 1945.45 3745.23 1941.68 3738.66 1939.36 3732.16 1937.2 3725.79 1935.19 3719.38 1933.29 3702.94 1928.19 3691.15 1924.87 3679.41 1921.81 3673.23 1920.28 3667.7 1918.92 3655.91 1916.22 3644.06 1913.79 3631.79 1911.43 3626.15 1910.44 3625.61 1910.36 3625.04 1910.3 3617.53 1909.22 3609.14 1908.2 3600.81 1907.32 3599.98 1907.3 3592.41 1906.7 3578.61 1905.88 3565.32 1905.28 3552.05 1904.91 3539.27 1904.66 3537.45 1904.66 3537.48 1904.66 3523.28 1904.46 3509.36 1904.49 3495.44 1904.63 3482.03 1904.91 3473.39 1905.28 3464.66 1905.82 3455.98 1906.5 3447.22 1907.41 3446.8 1907.46 3446.32 1907.52 3435.38 1908.88 3423.81 1910.56 3412.3 1912.43 3400.82 1914.55 3389.37 1916.82 3377.92 1919.37 3366.66 1922.06 3355.27 1924.98 3354.84 1925.1 3354.47 1925.18 3343.11 1928.44 3331.77 1931.87 3320.43 1935.39 3309.43 1939.02 3298.01 1942.87 3286.87 1946.78 3275.76 1950.86 3264.99 1955.03 3252.37 1959.99 3240.21 1964.84 3227.48 1970.17 3215.35 1975.38 3204.41 1980.15 3193.58 1984.99 3182.84 1990.01 3173.97 1994.29 3165.12 2025.22 3162.51 2034.88 3160.1 2044.66 3157.92 2054.44 3156.02 2064.08 3154.21 2076.41 3152.73 2088.46 3151.57 2100.22 3150.49 2112.41 3150.44 2112.89 3150.24 2121.11 3150.07 2129.42 3150.01 2137.61 3150.1 2145.89 3150.27 2154.16 3150.58 2162.39 3150.95 2170.63 3151.46 2178.77 3152.22 2189.37 3153.07 2199.94 3154.07 2210.46 3155.17 2220.95 3156.33 2231.44 3157.69 2241.95 3159.03 2252.47 3160.53 2262.73 3166.74 2305.85 3166.74 2305.85"/>
    <polygon class="cls-4" points="3106.88 2300.9 3105.61 2254.27 3105.27 2241.17 3104.81 2228.1 3104.22 2215.07 3103.54 2202 3102.8 2188.96 3101.87 2175.89 3100.87 2162.85 3099.8 2149.87 3098.86 2140.17 3097.81 2130.65 3096.71 2121.13 3095.46 2111.52 3094.13 2101.99 3092.68 2092.49 3091.15 2082.94 3089.48 2073.64 3088.4 2068.71 3086.13 2059.39 3083.53 2050.12 3080.72 2040.9 3079.27 2036.54 3077.43 2031.18 3073.72 2021.06 3069.75 2010.94 3065.58 2001.11 3063.43 1996.29 3063.26 1995.95 3063.12 1995.58 3060.51 1990.45 3057.84 1985.4 3055.01 1980.33 3052.2 1975.45 3049.14 1970.27 3046.05 1965.31 3042.88 1960.37 3039.76 1955.72 3036.78 1951.36 3033.21 1946.37 3029.75 1941.83 3026.49 1937.81 3023.18 1933.92 3019.69 1930.24 3016.09 1926.58 3012.35 1923.04 3009.71 1919.72 3007.02 1916.49 3004.3 1913.32 3001.49 1910.17 2998.68 1907.05 2995.76 1904.02 2992.82 1901.07 2989.78 1898.18 2986.72 1895.32 2983.63 1892.48 2980.66 1889.96 2977.23 1887.1 2973.94 1884.43 2970.59 1881.88 2967.28 1879.41 2963.96 1877.09 2959.85 1874.28 2956.11 1871.76 2951.89 1869.07 2947.78 1866.57 2943.69 1864.14 2939.55 1861.73 2935.39 1859.43 2931.05 1857.11 2922.55 1852.88 2918.3 1850.84 2913.9 1848.86 2909.51 1846.96 2905.09 1845.12 2900.63 1843.41 2896.24 1841.74 2886.46 1838.31 2876.82 1835.22 2867.05 1832.39 2857.46 1829.87 2847.17 1827.43 2837.08 1825.36 2826.91 1823.52 2817.04 1822.04 2808.76 1820.85 2800.57 1819.83 2792.27 1819.07 2784.19 1818.5 2771.8 1817.88 2759.53 1817.48 2747.28 1817.25 2735.18 1817.22 2726.98 1816.8 2718.85 1816.57 2710.74 1816.46 2702.69 1816.43 2694.56 1816.63 2686.48 1816.91 2678.37 1817.34 2670.29 1817.88 2662.18 1818.58 2654.16 1819.4 2646.17 1820.37 2638.09 1821.45 2630.1 1822.72 2622.1 1824.08 2614.11 1825.61 2606.31 1827.2 2599.4 1828.79 2592.65 1830.46 2585.88 1832.22 2579.16 1834.14 2572.52 1836.21 2565.92 1838.43 2559.4 1840.75 2552.82 1843.19 2546.39 1845.77 2539.95 1848.52 2533.61 1851.35 2527.28 1854.3 2521.08 1857.39 2514.93 1860.62 2508.69 1863.97 2502.91 1867.31 2499.47 1868.79 2493.15 1871.73 2486.92 1874.85 2480.74 1878.08 2474.64 1881.43 2468.66 1884.94 2462.68 1888.6 2456.84 1892.34 2454.12 1894.24 2451.37 1896.11 2446.33 1899.71 2441.45 1903.45 2436.63 1907.31 2431.87 1911.28 2427.25 1915.39 2422.8 1919.58 2418.41 1923.92 2416.28 1926.1 2412.34 1930.38 2408.68 1934.61 2405.08 1938.86 2401.76 1943.08 2398.36 1947.67 2395.16 1952.21 2392.04 1956.89 2389.38 1961.25 2385.89 1966.75 2382.6 1972.34 2379.51 1977.92 2376.65 1983.53 2374.44 1988.35 2372.14 1993.51 2370.05 1998.78 2368.06 2004.11 2365.99 2010.21 2364.06 2016.16 2362.22 2022.22 2360.52 2028.23 2358.91 2034.36 2357.43 2040.48 2356.07 2046.66 2354.85 2052.64 2353.61 2059.7 2352.47 2066.47 2351.36 2073.47 2350.54 2080.48 2349.72 2087.39 2349.1 2094.39 2348.56 2101.34 2348.11 2108.31 2347.91 2116.79 2347.76 2125.07 2347.68 2133.31 2347.76 2141.65 2347.93 2149.87 2348.25 2158.2 2348.64 2166.39 2349.13 2174.59 2349.89 2185.19 2350.8 2195.73 2351.82 2206.28 2352.87 2216.8 2354.06 2227.37 2355.36 2237.89 2356.75 2248.37 2358.28 2258.69 2364.49 2301.81 2391.84 2288.48 2403.95 2282.59 2415.91 2276.97 2427.93 2271.42 2440.03 2266.03 2452.11 2260.73 2464.33 2255.57 2476.6 2250.5 2488.87 2245.62 2499.11 2241.68 2509.43 2237.86 2519.72 2234.14 2529.98 2230.63 2540.41 2227.23 2550.93 2223.91 2561.38 2220.73 2571.68 2217.76 2581.68 2215.04 2591.91 2212.46 2602.12 2210.1 2612.41 2207.86 2622.7 2205.85 2633.1 2204.04 2643.45 2202.42 2653.71 2200.98 2660.99 2200.16 2668.31 2199.5 2675.73 2198.97 2683.19 2198.57 2696.28 2198.09 2709.44 2197.77 2722.59 2197.66 2734.13 2197.63 2743.59 2197.75 2756.27 2198 2768.97 2198.45 2781.52 2199.05 2788.64 2199.53 2795.67 2200.13 2802.67 2200.92 2809.53 2201.83 2814.46 2202.65 2825.52 2204.66 2836.49 2206.82 2847.37 2209.14 2852.76 2210.42 2858.26 2211.72 2869.03 2214.47 2879.72 2217.36 2896.3 2222.29 2904.35 2224.65 2912.09 2227.06 2919.85 2229.52 2927.62 2232.13 2940.94 2236.78 2954.21 2241.63 2967.47 2246.45 2980.66 2251.43 3018.98 2266.63 3074.51 2288.28 3106.88 2300.9 3106.88 2300.9"/>
    <polygon id="front_body" class="cls-3" points="28.26 2327.32 28.12 2269.33 27.84 2156.88 27.33 2044.51 26.68 1932.09 25.74 1819.75 25.03 1752.32 24.12 1684.94 23.02 1617.53 21.69 1550.12 20.32 1490.28 18.82 1430.53 17.15 1370.72 15.25 1310.93 11.88 1211.21 8.31 1111.52 4.57 1011.82 0.62 911.9 0.23 838.82 0 800.1 22.79 802.99 26.96 803.5 30.7 803.82 34.41 803.99 38.04 803.99 40.25 803.93 42.38 803.76 44.48 803.48 46.29 803.14 48.19 802.65 50.32 801.95 52.36 801.18 54.28 800.33 54.77 800.08 55.19 799.85 56.04 799.31 56.81 798.77 57.15 798.49 57.49 798.23 59.02 796.73 60.77 794.89 62.39 792.93 63.95 790.95 65.4 788.85 66.73 786.7 67.92 784.46 69.11 782.13 70.87 778.19 72.54 774.05 74.04 769.91 75.43 765.66 76.65 761.38 77.67 757.07 78.61 752.76 79.31 748.68 79.8 743.95 80.19 738.82 80.39 733.77 80.45 728.53 80.28 716.91 79.88 705.2 79.28 693.44 78.55 681.76 77.61 670.25 76.42 658.71 71.26 612.14 65.91 565.48 64.69 554.68 69.65 545.01 71.75 540.96 73.59 537.1 75.4 533.22 77.13 529.28 78.75 525.37 80.33 521.4 81.84 517.35 83.34 513.07 83.88 511.59 114.78 507.17 124.16 505.84 133.34 504.31 142.47 502.58 151.65 500.54 163.33 497.82 174.93 494.87 186.49 491.67 197.94 488.35 201.12 487.27 204.26 486.25 207.38 485.09 210.5 483.93 213.53 482.65 216.57 481.35 219.63 479.99 222.63 478.54 225.27 477.24 227.85 475.82 230.4 474.37 232.9 472.9 235.39 471.34 237.83 469.78 240.21 468.14 242.65 466.35 246.81 463.35 250.95 460.26 254.92 457.2 258.89 453.99 262.86 450.76 266.77 447.39 270.6 444.07 274.39 440.58 295.91 420.52 317.37 400.36 324.14 393.9 330.77 387.38 339.02 379.16 347.24 370.85 355.38 362.49 363.4 353.96 376.3 340.18 389.06 326.43 401.73 312.52 414.37 298.51 435.57 275.13 444.9 305.26 447.51 313.76 450.23 322.13 453 330.43 455.98 338.71 458.99 346.99 462.13 355.12 465.39 363.28 468.74 371.33 472.25 379.47 475.88 387.49 479.59 395.46 483.45 403.42 487.36 411.33 491.41 419.13 495.58 426.92 499.83 434.6 507.23 447.42 514.91 460.14 522.79 472.67 530.99 485.14 544.22 504.7 557.72 524.09 571.38 543.37 574.73 547.93 578.1 543.34 591.79 524.09 605.25 504.73 618.49 485.17 626.68 472.67 634.57 460.12 642.3 447.39 649.7 434.66 653.92 426.89 658.12 419.18 662.12 411.33 666 403.42 669.88 395.46 673.6 387.46 677.23 379.47 680.71 371.42 684.11 363.26 687.32 355.09 690.55 346.93 693.55 338.65 696.5 330.37 699.25 322.13 701.94 313.76 704.58 305.26 713.93 275.13 735.11 298.51 747.72 312.49 760.45 326.4 773.18 340.24 786.08 354.01 794.13 362.46 802.23 370.85 810.43 379.16 818.76 387.41 825.36 393.9 832.08 400.31 853.54 420.49 875.06 440.61 878.83 444.04 882.74 447.44 886.62 450.76 890.59 454.02 894.59 457.2 898.55 460.26 902.64 463.32 906.77 466.32 909.27 468.11 911.68 469.78 914.09 471.37 916.64 472.96 919.08 474.4 921.69 475.85 924.24 477.24 926.87 478.54 929.82 479.96 932.88 481.32 935.91 482.68 939 483.93 942.1 485.09 945.24 486.25 948.39 487.33 951.53 488.32 962.99 491.67 974.55 494.87 986.15 497.82 997.8 500.54 1006.92 502.52 1016.14 504.31 1025.32 505.84 1034.7 507.17 1065.63 511.59 1066.14 513.07 1067.64 517.38 1069.14 521.4 1070.73 525.34 1072.38 529.34 1074.11 533.25 1075.89 537.1 1077.73 540.96 1079.83 545.01 1084.76 554.62 1083.57 565.34 1080.09 592.04 1076.77 618.63 1073.65 645.25 1070.73 671.86 1069.82 681.22 1069.12 690.63 1068.55 700.13 1068.12 709.85 1067.92 713.96 1067.73 717.64 1067.64 721.1 1067.59 724.53 1067.61 727.96 1067.73 731.45 1067.87 734.88 1068.12 738.25 1068.35 741.09 1068.69 743.86 1069 746.64 1069.43 749.39 1069.99 752.17 1070.48 754.92 1071.13 757.61 1071.69 760.02 1072.77 763.65 1073.96 767.48 1075.3 771.36 1076.65 775.13 1077.68 777.65 1078.75 780.09 1079.86 782.47 1080.77 784.34 1082.01 786.5 1083.57 788.88 1085.22 791.2 1086.92 793.41 1088.02 794.66 1089.07 795.79 1090.2 796.9 1091.28 797.78 1091.77 798.12 1092.19 798.46 1093.18 799.14 1094.17 799.68 1094.77 799.96 1095.34 800.22 1097.46 801.12 1099.73 801.89 1102.08 802.6 1104.29 803.11 1105.65 803.36 1107.21 803.56 1108.77 803.65 1110.44 803.7 1114.47 803.73 1118.66 803.59 1122.83 803.31 1127.4 802.94 1149.45 800.53 1149.22 838.82 1148.8 911.87 1144.91 1011.79 1141.12 1111.46 1137.57 1211.18 1134.23 1310.85 1132.27 1370.6 1130.6 1430.5 1129.07 1490.28 1127.74 1550.07 1126.4 1617.5 1125.3 1684.88 1124.36 1752.23 1123.68 1819.64 1122.8 1932.09 1122.12 2044.51 1121.64 2156.91 1121.33 2269.33 1121.19 2325.2 1082.98 2298.95 1016.42 2253.2 949.83 2207.42 935.21 2197.24 920.89 2187.07 890.65 2165.41 860.88 2143.92 850.45 2136.75 839.79 2129.64 829.02 2122.64 818.19 2115.75 809.58 2110.5 800.87 2105.37 792.17 2100.33 783.5 2095.57 777.8 2093.07 771.88 2090.57 765.92 2088.17 759.94 2085.79 753.88 2083.46 747.89 2081.25 741.83 2079.07 735.7 2076.97 729.61 2074.96 723.49 2073.03 717.36 2071.1 711.16 2069.29 704.98 2067.53 698.77 2065.83 692.56 2064.24 686.58 2062.77 671.3 2059.45 655.8 2056.33 640.29 2053.5 624.67 2050.92 611.89 2048.99 599.1 2047.35 586.21 2045.93 579.06 2045.14 574.3 2044.85 569 2044.99 561.09 2045.7 546.86 2046.92 532.69 2048.37 518.43 2050.13 501.17 2052.56 483.93 2055.28 466.7 2058.26 449.89 2061.44 443.25 2062.94 436.19 2064.61 429.31 2066.34 415.22 2070.02 408.33 2071.95 401.44 2073.96 394.56 2076.01 387.61 2078.19 380.72 2080.46 373.78 2082.75 366.92 2085.16 360.08 2087.6 353.28 2090.09 346.48 2092.67 340.81 2094.88 336.36 2097.44 329.61 2102.37 317.59 2110.45 305.57 2118.7 293.58 2127 287.66 2131.08 281.99 2135.19 276.26 2139.36 270.79 2143.41 250.81 2159.26 230.46 2175.16 209.99 2191.01 189.55 2206.63 159.17 2229.67 128.66 2252.69 98.16 2275.48 67.55 2298.18 28.26 2327.32 28.26 2327.32"/>
    <polygon id="back_body" class="cls-3" points="1201.96 2300.52 1201.9 2269.22 1201.59 2156.83 1201.05 2044.44 1200.37 1932.04 1199.41 1819.68 1198.67 1752.3 1197.82 1684.86 1196.66 1617.45 1195.33 1550.05 1193.94 1490.26 1192.41 1430.51 1190.71 1370.7 1188.81 1310.88 1185.43 1211.16 1181.83 1111.5 1178.06 1011.77 1174.12 911.88 1173.67 838.83 1173.41 799 1197.85 803.26 1200.57 803.65 1202.7 803.88 1204.85 804.02 1207.03 804.08 1210.32 804.05 1213.69 803.88 1217.01 803.68 1218.71 803.46 1219.48 803.2 1220.47 802.86 1221.01 802.63 1221.49 802.43 1223.11 801.61 1224.81 800.65 1226.48 799.63 1227.81 798.75 1229.68 797.25 1231.61 795.55 1233.51 793.76 1235.27 791.89 1237.02 789.74 1238.72 787.52 1240.28 785.29 1242.01 782.39 1243.68 779.62 1245.1 777.04 1246.38 774.46 1247.57 771.76 1248.65 769.07 1249.64 766.35 1250.55 763.57 1251.34 760.71 1252.39 756.4 1253.35 751.98 1254.14 747.56 1254.8 743.13 1255.36 738.63 1255.76 734.21 1256.07 729.58 1256.36 724.57 1256.72 715.5 1256.78 711.44 1256.75 707.28 1256.61 701.44 1256.33 695.48 1255.93 689.64 1255.53 684.14 1254.85 678.7 1254.03 673 1253.13 667.39 1252.08 661.75 1251.48 658.92 1250.83 656.17 1250.09 653.53 1249.07 650.41 1247.57 645.88 1246.12 641.6 1244.59 637.23 1242.95 632.92 1240.62 626.97 1238.16 620.96 1235.69 615.07 1233.06 609.03 1227.98 596.24 1257.89 579.89 1259.87 578.84 1261.57 577.9 1263.24 576.83 1264.92 575.75 1266.53 574.62 1268.12 573.42 1269.68 572.12 1271.18 570.84 1273.25 568.89 1275.26 566.99 1277.25 564.98 1279.15 562.91 1281.05 560.78 1282.86 558.63 1284.59 556.45 1286.09 554.43 1288.64 550.61 1291.11 546.5 1293.4 542.27 1295.53 537.99 1297.49 533.63 1299.24 529.2 1300.83 524.73 1302.31 520.02 1303.58 515.6 1304.66 511.32 1305.62 506.98 1306.39 502.62 1307.13 497.26 1307.72 491.81 1308.14 486.43 1308.4 480.96 1308.48 477.87 1308.43 471.38 1308.09 464.91 1307.61 458.45 1307.24 455.22 1306.93 452.44 1306.02 446.97 1304.94 441.53 1303.61 436.06 1302.87 433.36 1301.99 430.13 1300.04 423.73 1297.88 417.4 1295.59 411.17 1294.34 408.08 1293.12 404.9 1290.48 398.78 1287.65 392.69 1284.65 386.71 1283.09 383.73 1279.29 376.73 1275.43 369.75 1271.52 362.87 1267.38 356.01 1262.14 347.39 1256.75 338.8 1251.31 330.27 1245.78 321.79 1237.45 309.09 1248.59 298.75 1290.46 259.77 1332.32 220.79 1554.67 13.5 1564.85 4 1576.62 11.46 1580.47 13.89 1584.24 16.13 1588.01 18.32 1591.87 20.33 1595.75 22.31 1599.75 24.16 1603.71 25.94 1607.77 27.61 1611.34 28.97 1615 30.25 1618.65 31.41 1622.31 32.49 1626.05 33.45 1629.76 34.33 1633.59 35.1 1637.53 35.78 1646.23 37.28 1650.23 37.82 1654.37 38.24 1660.89 38.75 1667.44 39.21 1673.98 39.52 1680.65 39.72 1689.23 39.94 1706.3 40.17 1714.86 40.14 1723.42 40.17 1740.57 39.97 1749.24 39.75 1766.22 40.06 1783.12 40.17 1800.04 40.03 1816.96 39.66 1823.54 39.46 1830.12 39.15 1836.64 38.7 1843.13 38.19 1847.3 37.73 1851.38 37.19 1855.4 36.54 1859.68 35.75 1867.7 34.25 1871.36 33.42 1875.02 32.43 1878.76 31.36 1882.36 30.19 1885.99 28.92 1889.56 27.56 1893.58 25.91 1897.55 24.13 1901.49 22.28 1905.38 20.33 1909.23 18.26 1913 16.1 1916.71 13.89 1920.57 11.46 1932.31 4 1942.51 13.5 2164.86 220.77 2206.7 259.77 2248.6 298.75 2259.71 309.09 2251.4 321.79 2245.82 330.3 2240.38 338.8 2235.07 347.39 2229.77 356.01 2225.69 362.87 2221.75 369.78 2217.9 376.76 2214.07 383.81 2212.48 386.73 2209.51 392.74 2206.7 398.84 2204.07 404.96 2202.84 408.11 2201.57 411.17 2199.27 417.43 2197.15 423.75 2195.19 430.16 2194.28 433.39 2193.55 436.14 2192.22 441.53 2191.11 447 2190.23 452.56 2189.89 455.19 2189.27 461.68 2188.9 468.23 2188.76 471.32 2188.7 477.93 2188.76 480.99 2189.04 486.43 2189.44 491.84 2190.03 497.26 2190.83 502.62 2191.59 506.98 2192.5 511.35 2193.6 515.63 2194.91 520.05 2196.35 524.73 2197.91 529.23 2199.67 533.63 2201.65 538.02 2203.78 542.27 2206.1 546.5 2208.57 550.63 2211.04 554.46 2212.57 556.47 2214.32 558.63 2216.17 560.75 2218.01 562.91 2219.94 564.98 2221.89 566.96 2223.93 568.92 2225.97 570.84 2227.48 572.18 2229.04 573.37 2230.6 574.59 2232.24 575.75 2233.91 576.85 2235.58 577.9 2237.32 578.84 2239.27 579.89 2269.2 596.21 2264.07 609.05 2261.41 615.12 2258.94 621.02 2256.53 626.97 2254.18 632.92 2252.57 637.23 2251.01 641.6 2249.53 645.88 2248.06 650.41 2247.04 653.53 2246.33 656.2 2245.68 658.92 2245.02 661.78 2244.06 667.34 2243.13 673.03 2242.28 678.7 2241.62 684.12 2241.2 689.64 2240.8 695.54 2240.55 701.38 2240.4 707.25 2240.32 711.44 2240.4 715.58 2240.57 719.66 2240.83 724.14 2241.03 729.67 2241.37 734.15 2241.76 738.63 2242.36 743.11 2243.04 747.5 2243.83 751.98 2244.8 756.34 2245.79 760.68 2246.61 763.51 2247.49 766.29 2248.51 769.04 2249.59 771.76 2250.78 774.43 2252.08 777.04 2253.5 779.62 2255.26 782.56 2256.02 783.92 2257.67 786.39 2259.28 788.63 2261.01 790.81 2261.86 791.8 2262.8 792.8 2264.58 794.64 2266.48 796.34 2268.41 797.99 2269.2 798.58 2270 799.17 2271.47 800.11 2273.17 801.1 2274.87 801.98 2275.53 802.32 2276.18 802.63 2277.14 803.03 2278.25 803.4 2280.12 803.63 2283.49 803.88 2286.84 804.02 2290.1 804.05 2292.36 804 2294.43 803.85 2296.56 803.63 2299.28 803.23 2323.72 799 2323.46 838.83 2323.01 911.91 2319.07 1011.8 2315.27 1111.5 2311.72 1211.19 2308.32 1310.88 2306.42 1370.67 2304.72 1430.45 2303.16 1490.23 2301.86 1550.05 2300.53 1617.45 2299.36 1684.8 2298.4 1752.24 2297.75 1819.68 2296.81 1932.07 2296.08 2044.44 2295.54 2156.83 2295.25 2269.22 2295.17 2300.52 2293.04 2301.57 2287.12 2304.46 2286.81 2304.63 2286.41 2304.77 2280.43 2307.55 2280.09 2307.66 2279.72 2307.8 2273.65 2310.41 2273.32 2310.52 2272.95 2310.66 2266.8 2313.07 2266.51 2313.22 2266.11 2313.33 2259.91 2315.57 2259.54 2315.66 2259.17 2315.8 2252.93 2317.84 2252.53 2317.95 2252.17 2318.09 2249.05 2319.2 2245.9 2319.96 2245.51 2320.05 2245.14 2320.16 2238.79 2321.86 2220.45 2326.4 2202.02 2330.79 2184.11 2334.87 2165.82 2338.81 2147.28 2342.64 2129 2346.24 2110.63 2349.64 2092.46 2352.82 2092.1 2352.87 2091.73 2352.96 2087.33 2353.78 2079.31 2354.74 2067.32 2356.39 2066.95 2356.42 2054.57 2357.92 2042.35 2359.31 2022.76 2361.29 2003.29 2363.14 1983.84 2364.78 1964.39 2366.34 1942.74 2367.87 1921.19 2369.32 1899.59 2370.65 1878.16 2371.92 1861.69 2372.89 1845.23 2373.71 1828.87 2374.53 1812.54 2375.21 1774.67 2376.85 1774.98 2338.98 1775.49 2209.92 1777.11 2080.86 1777.19 2071.05 1777.11 2066.8 1776.91 2062.61 1776.85 2061.67 1776.8 2060.76 1776.6 2059.06 1776.37 2057.56 1775.95 2055.43 1775.24 2051.83 1774.56 2049 1773.65 2046.08 1773.17 2044.21 1772.66 2043.19 1770.39 2041.57 1767.81 2039.9 1765.26 2038.4 1762.23 2036.75 1761.32 2036.3 1760.41 2035.82 1758.88 2035.11 1757.35 2034.43 1756.5 2034.12 1755.65 2033.81 1751.71 2032.42 1749.78 2031.51 1748.59 2031.39 1747.77 2031.68 1745.5 2032.42 1741.56 2033.81 1740.68 2034.12 1739.83 2034.46 1738.3 2035.11 1736.91 2035.79 1735.02 2036.75 1731.81 2038.43 1729.32 2039.93 1726.8 2041.54 1725.26 2042.54 1724.41 2043.36 1723.45 2046.05 1722.63 2048.97 1721.89 2051.95 1721.21 2055.35 1721.01 2056.37 1720.84 2057.39 1720.56 2059.06 1720.39 2060.76 1720.33 2061.67 1720.25 2062.61 1720.08 2066.83 1719.99 2071.17 1720.02 2075.53 1720.13 2080.58 1720.98 2123.44 1721.52 2171.23 1722.2 2338.96 1722.51 2376.85 1684.64 2375.21 1668.2 2374.5 1651.79 2373.71 1635.4 2372.91 1619.05 2371.92 1597.45 2370.67 1575.88 2369.29 1554.31 2367.84 1532.76 2366.34 1513.15 2364.78 1493.67 2363.08 1474.23 2361.24 1454.84 2359.31 1442.31 2357.92 1430.18 2356.39 1417.82 2354.77 1417.48 2354.72 1409.2 2353.75 1405.43 2352.93 1405.09 2352.84 1404.66 2352.84 1401.29 2352.82 1397.58 2352.36 1386.3 2349.58 1379.69 2348.2 1368.15 2346.24 1349.62 2342.58 1331.59 2338.9 1313.05 2334.87 1294.85 2330.74 1276.71 2326.4 1258.85 2322 1254.71 2321.1 1251.99 2320.16 1251.62 2320.02 1251.28 2319.96 1248.53 2319.37 1244.93 2318.09 1244.54 2317.95 1244.2 2317.87 1237.96 2315.8 1237.56 2315.66 1237.19 2315.57 1230.99 2313.33 1230.65 2313.22 1230.31 2313.07 1224.18 2310.69 1223.84 2310.52 1223.45 2310.38 1217.41 2307.8 1217.07 2307.69 1216.73 2307.52 1210.69 2304.77 1210.38 2304.63 1210.01 2304.46 1204.09 2301.57 1201.96 2300.52 1201.96 2300.52"/>
    <polygon class="cls-4" points="2978.89 550.49 2967.09 555 2960.24 557.67 2953.47 560.19 2946.65 562.63 2939.81 565 2932.97 567.31 2926.05 569.5 2919.16 571.64 2912.18 573.66 2908.87 574.63 2905.72 575.41 2902.5 576.14 2899.24 576.83 2895.97 577.42 2892.61 577.95 2889.36 578.37 2885.64 578.8 2873.57 580.41 2861.9 581.81 2850.13 583.09 2838.37 584.15 2822.53 585.42 2806.61 586.55 2790.74 587.51 2781 588.16 2774.76 588.31 2765.43 587.76 2749.74 585.79 2737.36 584.43 2724.92 582.87 2704.21 580.2 2683.36 577.4 2662.6 574.44 2650.22 572.92 2642.61 571.52 2634.26 569.21 2625.25 566.6 2616.31 563.89 2607.38 561.01 2598.54 558.01 2589.66 554.91 2580.88 551.66 2572.11 548.32 2564.95 545.48 2557.77 542.48 2550.63 539.37 2543.58 536.12 2536.59 532.79 2529.64 529.34 2522.75 525.81 2515.74 522.02 2497.37 512.15 2490.31 531.85 2349.31 925.47 2343.8 940.81 2358.54 947.79 2374.38 955.24 2390.37 962.61 2406.44 969.93 2422.58 977.15 2428.64 979.74 2434.92 982.29 2441.31 984.79 2447.68 987.17 2453.98 989.18 2465.5 992.74 2477.18 996.13 2488.9 999.4 2494.87 1000.97 2498.86 1001.96 2507.13 1003.94 2515.38 1005.7 2523.73 1007.29 2528.15 1008.08 2532.09 1008.69 2540.42 1009.91 2548.78 1010.9 2557.19 1011.75 2561.55 1012.1 2563.73 1012.26 2568.79 1012.43 2573.78 1012.41 2578.79 1012.15 2581.68 1011.9 2586.36 1011.46 2595.93 1010.38 2605.51 1009.16 2615.03 1007.76 2619.94 1006.95 2622.96 1006.45 2629.33 1005.26 2635.62 1003.9 2641.86 1002.4 2644.78 1001.74 2649.13 1000.39 2655.89 997.72 2667.09 993.56 2678.31 989.22 2689.63 984.64 2698.3 980.95 2707.02 977.03 2715.72 972.92 2724.2 968.67 2736.47 962.79 2748.9 957.14 2790.62 938.76 2815.99 927.53 2832.24 920.73 2840.18 917.64 2848.29 914.68 2856.55 911.95 2864.72 909.37 2870.7 907.77 2876.65 906.25 2882.64 905.02 2888.98 903.86 2895.24 902.72 2901.38 901.78 2907.63 900.83 2913.78 900.11 2919.94 899.42 2926.15 898.84 2932.39 898.36 2938.59 897.96 2945.74 897.63 2952.79 897.39 2959.94 897.3 2967.05 897.26 2974.15 897.37 2981.3 897.55 2988.35 897.82 2995.54 898.26 3006.04 898.91 3016.57 899.66 3027.02 900.53 3037.53 901.48 3046.61 902.49 3055.64 903.51 3073.91 905.95 3083.82 907.29 3093.41 908.81 3102.9 910.57 3112.41 912.61 3121.95 914.93 3131.41 917.52 3140.7 920.41 3150.25 923.61 3174.95 931.92 3173.98 905.84 3173.73 898.73 3173.49 891.58 3173.09 884.32 3172.69 877.11 3172.16 869.92 3171.59 862.69 3170.94 855.52 3170.2 848.25 3169.84 844.62 3169.34 840.91 3168.76 837.2 3168.13 833.45 3167.43 829.75 3166.63 826.05 3165.73 822.38 3164.92 819.04 3164.14 815.14 3163.14 810.58 3162.11 806.2 3160.97 801.77 3159.75 797.32 3158.42 792.94 3157.07 788.59 3155.52 784.14 3154.2 780.47 3152.72 776.67 3151.16 772.9 3149.59 769.17 3147.86 765.46 3146.05 761.82 3144.2 758.19 3142.19 754.51 3138.69 748.38 3135.01 742.25 3131.22 736.14 3127.23 730.01 3121.85 722.09 3116.34 714.17 3110.66 706.32 3104.9 698.59 3104.44 698.03 3083.41 672.81 3062.11 647.61 3024.76 603.82 2987.19 560.1 2978.89 550.49 2978.89 550.49"/>
    <polygon class="cls-4" points="2539.85 38.33 2551.65 42.85 2558.5 45.52 2565.27 48.04 2572.09 50.47 2578.93 52.85 2585.77 55.16 2592.69 57.35 2599.59 59.49 2606.56 61.51 2609.87 62.48 2613.02 63.26 2616.24 63.99 2619.51 64.68 2622.77 65.27 2626.13 65.8 2629.38 66.21 2633.1 66.64 2645.18 68.26 2656.84 69.66 2668.62 70.93 2680.37 72 2696.22 73.27 2712.13 74.4 2728.01 75.36 2737.74 76.01 2743.98 76.16 2753.31 75.6 2769 73.64 2781.39 72.28 2793.82 70.72 2814.53 68.05 2835.38 65.24 2856.14 62.29 2868.53 60.77 2876.13 59.37 2884.49 57.05 2893.49 54.45 2902.43 51.74 2911.37 48.86 2920.2 45.86 2929.09 42.75 2937.86 39.51 2946.63 36.17 2953.8 33.32 2960.97 30.32 2968.11 27.22 2975.16 23.96 2982.15 20.64 2989.1 17.18 2995.99 13.65 3003 9.87 3021.37 0 3028.44 19.69 3169.43 413.31 3174.95 428.65 3160.2 435.64 3144.36 443.08 3128.37 450.46 3112.3 457.77 3096.16 464.99 3090.11 467.58 3083.83 470.14 3077.44 472.64 3071.06 475.02 3064.77 477.03 3053.24 480.59 3041.57 483.98 3029.84 487.25 3023.87 488.81 3019.89 489.81 3011.62 491.79 3003.36 493.55 2995.01 495.13 2990.59 495.92 2986.66 496.54 2978.32 497.76 2969.96 498.74 2961.56 499.6 2957.19 499.94 2955.01 500.1 2949.95 500.28 2944.97 500.25 2939.96 499.99 2937.06 499.75 2932.38 499.31 2922.82 498.23 2913.24 497 2903.71 495.61 2898.8 494.8 2895.78 494.29 2889.41 493.11 2883.13 491.75 2876.88 490.25 2873.96 489.59 2869.61 488.24 2862.85 485.57 2851.66 481.4 2840.43 477.07 2829.12 472.49 2820.44 468.8 2811.72 464.88 2803.02 460.77 2794.54 456.52 2782.27 450.63 2769.84 444.98 2728.12 426.6 2702.75 415.37 2686.5 408.58 2678.56 405.49 2670.46 402.52 2662.2 399.79 2654.02 397.21 2648.04 395.62 2642.09 394.1 2636.1 392.87 2629.76 391.7 2623.5 390.57 2617.37 389.63 2611.11 388.68 2604.97 387.95 2598.81 387.26 2592.59 386.69 2586.36 386.21 2580.15 385.81 2573 385.48 2565.95 385.24 2558.8 385.15 2551.7 385.11 2544.59 385.21 2537.45 385.4 2530.4 385.67 2523.2 386.11 2512.7 386.76 2502.17 387.5 2491.72 388.38 2481.21 389.33 2472.14 390.33 2463.1 391.35 2444.84 393.8 2434.92 395.14 2425.34 396.66 2415.84 398.42 2406.33 400.46 2396.8 402.77 2387.33 405.37 2378.04 408.26 2368.49 411.46 2343.8 419.76 2344.76 393.69 2345.01 386.57 2345.25 379.43 2345.66 372.16 2346.05 364.96 2346.58 357.77 2347.15 350.54 2347.8 343.37 2348.54 336.1 2348.91 332.47 2349.4 328.76 2349.98 325.05 2350.61 321.29 2351.32 317.6 2352.12 313.9 2353.01 310.23 2353.82 306.89 2354.6 302.98 2355.6 298.43 2356.63 294.04 2357.77 289.62 2358.99 285.17 2360.32 280.79 2361.67 276.44 2363.22 271.99 2364.54 268.31 2366.02 264.51 2367.58 260.75 2369.15 257.02 2370.88 253.31 2372.69 249.67 2374.54 246.04 2376.55 242.35 2380.05 236.23 2383.74 230.09 2387.52 223.98 2391.51 217.86 2396.89 209.93 2402.4 202.02 2408.08 194.16 2413.84 186.43 2414.3 185.88 2435.33 160.65 2456.63 135.45 2493.99 91.66 2531.55 47.95 2539.85 38.33 2539.85 38.33"/>
    <path class="cls-5" d="M1134.61,123.13l2,1.81v5.95l-2.85,2.56,2.85,8.54h-3.18l-3.14-9.4,3.12-2.93v-3.77h-3.3V142H1127V123.1Z" transform="translate(-34.23 -16.12)"/>
    <path class="cls-5" d="M1146.61,123.1V126h-4.84v5H1146l-2.52,2.79h-1.69v5.4h4.92V142h-8.08V123.1h8Z" transform="translate(-34.23 -16.12)"/>
    <path class="cls-5" d="M1156.33,123.1l2,1.82v15.25l-2,1.82h-7.66V123.1h7.66Zm-4.47,16.12h3.31V125.87h-3.31v13.36Z" transform="translate(-34.23 -16.12)"/>
    <path class="cls-5" d="M1170.35,134.09a19.66,19.66,0,0,1,1.31-7,18.51,18.51,0,0,1,3.54-5.83h1.05a20.23,20.23,0,0,0-3,5.77,25.24,25.24,0,0,0-.75,6.89v0.29a25.09,25.09,0,0,0,.75,6.88,20.24,20.24,0,0,0,3,5.78h-1.05a18.54,18.54,0,0,1-3.54-5.82A19.61,19.61,0,0,1,1170.35,134.09Z" transform="translate(-34.23 -16.12)"/>
    <path class="cls-5" d="M1184.68,123.13l2,1.81v5.95l-2.85,2.56,2.85,8.54h-3.18l-3.14-9.4,3.12-2.93v-3.77h-3.3V142H1177V123.1Z" transform="translate(-34.23 -16.12)"/>
    <path class="cls-5" d="M1190.5,146.89h-1.05a20.24,20.24,0,0,0,3-5.78,25.09,25.09,0,0,0,.75-6.88v-0.29a25.24,25.24,0,0,0-.75-6.89,20.23,20.23,0,0,0-3-5.77h1.05a18.51,18.51,0,0,1,3.54,5.83,19.25,19.25,0,0,1,0,14A18.54,18.54,0,0,1,1190.5,146.89Z" transform="translate(-34.23 -16.12)"/>
    <polygon class="cls-2" points="968.77 144.75 968.47 79.42 1024.9 46.5 1081.62 78.91 1081.92 144.24 1025.49 177.16 968.77 144.75"/>
    <path class="cls-5" d="M1186.79,227.59l2,1.81v6.78l-0.95.84,0.95,0.86v6.76l-2,1.82h-7.66V227.56Zm-4.47,16.1h3.3V238h-3l3-3.27v-4.36h-3.3v13.34Z" transform="translate(-34.23 -16.12)"/>
    <path class="cls-5" d="M1194,243.56h4.5v2.9h-7.69V230.54l3.19-3v16Z" transform="translate(-34.23 -16.12)"/>
    <path class="cls-5" d="M1207.39,227.56l3.64,18.91h-3.19l-0.55-3.51h-3l2.56-2.79-1.09-6.74-2.08,13h-3.2l3.68-18.91h3.26Z" transform="translate(-34.23 -16.12)"/>
    <path class="cls-5" d="M1220.67,227.56l2,1.82v3.73h-3.2v-2.78h-3.3V243.7h3.3v-0.57l3.2-2v3.53l-2,1.82H1215l-2-1.82V229.38l2-1.82h5.64Z" transform="translate(-34.23 -16.12)"/>
    <path class="cls-5" d="M1227.87,227.56v18.91h-3.19V227.56h3.19Zm6.53,0-3.15,10,3.15,8.9h-3.2l-3.14-8.9,3.14-10h3.2Z" transform="translate(-34.23 -16.12)"/>
    <path class="cls-5" d="M1246.4,238.54a19.65,19.65,0,0,1,1.31-7,18.5,18.5,0,0,1,3.54-5.83h1.05a20.24,20.24,0,0,0-3,5.78,25.24,25.24,0,0,0-.75,6.89v0.29a25.1,25.1,0,0,0,.75,6.88,20.23,20.23,0,0,0,3,5.77h-1.05a18.51,18.51,0,0,1-3.54-5.82A19.59,19.59,0,0,1,1246.4,238.54Z" transform="translate(-34.23 -16.12)"/>
    <path class="cls-5" d="M1260.73,227.59l2,1.81v6.78l-0.95.84,0.95,0.86v6.76l-2,1.82h-7.66V227.56Zm-4.47,16.1h3.3V238h-3l3-3.27v-4.36h-3.3v13.34Z" transform="translate(-34.23 -16.12)"/>
    <path class="cls-5" d="M1266.54,251.34h-1.05a20.23,20.23,0,0,0,3-5.77,25.09,25.09,0,0,0,.75-6.88V238.4a25.23,25.23,0,0,0-.75-6.89,20.24,20.24,0,0,0-3-5.78h1.05a18.51,18.51,0,0,1,3.54,5.83,19.25,19.25,0,0,1,0,14A18.52,18.52,0,0,1,1266.54,251.34Z" transform="translate(-34.23 -16.12)"/>
    <polygon class="cls-4" points="1024.3 241.75 1024 176.42 1080.43 143.5 1137.15 175.9 1137.45 241.23 1081.02 274.15 1024.3 241.75"/>
    <path class="cls-5" d="M1136.79,323.28L1134,342.19h-2.83l-1.38-9.36-1.38,9.36h-2.83l-2.79-18.91h2.83l1.38,9.36,1.38-9.36h2.83l1.38,9.36,1.38-9.36h2.83Z" transform="translate(-34.23 -16.12)"/>
    <path class="cls-5" d="M1148.48,323.28v18.91h-3.2v-7.78H1142v7.78h-3.19V323.28H1142v7.84h3.32v-7.84h3.2Z" transform="translate(-34.23 -16.12)"/>
    <path class="cls-5" d="M1153.65,323.28v18.91h-3.19V323.28h3.19Z" transform="translate(-34.23 -16.12)"/>
    <path class="cls-5" d="M1165.69,323.28v2.85h-3.06v16.06h-3.15V326.13h-3.84l2.52-2.85h7.54Z" transform="translate(-34.23 -16.12)"/>
    <path class="cls-5" d="M1175.67,323.28v2.85h-4.84v5H1175l-2.52,2.79h-1.69v5.41h4.92v2.85h-8.08V323.28h8Z" transform="translate(-34.23 -16.12)"/>
    <path class="cls-5" d="M1187.75,334.26a19.66,19.66,0,0,1,1.31-7,18.49,18.49,0,0,1,3.54-5.83h1.05a20.23,20.23,0,0,0-3,5.77,25.26,25.26,0,0,0-.75,6.9v0.29a25.1,25.1,0,0,0,.75,6.88,20.23,20.23,0,0,0,3,5.77h-1.05a18.52,18.52,0,0,1-3.54-5.82A19.6,19.6,0,0,1,1187.75,334.26Z" transform="translate(-34.23 -16.12)"/>
    <path class="cls-5" d="M1208.46,323.28l-2.81,18.91h-2.83l-1.38-9.36-1.38,9.36h-2.83l-2.79-18.91h2.83l1.38,9.36,1.38-9.36h2.83l1.38,9.36,1.38-9.36h2.83Z" transform="translate(-34.23 -16.12)"/>
    <path class="cls-5" d="M1212.25,347.06h-1.05a20.23,20.23,0,0,0,3-5.77,25.1,25.1,0,0,0,.75-6.88v-0.29a25.26,25.26,0,0,0-.75-6.9,20.23,20.23,0,0,0-3-5.77h1.05a18.51,18.51,0,0,1,3.54,5.83,19.25,19.25,0,0,1,0,14A18.54,18.54,0,0,1,1212.25,347.06Z" transform="translate(-34.23 -16.12)"/>
    <polygon class="cls-3" points="1023.24 371.21 966.42 338.96 965.95 273.64 1022.28 240.56 1079.1 272.81 1079.57 338.13 1023.24 371.21"/>
    <path class="cls-5" d="M1057.47,387.91l-57.32-32.53-0.48-65.9,0.25-.15,56.58-33.22,57.32,32.53,0.48,65.9-0.25.15Zm-56.32-33.12,56.31,32L1113.3,354l-0.47-64.75-56.31-32L1000.67,290Z" transform="translate(-34.23 -16.12)"/>
    <polygon class="cls-1" points="3106.88 2300.9 3105.61 2254.27 3105.27 2241.17 3104.81 2228.1 3104.22 2215.07 3103.54 2202 3102.8 2188.96 3101.87 2175.89 3100.87 2162.85 3099.8 2149.87 3098.86 2140.17 3097.81 2130.65 3096.71 2121.13 3095.46 2111.52 3094.13 2101.99 3092.68 2092.49 3091.15 2082.94 3089.48 2073.64 3088.4 2068.71 3086.13 2059.39 3083.53 2050.12 3080.72 2040.9 3079.27 2036.54 3077.43 2031.18 3073.72 2021.06 3069.75 2010.94 3065.58 2001.11 3063.43 1996.29 3063.26 1995.95 3063.12 1995.58 3060.51 1990.45 3057.84 1985.4 3055.01 1980.33 3052.2 1975.45 3049.14 1970.27 3046.05 1965.31 3042.88 1960.37 3039.76 1955.72 3036.78 1951.36 3033.21 1946.37 3029.75 1941.83 3026.49 1937.81 3023.18 1933.92 3019.69 1930.24 3016.09 1926.58 3012.35 1923.04 3009.71 1919.72 3007.02 1916.49 3004.3 1913.32 3001.49 1910.17 2998.68 1907.05 2995.76 1904.02 2992.82 1901.07 2989.78 1898.18 2986.72 1895.32 2983.63 1892.48 2980.66 1889.96 2977.23 1887.1 2973.94 1884.43 2970.59 1881.88 2967.28 1879.41 2963.96 1877.09 2959.85 1874.28 2956.11 1871.76 2951.89 1869.07 2947.78 1866.57 2943.69 1864.14 2939.55 1861.73 2935.39 1859.43 2931.05 1857.11 2922.55 1852.88 2918.3 1850.84 2913.9 1848.86 2909.51 1846.96 2905.09 1845.12 2900.63 1843.41 2896.24 1841.74 2886.46 1838.31 2876.82 1835.22 2867.05 1832.39 2857.46 1829.87 2847.17 1827.43 2837.08 1825.36 2826.91 1823.52 2817.04 1822.04 2808.76 1820.85 2800.57 1819.83 2792.27 1819.07 2784.19 1818.5 2771.8 1817.88 2759.53 1817.48 2747.28 1817.25 2735.18 1817.22 2726.98 1816.8 2718.85 1816.57 2710.74 1816.46 2702.69 1816.43 2694.56 1816.63 2686.48 1816.91 2678.37 1817.34 2670.29 1817.88 2662.18 1818.58 2654.16 1819.4 2646.17 1820.37 2638.09 1821.45 2630.1 1822.72 2622.1 1824.08 2614.11 1825.61 2606.31 1827.2 2599.4 1828.79 2592.65 1830.46 2585.88 1832.22 2579.16 1834.14 2572.52 1836.21 2565.92 1838.43 2559.4 1840.75 2552.82 1843.19 2546.39 1845.77 2539.95 1848.52 2533.61 1851.35 2527.28 1854.3 2521.08 1857.39 2514.93 1860.62 2508.69 1863.97 2502.91 1867.31 2499.47 1868.79 2493.15 1871.73 2486.92 1874.85 2480.74 1878.08 2474.64 1881.43 2468.66 1884.94 2462.68 1888.6 2456.84 1892.34 2454.12 1894.24 2451.37 1896.11 2446.33 1899.71 2441.45 1903.45 2436.63 1907.31 2431.87 1911.28 2427.25 1915.39 2422.8 1919.58 2418.41 1923.92 2416.28 1926.1 2412.34 1930.38 2408.68 1934.61 2405.08 1938.86 2401.76 1943.08 2398.36 1947.67 2395.16 1952.21 2392.04 1956.89 2389.38 1961.25 2385.89 1966.75 2382.6 1972.34 2379.51 1977.92 2376.65 1983.53 2374.44 1988.35 2372.14 1993.51 2370.05 1998.78 2368.06 2004.11 2365.99 2010.21 2364.06 2016.16 2362.22 2022.22 2360.52 2028.23 2358.91 2034.36 2357.43 2040.48 2356.07 2046.66 2354.85 2052.64 2353.61 2059.7 2352.47 2066.47 2351.36 2073.47 2350.54 2080.48 2349.72 2087.39 2349.1 2094.39 2348.56 2101.34 2348.11 2108.31 2347.91 2116.79 2347.76 2125.07 2347.68 2133.31 2347.76 2141.65 2347.93 2149.87 2348.25 2158.2 2348.64 2166.39 2349.13 2174.59 2349.89 2185.19 2350.8 2195.73 2351.82 2206.28 2352.87 2216.8 2354.06 2227.37 2355.36 2237.89 2356.75 2248.37 2358.28 2258.69 2364.49 2301.81 2391.84 2288.48 2403.95 2282.59 2415.91 2276.97 2427.93 2271.42 2440.03 2266.03 2452.11 2260.73 2464.33 2255.57 2476.6 2250.5 2488.87 2245.62 2499.11 2241.68 2509.43 2237.86 2519.72 2234.14 2529.98 2230.63 2540.41 2227.23 2550.93 2223.91 2561.38 2220.73 2571.68 2217.76 2581.68 2215.04 2591.91 2212.46 2602.12 2210.1 2612.41 2207.86 2622.7 2205.85 2633.1 2204.04 2643.45 2202.42 2653.71 2200.98 2660.99 2200.16 2668.31 2199.5 2675.73 2198.97 2683.19 2198.57 2696.28 2198.09 2709.44 2197.77 2722.59 2197.66 2734.13 2197.63 2743.59 2197.75 2756.27 2198 2768.97 2198.45 2781.52 2199.05 2788.64 2199.53 2795.67 2200.13 2802.67 2200.92 2809.53 2201.83 2814.46 2202.65 2825.52 2204.66 2836.49 2206.82 2847.37 2209.14 2852.76 2210.42 2858.26 2211.72 2869.03 2214.47 2879.72 2217.36 2896.3 2222.29 2904.35 2224.65 2912.09 2227.06 2919.85 2229.52 2927.62 2232.13 2940.94 2236.78 2954.21 2241.63 2967.47 2246.45 2980.66 2251.43 3018.98 2266.63 3074.51 2288.28 3106.88 2300.9 3106.88 2300.9"/>
    <g class="cls-6">
        <path class="cls-2" d="M2398.41,2357.88l11-85s-45-393,339-393c0,0,326-35,370,358.92l31,131.07h55V1775.3h-851v603.58h47S2399.91,2356.38,2398.41,2357.88Z" transform="translate(-34.23 -16.12)"/>
    </g>
    <g class="cls-7">
        <path class="cls-2" d="M3124.61,1907.84l-11-85s45-393-339-393c0,0-326-35-370,358.92l-31,131.07h-55V1325.26h851v603.58h-47S3123.11,1906.34,3124.61,1907.84Z" transform="translate(-34.23 -16.12)"/>
    </g>
    <path class="cls-2" d="M1801.8,145.85h-27.37v13.58h35.52c2.65,0,5.35-1.51,5.44-5s0-16.94.08-20.82a5.72,5.72,0,0,0-5.69-5.8l-67,0v13.6h59v4.37Z" transform="translate(-34.23 -16.12)"/>
    <polygon class="cls-2" points="1735.19 147.69 1735.2 129.75 1721.62 129.72 1721.62 161.34 1794.42 161.34 1794.43 147.76 1735.19 147.69"/>
    <path class="cls-2" d="M1727.85,190.44a2.3,2.3,0,0,1-.7.7,3.58,3.58,0,0,1-1.08.46,5.46,5.46,0,0,1-1.37.16h-7.43l0,3.51H1714l0-10.31h10.77a5,5,0,0,1,2.31.45,1.88,1.88,0,0,1,1,1.3q0,0.11,0,.22c0,0.08,0,.16,0,0.24l0,2.38A1.75,1.75,0,0,1,1727.85,190.44Zm-2.54-2.7a0.7,0.7,0,0,0-.25-0.49,1,1,0,0,0-.71-0.22h-7.08v2.67h7.08a1.19,1.19,0,0,0,.71-0.19,0.52,0.52,0,0,0,.24-0.46v-1.31Z" transform="translate(-34.23 -16.12)"/>
    <path class="cls-2" d="M1747.06,190.44a2.3,2.3,0,0,1-.7.7,3.48,3.48,0,0,1-1,.42s3.25,3.69,3.21,3.7l-3.72,0-3.14-3.53h-5.27l0,3.51h-3.34l0-10.31h10.77a5,5,0,0,1,2.31.45,1.88,1.88,0,0,1,1,1.3q0,0.11,0,.22c0,0.08,0,.16,0,0.24l0,2.38A1.76,1.76,0,0,1,1747.06,190.44Zm-2.54-2.7a0.7,0.7,0,0,0-.25-0.49,1,1,0,0,0-.71-0.22h-7.08v2.67h7.08a1.19,1.19,0,0,0,.71-0.19,0.52,0.52,0,0,0,.24-0.46v-1.31Z" transform="translate(-34.23 -16.12)"/>
    <path class="cls-2" d="M1769.11,193.82a2.42,2.42,0,0,1-.77.77,4,4,0,0,1-1.19.5,6,6,0,0,1-1.49.18H1756a6.11,6.11,0,0,1-1.52-.18,4.07,4.07,0,0,1-1.19-.49,2.27,2.27,0,0,1-.76-0.76,1.9,1.9,0,0,1-.26-1l0-5.45a2.07,2.07,0,0,1,1-1.77A4.87,4.87,0,0,1,1756,185h9.66a5.25,5.25,0,0,1,2.51.53,2.15,2.15,0,0,1,1.17,1.45,2.07,2.07,0,0,1,0,.22q0,0.11,0,.23l0,5.45A1.89,1.89,0,0,1,1769.11,193.82ZM1766,187.7h-10.44v4.84H1766V187.7Z" transform="translate(-34.23 -16.12)"/>
    <path class="cls-2" d="M1815,193.82a2.42,2.42,0,0,1-.77.77,4,4,0,0,1-1.19.5,6,6,0,0,1-1.49.18h-9.66a6.11,6.11,0,0,1-1.52-.18,4.07,4.07,0,0,1-1.19-.49,2.27,2.27,0,0,1-.76-0.76,1.9,1.9,0,0,1-.26-1l0-5.45a2.07,2.07,0,0,1,1-1.77,4.87,4.87,0,0,1,2.71-.66h9.66a5.25,5.25,0,0,1,2.51.53,2.15,2.15,0,0,1,1.17,1.45,2.1,2.1,0,0,1,0,.22q0,0.11,0,.23l0,5.45A1.89,1.89,0,0,1,1815,193.82Zm-3.09-6.12h-10.44v4.84h10.44V187.7Z" transform="translate(-34.23 -16.12)"/>
    <path class="cls-2" d="M1835.91,193.82a2.42,2.42,0,0,1-.77.77,4,4,0,0,1-1.19.5,6,6,0,0,1-1.49.18h-9.66a6.11,6.11,0,0,1-1.52-.18,4.07,4.07,0,0,1-1.19-.49,2.27,2.27,0,0,1-.76-0.76,1.9,1.9,0,0,1-.26-1l0-5.45a2.07,2.07,0,0,1,1-1.77,4.87,4.87,0,0,1,2.71-.66h9.66a5.25,5.25,0,0,1,2.51.53,2.15,2.15,0,0,1,1.17,1.45,2,2,0,0,1,0,.22q0,0.11,0,.23l0,5.45A1.89,1.89,0,0,1,1835.91,193.82Zm-3.09-6.12h-10.44v4.84h10.44V187.7Z" transform="translate(-34.23 -16.12)"/>
    <path class="cls-2" d="M1781.51,195.27l0-10.31h3.34v7.57H1795l0,2.73h-13.5Z" transform="translate(-34.23 -16.12)"/>
    <path class="cls-2" d="M1852.23,195.27l-8.1-4.74v4.74h-3.34l0-10.31h3.34v4.37l7.44-4.37h5l-8.13,4.77,9.55,5.53h-5.7Z" transform="translate(-34.23 -16.12)"/>
    <path class="cls-2" d="M1731.08,508.49v166H1472.32l64.59,45.44v81.19H1681.4l65.74,98.76v373.83l-63.83,98.76H1481.5l-65.36-98.76V1059.85l120.78-1.82v155.71h88.29V966.54H1478.06L1416.14,872V508.49h314.95Z" transform="translate(-34.23 -16.12)"/>
    <path class="cls-2" d="M2088,508.49l63.73,101.18V850.81l-51.9,82.4,51.9,81.19v264.77l-63,93.31H1882.64l-63-96.94V1108.92h120.59V1218h92.35V996.83H1956.3V865.36h76.32V719.94l63.73-49.08H1940.27v100H1819.68v-160l65.26-102.4h203Z" transform="translate(-34.23 -16.12)"/>
    <path class="cls-2" d="M558.48,772.43V910.77H306l63,37.87v67.66H510l64.15,82.3v311.53l-62.29,82.3H314.93l-63.78-82.3V1231.9L369,1230.38v129.76h86.16v-206H311.57l-60.42-78.77V772.43H558.48Z" transform="translate(-34.23 -16.12)"/>
    <path class="cls-2" d="M907.69,772.43l62,84.32v201l-50.49,68.67L969.69,1194v220.65l-61.26,77.76H707.95l-61.26-80.79V1272.79H764v90.88h89.85V1179.39H779.6V1069.82h74.25V948.64l62-40.9H764v83.31H646.69V857.76l63.49-85.33H907.69Z" transform="translate(-34.23 -16.12)"/>
    <path class="cls-3" d="M2743.68,1465.07v41.5h-75.75l18.91,11.36v20.3h42.3l19.25,24.69v93.46l-18.69,24.69h-59.08l-19.13-24.69v-53.47l35.36-.45v38.93h25.85v-61.8h-43.08L2651.48,1556v-90.88h92.2Z" transform="translate(-34.23 -16.12)"/>
    <path class="cls-3" d="M2848.44,1465.07l18.6,25.3v60.29l-15.15,20.6,15.15,20.3v66.19l-18.38,23.33h-60.14l-18.38-24.24v-41.65h35.2v27.27h27v-55.29H2810v-32.87h22.28v-36.35l18.6-12.27h-45.55v25h-35.2v-40l19-25.6h59.25Z" transform="translate(-34.23 -16.12)"/>
    <path class="cls-4" d="M1454,286.91V400.69H1485v29.62h-55.06V302.17l-10.08-9.07v-6.18H1454Z" transform="translate(-34.23 -16.12)"/>
    <path class="cls-4" d="M1549.88,287.11L1573,430.31h-27.85l-4-28.82H1521.4l-4,28.82h-27l19.75-127.74-10.63-9.47v-6h50.38Zm-27.61,87.45H1540l-7.54-59.83-4.6-.2Z" transform="translate(-34.23 -16.12)"/>
    <path class="cls-4" d="M1632.32,287l16,16.35V326h-24.83V313.84h-39.67l19.2,8v21.64l29.91,0.3L1648.34,359v55.54l-15.71,15.75h-37.92l-16.34-16.45V388.63H1603v13.56h20.47V371h-30.7l-14.44-15.06V303l13.73-16h40.22Z" transform="translate(-34.23 -16.12)"/>
    <path class="cls-4" d="M1724.75,287v43.18h-4L1713.64,316h-11.82V418.34l6.19,5.78v6.18h-37.53v-6.18l6.35-5.78V316h-12.14l-7.06,14.16h-3.89V287h71Z" transform="translate(-34.23 -16.12)"/>
    <path class="cls-4" d="M1857.18,287V430.31h-31.73l-22.06-76.88-7.54-35.8,3.89,36.1v76.58h-25.55V302.07L1764,292.8V287h42.29l22,75.79,6.58,31-3.17-31.91V301.37l-9.52-8.58V287h35.07Z" transform="translate(-34.23 -16.12)"/>
    <path class="cls-4" d="M1922.08,287.11l23.09,143.19h-27.85l-4-28.82H1893.6l-4,28.82h-27l19.75-127.74-10.63-9.47v-6h50.38Zm-27.61,87.45h17.77l-7.54-59.83-4.6-.2Z" transform="translate(-34.23 -16.12)"/>
    <path class="cls-4" d="M2070.85,287.11V430.31H2045.7V350.23l0.87-31-4.76,31-25.94,79.67-26.58-79.67-4.36-31,0.87,31v80.07h-35.23v-6.18l10.08-8.87V302.17l-10.08-9.07v-6h49.51l13.33,52.65,2.3,24.53,2.3-24.53,13.17-52.65h39.67Z" transform="translate(-34.23 -16.12)"/>
    <path class="cls-4" d="M2148.13,287.11v6l-11.35,23h-54.5l19.36,6.38v20.14h31.5v25.63h-31.5v32.41h35.15l11.35,23.43v6.18l-71.72-.2-0.16-143h71.88Z" transform="translate(-34.23 -16.12)"/>
    <path class="cls-4" d="M367.63,627.17l13.63,12.29v17H360.14v-9.14H326.4l16.33,6V669.6l25.44,0.23,13.09,11.47V723L367.9,734.88H335.64l-13.9-12.37v-19h21v10.19h17.41V690.28H334L321.74,679v-39.8l11.67-12h34.22Z" transform="translate(-34.23 -16.12)"/>
    <path class="cls-4" d="M442,627.17l10.8,12v46.32l-11.2,12.07H416.22v37.33H395.43V638.49l-8.57-6.82v-4.5H442Zm-25.78,50.59h15.45v-31H400.49l15.72,6.67v24.29Z" transform="translate(-34.23 -16.12)"/>
    <path class="cls-4" d="M508,627.25l19.64,107.63H504l-3.44-21.66H483.77l-3.44,21.66H457.39l16.8-96-9-7.12v-4.5H508ZM484.52,693h15.12l-6.41-45-3.91-.15Z" transform="translate(-34.23 -16.12)"/>
    <path class="cls-4" d="M587.25,627.17L598,639.84v36.58l-9,10.34,13.63,39.13,7.49,4.35v4.65H584.61l-13.36-44.45h-10.8v44.45H539.8V638.64l-8.57-7v-4.5h56Zm-26.79,42.95h17.07V647.48H545.74l14.71,6.82v15.82Z" transform="translate(-34.23 -16.12)"/>
    <path class="cls-4" d="M673.18,627.17v32.45h-3.44l-6-10.64H653.68v76.9l5.26,4.35v4.65H627v-4.65l5.4-4.35V649H622.1l-6,10.64h-3.31V627.17h60.4Z" transform="translate(-34.23 -16.12)"/>
    <path class="cls-4" d="M727.39,627.25L747,734.88H723.34l-3.44-21.66H703.16l-3.44,21.66H676.78l16.8-96-9-7.12v-4.5h42.85ZM703.91,693H719l-6.41-45-3.91-.15Z" transform="translate(-34.23 -16.12)"/>
    <path class="cls-4" d="M828.92,627.17V734.88h-27l-18.76-57.79-6.41-26.91,3.31,27.13v57.57H758.33V638.49l-8.71-7v-4.35h36l18.69,57,5.6,23.31-2.7-24V638l-8.1-6.45v-4.35h29.83Z" transform="translate(-34.23 -16.12)"/>
    <path class="cls-4" d="M884.41,627.17L898,639.46v17H876.92v-9.14H843.17l16.33,6V669.6l25.44,0.23L898,681.29V723l-13.36,11.84H852.42l-13.9-12.37v-19h21v10.19h17.41V690.28H850.8L838.52,679v-39.8l11.67-12h34.22Z" transform="translate(-34.23 -16.12)"/>
    <path class="cls-3" d="M2743.68,1915.88v41.5h-75.75l18.91,11.36V1989h42.3l19.25,24.69v93.46l-18.69,24.69h-59.08l-19.13-24.69v-53.47l35.36-.45v38.93h25.85v-61.8h-43.08l-18.13-23.63v-90.88h92.2Z" transform="translate(-34.23 -16.12)"/>
    <path class="cls-3" d="M2848.44,1915.88l18.6,25.3v60.29l-15.15,20.6,15.15,20.3v66.19l-18.38,23.33h-60.14l-18.38-24.24V2066h35.2v27.27h27V2038H2810V2005.1h22.28v-36.35l18.6-12.27h-45.55v25h-35.2v-40l19-25.6h59.25Z" transform="translate(-34.23 -16.12)"/>
</svg>