<?xml version="1.0" encoding="UTF-8" standalone="no"?>
<svg
   xmlns:dc="http://purl.org/dc/elements/1.1/"
   xmlns:cc="http://creativecommons.org/ns#"
   xmlns:rdf="http://www.w3.org/1999/02/22-rdf-syntax-ns#"
   xmlns:svg="http://www.w3.org/2000/svg"
   xmlns="http://www.w3.org/2000/svg"
   xmlns:xlink="http://www.w3.org/1999/xlink"
   xmlns:sodipodi="http://sodipodi.sourceforge.net/DTD/sodipodi-0.dtd"
   xmlns:inkscape="http://www.inkscape.org/namespaces/inkscape"
   id="jersey_back"
   width="100%"
   height="100%"
   preserveAspectRatio="xMinYMin meet"
   viewBox="0 0 315.375 297.22875"
   version="1.1"
   inkscape:version="0.48.4 r9939"
   sodipodi:docname="jersey_back_3000.svg">
  <metadata
     id="metadata155">
    <rdf:RDF>
      <cc:Work
         rdf:about="">
        <dc:format>image/svg+xml</dc:format>
        <dc:type
           rdf:resource="http://purl.org/dc/dcmitype/StillImage" />
      </cc:Work>
    </rdf:RDF>
  </metadata>
  <sodipodi:namedview
     pagecolor="#ffffff"
     bordercolor="#666666"
     borderopacity="1"
     objecttolerance="10"
     gridtolerance="10"
     guidetolerance="10"
     inkscape:pageopacity="0"
     inkscape:pageshadow="2"
     inkscape:window-width="1366"
     inkscape:window-height="705"
     id="namedview153"
     showgrid="false"
     inkscape:zoom="1.1228873"
     inkscape:cx="462.24417"
     inkscape:cy="74.600849"
     inkscape:window-x="-4"
     inkscape:window-y="-4"
     inkscape:window-maximized="1"
     inkscape:current-layer="layer1" />
  <defs
     id="defs10593">
    <clipPath
       clipPathUnits="userSpaceOnUse"
       id="clipPath3055">
      <path
         d="M 0,612 1008,612 1008,0 0,0 0,612 z"
         id="path3057" />
    </clipPath>
    <clipPath
       clipPathUnits="userSpaceOnUse"
       id="clipPath3111">
      <path
         style="fill:none;stroke:none"
         d="m 551.08256,147.5225 -6.15561,53.71282 33.94123,-0.18522 -1.04137,-55.85319 z"
         id="path3113" />
    </clipPath>
    <clipPath
       clipPathUnits="userSpaceOnUse"
       id="clipPath3141">
      <path
         style="fill:none;stroke:none"
         d="m -225.04586,625.91546 4.38599,50.38839 -30.80883,0.6579 0.52857,-52.99188 z"
         id="path3143" />
    </clipPath>
    <clipPath
       clipPathUnits="userSpaceOnUse"
       id="clipPath3193">
      <path
         style="fill:none;stroke:none"
         d="m 539.66332,217.74726 8.68734,-52.77946 28.14554,-0.95131 -0.46039,53.25616 z"
         id="path3195" />
    </clipPath>
    <clipPath
       clipPathUnits="userSpaceOnUse"
       id="clipPath3197">
      <path
         style="fill:none;stroke:none"
         d="m -142.418,704.33815 -10.27677,-52.37574 -28.57363,-0.45076 2.07565,53.2177 z"
         id="path3199" />
    </clipPath>
    <clipPath
       clipPathUnits="userSpaceOnUse"
       id="clipPath3934">
      <path
         style="fill:none;stroke:none"
         d="m 558.49201,133.88138 1.04235,-51.927289 31.27942,-0.387826 1.10898,52.536845 z"
         id="path3936" />
    </clipPath>
    <clipPath
       clipPathUnits="userSpaceOnUse"
       id="clipPath3940">
      <path
         style="fill:none;stroke:none"
         d="m -243.26248,608.07595 2.25338,50.60491 -25.39087,0.12001 0.47062,-51.00645 z"
         id="path3942" />
    </clipPath>
    <clipPath
       clipPathUnits="userSpaceOnUse"
       id="clipPath3946">
      <path
         style="fill:none;stroke:none"
         d="m 272.86587,547.81995 0.35571,48.4905 48.12999,0.17702 -0.1734,-48.67073 z"
         id="path3948" />
    </clipPath>
    <clipPath
       clipPathUnits="userSpaceOnUse"
       id="clipPath3934-4">
      <path
         style="fill:none;stroke:none"
         d="m 558.49201,133.88138 1.04235,-51.927289 31.27942,-0.387826 1.10898,52.536845 z"
         id="path3936-0" />
    </clipPath>
    <clipPath
       clipPathUnits="userSpaceOnUse"
       id="clipPath3987">
      <path
         style="fill:none;stroke:#000000;stroke-width:1px;stroke-linecap:butt;stroke-linejoin:miter;stroke-opacity:1"
         d="m -247.03402,606.61727 -26.04455,-0.10224 -0.036,49.82149 28.46943,0.0206 z"
         id="path3989" />
    </clipPath>
    <clipPath
       clipPathUnits="userSpaceOnUse"
       id="clipPath3987-1">
      <path
         inkscape:connector-curvature="0"
         style="fill:none;stroke:#000000;stroke-width:1px;stroke-linecap:butt;stroke-linejoin:miter;stroke-opacity:1"
         d="m -247.03402,606.61727 -26.04455,-0.10224 -0.036,49.82149 28.46943,0.0206 z"
         id="path3989-7" />
    </clipPath>
    <clipPath
       clipPathUnits="userSpaceOnUse"
       id="clipPath3232">
      <path
         id="path3234"
         d="m 525.59965,156.43454 -26.04454,-0.10224 -0.036,49.82149 28.46943,0.0206 z"
         style="fill:none;stroke:#000000;stroke-width:1px;stroke-linecap:butt;stroke-linejoin:miter;stroke-opacity:1"
         inkscape:connector-curvature="0" />
    </clipPath>
  </defs>
  <g
     id="layer1"
     transform="translate(-142.03125,-511.75)">
    <path
       style="fill:#ffffff;fill-opacity:1;fill-rule:nonzero;stroke:none"
       d="m 266.74375,512.437 -56.6875,12.53125 -67.125,37.0625 11.34083,62.21596 77.71695,-1.25944 7.65036,-62.92347 38.82306,-38.5018 -6.375,-3.15625 -3.625,-2.5 -1.71875,-3.46875 z m 66.96875,0 -2.46875,2.75 -3.09375,2.84375 -5.71875,3.46875 34.82598,37.93458 20.4011,64.49777 67.52348,-0.31486 11.68694,-61.74249 -66.875,-36.6875 z"
       id="path3333back"
       inkscape:connector-curvature="0"
       sodipodi:nodetypes="ccccccccccccccccccccc" />
    <path
       style="fill:#ffffff;fill-opacity:0;fill-rule:nonzero;stroke:none"
       d="m 266.74375,512.437 -56.6875,12.53125 -67.125,37.0625 11.34083,61.9011 78.03181,-0.62972 11.11383,-62.29374 35.04473,-39.44639 -6.375,-3.15625 -3.625,-2.5 -1.71875,-3.46875 z m 66.96875,0 -2.46875,2.75 -3.09375,2.84375 -5.71875,3.46875 34.82598,36.99 18.19707,65.12749 70.04237,0.31486 11.37208,-62.05735 -66.875,-36.6875 z"
       id="path3333inf"
       inkscape:connector-curvature="0"
       sodipodi:nodetypes="ccccccccccccccccccccc" />
    <path
       id="path3281back"
       style="fill:#ffffff;fill-opacity:1;fill-rule:nonzero;stroke:none"
       d="m 278.356,521.55425 c -65.17454,26.50613 -44.40817,79.1727 -68.07026,101.88707 l 10.77958,133.75489 42.16693,39.14054 7.4225,5.30375 10.6,4.855 6.1925,1.3675 9.175,0.64375 9.23625,-0.5225 6.9425,-0.96625 7.78625,-2.59625 8.0225,-3.42375 8.5175,-4.4225 43.06082,-36.80054 L 389.8532,624.847 C 359.67832,580.80054 385.01291,551.23696 322.346,521.51425 l -6.29125,1.59125 -9.17375,1.3675 -12.36125,0.11 -8.55375,-0.9525 z"
       inkscape:connector-curvature="0"
       sodipodi:nodetypes="ccccccccccccccccccccc" />
    <path
       id="path3281inf"
       style="fill:#ffffff;fill-opacity:0;fill-rule:nonzero;stroke:none"
       d="m 278.356,521.55425 c -65.18717,28.07551 -41.12472,64.48118 -68.46384,102.43807 l 11.06512,134.57793 c 15.87278,11.25299 30.63236,24.28711 42.27497,37.7665 l 7.4225,5.30375 10.6,4.855 6.1925,1.3675 9.175,0.64375 9.23625,-0.5225 6.9425,-0.96625 7.78625,-2.59625 8.0225,-3.42375 16.08727,-9.54323 19.11606,-20.04116 15.74526,-12.26837 9.5953,-134.594 C 361.7289,584.97501 386.41785,552.06618 322.346,521.51425 l -6.29125,1.59125 -9.17375,1.3675 -12.36125,0.11 -8.55375,-0.9525 z"
       inkscape:connector-curvature="0"
       sodipodi:nodetypes="cccccccccccccccccccccc" />
    <path
       id="path5051"
       style="fill:none;stroke:#7b7979;stroke-width:0.96375;stroke-linecap:butt;stroke-linejoin:miter;stroke-miterlimit:4;stroke-opacity:1;stroke-dasharray:none"
       d="m 379.86947,759.9126 9.51125,-136.115 56.32375,-0.235 11.17625,-61.6425 -67.0675,-36.84125 -56.7525,-12.75375 c 0,0 -4.04625,12.41 -33.05,12.41 -29.00375,0 -33.62,-12.3325 -33.62,-12.3325 l -56.75125,12.75375 -67.07,36.84375 11.1775,61.64125 56.3225,0.23375 11.18,135.09125 c 0,0 21.71875,15.40625 27.98,22.29375 6.2625,6.8875 19.95875,27.76875 48.84125,27.2375 34.1225,-0.62625 55.1,-25.6725 55.1,-25.6725 0,0 15.2025,-17.65125 26.69875,-22.9125 z" />
    <path
       id="path3281"
       style="fill:#ffffff;fill-opacity:0;fill-rule:nonzero;stroke:none"
       d="m 278.45597,521.55447 c -65.9566,31.4847 -40.13723,57.34476 -68.55374,102.33235 l 11.89278,134.56905 41.53721,37.8811 7.4225,5.30375 10.6,4.855 6.1925,1.3675 9.175,0.64375 9.23625,-0.5225 6.9425,-0.96625 7.78625,-2.59625 8.0225,-3.42375 8.5175,-4.4225 43.06082,-36.80054 9.03541,-135.70392 c -26.17922,-30.85365 -2.97696,-73.24739 -66.87748,-102.55679 l -6.29125,1.59125 -9.17375,1.3675 -12.36125,0.11 -8.55375,-0.9525 z"
       inkscape:connector-curvature="0"
       sodipodi:nodetypes="ccccccccccccccccccccc" />
    <path
       style="fill:#ffffff;fill-opacity:0;fill-rule:nonzero;stroke:none"
       d="m 124.65625,0.59375 -56.6875,12.53125 -67.125,37.0625 11.340832,61.9011 56.306401,0.31486 C 97.089021,64.383882 72.982564,39.121291 136.375,9.71875 L 130,6.5625 l -3.625,-2.5 z m 66.96875,0 -2.46875,2.75 -3.09375,2.84375 -5.71875,3.46875 c 67.56586,38.916223 36.49518,58.789508 66.87693,102.74721 l 57.44793,0 10.11264,-62.37221 -66.875,-36.6875 z"
       id="path3333"
       transform="translate(142.08759,511.84322)"
       inkscape:connector-curvature="0"
       sodipodi:nodetypes="cccccccccccccccccc" />
    <path
       id="path5055"
       style="fill:none;stroke:#7b7979;stroke-width:0.59500003;stroke-linecap:round;stroke-linejoin:miter;stroke-miterlimit:4;stroke-opacity:1;stroke-dasharray:1.875, 2.5;stroke-dashoffset:0"
       d="m 353.17034,775.32522 c 0,0 15.2025,-17.65125 26.69875,-22.9125" />
    <path
       id="path5059"
       style="fill:none;stroke:#7b7979;stroke-width:0.59500003;stroke-linecap:round;stroke-linejoin:miter;stroke-miterlimit:4;stroke-opacity:1;stroke-dasharray:1.875, 2.5;stroke-dashoffset:0"
       d="m 298.07022,800.99784 c 34.12375,-0.62625 55.1,-25.6725 55.1,-25.6725" />
    <path
       id="path5063"
       style="fill:none;stroke:#7b7979;stroke-width:0.59500003;stroke-linecap:round;stroke-linejoin:miter;stroke-miterlimit:4;stroke-opacity:1;stroke-dasharray:1.875, 2.5;stroke-dashoffset:0"
       d="m 249.22985,773.76022 c 6.2625,6.8875 19.95875,27.76875 48.84,27.2375" />
    <path
       id="path5067"
       style="fill:none;stroke:#7b7979;stroke-width:0.59500003;stroke-linecap:round;stroke-linejoin:miter;stroke-miterlimit:4;stroke-opacity:1;stroke-dasharray:1.875, 2.5;stroke-dashoffset:0"
       d="m 221.24883,751.46659 c 0,0 21.71875,15.40625 27.98125,22.29375" />
    <path
       id="path5071"
       style="fill:none;stroke:#7b7979;stroke-width:0.59500003;stroke-linecap:round;stroke-linejoin:miter;stroke-miterlimit:4;stroke-opacity:1;stroke-dasharray:1.875, 2.5;stroke-dashoffset:0"
       d="m 353.17034,772.82522 c 0,0 15.2025,-17.65125 26.69875,-22.9125" />
    <path
       id="path5075"
       style="fill:none;stroke:#7b7979;stroke-width:0.59500003;stroke-linecap:round;stroke-linejoin:miter;stroke-miterlimit:4;stroke-opacity:1;stroke-dasharray:1.875, 2.5;stroke-dashoffset:0"
       d="m 298.07022,798.49784 c 34.12375,-0.62625 55.1,-25.6725 55.1,-25.6725" />
    <path
       id="path5079" style="fill:none;stroke:#7b7979;stroke-width:0.59500003;stroke-linecap:round;stroke-linejoin:miter;stroke-miterlimit:4;stroke-opacity:1;stroke-dasharray:1.875, 2.5;stroke-dashoffset:0"
       d="m 249.22985,771.26022 c 6.2625,6.8875 19.95875,27.76875 48.84,27.2375" />
    <path
       id="path5083" style="fill:none;stroke:#7b7979;stroke-width:0.59500003;stroke-linecap:round;stroke-linejoin:miter;stroke-miterlimit:4;stroke-opacity:1;stroke-dasharray:1.875, 2.5;stroke-dashoffset:0"
       d="m 221.24883,748.96659 c 0,0 21.71875,15.40625 27.98125,22.29375" />
    <path
       id="path5087" style="fill:#0000ff;stroke:#7b7979;stroke-width:0.59500003;stroke-linecap:round;stroke-linejoin:miter;stroke-miterlimit:4;stroke-opacity:1;stroke-dasharray:none"
       d="m 250.75697,515.91597 c 0,0 0.17,0.27875 0.51625,0.77625" />
    <path
       id="path5091"
       style="fill:none;stroke:#7b7979;stroke-width:0.59500003;stroke-linecap:round;stroke-linejoin:miter;stroke-miterlimit:4;stroke-opacity:1;stroke-dasharray:1.885, 2.51375;stroke-dashoffset:0"
       d="m 252.78572,518.69497 c 5.2075,6.44875 20.7325,21.83 49.9225,21.17125 30.3,-0.685 42.05625,-16.4125 45.28875,-22.00625" />
    <path
       id="path5095"
       style="fill:none;stroke:#7b7979;stroke-width:0.59500003;stroke-linecap:round;stroke-linejoin:miter;stroke-miterlimit:4;stroke-opacity:1;stroke-dasharray:none"
       d="m 348.60122,516.74972 c 0.275,-0.54 0.3975,-0.84375 0.3975,-0.84375" />
    <path
       id="path5099"
       style="fill:#0000ff;stroke:#7b7979;stroke-width:0.59500003;stroke-linecap:round;stroke-linejoin:miter;stroke-miterlimit:4;stroke-opacity:1;stroke-dasharray:none"
       d="m 249.37634,518.41597 c 0,0 0.1725,0.27625 0.525,0.77" />
    <path
       id="path5103"
       style="fill:none;stroke:#7b7979;stroke-width:0.59500003;stroke-linecap:round;stroke-linejoin:miter;stroke-miterlimit:4;stroke-opacity:1;stroke-dasharray:1.84875, 2.465;stroke-dashoffset:0"
       d="m 251.40509,521.13397 c 5.28625,6.41125 21.2,21.89375 51.2075,21.23125 31.105,-0.685 43.14,-16.4675 46.42625,-22.035" />
    <path
       id="path5107"
       style="fill:none;stroke:#7b7979;stroke-width:0.59500003;stroke-linecap:round;stroke-linejoin:miter;stroke-miterlimit:4;stroke-opacity:1;stroke-dasharray:none"
       d="m 349.64372,519.24547 c 0.28,-0.53625 0.405,-0.83875 0.405,-0.83875" />
    <path
       id="path5167"
       style="fill:none;stroke:#7b7979;stroke-width:0.59500003;stroke-linecap:round;stroke-linejoin:miter;stroke-miterlimit:4;stroke-opacity:1;stroke-dasharray:none"
       d="m 148.54872,559.34135 0.1675,0.9225" />
    <path
       id="path5171"
       style="fill:none;stroke:#7b7979;stroke-width:0.59500003;stroke-linecap:round;stroke-linejoin:miter;stroke-miterlimit:4;stroke-opacity:1;stroke-dasharray:1.86125, 2.4825;stroke-dashoffset:0"
       d="m 149.15783,562.70684 10.59875,58.6225" />
    <path
       id="path5175"
       style="fill:none;stroke:#7b7979;stroke-width:0.59500003;stroke-linecap:round;stroke-linejoin:miter;stroke-miterlimit:4;stroke-opacity:1;stroke-dasharray:none"
       d="m 159.97696,622.55059 0.1675,0.9225" />
    <path
       id="path5179"
       style="fill:none;stroke:#7b7979;stroke-width:0.59500003;stroke-linecap:round;stroke-linejoin:miter;stroke-miterlimit:4;stroke-opacity:1;stroke-dasharray:none"
       d="m 151.04872,559.34135 0.1675,0.9225" />
    <path
       id="path5183"
       style="fill:none;stroke:#7b7979;stroke-width:0.59500003;stroke-linecap:round;stroke-linejoin:miter;stroke-miterlimit:4;stroke-opacity:1;stroke-dasharray:1.86125, 2.4825;stroke-dashoffset:0"
       d="m 151.65783,562.70684 10.59875,58.6225" />
    <path
       id="path5187"
       style="fill:none;stroke:#7b7979;stroke-width:0.59500003;stroke-linecap:round;stroke-linejoin:miter;stroke-miterlimit:4;stroke-opacity:1;stroke-dasharray:none"
       d="m 162.47696,622.55059 0.1675,0.9225" />
    <path
       id="path5307"
       style="fill:none;stroke:#7b7979;stroke-width:0.59500003;stroke-linecap:round;stroke-linejoin:miter;stroke-miterlimit:4;stroke-opacity:1;stroke-dasharray:none"
       d="m 452.10587,559.34135 -0.1675,0.9225" />
    <path
       id="path5311"
       style="fill:none;stroke:#7b7979;stroke-width:0.59500003;stroke-linecap:round;stroke-linejoin:miter;stroke-miterlimit:4;stroke-opacity:1;stroke-dasharray:1.86125, 2.4825;stroke-dashoffset:0"
       d="m 451.49797,562.70684 -10.59875,58.6225" />
    <path
       id="path5315"
       style="fill:none;stroke:#7b7979;stroke-width:0.59500003;stroke-linecap:round;stroke-linejoin:miter;stroke-miterlimit:4;stroke-opacity:1;stroke-dasharray:none"
       d="m 440.67757,622.55059 -0.1675,0.9225" />
    <path
       id="path5319"
       style="fill:none;stroke:#7b7979;stroke-width:0.59500003;stroke-linecap:round;stroke-linejoin:miter;stroke-miterlimit:4;stroke-opacity:1;stroke-dasharray:none"
       d="m 449.60587,559.34135 -0.1675,0.9225" />
    <path
       id="path5323"
       style="fill:none;stroke:#7b7979;stroke-width:0.59500003;stroke-linecap:round;stroke-linejoin:miter;stroke-miterlimit:4;stroke-opacity:1;stroke-dasharray:1.86125, 2.4825;stroke-dashoffset:0"
       d="m 448.99797,562.70684 -10.59875,58.6225" />
    <path
       id="path5327"
       style="fill:none;stroke:#7b7979;stroke-width:0.59500003;stroke-linecap:round;stroke-linejoin:miter;stroke-miterlimit:4;stroke-opacity:1;stroke-dasharray:none"
       d="m 438.17757,622.55059 -0.1675,0.9225" />
    <path
       id="path5359"
       style="fill:none;stroke:#7b7979;stroke-width:0.59500003;stroke-linecap:round;stroke-linejoin:miter;stroke-miterlimit:4;stroke-opacity:1;stroke-dasharray:none"
       d="m 390.93397,622.72272 0.70125,0.62375" />
    <path
       id="path5387"
       style="fill:none;stroke:#7b7979;stroke-width:0.59500003;stroke-linecap:round;stroke-linejoin:miter;stroke-miterlimit:4;stroke-opacity:1;stroke-dasharray:none"
       d="m 388.52434,623.56622 0.70125,0.62375" />
    <path
       id="path5403"
       style="fill:none;stroke:#7b7979;stroke-width:0.59500003;stroke-linecap:round;stroke-linejoin:miter;stroke-miterlimit:4;stroke-opacity:1;stroke-dasharray:none"
       d="m 448.66837,602.54259 0.9375,0" />
    <path
       id="path5415"
       style="fill:none;stroke:#7b7979;stroke-width:0.59500003;stroke-linecap:round;stroke-linejoin:miter;stroke-miterlimit:4;stroke-opacity:1;stroke-dasharray:none"
       d="m 448.04697,605.0426 0.9375,0" />
    <path
       style="fill: white; stroke: none; stroke-width: 0; fill-opacity: 0;"
       d="m 8.5539682,46.348379 -1.775582,1.049496 11.5005658,64.016055 2.09123,0.0894 z m 299.3677918,0.600346 -11.56972,64.474995 1.90504,-0.0432 11.4649,-63.64656 z"
       id="path3087"
       transform="translate(142.03125,511.75)"
       inkscape:connector-curvature="0"
       sodipodi:nodetypes="cccccccccc" />
    <path
       style="fill: white; stroke: none; stroke-width: 0; fill-opacity: 0;"
       d="m 250.00936,516.59355 -1.27987,0.25205 c 20.94704,33.29991 83.73673,34.24765 102.30471,-0.025 l -1.85267,-0.3096 c -18.67745,33.48742 -79.14934,30.04443 -98.23986,-0.23746 z"
       id="path3136"
       inkscape:connector-curvature="0"
       sodipodi:nodetypes="cccccc" />
    <text
       id="backnumbertxt">
      <tspan
         id="backnumber"
         class="backnumber base3"
         x="301"
         y="665"
         style="line-spacing:1px;">34</tspan>
    </text>
    <text
       id="backnametxt">
      <tspan
         id="backname"
         class="backname"
         x="302"
         y="585"
         style="line-spacing:1px;">LAST NAME</tspan>
      </text>
    <image
       y="547.04834"
       x="278.18399"
       id="tl6"
       xlink:href=""
       height="0"
       width="30"
       transform="matrix(0.9999367,-0.01125167,0.01125167,0.9999367,0,0)"
       clip-path="url(#clipPath3946)" />
    <image
       y="606.48303"
       x="-263.23358"
       id="tl8"
       xlink:href=""
       height="0"
       width="30"
       transform="matrix(0.51933029,-0.85457361,0.85457361,0.51933029,31.118301,16.718739)"
       clip-path="url(#clipPath3987)" />
    <image
       y="156.32306"
       x="484.90967"
       id="tl5"
       xlink:href=""
       height="0"
       width="30"
       transform="matrix(0.48391262,0.87511632,-0.87511632,0.48391262,74.932932,29.203421)"
       clip-path="url(#clipPath3232)"
       inkscape:label="tl5" />
    <path
       style="fill:#ffffff;stroke:none"
       d="m 129.35809,534.34128 20.62339,22.98485 44.3954,-24.24429 -19.83624,-13.69646 -43.76567,0.78716 z"
       id="logobleed1"
       class="logobleed"
       inkscape:connector-curvature="0"
       inkscape:label="#path3134" />
    <path
       style="fill:#ffffff;stroke:none"
       d="m 470.60547,534.62832 -20.62339,22.98485 -44.3954,-24.2443 19.83624,-13.69645 43.76568,0.78715 z"
       id="logobleed2"
       class="logobleed"
       inkscape:connector-curvature="0"
       inkscape:label="#path3134-1" />
    <path
       id="path5543-7"
       style="fill:none;stroke:#7b7979;stroke-width:0.59500003;stroke-linecap:round;stroke-linejoin:miter;stroke-miterlimit:4;stroke-opacity:1;stroke-dasharray:1.895, 2.5275;stroke-dashoffset:0"
       d="m 322.00231,521.76005 c 64.19125,25.52247 42.53895,81.01178 67.54716,101.66313"
       inkscape:connector-curvature="0"
       sodipodi:nodetypes="cc" />
    <path
       id="path5543-7-1"
       style="fill:none;stroke:#7b7979;stroke-width:0.59500003;stroke-linecap:round;stroke-linejoin:miter;stroke-miterlimit:4;stroke-opacity:1;stroke-dasharray:1.895, 2.5275;stroke-dashoffset:0"
       d="m 276.8752,522.31632 c -64.19125,25.52247 -42.53895,81.01178 -67.54716,101.66313"
       inkscape:connector-curvature="0"
       sodipodi:nodetypes="cc" />
  </g>
</svg>
