<?xml version="1.0" encoding="UTF-8" standalone="no"?>
<!-- Created with Inkscape (http://www.inkscape.org/) -->

<svg
   xmlns:dc="http://purl.org/dc/elements/1.1/"
   xmlns:cc="http://creativecommons.org/ns#"
   xmlns:rdf="http://www.w3.org/1999/02/22-rdf-syntax-ns#"
   xmlns:svg="http://www.w3.org/2000/svg"
   xmlns="http://www.w3.org/2000/svg"
   xmlns:sodipodi="http://sodipodi.sourceforge.net/DTD/sodipodi-0.dtd"
   xmlns:inkscape="http://www.inkscape.org/namespaces/inkscape"
   id="svg2"
   version="1.1"
   inkscape:version="0.48.4 r9939"
   width="1493.1899"
   height="562.50879"
   viewBox = "0 0 1493 562"
   xml:space="preserve"
   sodipodi:docname="Baseball.pdf"><metadata
     id="metadata8"><rdf:RDF><cc:Work
         rdf:about=""><dc:format>image/svg+xml</dc:format><dc:type
           rdf:resource="http://purl.org/dc/dcmitype/StillImage" /><dc:title></dc:title></cc:Work></rdf:RDF></metadata><defs
     id="defs6"><clipPath
       clipPathUnits="userSpaceOnUse"
       id="clipPath16"><path
         d="m 0,1296 1296,0 L 1296,0 0,0 0,1296 z"
         id="path18"
         inkscape:connector-curvature="0" /></clipPath></defs><sodipodi:namedview
     pagecolor="#ffffff"
     bordercolor="#666666"
     borderopacity="1"
     objecttolerance="10"
     gridtolerance="10"
     guidetolerance="10"
     inkscape:pageopacity="0"
     inkscape:pageshadow="2"
     inkscape:window-width="640"
     inkscape:window-height="480"
     id="namedview4"
     showgrid="false"
     fit-margin-top="0"
     fit-margin-left="0"
     fit-margin-right="0"
     fit-margin-bottom="0"
     inkscape:zoom="0.14567901"
     inkscape:cx="746.015"
     inkscape:cy="281.92183"
     inkscape:window-x="0"
     inkscape:window-y="0"
     inkscape:window-maximized="0"
     inkscape:current-layer="g10" /><g
     id="g10"
     inkscape:groupmode="layer"
     inkscape:label="Baseball"
     transform="matrix(1.25,0,0,-1.25,-63.985,1090.5869)"><g
       id="g12"><g
         id="g14"
         clip-path="url(#clipPath16)"><path
           d="m 221.252,571.611 0,-17.783 -0.936,0.649 -8.424,-5.905 9.36,-4.753 0,-5.183 -3.24,-2.52 -13.176,6.984 -5.688,-5.688 13.104,-6.336 -6.264,-6.263 -14.832,6.839 -5.76,-6.337 15.192,-6.335 -4.608,-4.392 -15.84,5.544 -4.176,-4.464 16.704,-5.399 -5.256,-5.473 -15.264,5.832 -3.744,-5.976 13.608,-5.545 -3.672,-4.967 -14.112,4.967 -2.304,-4.175 14.256,-5.256 0,-0.072 -2.952,-5.112 -13.68,5.615 -4.896,-9.503 -5.616,2.448 4.824,9.432 -8.64,5.543 3.384,6.12 8.064,-5.471 2.304,3.312 -7.272,5.112 2.88,6.12 7.776,-5.688 3.6,5.615 -7.2,5.977 4.176,4.968 7.56,-5.184 5.112,5.544 -6.768,6.84 3.96,4.392 7.272,-6.552 6.408,6.336 -6.048,10.223 5.904,5.401 7.2,-9.361 5.76,5.689 -6.336,9.504 7.272,6.408 6.48,-10.296 9.432,6.912 -5.472,12.672 7.2,4.68 3.384,-5.689 z m 0,129.817 0,-16.992 -2.592,4.536 -9.216,-5.976 4.752,-13.68 -8.424,-4.536 -4.824,13.032 -12.816,-5.832 1.584,-16.056 -7.632,-3.384 -2.448,16.128 -12.024,-4.824 1.872,-15.768 -8.64,-3.24 -1.008,15.984 -11.16,-4.68 1.512,-14.113 -10.296,-3.167 0.36,15.624 -9.144,-2.088 -0.36,-14.832 -9.72,-1.584 2.088,14.976 -8.856,-0.72 -2.304,-15.552 -6.48,0.289 0.792,13.607 -5.976,0.072 -1.584,-14.328 -5.904,0.144 0.648,13.536 -5.688,0.576 -1.584,-14.184 -5.976,0.288 0.36,12.672 -5.184,-0.216 -1.224,-12.384 -6.48,0.864 1.368,12.024 -6.984,0 1.152,6.336 5.688,-0.144 -0.72,9 5.184,-0.216 0.864,-8.64 6.624,0.072 -0.576,8.28 4.464,0.144 1.584,-7.776 6.192,-0.216 -2.448,8.496 5.472,0.576 3.312,-8.136 6.336,0.216 -4.32,9.288 6.48,1.584 4.248,-9.576 8.208,0.792 -5.616,9.576 6.336,2.16 6.192,-10.008 9.792,1.872 -6.192,11.088 6.696,2.448 8.136,-11.52 11.088,3.888 -9.216,11.304 7.632,3.384 9.504,-11.304 c 1.08,0.432 7.416,3.312 11.16,5.184 l -10.944,9.432 7.992,4.176 12.384,-9.792 10.728,4.608 -12.744,9.792 8.28,4.176 12.744,-8.712 10.152,4.968 -12.24,9.576 9.144,5.688 10.44,-8.28 z m 0,13.824 0,-4.176 -3.168,1.728 3.168,2.448 z m 0,81.432 C 151.124,796.756 85.532,752.98 61.052,683.14 55.148,666.076 51.836,649.156 51.188,632.452 l 0,-12.384 c 0.864,-23.4 7.056,-46.511 18.432,-69.263 29.808,-59.114 89.568,-93.385 151.632,-93.385 l 0,7.057 c -59.472,0 -116.712,32.758 -145.296,89.496 -40.392,80.207 -8.064,177.983 72.216,218.303 23.472,11.736 48.456,17.352 73.08,17.28 l 0,7.128 z m 43.992,-30.024 z m -43.992,-228.024 0,5.183 3.888,-2.088 -3.888,-3.095 z m 70.488,58.608 0,-8.28 -4.752,-1.655 4.752,-5.689 0,-7.488 -3.168,-1.441 -9.504,11.233 c -1.08,-0.36 -8.064,-2.808 -11.808,-4.68 l 11.592,-9.935 -8.856,-3.097 -11.52,8.712 -10.728,-4.535 11.448,-9.576 -8.208,-4.538 -12.168,9.504 -9.504,-5.687 12.24,-9.576 -9.144,-5.616 -11.16,8.928 0,17.783 3.096,-5.471 9.432,5.4 -4.752,13.68 8.424,4.608 4.824,-13.032 12.24,6.12 -2.88,15.191 8.352,3.313 3.6,-15.481 12.024,4.826 -1.872,15.767 8.64,3.24 1.008,-16.056 8.352,3.528 z m 0,174.384 0,-5.184 -2.376,-4.392 2.376,-1.872 0,-7.272 -4.32,4.392 -3.168,-4.68 6.552,-6.768 -3.168,-5.472 -6.768,6.696 -3.384,-4.824 5.976,-8.136 -4.32,-6.192 -5.832,8.496 -5.76,-6.264 5.472,-9 -3.96,-4.464 -5.904,8.712 -6.408,-6.264 6.048,-10.224 -5.904,-5.472 -7.2,9.36 -5.76,-5.688 6.336,-9.432 -7.272,-6.48 -6.48,10.368 -9.432,-6.912 5.472,-12.672 -7.056,-5.112 -4.248,7.56 0,16.992 1.656,-1.296 7.488,5.832 -9.144,5.112 0,4.176 3.888,3.24 13.248,-7.056 6.408,5.4 -13.824,6.696 6.264,6.264 14.832,-6.84 5.76,6.264 -15.192,6.408 4.608,4.392 15.84,-5.616 4.176,4.536 -16.704,5.4 5.256,5.4 15.768,-4.536 3.888,5.544 -15.192,4.392 3.024,5.688 15.696,-5.4 2.304,4.248 -14.256,5.184 1.656,3.6 1.656,1.728 13.32,-5.688 4.968,8.568 3.096,-1.44 z M 221.252,457.42 c 23.688,0 47.664,4.895 70.488,15.408 l 0,7.848 c -22.752,-11.016 -46.8,-16.199 -70.488,-16.199 l 0,-7.057 z m 55.944,329.76 c -18.504,6.48 -37.368,9.504 -55.944,9.504 l 0,-7.128 c 24.48,0 48.6,-5.544 70.488,-16.128 l 0,13.536 c -1.944,0.864 -3.816,1.728 -5.832,2.592 1.8,3.24 3.744,6.336 5.832,9.288 l 0,15.336 c -5.256,-6.12 -9.864,-12.888 -13.824,-20.376 -1.152,-2.088 -1.368,-4.32 -0.72,-6.624 m 14.544,-20.736 0,5.184 2.16,-1.008 -2.16,-4.176 z m 0,-13.536 0,7.272 5.76,-4.392 -3.384,-5.256 -2.376,2.376 z m 0,-178.776 4.464,1.944 -4.464,5.544 0,-7.488 z m 42.984,45.647 0,-29.014 -3.096,6.911 -8.208,-0.792 5.616,-9.649 -6.336,-2.159 -6.192,10.08 -9.792,-1.944 6.192,-11.017 -6.696,-2.519 -8.136,11.519 -6.336,-2.231 0,8.28 2.808,1.152 -1.512,14.112 10.296,3.168 -0.216,-14.401 9,1.513 0.36,14.256 9.72,1.584 -2.16,-14.976 8.928,0.72 2.304,15.552 3.456,-0.145 z m 0,139.609 c -12.6,10.944 -27,20.232 -42.984,27.576 l 0,-13.536 c 15.696,-7.488 30.24,-17.64 42.984,-30.024 l 0,15.984 z m 0,36.936 0,-14.904 c -1.944,1.512 -3.96,2.952 -5.976,4.392 1.584,3.816 3.6,7.344 5.976,10.512 m 0,47.16 C 318.236,837.796 303.476,827.788 291.74,814.18 l 0,-15.336 c 11.016,15.84 25.92,27.504 42.984,34.2 l 0,10.44 z M 291.74,472.828 c 1.944,0.863 3.816,1.729 5.688,2.664 4.464,2.232 8.208,4.321 12.456,6.985 0.36,-1.153 0.864,-2.017 1.584,-2.881 6.984,-8.783 14.832,-16.56 23.256,-23.256 l 0,12.024 c -5.76,5.039 -11.16,10.656 -16.2,16.776 5.76,3.887 11.088,7.992 16.2,12.383 l 0,13.105 c -11.664,-11.304 -25.128,-21.096 -40.464,-28.8 l -0.072,0 c -0.792,-0.36 -1.584,-0.792 -2.448,-1.152 l 0,-7.848 z m 42.984,117.937 1.152,-2.738 6.48,1.657 -4.32,9.216 6.336,0.288 3.312,-8.136 5.472,0.505 -2.448,8.567 6.192,-0.216 1.584,-7.776 4.464,0.072 -0.576,8.353 6.624,0.071 0.864,-8.64 5.184,-0.216 -0.72,9 5.688,-0.215 1.152,6.407 -6.984,-0.071 1.368,12.095 -6.48,0.791 -1.224,-12.383 -5.184,-0.144 0.36,12.672 -6.048,0.288 -1.44,-13.248 -5.76,-0.36 0.648,13.536 -5.904,0.144 -1.584,-14.4 -5.976,0.143 0.792,13.537 -3.024,0.215 0,-29.014 z m 0,-93.242 c 35.928,31.034 56.52,74.45 59.544,119.377 2.952,56.376 -19.296,107.64 -59.544,142.488 l 0,-15.984 c 12.6,-12.24 23.4,-26.784 31.68,-43.344 l 0.072,-0.072 c 32.688,-64.8 17.64,-141.192 -31.752,-189.36 l 0,-13.105 z m 426.383,302.833 0,-264.96 c -16.63,-3.672 -30.239,-15.912 -35.351,-33.12 -3.744,-15.696 2.664,-33.912 21.672,-34.848 0.288,-0.288 0.504,-0.575 0.648,-1.008 0.36,-0.576 0.432,-1.296 0.288,-2.017 -4.896,-12.095 -34.992,-12.672 -53.425,-11.447 -32.255,5.184 -58.967,13.536 -88.559,27.576 -5.04,2.088 -10.08,4.248 -15.12,6.192 -2.808,2.376 -6.768,3.024 -10.224,5.184 -5.04,2.016 -9.288,4.823 -14.256,6.696 -28.584,11.953 -54.72,17.711 -85.68,18.792 -18.144,0.577 -33.984,-6.984 -44.928,-21.457 -7.344,-7.847 -6.912,-20.231 0.936,-27.503 l 0.144,-0.144 c 2.232,-2.088 1.368,-6.624 -1.656,-6.84 -22.68,-1.944 -44.064,3.096 -63.432,14.976 L 354.38,487.3 c 44.28,48.6 64.368,109.513 58.536,170.856 -10.944,51.408 -36.72,92.088 -78.192,123.264 l 0,14.904 c 7.056,9.144 17.64,14.76 29.376,15.624 l 13.608,0.936 c -11.376,-12.24 -10.728,-31.32 1.44,-42.696 8.496,-7.92 19.872,-10.296 30.816,-6.336 11.232,1.008 20.52,4.968 29.016,12.456 9.504,7.632 19.08,14.472 28.944,20.592 36.648,27.504 75.24,41.184 121.032,42.84 37.368,1.872 69.84,-3.168 104.04,-16.2 23.184,-9.792 45.576,-17.424 68.111,-23.184 m 0,27.504 c -28.872,6.768 -29.878,11.664 -90.288,29.736 -64.223,19.152 -174.887,28.944 -224.927,-29.016 -1.584,-1.8 -5.472,0.648 -4.68,2.952 0.648,1.8 1.152,3.6 1.512,5.472 l 5.832,27.792 c 0.36,1.728 -1.44,3.024 -2.952,2.304 l -27.576,-13.608 c -9.936,-4.896 -19.8,-6.84 -31.032,-6.192 -18.144,3.312 -36.072,1.8 -52.272,-3.816 l 0,-10.44 c 15.768,6.192 33.264,8.208 51.264,5.256 10.512,-0.432 19.944,0.936 29.232,4.32 l 23.4,10.368 c -2.088,-20.16 -13.32,-36.36 -31.464,-45.432 -6.912,-3.312 -13.32,-7.488 -15.624,-12.96 14.112,-21.24 62.136,28.08 64.728,32.04 48.6,49.968 154.152,40.104 211.969,22.32 32.111,-12.672 61.631,-22.104 92.878,-29.592 l 0,8.496 z m 0,-342.648 0,-9.216 c -1.872,0.144 -3.743,0.576 -5.687,1.224 -3.168,0.36 -5.76,1.8 -7.776,4.32 -3.888,4.968 -3.096,12.168 1.872,16.128 3.6,3.456 7.488,6.264 11.591,8.64 l 0,-10.44 c -1.799,-1.368 -3.527,-2.88 -5.328,-4.68 -1.222,-1.152 -2.376,-2.375 -1.007,-4.104 0.936,-1.152 3.671,-1.728 6.335,-1.872 M 334.724,456.34 c 43.776,-34.776 104.76,-40.105 155.232,-10.8 l 23.328,18.216 c 0.864,0.721 1.008,1.944 0.36,2.808 -0.36,0.504 -0.864,0.72 -1.512,0.792 l -35.928,1.44 c -1.584,-0.072 -2.88,-0.504 -4.248,-1.296 -1.368,-0.792 -8.352,0.144 -8.28,3.456 2.232,4.824 8.136,8.279 12.96,9.648 44.496,3.96 57.744,-5.976 96.12,-25.488 57.24,-28.944 130.391,-48.456 188.351,-15.263 l 0,11.015 C 705.523,415.66 635.9,433.588 576.788,463.181 c -31.392,20.735 -64.152,29.231 -101.664,26.279 -10.224,-1.944 -32.112,-17.353 -12.672,-29.448 4.464,-2.808 9.72,-2.88 14.256,-0.216 l 10.512,0.647 c 2.448,0.145 3.312,-4.031 1.224,-5.399 -49.896,-29.952 -111.384,-23.688 -153.72,13.32 l 0,-12.024 z m 624.383,259.848 c -12.168,-1.512 -24.263,-0.216 -36.647,3.888 -8.784,1.296 -15.336,9 -15.048,18.072 -0.217,7.56 3.168,14.616 8.928,19.08 2.736,2.016 5.616,3.672 8.568,5.04 8.569,4.824 16.848,7.344 26.352,7.92 0.935,0.072 1.368,1.512 0.576,1.944 -5.832,3.456 -12.313,4.536 -19.225,3.096 -8.927,-0.504 -17.567,-1.944 -26.855,-4.536 -22.609,-3.456 -43.561,-6.192 -67.536,-8.712 -0.576,1.656 1.44,2.664 1.728,4.68 1.224,1.584 6.264,7.056 11.232,11.52 l 9.36,8.352 -14.4,0.864 c -29.808,1.8 -57.529,5.976 -85.033,12.96 l 0,-264.96 c 4.393,1.007 9.073,1.369 13.825,1.007 29.088,-2.376 54.36,-6.55 81.36,-13.535 21.023,-5.616 39.24,-8.425 60.912,-9.576 10.655,-0.792 21.527,-1.439 33.048,-1.872 3.023,0.576 5.977,1.224 8.855,2.016 l 0,29.377 c -1.294,1.006 -2.735,1.798 -4.462,2.087 -6.193,7.704 -4.681,13.464 -4.393,15.48 0,0.576 0.072,1.08 0.072,1.656 0.504,8.568 3.744,16.273 8.783,22.464 l 0,131.688 z m 0,32.688 0,-12.312 c -3.815,0 -7.559,0.36 -11.376,0.504 -5.975,1.44 -12.239,0.936 -17.783,2.88 -0.288,0.288 -0.432,0.576 -0.432,0.72 l 0,0.36 c 0.936,0.288 1.873,0.648 2.016,1.224 0.144,0.504 0.504,0.648 0.648,0.792 1.224,0.648 2.664,1.08 3.744,2.088 4.248,2.016 9.144,3.744 14.328,3.744 2.809,-0.288 5.832,-0.072 8.855,0 m 0,52.344 c -16.199,3.888 -33.046,5.04 -47.807,1.44 4.248,4.824 7.704,9.36 10.944,14.472 l 25.344,39.744 c 1.008,1.584 -0.864,3.384 -2.448,2.376 l -43.272,-28.584 c -30.6,-20.232 -53.929,-18.288 -91.08,-12.096 -23.761,3.888 -38.736,6.696 -49.681,9.288 l 0,-8.496 c 15.481,-3.672 31.321,-6.84 48.168,-9.72 37.585,-10.296 73.872,-3.744 105.481,19.08 0.504,0.432 1.224,0.504 1.872,0.216 0.864,-0.432 1.225,-1.512 0.792,-2.448 -8.352,-14.04 -17.784,-24.552 -30.816,-34.416 -5.543,-3.744 -12.816,-8.352 1.44,-5.688 4.752,0.36 8.784,1.296 13.176,3.168 16.776,8.352 38.089,7.416 57.887,2.376 l 0,9.288 z m -198,-305.352 0,10.44 c 16.706,9.432 36.577,10.224 54.721,1.44 40.104,-13.032 76.031,-18.288 118.224,-17.352 6.12,-0.36 16.128,0.577 25.055,2.808 l 0,-9.288 c -8.927,-2.017 -18.143,-2.664 -25.055,-2.52 -43.273,-1.728 -80.136,3.672 -121.104,17.785 -19.872,6.624 -35.425,9.215 -51.841,-3.313 m 0,-56.015 c 6.265,3.527 12.385,7.775 18.289,12.599 10.584,10.944 18.504,21.528 25.848,34.487 0.72,1.369 -0.36,3.168 -1.872,3.025 l -37.08,-4.608 c -1.008,-0.144 -3.023,-0.288 -5.185,-0.144 l 0,-9.216 c 2.088,-0.143 4.249,0 6.553,0.432 l 19.584,3.024 c 2.233,0.361 3.672,-2.88 2.159,-4.536 -8.926,-9.864 -18.359,-17.784 -28.296,-24.048 l 0,-11.015 z m 198,296.711 0,12.312 c 3.601,0 7.202,-0.144 10.441,-1.584 1.727,0.144 3.599,0.288 4.895,-0.648 l 13.969,-2.304 c 0.145,0 0.288,-0.36 0.288,-0.648 -0.143,-0.504 -0.432,-0.648 -0.792,-0.792 -1.08,0.144 -1.872,-0.504 -2.448,-0.936 -0.647,-0.144 -0.792,0.288 -1.296,0.144 -1.728,-0.936 -4.248,-0.936 -6.264,-2.16 -3.961,-1.008 -7.848,-2.088 -12.096,-2.88 -2.232,-0.36 -4.464,-0.504 -6.697,-0.504 m 0,-223.128 0,29.377 c 3.313,-2.593 5.761,-6.697 10.009,-7.92 l 0.792,-1.153 c 3.456,-2.88 7.848,-3.312 12.312,-3.384 2.52,-0.072 3.456,-4.392 1.296,-5.833 -7.632,-5.111 -15.623,-8.71 -24.409,-11.087 m 37.873,76.824 c -2.232,0.072 -4.608,-0.072 -7.056,-0.432 -17.065,4.104 -27,-19.656 -10.944,-28.368 4.536,1.224 9.288,0.288 13.968,2.305 1.296,0.215 2.663,0.43 4.032,0.575 l 0,9.144 c -1.8,-0.215 -3.6,-0.432 -5.472,-0.793 -0.649,-0.143 -1.224,-0.288 -1.8,-0.503 -1.513,-0.577 -2.808,-0.864 -4.319,-0.864 -1.513,-0.072 -2.737,-0.143 -4.249,-0.36 -1.296,1.727 -1.583,3.815 -0.865,5.832 0.937,3.24 4.177,5.112 7.416,4.32 1.297,-0.36 2.449,-0.36 3.745,-0.143 1.873,0.359 3.744,0.43 5.544,0.359 l 0,8.928 z m 0,100.152 0,-91.656 -4.896,0.144 c -13.248,0.791 -25.271,-4.896 -32.977,-14.4 l 0,131.688 c 7.057,0.936 14.113,2.808 21.313,5.688 3.889,2.232 8.352,2.088 12.096,-0.36 l -1.224,-3.672 c -5.832,-9.288 -3.24,-21.312 5.688,-27.432 m 0,96.552 c -11.087,5.76 -24.264,10.944 -37.873,14.256 l 0,-9.288 c 13.752,-3.528 26.786,-9 37.081,-14.688 0.216,-0.144 0.503,-0.288 0.792,-0.36 l 0,10.08 z M 959.107,483.916 c 8.929,2.016 17.497,5.399 23.113,10.584 5.112,4.968 9.936,9.647 14.76,14.184 l 0,12.384 c -6.84,-6.48 -13.68,-13.032 -20.953,-20.088 -3.455,-3.384 -9.863,-5.976 -16.92,-7.776 l 0,-9.288 z m 114.624,108.937 0,-21.817 c -1.439,0.288 -2.878,0.648 -4.319,1.008 -3.023,1.151 -6.767,2.231 -8.928,4.608 l -12.6,6.984 c -3.672,0.504 -10.728,1.224 -12.744,3.96 0.072,0.719 0.36,1.368 0.648,1.585 0.216,0.359 0.864,0.43 0.864,0.647 0.072,0.288 0.072,0.504 0.072,0.792 0.215,0.72 0.648,0.792 0.719,1.8 4.321,5.616 12.817,5.112 19.584,6.624 5.618,-0.504 10.297,-2.088 15.193,-5.112 0.36,-0.288 0.719,-0.792 1.08,-0.864 l 0.431,-0.215 z m 0,42.55 c -4.967,-0.215 -9.863,-1.439 -14.758,-3.598 -0.362,-0.289 -0.649,-0.576 -0.793,-0.576 -4.104,0.214 -7.632,-1.009 -10.728,-3.672 9,-3.601 17.928,-5.833 26.279,-9.937 l 0,17.783 z m 0,62.713 0,-49.608 c -7.847,-2.447 -15.191,-5.112 -22.463,-8.065 -9.864,-5.04 -18.791,-8.351 -29.664,-10.871 -2.736,-2.015 -4.825,-5.112 -5.4,-8.712 -1.224,-7.344 3.744,-14.256 11.016,-15.48 0.936,-0.145 1.656,-0.216 2.52,-0.145 4.248,-0.792 8.424,-0.359 4.392,-6.047 -3.096,-3.383 -17.208,-2.736 -21.313,-0.936 l -15.839,0.504 0,91.656 c 0.288,-0.216 0.577,-0.36 0.864,-0.504 3.095,-1.944 6.12,-2.88 9.792,-3.024 9.504,-0.936 21.528,-4.248 30.887,1.656 12.097,4.176 23.545,7.272 35.208,9.576 m 0,33.192 c -6.335,-1.584 -13.319,-3.24 -21.095,-4.752 1.44,6.48 -5.113,13.536 -9.864,18.144 -5.112,-0.144 0.072,3.24 7.632,8.064 9.216,5.904 16.992,12.744 23.327,20.664 l 0,23.904 -23.04,-11.304 c -15.983,-7.848 -33.695,-8.136 -50.544,-0.72 -1.079,0.504 -2.086,1.08 -3.167,1.656 l 0,-10.08 c 6.768,-2.808 13.104,-4.176 20.592,-4.32 16.632,-2.952 31.896,0.504 45.575,10.368 2.233,1.512 5.113,-0.432 4.033,-2.88 -7.92,-17.784 -39.456,-31.536 -57.96,-37.512 9.792,1.584 38.16,-3.672 37.009,-12.672 -0.505,-1.08 -1.729,-1.08 -1.729,-2.376 -16.128,4.608 -32.473,-0.864 -42.552,-14.256 20.088,0.288 37.008,2.16 56.663,6.12 5.041,2.088 10.08,4.032 15.12,5.616 l 0,6.336 z M 996.98,508.684 c 10.799,10.296 21.167,20.088 32.904,30.888 1.944,1.8 3.888,3.024 6.336,4.032 4.464,1.728 7.488,5.184 8.712,9.864 9.36,-4.248 17.784,-6.768 28.007,-8.208 0.217,0 0.504,-0.072 0.792,-0.144 l 0,9.144 c -19.295,3.024 -38.015,12.168 -51.047,24.12 -10.152,8.28 -17.136,11.664 -25.704,11.88 l 0,-8.928 c 4.463,-0.216 8.64,-1.728 12.6,-4.464 1.655,-1.08 2.952,-2.015 4.536,-3.168 -6.048,0.504 -11.448,0.432 -17.136,-0.216 l 0,-9.144 c 12.672,1.439 24.12,0.36 36.648,-3.527 4.248,-1.297 3.311,-7.202 -0.792,-8.929 -3.527,-1.441 -6.264,-3.168 -9.072,-5.689 -9.504,-8.783 -18.144,-16.92 -26.784,-25.127 l 0,-12.384 z m 76.751,62.352 0,21.817 14.113,-7.417 c 2.088,-3.241 17.856,-8.136 21.095,-6.768 2.954,-1.08 3.672,-2.16 3.385,-5.616 -4.248,-3.529 -21.456,-6.048 -26.856,-4.176 -4.176,0.647 -7.848,1.296 -11.737,2.16 m 43.489,109.008 c -4.752,-1.224 -8.496,-5.256 -9,-10.368 -0.72,-6.048 3.24,-11.592 9,-12.96 l 0,11.088 c -0.073,0.288 -0.073,0.576 0,0.936 l 0,0.216 0,11.088 z m 0,19.584 0,-0.288 -0.72,-1.512 c -1.728,-1.296 -4.393,-1.944 -7.057,-3.168 -7.559,-2.808 -13.607,-6.264 -20.015,-11.304 -10.367,-7.488 -11.16,-7.92 -4.968,-18.144 l 3.097,-2.016 10.511,-3.528 c 0.216,0.216 0.648,0.216 0.791,0.216 l 4.393,-1.512 c 0.648,-0.864 1.008,-2.52 0.648,-3.528 -1.296,-0.864 -21.024,-3.888 -23.255,-4.176 -2.377,-0.72 -4.681,-1.44 -6.914,-2.16 l 0,49.608 c 10.584,2.088 21.313,3.456 32.977,4.248 2.231,-0.648 4.752,0.504 6.48,-0.864 1.44,0.36 3.312,-0.144 3.888,-1.152 0,-0.288 0.071,-0.504 0.144,-0.72 m -43.489,73.8 c 5.977,7.56 10.801,16.128 14.544,25.92 1.153,2.16 -1.223,4.536 -3.382,3.456 l -11.162,-5.472 0,-23.904 z m 43.489,-31.464 c -12.96,-1.944 -25.848,-6.192 -43.489,-10.656 l 0,-6.336 c 14.473,4.752 28.945,7.416 43.489,8.064 l 0,8.928 z m 0,-144.504 c -1.008,0.504 -2.016,1.008 -2.952,1.513 -9.791,6.336 -18.36,12.959 -27.504,21.167 -2.016,1.799 -7.92,4.967 -10.512,6.263 1.8,-0.071 3.312,-0.215 5.111,-0.575 12.53,-7.056 23.689,-13.104 35.857,-19.296 l 0,10.008 c -0.216,0.144 -0.432,0.288 -0.575,0.36 -11.377,5.976 -20.881,11.161 -32.113,17.424 -3.744,0.864 -7.272,1.224 -10.801,1.079 l 0,-17.783 c 2.376,-1.224 4.753,-2.52 7.057,-4.177 11.952,-10.511 23.04,-18.719 36.432,-26.855 l 0,10.872 z m -43.489,-52.344 c 15.409,-2.807 30.025,-1.223 43.489,4.536 l 0,9.936 c -13.32,-6.336 -28.584,-7.632 -43.489,-5.328 l 0,-9.144 z m 43.489,154.224 0,0.288 c 0,-0.072 0.072,-0.144 0.072,-0.144 l -0.072,-0.144 z m 39.24,-58.68 0,-23.328 -10.44,6.264 -7.848,6.84 c -0.359,0.288 -0.504,0.432 -0.504,0.793 -1.872,0.935 -4.248,1.798 -5.616,3.311 l -3.456,1.512 -4.608,2.88 -1.08,1.44 0,0.359 1.08,2.809 1.584,0.504 c 0.504,1.513 0.432,1.584 1.871,2.16 2.233,0.72 3.313,-2.448 5.689,-1.801 l 23.328,-3.743 z m 0,25.2 0,-9.36 c -9.72,2.592 -19.008,3.24 -29.304,2.016 -2.52,-1.728 -5.183,-2.448 -8.208,-2.088 -0.648,0 -1.152,0.144 -1.728,0.288 l 0,11.088 c 0.216,-1.296 1.368,-2.304 2.736,-2.448 0.792,-0.072 1.44,0.144 2.017,0.576 1.295,0.864 2.519,1.368 4.031,1.512 10.727,1.368 20.376,0.864 30.456,-1.584 m 0,14.328 0,-8.856 c -10.656,2.304 -21.815,2.304 -33.336,0.216 -0.864,-0.216 -1.656,-0.216 -2.592,-0.144 -1.584,0.144 -3.024,-0.936 -3.312,-2.448 l 0,11.088 c 1.368,0.36 2.736,0.432 4.248,0.36 12.096,2.016 23.832,1.944 34.992,-0.216 m 0,36.432 0,-20.016 c -8.136,1.368 -16.632,1.656 -25.272,0.936 -5.4,-0.864 -5.616,-0.648 -4.536,4.752 l 4.896,14.472 c 8.496,1.152 16.848,1.08 24.912,-0.144 m 0,23.472 c -15.552,3.528 -27.433,3.672 -39.24,1.872 l 0,-8.928 c 13.032,0.576 26.064,-0.432 39.24,-3.096 l 0,10.152 z m -39.24,-133.56 0,10.008 c 15.12,-9.216 26.568,-11.448 39.24,-10.513 l 0,-9.287 c -9.792,-0.648 -19.225,0.864 -28.944,4.535 -3.6,1.801 -6.984,3.53 -10.296,5.257 m 0,-56.88 c 6.768,2.952 13.248,6.984 19.368,12.024 l 19.872,17.568 0,6.84 c -14.04,1.368 -26.424,5.04 -39.24,11.376 l 0,-10.872 c 1.009,-0.649 2.089,-1.296 3.169,-1.944 l 20.591,0.503 c 2.592,0 5.4,-2.952 2.592,-5.399 l -12.888,-11.305 c -4.176,-3.599 -8.711,-6.55 -13.464,-8.855 l 0,-9.936 z m 39.24,146.952 0,20.016 c 31.464,-4.608 58.176,-26.208 68.976,-57.888 -2.088,-4.032 -6.913,-1.152 -9.073,1.08 -15.407,20.232 -36.216,32.832 -59.903,36.792 m 0,-79.272 0,23.328 18.936,-3.096 c 8.064,-4.824 6.839,-14.544 -1.583,-18.36 l -9.721,-2.664 -6.119,-0.144 -1.513,0.936 z m 0,-20.592 c 3.815,0.287 7.704,0.864 11.735,1.728 6.624,1.223 12.168,2.376 18.721,3.96 4.68,-0.072 8.641,-0.864 12.888,-2.737 l 18.936,-8.207 c 1.728,-0.793 3.455,0.791 2.951,2.592 l -6.191,19.729 c -2.232,7.199 -6.048,16.991 -6.336,18.791 5.472,-13.321 13.68,-23.256 25.775,-31.104 1.441,-1.44 3.889,-0.792 4.321,1.152 l 3.816,15.408 c 1.44,6.048 2.304,12.095 2.664,18.072 l 0,10.655 c -2.088,37.153 -25.56,70.849 -62.351,84.961 -10.225,3.816 -19.08,6.48 -26.929,8.352 l 0,-10.152 c 7.849,-1.656 15.696,-3.816 23.687,-6.552 42.41,-16.704 65.088,-61.632 53.498,-105.697 -0.793,-3.168 -5.905,-3.527 -7.273,-0.503 -7.849,17.28 -16.849,30.816 -29.808,44.64 -12.457,9.504 -25.848,15.624 -40.104,18.36 l 0,-8.856 c 12.097,-2.592 23.472,-7.992 34.056,-16.2 1.873,-2.016 3.457,-3.744 5.256,-5.904 -9.577,8.352 -19.799,12.96 -32.329,14.688 -2.375,0.72 -4.679,1.368 -6.983,1.944 l 0,-9.36 c 1.656,-0.432 3.24,-0.936 4.968,-1.44 18.431,-2.52 33.049,-12.96 41.4,-29.592 l 6.048,-12.529 c 1.584,-3.382 -2.088,-6.407 -5.544,-4.966 -5.832,2.375 -11.16,3.455 -17.424,3.455 -11.448,-2.52 -20.736,-4.752 -29.448,-5.401 l 0,-9.287 z m 0,-17.496 3.456,3.025 c 1.368,1.223 0.359,3.455 -1.439,3.599 -0.721,0.071 -1.37,0.144 -2.017,0.216 l 0,-6.84 z"
           style="fill:#231f20;fill-opacity:1;fill-rule:nonzero;stroke:none"
           id="path20"
           inkscape:connector-curvature="0" /></g></g><rect
       style="fill:none;stroke:none"
       id="rect2997"
       width="1462.1187"
       height="1063.983"
       x="102.9661"
       y="336.35593"
       transform="matrix(0.8,0,0,-0.8,0,1296)" /></g></svg>