<?xml version="1.0" encoding="UTF-8" standalone="no"?>
<!-- Created with Inkscape (http://www.inkscape.org/) -->

<svg
   xmlns:dc="http://purl.org/dc/elements/1.1/"
   xmlns:cc="http://creativecommons.org/ns#"
   xmlns:rdf="http://www.w3.org/1999/02/22-rdf-syntax-ns#"
   xmlns:svg="http://www.w3.org/2000/svg"
   xmlns="http://www.w3.org/2000/svg"
   xmlns:sodipodi="http://sodipodi.sourceforge.net/DTD/sodipodi-0.dtd"
   xmlns:inkscape="http://www.inkscape.org/namespaces/inkscape"
   id="svg2"
   version="1.1"
   inkscape:version="0.48.4 r9939"
   width="411.89023"
   height="409.05548"
   viewBox = "0 0 411 409"
   xml:space="preserve"
   sodipodi:docname="Baseball (12).pdf"><metadata
     id="metadata8"><rdf:RDF><cc:Work
         rdf:about=""><dc:format>image/svg+xml</dc:format><dc:type
           rdf:resource="http://purl.org/dc/dcmitype/StillImage" /><dc:title></dc:title></cc:Work></rdf:RDF></metadata><defs
     id="defs6"><clipPath
       clipPathUnits="userSpaceOnUse"
       id="clipPath16"><path
         d="M 0,792 612,792 612,0 0,0 0,792 z"
         id="path18"
         inkscape:connector-curvature="0" /></clipPath></defs><sodipodi:namedview
     pagecolor="#ffffff"
     bordercolor="#666666"
     borderopacity="1"
     objecttolerance="10"
     gridtolerance="10"
     guidetolerance="10"
     inkscape:pageopacity="0"
     inkscape:pageshadow="2"
     inkscape:window-width="640"
     inkscape:window-height="480"
     id="namedview4"
     showgrid="false"
     inkscape:zoom="0.23838384"
     inkscape:cx="275.06"
     inkscape:cy="210.09"
     inkscape:window-x="0"
     inkscape:window-y="0"
     inkscape:window-maximized="0"
     inkscape:current-layer="g10"
     fit-margin-top="0"
     fit-margin-left="0"
     fit-margin-right="0"
     fit-margin-bottom="0" /><g
     id="g10"
     inkscape:groupmode="layer"
     inkscape:label="Baseball (12)"
     transform="matrix(1.25,0,0,-1.25,-107.44,693.96548)"><g
       id="g12"><g
         id="g14"
         clip-path="url(#clipPath16)"><path
           d="m 414.68,389.487 c 2.134,2.477 -0.709,11.091 -1.212,12.305 -0.066,0.147 -0.136,0.289 -0.207,0.425 0.31,0.206 0.599,0.446 0.827,0.762 1.096,1.5 1.114,5.739 -0.504,8.956 -0.104,0.2 -0.22,0.394 -0.362,0.561 -0.774,0.986 -1.734,1.825 -2.74,2.515 -7.022,45.773 -33.166,85.246 -69.997,110.015 -1.303,2.231 -2.802,4.191 -3.221,4.668 -0.075,0.084 -0.149,0.162 -0.23,0.233 -0.967,0.916 -8.089,6.693 -11.152,5.527 -0.542,-0.201 -0.951,-0.6 -1.296,-1.045 -0.517,0.264 -1.032,0.529 -1.545,0.793 -0.89,0.812 -1.754,1.56 -2.551,2.186 0.02,0.135 0.149,0.245 0.149,0.38 0,0.484 -0.11,0.981 -0.313,1.477 -0.48,1.193 -1.818,1.838 -3.098,1.929 -1.58,0.115 -2.87,-0.433 -3.875,-1.432 -0.775,0.322 -1.568,0.612 -2.345,0.928 0.039,0.2 0.133,0.4 0.133,0.606 0,0.549 -0.142,1.102 -0.436,1.619 -0.773,1.361 -2.36,1.96 -3.862,1.502 l -3.152,-0.966 c -1.957,0.69 -3.923,1.36 -5.916,1.979 0,0.032 0.013,0.065 0.013,0.104 0,0.406 -0.074,0.818 -0.232,1.218 -0.603,1.516 -2.193,2.354 -3.788,2.025 l -4.679,-0.967 c -2.054,0.509 -4.108,1.006 -6.194,1.432 -0.013,0.411 -0.081,0.825 -0.254,1.218 -0.659,1.528 -2.328,2.321 -3.937,1.895 l -5.492,-1.456 c -2.85,0.406 -5.723,0.734 -8.619,0.986 -0.051,0.361 -0.144,0.722 -0.322,1.065 -0.773,1.488 -2.521,2.159 -4.102,1.592 l -5.829,-2.083 c -1.409,0.032 -2.818,0.103 -4.243,0.103 -0.178,0 -0.361,-0.013 -0.545,-0.013 -0.064,0.316 -0.165,0.632 -0.329,0.929 -0.819,1.47 -2.589,2.096 -4.156,1.477 l -6.31,-2.477 c -0.116,-0.045 -0.361,-0.219 -0.6,-0.399 -2.215,-0.162 -4.417,-0.348 -6.603,-0.6 -0.071,0.2 -0.136,0.399 -0.245,0.587 -0.851,1.437 -2.628,2.012 -4.173,1.366 l -5.926,-2.47 -3.395,-1.618 c -0.352,-0.071 -0.703,-0.148 -1.048,-0.22 -0.08,0.194 -0.148,0.382 -0.271,0.562 -0.929,1.374 -2.712,1.838 -4.207,1.122 l -5.35,-2.547 c -0.116,-0.058 -0.402,-0.316 -0.68,-0.567 -0.084,-0.02 -0.174,-0.039 -0.174,-0.039 -1.357,-0.283 -2.763,-0.839 -3.899,-2.29 -0.438,-0.129 -0.867,-0.277 -1.302,-0.412 -0.03,0.051 -0.026,0.116 -0.061,0.174 -0.865,1.393 -2.596,1.934 -4.115,1.309 l -5.11,-2.102 -5.259,-2.547 c -1.065,-0.51 -1.687,-1.496 -1.797,-2.671 -0.016,-0.135 -0.012,-0.257 -0.021,-0.387 -1.139,-0.509 -2.287,-1.018 -3.415,-1.547 -0.023,0.039 -0.036,0.077 -0.062,0.11 -0.948,1.225 -2.56,1.611 -3.975,0.98 l -3.734,-1.67 c -0.938,-0.426 -1.5,-1.194 -1.751,-2.193 -0.206,-0.832 -0.245,-1.547 -0.229,-2.225 -1.554,-0.864 -3.098,-1.74 -4.62,-2.657 -0.029,-0.006 -0.113,-0.045 -0.107,-0.032 0,-0.006 0.061,0.013 0.075,0.013 -0.652,-0.387 -1.293,-0.787 -1.941,-1.186 -1.594,0.431 -2.751,0.548 -2.983,0.568 -1.238,0.109 -2.441,-0.478 -3.115,-1.523 -0.616,-0.954 -0.681,-2.141 -0.226,-3.166 -0.799,-0.549 -1.58,-1.122 -2.376,-1.69 -1.831,0.503 -3.415,0.375 -3.669,0.348 -0.91,-0.096 -1.738,-0.561 -2.299,-1.283 -0.565,-0.722 -0.802,-1.638 -0.67,-2.54 0.019,-0.136 0.102,-0.62 0.302,-1.278 -37.721,-29.728 -61.971,-75.791 -61.971,-127.541 0,-4.837 0.251,-9.616 0.667,-14.348 -0.2,-0.046 -0.397,-0.078 -0.616,-0.174 -1.205,-0.535 -1.854,-1.871 -1.854,-3.198 0,-0.446 0.074,-0.891 0.226,-1.31 l 0.171,-0.471 c 0.471,-1.347 1.619,-4.412 3.766,-7.92 0.003,-0.031 0.007,-0.05 0.009,-0.077 -0.135,-0.006 -0.273,0.014 -0.402,-0.012 -1.361,-0.336 -2.571,-1.168 -2.742,-2.554 -0.012,-0.083 -0.016,-0.168 -0.016,-0.259 0,-0.387 0.262,-0.992 0.42,-1.515 -0.03,0.027 -0.074,0.039 -0.1,0.071 0,0 0.103,-0.103 0.11,-0.116 0.793,-2.567 3.108,-6.151 5.445,-8.538 0.081,-0.309 0.175,-0.613 0.255,-0.922 -0.777,-0.477 -1.438,-1.135 -1.864,-1.62 -1.002,-1.049 -3.024,-3.177 -1.077,-5.525 0.142,0.155 0.555,-0.406 0.555,-0.406 0.552,-0.736 1.222,-1.534 2.002,-2.18 0.197,-0.238 0.442,-0.529 0.71,-0.825 -0.703,-1.238 -1.142,-4.798 0.96,-7.867 0.162,-0.233 0.355,-0.452 0.575,-0.639 1.683,-1.458 3.698,-2.006 5.307,-2.096 24.495,-58.573 82.353,-99.768 149.835,-99.768 79.815,0 146.178,57.729 159.702,133.669 0.186,-0.007 0.341,-0.052 0.541,-0.039 1.528,0.103 2.573,1.76 2.849,3.269 0.549,2.923 1.555,10.615 -0.888,19.019 -0.02,0.128 -0.059,0.237 -0.083,0.367 0.051,1.386 0.089,2.778 0.102,4.171 0.902,0.058 1.768,0.421 2.36,1.103"
           style="fill:#231f20;fill-opacity:1;fill-rule:nonzero;stroke:none"
           id="path20"
           inkscape:connector-curvature="0" /><path
           d="m 247.321,548.105 c -0.155,0 -0.31,-0.006 -0.465,-0.012 l -0.006,-0.007 c 0.151,0 0.303,-0.007 0.458,-0.007 0.006,0.007 0.01,0.02 0.013,0.026"
           style="fill:#ffffff;fill-opacity:1;fill-rule:nonzero;stroke:none"
           id="path22"
           inkscape:connector-curvature="0" /><path
           d="m 94.678,386.244 c 0,0 0.754,-0.962 1.483,-1.896 -0.017,0.083 -0.01,0.173 -0.033,0.256 0,0 0.058,-0.224 0.084,-0.328 0.545,-0.695 1.119,-1.424 1.119,-1.424 0.98,-1.658 2.418,-4.039 4.214,-6.648 -4.182,6.782 -5.2,13.276 -5.562,15.914 l -0.1,0.684 c -0.029,0.187 -0.042,0.374 -0.042,0.567 0,1.528 0.851,3.167 2.286,3.579 1.938,0.548 3.07,-0.394 3.995,-1.804 0.004,-0.014 0.01,-0.02 0.016,-0.027 0.416,-0.644 0.803,-1.354 1.18,-2.115 1.396,-2.8 3.97,-7.944 7.813,-13.059 0.068,0.767 0.161,1.516 0.265,2.257 -5.666,7.726 -7.339,15.438 -7.861,18.057 l -0.11,0.529 c -0.049,0.252 -0.074,0.502 -0.074,0.754 0,1.302 0.757,2.457 1.847,3.069 0.065,0.046 0.12,0.103 0.187,0.135 0.161,0.078 0.246,0.266 0.423,0.31 0.39,0.096 0.715,0.078 1.045,0.059 0.273,-0.007 0.55,-0.046 0.828,-0.136 0.368,-0.123 0.458,-0.407 0.719,-0.593 0.31,-0.238 0.661,-0.426 0.926,-0.761 0.096,-0.162 0.213,-0.277 0.286,-0.438 0.355,-0.51 0.713,-0.987 1.058,-1.587 1.155,-2.024 3.234,-5.642 6.046,-9.673 -3.399,6.629 -4.495,12.562 -4.869,14.774 l -0.097,0.536 c -0.035,0.211 -0.058,0.438 -0.058,0.67 0,0.722 0.197,1.484 0.603,2.044 0.542,0.735 1.309,1.374 2.215,1.503 0.258,0.038 0.477,0 0.703,-0.014 0.297,0 0.593,-0.044 0.893,-0.154 0.354,-0.123 0.436,-0.407 0.687,-0.593 0.29,-0.226 0.655,-0.44 0.916,-0.788 0.109,-0.18 0.229,-0.316 0.306,-0.502 0.4,-0.607 0.784,-1.162 1.248,-2.025 1.509,-2.831 4.279,-7.983 7.893,-13.49 0.21,0.128 0.426,0.245 0.638,0.367 0.004,0.013 0.01,0.032 0.014,0.052 -3.477,5.171 -5.924,13.393 -6.14,17.96 -0.048,0.154 -0.097,0.308 -0.123,0.45 0.01,-0.058 0.072,-0.09 0.087,-0.149 -0.006,0.123 -0.054,0.318 -0.054,0.433 0,0.948 0.119,1.67 0.368,2.089 0.629,1.058 1.889,1.413 3.114,1.368 1.225,-0.045 2.438,-1.039 2.989,-2.135 l 7.323,-14.58 c -2.006,4.584 -4.437,11.659 -4.711,15.902 -0.081,0.303 -0.232,0.613 -0.232,0.922 0,0.38 0.071,0.767 0.212,1.18 0.043,0.117 0.155,0.167 0.207,0.272 0.048,0.128 0.026,0.367 0.094,0.463 0.222,0.362 0.515,0.582 0.832,0.755 0.67,0.51 1.505,0.781 2.401,0.677 1.454,-0.167 2.525,-1.342 2.815,-2.754 0,0.11 0.004,0.362 0.004,0.362 l 0.835,-1.458 c 1.528,-2.566 4.478,-7.596 7.1,-15.218 0.355,0.076 0.712,0.135 1.067,0.213 -1.19,4.166 -2.638,11.536 -2.638,16.495 0,0.651 0.078,1.155 0.133,1.701 -0.007,0.092 -0.097,0.247 -0.097,0.33 0,0.517 0.113,1 0.367,1.528 0.062,0.137 0.197,0.188 0.278,0.304 0.074,0.154 0.106,0.406 0.2,0.509 0.116,0.136 0.29,0.085 0.419,0.187 0.803,0.677 1.851,1.007 2.944,0.722 1.421,-0.367 2.347,-1.69 2.428,-3.134 0.015,0.097 0.045,0.322 0.045,0.322 l 0.612,-1.664 c 1.061,-2.773 3.108,-8.189 4.595,-15.998 0.336,0.025 0.671,0.071 1.006,0.084 -1.371,3.314 -2.625,8.292 -2.625,15.87 0,0.644 0.01,1.302 0.023,1.98 l 0.013,0.348 c 0.039,1.637 1.303,2.812 2.925,3.057 1.618,0.232 3.23,-0.923 3.736,-2.477 l 0.558,-1.709 c 0.952,-2.799 2.85,-8.434 4.882,-16.972 0.919,-0.039 1.841,-0.09 2.763,-0.149 -2.324,6.313 -2.805,12.046 -2.805,15.381 0,0.864 0.026,1.56 0.042,2.082 l 0.016,0.677 c 0.007,0.367 0.261,0.684 0.377,1.045 0.068,0.252 0.132,0.477 0.252,0.697 0.213,0.412 0.431,0.69 0.761,0.992 0.016,0.014 0.019,0.032 0.039,0.046 0.038,0.025 0.083,0.02 0.119,0.044 0.448,0.374 0.873,0.808 1.46,0.859 0.925,0.077 1.596,-0.156 2.141,-0.536 0.003,-0.007 0.01,0 0.013,-0.007 0.017,-0.012 0.017,-0.032 0.033,-0.044 0.441,-0.323 0.783,-0.768 1.06,-1.303 0.077,-0.161 0.177,-0.315 0.229,-0.491 0.303,-0.715 0.561,-1.489 0.793,-2.321 0.958,-3.417 2.735,-9.77 6.078,-16.47 0.232,-0.477 0.351,-0.993 0.351,-1.502 0,-0.167 -0.045,-0.336 -0.073,-0.497 1.402,-0.251 2.801,-0.522 4.21,-0.818 -2.486,8.131 -2.872,15.225 -2.967,17.753 0,0 -0.034,0.844 -0.034,0.896 0,0.348 0.241,0.638 0.335,0.974 0.068,0.271 0.135,0.522 0.267,0.766 0.197,0.387 0.394,0.665 0.704,0.955 0.009,0.014 0.012,0.026 0.018,0.033 0.023,0.013 0.053,0.013 0.075,0.025 0.464,0.414 0.925,0.857 1.554,0.923 1.686,0.167 2.525,-0.375 3.357,-2.031 0.057,-0.155 0.161,-0.297 0.199,-0.453 0.481,-1.063 0.975,-2.404 1.648,-4.411 l 5.404,-15.288 c 0.132,-0.382 0.2,-0.781 0.2,-1.194 0,-0.554 -0.126,-1.102 -0.39,-1.586 -0.007,-0.025 -0.019,-0.039 -0.032,-0.059 1.934,-0.599 3.865,-1.224 5.8,-1.921 -0.538,4.314 -1.67,13.4 -1.67,13.4 -0.348,2.496 -0.581,4.211 -0.586,5.449 -0.007,0.078 -0.065,0.142 -0.065,0.22 0,0.348 0.196,0.729 0.338,1.102 0.194,0.678 0.613,1.213 1.248,1.568 0.042,0.019 0.074,0.051 0.112,0.071 0.198,0.103 0.268,0.25 0.514,0.341 0.622,0.232 1.251,0.058 1.876,-0.128 l 0.013,0 c 0.668,-0.213 1.216,-0.568 1.69,-1.104 0.035,-0.039 0.064,-0.07 0.096,-0.115 0.226,-0.271 0.535,-0.484 0.675,-0.812 l 0.312,-0.73 c 1.203,-2.734 4.866,-11.078 5.978,-21.596 0.012,-0.117 0.016,-0.232 0.016,-0.354 0,-0.497 -0.148,-0.981 -0.365,-1.427 1.219,-0.554 2.432,-1.115 3.641,-1.701 0.129,2.67 0.19,5.191 0.19,7.409 0,2.863 -0.065,5.268 -0.116,7.003 -0.016,0.58 -0.029,1.123 -0.029,1.632 0,0.342 0.106,0.529 0.126,0.845 -0.02,0.154 -0.097,0.29 -0.097,0.45 0,0.233 0.216,0.477 0.274,0.717 0.088,0.38 0.22,0.78 0.406,1.082 0.071,0.105 0.029,0.208 0.12,0.311 0.164,0.193 0.435,0.149 0.631,0.277 0.326,0.252 0.465,0.619 0.981,0.773 0.613,0.181 1.193,-0.044 1.773,-0.25 0.094,-0.027 0.187,-0.019 0.281,-0.046 0.048,-0.02 0.068,-0.077 0.116,-0.103 0.526,-0.258 0.919,-0.593 1.289,-1.07 0.091,-0.117 0.168,-0.213 0.243,-0.349 0.157,-0.258 0.425,-0.444 0.515,-0.735 l 0.2,-0.625 c 0.826,-2.548 3.122,-9.635 3.122,-18.785 0,-1.238 -0.052,-2.528 -0.149,-3.838 1.141,-0.671 2.279,-1.347 3.408,-2.051 0.571,5.057 1.638,14.517 1.638,14.517 l 0.1,0.749 c 0,0.037 -0.01,0.083 -0.01,0.122 0,0.064 0.026,0.103 0.046,0.148 l 0.003,0.026 c 0,0.005 0.007,0.005 0.007,0.005 l -0.007,0 0.048,0.394 c -0.012,-0.097 -0.016,-0.2 -0.016,-0.303 0.129,1.703 1.161,2.606 1.693,2.915 0.69,0.394 1.515,0.548 2.296,0.399 0.48,-0.096 2.695,-0.663 2.695,-3.475 0,-0.045 -0.006,-0.084 -0.01,-0.123 l 0.149,-0.676 c 0.428,-1.865 1.17,-5.088 1.17,-9.532 0,-3.037 -0.38,-6.673 -1.418,-10.807 1.141,-0.825 2.27,-1.69 3.391,-2.548 0.646,5.585 0.962,10.375 1.145,13.298 0.064,1.101 0.152,2.005 0.275,2.817 0,0.02 -0.008,0.039 -0.008,0.059 0,0.038 0.046,0.07 0.046,0.115 0.155,0.915 0.432,1.632 0.893,2.153 0.026,0.035 0.01,0.059 0.029,0.079 0.013,0.012 0.026,0.006 0.036,0.012 0.416,0.446 0.947,0.781 1.767,0.93 0.564,0.102 1.054,-0.189 1.566,-0.401 0.123,-0.044 0.249,-0.032 0.368,-0.083 0.052,-0.027 0.071,-0.091 0.12,-0.116 0.441,-0.271 0.747,-0.575 1.057,-1.001 0.126,-0.186 0.229,-0.347 0.319,-0.553 0.142,-0.285 0.41,-0.497 0.474,-0.807 l 0.146,-0.696 c 0.477,-2.212 1.651,-7.668 1.651,-14.761 0,-2.728 -0.188,-5.689 -0.636,-8.797 0.987,-0.908 1.967,-1.824 2.934,-2.759 0.755,6.454 2.18,13.046 2.886,16.199 l 0.274,1.238 c 0,0 0.003,0.007 0.007,0.013 -0.004,-0.006 -0.007,-0.006 -0.007,-0.013 l 0.078,0.38 c -0.017,-0.09 -0.023,-0.181 -0.03,-0.264 0.052,0.181 0.139,0.342 0.213,0.509 0.294,1.091 0.825,1.884 1.438,2.231 0.861,0.504 1.922,0.613 2.857,0.272 0.951,-0.355 2.389,-1.324 2.106,-3.857 l 0.093,-0.838 c 0.181,-1.445 0.455,-3.651 0.455,-6.546 0,-3.939 -0.516,-9.164 -2.477,-15.464 1.819,-1.315 3.657,-2.585 5.517,-3.817 1.899,6.577 3.324,14.026 3.898,17.07 l 0.207,1.096 c 0.002,0.006 0.006,0.013 0.01,0.026 -0.004,-0.007 -0.008,-0.007 -0.008,-0.013 0.014,0.071 0.043,0.096 0.056,0.161 0.1,0.606 0.283,1.116 0.558,1.516 0.019,0.032 0.038,0.058 0.061,0.09 0.193,0.264 0.393,0.502 0.625,0.69 0.2,0.167 0.394,0.316 0.603,0.419 0.038,0.019 0.072,0.032 0.113,0.052 0.297,0.134 0.574,0.239 0.848,0.276 0.004,0 0.039,0.007 0.055,0.007 0.286,0.039 0.567,0.064 0.764,0.052 1.692,-0.135 3.022,-1.516 3.092,-3.211 0.007,-0.052 0.007,-0.104 0.007,-0.15 0,-0.051 -0.046,-0.083 -0.052,-0.134 l 0,-0.007 c 0,-0.167 -0.025,-0.336 -0.048,-0.495 l 0.093,-0.71 c 0.184,-1.336 0.487,-3.483 0.487,-6.262 0,-4.03 -0.654,-9.402 -3.199,-15.529 1.422,-0.826 2.851,-1.625 4.292,-2.392 2.119,6.107 3.038,13.013 3.489,16.598 l 0.316,2.239 c 0.235,1.65 1.641,2.533 3.305,2.546 1.664,0.007 3.086,-1.54 3.343,-3.185 l 0.162,-1.038 c 0.564,-3.341 1.938,-11.556 -1.819,-21.526 1.95,-0.896 3.909,-1.729 5.872,-2.529 1.309,6.031 1.867,12.549 2.176,16.342 0,0 0.207,2.082 0.271,2.715 l -0.007,0.045 c 0,-0.007 0.007,-0.013 0.007,-0.019 0.013,0.084 0.038,0.393 0.038,0.393 0.172,1.657 1.536,2.522 3.203,2.592 1.667,0.078 3.143,-1.508 3.456,-3.14 l 0.223,-1.175 c 0.722,-3.539 2.282,-11.208 -0.156,-21.144 1.858,-0.612 3.712,-1.181 5.56,-1.709 0.906,6.804 1.063,13.517 1.131,16.979 0.036,1.754 0.113,3.025 0.542,3.972 0.075,0.155 0.152,0.297 0.251,0.439 0.339,0.491 0.777,0.903 1.509,1.181 0.052,0.018 0.104,0.013 0.148,0.026 0.023,0.006 0.023,0.026 0.046,0.031 0.602,0.188 1.18,-0.064 1.766,-0.277 0.265,-0.095 0.545,-0.103 0.793,-0.232 0.046,-0.025 0.072,-0.084 0.121,-0.115 0.092,-0.066 0.218,-0.046 0.312,-0.123 0.196,-0.149 0.303,-0.401 0.457,-0.607 0.105,-0.134 0.197,-0.238 0.284,-0.38 0.12,-0.212 0.21,-0.4 0.287,-0.632 0.081,-0.194 0.213,-0.38 0.261,-0.567 l 0.235,-0.923 c 0.643,-2.366 2,-7.403 2,-14.264 0,-2.122 -0.142,-4.43 -0.467,-6.867 1.041,-0.213 2.073,-0.4 3.108,-0.582 -0.004,7.54 -0.829,13.982 -1.251,17.289 -0.122,0.935 -0.232,1.819 -0.232,2.599 0,0.052 0.022,0.078 0.025,0.122 -0.006,0.085 -0.06,0.15 -0.06,0.226 0,0.278 0.206,0.567 0.29,0.851 0.077,0.336 0.145,0.691 0.325,0.967 0.019,0.027 0.007,0.053 0.026,0.078 0.319,0.446 0.741,0.73 1.206,0.923 0.135,0.07 0.158,0.187 0.31,0.245 0.628,0.251 1.26,0.083 1.889,-0.11 0.058,-0.013 0.113,-0.006 0.164,-0.02 0.04,-0.012 0.062,-0.058 0.097,-0.071 0.577,-0.225 1.031,-0.535 1.45,-1.006 0.078,-0.09 0.14,-0.161 0.207,-0.257 0.2,-0.264 0.488,-0.458 0.614,-0.761 l 0.273,-0.665 c 1.18,-2.811 4.588,-11 4.759,-21.731 0.455,-0.046 0.91,-0.078 1.36,-0.11 -0.077,7.602 -0.97,14.232 -1.425,17.566 -0.138,1.019 -0.267,1.954 -0.267,2.793 0,0.037 0.023,0.064 0.023,0.103 -0.004,0.077 -0.058,0.142 -0.058,0.218 0,0.335 0.209,0.691 0.332,1.033 0.077,0.27 0.123,0.573 0.27,0.805 0.322,0.472 0.758,0.769 1.245,0.967 0.164,0.078 0.197,0.228 0.387,0.298 0.612,0.219 1.219,0.045 1.831,-0.148 0.029,-0.007 0.059,0 0.084,-0.007 0.023,-0.006 0.036,-0.032 0.058,-0.039 0.613,-0.226 1.106,-0.547 1.551,-1.044 0.062,-0.071 0.11,-0.122 0.165,-0.2 0.212,-0.272 0.506,-0.471 0.641,-0.781 l 0.29,-0.69 c 1.191,-2.72 4.595,-10.665 4.976,-21.055 0.693,0.02 1.38,0.032 2.063,0.071 -0.86,7.377 -2.102,13.936 -2.792,17.54 -0.309,1.6 -0.515,2.799 -0.549,3.805 -0.003,0.091 -0.083,0.175 -0.083,0.272 0,0.321 0.17,0.671 0.29,1.011 0.187,0.698 0.603,1.271 1.338,1.704 0,0 0,0.005 0.003,0.005 0.145,0.085 0.184,0.207 0.356,0.279 1.282,0.592 2.717,0 3.717,-1.021 0.035,-0.037 0.064,-0.07 0.096,-0.108 0.242,-0.265 0.555,-0.472 0.71,-0.787 l 0.345,-0.697 c 1.329,-2.644 5.221,-10.492 6.626,-20.777 0.22,0.045 0.438,0.076 0.664,0.122 0.052,0.432 0.123,0.858 0.155,1.296 -0.097,0.651 -2.548,16.883 -2.548,16.883 -0.335,1.811 -0.567,3.205 -0.58,4.327 -0.012,0.077 -0.083,0.155 -0.083,0.238 0,0.504 0.122,1.02 0.431,1.581 0.007,0.012 0.019,0.012 0.026,0.025 0.194,0.386 0.593,0.683 0.993,0.955 0.078,0.046 0.136,0.116 0.219,0.154 0.22,0.122 0.297,0.31 0.574,0.406 1.62,0.581 3.529,-0.529 4.276,-2.069 l 0.368,-0.741 c 1.418,-2.852 5.101,-10.312 6.364,-20.205 0.53,0.2 1.077,0.382 1.606,0.594 0.046,0.78 0.084,1.567 0.084,2.36 l 0,0.084 c -1.277,6.913 -3.16,12.794 -4.295,16.322 -0.283,0.901 -0.361,1.566 -0.542,2.328 -0.271,0.522 -0.464,1.076 -0.464,1.696 0,0.392 0.077,0.812 0.259,1.263 0.011,0.039 0.057,0.046 0.077,0.091 0.244,0.619 0.65,1.187 1.463,1.625 1.516,0.806 3.58,-0.071 4.547,-1.49 l 0.464,-0.677 c 1.38,-1.979 4.475,-6.443 6.707,-12.762 -0.658,5.784 -1.792,10.769 -2.515,13.884 -0.284,1.232 -0.471,2.303 -0.542,3.302 -0.039,0.2 -0.129,0.38 -0.129,0.593 0,0.458 0.103,0.949 0.361,1.463 0.013,0.04 0.052,0.046 0.072,0.071 0.186,0.406 0.586,0.717 0.992,1.013 0.057,0.032 0.096,0.09 0.155,0.116 0.226,0.141 0.31,0.349 0.6,0.459 1.548,0.598 3.456,-0.478 4.281,-1.923 l 0.426,-0.735 c 1.096,-1.882 3.475,-5.984 5.108,-11.607 -0.71,5.99 -2.181,11.208 -3.006,14.104 -0.29,0.986 -0.426,1.855 -0.554,2.721 -0.09,0.309 -0.233,0.598 -0.233,0.928 0,0.252 0.046,0.51 0.11,0.773 0.168,0.929 0.677,1.704 1.813,2.264 1.521,0.742 3.533,-0.213 4.462,-1.625 l 0.432,-0.651 c 0.349,-0.509 0.833,-1.239 1.347,-2.083 -0.38,1.613 -0.747,3.031 -1.045,4.172 -0.276,1.044 -0.386,1.883 -0.514,2.734 -0.117,0.349 -0.259,0.685 -0.259,1.064 0,0.419 0.091,0.871 0.309,1.354 0.014,0.039 0.052,0.046 0.072,0.078 0.277,0.658 0.728,1.231 1.638,1.638 0.928,0.413 1.993,0.187 2.909,-0.341 -0.129,0.663 -0.22,1.27 -0.297,1.85 -0.129,0.348 -0.258,0.696 -0.258,1.083 0,0.439 0.102,0.917 0.342,1.418 0.006,0.02 0.025,0.02 0.031,0.04 0.271,0.612 0.703,1.141 1.528,1.547 1.555,0.768 3.586,-0.128 4.495,-1.605 l 0.362,-0.573 c 0.077,-0.13 0.193,-0.311 0.284,-0.458 l -0.832,3.558 c -0.458,1.792 -0.716,2.999 -0.839,3.992 -0.045,0.213 -0.148,0.4 -0.148,0.625 0,0.052 0.039,0.11 0.039,0.168 0,0.02 -0.006,0.052 -0.006,0.079 0,1.153 0.431,1.831 1.502,2.541 0.755,0.489 1.734,0.528 2.611,0.34 0.394,-0.084 0.639,-0.477 0.987,-0.722 0.038,-0.032 0.077,-0.064 0.116,-0.09 -0.2,0.697 -0.407,1.399 -0.568,1.967 -0.296,0.993 -0.387,1.702 -0.548,2.508 -0.206,0.446 -0.38,0.916 -0.38,1.451 0,0.052 0.032,0.11 0.032,0.168 l 0,0.007 c 0.019,0.321 0.058,0.651 0.201,1.019 0.012,0.044 0.063,0.051 0.077,0.09 0.245,0.678 0.664,1.276 1.541,1.728 0.689,0.355 1.49,0.341 2.25,0.116 -0.671,1.967 -1.005,3.644 -1.142,4.515 -0.031,0.179 -0.044,0.36 -0.044,0.534 0,0.761 0.245,1.529 0.722,2.129 0.387,0.483 0.916,0.805 1.49,1.025 -0.252,0.825 -0.497,1.67 -0.606,2.637 -0.014,0.129 -0.02,0.259 -0.02,0.387 0,1.58 1.071,3.095 2.631,3.431 0.143,0.026 0.324,0.026 0.49,0.026 -7.074,41.684 -30.457,77.803 -63.362,101.56 -0.357,-0.838 -1.047,-1.496 -1.905,-1.819 -0.887,-0.342 -1.901,-0.271 -2.747,0.155 -1.241,0.638 -4.194,2.308 -6.777,4.901 -0.02,-1.393 -0.764,-2.786 -2.071,-3.276 -0.721,-0.271 -2.708,-0.98 -8.364,4.824 0.049,-0.233 0.143,-0.458 0.143,-0.697 0,-0.025 -0.017,-0.038 -0.02,-0.058 0,-0.006 0.01,-0.013 0.01,-0.025 0,-0.368 -0.065,-0.742 -0.197,-1.103 -0.036,-0.104 -0.135,-0.148 -0.183,-0.245 -0.168,-0.388 -0.423,-0.677 -0.73,-0.974 -0.173,-0.174 -0.318,-0.349 -0.528,-0.477 -0.113,-0.072 -0.162,-0.2 -0.28,-0.259 -0.304,-0.128 -0.697,-0.264 -1.245,-0.244 -0.142,-0.006 -0.275,-0.045 -0.416,-0.026 -0.265,0.02 -0.338,0.2 -0.558,0.264 -0.326,0.11 -0.732,0.336 -1.158,0.568 -0.148,0.128 -0.377,0.167 -0.489,0.31 -1.967,1.218 -4.843,3.688 -9.593,9.099 l -0.438,0.625 -1.571,1.773 c -1.273,1.213 -3.354,3.193 -3.354,6.178 0,0.432 0.082,0.897 0.175,1.367 -1.745,0.329 -3.547,0.658 -5.424,0.974 0.175,-0.174 0.297,-0.296 0.297,-0.296 5.52,-5.933 8.631,-12.111 9.654,-14.142 l 0.223,-0.439 c 0.27,-0.523 0.399,-1.115 0.399,-1.696 0,-0.013 -0.006,-0.019 -0.006,-0.033 0,-0.006 0.013,-0.018 0.013,-0.025 0,-0.4 -0.071,-0.799 -0.226,-1.18 -0.023,-0.058 -0.074,-0.084 -0.1,-0.13 -0.252,-0.637 -0.626,-1.212 -1.232,-1.566 -1.028,-0.607 -1.828,-1.026 -4.053,0.516 -0.01,0.012 -0.038,0.019 -0.051,0.032 -2.164,1.522 -5.659,4.868 -12.076,11.756 l -4.401,5.12 c -0.396,0.465 -0.577,0.916 -0.68,1.509 -0.132,0.755 -0.239,1.58 -0.239,2.412 l 0,0.039 c -1.321,0.174 -2.66,0.341 -4.023,0.509 0,-0.006 0.013,-0.013 0.013,-0.013 6.642,-6.248 10.514,-12.994 11.971,-15.535 l 0.41,-0.708 c 0.354,-0.601 0.535,-1.323 0.535,-2.032 0,-1.013 -0.361,-1.993 -1.141,-2.599 -1.326,-1.038 -2.031,-1.367 -4.047,0.058 -0.158,0.129 -0.361,0.219 -0.496,0.367 -1.7,1.31 -4.183,3.618 -8.593,7.771 0,0 -5.637,5.314 -5.656,5.327 l -5.465,5.584 c -0.603,0.613 -0.893,1.38 -0.893,2.193 0,0.283 0.045,0.574 0.116,0.864 -1.879,0.141 -3.779,0.271 -5.708,0.381 0.371,-0.297 0.655,-0.523 0.659,-0.523 7.592,-6.255 12.188,-13.394 13.92,-16.083 l 0.544,-0.826 c 0.432,-0.657 0.674,-1.496 0.674,-2.314 0,-0.297 -0.248,-0.497 -0.319,-0.78 -0.016,-0.052 -0.006,-0.11 -0.029,-0.156 -0.016,-0.052 -0.061,-0.077 -0.081,-0.122 -0.152,-0.459 -0.164,-0.993 -0.529,-1.316 -1.435,-1.27 -2.502,-1.283 -4.321,-0.064 -0.058,0.052 -0.147,0.071 -0.203,0.123 -1.121,0.786 -2.514,1.992 -4.472,3.713 0,0 -11.691,10.022 -11.707,10.035 l -2.49,2.225 c 4.33,-4.411 7.217,-8.5 8.536,-10.389 l 0.612,-0.857 c 0.484,-0.684 0.758,-1.568 0.758,-2.438 0,-0.304 -0.242,-0.51 -0.313,-0.8 0,-0.006 -0.013,-0.025 -0.013,-0.032 -0.135,-0.516 -0.174,-1.083 -0.567,-1.452 -1.355,-1.27 -2.422,-1.321 -4.202,-0.231 -0.1,0.071 -0.235,0.103 -0.332,0.187 -1.174,0.773 -2.638,1.967 -4.713,3.695 0,0 -12.347,9.982 -12.383,10.008 l -6.674,5.65 c -0.745,0.631 -1.125,1.508 -1.125,2.431 0,0.076 0.033,0.154 0.036,0.225 -1.684,-0.122 -3.338,-0.258 -4.979,-0.419 -0.013,-0.013 -0.135,-0.097 -0.148,-0.11 0.203,-0.18 0.435,-0.393 0.435,-0.393 l -0.151,0.064 c 0.283,-0.116 0.783,-0.348 1.019,-0.528 7.651,-5.823 11.946,-12.646 13.783,-15.554 l 0.545,-0.845 c 0.735,-1.142 0.826,-2.774 0.052,-3.889 -0.777,-1.116 -2.035,-1.812 -3.363,-1.522 -1.129,0.245 -1.696,0.749 -4.859,3.527 l -12.365,10.241 c 0.035,-0.039 -0.71,0.696 -0.671,0.67 l -1.203,0.91 c -0.283,0.161 -0.561,0.322 -0.835,0.497 4.501,-4.346 7.325,-8.622 8.557,-10.499 l 0.462,-0.69 c 0.442,-0.657 0.683,-1.496 0.683,-2.309 0,-0.29 -0.241,-0.483 -0.306,-0.761 -0.007,-0.025 -0.004,-0.051 -0.012,-0.077 -0.01,-0.032 -0.039,-0.045 -0.049,-0.077 -0.149,-0.516 -0.184,-1.097 -0.584,-1.458 -1.416,-1.257 -2.476,-1.283 -4.365,-0.084 -0.027,0.02 -0.069,0.033 -0.091,0.046 -1.113,0.722 -2.509,1.831 -4.462,3.418 0,0 -10.373,8.196 -10.408,8.221 l -5.811,4.895 c -0.709,0.6 -1.058,1.419 -1.087,2.302 -0.612,-0.136 -1.225,-0.264 -1.821,-0.406 -0.839,-0.736 -1.738,-1.522 -2.096,-1.837 6.674,-4.785 10.669,-10.57 12.175,-12.769 l 0.409,-0.588 c 0.462,-0.663 0.716,-1.508 0.716,-2.334 0,-0.257 -0.229,-0.432 -0.277,-0.676 -0.007,-0.013 0,-0.033 -0.007,-0.046 -0.006,-0.019 -0.026,-0.032 -0.031,-0.057 -0.143,-0.581 -0.208,-1.2 -0.655,-1.6 -2.164,-1.915 -3.35,-1.039 -9.074,3.179 l -9.408,6.81 c -0.161,0.116 -0.629,0.671 -0.855,0.928 -0.019,0.013 -0.509,0.239 -0.509,0.239 -1.558,0.665 -2.97,1.664 -3.734,3.612 -0.767,-0.349 -1.541,-0.684 -2.303,-1.039 0.085,-0.045 0.149,-0.077 0.149,-0.077 l 0.916,-0.529 c 0.097,-0.051 0.209,-0.129 0.306,-0.193 5.175,-3.728 7.994,-8.39 8.922,-9.918 l 0.164,-0.278 c 0.364,-0.593 0.549,-1.296 0.549,-1.993 0,-0.019 -0.023,-0.032 -0.023,-0.057 -0.003,-0.175 -0.016,-0.355 -0.051,-0.529 -0.113,-0.562 -0.452,-0.981 -0.778,-1.413 -0.119,-0.148 -0.074,-0.387 -0.221,-0.515 -1.826,-1.561 -2.507,-2.142 -14.466,6.429 0.046,-0.032 -0.599,0.522 -0.554,0.496 l -1.647,1.064 c -0.874,0.471 -2.167,1.2 -3.18,2.379 -1.048,-0.586 -2.089,-1.186 -3.124,-1.799 0.209,-0.115 0.416,-0.218 0.619,-0.354 l 0.002,-0.006 c 3.963,-2.573 6.05,-6.185 6.276,-6.591 0.606,-1.09 0.561,-2.425 -0.113,-3.469 -0.684,-1.039 -1.883,-1.625 -3.122,-1.509 -0.457,0.039 -4.607,0.477 -8.57,3.037 -1.589,1.038 -2.866,2.232 -3.852,3.321 -0.294,-0.193 -0.575,-0.406 -0.862,-0.606 1.797,-2.057 2.241,-4.591 2.29,-4.92 0.022,-0.168 0.035,-0.336 0.035,-0.497 0,-0.742 -0.242,-1.457 -0.7,-2.051 -0.558,-0.722 -1.386,-1.193 -2.296,-1.289 -0.393,-0.039 -3.907,-0.355 -6.641,1.766 -0.342,0.271 -0.652,0.555 -0.929,0.852 -36.39,-28.941 -59.75,-73.573 -59.75,-123.679 0,-1.064 0.058,-2.122 0.081,-3.179 0.95,0.257 1.759,0.141 2.473,-0.774"
           style="fill:#ffffff;fill-opacity:1;fill-rule:nonzero;stroke:none"
           id="path24"
           inkscape:connector-curvature="0" /><path
           d="m 266.357,547.345 c -1.49,0.154 -2.992,0.238 -4.488,0.347 -0.139,-0.096 -0.271,-0.186 -0.416,-0.289 1.577,-0.123 3.134,-0.259 4.669,-0.413 0.074,0.129 0.155,0.232 0.235,0.355"
           style="fill:#ffffff;fill-opacity:1;fill-rule:nonzero;stroke:none"
           id="path26"
           inkscape:connector-curvature="0" /><path
           d="m 211.956,541.579 c 0.613,-0.451 1.432,-1.051 1.445,-1.063 0.735,-0.556 1.412,-1.129 2.083,-1.703 -0.623,0.832 -1.174,1.955 -1.645,3.437 -0.474,-0.07 -0.938,-0.148 -1.402,-0.226 -0.2,-0.187 -0.397,-0.368 -0.481,-0.445"
           style="fill:#ffffff;fill-opacity:1;fill-rule:nonzero;stroke:none"
           id="path28"
           inkscape:connector-curvature="0" /><path
           d="m 243.396,544.649 c 0.597,-0.452 1.145,-0.864 1.155,-0.871 0.732,-0.567 1.409,-1.154 2.096,-1.735 -0.432,0.556 -0.709,1.194 -0.709,1.896 0,0.233 0.035,0.478 0.083,0.716 -0.88,0.007 -1.75,0 -2.625,-0.006"
           style="fill:#ffffff;fill-opacity:1;fill-rule:nonzero;stroke:none"
           id="path30"
           inkscape:connector-curvature="0" /><path
           d="m 282.743,544.772 c -0.97,0.206 -1.954,0.387 -2.934,0.573 -0.044,-0.032 -0.083,-0.058 -0.129,-0.083 1.029,-0.162 2.051,-0.324 3.06,-0.497 l 0.003,0.007 z"
           style="fill:#ffffff;fill-opacity:1;fill-rule:nonzero;stroke:none"
           id="path32"
           inkscape:connector-curvature="0" /><path
           d="m 378.438,369.89 c 0,-0.039 0.04,-0.059 0.04,-0.104 0,0.045 -0.027,0.104 -0.027,0.15 l 0,0.037 c 0,-0.025 -0.013,-0.051 -0.013,-0.083"
           style="fill:#ffffff;fill-opacity:1;fill-rule:nonzero;stroke:none"
           id="path34"
           inkscape:connector-curvature="0" /><path
           d="m 118.683,389.796 c -0.02,-0.159 -0.033,-0.316 -0.033,-0.477 0.023,0.156 0.013,0.318 0.033,0.477"
           style="fill:#ffffff;fill-opacity:1;fill-rule:nonzero;stroke:none"
           id="path36"
           inkscape:connector-curvature="0" /><path
           d="m 398.746,341 c -0.433,0.007 -0.794,0.044 -1.116,0.096 -0.245,-0.832 -0.503,-1.67 -0.807,-2.527 l -0.096,-0.278 c -0.348,-0.979 -1.155,-1.844 -2.141,-2.174 -0.98,-0.321 -2.089,-0.276 -2.954,0.298 -0.038,0.032 -0.026,0.071 -0.064,0.096 -0.045,0.032 -0.103,0.019 -0.141,0.052 -0.484,-1.78 -1.045,-3.559 -1.787,-5.334 l -0.129,-0.308 c -0.065,-0.162 -0.283,-0.22 -0.38,-0.382 -0.259,-0.463 -0.646,-0.786 -1.071,-1.089 -0.206,-0.136 -0.284,-0.431 -0.516,-0.516 -0.877,-0.329 -1.883,-0.387 -2.722,0.039 -0.218,0.102 -0.244,0.284 -0.412,0.413 -0.116,0.084 -0.284,0.045 -0.4,0.154 -0.142,0.143 -0.077,0.297 -0.194,0.445 -0.36,0.478 -0.605,0.987 -0.689,1.575 -0.007,0.102 -0.136,0.217 -0.136,0.321 0,0.098 0.039,0.124 0.045,0.213 -0.006,0.129 -0.057,0.239 -0.057,0.374 0,0.361 0.019,0.736 0.032,1.109 -1.052,-5.011 -2.845,-8.601 -3.644,-10.188 l -0.231,-0.472 c -0.658,-1.334 -1.787,-3.113 -3.251,-2.869 -1.457,0.245 -2.277,0.387 -2.463,1.857 0,0 -0.014,0.116 -0.014,0.123 -0.063,0.076 -0.167,0.109 -0.219,0.194 -0.406,0.619 -0.554,1.218 -0.554,1.785 0,0.478 0.219,0.812 0.374,1.219 -0.013,0.085 -0.027,0.194 -0.039,0.291 -1.586,-4.115 -3.56,-7.01 -4.604,-8.494 l -0.406,-0.58 c -0.574,-0.832 -1.606,-1.606 -2.612,-1.683 -0.413,-0.032 -0.774,0.161 -1.187,0.232 -0.451,0.09 -0.884,0.188 -1.244,0.438 -0.109,0.071 -0.278,0.027 -0.375,0.13 -0.199,0.206 -0.141,0.438 -0.264,0.651 -0.155,0.2 -0.387,0.315 -0.476,0.574 -0.13,0.354 -0.169,0.684 -0.182,0.999 l 0,0.02 0,0.012 c 0,0.027 -0.019,0.066 -0.019,0.098 0,0.36 0.148,0.658 0.252,0.98 0.116,0.593 0.18,1.147 0.386,1.85 0.729,2.386 2.025,6.694 2.625,11.505 -0.458,-0.181 -0.922,-0.361 -1.38,-0.535 -1.193,-11.047 -6.88,-17.67 -9.073,-20.186 l -0.477,-0.56 c -0.659,-0.78 -1.781,-1.451 -2.799,-1.418 -0.761,0.025 -1.489,0.27 -2.103,0.677 -0.025,0.026 -0.051,0.039 -0.09,0.063 -0.168,0.13 -0.386,0.195 -0.529,0.375 -0.193,0.271 -0.167,0.535 -0.276,0.793 -0.072,0.155 -0.24,0.239 -0.291,0.413 -0.052,0.233 -0.065,0.432 -0.077,0.639 0,0.024 -0.033,0.058 -0.033,0.083 0,0.012 0.014,0.032 0.014,0.046 0,0.032 -0.014,0.07 -0.014,0.103 0,0.728 0.265,1.347 0.614,1.895 0.154,0.406 0.167,0.736 0.36,1.18 1.109,2.586 3.159,7.423 4.198,12.884 -0.045,-0.006 -0.096,-0.013 -0.148,-0.025 -0.013,-0.083 -0.007,-0.166 -0.026,-0.251 -3.301,-11.866 -10.421,-17.954 -13.097,-20.242 l -0.642,-0.562 c -1.241,-1.091 -3.33,-1.438 -4.6,-0.381 -0.856,0.71 -1.391,1.62 -1.391,2.574 0,0.458 0.126,0.928 0.393,1.393 0,0 0.185,0.309 0.291,0.49 -0.009,-0.012 -0.013,-0.007 -0.019,-0.012 l 0.032,0.032 c 0.335,0.573 0.887,1.514 0.887,1.514 1.727,2.761 5.029,8.126 7.286,14.02 -0.447,-0.026 -0.909,-0.038 -1.363,-0.058 -0.039,-0.362 -0.084,-0.729 -0.239,-1.057 -5.146,-11.196 -12.378,-16.896 -15.099,-19.043 l -0.681,-0.548 c -0.097,-0.078 -0.252,-0.065 -0.358,-0.137 -0.6,-0.482 -1.286,-0.857 -2.025,-0.857 l -0.009,0 c -0.136,0 -0.252,0.064 -0.384,0.071 -0.006,0.007 -0.02,0.007 -0.023,0.013 -0.629,0.052 -1.193,0.271 -1.696,0.619 -0.277,0.168 -0.573,0.322 -0.757,0.594 -0.438,0.644 -0.633,1.224 -0.633,1.799 0,0.012 0.016,0.032 0.016,0.051 0,0.006 -0.006,0.02 -0.006,0.026 0,0.051 0.049,0.071 0.052,0.122 0.084,1.11 0.806,2.219 1.887,3.786 1.976,2.851 5.868,8.518 9.182,14.619 -0.252,0.013 -0.5,0.032 -0.752,0.052 -0.067,-0.413 -0.183,-0.813 -0.399,-1.18 -6.471,-10.821 -13.849,-16.296 -16.628,-18.359 l -0.741,-0.563 c -0.074,-0.056 -0.197,-0.032 -0.28,-0.089 -0.769,-0.606 -1.723,-0.98 -2.68,-0.799 -0.646,0.128 -1.236,0.413 -1.713,0.819 -0.047,0.037 -0.132,0.019 -0.177,0.069 -0.277,0.291 -0.242,0.556 -0.403,0.832 -0.119,0.22 -0.329,0.369 -0.393,0.614 -0.026,0.103 -0.019,0.194 -0.039,0.29 -0.016,0.117 -0.158,0.226 -0.158,0.334 0,0.072 0.078,0.169 0.084,0.24 0,0.019 -0.013,0.052 -0.013,0.077 0,0.374 0.248,0.6 0.361,0.917 0.129,0.328 0.165,0.632 0.393,0.999 0.085,0.115 0.136,0.232 0.229,0.335 0.458,0.703 0.99,1.457 1.709,2.425 0,0 8.155,11.259 10.328,14.257 -1.026,0.167 -2.054,0.336 -3.089,0.53 -0.059,-0.323 -0.097,-0.632 -0.168,-0.962 -0.09,-0.431 -0.268,-0.845 -0.51,-1.205 -6.635,-9.745 -15.099,-15.136 -17.878,-16.909 l -0.706,-0.458 c -1.487,-0.967 -3.789,-0.889 -4.844,0.547 -0.502,0.678 -0.718,1.31 -0.718,1.929 0,0.742 0.339,1.464 0.858,2.218 0.031,0.039 0.064,0.078 0.096,0.11 0.487,0.683 1.103,1.387 1.819,2.166 2.631,2.878 7.403,8.146 12.078,14.86 -1.892,0.515 -3.788,1.076 -5.684,1.676 -0.175,-0.543 -0.291,-1.064 -0.487,-1.613 -0.2,-0.567 -0.548,-1.069 -1.006,-1.457 -9.138,-7.648 -18.292,-11.4 -21.739,-12.814 l -0.867,-0.368 c -1.622,-0.675 -3.818,-0.186 -4.618,1.375 -0.321,0.625 -0.477,1.161 -0.477,1.658 0,0.102 0.136,0.193 0.148,0.289 0.01,0.117 0.014,0.226 0.039,0.342 0.152,0.664 0.523,1.038 0.89,1.418 0.094,0.104 0.085,0.208 0.193,0.317 0.104,0.084 0.223,0.186 0.342,0.27 0.793,0.729 1.784,1.498 3.189,2.536 0,0 11.418,8.911 14.733,11.491 -1.961,0.78 -3.918,1.592 -5.865,2.456 -0.178,-0.38 -0.301,-0.747 -0.497,-1.129 -0.264,-0.522 -0.661,-0.967 -1.152,-1.29 -9.872,-6.493 -19.642,-9.195 -22.851,-10.085 l -0.876,-0.251 c -1.706,-0.49 -3.84,0.29 -4.43,1.96 -0.181,0.51 -0.271,0.954 -0.271,1.353 0,0.118 0.151,0.189 0.164,0.291 0.023,0.207 0.036,0.407 0.107,0.613 0.174,0.49 0.522,0.697 0.805,0.999 0.168,0.169 0.233,0.374 0.446,0.543 0.154,0.109 0.316,0.232 0.489,0.315 0.852,0.612 1.819,1.226 3.284,2.064 0,0 11.119,6.777 15.241,9.286 -1.222,0.645 -2.432,1.329 -3.641,2.012 -0.055,-0.103 -0.09,-0.201 -0.145,-0.309 -0.368,-0.717 -1.051,-1.304 -1.792,-1.6 l -17.953,-7.299 c -1.667,-0.709 -2.89,-1.194 -3.919,-1.542 -0.544,-0.296 -1.147,-0.458 -1.841,-0.414 -1.07,-0.056 -1.815,0.35 -2.563,1.427 -0.352,0.509 -0.509,1.102 -0.509,1.708 0,1.136 0.567,2.316 1.496,3.031 l 0.6,0.457 c 2.199,1.716 8.422,6.443 17.14,10.376 -1.377,0.923 -2.741,1.865 -4.092,2.832 -0.426,-0.664 -1.009,-1.219 -1.779,-1.451 -8.348,-2.514 -15.577,-5.662 -19.047,-7.172 -1.051,-0.462 -1.963,-0.798 -2.82,-1.024 -0.381,-0.142 -0.765,-0.278 -1.223,-0.246 -0.132,-0.005 -0.251,0.046 -0.374,0.059 -0.165,0.032 -0.316,0.032 -0.49,0.084 -0.026,0.013 -0.035,0.038 -0.061,0.05 -0.58,0.189 -1.129,0.511 -1.622,1.188 -0.364,0.509 -0.529,1.115 -0.529,1.727 0,1.136 0.561,2.309 1.464,3.038 l 0.558,0.445 c 2.164,1.76 8.335,6.565 17.24,10.041 -0.931,0.895 -1.87,1.766 -2.814,2.631 -9.612,-5.055 -16.438,-8.029 -19.737,-9.46 l -2.022,-0.904 c -1.518,-0.675 -3.436,-0.206 -4.332,1.195 -0.388,0.604 -0.581,1.275 -0.581,1.926 0,0.878 0.345,1.723 1.057,2.355 l 0.423,0.367 c 6.216,5.502 12.033,9.017 17.382,10.718 0.022,0.141 0.036,0.271 0.055,0.406 -1.309,1.045 -2.635,2.058 -3.973,3.05 -0.321,-0.695 -0.822,-1.282 -1.522,-1.618 -7.177,-3.47 -13.129,-7.171 -16.328,-9.152 -1.444,-0.902 -2.524,-1.468 -3.527,-1.708 -0.213,-0.045 -0.367,-0.18 -0.613,-0.173 -0.099,0 -0.206,0.026 -0.303,0.031 -0.109,0.013 -0.209,0.013 -0.325,0.032 -0.219,0.046 -0.342,0.232 -0.529,0.323 -0.329,0.136 -0.648,0.122 -0.99,0.413 -0.071,0.057 -0.048,0.187 -0.113,0.252 -0.409,0.502 -0.687,1.141 -0.806,1.825 -0.003,0.019 -0.003,0.039 -0.009,0.058 -0.014,0.115 -0.126,0.194 -0.129,0.303 -0.004,0.064 -0.01,0.123 -0.01,0.18 0,0.38 0.297,0.69 0.432,1.057 0.1,0.265 0.151,0.524 0.31,0.761 0.115,0.188 0.103,0.433 0.241,0.587 l 0.416,0.465 c 1.789,2.032 7.01,7.713 15.161,12.324 -1.245,0.799 -2.498,1.559 -3.756,2.315 l -17.615,-9.841 -2.802,-1.542 c -1.451,-0.799 -3.34,-0.457 -4.356,0.851 -0.487,0.632 -0.739,1.381 -0.739,2.122 0,0.8 0.288,1.579 0.874,2.205 l 0.381,0.407 c 5.078,5.449 10.024,9.061 14.777,11.007 -1.454,0.73 -2.908,1.426 -4.365,2.097 -6.01,-6.906 -12.069,-10.177 -15.119,-11.802 l -1.358,-0.754 c 0.016,0.013 0.035,0.052 0.052,0.064 -0.326,-0.355 -0.645,-0.722 -1.106,-0.922 -1.513,-0.638 -3.309,-0.097 -4.185,1.284 -0.21,0.328 -0.478,0.747 -0.478,1.412 0,0.091 0.032,0.213 0.042,0.309 -0.003,0.078 -0.029,0.169 -0.029,0.245 0,1.103 0.535,1.941 1.287,2.619 1.551,2.327 4.936,5.913 11.497,11.42 -2.053,0.762 -4.104,1.458 -6.158,2.103 -4.517,-7.106 -9.738,-10.738 -12.394,-12.582 0,0 -0.58,-0.413 -0.922,-0.665 -0.29,-0.508 -0.713,-0.954 -1.245,-1.27 -0.826,-0.489 -1.7,-0.328 -2.579,-0.083 -0.464,0.116 -0.884,0.29 -1.245,0.587 -0.168,0.135 -0.422,0.091 -0.564,0.258 -0.139,0.18 -0.126,0.445 -0.207,0.65 -0.038,0.085 -0.129,0.117 -0.167,0.201 -0.216,0.529 -0.31,1.013 -0.31,1.463 0,0.588 0.396,1.007 0.668,1.49 0.061,0.167 0.158,0.349 0.232,0.523 0.142,0.187 0.145,0.432 0.309,0.599 1.855,3.837 5.913,8.513 8.684,11.46 -1.523,0.342 -3.051,0.658 -4.566,0.928 -5.136,-7.667 -9.612,-12.148 -11.827,-14.349 l -1.213,-1.25 c 0,0 0.061,0.162 0.091,0.239 -0.716,-1.432 -2.318,-2.226 -3.88,-1.781 -1.463,0.42 -2.442,1.735 -2.442,3.211 0,0.181 0.015,0.37 0.044,0.556 0.071,0.413 0.307,0.741 0.49,1.089 -0.067,-0.122 -0.209,-0.193 -0.267,-0.328 1.267,3.076 4.417,9.486 8.84,13.942 -0.525,0.044 -1.05,0.071 -1.569,0.11 0.003,-0.066 0.019,-0.13 0.019,-0.188 0,-0.728 -0.239,-1.464 -0.665,-2.05 l -9.218,-12.744 c -1.231,-1.747 -2.076,-2.9 -2.789,-3.752 -0.055,-0.084 -0.122,-0.142 -0.18,-0.219 -1.293,-1.47 -2.102,-1.651 -3.634,-1.155 -0.129,0.039 -0.168,0.206 -0.29,0.265 -0.504,0.284 -0.958,0.69 -1.31,1.199 -0.009,0.013 -0.003,0.039 -0.016,0.059 -0.071,0.122 -0.232,0.154 -0.296,0.277 -0.223,0.444 -0.329,0.967 -0.329,1.489 0,0.206 0.061,0.393 0.09,0.593 -0.538,-0.986 -1.016,-1.869 -1.409,-2.599 -0.538,-1.005 -1.003,-1.709 -1.48,-2.418 -0.068,-0.162 -0.181,-0.296 -0.274,-0.451 -0.223,-0.296 -0.519,-0.458 -0.761,-0.678 -0.265,-0.225 -0.38,-0.535 -0.777,-0.69 -0.277,-0.102 -0.555,-0.135 -0.829,-0.154 -0.419,-0.039 -0.841,-0.09 -1.37,0.064 -0.887,0.264 -1.516,0.988 -1.889,1.838 -0.052,-0.154 -0.116,-0.341 -0.168,-0.49 -0.284,-0.832 -0.58,-1.612 -0.919,-2.322 -0.023,-0.083 -0.087,-0.155 -0.12,-0.238 -0.741,-1.457 -1.756,-2.463 -3.711,-2.115 -0.444,0.084 -0.809,0.309 -1.128,0.593 -0.11,-0.4 -0.223,-0.786 -0.348,-1.141 -0.058,-0.245 -0.152,-0.477 -0.275,-0.717 -0.203,-0.412 -0.486,-0.727 -0.795,-1.004 -0.049,-0.04 -0.049,-0.09 -0.104,-0.129 -0.006,-0.007 -0.02,0 -0.026,-0.007 -0.467,-0.361 -1.028,-0.619 -1.831,-0.658 -0.567,-0.033 -1.032,0.291 -1.49,0.599 l 0,-0.206 c -0.02,-1.625 -1.232,-2.952 -2.837,-3.219 -1.609,-0.269 -3.209,0.717 -3.754,2.252 -0.241,0.678 -0.509,1.491 -0.776,2.354 -0.013,-1.406 -0.023,-2.347 -0.023,-2.347 l -0.071,-5.656 c -0.019,-1.638 -1.238,-2.896 -2.856,-3.148 -1.544,-0.245 -3.035,0.75 -3.621,2.187 0.077,-1.044 0.132,-1.96 0.174,-2.715 l 0.126,-1.8 c 0.006,-0.089 0.009,-0.193 0.009,-0.283 0,-0.084 -0.071,-0.154 -0.074,-0.238 0.006,-0.09 0.065,-0.168 0.065,-0.259 0,-1.077 -0.478,-2.127 -1.397,-2.754 -0.09,-0.063 -0.197,-0.038 -0.287,-0.096 -0.432,-0.329 -0.896,-0.593 -1.413,-0.613 -0.763,-0.032 -1.469,0.33 -2.134,0.949 l -0.003,0 c 0.094,-0.844 0.175,-1.606 0.232,-2.245 l 0.171,-1.553 c 0,0 -0.238,0.335 -0.461,0.658 0.284,-0.53 0.493,-1.104 0.493,-1.697 0,-0.896 -0.332,-1.774 -1.006,-2.398 -0.145,-0.137 -0.338,-0.098 -0.493,-0.208 -0.393,-0.424 -0.87,-0.727 -1.458,-0.793 l 0.156,-1.006 c 0,0 -0.368,0.536 -0.651,0.943 0.467,-0.632 0.724,-1.394 0.724,-2.155 0,-0.374 -0.296,-0.658 -0.416,-1.012 -0.006,-0.019 -0.006,-0.038 -0.01,-0.052 -0.008,-0.02 -0.024,-0.039 -0.034,-0.057 -0.155,-0.413 -0.162,-0.89 -0.497,-1.214 -0.093,-0.089 -0.229,-0.056 -0.325,-0.134 -0.13,-0.155 -0.284,-0.277 -0.436,-0.4 0.509,-3.186 0.258,-3.817 -0.722,-4.554 0.01,-0.032 0.019,-0.057 0.029,-0.095 0.241,-0.891 0.148,-1.981 -0.332,-2.767 -0.081,-0.13 -0.206,-0.226 -0.3,-0.349 0.441,-1.011 0.664,-1.934 0.745,-2.392 0.035,-0.2 0.051,-0.413 0.051,-0.619 0,-0.58 -0.158,-1.148 -0.416,-1.664 23.796,-57.084 80.145,-97.252 145.876,-97.252 70.352,0 129.966,46.076 150.363,109.673 -0.443,-0.575 -1.012,-0.987 -1.714,-0.974"
           style="fill:#ffffff;fill-opacity:1;fill-rule:nonzero;stroke:none"
           id="path38"
           inkscape:connector-curvature="0" /><path
           d="m 244.89,398.374 c -0.2,0.425 -0.552,1.166 -0.652,1.374 -0.123,0.198 -0.503,0.876 -0.503,0.876 -0.051,0.071 -2.076,1.968 -2.076,1.968 -0.393,0.372 0.003,0.179 -0.513,0.321 0,0 -0.245,0.071 -0.483,0.136 -0.056,0.025 -0.133,0.057 -0.133,0.057 -0.59,0.259 -1.676,0.723 -3.056,0.529 0.693,-0.987 1.161,-2.225 1.218,-3.727 0.039,-0.18 0.084,-0.387 0.081,-0.368 0.139,-0.605 0.316,-1.43 0.493,-2.359 0.861,0.721 1.845,1.25 3.006,1.458 1.073,0.198 1.966,-0.02 2.618,-0.265"
           style="fill:#231f20;fill-opacity:1;fill-rule:nonzero;stroke:none"
           id="path40"
           inkscape:connector-curvature="0" /><path
           d="m 250.155,392.415 c 0.28,-1.29 0.809,-3.946 1.215,-7.351 0.026,0.038 0.062,0.064 0.09,0.103 0.575,1.483 1.423,2.728 2.586,3.397 1.484,0.865 3.199,1.09 4.837,0.723 -0.538,2.535 -2.328,4.109 -4.14,4.773 -1.663,0.612 -3.469,0.497 -5.072,-0.24 0.181,-0.38 0.345,-0.727 0.345,-0.734 0,0 0.145,-0.69 0.139,-0.671"
           style="fill:#231f20;fill-opacity:1;fill-rule:nonzero;stroke:none"
           id="path42"
           inkscape:connector-curvature="0" /><path
           d="m 175.354,424.8 c -0.02,0.058 0.174,-0.483 0.148,-0.426 l -0.148,0.426 z m 4.568,1.038 c 0.587,0.53 1.683,1.502 3.357,1.678 0.784,0.083 1.506,0.051 2.177,-0.078 -0.149,0.38 -0.243,0.639 -0.243,0.639 -0.006,0.012 0.204,-0.581 0.197,-0.568 0,0 -0.348,0.896 -0.38,0.967 -0.03,0.071 -0.062,0.149 -0.078,0.174 -1.45,2.902 -3.627,4.153 -6.658,3.85 -1.67,-0.174 -2.766,-1.154 -3.356,-1.684 -0.159,-0.135 -0.159,-0.057 -0.288,-0.225 l -0.548,-0.716 c 0.003,0 0.587,0.755 0.578,0.742 l -1.365,-1.85 c 0,-0.015 -0.154,-0.446 -0.299,-0.832 0.809,-0.607 1.486,-1.42 2.067,-2.548 0,0 0.376,-0.916 0.406,-0.974 0.254,-0.747 0.803,-2.34 0.809,-2.353 0.287,-1.039 0.693,-2.418 1.164,-3.94 -0.025,0.445 -0.07,0.974 -0.087,1.373 l -0.039,1.038 c 0,0 0.393,1.586 0.494,1.948 -0.026,-0.071 -0.058,-0.155 -0.058,-0.155 0.022,0.084 0.093,0.29 0.093,0.29 -0.003,-0.006 -0.026,-0.096 -0.035,-0.135 0.122,0.342 0.471,1.29 0.471,1.309 l 1.364,1.844 c 0.009,0.014 -0.578,-0.742 -0.578,-0.742 l 0.545,0.722 c 0.129,0.169 0.133,0.085 0.29,0.226"
           style="fill:#231f20;fill-opacity:1;fill-rule:nonzero;stroke:none"
           id="path44"
           inkscape:connector-curvature="0" /><path
           d="m 194.625,418.357 c 0.004,0.015 0.026,0.123 0.026,0.123 l 0.068,0.162 c -0.046,-0.109 -0.064,-0.182 -0.094,-0.285 m 7.474,5.211 c 0.023,-0.057 -1.128,1.581 -1.128,1.581 l -0.071,0.071 c 0.11,-0.137 -0.171,0.199 -0.171,0.199 -0.825,0.935 -1.899,1.632 -3.147,2.019 -0.842,0.257 -2.341,0.715 -4.043,0.078 0,-0.007 -0.854,-0.516 -1.158,-0.697 -1.183,-0.684 -2.057,-1.729 -2.541,-2.979 0.03,-0.064 0.065,-0.111 0.094,-0.169 0.016,-0.032 0.048,-0.109 0.081,-0.173 -0.003,0 -0.013,0.026 -0.013,0.026 0,0.005 -0.006,0.019 -0.006,0.019 l 0.002,-0.007 0.004,-0.012 c 0.01,-0.026 0.048,-0.11 0.048,-0.11 -0.007,0.012 -0.023,0.051 -0.035,0.084 0.028,-0.079 0.38,-0.975 0.38,-0.975 0.003,-0.012 -0.203,0.582 -0.196,0.568 0,0 1.763,-4.707 1.747,-4.668 0,0 1.474,-4.166 2.883,-8.152 -0.339,2.432 -0.539,4.038 -0.581,5.384 -0.042,0.149 -0.12,0.291 -0.12,0.44 0,0.077 0.007,0.161 0.026,0.238 0,0 0.413,1.78 0.468,2.012 0.42,1.49 1.399,2.715 2.741,3.495 -0.058,-0.039 -0.13,-0.083 -0.13,-0.083 0,0 0.085,0.057 0.165,0.11 0.023,0.012 0.033,0.031 0.056,0.044 -0.065,-0.032 0.212,0.135 0.212,0.13 0,0 -0.142,-0.098 -0.268,-0.174 -0.013,-0.007 -0.023,-0.02 -0.035,-0.027 0.303,0.174 1.158,0.683 1.158,0.69 1.706,0.639 3.201,0.181 4.046,-0.071 0.007,-0.006 0.013,-0.006 0.019,-0.006 -0.061,0.136 -0.126,0.277 -0.177,0.4 0.003,-0.014 -0.31,0.715 -0.31,0.715"
           style="fill:#231f20;fill-opacity:1;fill-rule:nonzero;stroke:none"
           id="path46"
           inkscape:connector-curvature="0" /><path
           d="m 223.763,410.529 c -0.083,-0.046 -0.167,-0.122 -0.257,-0.18 0.042,-0.123 0.183,-0.574 0.18,-0.561 0.474,-1.464 1.364,-4.249 2.099,-7.957 0.613,1.804 1.838,3.074 2.964,3.72 1.399,0.806 3.027,1.083 4.588,0.781 0.061,-0.014 0.126,-0.032 0.187,-0.052 -0.651,2.889 -2.912,4.597 -5.172,5.035 -1.558,0.304 -3.186,0.02 -4.589,-0.786"
           style="fill:#231f20;fill-opacity:1;fill-rule:nonzero;stroke:none"
           id="path48"
           inkscape:connector-curvature="0" /><path
           d="m 218.646,414.947 c -0.055,0.18 -0.138,0.439 -0.138,0.439 -0.003,0.012 -0.793,1.36 -0.909,1.554 -0.097,0.135 -0.32,0.463 -0.32,0.463 -0.741,0.969 -1.544,1.632 -2.511,2.109 -0.242,0.123 -0.21,0.194 -0.475,0.252 0,0 -0.199,0.045 -0.386,0.084 -0.803,0.291 -2.121,0.748 -3.724,0.271 -0.013,0 -1.08,-0.704 -1.725,-1.123 0.216,0.098 0.639,0.296 0.639,0.296 -0.014,-0.005 -1.274,-0.759 -1.846,-1.096 0.075,-0.174 0.143,-0.334 0.14,-0.328 0.635,-1.437 1.918,-4.367 3.185,-8.319 0.103,0.388 0.206,0.761 0.271,1 -0.065,-0.161 -0.116,-0.291 -0.116,-0.291 0.003,0.007 0.177,0.51 0.177,0.51 -0.003,-0.006 -0.035,-0.123 -0.061,-0.219 0.084,0.213 0.2,0.502 0.329,0.825 l -0.019,-0.046 c 0.274,0.646 0.19,1.348 0.796,1.71 0,0 2.109,1.264 2.128,1.271 0,0 -0.425,-0.201 -0.642,-0.297 -0.261,-0.175 -0.454,-0.298 -0.47,-0.31 -0.01,-0.006 -0.027,-0.025 -0.027,-0.019 0,0 0.004,0 0.007,0.006 l 0.02,0.013 c 0.035,0.032 0.113,0.097 0.113,0.097 0.07,0.057 0.086,0.084 0.086,0.089 -0.038,-0.005 0.004,0.02 0.004,0.008 l -0.004,-0.008 c 0.02,0.008 0.033,0.014 0.095,0.039 0,0 0.115,0.052 0.176,0.085 0.645,0.419 1.712,1.122 1.726,1.122 1.463,0.432 2.666,0.09 3.481,-0.187"
           style="fill:#231f20;fill-opacity:1;fill-rule:nonzero;stroke:none"
           id="path50"
           inkscape:connector-curvature="0" /><path
           d="m 391.685,330.204 c -0.394,-0.419 -1.033,-1.09 -1.419,-1.489 0.148,0.116 0.257,0.206 0.257,0.206 -0.013,-0.005 -0.593,-0.548 -0.593,-0.548 0.013,0.007 0.142,0.142 0.336,0.342 -0.503,-0.401 -1.561,-1.232 -1.561,-1.232 -1.56,-0.58 -3.16,-0.491 -4.592,0 -0.703,-1.766 -1.367,-3.115 -1.766,-3.908 l -0.233,-0.465 c -1.096,-2.237 -2.327,-3.481 -3.52,-4.133 -27.227,-46.895 -77.459,-76.713 -133.482,-76.713 -40.681,0 -78.567,15.779 -106.742,42.677 28.603,-29.928 68.591,-47.662 111.727,-47.662 62.285,0 117.43,36.847 141.736,93.054 -0.213,-0.251 -0.549,-0.639 -0.549,-0.639 0.007,0.008 0.188,0.24 0.401,0.51"
           style="fill:#231f20;fill-opacity:1;fill-rule:nonzero;stroke:none"
           id="path52"
           inkscape:connector-curvature="0" /><path
           d="m 158.093,429.366 c -0.002,-0.007 -0.025,-0.09 -0.035,-0.116 -0.019,-0.058 -0.048,-0.128 -0.048,-0.128 0.029,0.095 0.083,0.244 0.083,0.244 m -54.794,-20.378 c -0.026,-0.02 -0.103,-0.064 -0.103,-0.064 l 0.222,0.154 c -0.042,-0.026 -0.077,-0.064 -0.119,-0.09 0.159,0.097 0.648,0.413 0.661,0.419 0,0 -0.729,-0.497 -0.731,-0.497 0,0 1.785,1.02 1.785,1.032 0,0 1.877,0.142 1.88,0.155 0.007,0 0.99,-0.16 1.519,-0.251 0.055,1.374 0.451,2.696 1.203,3.726 1.164,1.588 2.738,2.593 4.443,2.832 0,0 1.192,0.027 1.192,0.019 0,0 1.961,-0.342 1.967,-0.347 0,0 0.575,-0.413 1.097,-0.788 0.068,1.29 0.29,2.342 0.773,3.16 1.187,1.999 3.409,3.089 6.092,2.986 0.847,-0.032 1.676,-0.316 2.466,-0.703 0.045,0.071 0.097,0.155 0.174,0.277 0.013,0.027 0.033,0.052 0.045,0.085 0.13,0.387 0.255,0.767 0.255,0.799 0,0 1.712,1.606 1.919,1.793 -0.084,-0.051 -0.184,-0.078 -0.265,-0.136 -0.003,-0.006 -0.016,-0.013 -0.016,-0.013 0,0 0.003,0 0.01,0.007 0.003,0 0.003,0 0.006,0.006 0.036,0.019 0.391,0.271 0.391,0.259 0,0 -0.114,-0.11 -0.126,-0.123 1.337,0.928 2.918,1.374 4.511,1.192 2.272,-0.257 4.149,-1.754 5.123,-3.842 0.058,-0.078 0.151,-0.118 0.2,-0.201 0,0 0.113,-0.193 0.245,-0.418 -0.061,0.141 -0.1,0.271 -0.1,0.425 0,0.116 0.017,0.238 0.058,0.407 0,0 0.664,2.849 0.664,2.907 0,0 0.191,0.252 0.352,0.458 0.026,0.064 0.093,0.142 0.142,0.206 0.228,0.438 0.509,0.962 0.538,0.994 0,0 1.957,1.121 1.967,1.128 0,0 -1.113,-0.541 -1.219,-0.625 1.693,1.425 3.847,1.934 5.91,1.399 1.245,-0.322 2.293,-1.038 3.128,-1.954 1.016,1.484 2.589,2.587 4.585,2.883 2.924,0.424 5.778,-1.309 7.025,-4.05 0.146,0.386 0.326,0.864 0.326,0.871 l 1.455,1.895 c 0.142,0.188 0.113,0.058 0.29,0.213 l 0.148,0.122 c 0.554,0.472 1.59,1.361 3.153,1.491 0.729,0.064 1.419,0 2.09,-0.155 -0.045,0.128 -0.09,0.258 -0.126,0.36 -0.025,0.066 -0.403,0.981 -0.403,0.981 -0.59,1.141 -1.277,1.966 -2.1,2.573 -1.369,0.979 -2.83,1.361 -4.442,1.224 -1.567,-0.134 -2.602,-1.018 -3.157,-1.488 l -0.145,-0.123 c -0.181,-0.154 -0.148,-0.026 -0.294,-0.213 l -1.45,-1.896 c 0,-0.006 -0.181,-0.483 -0.329,-0.87 -1.248,2.734 -4.101,4.475 -7.022,4.049 -2,-0.296 -3.574,-1.398 -4.589,-2.881 -0.832,0.915 -1.88,1.63 -3.128,1.946 -2.06,0.536 -4.217,0.027 -5.909,-1.393 0.105,0.084 1.218,0.619 1.218,0.619 -0.006,0 -1.967,-1.128 -1.967,-1.128 -0.026,-0.025 -0.306,-0.555 -0.535,-0.986 0.155,0.225 0.373,0.47 0.499,0.638 0,0 -0.267,-0.355 -0.538,-0.704 -0.135,-0.264 -0.255,-0.483 -0.258,-0.489 0.01,0.013 0.151,0.342 0.151,0.349 -0.16,-0.208 -0.347,-0.458 -0.347,-0.458 0,-0.058 -0.668,-2.91 -0.668,-2.91 -0.042,-0.167 -0.058,-0.289 -0.058,-0.399 0,-0.168 0.042,-0.29 0.103,-0.433 l 0,-0.005 c -0.135,0.232 -0.245,0.426 -0.245,0.426 -0.051,0.083 -0.145,0.122 -0.2,0.199 -0.974,2.089 -2.853,3.58 -5.126,3.837 -1.593,0.181 -3.169,-0.264 -4.508,-1.187 -0.21,-0.193 -1.918,-1.792 -1.918,-1.792 0,-0.032 -0.126,-0.413 -0.259,-0.8 0.156,0.284 0.384,0.573 0.536,0.813 0,0 -0.284,-0.446 -0.541,-0.845 -0.046,-0.135 -0.082,-0.252 -0.126,-0.374 -0.01,0.007 -0.02,0.012 -0.033,0.019 0.013,0.052 0.036,0.142 0.036,0.142 0.013,0.044 0.064,0.103 0.083,0.155 -0.077,-0.123 -0.128,-0.199 -0.173,-0.272 -0.791,0.389 -1.62,0.671 -2.468,0.704 -2.679,0.103 -4.9,-0.986 -6.087,-2.985 -0.487,-0.82 -0.706,-1.878 -0.774,-3.161 -0.522,0.375 -1.096,0.787 -1.096,0.787 -0.006,0 -1.97,0.348 -1.97,0.348 l -1.193,-0.019 c -1.705,-0.239 -3.279,-1.245 -4.44,-2.831 -0.751,-1.033 -1.151,-2.354 -1.202,-3.735 -0.533,0.091 -1.513,0.252 -1.519,0.252 -0.004,-0.005 -1.883,-0.154 -1.883,-0.154 0,-0.007 -1.786,-1.025 -1.786,-1.025 0.006,0 0.735,0.496 0.735,0.496 -0.013,-0.007 -0.507,-0.323 -0.664,-0.419 -0.542,-0.329 -1.026,-0.736 -1.455,-1.199 -0.523,-3.877 -0.906,-7.778 -1.138,-11.711 0.474,0.296 0.951,0.586 1.496,0.741 0.861,0.245 1.873,0.342 2.934,0.181 -0.032,0.296 -0.122,1.219 -0.122,1.219 0,2.386 1.303,4.604 3.269,5.784"
           style="fill:#231f20;fill-opacity:1;fill-rule:nonzero;stroke:none"
           id="path54"
           inkscape:connector-curvature="0" /><path
           d="m 401.918,420.318 c -5.952,32.012 -21.647,60.779 -44.953,83.053 20.557,-21.513 34.448,-48.391 39.969,-78.068 -1.587,-1.27 -2.631,-3.179 -2.631,-5.333 l 0.038,-0.722 c 0,-0.013 0.09,-0.419 0.2,-0.903 -0.116,-0.122 -0.265,-0.219 -0.374,-0.355 -0.936,-1.173 -1.451,-2.663 -1.451,-4.191 l 0.09,-1.11 c 0.046,-0.264 0.142,-0.779 0.271,-1.393 -1.277,-0.774 -2.244,-1.838 -2.761,-3.249 -0.077,-0.078 -0.476,-2.089 -0.476,-2.089 -0.052,-0.246 -0.077,-0.201 -0.09,-0.162 0,-0.007 0.019,-0.039 0.051,-0.174 0,0 0.322,-1.302 0.515,-2.122 -0.019,-0.012 -0.038,-0.02 -0.057,-0.025 0,0 -0.006,0.025 -0.006,0.032 l 0,-0.039 c -0.4,-0.149 -0.807,-0.291 -1.161,-0.529 -2.031,-1.334 -3.005,-3.069 -3.005,-5.32 0,0.188 0.122,0.709 0.154,0.89 l -0.193,-1.135 c 0,0 0.141,-0.793 0.2,-1.148 0.013,-0.059 0.123,-0.612 0.2,-0.98 -0.638,-0.085 -1.284,-0.136 -1.87,-0.426 -1.432,-0.716 -2.476,-1.786 -3.096,-3.191 0,0.032 -0.335,-1.432 -0.529,-2.252 -0.168,-0.058 -0.361,-0.038 -0.522,-0.109 -1.554,-0.696 -2.676,-1.831 -3.334,-3.36 -0.044,-0.026 -0.645,-2.74 -0.645,-2.74 l 0.013,-0.032 c -0.863,-0.014 -1.728,-0.188 -2.567,-0.595 -1.985,-0.972 -3.224,-2.565 -3.604,-4.603 -0.032,-0.239 -0.188,-1.413 -0.188,-1.413 0,0 0.04,-0.206 0.052,-0.277 -1.257,0.374 -2.618,0.399 -3.946,-0.117 0,0 -1.174,-0.778 -1.432,-0.947 0.091,0.065 0.194,0.134 0.194,0.134 0,0 -0.078,-0.037 -0.142,-0.089 0.077,0.065 0.168,0.128 0.168,0.128 0.006,0.007 -0.098,-0.07 -0.181,-0.134 -0.051,-0.033 -0.103,-0.072 -0.103,-0.072 -0.523,-0.367 -1.484,-1.064 -2.064,-2.276 -0.039,-0.012 -0.748,-2.966 -0.748,-2.966 0,0 0.045,-0.284 0.091,-0.541 -1.961,1.334 -4.528,1.869 -6.862,0.619 -1.406,-0.756 -2.412,-1.87 -2.992,-3.314 -0.013,-0.02 -0.065,-0.246 -0.136,-0.536 -1.695,1.051 -3.759,1.381 -5.623,0.71 -0.013,-0.007 -1.319,-0.813 -1.435,-0.891 -0.222,-0.181 -2.209,-2.283 -2.209,-2.283 -0.218,-0.387 -0.377,-0.813 -0.509,-1.244 l -0.009,0.012 c -2.087,2.135 -5.021,2.812 -7.449,1.697 0,0 -0.497,-0.356 -0.854,-0.613 -0.877,-0.562 -1.509,-1.316 -1.993,-2.161 -0.848,0.923 -1.773,1.555 -2.886,1.961 -0.052,0.013 -0.241,0.077 -0.286,0.09 -0.794,0.252 -2.261,0.703 -3.934,0.11 -0.017,-0.006 -0.261,-0.169 -0.536,-0.354 0.007,0 0.004,0 0.017,0.007 -0.027,-0.015 -0.042,-0.034 -0.069,-0.039 -0.431,-0.291 -0.947,-0.639 -0.947,-0.639 0.003,0 0.387,0.276 0.603,0.438 -0.916,-0.451 -1.69,-1.057 -2.263,-1.858 -0.284,0.414 -0.584,0.845 -0.584,0.845 -0.055,0.058 0.02,-0.031 0.02,-0.031 0.099,-0.136 -0.246,0.315 -0.246,0.315 -0.051,0.065 -0.071,0.083 -0.125,0.142 -0.761,0.851 -1.651,1.47 -2.718,1.883 -0.21,0.084 -0.184,0.136 -0.407,0.175 0,0 -0.142,0.02 -0.254,0.037 -0.797,0.246 -2.261,0.633 -3.909,-0.006 0,-0.006 -0.203,-0.148 -0.445,-0.322 -0.521,-0.22 -0.996,-0.49 -1.415,-0.818 -0.029,0.056 -0.094,0.199 -0.094,0.199 -0.041,0.078 -0.535,0.768 -0.535,0.768 0.007,-0.013 0.065,-0.09 0.065,-0.09 -0.033,0.051 -1.18,1.346 -1.18,1.346 -0.168,0.195 -0.433,0.303 -0.713,0.401 -0.067,0.052 -0.139,0.11 -0.177,0.123 l -1.27,0.437 c -0.03,0.013 -0.007,0 0.01,-0.006 -0.781,0.291 -1.98,0.665 -3.39,0.369 -0.171,-0.027 -0.654,-0.13 -0.654,-0.13 -1.051,-0.394 -1.87,-0.922 -2.544,-1.625 1.428,-1.128 2.431,-2.78 2.75,-4.449 0,0 0.222,-1.175 0.213,-1.129 0.132,-0.645 0.296,-1.495 0.461,-2.445 0.109,0.42 0.161,0.859 0.339,1.252 0,0 0.538,0.948 0.538,0.955 0.784,1.134 1.789,1.921 3.228,2.455 0,0 0.479,0.105 0.654,0.137 -0.145,-0.032 -0.271,-0.019 -0.42,-0.065 0.101,0.033 0.43,0.065 0.535,0.091 0,0 -0.086,-0.02 -0.115,-0.026 1.409,0.289 2.609,-0.085 3.389,-0.369 -0.02,0 -0.039,0.015 -0.013,0.007 l 1.274,-0.444 c 0.038,-0.013 0.109,-0.072 0.177,-0.124 0.281,-0.089 0.541,-0.206 0.712,-0.393 0,0 1.145,-1.303 1.177,-1.354 0,0 -0.058,0.085 -0.061,0.09 0,0 0.49,-0.695 0.536,-0.76 0,0 0.064,-0.148 0.089,-0.207 0.423,0.329 0.897,0.6 1.416,0.826 0.242,0.168 0.449,0.315 0.449,0.315 1.647,0.646 3.108,0.252 3.907,0.013 0.113,-0.018 0.255,-0.044 0.255,-0.044 0.219,-0.039 0.197,-0.091 0.406,-0.167 1.064,-0.421 1.954,-1.033 2.718,-1.885 0.056,-0.063 0.074,-0.083 0.123,-0.147 0,0 0.345,-0.446 0.248,-0.316 0,0 -0.077,0.096 -0.02,0.037 0,0 0.3,-0.437 0.584,-0.849 0.575,0.805 1.348,1.405 2.26,1.856 0.069,0.051 0.188,0.136 0.188,0.136 0.209,0.154 0.006,0.019 0.209,0.097 0.278,0.187 0.523,0.347 0.535,0.354 1.677,0.6 3.144,0.142 3.933,-0.11 0.049,-0.013 0.24,-0.076 0.288,-0.089 1.113,-0.406 2.042,-1.032 2.889,-1.962 0.484,0.851 1.115,1.6 1.989,2.161 -0.193,-0.135 -0.357,-0.252 -0.357,-0.252 0.003,0 0.563,0.433 0.563,0.433 -0.08,-0.046 -0.125,-0.129 -0.206,-0.181 0.359,0.257 0.855,0.612 0.855,0.612 2.431,1.116 5.365,0.44 7.448,-1.689 l 0.013,-0.02 c 0.132,0.439 0.287,0.865 0.51,1.245 0,0 1.979,2.103 2.205,2.29 0.123,0.071 1.425,0.876 1.438,0.883 1.87,0.671 3.928,0.342 5.623,-0.71 0.065,0.291 0.122,0.517 0.142,0.537 0.581,1.444 1.573,2.559 2.979,3.321 2.334,1.243 4.914,0.715 6.863,-0.626 -0.039,0.259 -0.091,0.542 -0.091,0.542 0,0 0.721,2.96 0.754,2.965 0.574,1.214 1.542,1.909 2.057,2.284 0,0 0.051,0.031 0.104,0.063 0.09,0.066 0.193,0.15 0.18,0.137 0,0 -0.078,-0.065 -0.162,-0.123 0.072,0.045 0.136,0.091 0.136,0.091 0,0 -0.097,-0.078 -0.181,-0.142 0.258,0.174 1.432,0.953 1.419,0.947 1.329,0.516 2.696,0.49 3.954,0.116 -0.014,0.071 -0.045,0.278 -0.045,0.278 0,0 0.147,1.173 0.179,1.418 -0.006,-0.025 -0.025,-0.039 -0.025,-0.059 l 0,-0.005 0,0.005 c 0,0.014 0.039,0.22 0.039,0.207 0,0 -0.014,-0.128 -0.014,-0.148 0.387,2.031 1.625,3.632 3.599,4.599 0.839,0.412 1.715,0.586 2.566,0.592 l 0,0.033 c 0,0 0.593,2.715 0.639,2.74 0.651,1.528 1.773,2.664 3.334,3.36 0.162,0.077 0.348,0.052 0.522,0.111 0.187,0.818 0.53,2.282 0.53,2.256 0.625,1.399 1.657,2.47 3.095,3.185 0.586,0.291 1.231,0.343 1.87,0.426 -0.078,0.367 -0.188,0.923 -0.2,0.981 0.012,-0.078 0.038,-0.252 0.038,-0.259 0,-0.005 0.013,-0.019 0.013,-0.019 0,0 -0.006,0 -0.013,0.007 l 0,0.012 c 0,0.027 -0.012,0.064 -0.012,0.064 -0.014,0.053 -0.045,0.278 -0.052,0.323 0,0 0.026,-0.123 0.026,-0.128 -0.065,0.354 -0.194,1.147 -0.194,1.147 l 0.181,1.134 c -0.026,-0.18 -0.155,-0.702 -0.155,-0.888 0,2.25 0.98,3.991 3.005,5.326 0.361,0.232 0.768,0.374 1.167,0.529 l -0.006,0.031 c 0,-0.005 0.013,-0.031 0.013,-0.031 0.026,0.007 0.038,0.019 0.058,0.026 -0.2,0.818 -0.516,2.121 -0.516,2.121 -0.032,0.136 -0.046,0.168 -0.057,0.174 0.011,-0.032 0.044,-0.084 0.096,0.161 0,0 0.393,2.012 0.477,2.09 0.515,1.417 1.476,2.477 2.76,3.25 -0.136,0.619 -0.226,1.128 -0.271,1.393 l -0.097,1.109 c 0,1.529 0.516,3.018 1.458,4.198 0.103,0.136 0.257,0.225 0.373,0.347 -0.109,0.492 -0.199,0.898 -0.199,0.904 l -0.039,0.722 c 0,2.161 1.051,4.07 2.631,5.333"
           style="fill:#231f20;fill-opacity:1;fill-rule:nonzero;stroke:none"
           id="path56"
           inkscape:connector-curvature="0" /><path
           d="m 291.952,371.476 c -1.273,-0.057 -2.402,-0.413 -3.35,-0.987 0.951,-1.025 1.641,-2.328 1.866,-3.784 l 0.156,-1.001 c 0.128,-0.754 0.303,-1.818 0.451,-3.101 0.919,2.244 3.057,3.766 5.862,3.889 0.596,0.025 1.158,-0.065 1.703,-0.201 -0.823,2.767 -3.383,5.334 -6.688,5.185"
           style="fill:#231f20;fill-opacity:1;fill-rule:nonzero;stroke:none"
           id="path58"
           inkscape:connector-curvature="0" /><path
           d="m 278.838,377.687 c -0.576,-0.007 -1.125,-0.09 -1.65,-0.227 0.751,-1.019 1.228,-2.244 1.283,-3.571 l 0,-0.085 c 0,-0.109 -0.006,-0.322 -0.039,-0.419 0,0 -0.018,-0.206 -0.036,-0.406 0.023,-0.181 0.049,-0.361 0.046,-0.355 0.084,-0.573 0.184,-1.398 0.278,-2.282 1.202,1.412 2.976,2.34 5.103,2.359 0.5,0 0.984,-0.077 1.461,-0.2 -0.838,2.979 -3.511,5.198 -6.446,5.186"
           style="fill:#231f20;fill-opacity:1;fill-rule:nonzero;stroke:none"
           id="path60"
           inkscape:connector-curvature="0" /><path
           d="m 268.885,379.543 c 0,0.007 -0.003,0.007 -0.003,0.007 0,0.007 0.019,0.013 0.019,0.007 0,0 -0.012,-0.007 -0.016,-0.014 0.013,0 0.042,0.007 0.142,0.039 0,0 1.732,0.528 1.858,0.548 0,0 1.434,0.058 1.434,0.064 0.348,-0.025 0.681,-0.095 1.01,-0.173 -0.626,2.767 -3.028,4.926 -5.991,5.159 l -1.436,-0.065 c -0.128,-0.019 -1.86,-0.554 -1.86,-0.554 -0.096,-0.026 -0.128,-0.033 -0.138,-0.033 -0.004,-0.007 -0.023,-0.019 -0.078,-0.065 0.126,-0.534 0.216,-1.095 0.216,-1.721 0,-0.162 -0.019,-0.343 -0.032,-0.516 0.029,-0.246 0.068,-0.58 0.064,-0.554 0.19,-1.535 0.481,-3.858 0.481,-6.946 0,-1.895 -0.248,-3.85 -0.474,-5.796 0.374,1.831 0.658,3.334 0.822,4.203 0,0 0.21,1.096 0.252,1.186 0.18,1.09 0.548,2.059 1.096,2.857 0.093,0.137 0,0.047 0.113,0.162 0,0 1.148,1.231 1.148,1.258 l -0.007,-0.007 1.28,0.878 c 0.081,0.056 0.1,0.07 0.1,0.076"
           style="fill:#231f20;fill-opacity:1;fill-rule:nonzero;stroke:none"
           id="path62"
           inkscape:connector-curvature="0" /><path
           d="m 111.537,383.735 c -0.045,-0.219 -0.064,-0.445 -0.064,-0.665 0,-0.006 0.003,-0.006 0.003,-0.006 0.036,0.213 0.022,0.458 0.061,0.671"
           style="fill:#ffffff;fill-opacity:1;fill-rule:nonzero;stroke:none"
           id="path64"
           inkscape:connector-curvature="0" /><path
           d="m 260.656,380.718 c -0.044,1.701 -1.357,3.05 -3.056,3.198 -1.248,0.108 -2.37,-0.542 -3.018,-1.549 0.651,0.891 1.732,1.425 2.905,1.362 1.635,-0.084 2.973,-1.413 3.163,-3.031 0,0 0.006,0.012 0.006,0.02"
           style="fill:#ffffff;fill-opacity:1;fill-rule:nonzero;stroke:none"
           id="path66"
           inkscape:connector-curvature="0" /><path
           d="m 232.005,400.953 c -1.27,-0.006 -2.366,-0.728 -2.924,-1.8 0.554,0.974 1.609,1.606 2.815,1.652 1.628,0.071 3.085,-1.148 3.437,-2.734 -0.232,1.657 -1.651,2.882 -3.328,2.882"
           style="fill:#ffffff;fill-opacity:1;fill-rule:nonzero;stroke:none"
           id="path68"
           inkscape:connector-curvature="0" /><path
           d="m 155.091,516.462 c 1.748,-1.355 4.225,-1.09 4.225,-1.09 0,0 -0.365,2.457 -2.116,3.811 -1.747,1.355 -4.217,1.09 -4.217,1.09 0,0 0.358,-2.464 2.108,-3.811"
           style="fill:#ffffff;fill-opacity:1;fill-rule:nonzero;stroke:none"
           id="path70"
           inkscape:connector-curvature="0" /><path
           d="m 166.893,520.898 c 3.376,-2.186 7.042,-2.514 7.042,-2.514 0,0 -1.792,3.218 -5.165,5.41 -3.373,2.18 -7.049,2.508 -7.049,2.508 0,0 1.799,-3.217 5.172,-5.404"
           style="fill:#ffffff;fill-opacity:1;fill-rule:nonzero;stroke:none"
           id="path72"
           inkscape:connector-curvature="0" /><path
           d="m 180.435,527.56 c 5.275,-3.786 10.19,-6.72 10.324,-6.603 -0.083,-0.174 -2.602,5.281 -8.344,9.421 -1.535,0.871 -4.569,2.702 -5.859,3.108 1.213,1.419 1.915,2.393 1.915,2.393 0,0 -1.357,-0.504 -3.388,-1.522 -1.151,-4.63 3.198,-4.372 5.352,-6.797"
           style="fill:#ffffff;fill-opacity:1;fill-rule:nonzero;stroke:none"
           id="path74"
           inkscape:connector-curvature="0" /><path
           d="m 192.339,532.912 c 7.823,-5.481 14.09,-10.433 14.323,-10.227 -0.171,-0.277 -4.082,7.229 -12.266,13.001 -0.838,0.193 -2.25,1.741 -3.321,2.482 1.116,0.852 2.167,1.67 3.044,2.392 2.493,2.058 3.95,3.463 3.95,3.463 0,0 -1.909,-0.677 -4.86,-1.999 -1.473,-0.657 -3.204,-1.477 -5.087,-2.457 -0.58,-6.203 2.773,-4.152 4.217,-6.655"
           style="fill:#ffffff;fill-opacity:1;fill-rule:nonzero;stroke:none"
           id="path76"
           inkscape:connector-curvature="0" /><path
           d="m 224.467,524.194 c -0.203,-0.278 -4.26,7.861 -12.875,14.438 -1.613,1.264 -3.183,2.393 -4.701,3.45 0.964,0.607 2.106,2.464 2.782,2.522 2.628,2.302 4.157,3.863 4.157,3.863 0,0 -2.013,-0.851 -5.124,-2.438 -1.338,-1.877 -3.869,0.632 -4.885,-5.352 1.686,-1.53 3.573,-3.14 5.623,-4.74 8.239,-6.255 14.771,-11.962 15.023,-11.743"
           style="fill:#ffffff;fill-opacity:1;fill-rule:nonzero;stroke:none"
           id="path78"
           inkscape:connector-curvature="0" /><path
           d="m 222.687,538.161 c 8.703,-6.577 15.212,-13.013 15.918,-13.168 -0.738,0.78 -4.942,9.138 -13.768,15.858 -1.634,0.516 -3.353,3.373 -4.891,3.598 1.38,0.974 2.667,1.909 3.753,2.728 3.038,2.296 4.837,3.863 4.837,3.863 0,0 -2.238,-0.826 -5.714,-2.38 -1.741,-0.78 -3.788,-1.741 -6.023,-2.876 1.368,-6.565 3.763,-4.779 5.888,-7.623"
           style="fill:#ffffff;fill-opacity:1;fill-rule:nonzero;stroke:none"
           id="path80"
           inkscape:connector-curvature="0" /><path
           d="m 257.793,525.406 c -0.216,-0.291 -5.22,8.834 -15.077,16.509 -1.857,1.47 -3.655,2.805 -5.391,4.049 1.303,0.374 2.828,2.619 3.811,2.67 3.308,2.328 5.269,3.908 5.269,3.908 0,0 -2.38,-0.826 -6.103,-2.398 -1.78,-1.896 -4.241,0.728 -6.275,-5.392 1.963,-1.767 4.156,-3.644 6.526,-5.52 9.512,-7.378 16.986,-14.071 17.24,-13.826"
           style="fill:#ffffff;fill-opacity:1;fill-rule:nonzero;stroke:none"
           id="path82"
           inkscape:connector-curvature="0" /><path
           d="m 272.039,525.393 c -0.223,-0.278 -4.727,8.777 -14.091,16.496 -1.796,1.503 -3.533,2.856 -5.217,4.127 1.165,0.542 2.702,2.386 3.482,2.405 3.257,2.18 5.195,3.677 5.195,3.677 0,0 -2.338,-0.736 -5.991,-2.148 -1.619,-1.845 -4.453,0.941 -5.878,-5.166 1.857,-1.767 3.927,-3.643 6.175,-5.513 9.005,-7.397 16.067,-14.104 16.325,-13.878"
           style="fill:#ffffff;fill-opacity:1;fill-rule:nonzero;stroke:none"
           id="path84"
           inkscape:connector-curvature="0" /><path
           d="m 273.692,538.413 c 7.784,-7.3 14.204,-13.477 14.413,-13.31 -0.18,-0.213 -3.953,8.202 -12.02,15.787 -1.515,1.45 -3.008,2.759 -4.449,3.991 1.064,0.535 2.456,1.941 3.075,1.87 3.099,1.812 4.946,3.076 4.946,3.076 0,0 -2.188,-0.477 -5.632,-1.496 -1.567,-1.65 -4.092,1.406 -5.633,-4.501 1.58,-1.728 3.357,-3.566 5.3,-5.417"
           style="fill:#ffffff;fill-opacity:1;fill-rule:nonzero;stroke:none"
           id="path86"
           inkscape:connector-curvature="0" /><path
           d="m 290.179,536.046 c 6.222,-6.681 11.891,-11.781 12.023,-11.704 -0.1,-0.115 -3.082,7.152 -9.479,14.032 -1.452,1.548 -2.886,2.947 -4.257,4.217 0.826,0.491 1.706,1.045 1.793,1.013 2.664,1.516 4.253,2.612 4.253,2.612 0,0 -1.906,-0.296 -4.888,-1.019 -0.819,-1.612 -4.756,1.999 -3.669,-4.231 1.241,-1.572 2.653,-3.243 4.224,-4.92"
           style="fill:#ffffff;fill-opacity:1;fill-rule:nonzero;stroke:none"
           id="path88"
           inkscape:connector-curvature="0" /><path
           d="m 308.019,532.255 c 4.71,-5.359 9.479,-9.151 9.57,-9.112 -0.058,-0.084 -2.099,5.822 -6.994,11.4 -1.415,1.484 -4.304,4.328 -5.358,4.967 1.654,1.405 2.624,2.398 2.624,2.398 0,0 -1.496,-0.361 -3.785,-1.167 -2.129,-4.288 2.266,-5.353 3.943,-8.486"
           style="fill:#ffffff;fill-opacity:1;fill-rule:nonzero;stroke:none"
           id="path90"
           inkscape:connector-curvature="0" /><path
           d="m 317.392,538.594 c 0.113,0 0.177,0.025 0.126,0.155 0.086,0.154 0.013,0.051 -0.126,-0.155"
           style="fill:#ffffff;fill-opacity:1;fill-rule:nonzero;stroke:none"
           id="path92"
           inkscape:connector-curvature="0" /><path
           d="m 327.923,522.233 c -0.048,-0.084 -1.439,5.153 -5.572,10.041 -2.144,2.174 -4.359,3.85 -6.062,4.991 0.307,0.201 0.836,0.948 1.103,1.329 -0.442,-0.007 -1.876,0.426 -2.486,-2.457 1.132,-1.755 2.747,-4.012 4.872,-6.158 3.867,-4.573 8.068,-7.778 8.145,-7.746"
           style="fill:#ffffff;fill-opacity:1;fill-rule:nonzero;stroke:none"
           id="path94"
           inkscape:connector-curvature="0" /><path
           d="m 339.53,520.428 c 0.01,-0.02 -1.26,4.056 -4.562,7.835 -3.627,3.418 -7.67,4.843 -7.658,4.83 0.013,-0.013 1.728,-3.979 5.185,-7.236 3.099,-3.553 7.023,-5.417 7.035,-5.429"
           style="fill:#ffffff;fill-opacity:1;fill-rule:nonzero;stroke:none"
           id="path96"
           inkscape:connector-curvature="0" /><path
           d="m 411.61,405.732 c 0.013,-0.039 0.581,2.727 -0.793,5.474 -1.928,2.451 -4.674,3.076 -4.635,3.044 0.037,-0.032 0.154,-2.947 1.72,-4.875 1.11,-2.289 3.697,-3.604 3.708,-3.643"
           style="fill:#ffffff;fill-opacity:1;fill-rule:nonzero;stroke:none"
           id="path98"
           inkscape:connector-curvature="0" /><path
           d="m 410.598,401.288 c -2.553,4.302 -6.017,6.733 -5.991,6.706 0.013,-0.019 0.542,-4.293 2.909,-8.246 1.755,-4.276 4.843,-7.255 4.856,-7.287 0.005,-0.026 0.142,4.203 -1.774,8.827"
           style="fill:#ffffff;fill-opacity:1;fill-rule:nonzero;stroke:none"
           id="path100"
           inkscape:connector-curvature="0" /><path
           d="m 401.731,399.772 c -0.329,-0.167 2.502,-7.595 4.205,-16.773 2.709,-9.318 4.049,-16.767 4.165,-16.928 -0.077,-0.193 1.935,8.229 -0.787,17.613 -1.914,9.976 -7.969,16.005 -7.583,16.088"
           style="fill:#ffffff;fill-opacity:1;fill-rule:nonzero;stroke:none"
           id="path102"
           inkscape:connector-curvature="0" /><path
           d="m 405.665,373.624 c -2.251,10.736 -7.933,17.844 -7.7,17.855 -0.181,-0.115 2.225,-8.421 4.328,-18.54 1.612,-9.989 1.645,-18.751 1.857,-18.784 -0.252,-0.052 3.268,8.396 1.515,19.469"
           style="fill:#ffffff;fill-opacity:1;fill-rule:nonzero;stroke:none"
           id="path104"
           inkscape:connector-curvature="0" /><path
           d="m 392.755,382.962 c -0.297,-0.149 2.257,-8.378 3.733,-18.509 2.393,-10.17 1.87,-18.47 2.076,-18.668 -0.238,-0.213 3.799,8.537 1.33,19.204 -1.632,10.853 -7.488,17.927 -7.139,17.973"
           style="fill:#ffffff;fill-opacity:1;fill-rule:nonzero;stroke:none"
           id="path106"
           inkscape:connector-curvature="0" /><path
           d="m 388.389,377.306 c -0.355,-0.161 2.508,-8.376 3.843,-18.527 1.915,-10.17 1.316,-18.663 1.516,-18.799 -0.245,-0.16 3.882,8.41 1.896,19.289 -1.509,11.007 -7.674,17.972 -7.255,18.037"
           style="fill:#ffffff;fill-opacity:1;fill-rule:nonzero;stroke:none"
           id="path108"
           inkscape:connector-curvature="0" /><path
           d="m 382.05,370.67 c -0.451,-0.22 2.901,-8.415 3.895,-18.811 1.586,-10.298 0.426,-19.01 0.631,-19.114 -0.276,-0.136 4.438,8.318 2.786,19.546 -1.16,11.298 -7.854,18.309 -7.312,18.379"
           style="fill:#ffffff;fill-opacity:1;fill-rule:nonzero;stroke:none"
           id="path110"
           inkscape:connector-curvature="0" /><path
           d="m 373.841,364.034 c -0.433,-0.168 2.411,-8.847 3.352,-19.617 0.904,-10.368 -1.256,-19.578 -0.941,-19.591 -0.394,-0.019 5.282,8.074 4.366,19.973 -1.083,11.58 -7.273,19.177 -6.777,19.235"
           style="fill:#ffffff;fill-opacity:1;fill-rule:nonzero;stroke:none"
           id="path112"
           inkscape:connector-curvature="0" /><path
           d="m 363.503,358.23 c -0.367,-0.2 3.258,-8.945 5.263,-20.003 0.122,-9.982 -4.005,-19.708 -3.528,-19.585 -0.593,0.174 6.958,7.261 6.907,20.236 -2.206,11.866 -9.081,19.263 -8.642,19.352"
           style="fill:#ffffff;fill-opacity:1;fill-rule:nonzero;stroke:none"
           id="path114"
           inkscape:connector-curvature="0" /><path
           d="m 353.856,354.685 c -0.296,-0.104 1.935,-9.688 3.224,-21.378 -0.761,-10.395 -6.228,-19.928 -5.713,-19.863 -0.619,0.233 8.041,6.778 9.131,20.262 -1.393,12.323 -6.977,20.945 -6.642,20.979"
           style="fill:#ffffff;fill-opacity:1;fill-rule:nonzero;stroke:none"
           id="path116"
           inkscape:connector-curvature="0" /><path
           d="m 346.305,329.74 c -2.87,-9.247 -9.071,-17.96 -9.618,-19.159 0.693,1.025 9.382,6.384 13.042,19.527 -1.445,12.98 -7.274,22.074 -6.964,22.092 -0.265,-0.122 2.198,-10.142 3.54,-22.46"
           style="fill:#ffffff;fill-opacity:1;fill-rule:nonzero;stroke:none"
           id="path118"
           inkscape:connector-curvature="0" /><path
           d="m 332.292,351.368 c -0.316,-0.115 1.876,-10.427 1.722,-22.936 -5.021,-9.816 -12.089,-18.992 -11.753,-18.915 -0.3,0.445 9.028,5.391 15.199,18.797 0.12,13.499 -5.545,23.069 -5.168,23.054"
           style="fill:#ffffff;fill-opacity:1;fill-rule:nonzero;stroke:none"
           id="path120"
           inkscape:connector-curvature="0" /><path
           d="m 321.052,352.35 c -0.313,-0.122 1.863,-10.699 1.444,-23.532 -6.403,-9.279 -13.7,-18.714 -13.435,-18.541 -0.126,0.472 9.043,5.238 16.876,18.348 0.406,13.839 -5.259,23.75 -4.885,23.725"
           style="fill:#ffffff;fill-opacity:1;fill-rule:nonzero;stroke:none"
           id="path122"
           inkscape:connector-curvature="0" /><path
           d="m 311.03,354.535 c -0.273,0.304 0.174,-11.807 -1.751,-23.093 -7.309,-10.808 -15.283,-18.313 -15.066,-18.61 -0.339,0.219 10.085,5.172 17.943,16.715 3.063,14.838 -1.664,24.82 -1.126,24.988"
           style="fill:#ffffff;fill-opacity:1;fill-rule:nonzero;stroke:none"
           id="path124"
           inkscape:connector-curvature="0" /><path
           d="m 297.427,359.075 c -0.316,-1.708 -0.719,-13.813 -3.346,-23.137 -10.525,-8.842 -19.989,-15.219 -19.853,-15.484 -0.207,0.233 11.082,3.643 22.074,12.853 4.943,13.942 1.012,24.227 1.125,25.768"
           style="fill:#ffffff;fill-opacity:1;fill-rule:nonzero;stroke:none"
           id="path126"
           inkscape:connector-curvature="0" /><path
           d="m 284.069,365.278 c -0.378,-1.863 -1.229,-13.599 -5.036,-22.318 -11.331,-7.475 -21.336,-12.665 -21.243,-12.93 -0.174,0.245 11.305,2.271 23.148,10.06 6.61,13.026 3.05,23.512 3.131,25.188"
           style="fill:#ffffff;fill-opacity:1;fill-rule:nonzero;stroke:none"
           id="path128"
           inkscape:connector-curvature="0" /><path
           d="m 271.906,372.082 c 0.084,0.414 0.129,0.632 0.133,0.549 -0.12,-0.02 -0.152,-0.206 -0.133,-0.549"
           style="fill:#ffffff;fill-opacity:1;fill-rule:nonzero;stroke:none"
           id="path130"
           inkscape:connector-curvature="0" /><path
           d="m 271.906,372.082 c -0.48,-2.489 -2.321,-13.064 -4.974,-21.235 -12.817,-4.881 -21.062,-12.517 -21.13,-12.292 0.122,-0.181 10.037,4.391 22.316,9.054 6.507,12.666 3.93,22.158 3.788,24.473"
           style="fill:#ffffff;fill-opacity:1;fill-rule:nonzero;stroke:none"
           id="path132"
           inkscape:connector-curvature="0" /><path
           d="m 257.542,381.252 c -0.564,-2.637 -3.024,-12.807 -3.531,-21.119 -13.078,-3.965 -20.948,-11.944 -21.026,-11.633 0.168,-0.232 9.722,4.636 21.939,8.312 4.833,13.369 2.763,22.06 2.618,24.44"
           style="fill:#ffffff;fill-opacity:1;fill-rule:nonzero;stroke:none"
           id="path134"
           inkscape:connector-curvature="0" /><path
           d="m 257.642,381.903 c -0.1,-0.057 -0.122,-0.283 -0.1,-0.651 0.104,0.484 0.151,0.748 0.1,0.651"
           style="fill:#ffffff;fill-opacity:1;fill-rule:nonzero;stroke:none"
           id="path136"
           inkscape:connector-curvature="0" /><path
           d="m 243.687,391.184 c -0.261,-0.046 -0.383,-10.616 -2.27,-23.106 -8.95,-1.961 -17.553,-10.17 -18.708,-11.132 0.99,0.619 8.774,3.523 22.1,10.552 1.986,13.271 -1.403,23.744 -1.122,23.686"
           style="fill:#ffffff;fill-opacity:1;fill-rule:nonzero;stroke:none"
           id="path138"
           inkscape:connector-curvature="0" /><path
           d="m 232.247,398.341 c -0.303,-2.334 -1.66,-12.058 -2.245,-19.745 -11.384,-5.534 -17.43,-14.097 -17.527,-13.807 0.21,-0.182 8.307,5.526 18.992,10.686 4.036,12.742 1.089,20.777 0.78,22.866"
           style="fill:#ffffff;fill-opacity:1;fill-rule:nonzero;stroke:none"
           id="path140"
           inkscape:connector-curvature="0" /><path
           d="m 232.247,398.341 c 0.051,0.401 0.081,0.606 0.058,0.529 -0.087,-0.052 -0.1,-0.231 -0.058,-0.529"
           style="fill:#ffffff;fill-opacity:1;fill-rule:nonzero;stroke:none"
           id="path142"
           inkscape:connector-curvature="0" /><path
           d="m 217.299,407.847 c -0.268,-0.083 0.603,-10.196 -0.358,-22.254 -8.554,-1.943 -16.019,-10.674 -17.144,-11.815 1.039,0.678 7.919,4.186 20.575,11.48 0.993,12.909 -3.376,22.634 -3.073,22.589"
           style="fill:#ffffff;fill-opacity:1;fill-rule:nonzero;stroke:none"
           id="path144"
           inkscape:connector-curvature="0" /><path
           d="m 199.797,373.778 c -0.035,-0.019 -0.126,-0.071 -0.148,-0.083 -0.049,-0.104 0.016,-0.046 0.148,0.083"
           style="fill:#ffffff;fill-opacity:1;fill-rule:nonzero;stroke:none"
           id="path146"
           inkscape:connector-curvature="0" /><path
           d="m 207.223,393.697 c -1.325,12.557 -6.404,21.681 -6.133,21.689 -0.241,-0.091 1.451,-10.003 2.709,-22.063 -5.769,-4.668 -15.529,-14.541 -14.397,-13.979 -0.252,1.051 9.131,3.275 17.821,14.353"
           style="fill:#ffffff;fill-opacity:1;fill-rule:nonzero;stroke:none"
           id="path148"
           inkscape:connector-curvature="0" /><path
           d="m 184.195,419.983 c 0.244,0.11 -0.371,-9.892 3.885,-21.222 -4.469,-4.327 -12.872,-15.554 -11.653,-14.741 -0.493,1.186 8.441,3.977 14.884,15.934 -4.092,10.84 -6.862,20.055 -7.116,20.029"
           style="fill:#ffffff;fill-opacity:1;fill-rule:nonzero;stroke:none"
           id="path150"
           inkscape:connector-curvature="0" /><path
           d="m 162.427,385.258 c 0,-0.007 -0.019,-0.027 -0.019,-0.033 -0.036,-0.097 -0.019,-0.058 0.019,0.033"
           style="fill:#ffffff;fill-opacity:1;fill-rule:nonzero;stroke:none"
           id="path152"
           inkscape:connector-curvature="0" /><path
           d="m 169.343,421.647 c 0.4,0.186 -1.425,-9.867 3.999,-20.92 -6.136,-3.752 -10.509,-14.483 -10.915,-15.469 0.165,0.999 6.306,5.228 13.971,17.055 -4.965,9.983 -6.668,19.366 -7.055,19.334"
           style="fill:#ffffff;fill-opacity:1;fill-rule:nonzero;stroke:none"
           id="path154"
           inkscape:connector-curvature="0" /><path
           d="m 157.294,421.408 c -0.003,-1.147 -0.642,-11.994 3.241,-18.921 -7.056,-9.44 -9.219,-18.913 -9.371,-18.771 0.188,-0.059 5.392,7.713 12.108,16.688 -3.044,13.415 -5.885,20.043 -5.978,21.004"
           style="fill:#ffffff;fill-opacity:1;fill-rule:nonzero;stroke:none"
           id="path156"
           inkscape:connector-curvature="0" /><path
           d="m 157.271,421.492 c 0,-0.012 0.02,-0.065 0.023,-0.084 0,0.11 -0.003,0.161 -0.023,0.084"
           style="fill:#ffffff;fill-opacity:1;fill-rule:nonzero;stroke:none"
           id="path158"
           inkscape:connector-curvature="0" /><path
           d="m 147.028,420.44 c -0.249,0.93 0.048,-11.775 2.976,-19.571 -6.862,-10.215 -7.674,-20.372 -7.958,-20.171 0.309,-0.091 4.353,8.692 10.808,18.23 -2.047,13.756 -6.187,20.759 -5.826,21.512"
           style="fill:#ffffff;fill-opacity:1;fill-rule:nonzero;stroke:none"
           id="path160"
           inkscape:connector-curvature="0" /><path
           d="m 134.05,417.422 c -0.374,0.935 1.983,-11.775 6.145,-18.79 -6.145,-10.995 -4.875,-21.391 -5.314,-21.172 0.436,-0.076 2.645,9.475 8.294,19.443 -3.95,13.543 -9.419,19.682 -9.125,20.519"
           style="fill:#ffffff;fill-opacity:1;fill-rule:nonzero;stroke:none"
           id="path162"
           inkscape:connector-curvature="0" /><path
           d="m 131.612,395.653 c -3.898,-11.499 -1.674,-21.345 -2.006,-21.216 0.326,0.019 1.6,9.409 5.263,20.081 -6.052,12.394 -9.641,18.81 -9.786,19.585 -0.152,0.953 0.925,-11.628 6.529,-18.45"
           style="fill:#ffffff;fill-opacity:1;fill-rule:nonzero;stroke:none"
           id="path164"
           inkscape:connector-curvature="0" /><path
           d="m 122.246,390.1 c -1.19,-8.383 2.437,-17.934 2.679,-18.65 -0.007,0.652 0.09,7.9 0.171,20.585 -5.898,8.821 -9.635,16.902 -9.899,16.862 0.226,0.194 0.735,-9.292 7.049,-18.797"
           style="fill:#ffffff;fill-opacity:1;fill-rule:nonzero;stroke:none"
           id="path166"
           inkscape:connector-curvature="0" /><path
           d="m 106.833,402.565 c 0.254,0.226 0.913,-9.472 8.235,-18.719 -1.657,-8.21 2.112,-17.787 2.402,-18.818 0.042,0.909 0.065,8.002 0.223,21.055 -6.659,8.331 -10.576,16.553 -10.86,16.482"
           style="fill:#ffffff;fill-opacity:1;fill-rule:nonzero;stroke:none"
           id="path168"
           inkscape:connector-curvature="0" /><path
           d="m 99.288,394.491 c 0.41,0.298 0.142,-9.253 6.955,-18.287 1.061,-8.527 5.156,-18.322 5.184,-17.671 -0.399,0.465 -0.022,7.836 -2.427,19.739 -6.227,8.126 -9.273,16.348 -9.712,16.219"
           style="fill:#ffffff;fill-opacity:1;fill-rule:nonzero;stroke:none"
           id="path170"
           inkscape:connector-curvature="0" /><path
           d="m 93.265,384.096 c 0.355,-0.865 0.99,-9.145 7.265,-16.747 1.895,-7.686 6.029,-16.825 6.151,-16.128 -0.541,0.412 -0.125,7.384 -3.472,18.295 -5.959,7.106 -9.363,14.252 -9.944,14.58"
           style="fill:#ffffff;fill-opacity:1;fill-rule:nonzero;stroke:none"
           id="path172"
           inkscape:connector-curvature="0" /><path
           d="m 89.408,373.385 c 0.201,0.225 1.829,-7.403 8.261,-14 1.67,-6.397 6.282,-14.516 6.298,-13.749 -0.558,0.458 -0.365,6.346 -3.799,16.122 -5.997,6.1 -10.501,11.744 -10.76,11.627"
           style="fill:#ffffff;fill-opacity:1;fill-rule:nonzero;stroke:none"
           id="path174"
           inkscape:connector-curvature="0" /><path
           d="m 90.621,360.495 c -0.609,0.58 2.718,-6.662 6.165,-8.965 1.383,-6.816 5.736,-10.853 5.526,-10.873 0.155,0.111 -0.944,5.437 -2.15,11.563 -5.749,6.205 -9.234,7.539 -9.541,8.275"
           style="fill:#ffffff;fill-opacity:1;fill-rule:nonzero;stroke:none"
           id="path176"
           inkscape:connector-curvature="0" /><path
           d="m 101.551,336.964 c -0.064,0.051 -0.835,3.958 -3.185,6.918 -1.49,1.729 -1.806,1.612 -2.753,2.342 l -0.588,0.36 c -0.051,-0.045 -0.061,-0.045 -0.087,-0.07 l -0.047,0.07 c 0.141,0.27 0.396,0.677 -0.907,-0.799 -1.406,-1.471 -1.016,-1.18 -0.755,-1.014 l 0.075,-0.038 c -0.023,-0.032 -0.023,-0.039 -0.068,-0.096 l 0.407,-0.555 c 0.402,-0.534 1.644,-1.98 1.647,-1.768 2.87,-3.816 6.323,-5.396 6.261,-5.35"
           style="fill:#ffffff;fill-opacity:1;fill-rule:nonzero;stroke:none"
           id="path178"
           inkscape:connector-curvature="0" /><path
           d="m 96.58,337.421 c -0.026,0.064 -0.606,-2.244 0.809,-4.315 1.838,-1.585 4.215,-1.29 4.166,-1.263 -0.046,0.025 -0.268,2.482 -1.616,3.585 -0.89,1.413 -3.337,1.927 -3.359,1.993"
           style="fill:#ffffff;fill-opacity:1;fill-rule:nonzero;stroke:none"
           id="path180"
           inkscape:connector-curvature="0" /></g></g></g></svg>