<?xml version="1.0" encoding="UTF-8" standalone="no"?>
<!-- Created with Inkscape (http://www.inkscape.org/) -->

<svg
   xmlns:dc="http://purl.org/dc/elements/1.1/"
   xmlns:cc="http://creativecommons.org/ns#"
   xmlns:rdf="http://www.w3.org/1999/02/22-rdf-syntax-ns#"
   xmlns:svg="http://www.w3.org/2000/svg"
   xmlns="http://www.w3.org/2000/svg"
   xmlns:sodipodi="http://sodipodi.sourceforge.net/DTD/sodipodi-0.dtd"
   xmlns:inkscape="http://www.inkscape.org/namespaces/inkscape"
   id="svg2"
   version="1.1"
   inkscape:version="0.48.4 r9939"
   width="480.19876"
   height="480.19751"
   viewBox = "0 0 480 480"
   xml:space="preserve"
   sodipodi:docname="Baseball (13).pdf"><metadata
     id="metadata8"><rdf:RDF><cc:Work
         rdf:about=""><dc:format>image/svg+xml</dc:format><dc:type
           rdf:resource="http://purl.org/dc/dcmitype/StillImage" /><dc:title></dc:title></cc:Work></rdf:RDF></metadata><defs
     id="defs6"><clipPath
       clipPathUnits="userSpaceOnUse"
       id="clipPath16"><path
         d="M 0,792 612,792 612,0 0,0 0,792 z"
         id="path18"
         inkscape:connector-curvature="0" /></clipPath></defs><sodipodi:namedview
     pagecolor="#ffffff"
     bordercolor="#666666"
     borderopacity="1"
     objecttolerance="10"
     gridtolerance="10"
     guidetolerance="10"
     inkscape:pageopacity="0"
     inkscape:pageshadow="2"
     inkscape:window-width="640"
     inkscape:window-height="480"
     id="namedview4"
     showgrid="false"
     fit-margin-top="0"
     fit-margin-left="0"
     fit-margin-right="0"
     fit-margin-bottom="0"
     inkscape:zoom="0.23838384"
     inkscape:cx="266.0875"
     inkscape:cy="378.39197"
     inkscape:window-x="0"
     inkscape:window-y="0"
     inkscape:window-maximized="0"
     inkscape:current-layer="g10" /><g
     id="g10"
     inkscape:groupmode="layer"
     inkscape:label="Baseball (13)"
     transform="matrix(1.25,0,0,-1.25,-116.4125,932.39875)"><g
       id="g12"><g
         id="g14"
         clip-path="url(#clipPath16)"><path
           d="m 477.289,401.647 c 0,-22.021 -17.858,-39.886 -39.868,-39.886 l -304.427,0 c -22.017,0 -39.864,17.865 -39.864,39.886 l 0,304.416 c 0,22.013 17.847,39.856 39.864,39.856 l 304.427,0 c 22.01,0 39.868,-17.843 39.868,-39.856 l 0,-304.416 z"
           style="fill:#231f20;fill-opacity:1;fill-rule:nonzero;stroke:none"
           id="path20"
           inkscape:connector-curvature="0" /><path
           d="m 141.392,535.029 c -0.022,-0.029 -0.019,-0.102 -0.037,-0.124 0,0.007 0.003,0.007 0.003,0.007 0.026,0.037 0.023,0.11 0.048,0.147 0.136,0.19 0.301,0.344 0.491,0.483 0.217,0.198 0.433,0.36 0.675,0.448 1.011,0.396 2.162,0.095 2.859,-0.756 0.249,-0.322 0.352,-0.615 0.418,-0.864 0.011,-0.03 0.04,-0.081 0.051,-0.11 0.011,-0.044 -0.011,-0.081 -0.004,-0.103 0.004,-0.029 0.026,-0.073 0.026,-0.095 -0.011,0.043 0.004,0.095 0,0.139 0.015,-0.073 0.033,-0.278 0.033,-0.352 0.003,-0.044 0.003,-0.11 0.003,-0.08 0,-0.066 0.012,-0.228 0,-0.301 -0.069,-1.518 -0.183,-5.505 0.342,-9.874 0.088,-0.99 0.289,-2.112 0.538,-3.284 2.694,0.38 5.447,0.864 8.214,1.436 -0.531,1.107 -0.989,2.258 -1.249,3.46 -1.221,5.726 0.209,10.417 1.183,12.235 0.012,0.007 0.012,0.007 0.012,0.03 0.022,0.044 0.022,0.11 0.054,0.19 -0.01,-0.022 -0.003,-0.051 -0.01,-0.066 0.01,0.03 0.01,0.081 0.025,0.11 0.077,0.147 0.209,0.264 0.327,0.389 0.19,0.242 0.388,0.476 0.67,0.63 0.946,0.521 2.163,0.367 2.936,-0.388 0.15,-0.125 0.212,-0.257 0.293,-0.389 0.044,-0.058 0.096,-0.095 0.136,-0.146 0.007,-0.03 0.014,-0.037 0.022,-0.052 l -0.004,0.015 c 0.015,-0.015 0.03,-0.074 0.044,-0.103 0.092,-0.22 0.143,-0.395 0.143,-0.395 0.011,-0.03 0.026,-0.089 0.048,-0.199 0.018,-0.058 0.033,-0.095 0.04,-0.154 l 0,0.03 c 0,0 0,-0.015 0.007,-0.051 0,-0.015 0.008,-0.044 0.008,-0.067 l 0,-0.014 c 0.003,-0.015 0.003,-0.03 0.007,-0.037 l 0,-0.044 c 0.011,-0.043 0.026,-0.051 0.026,-0.081 0.143,-1.524 0.601,-5.475 1.73,-9.654 0.245,-1.085 0.638,-2.258 1.106,-3.482 2.739,0.748 5.367,1.613 7.899,2.573 -0.81,1.085 -1.517,2.228 -2.026,3.526 -2.5,6.466 -1.272,11.737 -1.118,12.308 0.007,0.015 0.011,0.015 0.018,0.059 l 0,0.015 c 0.04,0.131 0.136,0.235 0.184,0.359 0.047,0.066 0.054,0.117 0.098,0.168 0.554,0.954 1.668,1.489 2.793,1.181 0.143,-0.037 0.231,-0.125 0.363,-0.191 0.132,-0.051 0.283,-0.08 0.403,-0.183 0.099,-0.066 0.147,-0.161 0.22,-0.242 -0.062,0.081 -0.103,0.161 -0.172,0.213 0.117,-0.103 0.256,-0.264 0.388,-0.426 0,0 0.015,-0.015 0.023,-0.029 l 0.007,-0.015 c 0.014,-0.021 0.055,-0.036 0.066,-0.073 -0.052,0.052 -0.081,0.132 -0.132,0.169 0.095,-0.081 0.165,-0.169 0.234,-0.279 -0.021,0.051 -0.073,0.081 -0.102,0.11 0.069,-0.066 0.143,-0.147 0.198,-0.249 0.077,-0.132 0.113,-0.264 0.124,-0.278 0.004,-0.038 0.044,-0.118 0.063,-0.155 l 0,-0.014 c 0.01,-0.044 0.073,-0.191 0.08,-0.243 0.942,-3.173 2.159,-6.414 3.435,-9.163 0.473,-1.114 1.132,-2.309 1.884,-3.548 2.104,1.063 3.98,2.119 5.502,3.138 0.406,0.315 0.857,0.667 1.334,1.077 -1.118,0.895 -2.108,1.869 -2.878,3.006 -3.295,4.911 -3.892,9.244 -4.087,10.673 -0.011,0.052 -0.018,0.133 0,0.037 0,0 0.008,0 0.011,-0.015 -0.267,0.91 -0.003,1.884 0.704,2.537 0.341,0.322 0.763,0.476 1.221,0.549 0.205,0.067 0.44,0.125 0.681,0.096 0.048,-0.015 0.103,-0.058 0.147,-0.058 0.022,-0.008 0.04,-0.008 0.04,-0.008 -0.051,0.008 -0.113,0.051 -0.172,0.066 0.073,-0.015 0.125,-0.058 0.19,-0.066 l 0.06,0 -0.015,0 0.015,0 0.01,-0.015 0.004,0 -0.004,0.015 c 0,0 0.004,0 0.004,-0.015 l 0.033,0 0.011,0 0.018,0 c 0.041,-0.015 0.063,-0.029 0.088,-0.036 0.081,-0.023 0.165,-0.023 0.231,-0.029 0.041,-0.023 0.066,-0.067 0.11,-0.096 0.019,-0.015 0.037,-0.015 0.044,-0.022 l 0.037,-0.014 c -0.022,0.014 -0.037,0.021 -0.037,0.021 0,0 0.022,-0.007 0.037,-0.021 l 0.003,0 0.03,-0.015 c 0,0 0.007,0 0.014,-0.015 0.019,0 0.019,0 0.041,-0.015 l 0.011,0 c 0.117,-0.066 0.253,-0.146 0.359,-0.227 0.022,-0.014 0.037,-0.014 0.063,-0.022 0.014,-0.014 0.018,-0.029 0.029,-0.044 0.022,-0.015 0.047,-0.029 0.062,-0.044 0.036,-0.051 0.066,-0.088 0.11,-0.124 0.037,-0.059 0.066,-0.096 0.11,-0.169 0.018,-0.015 0.059,-0.051 0.062,-0.066 0,0 0.011,-0.007 0.019,-0.007 0.014,-0.03 0.044,-0.066 0.069,-0.095 l 0,-0.015 c 0.062,-0.051 0.125,-0.176 0.202,-0.323 -0.03,0.073 -0.059,0.14 -0.118,0.228 0.041,-0.067 0.118,-0.155 0.199,-0.294 0.707,-1.107 2.851,-4.471 5.604,-7.932 0.568,-0.762 1.282,-1.561 2.067,-2.382 1.686,1.671 3.292,3.452 4.835,5.322 -0.979,0.484 -1.925,1.026 -2.797,1.723 -4.274,3.379 -6.546,6.824 -7.599,8.775 l -0.01,0 0.01,0 -0.01,0 c -0.022,0.022 -0.033,0.065 -0.052,0.095 -0.029,0.059 -0.029,0.154 -0.062,0.22 -0.04,0.095 -0.106,0.146 -0.136,0.242 -0.278,1.004 0.111,2.016 0.891,2.632 l 0.004,0.014 c 0.018,0.015 0.044,0.015 0.062,0.037 0,0 0.03,0.014 0.033,0.029 0.092,0.066 0.18,0.117 0.275,0.176 0.018,0.015 0.033,0.052 0.058,0.066 l 0.022,0 c 0.026,0.015 0.026,0.015 0.041,0.022 -0.015,-0.007 -0.015,-0.007 -0.029,-0.022 l 0.014,0 c 0.018,0.015 0.048,0.022 0.07,0.036 0.014,0 0.022,0.044 0.022,0.044 0.194,0.067 0.674,0.133 1.239,0.074 0.029,0 0.044,-0.007 0.062,-0.007 0.044,0 0.081,0 0.125,-0.015 0.055,0 0.11,0 0.164,-0.015 0.037,-0.014 0.066,0 0.1,-0.014 0.069,-0.015 0.168,-0.052 0.234,-0.081 -0.051,0.014 -0.073,0.014 -0.095,0.029 0.044,-0.029 0.117,-0.036 0.147,-0.051 0,-0.014 0.007,-0.014 0.007,-0.014 l 0.007,0 -0.007,0 0.007,0 c 0.04,-0.015 0.081,-0.023 0.118,-0.037 0.022,-0.015 0.043,-0.059 0.062,-0.074 0.047,-0.022 0.069,-0.036 0.103,-0.066 l 0.003,0 c 0.121,-0.088 0.257,-0.168 0.326,-0.241 -0.08,0.073 -0.044,0.058 -0.132,0.11 0.096,-0.052 0.231,-0.147 0.392,-0.279 1.034,-0.792 4.168,-3.233 7.822,-5.572 0.88,-0.601 1.936,-1.187 3.083,-1.759 1.47,2.199 2.767,4.435 3.911,6.664 -1.606,0 -3.222,0.242 -4.798,0.74 -6.543,2.17 -9.831,6.231 -10.179,6.671 -0.011,0.015 -0.014,0.037 -0.026,0.052 -0.01,0 -0.018,0.014 -0.025,0.021 -0.092,0.125 -0.132,0.272 -0.194,0.418 -0.019,0.059 -0.048,0.081 -0.048,0.11 -0.425,1.027 -0.154,2.236 0.773,2.933 0.11,0.08 0.209,0.08 0.326,0.153 0.125,0.088 0.265,0.169 0.433,0.228 0.011,0 0.019,0 0.041,0.007 0,0 -0.022,0 -0.03,-0.007 0.018,0.007 0.022,0 0.037,0.007 l -0.007,0 0.007,0 c 0.286,0.066 0.535,0.081 0.726,0.081 l 0.065,0 c 0.044,0 0.092,-0.015 0.143,-0.015 l 0.037,0 -0.033,0 0.172,0 c 0.143,-0.022 0.242,-0.073 0.169,-0.052 l 0.03,0 c 0,-0.014 0.014,0 0.018,-0.014 0.033,-0.007 0.077,-0.022 0.124,-0.051 0.026,0 0.048,0 0.055,-0.015 l 0.022,0 c 0.041,-0.014 0.217,-0.066 0.271,-0.081 3.933,-1.568 7.199,-2.521 9.3,-3.042 1.66,-0.484 3.599,-0.784 5.692,-0.968 1.034,2.948 1.917,6.034 2.683,9.245 -2.001,-0.631 -4.442,-0.975 -7.254,-0.521 -5.652,0.924 -9.431,4.193 -10.897,6.092 -0.036,0.022 -0.07,0.037 -0.11,0.08 0.026,-0.029 0.062,-0.029 0.084,-0.058 l -0.01,0.015 c -0.034,0.043 -0.096,0.058 -0.125,0.095 -0.128,0.146 -0.191,0.308 -0.253,0.469 -0.169,0.279 -0.29,0.542 -0.323,0.829 -0.15,1.091 0.414,2.118 1.419,2.588 0.568,0.278 1.187,0.278 1.759,0.109 0.037,0 0.077,0 0.11,-0.015 l 0.033,0 0.015,-0.014 c 0.564,-0.191 4.71,-1.591 9.555,-2.229 2.977,-0.506 5.799,-0.41 7.514,-0.308 0.187,1.137 0.367,2.207 0.521,3.255 -0.015,0.03 -0.048,0.052 -0.055,0.096 -0.264,0.762 -0.11,1.59 0.37,2.235 0.18,1.422 0.319,2.911 0.473,4.391 -2.141,-0.908 -4.846,-1.51 -8.056,-1.15 -5.799,0.718 -9.758,4.164 -11.18,6.047 -0.051,0.059 -0.106,0.125 -0.143,0.191 l -0.011,0 c -0.319,0.44 -0.476,0.769 -0.535,1.092 -0.205,1.07 0.279,2.141 1.231,2.661 0.594,0.338 1.28,0.367 1.907,0.183 0.04,-0.014 0.076,0 0.113,-0.014 0.022,-0.015 0.04,0 0.055,-0.015 l 0.004,0 0.007,0 0.008,0 c 0.164,-0.051 4.486,-1.517 9.547,-2.023 3.017,-0.432 5.898,-0.257 7.687,-0.088 l 0.26,3.665 c -0.088,0.411 -0.055,0.8 0.081,1.224 l 0.275,4.619 0.032,0.381 c -2.048,-0.762 -4.585,-1.341 -7.634,-0.967 -6.869,0.828 -10.498,5.278 -11.154,6.157 -0.062,0.059 -0.117,0.118 -0.154,0.169 -0.015,0.022 -0.047,0.044 -0.059,0.058 -0.073,0.096 -0.095,0.199 -0.153,0.323 -0.18,0.279 -0.272,0.506 -0.305,0.667 -0.223,1.041 0.228,2.112 1.129,2.654 0.458,0.278 0.983,0.352 1.51,0.293 0.22,0.015 0.44,-0.015 0.66,-0.066 0.092,-0.037 0.183,-0.132 0.29,-0.183 0.003,0 0.025,0 0.044,-0.015 -0.092,0.052 -0.187,0.132 -0.297,0.191 0.04,-0.03 4.384,-1.576 9.526,-2.126 2.13,-0.308 4.479,-0.308 7.034,-0.117 0.198,2.947 0.477,6.363 0.869,9.742 -1.932,-0.615 -4.292,-1.004 -7.016,-0.615 -7.243,1.07 -10.725,6.238 -11.099,6.824 l 0.008,-0.007 c -0.305,0.491 -0.448,0.769 -0.495,1.078 -0.18,1.07 0.341,2.118 1.323,2.646 0.619,0.323 1.331,0.323 1.965,0.095 0.055,-0.022 0.091,0 0.146,-0.029 0.172,-0.066 4.388,-1.752 9.439,-2.441 1.975,-0.352 4.182,-0.448 6.498,-0.359 0.352,3.195 0.799,6.414 1.294,9.617 -2.129,-0.462 -4.31,-0.527 -6.51,-0.102 -7.187,1.4 -10.427,6.796 -10.79,7.433 l -0.008,0 0,0.015 c -0.029,0.051 -0.043,0.11 -0.077,0.161 l -0.01,0 c -0.199,0.389 -0.312,0.674 -0.33,0.909 -0.136,1.077 0.425,2.112 1.407,2.574 0.689,0.307 1.481,0.307 2.133,-0.008 l 0.019,0 c 0.044,-0.022 4.314,-2.016 9.313,-2.976 1.796,-0.411 3.893,-0.609 6.162,-0.675 0.652,3.247 1.415,6.444 2.269,9.589 -2.189,-0.323 -4.395,-0.198 -6.561,0.366 -7.327,1.972 -10.307,8.379 -10.359,9.545 -0.04,1.078 0.62,2.067 1.638,2.449 0.664,0.234 1.372,0.153 1.976,-0.162 0.055,-0.029 0.128,-0.029 0.191,-0.073 0.04,-0.022 4.058,-2.39 8.943,-3.746 1.796,-0.579 3.93,-0.953 6.261,-1.202 1.129,3.431 2.353,6.59 3.629,9.479 -2.024,-0.118 -4.388,0.065 -6.961,1.062 -6.986,2.786 -8.911,9.193 -9.098,9.867 -0.003,0.029 -0.018,0.059 -0.04,0.088 0.011,-0.015 0.026,-0.029 0.037,-0.044 0,0 -0.015,0.044 -0.015,0.059 0,-0.015 0.004,-0.044 0.018,-0.074 0,-0.014 0.015,-0.029 0.019,-0.051 -0.011,0.051 -0.019,0.081 -0.033,0.11 -0.004,0.029 -0.04,0.037 -0.048,0.059 -0.004,0.051 0,0.088 -0.004,0.117 l 0,0.008 0,0.029 0,0.036 c -0.047,0.228 -0.102,0.455 -0.087,0.631 0.033,0.52 0.227,1.019 0.524,1.415 -47.782,-26.934 -77.875,-77.633 -77.875,-133.346 0,-11.964 1.441,-23.927 4.23,-35.591 l 3.013,0.602 c -0.458,1.326 -0.806,2.661 -0.898,4.054 -0.396,5.805 1.624,10.226 2.856,11.934 0.022,0.051 0.029,0.124 0.066,0.168"
           style="fill:#ffffff;fill-opacity:1;fill-rule:nonzero;stroke:none"
           id="path22"
           inkscape:connector-curvature="0" /><path
           d="m 324.971,406.911 c 0.169,-0.133 0.367,-0.345 0.55,-0.682 25.272,6.942 48.694,20.321 67.41,38.889 22.174,21.948 37.247,50.648 42.833,81.246 -3.435,-3.496 -5.509,-5.622 -5.707,-5.827 -1.078,-1.393 -2.442,-2.874 -3.955,-4.443 1.836,-0.821 3.533,-1.957 4.974,-3.386 0.693,-0.683 0.923,-1.709 0.582,-2.632 -0.37,-0.99 -0.765,-2.097 -1.227,-3.461 -0.279,-0.85 -1.019,-1.502 -1.91,-1.664 -0.879,-0.161 -1.796,0.162 -2.372,0.865 -0.259,0.323 -0.527,0.631 -0.868,0.983 -1.18,1.392 -2.719,2.8 -4.45,4.185 -2.17,-1.92 -4.563,-3.914 -7.187,-5.944 1.792,-1.107 3.364,-2.508 4.647,-4.23 4.526,-6.143 3.082,-12.888 2.434,-13.797 -0.613,-0.879 -1.723,-1.253 -2.756,-0.931 -0.708,0.198 -1.246,0.733 -1.53,1.4 -0.029,0.03 -0.065,0.066 -0.09,0.103 -0.011,0.044 -1.691,4.289 -4.754,8.475 -1.02,1.48 -2.365,3.034 -3.934,4.596 -2.39,-1.679 -4.93,-3.387 -7.631,-5.132 1.698,-1.275 3.157,-2.793 4.288,-4.618 3.82,-6.195 2.185,-12.125 1.991,-12.785 0.004,0.044 -0.007,0.073 0,0.095 -0.011,-0.051 -0.011,-0.124 -0.03,-0.175 0.004,0.029 0.023,0.036 0.023,0.065 -0.011,-0.051 -0.023,-0.08 -0.048,-0.102 -0.004,-0.044 -0.004,-0.059 -0.022,-0.081 -0.125,-0.388 -0.242,-0.652 -0.44,-0.894 -0.692,-0.829 -1.844,-1.1 -2.826,-0.696 -0.715,0.293 -1.238,0.872 -1.451,1.59 0,0 -0.019,0.022 -0.019,0.037 -0.088,0.271 -1.528,4.501 -4.171,8.76 -0.887,1.54 -2.111,3.181 -3.526,4.831 -2.467,-1.503 -5.076,-3.072 -7.796,-4.677 1.605,-1.298 2.947,-2.874 3.98,-4.721 2.885,-5.234 2.331,-10.498 1.599,-12.645 0.032,0.138 0.047,0.227 0.047,0.373 0,-0.197 -0.047,-0.388 -0.121,-0.571 0.004,0.007 0.018,0.022 0.018,0.051 0,-0.044 -0.014,-0.051 -0.018,-0.066 -0.022,-0.037 -0.026,-0.081 -0.055,-0.117 -0.154,-0.404 -0.307,-0.697 -0.498,-0.895 -0.752,-0.799 -1.914,-1.004 -2.892,-0.55 -0.612,0.309 -1.044,0.829 -1.25,1.445 -0.022,0.066 -0.07,0.102 -0.077,0.139 -0.014,0.058 -1.341,4.523 -3.867,8.995 -0.803,1.532 -1.935,3.174 -3.248,4.875 -2.155,-1.225 -6.429,-3.622 -7.796,-4.406 1.529,-1.312 2.819,-2.874 3.798,-4.707 2.697,-5.138 2.273,-10.16 1.561,-12.484 l 0,-0.051 c -0.011,-0.044 -0.033,-0.066 -0.037,-0.11 -0.007,-0.007 -0.007,-0.03 -0.022,-0.051 l 0,0.044 c -0.015,-0.052 -0.029,-0.096 -0.051,-0.154 0.007,0.029 0.03,0.058 0.048,0.081 -0.184,-0.514 -0.355,-0.844 -0.605,-1.122 -0.766,-0.77 -1.913,-0.975 -2.896,-0.477 -0.598,0.279 -1.004,0.814 -1.217,1.415 -0.014,0.052 -0.062,0.081 -0.069,0.132 -0.015,0.052 -1.327,4.516 -3.827,9.039 -0.759,1.495 -1.821,3.086 -3.061,4.714 -2.602,-1.532 -5.054,-3.057 -7.4,-4.553 1.39,-1.239 2.577,-2.668 3.468,-4.273 3.232,-5.968 2.18,-11.195 1.921,-12.243 -0.004,-0.132 -0.019,-0.264 -0.034,-0.359 0.015,0.066 0,0.132 0,0.198 l 0,-0.029 0,0.065 c 0.011,0.059 0.011,0.125 0.011,0.191 0.004,0.102 -0.025,0.213 -0.029,0.33 l -0.007,0.015 c 0.047,-0.249 0.084,-0.543 0.025,-0.77 l 0,-0.029 c -0.058,-0.213 -0.157,-0.433 -0.282,-0.587 -0.106,-0.242 -0.238,-0.44 -0.41,-0.615 -0.803,-0.763 -2.013,-0.91 -2.981,-0.36 -0.509,0.293 -0.868,0.762 -1.07,1.298 -0.014,0.014 -0.04,0.036 -0.044,0.051 0,0.029 -0.011,0.058 -0.014,0.081 l 0.003,-0.023 c -0.018,0.052 -1.455,4.414 -4.094,8.952 -0.674,1.268 -1.587,2.609 -2.639,3.995 -2.356,-1.613 -4.626,-3.27 -6.803,-4.927 1.133,-1.004 2.141,-2.082 2.917,-3.357 1.415,-2.419 3.094,-6.393 3.113,-11.451 0,0 0,-0.161 -0.004,-0.044 0.099,-1.18 -0.663,-2.294 -1.815,-2.602 -1.15,-0.33 -2.367,0.213 -2.961,1.422 -0.839,1.716 -2.602,5.124 -4.941,8.577 -0.557,0.872 -1.272,1.818 -2.078,2.801 -1.909,-1.635 -3.738,-3.278 -5.473,-4.934 0.957,-0.667 1.837,-1.378 2.577,-2.163 3.46,-3.805 5.139,-8.181 5.494,-10.424 0.052,-0.11 0.078,-0.22 0.092,-0.308 0.011,-0.029 0.03,-0.058 0.048,-0.08 -0.018,0.007 -0.029,0.022 -0.029,0.051 0.004,-0.051 0.033,-0.095 0.033,-0.139 0.029,-0.228 0.015,-0.433 -0.052,-0.667 -0.007,-0.286 -0.077,-0.594 -0.242,-0.91 -0.502,-0.901 -1.543,-1.407 -2.609,-1.224 -0.081,0.015 -0.136,0.037 -0.216,0.066 -0.052,0.015 -0.092,0 -0.144,0.015 l -0.014,0.015 0.01,0 -0.01,0 c -0.059,0.022 -0.11,0.051 -0.176,0.095 -0.169,0.08 -0.297,0.154 -0.385,0.212 -0.015,0.015 -0.025,0.023 -0.048,0.023 l 0,0.029 -0.022,0 c -0.043,0.029 -0.051,0.065 -0.095,0.102 -0.084,0.044 -0.18,0.081 -0.242,0.176 -0.022,0.015 -0.048,0.044 -0.077,0.059 l 0.008,0 c 0,0 -0.008,0 -0.008,0.022 l 0,-0.022 0,0.022 c -0.026,0.014 -0.047,0.029 -0.051,0.044 0.004,-0.015 0.015,-0.015 0,0 -0.025,0.022 -0.136,0.154 -0.165,0.183 -2.053,2.632 -4.376,5.212 -6.579,7.331 -0.667,0.682 -1.463,1.378 -2.358,2.111 -1.652,-1.833 -3.228,-3.731 -4.742,-5.674 1.096,-0.469 2.152,-1.004 3.13,-1.715 5.651,-4.076 7.426,-8.995 7.616,-9.559 -0.014,0.065 -0.04,0.102 -0.065,0.153 -0.029,0.022 -0.041,0.059 -0.063,0.088 -0.007,0.015 -0.029,0.023 -0.047,0.052 0.047,-0.059 0.081,-0.118 0.113,-0.184 -0.003,0.015 0,0.03 -0.003,0.044 0.025,-0.088 0.065,-0.153 0.092,-0.205 0.399,-1.304 -0.324,-2.697 -1.606,-3.108 -0.367,-0.125 -0.693,-0.125 -0.957,-0.081 -0.048,0 -0.081,-0.014 -0.125,-0.014 -0.017,0 -0.029,0.014 -0.055,0.014 0.015,0 0.03,-0.014 0.03,-0.014 -0.107,0.014 -0.205,0.066 -0.312,0.11 -0.025,0 -0.062,0.014 -0.073,0.014 l -0.004,0 -0.018,0.007 -0.015,0 -0.036,0 c -0.117,0.045 -0.169,0.066 -0.264,0.118 l 0.007,0 c -0.065,0.029 -0.147,0.059 -0.198,0.095 -0.014,0 -0.043,0.029 -0.055,0.044 -0.021,0.014 -0.033,0.014 -0.033,0.014 -0.022,0 -0.047,0.052 -0.062,0.052 -0.014,0.008 -0.048,0.022 -0.058,0.044 -0.048,0.022 -0.096,0.051 -0.133,0.073 l -0.015,0.015 c -0.003,0.015 -0.014,0.015 -0.014,0.015 -0.015,0.014 -0.015,0.014 -0.015,0.029 -0.051,0.007 -0.091,0.022 -0.124,0.051 -2.511,2.141 -5.289,4.194 -7.873,5.836 -0.899,0.601 -1.994,1.202 -3.163,1.788 -1.367,-2.133 -2.644,-4.383 -3.817,-6.7 1.379,-0.227 2.735,-0.572 4.022,-1.158 5.061,-2.376 8.005,-5.879 9.057,-7.763 0.121,-0.125 0.223,-0.264 0.282,-0.36 0,0 -0.022,0 -0.022,0.022 0,-0.022 0.026,-0.036 0.036,-0.051 0.107,-0.213 0.165,-0.433 0.184,-0.645 0.073,-0.293 0.121,-0.557 0.073,-0.835 -0.128,-1.085 -0.942,-1.936 -2.019,-2.141 -0.052,-0.015 -0.173,0 -0.283,0 -0.054,-0.015 -0.106,-0.037 -0.154,-0.037 -0.362,0 -0.634,0.096 -0.681,0.132 l 0.047,0 c -0.135,0.008 -0.267,0.081 -0.403,0.132 -0.066,0.044 -0.146,0.059 -0.198,0.066 l -0.011,0.015 -0.004,0 -0.007,0 c -0.014,0.014 -0.025,0.029 -0.025,0.029 -0.044,0.015 -0.085,0.029 -0.118,0.044 -2.859,1.664 -5.978,3.181 -8.829,4.318 -1.162,0.498 -2.567,0.952 -4.058,1.349 -0.932,-2.398 -1.73,-4.912 -2.419,-7.47 1.558,0.044 3.108,-0.11 4.625,-0.514 5.799,-1.546 9.2,-4.845 10.373,-6.157 -0.044,0.044 -0.113,0.066 -0.176,0.11 0,0 0.004,0 0.004,-0.015 0.066,-0.051 0.151,-0.066 0.201,-0.132 -0.029,0.037 -0.087,0.051 -0.135,0.081"
           style="fill:#ffffff;fill-opacity:1;fill-rule:nonzero;stroke:none"
           id="path24"
           inkscape:connector-curvature="0" /><path
           d="m 156.504,492.196 c 0.04,0 0.092,0.015 0.139,0.03 0.026,0.014 0.055,0 0.088,0 -0.088,-0.015 -0.157,-0.015 -0.227,-0.03 m 145.782,-54.922 c -4.028,2.134 -8.43,3.219 -8.954,3.314 -0.081,0.007 -0.15,0.051 -0.231,0.095 -0.751,0.191 -1.4,0.718 -1.694,1.481 -0.377,0.975 -0.095,2.074 0.678,2.764 0.14,0.117 0.279,0.19 0.422,0.249 0.055,0.044 0.088,0.081 0.136,0.125 0.047,0 0.095,0 0.143,0.014 0.032,0.007 0.047,0.037 0.088,0.051 0,0 0.003,0 0.003,0.015 0,-0.015 -0.003,0 -0.003,-0.015 -0.056,-0.014 -0.114,-0.044 -0.166,-0.065 0,0 0.107,0.051 0.144,0.065 l -0.034,0 c 0.015,0 0.034,0 0.056,0.015 0.835,0.374 6.956,2.932 13.444,-0.726 0.777,-0.447 1.529,-1.026 2.28,-1.649 1.837,2.654 3.798,5.205 5.853,7.609 -0.868,0.828 -1.711,1.576 -2.529,2.207 -3.859,3.159 -8.089,4.933 -8.115,4.933 l 0.132,0 c -0.055,0 -0.106,0.044 -0.15,0.052 -0.033,0.014 -0.077,0 -0.11,0.014 -0.033,0.015 -0.066,0.059 -0.106,0.096 -0.726,0.366 -1.239,1.026 -1.36,1.847 -0.136,1.019 0.381,2.038 1.341,2.558 0.095,0.044 0.176,0.067 0.26,0.096 0.008,0.015 0.019,0.015 0.019,0.015 l 0.037,0 c 0.032,0.014 0.055,0.014 0.069,0.036 l 0.004,0 c 0.015,0 0.026,0.014 0.026,0.014 0.036,0 0.088,0 0.128,0.015 l -0.011,0 0.011,0 0.014,0 c 1.965,0.631 8.076,1.254 13.229,-3.218 0.909,-0.813 1.715,-1.818 2.473,-2.91 1.482,1.451 2.9,2.815 4.194,3.9 0.821,0.762 1.837,1.642 2.98,2.587 -0.814,1.246 -1.624,2.405 -2.456,3.366 -3.134,3.928 -6.84,6.48 -6.854,6.487 l -0.015,0 c -0.015,0 -0.015,0.037 -0.048,0.059 -0.014,0.007 -0.058,0.007 -0.069,0.022 -0.817,0.579 -1.206,1.561 -1.008,2.536 0.191,0.953 0.968,1.745 1.917,1.957 1.499,0.345 8.515,-0.271 12.784,-5.945 0.8,-1.085 1.419,-2.287 1.94,-3.548 2.441,1.869 4.952,3.658 7.554,5.403 -0.579,1.188 -1.162,2.272 -1.781,3.203 -2.632,4.355 -5.869,7.587 -5.861,7.573 0.029,-0.015 0.048,-0.015 0.055,-0.03 -0.011,0.015 -0.026,0.044 -0.055,0.059 -0.008,0.015 -0.048,0.022 -0.052,0.022 -0.047,0.052 -0.061,0.103 -0.091,0.154 -0.576,0.623 -0.814,1.467 -0.605,2.28 0.25,0.975 1.049,1.693 2.053,1.855 l 0.326,0 0.037,0 0.058,0 0.095,0 c -0.017,0 -0.032,-0.015 -0.04,-0.015 l 0.019,0 0.05,0 c 1.708,-0.147 7.361,-1.825 10.967,-7.675 0.587,-0.96 1.034,-2.031 1.408,-3.196 2.412,1.495 4.926,2.969 7.569,4.45 -0.484,1.07 -0.983,2.066 -1.532,2.961 -2.453,4.413 -5.572,7.852 -5.557,7.844 -0.063,0.051 -0.092,0.132 -0.132,0.198 -0.524,0.63 -0.733,1.444 -0.527,2.206 0.256,0.976 1.073,1.694 2.067,1.826 0.235,0.044 0.487,0.014 0.832,-0.052 0.051,-0.014 0.11,0 0.168,-0.014 0.037,-0.015 0.067,-0.044 0.11,-0.059 l 0.011,0 c 2.416,-0.586 7.093,-2.859 10.039,-7.969 0.565,-0.974 0.98,-2.082 1.327,-3.225 1.621,0.865 3.186,1.664 4.586,2.383 l 3.035,1.509 c -0.521,1.181 -1.059,2.288 -1.667,3.27 -2.479,4.465 -5.54,7.895 -5.521,7.881 0.025,-0.022 0.077,-0.051 0.113,-0.066 -0.058,0.058 -0.117,0.066 -0.186,0.146 0,0 -0.004,0.015 -0.004,0.03 -0.509,0.564 -0.751,1.334 -0.601,2.104 0.198,1.019 1.015,1.825 2.031,2.008 1.67,0.279 7.66,-2.207 11.128,-8.137 0.685,-1.173 1.166,-2.47 1.532,-3.797 2.697,1.371 5.19,2.653 7.507,3.878 -0.653,1.422 -1.317,2.727 -2.046,3.848 -2.61,4.377 -5.769,7.815 -5.754,7.8 0.014,-0.029 0.051,-0.029 0.062,-0.051 -0.535,0.506 -0.843,1.202 -0.8,1.95 0.063,1.085 0.803,1.986 1.867,2.272 0.263,0.074 0.538,0.067 0.828,0.015 0.22,0.022 0.447,-0.015 0.671,-0.103 0,0 0.007,-0.007 0.025,-0.007 0.011,-0.014 0.037,-0.029 0.059,-0.044 l 0.022,0 c -0.022,0.015 -0.044,0.03 -0.081,0.03 0.052,0 0.084,-0.03 0.125,-0.044 2.313,-0.638 6.733,-2.867 9.742,-7.639 0.876,-1.364 1.51,-2.866 1.925,-4.435 2.616,1.437 5.039,2.822 7.29,4.142 -0.836,1.627 -1.704,3.13 -2.628,4.383 -2.628,3.842 -5.663,6.942 -6.323,7.595 -0.029,0.044 -0.065,0.081 -0.076,0.095 -0.048,0.044 -0.092,0.103 -0.129,0.147 0.015,-0.015 0.033,-0.015 0.037,-0.029 0,0 -0.004,0 -0.004,0.014 -0.04,0.044 -0.059,0.052 -0.092,0.111 0.019,-0.045 0.04,-0.059 0.059,-0.096 -0.048,0.081 -0.107,0.146 -0.147,0.213 0.026,-0.037 0.063,-0.052 0.088,-0.088 -0.025,0.036 -0.044,0.088 -0.062,0.117 -0.015,0.022 -0.077,0.051 -0.084,0.08 -0.029,0.052 -0.029,0.118 -0.052,0.184 -0.139,0.293 -0.234,0.623 -0.245,0.96 -0.004,1.1 0.678,2.06 1.679,2.383 0.263,0.087 0.539,0.102 0.832,0.073 0.219,0.044 0.443,0.029 0.663,-0.037 0.052,0 0.088,-0.051 0.132,-0.066 2.276,-0.498 6.799,-2.485 10.161,-7.074 1.158,-1.561 1.982,-3.306 2.513,-5.117 2.508,1.584 4.839,3.123 6.983,4.64 -1.113,1.877 -2.279,3.541 -3.486,4.905 -2.752,3.284 -5.761,5.945 -6.93,6.942 -0.052,0.029 -0.192,0.161 -0.224,0.22 0,-0.015 0.032,-0.059 -0.022,0.022 -0.066,0.074 -0.143,0.147 -0.205,0.227 -0.011,0.015 -0.015,0.015 -0.015,0.015 l 0.004,0 c -0.012,0.015 -0.023,0.029 -0.026,0.044 -0.059,0.066 -0.074,0.154 -0.114,0.234 -0.169,0.279 -0.293,0.587 -0.326,0.91 -0.125,1.084 0.462,2.11 1.463,2.565 0.241,0.095 0.527,0.132 0.85,0.132 0.22,0.052 0.459,0.052 0.693,0 0.033,0 0.062,-0.029 0.092,-0.037 l 0.025,0 c -0.022,0.008 -0.048,0.037 -0.07,0.037 0.033,-0.014 0.055,-0.029 0.096,-0.037 2.129,-0.293 6.737,-1.884 10.632,-6.157 1.544,-1.701 2.651,-3.607 3.347,-5.674 2.419,1.935 4.527,3.804 6.378,5.674 -1.492,1.92 -3.009,3.606 -4.53,4.919 -3.171,2.888 -6.488,5.146 -7.712,5.96 -0.074,0.058 -0.172,0.139 -0.272,0.205 0.03,-0.029 0.059,-0.044 0.084,-0.052 -0.084,0.052 -0.142,0.088 -0.149,0.118 0.017,-0.03 0.047,-0.037 0.065,-0.066 -0.084,0.066 -0.172,0.146 -0.23,0.183 0.036,-0.022 0.182,-0.132 0.209,-0.154 -0.114,0.073 -0.236,0.198 -0.345,0.316 -0.011,0.014 -0.029,0.014 -0.055,0.029 0.007,-0.015 0.033,-0.015 0.033,-0.015 -0.026,0.015 -0.044,0.036 -0.044,0.051 -0.036,0.029 -0.048,0.096 -0.08,0.14 -0.144,0.183 -0.297,0.418 -0.389,0.784 -0.276,1.041 0.157,2.133 1.074,2.734 0.212,0.14 0.487,0.213 0.806,0.264 0.223,0.073 0.443,0.125 0.7,0.125 0.059,0 0.1,-0.066 0.158,-0.066 l 0.007,0 c -0.055,0 -0.088,0.066 -0.143,0.066 0.078,-0.015 0.136,-0.066 0.22,-0.066 2.071,-0.066 6.748,-1.092 11.205,-4.75 2.218,-1.819 3.527,-3.908 4.351,-5.748 l 5.857,5.748 0.385,0.388 c -1.228,1.21 -3.489,3.314 -6.407,5.058 -2.489,1.598 -5.538,3.241 -8.566,4.619 -0.033,0.015 -0.132,0.065 -0.158,0.088 0,0 -0.021,0.021 -0.044,0.029 -0.033,0.015 -0.176,0.073 -0.194,0.095 -0.076,0.044 -0.124,0.125 -0.183,0.162 -0.037,0.014 -0.052,0.014 -0.077,0.051 0,0 -0.022,0 -0.025,0.014 l -0.012,0 c -0.015,0 -0.018,0.015 -0.018,0.015 -0.062,0.051 -0.172,0.132 -0.29,0.272 -0.014,0.021 -0.029,0.036 -0.047,0.05 -0.048,0.067 -0.088,0.103 -0.139,0.177 0.021,-0.044 0.058,-0.059 0.091,-0.088 l -0.015,0.014 c -0.018,0.03 -0.059,0.044 -0.08,0.074 -0.008,0.022 -0.029,0.029 -0.037,0.051 -0.033,0.037 -0.033,0.073 -0.059,0.117 -0.033,0.066 -0.084,0.125 -0.117,0.205 -0.454,0.968 -0.227,2.119 0.572,2.867 0.216,0.205 0.469,0.323 0.744,0.411 0.194,0.109 0.421,0.19 0.649,0.227 l 0.007,0 c 0.179,0.014 0.338,0.014 0.455,0 l 0.04,0 c 0,0 0.011,0 0.014,-0.022 2.152,0.219 6.701,-0.147 11.532,-2.874 2.801,-1.569 4.571,-3.622 5.732,-5.513 0.4,4.582 0.675,9.135 0.675,13.606 0,84.391 -68.682,153.08 -153.084,153.08 -8.386,0 -16.864,-0.755 -25.243,-2.163 0.601,-1.011 1.224,-1.949 1.869,-2.749 1.76,-2.389 3.856,-4.86 6.22,-7.396 0.14,-0.147 0.231,-0.286 0.312,-0.389 l 0.011,0 0.029,-0.051 0,0.014 c 0.022,-0.029 0.033,-0.065 0.063,-0.095 0.014,-0.029 0.062,-0.044 0.073,-0.066 0.018,-0.029 0.003,-0.051 0.022,-0.073 0.011,-0.022 0.018,-0.022 0.029,-0.051 -0.011,0.029 -0.018,0.029 -0.029,0.051 0,-0.022 0.011,-0.022 0.011,-0.022 l -0.011,0 c 0.018,-0.029 0.018,-0.052 0.047,-0.096 0.004,-0.014 0.015,-0.021 0.03,-0.05 -0.004,0.014 -0.004,0.029 -0.015,0.036 0.011,-0.007 0.011,-0.022 0.015,-0.036 0.029,-0.067 0.044,-0.133 0.066,-0.184 0.099,-0.249 0.168,-0.462 0.19,-0.696 0.004,-0.015 0,-0.03 0.004,-0.059 0.004,-0.037 -0.004,-0.066 -0.004,-0.117 0.019,-0.147 0.022,-0.33 -0.011,-0.564 0.004,0.043 -0.011,0.08 0,0.131 -0.011,-0.051 0.004,-0.088 0,-0.131 -0.011,-0.023 -0.029,-0.038 -0.036,-0.067 -0.008,-0.021 0.007,-0.051 -0.008,-0.073 -0.348,-1.261 -1.605,-2.038 -2.888,-1.774 -0.092,0.007 -0.139,0.059 -0.216,0.088 -0.073,0.022 -0.147,0.022 -0.217,0.036 l -0.014,0 c -1.572,0.587 -5.637,2.419 -9.611,6.884 -1.594,1.796 -2.671,3.878 -3.258,6.165 -0.312,-0.066 -0.619,-0.132 -0.935,-0.213 -1.756,-1.817 -3.526,-3.928 -5.274,-6.201 1.51,-1.62 3.071,-3.079 4.721,-4.281 3.287,-2.507 6.594,-4.442 7.855,-5.19 0.249,-0.147 0.41,-0.243 0.557,-0.352 l -0.007,0 c 0.01,0 0.029,-0.015 0.04,-0.015 l 0.004,0 0,-0.007 c 0.135,-0.081 0.318,-0.264 0.483,-0.448 l 0.007,0 c 0.066,-0.065 0.111,-0.146 0.169,-0.212 l 0.004,-0.022 c 0.011,-0.015 0.014,-0.015 0.014,-0.015 -0.003,0 -0.003,0.037 -0.003,0.037 0.047,-0.051 0.099,-0.147 0.135,-0.227 l -0.007,0 c 0.007,-0.015 0.037,-0.037 0.044,-0.067 0.015,-0.05 0.015,-0.109 0.04,-0.146 l 0,0.015 0,-0.015 c 0.044,-0.125 0.077,-0.227 0.096,-0.322 -0.015,0.029 -0.026,0.044 -0.03,0.066 0.03,-0.103 0.059,-0.221 0.066,-0.345 0.077,-0.476 0.059,-0.975 -0.161,-1.437 -0.392,-0.85 -1.275,-1.407 -2.228,-1.422 -0.191,0 -0.345,0.015 -0.455,0.073 l -0.125,0 c -1.447,0.073 -5.857,0.345 -10.904,3.68 -2.093,1.4 -3.497,3.072 -4.512,4.663 -1.606,-2.471 -3.123,-5.021 -4.538,-7.624 1.826,-1.298 3.599,-2.397 5.319,-3.138 2.686,-1.312 5.919,-2.566 9.071,-3.518 0.052,-0.023 0.191,-0.074 0.235,-0.088 0,0 0.018,0 0.051,-0.015 0,-0.015 0,0 0.008,-0.015 l -0.008,0.015 -0.044,0 c 0.026,0 0.033,-0.015 0.044,-0.03 l 0.044,0 0.029,0 c 0.03,-0.014 0.056,-0.051 0.089,-0.051 0.014,0 0.025,0 0.025,-0.015 -0.011,0.015 -0.025,0.044 -0.051,0.044 0.062,-0.029 0.114,-0.044 0.161,-0.08 -0.029,0.007 -0.066,0.007 -0.11,0.036 0.029,-0.014 0.044,-0.036 0.063,-0.036 0.014,-0.015 0.018,-0.015 0.032,-0.029 l 0.008,0 c 0.007,-0.015 0.022,-0.015 0.022,-0.015 0.025,0 0.04,0 0.051,-0.007 -0.007,0.007 -0.022,0.007 -0.033,0.007 0,0 0.011,0 0.022,-0.007 0.011,0 0.022,-0.03 0.022,-0.03 0,0 0.026,-0.014 0.033,-0.014 0.026,-0.008 0.044,-0.008 0.059,-0.037 l 0.015,0 c 0,0 0.044,-0.015 0.047,-0.03 0.07,-0.036 0.165,-0.109 0.282,-0.205 0.041,-0.021 0.081,-0.073 0.129,-0.102 0.062,-0.066 0.106,-0.096 0.165,-0.176 -0.034,0.044 -0.07,0.051 -0.096,0.08 0,0 0.011,-0.014 0.026,-0.029 0.018,-0.022 0.058,-0.037 0.077,-0.066 0.018,0 0.018,-0.052 0.047,-0.066 0.034,-0.051 0.074,-0.073 0.114,-0.147 0.583,-0.923 0.506,-2.103 -0.187,-2.932 -0.183,-0.22 -0.417,-0.373 -0.678,-0.513 -0.165,-0.132 -0.363,-0.234 -0.586,-0.293 l -0.019,0 -0.007,0 c -0.224,-0.066 -0.381,-0.073 -0.517,-0.066 -2.188,-0.536 -6.836,-0.785 -11.945,1.319 -2.06,0.873 -3.816,2.112 -5.267,3.673 -0.612,-1.282 -1.162,-2.507 -1.65,-3.673 -0.55,-1.319 -1.158,-2.917 -1.799,-4.721 2.059,-1.07 4.039,-1.927 5.908,-2.463 3.845,-1.224 7.587,-1.839 9.468,-2.089 0.018,0 0.04,-0.015 0.066,-0.015 -0.077,0.015 -0.154,0.015 -0.22,0.015 0.037,0 0.099,-0.015 0.168,-0.015 l 0.052,0 0.011,0 0.055,0 c 0.029,-0.014 0.073,-0.014 0.103,-0.014 0.058,-0.015 0.098,-0.022 0.153,-0.052 l 0.004,0 0.026,0 c 0.069,-0.029 0.11,-0.044 0.11,-0.044 0.066,-0.021 0.139,-0.036 0.172,-0.065 l 0.018,-0.016 0.015,0 0.007,0 c 0.029,-0.014 0.063,-0.029 0.099,-0.05 -0.018,0.006 -0.029,0.021 -0.036,0.036 0.032,-0.015 0.091,-0.066 0.139,-0.08 0.066,-0.037 0.143,-0.037 0.201,-0.074 -0.058,0.037 -0.11,0.037 -0.165,0.051 0.077,-0.014 0.155,-0.051 0.202,-0.08 0.033,-0.029 0.055,-0.052 0.084,-0.081 0.147,-0.095 0.286,-0.198 0.433,-0.374 0.718,-0.843 0.803,-2.016 0.212,-2.954 -0.139,-0.212 -0.333,-0.389 -0.564,-0.572 -0.15,-0.146 -0.337,-0.279 -0.554,-0.388 l -0.018,0 0.015,0 c -0.019,0 -0.029,0 -0.048,-0.015 -0.066,-0.022 -0.121,-0.022 -0.198,-0.037 -0.953,-0.468 -5.743,-2.507 -12.246,-0.733 -2.195,0.616 -4.138,1.664 -5.842,3.079 -0.847,-2.976 -1.61,-5.981 -2.243,-9.024 2.1,-0.835 4.109,-1.502 5.974,-1.84 4.509,-0.975 8.881,-1.136 9.669,-1.143 0.074,0 0.294,0 0.36,-0.03 0.549,-0.066 1.063,-0.322 1.429,-0.711 0.773,-0.755 0.957,-1.935 0.447,-2.91 -0.124,-0.257 -0.311,-0.44 -0.528,-0.631 -0.15,-0.176 -0.308,-0.315 -0.528,-0.41 -0.029,-0.03 -0.084,-0.03 -0.121,-0.03 -0.01,-0.014 -0.029,-0.029 -0.054,-0.036 0.054,0.022 0.131,0.022 0.168,0.036 -0.051,-0.014 -0.114,-0.014 -0.168,-0.036 -2.009,-1.261 -6.671,-2.962 -12.301,-1.943 -2.075,0.374 -3.955,1.151 -5.663,2.273 -0.481,-3.087 -0.891,-6.158 -1.225,-9.266 1.881,-0.565 3.67,-0.997 5.326,-1.188 4.208,-0.66 8.174,-0.55 9.659,-0.484 0.124,0.022 0.231,0 0.231,0 0.021,0 0.083,0 0.142,-0.022 -0.033,0.022 -0.066,0.022 -0.073,0.022 0.102,0 0.271,-0.022 0.363,-0.036 -0.059,0.014 -0.121,0 -0.195,0 l 0.089,0 -0.037,0 0.055,0 c 0.11,-0.015 0.209,0 0.293,-0.03 0.026,-0.007 0.059,-0.036 0.088,-0.051 0.249,-0.059 0.528,-0.168 0.817,-0.396 0.895,-0.696 1.199,-1.898 0.774,-2.925 -0.063,-0.154 -0.22,-0.256 -0.316,-0.381 -0.105,-0.235 -0.256,-0.462 -0.472,-0.638 -0.048,-0.029 -0.103,-0.029 -0.143,-0.051 l -0.022,-0.015 c 0.036,0.022 0.095,0.015 0.128,0.037 -0.055,-0.037 -0.132,-0.051 -0.209,-0.088 -1.792,-1.415 -6.44,-3.687 -12.261,-2.954 -1.726,0.234 -3.372,0.733 -4.915,1.481 -0.084,-1.107 -0.154,-2.251 -0.216,-3.438 -0.172,-1.664 -0.304,-3.6 -0.447,-5.747 1.536,-0.36 3.02,-0.639 4.391,-0.734 4.604,-0.55 8.929,-0.176 9.699,-0.095 0.066,0 0.245,0.015 0.311,0.015 0.026,0 0.037,-0.015 0.048,-0.015 0.553,0 1.11,-0.183 1.558,-0.557 0.839,-0.711 1.121,-1.877 0.707,-2.874 -0.088,-0.198 -0.275,-0.352 -0.414,-0.521 -0.088,-0.161 -0.187,-0.278 -0.312,-0.388 -0.018,-0.029 -0.029,-0.051 -0.062,-0.081 0.033,0.03 0.044,0.037 0.055,0.052 -0.037,-0.022 -0.066,-0.059 -0.107,-0.089 0.019,0.015 0.034,0.03 0.044,0.037 -0.01,-0.022 -0.04,-0.037 -0.051,-0.051 -0.04,-0.03 -0.051,-0.066 -0.084,-0.08 -0.011,-0.015 -0.037,0 -0.044,-0.015 -0.011,-0.015 -0.04,-0.037 -0.055,-0.052 -1.917,-1.591 -6.349,-3.899 -12.14,-3.364 -1.338,0.117 -2.61,0.469 -3.856,0.916 -0.077,-2.192 -0.157,-5.08 -0.157,-5.08 l -0.11,-4.091 c 1.111,-0.183 2.151,-0.337 3.134,-0.395 5.069,-0.499 9.672,0.102 9.706,0.117 -0.019,-0.015 -0.034,-0.03 -0.044,-0.03 0.036,0 0.084,0.03 0.113,0.03 0.026,0 0.051,-0.015 0.077,0 0.576,0.029 1.162,-0.096 1.657,-0.44 0.916,-0.66 1.279,-1.847 0.902,-2.888 -0.074,-0.199 -0.199,-0.389 -0.367,-0.602 -0.11,-0.183 -0.253,-0.359 -0.433,-0.498 -0.022,-0.022 -0.066,-0.022 -0.088,-0.052 -0.007,0 -0.021,-0.007 -0.021,-0.007 0.029,0.03 0.077,0.03 0.099,0.059 -0.034,-0.029 -0.092,-0.059 -0.143,-0.096 -1.87,-1.664 -6.349,-4.215 -12.188,-3.745 -0.887,0.088 -1.796,0.271 -2.723,0.535 -0.169,-3.233 -0.389,-6.26 -0.667,-9.12 0.825,-0.132 1.62,-0.241 2.397,-0.293 5.04,-0.572 9.534,0 9.633,0.015 l 0.022,0 c 0.047,0.015 0.08,-0.015 0.117,0 0.689,0.051 1.37,-0.125 1.917,-0.587 0.81,-0.74 1.059,-1.884 0.626,-2.873 -0.648,-1.496 -6.187,-5.447 -13.165,-4.751 -0.836,0.088 -1.697,0.294 -2.57,0.543 -0.487,-3.167 -1.103,-6.261 -1.821,-9.237 1.04,-0.279 2.03,-0.513 2.972,-0.645 4.981,-0.916 9.534,-0.52 9.497,-0.52 0.08,0.014 0.154,-0.008 0.235,-0.008 0.766,0.052 1.502,-0.212 2.012,-0.806 0.708,-0.799 0.825,-1.957 0.282,-2.896 -0.124,-0.22 -0.293,-0.403 -0.495,-0.586 -0.003,-0.015 -0.007,-0.015 -0.007,-0.015 -0.011,0 -0.015,0 -0.015,-0.015 l -0.011,0 0.011,0 -0.011,0 c -0.022,-0.022 -0.036,-0.051 -0.062,-0.08 -0.022,-0.029 -0.059,-0.037 -0.081,-0.051 -0.01,-0.015 -0.022,-0.03 -0.048,-0.044 -0.754,-0.653 -5.706,-4.633 -12.821,-3.241 -1.191,0.22 -2.375,0.697 -3.552,1.268 -0.392,-1.253 -0.766,-2.418 -1.147,-3.474 -0.784,-1.935 -1.733,-3.951 -2.822,-6.063 1.473,-0.901 2.918,-1.693 4.296,-2.257 4.054,-1.855 8.342,-2.412 8.918,-2.427 0,0 0.014,-0.014 0.022,-0.014 l 0.018,0 -0.026,0 c 0.026,0 0.037,-0.015 0.07,-0.015 0.979,-0.022 1.884,-0.616 2.251,-1.532 0.314,-0.726 0.201,-1.57 -0.228,-2.258 -0.051,-0.066 -0.066,-0.147 -0.125,-0.228 -0.029,-0.036 -0.076,-0.08 -0.124,-0.131 0,0 -0.004,0 -0.007,-0.015 0,0 0.003,0 0.003,0.015 -0.003,-0.015 -0.003,-0.015 -0.015,-0.03 -0.014,0 -0.018,-0.014 -0.036,-0.014 l 0.011,0 c 0,0 -0.011,0 -0.011,-0.015 l 0,0.015 0,-0.015 -0.011,0 c 0,0 -0.004,0 -0.015,-0.008 l -0.004,0 c 0.015,0.008 0.052,0.008 0.063,0.023 -0.022,-0.023 -0.063,-0.037 -0.073,-0.052 -0.037,-0.029 -0.044,-0.066 -0.077,-0.103 -1.016,-0.923 -7.639,-4.838 -14.416,-1.179 -1.599,0.879 -3.057,2.059 -4.351,3.474 -1.888,-3.02 -3.977,-5.923 -6.275,-8.694 1.261,-1.657 2.514,-3.101 3.764,-4.237 3.541,-3.519 7.573,-5.373 7.566,-5.373 0.032,-0.015 0.051,-0.044 0.084,-0.059 0.194,-0.096 0.403,-0.191 0.615,-0.359 0.705,-0.602 1.031,-1.577 0.829,-2.456 -0.121,-0.498 -0.502,-1.298 -1.558,-1.76 -0.025,0 -0.04,-0.029 -0.066,-0.044 l -0.025,0 0.022,0 -0.026,0 c -0.128,-0.051 -0.213,-0.124 -0.367,-0.161 -2.004,-0.521 -8.782,-0.894 -13.43,4.208 -1.158,1.29 -2.078,2.763 -2.781,4.369 -2.24,-2.273 -4.457,-4.369 -6.752,-6.238 -0.374,-0.272 -0.807,-0.565 -1.283,-0.88 0.601,-1.364 1.232,-2.624 1.91,-3.702 2.466,-4.34 5.82,-7.456 5.784,-7.426 -0.037,0.044 -0.07,0.044 -0.103,0.058 0.018,0 0.033,-0.044 0.048,-0.058 0.029,0 0.065,0 0.091,-0.03 0.066,-0.065 0.096,-0.117 0.158,-0.183 0.583,-0.615 0.872,-1.429 0.689,-2.258 -0.227,-1.026 -1.066,-1.817 -2.063,-1.95 l -0.209,0 -0.012,0 -0.084,0 c -0.026,0 -0.04,-0.014 -0.066,-0.014 -0.029,0 -0.04,0.014 -0.066,0.014 l -0.015,0 0.015,0 -0.055,0 -0.022,0 0.044,0 -0.048,0 c -1.722,0.03 -8.301,1.364 -11.589,7.624 -0.635,1.217 -1.045,2.537 -1.364,3.915 -2.925,-1.524 -5.996,-2.896 -9.306,-4.112 0.311,-1.379 0.675,-2.669 1.099,-3.82 1.456,-4.31 3.849,-8.034 4.182,-8.482 l 0.008,0 c 0.011,-0.014 0.011,-0.014 0.011,-0.029 0.605,-0.784 0.7,-1.84 0.242,-2.69 -0.213,-0.403 -0.554,-0.697 -0.95,-0.924 -0.139,-0.11 -0.274,-0.198 -0.447,-0.264 -0.095,-0.044 -0.201,-0.015 -0.311,-0.044 -0.022,0 -0.044,-0.014 -0.066,-0.014 0.102,0.014 0.209,0 0.315,0.029 -0.315,-0.095 -1.173,-0.359 -2.086,0.264 0.14,-0.11 0.294,-0.169 0.466,-0.22 -2.43,0.74 -7.51,3.724 -9.42,9.772 -0.388,1.268 -0.568,2.588 -0.634,3.936 -3.043,-0.85 -6.22,-1.649 -9.632,-2.345 0.113,-1.408 0.253,-2.727 0.523,-3.93 0.888,-4.955 2.889,-9.083 2.849,-9.017 -0.037,0.074 -0.114,0.125 -0.177,0.191 0.019,-0.015 0.037,-0.036 0.048,-0.051 0.018,-0.029 0.044,-0.044 0.059,-0.066 l 0.004,-0.015 0.018,0 0,-0.015 0.004,0 c 0.025,-0.051 0.084,-0.095 0.106,-0.146 0.036,-0.066 0.036,-0.161 0.055,-0.228 0.311,-0.732 0.275,-1.561 -0.136,-2.228 -0.447,-0.733 -1.25,-1.151 -2.085,-1.165 -0.048,0 -0.096,-0.03 -0.14,-0.03 -0.033,0 -0.058,0.015 -0.073,0.015 -0.037,0 -0.092,0 -0.139,0.015 l -0.022,0 -0.008,0 -0.007,0 c -0.015,0 -0.025,0.014 -0.044,0.014 0,0 0.022,-0.014 0.037,-0.014 -0.015,0 -0.026,0.014 -0.048,0.014 -0.033,0 -0.062,-0.014 -0.08,0 -0.067,0 -0.18,0.066 -0.253,0.095 -0.011,0 -0.023,0 -0.026,0.015 -0.139,0.037 -0.256,0.081 -0.443,0.169 -0.034,0.014 -0.063,0.044 -0.085,0.058 -2.063,1.041 -6.689,4.648 -7.716,10.945 -0.201,1.283 -0.19,2.595 -0.08,3.9 -5.491,-0.704 -5.538,-0.733 -5.586,-0.733 -0.011,0 -0.913,-0.066 -2.112,-0.081 9.611,-29.55 28.466,-56.072 53.321,-74.876 26.735,-20.225 58.638,-30.92 92.26,-30.92 2.313,0 4.838,0.08 7.452,0.219 0.059,0.492 0.121,0.99 0.205,1.555 -0.227,0.021 -0.41,0.065 -0.627,0.08 -4.915,0.667 -9.445,-0.11 -9.423,-0.08 0.037,0 0.047,0.014 0.073,0.014 -0.033,-0.014 -0.062,-0.014 -0.092,-0.044 -0.113,-0.022 -0.212,0 -0.322,0 -0.096,-0.007 -0.176,-0.051 -0.286,-0.051 -0.931,0.029 -1.771,0.55 -2.181,1.393 -0.41,0.828 -0.308,1.883 0.267,2.639 0.715,0.975 5.906,5.666 13.166,4.464 0.297,-0.044 0.631,-0.124 0.954,-0.183 0.663,2.998 1.524,6.07 2.584,9.2 -0.403,0.139 -0.821,0.315 -1.221,0.418 -4.845,1.554 -9.376,1.686 -9.27,1.686 0.048,0.015 0.085,0.044 0.133,0.044 l -0.1,0 c -0.055,0 -0.102,-0.044 -0.157,-0.044 -0.081,0 -0.169,0.044 -0.249,0.051 -0.774,0.066 -1.485,0.47 -1.91,1.122 -0.561,0.894 -0.484,2.06 0.165,2.858 0.077,0.111 0.135,0.147 0.201,0.191 0.03,0.052 0.03,0.066 0.059,0.096 0.018,0.021 0.048,0.021 0.07,0.037 0.014,0.006 0.04,0.05 0.058,0.065 0,0 -0.003,-0.015 -0.018,-0.029 0.018,0.014 0.033,0.029 0.052,0.044 0,0 0.01,0 0.021,0.022 l -0.007,0 0.007,0 0.008,0 c 0.014,0.015 0.025,0.029 0.044,0.029 l -0.019,0 c 0,0 0.019,0 0.029,0.015 -0.032,-0.029 -0.062,-0.029 -0.083,-0.044 0.029,0.029 0.073,0.044 0.117,0.073 0.018,0.007 0.036,0.022 0.073,0.051 0,0 0.026,0.015 0.037,0.029 1.759,1.276 7.132,3.82 13.334,1.65 0.535,-0.153 1.078,-0.396 1.627,-0.659 1.294,2.91 2.728,5.747 4.296,8.518 -0.689,0.396 -1.352,0.77 -1.99,1.077"
           style="fill:#ffffff;fill-opacity:1;fill-rule:nonzero;stroke:none"
           id="path26"
           inkscape:connector-curvature="0" /><path
           d="m 312.835,405.547 c -1.298,0.308 -2.815,0.52 -4.453,0.66 -0.008,-0.044 -0.019,-0.096 -0.027,-0.14 -0.029,-0.183 -0.087,-0.454 -1.029,-3.643 3.5,0.506 6.979,1.129 10.42,1.884 -1.671,0.477 -3.335,0.909 -4.911,1.239"
           style="fill:#ffffff;fill-opacity:1;fill-rule:nonzero;stroke:none"
           id="path28"
           inkscape:connector-curvature="0" /><path
           d="m 223.756,694.055 c -4.138,-1.811 -8.163,-3.805 -12.085,-5.938 0.616,0.066 1.221,-0.081 1.73,-0.455 0.044,-0.029 0.106,-0.044 0.162,-0.08 0.033,-0.022 3.705,-2.889 8.404,-4.846 2.02,-0.923 4.384,-1.634 6.975,-2.163 1.635,3.175 3.409,6.224 5.271,9.142 -2.859,0.154 -5.549,0.894 -7.913,2.287 -0.913,0.55 -1.731,1.254 -2.544,2.053"
           style="fill:#ffffff;fill-opacity:1;fill-rule:nonzero;stroke:none"
           id="path30"
           inkscape:connector-curvature="0" /><path
           d="m 238.051,695.499 c 0.597,0.814 1.184,1.612 1.807,2.434 0.044,0.842 0.366,1.415 0.747,1.759 0.037,0.058 0.07,0.124 0.118,0.162 0.029,0.029 0.077,0.036 0.117,0.065 l 0.008,0 c 0.006,0.015 0.014,0.015 0.014,0.015 l 0.007,0 c 0,0 0.015,0.014 0.03,0.029 0,0 0.007,0 0.018,0.015 l 0.004,0 c -0.037,-0.03 -0.073,-0.03 -0.107,-0.059 0.034,0.029 0.078,0.029 0.107,0.059 0.11,0.081 0.322,0.249 0.597,0.33 0.085,0.029 0.18,-0.015 0.268,0 0.011,0.014 0.018,0.014 0.018,0.014 0.015,0.015 0.026,0.015 0.026,0.03 -0.011,0 -0.033,0.007 -0.048,0 0.022,0.007 0.044,0.007 0.055,0.007 0.099,0.11 0.191,0.227 0.282,0.337 -2.991,-0.88 -5.952,-1.84 -8.873,-2.903 1.873,-1.077 3.591,-1.796 4.805,-2.294"
           style="fill:#ffffff;fill-opacity:1;fill-rule:nonzero;stroke:none"
           id="path32"
           inkscape:connector-curvature="0" /></g></g></g></svg>