<?xml version="1.0" encoding="UTF-8" standalone="no"?>
<!-- Created with Inkscape (http://www.inkscape.org/) -->

<svg
   xmlns:dc="http://purl.org/dc/elements/1.1/"
   xmlns:cc="http://creativecommons.org/ns#"
   xmlns:rdf="http://www.w3.org/1999/02/22-rdf-syntax-ns#"
   xmlns:svg="http://www.w3.org/2000/svg"
   xmlns="http://www.w3.org/2000/svg"
   xmlns:sodipodi="http://sodipodi.sourceforge.net/DTD/sodipodi-0.dtd"
   xmlns:inkscape="http://www.inkscape.org/namespaces/inkscape"
   id="svg2"
   version="1.1"
   inkscape:version="0.48.4 r9939"
   width="407.52985"
   height="388.70572"
   viewBox = "0 0 407 388"
   xml:space="preserve"
   sodipodi:docname="Baseball (14).pdf"><metadata
     id="metadata8"><rdf:RDF><cc:Work
         rdf:about=""><dc:format>image/svg+xml</dc:format><dc:type
           rdf:resource="http://purl.org/dc/dcmitype/StillImage" /><dc:title></dc:title></cc:Work></rdf:RDF></metadata><defs
     id="defs6"><clipPath
       clipPathUnits="userSpaceOnUse"
       id="clipPath16"><path
         d="M 0,792 612,792 612,0 0,0 0,792 z"
         id="path18"
         inkscape:connector-curvature="0" /></clipPath></defs><sodipodi:namedview
     pagecolor="#ffffff"
     bordercolor="#666666"
     borderopacity="1"
     objecttolerance="10"
     gridtolerance="10"
     guidetolerance="10"
     inkscape:pageopacity="0"
     inkscape:pageshadow="2"
     inkscape:window-width="640"
     inkscape:window-height="480"
     id="namedview4"
     showgrid="false"
     fit-margin-top="0"
     fit-margin-left="0"
     fit-margin-right="0"
     fit-margin-bottom="0"
     inkscape:zoom="0.23838384"
     inkscape:cx="204.12509"
     inkscape:cy="94.59698"
     inkscape:window-x="0"
     inkscape:window-y="0"
     inkscape:window-maximized="0"
     inkscape:current-layer="g10" /><g
     id="g10"
     inkscape:groupmode="layer"
     inkscape:label="Baseball (14)"
     transform="matrix(1.25,0,0,-1.25,-178.37491,789.10875)"><g
       id="g12"><g
         id="g14"
         clip-path="url(#clipPath16)"><path
           d="m 178.942,449.207 c 0.12,-1.77 -1.081,-3.289 -2.869,-3.548 -1.96,-0.289 -3.905,1.076 -4.355,3.033 -0.45,1.96 0.749,3.841 2.719,4.14 l 0.468,0.04 c 4.001,6.01 8.014,12.027 12.081,17.981 -1.535,3.219 -3.04,6.461 -4.527,9.714 -3.171,-4.737 -9.245,-14.299 -11.321,-17.671 0.09,-1.825 -1.088,-3.409 -2.862,-3.702 -1.976,-0.335 -3.954,1.094 -4.431,3.206 -0.478,2.103 0.73,4.074 2.715,4.413 l 0.408,0.043 c 4.178,6.671 8.439,13.259 12.84,19.691 -1.318,3.04 -2.6,6.104 -3.833,9.194 -3.246,-4.658 -9.123,-13.911 -11.077,-17.177 0.034,-1.837 -1.131,-3.436 -2.849,-3.721 -1.931,-0.322 -3.872,1.13 -4.295,3.325 -0.432,2.184 0.79,4.203 2.739,4.525 l 0.352,0.037 c 4.08,6.562 8.333,12.991 12.757,19.157 -1.133,3.133 -2.26,6.269 -3.273,9.456 -3.417,-4.496 -9.298,-13.326 -11.188,-16.423 -0.072,-1.844 -1.256,-3.419 -2.919,-3.678 -1.899,-0.296 -3.739,1.266 -4.083,3.508 -0.327,2.27 0.958,4.313 2.879,4.585 l 0.294,0.027 c 4.12,6.359 8.488,12.525 13.073,18.336 -0.9,3.219 -1.789,6.449 -2.5,9.732 -3.689,-4.25 -9.703,-12.506 -11.602,-15.393 -0.224,-1.837 -1.463,-3.362 -3.075,-3.562 -1.873,-0.239 -3.561,1.456 -3.77,3.754 -0.195,2.323 1.237,4.379 3.123,4.569 l 0.234,0.01 c 4.297,6.06 8.881,11.844 13.735,17.183 -0.633,3.296 -1.12,6.628 -1.506,9.974 -3.964,-3.884 -10.285,-11.419 -12.236,-14.057 -0.416,-1.801 -1.749,-3.24 -3.307,-3.356 -1.854,-0.146 -3.344,1.675 -3.337,4.034 -0.017,2.358 1.598,4.365 3.46,4.445 l 0.178,-0.003 c 4.614,5.655 9.472,10.901 14.621,15.661 -0.24,3.366 -0.329,6.749 -0.264,10.13 -4.321,-3.402 -10.944,-10.063 -13.002,-12.409 -0.656,-1.751 -2.025,-3.023 -3.552,-3.046 -1.85,-0.037 -3.141,1.89 -2.842,4.302 0.259,2.399 2.07,4.292 3.909,4.233 l 0.119,-0.01 c 4.928,5.103 10.24,9.708 15.639,13.725 0.256,3.368 0.63,6.731 1.143,10.07 -4.517,-2.831 -11.614,-8.406 -13.7,-10.366 -0.849,-1.598 -2.392,-2.711 -3.852,-2.605 -1.799,0.13 -2.798,2.16 -2.228,4.502 0.638,2.346 2.643,4.04 4.447,3.817 l 0.058,-0.01 c 5.309,4.35 10.874,8.137 16.517,11.366 0.705,3.3 1.572,6.555 2.507,9.792 -4.718,-2.257 -11.962,-6.689 -14.105,-8.201 -1.048,-1.405 -2.661,-2.289 -4.053,-2.052 -1.74,0.285 -2.537,2.362 -1.58,4.551 0.945,2.203 3.133,3.655 4.889,3.27 l 0.003,0 c 5.6,3.478 11.261,6.441 17.001,8.897 1.125,3.166 2.409,6.259 3.736,9.335 -4.806,-1.71 -12.036,-5.046 -14.066,-6.139 -1.265,-1.156 -2.875,-1.824 -4.207,-1.468 -1.7,0.438 -2.216,2.491 -0.99,4.475 1.187,1.98 3.49,3.156 5.186,2.668 5.668,2.631 11.334,4.82 16.987,6.611 1.53,2.964 3.08,5.914 4.779,8.774 -4.835,-1.212 -11.804,-3.644 -13.678,-4.355 -1.339,-0.934 -2.976,-1.372 -4.219,-0.93 -1.638,0.565 -1.947,2.561 -0.53,4.325 1.37,1.735 3.749,2.642 5.392,2.083 6.445,2.213 12.898,3.921 19.243,5.263 l 0.827,-0.85 c 3.358,-3.453 6.763,-6.828 10.215,-10.13 0.392,0.053 0.794,0.076 1.2,0.049 2.332,-0.139 3.869,-1.624 3.457,-3.242 -0.444,-1.612 -2.628,-2.804 -4.948,-2.721 -2.314,0.089 -3.883,1.468 -3.483,3.153 l 0.023,0.083 c -2.111,1.903 -5.555,5.116 -7.535,7.037 -1.955,-3.276 -3.842,-6.592 -5.567,-9.991 3.309,-2.967 6.72,-5.874 10.185,-8.681 0.376,0.079 0.768,0.133 1.166,0.136 2.331,0.023 4.034,-1.379 3.829,-3.033 -0.222,-1.658 -2.289,-3 -4.593,-3.103 -2.314,-0.094 -4.052,1.176 -3.864,2.917 l 0.014,0.069 c -2.494,1.874 -6.594,5.173 -8.951,7.147 -1.608,-3.409 -3.063,-6.891 -4.349,-10.433 3.89,-2.943 7.886,-5.757 11.977,-8.428 0.361,0.113 0.74,0.196 1.132,0.235 2.325,0.227 4.217,-1.022 4.239,-2.688 -0.019,-1.661 -1.821,-3.199 -4.148,-3.521 -2.311,-0.315 -4.223,0.781 -4.27,2.552 l 0.002,0.053 c -2.882,1.711 -7.874,4.967 -10.62,6.89 -1.162,-3.535 -2.114,-7.136 -2.92,-10.767 4.523,-2.778 9.265,-5.37 13.966,-7.718 0.343,0.149 0.706,0.269 1.086,0.348 2.314,0.472 4.396,-0.571 4.64,-2.212 0.297,-1.658 -1.304,-3.386 -3.628,-3.97 -2.25,-0.582 -4.389,0.305 -4.655,2.07 l -0.003,0.033 c -3.224,1.431 -9.286,4.438 -12.439,6.222 -0.643,-3.614 -1.06,-7.266 -1.376,-10.927 5.324,-2.488 10.604,-4.681 16.037,-6.592 0.311,0.183 0.647,0.339 1.007,0.462 2.244,0.748 4.52,-0.053 5.058,-1.671 0.502,-1.625 -0.809,-3.568 -3.046,-4.432 -2.214,-0.854 -4.462,-0.206 -5.05,1.542 l -0.004,0.01 c -3.659,1.103 -10.57,3.644 -14.283,5.216 -0.069,-3.622 -0.046,-7.246 0.202,-10.861 5.937,-2.093 11.998,-3.834 18.015,-5.286 0.289,0.216 0.603,0.405 0.945,0.568 2.193,1.01 4.587,0.446 5.343,-1.176 0.828,-1.631 -0.294,-3.797 -2.462,-4.911 -2.136,-1.092 -4.497,-0.644 -5.316,1.071 -3.967,0.79 -11.954,2.82 -16.041,4.119 0.346,-3.555 0.893,-7.087 1.527,-10.602 6.602,-1.711 13.253,-3.056 19.875,-4.099 0.262,0.235 0.55,0.451 0.87,0.634 2.13,1.216 4.615,0.848 5.626,-0.774 1.04,-1.631 0.13,-3.96 -1.943,-5.263 -2.032,-1.272 -4.532,-0.983 -5.561,0.681 -4.253,0.525 -13.187,2.08 -17.719,3.134 0.744,-3.439 1.638,-6.841 2.587,-10.23 7.246,-1.372 14.482,-2.392 21.683,-3.13 0.241,0.246 0.509,0.475 0.811,0.678 2.071,1.369 4.656,1.136 5.889,-0.505 1.221,-1.641 0.506,-4.113 -1.499,-5.545 -1.96,-1.395 -4.568,-1.21 -5.789,0.415 -4.517,0.349 -14.407,1.525 -19.363,2.363 1.048,-3.3 2.198,-6.562 3.379,-9.818 7.871,-1.12 15.698,-1.934 23.491,-2.512 0.224,0.246 0.477,0.479 0.761,0.688 2.02,1.472 4.764,1.302 6.149,-0.379 1.364,-1.678 0.844,-4.266 -1.162,-5.774 -1.942,-1.455 -4.607,-1.313 -6.01,0.292 -4.783,0.279 -15.652,1.243 -21.015,1.927 1.263,-3.156 2.569,-6.296 3.924,-9.419 8.472,-1.003 16.908,-1.754 25.335,-2.375 0.213,0.242 0.453,0.471 0.726,0.677 2.023,1.522 4.907,1.339 6.417,-0.412 1.5,-1.747 1.098,-4.452 -0.955,-5.973 -1.962,-1.462 -4.691,-1.292 -6.233,0.329 -5.065,0.336 -16.951,1.316 -22.714,1.937 1.499,-3.283 3.019,-6.556 4.571,-9.815 8.151,-0.933 16.276,-1.747 24.424,-2.578 0.194,0.216 0.416,0.416 0.663,0.595 1.972,1.445 4.834,1.179 6.379,-0.612 1.546,-1.793 1.176,-4.465 -0.837,-5.874 -1.906,-1.345 -4.577,-1.092 -6.132,0.499 -4.809,0.508 -16.089,1.658 -21.76,2.272 l 4.776,-9.781 c 7.793,-1.046 15.592,-2.093 23.426,-3.319 0.183,0.18 0.386,0.349 0.612,0.502 1.958,1.316 4.795,0.89 6.327,-0.977 1.535,-1.904 1.134,-4.502 -0.879,-5.754 -1.884,-1.173 -4.49,-0.778 -6.015,0.824 -4.528,0.787 -15.168,2.342 -20.715,3.08 l 4.731,-9.861 c 7.392,-1.339 14.831,-2.788 22.28,-4.622 l 0.568,0.399 c 1.97,1.11 4.789,0.485 6.233,-1.565 1.447,-2.05 0.964,-4.558 -1.096,-5.601 -1.884,-0.941 -4.397,-0.309 -5.853,1.339 -4.194,1.186 -14.137,3.385 -19.512,4.385 1.513,-3.336 2.993,-6.691 4.386,-10.083 6.963,-1.778 13.865,-3.911 20.851,-6.546 l 0.528,0.283 c 2.03,0.871 4.723,-0.193 6.007,-2.429 1.312,-2.206 0.545,-4.757 -1.538,-5.432 -1.914,-0.641 -4.235,0.356 -5.544,2.12 -3.817,1.658 -12.849,4.857 -18.014,6.243 1.329,-3.439 2.53,-6.927 3.635,-10.446 6.314,-2.475 12.66,-5.426 18.805,-9.199 l 0.481,0.156 c 2.042,0.461 4.624,-1.044 5.527,-3.585 0.911,-2.545 -0.088,-4.851 -2.239,-5.107 -1.872,-0.209 -3.987,1.173 -5.014,3.117 -3.159,2.309 -11.148,6.684 -15.862,8.694 0.892,-3.598 1.719,-7.222 2.234,-10.9 5.542,-3.343 10.739,-7.347 15.691,-12.569 l 0.421,0.02 c 2.046,-0.054 4.041,-2.315 4.392,-5.127 0.321,-2.81 -1.316,-4.797 -3.321,-4.415 -1.795,0.332 -3.337,2.219 -3.875,4.349 -2.328,2.94 -8.448,8.914 -12.6,11.658 0.302,-3.724 0.257,-7.479 -0.041,-11.209 4.038,-4.366 7.861,-9.605 10.858,-15.376 l 0.323,-0.094 c 1.888,-0.647 3.264,-3.312 2.872,-5.903 -0.327,-2.638 -2.244,-3.95 -4.02,-3.05 -1.547,0.774 -2.52,2.823 -2.634,4.903 -1.357,3.041 -5.199,9.808 -8.271,13.502 -0.626,-3.71 -1.739,-7.315 -2.951,-10.867 2.54,-4.95 4.718,-10.466 6.309,-16.179 l 0.212,-0.127 c 1.615,-1.079 2.354,-3.828 1.573,-6.103 -0.764,-2.299 -2.704,-3.057 -4.189,-1.831 -1.269,1.047 -1.842,3.087 -1.613,4.99 -0.684,2.855 -2.678,9.516 -4.56,13.682 -1.505,-3.462 -3.35,-6.761 -5.276,-9.997 1.343,-5.014 2.263,-10.233 3.024,-15.528 l 0.124,-0.111 c 1.332,-1.299 1.695,-3.983 0.818,-5.887 -0.859,-1.883 -2.578,-2.236 -3.89,-0.89 -1.063,1.113 -1.513,3.01 -1.161,4.691 -0.39,3.764 -2.571,15.572 -3.119,17.047 -1.293,0.436 -7.064,2.549 -9.916,3.704 -1.063,-0.83 -2.585,-0.169 -3.369,1.443 -0.849,1.63 -0.669,3.558 0.271,4.392 0.968,0.83 2.533,0.309 3.45,-1.25 0.133,-0.225 0.238,-0.462 0.327,-0.701 3.135,-1.136 6.328,-2.223 9.524,-3.226 2.01,3.382 3.749,6.881 5.258,10.456 -2.716,0.332 -7.122,1.073 -9.506,1.551 -0.928,-0.929 -2.52,-0.517 -3.657,0.851 -1.157,1.395 -1.404,3.167 -0.658,4.08 0.787,0.907 2.478,0.704 3.731,-0.575 l 0.467,-0.572 c 3.709,-0.554 7.448,-0.973 11.176,-1.229 1.309,3.582 2.111,7.29 2.771,11.001 -3.035,-0.469 -8.162,-0.903 -10.761,-0.987 -0.695,-1.053 -2.352,-1 -3.819,0.004 -1.519,1.036 -2.21,2.564 -1.642,3.558 0.52,0.996 2.244,1.216 3.828,0.342 l 0.589,-0.389 c 4.067,0.408 8.263,1.053 12.325,1.953 0.226,3.715 0.269,7.364 -0.173,11.141 -3.083,-1.466 -8.391,-3.658 -11.143,-4.452 -0.481,-1.18 -2.143,-1.569 -3.815,-1.01 -1.722,0.574 -2.744,1.78 -2.5,3.079 0.301,1.236 1.966,1.947 3.73,1.473 l 0.64,-0.234 c 4.282,1.708 8.359,3.705 12.477,5.905 -0.57,3.691 -1.396,7.365 -2.391,11.02 -2.94,-2.279 -8.435,-5.973 -10.98,-7.542 -0.215,-1.415 -1.831,-2.222 -3.575,-1.943 -1.806,0.289 -3.276,1.638 -3.166,3.063 0.094,1.432 1.558,2.525 3.458,2.319 l 0.65,-0.123 c 4.108,2.831 8.258,5.884 12.176,9.113 -1.116,3.568 -2.372,7.113 -3.75,10.632 -2.858,-2.93 -8.235,-7.99 -10.692,-10.104 -0.056,-1.531 -1.485,-2.637 -3.304,-2.568 -1.919,0.077 -3.525,1.376 -3.635,2.964 -0.158,1.608 1.246,2.95 3.165,2.957 l 0.619,-0.05 c 4.055,3.774 7.992,7.725 11.843,11.794 -1.42,3.435 -2.935,6.848 -4.484,10.257 -2.829,-3.476 -8.179,-9.761 -10.495,-12.297 0.048,-1.617 -1.276,-2.92 -3.095,-3.006 -1.942,-0.09 -3.694,1.199 -3.972,2.92 -0.301,1.738 1.007,3.286 2.946,3.438 l 0.576,0 c 3.97,4.585 7.824,9.303 11.655,14.084 -1.573,3.326 -3.175,6.652 -4.792,9.974 -2.85,-3.947 -8.298,-11.376 -10.491,-14.243 0.105,-1.691 -1.138,-3.126 -2.946,-3.319 -1.953,-0.206 -3.825,1.103 -4.204,2.94 -0.399,1.857 0.839,3.575 2.793,3.824 l 0.526,0.024 c 3.941,5.322 7.824,10.721 11.71,16.12 l -4.786,9.801 c -2.95,-4.366 -8.631,-12.878 -10.743,-16.021"
           style="fill:#231f20;fill-opacity:1;fill-rule:nonzero;stroke:none"
           id="path20"
           inkscape:connector-curvature="0" /><path
           d="m 432.483,449.207 c -0.122,-1.77 1.08,-3.289 2.869,-3.548 1.959,-0.289 3.906,1.076 4.354,3.033 0.452,1.96 -0.749,3.841 -2.718,4.14 l -0.469,0.04 c -4.001,6.01 -8.014,12.027 -12.08,17.981 1.536,3.219 3.04,6.461 4.526,9.714 3.173,-4.737 9.246,-14.299 11.321,-17.671 -0.089,-1.825 1.089,-3.409 2.862,-3.702 1.977,-0.335 3.956,1.094 4.43,3.206 0.481,2.103 -0.729,4.074 -2.713,4.413 l -0.41,0.043 c -4.176,6.671 -8.438,13.259 -12.839,19.691 1.319,3.04 2.6,6.104 3.834,9.194 3.244,-4.658 9.121,-13.911 11.076,-17.177 -0.033,-1.837 1.132,-3.436 2.85,-3.721 1.932,-0.322 3.872,1.13 4.294,3.325 0.434,2.184 -0.791,4.203 -2.737,4.525 l -0.355,0.037 c -4.078,6.562 -8.332,12.991 -12.754,19.157 1.133,3.133 2.259,6.269 3.271,9.456 3.419,-4.496 9.3,-13.326 11.188,-16.423 0.072,-1.844 1.256,-3.419 2.918,-3.678 1.9,-0.296 3.741,1.266 4.084,3.508 0.327,2.27 -0.959,4.313 -2.879,4.585 l -0.294,0.027 c -4.12,6.359 -8.489,12.525 -13.074,18.336 0.9,3.219 1.789,6.449 2.5,9.732 3.691,-4.25 9.703,-12.506 11.604,-15.393 0.222,-1.837 1.462,-3.362 3.071,-3.562 1.878,-0.239 3.563,1.456 3.773,3.754 0.195,2.323 -1.238,4.379 -3.123,4.569 l -0.234,0.01 c -4.296,6.06 -8.881,11.844 -13.735,17.183 0.632,3.296 1.12,6.628 1.505,9.974 3.965,-3.884 10.288,-11.419 12.238,-14.057 0.416,-1.801 1.748,-3.24 3.305,-3.356 1.856,-0.146 3.346,1.675 3.338,4.034 0.017,2.358 -1.598,4.365 -3.461,4.445 l -0.175,-0.003 c -4.617,5.655 -9.474,10.901 -14.623,15.661 0.24,3.366 0.329,6.749 0.263,10.13 4.322,-3.402 10.945,-10.063 13.004,-12.409 0.656,-1.751 2.024,-3.023 3.552,-3.046 1.848,-0.037 3.139,1.89 2.841,4.302 -0.26,2.399 -2.069,4.292 -3.91,4.233 l -0.118,-0.01 c -4.929,5.103 -10.241,9.708 -15.641,13.725 -0.252,3.368 -0.628,6.731 -1.14,10.07 4.516,-2.831 11.612,-8.406 13.698,-10.366 0.851,-1.598 2.393,-2.711 3.853,-2.605 1.801,0.13 2.799,2.16 2.227,4.502 -0.635,2.346 -2.642,4.04 -4.445,3.817 l -0.059,-0.01 c -5.31,4.35 -10.875,8.137 -16.518,11.366 -0.702,3.3 -1.569,6.555 -2.505,9.792 4.718,-2.257 11.962,-6.689 14.104,-8.201 1.047,-1.405 2.661,-2.289 4.054,-2.052 1.74,0.285 2.535,2.362 1.578,4.551 -0.945,2.203 -3.13,3.655 -4.888,3.27 l -0.003,0 c -5.599,3.478 -11.262,6.441 -17.001,8.897 -1.123,3.166 -2.407,6.259 -3.735,9.335 4.805,-1.71 12.035,-5.046 14.066,-6.139 1.264,-1.156 2.875,-1.824 4.206,-1.468 1.701,0.438 2.216,2.491 0.99,4.475 -1.186,1.98 -3.49,3.156 -5.186,2.668 -5.668,2.631 -11.333,4.82 -16.988,6.611 -1.528,2.964 -3.078,5.914 -4.781,8.774 4.838,-1.212 11.809,-3.644 13.681,-4.355 1.339,-0.934 2.976,-1.372 4.22,-0.93 1.637,0.565 1.948,2.561 0.529,4.325 -1.37,1.735 -3.748,2.642 -5.391,2.083 -6.445,2.213 -12.899,3.921 -19.243,5.263 l -0.829,-0.85 c -3.359,-3.453 -6.763,-6.828 -10.213,-10.13 -0.392,0.053 -0.794,0.076 -1.199,0.049 -2.336,-0.139 -3.871,-1.624 -3.457,-3.242 0.443,-1.612 2.628,-2.804 4.945,-2.721 2.314,0.089 3.884,1.468 3.485,3.153 l -0.025,0.083 c 2.111,1.903 5.557,5.116 7.535,7.037 1.956,-3.276 3.843,-6.592 5.568,-9.991 -3.31,-2.967 -6.72,-5.874 -10.184,-8.681 -0.377,0.079 -0.768,0.133 -1.168,0.136 -2.329,0.023 -4.031,-1.379 -3.829,-3.033 0.223,-1.658 2.289,-3 4.595,-3.103 2.312,-0.094 4.051,1.176 3.862,2.917 l -0.011,0.069 c 2.491,1.874 6.591,5.173 8.95,7.147 1.608,-3.409 3.064,-6.891 4.347,-10.433 -3.89,-2.943 -7.885,-5.757 -11.977,-8.428 -0.362,0.113 -0.739,0.196 -1.129,0.235 -2.326,0.227 -4.22,-1.022 -4.24,-2.688 0.017,-1.661 1.82,-3.199 4.147,-3.521 2.31,-0.315 4.224,0.781 4.269,2.552 l -0.002,0.053 c 2.882,1.711 7.876,4.967 10.621,6.89 1.164,-3.535 2.114,-7.136 2.921,-10.767 -4.525,-2.778 -9.264,-5.37 -13.967,-7.718 -0.342,0.149 -0.704,0.269 -1.086,0.348 -2.315,0.472 -4.396,-0.571 -4.64,-2.212 -0.298,-1.658 1.306,-3.386 3.63,-3.97 2.247,-0.582 4.389,0.305 4.652,2.07 l 0.004,0.033 c 3.225,1.431 9.286,4.438 12.439,6.222 0.643,-3.614 1.061,-7.266 1.376,-10.927 -5.325,-2.488 -10.602,-4.681 -16.037,-6.592 -0.311,0.183 -0.647,0.339 -1.007,0.462 -2.243,0.748 -4.521,-0.053 -5.057,-1.671 -0.502,-1.625 0.808,-3.568 3.047,-4.432 2.214,-0.854 4.46,-0.206 5.048,1.542 l 0.004,0.01 c 3.659,1.103 10.569,3.644 14.282,5.216 0.071,-3.622 0.049,-7.246 -0.201,-10.861 -5.935,-2.093 -11.998,-3.834 -18.016,-5.286 -0.289,0.216 -0.6,0.405 -0.944,0.568 -2.194,1.01 -4.587,0.446 -5.341,-1.176 -0.829,-1.631 0.294,-3.797 2.462,-4.911 2.136,-1.092 4.495,-0.644 5.315,1.071 3.967,0.79 11.952,2.82 16.04,4.119 -0.344,-3.555 -0.893,-7.087 -1.528,-10.602 -6.602,-1.711 -13.251,-3.056 -19.874,-4.099 -0.263,0.235 -0.55,0.451 -0.87,0.634 -2.13,1.216 -4.615,0.848 -5.627,-0.774 -1.04,-1.631 -0.128,-3.96 1.945,-5.263 2.03,-1.272 4.53,-0.983 5.56,0.681 4.255,0.525 13.188,2.08 17.719,3.134 -0.745,-3.439 -1.638,-6.841 -2.585,-10.23 -7.249,-1.372 -14.484,-2.392 -21.685,-3.13 -0.241,0.246 -0.509,0.475 -0.81,0.678 -2.071,1.369 -4.658,1.136 -5.89,-0.505 -1.221,-1.641 -0.505,-4.113 1.5,-5.545 1.96,-1.395 4.568,-1.21 5.788,0.415 4.518,0.349 14.407,1.525 19.362,2.363 -1.048,-3.3 -2.197,-6.562 -3.379,-9.818 -7.87,-1.12 -15.698,-1.934 -23.489,-2.512 -0.226,0.246 -0.477,0.479 -0.761,0.688 -2.021,1.472 -4.765,1.302 -6.151,-0.379 -1.363,-1.678 -0.842,-4.266 1.163,-5.774 1.941,-1.455 4.608,-1.313 6.01,0.292 4.783,0.279 15.652,1.243 21.014,1.927 -1.262,-3.156 -2.566,-6.296 -3.921,-9.419 -8.475,-1.003 -16.911,-1.754 -25.337,-2.375 -0.213,0.242 -0.453,0.471 -0.726,0.677 -2.023,1.522 -4.907,1.339 -6.417,-0.412 -1.5,-1.747 -1.097,-4.452 0.955,-5.973 1.96,-1.462 4.691,-1.292 6.235,0.329 5.064,0.336 16.949,1.316 22.712,1.937 -1.5,-3.283 -3.018,-6.556 -4.571,-9.815 -8.15,-0.933 -16.276,-1.747 -24.423,-2.578 -0.196,0.216 -0.417,0.416 -0.665,0.595 -1.971,1.445 -4.833,1.179 -6.377,-0.612 -1.546,-1.793 -1.179,-4.465 0.836,-5.874 1.905,-1.345 4.576,-1.092 6.133,0.499 4.808,0.508 16.089,1.658 21.759,2.272 l -4.775,-9.781 c -7.795,-1.046 -15.593,-2.093 -23.426,-3.319 -0.184,0.18 -0.387,0.349 -0.613,0.502 -1.957,1.316 -4.796,0.89 -6.327,-0.977 -1.534,-1.904 -1.135,-4.502 0.88,-5.754 1.882,-1.173 4.49,-0.778 6.014,0.824 4.528,0.787 15.17,2.342 20.715,3.08 l -4.732,-9.861 c -7.391,-1.339 -14.829,-2.788 -22.28,-4.622 l -0.566,0.399 c -1.972,1.11 -4.791,0.485 -6.232,-1.565 -1.449,-2.05 -0.966,-4.558 1.094,-5.601 1.884,-0.941 4.397,-0.309 5.854,1.339 4.195,1.186 14.137,3.385 19.512,4.385 -1.515,-3.336 -2.993,-6.691 -4.385,-10.083 -6.966,-1.778 -13.868,-3.911 -20.853,-6.546 l -0.528,0.283 c -2.03,0.871 -4.723,-0.193 -6.007,-2.429 -1.312,-2.206 -0.543,-4.757 1.54,-5.432 1.912,-0.641 4.234,0.356 5.542,2.12 3.817,1.658 12.851,4.857 18.013,6.243 -1.33,-3.439 -2.528,-6.927 -3.634,-10.446 -6.316,-2.475 -12.659,-5.426 -18.803,-9.199 l -0.484,0.156 c -2.041,0.461 -4.623,-1.044 -5.525,-3.585 -0.91,-2.545 0.088,-4.851 2.24,-5.107 1.872,-0.209 3.985,1.173 5.011,3.117 3.16,2.309 11.148,6.684 15.865,8.694 -0.894,-3.598 -1.72,-7.222 -2.236,-10.9 -5.542,-3.343 -10.74,-7.347 -15.692,-12.569 l -0.42,0.02 c -2.045,-0.054 -4.042,-2.315 -4.391,-5.127 -0.322,-2.81 1.316,-4.797 3.321,-4.415 1.794,0.332 3.336,2.219 3.876,4.349 2.327,2.94 8.447,8.914 12.598,11.658 -0.302,-3.724 -0.259,-7.479 0.042,-11.209 -4.039,-4.366 -7.863,-9.605 -10.86,-15.376 l -0.32,-0.094 c -1.89,-0.647 -3.265,-3.312 -2.872,-5.903 0.325,-2.638 2.242,-3.95 4.018,-3.05 1.547,0.774 2.52,2.823 2.633,4.903 1.357,3.041 5.2,9.808 8.271,13.502 0.626,-3.71 1.739,-7.315 2.952,-10.867 -2.54,-4.95 -4.716,-10.466 -6.308,-16.179 l -0.214,-0.127 c -1.615,-1.079 -2.354,-3.828 -1.571,-6.103 0.762,-2.299 2.702,-3.057 4.187,-1.831 1.27,1.047 1.843,3.087 1.615,4.99 0.683,2.855 2.676,9.516 4.56,13.682 1.504,-3.462 3.351,-6.761 5.276,-9.997 -1.344,-5.014 -2.264,-10.233 -3.023,-15.528 l -0.124,-0.111 c -1.335,-1.299 -1.697,-3.983 -0.82,-5.887 0.859,-1.883 2.578,-2.236 3.889,-0.89 1.063,1.113 1.514,3.01 1.161,4.691 0.393,3.764 2.571,15.572 3.12,17.047 1.292,0.436 7.065,2.549 9.917,3.704 1.062,-0.83 2.585,-0.169 3.367,1.443 0.849,1.63 0.67,3.558 -0.268,4.392 -0.971,0.83 -2.535,0.309 -3.452,-1.25 -0.132,-0.225 -0.237,-0.462 -0.328,-0.701 -3.133,-1.136 -6.328,-2.223 -9.523,-3.226 -2.011,3.382 -3.748,6.881 -5.258,10.456 2.716,0.332 7.121,1.073 9.505,1.551 0.929,-0.929 2.521,-0.517 3.658,0.851 1.157,1.395 1.404,3.167 0.658,4.08 -0.79,0.907 -2.479,0.704 -3.731,-0.575 l -0.465,-0.572 c -3.71,-0.554 -7.451,-0.973 -11.179,-1.229 -1.309,3.582 -2.109,7.29 -2.77,11.001 3.035,-0.469 8.163,-0.903 10.763,-0.987 0.694,-1.053 2.352,-1 3.819,0.004 1.517,1.036 2.207,2.564 1.64,3.558 -0.519,0.996 -2.245,1.216 -3.828,0.342 l -0.589,-0.389 c -4.066,0.408 -8.262,1.053 -12.325,1.953 -0.226,3.715 -0.268,7.364 0.174,11.141 3.083,-1.466 8.389,-3.658 11.144,-4.452 0.479,-1.18 2.14,-1.569 3.812,-1.01 1.723,0.574 2.744,1.78 2.5,3.079 -0.3,1.236 -1.964,1.947 -3.731,1.473 l -0.636,-0.234 c -4.284,1.708 -8.361,3.705 -12.477,5.905 0.567,3.691 1.395,7.365 2.388,11.02 2.941,-2.279 8.436,-5.973 10.983,-7.542 0.214,-1.415 1.83,-2.222 3.574,-1.943 1.807,0.289 3.274,1.638 3.167,3.063 -0.095,1.432 -1.561,2.525 -3.461,2.319 l -0.649,-0.123 c -4.107,2.831 -8.258,5.884 -12.176,9.113 1.116,3.568 2.372,7.113 3.75,10.632 2.857,-2.93 8.235,-7.99 10.692,-10.104 0.056,-1.531 1.485,-2.637 3.306,-2.568 1.917,0.077 3.523,1.376 3.633,2.964 0.157,1.608 -1.244,2.95 -3.165,2.957 l -0.62,-0.05 c -4.053,3.774 -7.992,7.725 -11.84,11.794 1.418,3.435 2.933,6.848 4.483,10.257 2.827,-3.476 8.178,-9.761 10.493,-12.297 -0.048,-1.617 1.277,-2.92 3.096,-3.006 1.943,-0.09 3.694,1.199 3.972,2.92 0.3,1.738 -1.005,3.286 -2.946,3.438 l -0.577,0 c -3.97,4.585 -7.824,9.303 -11.654,14.084 1.573,3.326 3.176,6.652 4.792,9.974 2.849,-3.947 8.3,-11.376 10.491,-14.243 -0.105,-1.691 1.138,-3.126 2.945,-3.319 1.953,-0.206 3.827,1.103 4.204,2.94 0.401,1.857 -0.836,3.575 -2.793,3.824 l -0.526,0.024 c -3.94,5.322 -7.822,10.721 -11.708,16.12 l 4.784,9.801 c 2.95,-4.366 8.632,-12.878 10.745,-16.021"
           style="fill:#231f20;fill-opacity:1;fill-rule:nonzero;stroke:none"
           id="path22"
           inkscape:connector-curvature="0" /></g></g></g></svg>