<?xml version="1.0" encoding="UTF-8" standalone="no"?>
<!-- Created with Inkscape (http://www.inkscape.org/) -->

<svg
   xmlns:dc="http://purl.org/dc/elements/1.1/"
   xmlns:cc="http://creativecommons.org/ns#"
   xmlns:rdf="http://www.w3.org/1999/02/22-rdf-syntax-ns#"
   xmlns:svg="http://www.w3.org/2000/svg"
   xmlns="http://www.w3.org/2000/svg"
   xmlns:sodipodi="http://sodipodi.sourceforge.net/DTD/sodipodi-0.dtd"
   xmlns:inkscape="http://www.inkscape.org/namespaces/inkscape"
   id="svg2"
   version="1.1"
   inkscape:version="0.48.4 r9939"
   width="196.575"
   height="196.575"
    viewBox = "0 0 196 196"
   xml:space="preserve"
   sodipodi:docname="Baseball (18).pdf"><metadata
     id="metadata8"><rdf:RDF><cc:Work
         rdf:about=""><dc:format>image/svg+xml</dc:format><dc:type
           rdf:resource="http://purl.org/dc/dcmitype/StillImage" /><dc:title></dc:title></cc:Work></rdf:RDF></metadata><defs
     id="defs6"><clipPath
       clipPathUnits="userSpaceOnUse"
       id="clipPath16"><path
         d="M 0,792 612,792 612,0 0,0 0,792 z"
         id="path18"
         inkscape:connector-curvature="0" /></clipPath></defs><sodipodi:namedview
     pagecolor="#ffffff"
     bordercolor="#666666"
     borderopacity="1"
     objecttolerance="10"
     gridtolerance="10"
     guidetolerance="10"
     inkscape:pageopacity="0"
     inkscape:pageshadow="2"
     inkscape:window-width="640"
     inkscape:window-height="480"
     id="namedview4"
     showgrid="false"
     fit-margin-top="0"
     fit-margin-left="0"
     fit-margin-right="0"
     fit-margin-bottom="0"
     inkscape:zoom="0.67425131"
     inkscape:cx="-5.9816866"
     inkscape:cy="106.9428"
     inkscape:window-x="0"
     inkscape:window-y="0"
     inkscape:window-maximized="0"
     inkscape:current-layer="g10" /><g
     id="g10"
     inkscape:groupmode="layer"
     inkscape:label="Baseball (18)"
     transform="matrix(1.25,0,0,-1.25,-279.525,602.81875)"><g
       id="g12"><g
         id="g14"
         clip-path="url(#clipPath16)"><path
           d="m 302.25,482.255 c 43.425,0 78.63,-35.204 78.63,-78.63 0,-43.426 -35.205,-78.63 -78.63,-78.63 -43.426,0 -78.63,35.204 -78.63,78.63 0,43.426 35.204,78.63 78.63,78.63"
           style="fill:#231f20;fill-opacity:1;fill-rule:nonzero;stroke:none"
           id="path20"
           inkscape:connector-curvature="0" /><path
           d="m 376.904,404.336 c 0.072,0.645 0.131,1.287 0.18,1.926 0.604,-0.421 1.433,-1.091 1.863,-1.691 0.005,-0.494 0.002,-0.989 -0.003,-1.486 -0.691,0.795 -1.485,1.121 -2.04,1.251"
           style="fill:#ef2c30;fill-opacity:1;fill-rule:nonzero;stroke:none"
           id="path22"
           inkscape:connector-curvature="0" /><path
           d="m 376.893,394.77 c -0.332,0.532 -0.803,1.184 -1.412,1.787 0.161,0.613 0.305,1.226 0.442,1.839 0.495,-0.823 1.114,-1.966 1.217,-2.622 l -0.247,-1.004 z"
           style="fill:#ef2c30;fill-opacity:1;fill-rule:nonzero;stroke:none"
           id="path24"
           inkscape:connector-curvature="0" /><path
           d="m 368.867,401.216 c 2.889,-0.465 5.043,-1.869 5.856,-2.472 -0.151,-0.682 -0.316,-1.365 -0.497,-2.048 -2.114,1.678 -4.72,2.813 -5.702,3.208 l 0.343,1.312 z"
           style="fill:#ef2c30;fill-opacity:1;fill-rule:nonzero;stroke:none"
           id="path26"
           inkscape:connector-curvature="0" /><path
           d="m 370.446,406.053 -0.064,1.752 c 4.007,-0.045 5.163,-0.921 5.474,-1.293 -0.044,-0.59 -0.098,-1.183 -0.161,-1.779 -2.061,0.913 -4.324,1.226 -5.249,1.32"
           style="fill:#ef2c30;fill-opacity:1;fill-rule:nonzero;stroke:none"
           id="path28"
           inkscape:connector-curvature="0" /><path
           d="m 371.982,413.303 -0.193,0.977 c 1.226,0.654 3.205,0.294 4.16,0.058 0.021,-0.438 0.038,-0.879 0.051,-1.322 -1.555,0.342 -3.25,0.32 -4.018,0.287"
           style="fill:#ef2c30;fill-opacity:1;fill-rule:nonzero;stroke:none"
           id="path30"
           inkscape:connector-curvature="0" /><path
           d="m 371.715,420.074 -0.568,0.93 c 1.883,1.126 3.376,0.997 4.043,0.843 0.098,-0.639 0.189,-1.29 0.272,-1.953 -1.682,0.585 -3.095,0.354 -3.747,0.18"
           style="fill:#ef2c30;fill-opacity:1;fill-rule:nonzero;stroke:none"
           id="path32"
           inkscape:connector-curvature="0" /><path
           d="m 370.924,426.511 -0.364,1.076 c 1.056,0.276 2.693,-0.042 3.601,-0.288 0.109,-0.484 0.216,-0.98 0.319,-1.486 -1.462,0.685 -2.89,0.726 -3.556,0.698"
           style="fill:#ef2c30;fill-opacity:1;fill-rule:nonzero;stroke:none"
           id="path34"
           inkscape:connector-curvature="0" /><path
           d="m 369.374,433.409 -0.155,1.148 c 1.372,0.336 2.517,-0.179 3.129,-0.565 0.16,-0.502 0.326,-1.042 0.496,-1.618 -1.32,0.725 -2.783,0.962 -3.47,1.035"
           style="fill:#ef2c30;fill-opacity:1;fill-rule:nonzero;stroke:none"
           id="path36"
           inkscape:connector-curvature="0" /><path
           d="m 377.264,411.997 c -0.004,0.243 -0.006,0.486 -0.012,0.728 0.354,-0.188 0.72,-0.419 0.894,-0.611 l 0.122,-0.858 c -0.302,0.252 -0.649,0.516 -1.004,0.741"
           style="fill:#ef2c30;fill-opacity:1;fill-rule:nonzero;stroke:none"
           id="path38"
           inkscape:connector-curvature="0" /><path
           d="m 377.221,413.737 c -0.173,4.458 -0.765,8.604 -1.495,12.192 1.25,-4.163 2.145,-8.445 2.669,-12.809 -0.396,0.278 -0.863,0.502 -1.174,0.617"
           style="fill:#ffffff;fill-opacity:1;fill-rule:nonzero;stroke:none"
           id="path40"
           inkscape:connector-curvature="0" /><path
           d="m 377.157,407.337 c 0.071,1.186 0.107,2.358 0.112,3.515 0.71,-0.538 1.411,-1.235 1.469,-1.259 0.089,-1.193 0.151,-2.39 0.184,-3.593 -0.62,0.636 -1.394,1.123 -1.765,1.337"
           style="fill:#ffffff;fill-opacity:1;fill-rule:nonzero;stroke:none"
           id="path42"
           inkscape:connector-curvature="0" /><path
           d="m 366.034,441.113 -0.202,1.22 c 0.629,0.209 1.796,0.364 2.513,0.421 0.413,-0.696 0.816,-1.399 1.207,-2.108 -1.619,0.433 -2.885,0.48 -3.518,0.467"
           style="fill:#ef2c30;fill-opacity:1;fill-rule:nonzero;stroke:none"
           id="path44"
           inkscape:connector-curvature="0" /><path
           d="m 363.43,447.054 -0.452,0.993 c 0.384,0.236 1.012,0.513 1.44,0.679 0.265,-0.364 0.525,-0.729 0.783,-1.097 -0.475,-0.179 -1.243,-0.418 -1.771,-0.575"
           style="fill:#ef2c30;fill-opacity:1;fill-rule:nonzero;stroke:none"
           id="path46"
           inkscape:connector-curvature="0" /><path
           d="m 358.44,453.358 -0.739,1.058 c 0.363,0.431 1.029,0.754 1.367,0.885 0.352,-0.388 0.703,-0.777 1.047,-1.171 -0.586,-0.273 -1.269,-0.587 -1.675,-0.772"
           style="fill:#ef2c30;fill-opacity:1;fill-rule:nonzero;stroke:none"
           id="path48"
           inkscape:connector-curvature="0" /><path
           d="m 353.334,458.895 -1.057,0.437 c -0.011,0.515 0.224,1.178 0.409,1.597 0.493,-0.362 0.991,-0.732 1.495,-1.113 -0.379,-0.308 -0.666,-0.662 -0.847,-0.921"
           style="fill:#ef2c30;fill-opacity:1;fill-rule:nonzero;stroke:none"
           id="path50"
           inkscape:connector-curvature="0" /><path
           d="m 346.377,463.383 -0.738,0.119 c 0.034,0.959 -0.192,1.85 -0.451,2.541 0.331,-0.209 0.663,-0.418 1.001,-0.636 0.437,-0.808 0.313,-1.599 0.188,-2.024"
           style="fill:#ef2c30;fill-opacity:1;fill-rule:nonzero;stroke:none"
           id="path52"
           inkscape:connector-curvature="0" /><path
           d="m 340.332,465.686 -1.191,0.114 c -0.446,1.62 -1.405,3.583 -2.093,4.878 0.702,-0.356 1.437,-0.741 2.202,-1.155 1.153,-2.007 1.165,-3.289 1.082,-3.837"
           style="fill:#ef2c30;fill-opacity:1;fill-rule:nonzero;stroke:none"
           id="path54"
           inkscape:connector-curvature="0" /><path
           d="m 332.837,468.989 -1.266,0.296 c -0.45,1.982 -1.563,3.678 -2.477,4.855 0.622,-0.219 1.369,-0.498 2.224,-0.843 1.454,-1.877 1.57,-3.535 1.519,-4.308"
           style="fill:#ef2c30;fill-opacity:1;fill-rule:nonzero;stroke:none"
           id="path56"
           inkscape:connector-curvature="0" /><path
           d="m 325.258,470.827 -0.965,0.3 c -0.38,2.246 -1.422,3.917 -2.329,4.993 0.655,-0.149 1.317,-0.309 1.986,-0.48 1.698,-1.81 1.499,-3.918 1.308,-4.813"
           style="fill:#ef2c30;fill-opacity:1;fill-rule:nonzero;stroke:none"
           id="path58"
           inkscape:connector-curvature="0" /><path
           d="m 316.312,478.427 c -0.208,0.312 -0.395,0.586 -0.56,0.823 1.335,-0.235 2.661,-0.504 3.976,-0.808 0.042,-0.164 0.057,-0.376 0.055,-0.588 -1.183,0.225 -2.341,0.416 -3.471,0.573"
           style="fill:#ffffff;fill-opacity:1;fill-rule:nonzero;stroke:none"
           id="path60"
           inkscape:connector-curvature="0" /><path
           d="m 318.279,471.658 -1.197,-0.01 c -0.237,2.425 -1.5,4.557 -2.327,5.715 0.264,-0.03 0.531,-0.064 0.798,-0.098 2.526,-2.757 2.753,-4.821 2.726,-5.607"
           style="fill:#ef2c30;fill-opacity:1;fill-rule:nonzero;stroke:none"
           id="path62"
           inkscape:connector-curvature="0" /><path
           d="m 310.948,471.66 -1.201,-0.111 c -0.153,3.305 -1.643,5.285 -2.648,6.246 0.41,0.003 0.825,0.002 1.246,-0.004 3.197,-2.784 2.826,-5.335 2.603,-6.131"
           style="fill:#ef2c30;fill-opacity:1;fill-rule:nonzero;stroke:none"
           id="path64"
           inkscape:connector-curvature="0" /><path
           d="m 307.002,480.274 c 0.211,-0.249 0.559,-0.707 0.804,-1.228 -0.506,0.003 -1.004,-10e-4 -1.494,-0.01 -0.227,0.302 -0.627,0.819 -1.072,1.325 0.589,-0.022 1.177,-0.051 1.762,-0.087"
           style="fill:#ef2c30;fill-opacity:1;fill-rule:nonzero;stroke:none"
           id="path66"
           inkscape:connector-curvature="0" /><path
           d="m 308.829,479.032 c -0.15,0.426 -0.373,0.824 -0.594,1.159 1.353,-0.103 2.7,-0.241 4.038,-0.413 0.167,-0.234 0.356,-0.583 0.533,-0.959 -1.372,0.117 -2.698,0.185 -3.977,0.213"
           style="fill:#ffffff;fill-opacity:1;fill-rule:nonzero;stroke:none"
           id="path68"
           inkscape:connector-curvature="0" /><path
           d="m 314.436,479.469 c 0.162,-0.215 0.372,-0.502 0.634,-0.881 -0.402,0.049 -0.799,0.091 -1.195,0.131 -0.102,0.247 -0.246,0.573 -0.417,0.901 0.327,-0.048 0.652,-0.1 0.978,-0.151"
           style="fill:#ef2c30;fill-opacity:1;fill-rule:nonzero;stroke:none"
           id="path70"
           inkscape:connector-curvature="0" /><path
           d="m 320.711,478.213 c 0.503,-0.123 1.003,-0.252 1.503,-0.385 0.084,-0.135 0.18,-0.312 0.279,-0.545 -0.599,0.138 -1.19,0.265 -1.777,0.385 0.01,0.167 0.011,0.353 -0.005,0.545"
           style="fill:#ef2c30;fill-opacity:1;fill-rule:nonzero;stroke:none"
           id="path72"
           inkscape:connector-curvature="0" /><path
           d="m 323.59,477.021 c -0.055,0.171 -0.112,0.327 -0.169,0.471 1.287,-0.366 2.562,-0.764 3.826,-1.197 -0.009,-0.079 -0.016,-0.165 -0.021,-0.257 -0.071,0.016 -0.125,0.028 -0.147,0.032 -1.184,0.353 -2.347,0.668 -3.489,0.951"
           style="fill:#ffffff;fill-opacity:1;fill-rule:nonzero;stroke:none"
           id="path74"
           inkscape:connector-curvature="0" /><path
           d="m 328.157,475.794 c 0.002,0.062 0.005,0.123 0.008,0.182 0.612,-0.219 1.221,-0.445 1.827,-0.679 l -0.048,-0.073 c -0.735,0.255 -1.329,0.439 -1.787,0.57"
           style="fill:#ef2c30;fill-opacity:1;fill-rule:nonzero;stroke:none"
           id="path76"
           inkscape:connector-curvature="0" /><path
           d="m 303.91,480.402 c 0.422,-0.4 0.886,-0.951 1.242,-1.4 -2.729,-0.105 -5.197,-0.39 -7.38,-0.766 -0.118,0.391 -0.395,1.227 -0.817,1.994 2.26,0.156 6.913,0.173 6.955,0.172"
           style="fill:#ffffff;fill-opacity:1;fill-rule:nonzero;stroke:none"
           id="path78"
           inkscape:connector-curvature="0" /><path
           d="m 302.344,471.813 c -1.655,2.698 -3.669,4.292 -4.924,5.095 0.425,0.078 0.863,0.152 1.311,0.223 2.913,-1.411 4.322,-3.988 4.8,-5.053 l -1.187,-0.265 z"
           style="fill:#ef2c30;fill-opacity:1;fill-rule:nonzero;stroke:none"
           id="path80"
           inkscape:connector-curvature="0" /><path
           d="m 295.474,470.125 c -1.726,3.076 -3.825,4.384 -5.1,4.925 0.392,0.14 0.816,0.283 1.271,0.429 3.844,-1.711 5.038,-3.703 5.366,-4.455 l -1.537,-0.899 z"
           style="fill:#ef2c30;fill-opacity:1;fill-rule:nonzero;stroke:none"
           id="path82"
           inkscape:connector-curvature="0" /><path
           d="m 288.048,467.249 c -1.362,2.65 -3.385,3.74 -4.572,4.165 0.402,0.279 0.809,0.552 1.219,0.817 2.925,-1.585 4.474,-3.383 5.064,-4.184 l -1.711,-0.798 z"
           style="fill:#ef2c30;fill-opacity:1;fill-rule:nonzero;stroke:none"
           id="path84"
           inkscape:connector-curvature="0" /><path
           d="m 281.5,471.536 c -0.592,0.821 -1.886,2.463 -3.406,3.452 l 1.45,0.995 c 0.554,-0.473 1.908,-1.768 2.86,-3.792 -0.304,-0.214 -0.605,-0.433 -0.904,-0.655"
           style="fill:#ef2c30;fill-opacity:1;fill-rule:nonzero;stroke:none"
           id="path86"
           inkscape:connector-curvature="0" /><path
           d="m 283.187,472.732 c -1.318,2.717 -3.256,4.151 -3.343,4.214 -0.056,0.041 -0.12,0.063 -0.185,0.076 1.458,0.451 2.933,0.852 4.419,1.214 1.922,-0.995 3.17,-2.283 3.678,-2.875 -0.941,-0.409 -1.444,-0.687 -1.471,-0.703 -1.055,-0.595 -2.086,-1.24 -3.098,-1.926"
           style="fill:#ffffff;fill-opacity:1;fill-rule:nonzero;stroke:none"
           id="path88"
           inkscape:connector-curvature="0" /><path
           d="m 288.686,475.747 c -0.326,0.509 -1.15,1.578 -2.818,2.597 0.711,0.2 1.481,0.364 1.904,0.326 0.314,-0.251 1.419,-1.208 1.855,-2.564 -0.339,-0.124 -0.652,-0.244 -0.941,-0.359"
           style="fill:#ef2c30;fill-opacity:1;fill-rule:nonzero;stroke:none"
           id="path90"
           inkscape:connector-curvature="0" /><path
           d="m 290.513,476.417 c -0.437,1.343 -1.386,2.318 -1.912,2.782 1.535,0.277 3.084,0.502 4.642,0.686 0.451,-0.553 1.032,-1.368 1.412,-2.284 -1.598,-0.379 -2.984,-0.79 -4.142,-1.184"
           style="fill:#ffffff;fill-opacity:1;fill-rule:nonzero;stroke:none"
           id="path92"
           inkscape:connector-curvature="0" /><path
           d="m 295.578,477.811 c -0.328,0.844 -0.804,1.605 -1.244,2.199 0.524,0.054 1.049,0.1 1.575,0.144 0.426,-0.641 0.761,-1.53 0.935,-2.086 -0.434,-0.082 -0.857,-0.169 -1.266,-0.257"
           style="fill:#ef2c30;fill-opacity:1;fill-rule:nonzero;stroke:none"
           id="path94"
           inkscape:connector-curvature="0" /><path
           d="m 225.757,405.251 c 0.384,20.459 8.712,39.543 23.449,53.738 8.634,8.316 18.864,14.366 29.969,17.878 l -2.223,-1.526 c -0.138,-0.095 -0.215,-0.255 -0.202,-0.422 0.012,-0.166 0.112,-0.314 0.262,-0.386 1.611,-0.784 3.116,-2.701 3.739,-3.564 -1.325,-1.02 -2.61,-2.108 -3.853,-3.249 -2.059,1.87 -3.747,4.526 -3.764,4.554 -0.084,0.133 -0.228,0.215 -0.385,0.219 -0.157,0.004 -0.305,-0.071 -0.395,-0.199 l -1.217,-1.731 c -0.095,-0.133 -0.112,-0.307 -0.046,-0.457 1.01,-2.312 2.356,-3.828 3.378,-4.734 -1.265,-1.285 -2.479,-2.618 -3.645,-3.979 -1.991,1.859 -3.596,4.39 -3.613,4.417 -0.084,0.132 -0.228,0.214 -0.385,0.219 -0.157,0.004 -0.305,-0.071 -0.395,-0.199 l -1.217,-1.73 c -0.094,-0.134 -0.111,-0.308 -0.046,-0.457 1.055,-2.415 2.478,-3.964 3.513,-4.854 -1.139,-1.436 -2.222,-2.891 -3.249,-4.342 -2.09,1.792 -3.828,4.324 -3.846,4.351 -0.088,0.129 -0.235,0.206 -0.392,0.204 -0.156,-0.001 -0.302,-0.081 -0.388,-0.212 l -1.154,-1.772 c -0.09,-0.138 -0.101,-0.311 -0.03,-0.459 1.222,-2.543 2.827,-4.08 3.902,-4.896 -1.036,-1.563 -2.005,-3.106 -2.904,-4.603 -2.1,1.793 -3.85,4.342 -3.868,4.369 -0.088,0.13 -0.236,0.207 -0.393,0.205 -0.156,-0.002 -0.302,-0.081 -0.387,-0.213 l -1.155,-1.772 c -0.089,-0.137 -0.101,-0.311 -0.03,-0.459 1.33,-2.768 3.119,-4.34 4.122,-5.061 -0.857,-1.516 -1.634,-2.957 -2.329,-4.296 -2.188,1.64 -4.068,4.007 -4.088,4.032 -0.097,0.123 -0.249,0.19 -0.406,0.177 -0.156,-0.012 -0.295,-0.102 -0.372,-0.239 l -1.027,-1.849 c -0.08,-0.143 -0.079,-0.317 0.002,-0.46 1.472,-2.583 3.295,-4.017 4.364,-4.694 -0.742,-1.524 -1.334,-2.813 -1.771,-3.797 -2.179,1.639 -4.048,3.992 -4.068,4.018 -0.097,0.123 -0.249,0.189 -0.405,0.176 -0.157,-0.012 -0.296,-0.102 -0.372,-0.239 l -1.028,-1.849 c -0.079,-0.143 -0.078,-0.317 0.003,-0.46 1.537,-2.699 3.457,-4.143 4.501,-4.78 -0.574,-1.272 -1.139,-2.594 -1.69,-3.937 -2.18,1.639 -4.05,3.993 -4.07,4.018 -0.097,0.123 -0.249,0.19 -0.405,0.177 -0.157,-0.013 -0.296,-0.103 -0.373,-0.239 l -1.027,-1.849 c -0.079,-0.143 -0.078,-0.317 0.003,-0.46 1.589,-2.79 3.587,-4.239 4.603,-4.842 -0.416,-1.078 -0.821,-2.156 -1.211,-3.221 -1.552,1.988 -2.658,4.287 -2.67,4.313 -0.068,0.142 -0.201,0.24 -0.357,0.262 -0.155,0.023 -0.311,-0.034 -0.416,-0.151 l -1.41,-1.576 c -0.11,-0.122 -0.147,-0.292 -0.1,-0.448 1.036,-3.412 2.932,-5.326 3.675,-5.975 -0.516,-1.482 -0.996,-2.901 -1.432,-4.218 -1.597,2.012 -2.743,4.396 -2.757,4.423 -0.067,0.142 -0.201,0.24 -0.356,0.262 -0.155,0.023 -0.311,-0.034 -0.416,-0.151 l -1.41,-1.575 c -0.11,-0.122 -0.148,-0.293 -0.1,-0.45 1.147,-3.774 3.341,-5.713 3.866,-6.135 -0.549,-1.737 -0.958,-3.085 -1.189,-3.861 -1.674,2.049 -2.894,4.581 -2.907,4.609 -0.068,0.141 -0.202,0.24 -0.357,0.262 -0.155,0.022 -0.311,-0.035 -0.416,-0.151 l -1.41,-1.576 c -0.11,-0.122 -0.147,-0.292 -0.1,-0.449 1.177,-3.874 3.459,-5.815 3.905,-6.165 -0.54,-1.328 -1.083,-2.585 -1.626,-3.776 -1.864,1.932 -2.894,5.445 -2.905,5.484 -0.046,0.16 -0.175,0.284 -0.337,0.325 -0.162,0.04 -0.333,-0.008 -0.45,-0.128 l -1.633,-1.683 c -0.132,-0.135 -0.17,-0.337 -0.096,-0.51 1.817,-4.252 3.326,-5.635 4.192,-6.078 -0.521,-1.052 -1.038,-2.044 -1.547,-2.976 -0.604,0.383 -1.797,1.476 -2.514,4.391 -0.032,0.128 -0.116,0.237 -0.231,0.3 -0.116,0.063 -0.253,0.074 -0.377,0.031 l -2.28,-0.786 c -0.215,-0.073 -0.346,-0.291 -0.311,-0.515 0.023,-0.146 0.591,-3.494 4.203,-6.055 -0.403,-0.67 -0.798,-1.304 -1.183,-1.899 -2.396,2.804 -2.27,4.421 -2.268,4.438 0.017,0.163 -0.052,0.326 -0.183,0.425 -0.131,0.1 -0.303,0.127 -0.455,0.066 l -1.726,-0.686 c -0.186,-0.074 -0.305,-0.258 -0.295,-0.458 0.163,-3.414 2.325,-5.397 3.324,-6.137 -0.42,-0.586 -0.822,-1.122 -1.201,-1.608 -1.401,1.745 -2.078,4.704 -2.085,4.737 -0.028,0.128 -0.11,0.238 -0.223,0.304 -0.114,0.065 -0.249,0.08 -0.374,0.041 l -1.168,-0.365 c -0.065,-0.02 -0.12,-0.058 -0.17,-0.102 -1.237,5.748 -1.822,11.679 -1.71,17.705"
           style="fill:#ffffff;fill-opacity:1;fill-rule:nonzero;stroke:none"
           id="path96"
           inkscape:connector-curvature="0" /><path
           d="m 283.124,462.731 c -2.882,2.339 -5.098,3.126 -6.124,3.381 0.504,0.478 1.016,0.947 1.534,1.406 3.299,-1.3 4.904,-2.787 5.418,-3.341 l -0.828,-1.446 z"
           style="fill:#ef2c30;fill-opacity:1;fill-rule:nonzero;stroke:none"
           id="path98"
           inkscape:connector-curvature="0" /><path
           d="m 275.134,466.037 c -0.865,0.766 -2.118,2.129 -3.075,4.208 l 0.667,0.948 c 0.622,-0.905 1.93,-2.69 3.483,-4.114 -0.361,-0.343 -0.72,-0.691 -1.075,-1.042"
           style="fill:#ef2c30;fill-opacity:1;fill-rule:nonzero;stroke:none"
           id="path100"
           inkscape:connector-curvature="0" /><path
           d="m 277.715,457.635 c -3.242,1.731 -5.551,2.091 -6.621,2.151 0.459,0.55 0.927,1.096 1.403,1.637 3.36,-0.654 5.157,-1.773 5.756,-2.21 l -0.538,-1.578 z"
           style="fill:#ef2c30;fill-opacity:1;fill-rule:nonzero;stroke:none"
           id="path102"
           inkscape:connector-curvature="0" /><path
           d="m 269.269,459.523 c -0.868,0.755 -2.155,2.133 -3.133,4.258 l 0.667,0.948 c 0.613,-0.892 1.891,-2.639 3.416,-4.052 -0.321,-0.383 -0.638,-0.767 -0.95,-1.154"
           style="fill:#ef2c30;fill-opacity:1;fill-rule:nonzero;stroke:none"
           id="path104"
           inkscape:connector-curvature="0" /><path
           d="m 272.375,451.002 c -3.115,1.523 -5.36,1.857 -6.503,1.908 0.389,0.561 0.788,1.123 1.194,1.686 3.355,-0.536 5.179,-1.584 5.79,-1.998 l -0.481,-1.596 z"
           style="fill:#ef2c30;fill-opacity:1;fill-rule:nonzero;stroke:none"
           id="path106"
           inkscape:connector-curvature="0" /><path
           d="m 264.048,452.444 c -0.885,0.685 -2.337,2.052 -3.464,4.288 l 0.633,0.972 c 0.66,-0.891 2.052,-2.653 3.674,-4.027 -0.286,-0.412 -0.566,-0.823 -0.843,-1.233"
           style="fill:#ef2c30;fill-opacity:1;fill-rule:nonzero;stroke:none"
           id="path108"
           inkscape:connector-curvature="0" /><path
           d="m 267.541,443.634 c -3.009,1.47 -5.204,1.833 -6.381,1.9 0.33,0.56 0.671,1.127 1.021,1.7 3.387,-0.533 5.226,-1.589 5.84,-2.005 l -0.48,-1.595 z"
           style="fill:#ef2c30;fill-opacity:1;fill-rule:nonzero;stroke:none"
           id="path110"
           inkscape:connector-curvature="0" /><path
           d="m 259.379,444.953 c -0.895,0.662 -2.441,2.058 -3.628,4.412 l 0.632,0.97 c 0.669,-0.905 2.095,-2.709 3.75,-4.091 -0.256,-0.434 -0.509,-0.866 -0.754,-1.291"
           style="fill:#ef2c30;fill-opacity:1;fill-rule:nonzero;stroke:none"
           id="path112"
           inkscape:connector-curvature="0" /><path
           d="m 263.801,436.845 c -3.203,1.296 -5.462,1.476 -6.61,1.447 0.29,0.571 0.598,1.165 0.92,1.776 3.472,-0.286 5.41,-1.222 6.057,-1.597 l -0.367,-1.626 z"
           style="fill:#ef2c30;fill-opacity:1;fill-rule:nonzero;stroke:none"
           id="path114"
           inkscape:connector-curvature="0" /><path
           d="m 252.201,442.748 c 0.719,-0.842 2.23,-2.501 3.945,-3.758 -0.235,-0.461 -0.46,-0.908 -0.674,-1.339 -0.951,0.621 -2.528,1.892 -3.834,4.085 l 0.563,1.012 z"
           style="fill:#ef2c30;fill-opacity:1;fill-rule:nonzero;stroke:none"
           id="path116"
           inkscape:connector-curvature="0" /><path
           d="m 260.523,430 c -3.153,1.276 -5.392,1.471 -6.556,1.449 0.198,0.46 0.46,1.06 0.787,1.78 3.522,-0.278 5.484,-1.226 6.137,-1.604 L 260.523,430 z"
           style="fill:#ef2c30;fill-opacity:1;fill-rule:nonzero;stroke:none"
           id="path118"
           inkscape:connector-curvature="0" /><path
           d="m 248.923,435.903 c 0.724,-0.847 2.248,-2.52 3.974,-3.779 -0.329,-0.764 -0.566,-1.342 -0.59,-1.392 -0.935,0.593 -2.59,1.88 -3.946,4.159 l 0.562,1.012 z"
           style="fill:#ef2c30;fill-opacity:1;fill-rule:nonzero;stroke:none"
           id="path120"
           inkscape:connector-curvature="0" /><path
           d="m 257.064,422.33 c -3.333,1.354 -5.423,1.454 -6.386,1.385 0.243,0.615 0.49,1.227 0.739,1.835 3.446,-0.291 5.37,-1.222 6.015,-1.595 l -0.368,-1.625 z"
           style="fill:#ef2c30;fill-opacity:1;fill-rule:nonzero;stroke:none"
           id="path122"
           inkscape:connector-curvature="0" /><path
           d="m 249.3,423.628 c -0.925,0.578 -2.616,1.868 -4,4.193 l 0.562,1.012 c 0.727,-0.851 2.262,-2.536 3.998,-3.796 -0.189,-0.468 -0.376,-0.938 -0.56,-1.409"
           style="fill:#ef2c30;fill-opacity:1;fill-rule:nonzero;stroke:none"
           id="path124"
           inkscape:connector-curvature="0" /><path
           d="m 254.264,414.945 c -3.064,1.635 -5.101,1.987 -6.106,2.038 0.209,0.588 0.423,1.184 0.642,1.785 3.514,-0.641 5.385,-1.799 5.998,-2.246 l -0.534,-1.577 z"
           style="fill:#ef2c30;fill-opacity:1;fill-rule:nonzero;stroke:none"
           id="path126"
           inkscape:connector-curvature="0" /><path
           d="m 246.805,416.909 c -0.761,0.739 -2.177,2.388 -3.035,5.032 l 0.772,0.863 c 0.492,-0.936 1.521,-2.758 2.827,-4.317 -0.193,-0.531 -0.38,-1.057 -0.564,-1.578"
           style="fill:#ef2c30;fill-opacity:1;fill-rule:nonzero;stroke:none"
           id="path128"
           inkscape:connector-curvature="0" /><path
           d="m 252.084,407.748 c -3.359,1.792 -5.483,2.042 -6.368,2.045 0.19,0.585 0.391,1.198 0.602,1.833 3.713,-0.627 5.67,-1.841 6.301,-2.301 l -0.535,-1.577 z"
           style="fill:#ef2c30;fill-opacity:1;fill-rule:nonzero;stroke:none"
           id="path130"
           inkscape:connector-curvature="0" /><path
           d="m 249.284,399.844 c -3.073,1.639 -5.111,1.989 -6.114,2.038 0.157,0.404 0.533,1.442 0.635,1.787 3.524,-0.64 5.4,-1.8 6.014,-2.247 l -0.535,-1.578 z"
           style="fill:#ef2c30;fill-opacity:1;fill-rule:nonzero;stroke:none"
           id="path132"
           inkscape:connector-curvature="0" /><path
           d="m 241.752,401.684 c -0.646,0.576 -2.324,2.294 -3.292,5.273 l 0.772,0.862 c 0.526,-1 1.667,-3.011 3.101,-4.633 -0.192,-0.51 -0.386,-1.01 -0.581,-1.502"
           style="fill:#ef2c30;fill-opacity:1;fill-rule:nonzero;stroke:none"
           id="path134"
           inkscape:connector-curvature="0" /><path
           d="m 244.17,409.072 c -0.702,0.647 -2.273,2.34 -3.197,5.187 l 0.772,0.862 c 0.506,-0.963 1.583,-2.864 2.942,-4.452 -0.182,-0.556 -0.354,-1.089 -0.517,-1.597"
           style="fill:#ef2c30;fill-opacity:1;fill-rule:nonzero;stroke:none"
           id="path136"
           inkscape:connector-curvature="0" /><path
           d="m 245.548,393.015 c -2.602,1.487 -4.386,1.934 -5.296,2.063 0.233,0.491 0.467,0.996 0.7,1.512 3.471,-1.072 4.567,-1.904 4.861,-2.186 l -0.265,-1.389 z"
           style="fill:#ef2c30;fill-opacity:1;fill-rule:nonzero;stroke:none"
           id="path138"
           inkscape:connector-curvature="0" /><path
           d="m 238.945,395.252 c -0.575,0.306 -1.912,1.408 -3.619,5.309 l 0.874,0.899 c 0.446,-1.271 1.499,-3.838 3.142,-5.373 -0.133,-0.282 -0.265,-0.561 -0.397,-0.835"
           style="fill:#ef2c30;fill-opacity:1;fill-rule:nonzero;stroke:none"
           id="path140"
           inkscape:connector-curvature="0" /><path
           d="m 242.347,385.268 c -0.833,0.293 -3.197,1.28 -5.351,3.605 0.255,0.439 0.513,0.893 0.774,1.362 0.789,-0.776 2.76,-2.565 5.329,-3.851 l -0.752,-1.116 z"
           style="fill:#ef2c30;fill-opacity:1;fill-rule:nonzero;stroke:none"
           id="path142"
           inkscape:connector-curvature="0" /><path
           d="m 233.691,395.096 c 0.808,-2.866 2.088,-4.036 2.836,-4.493 -0.193,-0.343 -0.384,-0.678 -0.574,-1.004 -2.553,1.84 -3.416,4.127 -3.664,5.013 l 1.402,0.484 z"
           style="fill:#ef2c30;fill-opacity:1;fill-rule:nonzero;stroke:none"
           id="path144"
           inkscape:connector-curvature="0" /><path
           d="m 239.978,380.59 c -5.325,1.848 -5.849,3.782 -5.849,3.782 0.18,0.256 0.362,0.521 0.546,0.795 2.274,-2.645 4.641,-3.264 5.799,-3.402 l -0.496,-1.175 z"
           style="fill:#ef2c30;fill-opacity:1;fill-rule:nonzero;stroke:none"
           id="path146"
           inkscape:connector-curvature="0" /><path
           d="m 231.141,390.714 c 0.151,-0.865 0.706,-2.466 2.614,-4.636 -0.177,-0.265 -0.352,-0.521 -0.524,-0.769 -0.834,0.632 -2.636,2.309 -2.899,5.084 l 0.809,0.321 z"
           style="fill:#ef2c30;fill-opacity:1;fill-rule:nonzero;stroke:none"
           id="path148"
           inkscape:connector-curvature="0" /><path
           d="m 237.601,375.978 c -0.781,0.177 -3.492,1.016 -6.546,4.426 0.269,0.309 0.556,0.649 0.862,1.024 1.001,-1.248 3.468,-3.932 6.286,-4.127 -0.137,-0.44 -0.345,-0.977 -0.602,-1.323"
           style="fill:#ef2c30;fill-opacity:1;fill-rule:nonzero;stroke:none"
           id="path150"
           inkscape:connector-curvature="0" /><path
           d="m 234.652,372.766 c -0.596,0.215 -1.91,0.75 -3.072,1.624 -0.366,0.878 -0.713,1.763 -1.045,2.654 1.121,-0.977 2.694,-2.184 4.569,-3.209 -0.086,-0.28 -0.235,-0.694 -0.452,-1.069"
           style="fill:#ef2c30;fill-opacity:1;fill-rule:nonzero;stroke:none"
           id="path152"
           inkscape:connector-curvature="0" /><path
           d="m 229.089,381.3 c 0.187,-0.283 0.354,-0.506 0.479,-0.661 -0.068,-0.076 -0.135,-0.149 -0.2,-0.219 -0.094,0.293 -0.189,0.586 -0.279,0.88"
           style="fill:#ef2c30;fill-opacity:1;fill-rule:nonzero;stroke:none"
           id="path154"
           inkscape:connector-curvature="0" /><path
           d="m 228.612,386.971 c 0.271,-1.002 0.998,-3.301 2.277,-4.791 -0.242,-0.297 -0.471,-0.571 -0.688,-0.824 -0.56,0.737 -1.783,2.66 -1.936,5.506 l 0.347,0.109 z"
           style="fill:#ef2c30;fill-opacity:1;fill-rule:nonzero;stroke:none"
           id="path156"
           inkscape:connector-curvature="0" /><path
           d="m 247.174,350.672 c -6.327,6.57 -11.341,14.064 -14.926,22.164 1.268,-0.714 2.388,-1.058 2.462,-1.08 0.189,-0.056 0.393,0.012 0.511,0.17 0.62,0.834 0.879,1.993 0.89,2.042 0.045,0.207 -0.053,0.418 -0.24,0.516 -2.866,1.501 -5.088,3.55 -6.026,4.488 -0.01,0.028 0.356,0.485 0.578,0.726 3.838,-4.251 7.159,-4.681 7.302,-4.698 0.139,-0.016 0.278,0.031 0.379,0.128 0.756,0.727 1.13,2.355 1.17,2.538 0.032,0.145 -0.006,0.295 -0.103,0.407 -0.097,0.112 -0.24,0.172 -0.388,0.161 -2.744,-0.197 -5.39,2.835 -6.265,3.949 0.337,0.432 0.693,0.905 1.062,1.415 0.497,-0.907 1.995,-2.545 6.513,-4.038 0.232,-0.077 0.484,0.038 0.579,0.263 l 0.925,2.193 c 0.063,0.15 0.044,0.321 -0.049,0.453 -0.094,0.133 -0.25,0.207 -0.412,0.197 -0.125,-0.007 -3.088,-0.118 -5.918,3.32 0.416,0.639 0.842,1.316 1.279,2.042 2.79,-2.907 5.787,-3.732 5.921,-3.767 0.193,-0.052 0.397,0.025 0.509,0.191 l 1.25,1.855 c 0.077,0.114 0.1,0.256 0.063,0.388 -0.037,0.133 -0.13,0.243 -0.255,0.3 -2.9,1.334 -5.151,3.496 -5.745,4.097 0.521,0.966 1.05,1.999 1.582,3.09 0.632,-0.05 2.611,-0.368 5.821,-2.307 0.131,-0.08 0.293,-0.09 0.433,-0.027 0.14,0.063 0.241,0.19 0.269,0.34 l 0.429,2.258 c 0.019,0.098 0.006,0.199 -0.037,0.289 -0.1,0.209 -0.821,1.289 -5.399,2.717 0.49,1.109 0.978,2.277 1.465,3.498 0.645,0.015 2.82,-0.121 6.519,-2.19 0.121,-0.068 0.266,-0.078 0.397,-0.029 0.13,0.051 0.231,0.156 0.275,0.288 l 0.819,2.416 c 0.06,0.175 0.01,0.369 -0.126,0.494 -0.081,0.075 -1.988,1.785 -6.61,2.643 0.304,1.008 0.758,2.482 1.333,4.271 0.151,0.019 2.392,0.237 6.712,-2.179 0.122,-0.068 0.267,-0.079 0.397,-0.029 0.13,0.051 0.231,0.156 0.275,0.287 l 0.82,2.416 c 0.059,0.176 0.01,0.37 -0.126,0.495 -0.083,0.077 -2.058,1.85 -6.87,2.691 0.377,1.123 0.782,2.307 1.211,3.529 0.702,0.006 2.864,-0.174 6.472,-2.192 0.122,-0.068 0.267,-0.078 0.397,-0.028 0.13,0.05 0.231,0.155 0.276,0.287 l 0.819,2.416 c 0.059,0.175 0.01,0.369 -0.126,0.494 -0.081,0.075 -1.969,1.767 -6.539,2.63 0.377,1.022 1.172,3.064 1.17,3.063 0.021,0.006 2.228,0.547 6.916,-1.467 0.128,-0.055 0.274,-0.05 0.398,0.013 0.124,0.063 0.213,0.178 0.244,0.314 l 0.563,2.488 c 0.041,0.18 -0.028,0.368 -0.176,0.479 -0.086,0.064 -2.04,1.487 -6.448,1.91 0.566,1.35 1.748,3.976 1.77,4.029 0.853,0.066 3.327,0.062 7.108,-1.562 0.128,-0.055 0.274,-0.051 0.398,0.012 0.124,0.064 0.213,0.179 0.244,0.315 l 0.563,2.487 c 0.041,0.181 -0.028,0.369 -0.176,0.48 -0.087,0.064 -2.067,1.503 -6.532,1.916 0.43,0.926 0.941,1.998 1.532,3.184 0.686,0.073 3.227,0.178 7.249,-1.55 0.128,-0.054 0.274,-0.049 0.398,0.014 0.124,0.063 0.213,0.178 0.244,0.314 l 0.563,2.487 c 0.041,0.181 -0.028,0.369 -0.177,0.479 -0.085,0.065 -2.022,1.474 -6.388,1.905 0.622,1.158 1.299,2.377 2.029,3.639 0.843,0.008 3.319,-0.162 6.995,-2.057 0.124,-0.063 0.269,-0.069 0.398,-0.014 0.128,0.054 0.225,0.162 0.266,0.296 l 0.736,2.442 c 0.053,0.177 -0.003,0.37 -0.143,0.491 -0.08,0.068 -1.894,1.59 -6.159,2.331 0.791,1.272 1.629,2.567 2.514,3.872 0.5,0.031 3.107,0.072 7.223,-2.049 0.123,-0.064 0.269,-0.069 0.398,-0.015 0.128,0.054 0.225,0.163 0.265,0.296 l 0.736,2.443 c 0.054,0.177 -10e-4,0.369 -0.142,0.49 -0.08,0.068 -1.857,1.556 -6.023,2.306 0.898,1.215 2.596,3.413 2.596,3.413 -10e-4,0 2.989,0.214 7.472,-2.302 0.121,-0.068 0.267,-0.079 0.396,-0.029 0.13,0.05 0.231,0.155 0.276,0.287 l 0.823,2.414 c 0.06,0.175 0.011,0.369 -0.125,0.495 -0.077,0.071 -1.792,1.614 -5.904,2.512 0.993,1.098 2.02,2.17 3.08,3.205 0,0 2.733,-0.451 6.655,-3.775 0.106,-0.09 0.247,-0.128 0.384,-0.104 0.137,0.024 0.257,0.108 0.326,0.229 l 1.267,2.213 c 0.092,0.161 0.081,0.36 -0.029,0.51 -0.063,0.086 -1.506,2.008 -5.57,3.701 1.031,0.881 2.089,1.72 3.173,2.512 0.602,-0.124 3.345,-0.868 4.905,-4.284 0.051,-0.114 0.147,-0.202 0.264,-0.245 0.117,-0.043 0.247,-0.038 0.36,0.015 l 2.62,1.222 c 0.118,0.055 0.208,0.157 0.248,0.282 0.04,0.124 0.026,0.26 -0.038,0.374 -0.062,0.109 -1.473,2.541 -5.26,4.717 0.43,0.263 2.083,1.201 3.487,1.763 0,0 3.38,-0.69 5.787,-5.306 0.059,-0.114 0.162,-0.198 0.285,-0.234 0.124,-0.035 0.256,-0.019 0.367,0.046 l 2.29,1.338 c 0.175,0.102 0.264,0.304 0.223,0.502 -0.026,0.117 -0.624,2.7 -5.061,4.967 0.918,0.261 1.933,0.517 3.042,0.753 0.719,-0.367 3.597,-2 5.694,-5.586 0.103,-0.176 0.308,-0.266 0.507,-0.221 l 2.053,0.459 c 0.13,0.029 0.241,0.111 0.306,0.226 0.065,0.115 0.079,0.253 0.037,0.379 -0.05,0.151 -1.16,3.379 -4.372,5.457 1.69,0.216 3.524,0.369 5.498,0.426 l -0.035,-0.057 c -0.001,0 0,0 -0.001,0.001 0.127,-0.077 3.107,-1.944 3.122,-6.68 0,-0.132 0.056,-0.257 0.153,-0.346 0.098,-0.088 0.227,-0.131 0.359,-0.12 l 1.992,0.184 c 0.17,0.016 0.317,0.122 0.386,0.278 0.062,0.14 1.369,3.246 -1.977,6.721 1.201,-0.045 2.442,-0.128 3.724,-0.252 0.544,-0.666 2.589,-3.355 2.714,-6.345 0.011,-0.253 0.22,-0.451 0.472,-0.449 l 2.045,0.017 c 0.211,0.002 0.394,0.143 0.449,0.346 0.029,0.109 0.623,2.494 -2.191,5.998 1.094,-0.165 2.212,-0.362 3.356,-0.593 0.821,-0.737 2.678,-2.706 3.103,-5.776 0.026,-0.179 0.152,-0.329 0.326,-0.383 l 1.703,-0.529 c 0.24,-0.075 0.497,0.054 0.581,0.291 0.044,0.125 0.919,2.691 -0.592,5.166 0.443,-0.124 2.056,-0.63 2.086,-0.666 0.946,-1.114 2.708,-3.189 3.195,-5.769 0.035,-0.183 0.174,-0.328 0.354,-0.37 l 2.054,-0.48 c 0.249,-0.059 0.498,0.093 0.561,0.34 0.024,0.094 0.471,1.978 -0.823,4.351 0.829,-0.359 1.735,-0.773 2.714,-1.245 0.454,-0.793 2.224,-3.973 2.74,-6.149 0.047,-0.195 0.212,-0.339 0.412,-0.358 l 1.912,-0.183 c 0.196,-0.019 0.383,0.087 0.467,0.264 0.031,0.063 0.603,1.342 -0.412,3.747 0.972,-0.548 1.993,-1.147 3.05,-1.79 l -0.025,-0.016 0,10e-4 c 0.012,-0.018 1.19,-1.829 0.954,-3.755 -0.03,-0.25 0.142,-0.48 0.39,-0.52 l 1.543,-0.25 c 0.203,-0.033 0.403,0.07 0.495,0.254 0.023,0.048 0.428,0.89 0.303,1.966 1.443,-0.954 2.948,-1.992 4.508,-3.12 -0.207,-0.432 -0.73,-1.649 -0.532,-2.588 0.033,-0.152 0.138,-0.277 0.28,-0.337 l 1.682,-0.694 c 0.224,-0.093 0.482,10e-4 0.594,0.216 0.003,0.006 0.382,0.702 1.022,1.134 0.828,-0.634 3.214,-2.96 3.434,-3.195 -0.513,-0.24 -1.311,-0.705 -1.676,-1.403 -0.081,-0.155 -0.07,-0.342 0.031,-0.486 l 1.148,-1.642 c 0.129,-0.186 0.373,-0.252 0.578,-0.158 0.015,0.007 1.351,0.615 2.272,1.048 1.078,-1.267 2.113,-2.561 3.1,-3.884 -0.502,-0.205 -1.393,-0.601 -1.778,-0.971 -0.143,-0.138 -0.184,-0.351 -0.101,-0.532 l 0.778,-1.709 c 0.096,-0.212 0.333,-0.32 0.557,-0.256 0.074,0.021 1.721,0.496 2.448,0.8 0.715,-1.049 1.404,-2.114 2.063,-3.193 -0.751,-0.081 -2.127,-0.271 -2.737,-0.622 -0.17,-0.097 -0.261,-0.29 -0.229,-0.482 l 0.331,-1.996 c 0.041,-0.246 0.266,-0.417 0.514,-0.389 0.016,0.002 2.146,0.167 4.432,-0.503 0,0 1.066,-2.079 1.789,-4.344 -0.674,0.34 -1.772,0.585 -3.368,0.025 -0.21,-0.073 -0.338,-0.284 -0.309,-0.504 l 0.259,-1.921 c 0.03,-0.225 0.217,-0.396 0.444,-0.406 0.028,-0.001 2.679,-0.135 4.305,-1.531 0.227,-0.827 0.455,-1.713 0.679,-2.649 -1.11,0.258 -2.99,0.553 -4.164,-0.034 -0.21,-0.105 -0.309,-0.348 -0.235,-0.57 l 0.629,-1.853 c 0.072,-0.213 0.284,-0.344 0.505,-0.315 0.022,0.003 2.168,0.257 4.059,-0.937 0.111,-0.584 0.217,-1.18 0.318,-1.79 -1.002,0.148 -2.742,0.098 -4.791,-1.28 -0.208,-0.14 -0.269,-0.419 -0.139,-0.633 l 1.001,-1.64 c 0.12,-0.195 0.364,-0.276 0.577,-0.189 0.073,0.029 1.781,0.682 3.905,-0.245 0.128,-1.145 0.233,-2.321 0.308,-3.524 -1.248,0.279 -3.509,0.585 -4.905,-0.422 -0.149,-0.107 -0.221,-0.291 -0.186,-0.471 l 0.337,-1.701 c 0.046,-0.234 0.26,-0.395 0.497,-0.376 0.027,0.002 2.435,0.186 4.381,-0.298 0.02,-1.434 -0.006,-2.896 -0.089,-4.379 -0.899,0.557 -2.644,1.095 -6.037,1.077 -0.127,0 -0.249,-0.053 -0.337,-0.144 -0.087,-0.092 -0.134,-0.215 -0.13,-0.342 l 0.098,-2.654 c 0.009,-0.241 0.199,-0.436 0.44,-0.45 0.033,-0.002 3.106,-0.205 5.617,-1.399 -0.165,-1.327 -0.377,-2.664 -0.646,-4.006 -1.114,0.773 -3.378,2.085 -6.356,2.461 -0.234,0.029 -0.453,-0.119 -0.513,-0.347 l -0.555,-2.126 c -0.061,-0.233 0.065,-0.475 0.292,-0.558 0.036,-0.014 3.641,-1.356 6.151,-3.474 -0.354,-1.228 -0.759,-2.455 -1.221,-3.677 -1.217,0.416 -4.365,1.708 -5.978,4.399 -0.069,0.116 -0.184,0.196 -0.317,0.22 -0.132,0.025 -0.268,-0.008 -0.374,-0.091 l -2.392,-1.871 c -0.202,-0.157 -0.24,-0.447 -0.087,-0.651 0.145,-0.192 3.437,-4.506 7.829,-5.133 -0.643,-1.38 -1.359,-2.751 -2.166,-4.102 -0.997,0.21 -3.705,1.024 -5.596,3.894 -0.07,0.106 -0.18,0.18 -0.304,0.203 -0.125,0.023 -0.254,-0.004 -0.357,-0.078 l -2.24,-1.578 c -0.207,-0.146 -0.261,-0.429 -0.122,-0.64 0.122,-0.186 2.833,-4.266 6.373,-5.194 -0.326,-0.448 -1.268,-1.736 -1.705,-2.306 -0.88,0.135 -3.261,0.77 -5.689,3.74 -0.148,0.182 -0.408,0.225 -0.609,0.102 l -2.086,-1.287 c -0.216,-0.133 -0.287,-0.413 -0.161,-0.632 0.095,-0.163 2.199,-3.763 5.83,-5.044 -0.86,-0.895 -1.902,-1.911 -3.144,-3.017 -0.97,0.544 -3.304,2.11 -5.093,5.411 -0.069,0.125 -0.19,0.213 -0.331,0.238 -0.141,0.025 -0.285,-0.016 -0.392,-0.111 l -1.873,-1.659 c -0.152,-0.135 -0.201,-0.354 -0.118,-0.541 0.073,-0.164 1.712,-3.803 4.994,-5.705 -0.801,-0.64 -1.662,-1.298 -2.584,-1.972 -1.036,0.394 -4.139,1.781 -5.986,4.875 -0.075,0.125 -0.203,0.208 -0.348,0.225 -0.145,0.017 -0.289,-0.035 -0.391,-0.139 l -2.178,-2.243 c -0.149,-0.153 -0.176,-0.386 -0.065,-0.569 0.093,-0.154 2.112,-3.431 5.357,-4.645 -1.012,-0.662 -2.081,-1.333 -3.21,-2.008 -1.3,0.607 -4.778,2.392 -6.257,4.733 -0.074,0.117 -0.194,0.195 -0.331,0.214 -0.136,0.019 -0.274,-0.023 -0.377,-0.114 l -1.948,-1.731 c -0.178,-0.159 -0.209,-0.427 -0.071,-0.621 0.105,-0.15 2.361,-3.291 5.329,-4.563 -0.776,-0.423 -1.577,-0.845 -2.402,-1.266 l 0.001,0.037 10e-4,0 c -0.047,0.002 -4.723,0.214 -7.131,3.977 -0.134,0.21 -0.408,0.278 -0.625,0.156 l -2.532,-1.426 c -0.12,-0.068 -0.204,-0.184 -0.23,-0.319 -0.026,-0.135 0.008,-0.275 0.094,-0.382 0.107,-0.133 2.403,-2.957 5.968,-4.201 -0.961,-0.442 -1.949,-0.881 -2.967,-1.316 -0.999,0.225 -5.515,1.444 -7.227,5.355 -0.057,0.129 -0.167,0.225 -0.303,0.264 -0.135,0.037 -0.28,0.013 -0.396,-0.068 l -2.762,-1.937 c -0.104,-0.074 -0.174,-0.186 -0.193,-0.311 -0.02,-0.126 0.012,-0.254 0.089,-0.356 0.117,-0.155 2.595,-3.391 6.068,-4.839 -1.035,-0.418 -2.359,-0.971 -3.923,-1.666 -1.097,0.312 -4.669,1.539 -6.182,4.652 -0.055,0.113 -0.153,0.199 -0.272,0.239 -0.119,0.04 -0.248,0.031 -0.36,-0.025 l -2.826,-1.42 c -0.128,-0.065 -0.22,-0.185 -0.249,-0.325 -0.029,-0.14 0.008,-0.286 0.101,-0.396 0.112,-0.134 2.517,-2.953 5.772,-4.579 -0.649,-0.311 -1.321,-0.639 -2.015,-0.983 -0.008,0.004 -0.011,0.006 -0.011,0.006 -0.037,0.004 -3.837,0.421 -7.329,4.617 -0.14,0.168 -0.377,0.218 -0.572,0.119 l -2.529,-1.279 c -0.122,-0.061 -0.21,-0.172 -0.243,-0.304 -0.033,-0.133 -0.007,-0.272 0.072,-0.384 0.091,-0.131 2.154,-2.995 6.437,-4.923 -0.703,-0.374 -1.423,-0.765 -2.154,-1.168 -0.803,0.149 -4.524,0.995 -7.273,4.23 -0.152,0.179 -0.414,0.218 -0.612,0.089 l -2.759,-1.789 c -0.119,-0.077 -0.196,-0.204 -0.211,-0.345 -0.015,-0.141 0.035,-0.281 0.135,-0.38 0.138,-0.139 3.1,-3.059 6.417,-4.262 -0.672,-0.397 -1.351,-0.805 -2.037,-1.224 -1.096,-0.16 -4.573,-0.228 -8.056,4.342 -0.084,0.11 -0.213,0.178 -0.352,0.184 -0.139,0.006 -0.274,-0.05 -0.367,-0.153 l -2.107,-2.318 c -0.147,-0.162 -0.162,-0.404 -0.037,-0.584 0.091,-0.13 2.138,-2.972 6.964,-3.965 -1.172,-0.764 -2.358,-1.557 -3.552,-2.382 -1.087,0.011 -4.279,0.439 -7.483,4.704 -0.152,0.203 -0.437,0.247 -0.645,0.102 l -2.24,-1.579 c -0.103,-0.073 -0.173,-0.185 -0.192,-0.311 -0.02,-0.125 0.012,-0.253 0.088,-0.354 0.103,-0.137 2.444,-3.188 7.131,-4.938 -0.498,-0.364 -0.995,-0.733 -1.493,-1.107 -1.548,0.355 -6.792,1.738 -9.369,4.658 -0.102,0.115 -0.253,0.173 -0.405,0.155 -0.153,-0.017 -0.286,-0.108 -0.359,-0.243 l -1.297,-2.407 c -0.109,-0.201 -0.057,-0.451 0.124,-0.592 0.192,-0.15 4.229,-3.267 8.079,-4.067 -0.343,-0.273 -0.686,-0.549 -1.029,-0.827 -0.342,0.085 -6.542,1.646 -8.896,3.951 -0.105,0.102 -0.253,0.15 -0.398,0.128 -0.146,-0.022 -0.272,-0.111 -0.342,-0.24 l -1.144,-2.115 c -0.121,-0.222 -0.044,-0.499 0.173,-0.627 0.211,-0.125 4.686,-2.745 7.79,-3.45 -0.333,-0.286 -0.665,-0.574 -0.997,-0.865 -14.321,3.11 -27.902,10.342 -38.811,21.667"
           style="fill:#ffffff;fill-opacity:1;fill-rule:nonzero;stroke:none"
           id="path158"
           inkscape:connector-curvature="0" /><path
           d="m 373.949,385.899 c -0.578,0.745 -1.256,1.732 -1.467,2.336 0.249,0.53 0.487,1.062 0.712,1.596 0.312,-0.75 0.88,-1.783 1.831,-2.537 l -1.076,-1.395 z"
           style="fill:#ef2c30;fill-opacity:1;fill-rule:nonzero;stroke:none"
           id="path160"
           inkscape:connector-curvature="0" /><path
           d="m 366.239,395.502 c 1.819,-2.646 4.855,-3.91 6.15,-4.35 -0.182,-0.453 -0.37,-0.905 -0.569,-1.357 -3.434,0.35 -6.299,3.394 -7.193,4.446 l 1.612,1.261 z"
           style="fill:#ef2c30;fill-opacity:1;fill-rule:nonzero;stroke:none"
           id="path162"
           inkscape:connector-curvature="0" /><path
           d="m 370.641,379.152 c -0.476,0.473 -1.361,1.511 -1.642,2.928 0.232,0.345 0.459,0.691 0.68,1.039 0.494,-0.863 1.279,-2.092 2.083,-2.797 l -1.121,-1.17 z"
           style="fill:#ef2c30;fill-opacity:1;fill-rule:nonzero;stroke:none"
           id="path164"
           inkscape:connector-curvature="0" /><path
           d="m 367.592,382.232 c -2.759,0.516 -5.146,3.465 -5.916,4.512 l 1.476,1.041 c 1.885,-2.598 4.321,-3.52 5.574,-3.831 -0.362,-0.578 -0.739,-1.152 -1.134,-1.722"
           style="fill:#ef2c30;fill-opacity:1;fill-rule:nonzero;stroke:none"
           id="path166"
           inkscape:connector-curvature="0" /><path
           d="m 366.122,373.042 c -0.439,0.479 -1.177,1.48 -1.618,3.12 0.396,0.442 0.742,0.847 1.038,1.208 0.284,-0.834 0.791,-1.978 1.681,-2.695 l -1.101,-1.633 z"
           style="fill:#ef2c30;fill-opacity:1;fill-rule:nonzero;stroke:none"
           id="path168"
           inkscape:connector-curvature="0" /><path
           d="m 359.148,381.932 c 2.17,-2.521 4.282,-3.373 5.488,-3.661 -0.363,-0.439 -0.807,-0.953 -1.337,-1.529 -2.859,0.827 -4.826,3.388 -5.488,4.365 l 1.337,0.825 z"
           style="fill:#ef2c30;fill-opacity:1;fill-rule:nonzero;stroke:none"
           id="path170"
           inkscape:connector-curvature="0" /><path
           d="m 360.784,367.737 c -0.367,0.527 -1.098,1.658 -1.756,3.153 0.511,0.432 0.993,0.853 1.449,1.262 0.332,-0.872 0.986,-2.458 1.731,-3.597 l -1.424,-0.818 z"
           style="fill:#ef2c30;fill-opacity:1;fill-rule:nonzero;stroke:none"
           id="path172"
           inkscape:connector-curvature="0" /><path
           d="m 357.413,371.231 c -2.684,1.403 -4.299,4.218 -4.775,5.144 l 1.177,1.043 c 1.705,-2.903 3.748,-4.434 4.876,-5.11 -0.407,-0.352 -0.831,-0.71 -1.278,-1.077"
           style="fill:#ef2c30;fill-opacity:1;fill-rule:nonzero;stroke:none"
           id="path174"
           inkscape:connector-curvature="0" /><path
           d="m 353.549,361.767 c -0.385,0.657 -1.129,2.216 -1.005,4.225 0.466,0.317 0.919,0.63 1.358,0.941 0.021,-1.229 0.181,-3.088 0.976,-4.42 l -1.329,-0.746 z"
           style="fill:#ef2c30;fill-opacity:1;fill-rule:nonzero;stroke:none"
           id="path176"
           inkscape:connector-curvature="0" /><path
           d="m 347.578,372.506 c 1.739,-2.586 4.206,-3.943 5.564,-4.532 -0.548,-0.39 -1.118,-0.783 -1.706,-1.18 -2.763,0.697 -4.756,3.286 -5.362,4.164 l 1.504,1.548 z"
           style="fill:#ef2c30;fill-opacity:1;fill-rule:nonzero;stroke:none"
           id="path178"
           inkscape:connector-curvature="0" /><path
           d="m 346.836,357.451 c -0.393,0.63 -1.185,2.205 -1.004,4.393 0.617,0.348 1.218,0.695 1.803,1.041 -0.018,-1.158 0.051,-3.195 0.664,-4.688 l -1.463,-0.746 z"
           style="fill:#ef2c30;fill-opacity:1;fill-rule:nonzero;stroke:none"
           id="path180"
           inkscape:connector-curvature="0" /><path
           d="m 340.484,367.9 c 1.524,-2.048 4.237,-3.597 5.764,-4.356 -0.517,-0.3 -1.046,-0.602 -1.586,-0.904 -2.507,0.719 -4.688,3.256 -5.406,4.168 l 1.228,1.092 z"
           style="fill:#ef2c30;fill-opacity:1;fill-rule:nonzero;stroke:none"
           id="path182"
           inkscape:connector-curvature="0" /><path
           d="m 341.605,353.851 c -0.535,0.758 -1.858,2.871 -1.644,4.913 0.541,0.264 1.069,0.528 1.59,0.792 -0.1,-1.123 0.011,-3.021 1.306,-5.108 l -1.252,-0.597 z"
           style="fill:#ef2c30;fill-opacity:1;fill-rule:nonzero;stroke:none"
           id="path184"
           inkscape:connector-curvature="0" /><path
           d="m 337.996,359.212 c -3.026,0.715 -5.3,2.862 -6.151,3.771 l 1.649,0.929 c 1.845,-2.592 4.597,-3.523 6.248,-3.856 -0.571,-0.282 -1.153,-0.563 -1.746,-0.844"
           style="fill:#ef2c30;fill-opacity:1;fill-rule:nonzero;stroke:none"
           id="path186"
           inkscape:connector-curvature="0" /><path
           d="m 333.996,351.149 c -1.681,1.653 -1.693,3.465 -1.602,4.229 0.454,0.186 0.901,0.373 1.345,0.56 -0.014,-1.499 0.843,-3.235 1.264,-3.996 l -1.007,-0.793 z"
           style="fill:#ef2c30;fill-opacity:1;fill-rule:nonzero;stroke:none"
           id="path188"
           inkscape:connector-curvature="0" /><path
           d="m 330.345,355.93 c -3.02,0.862 -5.497,3.514 -6.338,4.503 l 1.897,1.331 c 1.585,-3.056 4.634,-4.464 6.442,-5.055 -0.266,-0.11 -1.247,-0.488 -2.001,-0.779"
           style="fill:#ef2c30;fill-opacity:1;fill-rule:nonzero;stroke:none"
           id="path190"
           inkscape:connector-curvature="0" /><path
           d="m 326.78,347.403 c -0.547,0.602 -1.946,2.391 -1.956,4.846 0.725,0.327 1.405,0.626 2.035,0.898 -0.195,-1.218 -0.23,-3.294 1.16,-5.153 l -1.239,-0.591 z"
           style="fill:#ef2c30;fill-opacity:1;fill-rule:nonzero;stroke:none"
           id="path192"
           inkscape:connector-curvature="0" /><path
           d="m 322.185,352.409 c -2.657,1.125 -4.882,3.287 -5.757,4.215 l 1.864,0.937 c 1.415,-2.512 3.948,-3.802 5.532,-4.394 -0.525,-0.239 -1.072,-0.492 -1.639,-0.758"
           style="fill:#ef2c30;fill-opacity:1;fill-rule:nonzero;stroke:none"
           id="path194"
           inkscape:connector-curvature="0" /><path
           d="m 318.763,344.483 c -0.359,0.468 -1.093,1.707 -1.34,4.188 0.46,0.237 0.913,0.469 1.358,0.692 -0.084,-0.858 0.145,-2.19 1.374,-4.099 l -1.392,-0.781 z"
           style="fill:#ef2c30;fill-opacity:1;fill-rule:nonzero;stroke:none"
           id="path196"
           inkscape:connector-curvature="0" /><path
           d="m 315.962,349.319 c -3.507,1.408 -5.622,3.565 -6.399,4.471 l 1.685,0.852 c 2.43,-2.799 4.94,-3.931 6.478,-4.413 -0.576,-0.292 -1.164,-0.595 -1.764,-0.91"
           style="fill:#ef2c30;fill-opacity:1;fill-rule:nonzero;stroke:none"
           id="path198"
           inkscape:connector-curvature="0" /><path
           d="m 312.702,341.082 c -0.443,0.714 -1.573,2.674 -1.639,4.133 0.61,0.349 1.213,0.689 1.807,1.018 -0.193,-1.075 -0.151,-2.812 1.256,-4.792 l -1.424,-0.359 z"
           style="fill:#ef2c30;fill-opacity:1;fill-rule:nonzero;stroke:none"
           id="path200"
           inkscape:connector-curvature="0" /><path
           d="m 309.526,345.77 c -2.7,0.704 -5.403,2.962 -6.421,3.885 l 1.917,1.244 c 2.247,-2.48 4.948,-3.552 6.497,-3.99 -0.655,-0.369 -1.32,-0.748 -1.993,-1.139"
           style="fill:#ef2c30;fill-opacity:1;fill-rule:nonzero;stroke:none"
           id="path202"
           inkscape:connector-curvature="0" /><path
           d="m 305.981,337.346 c -0.449,0.564 -1.447,2.017 -1.541,3.868 0.54,0.344 1.076,0.681 1.609,1.011 0.07,-1.085 0.333,-2.875 1.251,-4.228 l -1.319,-0.651 z"
           style="fill:#ef2c30;fill-opacity:1;fill-rule:nonzero;stroke:none"
           id="path204"
           inkscape:connector-curvature="0" /><path
           d="m 297.943,347.239 c 2.584,-3.179 5.18,-4.086 6.927,-4.277 -0.419,-0.262 -0.841,-0.529 -1.265,-0.8 -4.207,0.58 -6.439,2.695 -7.125,3.467 l 1.463,1.61 z"
           style="fill:#ef2c30;fill-opacity:1;fill-rule:nonzero;stroke:none"
           id="path206"
           inkscape:connector-curvature="0" /><path
           d="m 299.28,332.759 c -0.436,0.58 -1.398,2.047 -1.621,3.879 0.448,0.32 0.895,0.635 1.341,0.946 -0.082,-1.024 0.109,-2.547 1.474,-4.256 l -1.194,-0.569 z"
           style="fill:#ef2c30;fill-opacity:1;fill-rule:nonzero;stroke:none"
           id="path208"
           inkscape:connector-curvature="0" /><path
           d="m 290.936,342.811 c 2.573,-3.259 5.16,-4.29 6.787,-4.596 -0.417,-0.293 -0.833,-0.59 -1.25,-0.891 -3.845,1.282 -6.191,3.571 -6.992,4.461 l 1.455,1.026 z"
           style="fill:#ef2c30;fill-opacity:1;fill-rule:nonzero;stroke:none"
           id="path210"
           inkscape:connector-curvature="0" /><path
           d="m 294.044,330.374 c -0.33,0.426 -1.032,1.416 -1.385,2.528 0.378,0.296 0.757,0.589 1.135,0.878 0.129,-0.761 0.468,-1.933 1.335,-3.118 l -1.085,-0.288 z"
           style="fill:#ef2c30;fill-opacity:1;fill-rule:nonzero;stroke:none"
           id="path212"
           inkscape:connector-curvature="0" /><path
           d="m 284.442,339.105 c 2.518,-2.463 6.605,-3.766 8.646,-4.292 -0.42,-0.32 -0.839,-0.644 -1.259,-0.973 -3.251,0.344 -7.08,2.974 -8.187,3.781 l 0.8,1.484 z"
           style="fill:#ef2c30;fill-opacity:1;fill-rule:nonzero;stroke:none"
           id="path214"
           inkscape:connector-curvature="0" /><path
           d="m 280.707,335.097 c 2.248,-1.831 6.385,-3.108 8.207,-3.6 -0.335,-0.277 -0.67,-0.557 -1.004,-0.839 -2.399,0.262 -6.56,2.518 -7.85,3.245 l 0.647,1.194 z"
           style="fill:#ef2c30;fill-opacity:1;fill-rule:nonzero;stroke:none"
           id="path216"
           inkscape:connector-curvature="0" /><path
           d="m 288.209,329.275 c 0.347,0.295 0.695,0.588 1.042,0.878 0.145,-0.576 0.368,-1.274 0.692,-1.903 -0.333,0.055 -0.666,0.116 -0.998,0.175 l 0,0 c -0.274,0.284 -0.548,0.615 -0.736,0.85"
           style="fill:#ef2c30;fill-opacity:1;fill-rule:nonzero;stroke:none"
           id="path218"
           inkscape:connector-curvature="0" /><path
           d="m 355.491,348.641 c -17.741,-17.088 -41.658,-23.896 -64.328,-20.575 -0.571,0.712 -0.929,1.918 -1.105,2.753 0.607,0.498 1.214,0.988 1.821,1.47 0.566,-1.509 1.587,-2.696 1.638,-2.754 0.117,-0.135 0.301,-0.191 0.474,-0.145 l 2.073,0.55 c 0.157,0.042 0.282,0.163 0.329,0.319 0.046,0.156 0.009,0.325 -0.1,0.447 -1.366,1.532 -1.596,3.193 -1.635,3.731 0.717,0.54 1.433,1.068 2.148,1.586 0.452,-2.401 1.92,-4.083 1.988,-4.159 0.139,-0.156 0.364,-0.202 0.552,-0.112 l 2.082,0.992 c 0.134,0.065 0.23,0.188 0.258,0.334 0.028,0.146 -0.013,0.296 -0.114,0.405 -2.127,2.329 -1.652,4.236 -1.502,4.841 1.171,0.803 2.332,1.576 3.481,2.319 0.318,-2.452 1.898,-4.127 1.972,-4.204 0.142,-0.147 0.363,-0.186 0.546,-0.095 l 2.156,1.064 c 0.131,0.065 0.224,0.187 0.253,0.33 0.028,0.144 -0.013,0.292 -0.11,0.402 -1.218,1.374 -1.385,3.756 -1.403,4.65 1.088,0.665 2.16,1.303 3.209,1.913 0.31,-1.996 1.851,-4.309 1.926,-4.42 0.11,-0.164 0.312,-0.241 0.504,-0.193 l 2.442,0.617 c 0.156,0.04 0.281,0.156 0.331,0.31 0.05,0.152 0.018,0.32 -0.085,0.444 -2.302,2.769 -1.444,5.014 -1.264,5.41 0.854,0.465 1.688,0.911 2.501,1.336 0.428,-3.464 1.776,-4.626 1.837,-4.677 0.15,-0.124 0.36,-0.143 0.53,-0.048 l 2.159,1.212 c 0.114,0.065 0.197,0.175 0.227,0.303 0.03,0.129 0.004,0.264 -0.072,0.373 -2.073,2.997 -1.435,4.329 -1.29,4.561 1.425,0.704 2.757,1.336 3.975,1.895 0.188,-3.208 2.366,-5.245 2.466,-5.337 0.141,-0.129 0.346,-0.159 0.518,-0.077 l 2.081,0.992 c 0.135,0.064 0.23,0.187 0.259,0.333 0.029,0.145 -0.013,0.296 -0.113,0.406 -1.873,2.058 -1.419,4.607 -1.199,5.451 1.659,0.699 2.87,1.167 3.524,1.412 -0.032,-1.15 0.259,-3.109 2.227,-4.83 0.17,-0.149 0.422,-0.155 0.598,-0.015 l 1.646,1.295 c 0.186,0.147 0.233,0.41 0.11,0.612 -0.481,0.789 -1.563,2.971 -1.296,4.287 1.49,0.644 2.918,1.293 4.285,1.946 0.005,-2.718 2.001,-5.221 2.093,-5.335 0.137,-0.168 0.371,-0.221 0.566,-0.128 l 2.082,0.993 c 0.124,0.059 0.216,0.17 0.251,0.303 0.035,0.134 0.01,0.276 -0.069,0.388 -1.783,2.551 -1.509,4.825 -1.355,5.557 0.788,0.409 1.556,0.819 2.299,1.228 -0.038,-2.893 1.386,-4.676 1.452,-4.757 0.14,-0.171 0.379,-0.22 0.576,-0.12 l 2.231,1.136 c 0.112,0.058 0.196,0.157 0.234,0.277 0.038,0.12 0.026,0.25 -0.033,0.361 -0.84,1.582 -0.776,4.409 -0.737,5.253 1.055,0.64 2.054,1.274 3.003,1.9 0.057,-2.646 1.364,-4.416 1.426,-4.498 0.141,-0.187 0.398,-0.241 0.603,-0.127 l 2.159,1.213 c 0.12,0.067 0.205,0.184 0.231,0.319 0.026,0.135 -0.009,0.275 -0.095,0.382 -1.074,1.341 -1.092,3.887 -1.076,4.963 1.257,0.916 2.402,1.806 3.438,2.658 0.937,-2.054 1.955,-3.375 2.002,-3.435 0.143,-0.185 0.401,-0.235 0.603,-0.118 l 2.235,1.284 c 0.117,0.067 0.199,0.182 0.226,0.315 0.026,0.132 -0.006,0.27 -0.089,0.377 -0.902,1.172 -1.759,3.394 -2.034,4.144 0.986,0.916 1.831,1.764 2.544,2.523 0.781,-2.364 2.093,-3.368 2.154,-3.413 0.103,-0.076 0.233,-0.108 0.359,-0.086 0.126,0.022 0.239,0.094 0.309,0.2 l 1.668,2.474 c 0.073,0.108 0.097,0.241 0.068,0.368 -0.031,0.127 -0.112,0.236 -0.225,0.301 -1.145,0.653 -1.65,2.367 -1.854,3.059 0.439,0.579 1.64,2.23 2.059,2.818 0.645,-1.817 2.004,-2.897 2.07,-2.949 0.189,-0.148 0.46,-0.129 0.627,0.045 l 1.803,1.882 c 0.1,0.104 0.146,0.247 0.126,0.39 -0.02,0.142 -0.105,0.267 -0.229,0.34 -0.835,0.484 -1.904,2.228 -2.457,3.245 0.622,1.033 1.19,2.078 1.716,3.129 0.58,-1.04 1.494,-2.15 1.635,-2.32 0.091,-0.109 0.227,-0.171 0.368,-0.168 0.143,0.003 0.276,0.07 0.363,0.182 l 1.736,2.251 c 0.081,0.105 0.114,0.239 0.091,0.37 -0.023,0.129 -0.101,0.244 -0.213,0.314 -1.288,0.806 -1.982,2.608 -2.218,3.34 0.565,1.451 1.053,2.909 1.468,4.368 0.936,-1.068 1.432,-2.189 1.438,-2.203 0.08,-0.184 0.269,-0.297 0.469,-0.28 0.201,0.017 0.368,0.16 0.416,0.355 l 0.558,2.274 c 0.013,0.052 0.017,0.107 0.011,0.161 -0.113,1.069 -1.392,3.147 -1.884,3.913 0.235,1.2 0.428,2.396 0.581,3.585 0.584,-0.249 1.509,-0.772 2.135,-1.73 -0.585,-20.153 -8.88,-38.924 -23.424,-52.931"
           style="fill:#ffffff;fill-opacity:1;fill-rule:nonzero;stroke:none"
           id="path220"
           inkscape:connector-curvature="0" /></g></g></g></svg>