<?xml version="1.0" encoding="UTF-8" standalone="no"?>
<!-- Created with Inkscape (http://www.inkscape.org/) -->

<svg
   xmlns:dc="http://purl.org/dc/elements/1.1/"
   xmlns:cc="http://creativecommons.org/ns#"
   xmlns:rdf="http://www.w3.org/1999/02/22-rdf-syntax-ns#"
   xmlns:svg="http://www.w3.org/2000/svg"
   xmlns="http://www.w3.org/2000/svg"
   xmlns:sodipodi="http://sodipodi.sourceforge.net/DTD/sodipodi-0.dtd"
   xmlns:inkscape="http://www.inkscape.org/namespaces/inkscape"
   id="svg2"
   version="1.1"
   inkscape:version="0.48.4 r9939"
   width="673.75"
   height="256.25"
   viewBox = "0 0 673 256"
   xml:space="preserve"
   sodipodi:docname="Baseball (2).pdf"><metadata
     id="metadata8"><rdf:RDF><cc:Work
         rdf:about=""><dc:format>image/svg+xml</dc:format><dc:type
           rdf:resource="http://purl.org/dc/dcmitype/StillImage" /><dc:title></dc:title></cc:Work></rdf:RDF></metadata><defs
     id="defs6"><clipPath
       clipPathUnits="userSpaceOnUse"
       id="clipPath16"><path
         d="M 0,205 539,205 539,0 0,0 0,205 z"
         id="path18" /></clipPath></defs><sodipodi:namedview
     pagecolor="#ffffff"
     bordercolor="#666666"
     borderopacity="1"
     objecttolerance="10"
     gridtolerance="10"
     guidetolerance="10"
     inkscape:pageopacity="0"
     inkscape:pageshadow="2"
     inkscape:window-width="640"
     inkscape:window-height="480"
     id="namedview4"
     showgrid="false"
     inkscape:zoom="0.5135436"
     inkscape:cx="336.875"
     inkscape:cy="128.125"
     inkscape:window-x="0"
     inkscape:window-y="0"
     inkscape:window-maximized="0"
     inkscape:current-layer="g10" /><g
     id="g10"
     inkscape:groupmode="layer"
     inkscape:label="Baseball (2)"
     transform="matrix(1.25,0,0,-1.25,0,256.25)"><path
       d="m 354.86,200.32 c 5.48,2.28 11.4,3.14 17.16,4.43 6.45,-1.34 13.07,-0.22 19.53,-1.39 10.67,-1.73 20.94,-5.21 31.03,-9 6.95,7.07 17.7,5.57 26.33,3.13 22.9,-2.53 43.58,-14.81 60.02,-30.44 13.15,-16.38 24.61,-35.1 27.82,-56.2 1.24,-11.04 1.63,-22.22 0.42,-33.29 -0.67,-4.53 -5.08,-6.98 -6.58,-11.11 -5,-12.1 -12.19,-23.32 -21.22,-32.81 C 498.14,22.2 484.55,12.51 469.01,7.99 461.66,5.61 454.25,3.35 446.84,1.2 441.21,1.14 435.56,0.92 429.93,1.17 c -8.84,1.55 -17.56,3.88 -26.02,6.9 -3.76,1.56 -7.95,0.13 -11.8,1.37 -9.66,2.75 -17.16,10.24 -26.94,12.73 -1.21,3.17 -2.54,6.61 -5.52,8.52 -6.7,4.29 -15.34,3.62 -22.01,7.97 -4.08,2.61 -5.47,7.8 -9.58,10.38 -2.5,2.29 -6,0.75 -8.96,1.54 -7.09,1.89 -13.45,6.9 -21.1,6.34 -1.75,0.05 -3.78,-0.45 -5.13,0.99 -10.05,8.09 -22.08,13.85 -34.77,16.27 -6.78,1.16 -14.23,1.17 -20.18,-2.75 1.72,3.9 3.83,8.2 7.95,10 4.92,1.62 10.31,-0.04 15.21,1.71 3.29,1.17 6.49,2.95 8.77,5.64 -0.31,2.66 -2.92,3.75 -4.81,5.17 11.55,1.69 19.87,-9.06 31.04,-9.24 0.8,1.31 1.23,2.8 1.74,4.23 -1.02,1.04 -2.03,2.08 -3.03,3.13 11.17,-0.24 19.58,-8.92 30.17,-11.17 5.11,-1.26 10.17,0.88 14.33,3.72 -3.12,4.73 -9.57,2.78 -13.78,5.73 -9.04,5.79 -18.3,12.78 -29.49,13.14 -5.88,0.5 -11.12,-2.88 -16.91,-3.09 -8.02,-0.55 -16.16,0.99 -24.1,-0.78 -2.8,-0.61 -5.3,-2.09 -8.01,-2.97 -3.18,-0.28 -6.25,0.78 -9.35,1.32 -2.76,-2.51 -6.11,-6.07 -10.25,-4.46 -6.51,2.9 -10.21,10.7 -17.94,11.12 2.96,0.64 6.51,2.21 9.25,0.14 3.62,-3.06 7.78,-5.62 12.49,-6.57 0.43,1.43 2.05,3.21 0.61,4.59 -5.13,6.48 -13.58,9.87 -21.76,9.49 -5.73,-0.45 -12.37,-0.44 -16.28,-5.36 1.46,7.55 10.37,8.8 14.23,14.62 -2.97,1.45 -6.16,0.51 -9.14,-0.35 -2.86,-0.43 -4.02,-3.37 -6.09,-5 -5.05,-4.64 -12.23,-5.13 -18.69,-5.88 -3.28,-2.06 -7,-3.4 -10.87,-2.06 1.57,2.09 4.44,3.84 4.07,6.79 -1.09,2.92 -4.55,3.87 -7.37,3.61 -3.15,-0.14 -5.71,-2.41 -8.83,-2.69 -2.75,-0.32 -5.48,0.37 -8.16,0.92 3.63,2.8 7.89,4.73 11.17,8 6.77,5.88 11.42,14.02 19.06,18.93 7.39,4.99 17.48,4.41 25.14,0.35 3.15,-1.14 3.32,-7.2 -0.44,-7.28 -8.93,-1.26 -17.97,-0.77 -26.91,0 -5.19,-4.27 -9.97,-9.16 -14.08,-14.5 3.92,-0.19 8.24,0.54 11.78,-1.58 2.55,-1.25 2.07,-4.46 2.75,-6.76 6.75,-0.34 14,1.92 18.14,7.53 0.76,1.74 0.77,3.7 1.17,5.54 13.27,-3.28 27.72,-5.26 40.87,-0.46 4.15,1.39 7.73,3.93 11.16,6.59 2.93,2.63 7.43,-0.87 10.24,1.93 0.66,2.81 -0.73,5.3 -3.06,6.76 10.83,-0.7 18.94,-10.23 30.01,-9.65 -3.76,4.79 -6.88,10.31 -11.93,13.88 -3.48,2.5 -7.96,2.03 -12,2.27 -6.68,0.13 -12.38,-4.09 -18.85,-5.01 -3.13,-0.53 -6.16,0.57 -9.2,1.06 -2.31,0.34 -4.26,-1.21 -6.23,-2.14 2.3,4.02 6.83,5.73 11.29,5.71 2.31,-0.22 3.93,1.52 5.56,2.86 -0.71,1.25 -1.41,2.5 -2.13,3.73 -10.33,0.16 -19.2,-8.27 -29.65,-5.84 -6.22,2.5 -11.74,6.82 -18.52,7.88 6.35,7.01 16.56,4.88 24.59,8.14 2.91,0.99 4.49,3.77 6.68,5.72 2.81,0.99 6.12,0.25 8.68,2.09 -0.76,1.78 -1.34,3.66 -2.36,5.32 -1.32,0.41 -2.68,0.68 -4.07,0.8 8.7,2.67 17.68,-0.05 26.29,-1.67 6.15,-1.15 13.16,-1.3 18.49,2.44 1.66,1.98 1.17,4.84 1.65,7.22 3.43,-1.65 6.56,-3.96 10.17,-5.22 2.72,-0.93 5.99,0.34 7.21,2.98 0.53,4.04 -4.49,6.2 -7.87,6.27 12.46,6.35 24.49,-6.21 37.1,-3.68 9.6,4.52 20.32,5.48 30.32,8.81 3.37,1.18 6.4,3.12 9.72,4.42"
       style="fill:#000000;fill-opacity:1;fill-rule:nonzero;stroke:none"
       id="path22"
       inkscape:connector-curvature="0" /><path
       d="m 421.99,189 c 5.49,0.81 10.26,5.8 16.06,3.44 3.77,1.11 7.19,-1.35 10.91,-1.51 10.32,-1.04 20.15,-4.72 29.35,-9.36 -2.67,-2.98 -5.81,-6.87 -10.31,-6.18 -6.48,1.5 -10.97,7.46 -17.57,8.72 -3.32,0.29 -6.77,-1.49 -9.89,0.34 -9.44,4.1 -20.02,3.55 -29.91,1.75 3.67,1.34 7.55,1.98 11.36,2.8"
       style="fill:#ffffff;fill-opacity:1;fill-rule:nonzero;stroke:none"
       id="path24"
       inkscape:connector-curvature="0" /><path
       d="m 348.53,190.17 c 6.54,0.63 13.36,-0.27 19.21,-3.38 3.1,-1.57 4.64,-4.87 6.48,-7.64 -8.63,-2.93 -17.03,1.45 -25.3,3.35 -8.75,1.14 -18.33,-0.46 -25.32,-6.14 -2.52,-2.02 -4.69,-4.42 -6.9,-6.76 7.72,0.74 12.14,-7.1 19.38,-8.13 -2.93,-3.22 -5.49,-7.01 -9.39,-9.14 -2.99,-1.67 -6.53,-1.02 -9.78,-0.95 0.9,-2.14 1.5,-4.58 3.36,-6.14 5.7,-4.78 14.78,-3.22 19.58,-9.35 1.21,-1.86 3.44,-2.15 5.42,-2.7 -3.87,-4.12 -9.77,-6.69 -15.44,-5.41 -6.91,1.61 -11.84,7.4 -18.59,9.43 -3.27,1.2 -6.8,1.07 -10.2,0.66 9.17,-3.16 12.42,-13.82 21.06,-17.67 3.29,-1.7 6.79,0.02 10.04,0.87 -0.17,-3.05 -1.15,-6.57 -4.42,-7.57 -8.66,-2.1 -16.16,5.08 -24.74,4.46 -1.93,-0.1 -3.54,-1.22 -5.21,-2.05 2.45,-1.33 7.66,-1.64 6,-5.71 -2.2,-3.37 -7.15,-2.17 -10.5,-3.54 -5.32,-1.93 -11.71,0.75 -16.24,-3.4 -2.25,1.04 -4.5,2.27 -7,2.55 -10.16,1.31 -19.31,-6.59 -29.49,-4.01 -5.05,1.71 -8.68,5.9 -12.77,9.13 6.53,-0.53 13.63,-1.64 19.69,1.58 2.71,1.53 5.74,4.06 5.22,7.54 -2.1,3.92 -6.99,4.98 -11.06,5.45 9.55,4.82 20.29,1.07 30.3,0.32 5.62,-0.63 11.41,1.03 15.64,4.82 -0.03,0.87 -0.11,2.61 -0.14,3.48 -6.42,7.31 -12.93,15.54 -22.53,18.69 -5.54,2.01 -11.68,-0.55 -17.11,1.94 -5.84,2.34 -11.76,6.46 -18.36,4.59 -4.3,-1.82 -7.95,-5.05 -12.6,-6.08 -4.99,-1.4 -10.79,-1.07 -14.86,2.42 2.95,3.74 7.87,3.58 12.1,4.47 2.76,0.52 4.33,3.31 6.98,4.07 7.22,1.53 14.77,-1.23 21.91,0.94 3.12,0.82 4.81,3.77 7.06,5.81 6.56,1.03 14.07,-2.13 19.89,2.22 4.58,3.51 10.71,2.37 16.08,2.4 7.74,-0.08 16.14,-1.61 23.3,2.16 3.23,1.52 4.95,5.47 8.75,5.84 10.24,1.85 20.12,5.47 30.5,6.58"
       style="fill:#f9e708;fill-opacity:1;fill-rule:nonzero;stroke:none"
       id="path26"
       inkscape:connector-curvature="0" /><path
       d="m 380.21,187.8 c 0.2,-0.82 0.4,-1.63 0.6,-2.44 1.05,0.63 2.11,1.71 3.42,0.98 8.5,-3.22 17.69,-1.35 26.4,-0.14 9.89,1.8 20.47,2.35 29.91,-1.75 3.12,-1.83 6.57,-0.05 9.89,-0.34 6.6,-1.26 11.09,-7.22 17.57,-8.72 4.5,-0.69 7.64,3.2 10.31,6.18 3.45,-0.26 6.52,-1.88 8.92,-4.34 2.48,-2.71 6.22,-3.13 9.38,-4.63 1.87,-2.06 3.19,-4.58 4.37,-7.09 0.64,-1.72 1.27,-3.45 1.9,-5.18 -3.52,0.79 -7.22,0.79 -10.42,-1.06 2.4,-2 4.94,-3.83 7.53,-5.59 -0.54,-1.04 -1.07,-2.08 -1.59,-3.12 1.23,-2.15 2.68,-4.16 4.26,-6.07 3.13,0.53 6.62,1.39 9.52,-0.44 4.87,-2.92 6.61,-8.73 9.81,-13.12 2.01,-2.63 2.95,-5.82 3.6,-9.03 -0.33,-0.54 -1,-1.64 -1.33,-2.19 -1.61,-0.08 -3.23,-0.16 -4.83,-0.24 -0.5,-1.98 -1.85,-4.2 -0.64,-6.19 1.97,-2.72 4.83,-4.62 7.16,-7.01 -4.86,0.04 -8.57,3.35 -12.93,4.89 -2.73,0.87 -4.63,-1.91 -6.82,-3.01 -0.4,2.27 -0.46,4.58 -0.54,6.88 2.95,1.84 5.88,3.73 8.71,5.77 -4.91,2.27 -10.68,2.55 -15.79,0.79 -0.06,2.9 -0.02,5.79 0.04,8.68 -1.47,0.57 -2.93,1.12 -4.38,1.66 1.01,3.37 2.92,6.53 3.08,10.1 -2.37,1.22 -5.02,1.8 -7.64,2.13 -1.37,0.38 -2.67,-1.39 -1.87,-2.59 1.71,-4.51 0.44,-9.36 0.94,-14.04 -2.36,-0.31 -4.73,-0.55 -7.07,-0.99 -0.49,0.15 -1.46,0.43 -1.95,0.58 -2.21,1.14 -4.21,2.62 -6.21,4.06 -2.11,1.18 -4.53,1.43 -6.87,1.8 0.74,0.06 2.21,0.19 2.95,0.26 -0.51,1.68 -3.31,0.92 -4.67,0.72 l -0.19,-0.41 c -0.1,-0.23 -0.31,-0.69 -0.42,-0.92 -1.73,0.09 -3.49,0.07 -5.17,-0.36 1.3,2.89 2.39,5.89 2.94,9.02 3.02,0.42 6.08,0.23 9.12,0.23 -0.87,3.58 0.52,6.87 2.16,9.99 1.37,2 -0.2,4.58 -2.42,4.87 -3.18,0.2 -6.28,-0.66 -9.41,-1.07 4.49,3.21 10.85,4.37 13.11,10.01 2.57,1.34 5.08,2.81 7.43,4.53 -2.26,0.7 -4.61,1.83 -7.01,1.12 -3.13,-0.56 -5.33,-3.03 -8.07,-4.4 -2.03,0.86 -3.83,2.24 -5.99,2.8 -2.07,-0.6 -3.9,-1.78 -5.77,-2.8 -1.07,1.4 -1.79,3.18 -3.25,4.22 -1.54,0.34 -3.12,0.43 -4.65,0.78 -2.18,1.12 -3.91,3.31 -6.57,3.22 -1.3,-0.96 -3.21,-1.57 -3.53,-3.36 -0.87,-4.49 -5.36,-6.43 -7.89,-9.81 -2.14,-3.42 -7.08,-3.53 -8.89,-7.22 -0.36,-1.41 0,-2.88 0.05,-4.31 -4.11,-2.24 -7.62,-5.38 -10.62,-8.95 0.41,-1.3 0.82,-2.6 1.23,-3.9 -1.77,-0.05 -3.53,-0.09 -5.28,-0.13 -0.03,2.69 -0.11,5.39 -0.32,8.08 -4.39,-0.86 -7.21,-4.57 -10.8,-6.88 -0.03,-1.48 -0.05,-2.96 -0.06,-4.44 -2.96,-0.42 -8.33,-1.45 -7.43,-5.54 2,-4.04 4.51,-8.6 8.94,-10.33 1.48,1.57 3,3.12 4.56,4.62 2.85,-1.45 6.57,-2 8.46,-4.81 1.03,-3.99 0.23,-8.59 -2.41,-11.82 -2.76,-2.02 -6.31,-0.95 -9.38,-0.49 -0.63,-3.34 -0.66,-6.86 -1.98,-10.03 -1.27,-2.38 -4.5,-1.64 -6.65,-2.41 -0.49,-2.08 -1.03,-4.84 1.29,-6.05 3.29,-1.4 7.3,-0.44 9.9,1.95 3.27,2.97 7.97,2.92 12.1,3.58 0.79,-2.26 0.95,-4.92 2.72,-6.7 1.49,-1.68 3.61,-3.29 2.72,-5.84 l -0.34,-0.43 c -2.37,0.63 -4.17,-1.29 -4.46,-3.5 -0.36,-1.06 -0.73,-2.11 -1.09,-3.17 0.44,-1.22 0.87,-2.45 1.29,-3.68 -0.04,-0.13 -0.12,-0.39 -0.17,-0.52 -0.34,-1.04 -0.69,-2.08 -1.05,-3.11 -2.29,-4.78 -8.04,-2.99 -11.72,-1.14 -1.03,-0.7 -2.06,-1.39 -3.08,-2.09 1.59,-2.66 4.56,-5.44 3.49,-8.83 -1.2,-1.58 -3.38,-1.78 -5.08,-2.57 -0.04,-0.41 -0.12,-1.22 -0.16,-1.63 0.66,-0.67 1.32,-1.35 1.99,-2.03 4.33,0.73 9.23,0.56 12.59,-2.67 0.5,-2.85 -1.61,-5.82 -4.65,-5.72 -3.09,-0.11 -6.07,-0.98 -8.03,-3.5 4.26,-3.45 10.26,-2.54 14.67,-5.67 2.46,-1.54 5.18,-2.82 7.19,-4.98 1.88,-2.01 -0.53,-5.1 -2.84,-5.25 -3.72,-0.39 -7.48,-0.05 -11.18,-0.74 -4.57,-0.88 -9.05,0.76 -13.34,2.13 -4.98,1.94 -9.99,4.74 -15.52,4.17 -2.59,-0.37 -4.97,0.76 -7.29,1.7 -1.23,1.88 -2.25,3.9 -2.79,6.09 2.84,-0.95 5.77,-1.59 8.78,-1.58 0.54,5.46 -3.85,9.93 -8.66,11.68 -8.97,3.78 -19.39,0.53 -28.13,4.87 -0.36,0.46 -1.07,1.38 -1.43,1.84 3.85,1.64 9.36,2.11 10.56,6.89 -5.05,1.25 -10.28,0.55 -15.4,1.16 0.05,1.89 0.11,3.78 0.18,5.66 -4.73,2.88 -9.66,5.65 -13.36,9.85 0.82,3.27 5.02,-0.25 7.15,-0.68 4.92,-2.43 10.58,-2.56 15.91,-1.84 2.86,1.07 5.15,3.32 7.08,5.63 2.96,3.53 3.16,9.59 -0.53,12.7 -3.49,3.62 -8.09,6.08 -13.11,6.68 -8.18,2.17 -18.04,3.2 -22.9,11.1 3.65,-0.63 7.21,-1.81 10.93,-2.08 4.62,0.06 8.29,3.86 12.94,3.7 3.46,0.11 6.97,-0.41 10.39,0.24 3.38,0.94 3.89,5.05 3.21,7.97 -2.11,3.18 -6.15,4.03 -9.72,4.17 -0.12,0.37 -0.35,1.13 -0.46,1.5 6.22,2.74 13.44,-0.65 19.35,2.94 -0.1,2.36 -0.17,4.72 -0.26,7.09 -8.97,4.17 -18.83,9.97 -21.2,20.39 4.83,-0.52 9.24,-2.89 14.1,-3.26 3.51,-0.43 7.06,-0.08 10.41,1.03 -0.28,1.73 0.3,3.86 -1.11,5.21 -7.57,8.04 -18.29,13.17 -29.3,13.95 3.59,4.33 9.36,5.75 14.66,6.68 8.04,1.37 15.12,-3.6 22.92,-4.43 5.98,-1.39 11.91,0.93 17.1,3.74 -1.46,4.31 -5.62,7.31 -5.82,12.14"
       style="fill:#ed1d40;fill-opacity:1;fill-rule:nonzero;stroke:none"
       id="path28"
       inkscape:connector-curvature="0" /><path
       d="m 437.24,171.43 c 0.32,1.79 2.23,2.4 3.53,3.36 0.62,-0.89 1.25,-1.77 1.88,-2.66 -0.34,-0.46 -1.03,-1.4 -1.38,-1.86 0.43,-0.78 1.29,-2.35 1.72,-3.13 2.78,0.67 5.97,2.08 8.37,-0.28 -2.71,-0.51 -5.44,-0.86 -8.15,-1.25 0.73,-1.39 1.49,-2.78 2.24,-4.16 3.29,0.42 7.43,1.43 9.35,-2.15 -2.93,0.13 -5.86,0.23 -8.78,0.1 1.16,-1.59 1.82,-4 3.89,-4.67 3.84,0.06 7.7,0.17 11.53,-0.33 0.07,-0.44 0.2,-1.31 0.27,-1.75 -3.43,0 -6.88,-0.19 -10.22,-0.99 0.72,-1.29 1.46,-2.58 2.22,-3.86 4.17,0.19 8.78,0.81 12.58,-1.32 -3.62,-0.93 -7.34,-0.76 -11.01,-1.09 0.29,-2.13 2.37,-3.28 3.69,-4.77 0.78,0.17 2.34,0.51 3.12,0.67 -0.55,-3.13 -1.64,-6.13 -2.94,-9.02 -2.51,-1.79 -4.44,-5.36 -7.92,-5 -0.64,2.2 1.43,2.74 3.01,3.43 1.43,2.61 3.23,5 4.77,7.54 -0.44,1.65 -1.9,2.72 -3.31,3.52 -2.2,-0.81 -4.21,-2.05 -6.28,-3.13 -0.33,-1.09 -0.66,-2.17 -0.98,-3.25 -0.58,-0.05 -1.74,-0.16 -2.32,-0.21 -0.24,0.24 -0.71,0.71 -0.94,0.94 4.07,2.32 4.38,7.78 8.6,10.01 -0.95,0.99 -1.84,2.01 -2.86,2.9 -3.67,-0.74 -6.2,-3.91 -9.73,-4.92 l -1.21,0.59 c 3.09,2.28 5.88,4.93 8.83,7.4 -1.04,1.53 -2.08,3.06 -3.1,4.59 -2.63,-2.01 -5.15,-4.17 -7.93,-5.96 -1.02,0.38 -1.95,0.93 -2.97,1.29 0.67,0.32 2.02,0.95 2.69,1.27 1.46,3.16 4,5.55 7.3,6.71 -1.46,1.43 -2.42,4.2 -4.84,3.89 -3.21,-0.08 -4.74,-3.32 -7,-5.06 -0.82,0.39 -1.63,0.8 -2.41,1.23 0.77,0.33 2.31,0.99 3.09,1.32 2,2.96 5.08,4.74 8.55,5.47 -1.26,1.56 -2.38,3.21 -3.5,4.87 -0.36,-0.07 -1.09,-0.21 -1.45,-0.28"
       style="fill:#000000;fill-opacity:1;fill-rule:nonzero;stroke:none"
       id="path30"
       inkscape:connector-curvature="0" /><path
       d="m 440.77,174.79 c 2.66,0.09 4.39,-2.1 6.57,-3.22 1.53,-0.35 3.11,-0.44 4.65,-0.78 1.46,-1.04 2.18,-2.82 3.25,-4.22 1.87,1.02 3.7,2.2 5.77,2.8 2.16,-0.56 3.96,-1.94 5.99,-2.8 2.74,1.37 4.94,3.84 8.07,4.4 2.4,0.71 4.75,-0.42 7.01,-1.12 -2.35,-1.72 -4.86,-3.19 -7.43,-4.53 -2.26,-5.64 -8.62,-6.8 -13.11,-10.01 3.13,0.41 6.23,1.27 9.41,1.07 2.22,-0.29 3.79,-2.87 2.42,-4.87 -1.64,-3.12 -3.03,-6.41 -2.16,-9.99 -3.04,0 -6.1,0.19 -9.12,-0.23 -0.78,-0.16 -2.34,-0.5 -3.12,-0.67 -1.32,1.49 -3.4,2.64 -3.69,4.77 3.67,0.33 7.39,0.16 11.01,1.09 -3.8,2.13 -8.41,1.51 -12.58,1.32 -0.76,1.28 -1.5,2.57 -2.22,3.86 3.34,0.8 6.79,0.99 10.22,0.99 -0.07,0.44 -0.2,1.31 -0.27,1.75 -3.83,0.5 -7.69,0.39 -11.53,0.33 -2.07,0.67 -2.73,3.08 -3.89,4.67 2.92,0.13 5.85,0.03 8.78,-0.1 -1.92,3.58 -6.06,2.57 -9.35,2.15 -0.75,1.38 -1.51,2.77 -2.24,4.16 2.71,0.39 5.44,0.74 8.15,1.25 -2.4,2.36 -5.59,0.95 -8.37,0.28 -0.43,0.78 -1.29,2.35 -1.72,3.13 0.35,0.46 1.04,1.4 1.38,1.86 -0.63,0.89 -1.26,1.77 -1.88,2.66"
       style="fill:#ffffff;fill-opacity:1;fill-rule:nonzero;stroke:none"
       id="path32"
       inkscape:connector-curvature="0" /><path
       d="m 437.24,171.43 c 0.36,0.07 1.09,0.21 1.45,0.28 1.12,-1.66 2.24,-3.31 3.5,-4.87 -3.47,-0.73 -6.55,-2.51 -8.55,-5.47 -0.78,-0.33 -2.32,-0.99 -3.09,-1.32 0.78,-0.43 1.59,-0.84 2.41,-1.23 2.26,1.74 3.79,4.98 7,5.06 2.42,0.31 3.38,-2.46 4.84,-3.89 -3.3,-1.16 -5.84,-3.55 -7.3,-6.71 -0.67,-0.32 -2.02,-0.95 -2.69,-1.27 1.02,-0.36 1.95,-0.91 2.97,-1.29 2.78,1.79 5.3,3.95 7.93,5.96 1.02,-1.53 2.06,-3.06 3.1,-4.59 -2.95,-2.47 -5.74,-5.12 -8.83,-7.4 l 1.21,-0.59 c 3.53,1.01 6.06,4.18 9.73,4.92 1.02,-0.89 1.91,-1.91 2.86,-2.9 -4.22,-2.23 -4.53,-7.69 -8.6,-10.01 0.23,-0.23 0.7,-0.7 0.94,-0.94 0.58,0.05 1.74,0.16 2.32,0.21 0.32,1.08 0.65,2.16 0.98,3.25 2.07,1.08 4.08,2.32 6.28,3.13 1.41,-0.8 2.87,-1.87 3.31,-3.52 -1.54,-2.54 -3.34,-4.93 -4.77,-7.54 -1.58,-0.69 -3.65,-1.23 -3.01,-3.43 3.48,-0.36 5.41,3.21 7.92,5 1.68,0.43 3.44,0.45 5.17,0.36 0.43,-1.27 0.99,-2.49 1.54,-3.72 -1.73,-4.2 -4.44,-7.86 -6.53,-11.86 4.12,1.93 6.83,5.73 9.55,9.22 0.98,-1.15 1.93,-2.31 2.85,-3.52 3.77,-0.15 6.98,1.7 9.95,3.79 2.34,0.44 4.71,0.68 7.07,0.99 -0.5,4.68 0.77,9.53 -0.94,14.04 -0.8,1.2 0.5,2.97 1.87,2.59 2.62,-0.33 5.27,-0.91 7.64,-2.13 -0.16,-3.57 -2.07,-6.73 -3.08,-10.1 1.45,-0.54 2.91,-1.09 4.38,-1.66 -0.06,-2.89 -0.1,-5.78 -0.04,-8.68 5.11,1.76 10.88,1.48 15.79,-0.79 -2.83,-2.04 -5.76,-3.93 -8.71,-5.77 0.08,-2.3 0.14,-4.61 0.54,-6.88 2.19,1.1 4.09,3.88 6.82,3.01 4.36,-1.54 8.07,-4.85 12.93,-4.89 -2.33,2.39 -5.19,4.29 -7.16,7.01 -1.21,1.99 0.14,4.21 0.64,6.19 1.6,0.08 3.22,0.16 4.83,0.24 0.33,0.55 1,1.65 1.33,2.19 -0.65,3.21 -1.59,6.4 -3.6,9.03 -3.2,4.39 -4.94,10.2 -9.81,13.12 -2.9,1.83 -6.39,0.97 -9.52,0.44 -1.58,1.91 -3.03,3.92 -4.26,6.07 0.52,1.04 1.05,2.08 1.59,3.12 -2.59,1.76 -5.13,3.59 -7.53,5.59 3.2,1.85 6.9,1.85 10.42,1.06 -0.63,1.73 -1.26,3.46 -1.9,5.18 3.56,-2.34 5.74,-6.09 8.29,-9.4 9.44,-12.9 17.48,-27.25 20.59,-43.08 1.44,-6.9 1.02,-13.99 1.95,-20.95 0.34,-2.45 -0.25,-4.86 -1.07,-7.15 0.16,-2.82 0.84,-6.11 -1.24,-8.44 -1.86,-2.22 -3.71,-4.49 -4.7,-7.25 -9.37,-22.46 -27.08,-41.45 -49.08,-51.93 -10,-4.02 -20.53,-6.54 -30.78,-9.79 -3.7,0.71 -7.3,0.34 -10.96,-0.35 -14.66,2.53 -29.43,6.33 -42.45,13.73 4.29,-1.37 8.77,-3.01 13.34,-2.13 3.7,0.69 7.46,0.35 11.18,0.74 2.31,0.15 4.72,3.24 2.84,5.25 -2.01,2.16 -4.73,3.44 -7.19,4.98 -4.41,3.13 -10.41,2.22 -14.67,5.67 1.96,2.52 4.94,3.39 8.03,3.5 3.04,-0.1 5.15,2.87 4.65,5.72 -3.36,3.23 -8.26,3.4 -12.59,2.67 -0.67,0.68 -1.33,1.36 -1.99,2.03 0.04,0.41 0.12,1.22 0.16,1.63 1.7,0.79 3.88,0.99 5.08,2.57 1.07,3.39 -1.9,6.17 -3.49,8.83 1.02,0.7 2.05,1.39 3.08,2.09 3.68,-1.85 9.43,-3.64 11.72,1.14 1.73,-1.87 3.32,-3.86 4.84,-5.9 -2.89,-0.74 -5.83,-1.26 -8.8,-1.49 0.3,-0.49 0.89,-1.46 1.19,-1.95 3.43,0.45 6.9,0.62 10.32,1.14 1.7,-1.49 3.25,-3.13 4.49,-5.03 -3.93,-0.09 -7.97,0.17 -11.7,-1.31 4.23,-1.12 8.64,-1.53 13,-1.11 0.7,-1.32 1.4,-2.64 2.09,-3.97 -3.69,-0.6 -7.43,-0.69 -11.13,-1.16 3.35,-2.03 7.32,-2.4 11.12,-1.73 3.12,0.89 4.11,-2.96 5.41,-4.95 -2.89,0.05 -5.78,0.27 -8.66,0.52 1.78,-3.81 5.99,-3.04 9.4,-2.51 0.62,-1.33 1.24,-2.67 1.86,-4.01 -2.56,-0.47 -5.14,-0.8 -7.68,-1.33 3.18,-1.6 6.8,-1.71 10.24,-2.35 -1.51,-3.42 -5.58,-1.23 -8.36,-1.7 2.39,-3.36 7.01,-2.28 10.17,-4.43 -3.15,-0.6 -6.34,-0.26 -9.51,-0.23 2.72,-2.33 6.26,-3.06 9.59,-4.07 -2.29,-0.55 -4.64,-0.38 -6.93,0.05 -1.03,-0.77 -2.06,-1.54 -3.08,-2.32 3.18,-0.16 6.36,-0.46 9.55,-0.32 -1.47,-3.7 -6.04,-1.05 -8.91,-1.17 0.68,-1.5 2.06,-2.24 3.69,-2.08 3.4,0.01 6.82,0.16 10.23,0.16 2.53,-0.15 4.27,1.89 6.02,3.38 -3.29,-0.31 -6.94,-3.3 -9.96,-0.97 0.05,0.22 0.16,0.66 0.21,0.88 3.46,0.34 6.95,1.36 9.24,4.14 -3.35,-1.05 -7.8,-3.84 -10.34,0.1 4.94,-0.21 8.92,2.65 12.87,5.16 -2.91,0.06 -5.57,-1.04 -7.75,-2.93 -1.97,0.54 -3.93,1.13 -5.75,2.04 0.88,2.16 3.54,2.21 5.4,3.08 2.58,0.68 4.79,2.28 6.14,4.58 -3.51,-1.87 -6.9,-4.11 -10.99,-4.44 -0.96,1.23 -1.91,2.45 -2.86,3.66 5.05,0.37 7.81,4.85 11.78,7.32 -3.76,1.46 -5.15,-3.28 -8.25,-4.22 -2.75,-1.32 -4.36,1.92 -6.11,3.44 4.63,1.21 6.01,6.18 9.85,8.44 -1.07,0.15 -2.08,1.29 -3.16,0.79 -2.67,-1.55 -4.9,-3.73 -7.29,-5.66 -1.03,1.47 -2.06,2.93 -3.09,4.39 2.83,2.62 5.49,5.46 8.78,7.54 -0.8,0.71 -2.04,0.49 -2.89,0.04 -2.8,-1.46 -5.42,-3.21 -8.19,-4.71 -0.94,1.21 -1.92,2.4 -2.92,3.56 2.97,1.72 4.79,4.59 5.69,7.84 1.14,0.64 2.28,1.28 3.42,1.93 -1.17,0.33 -2.33,0.65 -3.5,0.94 -0.91,-3.7 -4.53,-5.09 -7.48,-6.83 -1.34,1.27 -2.67,2.55 -3.95,3.88 2.08,2.32 3.86,4.89 5.14,7.74 1.36,0.57 2.73,1.17 4.09,1.78 -0.64,0.36 -1.92,1.09 -2.56,1.45 -4.08,-1.99 -7,-5.67 -9.66,-9.24 -1.17,2.4 -2.22,4.84 -3.31,7.26 0.05,0.13 0.13,0.39 0.17,0.52 1.37,4.03 3.76,7.55 6.36,10.89 L 417.5,80 c 0.89,2.55 -1.23,4.16 -2.72,5.84 -1.77,1.78 -1.93,4.44 -2.72,6.7 -4.13,-0.66 -8.83,-0.61 -12.1,-3.58 -2.6,-2.39 -6.61,-3.35 -9.9,-1.95 -2.32,1.21 -1.78,3.97 -1.29,6.05 2.15,0.77 5.38,0.03 6.65,2.41 1.32,3.17 1.35,6.69 1.98,10.03 3.07,-0.46 6.62,-1.53 9.38,0.49 2.64,3.23 3.44,7.83 2.41,11.82 -1.89,2.81 -5.61,3.36 -8.46,4.81 -1.56,-1.5 -3.08,-3.05 -4.56,-4.62 -4.43,1.73 -6.94,6.29 -8.94,10.33 -0.9,4.09 4.47,5.12 7.43,5.54 0.01,1.48 0.03,2.96 0.06,4.44 3.59,2.31 6.41,6.02 10.8,6.88 0.21,-2.69 0.29,-5.39 0.32,-8.08 1.75,0.04 3.51,0.08 5.28,0.13 -0.41,1.3 -0.82,2.6 -1.23,3.9 3,3.57 6.51,6.71 10.62,8.95 -0.05,1.43 -0.41,2.9 -0.05,4.31 1.81,3.69 6.75,3.8 8.89,7.22 2.53,3.38 7.02,5.32 7.89,9.81"
       style="fill:#ffffff;fill-opacity:1;fill-rule:nonzero;stroke:none"
       id="path34"
       inkscape:connector-curvature="0" /><path
       d="m 162.88,164.36 c 9.59,-4.09 18.73,5.89 28.29,1.42 -5.62,-4.81 -12.94,-6.93 -20.19,-7.61 -2.89,1.79 -5.94,3.49 -8.1,6.19"
       style="fill:#000000;fill-opacity:1;fill-rule:nonzero;stroke:none"
       id="path36"
       inkscape:connector-curvature="0" /><path
       d="m 121.93,146.34 c 1.48,1.5 2.88,3.08 4.23,4.7 0.12,-2.46 0.76,-5.21 -0.75,-7.39 -1.99,-1.87 -4.37,-3.26 -6.58,-4.84 6,-8.07 16.88,-2.26 24.77,-5.98 -4.77,-2.16 -7.34,-6.93 -11.34,-10.05 -2.69,-2.17 -6.48,-0.77 -9.31,-2.58 -7.42,-4.09 -11.35,-12.12 -18.11,-17.02 -2.68,-1.94 -5.37,-3.88 -8.24,-5.54 1.13,3.17 3.97,5.36 5.03,8.51 -0.93,2.43 -3.94,1.48 -5.86,1 C 89.8,105.36 89.29,97.86 83.96,95.09 79.73,95.56 75.22,96.78 71.19,94.73 62.38,90.57 58.15,81.15 51.08,74.93 49.12,72.92 45.84,74.88 43.7,73.11 41.04,71.38 38.3,69.63 35,69.61 c -2.04,-2.22 -3.47,-4.9 -4.61,-7.68 -0.17,3.05 -1.76,6.29 -0.62,9.27 5.39,2.41 8.78,7.39 13.47,10.73 3.02,2.52 7.57,-0.3 10.26,2.58 7.05,6.12 9.52,15.61 15.55,22.54 1.85,2.19 4.36,3.72 6.16,5.96 2.09,3.71 -0.46,8.88 2.74,12.11 2.79,1.22 6.05,0.72 8.79,2.13 4.31,2.15 7.13,6.36 11.37,8.61 2.57,1.45 5.7,0.89 8.4,1.88 3.61,2.21 5.14,6.66 8.79,8.83 2.1,1.22 4.48,0.29 6.63,-0.23"
       style="fill:#000000;fill-opacity:1;fill-rule:nonzero;stroke:none"
       id="path38"
       inkscape:connector-curvature="0" /><path
       d="m 136.27,141.92 c 0.21,2.33 0.95,4.55 2.43,6.37 8.25,-1.01 16.72,-2.55 24.91,-0.3 -1.36,-2.88 -3.28,-6.01 -6.7,-6.59 -6.88,-1.02 -13.74,1.47 -20.64,0.52"
       style="fill:#000000;fill-opacity:1;fill-rule:nonzero;stroke:none"
       id="path40"
       inkscape:connector-curvature="0" /><path
       d="m 464.93,133.96 c 1.36,0.2 4.16,0.96 4.67,-0.72 -0.74,-0.07 -2.21,-0.2 -2.95,-0.26 -0.47,0.14 -1.43,0.42 -1.91,0.57 l 0.19,0.41"
       style="fill:#f9e708;fill-opacity:1;fill-rule:nonzero;stroke:none"
       id="path42"
       inkscape:connector-curvature="0" /><path
       d="m 464.32,132.63 c 0.11,0.23 0.32,0.69 0.42,0.92 0.48,-0.15 1.44,-0.43 1.91,-0.57 2.34,-0.37 4.76,-0.62 6.87,-1.8 -2,-0.54 -4.01,-1.03 -6.01,-1.53 0.96,-1.08 1.88,-2.21 2.98,-3.16 3.08,-0.35 6.16,0.49 9.24,0.63 0.49,-0.15 1.46,-0.43 1.95,-0.58 -2.97,-2.09 -6.18,-3.94 -9.95,-3.79 -0.92,1.21 -1.87,2.37 -2.85,3.52 -2.72,-3.49 -5.43,-7.29 -9.55,-9.22 2.09,4 4.8,7.66 6.53,11.86 -0.55,1.23 -1.11,2.45 -1.54,3.72"
       style="fill:#000000;fill-opacity:1;fill-rule:nonzero;stroke:none"
       id="path44"
       inkscape:connector-curvature="0" /><path
       d="m 104.92,129.57 c 3.66,-0.15 6.83,1.69 10.08,3.04 3.93,-0.08 6.95,-3.2 10.69,-4.11 -6.6,-1.86 -9.53,-8.87 -15.43,-11.83 -2.78,-1.04 -6.1,-0.35 -8.54,-2.32 -4.93,-3.32 -10.8,-4.89 -15.66,-8.33 -2.16,-1.52 -3.85,-3.6 -6.01,-5.12 -2.55,-0.86 -5.34,-0.37 -7.99,-0.63 7.64,3.46 7.06,12.86 10.55,19.25 2,3.79 6.72,3.82 10.44,3.87 1.47,5.23 7.24,6.09 11.87,6.18"
       style="fill:#ffffff;fill-opacity:1;fill-rule:nonzero;stroke:none"
       id="path46"
       inkscape:connector-curvature="0" /><path
       d="m 467.51,129.65 c 2,0.5 4.01,0.99 6.01,1.53 2,-1.44 4,-2.92 6.21,-4.06 -3.08,-0.14 -6.16,-0.98 -9.24,-0.63 -1.1,0.95 -2.02,2.08 -2.98,3.16"
       style="fill:#ffffff;fill-opacity:1;fill-rule:nonzero;stroke:none"
       id="path48"
       inkscape:connector-curvature="0" /><path
       d="m 224.09,119.75 c 2.88,1.18 5.79,2.95 9.03,2.56 2.05,-0.53 3.04,-2.52 4.15,-4.11 -4.51,-0.62 -8.68,1.81 -13.18,1.55"
       style="fill:#f9e708;fill-opacity:1;fill-rule:nonzero;stroke:none"
       id="path50"
       inkscape:connector-curvature="0" /><path
       d="m 467.01,109.3 c 2.09,4.53 5.72,8.33 6.64,13.42 0.51,-2.22 2.36,-3.43 4.09,-4.59 3.06,2.24 6.5,3.93 10.37,3.93 -1.79,-2.69 -4.22,-4.84 -7.04,-6.39 0.92,-1.23 1.51,-2.99 3.16,-3.45 2.67,-0.74 4.93,1.33 7.05,2.62 0.14,0.78 0.43,2.33 0.58,3.11 3.65,-3.03 -1.18,-7.07 -4.21,-8.26 0.77,-1.17 1.4,-2.48 2.45,-3.45 1.78,-0.26 3.6,-0.13 5.4,-0.09 0.56,1.15 1.13,2.29 1.71,3.43 0.71,-0.82 1.37,-1.69 1.97,-2.61 -1.87,-1.53 -4.12,-2.48 -6.08,-3.87 1.67,-1.09 3.57,-3.47 5.79,-2.13 1.48,1.57 2.29,3.72 4.08,5.02 2.09,-3.4 -1.75,-5.85 -3.52,-8.3 1.24,-1.44 2.18,-3.75 4.41,-3.7 2.01,1.34 2.08,4.04 2.93,6.09 1.08,-0.33 2.37,-0.57 2.48,-1.98 -0.62,-2.32 -2.37,-4.05 -3.93,-5.76 1.23,-0.79 2.34,-1.83 3.8,-2.2 2.4,1.46 3.09,4.29 3.81,6.81 1.34,-0.29 3.3,-1.23 2.56,-2.98 -1.12,-1.99 -2.88,-3.51 -4.37,-5.2 1.98,-0.44 4.83,-2.83 6.18,-0.21 1.83,1.7 0.12,4.11 -0.08,6.13 0.43,0.28 1.27,0.82 1.69,1.1 1.19,-3.23 0.28,-6.57 -0.44,-9.78 4.16,1.03 3.96,5.95 3.64,9.3 3.45,-2.35 2.26,-6.63 0.92,-9.85 4.91,1.12 2.81,6.7 2.3,10.1 3.09,-2.65 2.98,-7.01 1.34,-10.41 2.65,-4.45 -1.73,-8.31 -4.16,-11.64 0.6,1.68 1.22,3.36 1.85,5.03 -1.74,-1.27 -3.05,-2.97 -3.98,-4.89 -1.54,0.61 -1.47,2.24 -0.32,3.21 2.85,2.6 1.77,7.49 -1.55,9.16 0.1,-2.76 1.97,-5.91 -0.26,-8.29 -0.88,-0.98 -1.35,-2.88 -2.98,-2.6 -1.18,3.57 2.59,6.74 1.33,10.51 -1.07,0.15 -2.14,0.3 -3.2,0.45 0.95,-4.26 -1.81,-7.44 -4.47,-10.34 -1.67,3.69 2.61,6.58 2.37,10.23 -0.79,1.37 -2.25,2.16 -3.41,3.16 -0.84,-4.22 -1.8,-8.44 -3.23,-12.5 -3.09,4.14 -0.08,8.94 0.72,13.28 -0.21,2.01 -2.03,2.77 -3.68,3.33 -1.48,-4.03 -2.55,-8.84 -5.91,-11.7 -0.9,4.56 1.94,8.4 3.51,12.41 0.66,2.49 -1.82,4.07 -3.54,5.3 0.11,-4.57 -3.54,-7.65 -5.88,-11.18 -0.61,4.29 2.2,8.01 2.84,12.14 1.03,2.4 -1.76,3.61 -3.17,4.98 -1.11,-4.43 -4.15,-7.92 -5.82,-12.09 -0.45,0.52 -1.36,1.54 -1.82,2.06 2.13,4.62 5.38,9.16 4.4,14.55 -1.4,0.39 -2.78,0.78 -4.17,1.18 -0.91,-4.11 -4.11,-6.9 -7.07,-9.61 l -0.99,0.79 c 1.36,4.41 4.83,8.3 5.32,13.12 -0.67,1.53 -2.36,1.98 -3.68,2.73 -1.46,-2.49 -3,-5.04 -5.59,-6.51 -0.82,-1.07 -1.53,-2.51 -3.14,-2.12"
       style="fill:#000000;fill-opacity:1;fill-rule:nonzero;stroke:none"
       id="path52"
       inkscape:connector-curvature="0" /><path
       d="m 118.08,107.88 c 4.76,3.55 10.83,4.27 15.97,7.08 2.48,-2.52 0.96,-5.95 -0.55,-8.53 -1.74,-2.57 -5,-0.67 -7.45,-0.74 -3.16,0.48 -5.55,-1.78 -7.69,-3.71 -0.14,1.97 -0.23,3.93 -0.28,5.9"
       style="fill:#000000;fill-opacity:1;fill-rule:nonzero;stroke:none"
       id="path54"
       inkscape:connector-curvature="0" /><path
       d="m 47.93,97.05 c 4.38,4.78 7.53,11.04 13.74,13.79 -3.5,-7.52 -7.46,-15.38 -14.22,-20.48 -1.77,-1.9 -5.28,-0.96 -5.68,1.68 1.9,1.86 4.42,2.97 6.16,5.01"
       style="fill:#000000;fill-opacity:1;fill-rule:nonzero;stroke:none"
       id="path56"
       inkscape:connector-curvature="0" /><path
       d="m 29.2,90.1 c 2.13,-1.6 6.58,-2.51 5.59,-5.99 C 32.93,82.99 30.86,82.23 29.11,80.93 22.92,76.43 19.68,68.97 13.38,64.61 9.93,62.13 5.53,63.15 1.77,64.25 c 3.07,0.5 6.42,0.87 8.79,3.1 3.85,3.86 7.57,8.28 8.05,13.93 3.51,2.96 7.42,5.46 10.59,8.82"
       style="fill:#000000;fill-opacity:1;fill-rule:nonzero;stroke:none"
       id="path58"
       inkscape:connector-curvature="0" /><path
       d="m 523.24,85.06 c 2.25,-1.56 2.51,-4.16 1.23,-6.5 -0.56,2.14 -0.98,4.31 -1.23,6.5"
       style="fill:#ffffff;fill-opacity:1;fill-rule:nonzero;stroke:none"
       id="path60"
       inkscape:connector-curvature="0" /><path
       d="m 272.34,79.66 c 4.16,2.12 9.04,3.32 13.68,2.26 4.78,-0.97 9.26,-2.98 13.9,-4.43 1.39,0.34 2.8,0.61 4.22,0.82 2.98,-1.39 5,-4.14 6.54,-6.94 -2.32,-1.65 -3.1,-4.24 -3.37,-6.94 -0.21,-3.41 -4.62,-4.29 -7.26,-3.32 -3.51,1.64 -5.32,5.49 -8.73,7.27 -2.87,0.81 -6.32,-1.1 -8.76,1.22 -3.46,2.97 -6.56,6.37 -10.41,8.89 0.05,0.29 0.14,0.88 0.19,1.17"
       style="fill:#f9e708;fill-opacity:1;fill-rule:nonzero;stroke:none"
       id="path62"
       inkscape:connector-curvature="0" /><path
       d="m 412.7,76.07 c 0.29,2.21 2.09,4.13 4.46,3.5 -1.13,-1.55 -2.49,-3.1 -4.46,-3.5"
       style="fill:#f9e708;fill-opacity:1;fill-rule:nonzero;stroke:none"
       id="path64"
       inkscape:connector-curvature="0" /><path
       d="m 417.16,79.57 0.34,0.43 1.76,0.11 c -2.6,-3.34 -4.99,-6.86 -6.36,-10.89 -0.42,1.23 -0.85,2.46 -1.29,3.68 0.36,1.06 0.73,2.11 1.09,3.17 1.97,0.4 3.33,1.95 4.46,3.5"
       style="fill:#000000;fill-opacity:1;fill-rule:nonzero;stroke:none"
       id="path66"
       inkscape:connector-curvature="0" /><path
       d="m 416.04,61.44 c 2.66,3.57 5.58,7.25 9.66,9.24 0.64,-0.36 1.92,-1.09 2.56,-1.45 -1.36,-0.61 -2.73,-1.21 -4.09,-1.78 -1.28,-2.85 -3.06,-5.42 -5.14,-7.74 1.28,-1.33 2.61,-2.61 3.95,-3.88 2.95,1.74 6.57,3.13 7.48,6.83 1.17,-0.29 2.33,-0.61 3.5,-0.94 -1.14,-0.65 -2.28,-1.29 -3.42,-1.93 -0.9,-3.25 -2.72,-6.12 -5.69,-7.84 1,-1.16 1.98,-2.35 2.92,-3.56 2.77,1.5 5.39,3.25 8.19,4.71 0.85,0.45 2.09,0.67 2.89,-0.04 -3.29,-2.08 -5.95,-4.92 -8.78,-7.54 1.03,-1.46 2.06,-2.92 3.09,-4.39 2.39,1.93 4.62,4.11 7.29,5.66 1.08,0.5 2.09,-0.64 3.16,-0.79 -3.84,-2.26 -5.22,-7.23 -9.85,-8.44 1.75,-1.52 3.36,-4.76 6.11,-3.44 3.1,0.94 4.49,5.68 8.25,4.22 -3.97,-2.47 -6.73,-6.95 -11.78,-7.32 0.95,-1.21 1.9,-2.43 2.86,-3.66 4.09,0.33 7.48,2.57 10.99,4.44 -1.35,-2.3 -3.56,-3.9 -6.14,-4.58 -1.86,-0.87 -4.52,-0.92 -5.4,-3.08 1.82,-0.91 3.78,-1.5 5.75,-2.04 2.18,1.89 4.84,2.99 7.75,2.93 -3.95,-2.51 -7.93,-5.37 -12.87,-5.16 2.54,-3.94 6.99,-1.15 10.34,-0.1 -2.29,-2.78 -5.78,-3.8 -9.24,-4.14 -0.05,-0.22 -0.16,-0.66 -0.21,-0.88 3.02,-2.33 6.67,0.66 9.96,0.97 -1.75,-1.49 -3.49,-3.53 -6.02,-3.38 -3.41,0 -6.83,-0.15 -10.23,-0.16 -1.63,-0.16 -3.01,0.58 -3.69,2.08 2.87,0.12 7.44,-2.53 8.91,1.17 -3.19,-0.14 -6.37,0.16 -9.55,0.32 1.02,0.78 2.05,1.55 3.08,2.32 2.29,-0.43 4.64,-0.6 6.93,-0.05 -3.33,1.01 -6.87,1.74 -9.59,4.07 3.17,-0.03 6.36,-0.37 9.51,0.23 -3.16,2.15 -7.78,1.07 -10.17,4.43 2.78,0.47 6.85,-1.72 8.36,1.7 -3.44,0.64 -7.06,0.75 -10.24,2.35 2.54,0.53 5.12,0.86 7.68,1.33 -0.62,1.34 -1.24,2.68 -1.86,4.01 -3.41,-0.53 -7.62,-1.3 -9.4,2.51 2.88,-0.25 5.77,-0.47 8.66,-0.52 -1.3,1.99 -2.29,5.84 -5.41,4.95 -3.8,-0.67 -7.77,-0.3 -11.12,1.73 3.7,0.47 7.44,0.56 11.13,1.16 -0.69,1.33 -1.39,2.65 -2.09,3.97 -4.36,-0.42 -8.77,-0.01 -13,1.11 3.73,1.48 7.77,1.22 11.7,1.31 -1.24,1.9 -2.79,3.54 -4.49,5.03 -3.42,-0.52 -6.89,-0.69 -10.32,-1.14 -0.3,0.49 -0.89,1.46 -1.19,1.95 2.97,0.23 5.91,0.75 8.8,1.49 -1.52,2.04 -3.11,4.03 -4.84,5.9 0.36,1.03 0.71,2.07 1.05,3.11 1.09,-2.42 2.14,-4.86 3.31,-7.26"
       style="fill:#000000;fill-opacity:1;fill-rule:nonzero;stroke:none"
       id="path68"
       inkscape:connector-curvature="0" /><path
       d="m 452.97,22.97 c 1.59,0.39 2.09,-0.22 1.5,-1.83 -1.63,-0.4 -2.13,0.21 -1.5,1.83"
       style="fill:#000000;fill-opacity:1;fill-rule:nonzero;stroke:none"
       id="path70"
       inkscape:connector-curvature="0" /><path
       d="m 452.66,13.69 c 0.39,2.12 0.26,4.91 2.97,5.3 -0.76,-1.89 -1.59,-3.77 -2.22,-5.72 -0.19,0.11 -0.56,0.31 -0.75,0.42"
       style="fill:#000000;fill-opacity:1;fill-rule:nonzero;stroke:none"
       id="path72"
       inkscape:connector-curvature="0" /></g></svg>