<?xml version="1.0" encoding="UTF-8" standalone="no"?>
<!-- Created with Inkscape (http://www.inkscape.org/) -->

<svg
   xmlns:dc="http://purl.org/dc/elements/1.1/"
   xmlns:cc="http://creativecommons.org/ns#"
   xmlns:rdf="http://www.w3.org/1999/02/22-rdf-syntax-ns#"
   xmlns:svg="http://www.w3.org/2000/svg"
   xmlns="http://www.w3.org/2000/svg"
   xmlns:sodipodi="http://sodipodi.sourceforge.net/DTD/sodipodi-0.dtd"
   xmlns:inkscape="http://www.inkscape.org/namespaces/inkscape"
   id="svg2"
   version="1.1"
   inkscape:version="0.48.4 r9939"
   width="542.5"
   height="542.5"
   viewBox = "0 0 542 542"
   xml:space="preserve"
   sodipodi:docname="Baseball (3).pdf"><metadata
     id="metadata8"><rdf:RDF><cc:Work
         rdf:about=""><dc:format>image/svg+xml</dc:format><dc:type
           rdf:resource="http://purl.org/dc/dcmitype/StillImage" /><dc:title></dc:title></cc:Work></rdf:RDF></metadata><defs
     id="defs6"><clipPath
       clipPathUnits="userSpaceOnUse"
       id="clipPath16"><path
         d="M 0,434 434,434 434,0 0,0 0,434 z"
         id="path18" /></clipPath></defs><sodipodi:namedview
     pagecolor="#ffffff"
     bordercolor="#666666"
     borderopacity="1"
     objecttolerance="10"
     gridtolerance="10"
     guidetolerance="10"
     inkscape:pageopacity="0"
     inkscape:pageshadow="2"
     inkscape:window-width="640"
     inkscape:window-height="480"
     id="namedview4"
     showgrid="false"
     inkscape:zoom="0.43502304"
     inkscape:cx="271.25"
     inkscape:cy="271.25"
     inkscape:window-x="0"
     inkscape:window-y="0"
     inkscape:window-maximized="0"
     inkscape:current-layer="g10" /><g
     id="g10"
     inkscape:groupmode="layer"
     inkscape:label="Baseball (3)"
     transform="matrix(1.25,0,0,-1.25,0,542.5)"><path
       d="m 192.6,432.09 c 2.78,0.22 5.55,0.69 8.22,1.54 6.38,1.77 12.79,-1.92 19.11,-0.01 5.71,0.85 11.54,0.5 17.08,-1.08 30.08,-2.81 59.57,-11.91 85.91,-26.72 26.98,-15.07 50.53,-36.12 68.79,-61.02 20.89,-28.41 34.64,-62.02 39.57,-96.94 0.91,-5.58 0.92,-11.3 2.53,-16.76 1.24,-5.72 -1.99,-11.35 -0.36,-17.02 1.11,-5.35 0.67,-10.9 -0.83,-16.12 C 428.3,147.54 405.65,98.89 369.51,63.42 337.91,31.83 296.28,10.5 252.16,3.36 245.88,2.09 239.35,2.31 233.21,0.35 227.14,-1.31 221.08,2.25 215.04,0.55 209.06,-0.67 202.94,0.01 197.1,1.48 142.52,6.27 90.22,32.84 54.31,74.24 28.56,103.39 10.97,139.66 4.05,177.94 c -1.8,7.87 -1.58,16.08 -3.9,23.84 -0.25,3.75 -0.37,7.59 0.55,11.27 1.21,4.7 -1.34,9.26 -0.69,14 -0.52,4.13 1.54,7.91 1.69,11.99 3.63,36.3 16.66,71.63 37.55,101.54 24.62,35.42 60.03,63.26 100.35,78.64 17.03,6.48 34.87,10.93 53,12.87"
       style="fill:#0e0e0f;fill-opacity:1;fill-rule:nonzero;stroke:none"
       id="path22"
       inkscape:connector-curvature="0" /><path
       d="m 134.61,410.09 c 22.25,9.56 46.19,15.16 70.35,16.56 11.34,-0.17 22.76,0.69 34.03,-0.91 25.02,-2.23 49.37,-9.73 71.98,-20.56 -2.61,-0.55 -5.19,-1.25 -7.75,-1.97 0.31,-2.67 0.63,-5.44 2.04,-7.79 7.08,0.11 14.1,1.65 21.23,0.95 0.12,-0.53 0.37,-1.58 0.49,-2.11 -8.32,0.79 -17.21,0.65 -24.55,-3.87 0.7,-3.08 1.7,-6.1 3.06,-8.96 6,4.59 14.08,5.21 21.16,3.24 0.43,-1.37 0.79,-2.76 1.07,-4.17 -7.64,1.17 -15.33,-0.61 -22.22,-3.92 0.83,-2.86 1.71,-5.71 2.83,-8.47 5.82,3.63 12.9,5.68 19.7,3.8 0.55,-2.05 0.65,-4.18 0.98,-6.27 -6.64,0.22 -13.66,0.16 -19.68,-2.99 -0.2,-2.73 0.33,-5.44 0.59,-8.15 6.86,1.26 13.84,2.09 20.82,1.43 0.73,-3.17 1.45,-6.35 2.08,-9.54 -5.52,-3.02 -11.73,-4.1 -17.75,-5.62 1.17,-2.6 2.25,-5.35 4.18,-7.5 5.62,-0.7 10.93,1.97 16.13,3.7 0.96,-3.32 2.19,-6.58 2.88,-9.98 -5.34,-4.41 -12.45,-5.22 -18.8,-7.37 1.04,-2.86 1.7,-5.99 3.56,-8.47 6.79,-0.02 13.08,2.98 19.01,5.99 1.58,-3.88 3.19,-7.74 4.74,-11.64 -5.69,-4.08 -12.56,-5.66 -19.18,-7.47 0.61,-2.95 1.56,-5.87 3.11,-8.47 7.09,-0.25 13.75,2.99 19.91,6.16 1.26,-3.23 2.47,-6.48 3.68,-9.73 -5.63,-3.82 -12.32,-5.15 -18.71,-7.06 0.58,-3.03 1.89,-5.86 3.08,-8.69 6.82,0.26 13.19,2.93 19.19,5.99 0.98,-2.9 1.96,-5.82 2.91,-8.74 -5.15,-4.81 -11.97,-6.82 -18.3,-9.48 0.91,-2.92 2.46,-5.57 3.85,-8.28 6.44,0.95 12.37,3.83 17.8,7.32 1.04,-3.91 2.53,-7.73 3.07,-11.76 -5.28,-4.79 -12.18,-7.04 -18.73,-9.48 1.17,-2.9 2.32,-5.89 4.34,-8.32 6.43,0.85 12.27,3.95 17.67,7.38 0.71,-3.17 1.76,-6.28 2.09,-9.52 -5.22,-5.17 -12.5,-7.08 -18.94,-10.13 1,-2.75 2.27,-5.44 3.96,-7.85 6.46,0.27 12.18,3.76 17.61,6.95 0.61,-3.75 1.7,-7.44 1.75,-11.26 -5.36,-4.69 -12.57,-6.02 -19.08,-8.35 0.53,-2.99 1.69,-5.92 3.42,-8.43 6.31,0.04 12.15,2.92 17.67,5.72 0.37,-4.26 1.29,-8.49 1.23,-12.77 -5.74,-4.71 -13.08,-6.47 -19.95,-8.8 1.05,-2.72 2.02,-5.51 3.46,-8.07 6.26,-0.59 12.05,2.85 17.57,5.36 0.13,-3.91 0.6,-7.82 0.34,-11.74 -5.78,-5.24 -13.7,-6.55 -20.87,-8.86 0.71,-2.99 1.97,-5.82 3.12,-8.67 6.18,0.33 12.04,2.48 17.6,5.1 -0.31,-4.05 -0.7,-8.08 -0.95,-12.13 -6.97,-3.02 -14.59,-3.55 -22.08,-3.95 0.41,-3.03 0.93,-6.04 1.47,-9.06 6.37,-0.94 12.81,-0.02 18.99,1.59 -0.81,-3.6 -1.58,-7.22 -2.41,-10.83 -6.15,-2.54 -12.9,-1.69 -18.85,0.96 -1.67,-3.03 -3.16,-6.16 -4.52,-9.34 6.43,-2.7 13.52,-2.19 20.32,-1.96 -1.39,-3 -2.41,-6.21 -4.26,-8.98 -7.11,-3.37 -15.22,-1.19 -22.33,1.01 -1.74,-2.76 -2.57,-5.96 -3.55,-9.04 6.08,-3.35 13.25,-3.71 19.9,-2.05 -1.61,-2.07 -3.06,-4.26 -4.85,-6.17 -7.52,-2.73 -15.45,0.01 -22.94,1.26 -1.82,-1.75 -3.25,-3.86 -4.52,-6.03 5.52,-3.99 12.54,-5.4 19.25,-5.12 -3.72,-3.13 -6.69,-7.18 -10.78,-9.83 -7.63,-0.56 -13.78,4.48 -19.14,9.18 -2.01,-1.53 -3.72,-3.41 -5.52,-5.17 2.67,-6.66 9.25,-10.6 16.15,-11.54 -2.69,-1.61 -5.07,-3.76 -7.94,-5.04 -6.9,0.11 -12.58,4.68 -17.94,8.5 -2.36,-1.18 -4.14,-3.19 -6.06,-4.94 3.28,-5.48 9.29,-8.23 15.27,-9.69 -2.45,-1.22 -4.76,-2.76 -7.32,-3.74 -6.68,-0.96 -12.45,3.18 -17.84,6.46 -2.33,-0.47 -4.43,-1.66 -6.56,-2.67 2.21,-4.76 5.66,-8.93 10.58,-11.04 -2.01,-0.54 -3.94,-1.66 -6.05,-1.63 -6.11,0.86 -11.89,3.36 -16.92,6.89 -2.37,-1.26 -4.74,-2.56 -6.96,-4.1 2.22,-3.67 5.51,-6.48 9.23,-8.57 -2.87,-0.54 -5.84,-2.11 -8.76,-1.06 -5.54,1.96 -10.76,4.71 -15.67,7.91 -2.07,-1.34 -4.21,-2.64 -5.93,-4.44 0.98,-3.62 4.16,-5.72 7.11,-7.65 -3.18,-0.46 -6.38,-1.42 -9.61,-1.05 -3.02,1.02 -5.29,3.33 -7.58,5.42 -1.98,2.23 -4.89,-0.63 -6.67,-1.91 0.18,-2.07 1.4,-3.82 2.44,-5.55 -4.65,0.21 -9.2,-1.05 -13.83,-0.94 -1.28,2.07 -2.23,4.33 -3.75,6.25 -2.56,-0.03 -5,-0.9 -7.45,-1.53 0.05,-1.64 0.09,-3.3 0.15,-4.95 -4.13,0.06 -8.26,0.09 -12.38,0.11 0.49,2.25 0.89,4.53 1.21,6.81 -2.8,0.6 -5.59,1.28 -8.43,1.61 -0.92,-2.24 -1.9,-4.47 -2.9,-6.69 -4.32,0.84 -8.6,1.87 -12.94,2.55 0.8,1.83 1.59,3.67 2.19,5.58 -2.09,1.77 -4.7,2.71 -7.25,3.62 -1.37,-2.18 -2.63,-4.45 -4.29,-6.44 -3.06,0.59 -5.98,1.72 -8.97,2.55 1.63,2.29 3.23,4.61 4.7,7.02 -1.93,1.54 -3.75,3.21 -5.79,4.59 -4.29,-1.27 -7.21,-6.07 -11.95,-6.28 -3.81,0.86 -6.95,3.48 -10.56,4.92 3.17,1.4 5.59,3.91 7.44,6.79 -2.25,1.77 -4.44,6.38 -7.78,4.11 -3.47,-2 -7.43,-3.75 -11.5,-2.57 -1.67,0.86 -3.16,1.99 -4.7,3.04 3.54,2.11 6.91,4.67 8.97,8.33 -2.03,1.49 -4.09,2.94 -6.1,4.44 -3.38,-2.48 -6.97,-4.73 -10.97,-6.05 -1.27,0.94 -2.54,1.86 -3.82,2.78 3.79,3.46 6.63,7.88 7.69,12.94 -2.25,0.71 -4.47,1.57 -6.79,1.98 -3.12,-2.23 -5.46,-5.8 -9.42,-6.68 -2.41,1.97 -4.42,4.35 -6.59,6.55 3.87,2.45 8.27,5.25 9.34,10.05 -1.51,1.75 -3.35,3.15 -5.1,4.61 -3.29,-2.78 -6.74,-5.37 -10.42,-7.63 -2.63,2.87 -5.04,5.93 -7.47,8.97 5.67,1.74 10.91,4.95 14.93,9.3 -1.53,2.8 -3.92,4.99 -6.06,7.31 -4.78,-3.07 -9.86,-5.67 -15.31,-7.33 -1.76,3.07 -3.51,6.14 -5.22,9.24 6.37,0.96 12.68,2.94 17.99,6.66 -0.71,2.66 -2,5.1 -3.25,7.52 -6.55,-1.7 -13.19,-3.68 -20.04,-3.28 -1.65,3.06 -2.64,6.41 -3.91,9.63 7,2.41 14.48,2.88 21.67,1.02 0.79,3.45 1.56,6.9 2.27,10.36 -8.87,2.13 -18.56,2.01 -26.82,-2.19 -0.85,3.99 -1.94,7.95 -2.26,12.03 5.86,3.76 13.05,2.66 19.56,1.93 1.31,2.93 1.88,6.12 2.59,9.23 -7.67,2.43 -15.91,2.71 -23.71,0.69 -0.06,2.47 -0.31,4.94 -0.1,7.4 5.93,3.4 13,2.75 19.51,2.02 0.9,2.59 1.96,5.13 2.48,7.83 -0.4,1.41 -2.31,1.26 -3.41,1.79 -6.06,1.69 -12.47,1.39 -18.54,-0.06 0.48,3.9 0.89,7.8 1.33,11.7 7.38,1.12 14.74,-0.43 21.68,-2.89 0.58,2.96 1.38,5.94 1.27,8.98 -6.34,3.55 -13.86,4.67 -21.04,3.89 0.59,2.91 1.24,5.81 1.88,8.7 7.41,2.45 15.33,2.05 22.76,-0.06 0.4,3.58 0.95,7.18 0.81,10.79 -6.4,2.62 -13.6,2.62 -20.25,1.02 1.12,3.25 2.2,6.51 3.28,9.78 7.47,1.88 15.23,2.45 22.83,0.96 0.93,3.02 1.25,6.18 1.55,9.31 -6.59,1.68 -13.46,1.91 -20.17,0.83 0.93,2.18 1.65,4.48 2.96,6.47 6.53,4.87 15.28,6.25 23.09,4.02 1.33,3.11 2.83,6.2 3.42,9.56 -6.83,2.13 -14.23,0.91 -21,-0.9 1.39,2.59 2.35,5.48 4.24,7.76 7.84,4.42 17.59,4.68 25.83,1.14 1.2,3.71 2.22,7.48 3.12,11.27 -7.33,1.93 -15.07,1.74 -22.43,0.11 1.82,3.41 3.2,7.12 5.55,10.22 6.86,3.47 15.07,3.47 22.24,0.9 1.67,3.37 3.29,6.8 4.23,10.46 -7.15,0.97 -14.43,1.12 -21.55,-0.21 1.04,1.89 1.62,4.17 3.19,5.72 7.28,4.13 16.02,4.02 24.07,2.84 1.45,3.02 2.81,6.1 4,9.23 -7.69,2.22 -15.88,1.45 -23.59,-0.27 0.88,2.04 1.57,4.2 2.78,6.08 7.04,4.34 15.64,4.62 23.65,4.08 1.6,3.45 2.43,7.17 3.33,10.84 -7.53,0.63 -15.19,0.13 -22.46,-2 1.25,3.04 1.88,6.8 5.08,8.47 6.81,4.74 15.47,3.75 23.19,2.5 0.26,3.65 0.99,7.4 0.21,11.03 -7.55,1.8 -15.34,-0.33 -22.18,-3.57 1.17,3.7 1.92,7.56 3.49,11.11 7,5.83 16.68,4.46 25.01,3.3 1.26,2.9 2.02,6 2.53,9.11 -8.09,2.68 -16.89,0.88 -24.9,-1.28 0.85,1.82 0.76,4.53 2.89,5.43 8.57,4.13 18.03,6.7 27.6,6.14 0.69,3.36 -0.89,6.69 -1.49,9.96 -8.35,-0.69 -16.89,-1.64 -24.56,-5.26 0.11,1.02 0.22,2.04 0.34,3.06 8.7,3.61 17.66,7.31 27.24,7.4 -0.51,2.98 -0.81,6.05 -1.91,8.9 -8.12,-0.48 -16.18,-2.83 -23.62,-6.08 0.25,1.1 0.5,2.2 0.75,3.3 4.66,1.95 9.12,4.34 13.79,6.25"
       style="fill:#fefefe;fill-opacity:1;fill-rule:nonzero;stroke:none"
       id="path24"
       inkscape:connector-curvature="0" /><path
       d="m 138.19,403.19 c 0.82,0.09 2.44,0.26 3.25,0.34 0.1,-0.71 0.3,-2.12 0.4,-2.82 -3.5,-1.39 -7.25,-1.97 -10.86,-2.97 -3.83,-1.04 -7.53,-2.58 -11.45,-3.26 -1.07,2.09 1.28,3.46 2.78,4.28 5.03,2.26 10.5,3.36 15.88,4.43"
       style="fill:#c4081b;fill-opacity:1;fill-rule:nonzero;stroke:none"
       id="path26"
       inkscape:connector-curvature="0" /><path
       d="m 305.45,399.78 c 2.43,1.37 4.87,2.85 7.61,3.51 2.53,0.65 5.29,-1.12 6.01,-3.59 -4.34,-1.74 -9.35,-2.03 -13.62,0.08"
       style="fill:#c4081b;fill-opacity:1;fill-rule:nonzero;stroke:none"
       id="path28"
       inkscape:connector-curvature="0" /><path
       d="m 111.51,400.29 c 1.57,-0.04 3.15,-0.02 4.7,-0.24 0.67,-2.51 -1.08,-4.66 -2.81,-6.25 -0.15,0.12 -0.45,0.35 -0.6,0.46 l -0.1,0.37 c -0.46,1.87 -0.78,3.77 -1.19,5.66"
       style="fill:#c4081b;fill-opacity:1;fill-rule:nonzero;stroke:none"
       id="path30"
       inkscape:connector-curvature="0" /><path
       d="m 105.84,395.02 c 2.1,1.27 4.8,0.67 6.86,-0.39 l 0.1,-0.37 c 0.15,-0.11 0.45,-0.34 0.6,-0.46 2.46,-1.46 0.45,-4.64 0.51,-6.87 -2.98,1.08 -5.9,2.48 -9.09,2.79 -2.16,-1.81 -3.67,-4.28 -4.7,-6.88 3.92,-1.65 8.07,-2.89 11.47,-5.56 -0.58,-2.32 -1.03,-4.68 -1.74,-6.97 -3.82,2.21 -7.65,4.67 -12.12,5.3 -2.01,-2.33 -2.95,-5.33 -3.76,-8.24 4.84,-1.12 10.37,-2.66 12.76,-7.51 -0.34,-3.93 -2.04,-7.6 -2.98,-11.41 -3.64,2.89 -7.96,4.84 -12.57,5.49 -1.25,-2.65 -2.41,-5.35 -3.49,-8.08 4.67,-1.55 9.25,-3.98 12.27,-7.97 -0.63,-3.36 -2.07,-6.48 -3.21,-9.68 -3.89,2.57 -8.03,5.03 -12.68,5.89 -2.13,-2.18 -3.69,-4.82 -5.33,-7.36 5.32,-1.74 11.58,-3.84 13.55,-9.73 -0.65,-2.55 -1.8,-4.94 -2.76,-7.39 -3.75,2.98 -7.77,6.07 -12.68,6.69 -1.66,-2.56 -2.48,-5.55 -3.51,-8.39 3.34,-1.4 6.99,-2.39 9.78,-4.8 1.05,-1.01 2.41,-2.37 1.65,-3.96 -1.23,-3.5 -3.08,-6.73 -4.54,-10.12 -4.15,3.63 -9.27,6.71 -14.94,6.72 -2.27,-1.67 -2.75,-5.11 -3.97,-7.62 2.82,-0.98 5.85,-1.67 8.26,-3.53 2.22,-1.7 3.71,-4.11 5.25,-6.4 -1.67,-3.04 -3.34,-6.08 -4.93,-9.16 -3.71,3.97 -8.85,6.16 -14.25,6.38 -0.67,-2.56 -1.24,-5.15 -1.72,-7.75 3.9,-1.89 8.19,-3.52 11.04,-6.95 -1.15,-4.22 -3.64,-7.91 -5.36,-11.9 -4.12,3.92 -9.36,6.33 -14.83,7.69 -1.29,-2.56 -2.5,-5.16 -3.63,-7.79 5.28,-2.08 11.01,-4.6 13.7,-9.95 -0.47,-2.33 -1.55,-4.47 -2.39,-6.68 -3.45,3.56 -7.64,6.42 -12.49,7.68 -1.26,-2.69 -2.45,-5.4 -3.61,-8.13 4.39,-2.92 8.76,-6.2 11.56,-10.76 -0.47,-3.07 -1.59,-6.01 -2.72,-8.89 -3.55,2.75 -7.14,5.69 -11.59,6.83 -1.86,-2.42 -2.64,-5.45 -3.65,-8.28 4.69,-2.11 9.29,-5.02 12.01,-9.51 -0.38,-3.94 -1.6,-7.72 -2.44,-11.57 -3.68,1.69 -7.49,3.13 -11.45,4.02 -1.14,-3 -2.27,-6.01 -3.02,-9.13 4.41,-1.44 8.66,-3.3 12.72,-5.53 -0.28,-3.25 -0.6,-6.49 -0.97,-9.72 -3.54,2.02 -7.43,3.38 -11.53,3.65 -0.16,-3.65 0.19,-7.3 0.46,-10.95 3.85,-0.04 7.51,-1.28 10.85,-3.13 0.15,-3.12 0.22,-6.24 0.3,-9.35 -3.25,1.49 -6.74,2.33 -10.32,2.39 -0.57,-3.24 -1.15,-6.52 -0.84,-9.82 4.3,-0.32 8.49,-1.26 12.54,-2.73 0.51,-3.07 1.14,-6.12 1.67,-9.18 -3.06,0.83 -6.14,1.6 -9.31,1.8 -0.08,-3.72 0.11,-7.45 0.96,-11.08 4,0.32 8.16,-0.22 11.43,-2.74 1.92,-3.74 2.94,-7.88 4.78,-11.68 -2.88,1.03 -5.81,1.94 -8.82,2.53 0.49,-3.2 1.46,-6.56 3.85,-8.89 2.98,-2.43 6.93,-3.04 10.22,-4.9 2.06,-2.53 3.42,-5.54 5.06,-8.35 -2.17,-0.06 -4.38,-0.34 -6.52,0.08 -1.78,1.5 -3.03,3.51 -4.44,5.34 C 24.96,122.34 10.94,158.59 7.48,195.96 7.54,202 6.25,207.95 6.49,214 c -0.09,23.36 3.46,46.77 10.85,68.96 15.25,46.14 47.14,86.55 88.5,112.06"
       style="fill:#fefefe;fill-opacity:1;fill-rule:nonzero;stroke:none"
       id="path32"
       inkscape:connector-curvature="0" /><path
       d="m 307.59,390.26 c 6.02,2.23 12.63,2.4 18.93,1.41 0.08,-1.31 0.17,-2.63 0.26,-3.95 -6.94,0.06 -14.07,0.48 -20.61,-2.3 0.16,1.63 -0.8,4.27 1.42,4.84"
       style="fill:#c4081b;fill-opacity:1;fill-rule:nonzero;stroke:none"
       id="path34"
       inkscape:connector-curvature="0" /><path
       d="m 330.22,390 c 5.23,-0.22 10.13,-2.7 13.31,-6.86 -4.78,1.41 -10.41,2.32 -13.31,6.86"
       style="fill:#c4081b;fill-opacity:1;fill-rule:nonzero;stroke:none"
       id="path36"
       inkscape:connector-curvature="0" /><path
       d="m 117.32,383.55 c 6.69,4.85 15.28,5.28 23.21,6.19 0.03,-1 0.09,-3.02 0.12,-4.03 -8.37,-0.73 -16.36,-3.27 -24.19,-6.16 0.02,1.33 -0.55,3.15 0.86,4"
       style="fill:#c4081b;fill-opacity:1;fill-rule:nonzero;stroke:none"
       id="path38"
       inkscape:connector-curvature="0" /><path
       d="m 104.31,385.73 c 2.39,-0.05 4.81,0.06 7.18,-0.38 0.77,-1.38 1.27,-2.88 1.81,-4.35 -3.57,0.26 -7.01,1.6 -8.99,4.73"
       style="fill:#c4081b;fill-opacity:1;fill-rule:nonzero;stroke:none"
       id="path40"
       inkscape:connector-curvature="0" /><path
       d="m 331.27,385.04 c 4.88,-1.63 8.94,-4.89 13.65,-6.85 0.97,1.17 1.83,2.43 2.71,3.68 7.52,-6.21 14.78,-12.73 21.49,-19.82 36.52,-37.66 58.1,-89.55 58.52,-142.04 0.6,-34.65 -7.44,-69.45 -23.35,-100.26 -2.9,-5.69 -6.39,-11.05 -9.19,-16.79 0.77,2.81 1.47,5.65 1.74,8.56 -5.23,-1.24 -10.52,-0.5 -15.75,0.26 0.72,4.62 1.6,9.2 2.39,13.81 6.06,-0.69 11.89,-2.52 17.91,-3.42 -0.16,2.77 0.33,5.74 -1.07,8.27 -4.75,2.93 -10.41,3.99 -15.9,4.48 0.26,4.91 0.59,9.82 0.79,14.74 5.85,-0.64 11.5,-2.35 17.28,-3.41 -0.16,2.93 -0.48,5.85 -0.98,8.75 -5.28,2.08 -10.77,3.63 -16.44,4.13 -0.3,4.9 -0.52,9.81 -0.75,14.72 5.89,-0.2 11.6,-1.72 17.38,-2.69 -0.07,2.63 -0.06,5.29 -0.64,7.87 -5.28,3.23 -11.62,3.89 -17.66,4.25 -0.55,4.91 -1.22,9.8 -1.84,14.7 6,-0.21 11.82,-1.68 17.71,-2.67 -0.33,2.66 -0.42,5.36 -1.09,7.96 -5.51,3.09 -11.96,3.93 -18.18,4.02 -0.84,4.4 -1.75,8.79 -2.56,13.19 5.79,0.01 11.51,-0.9 17.26,-1.46 -0.3,2.66 -0.24,5.53 -1.54,7.95 -5.56,2.46 -11.79,2.95 -17.79,2.57 -1.02,3.72 -1.97,7.46 -2.93,11.19 5.81,0.07 11.53,-0.89 17.29,-1.44 -0.32,2.64 -0.52,5.36 -1.5,7.85 -5.65,2.82 -12.12,2.8 -18.28,2.79 -1.43,3.59 -2.3,7.36 -3.38,11.06 5.78,0.16 11.5,-0.68 17.22,-1.37 -0.32,2.63 -0.52,5.31 -1.36,7.84 -5.88,2.74 -12.55,3.19 -18.93,2.68 -0.96,2.95 -1.96,5.9 -2.94,8.84 4.92,-1.13 9.53,-3.18 14.34,-4.64 0.91,2.84 2.29,7.68 -1.21,9.21 -5.08,3.09 -10.92,4.71 -16.79,5.38 -1.42,3.78 -2.91,7.53 -4.27,11.32 5.03,-1.09 9.78,-3.12 14.64,-4.78 1.2,2.34 0.99,5.09 0.87,7.63 -5.28,4.82 -12.72,5.96 -19.48,7.33 -1.65,3.16 -2.81,6.55 -4.17,9.85 5.42,-1.04 10.42,-3.42 15.72,-4.86 0.47,2.6 0.8,5.33 0.31,7.94 -5.61,4.17 -12.6,6.05 -19.47,6.73 -1.08,3.59 -2.16,7.19 -3.1,10.82 6.28,-1.2 11.8,-4.46 17.37,-7.41 0.49,2.96 0.84,5.94 1.14,8.92 -6.35,3.34 -13.18,6.5 -20.53,6.23 -0.64,3.02 -1.3,6.04 -1.8,9.09 3.55,-0.51 7.08,-1.47 10.08,-3.5 1.37,-0.67 2.63,-1.98 4.26,-1.82 2.05,2.18 3.3,4.94 4.59,7.6 -5.94,4.48 -13.33,5.82 -20.57,6.3 -0.11,1.83 -0.22,3.66 -0.31,5.49 5.08,-1.11 9.76,-3.42 13.89,-6.56 1.31,2.27 2.58,4.55 3.76,6.88 -4.92,4.88 -11.52,8.03 -18.56,7.66 -0.01,1.75 -0.01,3.5 0,5.25"
       style="fill:#fefefe;fill-opacity:1;fill-rule:nonzero;stroke:none"
       id="path42"
       inkscape:connector-curvature="0" /><path
       d="m 308.83,372.39 c 0.46,4.18 4.89,4.92 8.2,5.68 3.89,0.88 7.93,0.37 11.66,-0.94 -1.67,-1.28 -3.43,-2.76 -5.69,-2.49 -4.84,0.13 -9.56,-0.85 -14.17,-2.25"
       style="fill:#c4081b;fill-opacity:1;fill-rule:nonzero;stroke:none"
       id="path44"
       inkscape:connector-curvature="0" /><path
       d="m 331.3,375.09 c 1.08,2.76 4.52,1.4 6.73,1.23 3.79,-0.49 7.16,-2.69 8.49,-6.38 -5.21,1.26 -10.34,2.93 -15.22,5.15"
       style="fill:#c4081b;fill-opacity:1;fill-rule:nonzero;stroke:none"
       id="path46"
       inkscape:connector-curvature="0" /><path
       d="m 96.64,371.31 c 5.29,2.01 12.36,-1.43 12.45,-7.49 -4.65,1.52 -9.06,3.9 -12.45,7.49"
       style="fill:#c4081b;fill-opacity:1;fill-rule:nonzero;stroke:none"
       id="path48"
       inkscape:connector-curvature="0" /><path
       d="m 112.48,367.49 c 6.99,2.28 14.74,5.76 22.09,3.05 0.21,-1.41 0.25,-2.84 0.27,-4.26 -7.59,0.3 -15.37,0.62 -22.57,-2.24 0.07,1.15 0.14,2.3 0.21,3.45"
       style="fill:#c4081b;fill-opacity:1;fill-rule:nonzero;stroke:none"
       id="path50"
       inkscape:connector-curvature="0" /><path
       d="m 312.48,361.16 c 3.44,1.26 7.09,1.73 10.66,2.54 2.66,-0.83 8.08,-0.91 6.4,-5.08 -1.52,-0.01 -3.03,0.07 -4.54,0.16 -4.19,-0.3 -8.34,-1.03 -12.55,-1.06 0.01,0.86 0.02,2.58 0.03,3.44"
       style="fill:#c4081b;fill-opacity:1;fill-rule:nonzero;stroke:none"
       id="path52"
       inkscape:connector-curvature="0" /><path
       d="m 332.52,361.14 c 3.47,4.35 9.36,1.54 13.55,-0.03 2.42,-0.61 2.48,-3.23 3.04,-5.2 -5.66,1.33 -11.01,3.64 -16.59,5.23"
       style="fill:#c4081b;fill-opacity:1;fill-rule:nonzero;stroke:none"
       id="path54"
       inkscape:connector-curvature="0" /><path
       d="m 92.14,349.82 c 2.84,2.05 6.51,-0.79 8.8,-2.7 1.93,-1.15 1.57,-3.52 0.4,-5.09 -2.88,1.14 -5.53,2.75 -8.22,4.28 -1.19,0.47 -2.63,2.7 -0.98,3.51"
       style="fill:#c4081b;fill-opacity:1;fill-rule:nonzero;stroke:none"
       id="path56"
       inkscape:connector-curvature="0" /><path
       d="m 104.59,342.45 c 4.16,5.75 11.59,8.02 18.4,8.11 1.79,-0.06 5.09,-0.31 4.62,-2.84 0.02,-1.01 -0.07,-2.01 -0.27,-3 -2.74,-0.64 -5.57,-0.27 -8.35,-0.37 -4.87,-0.04 -9.55,-1.62 -14.4,-1.9"
       style="fill:#c4081b;fill-opacity:1;fill-rule:nonzero;stroke:none"
       id="path58"
       inkscape:connector-curvature="0" /><path
       d="m 336.39,345.34 c 5.36,0.84 10.92,-0.45 15.45,-3.41 1.36,-0.94 1.7,-2.73 2.51,-4.09 -6.03,2.32 -12.88,3.26 -17.96,7.5"
       style="fill:#c4081b;fill-opacity:1;fill-rule:nonzero;stroke:none"
       id="path60"
       inkscape:connector-curvature="0" /><path
       d="m 320.31,339.75 c 4.62,0.69 9.11,2.06 13.32,4.1 -0.1,-1.61 1.09,-3.89 -0.64,-4.97 -3.98,-2.72 -9.06,-3.81 -13.77,-2.59 0.28,0.86 0.82,2.59 1.09,3.46"
       style="fill:#c4081b;fill-opacity:1;fill-rule:nonzero;stroke:none"
       id="path62"
       inkscape:connector-curvature="0" /><path
       d="m 82.71,330.62 c 4.44,0.11 9.75,-0.56 12.39,-4.62 1.25,-1.73 -0.22,-3.57 -1.49,-4.76 -3.94,2.66 -8.91,4.76 -10.9,9.38"
       style="fill:#c4081b;fill-opacity:1;fill-rule:nonzero;stroke:none"
       id="path64"
       inkscape:connector-curvature="0" /><path
       d="m 102.68,328.32 c 5.21,1.69 10.86,2.49 16.32,1.85 2.6,-0.59 1.11,-3.05 0.37,-4.62 -1.71,-2.2 -4.86,-1.72 -7.32,-1.94 -4.82,0.02 -9.53,-1.15 -14.33,-1.41 1.15,2.36 2.13,5.31 4.96,6.12"
       style="fill:#c4081b;fill-opacity:1;fill-rule:nonzero;stroke:none"
       id="path66"
       inkscape:connector-curvature="0" /><path
       d="m 341.91,326.59 c 5.67,0.36 12.15,-0.75 15.89,-5.45 l -0.23,-1.67 c -5.59,1.03 -12.52,1.65 -15.66,7.12"
       style="fill:#c4081b;fill-opacity:1;fill-rule:nonzero;stroke:none"
       id="path68"
       inkscape:connector-curvature="0" /><path
       d="m 322.97,318 c 5.73,0.75 10.77,3.61 16.11,5.58 1.42,-0.81 1.7,-2.41 1.39,-3.9 -4.53,-3.24 -9.95,-5.61 -15.53,-6.13 -0.95,1.34 -1.39,2.94 -1.97,4.45"
       style="fill:#c4081b;fill-opacity:1;fill-rule:nonzero;stroke:none"
       id="path70"
       inkscape:connector-curvature="0" /><path
       d="m 77.63,313.1 c 3.96,-1.1 9.5,-2.51 10.25,-7.28 -0.4,-0.34 -1.2,-1.03 -1.6,-1.37 -3.07,1.2 -5.9,2.92 -8.83,4.42 0.05,1.06 0.13,3.18 0.18,4.23"
       style="fill:#c4081b;fill-opacity:1;fill-rule:nonzero;stroke:none"
       id="path72"
       inkscape:connector-curvature="0" /><path
       d="m 93.21,308 c 6.65,3.02 14.47,3.25 21.5,1.43 -1.43,-1.35 -2.18,-4.25 -4.64,-3.89 -5.77,0.24 -11.47,-0.67 -17.2,-1.07 -2.79,-0.58 -1.17,3.14 0.34,3.53"
       style="fill:#c4081b;fill-opacity:1;fill-rule:nonzero;stroke:none"
       id="path74"
       inkscape:connector-curvature="0" /><path
       d="m 352.59,302.72 c -2.14,0.79 -1.89,3.5 -1.55,5.29 5.26,-1.62 11.28,-2.61 15,-7.09 -0.49,-0.33 -1.45,-1 -1.93,-1.34 -3.93,0.62 -7.78,1.79 -11.52,3.14"
       style="fill:#c4081b;fill-opacity:1;fill-rule:nonzero;stroke:none"
       id="path76"
       inkscape:connector-curvature="0" /><path
       d="m 345.39,301.58 c 0.66,0.23 1.99,0.67 2.65,0.9 1.33,-1.35 2.16,-3.48 0.27,-4.79 -3.87,-2.88 -8.58,-4.79 -13.37,-5.37 -2.21,-0.78 -3.05,1.2 -3.85,2.82 3.95,3.55 9.67,4.01 14.3,6.44"
       style="fill:#c4081b;fill-opacity:1;fill-rule:nonzero;stroke:none"
       id="path78"
       inkscape:connector-curvature="0" /><path
       d="m 66.85,293.02 c 4.59,-0.82 9.42,-2.61 11.82,-6.91 -0.6,-1.63 -1.79,-2.94 -2.84,-4.29 -2.96,3.37 -6.64,5.96 -10.57,8.07 0.4,0.78 1.19,2.34 1.59,3.13"
       style="fill:#c4081b;fill-opacity:1;fill-rule:nonzero;stroke:none"
       id="path80"
       inkscape:connector-curvature="0" /><path
       d="m 89.27,291.95 c 4.63,0.85 9.41,0.72 14.07,0.21 1.13,-2.15 -0.67,-4.95 -3.09,-4.75 -5.14,0.12 -10.31,-0.16 -15.43,0.27 l -0.98,1.38 c 1.59,1.31 3.37,2.49 5.43,2.89"
       style="fill:#c4081b;fill-opacity:1;fill-rule:nonzero;stroke:none"
       id="path82"
       inkscape:connector-curvature="0" /><path
       d="m 358.03,285.74 c 4.99,-0.19 10.67,-0.87 14.28,-4.71 0.09,-0.66 0.27,-1.99 0.36,-2.65 -5.35,0.92 -12.56,1.27 -14.64,7.36"
       style="fill:#c4081b;fill-opacity:1;fill-rule:nonzero;stroke:none"
       id="path84"
       inkscape:connector-curvature="0" /><path
       d="m 340.41,277.48 c 5.09,1.6 10.22,3.15 15.01,5.55 0.18,-1.65 0.37,-3.3 0.54,-4.96 -4.84,-2 -9.66,-4.71 -15.04,-4.65 -1.52,0.89 -2.68,3.15 -0.51,4.06"
       style="fill:#c4081b;fill-opacity:1;fill-rule:nonzero;stroke:none"
       id="path86"
       inkscape:connector-curvature="0" /><path
       d="m 57.23,271.67 c 2.49,1.88 5.58,-0.26 7.9,-1.49 2.63,-1.21 2.54,-4.33 3.04,-6.74 -3.52,1.2 -7.12,2.54 -9.91,5.07 -1.09,0.69 -0.97,2.05 -1.03,3.16"
       style="fill:#c4081b;fill-opacity:1;fill-rule:nonzero;stroke:none"
       id="path88"
       inkscape:connector-curvature="0" /><path
       d="m 74.4,269.4 c 5.8,2.87 12.63,2.49 18.89,1.76 2.15,-1.64 0.46,-4.62 0.38,-6.83 -7.21,1.88 -14.77,1.66 -21.96,-0.2 0.71,1.8 0.71,4.3 2.69,5.27"
       style="fill:#c4081b;fill-opacity:1;fill-rule:nonzero;stroke:none"
       id="path90"
       inkscape:connector-curvature="0" /><path
       d="m 364.6,267.56 c 5.62,0.54 11.39,-0.01 16.47,-2.66 -3.88,-2.76 -8.8,-1.52 -13.16,-1.18 -1.97,0.1 -2.34,2.6 -3.31,3.84"
       style="fill:#c4081b;fill-opacity:1;fill-rule:nonzero;stroke:none"
       id="path92"
       inkscape:connector-curvature="0" /><path
       d="m 360.2,263.01 c 1.25,1.38 3.74,-2.11 2.22,-3.02 -1.91,-2.89 -5.3,-4.19 -8.36,-5.45 -2.34,-0.77 -5.05,-1.85 -7.39,-0.54 0.13,1.32 0.14,3.14 1.72,3.58 3.99,1.69 7.97,3.41 11.81,5.43"
       style="fill:#c4081b;fill-opacity:1;fill-rule:nonzero;stroke:none"
       id="path94"
       inkscape:connector-curvature="0" /><path
       d="m 47.12,252.81 c 4.76,-0.92 11.31,-3.89 10.65,-9.73 -4.83,1.3 -9.03,4.56 -12.65,7.91 0.5,0.45 1.5,1.37 2,1.82"
       style="fill:#c4081b;fill-opacity:1;fill-rule:nonzero;stroke:none"
       id="path96"
       inkscape:connector-curvature="0" /><path
       d="m 66.07,249.86 c 4.47,1.55 9.32,2.24 14.03,1.59 1.45,-0.38 3.49,-1.66 1.95,-3.28 -0.99,-2.51 -4,-1.26 -6.03,-1.39 -4.71,0.52 -9.28,-1.08 -13.93,-1.52 1.19,1.58 1.77,4.1 3.98,4.6"
       style="fill:#c4081b;fill-opacity:1;fill-rule:nonzero;stroke:none"
       id="path98"
       inkscape:connector-curvature="0" /><path
       d="m 372.05,246.98 c 4.73,1.11 10.86,0.33 14.72,-2.95 -2.04,-2.81 -5.91,-1.38 -8.83,-1.42 -2.57,0.6 -6.82,0.14 -6.92,3.74 l 1.03,0.63"
       style="fill:#c4081b;fill-opacity:1;fill-rule:nonzero;stroke:none"
       id="path100"
       inkscape:connector-curvature="0" /><path
       d="m 366.52,241.25 c 3.22,2.2 4.32,-4.12 1.49,-5.17 -3.8,-2.3 -7.84,-4.39 -12.11,-5.65 -2.68,-1.07 -5.05,3.62 -2.19,4.67 4.24,2.11 8.49,4.23 12.81,6.15"
       style="fill:#c4081b;fill-opacity:1;fill-rule:nonzero;stroke:none"
       id="path102"
       inkscape:connector-curvature="0" /><path
       d="m 39.8,236.21 c 3.85,-0.55 7.8,-2.13 9.93,-5.58 1.3,-1.53 0.96,-3.74 -0.03,-5.35 -2.79,-0.23 -4.54,2.37 -6.4,4.03 -1.99,1.8 -3.1,4.26 -3.5,6.9"
       style="fill:#c4081b;fill-opacity:1;fill-rule:nonzero;stroke:none"
       id="path104"
       inkscape:connector-curvature="0" /><path
       d="m 54.85,229.29 c 4.83,2.58 10.82,2.79 16.06,1.45 2.04,-0.32 3.1,-2.25 2.81,-4.21 -6.63,-0.37 -13.3,-0.28 -19.85,-1.59 0.3,1.45 0.53,2.93 0.98,4.35"
       style="fill:#c4081b;fill-opacity:1;fill-rule:nonzero;stroke:none"
       id="path106"
       inkscape:connector-curvature="0" /><path
       d="m 375.26,225.04 c 3.8,3.61 9.1,1.92 13.52,0.71 1.63,-0.35 1.99,-2.23 2.87,-3.41 -5.5,0.26 -11.87,-1.32 -16.39,2.7"
       style="fill:#c4081b;fill-opacity:1;fill-rule:nonzero;stroke:none"
       id="path108"
       inkscape:connector-curvature="0" /><path
       d="m 358.22,214.15 c 5.2,2.71 10.8,4.7 15.47,8.37 0.15,-2.19 1.49,-4.97 -0.71,-6.58 -3.56,-2.59 -7.72,-4.46 -12.01,-5.44 -2.45,-0.91 -2.98,1.9 -2.75,3.65"
       style="fill:#c4081b;fill-opacity:1;fill-rule:nonzero;stroke:none"
       id="path110"
       inkscape:connector-curvature="0" /><path
       d="m 35.03,215.76 c 2.92,-1.04 5.68,-2.69 7.79,-4.97 1.52,-1.59 0.6,-4.02 0.83,-5.97 -3.45,2.19 -7.2,4.17 -9.92,7.29 -0.84,1.36 0.59,2.62 1.3,3.65"
       style="fill:#c4081b;fill-opacity:1;fill-rule:nonzero;stroke:none"
       id="path112"
       inkscape:connector-curvature="0" /><path
       d="m 50.06,209.38 c 4.73,1.79 10.33,1.91 15.03,-0.01 2.22,-0.75 1.44,-2.96 1.14,-4.69 -6.47,-0.4 -12.99,0.14 -19.49,-0.47 0.66,1.93 0.98,4.56 3.32,5.17"
       style="fill:#c4081b;fill-opacity:1;fill-rule:nonzero;stroke:none"
       id="path114"
       inkscape:connector-curvature="0" /><path
       d="m 381.42,204.67 c 5.15,-0.2 11.81,0.11 14.86,-4.93 -4.76,-1.87 -9.89,0.72 -14.8,0.94 -0.01,1 -0.04,3 -0.06,3.99"
       style="fill:#c4081b;fill-opacity:1;fill-rule:nonzero;stroke:none"
       id="path116"
       inkscape:connector-curvature="0" /><path
       d="m 375.39,198.61 c 2.53,1.14 3.97,-1.35 2.77,-3.55 -3.73,-3.03 -8.39,-5.3 -13.22,-5.64 -2.2,-0.37 -3.72,1.64 -3.66,3.66 4.82,1.56 9.42,3.66 14.11,5.53"
       style="fill:#c4081b;fill-opacity:1;fill-rule:nonzero;stroke:none"
       id="path118"
       inkscape:connector-curvature="0" /><path
       d="m 29.27,188.81 c 0.57,1.96 3.08,0.46 4.43,0.33 2.57,-0.92 5.68,-2.58 5.11,-5.86 -3.64,0.11 -8.21,0.32 -10.48,3.65 0.24,0.47 0.71,1.41 0.94,1.88"
       style="fill:#c4081b;fill-opacity:1;fill-rule:nonzero;stroke:none"
       id="path120"
       inkscape:connector-curvature="0" /><path
       d="m 42.2,184.83 c 1.1,1.57 1.48,4.3 3.73,4.64 5.31,0.54 10.74,-0.81 15.6,-2.92 0.74,-1.39 1.4,-3.1 -0.68,-3.61 -6.19,0.85 -12.39,1.69 -18.65,1.89"
       style="fill:#c4081b;fill-opacity:1;fill-rule:nonzero;stroke:none"
       id="path122"
       inkscape:connector-curvature="0" /><path
       d="m 384.4,180.83 c 4.82,-0.55 9.96,-0.92 14.1,-3.73 -0.03,-0.61 -0.1,-1.85 -0.13,-2.46 -4.69,0.29 -9.3,1.28 -13.96,1.91 0,1.07 0,3.21 -0.01,4.28"
       style="fill:#c4081b;fill-opacity:1;fill-rule:nonzero;stroke:none"
       id="path124"
       inkscape:connector-curvature="0" /><path
       d="m 378.18,174.15 c 0.63,0.16 1.9,0.47 2.53,0.63 0.35,-2.37 -0.28,-4.91 -2.64,-5.94 -3.97,-1.95 -8.68,-4.47 -13.16,-2.9 -1.75,2.46 1.31,3.59 3.12,4.41 3.33,1.38 6.69,2.75 10.15,3.8"
       style="fill:#c4081b;fill-opacity:1;fill-rule:nonzero;stroke:none"
       id="path126"
       inkscape:connector-curvature="0" /><path
       d="m 28.48,169.71 c 3.55,-1.35 8.29,-2.79 8.36,-7.45 -2.91,0.58 -5.72,1.53 -8.53,2.46 0.06,1.67 0.11,3.33 0.17,4.99"
       style="fill:#c4081b;fill-opacity:1;fill-rule:nonzero;stroke:none"
       id="path128"
       inkscape:connector-curvature="0" /><path
       d="m 42.61,167.57 c 4.23,1.7 9,1.1 13.43,0.67 2.48,-0.04 2.46,-3 3.13,-4.69 -6.46,0.17 -12.9,-0.3 -19.26,-1.42 0.48,1.94 0.42,4.63 2.7,5.44"
       style="fill:#c4081b;fill-opacity:1;fill-rule:nonzero;stroke:none"
       id="path130"
       inkscape:connector-curvature="0" /><path
       d="m 385.36,156.35 c 4.64,-0.03 9.18,-1.09 13.48,-2.82 -0.15,-1.32 -0.29,-2.65 -0.43,-3.99 -4.34,0.99 -8.7,1.88 -13.08,2.7 0.01,1.37 0.01,2.74 0.03,4.11"
       style="fill:#c4081b;fill-opacity:1;fill-rule:nonzero;stroke:none"
       id="path132"
       inkscape:connector-curvature="0" /><path
       d="m 40.57,147.04 c 2.6,2.94 6.78,3.32 10.46,3.37 2.98,-0.05 6.18,-0.11 8.86,-1.59 0.71,-1.43 0.81,-3.06 1.15,-4.61 -6.54,0.31 -13,-0.63 -19.42,-1.71 -0.55,1.46 -0.94,2.99 -1.05,4.54"
       style="fill:#c4081b;fill-opacity:1;fill-rule:nonzero;stroke:none"
       id="path134"
       inkscape:connector-curvature="0" /><path
       d="m 364.99,145.86 c 5.83,1.31 11.31,3.72 17.04,5.35 -0.2,-1.08 -0.62,-3.23 -0.82,-4.31 -3.84,-2.84 -8.51,-4.77 -13.24,-5.42 -2.77,-0.54 -2.34,2.62 -2.98,4.38"
       style="fill:#c4081b;fill-opacity:1;fill-rule:nonzero;stroke:none"
       id="path136"
       inkscape:connector-curvature="0" /><path
       d="m 29.35,144.46 c -1.16,1.52 -1.86,3.33 0.6,3.9 3.45,0.93 6.07,-2.17 8.63,-3.89 -2.96,-1.04 -6.35,-1.59 -9.23,-0.01"
       style="fill:#c4081b;fill-opacity:1;fill-rule:nonzero;stroke:none"
       id="path138"
       inkscape:connector-curvature="0" /><path
       d="m 384.35,131.62 c 1.35,1.31 3.47,0.28 5.12,0.16 2.67,-0.66 5.51,-1.23 7.78,-2.87 2.02,-1.11 -0.78,-2.88 -2,-2.55 -4.02,0.18 -8.03,1 -11.79,2.43 0.22,0.71 0.67,2.12 0.89,2.83"
       style="fill:#c4081b;fill-opacity:1;fill-rule:nonzero;stroke:none"
       id="path140"
       inkscape:connector-curvature="0" /><path
       d="m 34.22,127.81 c 2.74,1.81 7.23,-0.85 7.82,-4.12 -2.1,-1.65 -4.79,-0.47 -6.97,0.32 -1.9,0.17 -2.18,2.81 -0.85,3.8"
       style="fill:#c4081b;fill-opacity:1;fill-rule:nonzero;stroke:none"
       id="path142"
       inkscape:connector-curvature="0" /><path
       d="m 48.14,125.87 c 6.34,2.63 13.38,2.91 20.06,1.53 -0.4,-1.48 -0.86,-2.95 -1.38,-4.39 -1.76,-0.93 -3.88,-0.48 -5.79,-0.61 -5.2,0.26 -10.32,-0.72 -15.46,-1.23 0.8,1.51 0.66,4.03 2.57,4.7"
       style="fill:#c4081b;fill-opacity:1;fill-rule:nonzero;stroke:none"
       id="path144"
       inkscape:connector-curvature="0" /><path
       d="m 362.37,125.36 c 5.95,0.33 11.78,1.6 17.48,3.3 -0.07,-1.68 -0.09,-3.37 -0.39,-5.04 -5.11,-3.06 -11.43,-2.79 -17.17,-3.45 0.02,1.73 0.05,3.47 0.08,5.19"
       style="fill:#c4081b;fill-opacity:1;fill-rule:nonzero;stroke:none"
       id="path146"
       inkscape:connector-curvature="0" /><path
       d="m 379.37,108.46 c 4.47,0.18 9.11,0.38 13.41,-1.11 -0.13,-0.92 -0.39,-2.75 -0.52,-3.66 -4.73,-0.8 -10.24,0.43 -12.89,4.77"
       style="fill:#c4081b;fill-opacity:1;fill-rule:nonzero;stroke:none"
       id="path148"
       inkscape:connector-curvature="0" /><path
       d="m 52.64,105.27 c 6,0.54 11.86,2.25 17.9,2.41 0.02,-0.7 0.05,-2.11 0.07,-2.81 -4.64,-2.92 -10.25,-4.74 -15.77,-4.35 -0.84,1.54 -1.53,3.15 -2.2,4.75"
       style="fill:#c4081b;fill-opacity:1;fill-rule:nonzero;stroke:none"
       id="path150"
       inkscape:connector-curvature="0" /><path
       d="m 359.91,101.59 c -2.93,-0.77 -3.52,3.98 -1.02,4.78 4,0.05 7.91,-0.99 11.87,-1.46 1.88,0.36 4,1.14 5.27,-0.89 -4.26,-4.04 -10.81,-2.41 -16.12,-2.43"
       style="fill:#c4081b;fill-opacity:1;fill-rule:nonzero;stroke:none"
       id="path152"
       inkscape:connector-curvature="0" /><path
       d="m 43.24,103.45 c 2.87,0.61 6.43,0.96 7.53,-2.55 -2.53,-2.93 -5.38,1.13 -7.53,2.55"
       style="fill:#c4081b;fill-opacity:1;fill-rule:nonzero;stroke:none"
       id="path154"
       inkscape:connector-curvature="0" /><path
       d="m 378.79,103.59 c 4.58,-1.84 9.4,-3.16 14.36,-3.15 -2.47,-3.11 -4.38,-6.66 -7.15,-9.52 -3.89,-1.05 -7.98,-0.48 -11.95,-0.6 1.88,4.31 3.34,8.79 4.74,13.27"
       style="fill:#fefefe;fill-opacity:1;fill-rule:nonzero;stroke:none"
       id="path156"
       inkscape:connector-curvature="0" /><path
       d="m 73.41,90.7 c 2.14,1.24 5.46,1.52 5.31,-1.85 -2.24,-3.8 -6.4,-6.41 -10.68,-7.31 -2.57,-0.47 -4.38,1.68 -3.78,4.11 2.7,2.24 5.94,3.72 9.15,5.05"
       style="fill:#c4081b;fill-opacity:1;fill-rule:nonzero;stroke:none"
       id="path158"
       inkscape:connector-curvature="0" /><path
       d="m 372.38,87.74 c 3.48,-0.16 6.96,-0.58 10.35,-1.49 -1.36,-0.88 -2.45,-2.3 -4.02,-2.81 -2.18,-0.15 -4.33,0.39 -6.46,0.7 0.04,1.2 0.08,2.41 0.13,3.6"
       style="fill:#c4081b;fill-opacity:1;fill-rule:nonzero;stroke:none"
       id="path160"
       inkscape:connector-curvature="0" /><path
       d="m 349.99,81.77 c -3.44,-0.43 -3.66,5.9 -0.13,5.25 5.4,-0.77 10.8,-1.57 16.26,-1.86 -3.93,-4.79 -10.67,-3.85 -16.13,-3.39"
       style="fill:#c4081b;fill-opacity:1;fill-rule:nonzero;stroke:none"
       id="path162"
       inkscape:connector-curvature="0" /><path
       d="m 54.74,82 c 0.6,1.8 2.58,2.29 4.27,2.34 1.48,-1.05 2.73,-2.38 4.03,-3.66 -2.78,-0.66 -6.67,-2.01 -8.3,1.32"
       style="fill:#c4081b;fill-opacity:1;fill-rule:nonzero;stroke:none"
       id="path164"
       inkscape:connector-curvature="0" /><path
       d="m 369.62,82.76 c 2.74,-1.08 5.55,-1.96 8.44,-2.53 -2.93,-2.84 -5.44,-6.11 -8.56,-8.75 -2.15,0.34 -4.18,1.15 -6.25,1.75 2.2,3.13 4.37,6.28 6.37,9.53"
       style="fill:#fefefe;fill-opacity:1;fill-rule:nonzero;stroke:none"
       id="path166"
       inkscape:connector-curvature="0" /><path
       d="m 59.41,76.54 c 1.61,0.37 3.23,0.73 4.84,1.09 1.95,-2.5 3.94,-4.96 5.96,-7.4 -1.62,0.06 -3.24,0.12 -4.85,0.16 -1.93,2.11 -3.91,4.16 -5.95,6.15"
       style="fill:#fefefe;fill-opacity:1;fill-rule:nonzero;stroke:none"
       id="path168"
       inkscape:connector-curvature="0" /><path
       d="m 84.31,72.9 c 1.43,1.15 2.62,0.88 3.56,-0.83 -1.71,-3.32 -5.57,-8.11 -9.7,-5.86 0,3.41 3.68,5.08 6.14,6.69"
       style="fill:#c4081b;fill-opacity:1;fill-rule:nonzero;stroke:none"
       id="path170"
       inkscape:connector-curvature="0" /><path
       d="m 335.43,71.98 c 6.68,-0.72 13.35,-1.63 19.96,-2.88 -4.9,-3.99 -11.76,-3.08 -17.29,-1.07 -1.75,0.49 -1.97,2.59 -2.67,3.95"
       style="fill:#c4081b;fill-opacity:1;fill-rule:nonzero;stroke:none"
       id="path172"
       inkscape:connector-curvature="0" /><path
       d="m 359.62,69.6 c -0.44,2.54 2.89,1.93 4.34,1.27 2.23,-0.49 2.51,-2.88 3.2,-4.67 -2.61,0.35 -7.64,-0.53 -7.54,3.4"
       style="fill:#c4081b;fill-opacity:1;fill-rule:nonzero;stroke:none"
       id="path174"
       inkscape:connector-curvature="0" /><path
       d="m 343.76,51.98 c 4.68,4.44 9.06,9.17 13.54,13.81 1.69,-0.44 3.26,-1.25 4.87,-1.94 -4.54,-4.21 -9.42,-8.04 -13.85,-12.38 -1.53,0.17 -3.05,0.34 -4.56,0.51"
       style="fill:#fefefe;fill-opacity:1;fill-rule:nonzero;stroke:none"
       id="path176"
       inkscape:connector-curvature="0" /><path
       d="m 72.48,63.71 c 1.58,-0.26 3.46,-0.14 4.53,-1.6 6.39,-6.67 12.95,-13.16 20.14,-18.97 -6.2,4.1 -11.8,8.99 -17.53,13.7 -2.57,2.08 -5,4.34 -7.14,6.87"
       style="fill:#fefefe;fill-opacity:1;fill-rule:nonzero;stroke:none"
       id="path178"
       inkscape:connector-curvature="0" /><path
       d="m 90.7,52.62 c 2.85,3.3 6.01,6.66 10.42,7.74 -0.85,-3.21 -1.75,-6.88 -4.69,-8.85 -1.93,-0.67 -3.89,0.71 -5.73,1.11"
       style="fill:#c4081b;fill-opacity:1;fill-rule:nonzero;stroke:none"
       id="path180"
       inkscape:connector-curvature="0" /><path
       d="m 322.28,52.27 c -1.91,1.44 -5.22,3.66 -3.48,6.39 2.44,0.34 4.28,-1.45 6.19,-2.64 3.29,-2.36 7.09,-3.81 10.75,-5.48 -4.46,-1.93 -9.66,-1.28 -13.46,1.73"
       style="fill:#c4081b;fill-opacity:1;fill-rule:nonzero;stroke:none"
       id="path182"
       inkscape:connector-curvature="0" /><path
       d="m 338.66,49.65 c 1.71,-0.07 3.43,-0.11 5.15,-0.3 0.35,-3.34 -3.24,-2.85 -5.5,-3.27 0.11,1.2 0.23,2.38 0.35,3.57"
       style="fill:#c4081b;fill-opacity:1;fill-rule:nonzero;stroke:none"
       id="path184"
       inkscape:connector-curvature="0" /><path
       d="m 110.42,48.14 c 1.58,-0.35 3.15,-0.7 4.73,-1.05 -2.06,-2.79 -4.44,-5.93 -8.11,-6.51 -1.7,0.23 -3.04,1.47 -4.51,2.24 2.67,1.72 5.31,3.48 7.89,5.32"
       style="fill:#c4081b;fill-opacity:1;fill-rule:nonzero;stroke:none"
       id="path186"
       inkscape:connector-curvature="0" /><path
       d="m 302.49,46.21 c 6.05,-0.84 10.75,-4.98 15.87,-7.93 -6.03,-0.32 -14.02,1.22 -15.87,7.93"
       style="fill:#c4081b;fill-opacity:1;fill-rule:nonzero;stroke:none"
       id="path188"
       inkscape:connector-curvature="0" /><path
       d="m 326.71,38.45 c 3.56,2.63 6.86,7.06 11.83,6.1 -3.69,-2.38 -7.08,-6.35 -11.83,-6.1"
       style="fill:#fefefe;fill-opacity:1;fill-rule:nonzero;stroke:none"
       id="path190"
       inkscape:connector-curvature="0" /><path
       d="m 118.34,30.75 c 2.78,2.24 5.91,3.98 9.16,5.46 0.34,-0.91 1.01,-2.74 1.35,-3.65 -3.14,-2.16 -6.8,-3.71 -10.51,-1.81"
       style="fill:#c4081b;fill-opacity:1;fill-rule:nonzero;stroke:none"
       id="path192"
       inkscape:connector-curvature="0" /><path
       d="m 287.11,35.17 c 4.47,-2.1 9.13,-3.99 13.02,-7.1 -5.13,-4.44 -12.34,1.47 -13.02,7.1"
       style="fill:#c4081b;fill-opacity:1;fill-rule:nonzero;stroke:none"
       id="path194"
       inkscape:connector-curvature="0" /><path
       d="m 309.78,27.81 c 2.81,2.23 5.96,3.96 9.08,5.71 0.6,-0.21 1.22,-0.43 1.83,-0.66 -3.6,-1.76 -7.04,-3.92 -10.91,-5.05"
       style="fill:#fefefe;fill-opacity:1;fill-rule:nonzero;stroke:none"
       id="path196"
       inkscape:connector-curvature="0" /><path
       d="m 140.16,20.94 c 2.41,2.85 6,4.22 9.56,4.96 -0.37,-2.25 0.06,-5.13 -2.18,-6.55 -2.27,-1.99 -6.07,-1.1 -7.38,1.59"
       style="fill:#c4081b;fill-opacity:1;fill-rule:nonzero;stroke:none"
       id="path198"
       inkscape:connector-curvature="0" /><path
       d="m 268.36,25.95 c 4.5,-0.93 8.42,-3.44 12.54,-5.37 -1.64,-1.29 -3.54,-3 -5.74,-1.79 -3.01,1.36 -7.99,2.91 -6.8,7.16"
       style="fill:#c4081b;fill-opacity:1;fill-rule:nonzero;stroke:none"
       id="path200"
       inkscape:connector-curvature="0" /><path
       d="m 244.74,19.62 c 5.36,0.7 9.68,-3.02 14.42,-4.8 -1.18,-3.34 -5.29,-2.85 -7.92,-1.71 -2.94,1.24 -4.72,4.03 -6.5,6.51"
       style="fill:#c4081b;fill-opacity:1;fill-rule:nonzero;stroke:none"
       id="path202"
       inkscape:connector-curvature="0" /><path
       d="m 163.15,16.7 c 0.64,-0.06 1.91,-0.19 2.55,-0.25 0.51,-2.35 -1.13,-4.2 -3.48,-4.29 -1.37,1.58 -0.31,3.31 0.93,4.54"
       style="fill:#c4081b;fill-opacity:1;fill-rule:nonzero;stroke:none"
       id="path204"
       inkscape:connector-curvature="0" /><path
       d="m 227.89,14.03 c 3.03,-0.24 5.07,-2.3 6.49,-4.79 -1.59,0.18 -3.19,0.24 -4.75,0.6 -0.74,1.33 -1.2,2.79 -1.74,4.19"
       style="fill:#c4081b;fill-opacity:1;fill-rule:nonzero;stroke:none"
       id="path206"
       inkscape:connector-curvature="0" /><path
       d="m 186.22,12.7 c 2.97,-0.15 2.39,-5.33 0.1,-6.04 -1.31,0.69 -2.31,1.86 -2.85,3.23 0.16,1.44 1.51,2.35 2.75,2.81"
       style="fill:#c4081b;fill-opacity:1;fill-rule:nonzero;stroke:none"
       id="path208"
       inkscape:connector-curvature="0" /><path
       d="m 205.37,5.58 c 0.44,1.65 0.78,3.31 1.32,4.92 1.6,-0.37 3.19,-0.81 4.76,-1.33 -1.64,-1.8 -3.74,-2.98 -6.08,-3.59"
       style="fill:#c4081b;fill-opacity:1;fill-rule:nonzero;stroke:none"
       id="path210"
       inkscape:connector-curvature="0" /></g></svg>