<?xml version="1.0" encoding="UTF-8" standalone="no"?>
<!-- Created with Inkscape (http://www.inkscape.org/) -->

<svg
   xmlns:dc="http://purl.org/dc/elements/1.1/"
   xmlns:cc="http://creativecommons.org/ns#"
   xmlns:rdf="http://www.w3.org/1999/02/22-rdf-syntax-ns#"
   xmlns:svg="http://www.w3.org/2000/svg"
   xmlns="http://www.w3.org/2000/svg"
   xmlns:sodipodi="http://sodipodi.sourceforge.net/DTD/sodipodi-0.dtd"
   xmlns:inkscape="http://www.inkscape.org/namespaces/inkscape"
   id="svg2"
   version="1.1"
   inkscape:version="0.48.4 r9939"
   width="527.05945"
   height="96.064934"
    viewBox = "0 0 527 96"
   xml:space="preserve"
   sodipodi:docname="Baseball (5).pdf"><metadata
     id="metadata8"><rdf:RDF><cc:Work
         rdf:about=""><dc:format>image/svg+xml</dc:format><dc:type
           rdf:resource="http://purl.org/dc/dcmitype/StillImage" /><dc:title></dc:title></cc:Work></rdf:RDF></metadata><defs
     id="defs6"><clipPath
       clipPathUnits="userSpaceOnUse"
       id="clipPath16"><path
         d="M 0,792 612,792 612,0 0,0 0,792 z"
         id="path18"
         inkscape:connector-curvature="0" /></clipPath></defs><sodipodi:namedview
     pagecolor="#ffffff"
     bordercolor="#666666"
     borderopacity="1"
     objecttolerance="10"
     gridtolerance="10"
     guidetolerance="10"
     inkscape:pageopacity="0"
     inkscape:pageshadow="2"
     inkscape:window-width="640"
     inkscape:window-height="480"
     id="namedview4"
     showgrid="false"
     fit-margin-top="0"
     fit-margin-left="0"
     fit-margin-right="0"
     fit-margin-bottom="0"
     inkscape:zoom="0.23838384"
     inkscape:cx="261.84197"
     inkscape:cy="48.579311"
     inkscape:window-x="0"
     inkscape:window-y="0"
     inkscape:window-maximized="0"
     inkscape:current-layer="g10" /><g
     id="g10"
     inkscape:groupmode="layer"
     inkscape:label="Baseball (5)"
     transform="matrix(1.25,0,0,-1.25,-120.65803,542.48562)"><g
       id="g12"><g
         id="g14"
         clip-path="url(#clipPath16)"><path
           d="m 242.809,405.942 275.365,11.826 -289.717,5.775 179.441,5.122 c 0,0 -264.265,5.267 -266.429,5.31 -27.755,0.555 -47.745,-16.076 -44.621,-37.338 3.124,-21.262 28.157,-38.948 55.912,-39.5 4.023,-0.08 271.217,10.564 271.217,10.564 l -160.231,3.195 127.6,10.264 -156.502,3.121 217.875,17.477 -209.91,4.184 z"
           style="fill:#231f20;fill-opacity:1;fill-rule:nonzero;stroke:none"
           id="path20"
           inkscape:connector-curvature="0" /><path
           d="m 141.681,432.547 c -26.685,0.534 -45.96,-15.593 -42.97,-35.947 3.004,-20.44 27.155,-37.504 53.84,-38.036 3.095,-0.035 126.012,5.272 218.318,9.065 -46.954,0.937 -135.898,2.711 -135.898,2.711 0,0 84.039,6.551 116.527,9.34 -37.611,0.75 -152.539,3.041 -152.539,3.041 0,0 175.643,15.02 222.297,18.354 -46.127,0.92 -219.865,4.384 -219.865,4.384 0,0 205.013,9.055 270.355,11.702 -68.576,1.367 -289.862,5.779 -289.862,5.779 0,0 104.267,3.959 164.176,5.533 -73.029,1.457 -204.379,4.074 -204.379,4.074"
           style="fill:#ffffff;fill-opacity:1;fill-rule:nonzero;stroke:none"
           id="path22"
           inkscape:connector-curvature="0" /><path
           d="m 355.155,399.907 -161.798,3.226 c -0.753,1.647 -1.653,3.272 -2.699,4.866 l 178.196,8.238 -189.918,3.787 c -0.935,0.678 -1.897,1.344 -2.905,1.982 -2.012,1.274 -4.097,2.422 -6.232,3.442 l 87.662,2.972 -94.271,1.881 0.005,0.012 -8.778,0.176 c -16.733,3.234 -33.985,-0.272 -44.333,-10.326 -15.004,-14.582 -9.807,-37.395 11.611,-50.96 15.771,-9.988 35.931,-12.162 51.459,-6.799 l 98.846,5.008 -86.525,1.725 c 0.748,0.609 1.476,1.24 2.167,1.91 0.335,0.324 0.645,0.658 0.962,0.992 l 110.834,6.686 -105.131,2.095 c 0.937,2.315 1.526,4.713 1.77,7.155 l 159.078,11.932 z"
           style="fill:#231f20;fill-opacity:1;fill-rule:nonzero;stroke:none"
           id="path24"
           inkscape:connector-curvature="0" /><path
           d="m 112.387,418.704 c -6.709,-6.522 -9.114,-14.815 -7.617,-23.086 1.644,-9.098 8.005,-18.177 18.539,-24.847 14.345,-9.085 33.345,-11.595 48.404,-6.394 l 0.407,0.141 c 0,0 20.653,1.046 38.954,1.972 -10.457,0.209 -31.842,0.635 -31.842,0.635 l 6.108,5.383 0.771,0.793 0.763,0.806 c 0,0 30.07,1.813 58.908,3.551 -25.561,0.51 -55.362,1.106 -55.362,1.106 l 1.187,2.935 c 0.875,2.16 1.435,4.424 1.665,6.727 l 0.154,1.529 c 0,0 70.047,5.256 116.285,8.723 -47.073,0.94 -118.244,2.358 -118.244,2.358 l -0.755,1.652 c -0.71,1.553 -1.562,3.092 -2.537,4.574 l -1.775,2.703 c 0,0 64.975,3.004 117.5,5.432 -56.231,1.121 -125.775,2.508 -125.775,2.508 l -3.707,2.533 c -1.867,1.182 -3.841,2.271 -5.866,3.24 l -7.593,3.627 c 0,0 15.317,0.52 16.794,0.57 -3.655,0.073 -14.249,0.284 -14.249,0.284 -0.001,0.011 -8.773,0.187 -8.773,0.187 l -0.321,0.008 -0.321,0.061 c -16.311,3.154 -32.29,-0.567 -41.702,-9.711"
           style="fill:#231f20;fill-opacity:1;fill-rule:nonzero;stroke:none"
           id="path26"
           inkscape:connector-curvature="0" /><path
           d="m 103.957,399.579 c -0.566,18.541 18.84,31.832 43.343,29.689 24.505,-2.143 44.825,-18.91 45.388,-37.448 0.566,-18.543 -18.837,-31.836 -43.343,-29.693 -24.502,2.141 -44.824,18.908 -45.388,37.452"
           style="fill:#231f20;fill-opacity:1;fill-rule:nonzero;stroke:none"
           id="path28"
           inkscape:connector-curvature="0" /><path
           d="m 152.236,365.949 c 0.002,-0.002 0.002,-0.002 0.006,-0.004 -0.004,0.002 -0.004,0.002 -0.006,-0.002 0.002,0.002 0,0.006 0,0.006"
           style="fill:#231f20;fill-opacity:1;fill-rule:nonzero;stroke:none"
           id="path30"
           inkscape:connector-curvature="0" /><path
           d="m 113.006,395.862 0.004,0 -0.01,0.004 c 0.002,0 0.004,-0.004 0.006,-0.004 m 33.458,16.133 0.013,0 c 0,0 -0.018,0.005 -0.027,0.007 0.007,-0.002 0.01,-0.007 0.014,-0.007"
           style="fill:#231f20;fill-opacity:1;fill-rule:nonzero;stroke:none"
           id="path32"
           inkscape:connector-curvature="0" /><path
           d="m 134.625,418.95 c 0,0.002 -0.002,0.002 -0.002,0.002 l -0.002,0.004 c 0,0 0.004,-0.004 0.004,-0.006 m -26.945,-13.783 0.357,-0.016 0.285,-0.031 0.692,0.613 c 0.541,0.246 1.215,0.226 1.756,-0.051 l 1.006,-0.205 c 0,0 0.296,-0.074 0.444,-0.111 -0.072,0.302 -0.02,0.894 -0.02,0.894 0,0 0.297,0.535 1.06,0.713 0.761,0.18 1.064,-0.045 1.064,-0.045 0.021,-0.002 1.127,-0.263 1.127,-0.263 0,0 0.299,-0.077 0.426,-0.108 -0.057,0.067 -0.131,0.152 -0.131,0.152 l 0.003,0.092 -0.085,0.83 c 0,0 0.309,0.664 0.832,0.889 0.522,0.225 1.119,0.195 1.119,0.195 l 0.246,-0.047 1.395,-0.318 c 0,0 0.334,-0.082 0.541,-0.133 -0.008,0.008 -0.016,0.01 -0.023,0.02 -0.012,0.012 -0.249,0.756 -0.256,0.933 -0.006,0.178 0.109,0.491 0.109,0.491 l 0.695,0.607 c 0.549,0.244 1.315,0.098 1.315,0.098 l 0.834,-0.162 c 0,0 0.566,-0.127 1.096,-0.246 -0.044,0.044 -0.128,0.111 -0.149,0.138 l -0.158,0.192 -0.016,0.099 c 0,0 -0.263,0.33 -0.023,1.149 0.241,0.818 1.908,0.773 1.908,0.773 l 0.205,-0.039 c 0,0 1.279,-0.262 1.273,-0.248 -0.06,0.152 -0.298,0.711 -0.316,1.004 -0.018,0.293 0.212,0.615 0.775,0.935 0.565,0.321 1.139,0.192 1.139,0.192 0.071,-0.012 1.608,-0.211 1.608,-0.211 0,0 0.285,-0.041 0.433,-0.063 -0.112,0.086 -0.239,0.157 -0.327,0.262 l 10e-4,0.002 c -0.002,0.039 -0.369,0.779 -0.326,1.145 0.039,0.367 0.33,0.566 0.551,0.75 0.314,0.285 0.798,0.445 1.375,0.373 0.025,-0.004 1.429,-0.188 1.443,-0.19 -0.095,0.074 -0.207,0.131 -0.277,0.217 -0.214,0.25 -0.332,0.525 -0.34,0.793 -0.003,0.115 0.07,0.213 0.101,0.322 0.073,0.18 0.131,0.61 0.51,0.862 0.377,0.252 1.359,0.226 1.359,0.226 0,0 0.26,-0.037 0.631,-0.088 -0.076,0.084 -0.157,0.162 -0.213,0.258 -0.36,0.65 -0.164,1.244 -0.164,1.244 0,0 0.119,0.235 0.522,0.457 0.292,0.242 0.709,0.391 1.219,0.352 -0.04,0.113 -0.113,0.217 -0.116,0.332 l 0,0.082 0.015,0.324 c 0,0 0.215,0.486 0.593,0.68 0.25,0.164 0.715,0.197 1.33,0.121 0,0 0.049,-0.004 0.071,-0.008 -0.039,0.096 -0.066,0.17 -0.066,0.17 0.003,0 0.077,0.75 0.701,1.06 0.616,0.311 0.977,0.157 0.977,0.157 0,0 0.243,-0.016 0.286,-0.018 -0.168,0.442 -0.151,0.61 -0.049,0.852 0.101,0.24 0.22,0.453 0.42,0.574 0.199,0.123 0.39,0.105 0.39,0.105 0,0 0.575,0.122 0.59,0.127 -0.008,0.045 -0.07,0.112 -0.072,0.157 -0.004,0.151 0.039,0.275 0.096,0.386 0.061,0.151 0.165,0.327 0.343,0.491 0.211,0.101 0.931,0.447 0.931,0.447 0.033,0.006 0.159,0.014 0.259,0.021 -0.244,0.332 -0.164,0.42 -0.164,0.42 0,0 -0.035,0.442 0.592,0.617 l -0.002,0 c 0.002,0 0.046,0.092 -0.067,0.002 -6.199,0.248 -12.18,-0.494 -17.375,-2.273 l 0.046,0.014 -1.348,-0.489 c -5.998,-2.267 -10.887,-5.81 -14.145,-10.257 -2.225,-3.034 -3.611,-6.352 -4.223,-9.874 0.057,0.051 0.383,0.083 0.383,0.083 l 0.973,0 z"
           style="fill:#ffffff;fill-opacity:1;fill-rule:nonzero;stroke:none"
           id="path34"
           inkscape:connector-curvature="0" /><path
           d="m 141.547,426.098 c -0.028,-0.038 -0.047,-0.088 -0.07,-0.133 -0.047,-0.114 -0.072,-0.215 -0.075,-0.275 l 0.145,0.408 z"
           style="fill:#ffffff;fill-opacity:1;fill-rule:nonzero;stroke:none"
           id="path36"
           inkscape:connector-curvature="0" /><path
           d="m 190.535,393.271 c -0.096,-0.058 -0.184,-0.121 -0.306,-0.156 -0.28,-0.027 -1.118,-0.072 -1.118,-0.072 l -0.262,0.08 c 0,0 -1.547,0.568 -1.632,0.602 -0.022,-0.34 0.077,-0.653 -0.042,-0.778 -0.122,-0.123 -0.742,-0.576 -1.077,-0.674 -0.334,-0.099 -1.27,0.012 -1.27,0.012 l 0.018,0.061 c 0,0 -0.448,0.129 -0.643,0.185 0,-0.015 0,-0.035 0.002,-0.054 l 0,-0.022 c 0,-0.01 -0.006,0.035 -0.016,0.082 l -0.001,0 c 0.017,-0.098 0.066,-0.357 0.066,-0.357 l -0.17,-0.303 c 0,0 -0.305,-0.27 -0.484,-0.428 -0.272,-0.224 -0.61,-0.342 -0.961,-0.31 -0.416,-0.018 -0.44,-0.014 -0.44,-0.014 l -1.023,0.152 c 0,0 -0.499,0.092 -0.928,0.168 0.084,-0.302 0.183,-0.648 0.207,-0.744 -0.046,-0.392 -0.304,-0.756 -0.728,-0.937 0,0 -0.243,-0.293 -1.134,-0.186 0,0 -0.98,0.133 -1.917,0.258 0.064,-0.223 0.254,-0.891 0.283,-1.002 -0.024,-0.504 -0.703,-0.926 -0.71,-0.924 -0.007,0.002 -0.859,-0.221 -1.151,-0.197 -0.286,0.021 -0.946,0.109 -0.946,0.109 0,0 -0.574,0.082 -1.131,0.162 0.125,-0.103 0.254,-0.216 0.299,-0.271 0.034,-0.037 0.383,-0.66 0.381,-1.139 0.002,-0.476 -0.607,-0.732 -0.712,-0.859 -0.311,-0.197 -0.717,-0.32 -1.202,-0.262 -0.012,0.002 -0.573,0.076 -1.247,0.168 0.01,-0.039 0.287,-1.014 0.308,-1.088 -0.03,-0.318 -0.184,-0.564 -0.418,-0.758 -0.316,-0.318 -0.82,-0.504 -1.41,-0.437 10e-4,0 0.003,-0.002 0.003,-0.002 0,-0.002 -0.761,0.021 -0.761,0.021 0,0 -1.024,0.053 -1.809,0.094 0.372,-0.176 0.83,-0.324 1.068,-0.572 0.239,-0.246 0.325,-1 0.348,-1.07 -0.035,-0.321 -0.189,-0.569 -0.43,-0.76 -0.322,-0.32 -0.824,-0.5 -1.412,-0.43 0.004,-0.002 0.008,-0.002 0.008,-0.002 0,-0.006 -0.81,0.02 -0.81,0.02 0,0 -0.202,0.009 -0.246,0.011 0.318,-0.132 0.595,-0.304 0.773,-0.523 10e-4,-0.016 0.306,-0.947 0.342,-1.061 -0.03,-0.326 -0.186,-0.576 -0.424,-0.767 -0.32,-0.311 -0.809,-0.492 -1.388,-0.432 0.08,-0.144 0.387,-0.379 0.448,-0.812 0.064,-0.438 -0.283,-0.834 -0.61,-1.043 -0.308,-0.256 -0.704,-0.418 -1.173,-0.383 0.051,-0.002 0.106,-0.006 0.106,-0.006 0,0 -0.501,-0.006 -0.819,-0.012 0.124,-0.082 0.26,-0.115 0.363,-0.24 0.001,-0.014 0.382,-0.25 0.399,-0.939 0.021,-0.69 -0.674,-1.004 -0.674,-1.004 0,0 -0.308,-0.049 -0.612,-0.098 0.013,-0.031 0.39,-0.433 0.386,-0.914 -0.008,-0.482 -0.273,-0.695 -0.273,-0.695 -0.003,-0.006 -0.751,-0.469 -0.751,-0.469 -0.019,-0.005 -0.022,-0.005 -0.02,-0.003 l -0.219,-0.089 -0.343,-0.017 c 0,0 -0.283,-0.006 -0.499,-0.006 0.075,-0.123 0.29,-0.266 0.324,-0.535 0.017,-0.592 -0.711,-1.037 -0.711,-1.037 0,0 -0.124,-0.028 -0.161,-0.036 0.309,-0.252 0.405,-0.744 0.405,-0.744 -0.029,-0.609 -0.305,-0.736 -0.305,-0.736 l -1.025,-0.549 c 0,0 -0.411,-0.06 -0.596,-0.086 0.119,-0.127 0.266,-0.201 0.27,-0.541 0.004,-0.338 -0.269,-0.697 -0.269,-0.697 -0.008,-0.01 -0.639,-0.447 -0.639,-0.447 l -0.217,-0.153 c 0,0 -0.047,0.014 -0.091,0.022 0.091,-0.119 0.227,-0.229 0.258,-0.541 0.032,-0.313 -0.218,-0.791 -0.218,-0.791 0,0 -0.162,-0.084 -0.344,-0.174 0.144,-0.154 0.387,-0.406 0.498,-0.524 1.206,0.041 2.402,0.09 3.572,0.2 10.983,1.089 20.278,5.797 25.495,12.91 3.169,4.324 4.712,9.277 4.552,14.517 -0.019,0.684 -0.174,1.387 -0.254,2.078"
           style="fill:#ffffff;fill-opacity:1;fill-rule:nonzero;stroke:none"
           id="path38"
           inkscape:connector-curvature="0" /><path
           d="m 161.052,371.247 0.009,0.003 c 0,0 -0.007,-0.002 -0.009,-0.003"
           style="fill:#ffffff;fill-opacity:1;fill-rule:nonzero;stroke:none"
           id="path40"
           inkscape:connector-curvature="0" /><path
           d="m 157.554,391.332 0.007,0.059 c 0.002,0.14 0.095,0.496 0.421,0.793 0.231,0.117 0.482,0.363 1.05,0.42 0.573,0.058 1.394,-0.19 1.394,-0.19 0.416,-0.213 1.058,-1.144 1.058,-1.144 l -0.309,1.716 -0.084,0.985 c -0.003,0.099 0.149,0.789 0.149,0.789 l 0.245,0.308 0.236,0.141 c 0.128,0.082 0.409,0.1 0.914,0.117 0.034,-0.006 1.97,-0.342 2.147,-0.373 -0.005,0.254 -0.007,0.457 -0.007,0.457 l 0.007,0.876 c 0.009,0.449 0.308,0.849 0.755,1.048 0.023,0.012 0.656,0.174 1.141,0.141 0.486,-0.035 1.383,-0.392 1.578,-0.576 0.194,-0.186 0.41,-0.947 0.41,-0.947 -0.001,-0.004 0.336,-0.556 0.336,-0.556 0.002,0.081 0.223,1.821 0.223,1.821 l 0.121,0.793 c 0.008,0.342 0.256,0.684 0.693,0.887 0.029,0.014 0.857,0.217 1.262,0.168 0.407,-0.049 0.446,0.004 1.017,-0.377 0.069,-0.07 0.739,-0.748 0.739,-0.748 0.068,0.428 0.137,0.912 0.137,0.912 l 0.212,1.182 0.096,0.095 c 0,0 0.337,0.424 0.664,0.567 0.324,0.138 0.762,0.158 0.762,0.158 l 0.222,0.014 0.227,-0.01 c 0.361,-0.043 0.689,-0.199 0.985,-0.391 0.384,-0.197 0.615,-0.525 0.73,-0.875 0.189,0.475 0.543,1.371 0.543,1.371 l 0.337,0.739 c 0,0 0.29,0.507 0.731,0.687 -0.012,-0.006 0.756,0.166 1.32,0.049 0.565,-0.117 1.493,-0.586 1.516,-0.594 0.036,0.166 0.076,0.365 0.076,0.365 l -0.013,-0.113 c 0.017,0.488 0.38,0.832 0.897,0.959 0.411,0.125 0.872,0.104 1.308,-0.066 0.226,-0.104 0.71,-0.322 0.723,-0.33 0.007,0.037 0.023,0.091 0.023,0.091 l 0.199,0.225 c 0,0 0.475,0.15 0.675,0.195 0.401,0.088 0.877,0.053 1.328,-0.173 0.005,-0.004 0.112,-0.118 0.247,-0.256 0.08,0.045 0.219,0.043 0.332,0.074 0.011,0.002 0.029,0.016 0.044,0.018 l -0.021,-0.014 c 0.035,0.012 0.079,0.012 0.115,0.019 -5.601,14.411 -24.808,22.799 -32.773,24.461 0.42,-0.541 1.192,-1.535 1.275,-1.64 0.186,-0.198 0.334,-0.444 0.344,-0.801 0,-0.035 0,-0.068 -0.002,-0.104 l -0.01,-0.287 -0.105,-0.08 c 0,0 -0.43,-0.437 -0.525,-0.533 -0.042,-0.029 -0.076,-0.066 -0.121,-0.092 0.238,-0.506 0.128,-1.156 -0.336,-1.455 -0.215,-0.113 -0.714,-0.23 -0.766,-0.26 0.074,-0.158 0.193,-0.312 0.197,-0.466 0.005,-0.138 -0.031,-0.268 -0.087,-0.393 -0.056,-0.155 -0.156,-0.339 -0.336,-0.51 -0.198,-0.094 -1.056,-0.504 -1.126,-0.537 0.032,-0.043 0.015,-0.031 0.015,-0.031 l 0.314,-0.555 -0.076,-0.726 -0.012,-0.026 c 0,0 -0.32,-0.5 -0.633,-0.625 -0.313,-0.127 -0.466,-0.056 -0.799,-0.097 0.015,-0.024 0.029,-0.041 0.033,-0.047 0.003,0 0.007,0 0.01,0 -0.002,0 -0.005,0 -0.008,0 l 0.005,-0.008 -0.026,-0.006 0.15,-0.617 -0.073,-0.42 -0.011,-0.027 c 0,0 -0.339,-0.506 -0.636,-0.625 -0.296,-0.116 -1.114,-0.143 -1.114,-0.143 0,0 0.019,0.01 -0.185,0.053 0.103,-0.147 0.103,-0.157 0.103,-0.157 l 0.203,-0.806 -0.028,-0.572 -0.316,-0.436 -0.233,-0.109 c -0.344,-0.162 -0.745,-0.194 -1.137,-0.137 -0.381,0.021 -0.743,0.193 -1.053,0.43 0.149,-0.295 0.278,-0.545 0.278,-0.545 l 0.394,-0.838 -0.149,0.222 c 0.196,-0.23 0.298,-0.48 0.307,-0.724 0.006,-0.227 -0.067,-0.453 -0.219,-0.662 -0.003,0 -0.578,-0.508 -1.078,-0.637 -0.499,-0.131 -1.164,0.143 -1.372,0.17 -0.118,0.047 -0.238,0.076 -0.348,0.146 0.109,-0.302 0.233,-0.654 0.233,-0.654 -0.003,0.01 -0.126,-1.125 -0.126,-1.125 -0.005,-0.006 -0.401,-0.549 -1.155,-0.611 -0.752,-0.065 -1.431,0.181 -1.431,0.181 0,0 -1.034,0.844 -1.058,0.862 0.14,-0.6 0.319,-1.387 0.319,-1.387 l 0.105,-0.572 -0.255,-1.324 c 0,0 -0.322,-0.317 -1.141,-0.352 -0.822,-0.033 -2.101,0.494 -2.101,0.494 0.006,-0.002 -0.512,-1.578 -0.512,-1.578 0,-0.053 -0.331,-0.582 -0.507,-0.857 -0.229,-0.102 -0.897,-0.493 -1.413,-0.473 -0.512,0.021 -1.043,0.291 -1.043,0.291 l -1.006,-1.045 -0.034,-0.357 c 10e-4,0.054 -0.618,-0.901 -0.618,-0.901 -0.079,-0.043 -0.374,-0.205 -1.114,-0.195 -0.741,0.008 -1.591,0.48 -1.591,0.48 0,0 -0.239,0.457 -0.412,0.782 -0.083,-0.537 -0.192,-1.233 -0.192,-1.233 l -0.16,-0.847 c -0.006,-0.301 -0.247,-0.612 -0.625,-0.813 -0.093,-0.019 -0.568,-0.324 -1.507,-0.234 -0.94,0.09 -1.866,0.664 -1.866,0.664 l -0.816,-1.088 c 0,0 -0.25,-0.608 -0.718,-0.74 -0.042,-0.012 -0.368,-0.289 -1.238,-0.176 -0.871,0.115 -1.14,0.574 -1.321,0.672 -0.034,0.035 -0.074,0.06 -0.107,0.093 -0.134,-0.437 -0.28,-0.927 -0.28,-0.927 l -0.379,-1.028 c 0,0 -0.701,-0.48 -0.935,-0.558 -0.242,-0.08 -0.672,-0.18 -1.155,-0.071 -0.484,0.112 -1.229,0.688 -1.229,0.688 -0.003,0.006 -0.042,0.102 -0.087,0.225 -0.05,-0.151 -0.086,-0.256 -0.086,-0.256 l -0.33,-0.914 0.027,0.197 c -0.006,-0.41 -0.295,-0.764 -0.812,-0.992 l -0.277,-0.121 -0.05,0.029 c 0,0 -0.838,0.031 -1.004,0.039 -0.275,0.043 -0.538,0.137 -0.779,0.271 -0.003,-0.019 -0.016,-0.085 -0.016,-0.085 -0.005,-0.313 -0.226,-0.614 -0.667,-0.813 l -0.337,-0.1 c 0,0 -1.229,0.174 -1.331,0.187 -0.325,0.131 -0.63,0.311 -0.873,0.593 -0.006,0.01 -0.353,0.918 -0.353,0.918 l 0.009,0.113 0.131,0.648 -0.075,-0.093 c -0.002,-0.004 -0.713,-1.789 -0.713,-1.789 0,0 -0.001,0.064 0.001,0.088 -0.069,-0.274 -0.245,-0.522 -0.579,-0.661 l -0.136,-0.059 -0.161,-0.027 c -0.488,-0.082 -0.986,0.059 -1.388,0.322 -0.056,0.045 -0.346,0.266 -0.352,0.266 -0.041,-0.015 -0.11,-0.011 -0.152,-0.023 0.008,0.004 0.003,0.004 -0.004,-0.002 -0.209,-0.063 -0.41,-0.133 -0.74,-0.098 l -0.302,0.037 c 0,0 -0.058,0.028 -0.107,0.055 1.021,-6.465 5.042,-12.989 12.245,-19.823 10.082,-8.209 21.195,-10.834 27.309,-11.674 -0.398,0.256 -0.815,0.528 -0.815,0.528 l 0.232,-0.143 -1.133,0.946 0.171,0.324 c 0,0 -0.157,0.244 0.013,0.621 0.169,0.375 0.598,0.531 0.598,0.531 l 0.064,0.024 c -0.005,0.005 -0.044,0.066 -0.044,0.066 l -0.165,0.309 c 0.002,0 -0.047,0.656 0.098,1.08 0.148,0.427 0.623,0.384 0.843,0.519 0.049,0.014 0.118,0.016 0.176,0.028 -0.016,0.017 -0.034,0.035 -0.048,0.052 0.013,0.006 0.027,0.016 0.027,0.016 0,0 -0.026,-0.01 -0.031,-0.01 -0.03,0.025 -0.277,0.279 -0.277,0.279 l -0.098,0.227 c 0,0 -0.13,0.25 -0.162,0.609 -0.036,0.36 0.306,0.737 0.306,0.737 -0.002,0 0.216,0.117 0.447,0.242 -0.013,0.012 -0.162,0.174 -0.162,0.174 0,0 -0.36,0.55 -0.386,0.9 -0.024,0.352 0.093,0.504 0.425,0.797 0.211,0.113 0.792,0.42 0.852,0.455 -0.123,0.227 -0.4,0.479 -0.431,0.912 -0.032,0.432 0.305,0.758 0.305,0.758 0.003,0.004 0.613,0.295 0.92,0.441 -0.125,0.129 -0.235,0.244 -0.235,0.244 l -0.333,0.377 c -0.036,0.041 -0.412,0.596 -0.435,0.961 -0.02,0.366 0.308,0.752 0.308,0.752 l 0.234,0.219 c 0,0 0.726,0.156 1.046,0.225 -0.008,0.009 -0.029,0.035 -0.048,0.054 -0.092,0.116 -0.271,0.327 -0.271,0.327 0.01,-0.014 -0.404,0.617 -0.381,0.972 0.018,0.35 0.332,0.682 0.332,0.682 0,0 1.557,0.764 1.589,0.777 -0.176,0.225 -0.275,0.256 -0.364,0.461 -0.087,0.203 -0.293,0.328 -0.299,0.92 -0.005,0.588 0.363,0.805 0.632,0.986 0.271,0.18 1.152,0.313 1.554,0.209 0.398,-0.101 1.216,-0.677 1.216,-0.677 0.03,-0.036 0.684,-0.877 0.684,-0.877 l -0.812,1.562 -0.6,1.154 c 0,0 -0.146,0.622 0.098,1.088 0.242,0.467 0.721,0.627 1.109,0.678 0.388,0.055 0.943,-0.115 1.244,-0.152 0.171,-0.053 0.331,-0.114 0.472,-0.199 -0.15,0.396 -0.29,0.773 -0.29,0.773 l -0.451,1.264 0.029,0.06 c 0,0 0.02,0.487 0.215,0.75 0.194,0.264 0.571,0.545 1.136,0.608 0.567,0.062 1.073,-0.073 1.458,-0.188 0.385,-0.115 1.562,-1.078 1.562,-1.078 0,0.002 -0.6,2.873 -0.6,2.873"
           style="fill:#ffffff;fill-opacity:1;fill-rule:nonzero;stroke:none"
           id="path42"
           inkscape:connector-curvature="0" /><path
           d="m 154.482,421.024 c 0.037,0.051 0.057,0.108 0.081,0.164 0.036,0.096 0.057,0.184 0.059,0.242 l -0.14,-0.406 z"
           style="fill:#ffffff;fill-opacity:1;fill-rule:nonzero;stroke:none"
           id="path44"
           inkscape:connector-curvature="0" /><path
           d="m 154.538,423.68 c -0.501,0.664 -0.997,1.332 -1.526,1.959 -0.557,0.582 -1.211,1.153 -1.83,1.764 -0.061,0.029 -0.119,0.062 -0.184,0.092 0.158,0.213 0.285,0.386 0.41,0.556 -0.063,0.018 -0.179,0.174 -0.596,0.254 -0.416,0.082 -0.712,-0.041 -0.712,-0.041 -0.16,-0.213 -0.256,-0.459 -0.443,-0.715 -0.695,0.059 -1.421,0.076 -2.087,0.065 -0.972,0.025 -1.882,-0.1 -2.824,-0.147 -0.183,-0.023 -0.272,-0.041 -0.366,-0.166 -0.126,-0.054 -0.124,-0.17 -0.192,-0.258 -0.002,-0.115 0.085,-0.22 0.115,-0.293 0.121,-0.062 0.238,-0.123 0.332,-0.113 0.939,0.053 1.915,0.143 2.853,0.192 0.576,0 1.117,-0.043 1.757,-0.075 -0.188,-0.257 -0.35,-0.586 -0.54,-0.843 -0.879,0.035 -1.726,0.115 -2.604,0.154 -0.969,0.023 -1.94,-0.068 -2.972,-0.129 -0.09,-0.014 -0.272,-0.039 -0.335,-0.123 -0.122,-0.055 -0.126,-0.174 -0.13,-0.287 -0.062,-0.088 0.024,-0.193 0.113,-0.295 0.032,-0.074 0.182,-0.092 0.33,-0.111 0.946,0.048 1.974,0.109 2.943,0.086 0.728,-0.016 1.45,-0.034 2.151,-0.098 -0.225,-0.418 -0.507,-0.801 -0.734,-1.221 -0.871,0.153 -1.687,0.276 -2.504,0.403 -1.088,0.082 -2.149,0.097 -3.174,0.148 -0.182,-0.023 -0.275,-0.035 -0.396,-0.092 -0.065,-0.084 -0.159,-0.215 -0.221,-0.301 -0.006,-0.115 0.086,-0.216 0.17,-0.322 0.029,-0.072 0.21,-0.168 0.334,-0.109 1.09,-0.086 2.146,-0.098 3.176,-0.153 0.666,-0.105 1.39,-0.24 2.082,-0.3 -0.252,-0.344 -0.5,-0.688 -0.696,-1.061 -1.027,0.172 -2.019,0.387 -3.014,0.483 -1.056,0.126 -2.179,0.171 -3.302,0.214 -0.089,-0.011 -0.239,0.006 -0.363,-0.048 -0.092,-0.127 -0.159,-0.213 -0.16,-0.332 0,-0.116 0.027,-0.188 0.114,-0.292 0.089,-0.107 0.21,-0.167 0.39,-0.144 1.087,-0.084 2.149,-0.096 3.271,-0.256 0.844,-0.078 1.654,-0.199 2.498,-0.396 -0.312,-0.311 -0.593,-0.698 -0.877,-1.084 -1.052,0.244 -2.168,0.519 -3.25,0.72 -1.147,0.233 -2.293,0.348 -3.445,0.469 -0.151,0.018 -0.302,0.035 -0.365,-0.053 -0.12,-0.054 -0.215,-0.183 -0.277,-0.267 -0.005,-0.117 0.052,-0.266 0.169,-0.326 0.09,-0.106 0.213,-0.166 0.359,-0.184 1.118,-0.158 2.299,-0.232 3.446,-0.463 0.931,-0.185 1.835,-0.412 2.741,-0.639 -0.286,-0.386 -0.568,-0.775 -0.941,-1.171 l -0.06,0.031 c -1.082,0.32 -2.195,0.711 -3.34,0.943 -1.112,0.279 -2.261,0.391 -3.436,0.582 -0.152,0.016 -0.334,-0.006 -0.398,-0.092 -0.125,-0.054 -0.218,-0.183 -0.312,-0.312 -0.002,-0.117 0.054,-0.264 0.141,-0.367 0.058,-0.149 0.176,-0.209 0.327,-0.223 1.176,-0.195 2.325,-0.309 3.442,-0.59 0.992,-0.209 1.922,-0.511 2.854,-0.81 -0.373,-0.401 -0.75,-0.797 -1.126,-1.196 -0.056,0.03 -0.115,0.061 -0.269,0.082 -1.114,0.272 -2.193,0.594 -3.338,0.825 -1.147,0.234 -2.295,0.349 -3.442,0.464 -0.153,0.02 -0.3,0.038 -0.456,-0.056 -0.065,-0.09 -0.159,-0.219 -0.159,-0.336 -0.094,-0.129 -0.043,-0.272 0.047,-0.377 0.092,-0.104 0.268,-0.199 0.418,-0.215 1.119,-0.158 2.267,-0.277 3.41,-0.506 1.028,-0.174 1.959,-0.474 2.95,-0.689 -0.589,-0.58 -1.149,-1.119 -1.799,-1.674 0.033,0.043 -0.03,0.074 -0.03,0.074 -0.087,0.104 -0.207,0.164 -0.326,0.227 -1.172,0.306 -2.254,0.623 -3.402,0.857 -1.172,0.192 -2.324,0.309 -3.44,0.467 -0.15,0.018 -0.334,-0.006 -0.396,-0.094 -0.154,-0.094 -0.219,-0.181 -0.252,-0.342 -0.033,-0.158 0.019,-0.308 0.111,-0.412 0.084,-0.101 0.208,-0.164 0.358,-0.183 1.117,-0.159 2.296,-0.231 3.441,-0.467 1.057,-0.244 2.076,-0.531 3.128,-0.774 -0.773,-0.605 -1.607,-1.183 -2.405,-1.716 -0.03,0.074 0.002,0.115 -0.056,0.144 -0.091,0.106 -0.239,0.242 -0.39,0.258 -1.115,0.279 -2.256,0.625 -3.404,0.859 -1.082,0.202 -2.262,0.276 -3.439,0.465 -0.153,0.022 -0.27,-0.037 -0.395,-0.092 -0.125,-0.054 -0.218,-0.181 -0.252,-0.343 -0.001,-0.118 0.055,-0.262 0.141,-0.368 0.056,-0.146 0.176,-0.207 0.389,-0.257 1.143,-0.116 2.294,-0.235 3.442,-0.465 1.024,-0.17 2.014,-0.502 3.009,-0.715 -0.034,-0.045 0.029,-0.074 0.029,-0.074 -0.156,-0.098 -0.276,-0.156 -0.4,-0.209 0,0 -0.798,-0.533 -2.094,-1.287 -0.059,0.027 -0.181,0.095 -0.24,0.123 -1.111,0.39 -2.222,0.785 -3.303,1.101 -1.114,0.278 -2.291,0.467 -3.404,0.742 -0.15,0.018 -0.333,-0.007 -0.459,-0.06 -0.122,-0.057 -0.217,-0.186 -0.311,-0.315 -0.003,-0.117 0.055,-0.261 0.113,-0.41 0.085,-0.103 0.176,-0.207 0.326,-0.224 1.141,-0.233 2.324,-0.422 3.405,-0.741 0.961,-0.259 1.802,-0.57 2.735,-0.871 -0.741,-0.447 -1.571,-0.906 -2.431,-1.41 -0.088,0.104 -0.209,0.162 -0.33,0.225 -1.111,0.394 -2.187,0.83 -3.273,1.148 -1.081,0.319 -2.256,0.506 -3.402,0.741 -0.119,0.06 -0.3,0.035 -0.423,-0.018 -0.156,-0.098 -0.222,-0.186 -0.314,-0.315 -0.034,-0.158 -0.035,-0.275 0.051,-0.38 0.089,-0.102 0.236,-0.237 0.386,-0.256 1.114,-0.276 2.292,-0.467 3.405,-0.739 0.93,-0.3 1.832,-0.646 2.824,-0.976 -0.892,-0.43 -1.753,-0.932 -2.676,-1.4 0.004,0.113 -0.026,0.187 -0.05,0.261 -0.094,0.104 -0.178,0.209 -0.389,0.258 -1.055,0.361 -2.129,0.795 -3.246,1.072 -1.14,0.346 -2.262,0.508 -3.434,0.815 -0.148,0.015 -0.269,-0.037 -0.392,-0.094 -0.125,-0.055 -0.278,-0.154 -0.313,-0.311 -0.002,-0.121 -0.008,-0.232 0.05,-0.382 0.087,-0.102 0.176,-0.207 0.327,-0.225 1.203,-0.264 2.322,-0.424 3.465,-0.773 0.87,-0.27 1.711,-0.579 2.643,-0.881 -0.036,-0.158 -0.036,-0.274 -0.072,-0.438 -0.767,-0.371 -1.505,-0.703 -2.27,-1.076 0.035,0.043 0.035,0.043 -0.033,0.074 -0.052,0.145 -0.174,0.207 -0.293,0.27 -1.077,0.433 -2.159,0.869 -3.266,1.262 -1.084,0.316 -2.231,0.55 -3.344,0.826 -0.209,0.049 -0.302,0.037 -0.482,0.011 -0.125,-0.054 -0.221,-0.183 -0.313,-0.314 -0.035,-0.158 -0.039,-0.273 0.049,-0.379 0.058,-0.146 0.176,-0.207 0.357,-0.299 1.112,-0.275 2.26,-0.51 3.399,-0.855 0.872,-0.272 1.682,-0.627 2.578,-0.969 0.002,-0.117 -0.031,-0.158 -0.002,-0.232 -0.92,-0.358 -1.781,-0.743 -2.633,-1.012 l 0.032,0.043 c 0.033,0.045 0.062,0.084 0.096,0.127 0.001,0.119 0.034,0.277 -0.055,0.379 -0.056,0.148 -0.174,0.211 -0.293,0.271 -1.08,0.436 -2.16,0.871 -3.274,1.262 -1.08,0.318 -2.224,0.551 -3.396,0.857 -0.119,0.061 -0.303,0.039 -0.426,-0.017 -0.123,-0.057 -0.217,-0.184 -0.312,-0.313 -0.004,-0.115 -0.035,-0.279 0.051,-0.381 0.056,-0.146 0.177,-0.207 0.296,-0.267 1.174,-0.309 2.318,-0.541 3.402,-0.86 0.93,-0.298 1.741,-0.656 2.639,-0.998 -0.035,-0.16 -0.041,-0.392 -0.076,-0.55 -0.854,-0.272 -1.619,-0.411 -2.286,-0.541 0.031,0.043 0.004,0.117 0.034,0.158 0.002,0.119 0.008,0.232 -0.078,0.338 -0.061,0.148 -0.151,0.252 -0.271,0.312 -0.985,0.449 -1.909,0.981 -2.87,1.354 -0.538,0.277 -1.14,0.467 -1.679,0.627 -0.241,0.121 -0.51,0.203 -0.782,0.279 -0.119,0.062 -0.33,0.113 -0.451,0.172 -0.148,0.019 -0.238,0.006 -0.333,-0.004 -0.12,-0.059 -0.183,-0.143 -0.278,-0.272 -0.005,-0.115 0.052,-0.263 0.14,-0.367 0.053,-0.146 0.145,-0.252 0.295,-0.267 l 0.061,-0.032 c 0.269,-0.08 0.51,-0.203 0.781,-0.283 0.66,-0.219 1.38,-0.47 2.068,-0.765 0.751,-0.325 1.471,-0.692 2.245,-1.088 -0.004,-0.117 0.025,-0.192 0.023,-0.309 -0.486,-0.101 -1.341,-0.256 -2.376,-0.433 -0.029,0.07 -0.091,0.103 -0.118,0.177 -0.59,0.539 -1.205,1.149 -1.831,1.647 -0.12,0.062 -0.269,0.195 -0.391,0.258 -0.205,0.164 -0.415,0.328 -0.621,0.494 -0.327,0.226 -0.595,0.424 -0.919,0.65 -0.121,0.063 -0.179,0.096 -0.304,0.039 -0.094,-0.014 -0.125,-0.056 -0.188,-0.144 -0.061,-0.082 -0.063,-0.202 -0.007,-0.348 0.028,-0.072 0.116,-0.178 0.146,-0.252 0.266,-0.195 0.564,-0.348 0.832,-0.543 0.208,-0.166 0.415,-0.332 0.654,-0.453 0.148,-0.137 0.295,-0.27 0.502,-0.436 0.481,-0.363 0.92,-0.765 1.393,-1.246 -0.548,-0.072 -1.093,-0.146 -1.643,-0.217 -0.291,0.383 -0.523,0.739 -0.817,1.125 -0.024,0.073 -0.148,0.135 -0.176,0.208 -0.149,0.136 -0.237,0.24 -0.384,0.375 -0.328,0.339 -0.621,0.615 -0.976,0.916 -0.031,0.07 -0.149,0.132 -0.241,0.121 -0.058,0.029 -0.09,-0.014 -0.181,-0.028 -0.583,-0.152 -0.015,-0.582 -0.015,-0.582 0.356,-0.299 0.68,-0.642 1.003,-0.986 0.06,-0.027 0.089,-0.102 0.15,-0.135 0.146,-0.133 0.229,-0.355 0.349,-0.533 0.085,-0.219 0.201,-0.395 0.318,-0.574 l -0.032,-0.043 c -0.275,-0.037 -0.547,-0.074 -0.82,-0.11 -0.245,0.006 -0.426,-0.019 -0.609,-0.045 0,0 -0.109,-0.089 -0.024,-0.261 0.086,-0.172 0.246,-0.201 0.246,-0.201 0.057,-0.032 0.508,0.019 0.596,0.031 0.277,0.035 0.699,0.056 1.156,0.117 -0.012,-0.465 0.049,-0.615 0.032,-1.078 -0.046,-0.51 -0.241,-1 -0.28,-1.506 -0.064,-0.088 -0.035,-0.16 0.081,-0.219 0.063,-0.035 0.181,-0.095 0.241,-0.125 0.153,-0.019 0.244,-0.008 0.306,0.08 0.089,0.012 0.12,0.055 0.182,0.141 0.045,0.51 0.184,1.027 0.228,1.535 0.037,0.393 0.2,0.84 0.244,1.235 0,0 -0.03,0.072 0.061,0.082 0.458,0.062 1.002,0.136 1.549,0.21 -0.103,-0.478 -0.208,-0.957 -0.308,-1.433 -0.197,-0.609 -0.422,-1.141 -0.682,-1.715 -0.033,-0.043 0.02,-0.193 0.052,-0.264 0.089,-0.105 0.118,-0.179 0.235,-0.236 0.09,-0.107 0.241,-0.127 0.33,-0.111 0,0 0.124,0.052 0.096,0.125 0.256,0.578 0.482,1.109 0.684,1.715 0.199,0.607 0.246,1.23 0.381,1.871 0.03,0.043 0.03,0.043 0.061,0.086 l 0.032,0.041 c 0.76,0.142 1.584,0.255 2.344,0.392 -0.01,-0.465 -0.021,-0.931 -0.004,-1.351 -0.082,-0.786 -0.252,-1.467 -0.39,-2.219 -0.004,-0.115 0.023,-0.193 0.11,-0.295 0.09,-0.106 0.233,-0.236 0.388,-0.256 0.119,-0.06 0.302,-0.039 0.394,-0.023 0.119,0.052 0.153,0.097 0.155,0.213 0.142,0.752 0.341,1.476 0.394,2.216 0.106,0.596 10e-4,1.239 0.051,1.864 0.848,0.152 1.555,0.324 2.16,0.484 -0.04,-0.393 -0.078,-0.783 -0.15,-1.219 -0.174,-0.795 -0.497,-1.572 -0.79,-2.312 -0.005,-0.117 -0.007,-0.233 0.084,-0.334 0.084,-0.106 0.264,-0.197 0.415,-0.213 0.212,-0.053 0.392,-0.029 0.484,-0.014 0.125,0.055 0.279,0.155 0.281,0.268 0.233,0.765 0.617,1.513 0.819,2.355 0.139,0.635 0.188,1.262 0.266,1.928 0.616,0.277 1.531,0.631 2.546,1.115 -0.017,-0.582 -0.096,-1.133 -0.229,-1.654 -0.172,-0.797 -0.492,-1.574 -0.789,-2.309 -0.004,-0.117 0.055,-0.265 0.141,-0.367 0.092,-0.105 0.207,-0.164 0.42,-0.215 0.15,-0.017 0.303,-0.037 0.428,0.018 0.179,0.025 0.274,0.156 0.339,0.24 0.229,0.766 0.551,1.543 0.727,2.338 0.203,0.84 0.226,1.656 0.338,2.482 l 0.033,0.041 c 0.735,0.332 1.5,0.707 2.305,1.125 0.012,-0.539 -0.057,-0.976 -0.102,-1.484 -0.111,-0.824 -0.437,-1.607 -0.672,-2.369 -10e-4,-0.119 0.054,-0.266 0.176,-0.328 0.086,-0.102 0.206,-0.166 0.416,-0.211 0.153,-0.02 0.334,0.004 0.459,0.058 0.12,0.057 0.242,0.112 0.244,0.227 0.238,0.766 0.499,1.576 0.674,2.371 0.08,0.785 0.071,1.557 0.15,2.342 0.985,0.441 2.028,0.967 2.981,1.482 0.07,-0.685 0.084,-1.341 0.065,-2.041 -0.053,-0.855 -0.256,-1.697 -0.402,-2.568 -0.001,-0.115 0.053,-0.262 0.141,-0.363 0.121,-0.063 0.303,-0.159 0.509,-0.203 0.156,-0.02 0.335,0.005 0.49,0.105 0.119,0.053 0.183,0.143 0.187,0.258 0.146,0.867 0.382,1.748 0.436,2.607 0.053,0.856 -0.012,1.776 -0.11,2.653 0.029,0.041 -0.033,0.074 -0.058,0.148 0.799,0.416 1.596,0.83 2.337,1.279 0.071,-0.685 0.204,-1.402 0.245,-2.131 0.069,-0.804 -0.075,-1.673 -0.158,-2.574 -0.008,-0.117 0.082,-0.22 0.233,-0.355 0.116,-0.059 0.296,-0.151 0.482,-0.129 0.15,-0.02 0.334,0.006 0.451,0.062 0.158,0.096 0.217,0.184 0.222,0.303 0.086,0.897 0.2,1.725 0.1,2.6 -0.006,0.888 -0.167,1.795 -0.26,2.672 -0.025,0.074 -0.056,0.144 -0.146,0.252 0.832,0.459 1.603,0.949 2.28,1.427 0.196,-0.631 0.36,-1.304 0.462,-1.945 0.159,-0.91 0.166,-1.799 0.203,-2.643 -0.004,-0.117 0.113,-0.296 0.231,-0.357 0.12,-0.059 0.334,-0.109 0.486,-0.127 0.18,0.023 0.363,0.047 0.426,0.135 0.154,0.095 0.216,0.181 0.22,0.297 -0.066,0.92 -0.072,1.81 -0.17,2.687 -0.155,0.906 -0.5,1.785 -0.654,2.694 -0.062,0.033 -0.062,0.033 -0.031,0.074 0.403,0.326 1.237,0.9 2.197,1.646 0.254,-0.658 0.568,-1.351 0.791,-2.056 0.339,-0.883 0.408,-1.799 0.596,-2.664 0.06,-0.149 0.146,-0.252 0.266,-0.315 0.177,-0.092 0.33,-0.109 0.511,-0.082 0.183,0.022 0.338,0.119 0.459,0.174 0.062,0.086 0.158,0.217 0.102,0.361 -0.186,0.863 -0.351,1.774 -0.594,2.666 -0.281,0.854 -0.715,1.723 -1.051,2.606 -0.031,0.072 -0.09,0.103 -0.119,0.177 0.557,0.422 1.177,0.928 1.738,1.467 0.434,-0.635 0.813,-1.242 1.068,-1.904 0.43,-0.871 0.68,-1.764 1.022,-2.645 0.084,-0.105 0.174,-0.209 0.356,-0.3 0.15,-0.02 0.3,-0.038 0.482,-0.012 0.187,0.021 0.339,0.123 0.402,0.207 0.094,0.127 0.094,0.246 0.039,0.392 -0.339,0.881 -0.589,1.778 -0.96,2.616 -0.431,0.873 -0.987,1.689 -1.477,2.468 0.402,0.444 0.834,0.813 1.242,1.25 0.496,-0.666 0.997,-1.334 1.401,-2.015 0.464,-0.826 0.8,-1.709 1.236,-2.576 0.088,-0.108 0.233,-0.241 0.385,-0.258 0.121,-0.063 0.302,-0.039 0.485,-0.012 0.185,0.024 0.276,0.151 0.341,0.236 0.092,0.131 0.097,0.245 0.008,0.352 -0.431,0.869 -0.774,1.752 -1.293,2.607 -0.463,0.829 -1.168,1.659 -1.725,2.479 0.032,0.039 -0.027,0.07 -0.027,0.07 0.22,0.301 0.566,0.774 0.976,1.33 0.559,-0.582 1.149,-1.236 1.674,-1.863 0.621,-0.728 1.114,-1.514 1.609,-2.297 0.086,-0.103 0.209,-0.166 0.297,-0.152 0.121,-0.061 0.303,-0.039 0.424,0.019 0.067,0.086 0.125,0.172 0.19,0.256 0.004,0.117 0.007,0.233 -0.082,0.338 -0.491,0.781 -0.987,1.569 -1.603,2.295 -0.559,0.699 -1.208,1.387 -1.854,2.072 -0.032,0.075 -0.032,0.075 -0.088,0.104 0.249,0.344 0.565,0.771 0.848,1.158 0.056,-0.029 0.15,-0.019 0.15,-0.019 0.623,-0.614 1.213,-1.149 1.743,-1.778 0.585,-0.654 1.079,-1.437 1.64,-2.137 0.087,-0.105 0.207,-0.164 0.295,-0.152 0.155,-0.017 0.246,-0.006 0.363,0.049 0.125,0.055 0.159,0.215 0.22,0.303 0.006,0.113 -0.082,0.216 -0.11,0.291 -0.525,0.742 -1.05,1.482 -1.64,2.138 -0.558,0.7 -1.268,1.299 -1.855,1.953 -0.121,0.065 -0.15,0.135 -0.239,0.124 0.25,0.343 0.503,0.685 0.722,0.986 0.153,-0.02 0.304,-0.037 0.453,-0.055 0.558,-0.584 1.154,-1.121 1.621,-1.717 0.588,-0.652 1.023,-1.406 1.52,-2.074 0.087,-0.107 0.208,-0.166 0.298,-0.152 0.154,-0.022 0.242,-0.006 0.366,0.051 0.122,0.052 0.157,0.212 0.218,0.296 0.005,0.116 -0.022,0.188 -0.113,0.295 -0.463,0.709 -0.93,1.42 -1.487,2.12 -0.59,0.656 -1.207,1.263 -1.832,1.882 -0.026,0.069 -0.144,0.133 -0.297,0.151 -0.058,0.029 -0.089,-0.014 -0.15,0.017 l -0.031,-0.041 c 0.256,0.457 0.541,0.844 0.822,1.229 l 0.09,0.015 c 0.56,-0.584 1.185,-1.082 1.681,-1.628 0.588,-0.659 1.148,-1.358 1.706,-2.055 0.091,-0.104 0.145,-0.133 0.297,-0.152 0.09,0.013 0.277,0.037 0.338,0.121 0.121,0.056 0.125,0.171 0.132,0.289 0.063,0.086 0.002,0.232 -0.087,0.338 -0.526,0.623 -1.053,1.365 -1.637,2.021 -0.622,0.609 -1.276,1.182 -1.954,1.822 0.219,0.305 0.381,0.633 0.568,0.891 0.093,0.012 0.149,-0.018 0.241,-0.006 0.533,-0.51 1.066,-1.016 1.566,-1.568 0.621,-0.614 1.022,-1.289 1.522,-1.963 0.121,-0.061 0.239,-0.121 0.33,-0.106 0.118,-0.064 0.245,-0.007 0.307,0.077 0.123,0.056 0.158,0.214 0.22,0.3 0.002,0.119 -0.087,0.223 -0.112,0.297"
           style="fill:#ffffff;fill-opacity:1;fill-rule:nonzero;stroke:none"
           id="path46"
           inkscape:connector-curvature="0" /><path
           d="m 104.96,402.504 c 0.013,-0.002 0.022,0 0.035,0 -0.006,0.004 -0.016,0.002 -0.035,0 m 49.227,20.713 c 0.045,-0.009 0.09,-0.017 0.09,-0.017 -0.029,0.015 -0.062,0.017 -0.09,0.017"
           style="fill:#ffffff;fill-opacity:1;fill-rule:nonzero;stroke:none"
           id="path48"
           inkscape:connector-curvature="0" /><path
           d="m 190.803,395.279 c -0.027,0.075 -0.119,0.178 -0.233,0.237 -0.689,0.412 -1.411,0.783 -2.066,1.234 -0.531,0.391 -1.068,0.782 -1.66,1.208 0.577,0.115 1.097,0.263 1.586,0.363 0,0 0.088,0.209 0.006,0.387 -0.081,0.177 -0.363,0.316 -0.363,0.316 -0.367,-0.049 -1.11,-0.246 -1.567,-0.311 -0.122,-0.05 -0.307,-0.076 -0.488,-0.103 0.04,0.396 0.05,0.859 0.095,1.254 0.075,0.666 0.241,1.23 0.407,1.791 -0.026,0.074 -0.022,0.191 -0.114,0.297 -0.025,0.072 -0.113,0.175 -0.234,0.24 -0.122,0.062 -0.27,0.078 -0.301,0.033 -0.092,-0.012 -0.121,-0.055 -0.152,-0.098 -0.141,-0.634 -0.307,-1.199 -0.415,-1.793 -0.046,-0.626 -0.036,-1.281 -0.109,-1.951 -0.525,-0.144 -1.099,-0.263 -1.713,-0.422 0.013,0.467 0.03,0.928 0.038,1.397 0.082,0.787 0.283,1.508 0.396,2.219 0.063,0.086 0.005,0.232 -0.084,0.336 -0.117,0.06 -0.208,0.166 -0.422,0.216 -0.115,0.061 -0.265,0.079 -0.39,0.024 -0.09,-0.014 -0.153,-0.1 -0.156,-0.213 -0.145,-0.754 -0.309,-1.436 -0.393,-2.221 -0.078,-0.664 -0.07,-1.32 -0.022,-2.054 -1.19,-0.272 -2.412,-0.594 -3.359,-0.875 0.106,0.593 0.183,1.267 0.385,1.871 0.234,0.765 0.616,1.513 0.937,2.291 0.004,0.119 0.008,0.234 -0.08,0.336 -0.12,0.062 -0.269,0.197 -0.421,0.214 -0.212,0.049 -0.358,0.069 -0.483,0.012 -0.125,-0.051 -0.244,-0.109 -0.252,-0.224 -0.322,-0.78 -0.764,-1.498 -0.967,-2.334 -0.232,-0.768 -0.348,-1.594 -0.518,-2.393 0.06,-0.029 0.029,-0.068 -0.005,-0.117 -0.03,-0.041 -0.061,-0.086 -0.094,-0.127 -0.119,-0.057 -0.242,-0.11 -0.366,-0.164 -0.524,-0.266 -1.106,-0.496 -1.749,-0.815 -0.018,0.539 0.027,1.047 0.012,1.586 0.109,0.826 0.282,1.625 0.456,2.42 0.005,0.115 -0.052,0.262 -0.172,0.321 -0.087,0.107 -0.267,0.201 -0.419,0.216 -0.184,-0.019 -0.333,-0.006 -0.458,-0.06 -0.154,-0.096 -0.216,-0.18 -0.278,-0.268 -0.114,-0.828 -0.345,-1.594 -0.398,-2.451 -0.079,-0.785 -0.009,-1.586 0.055,-2.391 -0.857,-0.383 -1.689,-0.842 -2.609,-1.313 -0.043,0.612 -0.119,1.182 -0.103,1.764 0.019,0.811 0.228,1.653 0.277,2.51 0.066,0.086 -0.026,0.192 -0.146,0.252 -0.145,0.133 -0.266,0.196 -0.45,0.17 -0.208,0.049 -0.331,-0.006 -0.455,-0.06 -0.122,-0.057 -0.184,-0.145 -0.189,-0.258 -0.112,-0.828 -0.286,-1.623 -0.336,-2.483 0.035,-0.844 0.166,-1.678 0.203,-2.522 0,0 0.058,-0.033 0.029,-0.074 -0.922,-0.47 -1.814,-1.015 -2.707,-1.562 -0.101,0.761 -0.353,1.535 -0.363,2.31 -0.097,0.875 -0.014,1.778 -0.02,2.665 0.002,0.115 -0.086,0.219 -0.174,0.322 -0.119,0.063 -0.298,0.152 -0.476,0.129 -0.213,0.049 -0.367,-0.049 -0.492,-0.104 -0.124,-0.054 -0.219,-0.181 -0.221,-0.3 0.008,-0.886 -0.045,-1.745 0.02,-2.661 0.039,-0.848 0.289,-1.744 0.444,-2.648 -0.004,-0.118 0.148,-0.25 0.235,-0.354 l 0.06,-0.031 c -0.773,-0.49 -1.542,-0.983 -2.255,-1.502 -0.192,0.746 -0.442,1.525 -0.603,2.316 -0.161,0.905 -0.165,1.795 -0.26,2.67 0.002,0.117 -0.088,0.223 -0.174,0.322 -0.18,0.094 -0.33,0.114 -0.514,0.09 -0.209,0.047 -0.334,-0.007 -0.49,-0.103 -0.062,-0.09 -0.154,-0.217 -0.156,-0.334 0.097,-0.875 0.102,-1.764 0.261,-2.668 0.155,-0.908 0.437,-1.76 0.719,-2.613 0.057,-0.145 0.141,-0.248 0.264,-0.313 l 0.058,-0.029 c -0.774,-0.608 -1.457,-1.199 -2.14,-1.797 -0.282,0.736 -0.596,1.43 -0.789,2.178 -0.281,0.851 -0.409,1.8 -0.623,2.619 0,0.117 -0.151,0.254 -0.27,0.314 -0.119,0.061 -0.328,0.11 -0.51,0.084 -0.183,-0.023 -0.308,-0.076 -0.371,-0.166 -0.121,-0.053 -0.125,-0.172 -0.127,-0.287 0.155,-0.906 0.318,-1.814 0.563,-2.707 0.253,-0.894 0.683,-1.766 1.021,-2.648 0.027,-0.069 0.15,-0.133 0.178,-0.207 -0.373,-0.278 -1.088,-0.918 -2.086,-2.057 -0.437,0.752 -0.844,1.434 -1.213,2.154 -0.403,0.912 -0.65,1.809 -0.932,2.66 -0.06,0.149 -0.177,0.207 -0.357,0.299 -0.119,0.065 -0.303,0.039 -0.48,0.014 -0.185,-0.027 -0.307,-0.08 -0.401,-0.209 -0.064,-0.088 -0.07,-0.203 -0.07,-0.318 0.341,-0.883 0.589,-1.776 0.988,-2.69 0.371,-0.842 0.988,-1.685 1.413,-2.555 0.093,-0.107 0.177,-0.207 0.332,-0.23 -0.408,-0.438 -0.784,-0.953 -1.225,-1.553 -0.438,0.522 -0.79,1.057 -1.2,1.619 -0.523,0.858 -0.893,1.694 -1.384,2.594 0.006,0.117 -0.175,0.207 -0.327,0.229 -0.117,0.06 -0.3,0.037 -0.486,0.013 -0.211,-0.072 -0.275,-0.156 -0.369,-0.285 -0.062,-0.084 -0.064,-0.203 -0.012,-0.346 0.465,-0.826 0.864,-1.74 1.386,-2.599 0.527,-0.738 1.112,-1.512 1.73,-2.24 -0.377,-0.518 -0.663,-1.02 -1.075,-1.575 -0.526,0.506 -1.062,1.016 -1.595,1.522 -0.735,0.793 -1.289,1.609 -1.933,2.412 -0.093,0.102 -0.211,0.162 -0.417,0.211 -0.152,0.017 -0.336,-0.006 -0.458,-0.059 -0.153,-0.101 -0.249,-0.228 -0.253,-0.345 0,-0.118 -0.002,-0.231 0.08,-0.336 0.647,-0.801 1.262,-1.647 1.938,-2.41 0.65,-0.686 1.33,-1.329 2.067,-2.002 -0.22,-0.299 -0.409,-0.672 -0.663,-1.016 0,0 -0.006,-0.232 -0.137,-0.639 -0.621,0.496 -1.216,1.037 -1.775,1.619 -0.68,0.641 -1.265,1.414 -1.884,2.147 -0.087,0.101 -0.233,0.117 -0.356,0.182 -0.095,-0.012 -0.276,-0.04 -0.341,-0.125 -0.118,-0.055 -0.18,-0.139 -0.187,-0.256 -0.003,-0.118 0.056,-0.264 0.147,-0.369 0.613,-0.729 1.17,-1.428 1.877,-2.145 0.652,-0.686 1.42,-1.312 2.101,-1.961 0.059,-0.027 0.059,-0.027 0.119,-0.06 -0.132,-0.403 -0.294,-0.852 -0.432,-1.372 -0.56,0.467 -1.185,0.965 -1.778,1.502 -0.741,0.676 -1.354,1.401 -2.032,2.162 -0.088,0.106 -0.239,0.122 -0.333,0.112 -0.147,0.015 -0.242,0.008 -0.394,-0.096 -0.064,-0.082 -0.156,-0.211 -0.163,-0.326 -0.002,-0.119 0.087,-0.221 0.174,-0.326 0.68,-0.76 1.296,-1.49 2.039,-2.164 0.677,-0.643 1.448,-1.272 2.16,-1.873 -0.076,-0.434 -0.209,-0.838 -0.371,-1.287 -0.502,0.433 -1.037,0.826 -1.541,1.261 -0.707,0.602 -1.266,1.299 -1.887,1.912 -0.086,0.106 -0.207,0.166 -0.298,0.151 -0.186,-0.024 -0.274,-0.033 -0.338,-0.119 -0.093,-0.131 -0.156,-0.217 -0.16,-0.332 0,-0.116 0.085,-0.221 0.173,-0.323 0.619,-0.615 1.213,-1.269 1.889,-1.912 0.589,-0.541 1.306,-1.023 1.928,-1.519 -0.101,-0.479 -0.268,-0.924 -0.339,-1.36 -0.652,0.45 -1.25,0.875 -1.779,1.383 -0.714,0.602 -1.303,1.256 -1.982,1.901 -0.03,0.074 -0.178,0.089 -0.328,0.105 -0.094,-0.01 -0.215,-0.063 -0.279,-0.146 -0.124,-0.061 -0.13,-0.174 -0.13,-0.293 -0.001,-0.118 0.087,-0.219 0.172,-0.323 0.624,-0.615 1.21,-1.267 1.924,-1.871 0.65,-0.57 1.388,-1.123 2.134,-1.683 -0.069,-0.319 -0.166,-0.68 -0.302,-0.965 -0.529,0.388 -1.096,0.857 -1.596,1.289 -0.653,0.57 -1.184,1.197 -1.799,1.81 -0.093,0.104 -0.15,0.133 -0.301,0.153 -0.094,-0.012 -0.214,-0.069 -0.275,-0.155 -0.064,-0.086 -0.158,-0.214 -0.162,-0.332 0.026,-0.074 0.084,-0.22 0.111,-0.293 0.622,-0.611 1.21,-1.267 1.799,-1.808 0.653,-0.569 1.336,-1.094 2.018,-1.623 -0.098,-0.244 -0.103,-0.479 -0.197,-0.721 -0.539,0.275 -1.045,0.592 -1.551,0.91 -0.749,0.442 -1.459,1.041 -2.176,1.526 -0.117,0.062 -0.24,0.125 -0.361,0.068 -0.088,-0.014 -0.151,-0.1 -0.213,-0.184 -0.063,-0.086 -0.07,-0.201 -0.01,-0.347 0.028,-0.076 0.112,-0.18 0.141,-0.254 0.777,-0.514 1.426,-1.084 2.236,-1.555 0.533,-0.392 1.131,-0.697 1.727,-1.002 -0.035,-0.279 -0.136,-0.523 -0.172,-0.801 0,0 -0.077,-0.254 0.517,-0.341 0.592,-0.09 0.891,0.039 0.891,0.039 0.01,0.228 0.014,0.464 0.086,0.783 0.057,-0.029 0.057,-0.029 0.118,-0.061 0.06,-0.031 0.179,-0.091 0.3,-0.037 0.093,0.012 0.126,0.055 0.153,0.098 0.486,-0.014 1.005,0.015 1.461,0.08 0.695,0.053 1.368,0.182 2.037,0.31 0.091,0.014 0.183,0.026 0.244,0.11 0.035,0.043 0.095,0.129 0.066,0.205 0.004,0.115 -0.025,0.189 -0.082,0.221 -0.12,0.06 -0.179,0.089 -0.27,0.078 -0.673,-0.127 -1.342,-0.256 -2.039,-0.313 -0.459,-0.06 -0.942,-0.049 -1.404,-0.111 -0.024,0.074 -0.024,0.074 -0.082,0.105 -0.119,0.063 -0.241,0.125 -0.358,0.182 0.036,0.277 0.135,0.523 0.203,0.838 0.034,0.047 0.123,0.057 0.157,0.1 0.665,0.011 1.328,0.027 2.029,0.084 0.821,0.107 1.58,0.248 2.406,0.359 0.122,0.053 0.211,0.066 0.276,0.152 0.062,0.086 0.127,0.172 0.129,0.287 -0.03,0.075 -0.116,0.178 -0.176,0.209 -0.03,0.075 -0.183,0.094 -0.272,0.08 -0.821,-0.111 -1.586,-0.248 -2.404,-0.361 -0.636,-0.086 -1.365,-0.066 -2.032,-0.082 0.098,0.365 0.202,0.723 0.301,1.088 0.091,0.012 0.123,0.055 0.216,0.064 0.91,0.008 1.816,0.014 2.699,0.09 0.938,0.053 1.879,0.219 2.886,0.354 0.093,0.011 0.214,0.066 0.279,0.154 0.122,0.053 0.155,0.213 0.157,0.328 -0.025,0.074 -0.081,0.221 -0.143,0.254 -0.118,0.059 -0.239,0.123 -0.361,0.066 -0.976,-0.089 -1.918,-0.257 -2.889,-0.349 -0.849,-0.041 -1.757,-0.043 -2.609,-0.082 0.074,0.437 0.203,0.842 0.37,1.287 0.058,-0.029 0.117,-0.061 0.212,-0.047 0.027,0.041 0.122,0.053 0.212,0.066 0.787,-0.048 1.606,-0.056 2.425,-0.06 0.908,0.004 1.819,0.127 2.699,0.211 0.15,-0.02 0.214,0.066 0.336,0.121 0.062,0.086 0.125,0.172 0.1,0.242 0,0.117 -0.087,0.223 -0.147,0.252 -0.09,0.106 -0.236,0.123 -0.332,0.111 -0.939,-0.046 -1.791,-0.205 -2.701,-0.209 -0.816,0.004 -1.602,0.053 -2.424,0.063 -0.057,0.027 -0.085,0.103 -0.144,0.133 0.128,0.406 0.292,0.851 0.459,1.303 0,0 0.058,-0.034 0.089,0.009 0.058,-0.031 0.058,-0.031 0.153,-0.015 1.028,-0.057 2.143,-0.219 3.207,-0.229 1.06,-0.015 2.179,0.061 3.238,0.049 0.125,0.051 0.311,0.08 0.371,0.162 0.063,0.086 0.127,0.172 0.128,0.291 0.006,0.117 -0.085,0.221 -0.172,0.324 -0.12,0.061 -0.241,0.123 -0.39,0.139 -1.032,-0.061 -2.158,-0.135 -3.214,-0.121 -1.032,0.057 -2.03,0.156 -3.025,0.252 l -0.062,0.033 c 0.17,0.561 0.364,1.051 0.589,1.586 1.058,-0.131 2.143,-0.334 3.233,-0.416 1.087,-0.088 2.235,-0.088 3.419,-0.162 0.15,-0.02 0.273,0.037 0.396,0.092 0.064,0.086 0.127,0.172 0.127,0.291 0.006,0.115 -0.082,0.216 -0.174,0.322 -0.082,0.105 -0.236,0.123 -0.387,0.141 -1.12,0.043 -2.273,0.041 -3.419,0.158 -0.906,0.111 -1.873,0.252 -2.838,0.396 0.226,0.53 0.451,1.061 0.709,1.524 0.117,-0.065 0.237,-0.125 0.387,-0.141 1.145,-0.117 2.295,-0.348 3.412,-0.393 1.178,-0.074 2.305,0 3.455,0 0.15,-0.019 0.275,0.034 0.369,0.165 0.121,0.054 0.156,0.21 0.16,0.332 -0.056,0.148 -0.115,0.294 -0.201,0.396 -0.089,0.106 -0.299,0.154 -0.389,0.141 -1.154,0 -2.332,-0.043 -3.424,0.045 -1.031,0.054 -2.145,0.214 -3.205,0.339 0.034,0.043 -0.025,0.075 -0.085,0.106 0.317,0.543 0.636,1.09 0.953,1.635 0.089,-0.102 0.267,-0.196 0.418,-0.213 1.116,-0.16 2.231,-0.434 3.38,-0.551 1.148,-0.115 2.303,-0.117 3.418,-0.16 0.149,-0.016 0.332,0.008 0.428,0.137 0.123,0.056 0.159,0.214 0.162,0.33 0.031,0.158 -0.052,0.261 -0.143,0.367 -0.087,0.103 -0.269,0.195 -0.419,0.215 -1.123,0.045 -2.272,0.043 -3.416,0.156 -1,0.1 -1.993,0.314 -3.022,0.486 -0.025,0.073 -0.089,0.104 -0.175,0.209 0.41,0.557 0.82,1.115 1.289,1.641 0.059,-0.026 0.118,-0.061 0.209,-0.049 1.142,-0.232 2.287,-0.463 3.439,-0.582 1.148,-0.115 2.301,-0.115 3.416,-0.156 0.152,-0.02 0.337,0.006 0.426,0.133 0.123,0.058 0.163,0.212 0.165,0.33 0.034,0.158 -0.055,0.263 -0.142,0.369 -0.148,0.135 -0.265,0.193 -0.419,0.217 -1.12,0.037 -2.27,0.041 -3.418,0.156 -0.999,0.099 -1.993,0.312 -2.96,0.453 0.631,0.74 1.34,1.377 2.114,1.984 0.089,-0.101 0.209,-0.162 0.359,-0.181 1.176,-0.192 2.291,-0.467 3.438,-0.584 1.148,-0.114 2.298,-0.116 3.419,-0.158 0.155,-0.018 0.338,0.001 0.432,0.134 0.119,0.055 0.156,0.211 0.158,0.33 0.033,0.161 -0.022,0.309 -0.109,0.412 -0.18,0.094 -0.303,0.157 -0.451,0.17 -1.116,0.043 -2.274,0.045 -3.419,0.161 -0.964,0.14 -1.992,0.312 -2.989,0.527 0.437,0.365 1.06,0.99 2.113,1.752 0.055,-0.031 0.174,-0.092 0.269,-0.08 1.114,-0.276 2.255,-0.623 3.339,-0.83 1.148,-0.229 2.291,-0.346 3.442,-0.463 0.155,-0.02 0.333,0.008 0.395,0.095 0.124,0.049 0.219,0.18 0.253,0.342 0.005,0.114 -0.055,0.262 -0.138,0.367 -0.09,0.102 -0.177,0.206 -0.328,0.225 -1.153,0.115 -2.329,0.191 -3.478,0.424 -0.932,0.184 -1.836,0.408 -2.799,0.666 0.682,0.478 1.451,0.969 2.285,1.545 0.118,-0.061 0.182,-0.094 0.238,-0.123 1.175,-0.307 2.256,-0.625 3.434,-0.813 1.146,-0.234 2.234,-0.318 3.44,-0.468 0.154,-0.018 0.277,0.037 0.398,0.093 0.122,0.057 0.219,0.186 0.221,0.301 0.033,0.156 -0.022,0.307 -0.112,0.41 -0.086,0.102 -0.176,0.209 -0.356,0.184 -1.177,0.187 -2.325,0.305 -3.445,0.465 -0.902,0.226 -1.746,0.422 -2.651,0.65 0.648,0.432 1.448,0.85 2.192,1.299 l 0.059,-0.031 c 0.085,-0.104 0.207,-0.166 0.327,-0.229 1.169,-0.305 2.254,-0.623 3.427,-0.812 1.148,-0.235 2.299,-0.35 3.441,-0.463 0.153,-0.022 0.305,-0.037 0.401,0.09 0.121,0.052 0.217,0.183 0.217,0.3 0.039,0.159 -0.02,0.307 -0.106,0.409 -0.092,0.109 -0.208,0.168 -0.363,0.185 -1.17,0.188 -2.293,0.234 -3.438,0.463 -0.933,0.184 -1.807,0.455 -2.711,0.682 0,0 0.034,0.043 -0.028,0.074 0.771,0.375 1.628,0.758 2.515,1.187 l 0.03,-0.074 c 0.091,-0.103 0.207,-0.164 0.385,-0.258 1.085,-0.318 2.223,-0.668 3.342,-0.943 1.112,-0.273 2.26,-0.389 3.436,-0.58 0.063,-0.031 0.152,-0.02 0.276,0.037 0.06,-0.031 0.091,0.01 0.124,0.055 0.12,0.056 0.213,0.183 0.276,0.269 -0.026,0.072 0.006,0.114 -0.026,0.19 0.004,0.115 -0.027,0.191 -0.084,0.222 -0.054,0.145 -0.171,0.205 -0.384,0.254 -1.119,0.162 -2.231,0.319 -3.381,0.551 -0.9,0.23 -1.832,0.529 -2.705,0.799 l -0.03,0.074 c 0.772,0.373 1.564,0.672 2.422,1.055 1.049,-0.473 2.098,-0.951 3.174,-1.387 0.604,-0.191 1.142,-0.346 1.744,-0.535 0.545,-0.162 1.116,-0.281 1.567,-0.449 0.207,-0.049 0.33,0.006 0.513,0.031 0.124,0.053 0.186,0.137 0.28,0.266 0.096,0.13 0.041,0.279 -0.02,0.425 -0.027,0.073 -0.17,0.207 -0.325,0.225 -0.451,0.174 -0.868,0.271 -1.355,0.4 -0.692,0.178 -1.293,0.368 -1.953,0.586 -0.781,0.285 -1.501,0.649 -2.246,0.973 0.439,0.172 0.963,0.354 1.439,0.565 l 0.206,0.06 c 0.232,0.059 0.738,0.184 1.441,0.332 -0.002,-0.117 -0.008,-0.232 0.08,-0.337 0.057,-0.147 0.148,-0.25 0.264,-0.313 0.539,-0.273 1.018,-0.519 1.557,-0.795 0.419,-0.215 0.867,-0.385 1.287,-0.6 0.959,-0.373 1.89,-0.672 2.851,-1.047 0.153,-0.019 0.3,-0.037 0.423,0.02 0.093,0.007 0.19,0.136 0.19,0.254 0.002,0.119 0.006,0.232 -0.055,0.38 -0.085,0.106 -0.169,0.209 -0.292,0.274 -0.988,0.328 -1.981,0.659 -2.942,1.032 -0.299,0.152 -0.596,0.304 -0.896,0.459 -0.417,0.211 -0.896,0.457 -1.315,0.671 -0.032,0.077 -0.023,0.192 -0.055,0.266 0.577,0.117 1.132,0.305 1.71,0.424 0.092,-0.107 0.119,-0.18 0.23,-0.236 0.064,-0.032 0.094,-0.108 0.153,-0.137 0.652,-0.457 1.216,-0.918 1.871,-1.375 0.656,-0.453 1.373,-0.819 2.06,-1.229 0.117,-0.063 0.211,-0.049 0.301,-0.035 0.092,0.011 0.155,0.097 0.125,0.172 0.061,0.082 0.066,0.199 0.012,0.345"
           style="fill:#ffffff;fill-opacity:1;fill-rule:nonzero;stroke:none"
           id="path50"
           inkscape:connector-curvature="0" /></g></g></g></svg>