<?xml version="1.0" encoding="UTF-8" standalone="no"?>
<!-- Created with Inkscape (http://www.inkscape.org/) -->

<svg
   xmlns:dc="http://purl.org/dc/elements/1.1/"
   xmlns:cc="http://creativecommons.org/ns#"
   xmlns:rdf="http://www.w3.org/1999/02/22-rdf-syntax-ns#"
   xmlns:svg="http://www.w3.org/2000/svg"
   xmlns="http://www.w3.org/2000/svg"
   xmlns:sodipodi="http://sodipodi.sourceforge.net/DTD/sodipodi-0.dtd"
   xmlns:inkscape="http://www.inkscape.org/namespaces/inkscape"
   id="svg2"
   version="1.1"
   inkscape:version="0.48.4 r9939"
   width="550"
   height="532.5"
       viewBox = "0 0 550 532"
   xml:space="preserve"
   sodipodi:docname="Baseball (7).pdf"><metadata
     id="metadata8"><rdf:RDF><cc:Work
         rdf:about=""><dc:format>image/svg+xml</dc:format><dc:type
           rdf:resource="http://purl.org/dc/dcmitype/StillImage" /><dc:title></dc:title></cc:Work></rdf:RDF></metadata><defs
     id="defs6"><clipPath
       clipPathUnits="userSpaceOnUse"
       id="clipPath16"><path
         d="M 0,426 440,426 440,0 0,0 0,426 z"
         id="path18" /></clipPath></defs><sodipodi:namedview
     pagecolor="#ffffff"
     bordercolor="#666666"
     borderopacity="1"
     objecttolerance="10"
     gridtolerance="10"
     guidetolerance="10"
     inkscape:pageopacity="0"
     inkscape:pageshadow="2"
     inkscape:window-width="1366"
     inkscape:window-height="705"
     id="namedview4"
     showgrid="false"
     inkscape:zoom="0.22159624"
     inkscape:cx="534.13909"
     inkscape:cy="217.92524"
     inkscape:window-x="-4"
     inkscape:window-y="-4"
     inkscape:window-maximized="1"
     inkscape:current-layer="g10" /><g
     id="g10"
     inkscape:groupmode="layer"
     inkscape:label="Baseball (7)"
     transform="matrix(1.25,0,0,-1.25,0,532.5)"><path
       d="m 175.05,418.56 c 13.31,3.9 27.15,5.46 40.93,6.6 5.32,0.98 10.64,-0.7 15.97,-0.04 3,0.38 6.03,0.87 9.05,0.33 6.28,-1.03 12.65,-1.22 18.93,-2.25 38.01,-5.62 74.17,-22.12 104.01,-46.21 28.11,-22.98 49.88,-53.6 62.26,-87.74 6.7,-18.09 10.8,-37.14 12.42,-56.36 0.31,-3.63 1.54,-7.22 0.92,-10.89 -0.94,-6.61 -0.61,-13.34 -0.11,-19.98 -1.65,-22.81 -6.03,-45.59 -14.68,-66.84 C 409.83,97.03 382.48,64.19 348.57,41.38 331.05,29.61 311.98,20.25 292.31,12.65 276.78,6.85 260.6,2.59 244.05,1.14 c -6.97,-1.18 -14,0.54 -21,-0.38 -18.65,0.96 -36.66,6.65 -54.01,13.23 -18.61,6.94 -36.83,15.16 -56.21,19.82 -17.06,3.93 -34.55,5.76 -52.02,6.53 9.58,8.18 21.59,13.73 34.22,14.78 12.88,1.07 25.65,-2 37.88,-5.76 21.89,-6.22 43.61,-13.47 66.23,-16.61 30.98,-4.5 63.14,-1.42 92.51,9.51 23.35,8.64 44.63,22.36 62.87,39.23 14.23,12.16 28.52,26.21 33.23,44.99 -3.79,3.22 -8.12,5.68 -12.27,8.38 -8.06,-8.75 -18.88,-14.32 -30.21,-17.55 6.45,7.03 12.84,14.3 17.25,22.83 -8.33,3.31 -17.57,3.43 -26.37,2.55 -1.75,-10.18 -7.52,-19.41 -15.88,-25.47 2.23,7.18 3.46,14.66 3.66,22.18 -10.78,-4.05 -20.27,-10.78 -29.66,-17.32 1.63,-10.14 -1.44,-20.8 -8.15,-28.56 0.03,6.94 -0.53,13.9 -2.23,20.65 -8.34,-6.39 -16.75,-12.71 -24.9,-19.33 -0.62,-2.74 -0.26,-5.61 -0.77,-8.37 -1.19,-6.89 -4.43,-13.37 -8.98,-18.66 0.23,6.48 0.01,12.99 -1.12,19.38 -9.19,-5.85 -18.75,-11.13 -28.71,-15.55 -1.46,-0.84 -3.7,-1.22 -3.92,-3.22 -1.71,-6.82 -5.27,-13.05 -9.98,-18.25 0.45,5.27 0.47,10.56 0.36,15.84 -11.23,-3.85 -22.83,-6.92 -34.72,-7.69 -1.38,-0.23 -3.25,0.01 -3.73,-1.68 -2.29,-4.39 -5.31,-8.51 -9.56,-11.18 0.78,4.13 1.71,8.23 2.17,12.42 -12.02,0.65 -24.03,2.54 -35.4,6.58 -11.59,3.97 -22.41,9.88 -32.69,16.5 -1.19,0.76 -2.46,1.43 -3.88,1.55 -14.57,2.11 -29.56,4.16 -44.15,1.12 -6.2,-1.18 -11.93,-4.21 -16.52,-8.53 0.63,5.14 2.27,10.6 6.79,13.65 9.45,6.65 21.79,4.43 32.18,8.58 -8.09,5.53 -16.77,10.21 -25.74,14.16 -11.11,4.91 -23.07,7.3 -34.87,9.92 10.84,3.35 22.38,4.82 33.7,3.74 15.11,-1.7 28.45,-9.46 41.88,-15.98 22.72,-11.36 47.35,-20.02 72.95,-21 -2.35,3.94 -5.71,7.09 -9.34,9.83 7.1,0.15 13.94,-3.21 18.58,-8.5 1.24,-1.93 3.62,-1.15 5.52,-1.14 9.07,0.67 18.1,2.3 26.74,5.13 0,0.28 0.01,0.83 0.01,1.11 -3.51,4.24 -8.17,7.36 -12.87,10.13 8.56,0.85 17.15,-2 23.92,-7.21 9.6,4.46 18.99,9.44 27.86,15.25 -4.05,4.03 -8.94,7 -13.44,10.45 7.84,1.13 15.62,-1.07 22.69,-4.31 9.44,5.79 17.74,13.27 26.44,20.09 -4.92,6.2 -11.48,10.7 -17.95,15.12 9.46,0.51 18.81,-2.53 26.62,-7.75 4.33,2.22 7.85,5.96 12.04,8.54 8.03,5.87 16.8,10.58 25.93,14.46 -3.58,6.02 -7.63,11.82 -12.84,16.54 9.03,-1.68 16.82,-7.06 23.09,-13.57 14.52,3.34 29.78,4.53 44.35,0.73 -0.08,7.87 -1.8,15.55 -3.72,23.13 4.97,-4.88 10.11,-9.96 12.88,-16.48 1.54,-3.51 1.83,-7.39 1.91,-11.18 7.53,-3.77 14.07,-9.21 19.8,-15.35 1.52,0.44 1.01,2.75 1.69,3.89 7.93,27.75 10.68,57.08 6.98,85.76 -1.6,13.08 -4.35,26.02 -8.16,38.63 -3.7,-3.45 -7.11,-7.25 -11.26,-10.2 -2.03,-1.63 -4.47,-2.7 -6.33,-4.53 -1.08,-13.46 -8.55,-25.41 -17.93,-34.75 2.53,9.37 4.21,19.01 3.83,28.75 -13.45,-3.76 -27.75,-4.12 -41.38,-1.11 -6.51,-7.39 -15.52,-12.26 -24.98,-14.72 5.05,5.54 9.52,11.61 12.88,18.32 -13.34,5.56 -25.41,13.68 -36.95,22.28 -7.29,-3.89 -15.35,-6.4 -23.64,-6.79 5.1,4.19 10.67,7.98 14.72,13.29 -8.08,6.63 -16.57,12.84 -25.06,18.93 -7.22,-3.65 -15.16,-5.88 -23.29,-5.8 4.98,3.98 10.51,7.41 14.55,12.45 -9.53,6.68 -19.64,12.54 -30.46,16.89 -4.93,-4.2 -10.56,-7.58 -16.9,-9.14 2.68,3.99 5.91,7.62 8.18,11.88 -11.34,2.78 -22.95,4.58 -34.65,4.65 -4,-4.53 -9.12,-8.15 -15.03,-9.67 2.1,3.04 3.93,6.24 5.62,9.51 -24.92,-1.24 -49.22,-8.84 -71.41,-20.02 -14.22,-6.92 -28.6,-14.68 -44.6,-16.29 -12.84,-0.98 -25.94,1.02 -37.86,5.9 22.43,3.51 44.77,9.39 64.88,20.16 -9.18,0.97 -18.47,3.11 -26.27,8.29 -4.77,2.87 -8.47,7.05 -12.32,10.98 14.55,-4.86 30.38,-7.84 45.55,-4.11 16.64,4.13 31.14,13.93 47.51,18.87 12.44,4.14 25.48,5.96 38.52,6.7 -0.78,3.59 -1.55,7.19 -2.07,10.84 5.23,-2.1 9.28,-6.09 12.33,-10.73 12.74,-0.95 25.53,-2.68 37.62,-7.02 -0.05,5.51 -0.81,10.98 -1.33,16.45 6.92,-4.69 11.33,-12.4 12.47,-20.62 10.93,-4.51 21.16,-10.46 31.3,-16.49 0.24,4.96 -0.43,9.89 -0.64,14.84 7.56,-5.23 12.25,-13.92 12.83,-23.06 2.02,-2.31 4.67,-3.97 6.99,-5.97 5.51,-4.37 10.58,-9.27 16.03,-13.7 1.41,6.42 1.7,12.99 1.75,19.54 6.38,-7.05 10.78,-16.47 10.06,-26.13 0.13,-1.37 -0.73,-3.25 0.7,-4.18 8.24,-6.62 17.16,-12.47 26.93,-16.58 0.42,6.92 -0.47,13.79 -1.2,20.65 7.37,-6.3 12.36,-15.04 14.6,-24.44 8.88,-1.55 18,-1.32 26.75,0.89 -3.67,8.26 -9.64,15.15 -15.26,22.11 10.83,-2.58 20.96,-8.18 28.33,-16.6 4.13,1.42 7.75,3.96 11.57,6.04 -17.7,30.23 -40.78,58.1 -70.69,76.89 -23.35,14.81 -50.49,23.36 -78.04,25.19 -35.61,2.49 -71.17,-4.88 -104.74,-16.33 -8.34,-2.64 -16.32,-6.54 -25.02,-7.92 -11.14,-1.68 -22.8,-0.43 -33.14,4.14 -7.89,3.46 -14.57,9.04 -21,14.66 25.68,-3.22 52.11,-0.53 76.38,8.6 14.2,5.08 28.08,11.14 42.61,15.3"
       style="fill:#070607;fill-opacity:1;fill-rule:nonzero;stroke:none"
       id="path22"
       inkscape:connector-curvature="0" /></g></svg>