<?xml version="1.0" encoding="UTF-8" standalone="no"?>
<!-- Created with Inkscape (http://www.inkscape.org/) -->

<svg
   xmlns:dc="http://purl.org/dc/elements/1.1/"
   xmlns:cc="http://creativecommons.org/ns#"
   xmlns:rdf="http://www.w3.org/1999/02/22-rdf-syntax-ns#"
   xmlns:svg="http://www.w3.org/2000/svg"
   xmlns="http://www.w3.org/2000/svg"
   xmlns:sodipodi="http://sodipodi.sourceforge.net/DTD/sodipodi-0.dtd"
   xmlns:inkscape="http://www.inkscape.org/namespaces/inkscape"
   id="svg2"
   version="1.1"
   inkscape:version="0.48.4 r9939"
   width="364.90781"
   height="356.40634"
   viewBox = "0 0 364 356"
   xml:space="preserve"
   sodipodi:docname="Baseball (11).pdf"><metadata
     id="metadata8"><rdf:RDF><cc:Work
         rdf:about=""><dc:format>image/svg+xml</dc:format><dc:type
           rdf:resource="http://purl.org/dc/dcmitype/StillImage" /><dc:title></dc:title></cc:Work></rdf:RDF></metadata><defs
     id="defs6"><clipPath
       clipPathUnits="userSpaceOnUse"
       id="clipPath16"><path
         d="M 0,792 612,792 612,0 0,0 0,792 z"
         id="path18"
         inkscape:connector-curvature="0" /></clipPath></defs><sodipodi:namedview
     pagecolor="#ffffff"
     bordercolor="#666666"
     borderopacity="1"
     objecttolerance="10"
     gridtolerance="10"
     guidetolerance="10"
     inkscape:pageopacity="0"
     inkscape:pageshadow="2"
     inkscape:window-width="640"
     inkscape:window-height="480"
     id="namedview4"
     showgrid="false"
     fit-margin-top="0"
     fit-margin-left="0"
     fit-margin-right="0"
     fit-margin-bottom="0"
     inkscape:zoom="0.23838384"
     inkscape:cx="198.0275"
     inkscape:cy="182.30409"
     inkscape:window-x="0"
     inkscape:window-y="0"
     inkscape:window-maximized="0"
     inkscape:current-layer="g10" /><g
     id="g10"
     inkscape:groupmode="layer"
     inkscape:label="Baseball (11)"
     transform="matrix(1.25,0,0,-1.25,-184.4725,669.10226)"><g
       id="g12"><g
         id="g14"
         clip-path="url(#clipPath16)"><path
           d="m 354.887,516.906 c -0.045,-0.016 -0.092,-0.022 -0.137,-0.037 0.047,-0.036 0.098,-0.073 0.141,-0.107 l -0.004,0.144 z"
           style="fill:#d99f77;fill-opacity:1;fill-rule:nonzero;stroke:none"
           id="path20"
           inkscape:connector-curvature="0" /><path
           d="m 354.75,516.869 c -2.428,1.815 -12.797,5.634 -12.797,5.634 -2.203,0.717 -4.377,1.37 -6.535,1.993 3.889,-3.616 12.113,-10.037 19.332,-7.627"
           style="fill:#d99f77;fill-opacity:1;fill-rule:nonzero;stroke:none"
           id="path22"
           inkscape:connector-curvature="0" /><path
           d="m 206.87,507.512 c -28.834,-21.738 -42.281,-48.071 -42.839,-49.181 l -0.049,-0.099 -0.044,-0.101 c -9.321,-21.403 -12.648,-41.733 -12.648,-59.85 0,-14.209 2.47,-27.041 5.276,-37.978 -0.663,-0.231 -8.988,12.002 -8.988,12.002 5.89,-55.367 39.266,-82.578 60.512,-96.073 22.483,-14.281 42.367,-18.789 43.969,-19.136 60.847,-17.727 104.166,1.842 129.796,21.394 27.711,21.137 40.889,46.139 41.401,47.211 45.924,96.081 -20.026,171.522 -20.635,172.064 0,0 8.65,-19.964 7.381,-21.082 -25.676,36.311 -64.803,49.001 -66.861,49.64 -64.266,20.903 -109.581,1.309 -136.271,-18.811"
           style="fill:#231f20;fill-opacity:1;fill-rule:nonzero;stroke:none"
           id="path24"
           inkscape:connector-curvature="0" /><path
           d="m 165.099,422.835 c 0,0 -6.5,21.5 7,34.5 0,0 12.5,-16 17,-17 0,0 -3.5,23 14,38 0,0 4.5,-23.5 11,-34 0,0 -1,23 34,32.5 0,0 -31.162,-19.524 -30.162,-41.024 0,0 -16.838,5.024 -16.838,35.024 0,0 -8.603,-11.5 -5.103,-37.5 0,0 -14.397,-4 -23.397,18.5 0,0 -9,-15.5 -7.5,-29"
           style="fill:#bf2033;fill-opacity:1;fill-rule:nonzero;stroke:none"
           id="path26"
           inkscape:connector-curvature="0" /><path
           d="m 243.099,466.335 c 0,0 -6.5,-21.5 -7.5,-38 0,0 32.5,19 49,10.5 0,0 -31.5,-10 -43.5,-30 0,0 40,6.5 49,-11 0,0 -5.203,21.559 -36.203,17.059 0,0 28.203,20.941 39.203,23.941 0,0 -22,15 -50.5,0.5 0,0 3,18 0.5,27"
           style="fill:#bf2033;fill-opacity:1;fill-rule:nonzero;stroke:none"
           id="path28"
           inkscape:connector-curvature="0" /><path
           d="m 284.099,398.835 c 0,0 -25,15 -48.5,-12.999 0,0 33,-0.5 39.5,-19.5 0,0 -23.5,7.5 -50,-12.5 0,0 34.5,-16 39,-33 0,0 -4,22 -23.5,34 0,0 27,13 40.5,3.5 0,0 8.5,27 -34.5,31 0,0 20,10.999 37.5,9.499"
           style="fill:#bf2033;fill-opacity:1;fill-rule:nonzero;stroke:none"
           id="path30"
           inkscape:connector-curvature="0" /><path
           d="m 259.599,322.836 c 0,0 -21.5,17.5 -41.5,-8.5 0,0 36,-4.5 39,-15 0,0 -27.5,4.5 -31.5,-17.5 0,0 23.5,7 38,-8.5 0,0 -10.5,3.5 -21.5,-2.5 0,0 18.5,-14 31,-11 0,0 -11.5,5.5 -17,9.5 0,0 10,1 14,-1.5 0,0 -4.5,27.5 -36,19.5 0,0 24.5,11.5 31.5,8 0,0 -3,21 -37,22.5 0,0 17.5,9 31,5"
           style="fill:#bf2033;fill-opacity:1;fill-rule:nonzero;stroke:none"
           id="path32"
           inkscape:connector-curvature="0" /><path
           d="m 330.902,524.779 c 0,0 14.43,-14.643 26.325,-10.48 0,0 -17.405,-13.308 -31.678,-13.308 0,0 20.219,-11.893 31.519,-8.325 0,0 5.948,-32.114 -16.056,-33.304 0,0 28.281,-7.97 39.843,7.137 0,0 -15.46,-29.735 -53.521,-6.542 0,0 29.732,9.515 26.166,26.761 0,0 -29.141,-3.568 -37.467,16.057 0,0 12.488,-0.589 23.194,6.547 0,0 -7.731,7.726 -8.325,15.457"
           style="fill:#bf2033;fill-opacity:1;fill-rule:nonzero;stroke:none"
           id="path34"
           inkscape:connector-curvature="0" /><path
           d="m 357.662,440.332 c 0,0 39.846,-8.92 29.736,20.814 0,0 21.409,-19.03 -0.595,-39.25 0,0 20.218,-13.083 27.355,5.947 0,0 0.596,-21.408 -20.219,-25.572 0,0 27.358,-14.867 33.303,4.758 0,0 2.379,-24.383 -20.219,-24.383 0,0 11.895,-14.867 19.03,-11.894 0,0 -19.625,-5.352 -29.735,15.463 0,0 16.057,0 20.815,5.947 0,0 -24.977,-3.568 -35.088,12.488 0,0 19.625,2.379 23.789,10.11 0,0 -31.521,-3.568 -33.305,10.705 0,0 17.248,0.595 17.248,18.435 0,0 -7.136,-14.273 -32.115,-3.568"
           style="fill:#bf2033;fill-opacity:1;fill-rule:nonzero;stroke:none"
           id="path36"
           inkscape:connector-curvature="0" /><path
           d="m 408.807,366.59 c 0,0 10.705,-12.488 16.056,-7.732 0,0 -5.351,-15.462 -16.056,7.732"
           style="fill:#bf2033;fill-opacity:1;fill-rule:nonzero;stroke:none"
           id="path38"
           inkscape:connector-curvature="0" /><path
           d="m 408.135,347.484 c 0,0 9.689,-11.302 14.533,-6.998 0,0 -4.844,-13.994 -14.533,6.998"
           style="fill:#bf2033;fill-opacity:1;fill-rule:nonzero;stroke:none"
           id="path40"
           inkscape:connector-curvature="0" /><path
           d="m 409.414,331.32 c 0,0 5.922,-6.849 8.883,-4.24 0,0 -2.961,-8.482 -8.883,4.24"
           style="fill:#bf2033;fill-opacity:1;fill-rule:nonzero;stroke:none"
           id="path42"
           inkscape:connector-curvature="0" /><path
           d="m 424.557,367.434 c 0.023,0.002 0.109,0.009 0.109,0.009 0,0.002 -0.078,-0.005 -0.109,-0.009 z"
           style="fill:none;stroke:#d99f77;stroke-width:1;stroke-linecap:butt;stroke-linejoin:miter;stroke-miterlimit:4;stroke-opacity:1;stroke-dasharray:none"
           id="path44"
           inkscape:connector-curvature="0" /><path
           d="m 240.289,268.443 -3.703,2.803 4.077,2.223 c 4.46,2.433 8.806,3.426 12.57,3.74 -12.34,5.848 -26.606,1.803 -26.782,1.75 l -4.674,-1.377 0.87,4.791 c 2.82,15.506 16.33,20.002 27.085,20.377 -7.282,4.033 -21.713,7.32 -32.005,8.609 l -5.202,0.651 3.196,4.154 c 6.995,9.094 14.994,14.225 23.775,15.246 7.069,0.824 13.1,-1.224 17.054,-3.195 -8.482,10.111 -25.419,19.512 -32.714,22.898 l -4.534,2.106 3.99,3.011 c 19.252,14.53 36.918,15.202 46.111,14.204 -9.462,11.823 -33.577,12.398 -33.851,12.402 l -6.3,0.103 4.049,4.825 c 14.546,17.332 29.896,19.106 40.184,17.564 -13.365,3.244 -18.678,2.686 -31.906,0.546 l -6.374,-1.031 3.322,5.536 c 8.311,13.853 25.05,22.96 35.664,27.622 -12.983,-0.056 -30.218,-8.251 -37.079,-12.256 l -4.847,-2.83 0.339,5.602 c 1.01,16.659 7.354,37.795 7.624,38.687 l 0.006,0.023 C 231.636,460 220.367,448.135 220.934,435.95 l 0.196,-4.223 -4.051,1.209 c -0.652,0.194 -13.598,4.395 -17.707,24.666 -0.688,-3.374 -1.205,-7.433 -1.205,-12.406 0,-3.427 0.234,-7.243 0.802,-11.46 l 0.336,-2.642 -2.576,-0.668 c -0.634,-0.164 -14.36,-3.45 -24.185,14.484 -2.077,-4.767 -4.614,-11.996 -4.614,-18.921 0,-0.949 0.048,-1.892 0.151,-2.822 l 1.394,-20.974 c -0.15,0.496 -9.318,22.674 -8.91,34.601 -17.847,-63.72 14.697,-112.788 14.697,-112.788 -8.836,5.301 -22.383,34.752 -22.383,34.752 18.458,-76.627 92.142,-95.891 99.527,-97.639 -6.664,3.24 -11.712,7.018 -12.117,7.324"
           style="fill:#f5e4d7;fill-opacity:1;fill-rule:nonzero;stroke:none"
           id="path46"
           inkscape:connector-curvature="0" /><path
           d="m 419.893,342.514 c 0.462,-0.032 0.64,0.09 0.781,0.215 l 8.453,7.513 c 22.561,69.788 -15.902,127.496 -15.902,127.496 4.711,-13.547 8.834,-32.985 8.834,-32.985 -12.149,36.813 -40.403,57.981 -59.885,68.681 0,0 -15.938,-12.622 -27.02,-13.899 6.797,-2.963 15.537,-5.737 21.01,-4.009 l 3.236,1.022 0.618,-3.338 c 0.066,-0.356 0.783,-4.365 0.783,-9.621 0,-6.361 -1.051,-14.548 -5.574,-20.294 -0.832,-1.056 -1.75,-1.988 -2.745,-2.806 8.532,-0.721 20.014,0.022 25.993,7.833 l 2.754,5.053 6.552,-9.253 c 3.686,-2.122 8.399,-7.662 10.721,-14.969 0.719,-2.262 1.232,-4.887 1.232,-7.768 0,-5.546 -1.916,-12.04 -7.939,-18.71 3.228,-1.442 8.215,-3.04 12.5,-1.616 3.164,1.05 9.217,10.022 11.045,16.68 l 1.525,-6.981 c 0.004,-0.2 0.301,-3.235 0.301,-3.444 0,-7.088 -3.303,-19.392 -14.937,-25.32 5.14,-1.758 11.634,-3.075 16.263,-1.171 2.871,1.181 4.795,3.496 5.879,7.076 l 3.834,11.747 2.443,-14.127 c 0.571,-12.037 -4.964,-22.431 -17.441,-25.215 3.563,-3.529 10.703,-6.91 10.703,-6.91 l 0.002,-0.018 c 0.008,-10e-4 0.02,-0.005 0.027,-0.005 0,0 1.969,-0.546 1.975,-0.648 2.854,-1.241 6.006,-2.481 6.006,-2.481 -0.066,-0.006 -7.514,-2.821 -7.641,-2.832 l 0,-0.014 c -2.429,-0.321 -7.769,-0.642 -13.648,1.431 l 0.453,-0.283 c 2.668,-3.104 7.748,-7.563 10.693,-7.761 0.602,-0.04 0.881,0.129 1.094,0.318 l 6.084,5.409 -1.119,-8.065 c -0.109,-0.787 -2.258,-6.824 -7.25,-7.564 -6.428,-0.953 -14.164,9.818 -17.125,21.752 -3.613,2.666 -7.072,6.57 -9.842,12.271 l -2.09,4.305 4.787,0.006 c 1.649,0.002 3.678,0.131 5.782,0.377 -10.291,1.713 -18.088,6.309 -22.592,13.46 l -2.518,4.003 4.696,0.573 c 4.121,0.504 9.959,1.797 14.593,3.705 -10.433,0.138 -25.298,2.357 -26.724,13.76 l -0.391,3.231 3.252,0.138 c 1.111,0.048 8.746,0.623 12.408,7.124 -5.525,-2.715 -14.492,-3.947 -28.342,1.989 l -13.99,7.345 c 5.313,-1.182 36.102,-4.599 41.465,1.385 2.561,2.854 2.764,7.523 0.604,13.876 l -1.438,4.224 c -1.725,-3.332 -6.271,-7.899 -9.779,-10.349 -8.946,-6.25 -24.459,-10.744 -47.571,3.339 l -5.595,3.413 6.242,2.006 c 0.254,0.082 23.865,7.847 24.332,20.696 -8.15,-0.364 -29.969,0.394 -37.479,18.094 l -1.849,4.375 4.748,-0.207 c 0.103,-0.004 9.467,-0.328 18.414,4.311 -2.57,3.223 -6.232,8.735 -6.674,14.466 l -0.152,1.985 C 222.62,552.202 173.197,466.897 168.063,457.401 c 0.609,0.714 1.25,1.417 1.955,2.096 l 2.397,2.307 2.048,-2.621 c 3.686,-4.718 8.159,-9.797 11.437,-12.933 0.177,8.579 2.537,23.469 15.247,34.363 l 3.925,3.365 0.973,-5.078 c 0.035,-0.182 2.812,-14.464 6.997,-25.345 3.198,8.328 11.679,20.044 34.271,26.175 l 16.042,4.099 c -0.074,-0.047 -15.635,-10.788 -18.425,-12.877 l 1.06,-3.814 c 0.814,-2.931 1.098,-6.664 1.098,-10.45 0,-4.48 -0.397,-9 -0.788,-12.39 27.232,11.108 47.586,-2.368 48.49,-2.984 l 5.371,-3.662 -6.273,-1.711 c -6.376,-1.739 -20.126,-10.693 -29.932,-17.528 30.28,0.059 33.189,-25.53 33.241,-25.745 l -13.354,3.178 c -9.384,0.805 -19.694,-2.283 -26.836,-5.084 11.313,-2.448 19.345,-7.058 23.844,-13.828 3.138,-4.723 3.93,-9.551 3.93,-13.223 0,-3.589 -0.756,-6.073 -0.821,-6.276 l -1.232,-3.914 -3.355,2.361 c -8.141,5.728 -23.525,1.77 -32.639,-1.7 16.47,-12.832 20.157,-31.934 20.316,-32.809 l 1.091,-6.74 c -6.165,7.535 -21.646,6.094 -27.093,4.637 24.612,-5.457 27.402,-22.674 27.521,-23.51 l 0.809,-5.668 -5.121,2.56 c -1.842,0.922 -6.653,0.08 -12.391,-1.656 3.201,-0.713 6.168,-1.875 8.82,-3.611 10.247,-6.713 12.292,-18.565 12.374,-19.065 0,0 0.682,-4.17 0.912,-5.574 0.247,-0.121 0.409,-0.199 0.422,-0.205 l 7.629,-3.648 -8.224,-1.975 c -0.669,-0.16 -1.352,-0.268 -2.043,-0.348 85.322,-15.269 131.568,44.95 144.285,64.807 -0.133,-0.018 -0.258,-0.055 -0.396,-0.061 -4.278,-0.212 -10.069,5.196 -10.676,18.551 l 6.713,-6.582 c 1.597,-1.838 3.92,-3.607 4.865,-3.748 0.33,0.289 4.781,4.213 7.053,6.213 0.101,0.23 0.197,0.461 0.298,0.691 -1.169,-1.66 -3.011,-3.388 -5.677,-3.517 -4.451,-0.213 -13.1,7.398 -14.922,24.699 l 7.113,-8.185 c 2.383,-2.772 6.901,-6.752 9.481,-6.924"
           style="fill:#f5e4d7;fill-opacity:1;fill-rule:nonzero;stroke:none"
           id="path48"
           inkscape:connector-curvature="0" /><path
           d="m 214.568,498.132 c 3.409,6.136 15.681,14.999 15.681,14.999 -27.165,-17.615 -43.822,-37.409 -53.887,-56.32 1.225,-1.502 2.49,-2.998 3.743,-4.424 9.68,18.157 20.527,30.238 23.466,33.353 -0.916,-1.201 -1.801,-3.203 -2.551,-5.24 0.043,0.038 0.084,0.076 0.127,0.113 l 3.925,3.365 0.598,-3.119 c 48.255,48.084 115.937,42.498 115.937,42.498 -57.269,13.636 -107.039,-25.225 -107.039,-25.225"
           style="fill:#ebc9b0;fill-opacity:1;fill-rule:nonzero;stroke:none"
           id="path50"
           inkscape:connector-curvature="0" /><path
           d="m 165.685,412.584 c -0.748,2.375 -1.53,4.93 -2.102,6.816 -4.132,-24.429 0.534,-41.942 0.534,-41.942 -1.362,12.396 -0.565,24.185 1.568,35.126"
           style="fill:#ebc9b0;fill-opacity:1;fill-rule:nonzero;stroke:none"
           id="path52"
           inkscape:connector-curvature="0" /><path
           d="m 167.957,423.141 c 0.021,-0.237 0.043,-0.464 0.065,-0.676 1.861,6.698 4.168,13.016 6.725,18.87 -0.75,1.089 -1.488,2.27 -2.203,3.575 -2.077,-4.767 -4.614,-11.996 -4.614,-18.921 0,-0.949 0.048,-1.892 0.151,-2.822 l -0.124,-0.026 z"
           style="fill:#ebc9b0;fill-opacity:1;fill-rule:nonzero;stroke:none"
           id="path54"
           inkscape:connector-curvature="0" /><path
           d="m 410.443,357.352 c -0.929,-3.77 -0.738,-3.711 -1.562,-6.329 l 1.531,-1.585 c 1.285,-1.497 3.193,-3.34 5.082,-4.75 0.783,2.148 1.5,4.281 2.158,6.398 -2.767,0.807 -5.172,3.275 -7.209,6.266"
           style="fill:#ebc9b0;fill-opacity:1;fill-rule:nonzero;stroke:none"
           id="path56"
           inkscape:connector-curvature="0" /><path
           d="m 414.625,380.694 c -0.061,-0.526 -0.123,-1.051 -0.186,-1.57 2.78,-2.584 5.821,-4.837 8.202,-5.522 0.578,4.304 0.933,8.502 1.099,12.578 -2.318,-2.465 -5.326,-4.387 -9.115,-5.486"
           style="fill:#ebc9b0;fill-opacity:1;fill-rule:nonzero;stroke:none"
           id="path58"
           inkscape:connector-curvature="0" /><path
           d="m 412.76,368.168 c -0.072,-0.402 -0.149,-0.802 -0.223,-1.197 2.309,-2.358 5.424,-4.926 7.834,-5.84 0.469,2.035 0.885,4.053 1.25,6.051 -2.316,-0.082 -5.437,0.074 -8.861,0.986"
           style="fill:#ebc9b0;fill-opacity:1;fill-rule:nonzero;stroke:none"
           id="path60"
           inkscape:connector-curvature="0" /><path
           d="m 417.158,427.927 c 0.004,-0.2 0.008,-0.404 0.008,-0.613 0,-2.751 -0.508,-6.288 -1.797,-9.932 0.451,-6.004 0.598,-11.777 0.516,-17.276 0.916,0.151 1.791,0.381 2.607,0.717 2.043,0.84 3.596,2.266 4.719,4.301 -2.877,29.799 -14.385,49.455 -14.385,49.455 2.533,-9.016 4.274,-17.771 5.395,-26.162 l 2.937,-0.49 z"
           style="fill:#ebc9b0;fill-opacity:1;fill-rule:nonzero;stroke:none"
           id="path62"
           inkscape:connector-curvature="0" /><path
           d="m 407.828,327.254 c -0.473,0.853 -0.758,1.996 -1.133,2.801 l -1.867,9.812 c -0.269,13.729 -3.894,25.018 -3.894,25.018 3.587,-73.19 -109.785,-103.328 -109.785,-103.328 91.847,9.328 110.503,66.015 110.503,66.015 0,-7.894 -6.459,-20.808 -6.459,-20.808 5.03,6.988 9.106,13.646 12.635,20.49"
           style="fill:#ebc9b0;fill-opacity:1;fill-rule:nonzero;stroke:none"
           id="path64"
           inkscape:connector-curvature="0" /><path
           d="m 406.611,344.217 c 0,0 2.27,-4.92 4.918,-7.756 l -0.945,-2.174 c 0,0 -4.984,5.014 -5.756,5.58 l 1.783,4.35 z"
           style="fill:#ebc9b0;fill-opacity:1;fill-rule:nonzero;stroke:none"
           id="path66"
           inkscape:connector-curvature="0" /></g></g></g></svg>