<?xml version="1.0" encoding="UTF-8" standalone="no"?>
<!-- Created with Inkscape (http://www.inkscape.org/) -->

<svg
   xmlns:dc="http://purl.org/dc/elements/1.1/"
   xmlns:cc="http://creativecommons.org/ns#"
   xmlns:rdf="http://www.w3.org/1999/02/22-rdf-syntax-ns#"
   xmlns:svg="http://www.w3.org/2000/svg"
   xmlns="http://www.w3.org/2000/svg"
   xmlns:sodipodi="http://sodipodi.sourceforge.net/DTD/sodipodi-0.dtd"
   xmlns:inkscape="http://www.inkscape.org/namespaces/inkscape"
   id="svg2"
   version="1.1"
   inkscape:version="0.48.4 r9939"
   width="694.08368"
   height="813.29926"
   viewBox = "0 0 694 813"
   xml:space="preserve"
   sodipodi:docname="Baseball (15).pdf"><metadata
     id="metadata8"><rdf:RDF><cc:Work
         rdf:about=""><dc:format>image/svg+xml</dc:format><dc:type
           rdf:resource="http://purl.org/dc/dcmitype/StillImage" /><dc:title></dc:title></cc:Work></rdf:RDF></metadata><defs
     id="defs6"><clipPath
       clipPathUnits="userSpaceOnUse"
       id="clipPath16"><path
         d="M 0,792 612,792 612,0 0,0 0,792 z"
         id="path18"
         inkscape:connector-curvature="0" /></clipPath></defs><sodipodi:namedview
     pagecolor="#ffffff"
     bordercolor="#666666"
     borderopacity="1"
     objecttolerance="10"
     gridtolerance="10"
     guidetolerance="10"
     inkscape:pageopacity="0"
     inkscape:pageshadow="2"
     inkscape:window-width="640"
     inkscape:window-height="480"
     id="namedview4"
     showgrid="false"
     fit-margin-top="0"
     fit-margin-left="0"
     fit-margin-right="0"
     fit-margin-bottom="0"
     inkscape:zoom="0.23838384"
     inkscape:cx="352.75"
     inkscape:cy="401.25"
     inkscape:window-x="0"
     inkscape:window-y="0"
     inkscape:window-maximized="0"
     inkscape:current-layer="g10" /><g
     id="g10"
     inkscape:groupmode="layer"
     inkscape:label="Baseball (15)"
     transform="matrix(1.25,0,0,-1.25,-29.75,907.04923)"><g
       id="g12"><g
         id="g14"
         clip-path="url(#clipPath16)"><path
           d="m 70.9,725.4 c 12.6,-10.7 27.4,-16.1 42.2,-21.4 8.7,-0.3 17.6,-3.1 26.7,-4.1 1.5,-1 3.6,-0.2 5,0.8 15.1,1.6 29.4,-1.4 42.5,-5.8 10.3,0.5 18,-6.8 26.6,-11.3 15,-12.2 30.5,-27.3 27.9,-47.5 0,-7.6 2.1,-15.5 0,-22.8 -1.7,-1 -3.6,-1.4 -5.8,-1.2 -2.6,-10.1 -0.9,-20.6 4.1,-29 8,-18.4 27.3,-33.2 46.3,-37 l -2.2,-2.6 c 3.6,-2.5 8,0.2 11.8,0.7 1.1,0.6 2.4,1.3 2.9,2.6 1.1,4.8 0.1,9.9 -1,14.4 2.4,1 0.9,3 0.2,4.3 -6.9,7.6 -10.3,17.1 -15.8,25.5 -2.4,8.6 -8.9,15.6 -10.3,24.7 4.2,1.2 1.9,5.9 2.9,8.9 0.4,3 -6.1,6.4 -1,9.1 2.7,0.9 2.5,-2.4 4.3,-3.1 0.1,-5.5 7.9,-7.9 7.9,-13.5 4.6,-1.4 3.5,-7.7 8.4,-9.6 l 25,-23 c 10,-2.8 17.6,-11.3 27.1,-15.1 4.1,-2.8 5.9,-7.9 11.1,-7.9 6.7,-7.6 10.5,-16.4 16.5,-24.3 0.7,-4.7 1.5,-9.4 2.2,-14.1 1.9,-1.7 6.6,-0.3 6,-4.4 1.1,-9.5 -3.5,-17.2 -5.8,-25.6 -8,-4.2 -4.8,-14.1 -11,-19.2 -1.3,-9.1 -12,-15.2 -7.7,-25.7 0.7,-2.8 2.3,-5.1 4.1,-7.5 l 10.3,12.3 c -0.3,0.9 -2.4,1.8 -1,2.9 9.1,10.4 20.2,17.9 30.3,26.8 3.1,6.3 6.6,12.3 6.9,19.7 l -1.2,10.3 c -4.3,7.5 -12,14 -19.6,17.1 -1.3,2.4 1.6,2.8 3.1,3.3 0.7,0.2 1.7,-0.3 2.1,0.5 -1.3,1 -2.3,2.6 -1.9,4.6 -1.1,0.8 -2.4,-0.4 -3.6,0.7 -4.2,3.1 -6.8,9.7 -12.7,9.4 -4.6,8.4 -14,14.8 -16.8,24 -3.8,5.6 -8.2,11.2 -6.7,18.7 -0.4,2.3 -2.5,5.4 0,7.4 0.8,3.7 -2.7,7.7 0.2,11.1 -2.9,9.6 2.5,18.6 1,28.5 1,1.7 1,4.2 0.9,6 2.7,5.7 3.5,12.2 5.8,18 0.9,0.9 1.8,2.1 3.1,1.9 0.5,-2 -0.8,-3.8 -0.7,-6 0.8,-4.9 0.2,-10.5 2.4,-14.8 1.1,-2.1 -0.1,-4.6 0.5,-6.8 4.6,-13.4 4,-29 10.5,-41.7 2.5,-0.9 2.8,-4 5.3,-4.8 4.3,-7.5 13.3,-12.9 17.3,-20.4 12.3,-6.5 25,-12.1 36,-21.6 6.3,3.2 11.5,-1.7 17,-3.1 3.4,2.3 5.7,-2.2 8.7,-2.7 11.4,-3.3 20.3,-12.8 29,-22.1 0.5,-0.4 0.2,-1.1 0.3,-1.6 -2.3,-1.1 0.1,-2.7 0.4,-3.9 l 6,-4.8 c 2.9,-11.2 2.5,-24.1 3.2,-36 -0.8,-3 -0.9,-6.9 -4.6,-8.1 -5.8,0.3 -3.6,-6.4 -6.5,-9.2 l -8.1,-15.1 c -8.3,2.2 -7.9,-7.5 -13.5,-10.3 -0.5,-3.4 -6.5,-6 -2.9,-9.6 -3.6,-8.7 -13.5,-14.7 -19.2,-22.6 -4.5,-6.1 -9.9,-11.9 -12.4,-18.9 -3.5,-0.6 -3.9,-4.3 -4.6,-7 l 0.5,-0.5 c 16.6,10.9 32.6,23.2 51.6,28.4 7.3,3 14.3,6.9 22.3,8.4 5,2.8 9.6,6.6 14.2,10.5 -0.2,1.5 3.3,2.8 0.7,4.1 -1.2,4.4 5.5,8.4 0.7,12.2 4.3,10.3 -0.8,20.8 -1.2,31.2 0.7,13.5 -0.9,27 3.6,38.9 3.1,8.5 8.3,16.2 13.2,24 8,0 11.5,7.9 16.8,13 7.1,1.2 6.8,11.4 14.4,11 -2.4,-4.1 -6,-8.3 -7.9,-12.9 l 0.5,-1.5 c -3,-8.1 -4.5,-16.9 -8.9,-24.5 -3.4,-11.9 2,-23 1.9,-34.5 -2.9,-4.2 1.7,-8.4 2.2,-12.7 4.5,-9.3 5.9,-19.9 13.6,-27.9 l 7.2,-15.6 c 4.8,-1.9 2.6,-7.7 6.8,-10.1 0.8,-9.1 0.8,-18.8 -0.3,-28 l -0.9,-0.5 c -3.1,-7.8 -7.5,-15.1 -13.7,-21.4 -1,-1.3 -3.7,-1 -3.4,-3.1 -11,-6.5 -21.4,-14.7 -33.6,-18.5 -3.7,-0.5 -8.1,0.4 -11.3,-1.7 -2.4,0.9 -5.9,1.5 -8.4,0.3 -3.8,-4.4 -10.4,-5.2 -15.3,-8.4 l -12,-7 c -2,-3.7 -6.5,-5.3 -9.9,-7.7 l 0,-6.7 10.6,-16.1 2.6,-1.2 c 0.6,-9.5 3,-19.7 0.8,-29 l 9.3,-9.8 -10.5,-17.1 c 0.6,-2.9 4,-6.5 0.7,-9.3 l 0.2,-1.7 8.4,-11.5 -9.8,-10.1 c 0,-5.3 -1.5,-10.7 -3.4,-15.6 l -2.1,-4.3 c 0.9,-2.3 1.6,-4.8 2.8,-7 -4.2,-1.9 -8.5,-3.4 -12.7,-5.5 l 6.5,-18 -18.5,-1.4 c -3.3,-2.4 -0.6,-6.8 -1.4,-10.4 l -8.7,-13.2 c -6.6,-2.7 -10.9,-11.3 -19.6,-9.1 -3.5,-4.6 -8.9,-5.2 -13.2,-8.1 -2.8,-4.9 -4.7,-10 -7.2,-14.9 -8,-2 -14.9,-8.2 -23.8,-6.5 l -2.6,-4.6 -17.6,-8.1 -4.8,0.7 C 351.2,74.2 343.3,76.6 337,75 c -8.6,0.6 -16.7,2.2 -24,6 l -9.1,-2.6 c -11.2,-0.3 -20.5,3.9 -31.2,4.8 l -10.8,-3.4 c -1.9,1.8 -0.6,8.2 -5.5,5.5 l -9.8,-1.4 -2.9,7.2 -14.4,7.2 -1,1.7 -18.2,-1.5 2.9,13.7 c -2.7,2 -5.9,3.7 -8.9,5.3 -2.7,6.8 -10.1,11.6 -8.7,20.1 -8.1,2.7 -10.6,12 -17.5,17.3 l -6.2,6.7 c 0,4.8 8.3,9.7 1.4,13.7 l -12.5,13 3.2,5.7 -8.4,5.8 c 1.5,3.2 4.2,6.6 6,10.1 l -5.6,20.4 c -4.4,2.9 -8.8,5.9 -13.2,8.9 l 15.9,11 -4.1,5.3 c 2.1,3.9 9.5,5.5 7.9,11 1.4,9.3 3.5,18.3 8.2,26.2 l -2.2,3.3 c 3.6,6.1 6.1,12.8 10.1,18.5 l 1,7.2 c -2.8,1.6 -6.1,1.7 -8.7,3.6 1.8,3.6 6.9,6.2 7.7,9.8 l -2.4,1.2 -6.7,-7.2 c -6.1,2 -11.3,5.7 -17.3,7.7 l -17,1.2 c -6,-3.3 -11.8,2.5 -17.6,-0.5 -9.8,-0.8 -17.9,4 -26.8,6 -4.1,4.5 -9.9,5.6 -14.4,9.4 -3.1,2 -5.9,4.9 -8.7,7.7 0.6,0.6 0.1,1.7 -0.7,1.9 -18.4,13.8 -20.5,35.7 -30.7,53.5 -0.4,2.5 1.2,4.3 3.1,5.5 4,0.3 5,-5.1 8.6,-6.7 3.3,-2.8 6.9,-5.6 9.4,-9.1 6.2,-2.8 12.1,-6.8 17,-12.2 9.3,-4.4 19.1,-7.6 28.1,-12.8 8.2,-0.5 16.6,-0.2 23.8,2.4 0.9,0.2 1.5,-0.5 2.1,-1.2 5,2.2 11.9,1.5 14.7,6.8 10.9,1.9 22.1,3.1 33.6,3.6 2.4,-2.8 6.9,-1.7 10.3,-2.7 4.7,0.9 9.7,-1.8 14.2,0.5 -4.8,8.6 -15.5,7.2 -22.4,12.7 -3.6,0 -7.6,3.3 -10.8,0 -9.6,1.3 -19.5,1.9 -28.8,-0.5 -13.6,-0.8 -27.5,0.5 -38.6,7.2 -6.7,4.8 -14.1,8.9 -19.4,15.9 -0.3,1.5 0,3.6 1.9,4.3 2.7,0.9 3.8,-5.2 6,-2.6 -0.1,1.5 -0.9,3 -0.3,4.5 -4.1,-2.2 -3.1,4.6 -7.2,3.4 -8.6,10.6 -7.7,26.8 -22,33.3 -2.9,2.1 -8.1,1.5 -8.7,6 -8.7,2.1 -17.4,3.9 -26.9,4.1 8.6,-1.6 13.6,6.1 20.4,9.1 5.5,2.7 12.3,2.2 16.8,7 9.4,0.1 17.6,-2.7 26.4,-3.8 4.8,1.2 8.6,-2.9 13.2,-3.6 6.1,-1.5 11.9,-3.5 17.3,-6.5 l 0.7,-2.2 c 7.6,-4.3 13.9,-11.8 22.8,-12.9 2.7,-1.5 5.7,-3 8.7,-1 l 1.4,1.4 c -1.9,12.2 -7.8,22.6 -14.6,32.7 -19.4,11.7 -47.1,22.2 -53.1,47.5 1.1,4 -3,8.9 0.5,12.7 -2.2,8.4 -3.2,17.3 -8.1,24.5 -0.8,5.3 -5.1,9.2 -8.4,13.4 -1.2,2.3 0.8,4.4 2.6,5.3 5.3,-1.8 8.7,-7.7 13.4,-11.3 6.7,-4.6 14.3,-7.2 21.2,-11.2 10.8,-6.6 22.5,-11.1 33.6,-17.3 1.9,-0.6 4.3,-0.9 6.2,-0.7 12.9,-10.5 23.1,-23.7 30.5,-37.2 -1.1,-2.3 -1.6,-4.9 -3.6,-6.8 3.2,-7.2 8.3,-13.6 11,-21.1 11.8,-14.2 26.1,-29 43,-35 l 18.2,0.2 c 4.2,6.1 2.7,15 -1.4,20.7 -7.9,11.5 -20.1,19.8 -31,27.8 -1.4,0.1 -2.2,-1.2 -3.8,-0.7 -8.5,10.6 -22.4,14.8 -27.4,27.3 -8.3,9.6 -12.2,20.9 -15.1,32.7 0.6,5 -1.2,10.8 -0.2,16.1 -5.7,20.4 7.8,43.6 -5.1,61.6 -1.8,2.5 -3,5.3 -5.5,7.5 l 0,1.7 c -12.6,13.5 -30.7,14 -44.4,24.9 -16.4,7 -31.7,21.9 -42.7,37 -0.6,2 -2,3.7 -1.5,6.2 1.4,1 3.3,1.6 5.1,1"
           style="fill:#231f20;fill-opacity:1;fill-rule:nonzero;stroke:none"
           id="path20"
           inkscape:connector-curvature="0" /><path
           d="m 98.7,702.8 c 3.8,-2.4 8.7,-2.2 12.7,-3.8 7.6,-2.5 14.3,-6.9 23.1,-6.5 10.4,-0.1 19.4,-4.6 30,-3.6 1.4,0.2 2.5,1.8 3.3,2.9 17.1,-0.9 32.3,-8.5 43,-22.8 6.2,-9.6 10.7,-19.9 14.9,-30.3 0.9,-9.2 2.6,-19.6 -1.5,-27.6 -1.3,-6.8 -0.4,-15.1 -0.7,-21.8 l 1.7,-1.9 c 1.8,-5.2 2.7,-10.7 5.5,-15.4 -1.1,-1.6 -2.7,-4 -0.2,-5.5 7.8,-9.8 18.7,-16.1 26.4,-25.2 8.2,-7.7 19.3,-8.5 30,-10.6 3.7,-0.2 6.9,1.1 10,2.4 0.6,-2.1 3.3,-1.5 4.8,-1.6 6.8,1.7 10.3,9 12,14.8 0.7,12.3 -8.4,20.6 -12.9,30.8 -1.3,2.5 -4,3.7 -6.3,4.8 -2.9,5.6 -7.7,10.6 -8.8,17 2.2,4.5 -2.8,7.8 -3.6,12 l 2.1,0 c 5.5,-7.8 11.9,-16.8 20.4,-21.8 0.7,-3.7 5.3,-6.7 7.9,-9.4 2.9,-2.9 7,-4.8 8.7,-8.6 8.3,-7 17.6,-12.8 24.9,-21.2 l 0.3,-0.9 9.6,-10.1 c 5.7,-13.7 14.2,-32.4 1.9,-45.6 -3.1,-6.1 -4.7,-12.8 -6,-19.7 -2.1,-3.1 -2,-6.3 -2.6,-10.1 -0.2,-6 1.4,-12.4 -0.5,-18 0,-1.7 1.1,-3.9 3.1,-4 l 3.1,-9.4 c 2.5,-0.5 0,-4 2.2,-5 1.5,-0.1 3.6,-0.2 4.8,1.2 1.4,2.7 2.5,6.1 5.7,7.4 10.5,11.8 23.4,19.8 35.3,29.3 3.8,2 7.6,3.9 11.8,4.8 3.8,7.3 5.6,15.6 9.1,23 -0.5,3.8 0.9,7.4 0.7,11.3 -3.6,0.2 -2,4.2 -3.1,6.2 -1.5,3 -0.5,7.9 -4.8,8.9 -5.9,13.7 -20.2,20.7 -30.7,30.7 -10.8,8.1 -23.7,18.5 -26.2,32 1.7,5.1 -3.1,10.4 -1.4,15.6 -0.3,2.6 -0.6,5.9 0.7,8.1 -1.2,9 -0.9,18.3 -0.2,27.4 1.5,-6.9 1.6,-14.4 3.6,-21.1 -0.6,-1.3 0.1,-2.2 0.7,-3.2 2.8,-10.9 7.1,-21.2 14.6,-30.2 1.1,-0.9 2.1,-1.8 3.6,-1.2 2.4,-3.8 5,-8.8 9.9,-9.6 3.3,-4.6 8,-8 12.4,-10.8 2.5,-5 8.1,-7.1 13.2,-7 2.7,-2.5 6.5,-3 8.9,-5.7 9.3,-4.3 19.5,-6.5 27.9,-13 7.3,-6.3 16.3,-11 21.6,-19.7 1,-3 -0.2,-6.3 0.7,-9.6 2,-10.9 5.9,-24.3 -1.5,-34 l -3.3,-0.8 c -5.6,-14.4 -15.4,-27.2 -22.6,-41 l 0.5,-2.9 c -5.5,-6 -11.4,-11.9 -14.4,-18.9 -1.3,-2 -4,-3.4 -3.6,-6 -7.1,-8.5 -12.2,-18.2 -15.6,-28.4 -7.9,3 -12.9,12.7 -22.3,11.8 -11.7,-2 -19.6,5.1 -29.8,6.7 -5.7,5.5 -14.3,4 -20.6,8.2 -21.2,3.7 -38,-8.9 -58.1,-10.6 -3.6,-0.1 -7.6,-1 -8.9,-4.8 -11.2,-1.6 -21.6,-5.1 -32.8,-6.5 -15.2,-2.7 -18.2,-20.7 -31.2,-27.6 -4.9,-3.6 -12.2,-3.9 -14.9,-10.3 -2.7,-1 -1.5,-4.6 -4.6,-5 -7.4,5.9 -14.4,12.9 -22.5,17 -5.4,1.7 -12,1 -17.3,-0.2 -9,0.4 -18.6,2.3 -27.4,0.2 -7.4,1.8 -15.6,1.5 -23.3,2.4 -15.9,6.1 -31.5,18.1 -41.5,33.4 -1.2,6.7 -5.3,12.3 -9.6,17.5 4.2,-1.7 7.2,-7 11.5,-9.6 0.5,-3.6 4.8,-4.5 6.8,-7.2 11.3,-3.7 20.6,-12.4 33.3,-12.7 14.9,-4.2 33.7,-3.5 45.6,6.7 1.4,1.1 2.1,2.4 2.4,3.8 13.4,-2.3 29.7,-0.3 43.2,-1.6 2.5,1.1 3.7,0.1 5.8,-1.2 3.5,-0.1 6.1,2.1 9.8,1.6 2.2,2.4 7,4.1 5.8,8 -12.9,13.1 -27.5,23.9 -45.9,24.7 -4.6,-2.8 -8.4,2.5 -13.2,2.4 -16.8,1.7 -35.1,-2.5 -48.2,8.1 -6.2,10.6 -16.1,20.1 -17.3,32.9 -5.8,12.7 -19.2,18 -31.4,20.9 -2.2,0.8 -4.8,0.5 -7,1.2 0.1,2 -2.4,2.4 -3.3,3.4 9.7,-2.3 20,1.4 29.5,-0.8 10.8,-5.3 23.1,-7.2 33.6,-13.4 9.7,-6.3 18.8,-14.2 30.7,-15.1 3.9,3 8.2,-1.8 12.7,0.5 3.9,1.4 7.5,3.6 11.1,5.7 0,3.4 4.2,4 5.5,6.7 1.5,12.9 -5.4,22.2 -13,31.2 -2.4,2.1 -5.9,2.1 -8.9,2 -10.6,9.4 -23,14.4 -34.8,21.1 -2.2,4.7 -7.8,6.4 -11.5,10.3 -6.4,13.3 -11.8,27 -13.9,42 -2.4,1.1 -3.8,3.8 -3.8,6.5 13.5,-6.6 26.5,-15.6 40.8,-21.1 22.9,-13.6 34.8,-38 44.1,-60.3 3.9,-5 7.8,-10 10.1,-15.6 5.7,-6.5 11,-16.1 19.4,-18.5 2.2,-1.3 3.4,-3.5 3.9,-5.7 12.4,-5 25.2,-13.5 40.1,-8.2 5.5,1 10.5,4 16.5,3.1 8.7,3 15.7,12.2 15.8,21.4 l -8.1,18.7 c -3.2,1.4 -4.2,4.7 -6.7,7 -3.5,2.9 -7.7,4.9 -10.6,8.6 -1.9,0.9 -4,1.3 -6.2,1.5 -3.6,1.5 -7.6,5.7 -11.8,2.4 -0.8,-0.4 -0.5,-1.5 -0.2,-2 -2.2,1.2 -4.3,2.3 -6.3,3.9 0.2,0.5 0.7,1 1.2,1.2 2.1,-0.6 4.5,-1.2 6.3,0.5 0.7,0.7 1.4,1.3 1.4,2.4 -17.4,6.9 -32.8,18.6 -47.7,31.4 -3.2,0.5 -3.6,4.3 -5.3,6.5 -3,5.9 -4.9,12.2 -6.7,18.5 -0.5,1 -1.6,0.6 -2.4,0.7 2,10.5 -2.4,22.6 2.8,32.1 1.3,4.6 -1,11.1 3.9,13.7 2.5,15.3 -3.8,30.5 -17.3,38.4 l -6.2,5.3 c -24.8,11.1 -50.9,19.3 -71.1,41 4.5,-1.3 7.7,-5.6 13.2,-4.3"
           style="fill:#ffffff;fill-opacity:1;fill-rule:nonzero;stroke:none"
           id="path22"
           inkscape:connector-curvature="0" /><path
           d="m 161.4,683.4 3.6,-3.9 5.7,0 c 0.7,-1.6 1.5,-3.3 2.7,-4.8 l 5.7,0.8 2.7,-4.6 6,-0.2 1.6,-4.8 c 5.3,-0.7 8.1,-7.5 14.2,-6.3 1.4,-4.6 1.6,-9.8 6,-13.2 2.3,-2.2 0.8,-5.1 0.2,-7.7 1.7,-2.5 3.3,-5.1 3.6,-8.1 l -1.9,-5.1 3.1,-4.5 -2.1,-5.1 c 1.1,-11 -2.5,-21.4 -5.3,-31.4 4.5,-5.5 -1.1,-13.4 3.8,-18.7 1.4,-4.8 6.5,-5 9.9,-6.7 l 0.5,-6 c 2.7,-0.4 6.3,0.2 6.2,-3.6 1.7,-3.8 6.7,-1.5 7.9,-4.8 l 0.7,-2.2 c 4.7,-3.1 11,-5.9 13.2,-11.5 l 4.4,-1.5 c 2.1,-5.6 9.1,-4.6 11.2,-9.8 1.9,-4.3 7.6,-1.1 8.7,-6 2.5,0.1 5,0.2 6.7,-1.9 1.2,-6.8 8.8,-6.3 13.9,-7.9 l 3.6,1.2 c 3.3,-6.4 11.3,0.6 14.9,-5.1 2.5,0.8 5.1,3.2 7.4,0.5 4.2,0.5 7.5,3.6 10.3,6.7 3,3.7 0,9.8 3.4,13.2 1.2,5.2 -4.2,7.9 -1.9,13.2 l -4.6,7.9 c -0.6,5.6 3.1,14.6 -5,16.4 l -0.3,0 c 0.6,1 2,2 3.2,2.6 1.3,-0.5 2.2,-1.9 3.3,-2.9 -1.4,-8.3 6.7,-12.7 9.1,-19.4 6.9,-3.7 4.8,-12.7 5.6,-19.2 -1,-2 1.4,-3.3 2.4,-4.8 -0.7,-2.8 -1.4,-5.6 -3.2,-7.9 -2.4,-8.7 -0.9,-19.3 -8.8,-25.5 -2.7,-3.5 1.4,-8 -3.2,-10.8 -0.4,-5.5 -3.5,-9.9 -4,-15.3 l -3.2,-3.9 2,-4.3 c -6.2,-5.1 4.5,-9.8 0.2,-15.6 l 1.9,-3.6 -1.2,-4.1 c 1.3,-2.4 2.1,-4.1 1.7,-7.2 l -3.8,2.4 c 1,6 -6.4,7.9 -8.7,12.5 -2.1,0 -5.1,0.3 -6.7,-1.2 l 0,-16.1 c -4.6,-0.1 -10.5,-3.1 -14.4,0.7 -4.3,-1.2 -10.8,-2.1 -14.2,1.7 l -5.7,-0.2 c -4.5,4.1 -10.2,7.4 -16.3,5.3 l -4.1,3.1 -6,-1.5 -4.8,2.4 c -5.1,-2 -9.8,4.3 -13.7,-1.4 l -4.1,3.4 c -2.4,-1.4 -5.1,-1.7 -7.4,0.2 -3.7,-3.3 -8.5,-1.6 -13.2,-2.4 -3.5,4.4 -8.2,-0.1 -12,-0.7 -3.2,-0.9 -6.2,0.2 -8.6,1.9 -6.9,-5.1 -15.7,3.1 -22.4,-2.4 -4,2.2 -10.5,2.5 -14.6,0.2 -1.9,-0.1 -2.9,1.8 -4.3,2.7 -3.3,-0.8 -6.9,-0.6 -9.4,1.7 -7.7,-2.7 -7.9,9 -14.9,8.1 -2.5,4 -6.7,3.9 -9.6,7.2 l -0.4,5.5 c -2.7,3.6 -7.7,3.1 -9.6,7 -0.5,2.7 -5.3,5.4 -1.7,7.9 6,-1.3 10,-8.9 17,-8.4 1.2,-1.5 1.9,-3.2 3.6,-4.5 9.6,1 14.6,-9.5 24.5,-7.7 5.5,-7.1 12.8,0.3 19.7,-0.7 7.3,-2.9 11.1,4 16.8,5.7 -0.2,3.2 2,5.4 2.6,8.2 -0.2,3.1 0.3,5.9 0.5,8.9 l 0.5,0 c -2.4,-5.3 5.1,-4.5 4.1,-9.2 1.1,-1.1 2.8,-0.8 4.3,-1.2 3.6,-3 5.8,-8.1 11.5,-6.9 0.8,-1.5 0.8,-3.5 2.2,-4.6 l 4,0 c 3.7,-8.3 14.4,-5.5 21.4,-8.9 2.3,-3.1 6.9,-0.9 10.1,-1.9 5.3,-1.4 10.7,-2.4 16.3,-0.9 5.4,0 9,-5.7 14.9,-2.9 l 4.5,2.4 c 9,-2.7 15.1,5.9 22.3,9.3 5.4,4.8 4.9,12.9 4.1,19.2 1.5,3.4 2.9,6.7 3.6,10.4 l -4.1,4.3 c 2.8,5 -1.2,9.6 -0.2,15.1 l -4.1,2.9 -0.9,4.8 c -3.7,5 -10.8,2.5 -13.7,8.9 -3.7,2.7 -11.6,1.2 -11.5,7.4 -1.7,1.1 -3.5,0 -5.3,0 -1.5,2.2 -3.3,4.1 -5.5,5.5 l -4.4,0 c -1,2.4 -2.6,4.5 -5.2,5.3 -5.8,-2.5 -7.4,5 -12.7,3.4 l -2.7,3.6 -5.3,0.2 -2.6,3.8 c -2.9,0.5 -6,1.6 -7.4,4.6 -0.7,1.4 -0.6,3.4 -2,4.3 l -4.8,0.5 c -2.4,4.9 -5.7,12.8 -12.7,12.5 l 0.5,5.7 c -2.9,1.6 -5.9,2.5 -7.7,5.8 1.2,3.1 3.5,6.7 -0.2,9.4 -0.1,7.1 2,13.6 0.9,20.8 0,5 -1.4,9.3 2.2,13 -0.6,6.5 1,12.8 0.5,18.7 0.8,1.9 1.8,3.6 3.1,5.3 l -3.8,4.3 c 1.1,2.6 5.1,5.4 1.4,8.2 -3.6,3.5 -10.2,6.4 -8.6,12.7 l -4.4,3.8 -6.4,0.8 -2.2,6 c -5.5,0.1 -11.3,1.5 -13.7,7.2 -3.4,0.3 -6.8,-0.2 -8.6,3.6 l -4.1,1.9 c 1.6,1.5 3.1,-1.6 4.8,-2.2 2.2,0 4.5,1 7,1"
           style="fill:#231f20;fill-opacity:1;fill-rule:nonzero;stroke:none"
           id="path24"
           inkscape:connector-curvature="0" /><path
           d="m 147.4,522.3 c -0.4,-0.4 -0.1,-1.1 -0.2,-1.6 -13.2,8 -26.4,18.6 -35.8,31.9 l -1.4,4.3 c 13,-10.3 31.8,-17.3 37.4,-34.6"
           style="fill:#231f20;fill-opacity:1;fill-rule:nonzero;stroke:none"
           id="path26"
           inkscape:connector-curvature="0" /><path
           d="m 409.5,541.8 -2.2,1.2 2,-1 0.2,-0.2 z"
           style="fill:#231f20;fill-opacity:1;fill-rule:nonzero;stroke:none"
           id="path28"
           inkscape:connector-curvature="0" /><path
           d="m 410.5,541.1 2.6,-1.2 -2.6,1.2 z"
           style="fill:#231f20;fill-opacity:1;fill-rule:nonzero;stroke:none"
           id="path30"
           inkscape:connector-curvature="0" /><path
           d="m 442.1,526.7 c 9.2,-5.6 20.5,-12.4 23.3,-23.6 3.6,-10.1 2.2,-22.1 -4.3,-30.4 -9,-11.4 -23.5,-9.9 -33.8,-18 -6.3,-5.8 -11,-12.2 -14.2,-19.2 -4.2,-5 -6.2,-10.9 -9.4,-16.4 L 394.9,399 c -0.2,12.7 6.4,22.5 9.1,34.1 4.1,2.8 3.7,7.4 6,11 11.7,16.2 32,24.1 41.3,41.8 2,4.8 -1.7,9.1 -1.5,14.1 -0.1,7.7 -3.5,14.5 -9.1,19.5 -3.2,6.4 -10.6,7.7 -15.4,13.2 -4,1.4 -7.4,4.7 -11.2,6.7 9.7,-3.3 18.2,-9.6 28,-12.7"
           style="fill:#231f20;fill-opacity:1;fill-rule:nonzero;stroke:none"
           id="path32"
           inkscape:connector-curvature="0" /><path
           d="m 542.5,528.3 c -0.4,-4.1 -2.3,-8.1 -2.9,-12.4 l -2.4,-12 c 1.5,-3.3 0.2,-7.9 -0.7,-11.3 0.7,-14.2 4.7,-27 7.6,-40.3 2.4,-4.9 4.2,-10.2 8.7,-14 1.7,-3.1 3,-7.3 6.7,-8.8 1.1,-5 4.2,-9.1 4.8,-14.2 l -1.7,-1.9 c 0.9,-14.7 -2.3,-28.2 -9.8,-39.6 1.5,-4.7 -4.4,-6.9 -4.3,-11.3 -10.1,-9.3 -24.1,-9 -35.3,-15.4 -12.1,-2.6 -22.9,-8.5 -33.6,-14.4 -2.4,-4.2 -7.4,-5.1 -11.1,-7.6 -3.2,-1.7 -6.6,-2.9 -9.6,-5.1 -3.7,6 4.8,14.8 -3.6,18.5 -4.2,2.2 -9.3,3.5 -12.4,7.4 -0.5,11 -12.2,13.4 -20.2,16.4 -0.9,0.7 -1.9,1.2 -2.6,2.1 2.4,1.7 5.6,2.6 8.4,3.9 3.1,-2.4 6.4,1.2 9.3,2.6 16.8,12.5 35.8,19.7 56.2,23.5 1.4,-1.2 2.7,-4.6 5.3,-2.6 1.9,1.1 3.7,2.9 6,1.2 l 2.4,0.2 c 9.3,8.2 15.7,18.3 20.4,28.8 -0.3,1.4 -2.3,2.2 -3.2,3.1 1.5,9.7 1.5,20.2 0,29.8 -2.9,1.6 -0.6,4.5 -1.6,7 l -2,14.1 c 2.5,11.1 2.9,23 5.1,34.1 6.2,5.3 8.1,12.5 13.9,18 0.8,-0.2 1.3,0.5 2.2,0.2"
           style="fill:#ffffff;fill-opacity:1;fill-rule:nonzero;stroke:none"
           id="path34"
           inkscape:connector-curvature="0" /><path
           d="m 536.7,471 c 0.6,-1.1 -0.2,-2.1 -0.2,-3.1 l 0,3.1 0.2,0 z"
           style="fill:#231f20;fill-opacity:1;fill-rule:nonzero;stroke:none"
           id="path36"
           inkscape:connector-curvature="0" /><path
           d="m 538.6,442.4 c -0.3,-11.5 10.7,-18.3 10.1,-30 -0.8,-3 0.5,-5.7 0.7,-8.6 -0.7,-5.1 0.6,-11 -1.2,-15.6 -5.9,-5.4 -11.6,-13.5 -19.7,-14.7 -6.6,-4.2 -14.5,-5.1 -21.3,-8.8 -4.5,-0.6 -8.1,-3.3 -12.7,-3.4 -3.9,-3.2 -9.4,-2.3 -13.2,-5.5 -6.5,-2.2 -13.4,-3.3 -19.5,-6.5 l -7.7,-1.7 c 4.3,4.6 10.3,9.4 16.1,12.5 8.2,6.2 16.1,13 25.7,15.6 4.2,-7.4 10.6,0.7 16.1,0.5 10.8,4 19.3,15.2 22.8,25.7 1.8,10.7 -0.7,22 1.2,33.1 -1.2,8.5 1.5,17.8 0.2,26.6 -0.6,1.5 0.2,2.9 0.3,4.3 2.5,-7.3 -1.1,-16.4 2.1,-23.5"
           style="fill:#231f20;fill-opacity:1;fill-rule:nonzero;stroke:none"
           id="path38"
           inkscape:connector-curvature="0" /><path
           d="m 332.9,414.1 c -3.3,-4.5 2,-6.4 4.8,-8.4 l 0.5,-0.5 c -1.2,-0.2 -2.9,0.8 -4.3,1.2 -2.2,2.8 -2.7,6.4 -4.8,8.9 1.4,-0.1 2.6,-0.7 3.8,-1.2"
           style="fill:#231f20;fill-opacity:1;fill-rule:nonzero;stroke:none"
           id="path40"
           inkscape:connector-curvature="0" /><path
           d="m 341.8,379.8 8.2,2.9 6,-7 6.7,-1 c 3.2,1 5.5,4.1 9.6,2.9 1.2,-2 0.5,-5 1.9,-6.7 4.6,-1.3 8.3,4 12,-0.5 l 6,-1.2 1,-5.5 c 2.1,-1 5,-1.1 6,-3.8 -0.1,-0.2 -0.3,-0.3 -0.3,-0.5 -3.9,3.1 -9.4,5.1 -14.4,2.9 -1.4,-0.7 -2.9,-2.2 -3.6,-3.6 5.3,-0.2 11.5,0.4 16.4,-1.5 l -4.8,-9.8 c -3.5,2.6 -9,3.1 -13,1.4 -2.1,-1.1 -4.1,-2.8 -4.8,-5 5.5,0.1 10.7,2.7 16.8,1.4 l -3.1,-11.3 c -4.7,3.2 -11.6,1.6 -15.9,-1.4 -1.9,-1.2 -3,-3.2 -3.6,-5.3 5.4,2.8 12.1,3.7 18.8,3.9 l -1.2,-9.9 c -5,1.2 -11.3,2.1 -15.9,-0.7 -1.8,-1.1 -2.9,-3 -3.6,-4.8 l 2.4,0 c 5.5,0.9 11.4,1.1 16.6,2.6 L 385.7,308 c -5,1.1 -12.1,1.5 -16.5,-1.9 -1.7,-1.2 -2.3,-2.8 -2.7,-4.6 6.1,1.2 13,1.6 19,3.4 l 0.2,-8.6 c -5.2,0.8 -11.9,0.9 -16,-2.9 -1.9,-1.4 -2.5,-3.5 -2.4,-5.3 5.2,4.1 12.8,2.2 18.4,5 l 1,-10.3 c -5.8,0.7 -12.3,0.5 -16.6,-4 -0.8,-1.2 -1.3,-2.5 -1.6,-3.9 1.2,0.1 2.7,1.1 4,1.7 4.7,1.2 10.2,0.3 14.4,2.6 l 1.7,-10.8 c -6.4,-0.9 -12.1,-3.6 -18,-6 -0.5,-1.1 0.8,-2.5 1.9,-2.8 6.2,-1.3 11.8,1.5 16.6,5 l 3.8,-12 c -6,-1.5 -10.9,-5.8 -17.5,-6 1.6,-2.4 4.2,-3.2 7,-3.1 4.4,0.5 8.4,2.2 11.7,5.3 2,-3.6 3.5,-7.8 5.6,-11.6 -6.2,-1 -10.9,-5.9 -17.6,-5.7 2,-2.4 4.8,-3.8 8.2,-3.1 4,1.1 8,2.2 11,5.5 1.8,-2.4 3.6,-5.2 5.1,-7.9 -5.9,-1.8 -9.9,-7.8 -16.3,-8.2 0.3,-1.1 2.2,-2.1 3.6,-2.4 6,-0.1 10.9,3.1 14.8,7.7 l 8.7,-10.6 c -5.2,-3.1 -10.1,-7 -16.3,-7.4 l -0.5,-0.5 c 2.4,-2.4 6.4,-2.6 9.6,-1.7 3.7,1.2 7.6,3.5 9.6,7.2 l 8.4,-7.7 c -5.2,-4.6 -10.6,-8.6 -17.1,-10.3 2.2,-2.1 5.9,-1.9 8.7,-1.2 4.5,1.3 9.1,4.9 10.5,9.6 l 7,-5.3 c -4.1,-4.2 -9,-7.4 -14.6,-8.4 -0.2,-1 1.5,-1.3 2.4,-1.6 5.6,-0.2 10.9,1.4 13.9,6.4 0.3,0.6 0.1,2.6 1.4,1.5 l 7,-4.8 c -3.3,-4.4 -7.7,-9.1 -12.7,-10.6 3.7,-2.4 8.2,0.2 11.5,2.4 1.8,1.9 3.4,3.9 4.1,6.3 0.4,0.1 0.7,-0.3 0.9,-0.5 -1.4,-1.7 -2.5,-3.5 -2.6,-5.8 l 1.7,-5 c -3.2,-0.7 -7.2,-0.8 -8,-4.8 -1.3,-2.5 -0.4,-5 -0.7,-7.9 -1.4,-0.6 -3.1,-1.1 -4.1,-2.2 1.2,-4.3 -1.9,-6.9 -2.8,-10.3 -2,-1.2 -4.3,-1.6 -6.5,-2.2 l -4.6,-6.9 c -4.3,-2.2 -7.2,-6 -9.3,-10.1 -2.5,-0.9 -5.1,-1.5 -7.7,-1.9 l -4.3,-6.5 c -4.4,-1.9 -8.5,-4.3 -12,-7.9 l -8,0.2 -5.7,-5 -6.5,-1 -5.3,-6.2 -7.7,2.4 -5.7,-7.2 c -9.3,-4.2 -19.3,0.3 -29.1,-1.5 -4.7,1.9 -9.4,-0.5 -14.1,-0.7 l -13,-0.5 -6.2,6.7 -6.5,1.5 c -2.3,-0.9 -4.4,-2.5 -6.7,-3.4 -0.8,1.3 -1.2,2.7 -2.4,3.9 -1.9,-0.5 -5.2,-1.6 -5.3,1.6 -0.3,0.6 -0.3,1.3 -1,1.7 l -4.5,-1.7 c -4.1,0.9 -4.2,6.7 -8.6,6.5 -1.3,6.1 -6.4,-0.4 -8.4,3.4 l 2.1,2.9 c 3.1,-2.8 7.2,-4.8 11.8,-3.9 2.3,0.8 5,2 6,4.6 -5.2,0 -11.3,-0.8 -16.1,1.2 1,3.2 3.1,6.5 4.3,9.8 2.2,-0.7 4.7,-1.9 7.4,-2.1 4.5,-0.3 8.8,1.8 10.6,6 L 271,134 c -5.3,-0.9 -10.7,-3.2 -16.5,-1.6 l 3.3,11.2 c 4.7,-3.1 11.6,-1.5 15.9,1.5 1.7,1.5 3.1,3.2 3.6,5.3 -5.2,-2.3 -11.4,-3.5 -17.8,-3.6 l -1,0 1.2,9.8 c 5.5,-2.1 13,-1.7 17.6,2.2 1,1 1.4,2.3 1.9,3.6 -6,-0.9 -12.9,-1.1 -19,-2.7 l 0.5,10.6 c 5.1,-1.6 11.9,-1.4 16.3,1.7 1.7,1.2 2.5,3 2.9,4.8 -5.8,-1.9 -13.3,-1.2 -19.2,-3.4 l 0,8.6 c 4.7,-1.2 10.7,-1 14.6,1.7 2.3,1.5 3.5,3.7 4.1,6 -1.2,0.5 -2,-1.4 -3.3,-1.4 -4.8,-2.2 -11,-0.7 -15.6,-3.1 -0.5,3.3 -0.4,6.9 -0.8,10.3 5.5,-1.2 11.2,-0.3 15.4,2.9 1.2,1.5 2.5,3 2.6,5 -1.2,0.1 -2.4,-1.4 -3.8,-1.7 -4.7,-1.2 -10.1,-0.9 -14.6,-2.6 l -1.7,10.8 c 6.4,0.9 12.1,3.6 18,6 0.6,1.5 -1.6,2.6 -2.7,3.1 -6,0.8 -11.3,-1.7 -15.8,-5.5 l -3.6,12.2 c 5.8,1.5 10.5,5.9 17,5.5 l 0.5,0.5 c -2,2.6 -4.7,3.3 -7.9,2.9 -4.1,-0.6 -7.8,-2.3 -11,-5 -1.8,3.6 -3.7,7.6 -5.3,11.5 5.9,1.3 10.6,5.4 17,5.5 -0.6,1.7 -2.4,2.5 -3.8,3.1 -6,1 -10.8,-2.1 -15.4,-5.3 -1.5,2.6 -3.3,5 -4.5,7.7 5.7,1.8 9.7,8.1 16,8.4 -0.4,1.2 -2.3,2.1 -3.8,2.4 -6,0.1 -10.7,-3.3 -14.6,-7.7 l -8.4,10.4 c 4.8,4 10.6,6.7 16.8,7.9 -2.5,2.6 -6.8,2.4 -10.1,1.7 -3.8,-0.8 -7.2,-3.9 -9.4,-7 l -7.9,7.4 c 4.5,4.7 10.2,8.7 16.3,10.4 -1.8,2.1 -5.7,1.8 -8.4,1.2 -4.3,-1.1 -9.1,-4.9 -10.3,-9.4 l -6.7,5 c 3.7,4.7 9.2,7.2 14.6,8.9 -4.1,3 -9.7,0.7 -13.4,-1.7 -1.5,-1.4 -2.9,-2.9 -3.4,-4.8 -2.6,0.7 -5,3.2 -7.6,4.6 0.7,2.1 3,4.3 5,6 2.1,2.4 4.9,3 7.2,4.8 -5,2.3 -9.5,-0.7 -13,-4.1 -0.9,-1.4 -1.9,-2.8 -2.1,-4.6 -1.1,-0.3 -2.2,0.9 -3.1,1.5 -0.6,4.9 10.1,7.6 3.8,12.5 l 2.6,1.6 -1.4,1 c 2.7,0.2 1.8,3.2 2.6,4.8 l 4.8,0.7 c 0.4,1.8 -0.6,3.5 -0.9,5.3 2,-0.3 3.7,0.5 5.7,0.2 2.6,4.7 -2.6,11 4.6,13.5 l 8.2,1.9 c 4.1,3.2 6.6,7 8.6,11.3 l 6.7,1.9 10.1,10.6 7.2,1.4 c 3.5,3.9 6.9,7.3 11,10.1 7.9,-1.9 12.4,4.4 20.2,2.9 l 5.7,6.7 c 4.3,1.5 9.5,2.2 14.2,1.2 2.8,0.6 5.3,3.1 8.2,2.1 l 5.7,-4.5 c 4.5,2.5 7.7,6 13.5,5.3 2.4,-1.1 4.7,-2.5 6.9,-4.1"
           style="fill:#ffffff;fill-opacity:1;fill-rule:nonzero;stroke:none"
           id="path42"
           inkscape:connector-curvature="0" /><path
           d="m 108.3,363 c 7.5,-1.7 15.7,0.9 23.5,1.4 11,1.8 22.1,3.3 33.4,4.3 8,-0.3 15.6,-1.2 23.5,-0.4 8.4,-1.5 16.6,-3.3 23.5,-8.2 -3.1,-5.1 -9.1,-8.2 -15.1,-8.9 -11.2,-0.5 -19.4,7.6 -30.9,7 -12.7,-1.5 -25.8,-2 -38.9,-2.4 -15.7,1.2 -29,7.9 -42,15.6 -1.3,0.7 -3.7,0.3 -3.9,2.1 9,-3.5 17.8,-7.4 26.9,-10.5"
           style="fill:#231f20;fill-opacity:1;fill-rule:nonzero;stroke:none"
           id="path44"
           inkscape:connector-curvature="0" /><path
           d="m 398,358.4 c -4.7,1.4 -9.2,1.8 -14.4,1.2 0.4,1.6 2.7,2 4.3,2.4 3.8,-0.1 7.4,-0.8 10.1,-3.6"
           style="fill:#ffffff;fill-opacity:1;fill-rule:nonzero;stroke:none"
           id="path46"
           inkscape:connector-curvature="0" /><path
           d="m 413.8,355.8 4.6,-7.7 11.3,-7.7 c 1.6,-2.4 1.7,-5.4 2.6,-8.1 l 5.3,-4.1 1.7,-7.2 c 4.9,-7.7 18.1,-11.1 14.6,-22.3 l 4.3,-5.8 c -0.6,-2.4 -0.8,-5.3 -0.7,-7.7 l 6.7,-5 c 3.8,-6.5 -2.6,-13.7 3.1,-19.4 -0.7,-4.8 -1.8,-9.6 0,-14.2 -2.2,-5.4 -4.4,-10.9 -4.8,-17 -1.5,-8.1 1.6,-18 -4.3,-24.3 0.3,-2.2 1.3,-4.1 1.9,-6.2 l -3.3,-3.4 c 0.5,-1.2 0.5,-2.7 0.7,-4.1 -1.4,-1.7 -2.9,-4.5 -5.3,-4 l 0,0.4 c 0.4,0.1 0.8,-0.2 1,0.3 -1.4,1.5 -3.5,2.4 -5.3,3.6 0.6,0.9 2.4,1.1 3.6,1.7 2.9,2.1 6.5,4.5 6.7,8.4 -4.6,-3.2 -10.1,-5.7 -16.1,-6.3 -1.5,0.9 -2.8,2.3 -4.3,3.4 4.5,0.9 8.9,3.3 11.3,7.7 l 0.7,2.6 c -2.4,-0.8 -4.8,-3.2 -7.4,-4.3 l -9.4,-2.4 c -1.8,1.7 -3.9,3.2 -5.5,5 5.1,0.3 10,2.7 12.7,7.2 0.1,1.1 0.8,2 0.7,3.1 -5.3,-2.5 -11,-5.6 -17.2,-6.7 l -6.8,7.2 c 6.3,0.7 12.4,3.9 15.6,9.9 -6.6,0.1 -12.3,-3.7 -18.2,-6 -2.6,2.2 -5.1,5.4 -6.5,8.6 6.7,0 12.5,3.8 16.3,9.1 -7.1,1 -12.4,-4 -18.9,-5.3 l -4.6,8.4 c 6.6,-0.1 12.6,3.3 16.8,8.4 -7,2.2 -11.9,-3.5 -18.2,-4.5 -1.8,3.3 -3.2,6.9 -4.3,10.5 6.1,2 14.2,0.4 19.2,6 -6.1,2.7 -15.1,2.6 -20.2,-2.1 -1.5,3.9 -1.9,8.2 -2.6,12.5 6,2.3 13.9,-0.1 18.9,4.8 -4.7,2.8 -11.3,2.4 -16.3,0.7 l -2.9,-1.9 c -1.1,2.8 -0.8,6.7 -1.2,10 6,2.3 13.7,0.2 18.7,4.6 -4.5,3.3 -12.4,3 -17.2,0.2 l -1.5,-0.9 c -0.8,2.3 -0.3,6 -0.5,8.6 6.4,1.7 14.1,-2.7 19.5,1.9 -4.6,3.5 -11.1,4.5 -16.8,2.9 l -2.7,-1.4 c -0.3,2.6 -0.3,6 0,8.8 5.9,1.6 12.6,-1.2 18,1.5 -0.9,3.7 -5.4,3.9 -8.8,4.3 -3.3,0.1 -6.1,-0.9 -8.9,-1.9 0.9,3.3 -1.4,9.7 3.8,9.6 5.5,1.1 11.5,0 16.8,0 -1.4,3.1 -4.6,5 -7.9,5.3 -4.3,0.5 -8,-0.7 -11.3,-2.7 1.6,3.6 -0.8,11.4 5.8,10.3 5.5,0.1 10.5,-0.9 15.6,-1.9 -0.3,2.8 -3.4,4.9 -6,6 -3.9,1.2 -8.2,0.6 -11.8,-0.9 0.3,1.9 1.2,4.6 2.2,6.7 5.3,2 11.5,0.4 16.8,-0.5 -0.2,2.4 -2.9,4.8 -5.3,5.5 -3.1,0.5 -6.5,0.3 -9.4,-0.7 1.5,2.4 2.7,6.1 5.8,6.5 4,1.1 6.2,-2.2 9.1,-3.6"
           style="fill:#ffffff;fill-opacity:1;fill-rule:nonzero;stroke:none"
           id="path48"
           inkscape:connector-curvature="0" /><path
           d="m 411.7,349.8 c -4.2,0.2 -9.3,1.5 -14.2,0.7 2.8,2.4 6.9,2.4 10.6,1.9 1.3,-0.6 2.8,-1.1 3.6,-2.6"
           style="fill:#ffffff;fill-opacity:1;fill-rule:nonzero;stroke:none"
           id="path50"
           inkscape:connector-curvature="0" /><path
           d="m 391.5,346.4 c -5,0.7 -10,-0.1 -14.6,-1.2 2.5,3.5 7.4,3.9 11.5,2.9 1,-0.6 2.2,-0.7 3.1,-1.7"
           style="fill:#ffffff;fill-opacity:1;fill-rule:nonzero;stroke:none"
           id="path52"
           inkscape:connector-curvature="0" /><path
           d="m 410.5,338.5 c -5.7,0.3 -11.3,2.4 -17.1,1 3.5,2.9 9,3.5 13.5,1.9 1.3,-0.7 2.8,-1.5 3.6,-2.9"
           style="fill:#ffffff;fill-opacity:1;fill-rule:nonzero;stroke:none"
           id="path54"
           inkscape:connector-curvature="0" /><path
           d="m 388.4,332.3 c -5.6,-0.6 -12.1,-0.5 -17.3,-2.9 3.4,4.5 9.4,5.5 14.6,4.5 0.9,-0.5 2,-0.7 2.7,-1.6"
           style="fill:#ffffff;fill-opacity:1;fill-rule:nonzero;stroke:none"
           id="path56"
           inkscape:connector-curvature="0" /><path
           d="m 407.8,327.2 c -5.4,-0.3 -11.6,0.8 -17,-0.9 3.3,3.7 9.1,4.7 13.9,3.1 1.2,-0.3 2.2,-1.1 3.1,-2.2"
           style="fill:#ffffff;fill-opacity:1;fill-rule:nonzero;stroke:none"
           id="path58"
           inkscape:connector-curvature="0" /><path
           d="m 386.2,319.8 c -5.3,-2 -11.6,-2.1 -17.3,-2.7 3.1,4.6 8.9,4.4 14,3.9 1.2,-0.2 2.3,-0.6 3.3,-1.2"
           style="fill:#ffffff;fill-opacity:1;fill-rule:nonzero;stroke:none"
           id="path60"
           inkscape:connector-curvature="0" /><path
           d="m 405.7,314.5 c -5.5,-1.8 -11.7,0.5 -17.3,-1 4.6,4 12,4.1 17.3,1.5 l 0,-0.5 z"
           style="fill:#ffffff;fill-opacity:1;fill-rule:nonzero;stroke:none"
           id="path62"
           inkscape:connector-curvature="0" /><path
           d="m 385.3,306.3 c -4.9,-2.5 -11.6,-1.8 -17.1,-3.3 1.8,3.6 6,4.2 9.6,4.8 2.7,-0.1 5.1,-0.6 7.5,-1.5"
           style="fill:#ffffff;fill-opacity:1;fill-rule:nonzero;stroke:none"
           id="path64"
           inkscape:connector-curvature="0" /><path
           d="m 197.8,307.3 -0.7,-0.2 0,0.4 c 0.3,0 0.6,0.1 0.7,-0.2"
           style="fill:#ffffff;fill-opacity:1;fill-rule:nonzero;stroke:none"
           id="path66"
           inkscape:connector-curvature="0" /><path
           d="m 406.4,302 c -5.6,-2.6 -11.5,1.1 -17.3,-0.7 3.5,4 9.6,3.6 14.4,2.2 0.8,-0.8 2.1,-0.5 2.9,-1.5"
           style="fill:#ffffff;fill-opacity:1;fill-rule:nonzero;stroke:none"
           id="path68"
           inkscape:connector-curvature="0" /><path
           d="m 208.6,300.1 c -4.2,-2.2 -7.4,-6.2 -10.5,-9.8 -0.7,2.1 0.8,4.3 2.4,6 2.3,2.3 5,3.5 8.1,3.8"
           style="fill:#ffffff;fill-opacity:1;fill-rule:nonzero;stroke:none"
           id="path70"
           inkscape:connector-curvature="0" /><path
           d="m 386,294.8 c -4.6,-3.5 -11.7,-2 -17.1,-4 3.6,5.3 11.2,5.3 17.1,4"
           style="fill:#ffffff;fill-opacity:1;fill-rule:nonzero;stroke:none"
           id="path72"
           inkscape:connector-curvature="0" /><path
           d="m 406.4,292.2 c -4.9,-2.9 -11.8,-1.2 -17.1,-3.4 3.7,5.1 11.6,5.5 17.1,3.4"
           style="fill:#ffffff;fill-opacity:1;fill-rule:nonzero;stroke:none"
           id="path74"
           inkscape:connector-curvature="0" /><path
           d="m 220.6,291.7 c -4.4,-1.4 -8.2,-4.5 -12,-7.7 -0.3,2.9 3,5.5 5.6,6.8 1.9,0.7 4.2,1.4 6.4,0.9"
           style="fill:#ffffff;fill-opacity:1;fill-rule:nonzero;stroke:none"
           id="path76"
           inkscape:connector-curvature="0" /><path
           d="M 194.5,290.3 C 194.3,290 194,290 193.8,290 l -0.3,1 c 0.3,-0.2 1,-0.1 1,-0.7"
           style="fill:#ffffff;fill-opacity:1;fill-rule:nonzero;stroke:none"
           id="path78"
           inkscape:connector-curvature="0" /><path
           d="m 198.8,286.2 c -4,-1.7 -9.7,-4.5 -10.1,-9.8 2,0.7 4.1,2.6 6.3,3.6 4.1,0.3 9.5,5.7 12.9,0 l 1,-1 c -5,-0.5 -10.1,-4 -11.8,-8.9 0.1,-0.5 -0.2,-1.1 0.3,-1.4 4.4,3.8 9.7,5.8 15.3,6.9 2.2,-1.4 4.4,-2.8 6.3,-5 -4.7,-0.5 -9.8,-2.1 -12.5,-7 -0.4,-1.1 -0.8,-2.2 -1,-3.3 5.4,2.3 10.9,5.7 17.1,6.7 l 6.9,-7.2 c -6.1,-0.8 -12.2,-4.2 -15.8,-9.8 7,-0.4 12.7,3.7 18.9,6 2.1,-3 4.7,-5.7 6,-8.9 -6.8,0.4 -12.5,-3.7 -16.3,-9.1 7,-0.7 12.5,3.6 18.7,5.5 1.8,-2.9 3.3,-5.8 4.6,-8.9 -6.7,0.3 -12.3,-2.6 -16.6,-7.7 6.6,-2.6 11.9,3.5 18.3,4.1 2,-3.3 2.7,-7.2 4.1,-10.8 -6.6,-1.4 -14,-0.5 -19,-5.5 5.3,-2.7 13.2,-2.4 18.5,0.7 l 1.4,1.4 2.6,-12.2 c -5.3,-3.3 -13.7,-0.2 -18.7,-5 4.4,-2.9 10.9,-2.8 15.9,-1 1.2,0.5 2.2,1.6 3.3,2.4 l 1,-10.6 c -5.9,-2.3 -13.8,0.1 -18.7,-4.8 5.6,-2.9 13.9,-2.9 18.9,1.2 l 0.5,-8.6 c -6.2,-1.7 -13.7,1.6 -19.2,-1.9 4.4,-3.8 11.7,-5 17.3,-2.7 l 1.7,1 c 0.3,-2.7 0.3,-6.2 0,-9.1 -5.7,-1.2 -12.8,1.5 -18,-1.5 1.5,-4.4 6.4,-3.7 10.3,-4 2.8,0 5.3,0.8 7.7,1.9 -1.6,-3.4 1.8,-11.2 -4.8,-10.1 -5,-0.6 -10.9,0.1 -15.9,0.2 1.5,-4.1 5.8,-5.6 9.9,-5.5 3.5,-0.1 6.5,0.9 9.1,2.9 -0.5,-3.6 -1.1,-7.7 -2.9,-10.3 -6.4,-0.9 -12.4,0.4 -18.2,1.7 0.1,-3 3.3,-5.2 6,-6.3 3.8,-0.9 8.4,-0.5 11.7,1.2 -1.1,-3.6 -1.8,-9.6 -7.6,-7.9 -4.2,-0.2 -7.7,1.1 -11.6,1.7 -0.3,-1.3 1,-2.8 2,-3.6 2.6,-3 7.2,-2.7 10.8,-1.9 0.6,0.1 1.2,0.6 1.9,0.7 -1,-2.5 -2.8,-4.6 -4.1,-7 0.5,-0.4 1.3,-0.1 1.9,-0.2 -1.1,-2.4 -3.8,-0.5 -5.7,-0.7 -5.4,1.6 -4,9.1 -9.6,10.3 0,6 -6.2,5.3 -10.1,6.7 -3.1,3.6 -6.3,6.4 -9.9,9.4 -0.8,4.9 -1.8,9.8 -5.2,13.6 l -6.8,3.4 -1.6,7.4 -5.6,4.8 c 0.7,8.2 -6.3,13.2 -5.5,21.4 -3.9,6 1.5,12.3 -0.9,19 -2.1,2.8 -9.4,5.7 -3.9,9.6 6.4,3.8 -2.5,6.7 -3.3,10.3 l 5.5,13.4 c -1.1,2.7 -2.5,5.2 -4.1,7.7 0.3,9.5 10,15.1 7.9,25.7 1.4,0.9 2.8,1.7 4.1,2.9 -1.4,3.4 2.2,4.5 3.4,6.7 1.8,-0.7 3.4,-1.7 5,-2.9"
           style="fill:#ffffff;fill-opacity:1;fill-rule:nonzero;stroke:none"
           id="path80"
           inkscape:connector-curvature="0" /><path
           d="m 232.2,286.2 c -5.4,-1.7 -9.8,-5.8 -14.4,-9.4 -0.6,3.2 3.3,6.2 6,8 2.5,1 5.6,2.3 8.4,1.4"
           style="fill:#ffffff;fill-opacity:1;fill-rule:nonzero;stroke:none"
           id="path82"
           inkscape:connector-curvature="0" /><path
           d="m 204.3,284 c -4.3,-1.2 -9.2,-2.1 -13.2,-4.8 1.7,3.2 5.2,4.9 8.4,5.8 1.8,0.1 3.5,0.1 4.8,-1"
           style="fill:#ffffff;fill-opacity:1;fill-rule:nonzero;stroke:none"
           id="path84"
           inkscape:connector-curvature="0" /><path
           d="m 387.4,281.2 c -0.9,-1.7 -3.5,-1.5 -5.3,-2.2 -3.8,-0.6 -7.9,-0.6 -11.5,-1.9 3.5,5 10.9,5.6 16.8,4.1"
           style="fill:#ffffff;fill-opacity:1;fill-rule:nonzero;stroke:none"
           id="path86"
           inkscape:connector-curvature="0" /><path
           d="m 407.8,278.5 c -4.6,-3.1 -11.8,-1.1 -17,-3.3 3.6,5 11.5,5.4 17,3.3"
           style="fill:#ffffff;fill-opacity:1;fill-rule:nonzero;stroke:none"
           id="path88"
           inkscape:connector-curvature="0" /><path
           d="m 212.7,276.8 c -4.8,-1 -9.5,-2.5 -13.7,-5.2 2.9,4.3 8.5,7.9 13.7,5.2"
           style="fill:#ffffff;fill-opacity:1;fill-rule:nonzero;stroke:none"
           id="path90"
           inkscape:connector-curvature="0" /><path
           d="m 243,274 c -5.7,-1.4 -10.5,-4.7 -15.4,-8 1,4.7 6,7.7 10.3,8.4 1.9,0.2 3.4,0.3 5.1,-0.4"
           style="fill:#ffffff;fill-opacity:1;fill-rule:nonzero;stroke:none"
           id="path92"
           inkscape:connector-curvature="0" /><path
           d="m 223.8,268.2 c -6.1,-0.6 -11.2,-3.3 -16.4,-6 1.1,4.5 5.9,5.9 9.6,7 2.3,-0.4 5.1,0.8 6.8,-1"
           style="fill:#ffffff;fill-opacity:1;fill-rule:nonzero;stroke:none"
           id="path94"
           inkscape:connector-curvature="0" /><path
           d="m 389.3,267 c -4.2,-4.4 -10.7,-8.5 -17.2,-5.8 l 0,0.5 c 5.8,1.6 10.5,6 17.2,5.3"
           style="fill:#ffffff;fill-opacity:1;fill-rule:nonzero;stroke:none"
           id="path96"
           inkscape:connector-curvature="0" /><path
           d="m 411.7,263.4 c -4.5,-4.3 -11.9,-2.5 -17.6,-4.3 1.3,4.1 6,4.1 9.4,5.3 2.9,0 5.7,0 8.2,-1"
           style="fill:#ffffff;fill-opacity:1;fill-rule:nonzero;stroke:none"
           id="path98"
           inkscape:connector-curvature="0" /><path
           d="m 253.5,261.2 c -5.4,-1.5 -9.4,-7.7 -15.6,-8.1 3.6,4.9 9.2,9.9 15.6,8.1"
           style="fill:#ffffff;fill-opacity:1;fill-rule:nonzero;stroke:none"
           id="path100"
           inkscape:connector-curvature="0" /><path
           d="m 232.6,257.4 c -5.3,-2.3 -10.4,-5.2 -16.3,-6.2 3.9,4.8 10.2,8.8 16.3,6.2"
           style="fill:#ffffff;fill-opacity:1;fill-rule:nonzero;stroke:none"
           id="path102"
           inkscape:connector-curvature="0" /><path
           d="m 394.6,251.4 c -2.1,-3.9 -7.1,-5.5 -11.3,-6.7 -1.9,-0.1 -3.8,-0.1 -5.2,0.9 5.8,1.2 10.4,5.3 16.5,5.8"
           style="fill:#ffffff;fill-opacity:1;fill-rule:nonzero;stroke:none"
           id="path104"
           inkscape:connector-curvature="0" /><path
           d="m 415,250.9 c -3.7,-4.3 -10.1,-7.6 -16.3,-5.5 l -0.2,0.2 c 5.7,0.7 10.3,5.3 16.5,5.3"
           style="fill:#ffffff;fill-opacity:1;fill-rule:nonzero;stroke:none"
           id="path106"
           inkscape:connector-curvature="0" /><path
           d="m 261.4,247.6 c -6,-0.7 -10.3,-5.3 -16.5,-5.6 3.9,4.8 10.5,8.6 16.5,5.6"
           style="fill:#ffffff;fill-opacity:1;fill-rule:nonzero;stroke:none"
           id="path108"
           inkscape:connector-curvature="0" /><path
           d="m 241.3,244.9 c -5.5,-1.8 -10.5,-5.5 -16.8,-5.7 4.5,4.4 10.4,8.5 16.8,5.7"
           style="fill:#ffffff;fill-opacity:1;fill-rule:nonzero;stroke:none"
           id="path110"
           inkscape:connector-curvature="0" /><path
           d="m 421.7,239.2 c -3.5,-4.6 -9,-7.3 -14.8,-6.8 -0.6,0.4 -1.3,0.3 -1.7,1 5.5,1.9 10.6,4.9 16.5,5.8"
           style="fill:#ffffff;fill-opacity:1;fill-rule:nonzero;stroke:none"
           id="path112"
           inkscape:connector-curvature="0" /><path
           d="m 401.6,236 c -4.2,-4.6 -10.3,-7.8 -16.6,-5.7 l -0.2,0.2 c 6.2,0.4 10.6,5.9 16.8,5.5"
           style="fill:#ffffff;fill-opacity:1;fill-rule:nonzero;stroke:none"
           id="path114"
           inkscape:connector-curvature="0" /><path
           d="m 248,232.4 c -5.8,-0.6 -10.7,-5.4 -16.8,-5 4.2,4.5 10.8,7.9 16.8,5"
           style="fill:#ffffff;fill-opacity:1;fill-rule:nonzero;stroke:none"
           id="path116"
           inkscape:connector-curvature="0" /><path
           d="m 268.1,232.7 c -5.7,-0.8 -10.2,-5.9 -16.5,-5.8 4,4.5 10.3,8.5 16.5,5.8"
           style="fill:#ffffff;fill-opacity:1;fill-rule:nonzero;stroke:none"
           id="path118"
           inkscape:connector-curvature="0" /><path
           d="m 430.1,227.2 c -3.8,-5 -9.7,-8.4 -16,-6.8 l -0.3,0.3 c 5.1,2.5 10.5,5.3 16.3,6.5"
           style="fill:#ffffff;fill-opacity:1;fill-rule:nonzero;stroke:none"
           id="path120"
           inkscape:connector-curvature="0" /><path
           d="m 408.3,225.2 c -3.3,-5.2 -9,-9.3 -15.4,-8.4 l -0.2,0.3 c 5.6,1.3 9.6,7.4 15.6,8.1"
           style="fill:#ffffff;fill-opacity:1;fill-rule:nonzero;stroke:none"
           id="path122"
           inkscape:connector-curvature="0" /><path
           d="m 243.9,214.2 c -3.1,-0.5 -6.5,-0.2 -9.3,0.7 4.8,3.6 11.5,2.9 17.2,4.3 -0.4,-3.7 -4.9,-4.1 -7.9,-5"
           style="fill:#ffffff;fill-opacity:1;fill-rule:nonzero;stroke:none"
           id="path124"
           inkscape:connector-curvature="0" /><path
           d="m 274.1,216.8 c -5.2,-2.3 -10.6,-5.4 -17,-5.5 0.9,2.3 4.1,3.6 6.2,5.1 3.2,1.2 7.7,2.8 10.8,0.4"
           style="fill:#ffffff;fill-opacity:1;fill-rule:nonzero;stroke:none"
           id="path126"
           inkscape:connector-curvature="0" /><path
           d="m 430.9,209.4 c -2.6,-0.8 -5.9,-0.6 -8.2,0.7 6,0.6 11.2,3.3 16.3,6 -0.5,-3.6 -5,-5.6 -8.1,-6.7"
           style="fill:#ffffff;fill-opacity:1;fill-rule:nonzero;stroke:none"
           id="path128"
           inkscape:connector-curvature="0" /><path
           d="m 419.1,212.3 c -1,-4.1 -4.9,-6.4 -8.4,-7.9 -2.2,-0.5 -4.9,-1.3 -7.2,-0.3 5.4,1.7 10.6,5 15.6,8.2"
           style="fill:#ffffff;fill-opacity:1;fill-rule:nonzero;stroke:none"
           id="path130"
           inkscape:connector-curvature="0" /><path
           d="m 447.4,206.5 c -2.1,-3.7 -6.2,-5.9 -10.3,-6.2 -1.4,-0.3 -2.2,0.5 -3.4,0.9 4.4,1.8 9.8,2.1 13.7,5.3"
           style="fill:#ffffff;fill-opacity:1;fill-rule:nonzero;stroke:none"
           id="path132"
           inkscape:connector-curvature="0" /><path
           d="m 255.7,203.2 c -2.2,-3.5 -6,-4.3 -9.6,-4.8 -2.8,-0.4 -5.1,0.4 -7.5,1.2 4.6,3.3 11.9,1.3 17.1,3.6"
           style="fill:#ffffff;fill-opacity:1;fill-rule:nonzero;stroke:none"
           id="path134"
           inkscape:connector-curvature="0" /><path
           d="m 429.2,201.5 c -0.9,-5.4 -6.7,-8.9 -11.5,-9.9 -1.1,0.1 -2.4,-0.2 -3.4,0.3 5.2,2.1 10.1,5.9 14.9,9.6"
           style="fill:#ffffff;fill-opacity:1;fill-rule:nonzero;stroke:none"
           id="path136"
           inkscape:connector-curvature="0" /><path
           d="m 275.6,201.2 c -2.1,-3.7 -6.3,-5 -10.6,-5 -2.3,-0.4 -4,0.6 -6,1 4.1,3.1 11.5,1.6 16.6,4"
           style="fill:#ffffff;fill-opacity:1;fill-rule:nonzero;stroke:none"
           id="path138"
           inkscape:connector-curvature="0" /><path
           d="m 449.8,194 c -2.4,-1 -5.4,-1.3 -7.7,0.3 4.8,1.2 9.7,2 13.7,5 -0.6,-2.2 -3.8,-4 -6,-5.3"
           style="fill:#ffffff;fill-opacity:1;fill-rule:nonzero;stroke:none"
           id="path140"
           inkscape:connector-curvature="0" /><path
           d="m 435.7,189.5 c -2.9,-2.2 -6.2,-3.3 -10.1,-3.1 4.6,1.6 8.6,4.5 12.5,7.9 0.1,-1.5 -1.1,-3.5 -2.4,-4.8"
           style="fill:#ffffff;fill-opacity:1;fill-rule:nonzero;stroke:none"
           id="path142"
           inkscape:connector-curvature="0" /><path
           d="m 257.1,189.5 c -2,-3.4 -5.9,-4.3 -9.6,-4.8 -2.5,-0.4 -5.1,0.4 -7.4,1.2 4.8,3.3 11.8,1.3 17,3.6"
           style="fill:#ffffff;fill-opacity:1;fill-rule:nonzero;stroke:none"
           id="path144"
           inkscape:connector-curvature="0" /><path
           d="m 446.9,182.8 c -2.4,-2.7 -5.2,-4.5 -8.6,-4.8 4,2.4 7,6.3 10.3,10 0.3,-1.6 -0.2,-3.9 -1.7,-5.2"
           style="fill:#ffffff;fill-opacity:1;fill-rule:nonzero;stroke:none"
           id="path146"
           inkscape:connector-curvature="0" /><path
           d="m 269.8,182.8 c -3.1,-0.3 -6.8,-0.7 -9.6,0.7 4.9,3.2 11.7,1.5 16.8,4.1 -0.8,-2.8 -4.4,-4.1 -7.2,-4.8"
           style="fill:#ffffff;fill-opacity:1;fill-rule:nonzero;stroke:none"
           id="path148"
           inkscape:connector-curvature="0" /><path
           d="m 257.1,176.8 c -3.1,-3.7 -9.2,-3.6 -13.7,-2.4 -1.1,0.5 -2.4,0.7 -3.3,1.6 5.1,2.4 12,-0.6 17,0.8"
           style="fill:#ffffff;fill-opacity:1;fill-rule:nonzero;stroke:none"
           id="path150"
           inkscape:connector-curvature="0" /><path
           d="m 278,175.1 c -2.4,-4 -6.9,-4.7 -11.3,-4.6 -2.2,-0.3 -4,0.5 -5.8,1.2 5.2,2.3 11.3,2.4 17.1,3.4"
           style="fill:#ffffff;fill-opacity:1;fill-rule:nonzero;stroke:none"
           id="path152"
           inkscape:connector-curvature="0" /><path
           d="m 258.1,164.5 c -4.8,-3.8 -11.4,-4.9 -17.1,-1.9 -0.2,0.3 -0.6,0.5 -0.4,1 5.5,1.7 11.8,-0.5 17.5,0.9"
           style="fill:#ffffff;fill-opacity:1;fill-rule:nonzero;stroke:none"
           id="path154"
           inkscape:connector-curvature="0" /><path
           d="M 277.3,160.9 C 274,156.1 267,156 261.7,157.3 l -1.5,0.7 c 4.7,2.8 11.5,1.6 17.1,2.9"
           style="fill:#ffffff;fill-opacity:1;fill-rule:nonzero;stroke:none"
           id="path156"
           inkscape:connector-curvature="0" /><path
           d="m 255.7,151.3 c -3.6,-3.6 -9,-4.2 -13.9,-3.1 -1.2,0.8 -2.5,1.1 -3.4,2.4 5.1,-0.1 12.1,-1 17.3,0.7"
           style="fill:#ffffff;fill-opacity:1;fill-rule:nonzero;stroke:none"
           id="path158"
           inkscape:connector-curvature="0" /><path
           d="m 266.9,143.4 c -3.1,-0.5 -6.5,-0.3 -8.8,1.7 l 0.7,0.5 c 5.6,0.1 11.1,0.3 15.8,2.6 -1,-2.6 -4.7,-4.1 -7.7,-4.8"
           style="fill:#ffffff;fill-opacity:1;fill-rule:nonzero;stroke:none"
           id="path160"
           inkscape:connector-curvature="0" /><path
           d="m 252.8,138.1 c -0.2,-0.9 -2,-1.7 -3.1,-2.1 -3.4,-1.3 -7.8,-0.8 -11.1,0.4 l -2.8,2.7 c 5.5,-0.6 11.2,-2.3 17,-1"
           style="fill:#ffffff;fill-opacity:1;fill-rule:nonzero;stroke:none"
           id="path162"
           inkscape:connector-curvature="0" /><path
           d="m 269.1,132.4 c -1.4,-3 -4.9,-3.8 -8.2,-3.6 -2.1,0.6 -4.5,0.4 -6.2,2.1 5.1,-0.9 9.8,0.6 14.4,1.5"
           style="fill:#ffffff;fill-opacity:1;fill-rule:nonzero;stroke:none"
           id="path164"
           inkscape:connector-curvature="0" /><path
           d="m 249,127.1 c -3,-2.6 -8.2,-3 -12,-1.7 -0.9,0.8 -2.3,1.1 -2.4,2.4 4.6,-0.6 9.6,-1.9 14.4,-0.7"
           style="fill:#ffffff;fill-opacity:1;fill-rule:nonzero;stroke:none"
           id="path166"
           inkscape:connector-curvature="0" /><path
           d="m 262.9,117.5 c -2.2,-2.7 -6.5,-2.5 -9.6,-1.7 -1.6,0.7 -3.5,1.3 -4.6,2.9 4.4,-1.1 9.3,-1.9 14.2,-1.2"
           style="fill:#ffffff;fill-opacity:1;fill-rule:nonzero;stroke:none"
           id="path168"
           inkscape:connector-curvature="0" /></g></g></g></svg>