<?xml version="1.0" encoding="UTF-8" standalone="no"?>
<!-- Created with Inkscape (http://www.inkscape.org/) -->

<svg
   xmlns:dc="http://purl.org/dc/elements/1.1/"
   xmlns:cc="http://creativecommons.org/ns#"
   xmlns:rdf="http://www.w3.org/1999/02/22-rdf-syntax-ns#"
   xmlns:svg="http://www.w3.org/2000/svg"
   xmlns="http://www.w3.org/2000/svg"
   xmlns:sodipodi="http://sodipodi.sourceforge.net/DTD/sodipodi-0.dtd"
   xmlns:inkscape="http://www.inkscape.org/namespaces/inkscape"
   id="svg2"
   version="1.1"
   inkscape:version="0.48.4 r9939"
   width="385.23251"
   height="385.23251"
   viewBox = "0 0 385 385"
   xml:space="preserve"
   sodipodi:docname="Baseball (16).pdf"><metadata
     id="metadata8"><rdf:RDF><cc:Work
         rdf:about=""><dc:format>image/svg+xml</dc:format><dc:type
           rdf:resource="http://purl.org/dc/dcmitype/StillImage" /><dc:title></dc:title></cc:Work></rdf:RDF></metadata><defs
     id="defs6"><clipPath
       clipPathUnits="userSpaceOnUse"
       id="clipPath16"><path
         d="M 0,792 612,792 612,0 0,0 0,792 z"
         id="path18"
         inkscape:connector-curvature="0" /></clipPath></defs><sodipodi:namedview
     pagecolor="#ffffff"
     bordercolor="#666666"
     borderopacity="1"
     objecttolerance="10"
     gridtolerance="10"
     guidetolerance="10"
     inkscape:pageopacity="0"
     inkscape:pageshadow="2"
     inkscape:window-width="640"
     inkscape:window-height="480"
     id="namedview4"
     showgrid="false"
     fit-margin-top="0"
     fit-margin-left="0"
     fit-margin-right="0"
     fit-margin-bottom="0"
     inkscape:zoom="0.23838384"
     inkscape:cx="195.74125"
     inkscape:cy="186.36625"
     inkscape:window-x="0"
     inkscape:window-y="0"
     inkscape:window-maximized="0"
     inkscape:current-layer="g10" /><g
     id="g10"
     inkscape:groupmode="layer"
     inkscape:label="Baseball (16)"
     transform="matrix(1.25,0,0,-1.25,-186.75875,693.86625)"><g
       id="g12"><g
         id="g14"
         clip-path="url(#clipPath16)"><path
           d="m 149.407,401 c 0,-28.448 7.815,-56.243 22.6,-80.379 1.283,-2.095 1.829,-3.82 2.461,-5.819 0.918,-2.903 1.959,-6.193 5.514,-10.932 4.035,-5.378 9.107,-9.028 14.012,-12.557 2.592,-1.865 5.04,-3.627 7.223,-5.565 28.202,-25.047 64.527,-38.841 102.283,-38.841 40.961,0 79.526,15.897 108.588,44.763 1.757,1.745 3.788,3.213 5.939,4.768 2.893,2.091 5.885,4.253 8.195,7.171 2.321,2.933 3.865,6.516 5.359,9.982 1.09,2.53 2.12,4.92 3.412,7.03 14.785,24.136 22.6,51.931 22.6,80.379 0,26.358 -6.77,52.371 -19.579,75.226 -1.021,1.821 -1.751,3.83 -2.524,5.956 -1.004,2.761 -2.041,5.616 -3.79,8.117 -1.962,2.805 -4.6,5.112 -7.151,7.342 -1.863,1.629 -3.623,3.167 -5.105,4.858 -29.283,33.424 -71.544,52.594 -115.944,52.594 -25.674,0 -48.082,-5.677 -70.521,-17.867 -1.384,-0.752 -2.825,-1.067 -4.65,-1.465 -3.297,-0.719 -7.4,-1.615 -13.277,-5.585 -5.589,-3.776 -7.721,-7.207 -9.434,-9.965 -0.977,-1.572 -1.749,-2.814 -2.968,-3.824 C 167.818,487.509 149.407,447.609 149.407,401"
           style="fill:#231f20;fill-opacity:1;fill-rule:nonzero;stroke:none"
           id="path20"
           inkscape:connector-curvature="0" /><path
           d="m 187.242,306.432 0,0 c 0,0 1.558,-3.591 7.428,-7.342 2.7,-0.458 5.843,-0.797 9.361,-0.954 -1.094,-1.659 -2.588,-4.318 -3.476,-5.924 -0.501,0.014 -0.929,-0.07 -1.278,-0.229 -1.028,0.766 -2.064,1.526 -3.144,2.303 -1.157,0.832 -2.321,1.68 -3.477,2.548 -8.184,5.895 -11.796,12.275 -11.796,12.275 -1.589,2.668 -2.256,4.76 -2.9,6.798 -0.646,2.04 -1.313,4.151 -2.83,6.627 -14.432,23.56 -22.061,50.694 -22.061,78.466 0,44.62 17.289,82.921 50.013,110.945 0.415,-0.121 1.001,-0.148 1.837,0.029 1.989,0.418 3.353,1.794 3.674,2.937 0.167,0.597 0.05,1.14 -0.322,1.489 -0.122,0.114 -0.292,0.221 -0.518,0.294 0.492,0.748 1.003,1.47 1.518,2.162 1.952,1.605 4.579,3.755 5.468,4.476 0.668,-0.02 2.32,1.143 3.266,2.002 0.78,0.366 1.67,0.72 2.686,1.038 -2.481,-2.603 -5.083,-5.89 -6.739,-7.992 -2.152,-0.86 -3.55,-2.367 -3.224,-3.534 0.115,-0.411 0.617,-1.318 2.797,-0.858 1.989,0.418 3.353,1.794 3.674,2.937 0.118,0.423 0.087,0.816 -0.07,1.135 1.97,2.256 5.277,6.06 7.454,8.311 0.944,-0.061 2.809,0.236 6.041,1.154 0.142,0.041 0.294,0.089 0.441,0.134 1.92,-0.041 4.029,-0.217 6.335,-0.553 -2.681,-2.39 -6.191,-6.288 -7.93,-8.427 -1.683,-0.471 -2.859,-1.491 -2.787,-2.553 0.035,-0.521 0.439,-1.719 3.414,-1.601 1.575,0.063 2.938,0.791 3.472,1.853 0.259,0.516 0.264,1.044 0.05,1.492 1.372,1.515 3.309,3.985 5.048,5.93 1.869,0.664 3.807,1.303 5.725,1.904 2.637,-0.663 5.48,-1.52 8.54,-2.6 -2.756,-2.115 -7.205,-5.886 -9.643,-8.077 -2.027,-0.215 -3.017,-1.159 -3.059,-2.09 -0.042,-0.956 0.869,-1.967 3.001,-2.073 1.978,-0.099 3.401,0.694 3.933,1.523 0.294,0.457 0.342,0.959 0.161,1.399 2.075,1.624 5.596,4.595 7.811,6.48 1.074,0.024 2.557,0.15 4.254,0.339 3.183,-1.356 6.23,-2.944 9.131,-4.778 -2.938,-1.691 -8.667,-5.092 -11.381,-6.87 -2.307,0.088 -2.868,-0.762 -2.984,-1.332 -0.224,-1.1 0.959,-2.323 2.694,-2.786 1.553,-0.414 3.159,0.195 3.881,0.979 0.436,0.472 0.582,1.031 0.403,1.533 0,0.003 -0.002,0.005 -0.003,0.007 2.242,1.406 6.223,3.829 8.795,5.307 0.529,-0.167 1.175,-0.283 1.933,-0.319 0.43,-0.021 0.999,-0.027 1.663,-0.024 2.189,-1.696 4.286,-3.545 6.291,-5.546 -2.904,-1.542 -9.472,-5.02 -12.437,-6.84 -1.887,0.284 -3.139,-0.055 -3.415,-0.988 -0.313,-1.057 0.836,-2.191 2.927,-2.888 1.601,-0.534 2.946,-0.442 3.693,0.251 0.426,0.395 0.59,0.939 0.45,1.494 -0.003,0.012 -0.01,0.025 -0.013,0.037 2.143,1.012 5.734,2.798 8.482,4.223 1.312,-0.128 3.048,-0.279 4.996,-0.436 1.897,-2.296 3.696,-4.752 5.399,-7.364 -3.537,-1.408 -10.177,-4.669 -13.229,-6.398 -1.435,0.64 -2.705,0.422 -3.232,-0.303 -0.265,-0.364 -0.924,-1.707 1.721,-3.69 1.41,-1.059 2.676,-1.427 3.562,-1.039 0.51,0.224 0.836,0.686 0.895,1.267 0.02,0.197 -0.001,0.402 -0.04,0.61 3.454,1.493 8.924,3.832 11.337,5.052 0.572,-0.203 1.266,-0.397 2.07,-0.599 1.743,-3.098 3.368,-6.385 4.873,-9.863 -3.568,-1.28 -11.422,-4.276 -14.558,-5.713 -0.598,0.396 -1.276,0.599 -1.926,0.539 -0.703,-0.064 -1.25,-0.424 -1.501,-0.987 -0.23,-0.52 -0.302,-1.411 0.672,-2.707 1.472,-1.964 3.235,-2.33 4.147,-1.677 0.367,0.264 0.626,0.714 0.622,1.346 2.938,1.001 8.862,3.3 12.171,4.617 0.468,-0.23 1.079,-0.398 1.855,-0.466 0.176,-0.015 0.379,-0.039 0.594,-0.067 1.366,-3.595 2.619,-7.367 3.753,-11.326 -3.454,-0.914 -11.732,-4.022 -15.379,-5.496 -0.524,0.39 -1.106,0.618 -1.706,0.644 -0.804,0.035 -1.51,-0.312 -1.888,-0.928 -0.26,-0.423 -0.582,-1.336 0.186,-2.7 1.111,-1.977 3.072,-2.525 4.252,-1.899 0.506,0.269 0.936,0.821 0.951,1.629 2.341,0.82 6.642,2.333 10.077,3.507 1.162,-0.248 3.019,-0.661 5.197,-1.152 0.58,-2.378 1.123,-4.81 1.626,-7.307 0.214,-1.065 0.411,-2.129 0.6,-3.191 -3.608,-0.976 -11.882,-3.699 -15.463,-4.976 -0.247,0.265 -0.533,0.474 -0.858,0.605 -0.729,0.292 -1.556,0.167 -2.16,-0.329 -0.717,-0.588 -1.01,-1.553 -0.804,-2.649 0.36,-1.927 1.94,-3.489 3.314,-3.278 0.456,0.07 1.387,0.439 1.481,2.226 2.818,1.005 8.26,2.671 11.913,3.657 0.894,-0.18 2.089,-0.46 3.454,-0.8 0.548,-3.953 0.927,-7.872 1.151,-11.743 -0.092,-0.005 -0.182,-0.013 -0.266,-0.032 -1.34,-0.297 -11.076,-3.557 -15.224,-5.113 -0.537,0.495 -1.198,0.782 -1.852,0.721 -0.45,-0.042 -1.908,-0.394 -1.783,-3.14 0.07,-1.55 0.679,-2.711 1.67,-3.185 0.686,-0.328 1.46,-0.257 2.069,0.19 0.51,0.375 0.843,0.955 0.987,1.669 2.195,0.766 6.17,2.217 9.68,3.495 1.093,-0.246 2.873,-0.729 4.956,-1.321 0.045,-3.559 -0.034,-7.067 -0.232,-10.508 -0.029,-0.008 -0.06,-0.01 -0.088,-0.019 -1.349,-0.45 -10.507,-2.624 -14.221,-3.794 -0.519,0.458 -1.212,0.642 -1.903,0.471 -1.068,-0.264 -1.924,-1.267 -2.348,-2.752 -0.615,-2.152 0.212,-3.222 1.191,-3.506 1.182,-0.342 2.764,0.437 3.501,2.114 2.295,0.727 6.209,1.913 9.637,2.922 0.275,-0.177 0.604,-0.357 1,-0.539 0.715,-0.327 1.656,-0.764 2.73,-1.266 -0.399,-3.972 -0.952,-7.84 -1.634,-11.584 -0.115,0.002 -0.226,-0.001 -0.333,-0.011 -1.61,-0.146 -9.873,-1.929 -13.883,-2.639 -0.198,0.256 -0.442,0.463 -0.72,0.6 -1.241,0.609 -3.148,0.06 -4.193,-1.915 -0.601,-1.135 -0.623,-2.277 -0.061,-3.134 0.459,-0.7 1.24,-1.079 2.09,-1.014 0.976,0.075 1.875,0.717 2.553,1.78 2.69,0.493 7.157,1.28 10.907,2.184 0.004,-0.001 0.007,-0.003 0.011,-0.004 0.61,-0.257 1.493,-0.705 2.534,-1.264 -0.694,-3.116 -1.477,-6.133 -2.34,-9.032 -3.416,-0.723 -11.937,-2.381 -15.695,-3.245 -0.388,0.586 -0.994,0.947 -1.693,0.955 -1.139,0.013 -2.257,-0.871 -3.068,-2.427 -1.425,-2.73 -0.496,-3.706 -0.031,-3.999 1.02,-0.643 2.698,-0.003 4.013,1.449 3.142,0.533 8.714,1.733 12.263,2.462 0.04,-0.04 0.059,-0.08 0.103,-0.12 0.395,-0.362 1.102,-0.896 1.988,-1.526 -1.128,-3.142 -2.345,-6.121 -3.636,-8.9 -0.364,0.027 -0.769,0.013 -1.213,-0.057 -2.987,-0.472 -11.661,-1.588 -15.771,-2.616 -0.164,0.407 -0.444,0.739 -0.869,0.881 -0.937,0.314 -2.18,-0.16 -3.5,-1.333 -1.969,-1.75 -2,-3.134 -1.373,-3.845 0.726,-0.824 2.435,-0.805 4.297,0.823 0.034,0.031 0.057,0.064 0.091,0.095 3.172,0.286 8.948,0.8 13.258,1.507 0.426,-0.442 1.083,-1.043 1.863,-1.724 -0.85,-1.501 -1.718,-2.93 -2.605,-4.268 -0.555,-0.839 -1.112,-1.652 -1.669,-2.47 -4.402,-0.527 -13.266,-0.747 -16.854,-1.113 -0.567,0.82 -1.988,1.184 -3.88,0.071 -1.379,-0.811 -2.259,-2.03 -2.241,-3.104 0.01,-0.567 0.283,-1.036 0.749,-1.29 0.58,-0.315 1.69,-0.416 3.669,0.763 3.257,0.16 8.302,0.75 11.989,1.145 0.02,-0.034 0.993,-1.01 2.382,-2.398 -1.556,-2.125 -3.119,-4.173 -4.689,-6.14 -3.854,-0.238 -12.285,-0.402 -16.234,-0.63 -0.342,0.538 -1.329,1.243 -4.149,0.158 -2.225,-0.856 -2.803,-1.823 -2.896,-2.484 -0.076,-0.541 0.154,-1.057 0.631,-1.416 0.901,-0.68 2.496,-0.698 3.966,-0.045 0.358,0.159 0.678,0.352 0.976,0.558 3.407,0.185 9.432,0.665 13.224,0.903 0.008,-0.09 0.302,-0.66 0.773,-1.525 -1.928,-2.249 -3.867,-4.396 -5.819,-6.417 -0.338,0.128 -0.731,0.209 -1.137,0.209 -1.537,0 -8.326,0.201 -12.857,-0.061 -0.092,0.244 -0.236,0.463 -0.465,0.619 -0.773,0.529 -2.099,0.385 -3.734,-0.406 -2.146,-1.037 -3.252,-2.439 -2.751,-3.486 0.393,-0.823 1.796,-1.239 4.553,0.063 0.104,0.05 0.183,0.109 0.281,0.161 2.728,0.119 7.175,-0.386 10.939,-0.204 0.168,-0.346 0.372,-0.821 0.598,-1.383 -2.03,-1.897 -4.073,-3.685 -6.132,-5.34 -0.179,0.138 -0.375,0.259 -0.594,0.332 -1.125,0.375 -8.804,1.278 -12.261,1.562 -0.074,0.192 -0.168,0.377 -0.327,0.527 -0.628,0.59 -1.772,0.687 -3.137,0.267 -2.642,-0.812 -4.23,-2.237 -3.862,-3.465 0.248,-0.829 1.428,-1.448 3.994,-0.7 0.361,0.106 0.674,0.236 0.985,0.365 2.966,-0.371 8.171,-1.009 11.489,-1.18 -0.087,-0.192 -0.149,-0.418 -0.182,-0.676 -2.549,-1.844 -5.122,-3.498 -7.72,-4.981 -0.02,0.012 -0.036,0.031 -0.057,0.042 -0.89,0.445 -8.692,2.765 -12.205,3.668 -0.007,0.044 -0.001,0.088 -0.012,0.133 -0.224,0.929 -1.508,1.685 -4.437,1.021 -1.747,-0.396 -2.802,-1.041 -3.048,-1.865 -0.133,-0.441 -0.013,-0.898 0.33,-1.255 0.784,-0.816 2.537,-1.024 4.466,-0.53 0.069,0.018 0.129,0.042 0.195,0.061 2.816,-0.783 7.473,-2.002 10.621,-2.779 -0.285,-0.258 -0.525,-0.609 -0.697,-1.054 -2.404,-1.154 -4.832,-2.144 -7.282,-3.001 -2.037,0.816 -8.69,3.86 -11.759,5.088 -0.029,0.292 -0.14,0.587 -0.332,0.858 -0.517,0.727 -1.797,1.476 -3.708,1.195 -1.966,-0.29 -3.145,-1.1 -3.076,-2.114 0.077,-1.133 1.653,-1.802 4.323,-1.839 2.539,-1.129 6.319,-2.707 9.003,-3.78 -0.009,-0.017 -0.174,-0.482 -0.435,-1.223 -1.592,-0.396 -3.193,-0.745 -4.806,-1.02 -0.849,-0.145 -1.662,-0.257 -2.488,-0.38 -0.006,0.009 -0.007,0.017 -0.013,0.026 -0.678,1.131 -7.663,4.753 -10.635,6.09 -0.155,0.94 -1.315,1.888 -3.239,2.004 -1.3,0.078 -2.299,-0.265 -2.743,-0.94 -0.264,-0.402 -0.289,-0.882 -0.068,-1.317 0.387,-0.764 1.462,-1.258 2.943,-1.42 2.015,-1.421 5.518,-3.792 8.383,-5.104 -0.203,-0.019 -0.406,-0.054 -0.608,-0.101 -2.658,-0.26 -5.183,-0.413 -7.573,-0.481 -0.675,1.309 -6.799,5.072 -9.629,6.781 0.053,0.129 0.09,0.259 0.096,0.391 0.037,0.905 -0.99,1.883 -3.368,2.026 -1.659,0.1 -2.329,-0.38 -2.598,-0.8 -0.251,-0.391 -0.255,-0.877 -0.011,-1.334 0.449,-0.845 1.597,-1.431 2.855,-1.458 0.041,-0.001 0.072,0.004 0.112,0.003 1.856,-1.453 5.003,-3.837 7.606,-5.385 -0.148,-0.062 -0.283,-0.153 -0.425,-0.23 -3.128,0.085 -5.98,0.311 -8.488,0.642 0,0 -4.876,2.677 -7.237,6.368 0,0 1.593,0.796 1.093,2.196 0,0 -0.6,1.5 -3.9,0.5 0,0 -2.8,-0.2 -1.9,-1.9 0,0 0.305,-0.914 1.903,-1.307"
           style="fill:#ffffff;fill-opacity:1;fill-rule:nonzero;stroke:none"
           id="path22"
           inkscape:connector-curvature="0" /><path
           d="m 231.924,532.87 c -0.111,-0.033 -0.222,-0.062 -0.333,-0.093 -0.004,10e-4 -0.007,0.002 -0.01,0.003 0.119,0.033 0.232,0.062 0.343,0.09"
           style="fill:#918f90;fill-opacity:1;fill-rule:nonzero;stroke:none"
           id="path24"
           inkscape:connector-curvature="0" /><path
           d="m 430.025,478.271 c -0.122,0.05 -0.233,0.088 -0.349,0.133 0.224,0.684 0.219,1.68 -0.183,2.819 -0.012,0.034 -0.03,0.074 -0.043,0.109 0.597,1.396 1.052,2.386 1.315,2.943 0.449,-1.076 0.864,-2.192 1.283,-3.343 0.789,-2.171 1.605,-4.416 2.771,-6.496 0.041,-0.073 0.078,-0.147 0.119,-0.22 -1.376,1.625 -3.122,3.314 -4.913,4.055"
           style="fill:#ffffff;fill-opacity:1;fill-rule:nonzero;stroke:none"
           id="path26"
           inkscape:connector-curvature="0" /><path
           d="m 427.755,432.182 c 0.392,-0.123 1.739,-0.331 2.605,2.145 0.545,1.556 0.402,3.006 -0.381,3.877 -0.478,0.531 -1.145,0.757 -1.785,0.607 -0.289,-0.068 -0.556,-0.211 -0.797,-0.414 -2.158,1.14 -6.715,3.143 -9.788,3.05 0.098,0.554 0.08,1.145 -0.103,1.71 0.815,3.604 1.657,6.997 2.506,10.171 3.869,-0.928 7.513,-3.67 9.392,-5.21 -0.066,-1.306 0.307,-2.408 0.85,-2.966 0.38,-0.39 0.859,-0.54 1.313,-0.41 0.723,0.207 1.247,1.037 1.558,2.467 0.527,2.421 0.049,4.407 -1.135,4.722 -0.277,0.073 -1.094,0.155 -1.804,-1.069 -1.855,1.547 -5.707,4.484 -9.159,5.331 -0.024,0.158 -0.058,0.318 -0.099,0.478 1.055,3.746 2.106,7.148 3.109,10.186 3.366,-1.143 7.034,-4.273 8.804,-6.079 -0.285,-1.314 -0.055,-2.632 0.447,-3.338 0.332,-0.467 0.785,-0.698 1.273,-0.648 0.79,0.081 1.528,0.888 2.192,2.397 1.002,2.277 0.366,3.81 -0.649,4.27 -0.521,0.236 -1.195,0.197 -1.82,-0.237 -1.948,2.094 -6.329,5.788 -8.64,6.377 -0.077,0.273 -0.196,0.576 -0.365,0.913 0.83,2.372 1.609,4.456 2.311,6.258 1.801,-1.048 4.285,-2.769 7.304,-6.377 -0.024,-0.059 -0.05,-0.107 -0.074,-0.169 -0.42,-1.121 -0.108,-2.251 0.834,-3.022 0.931,-0.762 2.234,-0.961 3.031,-0.464 0.031,0.019 0.068,0.046 0.106,0.075 9.919,-20.392 15.14,-42.966 15.14,-65.813 0,-27.772 -7.629,-54.906 -22.061,-78.466 -1.429,-2.333 -2.559,-4.957 -3.653,-7.494 -1.026,-2.382 -2.017,-4.665 -3.212,-6.702 -0.069,0.661 -0.333,0.947 -1.023,0.012 0,0 -3.707,-3.649 -5.449,-6.224 -0.057,0.255 -0.11,0.507 -0.167,0.761 0.011,0.021 0.021,0.039 0.031,0.061 2.086,4.171 4.485,8.547 5.721,10.736 0.372,-0.225 0.712,-0.211 0.876,-0.184 1.238,0.211 1.875,2.113 1.547,4.625 -0.187,1.437 -0.775,1.95 -1.236,2.127 -0.485,0.187 -1.025,0.072 -1.48,-0.316 -0.645,-0.548 -1.248,-1.807 -0.992,-3.598 -1.314,-1.783 -3.437,-4.767 -4.63,-6.989 -0.276,0.157 -0.671,0.256 -1.219,0.256 -0.014,0 -0.031,-0.001 -0.045,-0.001 -0.53,2.62 -1.025,5.218 -1.486,7.795 0.037,0.038 0.068,0.065 0.107,0.106 2.147,2.291 5.351,5.915 7.087,7.478 0.239,-0.55 0.54,-0.901 0.909,-1.048 0.389,-0.156 0.807,-0.078 1.178,0.218 0.982,0.784 1.558,3.062 1.256,4.973 -0.302,1.916 -1.401,2.779 -2.329,2.642 -0.835,-0.123 -1.609,-1.036 -1.623,-3.156 -1.76,-1.331 -4.722,-3.75 -6.317,-5.542 -0.347,0.05 -0.741,0.077 -1.225,0.058 -0.005,0 -0.011,0 -0.017,0 -0.72,4.464 -1.34,8.86 -1.866,13.185 0.196,0.148 0.4,0.317 0.624,0.528 2.465,2.328 5.407,2.802 7.157,2.97 0.431,-1.332 1.269,-1.79 1.973,-1.728 1.224,0.106 2.398,1.738 2.163,4.553 -0.141,1.694 -0.907,2.295 -1.351,2.504 -0.561,0.262 -1.198,0.192 -1.747,-0.194 -0.512,-0.359 -0.883,-0.936 -1.1,-1.654 -2.008,-0.342 -5.402,-1.084 -7.478,-2.158 0.259,0.737 0.082,1.523 -1.009,2.031 -0.308,3.052 -0.569,6.066 -0.787,9.042 2.153,1.323 7.136,2.611 9.627,3.226 0.372,-0.958 0.988,-1.556 1.707,-1.537 0.588,0.015 1.957,0.497 1.957,4.624 0,0.985 -0.363,1.751 -0.995,2.101 -0.519,0.288 -1.157,0.254 -1.708,-0.091 -0.485,-0.303 -0.848,-0.802 -1.073,-1.428 -2.366,-0.398 -6.909,-1.274 -9.089,-2.64 -0.135,0.407 -0.388,0.796 -0.771,1.112 -0.161,2.83 -0.283,5.621 -0.369,8.376 0.03,0.017 0.057,0.028 0.089,0.046 2.129,1.248 7.963,2.457 10.618,3.123 0.413,-0.994 1.135,-1.682 1.943,-1.696 0.587,-0.01 1.964,0.349 2.087,3.895 0.071,2.076 -0.526,2.884 -1.039,3.196 -0.468,0.285 -1.051,0.272 -1.599,-0.036 -0.592,-0.333 -1.076,-0.953 -1.386,-1.696 -2.298,-0.341 -6.913,-1.091 -9.522,-2.182 -0.098,0.658 -0.484,1.33 -1.333,1.831 -0.035,3.089 -0.024,6.126 0.027,9.111 2.288,0.87 7.75,0.66 10.125,0.701 0.264,-1.177 0.758,-1.779 1.489,-1.767 1.326,0.02 2.506,2.381 2.506,4.228 0,1.068 -0.442,1.955 -1.182,2.372 -0.579,0.326 -1.263,0.317 -1.829,-0.026 -0.431,-0.261 -0.752,-0.69 -0.956,-1.238 -2.034,0.036 -6.294,0.094 -8.658,-0.434 -0.268,0.38 -0.706,0.746 -1.372,1.065 0.075,2.295 0.172,4.558 0.293,6.786 3.041,1.03 8.381,1.405 10.706,1.559 0.168,-0.617 0.475,-1.127 0.909,-1.443 0.461,-0.335 1.006,-0.399 1.495,-0.176 0.831,0.381 1.367,1.52 1.507,3.208 0.186,2.23 -0.654,3.116 -1.503,3.201 -0.738,0.074 -1.561,-0.476 -2.071,-1.526 -2.542,-0.051 -8.42,-0.228 -10.396,-0.793 -0.064,0.285 -0.177,0.574 -0.346,0.857 0.242,3.48 0.538,6.871 0.878,10.173 0.166,0.031 0.341,0.069 0.531,0.122 2.638,0.732 7.261,-0.405 9.71,-0.796 0.265,-1.05 0.93,-1.887 1.758,-2.011 0.547,-0.081 1.87,0.068 2.35,3.186 0.241,1.56 -0.227,2.3 -0.661,2.646 -0.47,0.374 -1.102,0.445 -1.733,0.194 -0.454,-0.18 -0.854,-0.507 -1.164,-0.925 -2.464,0.585 -7.417,1.602 -9.836,0.987 -0.048,0.45 -0.184,0.954 -0.412,1.491 0.409,3.433 0.864,6.761 1.357,9.979 2.947,0.148 7.94,-1.213 10.261,-1.826 0.14,-0.825 0.49,-1.528 1.015,-1.961 0.464,-0.382 1.022,-0.492 1.531,-0.301 0.571,0.214 1.322,0.889 1.656,2.893 0.254,1.531 -0.038,2.771 -0.804,3.401 -0.481,0.396 -1.091,0.498 -1.675,0.279 -0.423,-0.159 -0.787,-0.464 -1.076,-0.884 -2.37,0.751 -7.454,2.237 -10.009,2.044 -0.027,0.309 -0.084,0.631 -0.158,0.955 0.63,3.719 1.307,7.27 2.014,10.663 1.844,-0.007 7.249,-2.731 9.738,-3.831 0.149,-1.244 0.764,-2.169 1.538,-2.412"
           style="fill:#ffffff;fill-opacity:1;fill-rule:nonzero;stroke:none"
           id="path28"
           inkscape:connector-curvature="0" /><path
           d="m 204.712,289.307 c 0.096,0.528 -0.209,1.096 -0.754,1.592 1.037,1.702 2.843,5.02 3.99,7.147 2.633,-0.007 5.468,0.105 8.465,0.337 -0.9,-1.829 -1.997,-5.058 -2.68,-6.955 -1.404,-0.121 -2.387,-0.536 -2.746,-1.218 -0.221,-0.418 -0.193,-0.902 0.076,-1.329 0.581,-0.923 2.102,-1.448 3.968,-1.374 2.185,0.087 3.142,1.117 3.107,2.035 -0.016,0.429 -0.253,0.846 -0.701,1.187 1.137,2.13 3.213,6.289 3.93,8.147 1.976,0.239 4.002,0.519 6.115,0.881 1.268,0.217 2.526,0.49 3.782,0.779 -1.028,-2.944 -2.476,-7.138 -3.205,-9.4 -2.591,-0.75 -2.7,-1.841 -2.599,-2.301 0.267,-1.212 2.332,-1.702 4.91,-1.165 1.676,0.35 2.794,1.038 3.068,1.889 0.144,0.447 0.039,0.908 -0.287,1.263 -0.239,0.26 -0.613,0.428 -1.042,0.553 0.755,2.609 2.346,7.718 2.972,10.169 3.324,0.969 6.608,2.174 9.847,3.664 -0.19,-2.57 -0.6,-6.816 -0.842,-9.465 -0.067,-0.04 -0.128,-0.065 -0.198,-0.108 -1.842,-1.12 -2.189,-2.149 -2.156,-2.814 0.031,-0.624 0.415,-1.157 1.055,-1.465 1,-0.48 2.766,-0.419 4.455,0.801 1.713,1.238 2,2.804 1.397,3.712 -0.244,0.367 -0.65,0.646 -1.206,0.757 0.334,2.721 1.137,7.933 1.29,10.474 1.011,0.543 1.54,0.834 1.578,0.86 2.566,1.432 5.11,3.01 7.627,4.784 0.213,-2.823 0.465,-8.417 0.821,-11.018 -1.038,-0.464 -1.678,-1.073 -1.817,-1.768 -0.104,-0.517 0.088,-1.016 0.525,-1.368 0.724,-0.586 2.291,-0.866 4.514,0.1 2.147,0.934 2.624,2.065 2.353,2.813 -0.201,0.558 -0.774,0.883 -1.61,0.973 -0.224,2.821 -1.122,9.751 -1.742,12.538 2.547,1.949 5.069,4.085 7.57,6.392 1.266,-3.418 2.834,-8.203 3.502,-10.57 -0.795,-0.55 -1.289,-1.167 -1.364,-1.814 -0.063,-0.535 0.164,-1.032 0.621,-1.364 0.996,-0.721 2.897,-0.578 4.963,0.376 1.742,0.803 2.242,2.161 1.836,3.087 -0.217,0.493 -0.727,0.909 -1.553,1.039 -0.699,3.253 -2.96,10.207 -4.358,12.756 2.346,2.349 4.671,4.874 6.981,7.541 1.806,-3.216 4.572,-7.973 6.023,-10.299 -0.368,-0.599 -0.535,-1.203 -0.419,-1.759 0.131,-0.623 0.571,-1.083 1.206,-1.262 1.117,-0.315 2.545,0.302 3.82,1.653 1.507,1.595 1.375,2.874 0.805,3.484 -0.385,0.412 -1.042,0.595 -1.876,0.424 -1.419,2.622 -4.708,8.199 -6.759,11.081 0.141,0.172 0.283,0.342 0.424,0.516 1.614,0.727 2.797,2.068 1.917,2.399 1.212,1.545 2.422,3.132 3.626,4.77 2.651,-2.643 6.061,-6.033 7.942,-7.906 -0.651,-0.992 -0.65,-1.686 -0.492,-2.118 0.186,-0.508 0.648,-0.85 1.265,-0.938 0.979,-0.138 2.532,0.394 3.628,1.89 1.37,1.868 1.101,3.141 0.454,3.664 -0.405,0.327 -1.065,0.43 -1.898,0.102 -2.032,2.296 -6.447,6.706 -8.494,8.65 0.307,0.436 0.616,0.859 0.923,1.301 1.975,0.888 3.343,2.516 1.877,2.766 0.289,0.43 0.579,0.845 0.867,1.28 0.848,1.281 1.681,2.639 2.496,4.065 3.021,-2.535 7.057,-5.681 9.265,-7.28 -0.166,-0.678 -0.142,-1.308 0.134,-1.82 0.328,-0.613 0.954,-0.972 1.675,-0.961 1.192,0.017 2.383,0.987 3.187,2.594 0.933,1.868 0.451,3.251 -0.391,3.747 -0.535,0.315 -1.345,0.337 -2.252,-0.255 -2.314,1.95 -6.833,5.105 -9.852,7.246 0.222,0.429 0.442,0.86 0.66,1.3 1.236,0.752 1.488,1.597 1.048,2.187 1.242,2.68 2.416,5.541 3.51,8.552 3.138,-2.139 7.371,-4.843 9.573,-6.318 -0.333,-0.978 -0.303,-1.898 0.117,-2.567 0.354,-0.563 0.932,-0.865 1.588,-0.828 1.094,0.063 2.173,1.044 2.961,2.692 0.891,1.863 0.38,3.166 -0.52,3.631 -0.558,0.288 -1.312,0.262 -2.075,-0.188 -2.395,1.978 -7.046,5.526 -10.248,7.62 0.082,0.251 0.158,0.511 0.239,0.764 0.946,1.065 1.475,2.356 0.85,2.792 0.759,2.597 1.455,5.286 2.083,8.052 3.755,-2.093 8.589,-4.973 10.929,-6.234 0.015,-0.683 0.212,-1.256 0.597,-1.653 0.445,-0.46 1.092,-0.62 1.729,-0.429 1.04,0.311 1.839,1.429 2.136,2.99 0.294,1.539 -0.368,3.025 -1.476,3.314 -0.334,0.087 -0.996,0.124 -1.66,-0.575 -2.481,1.528 -7.449,4.375 -11.072,6.184 1.679,0.893 1.11,1.797 0.027,2.308 0.662,3.62 1.201,7.357 1.604,11.188 4.208,-1.976 9.549,-4.514 12.157,-5.794 -0.045,-1.816 0.829,-3.03 1.838,-3.2 0.49,-0.082 2.138,-0.066 2.795,3.611 0.227,1.268 -0.044,2.329 -0.742,2.91 -0.522,0.433 -1.23,0.542 -1.894,0.292 -0.288,-0.109 -0.549,-0.281 -0.785,-0.499 -2.647,1.483 -8.888,4.577 -13.017,6.48 0.019,0.238 0.036,0.477 0.053,0.716 1.237,0.781 0.921,1.714 0.153,2.262 0.203,3.404 0.297,6.869 0.266,10.387 4.932,-1.431 10.826,-3.232 13.554,-4.059 0.212,-0.873 0.64,-1.583 1.226,-1.96 0.486,-0.313 1.037,-0.351 1.51,-0.105 0.56,0.291 1.246,1.09 1.332,3.242 0.084,2.104 -0.977,3.256 -2.068,3.306 -0.499,0.023 -1.011,-0.19 -1.411,-0.669 -3.248,1.208 -10.172,3.34 -14.233,4.3 -0.004,0.107 -0.006,0.212 -0.01,0.319 1.133,0.747 0.729,1.664 -0.102,2.259 -0.207,3.91 -0.569,7.871 -1.101,11.866 5.073,-1.315 11.524,-3.152 14.595,-4.099 0.382,-0.92 1.139,-1.644 1.863,-1.962 0.693,-0.306 1.37,-0.26 1.858,0.125 0.707,0.56 0.909,1.688 0.6,3.354 -0.323,1.749 -1.567,2.405 -2.585,2.275 -0.502,-0.065 -0.99,-0.324 -1.359,-0.744 -3.433,1.101 -11.199,3.406 -15.298,4.381 0.729,1.229 0.795,2.929 -0.668,3.03 -0.19,1.073 -0.39,2.147 -0.606,3.224 -0.445,2.212 -0.924,4.374 -1.43,6.494 5.422,-1.23 12.004,-2.751 15.191,-3.497 0.614,-1.02 1.505,-1.65 2.274,-1.848 0.696,-0.179 1.345,-0.028 1.779,0.415 0.443,0.452 0.856,1.4 0.311,3.347 -0.591,2.108 -2.272,2.997 -3.558,2.639 -0.421,-0.118 -0.801,-0.379 -1.076,-0.764 -3.841,1.171 -12.315,3.516 -15.882,4.145 0.466,1.05 0.366,2.41 -0.88,2.636 -1.063,3.742 -2.232,7.323 -3.5,10.747 4.403,-0.848 11.629,-2.706 15.583,-3.771 1.044,-1.876 2.846,-2.664 4.064,-2.191 0.987,0.382 1.727,1.634 0.839,3.999 -0.597,1.593 -1.896,2.334 -2.913,2.496 -0.901,0.143 -1.724,-0.13 -2.203,-0.729 -0.04,-0.05 -0.082,-0.109 -0.123,-0.175 -4.059,1.199 -11.75,3.71 -16.071,4.555 0.092,0.96 -0.36,1.789 -1.549,1.75 -1.327,3.088 -2.743,6.036 -4.255,8.834 5.42,-1.181 13.118,-2.434 16.617,-3.045 0.959,-1.132 2.188,-1.783 3.243,-1.683 0.625,0.06 1.117,0.388 1.35,0.902 0.244,0.539 0.311,1.493 -0.756,2.971 -1.307,1.809 -3.343,2.268 -4.352,1.547 -0.096,-0.068 -0.242,-0.195 -0.37,-0.387 -3.814,0.922 -13.17,3.07 -17.858,3.971 0.18,1.107 -0.142,2.101 -1.548,1.946 -1.495,2.324 -3.067,4.526 -4.712,6.609 5.308,-0.399 11.448,-0.785 15.038,-0.867 1.284,-1.228 2.878,-1.557 3.871,-1.317 0.669,0.162 1.144,0.575 1.3,1.133 0.15,0.533 0.076,1.422 -1.131,2.629 -1.471,1.471 -3.782,1.572 -4.713,0.674 -0.072,-0.069 -0.178,-0.188 -0.269,-0.353 -4.28,0.645 -13.205,1.722 -17.195,1.786 -0.068,0.075 -0.137,0.15 -0.205,0.225 -0.002,1.068 -0.734,2.308 -2.057,2.188 -1.688,1.72 -3.438,3.338 -5.257,4.845 4.255,0.123 9.952,0.408 13.123,0.497 0.22,-0.166 0.455,-0.328 0.718,-0.476 1.662,-0.934 3.476,-0.831 4.409,-0.246 0.501,0.315 0.771,0.781 0.74,1.279 -0.045,0.732 -0.685,1.391 -1.901,1.958 -3.805,1.776 -4.936,0.944 -5.272,0.291 -0.001,-0.003 -0.001,-0.007 -0.003,-0.009 -3.847,0.265 -11.347,0.36 -15.507,0.023 -0.294,0.745 -1.085,1.339 -2.243,1.069 -2.427,1.592 -4.959,3.01 -7.584,4.274 4.519,0.606 9.558,1.425 12.532,1.924 0.351,-0.182 0.744,-0.338 1.18,-0.453 2.38,-0.626 4.306,0.167 4.612,1.3 0.099,0.368 0.226,1.624 -2.312,2.325 -2.222,0.613 -3.87,0.53 -4.639,-0.235 -0.11,-0.109 -0.191,-0.233 -0.257,-0.362 -4.469,-0.311 -12.716,-1.461 -16.306,-2.247 -0.067,0.027 -0.136,0.055 -0.203,0.081 -0.161,0.914 -1.032,1.683 -2.617,0.997 -2.516,0.924 -4.889,1.697 -7.138,2.348 4.36,1.288 8.328,2.324 10.773,2.938 0.321,-0.172 0.677,-0.327 1.078,-0.454 1.912,-0.604 3.444,0.03 4.175,0.755 0.556,0.551 0.775,1.247 0.587,1.861 -0.124,0.402 -0.539,1.116 -1.932,1.377 -2.94,0.552 -4.914,0.165 -5.389,-1.013 -4.195,-0.744 -10.929,-2.761 -14.129,-4.08 -0.044,1.014 -1.282,1.888 -3.288,0.708 -0.065,-0.038 -0.134,-0.083 -0.203,-0.127 -1.365,0.241 -2.671,0.432 -3.914,0.571 2.071,0.827 4.092,1.705 5.485,2.291 0.279,-0.084 0.593,-0.161 0.956,-0.23 1.693,-0.323 3.096,-0.013 3.752,0.828 0.346,0.442 0.42,0.991 0.199,1.469 -0.321,0.696 -1.182,1.122 -2.361,1.171 -2.624,0.11 -4.27,-0.44 -4.437,-1.468 -3.461,-0.951 -8.481,-2.616 -11.381,-3.797 -0.304,-0.017 -0.6,-0.038 -0.894,-0.062 -0.406,0.47 -1.477,0.599 -3.049,-0.376 -0.682,-0.117 -1.329,-0.251 -1.942,-0.399 2.976,1.92 6.681,3.228 9.175,3.937 0.204,0.051 0.407,0.106 0.609,0.162 0.562,-0.213 1.307,-0.31 2.176,-0.261 2.507,0.139 3.753,0.692 3.704,1.642 -0.021,0.398 -0.277,0.706 -0.673,0.937 21.192,11.125 42.453,16.336 66.702,16.336 43.345,0 84.601,-18.715 113.189,-51.345 0.838,-0.956 1.751,-1.863 2.694,-2.741 -0.883,0.475 -2.288,0.386 -3.497,-0.944 -0.665,-0.731 -0.841,-1.678 -0.471,-2.534 0.371,-0.86 1.226,-1.448 2.126,-1.463 0.197,-0.004 0.455,0.026 0.736,0.119 1.957,-2.46 6.548,-9.797 8.435,-12.958 -0.075,-0.184 -0.149,-0.363 -0.227,-0.555 -0.919,-0.127 -1.097,-0.687 -0.5,-1.25 -0.601,-1.521 -1.261,-3.26 -1.962,-5.196 -1.46,2.461 -4.799,8.5 -6.465,10.868 0.478,1.041 0.469,2.038 -0.037,2.747 -0.449,0.628 -1.212,0.941 -2.042,0.839 -1.127,-0.139 -2.11,-1.006 -2.628,-2.321 -0.968,-2.457 -0.258,-3.791 0.643,-4.187 0.477,-0.209 1.066,-0.193 1.683,0.111 1.719,-2.511 5.685,-8.651 7.424,-11.328 -0.865,-0.379 -1.216,-0.985 -0.286,-1.645 -0.862,-2.582 -1.759,-5.421 -2.664,-8.51 -1.772,2.944 -5.079,8.737 -6.88,10.956 0.286,1.523 -0.563,2.864 -1.669,3.323 -0.914,0.378 -2.248,0.208 -3.004,-1.518 -0.573,-1.31 -0.434,-2.829 0.354,-3.869 0.506,-0.669 1.199,-0.997 1.901,-0.9 0.132,0.018 0.277,0.059 0.428,0.119 2.286,-3.043 6.168,-8.243 7.846,-11.46 -0.919,-0.511 -1.752,-1.26 -0.453,-1.9 -0.696,-2.583 -1.388,-5.312 -2.064,-8.177 -1.773,2.78 -4.772,6.736 -7.11,8.643 0.092,0.827 -0.078,1.609 -0.515,2.194 -0.442,0.592 -1.079,0.882 -1.748,0.794 -0.524,-0.069 -1.509,-0.448 -2.216,-2.215 -0.899,-2.249 -0.217,-3.733 0.798,-4.162 0.512,-0.216 1.157,-0.176 1.785,0.195 2.951,-2.938 6.438,-7.928 7.879,-10.435 -0.012,-0.054 -0.024,-0.106 -0.036,-0.161 -0.475,-0.476 -0.528,-1.048 -0.314,-1.493 -0.301,-1.437 -0.599,-2.894 -0.888,-4.39 -0.248,-1.286 -0.492,-2.619 -0.733,-3.973 -1.818,2.366 -5.509,5.986 -7.55,7.937 0.252,1.771 -0.529,2.98 -1.561,3.305 -1.012,0.319 -2.321,-0.22 -2.962,-2.142 -0.517,-1.552 -0.268,-3.309 0.605,-4.271 0.454,-0.5 1.041,-0.713 1.611,-0.583 0.255,0.058 0.552,0.203 0.856,0.489 2.155,-2.019 6.446,-7.475 8.092,-9.691 -1.213,-1.026 -1.579,-2.453 -0.349,-2.711 -0.36,-2.397 -0.703,-4.875 -1.023,-7.438 -2.183,2.389 -5.922,4.982 -8.012,6.275 0.146,1.087 -0.047,1.98 -0.572,2.515 -0.372,0.378 -0.873,0.522 -1.376,0.392 -0.813,-0.21 -1.489,-1.084 -1.854,-2.398 -0.581,-2.094 0.105,-3.464 1.084,-3.736 0.379,-0.105 0.805,-0.033 1.21,0.229 2.556,-2.344 7.084,-6.444 8.94,-8.262 -0.101,-0.982 -0.155,-1.499 -0.16,-1.55 -0.304,-2.957 -0.576,-6.002 -0.806,-9.147 -2.199,2.013 -5.636,5.076 -7.852,6.192 -0.141,1.347 -0.923,2.204 -1.798,2.375 -0.94,0.184 -2.196,-0.392 -2.641,-2.62 -0.302,-1.506 -0.003,-2.824 0.799,-3.524 0.5,-0.437 1.132,-0.568 1.735,-0.36 0.21,0.073 0.407,0.187 0.591,0.334 2.485,-1.705 6.863,-4.881 8.891,-6.534 -0.016,-0.277 -0.034,-0.553 -0.05,-0.831 -0.347,-0.713 -0.444,-1.395 -0.089,-1.737 -0.102,-1.969 -0.191,-3.963 -0.258,-5.996 -2.99,1.159 -7.08,2.37 -9.071,2.985 -0.148,1.564 -0.956,2.273 -1.724,2.381 -0.944,0.134 -2.119,-0.584 -2.474,-2.472 -0.244,-1.3 0.163,-2.595 1.037,-3.3 0.558,-0.45 1.209,-0.569 1.784,-0.327 0.178,0.075 0.37,0.2 0.554,0.386 3.116,-1.693 7.444,-3.175 9.781,-3.969 -0.063,-3.159 -0.083,-6.384 -0.05,-9.683 -3.004,1.102 -7.151,2.104 -9.511,2.544 -0.161,0.723 -0.513,1.337 -1.031,1.73 -0.565,0.429 -1.23,0.526 -1.826,0.265 -0.475,-0.208 -1.299,-0.837 -1.477,-2.709 -0.235,-2.474 0.817,-3.739 1.895,-3.867 0.619,-0.074 1.291,0.234 1.796,0.994 3.451,-1.278 7.907,-2.341 10.222,-3.146 0.014,-0.608 0.034,-1.223 0.051,-1.835 -0.082,-0.404 -0.074,-0.767 0.029,-1.044 0.08,-2.556 0.194,-5.153 0.339,-7.784 -2.9,0.849 -7.764,2.228 -10.352,2.377 -0.236,0.636 -0.645,1.152 -1.179,1.448 -0.567,0.314 -1.177,0.317 -1.674,0.006 -0.392,-0.244 -1.035,-0.909 -0.945,-2.611 0.118,-2.244 1.208,-3.392 2.223,-3.365 0.473,0.012 0.959,0.283 1.309,0.889 3.309,-0.86 8.559,-2.063 10.871,-2.887 0.025,-0.366 0.05,-0.731 0.076,-1.098 -0.22,-0.832 -0.181,-1.52 0.121,-1.757 0.192,-2.534 0.425,-5.107 0.682,-7.703 -3.376,0.629 -6.861,0.845 -9.246,0.812 -0.308,0.734 -0.785,1.314 -1.374,1.607 -0.585,0.291 -1.204,0.264 -1.699,-0.076 -0.442,-0.303 -1.153,-1.135 -0.948,-3.291 0.236,-2.474 1.48,-3.521 2.535,-3.447 0.555,0.039 1.147,0.41 1.512,1.228 3.045,-0.437 8.357,-0.855 9.677,-1.16 0.041,-0.368 0.08,-0.735 0.123,-1.105 -0.273,-1.039 -0.209,-2.027 0.283,-2.383 0.511,-4.174 1.108,-8.421 1.801,-12.737 -3.11,0.068 -6.45,0.507 -8.365,0.644 -0.673,1.468 -1.946,2.02 -3.014,1.768 -1.081,-0.256 -2.047,-1.423 -1.611,-3.383 0.336,-1.514 1.441,-2.836 2.689,-3.217 0.699,-0.214 1.363,-0.087 1.82,0.347 0.2,0.19 0.392,0.48 0.516,0.898 2.247,0.068 5.994,-0.115 8.493,-0.233 0.582,-3.423 1.224,-6.889 1.93,-10.395 -3.235,-0.162 -8.167,-0.635 -9.884,-1.06 -0.334,0.606 -0.805,1.04 -1.361,1.225 -0.632,0.211 -1.3,0.069 -1.786,-0.381 -0.728,-0.674 -0.941,-1.881 -0.583,-3.311 0.564,-2.254 1.813,-3.048 2.8,-2.835 0.623,0.134 1.172,0.689 1.398,1.667 2.378,0.535 7.16,1.676 9.944,2.087 0.282,-1.348 0.58,-2.707 0.881,-4.066 -0.054,-1.079 0.062,-1.852 0.417,-1.861 0.03,-0.091 0.071,-0.217 0.121,-0.365 -0.172,-0.047 -0.354,-0.101 -0.563,-0.17 -1.961,-0.654 -4.571,-1.772 -6.239,-2.56 -0.757,0.37 -1.622,0.395 -2.439,0.044 -0.902,-0.389 -1.493,-1.135 -1.503,-1.902 -0.005,-0.386 0.14,-1.102 1.162,-1.574 0.587,-0.271 1.195,-0.425 1.773,-0.486 -28.34,-28.007 -65.871,-43.429 -105.729,-43.429 -36.816,0 -72.237,13.437 -99.754,37.835 0.725,0.192 0.919,0.646 0.966,0.903"
           style="fill:#ffffff;fill-opacity:1;fill-rule:nonzero;stroke:none"
           id="path30"
           inkscape:connector-curvature="0" /><path
           d="m 420.065,496.726 c 0.689,-0.624 1.384,-1.24 2.073,-1.842 2.497,-2.182 4.855,-4.243 6.561,-6.683 0.424,-0.607 0.793,-1.254 1.139,-1.922 l -0.415,-0.573 c 0,0 -0.051,-0.102 -1.078,-2.311 -2.095,3.391 -6.263,8.806 -8.152,11.22 0.336,0.893 0.201,1.613 -0.128,2.111"
           style="fill:#ffffff;fill-opacity:1;fill-rule:nonzero;stroke:none"
           id="path32"
           inkscape:connector-curvature="0" /></g></g></g></svg>