<?xml version="1.0" encoding="UTF-8" standalone="no"?>
<!-- Created with Inkscape (http://www.inkscape.org/) -->

<svg
   xmlns:dc="http://purl.org/dc/elements/1.1/"
   xmlns:cc="http://creativecommons.org/ns#"
   xmlns:rdf="http://www.w3.org/1999/02/22-rdf-syntax-ns#"
   xmlns:svg="http://www.w3.org/2000/svg"
   xmlns="http://www.w3.org/2000/svg"
   xmlns:sodipodi="http://sodipodi.sourceforge.net/DTD/sodipodi-0.dtd"
   xmlns:inkscape="http://www.inkscape.org/namespaces/inkscape"
   id="svg2"
   version="1.1"
   inkscape:version="0.48.4 r9939"
   width="557.59021"
   height="389.48999"
    viewBox = "0 0 557 389"
   xml:space="preserve"
   sodipodi:docname="Baseball (4).pdf"><metadata
     id="metadata8"><rdf:RDF><cc:Work
         rdf:about=""><dc:format>image/svg+xml</dc:format><dc:type
           rdf:resource="http://purl.org/dc/dcmitype/StillImage" /><dc:title></dc:title></cc:Work></rdf:RDF></metadata><defs
     id="defs6"><clipPath
       clipPathUnits="userSpaceOnUse"
       id="clipPath16"><path
         d="M 0,792 612,792 612,0 0,0 0,792 z"
         id="path18"
         inkscape:connector-curvature="0" /></clipPath></defs><sodipodi:namedview
     pagecolor="#ffffff"
     bordercolor="#666666"
     borderopacity="1"
     objecttolerance="10"
     gridtolerance="10"
     guidetolerance="10"
     inkscape:pageopacity="0"
     inkscape:pageshadow="2"
     inkscape:window-width="640"
     inkscape:window-height="480"
     id="namedview4"
     showgrid="false"
     fit-margin-top="0"
     fit-margin-left="0"
     fit-margin-right="0"
     fit-margin-bottom="0"
     inkscape:zoom="0.23838384"
     inkscape:cx="273.71875"
     inkscape:cy="210.57682"
     inkscape:window-x="0"
     inkscape:window-y="0"
     inkscape:window-maximized="0"
     inkscape:current-layer="g10" /><g
     id="g10"
     inkscape:groupmode="layer"
     inkscape:label="Baseball (4)"
     transform="matrix(1.25,0,0,-1.25,-108.78125,673.91317)"><g
       id="g12"><g
         id="g14"
         clip-path="url(#clipPath16)"><path
           d="m 439,532 c 16.4,-6 30.4,-17.9 44.4,-29.5 4.3,-2.2 11.1,-1.4 12.5,-7.6 0.8,-1.5 0.9,-3.4 1.3,-5.1 l 3.4,-5.1 c 3,-1 6.2,-1.4 9,-2.7 1.3,-1.4 3.2,-1.7 4.2,-3.4 0.9,-4 1.6,-8.1 2.1,-12.2 7,-11.7 10,-25 12.8,-38.3 4.7,-15.9 5,-34.4 3.8,-52 0,-4.6 -1.1,-9.1 -0.8,-13.8 -0.6,-1.9 0.4,-4.8 -2.1,-5.6 1.2,-1.6 2.5,-3.7 1.7,-5.6 -2.7,-4.3 -3.1,-9.5 -4.7,-14.2 -3.2,-8.8 -7.1,-17.4 -14.3,-24.6 -0.5,-0.8 0.6,-1.3 0.4,-2.2 -0.4,-4.1 -1,-8.4 -2.3,-12.3 -2.5,-3.4 -6.6,-4.4 -10.1,-6.4 -2.1,-1.4 -1.6,-4 -2.7,-5.9 -0.9,-2.5 -2.5,-5.3 -4.9,-6.7 -3.6,-1.2 -7.3,-2 -11.2,-2.5 -8.3,-10.4 -19.1,-19.4 -29.9,-26.3 -15.8,-8.9 -32.6,-15.5 -50.4,-19.8 -11.4,-1.3 -22.8,-3.4 -34.9,-2.4 -12.7,0.3 -24.8,2 -36.7,4.2 -13.6,0.6 -25.2,6.3 -38.9,6.5 -5,-0.5 -10.3,-5 -15.1,-1.3 -11.2,7.1 -21.4,-3.5 -33,-3 -4.3,-0.6 -8.9,-0.6 -13.2,0 -8,-0.5 -16.3,-1.2 -24.4,-0.4 -0.6,0.3 -0.5,1 -0.3,1.5 3.7,1.6 7.9,2 11.7,3.3 4.7,1.3 9.8,1.4 14.7,2.3 1,0.6 -0.3,1.5 -0.4,2.3 -0.2,1.4 -0.1,2.9 0.7,4.1 l 1.5,0.7 c 5.5,0.1 11.5,-1.5 16.5,0.5 -1.3,0.9 -3.3,1 -5.1,1.3 -7.4,-0.7 -14.8,3.2 -21.5,-0.3 -3.7,-2.8 -8.9,-0.8 -13,-0.2 -6.9,0.4 -13,-2.3 -19.9,-1 -6.6,2.6 -14.6,2.2 -21.9,2.2 -9.1,-1.7 -19.2,-0.9 -28.6,-0.5 -0.8,0.2 -1.2,1.2 -0.8,1.9 2.2,1.5 5.3,1.6 8.2,1.8 6.5,0.1 12.8,0.7 18.8,2 7.2,0.7 14.6,0.9 21.6,2.1 4.1,0.2 8.6,1.3 12.6,0 5.4,0.2 10.8,0.4 15.4,2.3 -0.4,1.1 -2,1.1 -3.1,1.6 -0.7,0 -1.5,0.4 -1.8,1.2 -0.1,1.3 0,2.6 0.9,3.6 2.7,2.1 6.6,2.3 10,1.8 1,-0.9 2,0.2 3.2,-0.2 4.8,-0.6 9.2,0.8 14,0.9 5.4,2.8 13.2,0.2 17,6.3 -0.1,1.2 0.5,3.2 -0.9,3.9 -3.4,1.6 -7.2,1.4 -11.1,1.4 -1.9,-1.1 -3.9,-2.2 -6.3,-2.3 -5.1,-1.5 -8.3,2.2 -13,2 -6.1,0.6 -11.5,-1.2 -17.3,-1.7 -5.6,-0.7 -11.6,-0.5 -16.9,-2.1 -6,-0.8 -11.2,2.1 -17.1,0.8 -0.8,0.1 -1.2,1.2 -0.6,1.8 6.8,3.8 14.9,4.5 22.3,6.9 7.1,0.6 14.5,-0.1 21.7,0.6 3.9,-0.1 7.7,0.6 11.3,1.6 -3.4,2.6 -8.7,1.7 -12.9,3.1 -1.3,0.6 -3,0.7 -3.8,1.8 0.1,1 1,1.7 1.9,1.9 5.1,1.2 10.4,1.6 15.6,2.4 3.8,-1.5 8.7,0.1 12.6,-1.4 2.5,0.3 5.4,1.8 6.1,4.5 -1.8,2.2 -4.5,3.2 -7,4.1 -1.2,-0.2 -2,-1.4 -3.2,-1.8 -4.2,-0.9 -10.3,-2.7 -13.8,1.1 -7,-0.3 -15.4,1.5 -21.2,-2.4 -4,-1.9 -8.6,-2.3 -13.1,-2.9 -1.8,-1.8 -3.8,0.3 -5.5,1.1 -2.4,2.2 -4.7,5.1 -8.2,4.8 -1.8,-0.1 -3.4,-0.6 -4.9,-1.4 -3,-4.7 -7.9,-5.8 -12.8,-6.5 -6.4,2.9 -13.5,4.1 -19.7,7.4 l -2.6,2.2 c -6,1.1 -12.6,1 -18.3,2.9 -0.9,0.5 -1.4,1.5 -1.2,2.5 2,2.4 5.6,1.3 8.4,1.9 8.5,-0.2 16.2,2.1 24.6,2.4 4.9,0.3 9.7,0.7 14.2,1.9 6.9,-1.1 15.5,2.6 20.6,-3.1 4.7,-0.7 10,-0.5 14.2,1.2 1.3,1.3 1.9,3.5 3.8,4.3 1.4,1 2.9,2.6 4.7,1.5 8.4,-1.3 14.5,-8.3 22.9,-9.4 6.9,-0.1 12.9,2.2 19.2,3.6 3.3,1.7 7.2,-0.3 10.7,0.8 1.1,1.2 0.3,3.2 1.2,4.5 0.7,1 1.6,0.2 2.4,0.1 2.6,1 5.6,2 7.1,4.8 -0.6,3.9 -4.9,5.8 -7.9,7.3 -2.7,0.9 -6,1.5 -8.4,-0.3 -2.2,-1 -1.1,-3.8 -3.3,-4.6 -5.2,-1.3 -8.4,3.1 -13.3,3.1 -3.3,-4.8 -10,-4.3 -15,-3.2 -3.1,0.1 -4.2,3.5 -6.8,4.8 -3.4,2.8 -7.9,3.5 -10.5,7.5 -7.3,2.4 -15.3,3 -23,4.5 -0.7,0.3 -0.8,1.2 -0.4,1.7 l 0.7,0.4 c 6.4,1.1 13.1,1.3 19.6,2.2 7.3,-0.5 14.3,1.2 20.4,4.6 3,0.5 5.7,-0.3 8,-1.8 2.1,-2.2 5.4,-0.3 8,-1.2 3.5,-0.9 6.9,-2.4 10.8,-2 1.2,1.8 0.5,4.3 1.5,6.2 -0.7,1.8 -2.6,2.7 -4.3,3.2 -1.6,0.2 -2.3,-1.2 -3.5,-1.9 -5.1,0.8 -10.1,-1.9 -14.4,0.7 -1.7,1.9 -4.6,1.4 -6.8,0.8 -1.5,-0.7 -2.9,-1.4 -4.2,-2.5 -8.3,-0.6 -14.8,3 -23.1,2.4 l -7.5,-0.6 c -8.8,0.6 -17.7,-0.9 -26.1,0.9 l -7.6,2.1 c -0.5,0.4 -1,1 -0.6,1.7 1.2,1.4 3.4,-0.3 4.8,1 6.5,1.1 13.5,0.6 20.2,1.8 6,0.8 11.8,1.4 18,0.8 5.9,-0.5 10.9,1.1 15.6,3.2 l 8.3,-1.6 c 1.3,1.2 3.1,1.7 4.1,3 -3.6,2.7 -8.4,2.8 -11.6,6.6 -9.5,-0.2 -17.3,3.9 -26.7,3.9 -0.6,0.2 -1.2,0.6 -1.4,1.2 -0.3,0.8 0.4,1.4 0.9,1.6 7.1,0.6 14,1.7 20.8,3 8,2.2 17.4,0.2 25.8,1.2 3.1,0.8 5.6,3.5 8.2,5.6 1.8,2 -1.8,5.6 2,6.7 1,0.2 2.3,0.9 2.5,2.1 -2.6,1.4 -5.8,2.4 -9,1.4 -2,0.9 -5.4,1.5 -5.3,4.5 -0.5,1.7 3.8,3.3 0.4,4.3 -6,0.4 -12.6,0.5 -18.7,0.8 -3.6,-5.4 -9.3,-8.1 -15.6,-7.5 -7.6,0.7 -14.2,4.3 -22.1,3.8 -0.5,0.2 -1.1,0 -1.4,0.6 -0.4,0.4 -0.4,1.2 0,1.6 3.8,1.8 8.4,2 12.9,1.6 6.6,-1.4 15.3,-1.7 19.3,4.5 1.5,1.7 4.1,0.2 6.2,0.8 3.9,0.7 6,5.4 10.5,4.7 4.9,0.6 9.9,-1.9 14.2,0.5 1.8,1.5 4,2.2 5.7,3.8 l 0,0.4 c -2,1.5 -4.4,2.3 -6.7,3.5 -3.6,0.1 -7.6,1.2 -11.1,0 -2.3,-0.5 -4.9,-1.7 -7.1,-0.4 -1.3,0.8 -1.5,2.4 -2.5,3.2 -11.9,0.2 -22.6,-1.8 -34.4,-1 l -12.3,0.9 c -0.7,0.5 -1.6,1.3 -1.1,2.3 l 0.8,0.6 c 11.9,-2.1 21.3,3.8 30.6,8.9 0.5,0.4 1.5,1 1.4,1.7 l -0.5,0.2 c -11.6,-0.9 -23.7,0.3 -34.9,-1 -0.7,0.4 -0.8,1.2 -0.4,1.7 1.6,0.8 3.4,0.9 5.2,1.3 7.1,1.9 14,7 22.2,4 5.7,3.6 14.3,0.2 19.8,4.3 6.2,3 13,4.6 20.5,4.7 2.9,3.1 6.4,4.8 10.3,5.5 -0.2,0.9 -1.4,0.7 -2.2,1.1 -3.2,0.6 -6.8,0.1 -9.8,1.3 -0.8,0.4 -1.3,1.3 -0.7,2 0.8,1 2.4,0.2 3.5,0.8 2.7,1 6,1.5 7.9,4.3 -1.8,2.3 -5,2.4 -7.7,3 -2.8,0.6 -5.2,-0.5 -7.4,-1.7 -1.5,-2.1 -3,-4.3 -5.1,-5.9 -6,0.7 -12.3,2.1 -18.5,0.9 -10.1,-2.2 -20.2,-4.5 -30.7,-5.7 -1.4,-0.1 -2.6,0.5 -3.3,1.6 -0.4,0.7 0,1.5 0.7,1.8 7.1,1.2 14.8,1.2 21.2,4.2 4.1,1.7 7.2,5.3 10.6,8.6 3.2,0.9 7.1,0.1 9.6,2.5 -0.8,2.4 -3.9,1.5 -5.9,1.8 -1.2,0.1 -3,-0.6 -3.7,0.6 -0.1,2.4 2.7,1.3 3.9,2.1 4,1.1 7.5,3.3 12.2,3 9.4,0 19.1,-1 27.3,2.3 9,0.8 18.4,0.3 25.8,4.8 l 0,0.3 c -2.1,0.5 -4.5,0 -6.2,1.3 -7.6,-0.2 -13.8,3 -21.5,2.3 -3.5,-0.2 -6.8,-1.1 -10.1,-1.8 -0.6,0 -1.2,0.4 -1.3,1 -0.1,0.6 0.6,1.1 1.1,1.3 11.9,3.1 23.4,7.3 36.8,7 19,-1.1 35.5,3.7 51.4,10.2 11.1,4.4 22.6,8 34.4,10.9 8.5,2.2 17.7,2.6 26.5,4.1 17.2,1.8 34.7,0.1 50.7,-3.2 L 439,532 z"
           style="fill:#231f20;fill-opacity:1;fill-rule:nonzero;stroke:none"
           id="path20"
           inkscape:connector-curvature="0" /><path
           d="m 435.1,524.8 c 11.2,-4.2 21.4,-11 30.9,-19.4 4.9,-3.3 9.7,-6.8 14.1,-11.1 2,-0.3 4,1.2 6,0.1 2.8,-1.5 3.9,-4.7 6.1,-7 -1.8,-2.1 0.6,-4 1.2,-5.9 0.4,-4 4.6,-6.2 5.9,-9.9 0.2,-1.3 -0.9,-2.1 -1.4,-3.1 -0.3,-1.4 -0.7,-2.8 -1.4,-4 l -0.4,0 c -1,4.9 -3,10.5 -8.2,12.7 -1.3,-0.5 -3,-0.5 -3.6,-2.1 -0.7,-2.3 0.8,-3.9 2.4,-5.3 1.6,-4.4 3.4,-8.9 2.6,-14.2 0.6,-0.8 0.4,-1.8 0.1,-2.7 -2.4,-1.1 -2.5,-3.8 -4.8,-5.4 l -4.4,-4.2 c -1.2,1.4 0.2,3.4 -0.3,5.1 -0.9,4.4 -0.3,9.5 -2.4,13.4 -2,0.4 -2.4,3.5 -4.9,2.7 -1.8,-1.1 -3.2,-3.3 -2.7,-5.4 2,-1.8 1.4,-4.7 2.1,-7 0,-5.2 0.7,-10.5 -0.6,-15.5 -3.7,-4.4 -8.9,-6.4 -13.3,-9.6 l -0.4,0.4 c 3,5.8 3.5,12.7 4.7,19.3 -1,2.7 1.3,6.1 -1.9,7.6 -2.9,0.6 -4.7,-2.3 -6.5,-4.2 -1.6,-2.5 2.2,-4.1 0.5,-6.5 -1.2,-6.8 -3.5,-13.2 -6.1,-19.5 -1.2,-3.4 -5.1,-3.3 -7.9,-4.4 -4,-0.1 -7,-2.6 -10.8,-3 -0.7,-0.2 -1.3,-0.6 -2.1,-0.6 0.9,3.3 3.2,6.4 5.7,9.1 2.6,-0.5 4.5,1.8 6.9,2.2 2.1,0.9 4.4,1.7 5.9,3.5 0,0.6 -0.3,1.3 -1,1.4 -2.9,-1 -5.6,-2.4 -8.6,-3.1 0.5,1 1.9,1.6 1.3,3 1.4,1.4 2.7,3 2.8,5 -0.8,2.3 -3.3,2.2 -5.2,2.8 -1.4,-0.7 -3.1,-1 -3.8,-2.7 0.5,-2.9 -3,-3.9 -4.1,-6.2 -1.8,-1.8 -2.4,-5.1 -5.3,-5.3 -3.7,0 -7.4,0.2 -11,-0.3 0.6,1.3 2.1,1.8 3.2,2.7 1.2,-0.1 2.1,1 2.5,1.9 0.3,1.4 0.6,3.3 -0.2,4.5 -0.7,1.9 -3.1,1.8 -4.7,1.4 -1,-0.4 -1.9,-1.5 -2.7,-2.1 -3,-0.9 -5.1,-3.9 -7.8,-5.2 -1.2,-0.9 -1.5,-2.4 -2.9,-2.9 -4.6,0.4 -9,1.4 -13.2,2.9 1.4,0.9 2.5,3.8 4.4,2.9 1.5,0.9 2.5,2.6 2.9,4.3 0,2.2 -2.5,1.9 -3.6,3.4 -2.5,-0.5 -5.3,-0.8 -7,-2.9 l 0,-1 c -1.8,-1.9 -4.3,-2.8 -6,-5 -3.2,0.7 -6.3,2.3 -9,4.2 0.8,1.4 2.4,-0.2 3.6,0.3 1,0.8 2.7,0.4 2.9,2 0.1,1.9 0.1,3.8 -1.3,5.1 -2,1.5 -4.5,2.3 -7.1,1.6 -1.1,-0.4 -0.8,-1.6 -1.1,-2.5 -5.1,-2.1 -9.9,-4.9 -14.1,-9 -1.5,-1.1 -3.3,-0.6 -4.7,0.1 -1.5,1.1 -3.8,2.2 -3.7,4.4 3,1.9 6.7,2.9 10.7,2.4 0.7,-0.6 1.6,-0.9 2.5,-0.7 1.4,0.5 2.4,2 3,3.2 -0.1,2.4 -0.9,4.8 -0.7,7.4 -0.5,1 0.4,3.1 -1.2,3.6 -2.1,-1.2 -6.5,1.5 -6.4,-2.1 0.5,-1 1.9,-0.7 1.8,-1.9 -3.8,-1.2 -6.4,-5.3 -10.4,-6.1 -0.8,1 -1.8,2 -3.2,1.4 -0.3,-0.1 -0.8,-0.5 -1.2,-0.2 l 0,0.3 c 3.5,3.3 6.9,6.7 11,8.7 0.6,0.6 1.3,1.4 0.8,2.4 -1.2,1.7 -3.3,1.2 -4.9,1.8 2.6,2.2 6.3,2.6 8.5,5.7 -0.8,2.1 2.4,0.9 1.4,2.8 l -1,0.7 -15.5,3.6 c -1,0.4 -0.3,1.2 0,1.7 1.1,1.8 3.9,3.1 3,5.6 -0.9,1.6 -2.5,2 -4,2.4 l 0.5,0.5 c 9.4,2.6 19.5,3.4 27.2,10 2.4,2.9 5.6,5.5 8.1,8 0.1,0.7 -0.5,1.4 -1.1,1.6 -13.4,-2.8 -23.9,-12.9 -38.8,-12.3 -7.2,0.7 -14,-1 -20.5,-2.3 4.8,3.6 10.8,5.5 16.5,7.5 3.4,1.3 4.2,6 8,6.6 1.2,1 4.4,0.6 3.6,3 l -1,0.6 c -9.9,-2.4 -20.6,-2.8 -30.2,-6.1 -8.3,-3.7 -17.2,-6.9 -27.1,-5.6 -3.9,0.9 -8.3,1 -11.2,3.6 5.5,0.6 11.1,0.6 16.1,2.1 12.1,2.9 22.7,9.5 35.3,11.1 6.7,1.6 13.9,0.9 21,1.6 5.1,0.3 9.7,1.8 14.9,1.9 0.6,0.1 1.2,0.4 1.5,1 0.3,0.8 -0.4,1.2 -0.9,1.5 -3.6,-0.4 -7.5,-0.6 -11.2,-0.3 -1.9,2.8 -5.5,1 -8.2,1.5 6.4,2.4 12.8,5.2 20,5.9 4,0.7 7.7,2 12,2.2 0.7,0.6 1.7,0.7 2.7,0.8 2.2,-1.7 5.4,-0.1 8.2,-0.5 19.7,0 38.3,-2.7 55.2,-9.6 6.9,-3.2 12.7,-8.8 18.7,-14.2 1.8,0.4 2.7,-1.2 4.4,-1 2.4,-3.5 6.2,-3.4 9.4,-4.9 3.6,-1.9 6.8,-4.9 9,-8.4 l 2.3,-2.5 c 0.1,-1.7 -2,-4.1 0.5,-5.1 4,0.4 3.9,6 7.9,6.4 0.9,1 2.4,1.9 1.8,3.3 -0.4,0.9 -1.5,0.9 -2.2,0.5 l -1.4,-0.8 c -5.6,6 -12.5,9.8 -19,14 -2.8,1.8 -6,2.8 -9.3,3.5 -9.2,8.6 -19.1,15.3 -30.3,18.8 -15.1,4.4 -32.7,6.4 -49.2,3.9 l -11.5,-1.2 c -0.9,-0.9 -2.1,-0.5 -3.1,-0.3 -3.6,-0.6 -6.8,-3 -10.7,-2.6 -1.4,-0.8 -3.2,-1.3 -4.9,-1.1 -2.1,-0.5 -3.7,-2.1 -6,-1.7 -4.7,-1.3 -9,-4.1 -13.7,-5.2 2.9,1.8 6.5,3 9.6,4.6 15.1,8.6 33,10.1 50.8,12.2 16,0.7 32.4,0.2 45.6,-7"
           style="fill:#ffffff;fill-opacity:1;fill-rule:nonzero;stroke:none"
           id="path22"
           inkscape:connector-curvature="0" /><path
           d="m 328.6,496.1 -0.8,-0.6 c 0.1,1 -1.8,2.8 0.2,2.9 l 1.1,0.1 c 0.4,-0.8 0.4,-1.7 -0.5,-2.4"
           style="fill:#ffffff;fill-opacity:1;fill-rule:nonzero;stroke:none"
           id="path24"
           inkscape:connector-curvature="0" /><path
           d="m 330.2,498.3 -0.3,-0.5 -0.3,0.7 c 0.2,0.1 0.4,0 0.6,-0.2"
           style="fill:#ffffff;fill-opacity:1;fill-rule:nonzero;stroke:none"
           id="path26"
           inkscape:connector-curvature="0" /><path
           d="m 326.6,497.9 c -0.1,-1.2 1.7,-2.9 -0.1,-3.6 -0.3,0.3 -0.6,-0.1 -0.9,-0.2 -0.5,1 -0.8,2.4 -1.2,3.6 0.7,0.1 1.4,0.3 2.2,0.2"
           style="fill:#ffffff;fill-opacity:1;fill-rule:nonzero;stroke:none"
           id="path28"
           inkscape:connector-curvature="0" /><path
           d="m 323.9,497.6 c 0.5,-1.2 0.6,-2.5 1,-3.6 l -1.9,-0.9 -1.2,4.2 c 0.8,0 1.4,0.2 2.1,0.3"
           style="fill:#ffffff;fill-opacity:1;fill-rule:nonzero;stroke:none"
           id="path30"
           inkscape:connector-curvature="0" /><path
           d="m 322.5,493 c -1.1,-0.4 -0.8,-0.2 -1.9,-0.6 l -1.3,4.3 c 0.7,0.3 1.3,0.4 2,0.4 l 1.2,-4.1 z"
           style="fill:#ffffff;fill-opacity:1;fill-rule:nonzero;stroke:none"
           id="path32"
           inkscape:connector-curvature="0" /><path
           d="m 320,492.2 -1.9,-0.9 -1.5,4.9 c 3.5,2.5 2.3,-2.7 3.4,-4"
           style="fill:#ffffff;fill-opacity:1;fill-rule:nonzero;stroke:none"
           id="path34"
           inkscape:connector-curvature="0" /><path
           d="m 316.1,496.1 c 0,-2 3.4,-5.7 -0.4,-6 l -1.6,5.5 c 0.9,0 1.1,0.5 2,0.5"
           style="fill:#ffffff;fill-opacity:1;fill-rule:nonzero;stroke:none"
           id="path36"
           inkscape:connector-curvature="0" /><path
           d="m 313.4,489 -1.8,5.9 c 0.8,0.4 1.1,0.2 1.9,0.6 l 1.7,-5.5 -1.8,-1 z"
           style="fill:#ffffff;fill-opacity:1;fill-rule:nonzero;stroke:none"
           id="path38"
           inkscape:connector-curvature="0" /><path
           d="m 364.6,494.4 -0.8,-0.8 c -0.3,0.5 -0.4,1.4 0.6,1.6 0.2,-0.2 0.6,-0.5 0.2,-0.8"
           style="fill:#ffffff;fill-opacity:1;fill-rule:nonzero;stroke:none"
           id="path40"
           inkscape:connector-curvature="0" /><path
           d="m 312.8,488.8 c -1.1,-0.5 -1,-0.7 -1.9,-1 l -1.8,6.4 1.9,0.7 1.8,-6.1 z"
           style="fill:#ffffff;fill-opacity:1;fill-rule:nonzero;stroke:none"
           id="path42"
           inkscape:connector-curvature="0" /><path
           d="m 362.6,492 -1,-0.6 -0.6,2.2 1.9,1 c 0.4,-0.9 0.5,-1.9 -0.3,-2.6"
           style="fill:#ffffff;fill-opacity:1;fill-rule:nonzero;stroke:none"
           id="path44"
           inkscape:connector-curvature="0" /><path
           d="m 308.7,486.2 -2,6.8 c 0.6,0.9 0.8,0.5 1.8,1.1 l 1.9,-6.7 -1.7,-1.2 z"
           style="fill:#ffffff;fill-opacity:1;fill-rule:nonzero;stroke:none"
           id="path46"
           inkscape:connector-curvature="0" /><path
           d="m 361.1,491.1 c -0.5,-0.4 -1,-1.2 -1.8,-1.3 -0.2,1 -0.4,2 -0.7,3 0.9,0.1 1.5,1 2.1,0.3 l 0.4,-2 z"
           style="fill:#ffffff;fill-opacity:1;fill-rule:nonzero;stroke:none"
           id="path48"
           inkscape:connector-curvature="0" /><path
           d="m 306.4,484.5 -2.1,7.3 c 0.6,1.1 1.2,-0.1 1.9,0.7 l 2,-6.7 -1.8,-1.3 z"
           style="fill:#ffffff;fill-opacity:1;fill-rule:nonzero;stroke:none"
           id="path50"
           inkscape:connector-curvature="0" /><path
           d="m 357.2,488.3 -1.1,3.4 c 0.8,0.4 1.1,0.4 1.9,0.8 l 1,-3.1 -1.8,-1.1 z"
           style="fill:#ffffff;fill-opacity:1;fill-rule:nonzero;stroke:none"
           id="path52"
           inkscape:connector-curvature="0" /><path
           d="m 356.6,488.3 c -0.3,-0.5 -1.2,-0.9 -1.8,-1.1 l -1.1,3.4 1.8,0.8 1.1,-3.1 z"
           style="fill:#ffffff;fill-opacity:1;fill-rule:nonzero;stroke:none"
           id="path54"
           inkscape:connector-curvature="0" /><path
           d="m 305.9,484.1 c -0.9,-0.5 -0.9,-0.6 -1.8,-1.3 l -1.9,6.7 1.7,1.8 2,-7.2 z"
           style="fill:#ffffff;fill-opacity:1;fill-rule:nonzero;stroke:none"
           id="path56"
           inkscape:connector-curvature="0" /><path
           d="m 354.2,487 c -0.7,-0.2 -1.8,-1.2 -2.2,-0.2 l -0.7,2.6 1.8,1 1.1,-3.4 z"
           style="fill:#ffffff;fill-opacity:1;fill-rule:nonzero;stroke:none"
           id="path58"
           inkscape:connector-curvature="0" /><path
           d="m 302,480.9 -1.9,6.9 1.7,1.5 1.9,-6.7 -1.7,-1.7 z"
           style="fill:#ffffff;fill-opacity:1;fill-rule:nonzero;stroke:none"
           id="path60"
           inkscape:connector-curvature="0" /><path
           d="m 351.7,486.2 c -0.4,-0.4 -1,-0.7 -1.8,-0.8 l -1,2.8 c 1.9,2 2.4,-0.5 2.8,-2"
           style="fill:#ffffff;fill-opacity:1;fill-rule:nonzero;stroke:none"
           id="path62"
           inkscape:connector-curvature="0" /><path
           d="m 349.3,485.2 c -0.8,-0.3 -1.2,-0.4 -2.1,-0.5 0,1 -1.1,2.2 -0.3,2.8 2.1,1.9 1.6,-1.4 2.4,-2.3"
           style="fill:#ffffff;fill-opacity:1;fill-rule:nonzero;stroke:none"
           id="path64"
           inkscape:connector-curvature="0" /><path
           d="m 301.5,480.6 c -0.1,-0.5 -0.8,-1 -0.3,-1.6 l 1,-0.9 9.7,-34 c -0.6,-0.1 -1.3,-0.2 -2,-0.2 l -12.1,42 c 0.7,0.9 1,0.8 1.8,1.6 l 1.9,-6.9 z"
           style="fill:#ffffff;fill-opacity:1;fill-rule:nonzero;stroke:none"
           id="path66"
           inkscape:connector-curvature="0" /><path
           d="m 346.6,484.7 0.1,-0.1 c -0.6,-0.2 -1.3,-0.5 -2.1,-0.4 l -0.6,2.3 c 0.9,0.3 1.1,0.5 2,0.6 l 0.6,-2.4 z"
           style="fill:#ffffff;fill-opacity:1;fill-rule:nonzero;stroke:none"
           id="path68"
           inkscape:connector-curvature="0" /><path
           d="m 344.1,484 c -1,0.1 -1.1,-0.1 -2,-0.2 -0.3,0.7 -0.5,1.3 -0.6,2.1 0.7,0.3 1.2,0.4 2,0.5 l 0.6,-2.4 z"
           style="fill:#ffffff;fill-opacity:1;fill-rule:nonzero;stroke:none"
           id="path70"
           inkscape:connector-curvature="0" /><path
           d="m 309.3,443.8 c -0.7,0 -2,-0.6 -2.3,0.1 l -11.4,40.1 0.8,1.3 c 0.3,-0.2 0.6,0.4 0.9,0.5 l 12,-42 z"
           style="fill:#ffffff;fill-opacity:1;fill-rule:nonzero;stroke:none"
           id="path72"
           inkscape:connector-curvature="0" /><path
           d="m 341.5,483.6 -2,-0.6 -0.7,2.4 c 0.7,0.1 1.4,0.3 2.1,0.4 0.2,-0.7 0.5,-1.4 0.6,-2.2"
           style="fill:#ffffff;fill-opacity:1;fill-rule:nonzero;stroke:none"
           id="path74"
           inkscape:connector-curvature="0" /><path
           d="m 338.9,483 c -0.4,-0.4 -1.3,-0.3 -1.9,-0.7 l -0.8,2.8 c 0.6,0.3 1.5,0 2.1,0.2 l 0.6,-2.3 z"
           style="fill:#ffffff;fill-opacity:1;fill-rule:nonzero;stroke:none"
           id="path76"
           inkscape:connector-curvature="0" /><path
           d="m 336.4,482.3 c -0.4,-0.4 -1.2,-0.6 -1.9,-0.7 l -1,3.2 c 0.8,0 1.4,0.3 2.2,0.2 l 0.7,-2.7 z"
           style="fill:#ffffff;fill-opacity:1;fill-rule:nonzero;stroke:none"
           id="path78"
           inkscape:connector-curvature="0" /><path
           d="m 326.5,479.2 c -0.9,-0.3 -1.1,-0.3 -2,-0.6 -0.7,1.6 -1.2,4.1 -1.8,6.1 1,-0.2 1.3,0.4 2.2,0 l 1.6,-5.5 z"
           style="fill:#ffffff;fill-opacity:1;fill-rule:nonzero;stroke:none"
           id="path80"
           inkscape:connector-curvature="0" /><path
           d="m 327.9,483.8 c 0.2,-1.3 0.8,-2.5 1,-3.8 -1.1,-0.5 -0.9,-0.3 -2,-0.7 l -1.5,5.5 c 0.8,-0.2 2.7,0.6 2.5,-1"
           style="fill:#ffffff;fill-opacity:1;fill-rule:nonzero;stroke:none"
           id="path82"
           inkscape:connector-curvature="0" /><path
           d="m 331.4,480.6 -1.9,-0.4 -1.4,4.5 c 0.7,0.2 1.5,0.1 2.2,0.1 l 1.1,-4.2 z"
           style="fill:#ffffff;fill-opacity:1;fill-rule:nonzero;stroke:none"
           id="path84"
           inkscape:connector-curvature="0" /><path
           d="m 333.1,484.7 c 0.2,-1.1 0.7,-2.2 0.8,-3.3 l -1.9,-0.5 -1.2,3.9 2.3,-0.1 z"
           style="fill:#ffffff;fill-opacity:1;fill-rule:nonzero;stroke:none"
           id="path86"
           inkscape:connector-curvature="0" /><path
           d="m 323.9,478.4 c -0.8,-0.3 -1.2,-0.3 -1.5,-1.2 0,-0.5 0.4,-1 0.8,-1.2 l 1.3,0.1 9.2,-31.7 c -0.6,-0.9 -0.5,-1.6 -1.8,-1.5 l -11.8,41.2 c 0,0.5 0.8,0.1 1,0.5 l 1,-0.1 1.8,-6.1 z"
           style="fill:#ffffff;fill-opacity:1;fill-rule:nonzero;stroke:none"
           id="path88"
           inkscape:connector-curvature="0" /><path
           d="m 331.4,442.9 c -0.5,-0.4 -1.4,-0.4 -2.1,-0.5 l -11.8,41.5 c 0.7,0.1 1.3,0.3 2.1,0.2 l 11.8,-41.2 z"
           style="fill:#ffffff;fill-opacity:1;fill-rule:nonzero;stroke:none"
           id="path90"
           inkscape:connector-curvature="0" /><path
           d="m 328.7,442.5 c 0,-0.6 -1.3,-0.4 -2,-0.6 l -11.8,41.3 c 0.8,0.3 1.2,0.3 2.1,0.4 l 11.7,-41.1 z"
           style="fill:#ffffff;fill-opacity:1;fill-rule:nonzero;stroke:none"
           id="path92"
           inkscape:connector-curvature="0" /><path
           d="m 306.7,443.5 c -1,-0.1 -1.3,-0.4 -1.7,-1.2 l 0,-0.8 -11.3,39.6 c 0.2,1 1.1,1.5 1.6,2.4 l 11.4,-40 z"
           style="fill:#ffffff;fill-opacity:1;fill-rule:nonzero;stroke:none"
           id="path94"
           inkscape:connector-curvature="0" /><path
           d="m 326.2,441.8 -2.4,0.8 -11.4,39.8 c 0.2,0.6 1.4,0.6 2.1,0.5 l 11.7,-41.1 z"
           style="fill:#ffffff;fill-opacity:1;fill-rule:nonzero;stroke:none"
           id="path96"
           inkscape:connector-curvature="0" /><path
           d="m 320.8,443.6 -10.9,38.1 c 0,0.1 -0.1,0.2 -0.1,0.3 l 2,0.6 11.4,-39.7 -2.4,0.7 z"
           style="fill:#ffffff;fill-opacity:1;fill-rule:nonzero;stroke:none"
           id="path98"
           inkscape:connector-curvature="0" /><path
           d="m 287.2,481.8 c 0,-0.2 -0.4,0 -0.6,-0.1 l 0.3,0.6 0.3,-0.5 z"
           style="fill:#ffffff;fill-opacity:1;fill-rule:nonzero;stroke:none"
           id="path100"
           inkscape:connector-curvature="0" /><path
           d="m 320.2,443.7 c -1,0.1 -1.2,0.3 -2.3,0.2 L 307.4,481 c 0.3,0.5 1.3,0.6 1.9,0.8 l 10.9,-38.1 z"
           style="fill:#ffffff;fill-opacity:1;fill-rule:nonzero;stroke:none"
           id="path102"
           inkscape:connector-curvature="0" /><path
           d="m 286.4,481.6 c -1.8,-2.3 -2.6,-6.7 -6.6,-5.8 -0.9,-1.4 -0.2,-3.5 -0.6,-5.1 -0.8,-1.2 -0.2,-3.3 -1.9,-3.8 -1.6,-0.2 -2.9,-0.7 -4.1,-1.6 -2.1,-3 2,-9.5 -3.5,-10.2 -2.9,0.4 -4.4,-1.8 -6.7,-2.9 -1.3,-3.7 0.2,-7.5 1.1,-10.9 -0.6,-3.1 2,-8.4 -2.3,-9.5 -1,-2.8 -3.6,-3.7 -5.5,-6 -5.5,-2.4 -2,-9.9 -3,-14.9 -1.2,2 -0.1,5 -1.5,7 l 0,11.4 c 0.8,1.3 1.3,3 3.2,3 0.8,0.5 2,0.8 2.2,1.9 1.5,1.2 2.8,2.6 2.8,4.5 -1.6,1.1 0.1,3.6 -1.4,4.8 0.4,1.2 2.3,1.7 2.2,3.2 0.2,2.5 -3,4.7 -0.8,7.3 0.7,1.2 -0.9,1.9 -0.2,3 2.1,1.8 4.5,2.9 7.4,2.8 0.6,1 -0.6,1.9 -1,2.9 -0.1,2 -1,5 0.9,6.6 1.6,0.6 3.6,0.5 4.8,1.9 0.4,2 1.1,3.9 2,5.7 2.8,1.5 5.9,2.8 8.3,4.7 l 4.2,0 z"
           style="fill:#ffffff;fill-opacity:1;fill-rule:nonzero;stroke:none"
           id="path104"
           inkscape:connector-curvature="0" /><path
           d="m 308.3,428.1 c -1.1,0.6 -1.5,1.1 -2.6,1.9 l -13.8,48.4 c 0.3,1.4 0.5,1.3 1.3,2.5 l 15.1,-52.8 z"
           style="fill:#ffffff;fill-opacity:1;fill-rule:nonzero;stroke:none"
           id="path106"
           inkscape:connector-curvature="0" /><path
           d="m 317.3,444.3 0,-0.2 -2.1,0 -10.2,35.7 c 0.5,0.7 1,0.8 1.9,1.1 l 10.4,-36.6 z"
           style="fill:#ffffff;fill-opacity:1;fill-rule:nonzero;stroke:none"
           id="path108"
           inkscape:connector-curvature="0" /><path
           d="m 497.9,480.9 c 2.5,-1.2 3.6,-3.8 4.2,-6.1 l -0.3,-0.4 c -1.2,2.3 -5.3,3.8 -4.2,6.5 l 0.3,0 z"
           style="fill:#ffffff;fill-opacity:1;fill-rule:nonzero;stroke:none"
           id="path110"
           inkscape:connector-curvature="0" /><path
           d="m 312.4,444.2 -9.7,34 c 0.3,0.7 1.2,1.1 1.8,1.6 l 10.2,-35.7 -2.3,0.1 z"
           style="fill:#ffffff;fill-opacity:1;fill-rule:nonzero;stroke:none"
           id="path112"
           inkscape:connector-curvature="0" /><path
           d="m 332.5,477.2 c 0.4,-2.4 1.9,-4.7 1.2,-7.1 -0.2,-1.3 1.1,-2 1.6,-2.9 l 4.7,-16.8 c -0.8,-0.7 -0.7,-0.8 -1.5,-1.4 l -8.2,28 c 0.7,0.3 1.3,0.1 2.2,0.2"
           style="fill:#ffffff;fill-opacity:1;fill-rule:nonzero;stroke:none"
           id="path114"
           inkscape:connector-curvature="0" /><path
           d="m 510.5,470.4 c -1.2,-3.7 -3.7,-6.9 -5.4,-10.4 0.1,-0.4 0.4,-0.7 0.3,-1.2 -2.7,-0.4 -5.5,-1.2 -8.3,-0.7 2.8,4.7 4.4,10 7.9,14.4 0.9,1.4 -0.1,3 -0.1,4.5 0.9,0.6 1.7,-0.5 2.6,-0.7 1.9,-1.6 2.2,-3.8 3,-5.9"
           style="fill:#ffffff;fill-opacity:1;fill-rule:nonzero;stroke:none"
           id="path116"
           inkscape:connector-curvature="0" /><path
           d="m 336.1,474.2 -1.6,-2 -1.4,5 2.1,-0.2 0.9,-2.8 z"
           style="fill:#ffffff;fill-opacity:1;fill-rule:nonzero;stroke:none"
           id="path118"
           inkscape:connector-curvature="0" /><path
           d="m 337.9,448.4 -1.7,-1.6 -8.5,30 c 0.7,0.1 1.3,0.3 2.1,0.2 l 8.1,-28.6 z"
           style="fill:#ffffff;fill-opacity:1;fill-rule:nonzero;stroke:none"
           id="path120"
           inkscape:connector-curvature="0" /><path
           d="m 337.4,476.1 c 0,-0.6 -0.6,-1 -0.9,-1.5 l -0.7,2.3 c 0.5,-0.4 1.4,0 1.6,-0.8"
           style="fill:#ffffff;fill-opacity:1;fill-rule:nonzero;stroke:none"
           id="path122"
           inkscape:connector-curvature="0" /><path
           d="m 335.8,446.5 -1.7,-1.7 -9,31.3 c 0.6,0.6 1.2,0.4 2.1,0.6 l 8.6,-30.2 z"
           style="fill:#ffffff;fill-opacity:1;fill-rule:nonzero;stroke:none"
           id="path124"
           inkscape:connector-curvature="0" /><path
           d="m 302.1,432.8 -11.4,39.7 c 0.6,1.3 1.5,2.4 1.1,4.1 l 13.1,-45.9 -2.8,2.1 z"
           style="fill:#ffffff;fill-opacity:1;fill-rule:nonzero;stroke:none"
           id="path126"
           inkscape:connector-curvature="0" /><path
           d="m 493,465.3 c -0.4,-2.1 2,-4.8 -0.6,-6 -1.2,4.9 -1.6,10.2 -5,14.1 l 0.2,0.3 c 3.9,-1.5 3.9,-5.5 5.4,-8.4"
           style="fill:#ffffff;fill-opacity:1;fill-rule:nonzero;stroke:none"
           id="path128"
           inkscape:connector-curvature="0" /><path
           d="m 301.4,433.4 c -1.4,1.1 -1.4,1 -2.8,2.1 l -9.9,34.7 1.7,1.7 11,-38.5 z"
           style="fill:#ffffff;fill-opacity:1;fill-rule:nonzero;stroke:none"
           id="path130"
           inkscape:connector-curvature="0" /><path
           d="m 297.8,436.3 -2.5,1.8 -9,30.9 c 1.1,0.3 0.9,0.3 1.9,1 l 9.6,-33.6 0,-0.1 z"
           style="fill:#ffffff;fill-opacity:1;fill-rule:nonzero;stroke:none"
           id="path132"
           inkscape:connector-curvature="0" /><path
           d="m 294.4,438.7 c -0.9,0.3 -1.8,0.7 -2.6,1.4 l -7.8,27.4 c 0.3,0.7 1.2,0.9 1.8,1.4 l 8.6,-30.2 z"
           style="fill:#ffffff;fill-opacity:1;fill-rule:nonzero;stroke:none"
           id="path134"
           inkscape:connector-curvature="0" /><path
           d="m 338.2,466.7 2.5,-8.8 -1.6,-2 -3.3,11.3 c 0.8,-0.2 1.6,-0.4 2.4,-0.5"
           style="fill:#ffffff;fill-opacity:1;fill-rule:nonzero;stroke:none"
           id="path136"
           inkscape:connector-curvature="0" /><path
           d="m 291.3,440 c -1,0.5 -1.4,0.4 -2.4,0.9 l -6.5,22.8 c 0.6,1.5 0.6,1.7 1.1,3.3 l 7.8,-27 z"
           style="fill:#ffffff;fill-opacity:1;fill-rule:nonzero;stroke:none"
           id="path138"
           inkscape:connector-curvature="0" /><path
           d="m 342.9,459.7 -1.8,-1.5 -2.4,8.4 2.4,-0.5 1.8,-6.4 z"
           style="fill:#ffffff;fill-opacity:1;fill-rule:nonzero;stroke:none"
           id="path140"
           inkscape:connector-curvature="0" /><path
           d="m 345.3,460.6 -1.9,-0.8 -1.7,6.1 c 3.5,0.9 2.6,-3.5 3.6,-5.3"
           style="fill:#ffffff;fill-opacity:1;fill-rule:nonzero;stroke:none"
           id="path142"
           inkscape:connector-curvature="0" /><path
           d="m 347.7,462.1 -1.8,-1.1 -1.3,4.3 2.4,-0.6 0.7,-2.6 z"
           style="fill:#ffffff;fill-opacity:1;fill-rule:nonzero;stroke:none"
           id="path144"
           inkscape:connector-curvature="0" /><path
           d="m 349.7,464 c -0.2,-0.7 -0.9,-1.3 -1.5,-1.6 l -0.7,2.3 c 0.7,-0.4 1.6,-0.1 2.2,-0.7"
           style="fill:#ffffff;fill-opacity:1;fill-rule:nonzero;stroke:none"
           id="path146"
           inkscape:connector-curvature="0" /><path
           d="m 288.2,441.2 c -1.2,0.5 -1.2,0.4 -2.4,0.9 l -3.7,13 c 0.3,0.6 0.5,1.4 0.2,2 -2,1.1 -0.7,3.2 -0.6,4.7 l 0.4,0.9 c 2,-7.2 4.1,-14.3 6.1,-21.5"
           style="fill:#ffffff;fill-opacity:1;fill-rule:nonzero;stroke:none"
           id="path148"
           inkscape:connector-curvature="0" /><path
           d="m 475.7,458.1 c 1,-6.9 1.8,-14 0.3,-20.9 -0.3,-0.6 -0.9,-1.2 -1.3,-1.7 0.1,7.6 1.4,16.7 -1.1,23.9 1,1.4 1.9,-0.4 2.1,-1.3"
           style="fill:#ffffff;fill-opacity:1;fill-rule:nonzero;stroke:none"
           id="path150"
           inkscape:connector-curvature="0" /><path
           d="m 494,456.2 c 0.1,-2.5 0.5,-5.5 -1.7,-6.9 -0.1,2.5 0.2,5.1 0.6,7.5 0.4,-0.1 0.8,-0.2 1.1,-0.6"
           style="fill:#ffffff;fill-opacity:1;fill-rule:nonzero;stroke:none"
           id="path152"
           inkscape:connector-curvature="0" /><path
           d="m 514.5,454.3 0.6,-1.1 c -2.5,-1.5 -5.2,0.1 -7.7,0.5 -2.8,0.8 -5.9,0.8 -8.9,1.3 l 0,0.3 c 3,0.4 6.4,1.4 9.3,0.2 2.3,0.2 4.7,-0.3 6.7,-1.2"
           style="fill:#ffffff;fill-opacity:1;fill-rule:nonzero;stroke:none"
           id="path154"
           inkscape:connector-curvature="0" /><path
           d="m 285.2,442.4 c -0.9,0.4 -1.3,0.4 -2.3,0.7 l -3,10.1 c 0,0.4 0.9,0.5 0.9,0.9 0.3,-0.2 0.6,0.4 0.9,0.5 l 3.5,-12.2 z"
           style="fill:#ffffff;fill-opacity:1;fill-rule:nonzero;stroke:none"
           id="path156"
           inkscape:connector-curvature="0" /><path
           d="m 341.8,454 0.5,-1.7 -1.8,-1.5 -1,3.6 c 0.6,-0.6 1.5,-0.3 2.3,-0.4"
           style="fill:#ffffff;fill-opacity:1;fill-rule:nonzero;stroke:none"
           id="path158"
           inkscape:connector-curvature="0" /><path
           d="m 344.5,453.9 c -0.5,-0.6 -0.9,-0.8 -1.7,-1.2 l -0.5,1.3 c 0.9,0 1.4,0.1 2.2,-0.1"
           style="fill:#ffffff;fill-opacity:1;fill-rule:nonzero;stroke:none"
           id="path160"
           inkscape:connector-curvature="0" /><path
           d="m 282.2,443.3 c -0.8,0.3 -1.3,0.5 -2.2,0.3 l -2.5,8.4 c 0.5,0.6 0.9,0.6 1.7,1.1 1.2,-3 2,-6.5 3,-9.8"
           style="fill:#ffffff;fill-opacity:1;fill-rule:nonzero;stroke:none"
           id="path162"
           inkscape:connector-curvature="0" /><path
           d="m 279.4,443.5 c -0.4,-0.7 -1.4,-1.4 -1.4,-2.3 l -2.9,9.7 c 0.6,0.5 0.8,1 1.6,1.1 l 0.3,0 2.4,-8.5 z"
           style="fill:#ffffff;fill-opacity:1;fill-rule:nonzero;stroke:none"
           id="path164"
           inkscape:connector-curvature="0" /><path
           d="m 501.1,451.7 c -0.7,-2.5 -2.8,-4.6 -4.6,-6.8 l -6.4,-6.4 c -1.9,0.2 -3.8,1.1 -5.6,1.8 1.2,2.2 3.4,3.9 4.7,6 1.5,-0.6 3.4,-0.6 4.8,0.3 1.4,1.3 2.5,2.9 2.9,4.8 1,1.1 2.8,0.3 4.2,0.3"
           style="fill:#ffffff;fill-opacity:1;fill-rule:nonzero;stroke:none"
           id="path166"
           inkscape:connector-curvature="0" /><path
           d="m 516.4,449.9 c 1,-1.2 1,-2.8 1.8,-4.2 2.6,-3.5 2.1,-8.4 4.3,-12.1 2.6,-12.4 4.8,-25 5.9,-38 0.4,-9.1 -0.5,-17.8 -1.1,-26.7 -0.5,-2.3 0.4,-5.4 -2.5,-6.6 -1.8,-0.3 -3.9,0.3 -5.4,-0.9 -2.7,-1.9 -0.2,-6.4 -4.1,-7.2 -9.3,-5.1 -18,-12 -28,-15.5 -0.7,-0.4 -0.9,-1.1 -0.6,-1.8 0.4,-0.8 1.5,-0.8 2.1,-0.4 7.9,3.6 15.5,7.7 23.3,11.3 2.6,0.6 5.2,1.7 7.8,2.1 -0.3,-1.3 -2,-2 -1.6,-3.4 0.6,-1.5 2.8,-0.2 3.4,-1.4 -1.3,-7.5 -5.2,-13.8 -8.9,-20.2 l -3.9,-5.8 c -0.6,-0.3 -1.1,0.4 -1.7,0.2 -1.3,-2.7 -4.5,-0.5 -6.6,-0.5 -1.1,0.8 -2.4,-0.1 -3.6,0.3 -0.9,0.3 -2.4,-0.4 -3.1,0.5 -1.1,3.9 -0.8,8.8 -5.3,10.9 -2.6,1.4 -4.4,-1.2 -6.6,-1.6 -0.8,-0.6 -1.2,-1.5 -1.3,-2.3 0.1,-1 0.3,-2.2 1.4,-2.5 0.8,-0.3 1.1,0.5 1.8,0.4 0.3,-1.1 1,-2.4 0.6,-3.4 -5.4,1.1 -11.2,1 -16.6,2.4 -3.2,3.9 -8.1,5.7 -10.6,10 -1.3,1.4 -3.5,1 -5,0.4 -0.9,-0.4 -1.8,-1.4 -2.1,-2.3 -0.1,-1.1 -0.4,-2.2 0.2,-3.2 0.5,-1.1 1.7,-0.9 2.5,-0.7 0.5,-1.1 1.6,-2 2.3,-2.8 -5.9,0.2 -11.9,-0.5 -17.6,-0.5 -1.2,-0.3 -2.6,-0.2 -3.5,-1.1 l -0.7,0.2 c -3.3,3.1 -7.1,5.9 -10.3,8.8 -1.1,0.5 -2.5,0.2 -3.4,-0.3 -2.8,-1.3 -1.5,-4.8 -1.7,-7.2 0.4,-0.8 0.9,-1.7 1.8,-1.9 0.8,-0.2 1.4,0.6 1.8,1.2 0.9,-0.5 1.7,-1.1 2.3,-1.8 -2.7,-0.5 -5.1,-1.5 -7.8,-2 -0.5,-0.4 -0.9,-1 -0.6,-1.6 1.2,-1.2 3.6,-0.7 5,-0.3 1.7,1.3 4.3,0.2 5.9,1.6 3.1,-2.4 5.2,-5.7 7.1,-8.9 l -0.4,-0.4 c -3.3,-0.2 -6.8,-1.1 -10,-0.1 -0.8,0.2 -1.1,-0.7 -1.7,-0.9 -1.5,0.4 -2.9,1.1 -4.7,0.8 -2.8,5 -7.9,9.7 -12.6,13 -1.9,1 -3.4,3.3 -5.5,3.8 -0.6,1.1 -1.7,2.2 -2.9,2.4 -2.2,0.2 -4.4,-0.5 -5.4,-2.5 -0.4,-1 -0.8,-2.4 -0.1,-3.4 1.3,-1.5 3,-4 5.3,-3.2 0.3,0.4 0.9,0.9 1.3,0.3 4.5,-3.9 8.3,-8.6 11.7,-13.3 0,-1 -1.3,-0.4 -1.9,-0.9 -3.1,0.2 -6.4,-2.1 -9.2,0.1 l -3.1,-0.3 c -6,7 -13.9,11.9 -22,15 -1,1.4 -2.2,2.4 -3.8,2.4 -2,-0.3 -4.2,-1.9 -4.7,-3.9 -0.8,-3.3 2,-5.4 4.1,-7.7 0.5,-0.3 1.3,-0.6 1.9,-0.1 l 0.7,0.7 c 5.5,-1.5 10.1,-5.3 14.9,-8.4 0.4,-0.5 0.9,-1 0.8,-1.7 -4.4,-1.8 -9.3,-2.3 -13.9,-3.7 -1.6,-0.4 -3.5,2.4 -4.4,-0.1 0.7,-1.8 -1.7,-1.6 -2.4,-2.4 -1.7,0.5 -2.4,2.6 -4,3.2 -3.6,2.2 -7.6,3.6 -10.7,6.7 0,0.3 0.1,0.5 0.3,0.6 -1.7,0.9 -3.2,2.3 -4.8,3.3 l -0.9,-0.9 c -2.4,-0.4 -5.4,3.2 -6.8,-0.3 -0.2,-1.4 -0.7,-3.1 0.2,-4.3 0.9,-2.2 3.4,-0.6 4.2,-2.7 1.5,0.2 2.2,-1.6 3.5,-2 2.3,-1.5 5.3,-2.1 7.1,-4.3 -3.2,-0.9 -6.4,-1.7 -9.6,-2.6 -0.3,0.2 -0.3,0.6 -0.1,0.8 -0.8,-0.1 -1.9,0 -2.6,0.6 -0.2,-0.4 -0.4,-0.8 -0.9,-1 -1.3,0.9 -3.2,1 -4,2.8 -4.2,1.2 -8.5,2.9 -12.9,3.9 -5.2,2.4 -10.5,5.4 -16.8,3.9 l -0.2,0.3 c 2.7,2.5 5.4,5 9.2,4.9 1.8,0.8 3.3,2.3 5.4,2.6 0.3,0.3 0.4,0.9 0.2,1.3 l -2.2,1.5 c -5.3,-0.7 -11.4,-0.3 -16.4,1.1 -1.9,-0.1 -3.6,-0.8 -5.1,-1.9 -5.1,-0.2 -10.5,-0.5 -14.7,1.7 -1.2,0.2 -1.6,-1.4 -2.3,-1.9 -4.2,-1.9 -8.2,-4.3 -13.4,-3.9 l -5.9,-4.1 c -4.1,-0.3 -8,-1 -11.3,-3.3 l -1,0 c -2.8,2.3 -5.9,3.7 -9.2,4.8 -1.5,-0.4 -2.5,-2 -4,-2.4 -2.9,-0.6 -5.9,-1 -8.9,-0.6 -2.1,2.1 -5.2,1.7 -8.1,1.9 -4.7,0 -9.4,0 -13.9,-0.5 -4.9,-4.4 -11.8,-3.9 -18,-5.1 -3.7,1.1 -5.9,6.1 -10.2,6.1 -3.1,0.5 -5.7,-0.7 -8.4,-1.7 -0.9,-0.5 -1.4,-1.4 -1.3,-2.4 -2.9,-2.8 -6.9,-3.6 -10.8,-3.2 -5.6,1.7 -11.2,3.6 -16.4,6.2 -0.8,0.7 -0.9,2 -2.1,2.3 -5,1.2 -10.5,1.4 -15.6,2.6 l 0,0.4 c 12.3,0.8 23.8,3.2 36.3,3.6 5.4,2.1 12,0.4 18,0.9 3.9,-0.1 6,-4.4 10.4,-3.4 4.6,-0.9 8.5,0.7 12.4,1.9 1.3,0.6 1.3,2.2 2.1,3.2 l 3.4,2.4 c 8.6,-0.8 14.5,-8.1 22.8,-9.6 8,-0.2 14.9,2.2 22.2,3.9 l 0.8,0.4 c 3.8,0.5 8.6,-1.6 11.2,1.8 0.3,1.2 0,3.4 1.9,3.3 3.2,1 7.1,2.6 8.3,6.1 0.2,5 -5.5,8 -9.3,9.7 -2.3,1 -5.1,1.7 -7.8,1.1 -2.3,-0.8 -5.7,-2.4 -5.7,-5.4 -1.2,-0.8 -2.5,0 -3.6,0.2 -3.2,1.5 -6.6,2.5 -10,3.4 -1.3,-0.2 -0.8,-1.7 -1.4,-2.4 -2.3,-2.9 -6.3,-2.6 -9.5,-2 -2.2,0.4 -4.5,1.2 -5.9,3.2 -3.4,2.4 -6.8,4.6 -10.3,6.7 -2.4,3.9 -7.1,3.4 -10.8,4.6 l -6.4,1.3 0,0.4 c 7.2,1.2 15.5,0 22.4,1.9 3.1,1.1 6.5,1.5 9.3,3.3 3.4,0.4 5.3,-2.9 8.5,-3.1 5.2,1.8 8.9,-2.1 13.8,-1.8 3.1,-0.5 6.5,-0.3 9,1.2 3.1,-0.4 6.3,-1.3 9.5,-0.6 3.6,0.3 6.4,2.8 9.1,5.3 4.8,1.8 10.4,0.4 14.9,-1.1 2.5,0.7 5.4,0.4 7.3,2.4 3.8,0 7.1,0.9 10.7,1.1 9.6,0 19,0.4 28.3,1 1.7,0.3 3.4,1 4.5,2.5 -0.2,2.3 -3,3.1 -4.8,3.7 -10.2,-1.7 -18.9,3.2 -28.8,1.3 -7.8,-0.2 -13.3,5.2 -21.6,3.7 -5.1,-0.3 -10.9,-1.7 -15.3,1.2 0.5,1.6 2.5,2.1 3.3,3.5 0.5,0.6 0.6,1.6 0.3,2.4 -1.3,2.3 -3.8,3.3 -6,4.3 -3.2,0.2 -6.7,-0.3 -8.2,-3.2 -0.6,-1.4 0.7,-3.7 -1.6,-3.8 -5,-2.2 -11.1,-1.1 -16.4,-0.5 -5.6,1.1 -11.3,1.8 -17.1,2.1 -3.1,1.9 -6.8,2.4 -9.3,5.6 -6.9,0.3 -13.2,1.8 -19.6,3.3 l 0,0.4 c 7.4,0.6 13.8,3.6 21.7,3 7.2,0.8 16.3,-2.6 21.9,2.9 4.4,5.6 12.4,4.2 18.7,3.4 4.3,0.6 8.7,2.7 10.8,6.9 4.2,2 7.9,5.5 12.5,6.7 4.1,-0.5 7.3,-3.8 10.3,-6.7 1.3,-0.4 2.3,0.8 3.6,1.1 1.7,-0.2 3.7,-0.5 5,0.7 1.3,-0.1 1.4,-1.6 2.1,-2.3 0.9,-1.4 1.1,-3.3 2.7,-4.1 2.2,0.3 4.8,0.3 7.2,0.5 2.8,-0.1 4.9,1.9 7.6,1.7 0.6,0.3 1,1.3 0.4,1.9 -3.3,2.8 -6.1,6.6 -7.3,10.7 -1.7,2.8 -4.7,3.4 -7.1,4.9 2.7,0.8 5.5,1.2 8,2.4 5.4,-1.5 11.7,-1.4 17.5,-2.4 1.8,-1.1 3.6,-2.3 5.5,-3.1 -0.3,-0.8 -2.2,-1.2 -1.6,-2.4 1.1,-1.9 2.9,-0.4 4.2,-0.1 2.5,2 6.6,3.1 7,6.8 -0.1,1.6 -1.5,2.7 -2.5,4 -0.9,0.4 -2,0.9 -3,0.7 l -0.9,-0.6 c -4.6,1.4 -9.5,2.1 -14.5,2.6 l -0.1,0.4 c 4,2.4 8.5,4.3 13.7,3.1 l 9.7,-1.8 c 0.5,-1.1 0.5,-2.6 0.5,-3.8 -0.6,-4.7 0.3,-9.9 2.4,-14.1 0.4,-1.5 3.4,-2.3 2.3,-4.2 0.3,-0.9 0.7,-2.1 1.8,-2.5 2,-0.5 4.5,-1.3 6.3,0.2 0.9,1 2,2.4 0.9,3.6 -2.3,1.5 -2.6,4.2 -3.5,6.5 -1,3.4 -2.5,6.5 -2.4,10.3 l 0.3,0.4 c 3.8,-2.1 8.2,-2.6 11.9,-4.7 1.3,-0.1 2.8,-0.1 3.5,-0.9 -0.8,-7.6 3.6,-13 7.6,-18.5 3.1,-1 1.8,-4.9 5,-5.4 1.4,-0.4 3.1,-0.3 4.3,0.3 2.5,1.3 1.3,4 1.6,6 -0.6,1.2 -1.9,1.4 -2.9,2 -3.9,4.2 -5.1,9.6 -7.3,14.5 l 0.3,0.2 c 3,-1.2 7.4,0.5 9.4,-2.6 5.7,-0.6 6.4,-7.3 9.8,-10.8 3.1,-3.8 6.3,-7.8 9.6,-11.3 -0.2,-1.1 0.3,-2 1.2,-2.5 1.6,-0.5 3.4,-0.2 4.8,0.3 1.9,1.5 3.3,3.5 3,5.8 -0.5,0.7 -1.3,0.6 -2.1,0.6 -6.2,4.6 -11.4,10.8 -14.3,17.4 2.7,-0.7 5.9,-0.8 8.9,-0.4 1.1,-2.1 3.9,-0.8 5.4,-2.4 1.4,-1.2 3.5,-0.1 5.1,-0.4 l 2.2,1.5 c 5.3,-5.1 12.2,-6.6 18.5,-9.3 2.5,-0.9 5.5,0.7 7.5,-1.4 2.2,-0.1 4.3,0.6 5.2,2.7 0.5,1.4 0.8,3.3 -0.4,4.5 -0.8,1.1 -2.1,1.3 -3.2,1.7 l 0,0.4 c 6.6,1.4 12.8,4 18.5,7.5 3.9,-0.2 6.8,-2.9 9.7,-5.2 1,-0.6 2.3,-0.7 3.2,0.1 1.6,1.5 2.6,3.6 2,5.7 l -2.6,2.9 c -2,0.3 -3.6,1.8 -5.6,2.1 l 0,0.3 c 5.1,2.7 9.3,7.5 14.6,9.5 2.9,-1.5 6.1,-2.3 8.4,-4.7 2.1,-0.1 5.2,-0.6 6.3,1.9 0.2,0.8 0.6,1.7 0.1,2.4 -0.7,1.1 -1.7,1.3 -2.6,1.8 -2,2 -4.4,3.5 -6.3,5.1 3.4,3.6 7.3,6.4 10.2,10.2 0.3,1.6 1.6,2.9 2.4,4.2 2.6,-0.8 5.5,-1.5 8.4,-0.9"
           style="fill:#ffffff;fill-opacity:1;fill-rule:nonzero;stroke:none"
           id="path168"
           inkscape:connector-curvature="0" /><path
           d="m 288.2,403.3 c -1,1.3 -1.6,1.5 -2.9,2.2 l -11.9,41.7 1.4,3.2 c 4.4,-15.7 8.8,-31.5 13.4,-47.1"
           style="fill:#ffffff;fill-opacity:1;fill-rule:nonzero;stroke:none"
           id="path170"
           inkscape:connector-curvature="0" /><path
           d="m 459.4,445.4 c -0.9,-7.3 -2.7,-14.2 -5.7,-20.5 l -2.7,-3.4 -0.2,0.2 c 3.3,8.6 6.1,17.3 7.3,26.8 0.3,0.2 0.4,0.7 0.8,0.5 0.6,-1 0.5,-2.4 0.5,-3.6"
           style="fill:#ffffff;fill-opacity:1;fill-rule:nonzero;stroke:none"
           id="path172"
           inkscape:connector-curvature="0" /><path
           d="m 284.7,405.9 c -1,0.5 -1.4,0.7 -2.5,1.1 l -10.2,35.6 1.1,3.9 11.6,-40.6 z"
           style="fill:#ffffff;fill-opacity:1;fill-rule:nonzero;stroke:none"
           id="path174"
           inkscape:connector-curvature="0" /><path
           d="m 353.8,445.3 c 0.4,-1.4 -0.4,-2.6 -1.5,-3.2 -1.2,-1.1 -3.4,0.3 -4.4,-1.2 -0.9,0.4 -1.2,-0.5 -2,-0.6 -1.5,-0.9 -3.1,-1.5 -4.7,-2.2 -4.2,0 -8.5,0 -12.5,-0.6 -1.3,0.7 -3.1,0.5 -4.5,1 -3.7,1.1 -7.6,3.2 -11.7,1.5 -1.5,-0.1 -2.9,0.4 -4.3,0.9 l 0,0.4 c 6.6,1.4 13.6,0.2 19.3,-2.3 0.3,-0.1 0.6,0.1 0.6,0.4 2.4,0.2 4.5,1.5 7,0.7 2.1,0.9 5.1,-0.4 7,1.1 1.2,0.2 1.9,1.4 3.2,1.5 0.5,0.8 1.3,0.6 2,0.6 2,1.4 3.9,2.9 6.3,2.9 l 0.2,-0.9 z"
           style="fill:#ffffff;fill-opacity:1;fill-rule:nonzero;stroke:none"
           id="path176"
           inkscape:connector-curvature="0" /><path
           d="m 279.2,407.9 -7.8,28.2 c 0.1,1.9 -0.3,3.6 0.4,5.3 l 9.8,-34.2 -2.4,0.7 z"
           style="fill:#ffffff;fill-opacity:1;fill-rule:nonzero;stroke:none"
           id="path178"
           inkscape:connector-curvature="0" /><path
           d="m 300.4,431.5 c 7.9,-6.7 16,-12.6 26.5,-12.6 4.2,-0.6 8.2,-1.2 11.7,-3.2 0.4,-0.9 -0.9,-1.7 -1,-2.7 -3.8,-0.7 -6,3.3 -9.7,3.5 -7.3,0.9 -15.4,-0.1 -20.6,5.6 -7.8,7.8 -16.7,13.3 -26.4,16.8 -0.7,0.4 -0.4,1.4 -0.3,2 1.5,0.8 3,-0.4 4.5,-0.7 5.5,-1.9 10.7,-4.5 15.3,-8.7"
           style="fill:#ffffff;fill-opacity:1;fill-rule:nonzero;stroke:none"
           id="path180"
           inkscape:connector-curvature="0" /><path
           d="m 369.1,439 c -0.6,-1.4 -2.5,-1.1 -3.6,-1.8 -4.9,-1.9 -9.4,-4.7 -13.5,-8.4 -0.5,-0.4 -1.4,-0.3 -2,-0.1 -0.2,0.1 -0.3,0.4 -0.3,0.6 2.8,1 4.9,3.8 7.5,5.4 3.1,2.4 6.8,3.5 10.3,5 0.7,0.2 1.3,-0.1 1.6,-0.7"
           style="fill:#ffffff;fill-opacity:1;fill-rule:nonzero;stroke:none"
           id="path182"
           inkscape:connector-curvature="0" /><path
           d="m 308.2,438.2 3.5,-12.4 -2.5,1.7 -3.6,12.1 c 0.9,-0.9 1.4,-1.2 2.6,-1.4"
           style="fill:#ffffff;fill-opacity:1;fill-rule:nonzero;stroke:none"
           id="path184"
           inkscape:connector-curvature="0" /><path
           d="m 484.3,437.7 c 3.2,-1.8 7.3,-1.5 10.2,-4.1 1.9,-0.9 3.9,-2.4 5.1,-4.4 l 0,-0.4 c -2,0.5 -4.1,1.4 -6.1,2.4 -4.5,2.5 -9.3,4.5 -14.5,5.3 l 0.6,1.8 c 1.4,-1 3.1,-0.1 4.7,-0.6"
           style="fill:#ffffff;fill-opacity:1;fill-rule:nonzero;stroke:none"
           id="path186"
           inkscape:connector-curvature="0" /><path
           d="m 322.6,425.8 c -0.5,-0.5 -0.9,-1 -1.7,-1.3 l -4,13.7 2.2,-0.7 3.5,-11.7 z"
           style="fill:#ffffff;fill-opacity:1;fill-rule:nonzero;stroke:none"
           id="path188"
           inkscape:connector-curvature="0" /><path
           d="m 314.9,424 -2.6,1.5 -3.6,12.6 2.4,-0.8 3.8,-13.3 z"
           style="fill:#ffffff;fill-opacity:1;fill-rule:nonzero;stroke:none"
           id="path190"
           inkscape:connector-curvature="0" /><path
           d="m 320.3,424.3 c -0.5,-0.7 -1.1,-1.1 -1.8,-1.5 l -4.2,14.8 c 0.6,0.1 1.2,0.7 2.1,0.5 l 3.9,-13.8 z"
           style="fill:#ffffff;fill-opacity:1;fill-rule:nonzero;stroke:none"
           id="path192"
           inkscape:connector-curvature="0" /><path
           d="m 317.9,422.8 -2.4,0.9 c -1.1,4.6 -2.7,9.1 -3.8,13.8 0.9,0.3 1.4,-0.1 2.2,-0.2 l 4,-14.5 z"
           style="fill:#ffffff;fill-opacity:1;fill-rule:nonzero;stroke:none"
           id="path194"
           inkscape:connector-curvature="0" /><path
           d="m 324.9,427.4 -1.7,-1.3 -3.3,11.1 2.2,-0.6 2.8,-9.2 z"
           style="fill:#ffffff;fill-opacity:1;fill-rule:nonzero;stroke:none"
           id="path196"
           inkscape:connector-curvature="0" /><path
           d="m 281.6,435.9 9.7,-34 c -0.7,-0.3 -1.1,-0.4 -1.8,0 l -0.7,1 -9.7,34 c 0.7,-0.7 1.7,-0.7 2.5,-1"
           style="fill:#ffffff;fill-opacity:1;fill-rule:nonzero;stroke:none"
           id="path198"
           inkscape:connector-curvature="0" /><path
           d="m 325.3,435.8 c 0.4,-2.5 1.4,-4.7 1.9,-7.1 -0.6,-0.2 -1.3,-0.4 -1.8,-1 l -2.5,8.7 2.4,-0.6 z"
           style="fill:#ffffff;fill-opacity:1;fill-rule:nonzero;stroke:none"
           id="path200"
           inkscape:connector-curvature="0" /><path
           d="m 341.1,427.6 -2,0.3 -2.4,7.8 c 0.9,0 1.2,0.9 2.1,0.1 l 2.3,-8.2 z"
           style="fill:#ffffff;fill-opacity:1;fill-rule:nonzero;stroke:none"
           id="path202"
           inkscape:connector-curvature="0" /><path
           d="m 329.8,429.2 -2.1,-0.3 -2,6.9 c 4.1,0.6 2.6,-4.5 4.1,-6.6"
           style="fill:#ffffff;fill-opacity:1;fill-rule:nonzero;stroke:none"
           id="path204"
           inkscape:connector-curvature="0" /><path
           d="m 284.5,434.8 9.5,-32.6 c -0.9,0.5 -2.8,-1.2 -2.6,0.9 l -9.2,32.6 c 0.9,-0.6 1.3,-0.6 2.3,-0.9"
           style="fill:#ffffff;fill-opacity:1;fill-rule:nonzero;stroke:none"
           id="path206"
           inkscape:connector-curvature="0" /><path
           d="m 338.3,428 c -0.9,0.1 -1.3,0.2 -2.2,0.3 l -2.1,7.4 2.2,0 2.1,-7.7 z"
           style="fill:#ffffff;fill-opacity:1;fill-rule:nonzero;stroke:none"
           id="path208"
           inkscape:connector-curvature="0" /><path
           d="m 335.5,428.5 c -1,0.3 -1.4,0.3 -2.3,0.6 -0.7,2 -1.2,4.1 -1.8,6.2 0.5,0 1.3,0.4 2.1,0.1 l 2,-6.9 z"
           style="fill:#ffffff;fill-opacity:1;fill-rule:nonzero;stroke:none"
           id="path210"
           inkscape:connector-curvature="0" /><path
           d="m 332.6,429.1 c -0.9,0.3 -2,-0.4 -2.4,0.6 l -1.6,5.7 2.2,0 1.8,-6.3 z"
           style="fill:#ffffff;fill-opacity:1;fill-rule:nonzero;stroke:none"
           id="path212"
           inkscape:connector-curvature="0" /><path
           d="m 434.9,434.7 c -1.9,-5.1 -6.7,-9.3 -9.4,-14.3 -2.7,-3.1 -3.8,-6.9 -6,-10.2 -0.3,0 -0.6,0 -0.8,0.3 2.7,7.8 7.7,14.7 13,21.4 1.2,0.9 1.9,2.2 3.2,2.8"
           style="fill:#ffffff;fill-opacity:1;fill-rule:nonzero;stroke:none"
           id="path214"
           inkscape:connector-curvature="0" /><path
           d="m 287.6,433.6 8.9,-30.7 c -0.7,-0.8 -0.8,-0.7 -2.1,-0.7 l -9.2,32.4 c 1.1,-0.3 1.4,-0.6 2.4,-1"
           style="fill:#ffffff;fill-opacity:1;fill-rule:nonzero;stroke:none"
           id="path216"
           inkscape:connector-curvature="0" /><path
           d="m 386.6,433.6 c -2.9,-3.5 -6.6,-5.6 -9.7,-8.7 -1.6,-3 -4.1,-5.1 -6.6,-7.4 -0.4,0.1 -0.7,0.3 -1,0.6 0.3,1.7 3.2,1.1 2.4,3.3 3.9,4.8 8.3,10 13.8,12.6 0.4,-0.1 1,0.2 1.1,-0.4"
           style="fill:#ffffff;fill-opacity:1;fill-rule:nonzero;stroke:none"
           id="path218"
           inkscape:connector-curvature="0" /><path
           d="m 483.5,432.3 0,-0.5 c -4.5,-3.9 -9,-7.6 -14,-10.3 -1.9,0.3 -3.8,0.8 -5.6,1.2 l 0,0.4 c 3.9,2.9 9,3.5 11.8,8.2 -0.3,1.2 0.9,1.8 1.6,2.4 2,-0.6 4.3,-0.6 6.2,-1.4"
           style="fill:#ffffff;fill-opacity:1;fill-rule:nonzero;stroke:none"
           id="path220"
           inkscape:connector-curvature="0" /><path
           d="m 278.6,408.1 -1.9,-0.6 -6.9,23.6 c 0.8,0.7 1.3,1.4 1.6,2.4 2.4,-8.5 4.8,-17 7.2,-25.4"
           style="fill:#ffffff;fill-opacity:1;fill-rule:nonzero;stroke:none"
           id="path222"
           inkscape:connector-curvature="0" /><path
           d="m 295.6,415.4 c -0.4,-0.4 -1.3,-1.2 -0.6,-1.8 0.4,-0.8 1.3,-0.5 1.5,-1.1 l 2.5,-9 c -1,1.1 -1.7,-0.7 -2.3,0.2 l -8.4,29.4 2.5,-1.4 4.8,-16.3 z"
           style="fill:#ffffff;fill-opacity:1;fill-rule:nonzero;stroke:none"
           id="path224"
           inkscape:connector-curvature="0" /><path
           d="m 343,430.6 1,-3.2 c -1.1,-0.2 -1.1,0.2 -2.2,0.1 l -1.5,5.2 c 1.2,-1.3 1.4,-1 2.7,-2.1"
           style="fill:#ffffff;fill-opacity:1;fill-rule:nonzero;stroke:none"
           id="path226"
           inkscape:connector-curvature="0" /><path
           d="m 373.3,427.9 0,-0.4 c -2.5,-1.3 -2.9,-6 -6.3,-4.4 -3.5,1.8 -8.2,1.3 -11,4.8 1,1.7 2.9,3.1 4.7,4 3.6,-2.6 8.4,-2.7 12.6,-4"
           style="fill:#ffffff;fill-opacity:1;fill-rule:nonzero;stroke:none"
           id="path228"
           inkscape:connector-curvature="0" /><path
           d="m 412.7,431.1 c -0.7,-1.7 -2.7,-2.6 -4.2,-3.7 -1.9,-1.5 -3.9,-3.4 -5.6,-4.8 -2.7,-3 -5.7,-6.3 -8.9,-8.7 l 0.5,2.9 c 4.5,5 9.5,9.9 14.8,13.5 1.2,0 2.3,1.2 3.4,0.8"
           style="fill:#ffffff;fill-opacity:1;fill-rule:nonzero;stroke:none"
           id="path230"
           inkscape:connector-curvature="0" /><path
           d="m 294.3,429.3 4.1,-14 c -1,-0.2 -1.3,0.2 -2.3,0.1 l -4.4,15.8 c 1.4,-0.8 1.2,-0.9 2.6,-1.9"
           style="fill:#ffffff;fill-opacity:1;fill-rule:nonzero;stroke:none"
           id="path232"
           inkscape:connector-curvature="0" /><path
           d="m 276.1,407.1 c -0.9,-0.4 -1,-0.5 -1.8,-1 l -6.6,23.1 c 0.3,0.8 1.1,0.8 1.8,1.5 2,-7.9 4.5,-15.8 6.6,-23.6"
           style="fill:#ffffff;fill-opacity:1;fill-rule:nonzero;stroke:none"
           id="path234"
           inkscape:connector-curvature="0" /><path
           d="m 346.1,427.6 c -0.3,-0.7 -1.2,-0.1 -1.6,-0.1 l -0.8,2.6 c 0.7,-0.8 3.7,-0.2 2.4,-2.5"
           style="fill:#ffffff;fill-opacity:1;fill-rule:nonzero;stroke:none"
           id="path236"
           inkscape:connector-curvature="0" /><path
           d="m 271.9,404.8 -6.5,23.3 1.7,1.1 6.7,-23.3 -1.9,-1.1 z"
           style="fill:#ffffff;fill-opacity:1;fill-rule:nonzero;stroke:none"
           id="path238"
           inkscape:connector-curvature="0" /><path
           d="m 297.7,427.4 3.2,-11.4 c -0.6,-0.6 -1.1,-0.4 -2,-0.6 l -3.9,13.7 c 1.1,-0.8 1.7,-0.9 2.7,-1.7"
           style="fill:#ffffff;fill-opacity:1;fill-rule:nonzero;stroke:none"
           id="path240"
           inkscape:connector-curvature="0" /><path
           d="m 271.4,404.5 c -0.5,-0.7 -1.1,-1 -1.8,-1.2 l -6.4,22.4 1.7,1.8 c 2.2,-7.7 4.3,-15.4 6.5,-23"
           style="fill:#ffffff;fill-opacity:1;fill-rule:nonzero;stroke:none"
           id="path242"
           inkscape:connector-curvature="0" /><path
           d="m 301.2,424.6 2.2,-8.3 -1.9,-0.4 -3.2,11 c 0.8,-1 1.8,-1.7 2.9,-2.3"
           style="fill:#ffffff;fill-opacity:1;fill-rule:nonzero;stroke:none"
           id="path244"
           inkscape:connector-curvature="0" /><path
           d="m 267.3,401.9 -6.3,22.2 1.8,1.4 6.4,-22.6 -1.9,-1 z"
           style="fill:#ffffff;fill-opacity:1;fill-rule:nonzero;stroke:none"
           id="path246"
           inkscape:connector-curvature="0" /><path
           d="m 395.3,422.9 c -0.9,-2 -3.2,-3.5 -4,-5.6 l -0.5,-0.2 c -4.6,0.6 -9,1.5 -13.2,2.8 -0.9,0.8 0.3,1.6 0.5,2.3 1.7,4.6 6.3,1.3 9.4,1.8 2.6,-0.5 5.2,-1.2 7.8,-1.1"
           style="fill:#ffffff;fill-opacity:1;fill-rule:nonzero;stroke:none"
           id="path248"
           inkscape:connector-curvature="0" /><path
           d="m 352.4,423.2 c -0.7,-3.9 0.2,-7.6 1.1,-11.3 1.3,-2.8 1.6,-6.1 3,-8.9 -0.4,-0.4 -1,0.1 -1.5,0.1 -4.5,3.6 -5.6,8.8 -5.5,14.2 0.8,1.7 0,3.7 0.2,5.6 0.5,0.8 2.3,1.6 2.7,0.3"
           style="fill:#ffffff;fill-opacity:1;fill-rule:nonzero;stroke:none"
           id="path250"
           inkscape:connector-curvature="0" /><path
           d="m 266.8,401.7 c -1,-0.7 -0.8,-0.5 -1.8,-1.3 -1.9,6.9 -4,13.7 -5.8,20.6 0.5,0.8 1.2,1.6 1.4,2.7 l 6.2,-22 z"
           style="fill:#ffffff;fill-opacity:1;fill-rule:nonzero;stroke:none"
           id="path252"
           inkscape:connector-curvature="0" /><path
           d="m 306.1,416.9 c -0.9,-0.2 -1,-0.4 -2,-0.4 l -2.1,7.2 3,-2.9 1.1,-3.9 z"
           style="fill:#ffffff;fill-opacity:1;fill-rule:nonzero;stroke:none"
           id="path254"
           inkscape:connector-curvature="0" /><path
           d="m 421.5,422.7 c -0.7,-2.7 -3.5,-4.9 -4.1,-7.8 -2.1,-1.3 -5,-1 -7.5,-1.3 -3.1,1.3 -6.8,1 -10.4,1.2 l 0,0.1 c 1.3,1.9 3.6,3.8 5.4,5.8 5.8,0 11.1,1.2 16.6,2"
           style="fill:#ffffff;fill-opacity:1;fill-rule:nonzero;stroke:none"
           id="path256"
           inkscape:connector-curvature="0" /><path
           d="m 469.9,418.5 c 2.8,-0.1 5.2,-1.5 7.6,-2.5 0.4,-0.4 0.9,-0.5 1.1,-1 0,-0.6 -0.3,-1.1 -0.8,-1.5 -2.5,1.8 -5.6,2.5 -7.9,4.4 -2.9,-0.6 -5.5,1 -8.3,1.3 -2.6,0 -4.9,0.4 -7,1.5 0,0.6 0.5,1.1 1,1.4 4.8,-1 9.6,-2.2 14.3,-3.6"
           style="fill:#ffffff;fill-opacity:1;fill-rule:nonzero;stroke:none"
           id="path258"
           inkscape:connector-curvature="0" /><path
           d="m 264.6,400.1 c -0.4,-0.9 -0.9,-1.7 -1.5,-2.5 l -5.7,20.8 c 0.1,0.4 0.5,0.9 0.4,1.3 l 0.9,1 5.9,-20.6 z"
           style="fill:#ffffff;fill-opacity:1;fill-rule:nonzero;stroke:none"
           id="path260"
           inkscape:connector-curvature="0" /><path
           d="m 308.3,418 c -0.7,-0.8 -0.7,-0.4 -1.8,-0.8 l -0.9,3.2 c 1.1,-1.3 1.6,-1.2 2.7,-2.4"
           style="fill:#ffffff;fill-opacity:1;fill-rule:nonzero;stroke:none"
           id="path262"
           inkscape:connector-curvature="0" /><path
           d="m 462.3,416.1 -0.7,-0.7 c -4.6,-2.3 -9.3,-4.6 -14.2,-6.3 -1,-0.5 -0.5,-1.7 -0.8,-2.4 -4.9,1.3 -9.9,2.3 -14.5,4.2 l -0.4,0.4 c 2.9,2.1 7.1,2.1 10.4,3.7 2.4,0.2 4.5,1.8 6.9,0.9 1.1,-0.3 1.9,0.3 2.9,0.6 1.1,3.6 3.8,-0.3 6,0.1 1.4,-0.4 3.1,0.2 4.4,-0.5"
           style="fill:#ffffff;fill-opacity:1;fill-rule:nonzero;stroke:none"
           id="path264"
           inkscape:connector-curvature="0" /><path
           d="m 262.6,397.3 c -0.9,-0.7 -0.7,-0.7 -1.8,-1.2 l -3.8,13.4 c 3.2,2.5 -3.8,4.6 -0.1,7.7 l 5.7,-19.9 z"
           style="fill:#ffffff;fill-opacity:1;fill-rule:nonzero;stroke:none"
           id="path266"
           inkscape:connector-curvature="0" /><path
           d="m 374.9,416.5 c 0.8,-5.8 4.5,-10.3 6.4,-15.5 0.9,-2.1 3,-3.9 3.4,-6 -5.1,0.4 -6.7,6.1 -9.4,9.5 -1.9,3.4 -2.6,8.7 -0.7,12.3 l 0.3,-0.3 z"
           style="fill:#ffffff;fill-opacity:1;fill-rule:nonzero;stroke:none"
           id="path268"
           inkscape:connector-curvature="0" /><path
           d="m 303.5,397.1 c -1.4,2.4 -1.8,3.5 -3.8,5.7 l -2.7,9.8 2.1,-0.2 4.4,-15.3 z"
           style="fill:#ffffff;fill-opacity:1;fill-rule:nonzero;stroke:none"
           id="path270"
           inkscape:connector-curvature="0" /><path
           d="m 302.2,411.4 4.2,-14.7 -2.3,0.2 -4.3,15.2 c 0.9,-0.3 1.6,-0.2 2.4,-0.7"
           style="fill:#ffffff;fill-opacity:1;fill-rule:nonzero;stroke:none"
           id="path272"
           inkscape:connector-curvature="0" /><path
           d="m 396.7,411.9 c 3.4,-7.5 9,-14.5 15.4,-20.4 -0.5,-0.8 -2.2,-0.5 -3.1,-0.2 -4.6,5.6 -10.2,11.1 -13.2,17.6 0.8,1.1 -1.2,2.9 0.9,3"
           style="fill:#ffffff;fill-opacity:1;fill-rule:nonzero;stroke:none"
           id="path274"
           inkscape:connector-curvature="0" /><path
           d="m 434,406.7 c 4.6,-1.4 8.4,-4.6 13.8,-4.2 l 0.1,-0.1 c -2,-1.7 -5.8,-0.9 -8.3,-0.2 -4.6,2.7 -10.3,2.9 -14.1,7.4 -0.4,0.1 -0.6,0.5 -0.9,0.7 -0.2,0.6 0.5,1 0.9,1.2 2.7,-1.8 5.3,-3.9 8.5,-4.8"
           style="fill:#ffffff;fill-opacity:1;fill-rule:nonzero;stroke:none"
           id="path276"
           inkscape:connector-curvature="0" /><path
           d="m 305.1,410.3 4,-13.4 -2.2,-0.2 -4.1,14.6 c 1,-0.5 1.4,-0.3 2.3,-1"
           style="fill:#ffffff;fill-opacity:1;fill-rule:nonzero;stroke:none"
           id="path278"
           inkscape:connector-curvature="0" /><path
           d="m 310.5,401.6 1.2,-4.5 c -0.8,-0.1 -1.4,-0.3 -2,-0.2 l -3.8,13 c 3.3,-1.1 3.3,-5.4 4.6,-8.3"
           style="fill:#ffffff;fill-opacity:1;fill-rule:nonzero;stroke:none"
           id="path280"
           inkscape:connector-curvature="0" /><path
           d="m 260.2,395.7 c -3.5,2.8 -4,7.5 -5.1,11.5 0.2,1.3 0.4,1.1 1.3,2.1 1.4,-4.4 2.7,-9.2 3.8,-13.6"
           style="fill:#ffffff;fill-opacity:1;fill-rule:nonzero;stroke:none"
           id="path282"
           inkscape:connector-curvature="0" /><path
           d="m 313.9,398.1 c -0.7,-0.7 -0.9,-0.5 -1.7,-0.8 l -1.7,6 c 1.5,-2.2 2.4,-2.8 3.4,-5.2"
           style="fill:#ffffff;fill-opacity:1;fill-rule:nonzero;stroke:none"
           id="path284"
           inkscape:connector-curvature="0" /><path
           d="m 186.1,396.8 c 2.3,-0.9 4.1,0.9 6.1,1.7 4.7,1.5 8.8,-1 13.6,-0.6 l 1.5,1.3 c 5.6,1.1 11.9,0.8 17.9,0.7 0.5,-0.2 0.8,-0.6 1,-1.1 -0.7,-1.5 -2.1,-2.8 -3.5,-3.7 -3.5,-1.5 -7.9,-0.8 -11.4,-2.4 -2.3,-1.8 -5.7,-1 -8.3,-1.9 -2.7,0 -5.4,-0.2 -7.4,-1.9 -3,-0.7 -6.1,0.2 -9,0.1 -3.7,-0.4 -7.5,-0.3 -10.7,-1.7 l -9,0.5 c -1,-0.4 -0.4,-1.6 -1,-2.2 -2.5,-3.7 -7.7,-3 -11.5,-2.4 -1,0.3 -1.3,1.4 -1,2.3 l 2.2,2.4 c -1.5,1.6 -4.1,0.4 -6.1,0.6 -3.8,-0.8 -7.3,-2.3 -10.3,-4.9 -2.6,0.1 -4.9,-0.4 -7.2,-0.7 -8.1,1.4 -14.7,6.2 -22.8,7.4 -6,1.9 -12.9,0.3 -19,1.8 -1,-0.2 -2.1,-0.2 -2.9,0.5 -0.4,0.3 -0.3,0.9 -0.1,1.3 l 0.7,0.6 c 6.3,-0.6 11.4,1.8 17.1,2.6 4.8,1.5 10,2.3 15.4,2.6 6.9,-0.5 14,-2.2 20.9,-0.9 5,3.2 11.9,1.8 17.5,3.5 6.6,-0.3 13.4,1.4 19.1,-1.4 2.7,-1.4 5.4,-2.8 8.2,-4.1"
           style="fill:#231f20;fill-opacity:1;fill-rule:nonzero;stroke:none"
           id="path286"
           inkscape:connector-curvature="0" /><path
           d="m 326.5,382.7 c 2.4,0.4 4.5,1.3 6.9,1.6 12.9,-4.5 24.7,-11.6 38.5,-13.7 4.2,-0.8 8.3,-1.5 11.9,-3.6 0.3,-0.4 0.6,-1.1 0.1,-1.5 l -0.7,-0.4 c -4.3,0.9 -8.6,1.6 -13.1,2.2 -13.7,3.8 -26.3,11.2 -42.2,9.3 -4.7,0.6 -8.8,2.8 -13.2,4.2 -2.2,0.8 -3.7,-0.8 -5.4,-1.4 -4.5,-0.9 -9.1,-2.9 -13.9,-1.6 -0.8,1.2 -1.5,2.6 -1.1,4.1 0.6,1.4 1.7,3.1 3.3,3.6 2.3,0.9 4.7,-0.1 6.9,-0.5 5.6,2.3 12.2,1.4 17.8,-0.3 l 4.2,-2 z"
           style="fill:#231f20;fill-opacity:1;fill-rule:nonzero;stroke:none"
           id="path288"
           inkscape:connector-curvature="0" /><path
           d="m 326.3,380.2 7.5,1.7 c 2.5,-0.8 5,-2.1 7.1,-3.4 -4.1,-0.1 -8.3,1.4 -12.3,0.2 -6.5,0.2 -11.4,5.9 -18.2,4.2 -1.9,-2.4 -5.1,-2.3 -7.8,-2.9 -1.7,-0.1 -3.5,-1 -5.2,-0.1 -0.9,0.7 -0.1,1.7 0.2,2.5 2.1,2 4.7,0.2 7.3,0.2 7,3 15.2,0.9 21.4,-2.4"
           style="fill:#ffffff;fill-opacity:1;fill-rule:nonzero;stroke:none"
           id="path290"
           inkscape:connector-curvature="0" /><path
           d="m 263.2,376.1 c 2.2,-7.6 4.4,-15.3 6.5,-23 -0.1,0.5 -0.7,1 -1.2,1.3 -0.5,0.3 -0.7,2.7 -2.1,3.4 l -5.2,17.7 c 0.8,0.2 1.1,0.6 2,0.6"
           style="fill:#ffffff;fill-opacity:1;fill-rule:nonzero;stroke:none"
           id="path292"
           inkscape:connector-curvature="0" /><path
           d="m 266.1,375.5 1.2,-4.2 -1.7,-1.9 -1.8,6.6 c 1,-0.1 1.5,-0.2 2.3,-0.5"
           style="fill:#ffffff;fill-opacity:1;fill-rule:nonzero;stroke:none"
           id="path294"
           inkscape:connector-curvature="0" /><path
           d="m 269.2,373.7 c 0.1,-0.9 -0.7,-1.5 -1.4,-2 l -1.1,3.7 c 1.1,-0.6 1.8,-0.6 2.5,-1.7"
           style="fill:#ffffff;fill-opacity:1;fill-rule:nonzero;stroke:none"
           id="path296"
           inkscape:connector-curvature="0" /><path
           d="m 263.4,366.2 c -0.9,0.8 -1.4,1.1 -2.6,1.3 -0.2,1.7 -1.5,3.4 -0.7,5 0,1.3 -0.6,1.7 0.5,2.7 1.1,-2.8 1.8,-6 2.8,-9"
           style="fill:#ffffff;fill-opacity:1;fill-rule:nonzero;stroke:none"
           id="path298"
           inkscape:connector-curvature="0" /><path
           d="m 259.9,368.9 0.2,-1 -0.2,1 z"
           style="fill:#ffffff;fill-opacity:1;fill-rule:nonzero;stroke:none"
           id="path300"
           inkscape:connector-curvature="0" /><path
           d="m 269,365.3 3,-10.3 c -0.6,-0.8 -1,-0.6 -1.8,-1.4 l -3.7,12.9 c 0.9,-0.8 1.4,-0.7 2.5,-1.2"
           style="fill:#ffffff;fill-opacity:1;fill-rule:nonzero;stroke:none"
           id="path302"
           inkscape:connector-curvature="0" /><path
           d="m 274.5,355.4 c -0.8,0.1 -2.4,-1.4 -2.3,0.5 l -2.6,9.2 2.4,-0.5 2.5,-9.2 z"
           style="fill:#ffffff;fill-opacity:1;fill-rule:nonzero;stroke:none"
           id="path304"
           inkscape:connector-curvature="0" /><path
           d="m 288.7,353.9 c -0.9,0.2 -2.1,0.1 -2.5,1 l -2.8,9.7 c 0.7,0.2 1.4,0.1 2.2,0.1 l 3.1,-10.8 z"
           style="fill:#ffffff;fill-opacity:1;fill-rule:nonzero;stroke:none"
           id="path306"
           inkscape:connector-curvature="0" /><path
           d="m 291.2,354.5 c -0.8,-0.3 -1.1,-0.3 -2,-0.4 l -3,10.5 c 0.7,-0.1 1.2,0.3 2,0.1 l 3,-10.2 z"
           style="fill:#ffffff;fill-opacity:1;fill-rule:nonzero;stroke:none"
           id="path308"
           inkscape:connector-curvature="0" /><path
           d="m 285.7,354.8 c -0.9,-0.1 -1.3,0.1 -2.3,0.2 l -2.6,9.4 c 0.7,0.1 1.3,0.3 2.1,0.2 l 2.8,-9.8 z"
           style="fill:#ffffff;fill-opacity:1;fill-rule:nonzero;stroke:none"
           id="path310"
           inkscape:connector-curvature="0" /><path
           d="m 291.1,364.1 2.5,-8.4 c -1.1,-0.4 -0.7,-1 -1.9,-1 l -2.8,9.9 c 0.9,-0.1 1.4,-0.1 2.2,-0.5"
           style="fill:#ffffff;fill-opacity:1;fill-rule:nonzero;stroke:none"
           id="path312"
           inkscape:connector-curvature="0" /><path
           d="m 274.8,364.4 2.4,-8.7 -2,-0.3 -2.6,9.1 c 0.7,-0.2 1.4,-0.1 2.2,-0.1"
           style="fill:#ffffff;fill-opacity:1;fill-rule:nonzero;stroke:none"
           id="path314"
           inkscape:connector-curvature="0" /><path
           d="m 279.9,355.9 -2.1,-0.2 -2.4,8.7 2.1,-0.1 2.4,-8.4 z"
           style="fill:#ffffff;fill-opacity:1;fill-rule:nonzero;stroke:none"
           id="path316"
           inkscape:connector-curvature="0" /><path
           d="m 280.2,364.4 c 1,-3 1.7,-6.2 2.6,-9.3 l -2.3,0.5 c -0.8,2.9 -1.7,5.7 -2.4,8.7 0.7,-0.1 1.4,0 2.1,0.1"
           style="fill:#ffffff;fill-opacity:1;fill-rule:nonzero;stroke:none"
           id="path318"
           inkscape:connector-curvature="0" /><path
           d="m 294.1,363.1 2.1,-7 c -0.9,0.1 -1.4,-0.3 -2.1,-0.1 l -2.3,7.9 c 0.9,-0.5 1.3,-0.6 2.3,-0.8"
           style="fill:#ffffff;fill-opacity:1;fill-rule:nonzero;stroke:none"
           id="path320"
           inkscape:connector-curvature="0" /><path
           d="m 265.8,357.8 c -0.9,0.1 -1.8,-0.4 -2.2,0.6 0,2.1 0.4,2.6 0.6,4.7 l 1.6,-5.3 z"
           style="fill:#ffffff;fill-opacity:1;fill-rule:nonzero;stroke:none"
           id="path322"
           inkscape:connector-curvature="0" /><path
           d="m 298.9,356.3 c -0.6,-0.4 -1.3,-0.1 -2.2,-0.2 l -1.9,6.7 c 4,0.6 2.6,-4.4 4.1,-6.5"
           style="fill:#ffffff;fill-opacity:1;fill-rule:nonzero;stroke:none"
           id="path324"
           inkscape:connector-curvature="0" /><path
           d="m 301.5,356.6 c -0.7,-0.4 -1.2,-0.1 -2,-0.4 l -1.8,6 c 3.8,0.9 2.5,-3.7 3.8,-5.6"
           style="fill:#ffffff;fill-opacity:1;fill-rule:nonzero;stroke:none"
           id="path326"
           inkscape:connector-curvature="0" /><path
           d="m 302.8,361.5 1.3,-4.6 -2.1,-0.2 -1.4,5 c 0.7,-0.1 1.4,-0.3 2.2,-0.2"
           style="fill:#ffffff;fill-opacity:1;fill-rule:nonzero;stroke:none"
           id="path328"
           inkscape:connector-curvature="0" /><path
           d="m 309.4,357.3 c -0.7,0.1 -2.1,-0.3 -2.3,0.4 l -0.9,3.4 c 0.6,0.3 1.3,0.4 2,0.4 l 1.2,-4.2 z"
           style="fill:#ffffff;fill-opacity:1;fill-rule:nonzero;stroke:none"
           id="path330"
           inkscape:connector-curvature="0" /><path
           d="m 311,361.4 1.2,-4.1 c -3.5,-1.5 -2.2,2.8 -3.4,4.2 0.8,-0.2 1.3,-0.1 2.2,-0.1"
           style="fill:#ffffff;fill-opacity:1;fill-rule:nonzero;stroke:none"
           id="path332"
           inkscape:connector-curvature="0" /><path
           d="m 314.9,357.3 -2.1,0 -1.2,4.1 c 3.3,1.4 2.3,-2.7 3.3,-4.1"
           style="fill:#ffffff;fill-opacity:1;fill-rule:nonzero;stroke:none"
           id="path334"
           inkscape:connector-curvature="0" /><path
           d="m 305.7,361 1.1,-3.8 c -0.8,0.1 -1.4,-0.3 -2.2,-0.1 l -1.2,4.3 c 0.9,-0.1 1.4,-0.3 2.3,-0.4"
           style="fill:#ffffff;fill-opacity:1;fill-rule:nonzero;stroke:none"
           id="path336"
           inkscape:connector-curvature="0" /><path
           d="m 316.6,361 1,-3.6 -2.2,-0.1 -1.1,4 c 0.9,-0.1 1.3,-0.4 2.3,-0.3"
           style="fill:#ffffff;fill-opacity:1;fill-rule:nonzero;stroke:none"
           id="path338"
           inkscape:connector-curvature="0" /><path
           d="m 319.5,360.5 0.8,-3 c -0.7,-0.2 -1.2,-0.1 -2.1,-0.1 l -1,3.5 c 0.8,-0.1 1.6,-0.2 2.3,-0.4"
           style="fill:#ffffff;fill-opacity:1;fill-rule:nonzero;stroke:none"
           id="path340"
           inkscape:connector-curvature="0" /><path
           d="m 323,357.8 c -0.7,-0.3 -1.3,-0.3 -2.2,-0.3 l -0.8,2.9 2.3,-0.2 0.7,-2.4 z"
           style="fill:#ffffff;fill-opacity:1;fill-rule:nonzero;stroke:none"
           id="path342"
           inkscape:connector-curvature="0" /><path
           d="m 325.6,357.9 -2,-0.2 -0.7,2.4 2.2,-0.3 0.5,-1.9 z"
           style="fill:#ffffff;fill-opacity:1;fill-rule:nonzero;stroke:none"
           id="path344"
           inkscape:connector-curvature="0" /><path
           d="m 327.8,359.7 c 0.2,-0.5 0.6,-1.2 0.6,-1.9 l -2.2,0 -0.6,2 2.2,-0.1 z"
           style="fill:#ffffff;fill-opacity:1;fill-rule:nonzero;stroke:none"
           id="path346"
           inkscape:connector-curvature="0" /><path
           d="m 331,358.1 c -0.2,-0.5 -1.1,-0.3 -2,-0.3 l -0.6,1.9 c 1.2,0 2.8,0.2 2.6,-1.6"
           style="fill:#ffffff;fill-opacity:1;fill-rule:nonzero;stroke:none"
           id="path348"
           inkscape:connector-curvature="0" /><path
           d="m 333.7,358.4 c -0.7,-0.2 -1.9,-0.7 -2.2,-0.1 l -0.4,1.5 2.2,0 0.4,-1.4 z"
           style="fill:#ffffff;fill-opacity:1;fill-rule:nonzero;stroke:none"
           id="path350"
           inkscape:connector-curvature="0" /><path
           d="m 334.3,358.5 -0.4,1.1 1.2,-0.5 -0.8,-0.6 z"
           style="fill:#ffffff;fill-opacity:1;fill-rule:nonzero;stroke:none"
           id="path352"
           inkscape:connector-curvature="0" /><path
           d="m 280.8,344.1 c 8.2,-1.2 14.5,-7.1 23.2,-7 4.3,-0.1 8.7,0 12.6,-1 7.1,-0.1 15.1,0.6 22,-0.6 1.5,0.2 3.4,-0.6 4.5,0.6 6.6,-0.2 12.6,1.7 19.1,1.2 0.5,-0.3 1.3,-1.1 0.6,-1.7 -6.2,-3.2 -13.5,-3.8 -20.6,-4.7 -5.2,-0.2 -9.9,-1.7 -15.4,-1 -5.4,-1.6 -11,-2.9 -16.8,-3.8 -4.2,0.8 -7.7,3.4 -11.6,4.9 -3.6,-0.6 -9.1,-1.7 -11.5,1.8 -3.5,4.2 -9.4,3.9 -13.2,7.8 -1.1,0.4 -1.7,-0.8 -2.8,-0.2 -0.8,0.5 -0.5,1.3 -0.2,2 2.3,1.5 4.9,2.4 7.5,3 1.1,0.2 1.6,-1.1 2.6,-1.3"
           style="fill:#231f20;fill-opacity:1;fill-rule:nonzero;stroke:none"
           id="path354"
           inkscape:connector-curvature="0" /><path
           d="m 457.3,329.1 c 6.1,-4.3 13,-10.4 14.7,-17.6 0.6,-1.7 1.5,-3.2 1.8,-5 l -0.2,-0.2 c -3.1,1.3 -2.4,4.7 -3.5,7.1 -3.1,6.4 -10.1,9.7 -14.3,15.5 l 0.3,0.6 1.2,-0.4 z"
           style="fill:#ffffff;fill-opacity:1;fill-rule:nonzero;stroke:none"
           id="path356"
           inkscape:connector-curvature="0" /><path
           d="m 433.7,319.9 c 2.8,-3.1 5.3,-6.3 7.1,-9.8 0.1,-0.7 0.1,-1.6 -0.5,-2.1 l -0.7,0.1 c -4.3,4.1 -6.3,9.2 -10.5,13.3 l -5.4,4.7 c -0.1,0.7 0.7,0.8 1,1.2 3.4,-1.6 6,-5 9,-7.4"
           style="fill:#ffffff;fill-opacity:1;fill-rule:nonzero;stroke:none"
           id="path358"
           inkscape:connector-curvature="0" /><path
           d="m 491.1,319.6 c -0.3,-3 2,-5.1 1.3,-8 1,-3.3 0.7,-7.6 0.3,-11.1 -0.5,-0.6 -1.1,-1.5 -2.1,-1.3 -0.4,0.5 -0.7,1.4 -0.2,1.9 l 0.7,1.1 c -0.1,6.6 -0.9,12.9 -3.5,18.4 -0.2,1.9 -1.8,4.4 0,6 3.5,-0.4 2.7,-4.5 3.5,-7"
           style="fill:#ffffff;fill-opacity:1;fill-rule:nonzero;stroke:none"
           id="path360"
           inkscape:connector-curvature="0" /><path
           d="m 405.5,319.4 c 3,-3.1 6.6,-6.1 8.3,-9.7 0.4,-0.9 0.3,-2 0.1,-2.9 -2.9,-1 -2.7,3 -4.6,4.3 -4.4,4.4 -7.5,9.9 -12.8,13.4 0.5,0.9 1.3,-0.1 2,-0.1 2.2,-1.9 4.6,-3.5 7,-5"
           style="fill:#ffffff;fill-opacity:1;fill-rule:nonzero;stroke:none"
           id="path362"
           inkscape:connector-curvature="0" /><path
           d="m 458.5,318.2 c 1.8,-0.1 3.3,-1.3 5.2,-0.9 2.1,-2.1 4.3,-4.5 3.9,-7.4 -0.3,1.2 -1.8,1.1 -2.8,1.9 -6,1.5 -12.5,2.1 -19.1,2.3 l -3.6,-1 c -1.3,2.3 -3.2,4.4 -4.8,6.5 0.4,0.5 1.1,0.1 1.5,0.4 6.5,-0.4 13.8,0.6 19.7,-1.8"
           style="fill:#ffffff;fill-opacity:1;fill-rule:nonzero;stroke:none"
           id="path364"
           inkscape:connector-curvature="0" /><path
           d="m 389.5,307.9 c 1,-1.5 2.5,-3 2.5,-4.8 -2.3,-1.3 -2.9,2 -4.5,3.1 -5.2,3.8 -10.6,7.5 -16.5,9.7 -0.9,0.8 -2.1,1.6 -2.2,2.9 l 0.7,0.9 c 7.2,-2.6 14,-6.2 20,-11.8"
           style="fill:#ffffff;fill-opacity:1;fill-rule:nonzero;stroke:none"
           id="path366"
           inkscape:connector-curvature="0" /><path
           d="m 487.1,312.4 c 1.1,-2.4 1,-5.4 1,-8.1 l -0.4,-0.3 c -3.7,0.8 -7.2,2.2 -10.9,3.4 -1.2,2.5 -2.3,5 -3.3,7.7 l 0.2,0.4 c 4.2,-1.6 9.4,-1 13.4,-3.1"
           style="fill:#ffffff;fill-opacity:1;fill-rule:nonzero;stroke:none"
           id="path368"
           inkscape:connector-curvature="0" /><path
           d="m 447.1,310.4 -0.2,-5.1 c -2.4,-5.6 -7.2,-10.6 -12.4,-14.1 -1.1,-0.2 -2,-0.9 -3.2,-1 l 0,0.5 c 4.4,4.6 9.1,9 11.4,14.5 3,1.4 -0.5,6.8 3.9,5.8 l 0.5,-0.6 z"
           style="fill:#ffffff;fill-opacity:1;fill-rule:nonzero;stroke:none"
           id="path370"
           inkscape:connector-curvature="0" /><path
           d="m 505,304.7 c 0.4,-2.3 -0.9,-4.1 -2.7,-5.2 -2.3,-0.1 -4,1.5 -6.3,1 l -0.3,0.3 -0.4,9.9 c 1.1,0.5 2.3,-0.3 3.4,-0.6 2.3,-1.1 5.7,-2.3 6.3,-5.4"
           style="fill:#ffffff;fill-opacity:1;fill-rule:nonzero;stroke:none"
           id="path372"
           inkscape:connector-curvature="0" /><path
           d="m 279.3,307.1 c 1.8,-2.2 2.3,-4.9 4.5,-6.9 0,-0.3 0.1,-0.7 0.1,-0.9 -1.5,-0.3 -2.8,-0.7 -4.1,-1.4 -5.4,-0.9 -10.3,1.1 -14.4,4.1 -1.8,-0.1 -3.6,0 -5.3,0.3 2.8,1.6 5.7,3.9 8.7,5.4 3.6,0 6.7,1.3 9.8,2.6 0.6,-0.9 0.3,-2.2 0.7,-3.2"
           style="fill:#ffffff;fill-opacity:1;fill-rule:nonzero;stroke:none"
           id="path374"
           inkscape:connector-curvature="0" /><path
           d="m 345.8,306.3 c 0.4,-0.8 1.3,-0.4 1.9,-0.8 2.3,-0.9 3.5,-3.3 5.8,-4.4 2.3,-1.1 4.8,-2.3 6.8,-4.2 l -0.5,-0.1 c 1.2,-1.6 3.7,-1.5 4.6,-3.7 -0.5,-1.1 -2,-1.6 -3,-0.8 -0.9,2 -2,-0.5 -3.3,0.7 -0.5,0.6 0,1.4 0,2.1 -0.3,1.2 -2.3,1.6 -1.6,3 -3.3,2 -6.8,3.5 -10.1,5.3 -1.8,0.4 -3.2,1.4 -4.6,2.7 -0.6,0.4 -0.3,1 -0.2,1.6 0.3,0.7 1.1,0.7 1.7,0.5 0.8,-0.6 1.3,-1.8 2.5,-1.9"
           style="fill:#ffffff;fill-opacity:1;fill-rule:nonzero;stroke:none"
           id="path376"
           inkscape:connector-curvature="0" /><path
           d="m 423.4,306.9 -0.1,0.8 0.4,-0.3 -0.3,-0.5 z"
           style="fill:#ffffff;fill-opacity:1;fill-rule:nonzero;stroke:none"
           id="path378"
           inkscape:connector-curvature="0" /><path
           d="m 420.4,306.2 c -0.7,-4.5 -1.9,-9 -5.9,-11.9 -2.1,-2 -4.4,-5.2 -7.4,-5.3 3.5,4.3 6.6,8.8 9.5,13.3 1.1,1.6 0.4,4 2.1,5.2 0.6,-0.3 1.5,-0.5 1.7,-1.3"
           style="fill:#ffffff;fill-opacity:1;fill-rule:nonzero;stroke:none"
           id="path380"
           inkscape:connector-curvature="0" /><path
           d="m 465.3,307.1 0.4,0 -0.4,0 z"
           style="fill:#ffffff;fill-opacity:1;fill-rule:nonzero;stroke:none"
           id="path382"
           inkscape:connector-curvature="0" /><path
           d="m 469.1,306.3 c 0.3,-2.9 -0.1,-5.9 -2.4,-7.9 -1.7,-1.2 -3.6,-2.4 -5.1,-4 -2.8,-0.9 -5.1,-4.8 -8.3,-2.7 4.8,5.5 11.3,8.5 15.5,14.6 l 0.3,0 z"
           style="fill:#ffffff;fill-opacity:1;fill-rule:nonzero;stroke:none"
           id="path384"
           inkscape:connector-curvature="0" /><path
           d="m 463.7,305.5 0.3,-0.4 c -3.4,-3.8 -7.7,-6.5 -11.4,-10.1 -1.8,-0.6 -4,-0.6 -4.9,-2.6 -0.5,-1 -0.2,-2.2 0.3,-3 1.6,-2 4.1,-2.5 6.5,-2.2 1.2,1.8 3.3,1.5 4.8,2.5 2.6,2.5 5.9,3.4 8.3,6.2 2.9,1.4 3.7,4.5 4.8,7.2 l 2.6,-0.2 c 4.4,-2.3 9.2,-4.1 13.2,-7 -2.6,-2.6 -6.5,-3.3 -9.8,-4.7 -2.6,0.2 -5.2,-3.4 -7.3,-0.4 -1.2,0.5 -2.1,-0.5 -3,-1.1 -1.5,-1.5 -1.7,-3.8 -1.2,-5.8 0.3,-0.6 0.7,-1.2 1,-1.8 l -0.4,-0.5 c -1.8,-0.7 -4.7,0.9 -5.6,-1.3 0,-0.8 0.4,-1.5 1.1,-1.7 0.8,-0.4 2.4,0.4 2.5,-0.7 -2.6,-2.9 -6.3,-4.1 -8.6,-7.1 l 0,-0.7 c -12.7,-7 -24.4,-16.5 -37.8,-21.6 -1.1,-0.6 -0.4,-1.7 -0.2,-2.4 0.8,-1.4 2.2,-0.6 3.2,-0.3 7.5,3 14.3,8 22,10.6 5.9,2.4 11,6.6 16.8,9.3 0.6,-0.5 -0.1,-1 -0.3,-1.5 -1.5,-1.6 -3.4,-3.1 -3.8,-5.2 -5.8,-3.9 -11.4,-8.2 -17.8,-10.5 -9.2,-5.4 -19.6,-8 -29.7,-11.2 -6.2,-1.1 -12.1,-2.6 -18.6,-2.9 l -7.8,-0.1 c -14.5,0.4 -28.9,0.4 -42.6,2.8 -5.2,0 -9.8,1.3 -14.4,2.7 -1.1,0.6 -2.3,0.4 -3.3,1.1 -3,-0.2 -5,1.1 -7.7,1.8 -1.5,1.3 -3.7,1.2 -5.4,2.4 -2.8,0.6 -5.4,1.7 -8.2,2.3 -0.8,1.5 -2.5,0.9 -3.7,1.4 -1.8,1 -4.2,0.5 -5.8,1.8 -11.2,1 -23.5,-4.6 -32.9,2.5 -1.2,3.3 -4.6,3.1 -7.2,3.9 l -9.2,2.1 0,0.3 c 4.6,1.9 9.9,0.9 14.9,0.3 1.3,-1.7 3.3,-2.4 5.5,-2.2 l 21.7,1.3 c 3.9,1 8.8,0.8 10.9,5.1 1.9,1.6 -1.3,4.6 1.8,5.3 5.1,0.4 10,1.3 14.4,3.4 2.2,0.8 5.5,0.9 6.2,3.6 1,0.9 2.4,0.9 3.4,1.5 l 0.1,-0.1 c -2.3,-1.4 -3.6,-4.6 -6.2,-5.5 -0.9,-0.8 -1.5,-1.9 -1.2,-3.1 0.3,-0.8 1.8,-1.6 0.7,-2.5 -0.6,-0.6 -0.7,-1.5 -0.6,-2.3 4.6,-4.2 8.9,1.4 13.1,2.6 l 0.6,0.6 c -2.1,-1.4 -4.2,-4.4 -7.3,-4.2 -2.3,-0.9 -5.1,-0.3 -7.6,-0.5 -1.9,-1.3 -4.6,-0.4 -7,-0.7 -0.5,-0.3 -1.2,-0.7 -1.3,-1.4 1,-2.6 3.5,-4.2 5.7,-5.7 0,-2.4 1.5,-4.3 3.1,-6 3.5,-0.8 6.3,-3.3 9.5,-5.1 1.1,-0.3 2.3,-0.7 3.6,-0.7 8.4,-1 15.8,-4.4 24.4,-5 12.6,-1 25.5,-4.1 38.3,-1.5 8.5,0.7 16.7,2.3 23.9,6.2 0.8,0.5 0.6,1.2 0.2,1.8 l -0.6,0.5 c -7,-0.8 -14,-1.9 -21.2,-1.8 -18.8,-0.2 -37.9,1.6 -54.7,7.8 -1.3,0.8 -2.9,1.3 -3.9,2.5 0.5,0.7 1.2,1.5 0.8,2.4 -1.7,1.1 -2.3,2.7 -2.6,4.5 l 0.8,1.6 c 3.9,3.6 6.4,8.9 11.2,10.8 2.4,1.6 5.1,2.4 7.7,2.9 -0.1,-0.5 -0.2,-1 -0.7,-1.3 -1.2,0.4 -2.1,-0.5 -2.4,-1.4 -0.2,-2 0.3,-3.6 1,-5.2 2.4,-1.3 4.9,-3.8 7.9,-2.3 0.6,0.5 0.8,1.4 0.3,1.9 -0.3,0.4 -0.7,0.7 -0.7,1.2 3.3,2.6 5.7,5.9 8.3,8.9 4.5,2.6 9.6,3.6 14.2,5.9 1.3,-1.9 0.9,-5.4 4,-5.8 1.1,-1.4 3,-1.5 4.5,-1 3.1,0.7 3.6,4.1 6.1,5.8 1.1,3.2 4,4.3 6.7,5.6 2,0.6 0.6,-2.3 1.7,-3 0.4,-0.9 1.1,-1.8 1.9,-2.3 1.9,0.1 4,0.8 4.8,2.7 0.6,1.5 2.5,1.5 3.6,2.6 3.9,3.3 8.2,6.9 9.7,11.6 1,1.2 0.6,2.8 1.7,4 5.1,0.1 10.8,-0.5 15.5,0.9 0.7,-0.7 -0.4,-1.3 -0.6,-1.9 -1.9,-3.7 -5.8,-6.4 -8.5,-9.6 -1.3,0.1 -3,0.8 -4.2,-0.1 -0.9,-0.7 -0.9,-1.6 -1.2,-2.5 0.6,-3.1 3.2,-5.4 6.1,-6 2,0.1 3.9,0.9 4.9,2.5 -1,1.3 0.4,2 1.5,2.4 1,1.6 2.7,2.1 4,3.2 3.2,2.3 4.6,5.5 7.1,8.3 0.6,1.7 1.4,3.6 2.8,4.7 4.2,1 8.7,0.1 12.9,-0.1"
           style="fill:#ffffff;fill-opacity:1;fill-rule:nonzero;stroke:none"
           id="path386"
           inkscape:connector-curvature="0" /><path
           d="m 476.3,305.1 0.2,-0.7 -0.2,0.7 z"
           style="fill:#ffffff;fill-opacity:1;fill-rule:nonzero;stroke:none"
           id="path388"
           inkscape:connector-curvature="0" /><path
           d="m 397.5,303.3 c 1.2,-1.6 -1.8,-2.7 0.2,-4 -1,-5.5 -3.2,-10.6 -6.9,-15.1 -0.1,-0.7 -0.6,-1.4 -1.3,-1.7 -1.9,0.8 -2.3,-2.3 -4.2,-1.2 0.3,2.3 3.2,3.9 4.3,6 1.6,5.3 5.3,9.7 6.1,15.3 0.4,0.5 1.1,1.9 1.8,0.7"
           style="fill:#ffffff;fill-opacity:1;fill-rule:nonzero;stroke:none"
           id="path390"
           inkscape:connector-curvature="0" /><path
           d="m 299.6,301.3 c 6.1,-0.3 13.4,2.3 18.5,-1.7 1.8,-1.4 4.3,-1.3 6.2,-2.4 4.5,-0.8 9.3,-1.9 12.4,-5.1 0.7,0.8 1.3,-0.2 1.9,-0.4 0.8,-1.8 3.4,-0.6 4.4,-2.6 0.8,0 1.1,-0.9 1.5,-1.4 0.2,-0.7 -0.4,-1.3 -0.9,-1.6 -4.1,-1.3 -5.5,3.7 -9.2,3.6 -1.9,2 -4.6,2.4 -6.9,3.8 -3.8,2.2 -7.6,5 -12.2,5.1 -6.1,-3.5 -12,1.8 -18.6,1.1 -1.4,0.6 -2.7,1.5 -4.4,1.3 -0.8,0.6 -2.1,0.6 -2.4,1.6 0.7,0.5 2,0.4 2.9,0.1 l 6.8,-1.4 z"
           style="fill:#ffffff;fill-opacity:1;fill-rule:nonzero;stroke:none"
           id="path392"
           inkscape:connector-curvature="0" /><path
           d="m 412.6,301.7 c -2.8,-2.3 -2.9,-8.2 -7.8,-7.4 -1.8,-0.5 -3.7,-1.5 -5.6,-1 0.4,2.2 1.7,3.9 1.5,6.3 3.6,1.5 7.7,1.8 11.7,2.5 l 0.2,-0.4 z"
           style="fill:#ffffff;fill-opacity:1;fill-rule:nonzero;stroke:none"
           id="path394"
           inkscape:connector-curvature="0" /><path
           d="m 484.7,300.4 -2.2,1.1 1.6,-0.5 0.6,-0.6 z"
           style="fill:#ffffff;fill-opacity:1;fill-rule:nonzero;stroke:none"
           id="path396"
           inkscape:connector-curvature="0" /><path
           d="m 389.6,299.9 0.2,0 0,0.2 -0.2,0 0,-0.2 z"
           style="fill:#ffffff;fill-opacity:1;fill-rule:nonzero;stroke:none"
           id="path398"
           inkscape:connector-curvature="0" /><path
           d="m 495.4,297.4 c -0.1,-1.9 -2.1,-3.1 -3.5,-4.2 -3.4,-1.1 -6.1,-3.9 -9.4,-5.1 -3.5,-1.1 -6.8,-3.3 -10.7,-2.4 5.1,3.6 12.1,3.9 17.6,7.2 l 5.4,4.9 c 0.3,0.1 0.4,-0.3 0.6,-0.4"
           style="fill:#ffffff;fill-opacity:1;fill-rule:nonzero;stroke:none"
           id="path400"
           inkscape:connector-curvature="0" /><path
           d="m 390.8,297.4 c -0.4,-2.3 -2.1,-4.1 -3.1,-6.1 -5,-1.5 -10.4,-1.9 -15.3,-3.8 l -0.3,0.1 c 0.2,1.6 1.2,3.2 1.4,5 l 0.6,0.6 c 5.4,1.8 11,2.9 16.4,4.5 l 0.3,-0.3 z"
           style="fill:#ffffff;fill-opacity:1;fill-rule:nonzero;stroke:none"
           id="path402"
           inkscape:connector-curvature="0" /><path
           d="m 375.4,297.5 c -0.2,0 -0.3,-0.2 -0.5,-0.3 0.1,0.2 0.3,0.5 0.5,0.3"
           style="fill:#ffffff;fill-opacity:1;fill-rule:nonzero;stroke:none"
           id="path404"
           inkscape:connector-curvature="0" /><path
           d="m 370.7,295.3 c -0.1,-0.9 -2.1,-1.9 -0.7,-2.9 -0.5,-5.8 -6.1,-9.5 -9,-14.3 -2,-2.7 -4.6,-5.3 -6.8,-7.7 -0.9,0 -1.7,0.3 -2.1,1.1 0.3,1.3 1.1,2.5 2,3.4 4.1,4.8 9.3,9.5 11.8,15.1 0.8,0.4 1.7,1 2,1.9 0.2,1 -0.4,1.8 -0.5,2.6 1,0.5 2.4,1.7 3.3,0.8"
           style="fill:#ffffff;fill-opacity:1;fill-rule:nonzero;stroke:none"
           id="path406"
           inkscape:connector-curvature="0" /><path
           d="m 280.3,288.3 c 4.6,-2.2 5.6,-7.7 10.1,-9.7 4.4,0.4 6.7,-4.2 10,-6.3 -1.2,-1.2 -2.1,0.8 -3.3,0.9 -2.7,1 -6.6,0.9 -7.5,4.5 -3.4,2.2 -8.5,2.2 -10.2,6.6 -0.2,2.9 -3.4,4.4 -5.6,5.2 -1.9,0.1 -4.6,-1 -5.9,1.1 -0.6,0.4 -0.7,1 -0.8,1.7 3.8,2.5 6.7,-1.8 10.2,-2.6 l 3,-1.4 z"
           style="fill:#ffffff;fill-opacity:1;fill-rule:nonzero;stroke:none"
           id="path408"
           inkscape:connector-curvature="0" /><path
           d="m 362.1,289.7 c -0.6,-2.3 -2,-4.7 -4.2,-6 -2,-0.2 -3.8,-1.6 -5.8,-1 l -11,-2.6 c -0.3,1.1 0.8,2.1 1.6,3 1.6,0.5 3.3,1.2 4.4,2.9 0.2,0.6 0.1,1.2 0.1,1.8 4,1.5 8.7,1.4 12.7,2.9 1,0.2 1.4,-0.8 2.2,-1"
           style="fill:#ffffff;fill-opacity:1;fill-rule:nonzero;stroke:none"
           id="path410"
           inkscape:connector-curvature="0" /><path
           d="m 491.6,288.2 c 0.5,-3.8 -4.1,-4.1 -6.3,-5.7 -4.8,-1.4 -10.3,-0.8 -15.3,-0.9 0.5,2.8 3.6,0.5 5.3,1.5 4,1.1 8.1,2.1 11.6,4.5 1.8,-0.5 3.9,4.3 4.7,0.6"
           style="fill:#ffffff;fill-opacity:1;fill-rule:nonzero;stroke:none"
           id="path412"
           inkscape:connector-curvature="0" /><path
           d="m 335.8,286.1 c -0.4,-0.5 -0.5,-1.2 -1.2,-1.6 0.8,-0.5 0.5,-1.5 0.4,-2.1 -1,-0.4 -0.5,-1.4 -1,-2 -3.5,-1.2 -4.1,-5.5 -7.1,-7.2 -1.7,-1.7 -3.7,-3.6 -6.1,-3.5 -1.1,0.7 -0.3,2 -0.2,2.9 2.6,3.3 6.6,4 8.7,7.7 1.6,1 2.1,3.4 4.1,4.3 0.2,0.7 0.1,1.9 1,2.5 0.6,0 1.1,-0.5 1.4,-1"
           style="fill:#ffffff;fill-opacity:1;fill-rule:nonzero;stroke:none"
           id="path414"
           inkscape:connector-curvature="0" /><path
           d="m 318.1,266.2 -0.2,0.4 0.2,-0.1 0,-0.3 z"
           style="fill:#ffffff;fill-opacity:1;fill-rule:nonzero;stroke:none"
           id="path416"
           inkscape:connector-curvature="0" /></g></g></g></svg>