<?xml version="1.0" encoding="UTF-8" standalone="no"?>
<!-- Created with Inkscape (http://www.inkscape.org/) -->

<svg
   xmlns:dc="http://purl.org/dc/elements/1.1/"
   xmlns:cc="http://creativecommons.org/ns#"
   xmlns:rdf="http://www.w3.org/1999/02/22-rdf-syntax-ns#"
   xmlns:svg="http://www.w3.org/2000/svg"
   xmlns="http://www.w3.org/2000/svg"
   xmlns:sodipodi="http://sodipodi.sourceforge.net/DTD/sodipodi-0.dtd"
   xmlns:inkscape="http://www.inkscape.org/namespaces/inkscape"
   id="svg2"
   version="1.1"
   inkscape:version="0.48.4 r9939"
   width="321.14374"
   height="181.05"
    viewBox = "0 0 321 181"
   xml:space="preserve"
   sodipodi:docname="Baseball (6).pdf"><metadata
     id="metadata8"><rdf:RDF><cc:Work
         rdf:about=""><dc:format>image/svg+xml</dc:format><dc:type
           rdf:resource="http://purl.org/dc/dcmitype/StillImage" /><dc:title></dc:title></cc:Work></rdf:RDF></metadata><defs
     id="defs6"><clipPath
       clipPathUnits="userSpaceOnUse"
       id="clipPath16"><path
         d="M 0,792 612,792 612,0 0,0 0,792 z"
         id="path18"
         inkscape:connector-curvature="0" /></clipPath></defs><sodipodi:namedview
     pagecolor="#ffffff"
     bordercolor="#666666"
     borderopacity="1"
     objecttolerance="10"
     gridtolerance="10"
     guidetolerance="10"
     inkscape:pageopacity="0"
     inkscape:pageshadow="2"
     inkscape:window-width="640"
     inkscape:window-height="480"
     id="namedview4"
     showgrid="false"
     fit-margin-top="0"
     fit-margin-left="0"
     fit-margin-right="0"
     fit-margin-bottom="0"
     inkscape:zoom="0.67425131"
     inkscape:cx="133.9214"
     inkscape:cy="68.417566"
     inkscape:window-x="0"
     inkscape:window-y="0"
     inkscape:window-maximized="0"
     inkscape:current-layer="g10" /><g
     id="g10"
     inkscape:groupmode="layer"
     inkscape:label="Baseball (6)"
     transform="matrix(1.25,0,0,-1.25,-221.86375,580.9225)"><g
       id="g12"><g
         id="g14"
         clip-path="url(#clipPath16)"><path
           d="m 397.387,421.099 c 1.296,-1.467 1.983,-2.336 1.983,-2.336 -19.144,34.547 -46.209,39.106 -61.223,38.59 18.067,-2.107 38.967,-11.461 59.24,-36.254"
           style="fill:#231f20;fill-opacity:1;fill-rule:nonzero;stroke:none"
           id="path20"
           inkscape:connector-curvature="0" /><path
           d="m 384.182,437.017 c -7.033,7.145 -14.399,11.693 -21.406,14.533 7.411,-3.599 14.553,-8.449 21.406,-14.533"
           style="fill:#ffffff;fill-opacity:1;fill-rule:nonzero;stroke:none"
           id="path22"
           inkscape:connector-curvature="0" /><path
           d="m 189.444,392.043 c 0,0 17.231,13.665 32.678,21.982 0,0 20.203,10.101 36.839,24.955 0,0 19.608,14.853 32.085,18.42 0,0 -19.014,-0.596 -40.998,-19.609 0,0 -12.477,-11.881 -30.896,-20.202 0,0 -20.796,-11.437 -29.708,-25.546"
           style="fill:#231f20;fill-opacity:1;fill-rule:nonzero;stroke:none"
           id="path24"
           inkscape:connector-curvature="0" /><path
           d="m 250.999,436.718 c -0.746,-0.707 -12.982,-12.164 -31.187,-20.402 -0.375,-0.207 -12.004,-6.713 -21.348,-15.744 6.379,4.58 14.935,10.383 22.98,14.713 0.239,0.121 20.269,10.215 36.563,24.763 l 0.043,0.037 0.046,0.036 c 0.538,0.408 9.177,6.914 18.606,12.293 -7.07,-2.69 -16.107,-7.399 -25.703,-15.696"
           style="fill:#ffffff;fill-opacity:1;fill-rule:nonzero;stroke:none"
           id="path26"
           inkscape:connector-curvature="0" /><path
           d="m 258.187,343.242 c 0,0 7.199,8.139 12.596,18.539 0,0 17.995,33.014 52.635,47.937 0,0 21.593,7.688 38.239,-1.357 0,0 -26.543,10.853 -59.383,-15.375 0,0 -15.746,-13.115 -22.494,-24.422 0,0 -13.047,-23.513 -21.593,-25.322"
           style="fill:#231f20;fill-opacity:1;fill-rule:nonzero;stroke:none"
           id="path28"
           inkscape:connector-curvature="0" /><path
           d="m 323.944,408.384 c -33.734,-14.552 -51.726,-46.962 -51.904,-47.288 -2.047,-3.944 -4.332,-7.547 -6.4,-10.522 5.232,5.875 10.572,14.512 12.888,18.686 6.818,11.424 22.179,24.285 22.829,24.828 13.182,10.525 25.41,15.165 35.426,16.931 -7.143,-0.717 -12.423,-2.49 -12.839,-2.635"
           style="fill:#ffffff;fill-opacity:1;fill-rule:nonzero;stroke:none"
           id="path30"
           inkscape:connector-curvature="0" /><path
           d="m 309.022,393.438 c 0,0 26.092,18.993 50.386,11.759 0,0 29.691,-7.69 58.032,-52.459 0,0 -27.89,38.44 -60.282,47.482 0,0 -17.545,5.879 -48.136,-6.782"
           style="fill:#231f20;fill-opacity:1;fill-rule:nonzero;stroke:none"
           id="path32"
           inkscape:connector-curvature="0" /><path
           d="m 324.128,400.035 c 20.875,5.418 33.357,1.884 34.043,1.199 l -0.627,0.367 c 13.711,-3.83 26.508,-12.695 36.816,-21.783 -19.31,19.555 -35.099,23.935 -35.312,23.992 -12.392,3.69 -25.396,0.275 -34.92,-3.775"
           style="fill:#ffffff;fill-opacity:1;fill-rule:nonzero;stroke:none"
           id="path34"
           inkscape:connector-curvature="0" /><path
           d="m 301.374,447.705 c 89.075,23.968 129.562,-102.654 129.562,-102.654 -10.346,39.795 -31.04,70.093 -31.04,70.093 -1.432,1.92 -2.87,3.742 -4.309,5.502 -7.492,8.479 -35.467,37.061 -70.369,34.746 0,0 4.328,1.275 11.129,1.508 -29.125,4.642 -58.071,-17.426 -58.071,-17.426 16.048,19.776 52.94,25.264 52.94,25.264 -59.983,-5.426 -69.206,-33.063 -102.272,-49.141 -13.097,-6.369 -23.736,-13.23 -32.14,-19.58 -2.655,-1.667 -5.108,-3.622 -7.309,-5.833 -7.418,-7.454 -12.004,-17.727 -12.004,-29.071 0,-22.763 18.452,-41.215 41.214,-41.215 11.204,0 21.358,4.477 28.788,11.733 2.604,2.543 4.87,5.428 6.731,8.584 11.974,16.537 18.359,32.42 18.359,32.42 31.941,59.241 71.529,49.292 71.529,49.292 -33.74,0.906 -56.683,-32.558 -56.683,-32.558 50.384,52.91 99.871,10.4 99.871,10.4 -11.246,4.975 -22.494,6.33 -22.494,6.33 48.824,-17.22 67.882,-79.523 69.6,-85.462 -41.449,148.275 -133.032,127.068 -133.032,127.068"
           style="fill:#231f20;fill-opacity:1;fill-rule:nonzero;stroke:none"
           id="path36"
           inkscape:connector-curvature="0" /><path
           d="m 257.295,432.824 c -8.232,-6.479 -16.744,-13.176 -27.724,-18.516 -11.507,-5.594 -22.241,-12.133 -31.904,-19.433 l -0.049,-0.035 -0.053,-0.035 c -2.569,-1.616 -4.943,-3.51 -7.054,-5.631 -7.472,-7.506 -11.587,-17.473 -11.587,-28.061 0,-21.935 17.846,-39.783 39.781,-39.783 10.441,0 20.309,4.024 27.786,11.326 2.524,2.465 4.711,5.252 6.498,8.285 l 0.034,0.057 0.04,0.057 c 11.724,16.191 18.127,31.957 18.191,32.115 l 0.03,0.074 0.037,0.07 c 16.717,31.006 35.616,42.963 48.527,47.533 14.484,5.129 24.637,2.467 24.727,2.436 l 7.871,-1.793 c -22.85,0 -36.184,-7.233 -45.753,-14.557 19.113,11.549 36.886,11.649 49.767,8.899 18.8,-4.014 31.249,-14.53 31.771,-14.975 l 4.645,-4.414 c -5.273,2.197 -10.547,4.394 -14.859,5.223 19.652,-11.027 33.492,-29.119 42.721,-45.494 -7.409,17.894 -16.063,33.348 -25.884,46.163 -12.572,16.407 -27.169,28.356 -43.093,36.12 -29.198,14.236 -58.415,6.818 -58.639,6.765 l 7.88,3.869 c 20.675,5.563 40.477,3.53 58.856,-6.043 14.635,-7.621 28.379,-20.011 40.851,-36.828 6.368,-8.586 11.749,-17.472 16.173,-25.716 -9.025,20.308 -18.033,33.634 -18.169,33.833 -1.269,1.702 -2.664,3.485 -4.234,5.405 -7.573,8.568 -38.238,36.531 -72.354,34.269 0,0 1.757,1.319 2.85,1.85 -18.67,1.666 -49.095,-19.121 -49.279,-19.25 0,0 0.287,2.291 4.299,6.879 4.012,4.586 14.861,11.457 22.633,14.617 -20.836,-6.063 -33.256,-15.777 -45.333,-25.281"
           style="fill:#ffffff;fill-opacity:1;fill-rule:nonzero;stroke:none"
           id="path38"
           inkscape:connector-curvature="0" /><path
           d="m 400.563,408.742 c -1.851,3.039 -3.001,4.742 -3.033,4.787 -1.236,1.652 -2.607,3.404 -4.16,5.304 -2.935,3.321 -8.229,8.356 -15.099,13.53 7.786,-6.453 15.238,-14.346 22.292,-23.621 m -142.382,22.957 -0.002,-0.002 c -8.291,-6.524 -16.864,-13.27 -27.982,-18.676 -11.423,-5.555 -22.077,-12.045 -31.667,-19.289 l -0.049,-0.035 -0.099,-0.07 -0.051,-0.033 c -2.48,-1.559 -4.769,-3.385 -6.805,-5.432 -7.203,-7.236 -11.17,-16.842 -11.17,-27.049 0,-21.146 17.204,-38.351 38.349,-38.351 10.064,0 19.577,3.879 26.786,10.918 2.433,2.377 4.541,5.064 6.265,7.988 l 0.034,0.059 0.074,0.113 0.039,0.055 c 11.591,16.007 17.958,31.652 18.022,31.808 0,0.002 0.058,0.149 0.058,0.149 l 0.079,0.142 c 16.933,31.408 36.16,43.548 49.307,48.203 14.946,5.293 25.577,2.472 25.673,2.441 l -0.148,0.041 7.871,-1.791 7.172,-2.441 c -11.459,0.478 -21.069,-1.139 -26.522,-2.373 9.068,1.25 17.092,0.494 23.345,-0.842 19.151,-4.09 31.87,-14.832 32.403,-15.287 0.054,-0.049 4.699,-4.465 4.699,-4.465 l 4.27,-5.679 c -3.819,2.865 -8.815,4.564 -10.311,5.163 8.461,-6.185 16.274,-14.036 23.367,-23.523 -5.338,10.422 -11.178,19.813 -17.47,28.023 -12.129,15.828 -26.25,28.28 -42.584,35.703 -34.646,15.747 -59.232,5.536 -60.428,5.243 0,0 2.438,2.34 2.146,3.127 -7.259,-3.69 -18.761,-10.569 -18.875,-10.647 0,0 0.286,2.578 2.579,6.59 2.293,4.014 8.74,7.768 10.189,9.076 -11.591,-5.517 -20.185,-12.264 -28.564,-18.857 m 51.318,20.662 c 3.178,0.531 6.334,0.898 9.465,1.068 0.637,0.479 0.825,0.619 1.326,0.994 -3.492,-0.228 -7.146,-0.976 -10.791,-2.062"
           style="fill:#231f20;fill-opacity:1;fill-rule:nonzero;stroke:none"
           id="path40"
           inkscape:connector-curvature="0" /><path
           d="m 321.259,433.015 c 0,0 -29.265,2.125 -83.803,-46.777 l 13.302,-36.144 c 0,0 11.085,15.308 19.51,39.547 0,0 10.198,29.765 50.991,43.374"
           style="fill:#ffffff;fill-opacity:1;fill-rule:nonzero;stroke:none"
           id="path42"
           inkscape:connector-curvature="0" /><path
           d="m 239.528,385.715 c 0.711,-1.93 9.777,-26.565 11.69,-31.762 3.501,5.453 11.203,18.485 17.383,36.268 0.364,1.06 8.188,22.777 36.177,37.634 -13.674,-4.689 -35.701,-15.82 -65.25,-42.14"
           style="fill:#231f20;fill-opacity:1;fill-rule:nonzero;stroke:none"
           id="path44"
           inkscape:connector-curvature="0" /><path
           d="m 241.604,385.184 c 0.681,-1.85 8.289,-22.524 10.02,-27.227 3.757,6.24 10.107,17.873 15.311,32.842 0.248,0.724 5.092,14.251 20.494,27.402 -12.108,-6.493 -27.466,-16.774 -45.825,-33.017"
           style="fill:#ffffff;fill-opacity:1;fill-rule:nonzero;stroke:none"
           id="path46"
           inkscape:connector-curvature="0" /><path
           d="m 181.74,360.754 c 0,20.269 16.433,36.701 36.702,36.701 20.272,0 36.704,-16.432 36.704,-36.701 0,-20.272 -16.432,-36.703 -36.704,-36.703 -20.269,0 -36.702,16.431 -36.702,36.703"
           style="fill:#231f20;fill-opacity:1;fill-rule:nonzero;stroke:none"
           id="path48"
           inkscape:connector-curvature="0" /><path
           d="m 189.153,357.549 0.004,0 c 0,0 -0.01,0.004 -0.011,0.004 0.002,0 0.004,-0.004 0.007,-0.004 m 28.16,20.892 0.01,0 c 0,0 -0.014,0.004 -0.02,0.004 0.005,0 0.007,-0.004 0.01,-0.004"
           style="fill:#231f20;fill-opacity:1;fill-rule:nonzero;stroke:none"
           id="path50"
           inkscape:connector-curvature="0" /><path
           d="m 184.97,367.238 0.296,0.016 0.237,-0.006 0.586,0.736 c 0.455,0.323 1.014,0.368 1.457,0.114 l 0.83,-0.127 c 0,0 0.244,-0.053 0.365,-0.08 -0.053,0.326 0.006,0.978 0.006,0.978 0,0 0.26,0.615 0.897,0.883 0.635,0.271 0.882,0.055 0.882,0.055 0.016,-0.002 0.926,-0.184 0.926,-0.184 0,0 0.246,-0.055 0.352,-0.076 -0.046,0.066 -0.105,0.154 -0.105,0.154 l 0.005,0.102 -0.049,0.902 c 0,0 0.272,0.756 0.711,1.053 0.44,0.297 0.935,0.32 0.935,0.32 l 0.204,-0.025 1.146,-0.217 c 0,0 0.277,-0.057 0.446,-0.092 -0.005,0.008 -0.013,0.01 -0.018,0.02 -0.009,0.011 -0.187,0.804 -0.187,0.998 -0.002,0.195 0.1,0.547 0.1,0.547 l 0.593,0.734 c 0.46,0.318 1.093,0.232 1.093,0.232 l 0.686,-0.099 c 0,0 0.469,-0.084 0.905,-0.164 -0.034,0.045 -0.102,0.111 -0.121,0.138 l -0.127,0.194 -0.009,0.109 c 0,0 -0.211,0.338 0.009,1.256 0.22,0.918 1.602,1.029 1.602,1.029 l 0.17,-0.021 c 0,0 1.056,-0.164 1.05,-0.151 -0.045,0.163 -0.231,0.75 -0.237,1.071 -0.005,0.318 0.192,0.695 0.666,1.099 0.476,0.405 0.95,0.319 0.95,0.319 0.058,-0.004 1.331,-0.078 1.331,-0.078 0,0 0.233,-0.016 0.356,-0.024 -0.092,0.082 -0.195,0.149 -0.265,0.254 l 0,0.002 c 0,0.045 -0.287,0.818 -0.243,1.225 0.043,0.402 0.291,0.65 0.477,0.875 0.268,0.341 0.674,0.564 1.149,0.541 0.023,-0.002 1.183,-0.071 1.193,-0.073 -0.074,0.075 -0.167,0.125 -0.225,0.211 -0.172,0.254 -0.26,0.545 -0.26,0.838 0,0.125 0.062,0.24 0.094,0.363 0.063,0.206 0.123,0.68 0.442,0.993 0.319,0.314 1.134,0.379 1.134,0.379 0,0 0.213,-0.016 0.52,-0.036 -0.061,0.086 -0.126,0.163 -0.168,0.264 -0.283,0.678 -0.108,1.348 -0.108,1.348 0,0 0.107,0.267 0.446,0.549 0.249,0.294 0.597,0.498 1.019,0.503 -0.028,0.122 -0.086,0.227 -0.086,0.354 0,0.031 0,0.059 0.002,0.09 l 0.02,0.353 c 0,0 0.19,0.555 0.508,0.803 0.211,0.205 0.599,0.287 1.107,0.262 0,0 0.041,0 0.061,-0.002 -0.031,0.101 -0.052,0.18 -0.052,0.18 0.001,0 0.083,0.83 0.606,1.228 0.522,0.398 0.816,0.266 0.816,0.266 0,0 0.2,0.007 0.237,0.009 -0.129,0.465 -0.109,0.653 -0.02,0.928 0.09,0.274 0.195,0.518 0.364,0.67 0.168,0.154 0.327,0.154 0.327,0.154 0,0 0.479,0.186 0.491,0.194 -0.006,0.051 -0.056,0.115 -0.056,0.166 0,0.163 0.04,0.302 0.087,0.426 0.055,0.172 0.145,0.377 0.299,0.576 0.178,0.131 0.784,0.58 0.784,0.58 0.029,0.01 0.134,0.031 0.216,0.049 -0.195,0.339 -0.125,0.445 -0.125,0.445 0,0 -0.017,0.478 0.505,0.732 l -0.001,0 c 0.001,0 0.04,0.105 -0.055,-0.004 -5.128,-0.321 -10.099,-1.706 -14.447,-4.146 l -1.113,-0.656 c -5.033,-3.059 -9.179,-7.416 -11.993,-12.6 -1.923,-3.539 -3.158,-7.31 -3.753,-11.228 0.049,0.06 0.318,0.127 0.318,0.127 l 0.809,0.093 z"
           style="fill:#ffffff;fill-opacity:1;fill-rule:nonzero;stroke:none"
           id="path52"
           inkscape:connector-curvature="0" /><path
           d="m 213.591,393.428 c -0.025,-0.046 -0.044,-0.104 -0.065,-0.158 -0.04,-0.126 -0.062,-0.237 -0.065,-0.301 l 0.13,0.459 z"
           style="fill:#ffffff;fill-opacity:1;fill-rule:nonzero;stroke:none"
           id="path54"
           inkscape:connector-curvature="0" /><path
           d="m 200.679,391.49 c 0.008,0.005 0.015,0.008 0.023,0.012 l 0.016,0.01 -0.039,-0.022 z"
           style="fill:#ffffff;fill-opacity:1;fill-rule:nonzero;stroke:none"
           id="path56"
           inkscape:connector-curvature="0" /><path
           d="m 253.396,362.139 c -0.083,-0.075 -0.157,-0.153 -0.258,-0.2 -0.235,-0.058 -0.929,-0.187 -0.929,-0.187 l -0.216,0.064 c 0,0 -1.269,0.475 -1.339,0.5 -0.026,-0.375 0.048,-0.707 -0.055,-0.855 -0.104,-0.148 -0.629,-0.703 -0.91,-0.844 -0.28,-0.138 -1.052,-0.107 -1.052,-0.107 l 0.016,0.068 c 0,0 -0.369,0.1 -0.527,0.143 0,-0.018 -0.002,-0.037 -0.002,-0.059 0.002,-0.012 0.002,-0.023 0.002,-0.025 0,-0.012 -0.006,0.039 -0.012,0.088 l -0.002,0 c 0.014,-0.106 0.047,-0.385 0.047,-0.385 l -0.149,-0.348 c 0,0 -0.263,-0.326 -0.414,-0.513 -0.232,-0.272 -0.513,-0.434 -0.804,-0.434 -0.346,-0.061 -0.365,-0.057 -0.365,-0.057 l -0.846,0.069 c 0,0 -0.41,0.05 -0.766,0.095 0.065,-0.324 0.135,-0.693 0.155,-0.797 -0.049,-0.433 -0.273,-0.857 -0.629,-1.097 0,0 -0.207,-0.344 -0.945,-0.313 0,0 -0.809,0.053 -1.583,0.102 0.046,-0.242 0.187,-0.953 0.209,-1.072 -0.033,-0.557 -0.607,-1.084 -0.613,-1.08 -0.006,0 -0.719,-0.325 -0.957,-0.329 -0.238,-0.003 -0.783,0.028 -0.783,0.028 0,0 -0.476,0.035 -0.933,0.07 0.097,-0.1 0.202,-0.213 0.24,-0.268 0.025,-0.037 0.3,-0.687 0.287,-1.21 -0.012,-0.524 -0.522,-0.864 -0.612,-1.01 -0.265,-0.248 -0.603,-0.422 -1.005,-0.403 -0.008,0 -0.473,0.028 -1.03,0.065 0.008,-0.043 0.213,-1.084 0.229,-1.164 -0.034,-0.354 -0.168,-0.639 -0.366,-0.871 -0.271,-0.379 -0.693,-0.631 -1.181,-0.617 l 0.004,0 c 0,-0.004 -0.633,-0.051 -0.633,-0.051 0,0 -0.848,-0.037 -1.496,-0.071 0.302,-0.154 0.68,-0.273 0.871,-0.521 0.19,-0.252 0.242,-1.068 0.26,-1.141 -0.036,-0.357 -0.172,-0.642 -0.373,-0.875 -0.276,-0.381 -0.7,-0.627 -1.184,-0.607 0.004,0 0.006,0 0.006,-0.002 0,-0.006 -0.67,-0.057 -0.67,-0.057 0,0 -0.168,-0.006 -0.205,-0.007 0.26,-0.118 0.485,-0.28 0.629,-0.502 0,-0.016 0.229,-1.008 0.256,-1.129 -0.033,-0.36 -0.168,-0.649 -0.371,-0.883 -0.272,-0.371 -0.684,-0.615 -1.161,-0.606 0.063,-0.148 0.308,-0.379 0.35,-0.849 0.041,-0.469 -0.256,-0.94 -0.533,-1.199 -0.262,-0.313 -0.594,-0.528 -0.983,-0.532 0.043,0 0.086,0.002 0.086,0.002 0,0 -0.414,-0.054 -0.675,-0.092 0.098,-0.078 0.212,-0.099 0.293,-0.228 0,-0.014 0.31,-0.234 0.308,-0.99 -0.002,-0.754 -0.588,-1.166 -0.588,-1.166 0,0 -0.255,-0.082 -0.508,-0.166 0.01,-0.034 0.313,-0.436 0.296,-0.965 -0.016,-0.528 -0.243,-0.787 -0.243,-0.787 -0.003,-0.006 -0.635,-0.584 -0.635,-0.584 -0.033,-0.018 -0.009,-0.002 -0.009,-0.002 l -0.192,-0.123 -0.284,-0.053 c 0,0 -0.233,-0.033 -0.414,-0.055 0.06,-0.127 0.235,-0.261 0.255,-0.554 0,-0.647 -0.617,-1.207 -0.617,-1.207 0,0 -0.101,-0.041 -0.133,-0.053 0.248,-0.246 0.317,-0.776 0.317,-0.776 -0.038,-0.671 -0.272,-0.837 -0.272,-0.837 l -0.865,-0.702 c 0,0 -0.34,-0.103 -0.496,-0.15 0.097,-0.127 0.216,-0.193 0.211,-0.564 -0.004,-0.372 -0.241,-0.793 -0.241,-0.793 -0.007,-0.01 -0.541,-0.551 -0.541,-0.551 l -0.183,-0.188 c 0,0 -0.039,0.01 -0.077,0.018 0.074,-0.125 0.182,-0.233 0.202,-0.57 0.018,-0.342 -0.202,-0.889 -0.202,-0.889 0,0 -0.136,-0.108 -0.29,-0.225 0.118,-0.154 0.311,-0.406 0.402,-0.523 1,0.158 1.996,0.328 2.965,0.56 9.138,2.247 16.968,8.295 21.474,16.594 2.74,5.043 4.145,10.621 4.145,16.352 0,0.746 -0.11,1.502 -0.158,2.252"
           style="fill:#ffffff;fill-opacity:1;fill-rule:nonzero;stroke:none"
           id="path58"
           inkscape:connector-curvature="0" /><path
           d="m 224.192,389.107 c 0.033,0.061 0.051,0.128 0.074,0.194 0.03,0.106 0.05,0.201 0.053,0.263 l -0.127,-0.457 z"
           style="fill:#ffffff;fill-opacity:1;fill-rule:nonzero;stroke:none"
           id="path60"
           inkscape:connector-curvature="0" /><path
           d="m 226.415,353.76 c 0,0.002 -0.426,3.092 -0.426,3.092 l 0.008,0.064 c 0.004,0.154 0.091,0.555 0.37,0.908 0.193,0.155 0.406,0.446 0.881,0.565 0.476,0.119 1.149,-0.076 1.149,-0.076 0.34,-0.196 0.85,-1.153 0.85,-1.153 0,0.002 -0.213,1.854 -0.213,1.854 l -0.045,1.07 c 0,0.107 0.144,0.877 0.144,0.877 l 0.211,0.363 0.199,0.178 c 0.108,0.102 0.344,0.146 0.763,0.217 0.027,-0.006 1.624,-0.188 1.771,-0.203 0.002,0.275 0.006,0.498 0.006,0.498 l 0.026,0.963 c 0.021,0.492 0.277,0.962 0.654,1.22 0.018,0.016 0.549,0.254 0.951,0.264 0.4,0.008 1.135,-0.297 1.292,-0.481 0.157,-0.183 0.317,-1 0.317,-1 0,-0.003 0.265,-0.576 0.265,-0.576 0.003,0.086 0.229,2.022 0.229,2.022 l 0.121,0.879 c 0.016,0.375 0.229,0.773 0.597,1.039 0.027,0.015 0.718,0.32 1.054,0.304 0.336,-0.015 0.369,0.045 0.832,-0.316 0.057,-0.072 0.596,-0.75 0.596,-0.75 0.064,0.475 0.136,1.012 0.136,1.012 l 0.203,1.316 0.082,0.115 c 0,0 0.293,0.498 0.567,0.684 0.271,0.184 0.636,0.248 0.636,0.248 l 0.184,0.035 0.189,0.012 c 0.298,-0.014 0.567,-0.15 0.807,-0.334 0.315,-0.18 0.496,-0.518 0.584,-0.889 0.169,0.537 0.484,1.557 0.484,1.557 l 0.299,0.84 c 0,0 0.252,0.584 0.624,0.822 -0.01,-0.006 0.631,0.254 1.097,0.18 0.464,-0.075 1.221,-0.496 1.242,-0.504 0.034,0.183 0.072,0.408 0.072,0.408 l -0.014,-0.127 c 0.026,0.537 0.337,0.947 0.769,1.139 0.343,0.175 0.724,0.197 1.082,0.049 0.185,-0.09 0.581,-0.284 0.593,-0.29 0.008,0.041 0.02,0.1 0.02,0.1 l 0.172,0.27 c 0,0 0.397,0.209 0.564,0.277 0.334,0.135 0.729,0.141 1.096,-0.063 0.004,-0.003 0.094,-0.119 0.199,-0.257 0.067,0.056 0.184,0.068 0.275,0.113 0.011,0.004 0.028,0.019 0.04,0.023 0,0 -0.017,-0.015 -0.018,-0.015 0.029,0.015 0.065,0.019 0.096,0.031 -4.282,15.26 -20.002,22.613 -26.567,23.671 0.336,-0.552 0.95,-1.567 1.017,-1.677 0.148,-0.197 0.265,-0.453 0.265,-0.844 0,-0.039 -0.002,-0.076 -0.004,-0.113 l -0.016,-0.316 -0.088,-0.098 c 0,0 -0.37,-0.521 -0.451,-0.635 -0.035,-0.035 -0.065,-0.078 -0.104,-0.111 0.186,-0.533 0.079,-1.254 -0.315,-1.625 -0.179,-0.148 -0.597,-0.322 -0.642,-0.361 0.059,-0.166 0.153,-0.327 0.153,-0.493 0,-0.149 -0.032,-0.293 -0.079,-0.431 -0.051,-0.176 -0.14,-0.391 -0.296,-0.6 -0.166,-0.121 -0.887,-0.65 -0.946,-0.695 0.025,-0.045 0.012,-0.033 0.012,-0.033 l 0.246,-0.577 -0.082,-0.804 -0.011,-0.031 c 0,0 -0.276,-0.577 -0.54,-0.743 -0.263,-0.172 -0.387,-0.107 -0.666,-0.187 0.013,-0.022 0.026,-0.039 0.027,-0.045 0.006,0 0.015,0.002 0.024,0.003 -0.008,-10e-4 -0.015,-0.002 -0.023,-0.003 0.002,-0.002 0.005,-0.008 0.005,-0.008 l -0.022,-0.008 0.109,-0.664 -0.071,-0.467 -0.011,-0.031 c 0,0 -0.292,-0.588 -0.542,-0.746 -0.25,-0.156 -0.928,-0.264 -0.928,-0.264 0,0 0.014,0.014 -0.154,0.04 0.082,-0.151 0.082,-0.161 0.082,-0.161 l 0.149,-0.863 -0.037,-0.633 -0.274,-0.506 -0.196,-0.142 c -0.288,-0.211 -0.622,-0.283 -0.944,-0.26 -0.319,-0.012 -0.614,0.141 -0.865,0.369 0.117,-0.306 0.216,-0.568 0.216,-0.568 l 0.306,-0.883 -0.118,0.23 c 0.158,-0.232 0.236,-0.496 0.236,-0.763 0,-0.248 -0.065,-0.502 -0.198,-0.748 -0.001,0 -0.493,-0.614 -0.91,-0.801 -0.417,-0.191 -0.964,0.045 -1.133,0.053 -0.098,0.041 -0.195,0.064 -0.285,0.129 0.082,-0.323 0.177,-0.696 0.177,-0.696 -0.002,0.012 -0.134,-1.246 -0.134,-1.246 -0.003,-0.006 -0.345,-0.636 -0.972,-0.779 -0.627,-0.143 -1.184,0.062 -1.184,0.062 0,0 -0.837,0.827 -0.855,0.842 0.1,-0.644 0.229,-1.488 0.229,-1.488 l 0.074,-0.617 -0.245,-1.475 c 0,0 -0.275,-0.379 -0.958,-0.496 -0.682,-0.117 -1.729,0.34 -1.729,0.34 0.004,-0.002 -0.464,-1.779 -0.464,-1.779 0,-0.059 -0.29,-0.668 -0.444,-0.989 -0.192,-0.134 -0.756,-0.627 -1.181,-0.654 -0.426,-0.027 -0.86,0.221 -0.86,0.221 l -0.859,-1.242 -0.039,-0.395 c 0.003,0.059 -0.535,-1.047 -0.535,-1.047 -0.067,-0.057 -0.316,-0.262 -0.928,-0.322 -0.614,-0.061 -1.307,0.377 -1.307,0.377 0,0 -0.189,0.476 -0.324,0.814 -0.082,-0.597 -0.188,-1.369 -0.188,-1.369 l -0.155,-0.943 c -0.015,-0.33 -0.222,-0.696 -0.54,-0.951 -0.076,-0.03 -0.481,-0.413 -1.256,-0.403 -0.776,0.01 -1.53,0.551 -1.53,0.551 l -0.706,-1.273 c 0,0 -0.222,-0.69 -0.613,-0.879 -0.036,-0.016 -0.313,-0.352 -1.032,-0.311 -0.719,0.043 -0.933,0.52 -1.078,0.611 -0.028,0.034 -0.061,0.057 -0.086,0.092 -0.121,-0.494 -0.256,-1.045 -0.256,-1.045 l -0.341,-1.164 c 0,0 -0.592,-0.592 -0.792,-0.703 -0.199,-0.109 -0.558,-0.258 -0.958,-0.183 -0.398,0.074 -1.002,0.634 -1.002,0.634 -0.002,0.006 -0.032,0.108 -0.067,0.237 -0.045,-0.168 -0.077,-0.285 -0.077,-0.285 l -0.298,-1.036 0.03,0.217 c -0.016,-0.449 -0.266,-0.863 -0.7,-1.164 l -0.234,-0.16 -0.038,0.027 c 0,0 -0.695,-0.045 -0.832,-0.052 -0.228,0.019 -0.445,0.097 -0.64,0.222 -0.004,-0.021 -0.017,-0.096 -0.017,-0.096 -0.01,-0.343 -0.203,-0.695 -0.574,-0.955 l -0.28,-0.142 c 0,0 -1.016,0.072 -1.102,0.076 -0.264,0.113 -0.513,0.283 -0.707,0.568 -0.006,0.01 -0.271,0.975 -0.271,0.975 l 0.012,0.123 0.123,0.723 -0.063,-0.11 c -0.002,-0.006 -0.637,-2.029 -0.637,-2.029 0,0 0.002,0.072 0.003,0.096 -0.065,-0.305 -0.215,-0.594 -0.495,-0.78 l -0.117,-0.078 -0.133,-0.045 c -0.407,-0.136 -0.818,-0.029 -1.143,0.219 -0.045,0.045 -0.282,0.262 -0.287,0.26 -0.033,-0.022 -0.09,-0.024 -0.125,-0.039 0.005,0.004 0.002,0.002 -0.003,-0.004 -0.175,-0.088 -0.342,-0.186 -0.618,-0.178 l -0.25,0.012 c 0,0 -0.045,0.025 -0.086,0.051 0.684,-6.993 3.854,-13.754 9.655,-20.559 8.156,-8.031 17.307,-9.842 22.359,-10.178 -0.325,0.244 -0.666,0.5 -0.666,0.5 l 0.19,-0.134 -0.914,0.925 0.149,0.373 c 0,0 -0.122,0.254 0.026,0.684 0.151,0.426 0.512,0.639 0.512,0.639 0,0 0.025,0.015 0.053,0.033 -0.005,0.004 -0.035,0.066 -0.035,0.066 l -0.129,0.323 c 0.002,0 -0.022,0.714 0.109,1.195 0.133,0.482 0.525,0.48 0.711,0.65 0.043,0.02 0.098,0.028 0.148,0.047 -0.014,0.018 -0.029,0.035 -0.04,0.051 0.011,0.01 0.023,0.021 0.023,0.021 0,0 -0.023,-0.013 -0.027,-0.015 -0.024,0.029 -0.223,0.283 -0.223,0.283 l -0.074,0.238 c 0,0 -0.102,0.26 -0.121,0.651 -0.019,0.39 0.275,0.839 0.275,0.839 -0.002,-0.001 0.182,0.147 0.377,0.305 -0.011,0.014 -0.13,0.176 -0.13,0.176 0,0 -0.286,0.57 -0.299,0.951 -0.012,0.383 0.091,0.559 0.372,0.914 0.179,0.145 0.668,0.537 0.721,0.58 -0.098,0.239 -0.322,0.487 -0.336,0.957 -0.016,0.471 0.272,0.862 0.272,0.862 10e-4,0.004 0.516,0.38 0.774,0.572 -0.101,0.129 -0.189,0.246 -0.189,0.246 l -0.267,0.381 c -0.028,0.041 -0.324,0.615 -0.334,1.012 -0.009,0.398 0.272,0.853 0.272,0.853 l 0.201,0.262 c 0,0 0.605,0.242 0.873,0.346 -0.006,0.009 -0.024,0.035 -0.037,0.056 0.087,0.02 0.073,0.014 -10e-4,0 -0.076,0.117 -0.216,0.33 -0.216,0.33 0.008,-0.013 -0.321,0.639 -0.293,1.03 0.027,0.388 0.293,0.781 0.293,0.781 0,0 1.312,0.984 1.338,1.002 -0.141,0.228 -0.221,0.256 -0.289,0.47 -0.069,0.217 -0.235,0.334 -0.226,0.981 0.009,0.644 0.32,0.918 0.55,1.142 0.23,0.223 0.963,0.454 1.293,0.379 0.33,-0.074 0.992,-0.627 0.992,-0.627 0.023,-0.037 0.545,-0.898 0.545,-0.898 l -0.633,1.637 -0.47,1.209 c 0,0 -0.104,0.666 0.109,1.201 0.213,0.535 0.614,0.756 0.938,0.849 0.323,0.096 0.778,-0.037 1.028,-0.05 0.139,-0.039 0.271,-0.09 0.385,-0.17 -0.113,0.42 -0.22,0.82 -0.22,0.82 l -0.343,1.34 0.026,0.07 c 0,0 0.029,0.535 0.197,0.842 0.168,0.309 0.488,0.652 0.959,0.775 0.471,0.123 0.889,0.026 1.204,-0.066 0.316,-0.09 1.269,-1.031 1.269,-1.031"
           style="fill:#ffffff;fill-opacity:1;fill-rule:nonzero;stroke:none"
           id="path62"
           inkscape:connector-curvature="0" /><path
           d="m 182.647,364.059 c 0.009,0 0.018,0.002 0.029,0.004 -0.005,0.003 -0.015,0 -0.029,-0.004 m 41.355,27.423 c 0.037,-0.005 0.075,-0.011 0.075,-0.011 -0.026,0.013 -0.052,0.013 -0.075,0.011"
           style="fill:#ffffff;fill-opacity:1;fill-rule:nonzero;stroke:none"
           id="path64"
           inkscape:connector-curvature="0" /><path
           d="m 215.044,379.678 c -0.336,0.914 -0.778,1.754 -1.166,2.562 0.348,0.526 0.715,0.971 1.064,1.49 0.395,-0.683 0.793,-1.367 1.11,-2.076 0.365,-0.861 0.623,-1.795 0.963,-2.705 0.068,-0.107 0.187,-0.24 0.312,-0.246 0.098,-0.057 0.249,-0.012 0.402,0.033 0.152,0.045 0.233,0.192 0.288,0.293 0.082,0.153 0.087,0.278 0.015,0.387 -0.335,0.908 -0.595,1.846 -1.007,2.734 -0.362,0.864 -0.926,1.705 -1.366,2.551 0.026,0.049 -0.021,0.076 -0.021,0.076 0.189,0.35 0.49,0.901 0.842,1.549 0.45,-0.584 0.921,-1.244 1.344,-1.879 0.494,-0.742 0.885,-1.552 1.273,-2.365 0.07,-0.107 0.171,-0.164 0.245,-0.139 0.098,-0.054 0.249,-0.011 0.35,0.061 0.057,0.103 0.11,0.201 0.164,0.301 0.008,0.129 0.013,0.254 -0.058,0.363 -0.389,0.809 -0.779,1.621 -1.272,2.363 -0.445,0.709 -0.967,1.401 -1.486,2.092 -0.023,0.078 -0.023,0.078 -0.07,0.104 0.217,0.4 0.488,0.9 0.732,1.351 0.048,-0.025 0.125,-0.006 0.125,-0.006 0.5,-0.613 0.977,-1.144 1.401,-1.781 0.469,-0.662 0.859,-1.475 1.304,-2.184 0.071,-0.109 0.168,-0.162 0.242,-0.14 0.129,-0.006 0.204,0.015 0.304,0.088 0.105,0.072 0.136,0.25 0.191,0.351 0.006,0.125 -0.064,0.231 -0.086,0.311 -0.415,0.762 -0.833,1.523 -1.305,2.185 -0.445,0.713 -1.019,1.305 -1.49,1.965 -0.099,0.057 -0.122,0.133 -0.196,0.11 0.217,0.402 0.435,0.802 0.623,1.152 0.127,-0.006 0.251,-0.01 0.376,-0.016 0.449,-0.584 0.929,-1.119 1.301,-1.728 0.472,-0.66 0.812,-1.444 1.208,-2.127 0.071,-0.11 0.168,-0.162 0.243,-0.141 0.128,-0.008 0.203,0.018 0.304,0.092 0.106,0.07 0.136,0.25 0.19,0.35 0.007,0.125 -0.013,0.203 -0.085,0.31 -0.367,0.733 -0.736,1.467 -1.181,2.18 -0.473,0.662 -0.97,1.271 -1.472,1.887 -0.02,0.076 -0.116,0.134 -0.241,0.138 -0.051,0.028 -0.078,-0.023 -0.127,0.004 l -0.025,-0.049 c 0.224,0.528 0.468,0.979 0.713,1.428 l 0.074,0.023 c 0.451,-0.584 0.957,-1.07 1.353,-1.625 0.474,-0.662 0.918,-1.375 1.364,-2.085 0.071,-0.108 0.117,-0.133 0.243,-0.139 0.075,0.021 0.229,0.066 0.282,0.164 0.103,0.074 0.109,0.201 0.117,0.33 0.054,0.1 0.008,0.256 -0.063,0.363 -0.419,0.633 -0.837,1.395 -1.309,2.057 -0.5,0.609 -1.024,1.174 -1.573,1.812 0.191,0.354 0.332,0.729 0.494,1.03 0.077,0.021 0.124,-0.004 0.2,0.017 0.429,-0.506 0.859,-1.011 1.26,-1.57 0.499,-0.611 0.815,-1.316 1.212,-2.004 0.099,-0.057 0.195,-0.111 0.271,-0.086 0.097,-0.058 0.202,0.016 0.256,0.115 0.103,0.075 0.137,0.25 0.191,0.35 0.005,0.129 -0.066,0.236 -0.086,0.312 -0.4,0.684 -0.793,1.368 -1.215,2.002 -0.448,0.586 -0.976,1.147 -1.474,1.76 -0.049,0.025 -0.097,0.056 -0.148,0.084 0.135,0.248 0.244,0.449 0.351,0.648 -0.05,0.014 -0.142,0.172 -0.486,0.221 -0.345,0.049 -0.595,-0.113 -0.595,-0.113 -0.135,-0.25 -0.221,-0.53 -0.384,-0.827 -0.575,-0.004 -1.177,-0.052 -1.729,-0.13 -0.806,-0.065 -1.562,-0.287 -2.347,-0.432 -0.151,-0.041 -0.227,-0.068 -0.308,-0.216 -0.104,-0.071 -0.108,-0.198 -0.162,-0.299 -0.008,-0.129 0.062,-0.235 0.086,-0.311 0.097,-0.058 0.195,-0.109 0.271,-0.092 0.781,0.147 1.592,0.338 2.371,0.483 0.479,0.055 0.927,0.06 1.456,0.086 -0.163,-0.299 -0.305,-0.678 -0.469,-0.977 -0.727,-0.045 -1.428,-0.037 -2.155,-0.078 -0.804,-0.068 -1.611,-0.262 -2.47,-0.43 -0.075,-0.021 -0.226,-0.066 -0.28,-0.166 -0.104,-0.07 -0.109,-0.201 -0.115,-0.326 -0.055,-0.101 0.016,-0.209 0.086,-0.312 0.023,-0.078 0.148,-0.084 0.272,-0.09 0.783,0.144 1.638,0.308 2.443,0.377 0.601,0.051 1.201,0.099 1.781,0.097 -0.197,-0.48 -0.441,-0.925 -0.64,-1.406 -0.719,0.084 -1.391,0.139 -2.067,0.197 -0.9,-0.011 -1.779,-0.097 -2.629,-0.138 -0.152,-0.043 -0.228,-0.065 -0.332,-0.139 -0.055,-0.098 -0.135,-0.25 -0.189,-0.351 -0.007,-0.127 0.064,-0.231 0.134,-0.338 0.022,-0.076 0.168,-0.162 0.272,-0.088 0.902,0.012 1.78,0.097 2.63,0.137 0.55,-0.051 1.147,-0.129 1.721,-0.129 -0.218,-0.403 -0.435,-0.801 -0.603,-1.231 -0.848,0.092 -1.666,0.231 -2.489,0.242 -0.872,0.037 -1.803,-0.019 -2.733,-0.08 -0.073,-0.023 -0.199,-0.019 -0.304,-0.09 -0.08,-0.148 -0.134,-0.248 -0.139,-0.378 -0.005,-0.129 0.016,-0.206 0.087,-0.309 0.07,-0.108 0.168,-0.164 0.319,-0.121 0.899,0.012 1.78,0.101 2.705,0.033 0.698,-0.006 1.368,-0.061 2.066,-0.195 -0.268,-0.371 -0.512,-0.823 -0.757,-1.274 -0.866,0.166 -1.784,0.362 -2.678,0.481 -0.944,0.144 -1.896,0.16 -2.845,0.181 -0.125,0.006 -0.25,0.01 -0.304,-0.089 -0.102,-0.073 -0.184,-0.223 -0.237,-0.321 -0.008,-0.131 0.035,-0.287 0.133,-0.344 0.071,-0.103 0.171,-0.16 0.293,-0.166 0.922,-0.064 1.899,-0.035 2.846,-0.177 0.767,-0.114 1.511,-0.276 2.256,-0.438 -0.246,-0.449 -0.49,-0.902 -0.809,-1.375 l -0.05,0.03 c -0.888,0.248 -1.804,0.57 -2.747,0.714 -0.914,0.2 -1.865,0.211 -2.834,0.309 -0.127,0.002 -0.277,-0.041 -0.332,-0.139 -0.104,-0.072 -0.186,-0.224 -0.266,-0.371 -0.005,-0.131 0.038,-0.287 0.107,-0.392 0.044,-0.157 0.142,-0.211 0.265,-0.213 0.97,-0.1 1.921,-0.114 2.839,-0.315 0.819,-0.134 1.582,-0.377 2.35,-0.615 -0.32,-0.473 -0.645,-0.945 -0.965,-1.418 -0.049,0.027 -0.096,0.057 -0.221,0.065 -0.917,0.191 -1.805,0.439 -2.749,0.582 -0.946,0.148 -1.895,0.164 -2.842,0.181 -0.127,0.006 -0.251,0.01 -0.381,-0.107 -0.055,-0.104 -0.137,-0.254 -0.142,-0.383 -0.081,-0.15 -0.04,-0.303 0.032,-0.408 0.071,-0.108 0.217,-0.192 0.34,-0.196 0.924,-0.068 1.874,-0.085 2.817,-0.23 0.847,-0.092 1.613,-0.332 2.431,-0.471 -0.506,-0.691 -0.984,-1.34 -1.537,-2.008 0.028,0.049 -0.022,0.079 -0.022,0.079 -0.071,0.107 -0.169,0.162 -0.266,0.216 -0.964,0.227 -1.854,0.469 -2.799,0.616 -0.97,0.095 -1.92,0.115 -2.844,0.179 -0.123,0.006 -0.276,-0.037 -0.33,-0.14 -0.131,-0.118 -0.186,-0.219 -0.217,-0.397 -0.033,-0.179 0.009,-0.336 0.082,-0.439 0.067,-0.106 0.168,-0.162 0.292,-0.168 0.923,-0.067 1.897,-0.035 2.843,-0.182 0.869,-0.168 1.707,-0.385 2.576,-0.549 -0.658,-0.74 -1.365,-1.451 -2.041,-2.113 -0.024,0.078 0.004,0.127 -0.041,0.154 -0.074,0.106 -0.194,0.243 -0.319,0.244 -0.916,0.198 -1.853,0.471 -2.8,0.616 -0.893,0.117 -1.87,0.084 -2.842,0.179 -0.125,0.008 -0.224,-0.066 -0.328,-0.138 -0.106,-0.071 -0.186,-0.219 -0.218,-0.401 -0.004,-0.127 0.038,-0.283 0.106,-0.388 0.043,-0.155 0.141,-0.211 0.317,-0.244 0.947,-0.018 1.899,-0.038 2.841,-0.182 0.847,-0.086 1.661,-0.356 2.479,-0.496 -0.027,-0.051 0.023,-0.076 0.023,-0.076 -0.13,-0.123 -0.234,-0.198 -0.337,-0.268 0,0 -0.678,-0.662 -1.77,-1.613 -0.048,0.025 -0.148,0.086 -0.195,0.113 -0.912,0.322 -1.824,0.647 -2.711,0.893 -0.917,0.195 -1.889,0.291 -2.806,0.484 -0.124,0.006 -0.276,-0.037 -0.381,-0.109 -0.103,-0.073 -0.186,-0.223 -0.267,-0.373 -0.005,-0.129 0.039,-0.284 0.083,-0.44 0.07,-0.107 0.143,-0.211 0.265,-0.217 0.943,-0.144 1.915,-0.238 2.804,-0.484 0.792,-0.191 1.483,-0.453 2.248,-0.693 -0.626,-0.561 -1.325,-1.143 -2.054,-1.778 -0.069,0.104 -0.168,0.158 -0.264,0.215 -0.912,0.326 -1.796,0.699 -2.689,0.945 -0.888,0.246 -1.858,0.338 -2.802,0.485 -0.096,0.054 -0.249,0.01 -0.352,-0.061 -0.132,-0.121 -0.188,-0.224 -0.27,-0.373 -0.029,-0.176 -0.035,-0.305 0.036,-0.412 0.07,-0.105 0.189,-0.238 0.313,-0.244 0.915,-0.197 1.889,-0.291 2.806,-0.484 0.763,-0.241 1.502,-0.532 2.317,-0.799 -0.751,-0.557 -1.477,-1.19 -2.255,-1.793 0.006,0.127 -0.016,0.205 -0.037,0.283 -0.072,0.105 -0.141,0.211 -0.314,0.244 -0.866,0.297 -1.746,0.668 -2.665,0.865 -0.937,0.272 -1.863,0.34 -2.828,0.565 -0.123,0.002 -0.226,-0.067 -0.328,-0.141 -0.105,-0.072 -0.233,-0.193 -0.267,-0.371 -0.005,-0.131 -0.012,-0.256 0.032,-0.414 0.069,-0.104 0.14,-0.211 0.267,-0.215 0.99,-0.174 1.914,-0.242 2.853,-0.515 0.716,-0.213 1.404,-0.471 2.17,-0.713 -0.033,-0.176 -0.038,-0.303 -0.07,-0.485 -0.647,-0.482 -1.267,-0.916 -1.91,-1.398 0.028,0.049 0.028,0.049 -0.026,0.078 -0.04,0.154 -0.141,0.211 -0.238,0.268 -0.881,0.371 -1.767,0.744 -2.678,1.07 -0.889,0.242 -1.834,0.389 -2.75,0.584 -0.174,0.033 -0.25,0.012 -0.402,-0.033 -0.104,-0.073 -0.186,-0.221 -0.266,-0.373 -0.033,-0.178 -0.039,-0.305 0.031,-0.413 0.043,-0.156 0.141,-0.21 0.287,-0.293 0.918,-0.195 1.864,-0.341 2.799,-0.613 0.717,-0.213 1.379,-0.525 2.116,-0.814 -0.004,-0.127 -0.032,-0.178 -0.01,-0.256 -0.772,-0.477 -1.494,-0.983 -2.207,-1.361 l 0.026,0.05 c 0.027,0.051 0.054,0.1 0.081,0.149 0.005,0.131 0.038,0.308 -0.034,0.412 -0.043,0.154 -0.141,0.213 -0.239,0.266 -0.883,0.375 -1.768,0.751 -2.68,1.072 -0.889,0.242 -1.832,0.388 -2.797,0.615 -0.098,0.055 -0.249,0.012 -0.354,-0.062 -0.103,-0.075 -0.183,-0.223 -0.265,-0.372 -0.008,-0.128 -0.038,-0.308 0.031,-0.412 0.045,-0.156 0.143,-0.213 0.239,-0.267 0.966,-0.223 1.91,-0.369 2.801,-0.615 0.764,-0.239 1.426,-0.551 2.163,-0.84 -0.032,-0.18 -0.043,-0.436 -0.077,-0.612 -0.716,-0.377 -1.352,-0.603 -1.911,-0.81 0.027,0.051 0.008,0.125 0.033,0.176 0.006,0.128 0.012,0.255 -0.057,0.361 -0.045,0.158 -0.116,0.264 -0.214,0.318 -0.807,0.397 -1.561,0.891 -2.348,1.207 -0.439,0.254 -0.934,0.403 -1.377,0.526 -0.195,0.111 -0.418,0.175 -0.64,0.234 -0.098,0.055 -0.272,0.09 -0.37,0.145 -0.125,0.007 -0.199,-0.018 -0.277,-0.039 -0.101,-0.075 -0.154,-0.172 -0.238,-0.323 -0.006,-0.127 0.037,-0.283 0.107,-0.388 0.043,-0.157 0.114,-0.262 0.239,-0.268 l 0.049,-0.025 c 0.222,-0.063 0.417,-0.176 0.64,-0.237 0.543,-0.175 1.135,-0.383 1.697,-0.64 0.614,-0.284 1.201,-0.618 1.834,-0.979 -0.006,-0.129 0.015,-0.207 0.012,-0.336 -0.407,-0.158 -1.12,-0.41 -1.981,-0.703 -0.023,0.076 -0.072,0.106 -0.093,0.184 -0.477,0.535 -0.973,1.144 -1.48,1.631 -0.096,0.054 -0.218,0.187 -0.315,0.244 -0.168,0.162 -0.336,0.32 -0.503,0.484 -0.267,0.215 -0.483,0.406 -0.748,0.623 -0.099,0.057 -0.148,0.086 -0.251,0.012 -0.076,-0.022 -0.105,-0.072 -0.158,-0.174 -0.055,-0.098 -0.059,-0.227 -0.015,-0.383 0.02,-0.076 0.093,-0.183 0.114,-0.262 0.218,-0.189 0.459,-0.326 0.677,-0.515 0.167,-0.164 0.335,-0.324 0.53,-0.436 0.121,-0.134 0.24,-0.265 0.408,-0.427 0.387,-0.354 0.743,-0.752 1.122,-1.233 -0.455,-0.131 -0.911,-0.265 -1.37,-0.396 -0.231,0.392 -0.415,0.759 -0.648,1.156 -0.019,0.076 -0.119,0.133 -0.141,0.211 -0.12,0.135 -0.191,0.238 -0.308,0.371 -0.262,0.344 -0.5,0.615 -0.787,0.912 -0.022,0.074 -0.119,0.131 -0.196,0.109 -0.05,0.03 -0.077,-0.023 -0.152,-0.045 -0.488,-0.226 -0.027,-0.642 -0.027,-0.642 0.289,-0.293 0.549,-0.639 0.808,-0.983 0.048,-0.027 0.071,-0.103 0.119,-0.132 0.12,-0.135 0.183,-0.369 0.276,-0.553 0.067,-0.232 0.158,-0.414 0.25,-0.6 l -0.028,-0.048 c -0.228,-0.069 -0.455,-0.135 -0.683,-0.2 -0.201,-0.017 -0.354,-0.062 -0.506,-0.105 0,0 -0.09,-0.112 -0.025,-0.291 0.066,-0.18 0.197,-0.197 0.197,-0.197 0.049,-0.03 0.424,0.07 0.496,0.089 0.23,0.069 0.582,0.131 0.963,0.241 -0.023,-0.51 0.023,-0.67 -0.002,-1.178 -0.051,-0.565 -0.225,-1.119 -0.27,-1.68 -0.054,-0.101 -0.035,-0.178 0.063,-0.232 0.051,-0.03 0.146,-0.084 0.195,-0.112 0.125,-0.007 0.202,0.016 0.256,0.116 0.074,0.023 0.102,0.072 0.156,0.172 0.05,0.562 0.177,1.144 0.227,1.707 0.041,0.433 0.188,0.937 0.232,1.375 0,0 -0.021,0.076 0.054,0.097 0.381,0.112 0.835,0.244 1.292,0.377 -0.1,-0.531 -0.197,-1.066 -0.294,-1.599 -0.179,-0.686 -0.378,-1.291 -0.609,-1.946 -0.029,-0.051 0.014,-0.209 0.037,-0.285 0.071,-0.105 0.093,-0.185 0.188,-0.238 0.073,-0.106 0.198,-0.111 0.274,-0.088 0,0 0.101,0.07 0.08,0.146 0.228,0.659 0.429,1.262 0.611,1.948 0.179,0.683 0.235,1.371 0.363,2.086 0.028,0.048 0.028,0.048 0.055,0.099 l 0.025,0.047 c 0.635,0.231 1.321,0.432 1.956,0.656 -0.02,-0.511 -0.042,-1.021 -0.038,-1.482 -0.088,-0.869 -0.246,-1.631 -0.381,-2.471 -0.007,-0.125 0.014,-0.207 0.087,-0.312 0.07,-0.106 0.187,-0.235 0.312,-0.242 0.098,-0.055 0.252,-0.014 0.328,0.011 0.1,0.071 0.128,0.121 0.135,0.248 0.135,0.838 0.319,1.653 0.381,2.469 0.103,0.664 0.033,1.357 0.09,2.045 0.709,0.25 1.297,0.508 1.805,0.742 -0.044,-0.437 -0.087,-0.867 -0.158,-1.351 -0.163,-0.889 -0.45,-1.774 -0.712,-2.612 -0.008,-0.127 -0.012,-0.256 0.061,-0.357 0.068,-0.11 0.214,-0.192 0.34,-0.195 0.173,-0.036 0.324,0.007 0.4,0.031 0.104,0.072 0.235,0.195 0.24,0.322 0.212,0.861 0.55,1.717 0.739,2.66 0.13,0.709 0.187,1.401 0.269,2.139 0.518,0.361 1.287,0.838 2.139,1.465 -0.028,-0.639 -0.106,-1.25 -0.231,-1.834 -0.162,-0.889 -0.449,-1.772 -0.712,-2.606 -0.007,-0.129 0.039,-0.285 0.108,-0.39 0.073,-0.106 0.168,-0.16 0.342,-0.196 0.125,-0.004 0.25,-0.011 0.354,0.061 0.152,0.047 0.233,0.195 0.287,0.295 0.212,0.863 0.5,1.746 0.664,2.635 0.19,0.939 0.229,1.837 0.344,2.752 l 0.026,0.048 c 0.618,0.434 1.264,0.92 1.941,1.455 -0.002,-0.591 -0.073,-1.078 -0.122,-1.638 -0.115,-0.914 -0.403,-1.803 -0.617,-2.66 -0.004,-0.131 0.04,-0.286 0.139,-0.342 0.068,-0.106 0.167,-0.164 0.34,-0.194 0.125,-0.005 0.275,0.038 0.381,0.11 0.101,0.072 0.205,0.144 0.21,0.271 0.213,0.864 0.452,1.776 0.617,2.662 0.086,0.87 0.099,1.715 0.183,2.582 0.828,0.577 1.707,1.256 2.511,1.911 0.041,-0.745 0.035,-1.461 0.002,-2.231 -0.066,-0.943 -0.254,-1.883 -0.397,-2.853 -0.005,-0.127 0.036,-0.282 0.107,-0.385 0.1,-0.057 0.247,-0.143 0.415,-0.172 0.129,-0.008 0.279,0.037 0.411,0.16 0.101,0.07 0.156,0.172 0.163,0.301 0.141,0.965 0.361,1.955 0.426,2.9 0.067,0.944 0.034,1.946 -0.025,2.897 0.026,0.049 -0.023,0.078 -0.043,0.156 0.674,0.533 1.346,1.065 1.971,1.627 0.041,-0.744 0.132,-1.516 0.148,-2.312 0.037,-0.875 -0.104,-1.84 -0.197,-2.836 -0.007,-0.129 0.064,-0.233 0.185,-0.368 0.098,-0.054 0.245,-0.138 0.396,-0.095 0.125,-0.006 0.277,0.039 0.378,0.113 0.132,0.119 0.185,0.221 0.191,0.35 0.094,0.994 0.209,1.912 0.151,2.861 0.015,0.973 -0.094,1.951 -0.151,2.906 -0.019,0.076 -0.043,0.152 -0.113,0.26 0.699,0.584 1.352,1.193 1.925,1.783 0.149,-0.672 0.266,-1.396 0.335,-2.088 0.109,-0.982 0.091,-1.955 0.101,-2.877 -0.004,-0.129 0.086,-0.314 0.184,-0.369 0.097,-0.055 0.273,-0.09 0.398,-0.094 0.153,0.045 0.303,0.088 0.358,0.19 0.131,0.119 0.185,0.221 0.189,0.347 -0.031,1.002 -0.014,1.977 -0.071,2.928 -0.108,0.979 -0.37,1.91 -0.477,2.891 -0.05,0.029 -0.05,0.029 -0.022,0.078 0.343,0.396 1.049,1.105 1.863,2.016 0.195,-0.698 0.437,-1.428 0.606,-2.18 0.258,-0.934 0.293,-1.932 0.425,-2.863 0.046,-0.157 0.117,-0.262 0.213,-0.319 0.146,-0.082 0.271,-0.088 0.423,-0.043 0.151,0.043 0.283,0.164 0.385,0.239 0.054,0.099 0.136,0.25 0.093,0.404 -0.133,0.93 -0.245,1.91 -0.426,2.865 -0.211,0.908 -0.548,1.818 -0.807,2.756 -0.021,0.076 -0.07,0.103 -0.094,0.184 0.474,0.515 1,1.128 1.479,1.775 0.346,-0.654 0.644,-1.285 0.84,-1.986 0.334,-0.914 0.519,-1.868 0.781,-2.801 0.067,-0.108 0.138,-0.213 0.285,-0.297 0.125,-0.006 0.25,-0.01 0.403,0.033 0.154,0.043 0.282,0.168 0.336,0.266 0.082,0.15 0.088,0.279 0.044,0.435 -0.259,0.934 -0.445,1.891 -0.73,2.776"
           style="fill:#ffffff;fill-opacity:1;fill-rule:nonzero;stroke:none"
           id="path66"
           inkscape:connector-curvature="0" /><path
           d="m 253.667,364.365 c -0.02,0.08 -0.094,0.184 -0.188,0.24 -0.56,0.385 -1.148,0.721 -1.679,1.153 -0.433,0.379 -0.867,0.756 -1.348,1.164 0.483,0.185 0.917,0.396 1.324,0.553 0,0 0.078,0.234 0.015,0.421 -0.062,0.188 -0.292,0.315 -0.292,0.315 -0.306,-0.088 -0.929,-0.379 -1.309,-0.49 -0.103,-0.071 -0.257,-0.116 -0.407,-0.162 0.044,0.437 0.066,0.949 0.112,1.382 0.078,0.741 0.231,1.373 0.383,2.006 -0.021,0.078 -0.015,0.205 -0.088,0.313 -0.019,0.076 -0.089,0.183 -0.187,0.24 -0.101,0.057 -0.223,0.059 -0.25,0.008 -0.076,-0.022 -0.102,-0.072 -0.129,-0.121 -0.133,-0.711 -0.285,-1.344 -0.389,-2.006 -0.053,-0.69 -0.063,-1.406 -0.139,-2.149 -0.439,-0.209 -0.919,-0.394 -1.432,-0.627 0.023,0.514 0.046,1.022 0.067,1.536 0.088,0.871 0.272,1.679 0.383,2.468 0.055,0.102 0.01,0.256 -0.06,0.362 -0.096,0.054 -0.168,0.162 -0.344,0.197 -0.096,0.055 -0.219,0.061 -0.322,-0.014 -0.076,-0.021 -0.13,-0.121 -0.136,-0.248 -0.14,-0.84 -0.294,-1.603 -0.383,-2.468 -0.082,-0.739 -0.089,-1.456 -0.069,-2.254 -0.995,-0.414 -2.016,-0.885 -2.809,-1.284 0.104,0.661 0.184,1.405 0.366,2.088 0.212,0.862 0.549,1.717 0.836,2.602 0.006,0.131 0.013,0.258 -0.059,0.359 -0.098,0.059 -0.217,0.192 -0.342,0.196 -0.173,0.033 -0.297,0.041 -0.402,-0.034 -0.105,-0.07 -0.205,-0.144 -0.213,-0.269 -0.287,-0.885 -0.672,-1.717 -0.862,-2.653 -0.213,-0.863 -0.328,-1.779 -0.49,-2.673 0.049,-0.026 0.023,-0.073 -0.006,-0.127 -0.027,-0.049 -0.054,-0.1 -0.082,-0.149 -0.101,-0.072 -0.205,-0.144 -0.309,-0.215 -0.441,-0.341 -0.929,-0.648 -1.472,-1.062 0,0.592 0.051,1.152 0.053,1.74 0.11,0.918 0.275,1.807 0.437,2.697 0.008,0.127 -0.037,0.284 -0.133,0.336 -0.072,0.11 -0.216,0.194 -0.341,0.198 -0.155,-0.041 -0.278,-0.039 -0.383,-0.11 -0.129,-0.121 -0.184,-0.219 -0.238,-0.322 -0.114,-0.918 -0.327,-1.781 -0.392,-2.727 -0.086,-0.865 -0.049,-1.738 -0.015,-2.615 -0.72,-0.502 -1.421,-1.086 -2.197,-1.689 -0.019,0.666 -0.07,1.285 -0.041,1.924 0.037,0.892 0.23,1.835 0.295,2.779 0.055,0.101 -0.019,0.209 -0.115,0.262 -0.118,0.132 -0.216,0.189 -0.368,0.144 -0.173,0.033 -0.277,-0.039 -0.38,-0.111 -0.104,-0.073 -0.157,-0.174 -0.163,-0.299 -0.115,-0.918 -0.279,-1.809 -0.343,-2.756 0.009,-0.922 0.096,-1.822 0.105,-2.746 0,0 0.048,-0.029 0.022,-0.076 -0.778,-0.604 -1.531,-1.291 -2.284,-1.973 -0.066,0.826 -0.255,1.651 -0.245,2.496 -0.058,0.951 0.036,1.948 0.05,2.922 0.006,0.125 -0.062,0.233 -0.134,0.338 -0.098,0.055 -0.243,0.137 -0.393,0.094 -0.176,0.033 -0.305,-0.088 -0.41,-0.16 -0.103,-0.071 -0.185,-0.221 -0.191,-0.352 -0.015,-0.971 -0.081,-1.916 -0.051,-2.916 0.011,-0.926 0.197,-1.885 0.3,-2.859 -0.004,-0.129 0.118,-0.262 0.188,-0.366 l 0.049,-0.029 c -0.654,-0.611 -1.303,-1.223 -1.909,-1.863 -0.138,0.801 -0.328,1.631 -0.441,2.482 -0.109,0.975 -0.09,1.951 -0.15,2.901 0.007,0.129 -0.065,0.236 -0.135,0.339 -0.147,0.083 -0.27,0.09 -0.423,0.045 -0.172,0.034 -0.276,-0.037 -0.409,-0.158 -0.053,-0.101 -0.135,-0.252 -0.139,-0.381 0.06,-0.949 0.043,-1.923 0.151,-2.9 0.105,-0.981 0.317,-1.887 0.529,-2.795 0.043,-0.154 0.111,-0.258 0.211,-0.316 l 0.048,-0.028 c -0.658,-0.738 -1.239,-1.453 -1.82,-2.174 -0.214,0.78 -0.459,1.508 -0.599,2.309 -0.212,0.908 -0.293,1.936 -0.453,2.813 0.004,0.128 -0.118,0.263 -0.214,0.318 -0.097,0.055 -0.271,0.088 -0.421,0.045 -0.153,-0.045 -0.257,-0.113 -0.313,-0.217 -0.101,-0.07 -0.107,-0.201 -0.113,-0.326 0.108,-0.981 0.219,-1.959 0.4,-2.914 0.185,-0.959 0.522,-1.871 0.78,-2.805 0.019,-0.076 0.12,-0.135 0.14,-0.213 -0.314,-0.34 -0.923,-1.109 -1.781,-2.455 -0.342,0.785 -0.662,1.492 -0.951,2.248 -0.312,0.961 -0.494,1.92 -0.706,2.826 -0.044,0.157 -0.142,0.209 -0.29,0.293 -0.096,0.059 -0.248,0.016 -0.399,-0.033 -0.153,-0.045 -0.254,-0.115 -0.335,-0.265 -0.056,-0.102 -0.063,-0.229 -0.067,-0.358 0.26,-0.934 0.443,-1.889 0.753,-2.851 0.286,-0.887 0.775,-1.752 1.107,-2.666 0.074,-0.108 0.142,-0.209 0.269,-0.219 -0.35,-0.52 -0.674,-1.119 -1.056,-1.821 -0.35,0.528 -0.628,1.082 -0.954,1.659 -0.41,0.892 -0.697,1.771 -1.082,2.713 0.006,0.128 -0.138,0.21 -0.265,0.218 -0.097,0.055 -0.249,0.012 -0.403,-0.033 -0.177,-0.098 -0.232,-0.197 -0.314,-0.348 -0.055,-0.095 -0.061,-0.226 -0.018,-0.378 0.364,-0.864 0.673,-1.827 1.084,-2.717 0.418,-0.76 0.886,-1.551 1.379,-2.291 -0.328,-0.602 -0.578,-1.18 -0.932,-1.828 -0.425,0.505 -0.857,1.011 -1.285,1.515 -0.589,0.799 -1.029,1.641 -1.545,2.457 -0.071,0.104 -0.17,0.16 -0.339,0.194 -0.125,0.004 -0.278,-0.039 -0.38,-0.11 -0.13,-0.125 -0.212,-0.273 -0.218,-0.4 -0.004,-0.131 -0.008,-0.256 0.058,-0.361 0.516,-0.819 1.002,-1.686 1.545,-2.456 0.521,-0.689 1.071,-1.33 1.664,-1.998 -0.19,-0.349 -0.357,-0.775 -0.576,-1.177 0,0 -0.009,-0.256 -0.129,-0.713 -0.504,0.484 -0.982,1.019 -1.433,1.603 -0.546,0.639 -1.012,1.43 -1.506,2.172 -0.07,0.106 -0.192,0.108 -0.293,0.166 -0.077,-0.023 -0.229,-0.066 -0.283,-0.168 -0.102,-0.074 -0.156,-0.172 -0.162,-0.299 -0.006,-0.129 0.038,-0.285 0.111,-0.392 0.489,-0.738 0.934,-1.451 1.504,-2.17 0.521,-0.688 1.144,-1.303 1.691,-1.947 0.049,-0.026 0.049,-0.026 0.099,-0.055 -0.12,-0.455 -0.266,-0.961 -0.394,-1.545 -0.454,0.457 -0.959,0.941 -1.436,1.477 -0.597,0.668 -1.089,1.406 -1.631,2.173 -0.069,0.108 -0.195,0.112 -0.272,0.09 -0.125,0.004 -0.202,-0.015 -0.331,-0.14 -0.054,-0.098 -0.136,-0.246 -0.142,-0.375 -0.006,-0.129 0.065,-0.235 0.137,-0.34 0.543,-0.77 1.037,-1.512 1.632,-2.178 0.548,-0.639 1.171,-1.256 1.746,-1.846 -0.073,-0.484 -0.195,-0.939 -0.339,-1.447 -0.407,0.428 -0.84,0.807 -1.246,1.236 -0.573,0.59 -1.018,1.303 -1.518,1.916 -0.068,0.106 -0.166,0.161 -0.242,0.137 -0.155,-0.047 -0.229,-0.064 -0.283,-0.166 -0.082,-0.15 -0.136,-0.252 -0.143,-0.377 -0.005,-0.127 0.064,-0.236 0.136,-0.338 0.499,-0.615 0.971,-1.275 1.517,-1.914 0.476,-0.537 1.058,-0.998 1.562,-1.482 -0.096,-0.533 -0.246,-1.039 -0.316,-1.524 -0.53,0.434 -1.014,0.842 -1.44,1.348 -0.578,0.59 -1.049,1.252 -1.596,1.893 -0.023,0.078 -0.145,0.082 -0.27,0.086 -0.077,-0.022 -0.181,-0.09 -0.236,-0.192 -0.103,-0.074 -0.109,-0.201 -0.113,-0.33 -0.005,-0.129 0.067,-0.232 0.134,-0.34 0.502,-0.613 0.971,-1.271 1.548,-1.863 0.525,-0.563 1.125,-1.1 1.728,-1.641 -0.066,-0.357 -0.157,-0.761 -0.273,-1.09 -0.432,0.377 -0.889,0.836 -1.293,1.262 -0.526,0.563 -0.951,1.199 -1.447,1.811 -0.075,0.103 -0.121,0.133 -0.245,0.138 -0.079,-0.021 -0.181,-0.095 -0.235,-0.195 -0.054,-0.098 -0.136,-0.25 -0.141,-0.377 0.021,-0.08 0.066,-0.236 0.085,-0.312 0.5,-0.61 0.971,-1.274 1.448,-1.811 0.526,-0.56 1.08,-1.07 1.633,-1.586 -0.088,-0.275 -0.098,-0.533 -0.184,-0.808 -0.439,0.25 -0.852,0.548 -1.264,0.849 -0.608,0.412 -1.181,1.002 -1.764,1.465 -0.097,0.057 -0.197,0.111 -0.298,0.039 -0.074,-0.023 -0.129,-0.123 -0.184,-0.223 -0.054,-0.099 -0.06,-0.226 -0.016,-0.38 0.021,-0.081 0.089,-0.188 0.112,-0.264 0.631,-0.49 1.155,-1.053 1.814,-1.49 0.433,-0.379 0.92,-0.659 1.409,-0.934 -0.038,-0.309 -0.127,-0.588 -0.165,-0.895 0,0 -0.07,-0.285 0.42,-0.326 0.49,-0.041 0.742,0.129 0.742,0.129 0.014,0.252 0.022,0.512 0.091,0.869 0.048,-0.029 0.048,-0.029 0.095,-0.056 0.051,-0.03 0.149,-0.084 0.248,-0.012 0.078,0.02 0.106,0.07 0.131,0.119 0.401,0.033 0.833,0.117 1.212,0.229 0.579,0.127 1.14,0.332 1.699,0.537 0.074,0.023 0.152,0.045 0.206,0.142 0.028,0.051 0.082,0.153 0.06,0.233 0.005,0.125 -0.017,0.205 -0.064,0.232 -0.098,0.057 -0.145,0.084 -0.222,0.061 -0.561,-0.203 -1.119,-0.408 -1.7,-0.537 -0.38,-0.11 -0.783,-0.143 -1.166,-0.256 -0.017,0.078 -0.017,0.078 -0.064,0.105 -0.1,0.057 -0.197,0.114 -0.293,0.166 0.033,0.307 0.123,0.584 0.188,0.94 0.029,0.052 0.105,0.072 0.132,0.123 0.553,0.076 1.103,0.156 1.687,0.285 0.684,0.197 1.318,0.424 2.003,0.625 0.105,0.07 0.179,0.092 0.234,0.193 0.055,0.104 0.11,0.201 0.115,0.328 -0.023,0.08 -0.092,0.184 -0.142,0.211 -0.024,0.08 -0.149,0.086 -0.223,0.063 -0.684,-0.199 -1.32,-0.426 -2.004,-0.627 -0.529,-0.156 -1.134,-0.205 -1.686,-0.283 0.091,0.408 0.185,0.812 0.275,1.22 0.078,0.022 0.105,0.073 0.182,0.09 0.755,0.096 1.507,0.19 2.241,0.36 0.781,0.146 1.565,0.42 2.404,0.662 0.076,0.023 0.178,0.095 0.233,0.195 0.105,0.074 0.134,0.25 0.141,0.377 -0.022,0.08 -0.063,0.234 -0.112,0.264 -0.098,0.052 -0.197,0.109 -0.299,0.039 -0.81,-0.194 -1.597,-0.467 -2.405,-0.66 -0.706,-0.125 -1.46,-0.217 -2.165,-0.34 0.07,0.486 0.188,0.941 0.336,1.447 0.051,-0.029 0.097,-0.057 0.176,-0.033 0.027,0.049 0.104,0.072 0.177,0.094 0.653,0.021 1.332,0.091 2.01,0.166 0.754,0.091 1.514,0.312 2.246,0.488 0.124,-0.006 0.18,0.094 0.279,0.166 0.056,0.099 0.11,0.201 0.088,0.275 0.008,0.129 -0.063,0.237 -0.112,0.264 -0.073,0.105 -0.194,0.111 -0.272,0.088 -0.782,-0.141 -1.491,-0.395 -2.245,-0.487 -0.679,-0.074 -1.33,-0.095 -2.009,-0.166 -0.048,0.028 -0.071,0.106 -0.118,0.133 0.118,0.457 0.264,0.963 0.413,1.471 0,0 0.048,-0.029 0.075,0.019 0.048,-0.027 0.048,-0.027 0.125,-0.001 0.852,0.035 1.774,-0.034 2.655,0.056 0.879,0.086 1.811,0.278 2.69,0.365 0.103,0.069 0.255,0.116 0.31,0.215 0.055,0.1 0.109,0.201 0.113,0.33 0.008,0.129 -0.065,0.233 -0.134,0.338 -0.099,0.057 -0.198,0.112 -0.321,0.117 -0.857,-0.168 -1.791,-0.355 -2.668,-0.443 -0.855,-0.037 -1.679,-0.023 -2.504,-0.014 l -0.048,0.03 c 0.153,0.631 0.327,1.187 0.527,1.797 0.874,-0.043 1.769,-0.163 2.67,-0.149 0.901,0.008 1.855,0.117 2.833,0.152 0.126,-0.007 0.227,0.067 0.331,0.137 0.055,0.102 0.109,0.201 0.113,0.332 0.007,0.125 -0.062,0.231 -0.137,0.338 -0.066,0.106 -0.192,0.111 -0.317,0.115 -0.929,-0.058 -1.884,-0.172 -2.833,-0.152 -0.748,0.033 -1.547,0.096 -2.344,0.16 0.201,0.604 0.401,1.209 0.627,1.738 0.096,-0.058 0.194,-0.113 0.317,-0.117 0.949,-0.017 1.896,-0.16 2.822,-0.101 0.977,0.029 1.912,0.22 2.865,0.33 0.125,-0.006 0.229,0.064 0.312,0.217 0.1,0.07 0.133,0.246 0.138,0.378 -0.042,0.157 -0.086,0.311 -0.155,0.416 -0.072,0.106 -0.244,0.139 -0.32,0.116 -0.955,-0.112 -1.935,-0.27 -2.839,-0.28 -0.853,-0.039 -1.774,0.032 -2.648,0.067 0.028,0.051 -0.021,0.08 -0.07,0.107 0.277,0.627 0.555,1.256 0.832,1.883 0.072,-0.103 0.217,-0.187 0.342,-0.193 0.922,-0.067 1.84,-0.262 2.789,-0.28 0.949,-0.017 1.906,0.09 2.833,0.153 0.122,-0.004 0.276,0.039 0.357,0.189 0.103,0.074 0.136,0.25 0.14,0.379 0.033,0.176 -0.036,0.283 -0.106,0.387 -0.07,0.107 -0.217,0.189 -0.343,0.197 -0.929,-0.06 -1.883,-0.17 -2.83,-0.156 -0.826,0.012 -1.644,0.154 -2.491,0.242 -0.023,0.078 -0.074,0.105 -0.142,0.213 0.354,0.648 0.707,1.301 1.109,1.922 0.048,-0.024 0.098,-0.055 0.172,-0.033 0.944,-0.145 1.887,-0.289 2.839,-0.309 0.949,-0.018 1.905,0.096 2.831,0.154 0.127,-0.006 0.278,0.039 0.358,0.19 0.102,0.074 0.136,0.25 0.142,0.377 0.032,0.175 -0.037,0.283 -0.107,0.39 -0.121,0.133 -0.215,0.188 -0.342,0.198 -0.928,-0.065 -1.883,-0.172 -2.832,-0.157 -0.826,0.014 -1.645,0.153 -2.442,0.213 0.54,0.873 1.144,1.639 1.801,2.377 0.073,-0.103 0.17,-0.156 0.293,-0.164 0.973,-0.096 1.89,-0.291 2.839,-0.31 0.948,-0.014 1.903,0.093 2.831,0.154 0.126,-0.004 0.279,0.037 0.362,0.189 0.101,0.073 0.134,0.246 0.14,0.377 0.031,0.18 -0.012,0.336 -0.082,0.442 -0.144,0.086 -0.246,0.14 -0.368,0.144 -0.927,-0.062 -1.884,-0.172 -2.833,-0.154 -0.796,0.062 -1.645,0.15 -2.465,0.291 0.371,0.445 0.903,1.187 1.795,2.125 0.047,-0.029 0.143,-0.084 0.221,-0.063 0.92,-0.195 1.855,-0.466 2.752,-0.587 0.944,-0.143 1.892,-0.163 2.841,-0.18 0.127,-0.006 0.277,0.041 0.332,0.14 0.104,0.071 0.184,0.221 0.217,0.401 0.006,0.125 -0.038,0.281 -0.105,0.389 -0.072,0.103 -0.143,0.21 -0.268,0.214 -0.953,0.018 -1.926,-0.011 -2.873,0.133 -0.767,0.112 -1.512,0.272 -2.303,0.463 0.577,0.588 1.226,1.199 1.932,1.91 0.098,-0.054 0.149,-0.086 0.195,-0.111 0.967,-0.223 1.856,-0.469 2.828,-0.563 0.944,-0.146 1.844,-0.134 2.842,-0.183 0.126,-0.004 0.23,0.068 0.332,0.142 0.102,0.071 0.185,0.223 0.192,0.35 0.031,0.176 -0.013,0.334 -0.083,0.438 -0.069,0.105 -0.142,0.21 -0.292,0.169 -0.971,0.092 -1.922,0.11 -2.844,0.178 -0.744,0.162 -1.437,0.297 -2.182,0.459 0.549,0.537 1.221,1.07 1.848,1.635 l 0.049,-0.029 c 0.068,-0.104 0.168,-0.162 0.266,-0.217 0.962,-0.223 1.854,-0.469 2.823,-0.565 0.946,-0.146 1.897,-0.164 2.844,-0.179 0.125,-0.006 0.25,-0.01 0.332,0.138 0.104,0.071 0.186,0.221 0.189,0.352 0.035,0.176 -0.009,0.332 -0.079,0.437 -0.072,0.11 -0.168,0.163 -0.295,0.17 -0.967,0.094 -1.897,0.034 -2.842,0.176 -0.769,0.111 -1.486,0.326 -2.23,0.488 0,0 0.029,0.049 -0.022,0.079 0.649,0.484 1.37,0.986 2.117,1.542 l 0.023,-0.078 c 0.071,-0.105 0.167,-0.16 0.313,-0.246 0.892,-0.244 1.828,-0.517 2.748,-0.713 0.914,-0.195 1.865,-0.211 2.834,-0.306 0.051,-0.03 0.127,-0.008 0.23,0.064 0.05,-0.027 0.076,0.022 0.104,0.072 0.103,0.075 0.184,0.223 0.239,0.323 -0.022,0.078 0.005,0.127 -0.018,0.207 0.007,0.125 -0.016,0.205 -0.064,0.234 -0.041,0.154 -0.137,0.211 -0.315,0.242 -0.922,0.069 -1.842,0.137 -2.788,0.28 -0.743,0.166 -1.509,0.404 -2.225,0.615 l -0.022,0.078 c 0.648,0.482 1.314,0.889 2.037,1.395 0.858,-0.424 1.715,-0.846 2.596,-1.221 0.495,-0.151 0.938,-0.272 1.435,-0.42 0.447,-0.125 0.916,-0.199 1.286,-0.342 0.171,-0.033 0.275,0.039 0.427,0.082 0.105,0.072 0.157,0.17 0.24,0.322 0.083,0.149 0.04,0.307 -0.007,0.463 -0.02,0.076 -0.137,0.209 -0.264,0.215 -0.369,0.147 -0.715,0.213 -1.112,0.309 -0.57,0.127 -1.064,0.277 -1.607,0.457 -0.64,0.234 -1.226,0.566 -1.838,0.851 0.369,0.231 0.809,0.481 1.207,0.756 l 0.174,0.086 c 0.194,0.086 0.615,0.27 1.203,0.502 -0.006,-0.129 -0.011,-0.256 0.058,-0.363 0.042,-0.153 0.116,-0.26 0.212,-0.315 0.44,-0.25 0.83,-0.474 1.271,-0.722 0.342,-0.198 0.708,-0.342 1.052,-0.535 0.785,-0.321 1.55,-0.559 2.339,-0.877 0.127,-0.008 0.247,-0.012 0.352,0.062 0.078,0.02 0.159,0.168 0.163,0.297 0.005,0.131 0.01,0.256 -0.037,0.412 -0.068,0.106 -0.134,0.213 -0.236,0.272 -0.81,0.265 -1.625,0.533 -2.413,0.849 -0.245,0.139 -0.487,0.277 -0.733,0.418 -0.339,0.193 -0.731,0.416 -1.073,0.609 -0.023,0.083 -0.014,0.209 -0.039,0.288 0.483,0.183 0.947,0.443 1.43,0.628 0.071,-0.109 0.093,-0.185 0.186,-0.24 0.051,-0.027 0.074,-0.107 0.121,-0.133 0.531,-0.437 0.988,-0.89 1.518,-1.326 0.532,-0.433 1.118,-0.769 1.679,-1.152 0.094,-0.057 0.172,-0.033 0.247,-0.012 0.077,0.022 0.133,0.123 0.108,0.201 0.053,0.098 0.061,0.227 0.018,0.381"
           style="fill:#ffffff;fill-opacity:1;fill-rule:nonzero;stroke:none"
           id="path68"
           inkscape:connector-curvature="0" /><path
           d="m 220.593,326.85 -0.006,-0.004 c 0,0 0.006,0.004 0.01,0.006 -0.002,0 -0.003,-0.002 -0.004,-0.002 m 0.986,6.41 c 0,0 0.095,0.064 0.186,0.125 -0.014,0 -0.028,0.002 -0.028,0.002 l -0.158,-0.127 z m 19.118,23.22 0.009,0 -0.009,0 z"
           style="fill:#ffffff;fill-opacity:1;fill-rule:nonzero;stroke:none"
           id="path70"
           inkscape:connector-curvature="0" /><path
           d="m 353.604,424.474 c 0,0 -24.821,25.264 -68.736,9.926 0,0 -90.947,-32.377 -96.792,-66.89 -2.473,-13.889 6.68,-26.717 6.68,-26.717 0,0 -1.666,10.303 -1.666,14.539 0,26.826 54.118,52.925 54.118,52.925 0,0 50.367,28.496 70.148,26.674 0,0 14.342,2.176 36.248,-10.457"
           style="fill:#ffffff;fill-opacity:1;fill-rule:nonzero;stroke:none"
           id="path72"
           inkscape:connector-curvature="0" /><path
           d="m 285.452,432.736 c -1.017,-0.363 -90.035,-32.442 -95.637,-65.519 -0.273,-1.537 -0.394,-3.065 -0.394,-4.565 0,-4.254 0.975,-8.269 2.182,-11.625 -0.165,1.643 -0.278,3.172 -0.278,4.305 0,27.486 52.349,53.175 55.063,54.488 2.49,1.406 50.732,28.488 70.884,26.879 0.5,0.064 2.159,0.218 4.806,0.086 -9.987,1.486 -22.265,0.966 -36.626,-4.049"
           style="fill:#231f20;fill-opacity:1;fill-rule:nonzero;stroke:none"
           id="path74"
           inkscape:connector-curvature="0" /><path
           d="m 286.036,431.072 c -1.037,-0.371 -89.058,-32.135 -94.481,-64.15 -0.129,-0.727 -0.132,-1.494 -0.195,-2.244 8.95,24.107 48.934,44.152 54.207,46.704 3.387,1.912 22.783,12.707 41.797,20.098 -0.444,-0.148 -0.883,-0.254 -1.328,-0.408"
           style="fill:#ffffff;fill-opacity:1;fill-rule:nonzero;stroke:none"
           id="path76"
           inkscape:connector-curvature="0" /></g></g></g></svg>