<?xml version="1.0" encoding="UTF-8" standalone="no"?>
<!-- Created with Inkscape (http://www.inkscape.org/) -->

<svg
   xmlns:dc="http://purl.org/dc/elements/1.1/"
   xmlns:cc="http://creativecommons.org/ns#"
   xmlns:rdf="http://www.w3.org/1999/02/22-rdf-syntax-ns#"
   xmlns:svg="http://www.w3.org/2000/svg"
   xmlns="http://www.w3.org/2000/svg"
   xmlns:sodipodi="http://sodipodi.sourceforge.net/DTD/sodipodi-0.dtd"
   xmlns:inkscape="http://www.inkscape.org/namespaces/inkscape"
   id="svg2"
   version="1.1"
   inkscape:version="0.48.4 r9939"
   width="638.75"
   height="350"
     viewBox = "0 0 638 350"
   xml:space="preserve"
   sodipodi:docname="Baseball (8).svg"><metadata
     id="metadata8"><rdf:RDF><cc:Work
         rdf:about=""><dc:format>image/svg+xml</dc:format><dc:type
           rdf:resource="http://purl.org/dc/dcmitype/StillImage" /><dc:title></dc:title></cc:Work></rdf:RDF></metadata><defs
     id="defs6"><clipPath
       clipPathUnits="userSpaceOnUse"
       id="clipPath16"><path
         d="M 0,280 511,280 511,0 0,0 0,280 z"
         id="path18" /></clipPath></defs><sodipodi:namedview
     pagecolor="#ffffff"
     bordercolor="#666666"
     borderopacity="1"
     objecttolerance="10"
     gridtolerance="10"
     guidetolerance="10"
     inkscape:pageopacity="0"
     inkscape:pageshadow="2"
     inkscape:window-width="640"
     inkscape:window-height="480"
     id="namedview4"
     showgrid="false"
     inkscape:zoom="0.3830277"
     inkscape:cx="310.96353"
     inkscape:cy="115.19792"
     inkscape:window-x="0"
     inkscape:window-y="0"
     inkscape:window-maximized="0"
     inkscape:current-layer="g10" /><g
     id="g10"
     inkscape:groupmode="layer"
     inkscape:label="Baseball (8)"
     transform="matrix(1.25,0,0,-1.25,0,350)"><path
       d="m 152.43,260.35 c 30.53,11.48 63.01,17.61 95.57,18.92 6.65,-0.04 13.31,-0.11 19.97,0.06 48.12,-1.59 95.83,-16.75 135.83,-43.6 35.32,-23.85 63.5,-57.56 82.52,-95.56 15.04,-29.74 23.2,-62.87 24,-96.17 -0.34,-4.1 0.61,-8.51 -1.05,-12.37 -4.43,21.47 -9.39,42.94 -17.31,63.42 -13.46,35.27 -35.46,67.05 -62.85,92.93 1.6,-4.37 2.48,-8.99 4.35,-13.27 -3.65,-3.98 -6.96,-8.28 -10.94,-11.96 -1.91,10.03 -3.71,20.08 -5.29,30.16 -4.96,-4.37 -9.55,-9.13 -14.01,-14.01 3.61,-8.56 7.05,-17.2 10.53,-25.81 -1.39,-2.46 -3.48,-4.44 -5.09,-6.75 -1.57,-1.92 -2.78,-4.32 -5.09,-5.46 -2.58,9.73 -5.27,19.42 -7.8,29.16 -4.57,-6.12 -9.24,-12.16 -13.34,-18.61 -0.09,-1.03 0.84,-1.82 1.25,-2.7 4.18,-6.55 8.13,-13.25 12.33,-19.8 -2.08,-4.7 -4.3,-9.34 -6.25,-14.1 -4.79,8.86 -8.92,18.05 -13.48,27.02 -3.31,-6.49 -7.38,-12.7 -10.03,-19.48 5.38,-7.58 11.47,-14.74 16.62,-22.43 -1.28,-4.82 -2.52,-9.69 -4.45,-14.3 -5.46,9.21 -10.84,18.49 -16.72,27.44 -2.56,-6.29 -5.35,-12.5 -7.42,-18.97 -0.95,-2.01 1.34,-3.11 2.42,-4.36 6.79,-6.74 13.85,-13.21 20.7,-19.87 0.13,-4.44 -1.63,-8.92 -2.27,-13.37 -8.69,8.26 -16.09,17.89 -25.07,25.82 -1.86,-6.57 -3.92,-13.08 -5.9,-19.61 10.63,-7.05 21.44,-13.8 32.15,-20.7 -0.05,-4.72 -0.25,-9.43 -0.47,-14.15 -11.46,8.26 -22.89,16.56 -34.28,24.91 -2.55,-9.2 -4.6,-18.53 -7.14,-27.73 0.53,9.68 1.64,19.32 2.58,28.97 -12.62,-4.49 -25.28,-8.89 -37.86,-13.52 0.25,4.75 0.44,9.5 0.95,14.23 12.77,2.94 25.56,5.76 38.29,8.87 0.85,8.34 2.73,16.52 4.15,24.78 -12.33,-1.92 -24.67,-3.77 -36.99,-5.7 0.9,4.4 1.98,8.76 2.87,13.16 12.05,0.72 24.12,0.7 36.17,1.38 1.87,8.53 4.54,16.82 7.13,25.14 -12.05,-0.23 -24.1,-0.73 -36.15,-0.87 1.41,4.25 2.92,8.48 4.3,12.74 11.83,-0.57 23.67,-1.07 35.5,-1.77 2.21,4.56 3.6,9.48 5.93,13.99 1.68,3.27 3.42,6.51 4.71,9.95 -11.31,0.96 -22.64,1.68 -33.92,2.96 2.14,3.94 4.01,8.01 6.08,11.98 10.6,-2.41 21.16,-5.14 31.82,-7.28 2.06,2.01 3.09,4.9 4.62,7.33 2.77,5.53 6.88,10.22 10.02,15.53 -9.82,2.18 -19.64,4.34 -29.44,6.63 2.59,3.68 5.08,7.43 7.67,11.11 8.18,-3.12 16.35,-6.26 24.61,-9.18 1.05,-0.17 2.11,-0.27 3.19,-0.31 2.7,3.93 6.09,7.36 8.56,11.46 -7.38,1.12 -15.04,0.72 -22.25,2.79 2.82,3.58 5.29,7.41 7.81,11.2 0.98,-0.44 1.96,-0.87 2.96,-1.3 -19.97,12.42 -42.09,21.19 -64.85,26.98 -5.95,1.27 -11.85,2.89 -17.92,3.58 -1.95,0.61 -4,0.81 -6.02,1 -6.2,1.44 -12.6,1.6 -18.87,2.52 -4.48,0.46 -9.03,-0.05 -13.46,0.84 -8.2,0.37 -16.42,0.3 -24.62,0.01 -3.91,-1.12 -8.04,-0.28 -12.04,-0.76 -6.65,-0.78 -13.35,-1.37 -19.92,-2.63 -31.31,-4.35 -61.88,-14.91 -88.76,-31.55 1.64,0.34 3.24,0.85 4.86,1.28 2.42,-3.92 5.46,-7.44 7.55,-11.56 -7.2,-1.05 -14.46,-1.49 -21.67,-2.34 3.27,-3.67 6.02,-7.77 9.28,-11.45 0.36,0.01 1.08,0.04 1.44,0.05 8.46,2.93 16.88,6.06 25.19,9.41 2.72,-3.62 5.16,-7.44 7.77,-11.14 -9.54,-2.29 -19.15,-4.3 -28.71,-6.52 3.01,-4.99 6.87,-9.41 9.58,-14.58 1.5,-2.83 3.17,-5.56 4.76,-8.34 10.34,2.13 20.58,4.78 30.89,7.05 l 0.71,-0.3 c 2.1,-3.77 3.78,-7.75 5.9,-11.51 -10.94,-1.23 -21.92,-2 -32.89,-2.87 0.8,-3.14 2.45,-5.95 3.89,-8.83 2.54,-4.82 4.32,-9.98 6.3,-15.05 11.52,0.51 23.06,0.9 34.56,1.78 1.99,-4.12 3.08,-8.6 4.63,-12.9 -11.74,0.18 -23.47,0.54 -35.21,0.87 2.46,-8.37 5.23,-16.64 7.1,-25.18 11.75,-0.66 23.53,-0.61 35.28,-1.37 0.89,-4.41 1.96,-8.79 2.93,-13.18 -11.99,2.01 -24.04,3.61 -36.03,5.64 1.25,-8.39 3.01,-16.7 4.22,-25.11 12.46,-2.61 24.8,-5.73 37.24,-8.42 0.42,-4.72 0.69,-9.46 0.89,-14.2 -12.32,4.42 -24.63,8.89 -37.02,13.13 1.3,-9.44 1.6,-18.99 2.92,-28.42 -0.77,0.64 -0.84,1.72 -1.12,2.6 -2.12,8.44 -4.18,16.9 -6.38,25.32 -11.86,-8.24 -23.36,-16.98 -35.14,-25.34 -0.15,4.73 -0.34,9.45 -0.41,14.18 10.95,7.01 21.89,14.03 32.83,21.06 -1.95,6.73 -4.03,13.42 -6.07,20.13 -8.87,-8.63 -16.97,-18.03 -25.6,-26.91 -0.8,4.54 -1.9,9.02 -2.51,13.59 8.46,7.54 16.42,15.62 24.66,23.4 -2.57,7 -5.37,13.92 -8.22,20.81 -6.06,-9.32 -11.34,-19.14 -17.48,-28.4 -1.54,4.75 -2.81,9.57 -4.33,14.32 5.54,7.76 11.75,15.06 17.03,22.99 -1.96,6.62 -6.19,12.46 -9.39,18.59 -0.25,0.05 -0.75,0.14 -1,0.19 -4.28,-8.96 -8.79,-17.81 -13.03,-26.79 -2.55,4.45 -4.58,9.23 -6.42,14.01 4.34,7.78 9.77,15.04 13.78,22.96 -3.95,6.68 -8.94,12.68 -13.49,18.95 -2.6,-9.87 -5.2,-19.76 -7.98,-29.59 -1.02,-0.91 -1.87,1.05 -2.52,1.61 -2.48,3.45 -5.38,6.61 -7.71,10.15 3.54,8.86 7.22,17.67 10.75,26.53 -4.56,4.67 -8.78,9.73 -14.08,13.61 -1.82,-10.12 -3.42,-20.29 -5.41,-30.38 -4,3.58 -7.29,7.86 -10.89,11.83 1.76,4.64 3.04,9.44 4.35,14.22 C 78.51,184.66 74.2,181.35 70.81,177.17 44.31,148.94 25,114.46 12.5,77.93 7.52,63.48 4.17,48.54 1.5,33.51 c -0.47,1.12 -0.72,2.29 -0.74,3.5 -0.19,6.7 -0.34,13.41 0.48,20.07 1.38,27.74 8.22,55.26 20.53,80.19 9.43,19.27 22.11,36.75 35.82,53.17 25.32,30.5 57.58,55.79 94.84,69.91"
       style="fill:#000000;fill-opacity:1;fill-rule:nonzero;stroke:none"
       id="path22"
       inkscape:connector-curvature="0" /></g></svg>