<?xml version="1.0" encoding="UTF-8" standalone="no"?>
<!-- Created with Inkscape (http://www.inkscape.org/) -->

<svg
   xmlns:dc="http://purl.org/dc/elements/1.1/"
   xmlns:cc="http://creativecommons.org/ns#"
   xmlns:rdf="http://www.w3.org/1999/02/22-rdf-syntax-ns#"
   xmlns:svg="http://www.w3.org/2000/svg"
   xmlns="http://www.w3.org/2000/svg"
   xmlns:sodipodi="http://sodipodi.sourceforge.net/DTD/sodipodi-0.dtd"
   xmlns:inkscape="http://www.inkscape.org/namespaces/inkscape"
   id="svg2"
   version="1.1"
   inkscape:version="0.48.4 r9939"
   width="369.57242"
   height="132.09189"
    viewBox = "0 0 369 132"
   xml:space="preserve"
   sodipodi:docname="Baseball (9).pdf"><metadata
     id="metadata8"><rdf:RDF><cc:Work
         rdf:about=""><dc:format>image/svg+xml</dc:format><dc:type
           rdf:resource="http://purl.org/dc/dcmitype/StillImage" /><dc:title></dc:title></cc:Work></rdf:RDF></metadata><defs
     id="defs6"><clipPath
       clipPathUnits="userSpaceOnUse"
       id="clipPath16"><path
         d="M 0,792 612,792 612,0 0,0 0,792 z"
         id="path18"
         inkscape:connector-curvature="0" /></clipPath></defs><sodipodi:namedview
     pagecolor="#ffffff"
     bordercolor="#666666"
     borderopacity="1"
     objecttolerance="10"
     gridtolerance="10"
     guidetolerance="10"
     inkscape:pageopacity="0"
     inkscape:pageshadow="2"
     inkscape:window-width="640"
     inkscape:window-height="480"
     id="namedview4"
     showgrid="false"
     showguides="true"
     inkscape:guide-bbox="true"
     fit-margin-top="0"
     fit-margin-left="0"
     fit-margin-right="0"
     fit-margin-bottom="0"
     inkscape:zoom="0.23838384"
     inkscape:cx="180.37867"
     inkscape:cy="68.505556"
     inkscape:window-x="0"
     inkscape:window-y="0"
     inkscape:window-maximized="0"
     inkscape:current-layer="g10" /><g
     id="g10"
     inkscape:groupmode="layer"
     inkscape:label="Baseball (9)"
     transform="matrix(1.25,0,0,-1.25,-202.12133,558.58634)"><g
       id="g12"><g
         id="g14"
         clip-path="url(#clipPath16)"><path
           d="m 359.059,376.383 c -39.36,5.088 -18.684,14.99 -18.684,14.99 63.242,29.057 116.98,8.9 116.98,8.9 -27.359,23.199 -115.359,7.142 -115.359,7.142 -69.89,-12.169 -67.966,16.002 -67.966,16.002 0.922,15.923 36.214,9.096 36.214,9.096 -24.952,12.975 -45.225,15.058 -56.776,2.626 -4.405,-4.739 -8.918,-7.713 -12.824,-9.587 -3.358,-0.321 -6.293,0.499 -8.514,1.518 -1.574,1.098 -3.188,2.131 -4.836,3.093 -3.887,2.853 -2.291,5.468 -1.002,6.771 9.225,3.573 21.396,2.843 21.396,2.843 -30.132,15.191 -56.394,2.545 -68.672,-6.11 -12.526,-7.557 -17.961,-22.977 -12.477,-40.784 4.742,-15.401 16.549,-29.01 30.765,-37.299 l -0.414,0.008 c 20.324,-13.404 62.256,-18.988 85.754,-10.053 0,0 -19.239,0.795 -30.424,5.711 -1.272,2.162 -3.227,7.148 5.269,7.803 l 0.082,0.115 c 0.432,-0.133 0.869,-0.281 1.305,-0.441 1.287,-0.579 2.555,-1.122 3.801,-1.637 1.14,-0.553 1.898,-0.971 1.898,-0.971 l -0.996,0.6 c 30.336,-12.248 47.425,-5.723 47.425,-5.723 -7.396,-0.81 -21.382,4.287 -21.382,4.287 -19.984,8.065 -6.912,19.53 -6.912,19.53 9.625,5.81 42.116,-5.372 42.116,-5.372 68.326,-14.857 93.033,7.178 93.033,7.178 -19.009,-7.459 -58.8,-0.236 -58.8,-0.236"
           style="fill:#231f20;fill-opacity:1;fill-rule:nonzero;stroke:none"
           id="path20"
           inkscape:connector-curvature="0" /><path
           d="m 180.947,430.928 -0.098,-0.068 -0.101,-0.063 c -8.448,-5.095 -12.986,-13.945 -12.986,-24.439 0,-3.966 0.649,-8.168 1.979,-12.489 4.309,-13.992 15.243,-27.223 29.25,-35.39 0,0 3.75,-2.188 7.037,-4.104 15.35,-7.191 37.405,-10.787 55.825,-9.549 -3.874,0.838 -7.725,1.926 -10.983,3.358 l -0.99,0.435 -0.549,0.934 c -1.064,1.806 -1.6,3.595 -1.6,5.246 0,1.125 0.248,2.185 0.75,3.148 1.178,2.254 3.606,3.623 7.09,4.19 0.358,0.5 4.59,-0.309 4.59,-0.309 l 0.086,-0.043 3.813,-1.64 0.076,-0.04 c 0,0 0.377,-0.191 0.668,-0.341 0,0.002 0.031,0.062 0.031,0.062 7.432,-3.002 14.014,-4.808 19.717,-5.869 -7.432,3.973 -9.397,8.658 -9.397,12.475 0,0.58 0.045,1.136 0.123,1.67 0.545,3.781 3.53,8.382 6.028,9.689 l -0.328,-0.109 c 10.328,6.234 38.643,-2.916 44.729,-5 30.609,-6.635 52.184,-5.664 66.543,-2.752 -17.439,0.166 -34.385,3.314 -34.566,3.398 l 0.945,-0.267 c -18.635,2.408 -27.035,6.253 -27.035,12.421 0,0.2 0.008,0.403 0.025,0.608 0.361,4.195 5.08,7.535 7.719,8.398 -0.129,-0.025 -0.361,-0.07 -0.361,-0.07 18.509,8.503 36.166,12.891 51.962,14.821 -25.39,-1.03 -47.902,-5.041 -48.341,-5.122 -32.039,-5.577 -53.882,-3.669 -64.947,5.67 -6.277,5.299 -6.97,11.243 -6.97,13.598 l 0,0.135 0.006,0.09 c 0.232,4.009 2.265,9.346 10.642,12.015 2.617,0.833 5.713,1.356 9.246,1.576 -24.289,8.977 -34.711,-5.3 -35.314,-4.995 -3.946,-4.096 -8.362,-7.37 -13.166,-9.676 l -0.539,-0.257 -0.592,-0.057 c -3.453,-0.331 -6.895,0.278 -10.231,1.808 l -0.273,0.125 -0.248,0.172 c -1.494,1.043 -3.043,2.035 -4.608,2.948 l -0.152,0.089 -0.14,0.103 c -2.344,1.722 -3.622,3.73 -3.797,5.969 -0.014,0.172 -0.02,0.344 -0.02,0.516 0,1.905 0.83,3.744 2.418,5.347 l 0.504,0.507 0.666,0.258 c 2.051,0.794 4.338,1.44 6.836,1.935 -23.631,5.465 -42.908,-5.381 -50.972,-11.065"
           style="fill:#ffffff;fill-opacity:1;fill-rule:nonzero;stroke:none"
           id="path22"
           inkscape:connector-curvature="0" /><path
           d="m 182.876,428.188 -0.197,-0.139 -0.204,-0.121 c -7.326,-4.422 -11.361,-12.082 -11.361,-21.57 0,-3.688 0.615,-7.558 1.83,-11.504 4.068,-13.209 14.436,-25.725 27.737,-33.481 0,0 6.019,-3.512 6.867,-4.006 10.627,-4.959 24.748,-8.187 38.693,-9.125 -1.22,2.199 -1.861,4.403 -1.861,6.557 0,1.678 0.379,3.26 1.131,4.697 1.564,2.996 4.535,4.902 8.74,5.754 1.416,0.643 3.455,0.459 6.541,-0.131 l 0.359,-0.068 0.42,-0.188 3.914,-1.685 0.174,-0.088 0.676,-0.344 -0.244,0.188 c 2.388,-0.963 4.758,-1.799 7.113,-2.569 -1.029,2.192 -1.398,4.289 -1.398,6.067 l 0.156,2.148 c 0.656,4.545 3.947,9.807 7.326,11.877 0,0.004 -0.041,0.094 -0.041,0.094 10.973,6.623 36.573,-0.961 47.316,-4.621 4.732,-1.024 9.306,-1.832 13.802,-2.535 -7.09,2.398 -12.123,6.062 -12.123,12.087 l 0.039,0.895 c 0.461,5.367 5.504,9.497 9.319,11.014 l -0.022,0.071 c 3.125,1.436 6.287,2.747 9.465,3.998 -2.408,-0.381 -3.791,-0.63 -3.846,-0.64 -33.078,-5.759 -55.85,-3.603 -67.708,6.405 -7.365,6.218 -8.16,13.373 -8.16,16.16 l 0,0.238 0.012,0.181 c 0.197,3.405 1.599,9.048 8.055,12.848 -6.745,0.218 -12.125,-1.5 -16.065,-5.177 -0.164,-0.496 -1.891,-2.245 -2.555,-2.453 -4.039,-4.008 -8.474,-7.229 -13.232,-9.513 -0.002,0 -1.076,-0.515 -1.076,-0.515 l -1.188,-0.113 c -4.045,-0.388 -8.064,0.317 -11.943,2.097 0.002,-0.002 -0.272,0.123 -0.272,0.123 l -0.277,0.128 -0.496,0.347 c -1.426,0.993 -2.9,1.935 -4.377,2.799 -0.008,0.005 -0.303,0.177 -0.303,0.177 l -0.275,0.2 c -3.953,2.906 -4.988,6.18 -5.162,8.416 l -0.031,0.778 c 0,2.179 0.726,4.266 2.082,6.141 -17.596,0.408 -31.538,-7.802 -37.35,-11.899"
           style="fill:#231f20;fill-opacity:1;fill-rule:nonzero;stroke:none"
           id="path24"
           inkscape:connector-curvature="0" /><path
           d="m 171.145,392.727 c -7.206,22.875 5.03,41.43 27.333,41.441 22.302,0.012 46.222,-18.525 53.431,-41.402 7.205,-22.879 -5.029,-41.434 -27.334,-41.446 -22.301,-0.011 -46.223,18.526 -53.43,41.407"
           style="fill:#231f20;fill-opacity:1;fill-rule:nonzero;stroke:none"
           id="path26"
           inkscape:connector-curvature="0" /><path
           d="m 225.733,356.363 c 0,-0.002 0.002,-0.002 0.006,-0.004 -0.004,0 -0.004,0 -0.006,-0.002 l 0,0.006 z"
           style="fill:#231f20;fill-opacity:1;fill-rule:nonzero;stroke:none"
           id="path28"
           inkscape:connector-curvature="0" /><path
           d="m 180.44,389.113 0.004,0 c 0,0 -0.011,0.002 -0.012,0.002 0.003,0 0.005,-0.002 0.008,-0.002 m 23.555,23.595 0.012,0 c 0,0 -0.02,0.005 -0.026,0.005 0.004,0 0.01,-0.005 0.014,-0.005"
           style="fill:#231f20;fill-opacity:1;fill-rule:nonzero;stroke:none"
           id="path30"
           inkscape:connector-curvature="0" /><path
           d="m 191.075,420.025 c 0,0.001 -0.002,0.001 -0.002,0.001 l -0.002,0.006 c 0,0 0.004,-0.006 0.004,-0.007 m -15.196,-19.149 c 0,0 0.288,-0.061 0.432,-0.092 -0.175,0.368 -0.343,1.105 -0.343,1.105 0,0 0.069,0.693 0.672,0.994 0.605,0.309 0.953,0.064 0.953,0.064 0.018,-10e-4 1.085,-0.205 1.085,-0.205 0,0 0.29,-0.064 0.413,-0.087 -0.074,0.076 -0.171,0.174 -0.171,0.174 l -0.029,0.113 -0.375,1.019 c 0,0 0.028,0.854 0.408,1.189 0.379,0.336 0.914,0.362 0.914,0.362 l 0.234,-0.028 1.339,-0.243 c 0,0 0.324,-0.065 0.522,-0.105 -0.009,0.008 -0.017,0.01 -0.026,0.022 -0.015,0.012 -0.491,0.908 -0.562,1.127 -0.072,0.219 -0.084,0.617 -0.084,0.617 l 0.392,0.829 c 0.392,0.36 1.118,0.264 1.118,0.264 l 0.793,-0.112 c 0,0 0.545,-0.095 1.052,-0.185 -0.054,0.052 -0.151,0.125 -0.182,0.156 l -0.208,0.218 -0.049,0.124 c 0,0 -0.352,0.38 -0.437,1.418 -0.085,1.037 1.397,1.161 1.397,1.161 l 0.196,-0.023 c 0,0 1.217,-0.184 1.208,-0.169 -0.11,0.181 -0.521,0.845 -0.643,1.207 -0.119,0.361 -0.034,0.785 0.345,1.243 0.378,0.455 0.928,0.36 0.928,0.36 0.067,-0.005 1.494,-0.088 1.494,-0.088 0,0 0.262,-0.018 0.4,-0.027 -0.128,0.092 -0.269,0.168 -0.382,0.286 l 0,0.003 c -0.016,0.05 -0.607,0.923 -0.703,1.381 -0.097,0.456 0.088,0.736 0.214,0.988 0.172,0.388 0.541,0.637 1.073,0.611 0.023,-0.002 1.324,-0.078 1.336,-0.079 -0.108,0.081 -0.227,0.139 -0.321,0.238 -0.281,0.285 -0.478,0.614 -0.584,0.945 -0.045,0.142 -0.017,0.271 -0.027,0.408 -0.002,0.233 -0.106,0.768 0.135,1.122 0.238,0.357 1.113,0.427 1.113,0.427 0,0 0.238,-0.016 0.582,-0.036 -0.098,0.095 -0.195,0.18 -0.277,0.293 -0.555,0.765 -0.596,1.52 -0.596,1.52 0,0 0.021,0.305 0.293,0.623 0.17,0.334 0.48,0.563 0.941,0.569 -0.074,0.136 -0.175,0.256 -0.22,0.398 -0.012,0.035 -0.018,0.067 -0.028,0.101 l -0.105,0.401 c 0,0 0.013,0.626 0.273,0.906 0.16,0.231 0.559,0.324 1.127,0.297 0,0 0.045,-0.002 0.067,-0.004 -0.071,0.116 -0.122,0.203 -0.122,0.203 0.002,0 -0.205,0.937 0.231,1.389 0.432,0.449 0.803,0.3 0.803,0.3 0,0 0.218,0.007 0.258,0.011 -0.309,0.524 -0.354,0.735 -0.352,1.046 0,0.309 0.029,0.583 0.162,0.754 0.131,0.175 0.303,0.175 0.303,0.175 0,0 0.463,0.212 0.474,0.222 -0.025,0.055 -0.103,0.128 -0.121,0.183 -0.059,0.187 -0.065,0.345 -0.055,0.487 -10e-4,0.194 0.026,0.425 0.124,0.647 0.148,0.149 0.656,0.655 0.656,0.655 0.027,0.01 0.135,0.036 0.219,0.053 -0.336,0.385 -0.297,0.504 -0.297,0.504 0,0 -0.188,0.539 0.297,0.827 l -0.002,0 c 0,0 0.009,0.118 -0.057,-0.005 -5.537,-0.367 -10.524,-1.934 -14.442,-4.703 l 0.032,0.026 -1.004,-0.752 c -4.451,-3.455 -7.461,-8.373 -8.714,-14.227 -0.858,-3.997 -0.874,-8.254 -0.137,-12.676 0.032,0.071 0.305,0.144 0.305,0.144 l 0.855,0.106 0.32,0.018 0.264,-0.006 0.383,0.832 c 0.387,0.361 0.986,0.412 1.561,0.129 l 0.959,-0.142 z"
           style="fill:#ffffff;fill-opacity:1;fill-rule:nonzero;stroke:none"
           id="path32"
           inkscape:connector-curvature="0" /><path
           d="m 194.571,429.622 c -0.01,-0.051 -0.01,-0.116 -0.014,-0.176 0,-0.145 0.015,-0.271 0.034,-0.345 l -0.02,0.521 z"
           style="fill:#ffffff;fill-opacity:1;fill-rule:nonzero;stroke:none"
           id="path34"
           inkscape:connector-curvature="0" /><path
           d="m 250.466,391.787 c -0.268,0.842 -0.656,1.695 -0.977,2.543 -0.064,-0.084 -0.117,-0.172 -0.213,-0.226 -0.238,-0.065 -0.953,-0.213 -0.953,-0.213 l -0.261,0.072 c 0,0 -1.565,0.535 -1.651,0.566 0.104,-0.424 0.305,-0.8 0.244,-0.966 -0.062,-0.167 -0.443,-0.795 -0.703,-0.954 -0.258,-0.156 -1.119,-0.123 -1.119,-0.123 l -0.006,0.078 c 0,0 -0.441,0.112 -0.633,0.161 0.008,-0.02 0.014,-0.043 0.022,-0.067 0.006,-0.013 0.01,-0.025 0.01,-0.027 0.002,-0.012 -0.02,0.043 -0.043,0.099 l -0.002,0 c 0.05,-0.119 0.187,-0.433 0.187,-0.433 l -0.041,-0.395 c 0,0 -0.172,-0.369 -0.273,-0.58 -0.157,-0.306 -0.408,-0.488 -0.729,-0.49 -0.359,-0.066 -0.383,-0.064 -0.383,-0.064 l -0.955,0.078 c 0,0 -0.468,0.056 -0.875,0.107 0.186,-0.365 0.395,-0.783 0.453,-0.9 0.1,-0.489 0.006,-0.967 -0.302,-1.239 0,0 -0.106,-0.388 -0.928,-0.353 0,0 -0.908,0.059 -1.777,0.113 0.134,-0.271 0.543,-1.076 0.611,-1.211 0.16,-0.625 -0.283,-1.222 -0.289,-1.218 -0.01,0 -0.678,-0.366 -0.94,-0.37 -0.259,-0.005 -0.873,0.032 -0.873,0.032 0,0 -0.533,0.037 -1.048,0.076 0.142,-0.112 0.298,-0.238 0.359,-0.301 0.041,-0.043 0.574,-0.775 0.748,-1.367 0.17,-0.59 -0.27,-0.975 -0.314,-1.141 -0.206,-0.279 -0.516,-0.474 -0.965,-0.455 -0.008,0 -0.53,0.031 -1.157,0.072 0.024,-0.046 0.62,-1.222 0.666,-1.312 0.09,-0.4 0.041,-0.721 -0.093,-0.983 -0.162,-0.429 -0.537,-0.712 -1.08,-0.697 l 0.004,0 c 0,-0.004 -0.678,-0.056 -0.678,-0.056 0,0 -0.918,-0.045 -1.619,-0.082 0.386,-0.174 0.843,-0.309 1.142,-0.59 0.299,-0.283 0.647,-1.205 0.692,-1.285 0.088,-0.403 0.039,-0.725 -0.1,-0.987 -0.168,-0.431 -0.547,-0.707 -1.086,-0.689 0.004,0 0.006,0 0.008,-0.002 0.002,-0.008 -0.717,-0.063 -0.717,-0.063 0,0 -0.183,-0.007 -0.223,-0.009 0.327,-0.131 0.633,-0.313 0.87,-0.567 0.005,-0.017 0.613,-1.137 0.683,-1.271 0.092,-0.407 0.045,-0.733 -0.096,-0.996 -0.166,-0.42 -0.533,-0.696 -1.058,-0.686 0.121,-0.17 0.471,-0.428 0.683,-0.957 0.215,-0.533 0.053,-1.063 -0.158,-1.357 -0.177,-0.35 -0.467,-0.594 -0.892,-0.6 0.047,0 0.093,0.002 0.093,0.002 0,0 -0.435,-0.063 -0.71,-0.102 0.136,-0.089 0.269,-0.113 0.404,-0.257 0.006,-0.016 0.426,-0.266 0.691,-1.12 0.266,-0.853 -0.232,-1.314 -0.232,-1.314 0,0 -0.252,-0.094 -0.5,-0.188 0.023,-0.039 0.498,-0.494 0.67,-1.089 0.168,-0.596 0.011,-0.889 0.011,-0.889 -0.002,-0.008 -0.49,-0.66 -0.49,-0.66 -0.031,-0.02 -0.01,-0.002 -0.01,-0.002 l -0.168,-0.139 -0.293,-0.06 c 0,0 -0.246,-0.038 -0.435,-0.061 0.109,-0.144 0.352,-0.297 0.477,-0.627 0.23,-0.73 -0.25,-1.363 -0.25,-1.363 0,0 -0.098,-0.045 -0.129,-0.059 0.361,-0.277 0.627,-0.875 0.627,-0.875 0.195,-0.76 -0.002,-0.947 -0.002,-0.947 l -0.705,-0.791 c 0,0 -0.334,-0.119 -0.489,-0.168 0.151,-0.147 0.305,-0.221 0.432,-0.641 0.127,-0.418 0.016,-0.892 0.016,-0.892 -0.004,-0.012 -0.399,-0.623 -0.399,-0.623 l -0.137,-0.211 c 0,0 -0.045,0.012 -0.088,0.019 0.125,-0.142 0.284,-0.263 0.424,-0.644 0.141,-0.385 0.094,-1.002 0.094,-1.002 0,0 -0.111,-0.123 -0.238,-0.254 0.183,-0.176 0.486,-0.457 0.627,-0.592 1.045,0.18 2.08,0.371 3.062,0.637 9.258,2.539 15.721,9.371 17.727,18.74 1.222,5.693 0.783,11.988 -1.252,18.457"
           style="fill:#ffffff;fill-opacity:1;fill-rule:nonzero;stroke:none"
           id="path36"
           inkscape:connector-curvature="0" /><path
           d="m 229.157,397.891 c -0.115,0.424 -0.023,0.873 0.287,1.174 0.024,0.018 0.676,0.361 1.051,0.345 0.377,-0.017 0.389,0.05 1.029,-0.357 0.088,-0.08 0.922,-0.846 0.922,-0.846 -0.097,0.537 -0.211,1.143 -0.211,1.143 l -0.244,1.484 0.051,0.13 c 0,0 0.145,0.562 0.377,0.772 0.234,0.209 0.613,0.279 0.613,0.279 l 0.19,0.042 0.205,0.012 c 0.33,-0.014 0.677,-0.17 1.006,-0.377 0.412,-0.203 0.73,-0.583 0.959,-1.003 -0.004,0.608 -0.022,1.758 -0.022,1.758 l 0.029,0.95 c 0,0 0.071,0.656 0.395,0.928 -0.008,-0.008 0.603,0.287 1.143,0.205 0.537,-0.084 1.521,-0.562 1.546,-0.571 -0.027,0.208 -0.066,0.461 -0.066,0.461 l 0.029,-0.142 c -0.16,0.605 0.035,1.07 0.442,1.285 0.316,0.198 0.728,0.223 1.172,0.057 0.236,-0.104 0.742,-0.321 0.755,-0.327 -0.005,0.045 -0.013,0.112 -0.013,0.112 l 0.095,0.304 c 0,0 0.362,0.237 0.522,0.313 0.32,0.152 0.754,0.16 1.228,-0.068 0.004,-0.006 0.147,-0.136 0.309,-0.291 0.057,0.063 0.18,0.076 0.264,0.129 0.011,0.001 0.023,0.018 0.035,0.023 l -0.014,-0.018 c 0.026,0.018 0.065,0.024 0.094,0.037 -10.135,17.219 -30.047,25.512 -37.645,26.702 0.565,-0.623 1.604,-1.768 1.715,-1.891 0.233,-0.224 0.451,-0.514 0.59,-0.953 0.014,-0.045 0.027,-0.086 0.039,-0.129 l 0.094,-0.355 -0.063,-0.112 c 0,0 -0.222,-0.588 -0.269,-0.717 -0.025,-0.041 -0.043,-0.088 -0.076,-0.126 0.394,-0.602 0.533,-1.415 0.23,-1.835 -0.144,-0.167 -0.541,-0.364 -0.576,-0.407 0.123,-0.186 0.283,-0.367 0.342,-0.553 0.055,-0.169 0.069,-0.333 0.067,-0.49 0.007,-0.199 -0.015,-0.441 -0.114,-0.676 -0.137,-0.136 -0.744,-0.735 -0.793,-0.786 0.043,-0.048 0.025,-0.037 0.025,-0.037 l 0.477,-0.652 0.195,-0.908 0,-0.034 c 0,0 -0.099,-0.65 -0.33,-0.838 -0.23,-0.193 -0.389,-0.121 -0.666,-0.211 0.022,-0.025 0.041,-0.044 0.045,-0.053 0.007,10e-4 0.018,0.003 0.029,0.006 -0.009,-10e-4 -0.018,-0.003 -0.027,-0.006 0.002,-0.001 0.006,-0.009 0.006,-0.009 l -0.02,-0.008 0.356,-0.75 0.09,-0.526 -0.002,-0.035 c 0,0 -0.114,-0.665 -0.332,-0.842 -0.221,-0.175 -0.926,-0.298 -0.926,-0.298 0,0 0.01,0.014 -0.184,0.044 0.143,-0.17 0.147,-0.182 0.147,-0.182 l 0.47,-0.974 0.186,-0.712 -0.123,-0.572 -0.164,-0.162 c -0.244,-0.237 -0.584,-0.321 -0.947,-0.292 -0.346,-0.016 -0.725,0.157 -1.084,0.417 0.238,-0.349 0.439,-0.645 0.439,-0.645 l 0.652,-0.995 -0.212,0.261 c 0.255,-0.264 0.437,-0.56 0.531,-0.864 0.088,-0.279 0.107,-0.565 0.049,-0.841 -0.002,0 -0.325,-0.692 -0.715,-0.905 -0.395,-0.216 -1.078,0.049 -1.268,0.059 -0.123,0.045 -0.236,0.072 -0.359,0.144 0.205,-0.363 0.441,-0.785 0.441,-0.785 -0.006,0.014 0.295,-1.406 0.295,-1.406 0,-0.006 -0.152,-0.72 -0.791,-0.878 -0.64,-0.164 -1.324,0.067 -1.324,0.067 0,0 -1.215,0.932 -1.238,0.95 0.336,-0.728 0.779,-1.679 0.779,-1.679 l 0.301,-0.697 0.254,-1.664 c 0,0 -0.166,-0.429 -0.877,-0.562 -0.709,-0.133 -2.026,0.383 -2.026,0.383 0.008,-0.002 0.125,-2.009 0.125,-2.009 0.02,-0.063 -0.082,-0.753 -0.136,-1.115 -0.164,-0.151 -0.61,-0.706 -1.069,-0.737 -0.459,-0.032 -1.025,0.246 -1.025,0.246 l -0.502,-1.401 0.1,-0.447 c -0.02,0.066 -0.219,-1.181 -0.219,-1.181 -0.053,-0.064 -0.254,-0.296 -0.908,-0.364 -0.653,-0.07 -1.571,0.424 -1.571,0.424 0,0 -0.377,0.537 -0.644,0.919 0.121,-0.673 0.279,-1.543 0.279,-1.543 l 0.164,-1.065 c 0.104,-0.375 0.004,-0.787 -0.256,-1.076 -0.072,-0.033 -0.383,-0.464 -1.238,-0.455 -0.857,0.01 -1.879,0.619 -1.879,0.619 l -0.326,-1.435 c 0,0 0.002,-0.777 -0.36,-0.992 -0.035,-0.017 -0.22,-0.396 -1.027,-0.351 -0.804,0.046 -1.21,0.586 -1.402,0.689 -0.042,0.039 -0.088,0.066 -0.128,0.105 0.043,-0.558 0.09,-1.181 0.09,-1.181 l 0.039,-1.313 c 0,0 -0.441,-0.668 -0.621,-0.793 -0.181,-0.125 -0.522,-0.295 -0.989,-0.209 -0.465,0.084 -1.326,0.715 -1.326,0.715 -0.007,0.006 -0.074,0.121 -0.159,0.268 0.01,-0.192 0.017,-0.326 0.017,-0.326 l 0.039,-1.164 -0.045,0.244 c 0.143,-0.508 0.017,-0.975 -0.355,-1.315 l -0.201,-0.181 -0.053,0.031 c 0,0 -0.747,-0.051 -0.896,-0.059 -0.257,0.022 -0.523,0.108 -0.783,0.25 0.005,-0.025 0.018,-0.107 0.018,-0.107 0.108,-0.389 0.022,-0.785 -0.294,-1.08 l -0.257,-0.162 c 0,0 -1.144,0.084 -1.239,0.088 -0.332,0.128 -0.665,0.316 -0.98,0.638 -0.011,0.014 -0.644,1.1 -0.644,1.1 l -0.032,0.139 -0.121,0.816 -0.031,-0.123 0.022,-2.291 -0.032,0.109 c 0.036,-0.344 -0.027,-0.672 -0.267,-0.883 l -0.1,-0.087 -0.132,-0.049 c -0.4,-0.153 -0.889,-0.033 -1.335,0.246 -0.065,0.051 -0.402,0.293 -0.409,0.293 -0.027,-0.024 -0.089,-0.026 -0.124,-0.043 0.006,0.006 0.002,0.002 -0.002,-0.004 -0.161,-0.1 -0.31,-0.213 -0.615,-0.201 l -0.279,0.013 c 0,0 -0.059,0.03 -0.115,0.057 3.24,-7.893 9.132,-15.523 17.934,-23.197 11.829,-9.061 22.542,-11.1 28.219,-11.477 -0.443,0.276 -0.91,0.565 -0.91,0.565 l 0.256,-0.153 -1.336,1.045 0.031,0.422 c 0,0 -0.224,0.287 -0.213,0.77 0.014,0.482 0.336,0.724 0.336,0.724 0,0 0.022,0.016 0.047,0.033 -0.008,0.008 -0.062,0.077 -0.062,0.077 l -0.26,0.367 c 0.004,0 -0.275,0.805 -0.301,1.347 -0.027,0.543 0.406,0.541 0.551,0.733 0.039,0.023 0.098,0.031 0.144,0.055 -0.021,0.017 -0.044,0.039 -0.06,0.056 0.01,0.01 0.017,0.024 0.017,0.024 0,0 -0.021,-0.014 -0.025,-0.016 -0.035,0.031 -0.346,0.318 -0.346,0.318 l -0.166,0.268 c 0,0 -0.205,0.295 -0.363,0.736 -0.16,0.44 0.004,0.946 0.004,0.946 -0.002,0 0.145,0.166 0.307,0.345 -0.018,0.014 -0.207,0.2 -0.207,0.2 0,0 -0.518,0.642 -0.666,1.07 -0.151,0.435 -0.1,0.633 0.084,1.033 0.144,0.164 0.544,0.607 0.586,0.654 -0.192,0.272 -0.526,0.551 -0.711,1.082 -0.184,0.532 -0.006,0.971 -0.006,0.971 0,0.006 0.433,0.432 0.648,0.647 -0.156,0.146 -0.293,0.279 -0.293,0.279 l -0.431,0.428 c -0.047,0.046 -0.577,0.695 -0.729,1.142 -0.15,0.449 -0.002,0.963 -0.002,0.963 l 0.127,0.295 c 0,0 0.58,0.273 0.838,0.393 -0.01,0.011 -0.037,0.041 -0.061,0.064 0.09,0.022 0.075,0.014 -0.002,0 -0.123,0.131 -0.353,0.371 -0.353,0.371 0.012,-0.012 -0.58,0.721 -0.692,1.162 -0.105,0.436 0.047,0.883 0.047,0.883 0,0 1.094,1.109 1.114,1.131 -0.235,0.258 -0.332,0.289 -0.485,0.531 -0.152,0.242 -0.375,0.373 -0.595,1.106 -0.219,0.728 0.025,1.037 0.199,1.291 0.174,0.25 0.898,0.509 1.287,0.427 0.389,-0.082 1.312,-0.707 1.312,-0.707 0.041,-0.041 0.922,-1.011 0.922,-1.011 l -1.279,1.845 -0.949,1.366 c 0,0 -0.35,0.75 -0.305,1.353 0.045,0.604 0.406,0.854 0.729,0.961 0.322,0.107 0.871,-0.043 1.15,-0.057 0.168,-0.045 0.33,-0.101 0.484,-0.193 -0.273,0.475 -0.533,0.924 -0.533,0.924 l -0.855,1.515 0.004,0.079 c 0,0 -0.159,0.603 -0.082,0.949 0.076,0.347 0.304,0.738 0.779,0.877 0.474,0.14 0.969,0.027 1.348,-0.074 0.38,-0.102 1.763,-1.165 1.763,-1.165 -0.002,0.004 -1.568,3.489 -1.568,3.489 l -0.014,0.074 c -0.051,0.174 -0.098,0.625 0.084,1.027 0.158,0.172 0.289,0.502 0.768,0.637 0.482,0.133 1.293,-0.088 1.293,-0.088 0.443,-0.217 1.343,-1.299 1.343,-1.299 0,0.002 -0.89,2.092 -0.89,2.092 l -0.432,1.209 c -0.037,0.121 -0.154,0.99 -0.154,0.99 l 0.103,0.41 0.157,0.202 c 0.084,0.111 0.326,0.164 0.759,0.244 0.034,-0.006 1.854,-0.211 2.024,-0.229 -0.096,0.311 -0.17,0.563 -0.17,0.563 l -0.315,1.088 c -0.152,0.555 -0.039,1.085 0.286,1.377 0.013,0.016 0.513,0.287 0.951,0.298 0.439,0.009 1.355,-0.334 1.594,-0.542 0.238,-0.207 0.703,-1.127 0.703,-1.127 0.002,-0.006 0.498,-0.651 0.498,-0.651 -0.03,0.098 -0.465,2.279 -0.465,2.279 l -0.182,0.993 z"
           style="fill:#ffffff;fill-opacity:1;fill-rule:nonzero;stroke:none"
           id="path38"
           inkscape:connector-curvature="0" /><path
           d="m 207.771,424.749 c 0.013,0.069 0.01,0.145 0.012,0.219 -0.005,0.12 -0.017,0.228 -0.036,0.298 l 0.024,-0.517 z"
           style="fill:#ffffff;fill-opacity:1;fill-rule:nonzero;stroke:none"
           id="path40"
           inkscape:connector-curvature="0" /><path
           d="m 170.968,396.456 c 0.011,0 0.02,0.002 0.03,0.003 -0.006,0.005 -0.016,0 -0.03,-0.003"
           style="fill:#ffffff;fill-opacity:1;fill-rule:nonzero;stroke:none"
           id="path42"
           inkscape:connector-curvature="0" /><path
           d="m 204.81,430.298 c -0.702,0.661 -1.481,1.295 -2.248,1.984 -0.061,0.031 -0.125,0.064 -0.192,0.095 0.059,0.282 0.108,0.506 0.156,0.735 -0.06,0.013 -0.218,0.191 -0.615,0.246 -0.394,0.058 -0.611,-0.127 -0.611,-0.127 -0.063,-0.281 -0.057,-0.597 -0.129,-0.935 -0.633,-10e-4 -1.277,-0.057 -1.858,-0.144 -0.863,-0.075 -1.617,-0.328 -2.429,-0.49 -0.151,-0.048 -0.225,-0.079 -0.262,-0.245 -0.09,-0.079 -0.047,-0.225 -0.072,-0.338 0.039,-0.146 0.152,-0.265 0.205,-0.35 0.129,-0.065 0.256,-0.126 0.332,-0.105 0.807,0.168 1.629,0.384 2.439,0.547 0.504,0.062 0.996,0.068 1.569,0.099 -0.073,-0.339 -0.096,-0.766 -0.168,-1.103 -0.785,-0.051 -1.559,-0.042 -2.344,-0.09 -0.859,-0.077 -1.678,-0.297 -2.564,-0.485 -0.075,-0.025 -0.227,-0.078 -0.248,-0.189 -0.09,-0.079 -0.049,-0.227 -0.012,-0.369 -0.026,-0.113 0.094,-0.235 0.205,-0.352 0.055,-0.088 0.193,-0.096 0.332,-0.102 0.808,0.165 1.693,0.35 2.555,0.426 0.642,0.061 1.285,0.116 1.923,0.114 -0.046,-0.543 -0.156,-1.046 -0.203,-1.588 -0.822,0.093 -1.582,0.154 -2.345,0.222 -0.985,-0.016 -1.924,-0.112 -2.842,-0.159 -0.153,-0.049 -0.231,-0.073 -0.317,-0.158 -0.025,-0.11 -0.06,-0.282 -0.086,-0.395 0.04,-0.143 0.155,-0.261 0.27,-0.382 0.053,-0.085 0.244,-0.183 0.33,-0.097 0.99,0.012 1.926,0.109 2.846,0.152 0.625,-0.055 1.308,-0.142 1.939,-0.14 -0.095,-0.456 -0.193,-0.907 -0.226,-1.392 -0.965,0.103 -1.916,0.26 -2.823,0.272 -0.976,0.042 -1.978,-0.023 -2.978,-0.091 -0.074,-0.028 -0.213,-0.023 -0.305,-0.104 -0.033,-0.164 -0.058,-0.279 -0.017,-0.427 0.041,-0.144 0.089,-0.23 0.205,-0.347 0.117,-0.124 0.242,-0.187 0.394,-0.136 0.985,0.012 1.922,0.114 2.965,0.038 0.77,-0.005 1.527,-0.068 2.342,-0.22 -0.162,-0.419 -0.272,-0.927 -0.381,-1.438 -1.012,0.188 -2.092,0.409 -3.115,0.54 -1.092,0.164 -2.143,0.183 -3.196,0.205 -0.138,0.006 -0.279,0.011 -0.302,-0.102 -0.086,-0.081 -0.123,-0.251 -0.147,-0.361 0.037,-0.146 0.139,-0.324 0.266,-0.387 0.117,-0.119 0.246,-0.181 0.383,-0.187 1.039,-0.074 2.103,-0.039 3.193,-0.2 0.885,-0.127 1.762,-0.311 2.639,-0.491 -0.11,-0.51 -0.217,-1.02 -0.401,-1.553 l -0.064,0.033 c -1.067,0.279 -2.188,0.642 -3.276,0.803 -1.078,0.224 -2.128,0.238 -3.228,0.346 -0.141,0.005 -0.291,-0.045 -0.316,-0.156 -0.09,-0.082 -0.127,-0.251 -0.163,-0.419 0.041,-0.145 0.145,-0.322 0.258,-0.441 0.104,-0.176 0.229,-0.238 0.367,-0.24 1.104,-0.114 2.155,-0.127 3.235,-0.353 0.951,-0.155 1.877,-0.427 2.806,-0.694 -0.185,-0.535 -0.375,-1.069 -0.558,-1.601 -0.065,0.03 -0.125,0.062 -0.268,0.071 -1.074,0.215 -2.142,0.499 -3.23,0.657 -1.092,0.166 -2.143,0.184 -3.192,0.203 -0.142,0.007 -0.279,0.011 -0.38,-0.121 -0.024,-0.117 -0.061,-0.287 -0.02,-0.43 -0.035,-0.172 0.063,-0.344 0.182,-0.465 0.113,-0.119 0.304,-0.215 0.443,-0.218 1.039,-0.076 2.092,-0.098 3.18,-0.258 0.965,-0.104 1.892,-0.373 2.841,-0.532 -0.308,-0.781 -0.605,-1.511 -0.978,-2.265 0.016,0.053 -0.051,0.088 -0.051,0.088 -0.115,0.121 -0.242,0.181 -0.369,0.243 -1.141,0.256 -2.207,0.528 -3.299,0.692 -1.101,0.11 -2.152,0.13 -3.193,0.203 -0.139,0.006 -0.291,-0.043 -0.313,-0.159 -0.103,-0.133 -0.127,-0.247 -0.097,-0.45 0.027,-0.199 0.131,-0.377 0.246,-0.494 0.111,-0.117 0.242,-0.182 0.383,-0.192 1.037,-0.072 2.099,-0.034 3.189,-0.201 1.016,-0.187 2.018,-0.432 3.031,-0.619 -0.461,-0.834 -0.984,-1.639 -1.494,-2.386 -0.055,0.089 -0.041,0.144 -0.101,0.175 -0.118,0.121 -0.297,0.273 -0.436,0.277 -1.078,0.221 -2.207,0.528 -3.301,0.692 -1.023,0.13 -2.086,0.094 -3.191,0.201 -0.14,0.01 -0.222,-0.076 -0.312,-0.156 -0.09,-0.08 -0.126,-0.248 -0.097,-0.453 0.043,-0.145 0.144,-0.319 0.257,-0.438 0.102,-0.175 0.23,-0.238 0.434,-0.276 1.05,-0.02 2.105,-0.042 3.192,-0.203 0.961,-0.099 1.952,-0.4 2.903,-0.557 -0.012,-0.059 0.053,-0.091 0.053,-0.091 -0.1,-0.136 -0.188,-0.22 -0.278,-0.297 0,0 -0.51,-0.751 -1.373,-1.823 -0.06,0.028 -0.193,0.099 -0.254,0.126 -1.117,0.365 -2.236,0.73 -3.301,1.006 -1.077,0.22 -2.183,0.326 -3.259,0.546 -0.137,0.005 -0.29,-0.043 -0.38,-0.124 -0.088,-0.082 -0.124,-0.253 -0.162,-0.422 0.041,-0.146 0.145,-0.318 0.248,-0.496 0.115,-0.119 0.233,-0.237 0.369,-0.244 1.088,-0.162 2.193,-0.268 3.259,-0.545 0.939,-0.216 1.791,-0.51 2.718,-0.78 -0.488,-0.634 -1.052,-1.29 -1.626,-2.009 -0.114,0.119 -0.243,0.178 -0.37,0.242 -1.119,0.369 -2.223,0.79 -3.292,1.065 -1.065,0.279 -2.166,0.382 -3.256,0.546 -0.126,0.063 -0.277,0.012 -0.367,-0.068 -0.102,-0.137 -0.126,-0.252 -0.161,-0.423 0.029,-0.198 0.068,-0.343 0.183,-0.464 0.115,-0.118 0.293,-0.267 0.432,-0.275 1.076,-0.221 2.181,-0.327 3.258,-0.545 0.927,-0.271 1.844,-0.598 2.834,-0.899 -0.629,-0.628 -1.202,-1.344 -1.843,-2.027 -0.037,0.144 -0.09,0.231 -0.141,0.319 -0.116,0.121 -0.231,0.24 -0.433,0.279 -1.056,0.333 -2.158,0.752 -3.24,0.973 -1.126,0.305 -2.169,0.382 -3.311,0.636 -0.137,0.004 -0.225,-0.076 -0.311,-0.16 -0.089,-0.08 -0.187,-0.218 -0.163,-0.418 0.041,-0.148 0.078,-0.287 0.184,-0.468 0.113,-0.118 0.228,-0.235 0.369,-0.242 1.152,-0.196 2.191,-0.271 3.323,-0.581 0.863,-0.238 1.71,-0.529 2.64,-0.803 0.025,-0.199 0.066,-0.342 0.096,-0.547 -0.539,-0.546 -1.068,-1.033 -1.605,-1.581 0.014,0.057 0.014,0.057 -0.055,0.089 -0.1,0.174 -0.229,0.238 -0.357,0.303 -1.102,0.418 -2.209,0.84 -3.327,1.205 -1.066,0.275 -2.157,0.44 -3.235,0.66 -0.204,0.037 -0.278,0.014 -0.429,-0.039 -0.088,-0.08 -0.125,-0.249 -0.16,-0.422 0.027,-0.201 0.065,-0.344 0.18,-0.464 0.104,-0.175 0.23,-0.239 0.42,-0.33 1.079,-0.221 2.172,-0.385 3.298,-0.69 0.864,-0.24 1.705,-0.592 2.617,-0.917 0.041,-0.146 0.03,-0.2 0.079,-0.292 -0.678,-0.537 -1.295,-1.109 -1.944,-1.535 l 0.013,0.056 c 0.01,0.059 0.023,0.114 0.037,0.166 -0.043,0.15 -0.069,0.348 -0.186,0.468 -0.102,0.175 -0.23,0.238 -0.357,0.3 -1.106,0.422 -2.212,0.845 -3.33,1.208 -1.064,0.272 -2.153,0.436 -3.296,0.69 -0.128,0.063 -0.279,0.016 -0.367,-0.07 -0.088,-0.082 -0.124,-0.25 -0.159,-0.419 0.037,-0.143 0.068,-0.349 0.181,-0.465 0.103,-0.176 0.231,-0.238 0.357,-0.3 1.142,-0.251 2.233,-0.417 3.299,-0.693 0.925,-0.269 1.766,-0.624 2.68,-0.948 0.029,-0.203 0.107,-0.491 0.132,-0.691 -0.652,-0.425 -1.274,-0.68 -1.813,-0.914 0.011,0.057 -0.04,0.143 -0.026,0.199 -0.041,0.145 -0.079,0.289 -0.193,0.408 -0.106,0.178 -0.222,0.296 -0.348,0.358 -1.028,0.447 -2.032,1.005 -3.014,1.362 -0.573,0.285 -1.17,0.453 -1.702,0.593 -0.255,0.125 -0.519,0.196 -0.786,0.262 -0.128,0.063 -0.332,0.102 -0.459,0.164 -0.138,0.007 -0.212,-0.02 -0.29,-0.044 -0.086,-0.085 -0.11,-0.194 -0.147,-0.364 0.037,-0.144 0.14,-0.32 0.256,-0.438 0.102,-0.177 0.217,-0.296 0.357,-0.304 l 0.064,-0.028 c 0.266,-0.07 0.521,-0.197 0.787,-0.267 0.661,-0.199 1.385,-0.432 2.096,-0.723 0.775,-0.318 1.54,-0.695 2.365,-1.102 0.04,-0.144 0.09,-0.232 0.132,-0.379 -0.391,-0.178 -1.086,-0.463 -1.928,-0.795 -0.053,0.086 -0.118,0.119 -0.17,0.207 -0.711,0.604 -1.476,1.292 -2.206,1.841 -0.126,0.061 -0.307,0.212 -0.436,0.275 -0.238,0.181 -0.483,0.363 -0.724,0.546 -0.37,0.242 -0.676,0.458 -1.045,0.704 -0.127,0.063 -0.191,0.095 -0.28,0.014 -0.076,-0.028 -0.09,-0.083 -0.112,-0.199 -0.024,-0.108 0.016,-0.254 0.12,-0.431 0.05,-0.086 0.168,-0.207 0.219,-0.296 0.306,-0.214 0.623,-0.367 0.928,-0.582 0.242,-0.182 0.484,-0.365 0.739,-0.49 0.18,-0.153 0.357,-0.301 0.599,-0.481 0.552,-0.399 1.086,-0.85 1.673,-1.391 -0.455,-0.15 -0.907,-0.301 -1.364,-0.449 -0.397,0.443 -0.729,0.859 -1.126,1.303 -0.048,0.087 -0.179,0.152 -0.229,0.238 -0.18,0.152 -0.295,0.269 -0.472,0.421 -0.411,0.388 -0.768,0.693 -1.191,1.026 -0.049,0.085 -0.176,0.149 -0.254,0.127 -0.065,0.03 -0.076,-0.028 -0.15,-0.054 -0.458,-0.253 0.197,-0.723 0.197,-0.723 0.423,-0.332 0.83,-0.721 1.239,-1.11 0.063,-0.031 0.115,-0.117 0.179,-0.15 0.18,-0.152 0.331,-0.416 0.499,-0.623 0.157,-0.262 0.321,-0.467 0.489,-0.676 l -0.012,-0.057 c -0.228,-0.076 -0.455,-0.15 -0.683,-0.224 -0.216,-0.02 -0.367,-0.07 -0.519,-0.119 0,0 -0.059,-0.125 0.077,-0.328 0.137,-0.204 0.286,-0.223 0.286,-0.223 0.065,-0.033 0.441,0.078 0.515,0.103 0.229,0.075 0.593,0.147 0.973,0.27 0.157,-0.576 0.263,-0.754 0.417,-1.33 0.145,-0.635 0.152,-1.264 0.3,-1.895 -0.023,-0.115 0.025,-0.199 0.152,-0.261 0.066,-0.034 0.19,-0.098 0.254,-0.127 0.14,-0.008 0.218,0.017 0.242,0.131 0.073,0.025 0.087,0.08 0.109,0.195 -0.146,0.635 -0.212,1.291 -0.356,1.924 -0.11,0.49 -0.127,1.06 -0.234,1.552 0,0 -0.051,0.088 0.025,0.112 0.378,0.125 0.832,0.277 1.286,0.426 0.08,-0.602 0.163,-1.206 0.247,-1.807 0.049,-0.774 0.042,-1.457 0.02,-2.193 -0.012,-0.059 0.091,-0.237 0.143,-0.325 0.116,-0.117 0.168,-0.209 0.291,-0.267 0.118,-0.119 0.258,-0.127 0.332,-0.1 0,0 0.089,0.078 0.036,0.168 0.019,0.74 0.024,1.422 -0.02,2.195 -0.046,0.772 -0.229,1.547 -0.341,2.356 0.011,0.057 0.011,0.057 0.024,0.113 l 0.013,0.053 c 0.615,0.26 1.299,0.486 1.918,0.742 0.159,-0.58 0.315,-1.156 0.485,-1.674 0.21,-0.98 0.309,-1.843 0.457,-2.789 0.04,-0.14 0.092,-0.232 0.206,-0.353 0.116,-0.119 0.293,-0.264 0.432,-0.272 0.127,-0.062 0.281,-0.017 0.355,0.012 0.086,0.082 0.098,0.139 0.062,0.281 -0.15,0.947 -0.236,1.863 -0.459,2.785 -0.121,0.75 -0.445,1.532 -0.629,2.311 0.691,0.283 1.247,0.572 1.724,0.834 0.107,-0.49 0.212,-0.977 0.306,-1.522 0.137,-1.004 0.135,-2.002 0.145,-2.947 0.038,-0.144 0.077,-0.289 0.194,-0.406 0.113,-0.121 0.304,-0.215 0.442,-0.219 0.205,-0.039 0.356,0.01 0.43,0.037 0.089,0.082 0.19,0.217 0.152,0.362 -0.074,0.972 -0.006,1.941 -0.134,3.003 -0.109,0.799 -0.293,1.579 -0.465,2.415 0.44,0.407 1.119,0.945 1.831,1.654 0.198,-0.721 0.329,-1.413 0.398,-2.071 0.139,-1.003 0.136,-1.999 0.144,-2.941 0.039,-0.144 0.145,-0.322 0.258,-0.441 0.118,-0.119 0.24,-0.18 0.446,-0.221 0.138,-0.004 0.28,-0.014 0.368,0.068 0.151,0.055 0.188,0.223 0.211,0.336 -0.073,0.975 -0.071,1.971 -0.207,2.973 -0.125,1.059 -0.4,2.073 -0.6,3.106 l 0.012,0.055 c 0.526,0.491 1.064,1.041 1.618,1.643 0.206,-0.666 0.303,-1.215 0.448,-1.848 0.199,-1.032 0.198,-2.036 0.266,-3.003 0.042,-0.15 0.146,-0.324 0.275,-0.387 0.113,-0.119 0.242,-0.185 0.444,-0.216 0.138,-0.006 0.291,0.041 0.38,0.123 0.086,0.08 0.174,0.162 0.135,0.306 -0.074,0.973 -0.135,2.004 -0.269,3.005 -0.213,0.981 -0.5,1.935 -0.716,2.916 0.706,0.651 1.432,1.417 2.083,2.156 0.31,-0.84 0.558,-1.649 0.795,-2.518 0.263,-1.063 0.39,-2.126 0.578,-3.219 0.041,-0.146 0.14,-0.32 0.256,-0.436 0.129,-0.065 0.322,-0.161 0.517,-0.194 0.147,-0.008 0.293,0.043 0.395,0.181 0.086,0.078 0.109,0.195 0.074,0.339 -0.189,1.089 -0.299,2.207 -0.564,3.275 -0.262,1.064 -0.655,2.194 -1.057,3.269 0.012,0.055 -0.053,0.088 -0.104,0.176 0.551,0.602 1.102,1.203 1.59,1.837 0.311,-0.84 0.686,-1.711 0.987,-2.61 0.351,-0.987 0.539,-2.077 0.791,-3.202 0.037,-0.144 0.152,-0.261 0.334,-0.412 0.127,-0.062 0.318,-0.156 0.468,-0.109 0.141,-0.006 0.291,0.046 0.377,0.129 0.102,0.134 0.125,0.248 0.086,0.393 -0.25,1.122 -0.451,2.158 -0.853,3.232 -0.326,1.097 -0.797,2.203 -1.198,3.279 -0.048,0.086 -0.101,0.172 -0.218,0.291 0.564,0.662 1.066,1.351 1.484,2.018 0.402,-0.76 0.791,-1.578 1.111,-2.358 0.471,-1.109 0.799,-2.207 1.135,-3.248 0.041,-0.145 0.207,-0.353 0.332,-0.417 0.127,-0.061 0.332,-0.099 0.473,-0.103 0.152,0.048 0.303,0.098 0.326,0.214 0.102,0.133 0.125,0.248 0.086,0.391 -0.393,1.13 -0.719,2.231 -1.119,3.304 -0.467,1.103 -1.086,2.155 -1.553,3.26 -0.066,0.037 -0.066,0.037 -0.053,0.089 0.237,0.45 0.762,1.25 1.334,2.278 0.461,-0.787 0.987,-1.61 1.44,-2.459 0.617,-1.055 1.01,-2.184 1.486,-3.233 0.108,-0.175 0.223,-0.296 0.35,-0.359 0.187,-0.092 0.328,-0.1 0.478,-0.047 0.151,0.049 0.254,0.184 0.34,0.268 0.022,0.113 0.061,0.283 -0.043,0.457 -0.474,1.048 -0.947,2.156 -1.486,3.234 -0.555,1.025 -1.25,2.051 -1.865,3.108 -0.053,0.086 -0.118,0.119 -0.17,0.207 0.338,0.584 0.697,1.276 0.996,2.005 0.611,-0.738 1.166,-1.449 1.629,-2.24 0.691,-1.032 1.236,-2.108 1.855,-3.162 0.113,-0.121 0.227,-0.24 0.418,-0.334 0.143,-0.008 0.279,-0.012 0.432,0.037 0.154,0.05 0.252,0.192 0.275,0.301 0.039,0.168 -0.002,0.314 -0.105,0.49 -0.618,1.055 -1.162,2.135 -1.791,3.133 -0.694,1.031 -1.479,1.98 -2.194,2.893 0.198,0.59 0.442,1.094 0.641,1.683 0.678,-0.773 1.359,-1.545 1.957,-2.344 0.709,-0.971 1.326,-2.025 2.023,-3.053 0.114,-0.122 0.291,-0.27 0.432,-0.278 0.127,-0.064 0.279,-0.013 0.43,0.04 0.15,0.049 0.187,0.215 0.213,0.331 0.035,0.169 0,0.311 -0.122,0.435 -0.691,1.025 -1.312,2.08 -2.08,3.086 -0.705,0.975 -1.625,1.924 -2.408,2.876 0.01,0.056 -0.051,0.087 -0.051,0.087 0.084,0.396 0.219,1.016 0.375,1.75 0.704,-0.658 1.457,-1.404 2.147,-2.121 0.808,-0.837 1.525,-1.752 2.242,-2.669 0.113,-0.118 0.244,-0.184 0.318,-0.155 0.127,-0.064 0.278,-0.014 0.364,0.068 0.027,0.117 0.049,0.227 0.074,0.34 -0.037,0.143 -0.076,0.285 -0.193,0.409 -0.717,0.913 -1.434,1.829 -2.239,2.665 -0.744,0.803 -1.564,1.58 -2.381,2.361 -0.052,0.089 -0.052,0.089 -0.113,0.118 0.096,0.453 0.217,1.017 0.326,1.525 0.061,-0.027 0.139,-0.008 0.139,-0.008 0.768,-0.689 1.482,-1.289 2.174,-2.008 0.752,-0.748 1.471,-1.663 2.213,-2.465 0.115,-0.122 0.242,-0.181 0.316,-0.156 0.143,-0.007 0.219,0.017 0.301,0.099 0.092,0.08 0.062,0.282 0.086,0.395 -0.037,0.144 -0.152,0.262 -0.205,0.352 -0.729,0.858 -1.459,1.719 -2.213,2.467 -0.742,0.804 -1.584,1.468 -2.34,2.216 -0.127,0.064 -0.18,0.15 -0.252,0.126 0.096,0.451 0.193,0.903 0.277,1.297 0.141,-0.006 0.278,-0.011 0.418,-0.018 0.702,-0.658 1.418,-1.262 2.045,-1.948 0.754,-0.745 1.407,-1.629 2.086,-2.403 0.117,-0.124 0.244,-0.18 0.317,-0.154 0.144,-0.01 0.216,0.018 0.302,0.101 0.092,0.081 0.061,0.283 0.086,0.394 -0.037,0.143 -0.088,0.231 -0.205,0.352 -0.664,0.826 -1.332,1.655 -2.074,2.461 -0.756,0.746 -1.519,1.43 -2.291,2.126 -0.047,0.086 -0.176,0.152 -0.314,0.157 -0.067,0.033 -0.079,-0.028 -0.141,0.005 l -0.012,-0.054 c 0.061,0.593 0.17,1.102 0.28,1.609 l 0.072,0.029 c 0.703,-0.662 1.431,-1.208 2.066,-1.834 0.756,-0.749 1.5,-1.552 2.24,-2.355 0.118,-0.12 0.176,-0.15 0.319,-0.158 0.076,0.027 0.228,0.076 0.252,0.189 0.088,0.082 0.049,0.226 0.011,0.371 0.024,0.114 -0.082,0.291 -0.199,0.411 -0.685,0.713 -1.418,1.574 -2.17,2.32 -0.767,0.689 -1.545,1.324 -2.375,2.044 0.084,0.399 0.104,0.824 0.176,1.163 0.078,0.025 0.139,-0.006 0.213,0.02 0.654,-0.572 1.305,-1.141 1.947,-1.77 0.766,-0.693 1.364,-1.485 2.047,-2.264 0.127,-0.062 0.252,-0.125 0.326,-0.095 0.127,-0.067 0.217,0.017 0.241,0.129 0.087,0.083 0.06,0.281 0.085,0.394 -0.041,0.147 -0.156,0.266 -0.205,0.355 -0.681,0.77 -1.359,1.542 -2.048,2.257"
           style="fill:#ffffff;fill-opacity:1;fill-rule:nonzero;stroke:none"
           id="path44"
           inkscape:connector-curvature="0" /><path
           d="m 249.112,396.412 c 0.024,0.11 -0.013,0.255 -0.115,0.429 -0.051,0.091 -0.168,0.207 -0.291,0.271 -0.754,0.434 -1.521,0.814 -2.26,1.303 -0.609,0.423 -1.222,0.851 -1.896,1.31 0.465,0.208 0.869,0.447 1.26,0.625 0,0 0.003,0.265 -0.133,0.476 -0.135,0.214 -0.434,0.356 -0.434,0.356 -0.305,-0.101 -0.887,-0.429 -1.265,-0.555 -0.088,-0.079 -0.243,-0.128 -0.389,-0.183 -0.108,0.493 -0.266,1.068 -0.369,1.56 -0.178,0.834 -0.235,1.551 -0.291,2.264 -0.051,0.088 -0.09,0.232 -0.209,0.354 -0.049,0.086 -0.164,0.205 -0.291,0.269 -0.131,0.064 -0.266,0.067 -0.28,0.01 -0.074,-0.026 -0.084,-0.082 -0.097,-0.137 0.105,-0.802 0.166,-1.515 0.285,-2.264 0.187,-0.778 0.432,-1.587 0.611,-2.425 -0.41,-0.235 -0.871,-0.448 -1.353,-0.707 -0.157,0.58 -0.311,1.15 -0.471,1.732 -0.213,0.982 -0.299,1.897 -0.457,2.787 0.025,0.112 -0.078,0.287 -0.195,0.407 -0.123,0.062 -0.244,0.183 -0.448,0.224 -0.125,0.061 -0.261,0.066 -0.349,-0.018 -0.076,-0.023 -0.102,-0.138 -0.061,-0.28 0.145,-0.948 0.244,-1.809 0.455,-2.788 0.172,-0.833 0.42,-1.641 0.725,-2.543 -0.947,-0.467 -1.902,-1 -2.635,-1.449 -0.119,0.746 -0.295,1.585 -0.338,2.355 -0.072,0.974 -0.006,1.941 -0.006,2.94 -0.039,0.146 -0.078,0.289 -0.191,0.404 -0.127,0.065 -0.309,0.214 -0.447,0.219 -0.201,0.039 -0.342,0.047 -0.43,-0.036 -0.09,-0.08 -0.176,-0.163 -0.139,-0.306 0,-0.999 -0.129,-1.935 -0.005,-2.992 0.072,-0.975 0.271,-2.012 0.412,-3.018 0.062,-0.029 0.05,-0.082 0.037,-0.144 -0.012,-0.055 -0.024,-0.113 -0.037,-0.168 -0.084,-0.082 -0.174,-0.162 -0.264,-0.242 -0.363,-0.385 -0.791,-0.734 -1.24,-1.2 -0.211,0.667 -0.354,1.301 -0.563,1.965 -0.203,1.035 -0.338,2.037 -0.476,3.045 -0.037,0.141 -0.141,0.317 -0.266,0.377 -0.119,0.125 -0.309,0.218 -0.445,0.222 -0.158,-0.045 -0.291,-0.044 -0.381,-0.124 -0.1,-0.137 -0.127,-0.246 -0.151,-0.362 0.204,-1.038 0.276,-2.011 0.54,-3.078 0.214,-0.978 0.564,-1.961 0.914,-2.951 -0.614,-0.567 -1.178,-1.227 -1.819,-1.908 -0.258,0.751 -0.533,1.451 -0.726,2.171 -0.278,1.007 -0.401,2.069 -0.664,3.137 0.023,0.114 -0.096,0.235 -0.221,0.296 -0.176,0.148 -0.305,0.212 -0.457,0.162 -0.199,0.036 -0.289,-0.043 -0.379,-0.126 -0.086,-0.083 -0.109,-0.198 -0.07,-0.338 0.199,-1.036 0.334,-2.041 0.601,-3.109 0.338,-1.041 0.754,-2.057 1.092,-3.1 0,0 0.063,-0.033 0.053,-0.088 -0.643,-0.681 -1.229,-1.455 -1.815,-2.228 -0.365,0.935 -0.865,1.863 -1.154,2.82 -0.402,1.072 -0.656,2.197 -0.984,3.293 -0.039,0.145 -0.153,0.266 -0.27,0.383 -0.125,0.063 -0.314,0.158 -0.465,0.108 -0.205,0.037 -0.302,-0.101 -0.394,-0.182 -0.088,-0.08 -0.125,-0.248 -0.084,-0.397 0.328,-1.095 0.592,-2.162 0.98,-3.291 0.342,-1.045 0.887,-2.127 1.348,-3.226 0.041,-0.145 0.221,-0.295 0.336,-0.414 l 0.064,-0.034 c -0.502,-0.687 -1,-1.38 -1.437,-2.101 -0.438,0.902 -0.942,1.84 -1.369,2.799 -0.467,1.103 -0.793,2.203 -1.198,3.277 -0.037,0.145 -0.154,0.264 -0.267,0.381 -0.194,0.094 -0.33,0.103 -0.483,0.053 -0.201,0.037 -0.289,-0.045 -0.392,-0.18 -0.024,-0.117 -0.059,-0.287 -0.018,-0.432 0.403,-1.07 0.731,-2.17 1.197,-3.273 0.465,-1.106 1.02,-2.127 1.577,-3.153 0.101,-0.173 0.213,-0.292 0.343,-0.359 l 0.063,-0.027 c -0.461,-0.836 -0.846,-1.643 -1.229,-2.457 -0.513,0.879 -1.041,1.703 -1.48,2.607 -0.557,1.024 -1.01,2.184 -1.5,3.174 -0.041,0.143 -0.221,0.297 -0.348,0.359 -0.125,0.061 -0.328,0.098 -0.478,0.049 -0.155,-0.049 -0.242,-0.129 -0.268,-0.244 -0.086,-0.08 -0.045,-0.228 -0.006,-0.369 0.465,-1.109 0.934,-2.211 1.475,-3.289 0.543,-1.08 1.238,-2.111 1.853,-3.166 0.049,-0.082 0.18,-0.151 0.231,-0.238 -0.225,-0.385 -0.621,-1.254 -1.088,-2.772 -0.652,0.885 -1.258,1.682 -1.844,2.535 -0.683,1.086 -1.226,2.168 -1.781,3.19 -0.104,0.177 -0.23,0.238 -0.424,0.33 -0.127,0.066 -0.277,0.017 -0.428,-0.037 -0.15,-0.049 -0.238,-0.129 -0.275,-0.299 -0.023,-0.115 0.016,-0.26 0.055,-0.403 0.619,-1.054 1.16,-2.134 1.842,-3.218 0.63,-1.002 1.478,-1.979 2.168,-3.008 0.119,-0.123 0.228,-0.238 0.373,-0.248 -0.2,-0.586 -0.344,-1.266 -0.516,-2.055 -0.572,0.594 -1.074,1.221 -1.637,1.869 -0.769,1.006 -1.398,2 -2.158,3.063 -0.037,0.144 -0.227,0.236 -0.369,0.246 -0.125,0.062 -0.277,0.014 -0.43,-0.037 -0.16,-0.11 -0.187,-0.223 -0.224,-0.393 -0.024,-0.109 0.015,-0.258 0.117,-0.429 0.707,-0.973 1.39,-2.059 2.16,-3.065 0.728,-0.855 1.523,-1.748 2.33,-2.582 -0.146,-0.68 -0.215,-1.332 -0.375,-2.066 -0.648,0.57 -1.303,1.14 -1.953,1.711 -0.932,0.898 -1.715,1.849 -2.572,2.773 -0.116,0.115 -0.245,0.18 -0.444,0.215 -0.138,0.004 -0.291,-0.043 -0.379,-0.123 -0.097,-0.141 -0.136,-0.309 -0.097,-0.451 0.041,-0.147 0.082,-0.289 0.193,-0.409 0.857,-0.923 1.703,-1.9 2.574,-2.769 0.817,-0.779 1.649,-1.502 2.539,-2.254 -0.086,-0.396 -0.117,-0.875 -0.215,-1.33 0,0 0.081,-0.287 0.112,-0.805 -0.727,0.547 -1.444,1.151 -2.147,1.811 -0.828,0.719 -1.621,1.613 -2.429,2.451 -0.114,0.117 -0.25,0.119 -0.381,0.186 -0.078,-0.026 -0.229,-0.077 -0.254,-0.19 -0.084,-0.084 -0.11,-0.195 -0.07,-0.338 0.039,-0.144 0.144,-0.322 0.261,-0.443 0.801,-0.832 1.545,-1.637 2.426,-2.447 0.82,-0.776 1.725,-1.471 2.555,-2.198 0.062,-0.029 0.062,-0.029 0.127,-0.062 0.031,-0.514 0.05,-1.084 0.119,-1.744 -0.666,0.515 -1.393,1.064 -2.108,1.666 -0.894,0.754 -1.697,1.586 -2.568,2.453 -0.115,0.121 -0.254,0.123 -0.332,0.103 -0.139,0.004 -0.215,-0.019 -0.312,-0.162 -0.026,-0.109 -0.061,-0.277 -0.024,-0.422 0.039,-0.146 0.154,-0.263 0.27,-0.383 0.873,-0.869 1.679,-1.707 2.574,-2.458 0.828,-0.719 1.732,-1.415 2.576,-2.081 0.09,-0.546 0.119,-1.062 0.141,-1.634 -0.6,0.482 -1.211,0.91 -1.811,1.394 -0.842,0.666 -1.582,1.469 -2.351,2.16 -0.114,0.119 -0.241,0.184 -0.315,0.155 -0.154,-0.049 -0.228,-0.073 -0.254,-0.186 -0.035,-0.172 -0.058,-0.285 -0.021,-0.428 0.039,-0.142 0.154,-0.263 0.267,-0.379 0.768,-0.695 1.524,-1.439 2.352,-2.16 0.715,-0.605 1.519,-1.127 2.244,-1.672 0.084,-0.601 0.1,-1.173 0.195,-1.72 -0.738,0.49 -1.416,0.949 -2.062,1.519 -0.848,0.666 -1.602,1.414 -2.43,2.137 -0.053,0.088 -0.189,0.092 -0.328,0.096 -0.076,-0.024 -0.166,-0.102 -0.191,-0.215 -0.086,-0.086 -0.049,-0.227 -0.008,-0.373 0.041,-0.145 0.156,-0.264 0.269,-0.383 0.77,-0.691 1.52,-1.436 2.366,-2.104 0.777,-0.634 1.628,-1.24 2.486,-1.851 0.055,-0.402 0.097,-0.858 0.086,-1.229 -0.61,0.426 -1.276,0.942 -1.871,1.422 -0.782,0.637 -1.475,1.354 -2.237,2.045 -0.119,0.117 -0.179,0.147 -0.318,0.156 -0.08,-0.025 -0.166,-0.109 -0.189,-0.22 -0.024,-0.112 -0.059,-0.285 -0.022,-0.428 0.053,-0.09 0.156,-0.264 0.205,-0.35 0.768,-0.689 1.522,-1.439 2.235,-2.043 0.779,-0.632 1.572,-1.211 2.361,-1.789 0.002,-0.312 0.084,-0.601 0.086,-0.914 -0.572,0.28 -1.133,0.619 -1.694,0.961 -0.814,0.461 -1.656,1.127 -2.461,1.651 -0.126,0.062 -0.255,0.125 -0.341,0.043 -0.073,-0.026 -0.098,-0.139 -0.121,-0.252 -0.026,-0.112 0.011,-0.256 0.115,-0.43 0.053,-0.09 0.166,-0.211 0.217,-0.297 0.869,-0.555 1.646,-1.187 2.527,-1.682 0.611,-0.427 1.246,-0.74 1.883,-1.052 0.068,-0.35 0.068,-0.66 0.136,-1.01 0,0 0.024,-0.322 0.577,-0.367 0.554,-0.045 0.771,0.144 0.771,0.144 -0.076,0.287 -0.16,0.578 -0.209,0.981 0.063,-0.033 0.063,-0.033 0.123,-0.063 0.069,-0.031 0.196,-0.094 0.28,-0.011 0.078,0.021 0.089,0.08 0.099,0.134 0.432,0.037 0.875,0.129 1.254,0.258 0.592,0.143 1.135,0.375 1.678,0.608 0.074,0.025 0.148,0.05 0.176,0.162 0.013,0.056 0.035,0.17 -0.016,0.259 -0.039,0.143 -0.092,0.233 -0.154,0.262 -0.129,0.065 -0.19,0.096 -0.266,0.068 -0.543,-0.23 -1.086,-0.46 -1.678,-0.605 -0.381,-0.125 -0.81,-0.164 -1.191,-0.291 -0.049,0.09 -0.049,0.09 -0.111,0.119 -0.129,0.065 -0.258,0.129 -0.381,0.188 -0.071,0.347 -0.071,0.66 -0.127,1.06 0.013,0.063 0.088,0.082 0.103,0.139 0.58,0.086 1.156,0.18 1.754,0.322 0.682,0.223 1.299,0.483 1.981,0.709 0.089,0.078 0.164,0.104 0.189,0.217 0.023,0.115 0.049,0.226 0.01,0.371 -0.053,0.09 -0.166,0.207 -0.233,0.238 -0.054,0.09 -0.193,0.096 -0.265,0.071 -0.682,-0.227 -1.303,-0.483 -1.983,-0.709 -0.527,-0.176 -1.173,-0.233 -1.754,-0.323 -0.046,0.463 -0.085,0.918 -0.13,1.379 0.076,0.024 0.087,0.082 0.166,0.102 0.795,0.109 1.591,0.215 2.339,0.408 0.807,0.164 1.573,0.475 2.409,0.746 0.076,0.027 0.162,0.108 0.185,0.223 0.092,0.082 0.061,0.281 0.024,0.426 -0.053,0.087 -0.155,0.263 -0.217,0.296 -0.127,0.061 -0.258,0.125 -0.344,0.043 -0.822,-0.218 -1.592,-0.525 -2.41,-0.746 -0.734,-0.14 -1.531,-0.244 -2.264,-0.383 -0.093,0.547 -0.125,1.063 -0.142,1.631 0.064,-0.031 0.125,-0.06 0.205,-0.037 0.01,0.057 0.088,0.082 0.162,0.108 0.709,0.023 1.432,0.103 2.152,0.187 0.795,0.106 1.551,0.356 2.295,0.555 0.141,-0.008 0.164,0.105 0.25,0.187 0.026,0.112 0.049,0.225 0,0.309 -0.039,0.146 -0.154,0.268 -0.219,0.297 -0.119,0.123 -0.254,0.129 -0.33,0.101 -0.81,-0.16 -1.502,-0.447 -2.299,-0.55 -0.72,-0.084 -1.427,-0.11 -2.15,-0.19 -0.062,0.031 -0.115,0.119 -0.178,0.151 -0.033,0.517 -0.052,1.087 -0.068,1.66 0,0 0.064,-0.034 0.076,0.021 0.061,-0.029 0.061,-0.029 0.139,0 0.924,0.039 1.963,-0.039 2.9,0.065 0.936,0.095 1.893,0.312 2.83,0.412 0.09,0.078 0.239,0.133 0.264,0.242 0.025,0.113 0.049,0.228 0.008,0.373 -0.037,0.146 -0.155,0.264 -0.268,0.381 -0.129,0.064 -0.258,0.127 -0.394,0.133 -0.883,-0.19 -1.844,-0.403 -2.78,-0.5 -0.927,-0.043 -1.838,-0.03 -2.748,-0.018 l -0.064,0.033 c -0.057,0.713 -0.063,1.34 -0.059,2.026 0.977,-0.045 2.004,-0.18 2.991,-0.162 0.988,0.007 2,0.134 3.062,0.171 0.141,-0.009 0.227,0.075 0.316,0.155 0.024,0.115 0.049,0.228 0.006,0.375 -0.037,0.142 -0.15,0.261 -0.269,0.381 -0.112,0.119 -0.252,0.127 -0.393,0.132 -1,-0.068 -2.01,-0.197 -3.06,-0.175 -0.836,0.037 -1.739,0.109 -2.637,0.179 0.008,0.682 0.012,1.364 0.072,1.963 0.127,-0.066 0.254,-0.127 0.391,-0.135 1.049,-0.019 2.142,-0.179 3.138,-0.111 1.065,0.035 2.026,0.252 3.038,0.373 0.138,-0.006 0.228,0.074 0.265,0.244 0.086,0.082 0.061,0.28 0.018,0.43 -0.102,0.176 -0.205,0.352 -0.319,0.469 -0.117,0.119 -0.318,0.158 -0.394,0.131 -1.01,-0.127 -2.031,-0.307 -3.024,-0.317 -0.923,-0.045 -1.962,0.031 -2.937,0.072 0.014,0.055 -0.051,0.09 -0.115,0.122 0.084,0.707 0.164,1.419 0.248,2.125 0.113,-0.114 0.303,-0.211 0.443,-0.219 1.039,-0.072 2.117,-0.293 3.168,-0.315 1.051,-0.017 2.065,0.106 3.063,0.178 0.136,-0.004 0.291,0.043 0.326,0.211 0.086,0.084 0.06,0.283 0.019,0.43 -0.027,0.197 -0.14,0.316 -0.256,0.437 -0.113,0.121 -0.306,0.213 -0.445,0.219 -1.002,-0.066 -2.012,-0.193 -3.058,-0.178 -0.915,0.016 -1.864,0.172 -2.829,0.274 -0.052,0.088 -0.117,0.119 -0.232,0.24 0.16,0.732 0.316,1.469 0.539,2.17 0.059,-0.028 0.127,-0.063 0.201,-0.037 1.088,-0.164 2.178,-0.326 3.233,-0.346 1.05,-0.02 2.062,0.107 3.06,0.174 0.141,-0.006 0.291,0.045 0.324,0.213 0.088,0.086 0.063,0.283 0.024,0.425 -0.027,0.2 -0.143,0.323 -0.256,0.442 -0.182,0.15 -0.305,0.213 -0.449,0.223 -0.996,-0.073 -2.008,-0.196 -3.059,-0.178 -0.912,0.013 -1.863,0.172 -2.763,0.24 0.285,0.984 0.677,1.848 1.138,2.684 0.113,-0.118 0.242,-0.178 0.381,-0.188 1.104,-0.107 2.182,-0.326 3.232,-0.348 1.049,-0.013 2.061,0.108 3.061,0.176 0.141,-0.004 0.295,0.041 0.33,0.215 0.086,0.082 0.061,0.277 0.02,0.426 -0.028,0.201 -0.133,0.377 -0.246,0.496 -0.19,0.098 -0.321,0.162 -0.456,0.164 -0.998,-0.07 -2.013,-0.193 -3.064,-0.176 -0.896,0.069 -1.863,0.17 -2.814,0.326 0.25,0.504 0.572,1.342 1.22,2.401 0.061,-0.033 0.188,-0.096 0.266,-0.07 1.08,-0.221 2.205,-0.526 3.234,-0.665 1.09,-0.16 2.141,-0.181 3.192,-0.201 0.142,-0.002 0.289,0.049 0.314,0.162 0.09,0.079 0.125,0.248 0.098,0.452 -0.039,0.14 -0.143,0.318 -0.258,0.439 -0.113,0.117 -0.229,0.236 -0.369,0.242 -1.055,0.02 -2.113,-0.017 -3.207,0.149 -0.885,0.123 -1.758,0.304 -2.699,0.519 0.427,0.666 0.923,1.354 1.447,2.158 0.127,-0.062 0.193,-0.097 0.254,-0.127 1.142,-0.252 2.209,-0.529 3.31,-0.632 1.092,-0.164 2.076,-0.151 3.194,-0.205 0.14,-0.004 0.23,0.076 0.314,0.16 0.086,0.082 0.123,0.252 0.086,0.394 -0.025,0.199 -0.131,0.377 -0.246,0.496 -0.113,0.117 -0.231,0.239 -0.381,0.19 -1.101,0.105 -2.152,0.121 -3.193,0.199 -0.875,0.182 -1.688,0.334 -2.563,0.518 0.412,0.605 0.961,1.209 1.451,1.845 l 0.065,-0.033 c 0.113,-0.119 0.24,-0.182 0.369,-0.244 1.139,-0.252 2.207,-0.529 3.307,-0.637 1.093,-0.164 2.144,-0.181 3.193,-0.199 0.139,-0.008 0.277,-0.012 0.316,0.154 0.088,0.082 0.125,0.252 0.084,0.397 -0.025,0.199 -0.13,0.379 -0.244,0.496 -0.117,0.123 -0.242,0.183 -0.383,0.189 -1.097,0.106 -2.101,0.039 -3.191,0.2 -0.887,0.125 -1.75,0.367 -2.627,0.548 0,0 0.014,0.057 -0.053,0.088 0.543,0.547 1.157,1.114 1.782,1.744 l 0.052,-0.088 c 0.117,-0.119 0.241,-0.181 0.434,-0.279 1.066,-0.273 2.193,-0.582 3.275,-0.803 1.076,-0.218 2.127,-0.236 3.227,-0.345 0.068,-0.031 0.144,-0.01 0.23,0.074 0.065,-0.031 0.076,0.025 0.09,0.082 0.086,0.084 0.121,0.252 0.147,0.363 -0.051,0.086 -0.037,0.143 -0.092,0.235 -0.037,0.14 -0.092,0.232 -0.154,0.263 -0.1,0.174 -0.227,0.237 -0.432,0.272 -1.039,0.078 -2.074,0.154 -3.168,0.314 -0.877,0.188 -1.803,0.457 -2.666,0.696 l -0.053,0.087 c 0.541,0.545 1.131,1.002 1.746,1.573 1.094,-0.475 2.188,-0.953 3.289,-1.373 0.598,-0.172 1.131,-0.307 1.729,-0.475 0.537,-0.142 1.08,-0.225 1.537,-0.385 0.197,-0.037 0.289,0.043 0.439,0.094 0.09,0.08 0.114,0.193 0.151,0.361 0.037,0.168 -0.065,0.346 -0.174,0.526 -0.049,0.084 -0.223,0.236 -0.365,0.24 -0.459,0.166 -0.864,0.242 -1.334,0.348 -0.672,0.144 -1.27,0.313 -1.93,0.515 -0.789,0.265 -1.551,0.638 -2.324,0.96 0.324,0.26 0.719,0.542 1.06,0.853 l 0.159,0.098 c 0.181,0.098 0.582,0.306 1.144,0.568 0.041,-0.145 0.078,-0.289 0.194,-0.41 0.101,-0.174 0.22,-0.293 0.345,-0.356 0.572,-0.283 1.082,-0.534 1.655,-0.815 0.447,-0.221 0.902,-0.385 1.347,-0.602 0.977,-0.36 1.904,-0.63 2.885,-0.989 0.143,-0.006 0.277,-0.014 0.365,0.07 0.078,0.024 0.117,0.19 0.074,0.336 -0.039,0.146 -0.078,0.288 -0.187,0.466 -0.111,0.119 -0.225,0.238 -0.354,0.305 -0.988,0.298 -1.98,0.601 -2.959,0.96 -0.318,0.153 -0.634,0.311 -0.953,0.469 -0.443,0.219 -0.955,0.469 -1.4,0.687 -0.053,0.091 -0.088,0.235 -0.143,0.324 0.467,0.208 0.883,0.503 1.348,0.71 0.119,-0.121 0.17,-0.207 0.291,-0.27 0.066,-0.031 0.121,-0.121 0.18,-0.15 0.74,-0.493 1.404,-1.002 2.142,-1.496 0.74,-0.491 1.504,-0.87 2.258,-1.299 0.123,-0.065 0.201,-0.037 0.273,-0.014 0.081,0.025 0.104,0.139 0.049,0.228"
           style="fill:#ffffff;fill-opacity:1;fill-rule:nonzero;stroke:none"
           id="path46"
           inkscape:connector-curvature="0" /><path
           d="m 225.946,354.48 c -0.002,0 -0.004,-0.003 -0.004,-0.003 0,0 0.004,0.003 0.008,0.005 -0.002,0 -0.002,-0.002 -0.004,-0.002 m 11.584,33.456 0.01,0 -0.01,0 z"
           style="fill:#ffffff;fill-opacity:1;fill-rule:nonzero;stroke:none"
           id="path48"
           inkscape:connector-curvature="0" /><path
           d="m 250.202,372.906 c -16.197,7.26 -33.469,1.676 -33.469,1.676 -16.923,-6.703 -26.119,-2.234 -26.119,-2.234 l 0.086,-0.219 c -5.836,1.851 -11.635,4.58 -16.628,8.596 -2.715,2.183 -1.756,2.078 -3.781,5.027 1.251,-24.016 25.026,-27.088 25.026,-27.088 0.411,0.037 0.821,0.082 1.231,0.125 4.818,-2.697 19.158,4.623 19.158,4.623 0.973,0.734 1.979,1.408 3.004,2.035 0.516,0.285 1.027,0.584 1.533,0.891 13.526,7.461 29.959,6.568 29.959,6.568"
           style="fill:#231f20;fill-opacity:1;fill-rule:nonzero;stroke:none"
           id="path50"
           inkscape:connector-curvature="0" /><path
           d="m 195.405,362.041 c 0.264,0.027 2.78,-0.328 2.78,-0.328 4.011,-0.149 9.337,1.316 15.865,4.619 0.916,0.676 1.857,1.33 2.912,1.975 l 1.662,0.963 c 2.926,1.615 5.961,2.855 8.945,3.818 -5.652,-0.447 -9.566,-1.621 -9.775,-1.686 -17.272,-6.904 -21.383,-4.603 -21.383,-4.603 l -6.724,2.135 c -4.854,1.543 -9.211,3.548 -13.069,5.943 5.46,-10.104 16.629,-12.475 18.787,-12.836"
           style="fill:#ffffff;fill-opacity:1;fill-rule:nonzero;stroke:none"
           id="path52"
           inkscape:connector-curvature="0" /><path
           d="m 165.165,398.038 c 0.165,2.312 -0.537,2.228 0.539,3.943 7.526,12 33.186,9.45 33.186,9.45 -9.473,4.777 -18.613,7.144 -27.176,7.861 0,0 -17.172,-2.411 -6.549,-21.254"
           style="fill:#231f20;fill-opacity:1;fill-rule:nonzero;stroke:none"
           id="path54"
           inkscape:connector-curvature="0" /><path
           d="m 165.667,411.758 c -0.432,-0.89 -0.618,-1.884 -0.618,-2.933 0,-0.674 0.101,-1.376 0.237,-2.082 4.256,4.232 10.617,6.356 16.702,7.378 -3.37,0.838 -6.757,1.473 -10.161,1.779 -1.134,-0.247 -4.746,-1.241 -6.16,-4.142"
           style="fill:#ffffff;fill-opacity:1;fill-rule:nonzero;stroke:none"
           id="path56"
           inkscape:connector-curvature="0" /></g></g></g></svg>