<?xml version="1.0" standalone="no"?>
<!DOCTYPE svg PUBLIC "-//W3C//DTD SVG 1.1//EN" "http://www.w3.org/Graphics/SVG/1.1/DTD/svg11.dtd" >
<svg xmlns="http://www.w3.org/2000/svg">
<metadata></metadata>
<defs>
<font id="1-prolook_fancyblockregular" horiz-adv-x="636" >
<font-face units-per-em="2048" ascent="1638" descent="-410" />
<missing-glyph horiz-adv-x="390" />
<glyph horiz-adv-x="2048" />
<glyph horiz-adv-x="2048" />
<glyph unicode="&#xd;" horiz-adv-x="390" />
<glyph unicode=" "  horiz-adv-x="390" />
<glyph unicode="&#x09;" horiz-adv-x="390" />
<glyph unicode="&#xa0;" horiz-adv-x="390" />
<glyph unicode="!" horiz-adv-x="249" />
<glyph unicode="&#x22;" horiz-adv-x="237" />
<glyph unicode="#" />
<glyph unicode="$" />
<glyph unicode="%" />
<glyph unicode="&#x26;" horiz-adv-x="486" />
<glyph unicode="'" horiz-adv-x="396" d="M55 1705q0 56 39 97q44 47 106 47q57 0 100 -40q56 -53 56 -150q0 -210 -261 -338l-33 50l9 9q48 44 62 68q24 46 24 114q-35 14 -57 36q-45 47 -45 107z" />
<glyph unicode="(" horiz-adv-x="336" />
<glyph unicode=")" horiz-adv-x="384" />
<glyph unicode="*" horiz-adv-x="492" />
<glyph unicode="+" />
<glyph unicode="," horiz-adv-x="237" />
<glyph unicode="-" horiz-adv-x="471" />
<glyph unicode="." horiz-adv-x="201" />
<glyph unicode="/" horiz-adv-x="357" />
<glyph unicode="0" horiz-adv-x="1035" d="M0 230l31.5 148t31.5 305q0 156 -21 305t-42 197l101 61t176 153h432l88 -87t189 -128l-29.5 -154.5t-29.5 -272.5q0 -59 9 -149t20 -174.5t20.5 -144.5l9.5 -60l-113.5 -67.5t-163.5 -161.5h-432l-73.5 92.5t-203.5 137.5zM277 366q0 -33 31 -85.5t189 -52.5 q156 0 184.5 54.5t28.5 82.5v121v227.5v226.5v121q0 32 -39.5 78t-174.5 46t-177 -41.5t-42 -74.5v-117.5v-230.5v-232v-123z" />
<glyph unicode="1" horiz-adv-x="453" d="M0 240l47 59t47 185v138v184.5v170v95.5h-21.5h-72.5v111l42.5 47t55.5 169h245v-916l13 -100t76 -143l-85 -240h-254z" />
<glyph unicode="2" horiz-adv-x="1039" d="M0 227l31 37.5t31 166.5q0 108 -31 158l-31 50l169 160h52.5h118.5h126.5h77.5q32 0 71 6t61 25q17 14 32.5 46.5t18.5 55.5q23 150 -30 221q-29 36 -107 52q-102 19 -192 -1q-70 -16 -117 -50q-36 -24 -53 -54l-17 -30h-149l-62 169l43 11t95 41q51 30 95 69l44 39h436 l276 -214l-32 -62t-31 -151q0 -91 32 -152l32 -61l-189 -160h-130h-178t-93 -7.5t-73 -34.5q-51 -51 -51 -139v-30.5v-39.5q0 -72 35 -96t95 -24h87.5h87.5q109 0 150 69l41 69h217l-62 -366h-856z" />
<glyph unicode="3" horiz-adv-x="1038" d="M0 157l62 210h216l5 -32t30 -57q66 -69 157 -69q131 0 178 42q70 66 70 164q0 103 -64 160q-19 17 -51.5 20.5l-32.5 3.5h-76v201h76l40.5 4t59.5 22q30 27 36 67.5t6 97.5q0 55 -5.5 98.5t-30.5 70.5q-50 50 -180 50q-44 0 -90.5 -7.5t-79.5 -40.5q-25 -26 -36.5 -58.5 l-11.5 -32.5h-216l-62 171l47.5 15.5t98.5 45.5q52 29 91.5 62.5l39.5 33.5h432l39.5 -31.5t91.5 -61.5q53 -30 101 -48.5l48 -18.5l-30.5 -73t-30.5 -160q0 -93 30.5 -169.5l30.5 -76.5l-22 -7t-46 -17q-25 -12 -44 -24.5l-19 -12.5l17.5 -11t41.5 -22q25 -12 48.5 -19.5 l23.5 -7.5l-30.5 -77.5t-30.5 -168.5q0 -88 30.5 -160.5l30.5 -72.5l-48 -19t-101 -49q-52 -30 -91.5 -61l-39.5 -31h-432l-39.5 32.5t-91.5 62.5q-51 30 -98.5 46z" />
<glyph unicode="4" horiz-adv-x="1035" d="M0 601l109.5 116t229.5 269q79 103 146 204.5t102 158.5q14 23 18 37l4 13h253l32 -49l-16 -30.5t-16 -102.5v-125v-200.5v-186.5v-82l10 -2t32 -2q24 0 53 2l29 2l-58 -221l-13.5 1.5t-27.5 1.5q-9 0 -17 -1.5l-8 -1.5v-60t24 -98q22 -36 61 -39l39 -3l-59 -199l-376 -3 l-60 199l40.5 10t63.5 46q24 39 23 93l-1 54l-76.5 5.5t-181.5 5.5q-102 0 -198 -5l-96 -6zM280 619h349v448l-50 -81.5t-115 -168.5q-66 -87 -125 -143z" />
<glyph unicode="5" horiz-adv-x="1039" d="M0 231l62 143h218l21 -46.5t102 -94.5q35 -21 113 -21t127 38q74 57 72 150t-34 130q-50 55 -87 65.5t-97 10.5h-180.5h-147.5l-169 172l31 49.5t31 158.5q0 129 -31 157.5l-31 28.5l71 227h855l63 -282h-241l-31 33t-136 33h-87.5h-87.5q-86 0 -108 -60.5t-22 -123.5 q0 -82 43 -125q28 -28 77 -34.5t97 -6.5h190h142l165 -175l-32 -71t-32 -161q-1 -90 31 -151.5l32 -61.5l-276 -213h-436z" />
<glyph unicode="6" horiz-adv-x="1039" d="M0 231l32 139t32 310q0 181 -32 342.5l-32 161.5l52.5 24.5t104.5 66.5t86 83l34 41h436l38.5 -39t89.5 -78q52 -40 100 -68.5l48 -28.5l-62 -118h-214l-31 58t-136 58h-63h-62q-86 0 -115.5 -60.5t-29.5 -123.5q0 -82 43 -125q28 -28 77 -34.5t97 -6.5h190h142l165 -175 l-32 -71t-32 -161q-1 -90 31 -151.5l32 -61.5l-276 -213h-436zM279 417q0 -78 63 -133t153 -55q89 0 152.5 55t63.5 133v41q0 170 -216 170t-216 -170v-41z" />
<glyph unicode="7" horiz-adv-x="1187" d="M0 1210l80 -158h190q73 156 258 157h207q-325 -821 -428 -927q-47 -38 -88 -55.5t-52 -23.5q49 -68 102 -203l373 -1q30 124 93 218q-120 12 -118 53q45 161 164.5 452t170 364t117.5 106l-92 201h-711z" />
<glyph unicode="8" horiz-adv-x="1038" d="M0 157l1 3h-1l0.5 0.5t1.5 3.5l58 196q1 11 1 33q0 91 -30.5 168.5l-30.5 77.5l22.5 6t48.5 18q24 10 42 23l18 13l-19.5 12.5t-43.5 24.5q-25 10 -46.5 17l-21.5 7l30.5 76.5t30.5 169.5q0 49 -14 107l-43 118q-2 3 -3 5.5l-1 2.5h1l-1 3l18.5 5.5t46.5 17.5 q41 17 84 41q38 21 82 54q21 16 33.5 27.5l12.5 11.5h435l12.5 -11.5t33.5 -27.5q43 -33 82 -54q42 -24 84 -41q27 -12 46 -17.5l19 -5.5l-1 -3h0.5h0.5l-1.5 -2.5t-2.5 -5.5l-43 -118q-14 -58 -14 -107q0 -93 30.5 -169.5l30.5 -76.5l-22 -7t-46 -17q-25 -12 -44 -24.5 l-19 -12.5l17.5 -12t41.5 -23q24 -12 48 -18.5l24 -6.5l-30.5 -77.5t-30.5 -168.5q0 -22 1 -33l58 -196q0 -3 1 -3.5l1 -0.5h-0.5h-0.5l1 -3l-19 -6t-46 -17q-45 -19 -84 -42q-39 -22 -82 -54q-21 -16 -33.5 -27l-12.5 -11h-435l-12.5 11t-33.5 27q-44 32 -82 54 q-40 23 -84 42q-28 11 -46.5 17zM271 415q0 -23 5 -48l0.5 -5t3.5 -13q14 -51 53 -90q37 -30 80 -42q30 -7 81 -8q51 1 81 8q43 12 81 42q21 23 34 49.5t18 40.5q3 6 4 12l1 6q5 25 5 48q0 103 -64 160q-19 17 -51.5 20.5l-32.5 3.5h-151l-33 -3.5t-51 -20.5 q-64 -57 -64 -160zM277 991q0 -57 5.5 -97.5t36.5 -67.5q18 -18 59 -22l41 -4h151l40.5 4t59.5 22q30 27 36 67.5t6 97.5q0 53 -4 88q-9 44 -45 83q-25 26 -69 38q-40 10 -97 10h-2h-1h-2h-1q-56 0 -97 -10q-44 -13 -68 -38q-40 -42 -45 -83q-4 -35 -4 -88z" />
<glyph unicode="9" horiz-adv-x="1038" d="M0 157l1 3h-1l0.5 0.5t1.5 3.5l58 205h216l36.5 -73.5t180.5 -73.5t180 52t36 94q0 41 -25 145.5t-191 104.5h-249h-83l-161 142l30.5 76.5t30.5 169.5q0 49 -14 107l-43 118q-2 3 -3 5.5l-1 2.5h1l-1 3l18.5 5.5t46.5 17.5q41 17 84 41q38 21 82 54q21 16 33.5 27.5 l12.5 11.5h435l12.5 -11.5t33.5 -27.5q43 -33 82 -54q42 -24 84 -41q27 -12 46 -17.5l19 -5.5l-1 -3h0.5h0.5l-1.5 -2.5t-2.5 -5.5l-28.5 -67t-28.5 -94l1 -699l58 -207q0 -3 1 -3.5l1 -0.5h-0.5h-0.5l1 -3l-19 -6t-46 -17q-42 -18 -84 -41q-32 -20 -82 -54 q-21 -17 -33.5 -28l-12.5 -11h-435l-12.5 11t-33.5 28q-51 34 -82 54q-43 23 -84 41q-28 11 -46.5 17zM277 991q0 -57 5.5 -97.5t36.5 -67.5q18 -18 59 -22l41 -4h151l40.5 4t59.5 22q30 27 36 67.5t6 97.5q0 53 -4 88q-9 44 -45 83q-25 26 -69 38q-40 10 -97 10h-2h-1h-2 h-1q-56 0 -97 -10q-44 -13 -68 -38q-40 -42 -45 -83q-4 -26 -4 -88z" />
<glyph unicode=":" horiz-adv-x="1187" />
<glyph unicode=";" horiz-adv-x="237" />
<glyph unicode="&#x3c;" />
<glyph unicode="=" />
<glyph unicode="&#x3e;" />
<glyph unicode="?" horiz-adv-x="567" />
<glyph unicode="@" horiz-adv-x="579" />
<glyph unicode="A" horiz-adv-x="1219" d="M0 211q32 30 62 92l30 62l23 61q23 62 56 150t69 185t62 167q26 72 26 121q0 47 -24 75l-48 55l174 220h302l173 -220l-48 -55q-23 -27 -23 -74q0 -50 26 -122q25 -70 61 -167t69 -185t56 -150l24 -61l29 -62t62 -92l-89 -211h-218l-113 195l56 61q56 62 63 101 q6 38 -12 46l-18 8h-498l-18 -8q-18 -8 -12 -46q6 -39 62 -101l57 -61l-113 -195h-219zM418 634h334l-172 437z" />
<glyph unicode="B" horiz-adv-x="1064" d="M0 218l51 48t51 107v129.5v209v194.5v85l-16 79q-16 78 -86 111l102 218h642l98 -105q98 -104 160 -118l-37 -120q-11 -36 -11 -74q0 -87 60 -182l-70 -36q-71 -35 -71 -70q0 -36 67 -78l66 -43l-37 -104q-14 -39 -14 -83q0 -74 39 -164l-108 -82q-108 -83 -123 -140 h-653l-44 96q-43 95 -66 122zM329 213h239l92 33q91 34 91 143q0 108 -56 151.5t-124 43.5t-155 1l-87 1v-373zM329 796h239l92 34q91 33 91 142q0 108 -56 151.5t-124 43.5t-155 1l-87 1v-373z" />
<glyph unicode="C" horiz-adv-x="998" d="M0 1178l120 70q121 71 142 151h431l85 -95q84 -96 169 -125l-35 -164h-215l-11 45q-12 45 -44 72q-34 26 -148 36q-19 2 -36 2q-85 0 -121 -42q-45 -50 -58 -76t-13 -61v-117v-210.5v-201.5v-89l34 -84q35 -84 173 -84t177 78l39 78h215l47 -144l-117 -80 q-116 -80 -145 -137h-427l-80 90q-79 89 -178 131l28 149q27 150 27 312q0 161 -15 244z" />
<glyph unicode="D" horiz-adv-x="1067" d="M0 213l57 57q57 56 57 127q0 35 1 123t2 179.5t3 162.5l1 71l-11 88q-12 88 -102 162l94 216h649l81 -91q81 -92 178 -130l-12 -88q-12 -88 -20 -226q-4 -80 -4 -170q0 -66 2 -138q6 -170 41 -333l-115 -75q-116 -76 -154 -148h-646l-26 80q-26 79 -76 133zM333 232h219 l98 10q98 11 98 135v144.5t1 216t1 196.5l1 85l-20 76q-20 76 -140 76h-189h-69v-939z" />
<glyph unicode="E" horiz-adv-x="1064" d="M0 1187l102 212h790l122 -423h-223l-55 195h-419v-360h431v-215h-429v-360h401l74 188h220l-118 -424h-782l-110 221l45 33q45 34 45 119q0 42 1 142.5t2.5 203.5t2.5 182l2 79l-18 77q-17 77 -84 130z" />
<glyph unicode="F" horiz-adv-x="1064" d="M0 1187l102 212h790l122 -423h-223l-55 195h-418v-360h430v-215h-429v-216l11 -60t97 -103l-114 -217h-199l-110 217l45 35q45 36 45 121q0 42 1 142.5t2.5 203.5t2.5 182l2 79l-18 77q-17 77 -84 130z" />
<glyph unicode="G" horiz-adv-x="1016" d="M0 227l35 180t35 297t-34 296l-34 179l94.5 48t171.5 172h449l75 -89t171 -126l-37 -153h-229l-4.5 39.5t-40.5 69.5q-36 29 -75.5 34t-78.5 5q-40 0 -129.5 -20.5t-89.5 -104.5v-146v-211v-189.5v-82.5l21 -102t179 -102t194.5 75l36.5 75v224h-272v214h475v-389 l8.5 -67.5t46.5 -125.5l-113 -67t-149 -160h-429l-68 94t-209 133z" />
<glyph unicode="H" horiz-adv-x="1139" d="M0 1179q44 66 74 143l30 77h230l21 -68t90 -152l-59 -73q-59 -72 -59 -146v-112v-37h432v37v112q0 74 -55 146l-55 73q69 84 85 152l17 68h230l29 -77q30 -77 75 -143l-59 -59q-59 -59 -59 -155v-273v-178l9 -94q8 -95 107 -199l-118 -221h-203l-112 221l52 73 q51 73 54 220v85h-426v-85q2 -147 54 -220l52 -73l-112 -221h-204l-117 221q98 104 107 199l8 94v178v273t-30 125z" />
<glyph unicode="I" horiz-adv-x="457" d="M0 1179q49 59 76 139l27 81h229l30 -77q29 -77 74 -143l-50 -75q-50 -76 -50 -139v-273v-178q0 2 1 2q3 0 7 -96q6 -110 90 -199l-118 -221h-203l-112 221l52 73q52 73 54 220v56q0 55 1 129.5t1.5 148.5t0.5 112q0 74 -28 110z" />
<glyph unicode="J" horiz-adv-x="1100" d="M0 232l65 157h212l41 -81t167 -81q125 0 169 59.5t48 110.5v587q-6 21 -15.5 88.5t-105.5 106.5l51.5 73.5t63.5 146.5h229l25.5 -68t97.5 -152l-62 -44t-62 -148v-145.5v-195.5v-171v-73l19 -62t92 -119l-134.5 -45t-194.5 -176h-417l-74 96.5t-215 135.5z" />
<glyph unicode="K" horiz-adv-x="1242" d="M0 1189l99 210h237l98 -202l-52 -53q-53 -53 -53 -127v-185v-110l65 58q66 59 147.5 132t153 138t83.5 77q23 23 1.5 41.5t-28.5 20.5l114 210h212l100 -207l-32 -12q-32 -11 -51 -32q-10 -11 -58 -60t-102 -103l-97 -97l-43 -43l245 -472l39 -67q39 -66 105 -87 l-102 -216h-219l-110 211l42 26q31 19 32 42q0 8 -4 17q-8 16 -39.5 77.5t-66 128.5t-62.5 120l-27 53l-287 -266l-6 -30q-1 -6 -1 -12q0 -26 20 -59q23 -41 51 -69l27 -28l-110 -214h-211l-105 214l49 40q50 40 50 67v120.5v230.5v224v100l-17 77q-17 77 -87 116z" />
<glyph unicode="L" horiz-adv-x="1062" d="M0 216l55 60t55 96v117.5v211.5v203v91l-15 67q-15 68 -90 130l93 207h236l96 -193l-49 -58q-49 -58 -49 -142v-170.5v-265.5v-244v-107h416l59 220h205l-110 -439h-795l-27 86q-28 87 -80 130z" />
<glyph unicode="M" horiz-adv-x="1340" d="M0 1209q24 22 58 106l35 84h239l305 -611l309 611h238l34 -84t59 -106l-49 -49q-49 -50 -49 -148v-121v-196.5v-182.5v-81q0 6 10.5 -79t84.5 -136l-98 -216h-230l-107 205l63 41q64 40 64 155v101v167.5v157.5v70l-326 -669l-328 669v-70v-157.5v-167.5v-101 q0 -106 63 -151l63 -45l-107 -205h-230l-98 216q73 51 83.5 136t11.5 79v81v182.5v196.5v121q0 98 -24 123z" />
<glyph unicode="N" horiz-adv-x="1147" d="M0 1202l98 197h243l411 -843v462l-14 76q-13 77 -84 104l110 201h231l98 -197l-49 -42q-49 -42 -49 -142v-200v-343.5v-324.5v-145h-219l-435 878v-441l17 -95q18 -95 77 -135l-110 -212h-215l-106 208l49 63q49 63 49 105v117.5v206v196.5v87q-7 67 -19 119t-83 100z " />
<glyph unicode="O" horiz-adv-x="1032" d="M0 1178l104 64q105 65 179 157h456l72 -78q72 -78 172 -119l-29 -164q-30 -163 -30 -281q0 -59 7.5 -148.5t17.5 -173.5t18 -143l8 -60l-109 -69q-108 -69 -158 -163h-409l-77 90q-77 89 -206 134l24 151q23 151 23 308q0 156 -21 301.5t-42 193.5zM291 345l29 -67 q30 -66 183 -66t181 72l28 73v103v232v240v129q0 32 -46 83t-166 51q-154 0 -182 -63l-27 -63v-724z" />
<glyph unicode="P" horiz-adv-x="1081" d="M0 193l52 80q49 76 48 123v5q-2 24 -2 121.5v204.5t1 193l1 86q-1 6 -14.5 78.5t-85.5 121.5l88 192h709q0 2 52 -102t169 -122l-28 -113q-8 -33 -9 -66q0 -80 49 -158l-101 -59t-128 -173h-476l-4 -202q0 -1 12 -63.5t96 -146.5l-100 -193h-229zM325 817h280l85 33 q84 34 84 140q0 105 -59.5 154.5t-125.5 49.5h-165l-99 1v-378z" />
<glyph unicode="Q" horiz-adv-x="1022" d="M0 1178l98.5 61.5t172.5 159.5h460l75.5 -76t167.5 -117l-27.5 -160t-27.5 -304t25.5 -331l25.5 -187l-66 -63l67 -78l-126 -114l-86 64l-44 -36h-420l-79.5 86.5t-188.5 128.5l26 146t26 329t-39.5 337zM287 337l29.5 -67t182.5 -67h35.5t35.5 1l-80 78l133 133l84 -80 v108.5v242v250v133.5q0 32 -46 83t-166 51q-153 0 -180.5 -63l-27.5 -63v-740z" />
<glyph unicode="R" horiz-adv-x="1061" d="M0 1185l94 214h678l46 -81q47 -81 161 -139l-19 -107q-4 -23 -5 -46q0 -85 56 -172l-93 -46q-94 -46 -146 -154l86 -352l37 -43q37 -43 108 -55l-106 -204h-200l-172 627h-216l-2 -51v-24q0 -42 5 -96q7 -68 28 -136t67 -100l-90 -220h-203l-110 200l53 101t53 310v297 v88l-18 78q-19 78 -92 111zM317 842h251l90 26q90 25 90 146q0 120 -70.5 156t-129.5 36h-145h-86v-364z" />
<glyph unicode="S" horiz-adv-x="1012" d="M0 1210l100 52q99 51 147 137h478l65 -76q65 -76 162 -117l-47 -145h-211l-42 81q-43 80 -166 80q-124 0 -181.5 -70t-57.5 -126t48.5 -128t163.5 -72q114 0 151 34l37 33l89 -119q90 -120 228 -163l-39 -123q-13 -42 -13 -87q0 -84 48 -174l-106 -55t-153 -172h-430 l-63 83q-63 83 -192 137l43 152h204l41 -82q40 -82 155 -82q242 0 242 210q0 76 -57.5 140t-153.5 64q-97 0 -136 -23l-40 -23l-90 104q-89 103 -212 154l35 108q10 32 10 70q0 87 -57 198z" />
<glyph unicode="T" horiz-adv-x="1107" d="M0 1048h195q29 96 66 150h152v-799q-9 -101 -106 -184l108 -215h218l108 215q-96 86 -106 184v799h153q38 -56 60 -150h201q-61 149 -88 343h-873q-26 -178 -88 -343z" />
<glyph unicode="U" horiz-adv-x="1138" d="M0 1175l94 224h243l82 -212l-51 -51q-51 -50 -51 -129v-122v-187.5v-171.5v-75l3 -41q4 -40 24.5 -89t63 -89t120.5 -40h28q77 0 119.5 40t63 89t24.5 89l4 41v75v171.5v187.5v122q0 61 -51 121l-51 59l83 212h242l94 -224q-59 -30 -86 -108.5t-27 -98.5v-73v-139v-151 v-107q0 -68 49 -170l48 -101q-132 -55 -195 -141l-63 -86h-536l-63 86q-63 85 -195 141l49 101q49 102 49 170v107v151v139v73q0 20 -28 98.5t-86 108.5z" />
<glyph unicode="V" horiz-adv-x="1258" d="M0 1224l98 175h246l82 -173l-82 -109l-10 -31q-3 -10 -4 -24q0 -31 16 -82q11 -37 52 -152.5t86 -239t80 -220.5l36 -96l35 96q35 97 80 220.5t86 239t52 152.5q16 51 16 82q1 14 -3 24l-11 31l-82 109l82 173h247l97 -175l-31 -32q-32 -31 -49 -70q-9 -20 -51 -137.5 t-89 -250.5t-84 -240l-37 -108l-8 -68q-1 -6 -1 -12q0 -60 74 -108l-146 -198h-354l-147 198q74 49 74 110q0 4 -1 10l-7 68l-38 108q-38 107 -84.5 240t-88.5 250.5t-50 137.5q-17 38 -49 70z" />
<glyph unicode="W" horiz-adv-x="1360" d="M0 1214l87 185h239l110 -197q-92 -44 -103 -116l-11 -72l55 -424l272 588l270 -588l55 424l-10 70q-11 70 -104 118l110 197h239l87 -185l-45 -64q-45 -63 -54 -136q-5 -38 -17 -145t-24.5 -220.5t-22.5 -202.5l-10 -88l3 -62q3 -62 60 -92l-99 -204h-215l-223 578 l-225 -578h-216l-98 204q56 30 60 92l3 62l-11 88q-10 89 -22.5 202.5t-25 220.5t-16.5 145q-10 72 -54 136z" />
<glyph unicode="X" horiz-adv-x="1255" d="M0 1203l99 196h232l149 -193q-51 0 -61 -30l-10 -29l190 -253l188 253l-11 29q-10 30 -60 30l150 193h232l98 -196l-46 -11q-46 -11 -76 -41q-15 -15 -68 -86t-110.5 -149.5t-102.5 -141.5l-45 -63l264 -391l45 -46q45 -45 123 -50l-102 -224h-208l-158 208l44 22 q23 11 24 31q0 19 -20 47l-161 235l-162 -235q-20 -28 -20 -47q1 -19 23 -31l44 -22l-157 -208h-209l-102 224q78 12 124 54l45 42l264 391l-46 63t-103.5 141.5t-110.5 149.5t-67 86q-30 30 -76 41z" />
<glyph unicode="Y" horiz-adv-x="1251" d="M0 1206l98 193h232l149 -189q-51 0 -61 -30l-10 -29l189 -248l187 248l-10.5 29.5t-59.5 29.5l149 189h231l98 -193l-46 -11t-76 -40q-15 -15 -67.5 -84t-110 -146.5t-102.5 -139l-45 -61.5l-25.5 -53.5t-25.5 -149.5q0 -133 56 -217l57 -83l-109 -221h-212l-90 220 q101 101 101 297q0 87 -25 147l-25 60l-45.5 61.5t-103 139t-110 146.5t-66.5 84q-30 29 -76 40z" />
<glyph unicode="Z" horiz-adv-x="1122" d="M0 1211l270 188h696l95 -204l-15 -11q-14 -12 -100 -140q-35 -53 -116.5 -173t-165.5 -242.5t-148 -216.5l-64 -93l-20 -35q-21 -36 -24 -59h285q89 3 149 142h180l103 -145l-208 -222h-811l-34 78q-34 79 -70 121l44 26q45 26 87 74q21 24 122.5 162t203 294t183.5 282 l81 126h-223h-4q-183 0 -235 -98h-199z" />
<glyph unicode="[" horiz-adv-x="282" />
<glyph unicode="\" horiz-adv-x="318" />
<glyph unicode="]" horiz-adv-x="312" />
<glyph unicode="^" horiz-adv-x="330" />
<glyph unicode="_" horiz-adv-x="490" />
<glyph unicode="`" horiz-adv-x="357" />
<glyph unicode="a" horiz-adv-x="1219" d="M0 211q32 30 62 92l30 62l23 61q23 62 56 150t69 185t62 167q26 72 26 121q0 47 -24 75l-48 55l174 220h302l173 -220l-48 -55q-23 -27 -23 -74q0 -50 26 -122q25 -70 61 -167t69 -185t56 -150l24 -61l29 -62t62 -92l-89 -211h-218l-113 195l56 61q56 62 63 101 q6 38 -12 46l-18 8h-498l-18 -8q-18 -8 -12 -46q6 -39 62 -101l57 -61l-113 -195h-219zM418 634h334l-172 437z" />
<glyph unicode="b" horiz-adv-x="1064" d="M0 218l51 48t51 107v129.5v209v194.5v85l-16 79q-16 78 -86 111l102 218h642l98 -105q98 -104 160 -118l-37 -120q-11 -36 -11 -74q0 -87 60 -182l-70 -36q-71 -35 -71 -70q0 -36 67 -78l66 -43l-37 -104q-14 -39 -14 -83q0 -74 39 -164l-108 -82q-108 -83 -123 -140 h-653l-44 96q-43 95 -66 122zM329 213h239l92 33q91 34 91 143q0 108 -56 151.5t-124 43.5t-155 1l-87 1v-373zM329 796h239l92 34q91 33 91 142q0 108 -56 151.5t-124 43.5t-155 1l-87 1v-373z" />
<glyph unicode="c" horiz-adv-x="998" d="M0 1178l120 70q121 71 142 151h431l85 -95q84 -96 169 -125l-35 -164h-215l-11 45q-12 45 -44 72q-34 26 -148 36q-19 2 -36 2q-85 0 -121 -42q-45 -50 -58 -76t-13 -61v-117v-210.5v-201.5v-89l34 -84q35 -84 173 -84t177 78l39 78h215l47 -144l-117 -80 q-116 -80 -145 -137h-427l-80 90q-79 89 -178 131l28 149q27 150 27 312q0 161 -15 244z" />
<glyph unicode="d" horiz-adv-x="1067" d="M0 213l57 57q57 56 57 127q0 35 1 123t2 179.5t3 162.5l1 71l-11 88q-12 88 -102 162l94 216h649l81 -91q81 -92 178 -130l-12 -88q-12 -88 -20 -226q-4 -80 -4 -170q0 -66 2 -138q6 -170 41 -333l-115 -75q-116 -76 -154 -148h-646l-26 80q-26 79 -76 133zM333 232h219 l98 10q98 11 98 135v144.5t1 216t1 196.5l1 85l-20 76q-20 76 -140 76h-189h-69v-939z" />
<glyph unicode="e" horiz-adv-x="1064" d="M0 1187l102 212h790l122 -423h-223l-55 195h-419v-360h431v-215h-429v-360h401l74 188h220l-118 -424h-782l-110 221l45 33q45 34 45 119q0 42 1 142.5t2.5 203.5t2.5 182l2 79l-18 77q-17 77 -84 130z" />
<glyph unicode="f" horiz-adv-x="1064" d="M0 1187l102 212h790l122 -423h-223l-55 195h-419v-360h431v-215h-429v-216l11 -60t97 -103l-114 -217h-199l-110 217l45 35.5t45 120.5q0 42 1 142.5t2.5 203.5t3 182l1.5 79l-17.5 77t-84.5 130z" />
<glyph unicode="g" horiz-adv-x="1016" d="M0 227l35 180t35 297t-34 296l-34 179l94.5 48t171.5 172h449l75 -89t171 -126l-37 -153h-229l-4.5 39.5t-40.5 69.5q-36 29 -75.5 34t-78.5 5q-40 0 -129.5 -20.5t-89.5 -104.5v-146v-211v-189.5v-82.5l21 -102t179 -102t194.5 75l36.5 75v224h-272v214h475v-389 l8.5 -67.5t46.5 -125.5l-113 -67t-149 -160h-429l-68 94t-209 133z" />
<glyph unicode="h" horiz-adv-x="1139" d="M0 1179q44 66 74 143l30 77h230l21 -68t90 -152l-59 -73q-59 -72 -59 -146v-112v-37h432v37v112q0 74 -55 146l-55 73q69 84 85 152l17 68h230l29 -77q30 -77 75 -143l-59 -59q-59 -59 -59 -155v-273v-178l9 -94q8 -95 107 -199l-118 -221h-203l-112 221l52 73 q51 73 54 220v85h-426v-85q2 -147 54 -220l52 -73l-112 -221h-204l-117 221q98 104 107 199l8 94v178v273t-30 125z" />
<glyph unicode="i" horiz-adv-x="457" d="M0 1179q49 59 76 139l27 81h229l30 -77q29 -77 74 -143l-50 -75q-50 -76 -50 -139v-273v-178q0 2 1 2q3 0 7 -96q6 -110 90 -199l-118 -221h-203l-112 221l52 73q52 73 54 220v56q0 55 1 129.5t1.5 148.5t0.5 112q0 74 -28 110z" />
<glyph unicode="j" horiz-adv-x="1100" d="M0 232l65 157h212l41 -81t167 -81q125 0 169 59.5t48 110.5v587q-6 21 -15.5 88.5t-105.5 106.5l51.5 73.5t63.5 146.5h229l25.5 -68t97.5 -152l-62 -44t-62 -148v-145.5v-195.5v-171v-73l19 -62t92 -119l-134.5 -45t-194.5 -176h-417l-74 96.5t-215 135.5z" />
<glyph unicode="k" horiz-adv-x="1242" d="M0 1189l99 210h237l98 -202l-52 -53q-53 -53 -53 -127v-185v-110l65 58q66 59 147.5 132t153 138t83.5 77q23 23 1.5 41.5t-28.5 20.5l114 210h212l100 -207l-32 -12q-32 -11 -51 -32q-10 -11 -58 -60t-102 -103l-97 -97l-43 -43l245 -472l39 -67q39 -66 105 -87 l-102 -216h-219l-110 211l42 26q31 19 32 42q0 8 -4 17q-8 16 -39.5 77.5t-66 128.5t-62.5 120l-27 53l-287 -266l-6 -30q-1 -6 -1 -12q0 -26 20 -59q23 -41 51 -69l27 -28l-110 -214h-211l-105 214l49 40q50 40 50 67v120.5v230.5v224v100l-17 77q-17 77 -87 116z" />
<glyph unicode="l" horiz-adv-x="1062" d="M0 216l55 60t55 96v117.5v211.5v203v91l-15 67q-15 68 -90 130l93 207h236l96 -193l-49 -58q-49 -58 -49 -142v-170.5v-265.5v-244v-107h416l59 220h205l-110 -439h-795l-27 86q-28 87 -80 130z" />
<glyph unicode="m" horiz-adv-x="1340" d="M0 1209q24 22 58 106l35 84h239l305 -611l309 611h238l34 -84t59 -106l-49 -49q-49 -50 -49 -148v-121v-196.5v-182.5v-81q0 6 10.5 -79t84.5 -136l-98 -216h-230l-107 205l63 41q64 40 64 155v101v167.5v157.5v70l-326 -669l-328 669v-70v-157.5v-167.5v-101 q0 -106 63 -151l63 -45l-107 -205h-230l-98 216q73 51 83.5 136t11.5 79v81v182.5v196.5v121q0 98 -24 123z" />
<glyph unicode="n" horiz-adv-x="1147" d="M0 1202l98 197h243l411 -843v462l-14 76q-13 77 -84 104l110 201h231l98 -197l-49 -42q-49 -42 -49 -142v-200v-343.5v-324.5v-145h-219l-435 878v-441l17 -95q18 -95 77 -135l-110 -212h-215l-106 208l49 63q49 63 49 105v117.5v206v196.5v87q-7 67 -19 119t-83 100z " />
<glyph unicode="o" horiz-adv-x="1032" d="M0 1178l104 64q105 65 179 157h456l72 -78q72 -78 172 -119l-29 -164q-30 -163 -30 -281q0 -59 7.5 -148.5t17.5 -173.5t18 -143l8 -60l-109 -69q-108 -69 -158 -163h-409l-77 90q-77 89 -206 134l24 151q23 151 23 308q0 156 -21 301.5t-42 193.5zM291 345l29 -67 q30 -66 183 -66t181 72l28 73v103v232v240v129q0 32 -46 83t-166 51q-154 0 -182 -63l-27 -63v-724z" />
<glyph unicode="p" horiz-adv-x="1081" d="M0 193l52 80q48 76 48 123v5q-2 24 -2 121.5v204.5t1 193l1 86q-1 6 -14.5 78.5t-85.5 121.5l88 193h709q0 2 52 -102.5t169 -122.5l-28 -113q-9 -33 -9 -66q0 -79 49 -158l-101 -59t-128 -173h-476l-4 -202q0 -1 12 -63.5t96 -146.5l-100 -193h-229zM325 817h280 l84.5 33.5t84.5 139.5q0 105 -59.5 154.5t-125.5 49.5h-165l-99 1v-378z" />
<glyph unicode="q" horiz-adv-x="1022" d="M0 1178l98.5 61.5t172.5 159.5h460l75.5 -76t167.5 -117l-27.5 -160t-27.5 -304t25.5 -331l25.5 -187l-66 -63l67 -78l-126 -114l-86 64l-44 -36h-420l-79.5 86.5t-188.5 128.5l26 146t26 329t-39.5 337zM287 337l29.5 -67t182.5 -67h35.5t35.5 1l-80 78l133 133l84 -80 v108.5v242v250v133.5q0 32 -46 83t-166 51q-153 0 -180.5 -63l-27.5 -63v-740z" />
<glyph unicode="r" horiz-adv-x="1061" d="M0 1185l94 214h678l46 -81q47 -81 161 -139l-19 -107q-4 -23 -5 -46q0 -85 56 -172l-93 -46q-94 -46 -146 -154l86 -352l37 -43q37 -43 108 -55l-106 -204h-200l-172 627h-216l-2 -51v-24q0 -42 5 -96q7 -68 28 -136t67 -100l-90 -220h-203l-110 200l53 101t53 310v297 v88l-18 78q-19 78 -92 111zM317 842h251l90 26q90 25 90 146q0 120 -70.5 156t-129.5 36h-145h-86v-364z" />
<glyph unicode="s" horiz-adv-x="1012" d="M0 1210l100 52q99 51 147 137h478l65 -76q65 -76 162 -117l-47 -145h-211l-42 81q-43 80 -166 80q-124 0 -181.5 -70t-57.5 -126t48.5 -128t163.5 -72q114 0 151 34l37 33l89 -119q90 -120 228 -163l-39 -123q-13 -42 -13 -87q0 -84 48 -174l-106 -55t-153 -172h-430 l-63 83q-63 83 -192 137l43 152h204l41 -82q40 -82 155 -82q242 0 242 210q0 76 -57.5 140t-153.5 64q-97 0 -136 -23l-40 -23l-90 104q-89 103 -212 154l35 108q10 32 10 70q0 87 -57 198z" />
<glyph unicode="t" horiz-adv-x="1107" d="M0 1048h195q29 96 66 150h152v-799q-9 -101 -106 -184l108 -215h218l108 215q-96 86 -106 184v799h153q38 -56 60 -150h201q-61 149 -88 343h-873q-26 -178 -88 -343z" />
<glyph unicode="u" horiz-adv-x="1138" d="M0 1175l94 224h243l82 -212l-51 -51q-51 -50 -51 -129v-122v-187.5v-171.5v-75l3 -41q4 -40 24.5 -89t63 -89t120.5 -40h28q77 0 119.5 40t63 89t24.5 89l4 41v75v171.5v187.5v122q0 61 -51 121l-51 59l83 212h242l94 -224q-59 -30 -86 -108.5t-27 -98.5v-73v-139v-151 v-107q0 -68 49 -170l48 -101q-132 -55 -195 -141l-63 -86h-536l-63 86q-63 85 -195 141l49 101q49 102 49 170v107v151v139v73q0 20 -28 98.5t-86 108.5z" />
<glyph unicode="v" horiz-adv-x="1258" d="M0 1224l98 175h246l82 -173l-82 -109l-10 -31q-3 -10 -4 -24q0 -31 16 -82q11 -37 52 -152.5t86 -239t80 -220.5l36 -96l35 96q35 97 80 220.5t86 239t52 152.5q16 51 16 82q1 14 -3 24l-11 31l-82 109l82 173h247l97 -175l-31 -32q-32 -31 -49 -70q-9 -20 -51 -137.5 t-89 -250.5t-84 -240l-37 -108l-8 -68q-1 -6 -1 -12q0 -60 74 -108l-146 -198h-354l-147 198q74 49 74 110q0 4 -1 10l-7 68l-38 108q-38 107 -84.5 240t-88.5 250.5t-50 137.5q-17 38 -49 70z" />
<glyph unicode="w" horiz-adv-x="1360" d="M0 1214l87 185h239l110 -197q-92 -44 -103 -116l-11 -72l55 -424l272 588l270 -588l55 424l-10 70q-11 70 -104 118l110 197h239l87 -185l-45 -64q-45 -63 -54 -136q-5 -38 -17 -145t-24.5 -220.5t-22.5 -202.5l-10 -88l3 -62q3 -62 60 -92l-99 -204h-215l-223 578 l-225 -578h-216l-98 204q56 30 60 92l3 62l-11 88q-10 89 -22.5 202.5t-25 220.5t-16.5 145q-10 72 -54 136z" />
<glyph unicode="x" horiz-adv-x="1255" d="M0 1203l99 196h232l149 -193q-51 0 -61 -30l-10 -29l190 -253l188 253l-11 29q-10 30 -60 30l150 193h232l98 -196l-46 -11q-46 -11 -76 -41q-15 -15 -68 -86t-110.5 -149.5t-102.5 -141.5l-45 -63l264 -391l45 -46q45 -45 123 -50l-102 -224h-208l-158 208l44 22 q23 11 24 31q0 19 -20 47l-161 235l-162 -235q-20 -28 -20 -47q1 -19 23 -31l44 -22l-157 -208h-209l-102 224q78 12 124 54l45 42l264 391l-46 63t-103.5 141.5t-110.5 149.5t-67 86q-30 30 -76 41z" />
<glyph unicode="y" horiz-adv-x="1251" d="M0 1206l98 193h232l149 -189q-51 0 -61 -30l-10 -29l189 -248l187 248l-10.5 29.5t-59.5 29.5l149 189h231l98 -193l-46 -11t-76 -40q-15 -15 -67.5 -84t-110 -146.5t-102.5 -139l-45 -61.5l-25.5 -53.5t-25.5 -149.5q0 -133 56 -217l57 -83l-109 -221h-212l-90 220 q101 101 101 297q0 87 -25 147l-25 60l-45.5 61.5t-103 139t-110 146.5t-66.5 84q-30 29 -76 40z" />
<glyph unicode="z" horiz-adv-x="1122" d="M0 1211l270 188h696l95 -204l-15 -11q-14 -12 -100 -140q-35 -53 -116.5 -173t-165.5 -242.5t-148 -216.5l-64 -93l-20 -35q-21 -36 -24 -59h285q89 3 149 142h180l103 -145l-208 -222h-811l-34 78q-34 79 -70 121l44 26q45 26 87 74q21 24 122.5 162t203 294t183.5 282 l81 126h-223h-4q-183 0 -235 -98h-199z" />
<glyph unicode="{" horiz-adv-x="420" />
<glyph unicode="|" horiz-adv-x="201" />
<glyph unicode="}" horiz-adv-x="360" />
<glyph unicode="~" />
<glyph unicode="&#xa1;" horiz-adv-x="309" />
<glyph unicode="&#xa2;" />
<glyph unicode="&#xa3;" />
<glyph unicode="&#xa4;" horiz-adv-x="420" />
<glyph unicode="&#xa5;" />
<glyph unicode="&#xa6;" horiz-adv-x="201" />
<glyph unicode="&#xa7;" horiz-adv-x="420" />
<glyph unicode="&#xa8;" horiz-adv-x="371" />
<glyph unicode="&#xa9;" horiz-adv-x="714" />
<glyph unicode="&#xaa;" horiz-adv-x="402" />
<glyph unicode="&#xab;" horiz-adv-x="540" />
<glyph unicode="&#xac;" horiz-adv-x="1395" />
<glyph unicode="&#xad;" horiz-adv-x="471" />
<glyph unicode="&#xae;" horiz-adv-x="747" />
<glyph unicode="&#xaf;" horiz-adv-x="360" />
<glyph unicode="&#xb0;" horiz-adv-x="285" />
<glyph unicode="&#xb1;" />
<glyph unicode="&#xb2;" horiz-adv-x="300" />
<glyph unicode="&#xb3;" horiz-adv-x="300" />
<glyph unicode="&#xb4;" horiz-adv-x="462" />
<glyph unicode="&#xb6;" horiz-adv-x="450" />
<glyph unicode="&#xb7;" horiz-adv-x="207" />
<glyph unicode="&#xb8;" horiz-adv-x="321" />
<glyph unicode="&#xb9;" horiz-adv-x="300" />
<glyph unicode="&#xba;" horiz-adv-x="402" />
<glyph unicode="&#xbb;" horiz-adv-x="540" />
<glyph unicode="&#xbc;" horiz-adv-x="786" />
<glyph unicode="&#xbd;" horiz-adv-x="786" />
<glyph unicode="&#xbe;" horiz-adv-x="786" />
<glyph unicode="&#xbf;" horiz-adv-x="567" />
<glyph unicode="&#xc0;" horiz-adv-x="609" />
<glyph unicode="&#xc1;" horiz-adv-x="609" />
<glyph unicode="&#xc2;" horiz-adv-x="609" />
<glyph unicode="&#xc3;" horiz-adv-x="609" />
<glyph unicode="&#xc4;" horiz-adv-x="609" />
<glyph unicode="&#xc5;" horiz-adv-x="609" />
<glyph unicode="&#xc6;" horiz-adv-x="819" />
<glyph unicode="&#xc7;" horiz-adv-x="729" />
<glyph unicode="&#xc8;" horiz-adv-x="648" />
<glyph unicode="&#xc9;" horiz-adv-x="648" />
<glyph unicode="&#xca;" horiz-adv-x="648" />
<glyph unicode="&#xcb;" horiz-adv-x="648" />
<glyph unicode="&#xcc;" horiz-adv-x="234" />
<glyph unicode="&#xcd;" horiz-adv-x="234" />
<glyph unicode="&#xce;" horiz-adv-x="234" />
<glyph unicode="&#xcf;" horiz-adv-x="234" />
<glyph unicode="&#xd0;" horiz-adv-x="663" />
<glyph unicode="&#xd1;" horiz-adv-x="612" />
<glyph unicode="&#xd2;" horiz-adv-x="696" />
<glyph unicode="&#xd3;" horiz-adv-x="696" />
<glyph unicode="&#xd4;" horiz-adv-x="696" />
<glyph unicode="&#xd5;" horiz-adv-x="696" />
<glyph unicode="&#xd6;" horiz-adv-x="696" />
<glyph unicode="&#xd7;" />
<glyph unicode="&#xd8;" horiz-adv-x="696" />
<glyph unicode="&#xd9;" horiz-adv-x="660" />
<glyph unicode="&#xda;" horiz-adv-x="660" />
<glyph unicode="&#xdb;" horiz-adv-x="660" />
<glyph unicode="&#xdc;" horiz-adv-x="660" />
<glyph unicode="&#xdd;" horiz-adv-x="526" />
<glyph unicode="&#xde;" horiz-adv-x="576" />
<glyph unicode="&#xdf;" horiz-adv-x="498" />
<glyph unicode="&#xe0;" horiz-adv-x="369" />
<glyph unicode="&#xe1;" horiz-adv-x="369" />
<glyph unicode="&#xe2;" horiz-adv-x="369" />
<glyph unicode="&#xe3;" horiz-adv-x="369" />
<glyph unicode="&#xe4;" horiz-adv-x="369" />
<glyph unicode="&#xe5;" horiz-adv-x="369" />
<glyph unicode="&#xe6;" horiz-adv-x="747" />
<glyph unicode="&#xe7;" horiz-adv-x="510" />
<glyph unicode="&#xe8;" horiz-adv-x="486" />
<glyph unicode="&#xe9;" horiz-adv-x="486" />
<glyph unicode="&#xea;" horiz-adv-x="486" />
<glyph unicode="&#xeb;" horiz-adv-x="486" />
<glyph unicode="&#xec;" horiz-adv-x="234" />
<glyph unicode="&#xed;" horiz-adv-x="234" />
<glyph unicode="&#xee;" horiz-adv-x="234" />
<glyph unicode="&#xef;" horiz-adv-x="234" />
<glyph unicode="&#xf0;" horiz-adv-x="483" />
<glyph unicode="&#xf1;" horiz-adv-x="384" />
<glyph unicode="&#xf2;" horiz-adv-x="366" />
<glyph unicode="&#xf3;" horiz-adv-x="366" />
<glyph unicode="&#xf4;" horiz-adv-x="366" />
<glyph unicode="&#xf5;" horiz-adv-x="366" />
<glyph unicode="&#xf6;" horiz-adv-x="366" />
<glyph unicode="&#xf7;" />
<glyph unicode="&#xf8;" horiz-adv-x="366" />
<glyph unicode="&#xf9;" horiz-adv-x="342" />
<glyph unicode="&#xfa;" horiz-adv-x="342" />
<glyph unicode="&#xfb;" horiz-adv-x="342" />
<glyph unicode="&#xfc;" horiz-adv-x="342" />
<glyph unicode="&#xfd;" horiz-adv-x="393" />
<glyph unicode="&#xfe;" horiz-adv-x="348" />
<glyph unicode="&#xff;" horiz-adv-x="393" />
<glyph unicode="&#x152;" horiz-adv-x="954" />
<glyph unicode="&#x153;" horiz-adv-x="756" />
<glyph unicode="&#x178;" horiz-adv-x="526" />
<glyph unicode="&#x2c6;" horiz-adv-x="360" />
<glyph unicode="&#x2dc;" horiz-adv-x="483" />
<glyph unicode="&#x2000;" horiz-adv-x="924" />
<glyph unicode="&#x2001;" horiz-adv-x="1849" />
<glyph unicode="&#x2002;" horiz-adv-x="924" />
<glyph unicode="&#x2003;" horiz-adv-x="1849" />
<glyph unicode="&#x2004;" horiz-adv-x="616" />
<glyph unicode="&#x2005;" horiz-adv-x="462" />
<glyph unicode="&#x2006;" horiz-adv-x="308" />
<glyph unicode="&#x2007;" horiz-adv-x="308" />
<glyph unicode="&#x2008;" horiz-adv-x="231" />
<glyph unicode="&#x2009;" horiz-adv-x="369" />
<glyph unicode="&#x200a;" horiz-adv-x="102" />
<glyph unicode="&#x2010;" horiz-adv-x="471" />
<glyph unicode="&#x2011;" horiz-adv-x="471" />
<glyph unicode="&#x2012;" horiz-adv-x="471" />
<glyph unicode="&#x2013;" horiz-adv-x="684" />
<glyph unicode="&#x2014;" horiz-adv-x="894" />
<glyph unicode="&#x2018;" horiz-adv-x="396" d="M41 1054q0 210 261 338l33 -50l-9 -8q-48 -45 -62 -69q-23 -45 -24 -114q35 -14 57 -36q45 -47 45 -107q0 -56 -39 -97q-43 -47 -106 -47q-57 0 -100 40q-56 53 -56 150z" />
<glyph unicode="&#x2019;" horiz-adv-x="396" d="M55 1235q0 56 39 97q44 47 106 47q57 0 100 -40q56 -53 56 -150q0 -210 -261 -338l-33 50l9 9q48 44 62 68q24 46 24 114q-35 14 -57 36q-45 47 -45 107z" />
<glyph unicode="&#x201a;" horiz-adv-x="234" />
<glyph unicode="&#x201c;" horiz-adv-x="342" />
<glyph unicode="&#x201d;" horiz-adv-x="300" />
<glyph unicode="&#x201e;" horiz-adv-x="402" />
<glyph unicode="&#x2022;" horiz-adv-x="387" />
<glyph unicode="&#x2026;" horiz-adv-x="792" />
<glyph unicode="&#x202f;" horiz-adv-x="369" />
<glyph unicode="&#x2039;" horiz-adv-x="321" />
<glyph unicode="&#x203a;" horiz-adv-x="321" />
<glyph unicode="&#x205f;" horiz-adv-x="462" />
<glyph unicode="&#x2122;" horiz-adv-x="681" />
<glyph unicode="&#xe000;" horiz-adv-x="1400" d="M0 0v1400h1400v-1400h-1400z" />
</font>
</defs>
</svg>
