<?xml version="1.0" standalone="no"?>
<!DOCTYPE svg PUBLIC "-//W3C//DTD SVG 1.1//EN" "http://www.w3.org/Graphics/SVG/1.1/DTD/svg11.dtd" >
<svg xmlns="http://www.w3.org/2000/svg">
<metadata></metadata>
<defs>
<font id="1-prolook_valiantregular" horiz-adv-x="600" >
<font-face units-per-em="2048" ascent="1638" descent="-410" />
<missing-glyph horiz-adv-x="508" />
<glyph horiz-adv-x="2048" />
<glyph horiz-adv-x="2048" />
<glyph unicode="&#xd;" horiz-adv-x="508" />
<glyph unicode=" "  horiz-adv-x="508" />
<glyph unicode="&#x09;" horiz-adv-x="508" />
<glyph unicode="&#xa0;" horiz-adv-x="508" />
<glyph unicode="!" d="M77 1444q22 27 80.5 88t92.5 61q18 0 48 -23q80 -62 148 -72q-29 -29 -45 -106q-46 -223 -46 -652q0 -224 7 -278q3 -24 20 -51q-21 -17 -56 -72q-13 -35 -36 -91l-21 10q21 115 21 199q0 50 2.5 151t2.5 151q0 442 -113 602q-46 65 -100 69zM96 34l115 96q43 36 62 48 q99 -48 152 -48q29 0 87 36l11 -9q-42 -47 -88 -92q-90 -88 -154 -88q-73 0 -185 57z" />
<glyph unicode="&#x22;" horiz-adv-x="800" d="M79 1541q51 30 131 80q53 -30 92 -96t39 -126q0 -66 -161 -288l-16 9q37 79 37 152q0 170 -122 269zM459 1541q51 30 130 80q53 -30 92.5 -96t39.5 -126q0 -66 -161 -288l-17 9q37 79 37 152q0 171 -121 269z" />
<glyph unicode="#" horiz-adv-x="900" d="M106 400l14 97h175l26 196h-171l13 97h171l42 305h43l-43 -305h209l42 305h43l-43 -305h167l-14 -97h-165l-27 -196h162l-13 -97h-160l-44 -301h-41l40 301h-207l-43 -301h-41l40 301h-175zM336 497h209l27 196h-208z" />
<glyph unicode="$" horiz-adv-x="800" d="M77 326q34 50 94 90q66 45 120 45q140 0 227 -153q52 25 52 180q0 76 -28 134q-23 47 -50 47q-5 0 -69 -54.5t-103 -54.5q-54 0 -120 81q-57 70 -75 128q-4 13 -4 39q0 46 18 68q69 86 246 224v137h38v-126q10 0 44 -8q6 -4 8 -13q31 -24 62 -49q37 -25 72 -25 q31 0 61 22q10 4 15 4q4 -9 4 -11q0 -16 -75 -85q-69 -64 -79 -69q-27 -14 -53 -14q-43 0 -110.5 59t-78.5 59q-36 0 -36 -54q0 -96 129 -224q21 -21 56 -21q39 0 110.5 59.5t80.5 59.5q43 0 72 -86q18 -54 18 -116q0 -176 -178 -311q-45 -33 -135 -98v-171h-35v141 q-10 19 -41 67q-50 73 -137 111q-16 7 -47 7q-10 0 -36.5 -10t-36.5 -9z" />
<glyph unicode="%" horiz-adv-x="1450" d="M101 564q6 31 18 67v395q0 33 -15 60q162 0 304 124h38q24 -19 71 -57q54 -43 70 -43q-10 -37 -10 -74v-339q0 -46 13 -85q-166 -5 -311 -134h-25q-111 86 -153 86zM262 664l98 -84l74 47v394l-91 89l-81 -35v-411zM409 -3l542 1210h90l-542 -1210h-90zM860 82 q19 46 19 82v380q0 33 -15 60q161 0 303 124h38q24 -19 71 -57q54 -43 70 -43q-10 -37 -10 -74v-339q0 -45 13 -84q-165 -5 -311 -135h-25q-111 86 -153 86zM1021 182l98 -84l75 47v395l-91 88l-82 -35v-411z" />
<glyph unicode="&#x26;" horiz-adv-x="1178" d="M94 704q27 3 96 15q52 11 123 43q83 38 83 65q0 10 -65 174q-21 53 -44 102q-30 20 -30 39q0 11 48 55q18 16 53 48q31 30 98 97q45 45 149 143q7 4 27 4q103 -135 103 -265q0 -76 -34 -134q-22 -38 -117 -150l-28 -32l83 -184q56 -125 149 -293q5 -7 16 -26 q19 19 40.5 68.5t21.5 74.5q0 49 -50 53q-27 2 -82 5q-4 0 -4 8t49 52q46 42 61 51q36 21 80 21l184 -20q54 0 114 48q5 -1 5 -9q0 -10 -72 -77.5t-92 -79.5q-42 -25 -83 -25q-13 0 -59 6q-12 -36 -32 -97q-11 -33 -33 -79q-19 -40 -20 -44q0 33 36 -34q51 -95 66 -113 q75 -85 114 -85q15 0 69 31q0 -5 -4 -16q-27 -35 -82 -104q-49 -60 -90 -60q-59 0 -135 96l-98 132q-65 -50 -149 -155q-45 -56 -115 -56q-112 0 -184 59q-49 40 -124 156q-4 7 -24 51q-6 13 -5 48l4 232q0 14 -5 92q-5 23 -12 69zM274 360q0 -37 57 -102.5t94 -76.5 q78 -24 114 -24q38 0 67 14q76 37 76 72q-21 32 -86 161q-52 108 -183 380l-139 -70v-354zM412 1246q6 -12 34.5 -82.5t96.5 -233.5q61 68 61 145q0 120 -67 224q-23 36 -40 36q-18 0 -85 -89z" />
<glyph unicode="'" horiz-adv-x="500" d="M119 1541q51 30 130 80q53 -30 92.5 -96t39.5 -126q0 -66 -161 -288l-17 9q38 81 38 152q0 170 -122 269z" />
<glyph unicode="(" d="M211 733q0 425 53 792q12 85 56 123q11 9 196 175l11 -19q-31 -23 -64 -59q-50 -54 -65 -157q-57 -387 -57 -876q0 -534 78 -712q27 -62 85 -62q20 0 90 65l11 -10q-31 -32 -112 -105q-75 -63 -99 -63q-81 0 -120 134q-48 164 -59 384q-4 77 -4 390z" />
<glyph unicode=")" d="M-10 1655q31 32 111 105q75 63 99 63q81 0 120 -134q47 -162 59 -384q5 -92 5 -390q0 -424 -53 -792q-12 -86 -54.5 -123.5t-198.5 -174.5l-10 19q33 26 63 58q51 54 66 158q56 386 56 876q0 537 -77 712q-27 62 -85 62q-20 0 -90 -65z" />
<glyph unicode="*" horiz-adv-x="700" d="M119 1354l37 129l164 -91l-29 220h114l-25 -222l167 96l34 -127l-186 -38l134 -167l-88 -83l-88 208l-90 -206l-87 76l134 172z" />
<glyph unicode="+" horiz-adv-x="1000" d="M119 398v112h324v315h114v-315h324v-112h-324v-315h-114v315h-324z" />
<glyph unicode="," d="M178 117l151 115h28q66 -105 65 -191q-1 -81 -56 -148q-42 -42 -121 -122q-16 -17 -55 -52l-12 11q96 96 95 190q-1 126 -93 184z" />
<glyph unicode="-" horiz-adv-x="850" d="M53 466q60 104 90 137q63 71 140 68l291 -13q154 -7 223 74v-19q-113 -141 -141 -165q-53 -45 -129 -40l-301 20q-61 4 -96 -15q-28 -15 -72 -66q-1 6 -5 19z" />
<glyph unicode="." d="M114 74q0 24 41 57q64 53 125 100l7 -6q-2 -9 -2 -19q0 -53 40 -101t91 -48q28 0 49 24q6 -9 21 -26q-12 -21 -63 -41q-98 -39 -155 -39q-54 0 -99 23q-55 27 -55 76z" />
<glyph unicode="/" horiz-adv-x="1000" d="M-122 -108q40 54 140 197q412 612 914 1418q55 88 162 271l104 72q-57 -106 -218 -373l-897 -1397q-38 -59 -89 -132z" />
<glyph unicode="0" horiz-adv-x="940" d="M75 178q10 34 19 73q9 93 25 336q6 115 6 410q0 130 -37 220q79 27 262 121l169 88q6 -3 30 -20q35 -26 45 -31q85 -47 273 -132q-41 -108 -41 -532q0 -154 7 -297q1 -22 8 -77q6 -49 6 -77q-285 -183 -449 -309q-87 112 -265 194q-26 12 -58 33zM269 300 q151 -41 280 -197q27 17 76 56q28 174 28 244q0 79 2 238l1 237q0 180 11 227q-10 9 -26 13q-59 15 -134 73q-47 37 -141 112q-26 -14 -82 -39q2 -32 11 -161q10 -137 10 -162q0 -341 -36 -641z" />
<glyph unicode="1" d="M58 1211q72 79 163 132q21 12 48 12q58 0 121 -113q2 -3 16 -17q11 -11 11 -18q0 16 -6 -37q-11 -96 -14 -238q-3 -125 -6 -738q80 -70 123 -70q19 0 28 3v-13q-51 -48 -156 -129q-7 -4 -34 -4q-17 0 -97.5 52.5t-126.5 52.5q-8 0 -24 -1.5t-24 -1.5q43 47 129 139 q3 12 18 135q2 60 9 357q5 209 1 357q-53 148 -121 148q-10 0 -55 -17q-4 6 -3 9z" />
<glyph unicode="2" horiz-adv-x="940" d="M74 787q30 56 30 86v217q0 61 15 80q13 16 122 82q31 19 177 102q14 8 53 35q33 23 38 23q-10 0 166 -115q69 -45 150 -62v-467q0 -67 -62 -92q-41 -19 -150 -68q-123 -53 -247 -181q-129 -133 -167 -255q-1 -2 2 -5q135 129 250 129q70 0 198 -66.5t158 -66.5 q33 0 70 69l25 -22l-76 -80q-24 -28 -86 -95q-26 -22 -52 -22q-51 0 -185.5 65t-189.5 65q-77 0 -217 -119h-12q109 319 348 522q88 56 156 111q78 63 78 161q0 50 -3 149.5t-3 149.5q-74 30 -170 80q-20 11 -71 63q-39 40 -44 43q-12 0 -40 -19.5t-36 -30t-14 -34.5 q-14 -51 -14 -118v-144q0 -26 -9 -38q-20 -27 -77 -66q-37 -32 -103 -71q-3 2 -8 5z" />
<glyph unicode="3" horiz-adv-x="940" d="M57 217q20 11 115 57q88 42 121 42q38 0 64 -7q39 -11 116 -44q26 -17 87 -70q52 -45 57 -47q15 0 32 20q5 31 5 267q0 122 -11 156q-5 15 -22 25q-36 22 -127 62q-115 51 -153 51q-7 0 -50 -21l-12 23q62 40 172 128q92 74 274 328l-2 12q-88 -29 -154 -24l-335 27 q-31 3 -54 -10q-19 -10 -59 -52q-10 6 -21 9q26 43 82 121q79 91 104 114l227 -29l226 -10q-31 0 39.5 1.5t82.5 1.5l4 -7q-41 -108 -243 -345q-33 -37 -108 -132q46 -21 166 -73q30 -12 163 -55q-15 -49 -15 -103q0 -255 23 -337q-61 -44 -153 -115q-88 -68 -115 -90 q-63 -54 -103 -103h-12q-62 95 -192 163q-119 62 -219 66z" />
<glyph unicode="4" horiz-adv-x="1000" d="M-13 447v18q0 13 35 49q40 40 138 147q141 162 186 254q68 139 82 221q20 113 8 153q88 60 164 103h12q4 -12 4 -32q0 -50 -40 -184q-75 -251 -504 -640q-1 -2 2 -5q176 111 331 103l204 -11v321q0 63 18 168q10 55 79 100q10 6 117 71q0 -9 -9 -21q-13 -17 -13 -18 q-23 -49 -37 -180v-435q6 -12 56 -12q114 0 195 63q5 3 20 8q2 -3 6 -8q-29 -45 -88 -134q-52 -77 -111 -77q-14 0 -78 -6q1 -34 0 -89l-2 -113q0 -14 -27 -78q9 -16 57 -34q44 -16 67 -16q18 0 36 10t26 11l8 -9q-96 -96 -113 -110q-58 -48 -111 -48q-23 0 -88.5 29 t-95.5 29q-24 0 -65 -31q-7 5 -7 11q0 9 52 69q24 27 70 80q38 45 38 152v138l-164 28q-136 22 -213 22q-159 0 -226 -67h-19z" />
<glyph unicode="5" horiz-adv-x="950" d="M43 215q137 93 231 93q116 0 185 -60q39 -35 140 -124q24 14 47.5 49.5t23.5 62.5v407q-32 35 -115 91q-96 65 -138 65q-25 0 -36 -8q-19 -18 -164 -156q-31 -29 -43 -29q-18 0 -16 60q12 300 34 668q2 33 21 33l63 -6q66 -6 94 -7q38 -1 245 -1q183 0 226 53q7 3 13 -3 q-39 -67 -129 -191q-11 -12 -73 -24q-35 -7 -133 -15l-298 -3q-13 -164 -23 -365q-3 -73 52 -73q30 0 154 112t150 112q53 0 215 -126q12 -10 36 -29q21 -16 42 -18l1 -442q1 -10 -16 -28q-73 -80 -163 -156q-114 -97 -228 -191h-14q-3 12 -16 37q-121 162 -300 202 q-13 3 -66 3q2 6 -2 7z" />
<glyph unicode="6" horiz-adv-x="940" d="M92 163q25 51 36 192l-10 598q-1 53 -26 191q2 8 13 20q71 26 136 67q122 77 211 144q49 37 60 37q5 -3 30 -20q49 -35 150 -104q83 -54 149 -54q10 1 44 7q6 -22 -8 -33q-25 -20 -108 -41q-72 -18 -92 -18q-101 0 -197 50q-56 37 -112 73q-13 0 -73 -38q-4 -58 0 -143 l14 -339q40 29 121 87t120 58q79 0 235 -112q37 -27 57 -35q-27 -46 -27 -130q0 -203 4 -333l17 -17q-19 -26 -126 -95q-40 -26 -103 -68q-78 -52 -180 -114q-71 22 -172 71q-116 56 -163 99zM291 293q0 -41 136 -102q125 -56 174 -56q41 0 41 126q0 49 -2.5 147.5 t-2.5 147.5q0 8 5.5 29.5t5.5 29.5q0 22 -36 48q-137 98 -211 98q-52 0 -98 -62l-2 -341q-10 -60 -10 -65z" />
<glyph unicode="7" horiz-adv-x="950" d="M58 1127q0 38 178 280l26 -6q-8 -14 -33 -57q45 17 98 17q58 0 174.5 -15t175.5 -15q141 0 221 21q24 6 52 61l26 -18q-3 -9 -11 -26q-34 -45 -107 -140q-65 -81 -227 -288q-85 -111 -157 -267.5t-72 -293.5q0 -83 35 -149q43 -81 119 -81q32 0 62 23l9 -9 q-149 -191 -200 -191q-25 0 -77 33q-100 63 -100 238q0 178 112 378q87 155 275 375q87 101 131 183q-10 -2 -33 -7q-108 -24 -172 -19l-355 30q-43 4 -73 -9t-52 -55q-14 0 -25 7z" />
<glyph unicode="8" horiz-adv-x="940" d="M100 195q0 7 6.5 25.5t6.5 27.5q1 28 5 129q1 28 0 58q-4 100 -4 154q37 19 123 40q72 17 108 49l-129 61q-88 43 -88 98v258q-7 63 -7 76q235 95 342 237q8 4 13 9q13 -14 39 -37q139 -93 337 -124q7 -11 7 -23q0 20 -16 -60q-1 -44 -6 -92q-5 -52 -5 -125v-113 q-3 -3 -8 -7q-113 -5 -241 -82q-1 -6 13 -14q60 -26 178 -81q89 -44 85 -132l-10 -242q-2 -44 -59 -78q-200 -118 -337 -245q-20 -5 -14 -5q-5 0 -8 1q-9 12 -32 41q-50 61 -94 83q-54 25 -193 90q-12 6 -12 23zM294 326q-1 -18 5 -28q76 -40 221 -131q59 -43 69 -43 q73 0 73 257q0 133 -55 180q-17 14 -95 54q-84 43 -107 43q-13 0 -51 -24t-42 -35q-4 -16 -11 -45zM305 1034q0 -49 11 -109q8 -42 61 -82q7 -6 67 -33q65 -30 80 -30t93 49q18 11 20 24l4 142q3 86 24 149q-99 9 -191 49q-18 8 -67 38q-39 24 -46 26q-26 0 -42 -40 q-13 -32 -11 -44q0 -30 -1.5 -89.5t-1.5 -49.5z" />
<glyph unicode="9" horiz-adv-x="940" d="M94 186q47 38 94 77q52 35 113 35q71 0 154 -54t118 -119q43 21 78 53q0 169 -7 443l-1 16l-218 -175q-76 77 -112 103q-83 60 -193 80q-1 7 -4 24q21 57 21 139v203q0 99 -34 117q0 12 77 61q67 43 107 62q116 56 210 119q18 12 49 25q56 -26 118 -53q31 -14 113 -43.5 t82 -42.5q-2 -1 -13 -23q-21 -41 -24 -68q-18 -141 -18 -234v-385q0 -151 37 -270q0 -8 -17 -19q-31 -22 -112 -77l-102 -68q-18 -12 -185 -142q-30 43 -99 116q-74 57 -231 88v6q-1 4 -1 6zM287 760q23 -1 59 -6q24 -7 88 -44q133 -77 146 -77q15 0 38 16t29 30 q2 175 2 284q0 162 -5 175q-189 84 -258 123q-75 -31 -75 -65v-278q0 -64 -24 -158z" />
<glyph unicode=":" d="M97 164l157 86q18 -22 68 -80q36 -41 83 -41q41 0 80 20l18 -23q-64 -40 -148 -98q-35 -29 -83 -29q-65 0 -107 53q-30 38 -68 112zM97 1016l157 85q27 -32 68 -79q37 -42 83 -42q41 0 80 21l18 -24q-64 -40 -148 -97q-35 -30 -83 -30q-66 0 -107 53q-29 37 -68 113z" />
<glyph unicode=";" d="M97 1016l157 85q27 -32 68 -79q37 -42 83 -42q41 0 80 21l18 -24q-64 -40 -148 -97q-35 -30 -83 -30q-66 0 -107 53q-29 37 -68 113zM178 117l151 115h28q66 -104 65 -191q-1 -81 -56 -148q-41 -41 -121 -122q-23 -23 -55 -52l-12 11q96 96 95 190q-1 126 -93 184z" />
<glyph unicode="&#x3c;" horiz-adv-x="1000" d="M119 413v97l762 340v-117l-605 -271l605 -272v-117z" />
<glyph unicode="=" horiz-adv-x="1000" d="M119 258v112h762v-112h-762zM119 538v112h762v-112h-762z" />
<glyph unicode="&#x3e;" horiz-adv-x="1000" d="M119 73v117l605 272l-605 271v117l762 -340v-97z" />
<glyph unicode="?" horiz-adv-x="850" d="M78 1362q0 17 11 36q27 17 143 87q39 24 129 82q119 77 125 77q48 0 147 -96q92 -89 110 -136q49 -127 49 -196q0 -86 -52 -169q-44 -71 -109 -161q-37 -47 -127 -173q-79 -117 -79 -248q0 -56 30 -84v-11q0 -8 -95 -89q-18 -15 -30 -15q-45 0 -45 126q0 90 59 185 q42 68 142 184q104 120 144 181t40 131q0 94 -65 201q-58 97 -140 162q-89 69 -141 69q-54 0 -71 -40q4 -56 2 -115q-2 -41 -29 -164q-13 -39 -60 -89.5t-84 -64.5q9 135 9 160q-1 16 -6 85zM211 40q8 16 63 69q64 62 88 62q4 0 69 -32t101 -32q26 0 59 19q-19 -38 -89 -96 q-76 -63 -116 -63q-76 0 -175 73z" />
<glyph unicode="@" horiz-adv-x="1600" d="M95 625q0 316 212.5 523.5t529.5 207.5q272 0 464 -161q204 -170 204 -437q0 -210 -127 -359q-170 -120 -352 -181q-27 27 -73 79q-14 19 -49 86q-35 -26 -51 -41q-34 -33 -84 -78q-31 -23 -93 -67l-15 13q4 43 -51 89q-45 37 -93 53q35 57 35 104q0 31 2 133l1 102 q0 10 -17 47q63 1 101 16q27 11 106 28q48 11 143 35l4 68q-30 35 -96.5 77t-114.5 58q-8 -6 -30.5 -24t-22.5 -72q0 -69 -29 -69q-43 0 -43 51q0 57 60 103q34 26 182 145l196 -124q30 -19 75 -29l2 -14q-36 -53 -36 -79v-391q0 -45 118 -172q109 31 196 113q86 161 86 298 q0 196 -156 361q-176 186 -442 186q-284 0 -443 -214q-143 -193 -143 -487q0 -228 164 -397q175 -180 440 -180q185 0 404 96l26 -51q-254 -115 -428 -115q-363 0 -580 233q-182 196 -182 437zM701 445l106 -102l81 66l-2 371l-163 -45q-10 -49 -9 -115q2 -113 -13 -175z " />
<glyph unicode="A" horiz-adv-x="1267" d="M-13 -46l99 170q28 7 87 51q96 112 163 289q27 71 55 228q-41 14 -63 14q-44 0 -81 -36l-9 6q35 47 100 121q31 28 76 55q10 92 28 188q12 62 52 146q41 88 82 131q52 55 71 81q-73 73 -157 73q-44 0 -77 -19q-26 -15 -79 -66l-10 10q51 72 108 142q82 100 170 100 q91 0 173 -76q121 -112 144 -343q13 -150 42 -450q35 -327 107 -523q45 -122 116 -122q30 0 88 45l7 -9q-31 -37 -107 -134q-50 -66 -92 -66q-148 0 -229 386q-22 105 -67 473l-134 -113q-95 -30 -128 -30t-81 10q-36 -132 -104 -296q-30 -74 -125 -242q179 -27 223 -27 q72 0 126 63l9 -6q-26 -36 -87 -125q-15 -23 -44 -60q-37 -35 -95 -35q-36 0 -108 10t-108 10q-79 0 -135 -31zM466 847q124 -20 179 -20q36 0 137 17l-16 175q-13 145 -25 202q-24 115 -75 157q-12 -12 -48 -46q-55 -52 -98 -237q-20 -86 -54 -248z" />
<glyph unicode="B" horiz-adv-x="1153" d="M-67 -4q0 49 97 138q59 40 168 137q15 17 20 57q25 194 25 245q0 9 -4 102q-7 165 -131 165q-48 0 -91 -41q-11 0 -24 25l78 86q61 67 115 82q4 1 41 1q4 4 11 50q3 19 10 68q16 130 200 297q-6 6 -33 4l-204 -17h-10q-45 0 -74 33q-19 21 -44 84q-31 73 -31 107 q0 17 12 24q18 0 33 -15q-7 -23 -6 -41q20 -32 125 -32h18l473 10h6q146 0 205 -133q32 -73 32 -148q0 -62 -52 -141q-49 -75 -105 -109q-31 -19 -42 -30q8 -5 28 -13q142 -39 203 -99q74 -72 74 -207q0 -43 -40 -238q-18 -89 -120.5 -211.5t-187.5 -161.5q-6 -6 -24 -19 q-45 -30 -139 -68v-89h-32l-1 98q-7 2 -23 10q-252 123 -318 123q-175 0 -180 -169q-8 -4 -20 -4q-38 0 -38 40zM246 273h59q47 0 157 -33q19 -4 50 -15v639q-23 -2 -38 -5l-2 23q12 11 40 29v444l33 -6v-439q8 3 22 5q10 0 72 37q58 35 66 43q86 89 86 201q0 55 -26 117 q-31 74 -81 97q-32 15 -89 15q-32 0 -89 -10q-51 -47 -68 -79q-38 -72 -41 -212v-48q0 -52 1 -123l3 -172q0 -270 -37 -384q-75 -85 -118 -124zM545 201q116 -65 159 -65q101 0 147 178q31 119 31 266q0 129 -83.5 206.5t-213.5 77.5q-24 0 -40 -3v-660z" />
<glyph unicode="C" horiz-adv-x="1382" d="M123 730q0 173 43 308q26 76 79 229l246 192l12 -27q-20 -19 -60 -69q-45 -70 -99 -248q-60 -199 -60 -325q0 -134 55 -262q58 -135 157 -216q70 62 70 286q0 77 -22 137q-31 85 -95 85q-31 0 -63 -21l-5 7q21 25 75 93q28 36 89 53q18 5 33 15v318q0 47 -17 103 q25 3 76 21q25 9 190 137q28 22 66 56q38 -29 123 -81q61 -29 140 -29q90 0 142 61l14 -13q-11 -15 -51 -54q-174 -139 -249 -139q-114 0 -210 91q-18 17 -37 34l-25 -22v-402q0 -380 -33 -501q-27 -98 -99 -165q-25 -24 -87 -81q94 -89 314 -135v1122h35v-1122q39 -9 97 -9 q148 0 270 75q44 27 130 131l14 -14q-69 -75 -231 -243q-78 -78 -176 -98q-48 -10 -104 -13v-116h-35v116h-21q-62 0 -122 15q-569 146 -569 720z" />
<glyph unicode="D" horiz-adv-x="1301" d="M-67 -9q0 36 120 135q53 28 138 93q56 65 56 267v102q0 88 -25 159q-36 102 -126 102q-38 0 -69 -44q-6 3 -9 3v22q3 6 20 28q108 137 162 137q12 0 27 -3q3 3 6 22q14 95 31 139q24 62 81 117q61 59 131 92q5 -5 19 -16q-58 -47 -78 -98q-27 -69 -27 -214v-456 q0 -119 -31 -192q-35 -81 -124 -150q-6 -6 -23 -22q84 9 97 9q58 0 207 -52v1176h32v-1187q95 -32 145 -32q183 0 272 309q60 209 60 454q0 358 -159 452q-96 57 -222 57q-64 0 -190 -15.5t-189 -15.5t-95 52q-18 29 -46 127l4 18q54 -27 181 -27q66 0 198 8.5t198 8.5 q214 0 306 -59q191 -123 191 -487q0 -218 -76 -466q-60 -195 -190 -305q-53 -50 -161 -148q-123 -108 -201 -108q-13 0 -26 1v-74h-32v77q-47 7 -127 36q-84 31 -131 41q-88 19 -126 19q-59 0 -89 -18q-40 -24 -64 -96q-6 -18 -14 -18h-11q-21 28 -21 40z" />
<glyph unicode="E" horiz-adv-x="1055" d="M-75 173v14q0 14 52.5 59t73 50t65 15.5t67.5 44.5q52 79 52 261q0 104 -19 153q-32 83 -129 83q-30 0 -63 -10q-4 9 -3 12q91 151 188 151q24 0 38 -3v256q0 76 -26 131q-34 72 -100 72q-53 -6 -69 -6h-4q-1 5 0 8q119 127 238 127q52 0 82 -68q13 -31 38 -92 q57 47 114 93q75 54 130 54q47 0 155.5 -31t167.5 -31q44 0 93 21q16 0 16 -12q0 -13 -105 -105q-68 -60 -164 -60q-45 0 -154.5 33.5t-163.5 33.5q-59 0 -80 -30q-15 -22 -15 -74v-452q26 25 84 93v423h36v-410q16 1 220 1q88 0 149 21q14 0 14 -12q-3 -9 -20 -46 q-21 -46 -29 -66q-3 -8 -21 -80q-19 20 -59 43q-43 5 -52 5h-202v-667q115 -24 153 -24q120 0 264 92q3 1 5 1q11 0 7 -17q-4 -14 -90 -85q-172 -141 -333 -144l-6 -3v-115h-36v116q-3 1 -7 4q-95 11 -224 60l-266 100q-9 3 -62 12zM174 302q23 -18 152 -66q125 -46 139 -46 l19 -6v658q-25 1 -33 1q-44 0 -52 -16q-4 -9 -7 -64q-7 -148 -21 -204q-28 -115 -115 -194q-44 -40 -82 -63z" />
<glyph unicode="F" horiz-adv-x="1497" d="M8 -200q0 18 34 58q31 35 52 48q143 90 212 90q43 0 132 -39.5t130 -39.5q151 0 151 278v258q0 54 -18 218q-13 119 -92 151q-2 2 -4 2q-2 -1 -2 -5v-745h-38v776q-33 17 -108 17q-59 0 -86 -27h-15l-8 8q122 131 217 134v442h38v-438q52 -11 105 -37v21q10 170 36 248 q48 143 183 214q3 6 17 22q-267 32 -506 32q-109 0 -152 -8q-82 -15 -131 -67q-28 -30 -31 -86q-1 -18 -1 -96q0 -12 -27.5 -42.5t-39.5 -30.5q-34 0 -34 80q0 89 149 225q138 126 226 146q80 18 166 18q91 0 229 -16l171 -20q93 -10 249 -28q147 -17 249 -17q83 0 123 10 q55 14 110 58q4 -3 4 -8q0 -7 -8 -16q-137 -170 -362 -170l-344 31q-3 -8 -11 -27q-66 -41 -76 -108q-28 -185 -28 -238v-140l233 -1q18 -2 48 -2q31 0 72 2q-18 -47 -45 -112q-22 -38 -50 -113l-16 -6q1 4 6 36q3 24 -6 36q-20 25 -149 25h-93v-423q0 -203 -83 -341 q-22 -37 -75 -88q-91 -87 -146 -114q-113 -54 -161 -54q-38 0 -129 42.5t-134 42.5q-80 0 -103 -88h-15q-15 6 -15 22z" />
<glyph unicode="G" horiz-adv-x="1531" d="M120 690q0 134 37 321q43 216 97 254q22 22 74 64q29 18 89 56q23 0 23 -17q-3 -6 -22 -43q-24 -46 -32 -68q-93 -264 -93 -486q0 -166 53 -271q70 -139 256 -247q120 -70 181 -70v1253h37v-1257q22 -10 120 -10q199 0 285 107q31 38 50 121q8 35 8 75q0 125 -67 221 q-78 111 -210 111q-73 0 -95 -34q-10 -15 -14 -65q-3 -34 -27 -34q-36 0 -36 49q0 39 59 84q73 73 106 95q59 39 134 39q139 0 226 -110q81 -102 81 -244q0 -42 -15 -106q-19 -80 -146 -192q-41 -40 -140 -134q-153 -142 -300 -142h-6q-8 -3 -13 -11l-1 -110h-35v119 q-172 18 -313 92q-74 39 -168.5 134.5t-129.5 168.5q-53 112 -53 287zM365 889q7 32 61 75q47 38 77 38q5 0 9 -1q2 4 5 9q-1 52 -5 138l-4 89q0 91 18 120q22 36 44 51q57 38 197 134q91 64 168 64q115 0 239 -81q147 -96 147 -226q0 -68 -31 -101q-12 -12 -130 -98 q-4 41 -11 103q-13 109 -145 196q-118 78 -223 78q-98 0 -98 -103l-1 -640q0 -88 -223 -273q-13 -11 -35 -18l-15 12q95 84 95 255q0 78 -20 111q-29 48 -119 68z" />
<glyph unicode="H" horiz-adv-x="1450" d="M-34 7q108 101 245 162q46 20 82 158q29 110 29 268q0 247 -129 247q-57 0 -101 -31l-8 9q105 178 192 178q10 0 47 -13q6 6 6 9v206q0 11 18 83q10 42 69 93q6 6 90 75q8 6 17 21q-115 -55 -167 -55q-31 0 -93 12t-94 12q-44 0 -69 -18q-23 -25 -69 -67q-5 3 -8 3v18 q0 10 33 46q78 85 103 106q66 54 132 54q35 0 115 -16.5t118 -16.5q64 0 108 54h15q8 -8 8 -14q0 -19 -29 -42v-630l128 6l256 2q51 0 51 61v193q0 106 25 138l95 89q-4 1 -55 1q-27 0 -78 18t-73 18h-4q-37 0 -66 -20q-5 5 -5 10q0 19 62 66q18 15 65 51q47 33 103 33 q22 0 87.5 -19t94.5 -19q34 0 76 17q11 4 55 24q3 -2 8 -5q-14 -22 -86 -78.5t-93 -89.5q-6 -10 -16 -50q-25 -104 -25 -191v-806q0 -30 -16 -95q-7 -30 -60 -66q-19 -13 -79 -52q10 2 51 13q30 8 52 8q28 0 83 -15.5t75 -15.5q18 0 45 13l26 12q4 -1 9 -6 q-173 -165 -229 -165q14 0 14 1q0 3 -82 15q-109 15 -139 15h-3q-27 0 -91 -17l-13 14q14 15 39 43q29 27 87 71q22 16 35 48q26 62 26 152v563q-6 -7 -14 -23q-48 -99 -174 -99q-16 0 -91 2l-98 2q-18 0 -58 -3v-743h-31v111l-142 -100q-74 -52 -136 -52l-108 12l-110 12 q-44 0 -61 -5q-32 -9 -60 -26zM264 162q24 -2 104 -14q66 -9 104 -9q32 0 70 19t53 45v575l-13 -1q-16 2 -41 -32q-3 3 -19 12l8 22q15 42 65 103v644q-21 -17 -60 -50q12 0 18 -7v-9q-61 -74 -61 -341v-397q0 -131 -32 -286l-32 -98q-17 -43 -59 -89q-52 -57 -105 -87z" />
<glyph unicode="I" horiz-adv-x="973" d="M-43 1300q0 86 70 155q33 33 160 119q57 39 130 39q55 0 102 -9v92h34v-100q35 -13 105 -37q63 -20 173 -20q45 0 105 44q19 14 19 -14q0 -14 -21 -29q-34 -24 -130 -82q-78 -42 -169 -42q-45 0 -82 13v-390q2 -4 6 -9q16 6 28 6q5 0 59 -27l5 2v117q0 64 19 122 q13 40 90 109l115 103q3 -2 8 -5q-58 -101 -58 -248v-597q0 -218 -150 -359l-66 -62q61 -22 88 -31q95 -32 145 -32q61 0 97 23q29 19 68 74q17 24 31 24q13 0 18 -15q1 -5 1 -9q0 -11 -8 -20q-203 -222 -362 -222q-53 0 -134 29v-108h-34v120q-164 64 -231 64 q-121 0 -160 -119q-6 -18 -14 -18h-11q-21 28 -21 40q0 36 120 135q133 110 245 110q36 0 72 -16v647q-17 6 -24 6q-82 0 -129 -60q-6 -7 -15 -3t-9 15q0 23 77 89q33 27 100 83v443q-167 57 -238 57q-75 0 -104 -47q-17 -28 -30 -118q-3 -21 -23 -45t-39 -24q-28 0 -28 37z M453 208q4 -1 23 -7q75 122 75 261v195q0 157 -98 202v-651z" />
<glyph unicode="J" horiz-adv-x="962" d="M-42 1300q0 86 82 165q48 46 174 126q35 22 104 22q-6 0 142 -20v74h34v-78q37 -18 131 -35q88 -15 137 -15q65 0 105 44h12q7 -7 7 -14q0 -13 -21 -29q-56 -41 -139 -92q-65 -32 -143 -32h-17q-4 0 -24 1h-49l1 -360q77 60 115 60q15 0 48 -14l5 6v9q-17 12 -17 58 q0 142 184 292q33 36 51 36q10 0 10 -3v-13q-88 -66 -88 -248q0 -104 8 -311.5t8 -311.5q0 -227 -28 -316q-41 -130 -212 -289q-100 -93 -217 -142q-70 -29 -165 -29q-208 0 -208 73q0 19 59 161q4 6 15 11q-3 -16 8 -48q47 -54 242 -54q285 0 328 179q29 122 29 272 q0 173 -68 215q-45 28 -74 28h-31v-588h-38v579q-3 2 -9 2q-8 -2 -41 -14l-8 9q29 38 58 85v163q-5 5 -10 5q-8 0 -28 -15t-21 -22l-16 4q4 18 39 72l36 55v416q-5 2 -13 6l-149 46q-53 16 -115 16q-76 0 -104 -46q-18 -30 -29 -119q-1 -12 -26.5 -40.5t-35.5 -28.5 q-28 0 -28 37zM496 791q90 60 115 60t43 -20l5 25q-23 103 -106 103q-5 0 -28.5 -4t-28.5 -2v-162z" />
<glyph unicode="K" horiz-adv-x="1431" d="M-68 1179q0 155 348 356q64 37 144 37q13 0 27 -1l386 -28h14q43 0 110 15q5 1 31 11q22 8 27 8h29q-7 -16 -33 -32l-43 -26q-74 -56 -179 -73q-45 -7 -175 -9q-4 -1 -9 -4q24 -25 34 -92l-4 -526q68 71 114 108q55 42 164 126q155 123 155 161q0 41 -84 41 q-44 0 -86 -21q-7 5 -7 11q0 15 45 52q18 16 68 58q31 26 113 26q11 0 54 -2l53 -2q157 0 209 18q14 5 37 41q9 16 29.5 47.5t63.5 36.5q5 -4 8 -4v-18q-3 -5 -15 -31q-24 -50 -71 -75q-139 -75 -221 -97q-26 -3 -81 -24q-28 -38 -65 -73q-45 -44 -316 -286q1 -3 6 -7 q79 -36 139 -143q9 -17 78 -147q18 -28 116 -212q64 -121 82 -147q68 -100 127 -100q19 0 90 47q13 0 13 -9q-1 -3 -2 -7q-41 -42 -123 -123q-72 -68 -129 -68q-55 0 -116 79q-24 32 -91 160q-19 33 -83 146q-35 66 -108 197q-103 177 -150 177h-13q-9 -11 -12 -40 q-6 -66 -29 -234q-9 -53 -77 -136q-63 -78 -129 -120q0 -5 6 -10q162 -62 237 -62q36 0 64 7q19 9 62 27q13 6 20 2t0 -22q-154 -161 -311 -161q-75 0 -190 57q-43 16 -122 46q-6 3 -18 14v11q0 9 72 73.5t79 64.5q3 0 25.5 -8.5t32.5 -8.5q96 0 107 206l3 57q1 19 1 28 q0 126 -47 213q-66 122 -212 126q124 128 201 128q17 0 40 -11q9 -4 26 -13q1 1 1 2q4 8 4 17l4 177v36q0 160 -33 186q-55 42 -153 42q-18 0 -49 -5q-35 -6 -49 -7q-37 -2 -76.5 -36t-50.5 -70q-4 -13 -16 -109q-3 -11 -42 -45t-50 -34q-29 0 -29 40z" />
<glyph unicode="L" horiz-adv-x="988" d="M-68 108v11q0 14 71 74q64 54 89 70q21 13 48 23q31 2 85 16q77 41 77 224q0 74 -32 147q-43 98 -119 98q-68 0 -131 -37v11q0 5 28 34q82 85 136 106q40 15 98 15h7q-18 50 -33 167q-15 110 -15 173q0 22 13 61.5t26 52.5q153 148 346 273q12 8 49 8q66 0 154 -44 t109 -44q28 0 71 13q4 -4 25 -19q-100 -73 -115 -82q-77 -48 -127 -48q-36 0 -135.5 45.5t-136.5 45.5q-17 0 -42 -11q-74 -33 -74 -164q0 -15 26 -224q39 -314 39 -426q0 -219 -187 -381q-1 -7 12 -11q33 -4 92 -15q49 -14 185 -54v1218h31v-1227q192 -55 282 -55 q105 0 164 50h16v-15q-171 -137 -183 -145q-67 -43 -152 -43q-63 0 -127 13v-129h-31v136l-232 76q-145 47 -283 47q-65 0 -116 -38q-5 4 -8 4z" />
<glyph unicode="M" horiz-adv-x="1830" d="M-9 193q0 53 15 90q6 -2 17 -28q18 -44 107 -76q31 -11 69 -11q51 0 69 11q55 34 68 134q26 200 26 253q0 78 -29 137q-39 80 -119 80q-22 0 -85 -33l-8 7v11q4 7 28 39q51 69 139 125q18 7 56 27q1 111 34 218q2 16 9 48q20 55 87 155q-5 6 -25 6q-6 0 -18 -2t-18 -2 q12 0 12 2q0 4 -69 18q-98 20 -120 21q-85 0 -93 -70q-2 -3 -6 -8q-9 2 -14.5 4.5t-5.5 17.5q0 30 56 85q44 43 85 68q71 43 150 43q35 0 104 -20.5t102 -20.5q102 44 134 44q86 0 174 -98q84 -94 91 -183q6 -17 17 -53q2 -3 7 -10q71 65 106 152l2 5v169h31v-123 q49 55 113 97q64 41 100 41h8l255 -38h3q67 0 124 48l19 -5q-8 -24 -59 -82l-77 -89q-19 -25 -44 -102q-1 -4 -15 -32q-9 -18 -9 -32v-823q0 -74 11 -119q5 -19 44 -64q44 -50 65 -50q10 0 49 13q-9 -21 -72 -97q-75 -90 -108 -90q-28 0 -94 86q-50 65 -64 92q-8 16 -8 31 q0 18 6 49q8 38 9 50v932q9 56 36 89q-1 4 -6 7q-44 15 -122 41q-46 15 -81 15q-41 0 -83 -48v-477q14 1 26 1q4 1 51 9v-12q-28 -35 -77 -64v-809h-31v792q-62 -30 -107 -37q-5 -2 -12 -8q-6 -46 -7 -108l-4 -226v-23q0 -212 72 -212q9 0 32 11q4 -5 15 -12 q-141 -172 -188 -172q-29 0 -84 100q-51 92 -51 112q0 1 12 25t14 33q14 80 14 320v158h-118q-44 0 -122 -13q7 26 57 65q43 34 76 49q14 6 57 9q37 2 50 15v217q0 83 -41 165q-49 98 -134 134q-61 26 -91 26q-22 0 -43.5 -21t-28.5 -43q-32 -106 -32 -217v-13l10 -477v-10 q0 -90 -35 -212q-34 -118 -132 -255q-118 -164 -214 -164q-70 0 -100 82q-19 51 -19 110zM1026 870q1 -5 7 -11q33 0 112 7v441l-7 -8q-97 -111 -107 -381q0 -7 -2.5 -23.5t-2.5 -24.5z" />
<glyph unicode="N" horiz-adv-x="1392" d="M2 -15q33 60 118 121q102 73 109 81q71 77 82 271q1 13 1 30q0 51 -7 140q-5 65 -45 108.5t-104 43.5q-31 0 -79 -37q-11 11 -12 15q0 22 61 88q52 56 74 72q57 40 106 40h2v104q0 179 92 284q-71 101 -201 101q-41 0 -121 -34q-8 8 -8 13q0 35 96 111q88 70 195 70 q194 0 369 -437q43 -103 155 -371l109 -264q73 -168 129 -259q3 -1 7 2q0 7 3 77q2 46 2 80v877q0 158 -150 158q-60 0 -98 -20l-16 3q2 0 3 1q-1 5 3 16q146 143 293 143q34 0 100 -15t99 -15q42 0 93 14q33 9 22 9l17 -15q-3 -4 -18 -13.5t-123 -89.5q-58 -43 -118 -49 q-27 -3 -41 -2q-18 -48 -18 -90v-1143q52 -43 98 -43q42 0 94 64q11 -2 15 -8q4 -9 7 -10l-90 -102q-58 -64 -105 -90q-20 -11 -57 -11q-147 0 -291 341q-25 59 -66 160l-249 617q-55 122 -117 199q-4 -2 -8 -6q-11 -47 -11 -105q0 -78 9.5 -233.5t9.5 -233.5 q0 -359 -164 -586q3 -9 103 -33q46 -11 122 -11q49 0 71 7q5 1 25 10q5 1 8 1q7 0 9 -3q5 -5 -4 -14q-67 -62 -85 -77q-56 -48 -95 -66q-9 -4 -56 -4q-43 0 -126.5 22t-124.5 22q-47 0 -95 -31q-3 2 -8 5z" />
<glyph unicode="O" horiz-adv-x="1621" d="M109 762q0 368 214 586q56 57 201 166q8 6 49 22q5 -4 14 -12v-11q0 -11 -72 -43q-47 -21 -101 -109q-48 -77 -64 -141q-52 -201 -52 -346q0 -180 51 -294q67 -150 248 -275q39 -27 77 -48v314q-56 -48 -99 -51q-38 -3 -38 13q0 9 19 41q56 95 118 131v907h32v-889 q72 46 101 154q19 71 19 190q0 151 -25 267q-4 19 -32 74q-24 49 -24 72q0 33 50 102q48 65 81 83q-3 -75 197 -179q90 -47 174 -102q178 -117 243 -370q26 -101 26 -176q0 -188 -83 -353q-43 -85 -160 -196q-81 -77 -152 -125q-129 -87 -180 -110q-66 -29 -156 -29l-79 12 v-131h-32v137q-47 9 -68 18q-195 80 -358 273q-139 164 -139 428zM706 240q136 -68 252 -68q95 0 191 57q91 54 145 137q88 134 88 332q0 185 -117 367.5t-286 250.5q-22 9 -56 22q6 -46 6 -90q0 -197 -116 -445q-30 -65 -97 -187q-3 -4 -10 -13v-363z" />
<glyph unicode="P" horiz-adv-x="1110" d="M27 52l4 16q47 49 139 127q16 -2 48 4q91 42 91 382q0 92 -6 153q-19 192 -156 192q-24 0 -64 -51h-11q-8 8 -8 15q0 25 85.5 100.5t109.5 75.5q10 0 31 -7q12 8 14 70q2 71 4 87q10 87 80 159t80 85h-28q-32 0 -109 -15t-114 -15q-48 0 -64 11q-26 18 -58 88 q-48 105 -48 137q0 13 15 22q14 -3 17 -27q4 -33 6 -38q17 -34 94 -34q32 0 98 6q40 3 98 7q52 5 182 16v75h32v-73q23 1 44 1q193 0 281 -57q37 -24 77 -86t51 -108q12 -51 12 -102q0 -109 -39 -188q-73 -146 -148 -227q-91 -98 -225 -149q-20 -8 -53 -14v-510q20 1 31 1 q-17 -21 -31 -37v-188h-32v156q-16 -16 -77 -58q-83 -57 -149 -57q-45 0 -139 24q-106 27 -165 31zM261 183q28 -17 100 -34q69 -16 106 -16q54 0 90 23v528q-8 -1 -14 -1q-22 0 -40 14q16 15 54 44v735l-23 1q-86 -65 -86 -192v-575q0 -24 2 -72t2 -72q0 -192 -121 -314 q-20 -20 -70 -69zM589 765q55 42 76 65q51 14 157 54q97 47 97 244q0 244 -201 321q-55 21 -129 25v-709z" />
<glyph unicode="Q" horiz-adv-x="1621" d="M96 777q0 90 21 204q8 44 42 133q78 205 279 341q20 56 68 118q57 75 115 100q4 -2 9 -5q-16 -22 -30 -45q-11 -18 -11 -64q0 -50 65 -288l62 -229q29 -124 29 -235q0 -128 -35 -201q-23 -49 -123 -173q-4 -5 -20 -15q-8 0 -16 8q58 106 58 233q0 137 -76 397 q-90 310 -97 346q-7 1 -13 -7q-134 -174 -134 -530q0 -161 46 -273q48 -116 163 -223q112 -104 243 -157q10 -6 72 -29v1256q-91 26 -166 31v11q0 10 57 58q51 43 76 58q12 5 32 17q2 38 2 60v12h32q2 -19 2 -37q0 -19 -2 -35q167 -38 239 -71q82 -37 172 -110 q105 -85 152 -169q75 -134 97 -204q29 -90 29 -224v2q-2 0 -20 -153q-23 -193 -226 -399q-163 -166 -324 -241q-21 -10 -119 -31v-75h-32q-1 49 -1 70q-145 5 -213 39q-249 124 -370 287q-134 182 -134 442zM846 177l119 -14q157 0 274 123q110 115 133 276q16 111 16 133 q0 487 -453 705q-21 10 -89 25v-1248zM932 -9q14 39 111 87q91 44 139 44q54 0 86 -15q50 -24 149 -108q75 -64 128 -64q16 0 46 4q5 1 19 7t19 6h14q2 -4 2 -8q0 -7 -6 -11q-206 -93 -269 -93q-65 0 -187 83t-186 83q-21 0 -33 -7q-19 -12 -23 -13q-4 2 -9 5z" />
<glyph unicode="R" horiz-adv-x="1260" d="M12 6q77 103 160 140q24 7 50.5 15.5t39.5 26.5q36 48 65 152q24 86 24 183q0 35 -3 72l-3 36q-3 39 -3 53v12q0 156 -128 156q-36 0 -76 -17q-4 8 -12 18q74 98 138 137q6 4 78 31v97q0 99 60 182q33 47 137 142q-3 2 -21 2l-272 -27q-53 0 -74 11q-26 14 -47 65 q-52 128 -52 155q0 4 2 10t2 7q7 0 14 7q9 0 14 -8v-10q0 -59 57 -73q17 -4 120 -4q79 0 299 21q8 1 16 7v49h33v-47q42 2 81 2q10 -1 20 -1q49 0 95 -1q127 -4 211 -111q77 -100 77 -231q0 -230 -273 -370q-7 -3 -28 -15q23 -13 55 -37q44 -51 72 -133q6 -18 38 -135 q47 -173 73 -243q66 -180 130 -204q11 -4 35 -4t52 17h15q2 -3 2 -7q0 -17 -22 -29q-8 -4 -75 -37q-9 -5 -78 -46q-35 -21 -64 -21q-101 0 -178 240q-11 35 -31 102q-22 79 -68 237q-43 140 -123 184h-15v-578h-34v584q-7 0 -21 5v11l21 21v645l-45 -2q7 -23 6 -32 q-66 -84 -66 -122v-779q0 -147 -160 -311q-8 -9 -38 -47v-9q11 -7 19 -8q19 -3 120 -27q77 -18 114 -18q42 0 68 14q19 15 55 37q4 -4 11 -4v-16q-49 -39 -156 -127q-62 -51 -119 -51q-61 0 -141 22q-35 10 -126 28q-38 6 -127 6zM627 1453h4v-621l15 10q29 21 96 63 q36 4 100 27q112 72 112 223q0 67 -23 143q-27 90 -81 125q-49 31 -147 31h-32z" />
<glyph unicode="S" horiz-adv-x="1136" d="M-32 70q0 25 29 55q131 137 269 137q132 0 255 -77v229q0 39 -34.5 76.5t-73 42.5t-31.5 5q-24 0 -56 -19.5t-39 -41.5h-12q-4 11 -4 12q0 8 59 110q47 82 130 82q-10 0 60 -7v53q0 14 1 32v19q-18 12 -45 24q-38 17 -113 51q-67 31 -132 78q-40 29 -73.5 88t-36.5 108 q-2 24 5 43q6 13 11 27q24 97 155 217q69 63 228 181q18 12 65 42h12l5 -10q1 -24 51 -63t75 -39q10 7 48 48q127 137 247 137q71 0 71 -49q0 -46 -39 -91q-172 -200 -340 -217q-11 -1 -40 -3q-39 -36 -66 -170q-23 -114 -23 -194q42 -21 138 -68l133 -66q207 -118 207 -309 q0 -128 -135 -279q-83 -93 -264 -194q-49 -21 -114 -62v-174h-29v164q-54 -14 -62 -14q-14 0 -18 4q-55 58 -157 106q-105 49 -182 49q-63 0 -77 -27q-24 -45 -22 -70q-5 -15 -14 -15q-22 0 -22 39zM281 1256q0 -163 269 -258q28 223 88 356q-37 11 -106 39q-80 42 -116 79 q-135 -118 -135 -216zM552 161q4 -16 31.5 -39t43.5 -23q7 2 41 13q107 33 169 140q53 92 53 196q0 109 -105 192q-65 51 -232 127zM768 1520q0 -5 7 -12q29 -9 69 -9q52 0 86 13q106 41 106 103q0 49 -64 49q-51 0 -115 -46q-14 -10 -47 -43q-42 -42 -42 -55z" />
<glyph unicode="T" horiz-adv-x="1434" d="M-55 1230q0 27 23 69q21 39 44 58q167 141 233 179q131 78 280 78q42 0 126.5 -9.5t126.5 -9.5q12 12 53 48q18 15 51 39q19 0 19 -12q0 -11 -12 -22q-16 -16 -18 -19q-11 -19 -19 -43l109 -18v99h31v-103q279 -41 426 -41q77 0 123 30q9 11 27 30q20 16 45 26q5 1 17 5 q12 -5 12 -19t-12 -25q-5 -4 -131 -83q-135 -84 -282 -84q-95 0 -225 17v-1214q94 -24 188 -24q56 0 161 54q4 -2 9 -5q-115 -134 -163 -168q-62 -44 -157 -44l-38 7v-151h-31v156q-79 16 -144 37q-181 59 -290 153q-155 134 -199 265q-60 181 -60 327q0 193 48 327 q19 54 158 199q60 63 108 91q16 0 16 -10t-33 -46l-38 -41q-17 -24 -41 -71q-51 -172 -51 -364q0 -161 36 -264q41 -118 146 -219q148 -142 344 -200v1210q-55 8 -108 18q-4 -19 -3 -31l20 -383q1 -14 1 -29q0 -64 -14 -152q-16 -101 -33 -141q-5 -12 -103 -140 q-45 -59 -104 -116q-2 0 -7.5 2t-7.5 2v17q28 35 63 83q46 88 46 285q0 27 -1 55l-13 457v10q0 48 9 95q-167 18 -270 18q-183 0 -288 -49q-128 -60 -141 -178q-1 -10 4 -58q-8 -11 -24 -11q-42 0 -42 51z" />
<glyph unicode="U" horiz-adv-x="1888" d="M-4 816q0 181 64 317q87 185 200 282q204 175 396 175q344 0 344 -262q0 -137 -44.5 -408t-44.5 -408q0 -115 8 -148q47 -192 212 -192q117 0 194 105q71 96 71 216v877q0 29 71 97q-32 1 -96 14.5t-96 13.5q-57 0 -120 -40h-12q0 4 1 9q77 72 126 100q18 12 68 38 q40 19 104 19q25 0 75 -10.5t75 -10.5h54v75h33v-69q8 -3 16 -3q36 0 109 30l9 -21q-21 -15 -134 -91v-1319h15q27 0 73 30h12q-10 -34 -55 -98q-15 -21 -45 -62v-186l-33 2v133l-5 1q-21 -20 -53 -20q-70 0 -125 125q-29 65 -43 131q-4 20 -15 69q-10 0 -12 -1 q-84 -131 -179 -218q-116 -106 -211 -106q-96 0 -143 52q-96 106 -96 319q0 41 4 123t4 123q0 68 -23 103q-14 21 -53.5 36.5t-68.5 15.5q-44 0 -96 -56q-4 3 -7 2q7 16 21 43q101 147 219 147q16 0 56 -5q28 55 28 254q0 147 -83.5 226t-230.5 79q-136 0 -255 -87 q-115 -84 -166 -214q-32 -81 -32 -178q0 -128 62 -186q41 -39 74 -39q15 0 43 14q5 -5 5 -12q0 -13 -34 -83.5t-46 -87.5q-18 -25 -48 -25q-49 0 -89 53q-35 46 -43.5 100t-8.5 97zM1549 1015q0 -204 2 -457q1 -88 14 -161q17 -95 65 -160q4 -5 16 -15v1279l-5 -3 q-90 -12 -90 -123q-2 -156 -2 -360z" />
<glyph unicode="V" horiz-adv-x="1355" d="M-75 1468q3 7 24 29q107 112 221 112q52 0 153 -23.5t151 -23.5q56 0 97 21v106h31v-86q13 10 39 27q4 -2 9 -5q-20 -31 -48 -58v-1288q66 -84 104 -101q18 -8 49 -8q66 0 132 128q38 74 56 140q64 233 64 408v131q0 250 -56 402q-41 111 -131 111q-21 0 -67 -37l-8 8v11 l102 100q61 58 107 58q42 0 137 -46t147 -46q71 0 142 54q4 -2 11 -7q1 -11 -8 -19q-36 -33 -110 -97q-71 -60 -121 -72q-15 -4 -16 -7v-24l9 -38q3 -13 4 -23q8 -69 8 -186q0 -253 -49 -471q-30 -135 -68 -211q-29 -58 -105 -153q-78 -99 -126 -135q-17 -20 -64 -69 q-86 -83 -138 -83q-29 0 -41 8q-54 35 -120 122l-78 101q-41 57 -56 96q-7 3 -25 14q0 86 -6 257q-11 184 -121 184q-29 0 -86 -34q-4 11 9 30q121 178 190 181q9 7 9 16v234q0 168 79 213h-33q-51 0 -161.5 30.5t-146.5 30.5q-20 0 -48 -10q-32 -11 -42 -14q-5 5 -5 12z M435 682q0 -178 82 -286q10 -13 54 -75v1218q-83 -69 -93 -81q-43 -52 -43 -133v-643z" />
<glyph unicode="W" horiz-adv-x="1784" d="M-106 1464q0 20 17 36q82 76 108 93q47 30 106 30q53 0 152.5 -35.5t152.5 -35.5q12 0 84 6l8 -8q-22 -28 -54 -82q-42 -113 -42 -197v-745q0 -94 19 -137q15 -34 84 -118q89 -108 147 -108q24 0 57 18q98 53 98 165v480l-166 4h-12q-67 0 -108 -20q-6 4 -6 10 q0 34 81 80q65 37 87 41q34 6 46 6q38 0 78 2v359q0 64 -39 136l-39 72q0 23 58 64q44 31 62 38q5 2 18 2q30 0 44 -19q50 -68 97 -129q-18 -35 -37 -153v-372l56 1q13 0 66 4v620h37v-616q9 1 26 3q14 6 49 14v-12q-23 -24 -75 -68v-653q0 -12 51 -43q48 -28 66 -32.5 t31 -4.5q94 0 140 166q25 90 25 191q0 106 -45.5 311t-45.5 307q0 286 300 507q26 19 55 19q66 0 66 -68q0 -39 -11 -57q-41 -51 -119 -153q-5 -1 -10 -1q-4 0 -6 1q17 40 17 55q0 22 -23 44t-45 22q-47 0 -69 -95q-13 -56 -13 -109q0 -97 42.5 -291t42.5 -291 q0 -147 -32 -230q-66 -170 -146 -269q-92 -113 -190 -197q-34 -11 -81 -37v-100h-37v116q-63 27 -136 100q-67 67 -103 132q-9 16 -17 19q-47 -52 -141 -153q-100 -105 -169 -105q-73 0 -171 145q-72 106 -94 169q-5 14 -22 13q-8 14 -8 23q1 7 4 29l5 31q3 24 3 134 q0 55 -1 131q-1 134 -106 134q-11 0 -43.5 -9.5t-44.5 -6.5q64 90 88 116q55 61 97 61q5 0 9 -1v161q0 129 97 284q4 10 2 14q-35 -23 -76 -23q-24 0 -73 15q-191 59 -235 59q-41 0 -74 -16h-11q-3 2 -3 7zM995 502q0 -124 121 -226v602l-15 -7q-36 -12 -106 -41v-328z" />
<glyph unicode="X" horiz-adv-x="1453" d="M-27 98q0 100 120 201h12q0 -7 -3 -19.5t-3 -19.5q0 -83 133 -83q94 0 168 76q206 212 206 463q0 21 -8 50q-20 13 -87 13q-60 0 -182 -18q-12 -2 -48 -17.5t-39 -15.5q-17 0 -27 11q0 17 21 27q12 6 37 17q62 31 126 61q20 10 183 67v22q0 25 -55 191q-118 356 -360 356 q-37 0 -79 -21l-14 4q2 0 3 1q-1 5 3 15l112 110q57 47 116 47q119 0 192 -66q97 -87 152 -235q26 -79 79 -236q3 2 7 6q105 189 252 325q178 165 332 165q46 0 81 -19q43 -23 43 -66q0 -18 -29 -51q-26 -29 -46 -42q-16 -10 -35 -37q-14 -19 -29 -40l-5 5q-2 41 -42 67 q-35 23 -79 23q-134 0 -243 -130q-96 -117 -117 -259q-11 -76 -11 -102q0 -22 13 -36h162l113 10q8 -8 8 -15q-10 -20 -54 -113q-31 -66 -70 -127l-22 5l18 26q12 18 12 32q0 39 -77 39h-90l-10 -9v-10q0 -8 33 -108q99 -299 275 -429q81 -60 143 -60q45 0 112 34h12 q2 -9 -12 -22q-64 -60 -128 -112q-73 -59 -145 -59q-90 0 -195 110q-168 176 -240 441q-5 0 -7 -3q-17 -38 -67 -126q-115 -182 -220 -283q-131 -126 -261 -126q-140 0 -140 95z" />
<glyph unicode="Y" horiz-adv-x="1702" d="M8 942q0 99 28 177q59 164 240 322q194 169 356 169q147 0 225 -111q69 -97 69 -250q0 -134 -79 -495q-47 -215 -47 -290q0 -94 46 -169q54 -87 142 -87q95 0 189 102q41 44 71 132q19 55 19 142v548q0 126 198 274q-76 7 -146 10h-9q-58 0 -134 -36l-7 13 q152 102 171 112q58 30 141 30q16 -1 95 -6l97 -7q99 0 125 27q50 51 66 51h25v-26q0 -12 -58 -51t-76 -45q-60 -18 -179 -57q-103 -35 -128 -105.5t-25 -193.5v-830q0 -167 -50 -321q-38 -116 -164 -241q-111 -109 -246 -184q-63 -35 -181 -35q-81 0 -240 92 q-184 106 -184 211q0 37 60 125q57 83 88 103l22 -5q-2 -2 -27 -25q-14 -13 -14 -55q0 -88 109 -174q172 -136 380 -136q121 0 179 77q31 41 78 187q33 102 33 326q0 79 -6 115q1 0 -39 -48q-114 -134 -179 -187q-93 -75 -185 -75q-114 0 -167 120q-36 81 -36 184 q0 64 25.5 189.5t25.5 186.5q0 113 -151 113q-20 0 -38 -3q-6 0 -15 4q34 57 90 99q65 49 123 49q4 -2 42 -11q11 44 11 126q0 183 -63 260q-83 101 -237 101q-139 0 -233 -97t-94 -236q0 -62 15 -103q8 -22 38.5 -46.5t52.5 -24.5q3 0 10.5 1.5t12.5 1.5v-15 q0 -19 -95 -139q-9 -12 -40 -12q-55 0 -92 50q-34 45 -34 102z" />
<glyph unicode="Z" horiz-adv-x="1352" d="M-10 27v15q0 24 132 121l168 123q144 127 276 259q43 43 136 153q58 68 204 239q106 124 261 340q13 6 39 19q7 0 15 -8q-4 -13 -18 -39q-87 -111 -252 -334h133q41 0 101 14q33 8 53 13t27 7.5t1 2.5q13 0 23 -11v-15q-75 -33 -116 -67q-120 -97 -278 -97 q-7 0 -19.5 1.5t-19.5 1.5q-3 -1 -40 -5q-37 -41 -134 -147q-115 -124 -393 -372q-7 -6 -19 -17q43 -1 113 -8l284 -75q168 -43 289 -43q206 0 297 92l29 -4v-12q-5 -6 -17 -17l-233 -174q-84 -62 -202 -62q-128 0 -375 73.5t-322 73.5q-59 0 -143 -41zM44 1217q0 83 96 174 q241 228 500 228q78 0 232 -37t236 -37q64 0 159 43q6 -4 9 -4v-22q0 -49 -162 -272q-120 -165 -200 -259q-47 -55 -313 -353q-44 -45 -200 -203q-23 -27 -86 -93q-126 -124 -140 -124h-18q1 -1 4 13l250 252q142 145 212 247q-4 1 -9 4q-103 15 -182 15q-108 0 -205 -44 q5 12 20 32q185 142 299 142q9 0 28 3t28 3q-8 0 156 -12q30 44 70 100q45 52 69 91q171 279 171 331q0 15 -5 15q-125 -42 -206 -42q-61 0 -236 48q-186 51 -226 51q-94 0 -150 -73q-34 -45 -34 -77q0 -29 20 -53.5t48 -24.5q5 0 13.5 1t13.5 1q-26 -40 -84 -88 q-68 -57 -106 -57q-72 0 -72 81z" />
<glyph unicode="[" d="M190 -157v1942h347v-41h-211v-1859h215v-42h-351z" />
<glyph unicode="\" horiz-adv-x="1000" d="M-122 1850l104 -72q44 -76 162 -271q431 -696 914 -1418q36 -54 140 -197l-117 56q-41 59 -88 132l-897 1397q-69 108 -218 373z" />
<glyph unicode="]" d="M42 1744v41h351v-1942h-347v42h212v1859h-216z" />
<glyph unicode="^" horiz-adv-x="909" d="M97 587l298 645h117l298 -645h-151l-208 457l-203 -457h-151z" />
<glyph unicode="_" horiz-adv-x="1024" d="M0 -154h1024v-102h-1024v102z" />
<glyph unicode="`" horiz-adv-x="521" d="M14 1799v12q5 11 19 11q10 0 95 -40q77 -37 100 -50q58 -33 91 -57q90 -224 182 -355q-3 -3 -4 -8h-18q-63 0 -121 84l-45 66q-111 148 -211 259q-31 25 -88 78z" />
<glyph unicode="a" horiz-adv-x="882" d="M86 173q44 65 44 125v293q0 15 -12 46q2 4 10 12q34 1 102 15q38 15 130 35q60 13 179 45v92q-22 32 -118 100q-71 50 -142 73q-24 -17 -40 -31q-31 -26 -31 -95q0 -80 -30 -80q-47 0 -47 57q0 67 72 123q48 37 222 179l237 -153q35 -22 91 -36l1 -11q-43 -66 -43 -100 v-488q0 -31 121 -198q12 -16 44 -15l5 -12l-175 -136q-31 29 -85 90q-21 29 -64 113q-23 -15 -70 -55q-44 -48 -102 -97q-11 -9 -111 -80l-12 10q3 51 -62 111q-59 53 -114 68zM298 282l137 -133l104 88v474l-208 -55q-17 -61 -17 -137v-16v-39q0 -118 -16 -182z" />
<glyph unicode="b" horiz-adv-x="905" d="M1 1546q7 18 63 24q108 12 224 60q51 23 153 68q115 50 162 50q40 0 71 -25.5t31 -64.5q0 -28 -44.5 -72.5t-72.5 -44.5h-25q10 49 10 66q0 66 -80 66q-68 0 -111.5 -46t-43.5 -115v-550l9 -6l202 190q54 -36 195 -126l35 -21q0 -24 -2 -46q-9 -101 -9 -205v-181 q0 -110 29 -224q-50 -65 -99 -101q-49 -28 -143 -84q-17 -7 -47 -30q-44 -51 -96 -90q-25 -18 -76 -55q-23 31 -68 85q-7 8 -44 72q-21 36 -48 36q-16 0 -34 -6q-6 6 -4 15q11 32 15 55q15 87 15 126v808q0 67 -13 181q-12 106 -15 115q-20 63 -86 65q-24 1 -45 2zM338 423 q0 -26 32 -106q15 -38 52 -91q46 -66 71 -66q39 0 67 40q25 34 30 75q3 25 3 114v385q0 47 -12 92l-70 42q-7 4 -52 40q-34 27 -39 28q-10 0 -34.5 -26.5t-26.5 -36.5q-21 -132 -21 -185v-305z" />
<glyph unicode="c" horiz-adv-x="722" d="M82 171v25q0 2 16.5 30t18.5 38q6 29 6 69v499q0 22 -22 74q40 39 84 68q75 51 246 171q17 12 31 12q26 0 110 -63q78 -59 105 -127q-39 -66 -87 -162q-10 -19 -22 -106h-12q-17 17 -17 44q0 12 4 37t4 37q0 23 -10 39q-31 51 -101 107q-77 62 -125 62h-2q-9 -7 -22 -20 q15 -262 23 -431q1 -22 1 -43q0 -118 -28 -226q45 -32 114 -85q36 -27 91 -61q65 57 181 141h15v-12q-33 -29 -95.5 -85t-82.5 -96q-5 -9 -74.5 -62.5t-77.5 -53.5q-6 0 -74 62q-129 118 -195 118h-3z" />
<glyph unicode="d" horiz-adv-x="835" d="M57 918q0 14 69 67q34 27 126 97q34 20 102 61q-8 16 -27 60q-28 73 -28 135q0 204 94 333q12 16 43 57q18 25 60.5 45.5t74.5 20.5q85 0 85 -68q0 -19 -8 -39q-2 -5 -17.5 -18.5t-20.5 -13.5h-25q0 6 1.5 17t1.5 17q0 41 -46 41q-55 0 -82 -61q-21 -47 -21 -109 q0 -10 2 -28q3 -21 3 -28q9 -165 144 -309q26 -28 71 -57q103 -67 103 -82q0 6 -13 -36q-21 -68 -21 -109v-483q0 -86 2 -86v1q-6 -31 -54 -69q-25 -18 -75 -56q-36 -28 -129 -102q-41 -36 -147 -128h-12q-18 28 -49 65l-59 59q-13 15 -41 44q-35 36 -50 36q-14 0 -25 -3 q-8 8 -8 13q0 4 9.5 24.5t10.5 25.5q21 79 21 139v323q0 184 -30 184h-2q-4 -1 -14 4t-14 5q-5 4 -5 11zM273 352q23 -31 99 -108q87 -89 102 -89q11 0 34 23t28 36q8 23 8 126v512q0 73 -1 83q-2 18 -58 60q-13 10 -63 54q-43 65 -60 65q-16 0 -40 -23.5t-26 -39.5v-541 q0 -88 -23 -158z" />
<glyph unicode="e" horiz-adv-x="695" d="M77 177v14q0 3 12 34.5t14 38.5q20 83 20 149v466q0 19 -31 62q17 6 91 40q32 15 126 60l105 75q95 67 124 67q44 0 58 -38q49 -131 49 -188q0 -123 -188 -302q-19 -20 -56 -59q-47 -49 -58 -49h-10q-11 10 -11 22q0 22 58 54q10 6 29 29q62 77 62 190q0 30 -1 40 q-3 29 -28 87q-34 80 -71 80q-18 0 -38 -21.5t-24 -40.5q-7 -32 -7 -40v-391q0 -8 -6 -130q0 -9 -6 -28t-6 -29q0 -42 21 -74q29 -45 120 -114q46 -35 67 -35q44 0 70 55q13 37 26 73q9 15 28 15q10 0 21 -11.5t11 -21.5q0 -43 -96 -116q-30 -23 -112 -80q-14 -10 -110 -81 q-56 46 -165 148q-15 24 -46 63q-12 -5 -42 -13z" />
<glyph unicode="f" horiz-adv-x="579" d="M-179 -440q0 26 22.5 55.5t47.5 35.5q22 -34 34 -43q17 -12 54 -12q57 0 111 56q50 53 54 113l24 356v858l-63 -2h-6q-39 0 -63 12q3 24 56 71l85 76q1 5 1 20q0 83 -18 183q-3 16 -19.5 41l-16.5 25v17q99 42 116 50q68 32 109 64q103 80 221 159q53 -40 115 -85 q81 -48 146 -48q51 0 141 48l8 -7q-16 -17 -31 -26q-52 -31 -84 -56q-46 -35 -92 -66q-68 -35 -127 -35q-62 0 -130 45q-4 3 -51 44q-30 26 -50 26q-17 0 -41.5 -19t-25.5 -35q-6 -87 -10 -340q19 -6 67 -6q77 0 180 57l11 -13q-1 -1 -6.5 -6t-9.5 -9q-66 -66 -178 -165 q-24 -2 -64 -11v-1019q0 -107 51 -139q1 -14 -14 -22q-41 -16 -78 -36q-14 -7 -58 -41q-79 -76 -172 -137q-120 -79 -191 -79q-55 0 -55 45z" />
<glyph unicode="g" horiz-adv-x="886" d="M-1 -344q0 55 94 176q9 25 39 65v-79q0 -92 117 -141q83 -35 158 -35q8 0 23 3t23 3q108 1 163 92q46 75 46 190q0 57 -22 144q-20 80 -38 110q-3 0 -6 3q-79 -60 -121 -100q-89 -84 -139 -84q-48 0 -99 42q-30 25 -91 76q-36 5 -34 5q-4 4 -4 13q0 -12 2 -12q4 0 16 63 q19 90 19 118v156l-23 417q-2 45 63 94q30 20 90 61q184 130 209 130q15 0 35 -15q37 -28 119 -57q45 -16 65 -16q31 0 59 13h13v-18q0 -2 -10.5 -18t-12.5 -23q-1 -21 -6 -122l-15 -290q0 -100 44 -280.5t44 -266.5q0 -159 -76 -262q-32 -31 -89 -90q-184 -191 -289 -213 q-57 -12 -116 -12q-87 0 -154 30q-96 43 -96 130zM315 967q4 -20 11 -129l10 -381v-6q0 -32 -10 -106l-10 -75v-22q5 2 11 2q18 0 75 -45.5t78 -45.5q26 0 77 42q38 31 38 38q-2 14 -12 59q-15 67 -18 88q-10 69 -11 69v-1v272q0 104 23 188q-127 7 -246 96q-16 -11 -16 -43 z" />
<glyph unicode="h" horiz-adv-x="977" d="M90 1475v16q45 7 113 25l245 128q159 82 242 82q53 0 53 -53q0 -34 -23 -74q-24 -43 -54 -53q-3 0 -9 1.5t-9 1.5q-4 57 -11 71q-11 21 -48 21q-51 0 -102.5 -33t-77 -80t-36.5 -154q-22 -214 -22 -312q0 -76 10 -96q14 13 109 102q89 83 111 83q5 0 13 -5 q58 -64 165 -161q13 -4 38 -15q-7 -45 -17 -161l-7 -242q-1 -35 -1 -66q0 -126 16 -202q8 -37 61 -93q56 -59 94 -59q7 0 50 18l18 -11q-5 -6 -20 -22q-38 -42 -92 -83q-68 -51 -104 -51q-72 0 -173 169q-2 4 -16 14q-10 8 -10 17q0 11 4 56l3 55q0 31 3.5 92t3.5 92 q0 90 -4 329l-33 37q-105 118 -133 118q-12 0 -40.5 -33.5t-30.5 -46.5q-10 -54 -11 -71l-14 -310q-1 -23 -1 -45q0 -89 16 -165q8 -36 50 -97.5t73 -78.5q7 -4 28 -4q3 -5 7 -16q-10 -12 -80 -70q-79 -66 -98 -66q-42 0 -102 103q-49 84 -57 117q-13 -9 -35 -21 q-4 5 -12 16q8 10 17 31q21 122 21 164q0 85 3 231l14 680q1 51 -21 136q-9 14 -36 25q-33 13 -41 19z" />
<glyph unicode="i" horiz-adv-x="510" d="M62 1023v15q22 13 62 42q94 82 112 82t61 -60q17 -25 53 -76q10 0 32 -4q0 -6 -6 -18l-9 -19q-1 -2 -16 -41q-7 -18 -7 -29v-620q0 -29 18 -60q10 -17 37 -41q33 -29 53 -29q15 0 34 7q3 -5 8 -13q-34 -41 -85 -86q-74 -65 -114 -65q-55 0 -103 83q-52 90 -52 101 q31 125 31 142v496q0 30 -22 82q-19 45 -33 60q-19 17 -54 51zM123 1468q0 48 45 107q33 44 65 51q7 -58 34 -82q71 -63 159 -63q42 0 90 23q2 -2 5 -6q-130 -152 -238 -152q-60 0 -106 30q-54 35 -54 92z" />
<glyph unicode="j" horiz-adv-x="522" d="M-128 -261q0 82 69 156q9 -1 16 -28q12 -44 67.5 -69t85.5 -25q100 0 140 46q37 42 37 143q0 84 -57.5 222t-57.5 146v551q0 66 -58 127h-9q-10 -7 -31 -20h-12v16q21 26 94 97q86 84 103 84q10 0 46 -54l39 -58q10 -9 24 -8q1 -24 -10 -68q-11 -47 -11 -69v-418 q0 -64 8 -85q19 -46 54 -139q17 -47 17 -123q0 -254 -216 -429q-116 -94 -214 -94q-124 0 -124 99zM103 1363q0 47 54 123q48 68 68 73q7 -56 58 -94.5t109 -38.5q16 0 63 28q4 -2 9 -5q-35 -63 -107.5 -107.5t-142.5 -44.5q-111 0 -111 66z" />
<glyph unicode="k" horiz-adv-x="923" d="M62 1500v12q4 3 15 10q54 9 160 43q291 142 385 142q73 0 73 -46q0 -23 -28 -72q-30 -52 -49 -52l-24 47q-24 48 -66 48q-49 0 -99 -35.5t-60 -82.5q-31 -141 -31 -244v-361q27 14 165 142q121 112 163 112q13 0 40 -12q15 -15 22 -34q52 -142 52 -176q0 -71 -70 -145 q-24 -26 -148 -127l9 -6q37 -3 47 -6q34 -9 52 -36q15 -22 37 -123q12 -64 40 -191q45 -175 113 -175q7 4 59 27v-16q0 -8 -75 -74q-71 -63 -95 -79q-16 -11 -34 -11q-41 0 -77 62q-28 49 -40 109q-7 36 -34 150q-13 41 -44 143q-18 62 -76 96q-27 16 -51 23q-8 24 -8 14 q0 18 16 27q116 62 146 86q73 57 73 122q0 36 -26 108q-33 91 -74 91q-16 0 -64 -37q-86 -66 -105 -162q-12 -168 -13 -168v1v-391q66 -121 115 -121q4 0 22.5 9.5t22.5 11t7 1.5q3 -1 3 -5v-13q-170 -167 -199 -167q-59 0 -160 201q-5 9 -29 17v14q0 -20 14 20q10 32 19 66 q21 83 21 177v840q0 73 -3 89q-9 45 -50 78q-19 8 -59 29z" />
<glyph unicode="l" horiz-adv-x="546" d="M69 1538q8 8 18 10q48 5 85 13q46 10 227 110q107 59 146 59q22 0 45 -17t23 -39q0 -41 -72 -94h-16q-26 62 -61 62q-106 0 -106 -203v-1122q0 -45 24 -81q74 -112 112 -112q4 1 33 7q2 -3 5 -8q-25 -32 -97.5 -92t-111.5 -84q-15 4 -51 56q-47 67 -64 84l-70 58 q-8 7 -8 17l23 45q22 44 22 65v1184q0 32 -34 53q-29 18 -64 18q-8 6 -8 11z" />
<glyph unicode="m" horiz-adv-x="1337" d="M49 980q83 99 210 172q39 -43 88 -175q3 -3 6 -17l227 196q127 -84 167 -188q2 -4 8 -10q38 36 115 106q104 95 123 95q14 0 39 -24q14 -15 44 -43q23 -19 81 -72q8 5 17 5q5 0 11 -2q-9 -46 -13 -97q-9 -105 -10 -180q-1 -80 -1 -180t1 -218q0 -49 68 -138 q50 -65 76 -65q7 0 45 22l6 -13q-33 -36 -90 -84q-81 -68 -114 -68q-31 0 -63 38q-22 33 -45 65q-39 51 -84 86q12 40 19 72q20 91 20 195v257q0 130 -13 163q-8 20 -27 47q-86 74 -106 74q-26 0 -56 -46q-25 -37 -34 -71q-18 -65 -18 -119v-415q0 -35 8 -102q9 -34 95 -102 q-55 -80 -169 -148q-15 5 -24 17q-102 137 -107 148q0 4 6 15.5t7 15.5q22 109 22 153v414q0 72 -32 122q-9 14 -52 58q-51 52 -62 52q-12 0 -44.5 -41t-37.5 -58q-18 -62 -18 -102v-371q0 -100 11 -153q6 -31 30 -68q27 -44 52 -44h1q5 -3 5 -10q0 -14 -71 -79.5t-87 -65.5 q-22 0 -107 147q-9 2 -28 10q6 17 15 52q22 183 22 221v345q0 56 -24 124q-30 84 -74 84q5 0 -29 -10q-2 3 -5 8z" />
<glyph unicode="n" horiz-adv-x="930" d="M1 1008q6 7 21 23q63 55 116 107q33 32 41 32q30 0 88 -85q49 -72 59 -103q9 -13 17 -35q42 40 127 120q91 86 119 86q25 0 91 -77q23 -27 69 -83q14 7 37 17v-663q0 -65 50 -126q45 -54 78 -54q-9 0 35 6v-12q0 -25 -170 -153q-11 -8 -23 -8q-42 0 -83 96l-3 7 q-36 85 -84 88v21q0 -12 29 46q6 12 6 40v459q0 35 -10 62q-20 55 -56 95q-66 74 -111 74q-26 0 -65 -58q-33 -49 -35 -64v-562q0 -52 42 -108q42 -54 87 -54q5 0 10 1q0 -5 -4 -16q-31 -26 -92 -77q-69 -57 -79 -57q-17 0 -32 18q-6 7 -69 112q-26 43 -56 65q-1 4 -1 11 q0 6 6 27.5t7 27.5q11 65 12 65v-1v498q0 44 -46 116q-49 76 -88 76q-8 0 -28 -15z" />
<glyph unicode="o" horiz-adv-x="765" d="M87 166q8 12 23 67q12 71 12 157v500q0 9 -6 32q-3 13 3 23q20 30 71 67q26 18 78 56q38 30 126 107l13 5q13 0 20 -9q18 -24 92 -65t102 -41h16q26 -1 20 -1q12 -7 12 -18q0 26 -5.5 -32.5t-5.5 -76.5v-565q0 -10 20 -41q-51 -62 -170 -176q-184 -176 -219 -176 q-55 0 -171 174h-27q-4 5 -4 13zM277 372q0 -116 94 -191q50 -40 63 -40q65 0 65 139v628q-102 38 -222 126v-662z" />
<glyph unicode="p" horiz-adv-x="889" d="M-284 -503q0 30 31.5 70t61.5 51q4 -1 11 -5q12 -63 103 -63q168 0 223 166q29 87 29 278v84q0 50 -34 50q-74 0 -161 -78h-12q-2 11 15 27q120 111 191 159q8 91 8 95v415q0 124 -89 247q-3 4 -15 10q-6 -3 -27 -17q-5 3 -8 3v11q0 5 23.5 27t71.5 67q67 62 78 62 q35 0 71 -90q16 -39 50 -116q-4 0 19 9q197 203 233 203l21 -4q44 -50 94 -100q25 -23 50 -47q31 -31 31 -56q-21 -134 -21 -223v-296q0 -45 17 -114q0 -35 -14 -44q-37 -24 -48 -35q-41 -33 -136 -114q-24 -24 -73 -71q-41 -39 -54 -39q-8 0 -112 49l-10 -9v-139 q0 -24 15.5 -61t33.5 -48v-12q-74 -50 -208 -164q-120 -102 -179 -137q-96 -57 -188 -57t-92 56zM341 255q51 -3 119.5 -31.5t103.5 -62.5l15 5l8 7q17 78 17 198v450q0 26 -9 35l-135 140q-43 -17 -81 -81t-38 -112v-548z" />
<glyph unicode="q" horiz-adv-x="861" d="M98 139v20q0 4 4 9.5t5 7.5q18 73 18 143v449q0 32 -15 119q-12 70 -12 51q0 16 15 21h4q39 0 104 33q16 8 126 95q97 77 115 77q9 0 111 -47.5t142 -47.5q35 3 44 2l9 -7q-34 -28 -38 -52q-15 -86 -15 -111v-1100q0 -86 53 -137t141 -51q59 0 90 28q24 21 52 81h19 q21 -20 21 -49q0 -101 -129 -101q-79 0 -224 53q-159 58 -228 66q-4 4 -4 12q0 3 15.5 36.5t17.5 42.5q11 46 11 99v247q0 -7 -7 20q-3 3 -8 3q-10 0 -109 -80t-124 -80q-42 0 -105 50q-57 44 -83 87l-8 3q-8 3 -8 8zM292 237q90 -97 154 -97q22 0 36 13q20 18 57 29 q8 6 8 21v433q0 207 14 244q7 18 39 41q4 3 4 12q-30 -10 -37 -10q-57 0 -160 51q-91 44 -91 50q0 1 1 1h-25v-788z" />
<glyph unicode="r" horiz-adv-x="703" d="M20 1010l2 -1q5 13 24 28q164 131 186 131q29 0 62 -86q10 -45 37 -111l256 197h19q0 -5 6 -15v-11q0 -39 18 -84q25 -60 63 -60q5 0 16 1.5t16 1.5q4 -8 4 -10q0 -25 -39 -63t-64 -41q-5 -1 -23 -4.5t-25 -3.5q-79 0 -154 126q-24 -7 -48.5 -39t-29.5 -58 q-11 -62 -11 -142v-426q0 -78 12 -102q15 -30 86 -93q15 -3 41 -12q0 -8 -4 -12q-33 -29 -83 -71q-66 -55 -92 -55q-38 0 -95.5 78.5t-78.5 81.5q8 16 25 56q22 55 22 89v461q0 49 -18 119q-8 31 -30 72q-32 60 -64 60q-36 0 -36 -2z" />
<glyph unicode="s" horiz-adv-x="819" d="M45 335v12q119 124 166 124q65 0 118 -87l78 -163q42 -87 85 -87q40 0 48 36q6 15 17 54q15 67 15 158q0 38 -13 114q-15 84 -29 105q-54 77 -69 77q-3 0 -77.5 -57.5t-107.5 -57.5q-50 0 -101 85q-31 52 -52 113q-10 30 -10 56q0 53 28 102q4 7 64 59q42 38 149 128 q83 69 104 69q4 0 78 -39t124 -39q39 0 104 24l8 -2q-128 -104 -148 -117q-63 -41 -127 -41q-47 0 -113 39t-73 39q-42 0 -42 -72q0 -35 42.5 -126t68.5 -108q33 -21 61 -21q22 0 29 4q106 59 143 87q4 1 18 1q29 0 53 -48q51 -102 51 -227q0 -256 -100 -314q-11 -9 -30 -24 q-19 -19 -58 -56q-16 -10 -54 -39q-123 -105 -156 -105q-28 0 -50 28q-13 16 -27 48q-20 48 -62 143q-64 132 -120 132q-11 0 -33 -7z" />
<glyph unicode="t" horiz-adv-x="549" d="M-10 1058v10q4 6 38 50q41 52 58 86q61 16 143 69q62 41 126 93h12q3 -19 3 -62q0 -34 -2 -82q4 -2 9 -5q16 0 47 -3.5t47 -3.5q17 0 83 6q4 -4 4 -11q0 -13 -61 -68.5t-79 -61.5q-20 -2 -60 -10q0 -104 -5 -331l-6 -326v-8q0 -105 25 -140q102 -137 150 -137h4 q4 -2 12 -7q0 -3 -2 -8q-30 -26 -92 -79.5t-92 -53.5q-25 0 -38 11q-81 70 -128 167q-3 4 -14 9q-16 -11 -35 -17q-4 11 -4 12q0 -12 2 -12q5 0 21 70q23 100 23 122v694q0 32 -36 32l-126 -13q-20 0 -27 8z" />
<glyph unicode="u" horiz-adv-x="1017" d="M88 1014q0 12 67 67q93 76 110 76q8 -3 30 -20q53 -41 63 -84q2 -8 2 -74v-674q0 -21 41 -63q93 -95 139 -95q47 0 61 33q30 70 30 173v578q0 41 -77 81v18q7 10 78 70q76 64 90 64q46 0 128 -134q-41 -37 -41 -92v-552q0 -15 7 -63q11 -73 71 -130q12 -13 42 -42 q34 -31 50 -31q17 0 54 40l15 -15q-20 -21 -165 -142q-24 -20 -40 -20q-46 0 -103 47q-51 42 -73 88l-28 60l-124 -112q-96 -86 -119 -86q-37 0 -90 55q-29 32 -89 94q-28 28 -51 35q21 98 21 162v540q0 46 -21 86q-25 49 -67 50q-11 4 -11 12z" />
<glyph unicode="v" horiz-adv-x="881" d="M25 1006v13q160 140 170 140q36 0 80 -53q42 -49 48 -88q13 -83 15 -157l13 -459q2 -15 11 -40q15 -25 56 -85q9 -17 28 -52q28 -49 46 -49q22 0 57 59q28 47 36 75q16 56 34 143q15 127 15 178q0 99 -29 209q-6 12 -37 71q-2 5 -49 56q-42 46 -42 57q0 22 60.5 80 t82.5 58h-1q0 -2 81 -23q42 -11 73 -11q57 0 114 31q5 -5 5 -10q0 -31 -51 -87q-22 -15 -40 -27q-38 -27 -38 -41q0 -6 7.5 -29.5t8.5 -31.5q14 -106 14 -131q0 -170 -69 -340q-26 -64 -75 -149q-28 -35 -83 -106q-12 -24 -40 -65q-137 -143 -163 -143q-25 0 -45 28 q-14 27 -26 47q-47 81 -54 91q-33 50 -70 79q-7 7 -7 15q0 6 7 28t8 30q8 59 8 146q0 171 -42 415q-7 40 -38 81q-36 47 -76 47h-3z" />
<glyph unicode="w" horiz-adv-x="1294" d="M35 1009q-1 25 63 89t91 64q61 0 109 -72q41 -62 41 -113q0 -11 -6 -31.5t-6 -30.5v-494q0 -61 7 -80q2 -6 69 -82q25 -29 69 -101h9q9 0 31 25q19 23 25 35q25 53 25 85v452q0 60 -3 94q-4 42 -19 75q-8 18 -41 59q-27 34 -29 41q0 11 69 80q61 61 70 61q26 0 60 -38 q73 -81 73 -144q-14 -123 -14 -201v-320q0 -90 18 -135q7 -19 86 -115q35 -43 52 -43q34 0 74 119q26 76 40 147q23 115 23 191q0 137 -38 248q-26 77 -97 128q-8 6 -8 22q0 11 99 112q19 19 37 19q5 0 17 -4.5t16 -5.5q124 -21 146 -21q71 0 127 31q7 -5 7 -11 q0 -21 -53 -76q-20 -21 -57 -55q-2 -2 -43 -19q-34 -14 -34 -21q0 -3 10.5 -35.5t11.5 -42.5q12 -78 12 -118q0 -114 -29 -242q-32 -141 -82 -210q-61 -84 -263 -289q-13 -21 -39 -62h-15q-59 70 -173 211q-16 3 -29 -8q-20 -18 -109 -113q-70 -75 -103 -90q-11 3 -20 29 q-5 16 -20 40q-70 116 -158 153q-8 6 -8 11q0 2 10.5 28t12.5 34q18 101 18 116v247q0 75 -15 194q-3 20 -14 65q-27 105 -103 118z" />
<glyph unicode="x" horiz-adv-x="961" d="M23 144q51 131 146 131q58 0 135 -51l6 -4l120 248q-9 37 -34 103q-17 3 -99 3q-98 0 -124 -2q35 41 136 98q17 3 50 11l-6 21q0 6 -23 61q-28 67 -59 143q-63 117 -139 117q-31 0 -56 -23h-11q-8 8 -8 15q0 8 35 43q74 73 82 80q42 35 77 35q136 0 229 -246 q19 -53 72 -195q7 7 49.5 113t42.5 114q0 4 -18 29t-18 29q0 17 54 86.5t69 69.5q-5 0 40 -33q38 -28 96 -28q64 0 148 68v-13q-35 -48 -108 -142q-74 -90 -141 -90q-15 0 -45.5 5t-45.5 5q-18 -25 -32 -60l-72 -183l2 -2q15 -16 51 -16q92 0 141 20q1 -2 1 -5q0 -5 -3 -12 q-99 -84 -159 -106q-3 -3 -3 -12q0 -13 18 -64q42 -119 97 -240q12 -27 41.5 -68.5t76.5 -41.5q20 0 100 58q1 -1 9 -12q-38 -43 -116 -129q-72 -76 -134 -76q-56 0 -100 74q-5 9 -51 111q-15 38 -96 247q-25 -54 -78 -162q-6 -10 -12 -25l-4 -56q-1 -15 -85 -133 q-22 -33 -48 -66q-4 6 -11 15q-7 45 -68 88q-55 38 -98 44q-11 1 -19 11z" />
<glyph unicode="y" horiz-adv-x="948" d="M17 -305q0 68 73 173q23 33 39 35q7 -5 7 -12q-8 -35 -8 -56q0 -10 2 -16q29 -88 111 -138q77 -47 174 -47q131 0 202 85q66 78 66 211q0 57 -31 216q-6 31 -22 63q-13 -12 -128 -120q-79 -74 -125 -74q-60 0 -130 65q-33 32 -101 96v12q35 40 35 142v493q0 57 -27 105 q-34 60 -93 64q0 13 4 19q105 151 151 151q26 0 40.5 -11.5t61.5 -78.5q52 -74 52 -92l-12 -51q-13 -52 -13 -79q1 -72 1 -208t-1 -336q0 -17 16 -33q107 -105 166 -105q96 0 96 268l1 489v16q-1 25 -1 20q-55 51 -77 51q-4 0 -12.5 -1.5t-12.5 -1.5q-1 3 -4 7q0 18 70 83 q74 69 107 69q15 0 47 -19q45 -27 54 -31q48 -21 81 -21q24 0 52.5 13.5t29.5 13.5h13q5 -4 8 -4v-15q-50 -52 -183 -160q-11 -27 -11 -37v-513q0 -46 29 -150.5t29 -151.5q0 -90 -28 -158q-60 -146 -248 -298q-160 -129 -326 -129q-85 0 -151 50q-73 55 -73 137z" />
<glyph unicode="z" horiz-adv-x="904" d="M19 20q0 21 40 49l59 42q38 36 98 118q103 140 205 302v9q-8 9 -26 9h-263q1 -2 4 13q52 39 146 111l201 -2q36 0 78 59q152 217 152 272q0 23 -22 23q-11 0 -112.5 -40.5t-152.5 -40.5q-57 0 -151.5 39t-109.5 39q-7 0 -20 -1.5t-20 -1.5q20 34 88 93q76 66 111 66 q14 0 82 -33q133 -65 220 -65q65 0 248 88h12v-26q0 -19 -62 -119q-52 -83 -240 -350q24 -6 51 -6q63 0 109 14q9 3 43 18q31 14 41 13q0 -5 -4 -16q-155 -150 -271 -150q-4 0 -4.5 1.5t-3.5 1.5q-32 0 -45.5 -7t-141.5 -189q-20 -29 -114 -154q-2 -2 -26 -42q104 59 164 59 q48 0 142 -46t134 -46q67 0 141 50h13q-136 -196 -289 -196q-57 0 -175.5 54t-158.5 54q-26 0 -31 -4l-51 -51q-38 -36 -61 -36q-27 0 -27 25z" />
<glyph unicode="{" d="M95 477q86 28 116 86q25 47 25 146v362q0 170 72 234q57 51 188 51v-25q-104 -45 -104 -250v-342q0 -120 -33 -171q-42 -65 -164 -89v-4q122 -24 164 -89q33 -51 33 -171v-342q0 -205 104 -250v-24q-131 0 -188 51q-72 64 -72 233v363q0 99 -24 146q-31 57 -117 85z" />
<glyph unicode="|" horiz-adv-x="500" d="M203 0v1298h94v-1298h-94z" />
<glyph unicode="}" d="M99 -377q105 45 105 250v342q0 119 33 171q41 65 163 89v4q-122 24 -163 89q-33 52 -33 171v342q0 205 -105 250v25q131 0 188 -51q72 -64 72 -234v-362q0 -99 25 -146q30 -58 117 -86q-87 -28 -117 -85q-25 -46 -25 -146v-363q0 -169 -72 -233q-57 -51 -188 -51v24z" />
<glyph unicode="~" horiz-adv-x="909" d="M84 831q107 151 209 151q61 0 172.5 -57t135.5 -57q51 0 129 109l80 -101q-103 -143 -212 -143q-54 0 -164 56t-140 56q-37 0 -76 -43q-5 -5 -55 -74z" />
<glyph unicode="&#xa1;" d="M77 1039q42 47 88 92q89 87 154 87q73 0 185 -56l-113 -99q-11 -10 -64 -45q-99 48 -152 48q-29 0 -93 -34zM154 -303q29 29 45 107q46 223 46 652q0 224 -7 278q-3 24 -20 51q21 17 56 72q13 35 36 91l21 -10q-21 -115 -21 -199q0 -50 -2.5 -151t-2.5 -151 q0 -443 113 -603q45 -64 100 -68l5 -14q-22 -27 -79 -89q-60 -60 -94 -60q-20 0 -48 22q-80 62 -148 72z" />
<glyph unicode="&#xa2;" horiz-adv-x="800" d="M156 241v20q0 2 12.5 26t14.5 32q6 29 6 53v404q0 6 -8 29t-8 28q0 13 66 58q18 12 168 120v137h36v-113q11 4 23 4q29 0 89 -45q24 -18 57 -57q26 -31 26 -52q-4 -9 -28 -51q-31 -53 -43 -80q0 -28 -4 -85l-30 -1q-3 62 -8 127q-138 138 -185 137q-7 -6 -12 -18 q-2 -24 -1 -37l14 -310q2 -47 -4 -132q-1 -11 -8.5 -38t-7.5 -35q15 -15 105 -87q44 -35 58 -35q9 0 64 44q65 52 83 61l7 -5l6 -5q-26 -22 -79 -68q-47 -41 -66 -78q-8 -15 -101 -82v-180h-37v175q-13 13 -45 43q-106 98 -160 96z" />
<glyph unicode="&#xa3;" horiz-adv-x="1095" d="M-66 -69q0 167 201 274q171 91 360 91v359h-87v-130q0 -138 -207 -198l-10 14q61 42 61 105v167q0 29 -39 29q-11 -1 -46 -5q-34 -4 -42 1q-25 14 -3 38q19 21 130 117v123q0 260 243 353v92h37v-81q58 24 84 50q16 16 55 48h18l119 -78q73 -48 146 -48q56 0 136 43 l11 -12q-35 -24 -125 -87q-127 -91 -213 -91q-77 0 -130 46q-16 16 -50 46q-29 25 -51 25v-394q-5 -38 29 -38q77 0 144 29q17 7 54 28l11 -17q-44 -45 -120 -116q-36 -34 -53 -44q-28 -17 -64 -18l-1 -356q102 -4 188 -41q47 -21 143 -64l61 52l27 -29l-211 -162h-41 q-27 17 -81 49q-37 21 -86 29v-211h-37v215q-87 14 -182 14q-100 0 -200 -44q-142 -63 -142 -181q0 -70 54 -125q48 -49 120 -69v-25q-211 49 -211 227zM408 791h87v429q-62 -25 -78 -69q-9 -24 -9 -108v-252z" />
<glyph unicode="&#xa8;" horiz-adv-x="856" d="M43 1470q0 44 40 96q30 39 59 46q7 -52 30 -73q64 -57 144 -57q39 0 81 20q2 -2 5 -6q-118 -137 -215 -137q-53 0 -96 28q-48 33 -48 83zM478 1470q0 44 40 96q30 39 58 46q7 -52 31 -73q63 -57 144 -57q38 0 80 20q3 -2 6 -6q-118 -137 -215 -137q-53 0 -96 28 q-48 33 -48 83z" />
<glyph unicode="&#xa9;" horiz-adv-x="1212" d="M107 1643q0 140 71 263.5t193 189t254 65.5q138 0 260 -69t188 -189q69 -124 69 -260q0 -139 -69.5 -261t-189.5 -188q-123 -68 -258 -68q-139 0 -260.5 69.5t-188.5 190.5q-69 125 -69 257zM193 1643q0 -116 58.5 -217t160 -157.5t213.5 -56.5q117 0 218 58.5t157.5 160 t56.5 212.5q0 117 -59 219.5t-161.5 158t-211.5 55.5q-115 0 -216.5 -58.5t-157.5 -157.5q-58 -103 -58 -217zM354 1642q0 188 132 258q64 34 145 34q187 0 234 -162l-81 -20q-43 105 -156 105q-90 0 -138 -66q-43 -58 -43 -151q0 -92 40 -148q46 -65 134 -65q137 0 170 133 l84 -25q-21 -89 -88.5 -138.5t-160.5 -49.5q-129 0 -202 84q-70 80 -70 211z" />
<glyph unicode="&#xab;" horiz-adv-x="797" d="M76 622l239 295h123l-231 -295l237 -303h-129zM352 622l240 295h123l-232 -295l238 -303h-129z" />
<glyph unicode="&#xad;" horiz-adv-x="850" d="M53 466q60 104 90 137q63 71 140 68l291 -13q154 -7 223 74v-19q-113 -141 -141 -165q-53 -45 -129 -40l-301 20q-61 4 -96 -15q-28 -15 -72 -66q-1 6 -5 19z" />
<glyph unicode="&#xae;" horiz-adv-x="1191" d="M87 1672q0 136 71.5 254.5t191.5 180.5q124 64 255 64q138 0 257 -65q123 -67 191 -183q70 -120 70 -251q0 -135 -70.5 -251.5t-189.5 -180.5q-124 -66 -258 -66q-138 0 -259 66q-124 68 -191.5 185.5t-67.5 246.5zM173 1672q0 -112 59 -209.5t158 -150.5 q103 -55 215 -55q115 0 217 56t158.5 154t56.5 205q0 113 -60 212t-160 151q-104 54 -212 54q-115 0 -215 -55q-103 -56 -159 -153q-58 -100 -58 -209zM378 1397v536h191q165 0 212 -66q26 -37 26 -79q0 -65 -48 -107q-44 -39 -111 -44q30 -12 48 -29q34 -32 82 -106 l68 -105h-110l-49 84q-57 98 -94 125q-26 19 -72 19h-53v-228h-90zM468 1699h109q135 0 135 82q0 50 -52 70q-26 10 -90 10h-102v-162z" />
<glyph unicode="&#xb4;" horiz-adv-x="521" d="M14 1320q92 131 182 355q80 57 209 115q71 32 77 32q14 0 19 -11v-12q-26 -20 -88 -78q-63 -65 -211 -259q-26 -44 -101 -129q-25 -21 -65 -21h-17q-2 3 -5 8z" />
<glyph unicode="&#xbb;" horiz-adv-x="797" d="M76 917h129l239 -303l-239 -295h-123l231 295zM352 917h129l240 -303l-240 -295h-123l232 295z" />
<glyph unicode="&#xbf;" horiz-adv-x="850" d="M78 25q0 86 52 169q44 71 109 161q37 47 127 173q79 117 79 248q0 56 -30 84v11q0 8 95 89q18 15 31 15q44 0 44 -126q0 -90 -59 -185q-42 -68 -142 -184q-104 -120 -144 -181t-40 -131q0 -94 65 -201q58 -97 140 -162q89 -69 141 -69t69 40q-3 55 0 115q2 43 29 164 q13 39 60 89.5t84 64.5q-9 -135 -9 -160q1 -16 7 -85l6 -85q0 -17 -11 -36q-27 -17 -143 -87q-39 -24 -129 -82q-119 -77 -125 -77q-48 0 -147 96q-92 89 -110 136q-49 127 -49 196zM279 1115q19 38 89 96q76 63 116 63q77 0 176 -73q-8 -15 -64 -69q-64 -62 -88 -62 q-4 0 -69 32t-101 32q-26 0 -59 -19z" />
<glyph unicode="&#xc0;" horiz-adv-x="1267" d="M-13 -46l99 170q28 7 87 51q96 112 163 289q27 71 55 228q-41 14 -63 14q-44 0 -81 -36l-9 6q35 47 100 121q31 28 76 55q10 92 28 188q12 62 52 146q41 88 82 131q52 55 71 81q-73 73 -157 73q-44 0 -77 -19q-26 -15 -79 -66l-10 10q51 72 108 142q82 100 170 100 q91 0 173 -76q121 -112 144 -343q13 -150 42 -450q35 -327 107 -523q45 -122 116 -122q30 0 88 45l7 -9q-31 -37 -107 -134q-50 -66 -92 -66q-148 0 -229 386q-22 105 -67 473l-134 -113q-95 -30 -128 -30t-81 10q-36 -132 -104 -296q-30 -74 -125 -242q179 -27 223 -27 q72 0 126 63l9 -6q-26 -36 -87 -125q-15 -23 -44 -60q-37 -35 -95 -35q-36 0 -108 10t-108 10q-79 0 -135 -31zM306 2215v12q5 11 19 11q10 0 95 -40q77 -37 100 -50q58 -33 91 -57q90 -224 182 -355q-3 -3 -4 -8h-18q-63 0 -121 84l-45 66q-111 148 -211 259q-31 25 -88 78 zM466 847q124 -20 179 -20q36 0 137 17l-16 175q-13 145 -25 202q-24 115 -75 157q-12 -12 -48 -46q-55 -52 -98 -237q-20 -86 -54 -248z" />
<glyph unicode="&#xc1;" horiz-adv-x="1267" d="M-13 -46l99 170q28 7 87 51q96 112 163 289q27 71 55 228q-41 14 -63 14q-44 0 -81 -36l-9 6q35 47 100 121q31 28 76 55q10 92 28 188q12 62 52 146q41 88 82 131q52 55 71 81q-73 73 -157 73q-44 0 -77 -19q-26 -15 -79 -66l-10 10q51 72 108 142q82 100 170 100 q91 0 173 -76q121 -112 144 -343q13 -150 42 -450q35 -327 107 -523q45 -122 116 -122q30 0 88 45l7 -9q-31 -37 -107 -134q-50 -66 -92 -66q-148 0 -229 386q-22 105 -67 473l-134 -113q-95 -30 -128 -30t-81 10q-36 -132 -104 -296q-30 -74 -125 -242q179 -27 223 -27 q72 0 126 63l9 -6q-26 -36 -87 -125q-15 -23 -44 -60q-37 -35 -95 -35q-36 0 -108 10t-108 10q-79 0 -135 -31zM466 847q124 -20 179 -20q36 0 137 17l-16 175q-13 145 -25 202q-24 115 -75 157q-12 -12 -48 -46q-55 -52 -98 -237q-20 -86 -54 -248zM551 1729 q92 131 182 355q80 57 209 115q71 32 77 32q14 0 19 -11v-12q-26 -20 -88 -78q-63 -65 -211 -259q-26 -44 -101 -129q-25 -21 -65 -21h-17q-2 3 -5 8z" />
<glyph unicode="&#xc2;" horiz-adv-x="1267" d="M-13 -46l99 170q28 7 87 51q96 112 163 289q27 71 55 228q-41 14 -63 14q-44 0 -81 -36l-9 6q35 47 100 121q31 28 76 55q10 92 28 188q12 62 52 146q41 88 82 131q52 55 71 81q-73 73 -157 73q-44 0 -77 -19q-26 -15 -79 -66l-10 10q51 72 108 142q82 100 170 100 q91 0 173 -76q121 -112 144 -343q13 -150 42 -450q35 -327 107 -523q45 -122 116 -122q30 0 88 45l7 -9q-31 -37 -107 -134q-50 -66 -92 -66q-148 0 -229 386q-22 105 -67 473l-134 -113q-95 -30 -128 -30t-81 10q-36 -132 -104 -296q-30 -74 -125 -242q179 -27 223 -27 q72 0 126 63l9 -6q-26 -36 -87 -125q-15 -23 -44 -60q-37 -35 -95 -35q-36 0 -108 10t-108 10q-79 0 -135 -31zM367 1729q84 119 189 371q23 54 47 109q91 -5 164 32q30 -76 59 -141q36 -82 92 -203q53 -115 90 -168q-3 -3 -5 -8h-17q-63 0 -121 84q-71 103 -96 142 q-52 81 -84 150q-53 -126 -131 -226q-25 -42 -101 -129q-25 -21 -65 -21h-17q-1 3 -4 8zM466 847q124 -20 179 -20q36 0 137 17l-16 175q-13 145 -25 202q-24 115 -75 157q-12 -12 -48 -46q-55 -52 -98 -237q-20 -86 -54 -248z" />
<glyph unicode="&#xc3;" horiz-adv-x="1267" d="M-13 -46l99 170q28 7 87 51q96 112 163 289q27 71 55 228q-41 14 -63 14q-44 0 -81 -36l-9 6q35 47 100 121q31 28 76 55q10 92 28 188q12 62 52 146q41 88 82 131q52 55 71 81q-73 73 -157 73q-44 0 -77 -19q-26 -15 -79 -66l-10 10q51 72 108 142q82 100 170 100 q91 0 173 -76q121 -112 144 -343q13 -150 42 -450q35 -327 107 -523q45 -122 116 -122q30 0 88 45l7 -9q-31 -37 -107 -134q-50 -66 -92 -66q-148 0 -229 386q-22 105 -67 473l-134 -113q-95 -30 -128 -30t-81 10q-36 -132 -104 -296q-30 -74 -125 -242q179 -27 223 -27 q72 0 126 63l9 -6q-26 -36 -87 -125q-15 -23 -44 -60q-37 -35 -95 -35q-36 0 -108 10t-108 10q-79 0 -135 -31zM349 1760q55 83 88 134q78 122 137 122q18 0 105 -61q123 -86 159 -86t92 81l29 -23q-44 -70 -101 -143q-45 -57 -109 -57q-58 0 -133 58q-91 71 -118 71 q-43 0 -119 -123zM466 847q124 -20 179 -20q36 0 137 17l-16 175q-13 145 -25 202q-24 115 -75 157q-12 -12 -48 -46q-55 -52 -98 -237q-20 -86 -54 -248z" />
<glyph unicode="&#xc4;" horiz-adv-x="1267" d="M-13 -46l99 170q28 7 87 51q96 112 163 289q27 71 55 228q-41 14 -63 14q-44 0 -81 -36l-9 6q35 47 100 121q31 28 76 55q10 92 28 188q12 62 52 146q41 88 82 131q52 55 71 81q-73 73 -157 73q-44 0 -77 -19q-26 -15 -79 -66l-10 10q51 72 108 142q82 100 170 100 q91 0 173 -76q121 -112 144 -343q13 -150 42 -450q35 -327 107 -523q45 -122 116 -122q30 0 88 45l7 -9q-31 -37 -107 -134q-50 -66 -92 -66q-148 0 -229 386q-22 105 -67 473l-134 -113q-95 -30 -128 -30t-81 10q-36 -132 -104 -296q-30 -74 -125 -242q179 -27 223 -27 q72 0 126 63l9 -6q-26 -36 -87 -125q-15 -23 -44 -60q-37 -35 -95 -35q-36 0 -108 10t-108 10q-79 0 -135 -31zM277 1837q0 44 40 96q30 39 59 46q7 -52 30 -73q64 -57 144 -57q39 0 81 20q2 -2 5 -6q-118 -137 -215 -137q-53 0 -96 28q-48 33 -48 83zM466 847 q124 -20 179 -20q36 0 137 17l-16 175q-13 145 -25 202q-24 115 -75 157q-12 -12 -48 -46q-55 -52 -98 -237q-20 -86 -54 -248zM712 1837q0 44 40 96q30 39 58 46q7 -52 31 -73q63 -57 144 -57q38 0 80 20q3 -2 6 -6q-118 -137 -215 -137q-53 0 -96 28q-48 33 -48 83z" />
<glyph unicode="&#xc5;" horiz-adv-x="1267" d="M-13 -46l99 170q28 7 87 51q96 112 163 289q27 71 55 228q-41 14 -63 14q-44 0 -81 -36l-9 6q35 47 100 121q31 28 76 55q10 92 28 188q12 62 52 146q41 88 82 131q52 55 71 81q-73 73 -157 73q-44 0 -77 -19q-26 -15 -79 -66l-10 10q51 72 108 142q82 100 170 100 q91 0 173 -76q121 -112 144 -343q13 -150 42 -450q35 -327 107 -523q45 -122 116 -122q30 0 88 45l7 -9q-31 -37 -107 -134q-50 -66 -92 -66q-148 0 -229 386q-22 105 -67 473l-134 -113q-95 -30 -128 -30t-81 10q-36 -132 -104 -296q-30 -74 -125 -242q179 -27 223 -27 q72 0 126 63l9 -6q-26 -36 -87 -125q-15 -23 -44 -60q-37 -35 -95 -35q-36 0 -108 10t-108 10q-79 0 -135 -31zM427 1913q0 96 66 162t162 66t162.5 -66t66.5 -162t-66.5 -162.5t-162.5 -66.5t-162 66.5t-66 162.5zM466 847q124 -20 179 -20q36 0 137 17l-16 175 q-13 145 -25 202q-24 115 -75 157q-12 -12 -48 -46q-55 -52 -98 -237q-20 -86 -54 -248zM505 1913q0 -62 44 -106t106 -44t106 44t44 106t-44 106t-106 44t-106 -44t-44 -106z" />
<glyph unicode="&#xc6;" horiz-adv-x="1726" d="M-13 -46l99 170q28 7 87 51q96 112 163 289q27 71 55 228q-41 14 -63 14q-44 0 -81 -36l-9 6q35 47 100 121q31 28 76 55q10 92 28 188q12 62 52 146q41 88 82 131q52 55 71 81q-73 73 -157 73q-44 0 -77 -19q-26 -15 -79 -66l-10 10q51 72 108 142q82 100 170 100 q35 0 197 -101q42 -21 236 -147q123 87 150 102q74 43 136 43q47 0 155.5 -30.5t167.5 -30.5q46 0 93 20h11q5 -5 5 -12q0 -13 -105 -105q-40 -35 -94 -52q-26 -8 -70 -8q-45 0 -154.5 34t-163.5 34q-60 0 -80 -30q-14 -21 -14 -75l-1 -451q26 25 84 92v423h36v-406 q23 -5 36 -3q30 5 184 5q99 0 149 17h12q4 -1 4 -9q-3 -10 -21 -48q-22 -47 -30 -68q-5 -12 -21 -79q-19 20 -59 43q-34 4 -52 4h-202v-667q115 -23 153 -23q122 0 264 91h12v-15q0 -11 -90 -85q-172 -141 -333 -144l-6 -4v-115h-36v116q-3 2 -7 5q-95 11 -224 60l-266 100 q-9 3 -62 12v14q0 14 52.5 59t73 50t64.5 14.5t67 44.5q42 64 41 315v565q0 50 -82 103q-45 29 -136 88q-16 -13 -58 -52q-55 -51 -98 -237q-20 -86 -54 -248q124 -20 179 -20q83 0 117 1q-85 -152 -240 -152q-33 0 -81 10q-36 -132 -104 -296q-30 -74 -125 -242 q179 -27 223 -27q72 0 126 63l9 -6q-26 -36 -87 -125q-15 -23 -44 -60q-37 -35 -95 -35q-36 0 -108 10t-108 10q-79 0 -135 -31zM844 259q22 -18 153 -66q125 -46 139 -46l19 -5v658h-33q-44 0 -52 -16q-4 -9 -7 -64q-7 -148 -21 -204q-28 -115 -115 -194q-42 -38 -83 -63z " />
<glyph unicode="&#xc7;" horiz-adv-x="1382" d="M107 730q0 173 43 308q26 76 79 229l246 192l12 -27q-20 -19 -60 -69q-45 -70 -99 -248q-60 -199 -60 -325q0 -134 55 -262q58 -135 157 -216q70 62 70 286q0 77 -22 137q-31 85 -95 85q-31 0 -63 -21l-5 7q34 43 74 95q33 44 90 51q22 3 36 15l-6 318q-1 51 -14 103 q25 3 76 21q25 9 190 137q28 22 66 56q38 -29 123 -81q61 -29 140 -29q90 0 142 61l14 -13q-11 -15 -51 -54q-174 -139 -249 -139q-114 0 -210 91q-18 17 -37 34l-25 -22q3 -232 3 -402q0 -369 -36 -501q-27 -98 -99 -165q-25 -24 -87 -81q94 -89 314 -135v1122h35v-1122 q40 -9 98 -9q147 0 269 75q44 27 130 131l14 -14q-69 -75 -231 -243q-79 -78 -175 -98q-62 -13 -105 -13h-13l-41 -99q228 0 228 -134q0 -157 -252 -157q-49 0 -112 21q-71 24 -95 57l84 61q53 -102 133 -102q49 0 82 30t33 78q0 109 -158 109l60 136q-68 0 -127 15 q-569 146 -569 720z" />
<glyph unicode="&#xc8;" horiz-adv-x="1055" d="M-75 173v14q0 14 52.5 59t73 50t65 15.5t67.5 44.5q52 79 52 261q0 104 -19 153q-32 83 -129 83q-30 0 -63 -10q-4 9 -3 12q91 151 188 151q24 0 38 -3v256q0 76 -26 131q-34 72 -100 72q-61 -7 -73 -6q-1 5 0 8q119 127 238 127q52 0 82 -68q13 -31 38 -92q57 47 114 93 q75 54 130 54q47 0 155.5 -31t167.5 -31q44 0 93 21q16 0 16 -12q0 -13 -105 -105q-68 -60 -164 -60q-45 0 -154.5 33.5t-163.5 33.5q-59 0 -80 -30q-15 -22 -15 -74v-452q26 25 84 93v423h36v-410q16 1 220 1q88 0 149 21q14 0 14 -12q-3 -9 -20 -46q-21 -46 -29 -66 q-3 -8 -21 -80q-19 20 -59 43q-43 5 -52 5h-202v-667q115 -24 153 -24q120 0 264 92q3 1 5 1q11 0 7 -17q-4 -14 -90 -85q-172 -141 -333 -144l-6 -3v-115h-36v116q-3 1 -7 4q-95 11 -224 60l-266 100q-9 3 -62 12zM174 302q23 -18 152 -66q125 -46 139 -46l19 -6v658 q-25 1 -33 1q-44 0 -52 -16q-4 -9 -7 -64q-7 -148 -21 -204q-28 -115 -115 -194q-44 -40 -82 -63zM246 2212v12q5 11 19 11q10 0 95 -40q77 -37 100 -50q58 -33 91 -57q90 -224 182 -355q-3 -3 -4 -8h-18q-63 0 -121 84l-45 66q-111 148 -211 259q-31 25 -88 78z" />
<glyph unicode="&#xc9;" horiz-adv-x="1055" d="M-75 173v14q0 14 52.5 59t73 50t65 15.5t67.5 44.5q52 79 52 261q0 104 -19 153q-32 83 -129 83q-30 0 -63 -10q-4 9 -3 12q91 151 188 151q24 0 38 -3v256q0 76 -26 131q-34 72 -100 72q-61 -7 -73 -6q-1 5 0 8q119 127 238 127q52 0 82 -68q13 -31 38 -92q57 47 114 93 q75 54 130 54q47 0 155.5 -31t167.5 -31q44 0 93 21q16 0 16 -12q0 -13 -105 -105q-68 -60 -164 -60q-45 0 -154.5 33.5t-163.5 33.5q-59 0 -80 -30q-15 -22 -15 -74v-452q26 25 84 93v423h36v-410q16 1 220 1q88 0 149 21q14 0 14 -12q-3 -9 -20 -46q-21 -46 -29 -66 q-3 -8 -21 -80q-19 20 -59 43q-43 5 -52 5h-202v-667q115 -24 153 -24q120 0 264 92q3 1 5 1q11 0 7 -17q-4 -14 -90 -85q-172 -141 -333 -144l-6 -3v-115h-36v116q-3 1 -7 4q-95 11 -224 60l-266 100q-9 3 -62 12zM174 302q23 -18 152 -66q125 -46 139 -46l19 -6v658 q-25 1 -33 1q-44 0 -52 -16q-4 -9 -7 -64q-7 -148 -21 -204q-28 -115 -115 -194q-44 -40 -82 -63zM599 1736q92 131 182 355q80 57 209 115q71 32 77 32q14 0 19 -11v-12q-26 -20 -88 -78q-63 -65 -211 -259q-26 -44 -101 -129q-25 -21 -65 -21h-17q-2 3 -5 8z" />
<glyph unicode="&#xca;" horiz-adv-x="1055" d="M-75 173v14q0 14 52.5 59t73 50t65 15.5t67.5 44.5q52 79 52 261q0 104 -19 153q-32 83 -129 83q-30 0 -63 -10q-4 9 -3 12q91 151 188 151q24 0 38 -3v256q0 76 -26 131q-34 72 -100 72q-61 -7 -73 -6q-1 5 0 8q119 127 238 127q52 0 82 -68q13 -31 38 -92q57 47 114 93 q75 54 130 54q47 0 155.5 -31t167.5 -31q44 0 93 21q16 0 16 -12q0 -13 -105 -105q-68 -60 -164 -60q-45 0 -154.5 33.5t-163.5 33.5q-59 0 -80 -30q-15 -22 -15 -74v-452q26 25 84 93v423h36v-410q16 1 220 1q88 0 149 21q14 0 14 -12q-3 -9 -20 -46q-21 -46 -29 -66 q-3 -8 -21 -80q-19 20 -59 43q-43 5 -52 5h-202v-667q115 -24 153 -24q120 0 264 92q3 1 5 1q11 0 7 -17q-4 -14 -90 -85q-172 -141 -333 -144l-6 -3v-115h-36v116q-3 1 -7 4q-95 11 -224 60l-266 100q-9 3 -62 12zM174 302q23 -18 152 -66q125 -46 139 -46l19 -6v658 q-25 1 -33 1q-44 0 -52 -16q-4 -9 -7 -64q-7 -148 -21 -204q-28 -115 -115 -194q-44 -40 -82 -63zM268 1729q84 119 189 371q23 54 47 109q91 -5 164 32q30 -76 59 -141q36 -82 92 -203q53 -115 90 -168q-3 -3 -5 -8h-17q-63 0 -121 84q-71 103 -96 142q-52 81 -84 150 q-53 -126 -131 -226q-25 -42 -101 -129q-25 -21 -65 -21h-17q-1 3 -4 8z" />
<glyph unicode="&#xcb;" horiz-adv-x="1055" d="M-75 173v14q0 14 52.5 59t73 50t65 15.5t67.5 44.5q52 79 52 261q0 104 -19 153q-32 83 -129 83q-30 0 -63 -10q-4 9 -3 12q91 151 188 151q24 0 38 -3v256q0 76 -26 131q-34 72 -100 72q-61 -7 -73 -6q-1 5 0 8q119 127 238 127q52 0 82 -68q13 -31 38 -92q57 47 114 93 q75 54 130 54q47 0 155.5 -31t167.5 -31q44 0 93 21q16 0 16 -12q0 -13 -105 -105q-68 -60 -164 -60q-45 0 -154.5 33.5t-163.5 33.5q-59 0 -80 -30q-15 -22 -15 -74v-452q26 25 84 93v423h36v-410q16 1 220 1q88 0 149 21q14 0 14 -12q-3 -9 -20 -46q-21 -46 -29 -66 q-3 -8 -21 -80q-19 20 -59 43q-43 5 -52 5h-202v-667q115 -24 153 -24q120 0 264 92q3 1 5 1q11 0 7 -17q-4 -14 -90 -85q-172 -141 -333 -144l-6 -3v-115h-36v116q-3 1 -7 4q-95 11 -224 60l-266 100q-9 3 -62 12zM174 302q23 -18 152 -66q125 -46 139 -46l19 -6v658 q-25 1 -33 1q-44 0 -52 -16q-4 -9 -7 -64q-7 -148 -21 -204q-28 -115 -115 -194q-44 -40 -82 -63zM233 1838q0 44 40 96q30 39 59 46q7 -52 30 -73q64 -57 144 -57q39 0 81 20q2 -2 5 -6q-118 -137 -215 -137q-53 0 -96 28q-48 33 -48 83zM668 1838q0 44 40 96q30 39 58 46 q7 -52 31 -73q63 -57 144 -57q38 0 80 20q3 -2 6 -6q-118 -137 -215 -137q-53 0 -96 28q-48 33 -48 83z" />
<glyph unicode="&#xcc;" horiz-adv-x="973" d="M-43 1300q0 86 70 155q33 33 160 119q57 39 130 39q55 0 102 -9v92h34v-100q35 -13 105 -37q63 -20 173 -20q45 0 105 44q19 14 19 -14q0 -14 -21 -29q-34 -24 -130 -82q-78 -42 -169 -42q-45 0 -82 13v-390q2 -4 6 -9q16 6 28 6q5 0 59 -27l5 2v117q0 64 19 122 q13 40 90 109l115 103q3 -2 8 -5q-58 -101 -58 -248v-597q0 -218 -150 -359l-66 -62q61 -22 88 -31q95 -32 145 -32q61 0 97 23q29 19 68 74q17 24 31 24q13 0 18 -15q5 -16 -7 -29q-203 -222 -362 -222q-53 0 -134 29v-108h-34v120q-164 64 -231 64q-121 0 -160 -119 q-6 -18 -14 -18h-11q-21 28 -21 40q0 36 120 135q133 110 245 110q36 0 72 -16v647q-17 6 -24 6q-82 0 -129 -60q-6 -7 -15 -3t-9 15q0 23 77 89q33 27 100 83v443q-167 57 -238 57q-75 0 -104 -47q-17 -28 -30 -118q-3 -21 -23 -45t-39 -24q-28 0 -28 37zM113 2212v12 q5 11 19 11q10 0 95 -40q77 -37 100 -50q58 -33 91 -57q90 -224 182 -355q-3 -3 -4 -8h-18q-63 0 -121 84l-45 66q-111 148 -211 259q-31 25 -88 78zM453 208q4 -1 23 -7q75 122 75 261v195q0 157 -98 202v-651z" />
<glyph unicode="&#xcd;" horiz-adv-x="973" d="M-43 1300q0 86 70 155q33 33 160 119q57 39 130 39q55 0 102 -9v92h34v-100q35 -13 105 -37q63 -20 173 -20q45 0 105 44q19 14 19 -14q0 -14 -21 -29q-34 -24 -130 -82q-78 -42 -169 -42q-45 0 -82 13v-390q2 -4 6 -9q16 6 28 6q5 0 59 -27l5 2v117q0 64 19 122 q13 40 90 109l115 103q3 -2 8 -5q-58 -101 -58 -248v-597q0 -218 -150 -359l-66 -62q61 -22 88 -31q95 -32 145 -32q61 0 97 23q29 19 68 74q17 24 31 24q13 0 18 -15q5 -16 -7 -29q-203 -222 -362 -222q-53 0 -134 29v-108h-34v120q-164 64 -231 64q-121 0 -160 -119 q-6 -18 -14 -18h-11q-21 28 -21 40q0 36 120 135q133 110 245 110q36 0 72 -16v647q-17 6 -24 6q-82 0 -129 -60q-6 -7 -15 -3t-9 15q0 23 77 89q33 27 100 83v443q-167 57 -238 57q-75 0 -104 -47q-17 -28 -30 -118q-3 -21 -23 -45t-39 -24q-28 0 -28 37zM299 1729 q92 131 182 355q80 57 209 115q71 32 77 32q14 0 19 -11v-12q-26 -20 -88 -78q-63 -65 -211 -259q-26 -44 -101 -129q-25 -21 -65 -21h-17q-2 3 -5 8zM453 208q4 -1 23 -7q75 122 75 261v195q0 157 -98 202v-651z" />
<glyph unicode="&#xce;" horiz-adv-x="973" d="M-43 1300q0 86 70 155q33 33 160 119q57 39 130 39q55 0 102 -9v92h34v-100q35 -13 105 -37q63 -20 173 -20q45 0 105 44q19 14 19 -14q0 -14 -21 -29q-34 -24 -130 -82q-78 -42 -169 -42q-45 0 -82 13v-390q2 -4 6 -9q16 6 28 6q5 0 59 -27l5 2v117q0 64 19 122 q13 40 90 109l115 103q3 -2 8 -5q-58 -101 -58 -248v-597q0 -218 -150 -359l-66 -62q61 -22 88 -31q95 -32 145 -32q61 0 97 23q29 19 68 74q17 24 31 24q13 0 18 -15q5 -16 -7 -29q-203 -222 -362 -222q-53 0 -134 29v-108h-34v120q-164 64 -231 64q-121 0 -160 -119 q-6 -18 -14 -18h-11q-21 28 -21 40q0 36 120 135q133 110 245 110q36 0 72 -16v647q-17 6 -24 6q-82 0 -129 -60q-6 -7 -15 -3t-9 15q0 23 77 89q33 27 100 83v443q-167 57 -238 57q-75 0 -104 -47q-17 -28 -30 -118q-3 -21 -23 -45t-39 -24q-28 0 -28 37zM144 1729 q84 119 189 371q23 54 47 109q91 -5 164 32q30 -76 59 -141q36 -82 92 -203q53 -115 90 -168q-3 -3 -5 -8h-17q-63 0 -121 84q-71 103 -96 142q-52 81 -84 150q-53 -126 -131 -226q-25 -42 -101 -129q-25 -21 -65 -21h-17q-1 3 -4 8zM453 208q4 -1 23 -7q75 122 75 261v195 q0 157 -98 202v-651z" />
<glyph unicode="&#xcf;" horiz-adv-x="973" d="M-43 1300q0 86 70 155q33 33 160 119q57 39 130 39q55 0 102 -9v92h34v-100q35 -13 105 -37q63 -20 173 -20q45 0 105 44q19 14 19 -14q0 -14 -21 -29q-34 -24 -130 -82q-78 -42 -169 -42q-45 0 -82 13v-390q2 -4 6 -9q16 6 28 6q5 0 59 -27l5 2v117q0 64 19 122 q13 40 90 109l115 103q3 -2 8 -5q-58 -101 -58 -248v-597q0 -218 -150 -359l-66 -62q61 -22 88 -31q95 -32 145 -32q61 0 97 23q29 19 68 74q17 24 31 24q13 0 18 -15q5 -16 -7 -29q-203 -222 -362 -222q-53 0 -134 29v-108h-34v120q-164 64 -231 64q-121 0 -160 -119 q-6 -18 -14 -18h-11q-21 28 -21 40q0 36 120 135q133 110 245 110q36 0 72 -16v647q-17 6 -24 6q-82 0 -129 -60q-6 -7 -15 -3t-9 15q0 23 77 89q33 27 100 83v443q-167 57 -238 57q-75 0 -104 -47q-17 -28 -30 -118q-3 -21 -23 -45t-39 -24q-28 0 -28 37zM84 1838 q0 44 40 96q30 39 59 46q7 -52 30 -73q64 -57 144 -57q39 0 81 20q2 -2 5 -6q-118 -137 -215 -137q-53 0 -96 28q-48 33 -48 83zM453 208q4 -1 23 -7q75 122 75 261v195q0 157 -98 202v-651zM519 1838q0 44 40 96q30 39 58 46q7 -52 31 -73q63 -57 144 -57q38 0 80 20 q3 -2 6 -6q-118 -137 -215 -137q-53 0 -96 28q-48 33 -48 83z" />
<glyph unicode="&#xd1;" horiz-adv-x="1392" d="M2 -15q33 60 118 121q102 73 109 81q71 77 82 271q3 51 -6 170q-5 65 -45 108.5t-104 43.5q-31 0 -79 -37q-11 11 -12 15q0 22 61 88q52 56 74 72q58 41 108 40v104q0 179 92 284q-71 101 -201 101q-41 0 -121 -34q-8 8 -8 13q0 35 96 111q88 70 195 70q194 0 369 -437 q43 -103 155 -371l109 -264q73 -168 129 -259q3 -1 7 2q0 7 3 77q2 46 2 80v877q0 158 -150 158q-60 0 -98 -20l-16 3q2 0 3 1q-1 5 3 16q146 143 293 143q34 0 100 -15t99 -15q42 0 93 14q33 9 22 9l17 -15q-3 -4 -18 -13.5t-123 -89.5q-58 -43 -118 -49q-27 -3 -41 -2 q-18 -48 -18 -90v-1143q52 -43 98 -43q42 0 94 64q11 -2 15 -8q4 -9 7 -10l-90 -102q-58 -64 -105 -90q-20 -11 -57 -11q-147 0 -291 341q-25 59 -66 160l-249 617q-55 122 -117 199q-4 -2 -8 -6q-11 -47 -11 -105q0 -78 9.5 -233.5t9.5 -233.5q0 -359 -164 -586 q3 -9 103 -33q46 -11 122 -11q49 0 71 7q5 1 25 10q5 1 8 1q7 0 9 -3q5 -5 -4 -14q-67 -62 -85 -77q-56 -48 -95 -66q-9 -4 -56 -4q-43 0 -126.5 22t-124.5 22q-47 0 -95 -31q-3 2 -8 5zM458 1756q55 83 88 134q78 122 137 122q18 0 105 -61q123 -86 159 -86t92 81l29 -23 q-44 -70 -101 -143q-45 -57 -109 -57q-58 0 -133 58q-91 71 -118 71q-43 0 -119 -123z" />
<glyph unicode="&#xd2;" horiz-adv-x="1621" d="M109 762q0 368 214 586q56 57 201 166q8 6 49 22q5 -4 14 -12v-11q0 -11 -72 -43q-47 -21 -101 -109q-48 -77 -64 -141q-52 -201 -52 -346q0 -180 51 -294q67 -150 248 -275q39 -27 77 -48v314q-56 -48 -99 -51q-38 -3 -38 13q0 9 19 41q56 95 118 131v907h32v-889 q72 46 101 154q19 71 19 190q0 151 -25 267q-4 19 -32 74q-24 49 -24 72q0 33 50 102q48 65 81 83q-3 -75 197 -179q90 -47 174 -102q178 -117 243 -370q26 -101 26 -176q0 -188 -83 -353q-43 -85 -160 -196q-81 -77 -152 -125q-129 -87 -180 -110q-66 -29 -156 -29l-79 12 v-131h-32v137q-47 9 -68 18q-195 80 -358 273q-139 164 -139 428zM452 2208v12q5 11 19 11q10 0 95 -40q77 -37 100 -50q58 -33 91 -57q90 -224 182 -355q-3 -3 -4 -8h-18q-63 0 -121 84l-45 66q-111 148 -211 259q-31 25 -88 78zM706 240q136 -68 252 -68q95 0 191 57 q91 54 145 137q88 134 88 332q0 185 -117 367.5t-286 250.5q-22 9 -56 22q6 -46 6 -87q1 -198 -116 -448q-30 -65 -97 -187q-3 -4 -10 -13v-363z" />
<glyph unicode="&#xd3;" horiz-adv-x="1621" d="M109 762q0 368 214 586q56 57 201 166q8 6 49 22q5 -4 14 -12v-11q0 -11 -72 -43q-47 -21 -101 -109q-48 -77 -64 -141q-52 -201 -52 -346q0 -180 51 -294q67 -150 248 -275q39 -27 77 -48v314q-56 -48 -99 -51q-38 -3 -38 13q0 9 19 41q56 95 118 131v907h32v-889 q72 46 101 154q19 71 19 190q0 151 -25 267q-4 19 -32 74q-24 49 -24 72q0 33 50 102q48 65 81 83q-3 -75 197 -179q90 -47 174 -102q178 -117 243 -370q26 -101 26 -176q0 -188 -83 -353q-43 -85 -160 -196q-81 -77 -152 -125q-129 -87 -180 -110q-66 -29 -156 -29l-79 12 v-131h-32v137q-47 9 -68 18q-195 80 -358 273q-139 164 -139 428zM706 240q136 -68 252 -68q95 0 191 57q91 54 145 137q88 134 88 332q0 185 -117 367.5t-286 250.5q-22 9 -56 22q6 -46 6 -87q1 -198 -116 -448q-30 -65 -97 -187q-3 -4 -10 -13v-363zM737 1733 q92 131 182 355q80 57 209 115q71 32 77 32q14 0 19 -11v-12q-26 -20 -88 -78q-63 -65 -211 -259q-26 -44 -101 -129q-25 -21 -65 -21h-17q-2 3 -5 8z" />
<glyph unicode="&#xd4;" horiz-adv-x="1621" d="M109 762q0 368 214 586q56 57 201 166q8 6 49 22q5 -4 14 -12v-11q0 -11 -72 -43q-47 -21 -101 -109q-48 -77 -64 -141q-52 -201 -52 -346q0 -180 51 -294q67 -150 248 -275q39 -27 77 -48v314q-56 -48 -99 -51q-38 -3 -38 13q0 9 19 41q56 95 118 131v907h32v-889 q72 46 101 154q19 71 19 190q0 151 -25 267q-4 19 -32 74q-24 49 -24 72q0 33 50 102q48 65 81 83q-3 -75 197 -179q90 -47 174 -102q178 -117 243 -370q26 -101 26 -176q0 -188 -83 -353q-43 -85 -160 -196q-81 -77 -152 -125q-129 -87 -180 -110q-66 -29 -156 -29l-79 12 v-131h-32v137q-47 9 -68 18q-195 80 -358 273q-139 164 -139 428zM487 1729q84 119 189 371q23 54 47 109q91 -5 164 32q30 -76 59 -141q36 -82 92 -203q53 -115 90 -168q-3 -3 -5 -8h-17q-63 0 -121 84q-71 103 -96 142q-52 81 -84 150q-53 -126 -131 -226 q-25 -42 -101 -129q-25 -21 -65 -21h-17q-1 3 -4 8zM706 240q136 -68 252 -68q95 0 191 57q91 54 145 137q88 134 88 332q0 185 -117 367.5t-286 250.5q-22 9 -56 22q6 -46 6 -87q1 -198 -116 -448q-30 -65 -97 -187q-3 -4 -10 -13v-363z" />
<glyph unicode="&#xd5;" horiz-adv-x="1621" d="M109 762q0 368 214 586q56 57 201 166q8 6 49 22q5 -4 14 -12v-11q0 -11 -72 -43q-47 -21 -101 -109q-48 -77 -64 -141q-52 -201 -52 -346q0 -180 51 -294q67 -150 248 -275q39 -27 77 -48v314q-56 -48 -99 -51q-38 -3 -38 13q0 9 19 41q56 95 118 131v907h32v-889 q72 46 101 154q19 71 19 190q0 151 -25 267q-4 19 -32 74q-24 49 -24 72q0 33 50 102q48 65 81 83q-3 -75 197 -179q90 -47 174 -102q178 -117 243 -370q26 -101 26 -176q0 -188 -83 -353q-43 -85 -160 -196q-81 -77 -152 -125q-129 -87 -180 -110q-66 -29 -156 -29l-79 12 v-131h-32v137q-47 9 -68 18q-195 80 -358 273q-139 164 -139 428zM477 1760q55 83 88 134q78 122 137 122q18 0 105 -61q123 -86 159 -86t92 81l29 -23q-44 -70 -101 -143q-45 -57 -109 -57q-58 0 -133 58q-91 71 -118 71q-43 0 -119 -123zM706 240q136 -68 252 -68 q95 0 191 57q91 54 145 137q88 134 88 332q0 185 -117 367.5t-286 250.5q-22 9 -56 22q6 -46 6 -87q1 -198 -116 -448q-30 -65 -97 -187q-3 -4 -10 -13v-363z" />
<glyph unicode="&#xd6;" horiz-adv-x="1621" d="M109 762q0 368 214 586q56 57 201 166q8 6 49 22q5 -4 14 -12v-11q0 -11 -72 -43q-47 -21 -101 -109q-48 -77 -64 -141q-52 -201 -52 -346q0 -180 51 -294q67 -150 248 -275q39 -27 77 -48v314q-56 -48 -99 -51q-38 -3 -38 13q0 9 19 41q56 95 118 131v907h32v-889 q72 46 101 154q19 71 19 190q0 151 -25 267q-4 19 -32 74q-24 49 -24 72q0 33 50 102q48 65 81 83q-3 -75 197 -179q90 -47 174 -102q178 -117 243 -370q26 -101 26 -176q0 -188 -83 -353q-43 -85 -160 -196q-81 -77 -152 -125q-129 -87 -180 -110q-66 -29 -156 -29l-79 12 v-131h-32v137q-47 9 -68 18q-195 80 -358 273q-139 164 -139 428zM431 1835q0 44 40 96q30 39 59 46q7 -52 30 -73q64 -57 144 -57q39 0 81 20q2 -2 5 -6q-118 -137 -215 -137q-53 0 -96 28q-48 33 -48 83zM706 240q136 -68 252 -68q95 0 191 57q91 54 145 137 q88 134 88 332q0 185 -117 367.5t-286 250.5q-22 9 -56 22q6 -46 6 -87q1 -198 -116 -448q-30 -65 -97 -187q-3 -4 -10 -13v-363zM866 1835q0 44 40 96q30 39 58 46q7 -52 31 -73q63 -57 144 -57q38 0 80 20q3 -2 6 -6q-118 -137 -215 -137q-53 0 -96 28q-48 33 -48 83z" />
<glyph unicode="&#xd8;" horiz-adv-x="1621" d="M88 -178q40 54 140 197q66 98 133 199q-58 52 -113 116q-139 164 -139 428q0 368 214 586q56 57 201 166q8 6 49 22q5 -4 14 -12v-11q0 -11 -72 -43q-47 -21 -101 -109q-48 -77 -64 -141q-52 -201 -52 -346q0 -155 38 -260q41 -116 145 -215l78 121q-22 1 -22 13 q0 9 19 41q56 95 118 131v907h32v-865l110 171q10 62 10 149q0 151 -25 267q-4 19 -32 74q-24 49 -24 72q0 33 50 102q48 65 81 83q-3 -75 197 -179q38 -20 74 -41q55 88 157 263l104 72q-56 -104 -212 -364q26 -15 51 -32q178 -117 243 -370q26 -101 26 -176 q0 -188 -83 -353q-43 -85 -160 -196q-81 -77 -152 -125q-129 -87 -180 -110q-66 -29 -156 -29l-79 12v-131h-32v137q-47 9 -68 18q-106 44 -203 121l-110 -172q-38 -59 -89 -132zM520 364q73 -62 154 -107v314q-21 -18 -40 -29zM706 240q136 -68 252 -68q95 0 191 57 q91 54 145 137q88 134 88 332q0 184 -116 365q-77 120 -174 191l-254 -396q-12 -27 -25 -55q-30 -65 -97 -187l-10 -13v-363zM905 1059l141 224q-32 19 -67 33q-22 9 -56 22q6 -46 6 -87q0 -90 -24 -192z" />
<glyph unicode="&#xd9;" horiz-adv-x="1888" d="M-4 816q0 181 64 317q87 185 200 282q204 175 396 175q344 0 344 -262q0 -137 -44.5 -408t-44.5 -408q0 -115 8 -148q47 -192 212 -192q117 0 194 105q71 96 71 216v877q0 29 71 97q-32 1 -96 14.5t-96 13.5q-57 0 -120 -40h-12q0 4 1 9q77 72 126 100q18 12 68 38 q40 19 104 19q25 0 75 -10.5t75 -10.5h54v75h33v-69q8 -3 16 -3q36 0 109 30l9 -21q-21 -15 -134 -91v-1319h15q27 0 73 30h12q-10 -34 -55 -98q-15 -21 -45 -62v-186l-33 2v133l-5 1q-21 -20 -53 -20q-70 0 -125 125q-29 65 -43 131q-4 20 -15 69q-10 0 -12 -1 q-84 -131 -179 -218q-116 -106 -211 -106q-96 0 -143 52q-96 106 -96 319q0 41 4 123t4 123q0 68 -23 103q-14 21 -53.5 36.5t-68.5 15.5q-44 0 -96 -56q-4 3 -7 2q7 16 21 43q101 147 219 147q16 0 56 -5q28 55 28 254q0 147 -83.5 226t-230.5 79q-136 0 -255 -87 q-115 -84 -166 -214q-32 -81 -32 -178q0 -128 62 -186q41 -39 74 -39q15 0 43 14q5 -5 5 -12q0 -13 -34 -83.5t-46 -87.5q-18 -25 -48 -25q-49 0 -89 53q-35 46 -43.5 100t-8.5 97zM824 2212v12q5 11 19 11q10 0 95 -40q77 -37 100 -50q58 -33 91 -57q90 -224 182 -355 q-3 -3 -4 -8h-18q-63 0 -121 84l-45 66q-111 148 -211 259q-31 25 -88 78zM1551 558q1 -88 14 -161q17 -95 65 -160q4 -5 16 -15v1279l-5 -3q-90 -12 -90 -123q-4 -311 0 -817z" />
<glyph unicode="&#xda;" horiz-adv-x="1888" d="M-4 816q0 181 64 317q87 185 200 282q204 175 396 175q344 0 344 -262q0 -137 -44.5 -408t-44.5 -408q0 -115 8 -148q47 -192 212 -192q117 0 194 105q71 96 71 216v877q0 29 71 97q-32 1 -96 14.5t-96 13.5q-57 0 -120 -40h-12q0 4 1 9q77 72 126 100q18 12 68 38 q40 19 104 19q25 0 75 -10.5t75 -10.5h54v75h33v-69q8 -3 16 -3q36 0 109 30l9 -21q-21 -15 -134 -91v-1319h15q27 0 73 30h12q-10 -34 -55 -98q-15 -21 -45 -62v-186l-33 2v133l-5 1q-21 -20 -53 -20q-70 0 -125 125q-29 65 -43 131q-4 20 -15 69q-10 0 -12 -1 q-84 -131 -179 -218q-116 -106 -211 -106q-96 0 -143 52q-96 106 -96 319q0 41 4 123t4 123q0 68 -23 103q-14 21 -53.5 36.5t-68.5 15.5q-44 0 -96 -56q-4 3 -7 2q7 16 21 43q101 147 219 147q16 0 56 -5q28 55 28 254q0 147 -83.5 226t-230.5 79q-136 0 -255 -87 q-115 -84 -166 -214q-32 -81 -32 -178q0 -128 62 -186q41 -39 74 -39q15 0 43 14q5 -5 5 -12q0 -13 -34 -83.5t-46 -87.5q-18 -25 -48 -25q-49 0 -89 53q-35 46 -43.5 100t-8.5 97zM1122 1733q92 131 182 355q80 57 209 115q71 32 77 32q14 0 19 -11v-12q-26 -20 -88 -78 q-63 -65 -211 -259q-26 -44 -101 -129q-25 -21 -65 -21h-17q-2 3 -5 8zM1551 558q1 -88 14 -161q17 -95 65 -160q4 -5 16 -15v1279l-5 -3q-90 -12 -90 -123q-4 -311 0 -817z" />
<glyph unicode="&#xdb;" horiz-adv-x="1888" d="M-4 816q0 181 64 317q87 185 200 282q204 175 396 175q344 0 344 -262q0 -137 -44.5 -408t-44.5 -408q0 -115 8 -148q47 -192 212 -192q117 0 194 105q71 96 71 216v877q0 29 71 97q-32 1 -96 14.5t-96 13.5q-57 0 -120 -40h-12q0 4 1 9q77 72 126 100q18 12 68 38 q40 19 104 19q25 0 75 -10.5t75 -10.5h54v75h33v-69q8 -3 16 -3q36 0 109 30l9 -21q-21 -15 -134 -91v-1319h15q27 0 73 30h12q-10 -34 -55 -98q-15 -21 -45 -62v-186l-33 2v133l-5 1q-21 -20 -53 -20q-70 0 -125 125q-29 65 -43 131q-4 20 -15 69q-10 0 -12 -1 q-84 -131 -179 -218q-116 -106 -211 -106q-96 0 -143 52q-96 106 -96 319q0 41 4 123t4 123q0 68 -23 103q-14 21 -53.5 36.5t-68.5 15.5q-44 0 -96 -56q-4 3 -7 2q7 16 21 43q101 147 219 147q16 0 56 -5q28 55 28 254q0 147 -83.5 226t-230.5 79q-136 0 -255 -87 q-115 -84 -166 -214q-32 -81 -32 -178q0 -128 62 -186q41 -39 74 -39q15 0 43 14q5 -5 5 -12q0 -13 -34 -83.5t-46 -87.5q-18 -25 -48 -25q-49 0 -89 53q-35 46 -43.5 100t-8.5 97zM876 1729q84 119 189 371q23 54 47 109q91 -5 164 32q30 -76 59 -141q36 -82 92 -203 q53 -115 90 -168q-3 -3 -5 -8h-17q-63 0 -121 84q-71 103 -96 142q-52 81 -84 150q-53 -126 -131 -226q-25 -42 -101 -129q-25 -21 -65 -21h-17q-1 3 -4 8zM1551 558q1 -88 14 -161q17 -95 65 -160q4 -5 16 -15v1279l-5 -3q-90 -12 -90 -123q-4 -311 0 -817z" />
<glyph unicode="&#xdc;" horiz-adv-x="1888" d="M-4 816q0 181 64 317q87 185 200 282q204 175 396 175q344 0 344 -262q0 -137 -44.5 -408t-44.5 -408q0 -115 8 -148q47 -192 212 -192q117 0 194 105q71 96 71 216v877q0 29 71 97q-32 1 -96 14.5t-96 13.5q-57 0 -120 -40h-12q0 4 1 9q77 72 126 100q18 12 68 38 q40 19 104 19q25 0 75 -10.5t75 -10.5h54v75h33v-69q8 -3 16 -3q36 0 109 30l9 -21q-21 -15 -134 -91v-1319h15q27 0 73 30h12q-10 -34 -55 -98q-15 -21 -45 -62v-186l-33 2v133l-5 1q-21 -20 -53 -20q-70 0 -125 125q-29 65 -43 131q-4 20 -15 69q-10 0 -12 -1 q-84 -131 -179 -218q-116 -106 -211 -106q-96 0 -143 52q-96 106 -96 319q0 41 4 123t4 123q0 68 -23 103q-14 21 -53.5 36.5t-68.5 15.5q-44 0 -96 -56q-4 3 -7 2q7 16 21 43q101 147 219 147q16 0 56 -5q28 55 28 254q0 147 -83.5 226t-230.5 79q-136 0 -255 -87 q-115 -84 -166 -214q-32 -81 -32 -178q0 -128 62 -186q41 -39 74 -39q15 0 43 14q5 -5 5 -12q0 -13 -34 -83.5t-46 -87.5q-18 -25 -48 -25q-49 0 -89 53q-35 46 -43.5 100t-8.5 97zM772 1839q0 44 40 96q30 39 59 46q7 -52 30 -73q64 -57 144 -57q39 0 81 20q2 -2 5 -6 q-118 -137 -215 -137q-53 0 -96 28q-48 33 -48 83zM1207 1839q0 44 40 96q30 39 58 46q7 -52 31 -73q63 -57 144 -57q38 0 80 20q3 -2 6 -6q-118 -137 -215 -137q-53 0 -96 28q-48 33 -48 83zM1551 558q1 -88 14 -161q17 -95 65 -160q4 -5 16 -15v1279l-5 -3 q-90 -12 -90 -123q-4 -311 0 -817z" />
<glyph unicode="&#xdd;" horiz-adv-x="1702" d="M8 942q0 99 28 177q59 164 240 322q194 169 356 169q147 0 225 -111q69 -97 69 -250q0 -134 -79 -495q-47 -215 -47 -290q0 -94 46 -169q54 -87 142 -87q95 0 189 102q41 44 71 132q19 55 19 142v548q0 126 198 274q-76 7 -146 10q-61 3 -143 -36l-7 13q152 102 171 112 q58 30 141 30q16 -1 95 -6l97 -7q99 0 125 27q50 51 66 51h25v-26q0 -12 -58 -51t-76 -45q-60 -18 -179 -57q-103 -35 -128 -105.5t-25 -193.5v-830q0 -167 -50 -321q-38 -116 -164 -241q-111 -109 -246 -184q-63 -35 -181 -35q-81 0 -240 92q-184 106 -184 211q0 37 60 125 q57 83 88 103l22 -5q-2 -2 -27 -25q-14 -13 -14 -55q0 -88 109 -174q172 -136 380 -136q121 0 179 77q31 41 78 187q33 102 33 326q0 79 -6 115q1 0 -39 -48q-114 -134 -179 -187q-93 -75 -185 -75q-114 0 -167 120q-36 81 -36 184q0 64 25.5 189.5t25.5 186.5 q0 113 -151 113q-20 0 -38 -3q-6 0 -15 4q34 57 90 99q65 49 123 49q4 -2 42 -11q11 44 11 126q0 183 -63 260q-83 101 -237 101q-139 0 -233 -97t-94 -236q0 -62 15 -103q8 -22 38.5 -46.5t52.5 -24.5q3 0 10.5 1.5t12.5 1.5v-15q0 -19 -95 -139q-9 -12 -40 -12 q-55 0 -92 50q-34 45 -34 102zM1004 1720q92 131 182 355q80 57 209 115q71 32 77 32q14 0 19 -11v-12q-26 -20 -88 -78q-63 -65 -211 -259q-26 -44 -101 -129q-25 -21 -65 -21h-17q-2 3 -5 8z" />
<glyph unicode="&#xdf;" horiz-adv-x="909" d="M2 1070l53 111h129v127q0 112 -60 166q-22 9 -59 29v12q4 3 15 10q54 9 160 43q291 142 385 142q73 0 73 -46q0 -23 -28 -72q-30 -52 -49 -52l-24 47.5t-66 47.5q-44 0 -93 -32q-55 -36 -66 -86q-26 -117 -26 -244v-292l330 196h28q60 -51 75 -70q34 -43 34 -98 q0 -76 -56 -133q-37 -37 -124 -86v-24q213 -35 213 -191q0 -99 -114 -242t-114 -208q0 -52 49 -103q56 -59 137 -59q58 0 88 26q25 22 53 83h19q22 -21 22 -50q0 -100 -150 -100q-88 0 -163 47q-92 57 -92 155q0 84 54.5 250t54.5 250q0 103 -76 103q-35 0 -61 -29l-31 17 q135 135 135 239q0 75 -51 119l-260 -140v-680q78 -121 107 -121q4 0 22.5 9.5t22.5 11t7 1.5q3 -1 3 -5v-13q-170 -167 -199 -167q-59 0 -160 201q-5 9 -29 17v14q18 30 44 90q20 79 20 135v657h-78q-49 0 -82 -27z" />
<glyph unicode="&#xe0;" horiz-adv-x="882" d="M62 1799v12q5 11 19 11q10 0 95 -40q77 -37 100 -50q58 -33 91 -57q90 -224 182 -355q-3 -3 -4 -8h-18q-63 0 -121 84l-45 66q-111 148 -211 259q-31 25 -88 78zM86 173q44 65 44 125v293q0 15 -12 46q2 4 10 12q34 1 102 15q38 15 130 35q60 13 179 45v92 q-22 32 -118 100q-71 50 -142 73q-24 -17 -40 -31q-31 -26 -31 -95q0 -80 -30 -80q-47 0 -47 57q0 67 72 123q48 37 222 179l237 -153q35 -22 91 -36l1 -11q-43 -66 -43 -100v-488q0 -31 121 -198q12 -16 44 -15l5 -12l-175 -136q-31 29 -85 90q-21 29 -64 113 q-23 -15 -70 -55q-44 -48 -102 -97q-11 -9 -111 -80l-12 10q3 51 -62 111q-59 53 -114 68zM298 282l137 -133l104 88v474l-208 -55q-19 -67 -17 -153q3 -147 -16 -221z" />
<glyph unicode="&#xe1;" horiz-adv-x="882" d="M86 173q44 65 44 125v293q0 15 -12 46q2 4 10 12q34 1 102 15q38 15 130 35q60 13 179 45v92q-22 32 -118 100q-71 50 -142 73q-24 -17 -40 -31q-31 -26 -31 -95q0 -80 -30 -80q-47 0 -47 57q0 67 72 123q48 37 222 179l237 -153q35 -22 91 -36l1 -11q-43 -66 -43 -100 v-488q0 -31 121 -198q12 -16 44 -15l5 -12l-175 -136q-31 29 -85 90q-21 29 -64 113q-23 -15 -70 -55q-44 -48 -102 -97q-11 -9 -111 -80l-12 10q3 51 -62 111q-59 53 -114 68zM298 282l137 -133l104 88v474l-208 -55q-19 -67 -17 -153q3 -147 -16 -221zM355 1320 q92 131 182 355q80 57 209 115q71 32 77 32q14 0 19 -11v-12q-26 -20 -88 -78q-63 -65 -211 -259q-26 -44 -101 -129q-25 -21 -65 -21h-17q-2 3 -5 8z" />
<glyph unicode="&#xe2;" horiz-adv-x="882" d="M86 173q44 65 44 125v293q0 15 -12 46q2 4 10 12q34 1 102 15q38 15 130 35q60 13 179 45v92q-22 32 -118 100q-71 50 -142 73q-24 -17 -40 -31q-31 -26 -31 -95q0 -80 -30 -80q-47 0 -47 57q0 67 72 123q48 37 222 179l237 -153q35 -22 91 -36l1 -11q-43 -66 -43 -100 v-488q0 -31 121 -198q12 -16 44 -15l5 -12l-175 -136q-31 29 -85 90q-21 29 -64 113q-23 -15 -70 -55q-44 -48 -102 -97q-11 -9 -111 -80l-12 10q3 51 -62 111q-59 53 -114 68zM139 1320q84 119 189 371q23 54 47 109q91 -5 164 32q30 -76 59 -141q36 -82 92 -203 q53 -115 90 -168q-3 -3 -5 -8h-17q-63 0 -121 84q-71 103 -96 142q-52 81 -84 150q-53 -126 -131 -226q-25 -42 -101 -129q-25 -21 -65 -21h-17q-1 3 -4 8zM298 282l137 -133l104 88v474l-208 -55q-19 -67 -17 -153q3 -147 -16 -221z" />
<glyph unicode="&#xe3;" horiz-adv-x="882" d="M86 173q44 65 44 125v293q0 15 -12 46q2 4 10 12q34 1 102 15q38 15 130 35q60 13 179 45v92q-22 32 -118 100q-71 50 -142 73q-24 -17 -40 -31q-31 -26 -31 -95q0 -80 -30 -80q-47 0 -47 57q0 67 72 123q48 37 222 179l237 -153q35 -22 91 -36l1 -11q-43 -66 -43 -100 v-488q0 -31 121 -198q12 -16 44 -15l5 -12l-175 -136q-31 29 -85 90q-21 29 -64 113q-23 -15 -70 -55q-44 -48 -102 -97q-11 -9 -111 -80l-12 10q3 51 -62 111q-59 53 -114 68zM174 1384q55 83 88 134q78 122 137 122q18 0 105 -61q123 -86 159 -86t92 81l29 -23 q-44 -70 -101 -143q-45 -57 -109 -57q-58 0 -133 58q-91 71 -118 71q-43 0 -119 -123zM298 282l137 -133l104 88v474l-208 -55q-19 -67 -17 -153q3 -147 -16 -221z" />
<glyph unicode="&#xe4;" horiz-adv-x="882" d="M86 173q44 65 44 125v293q0 15 -12 46q2 4 10 12q34 1 102 15q38 15 130 35q60 13 179 45v92q-22 32 -118 100q-71 50 -142 73q-24 -17 -40 -31q-31 -26 -31 -95q0 -80 -30 -80q-47 0 -47 57q0 67 72 123q48 37 222 179l237 -153q35 -22 91 -36l1 -11q-43 -66 -43 -100 v-488q0 -31 121 -198q12 -16 44 -15l5 -12l-175 -136q-31 29 -85 90q-21 29 -64 113q-23 -15 -70 -55q-44 -48 -102 -97q-11 -9 -111 -80l-12 10q3 51 -62 111q-59 53 -114 68zM94 1470q0 44 40 96q30 39 59 46q7 -52 30 -73q64 -57 144 -57q39 0 81 20q2 -2 5 -6 q-118 -137 -215 -137q-53 0 -96 28q-48 33 -48 83zM298 282l137 -133l104 88v474l-208 -55q-19 -67 -17 -153q3 -147 -16 -221zM529 1470q0 44 40 96q30 39 58 46q7 -52 31 -73q63 -57 144 -57q38 0 80 20q3 -2 6 -6q-118 -137 -215 -137q-53 0 -96 28q-48 33 -48 83z" />
<glyph unicode="&#xe5;" horiz-adv-x="882" d="M86 173q44 65 44 125v293q0 15 -12 46q2 4 10 12q34 1 102 15q38 15 130 35q60 13 179 45v92q-22 32 -118 100q-71 50 -142 73q-24 -17 -40 -31q-31 -26 -31 -95q0 -80 -30 -80q-47 0 -47 57q0 67 72 123q48 37 222 179l237 -153q35 -22 91 -36l1 -11q-43 -66 -43 -100 v-488q0 -31 121 -198q12 -16 44 -15l5 -12l-175 -136q-31 29 -85 90q-21 29 -64 113q-23 -15 -70 -55q-44 -48 -102 -97q-11 -9 -111 -80l-12 10q3 51 -62 111q-59 53 -114 68zM211 1532q0 96 66 162t162 66t162.5 -66t66.5 -162t-66.5 -162.5t-162.5 -66.5t-162 66.5 t-66 162.5zM289 1532q0 -62 44 -106t106 -44t106 44t44 106t-44 106t-106 44t-106 -44t-44 -106zM298 282l137 -133l104 88v474l-208 -55q-19 -67 -17 -153q3 -147 -16 -221z" />
<glyph unicode="&#xe6;" horiz-adv-x="1090" d="M66 156q40 65 40 125v294q0 15 -13 53q37 1 118 19q35 14 130 35q52 12 177 44v102q-43 45 -117 92q-90 57 -142 73q-24 -17 -40 -31q-31 -26 -31 -96q0 -80 -30 -80q-46 0 -46 58q0 68 71 123q45 35 222 178l220 -141q41 18 79 39l105 75q95 67 124 67q43 0 58 -39 q49 -130 49 -187q0 -123 -188 -302q-19 -20 -56 -59q-47 -49 -58 -49h-10q-11 10 -11 22q0 21 58 53q10 6 29 29q62 77 62 190q0 31 -1 41q-3 28 -28 86q-34 80 -71 80q-18 0 -38 -21t-24 -40q-13 -58 -13 -118v-513q0 -78 129 -176q46 -35 67 -35q44 0 70 56q13 36 26 73 q9 14 28 14q32 0 32 -32q0 -43 -96 -116q-74 -53 -222 -161q-119 104 -207 206q-72 -72 -153 -140q-11 -9 -111 -80l-12 11q5 51 -62 110q-59 53 -114 68zM278 266l137 -134q43 36 56.5 57.5t26.5 75.5q20 82 20 149v280l-224 -60q-2 -60 0 -148q3 -147 -16 -220z" />
<glyph unicode="&#xe7;" horiz-adv-x="722" d="M87 179v24q0 3 15 33t17 40q8 40 8 64v499q0 7 -10 36t-10 35q0 15 327 246q13 9 35 9q36 0 110 -56q28 -21 70 -71q33 -39 33 -64q-5 -13 -34 -63q-43 -74 -53.5 -97.5t-22.5 -107.5h-12q-17 17 -17 44q0 12 4 37t4 37q0 23 -10 39q-31 51 -101 107q-78 63 -127 62 q-10 -7 -15 -22q-2 -31 -1 -46l17 -383q3 -66 -4 -163q-1 -14 -10.5 -47.5t-9.5 -42.5q0 -13 59 -57q24 -16 70 -50q56 -43 72 -43q10 0 79 54q79 62 103 75h15v-12q-33 -29 -97 -86q-60 -55 -81 -95q-14 -27 -136 -108l-42 -104q228 0 228 -134q0 -157 -252 -157 q-49 0 -112 21q-71 24 -95 57l84 61q53 -102 133 -102q49 0 82 30t33 78q0 109 -158 109l62 145q-16 15 -53 50q-132 122 -197 119z" />
<glyph unicode="&#xe8;" horiz-adv-x="695" d="M14 1799v12q5 11 19 11q10 0 95 -40q77 -37 100 -50q58 -33 91 -57q90 -224 182 -355q-3 -3 -4 -8h-18q-63 0 -121 84l-45 66q-111 148 -211 259q-31 25 -88 78zM77 177v14q0 3 12 34.5t14 38.5q20 83 20 149v466q0 19 -31 62q17 6 91 40q32 15 126 60l105 75 q95 67 124 67q44 0 58 -38q49 -131 49 -188q0 -123 -188 -302q-19 -20 -56 -59q-47 -49 -58 -49h-10q-11 10 -11 22q0 22 58 54q10 6 29 29q62 77 62 190q0 30 -1 40q-3 29 -28 87q-34 80 -71 80q-18 0 -38 -21.5t-24 -40.5q-7 -32 -7 -40v-391q0 -8 -6 -130q0 -9 -6 -28 t-6 -29q0 -42 21 -74q29 -45 120 -114q46 -35 67 -35q44 0 70 55q13 37 26 73q9 15 28 15q10 0 21 -11.5t11 -21.5q0 -43 -96 -116q-30 -23 -112 -80q-14 -10 -110 -81q-56 46 -165 148q-15 24 -46 63q-12 -5 -42 -13z" />
<glyph unicode="&#xe9;" horiz-adv-x="695" d="M77 177v14q0 3 12 34.5t14 38.5q20 83 20 149v466q0 19 -31 62q17 6 91 40q32 15 126 60l105 75q95 67 124 67q44 0 58 -38q49 -131 49 -188q0 -123 -188 -302q-19 -20 -56 -59q-47 -49 -58 -49h-10q-11 10 -11 22q0 22 58 54q10 6 29 29q62 77 62 190q0 30 -1 40 q-3 29 -28 87q-34 80 -71 80q-18 0 -38 -21.5t-24 -40.5q-7 -32 -7 -40v-391q0 -8 -6 -130q0 -9 -6 -28t-6 -29q0 -42 21 -74q29 -45 120 -114q46 -35 67 -35q44 0 70 55q13 37 26 73q9 15 28 15q10 0 21 -11.5t11 -21.5q0 -43 -96 -116q-30 -23 -112 -80q-14 -10 -110 -81 q-56 46 -165 148q-15 24 -46 63q-12 -5 -42 -13zM313 1320q92 131 182 355q80 57 209 115q71 32 77 32q14 0 19 -11v-12q-26 -20 -88 -78q-63 -65 -211 -259q-26 -44 -101 -129q-25 -21 -65 -21h-17q-2 3 -5 8z" />
<glyph unicode="&#xea;" horiz-adv-x="695" d="M77 177v14q0 3 12 34.5t14 38.5q20 83 20 149v466q0 19 -31 62q17 6 91 40q32 15 126 60l105 75q95 67 124 67q44 0 58 -38q49 -131 49 -188q0 -123 -188 -302q-19 -20 -56 -59q-47 -49 -58 -49h-10q-11 10 -11 22q0 22 58 54q10 6 29 29q62 77 62 190q0 30 -1 40 q-3 29 -28 87q-34 80 -71 80q-18 0 -38 -21.5t-24 -40.5q-7 -32 -7 -40v-391q0 -8 -6 -130q0 -9 -6 -28t-6 -29q0 -42 21 -74q29 -45 120 -114q46 -35 67 -35q44 0 70 55q13 37 26 73q9 15 28 15q10 0 21 -11.5t11 -21.5q0 -43 -96 -116q-30 -23 -112 -80q-14 -10 -110 -81 q-56 46 -165 148q-15 24 -46 63q-12 -5 -42 -13zM88 1320q84 119 189 371q23 54 47 109q91 -5 164 32q30 -76 59 -141q36 -82 92 -203q53 -115 90 -168q-3 -3 -5 -8h-17q-63 0 -121 84q-71 103 -96 142q-52 81 -84 150q-53 -126 -131 -226q-25 -42 -101 -129 q-25 -21 -65 -21h-17q-1 3 -4 8z" />
<glyph unicode="&#xeb;" horiz-adv-x="695" d="M39 1470q0 44 40 96q30 39 59 46q7 -52 30 -73q64 -57 144 -57q39 0 81 20q2 -2 5 -6q-118 -137 -215 -137q-53 0 -96 28q-48 33 -48 83zM77 177v14q0 3 12 34.5t14 38.5q20 83 20 149v466q0 19 -31 62q17 6 91 40q32 15 126 60l105 75q95 67 124 67q44 0 58 -38 q49 -131 49 -188q0 -123 -188 -302q-19 -20 -56 -59q-47 -49 -58 -49h-10q-11 10 -11 22q0 22 58 54q10 6 29 29q62 77 62 190q0 30 -1 40q-3 29 -28 87q-34 80 -71 80q-18 0 -38 -21.5t-24 -40.5q-7 -32 -7 -40v-391q0 -8 -6 -130q0 -9 -6 -28t-6 -29q0 -42 21 -74 q29 -45 120 -114q46 -35 67 -35q44 0 70 55q13 37 26 73q9 15 28 15q10 0 21 -11.5t11 -21.5q0 -43 -96 -116q-30 -23 -112 -80q-14 -10 -110 -81q-56 46 -165 148q-15 24 -46 63q-12 -5 -42 -13zM474 1470q0 44 40 96q30 39 58 46q7 -52 31 -73q63 -57 144 -57q38 0 80 20 q3 -2 6 -6q-118 -137 -215 -137q-53 0 -96 28q-48 33 -48 83z" />
<glyph unicode="&#xec;" horiz-adv-x="510" d="M-34 1799v12q5 11 19 11q10 0 95 -40q77 -37 100 -50q58 -33 91 -57q90 -224 182 -355q-3 -3 -4 -8h-18q-63 0 -121 84l-45 66q-111 148 -211 259q-31 25 -88 78zM62 1023v15q22 13 62 42q94 82 112 82t61 -60q17 -25 53 -76q10 0 32 -4q0 -6 -6 -18l-9 -19 q-1 -2 -16 -41q-7 -18 -7 -29v-620q0 -29 18 -60q10 -17 37 -41q33 -29 53 -29q15 0 34 7q3 -5 8 -13q-34 -41 -85 -86q-74 -65 -114 -65q-55 0 -103 83q-52 90 -52 101q31 125 31 142v496q0 30 -22 82q-19 45 -33 60q-19 17 -54 51z" />
<glyph unicode="&#xed;" horiz-adv-x="510" d="M62 1023v15q22 13 62 42q94 82 112 82t61 -60q17 -25 53 -76q10 0 32 -4q0 -6 -6 -18l-9 -19q-1 -2 -16 -41q-7 -18 -7 -29v-620q0 -29 18 -60q10 -17 37 -41q33 -29 53 -29q15 0 34 7q3 -5 8 -13q-34 -41 -85 -86q-74 -65 -114 -65q-55 0 -103 83q-52 90 -52 101 q31 125 31 142v496q0 30 -22 82q-19 45 -33 60q-19 17 -54 51zM204 1320q92 131 182 355q80 57 209 115q71 32 77 32q14 0 19 -11v-12q-26 -20 -88 -78q-63 -65 -211 -259q-26 -44 -101 -129q-25 -21 -65 -21h-17q-2 3 -5 8z" />
<glyph unicode="&#xee;" horiz-adv-x="510" d="M-28 1320q84 119 189 371q23 54 47 109q91 -5 164 32q30 -76 59 -141q36 -82 92 -203q53 -115 90 -168q-3 -3 -5 -8h-17q-63 0 -121 84q-71 103 -96 142q-52 81 -84 150q-53 -126 -131 -226q-25 -42 -101 -129q-25 -21 -65 -21h-17q-1 3 -4 8zM62 1023v15q22 13 62 42 q94 82 112 82t61 -60q17 -25 53 -76q10 0 32 -4q0 -6 -6 -18l-9 -19q-1 -2 -16 -41q-7 -18 -7 -29v-620q0 -29 18 -60q10 -17 37 -41q33 -29 53 -29q15 0 34 7q3 -5 8 -13q-34 -41 -85 -86q-74 -65 -114 -65q-55 0 -103 83q-52 90 -52 101q31 125 31 142v496q0 30 -22 82 q-19 45 -33 60q-19 17 -54 51z" />
<glyph unicode="&#xef;" horiz-adv-x="510" d="M-74 1470q0 44 40 96q30 39 59 46q7 -52 30 -73q64 -57 144 -57q39 0 81 20q2 -2 5 -6q-118 -137 -215 -137q-53 0 -96 28q-48 33 -48 83zM62 1023v15q22 13 62 42q94 82 112 82t61 -60q17 -25 53 -76q10 0 32 -4q0 -6 -6 -18l-9 -19q-1 -2 -16 -41q-7 -18 -7 -29v-620 q0 -29 18 -60q10 -17 37 -41q33 -29 53 -29q15 0 34 7q3 -5 8 -13q-34 -41 -85 -86q-74 -65 -114 -65q-55 0 -103 83q-52 90 -52 101q31 125 31 142v496q0 30 -22 82q-19 45 -33 60q-19 17 -54 51zM361 1470q0 44 40 96q30 39 58 46q7 -52 31 -73q63 -57 144 -57q38 0 80 20 q3 -2 6 -6q-118 -137 -215 -137q-53 0 -96 28q-48 33 -48 83z" />
<glyph unicode="&#xf1;" horiz-adv-x="930" d="M1 1008q6 7 21 23q63 55 116 107q33 32 41 32q30 0 88 -85q49 -72 59 -103q9 -13 17 -35q42 40 127 120q91 86 119 86q25 0 91 -77q23 -27 69 -83q14 7 37 17v-663q0 -65 50 -126q45 -54 78 -54q-9 0 35 6v-12q0 -25 -170 -153q-11 -8 -23 -8q-42 0 -83 96l-3 7 q-36 85 -84 88v21q0 -12 29 46q6 12 6 40v459q0 35 -10 62q-20 55 -56 95q-66 74 -111 74q-26 0 -65 -58q-33 -49 -35 -64v-562q0 -52 42 -108q47 -60 97 -53q0 -5 -4 -16q-31 -26 -92 -77q-69 -57 -79 -57q-17 0 -32 18q-6 7 -69 112q-26 43 -56 65q-1 4 -1 11q0 6 6 27.5 t7 27.5q12 74 12 64v498q0 44 -46 116q-49 76 -88 76q-8 0 -28 -15zM206 1384q55 83 88 134q78 122 137 122q18 0 105 -61q123 -86 159 -86t92 81l29 -23q-44 -70 -101 -143q-45 -57 -109 -57q-58 0 -133 58q-91 71 -118 71q-43 0 -119 -123z" />
<glyph unicode="&#xf2;" horiz-adv-x="765" d="M87 166q8 12 23 67q12 71 12 157v500q0 9 -6 32q-3 13 3 23q20 30 71 67q26 18 78 56q38 30 126 107l13 5q13 0 20 -9q18 -24 92 -65t102 -41h16q26 -1 20 -1q12 -7 12 -18q0 26 -5.5 -32.5t-5.5 -76.5v-565q0 -10 20 -41q-51 -62 -170 -176q-184 -176 -219 -176 q-55 0 -171 174h-27q-4 5 -4 13zM109 1799v12q5 11 19 11q10 0 95 -40q77 -37 100 -50q58 -33 91 -57q90 -224 182 -355q-3 -3 -4 -8h-18q-63 0 -121 84l-45 66q-111 148 -211 259q-31 25 -88 78zM277 372q0 -116 94 -191q50 -40 63 -40q65 0 65 139v628q-102 38 -222 126 v-662z" />
<glyph unicode="&#xf3;" horiz-adv-x="765" d="M87 166q8 12 23 67q12 71 12 157v500q0 9 -6 32q-3 13 3 23q20 30 71 67q26 18 78 56q38 30 126 107l13 5q13 0 20 -9q18 -24 92 -65t102 -41h16q26 -1 20 -1q12 -7 12 -18q0 26 -5.5 -32.5t-5.5 -76.5v-565q0 -10 20 -41q-51 -62 -170 -176q-184 -176 -219 -176 q-55 0 -171 174h-27q-4 5 -4 13zM277 372q0 -116 94 -191q50 -40 63 -40q65 0 65 139v628q-102 38 -222 126v-662zM331 1320q92 131 182 355q80 57 209 115q71 32 77 32q14 0 19 -11v-12q-26 -20 -88 -78q-63 -65 -211 -259q-26 -44 -101 -129q-25 -21 -65 -21h-17 q-2 3 -5 8z" />
<glyph unicode="&#xf4;" horiz-adv-x="765" d="M87 166q8 12 23 67q12 71 12 157v500q0 9 -6 32q-3 13 3 23q20 30 71 67q26 18 78 56q38 30 126 107l13 5q13 0 20 -9q18 -24 92 -65t102 -41h16q26 -1 20 -1q12 -7 12 -18q0 26 -5.5 -32.5t-5.5 -76.5v-565q0 -10 20 -41q-51 -62 -170 -176q-184 -176 -219 -176 q-55 0 -171 174h-27q-4 5 -4 13zM87 1320q84 119 189 371q23 54 47 109q91 -5 164 32q30 -76 59 -141q36 -82 92 -203q53 -115 90 -168q-3 -3 -5 -8h-17q-63 0 -121 84q-71 103 -96 142q-52 81 -84 150q-53 -126 -131 -226q-25 -42 -101 -129q-25 -21 -65 -21h-17q-1 3 -4 8 zM277 372q0 -116 94 -191q50 -40 63 -40q65 0 65 139v628q-102 38 -222 126v-662z" />
<glyph unicode="&#xf5;" horiz-adv-x="765" d="M86 1384q55 83 88 134q78 122 137 122q18 0 105 -61q123 -86 159 -86t92 81l29 -23q-44 -70 -101 -143q-45 -57 -109 -57q-58 0 -133 58q-91 71 -118 71q-43 0 -119 -123zM87 166q8 12 23 67q12 71 12 157v500q0 9 -6 32q-3 13 3 23q20 30 71 67q26 18 78 56 q38 30 126 107l13 5q13 0 20 -9q18 -24 92 -65t102 -41h16q26 -1 20 -1q12 -7 12 -18q0 26 -5.5 -32.5t-5.5 -76.5v-565q0 -10 20 -41q-51 -62 -170 -176q-184 -176 -219 -176q-55 0 -171 174h-27q-4 5 -4 13zM277 372q0 -116 94 -191q50 -40 63 -40q65 0 65 139v628 q-102 38 -222 126v-662z" />
<glyph unicode="&#xf6;" horiz-adv-x="765" d="M35 1470q0 44 40 96q30 39 59 46q7 -52 30 -73q64 -57 144 -57q39 0 81 20q2 -2 5 -6q-118 -137 -215 -137q-53 0 -96 28q-48 33 -48 83zM87 166q8 12 23 67q12 71 12 157v500q0 9 -6 32q-3 13 3 23q20 30 71 67q26 18 78 56q38 30 126 107l13 5q13 0 20 -9 q18 -24 92 -65t102 -41h16q26 -1 20 -1q12 -7 12 -18q0 26 -5.5 -32.5t-5.5 -76.5v-565q0 -10 20 -41q-51 -62 -170 -176q-184 -176 -219 -176q-55 0 -171 174h-27q-4 5 -4 13zM277 372q0 -116 94 -191q50 -40 63 -40q65 0 65 139v628q-102 38 -222 126v-662zM470 1470 q0 44 40 96q30 39 58 46q7 -52 31 -73q63 -57 144 -57q38 0 80 20q3 -2 6 -6q-118 -137 -215 -137q-53 0 -96 28q-48 33 -48 83z" />
<glyph unicode="&#xf8;" horiz-adv-x="765" d="M-122 -108q40 54 140 197l88 130l4 14q12 71 12 157v500q0 9 -6 32q-3 13 3 23q20 30 71 67q26 18 78 56q38 30 126 107l13 5q13 0 20 -9q18 -24 92 -65t102 -41h16q7 0 19 -1q43 71 100 169l104 72q-53 -100 -202 -348v-20v-565q0 -10 20 -41q-51 -62 -170 -176 q-184 -176 -219 -176q-53 0 -164 164l-42 -63q-51 -77 -89 -132zM277 372q0 -116 94 -191q50 -40 63 -40q65 0 65 139v434zM277 469q94 138 222 341v98q-102 38 -222 126v-565z" />
<glyph unicode="&#xf9;" horiz-adv-x="1017" d="M88 1014q0 12 67 67q93 76 110 76q8 -3 30 -20q53 -41 63 -84q2 -8 2 -74v-674q0 -21 41 -63q93 -95 139 -95q47 0 61 33q30 70 30 173v578q0 41 -77 81v18q7 10 78 70q76 64 90 64q46 0 128 -134q-41 -37 -41 -92v-552q0 -15 7 -63q11 -73 71 -130q12 -13 42 -42 q34 -31 50 -31q17 0 54 40l15 -15q-20 -21 -165 -142q-24 -20 -40 -20q-46 0 -103 47q-51 42 -73 88l-28 60l-124 -112q-96 -86 -119 -86q-37 0 -90 55q-29 32 -89 94q-28 28 -51 35q21 98 21 162v540q0 46 -21 86q-25 49 -67 50q-11 4 -11 12zM134 1799v12q5 11 19 11 q10 0 95 -40q77 -37 100 -50q58 -33 91 -57q90 -224 182 -355q-3 -3 -4 -8h-18q-63 0 -121 84l-45 66q-111 148 -211 259q-31 25 -88 78z" />
<glyph unicode="&#xfa;" horiz-adv-x="1017" d="M88 1014q0 12 67 67q93 76 110 76q8 -3 30 -20q53 -41 63 -84q2 -8 2 -74v-674q0 -21 41 -63q93 -95 139 -95q47 0 61 33q30 70 30 173v578q0 41 -77 81v18q7 10 78 70q76 64 90 64q46 0 128 -134q-41 -37 -41 -92v-552q0 -15 7 -63q11 -73 71 -130q12 -13 42 -42 q34 -31 50 -31q17 0 54 40l15 -15q-20 -21 -165 -142q-24 -20 -40 -20q-46 0 -103 47q-51 42 -73 88l-28 60l-124 -112q-96 -86 -119 -86q-37 0 -90 55q-29 32 -89 94q-28 28 -51 35q21 98 21 162v540q0 46 -21 86q-25 49 -67 50q-11 4 -11 12zM403 1320q92 131 182 355 q80 57 209 115q71 32 77 32q14 0 19 -11v-12q-26 -20 -88 -78q-63 -65 -211 -259q-26 -44 -101 -129q-25 -21 -65 -21h-17q-2 3 -5 8z" />
<glyph unicode="&#xfb;" horiz-adv-x="1017" d="M88 1014q0 12 67 67q93 76 110 76q8 -3 30 -20q53 -41 63 -84q2 -8 2 -74v-674q0 -21 41 -63q93 -95 139 -95q47 0 61 33q30 70 30 173v578q0 41 -77 81v18q7 10 78 70q76 64 90 64q46 0 128 -134q-41 -37 -41 -92v-552q0 -15 7 -63q11 -73 71 -130q12 -13 42 -42 q34 -31 50 -31q17 0 54 40l15 -15q-20 -21 -165 -142q-24 -20 -40 -20q-46 0 -103 47q-51 42 -73 88l-28 60l-124 -112q-96 -86 -119 -86q-37 0 -90 55q-29 32 -89 94q-28 28 -51 35q21 98 21 162v540q0 46 -21 86q-25 49 -67 50q-11 4 -11 12zM182 1320q84 119 189 371 q23 54 47 109q91 -5 164 32q30 -76 59 -141q36 -82 92 -203q53 -115 90 -168q-3 -3 -5 -8h-17q-63 0 -121 84q-71 103 -96 142q-52 81 -84 150q-53 -126 -131 -226q-25 -42 -101 -129q-25 -21 -65 -21h-17q-1 3 -4 8z" />
<glyph unicode="&#xfc;" horiz-adv-x="1017" d="M88 1014q0 12 67 67q93 76 110 76q8 -3 30 -20q53 -41 63 -84q2 -8 2 -74v-674q0 -21 41 -63q93 -95 139 -95q47 0 61 33q30 70 30 173v578q0 41 -77 81v18q7 10 78 70q76 64 90 64q46 0 128 -134q-41 -37 -41 -92v-552q0 -15 7 -63q11 -73 71 -130q12 -13 42 -42 q34 -31 50 -31q17 0 54 40l15 -15q-20 -21 -165 -142q-24 -20 -40 -20q-46 0 -103 47q-51 42 -73 88l-28 60l-124 -112q-96 -86 -119 -86q-37 0 -90 55q-29 32 -89 94q-28 28 -51 35q21 98 21 162v540q0 46 -21 86q-25 49 -67 50q-11 4 -11 12zM160 1470q0 44 40 96 q30 39 59 46q7 -52 30 -73q64 -57 144 -57q39 0 81 20q2 -2 5 -6q-118 -137 -215 -137q-53 0 -96 28q-48 33 -48 83zM595 1470q0 44 40 96q30 39 58 46q7 -52 31 -73q63 -57 144 -57q38 0 80 20q3 -2 6 -6q-118 -137 -215 -137q-53 0 -96 28q-48 33 -48 83z" />
<glyph unicode="&#xfd;" horiz-adv-x="948" d="M17 -305q0 68 73 173q23 33 39 35q7 -5 7 -12q-12 -53 -6 -72q29 -88 111 -138q77 -47 174 -47q131 0 202 85q66 78 66 211q0 57 -31 216q-6 31 -22 63q-13 -12 -128 -120q-79 -74 -125 -74q-60 0 -130 65q-33 32 -101 96v12q35 40 35 142v493q0 57 -27 105 q-34 60 -93 64q0 13 4 19q105 151 151 151q26 0 40.5 -11.5t61.5 -78.5q52 -74 52 -92l-12 -51q-13 -52 -13 -79q1 -145 0 -544q0 -17 16 -33q107 -105 166 -105q96 0 96 268l1 489v16q-1 25 -1 20q-55 51 -77 51q-4 0 -12.5 -1.5t-12.5 -1.5q-1 3 -4 7q0 18 70 83 q74 69 107 69q15 0 47 -19q45 -27 54 -31q48 -21 81 -21q24 0 52.5 13.5t29.5 13.5h13q5 -4 8 -4v-15q-50 -52 -183 -160q-11 -27 -11 -37v-513q0 -46 29 -150.5t29 -151.5q0 -90 -28 -158q-60 -146 -248 -298q-160 -129 -326 -129q-85 0 -151 50q-73 55 -73 137zM404 1320 q92 131 182 355q80 57 209 115q71 32 77 32q14 0 19 -11v-12q-26 -20 -88 -78q-63 -65 -211 -259q-26 -44 -101 -129q-25 -21 -65 -21h-17q-2 3 -5 8z" />
<glyph unicode="&#xff;" horiz-adv-x="948" d="M17 -305q0 68 73 173q23 33 39 35q7 -5 7 -12q-12 -53 -6 -72q29 -88 111 -138q77 -47 174 -47q131 0 202 85q66 78 66 211q0 57 -31 216q-6 31 -22 63q-13 -12 -128 -120q-79 -74 -125 -74q-60 0 -130 65q-33 32 -101 96v12q35 40 35 142v493q0 57 -27 105 q-34 60 -93 64q0 13 4 19q105 151 151 151q26 0 40.5 -11.5t61.5 -78.5q52 -74 52 -92l-12 -51q-13 -52 -13 -79q1 -145 0 -544q0 -17 16 -33q107 -105 166 -105q96 0 96 268l1 489v16q-1 25 -1 20q-55 51 -77 51q-4 0 -12.5 -1.5t-12.5 -1.5q-1 3 -4 7q0 18 70 83 q74 69 107 69q15 0 47 -19q45 -27 54 -31q48 -21 81 -21q24 0 52.5 13.5t29.5 13.5h13q5 -4 8 -4v-15q-50 -52 -183 -160q-11 -27 -11 -37v-513q0 -46 29 -150.5t29 -151.5q0 -90 -28 -158q-60 -146 -248 -298q-160 -129 -326 -129q-85 0 -151 50q-73 55 -73 137zM130 1470 q0 44 40 96q30 39 59 46q7 -52 30 -73q64 -57 144 -57q39 0 81 20q2 -2 5 -6q-118 -137 -215 -137q-53 0 -96 28q-48 33 -48 83zM565 1470q0 44 40 96q30 39 58 46q7 -52 31 -73q63 -57 144 -57q38 0 80 20q3 -2 6 -6q-118 -137 -215 -137q-53 0 -96 28q-48 33 -48 83z" />
<glyph unicode="&#x152;" horiz-adv-x="2005" d="M104 767q0 363 216 583q40 41 204 164q8 6 49 22q5 -4 14 -12v-11q0 -11 -72 -43q-27 -12 -62.5 -52.5t-47.5 -71.5q-22 -42 -55 -126q-52 -200 -52 -346q0 -179 51 -294q67 -151 248 -275q141 -97 278 -124v13q0 14 52 59t72.5 50t65 14.5t67.5 44.5q52 79 52 261 q0 104 -19 153q-32 84 -129 84q-29 0 -62 -10q-4 9 -3 12q91 151 188 151q12 0 33 -4q6 -1 6 7v139q-97 112 -219 161q-18 7 -56 22q6 -47 6 -87q0 -101 -38 -240q-33 -122 -78 -208q-17 -35 -52 -103.5t-77 -108.5q-72 -68 -109 -71q-38 -3 -38 13q0 8 19 41q17 29 57 80 q26 25 79 57q42 25 69 65q40 58 59 178q6 37 6 113q0 151 -25 267q-4 21 -32 74q-24 46 -24 72q0 33 50 102q48 65 81 83q-3 -67 159 -158q64 -37 128 -75q84 -46 132 -59q31 52 79 90q94 74 104 80q62 41 121 41q47 0 155.5 -30.5t167.5 -30.5q47 0 94 20h11q4 -4 4 -12 q0 -13 -104 -104q-42 -37 -94 -53q-26 -8 -71 -8t-154 34t-163 34q-60 0 -80 -30q-14 -21 -14 -75q0 -44 4 -449q26 24 79 91v422h36v-405q22 -6 35 -4q30 5 184 5q100 0 150 17h11q4 -1 4 -9q-3 -11 -20 -48q-34 -75 -52 -147q-17 15 -39 33q-11 9 -20 10q-32 4 -51 4h-202 v-666q115 -24 153 -24q121 0 263 91h12v-15q0 -11 -90 -85q-172 -141 -333 -144l-5 -4v-115h-36v116l-7 5q-95 11 -366 115q-151 -100 -239 -100q-17 0 -37 2q-175 17 -302 95q-111 67 -235 214q-67 79 -107 204q-37 117 -37 229zM1123 309q17 -14 144.5 -63.5t146.5 -49.5 l20 -5v658h-34q-44 0 -52 -16q-4 -8 -7 -64q-8 -154 -20 -204q-37 -158 -198 -256z" />
<glyph unicode="&#x153;" horiz-adv-x="1080" d="M97 166q8 12 23 67q10 59 10 157v500q0 6 -5 32q-2 13 4 23q20 30 71 67q26 18 78 56q38 30 126 107l13 5q13 0 20 -9q32 -42 109 -80q41 -20 124 -61q8 3 23 13l105 75q95 67 124 67q43 0 58 -39q49 -130 49 -187q0 -124 -187 -302q-19 -20 -56 -59q-47 -49 -58 -49h-11 q-11 10 -11 22q0 20 59 53q10 6 29 29q62 77 62 190q0 32 -1 41q-3 29 -28 86q-35 80 -72 80q-18 0 -38 -21t-24 -40q-6 -27 -6 -40v-392q0 -29 -3 -93q-2 -60 -2 -93q1 -54 8 -75q11 -32 119 -114q46 -35 67 -35q46 0 70 56q7 16 27 73q9 14 28 14q32 0 32 -32 q0 -43 -96 -116q-44 -34 -112 -81q-34 -24 -110 -80q-58 47 -166 147q-5 6 -23 34q-28 -25 -117 -104t-109 -79q-55 0 -171 174h-28q-4 5 -4 13zM288 372q0 -117 93 -191q50 -40 63 -40q32 0 49 47q15 110 15 226v466q0 12 -12 33q-92 36 -208 121v-662z" />
<glyph unicode="&#x178;" horiz-adv-x="1702" d="M8 942q0 99 28 177q59 164 240 322q194 169 356 169q147 0 225 -111q69 -97 69 -250q0 -134 -79 -495q-47 -215 -47 -290q0 -94 46 -169q54 -87 142 -87q95 0 189 102q41 44 71 132q19 55 19 142v548q0 126 198 274q-76 7 -146 10q-61 3 -143 -36l-7 13q152 102 171 112 q58 30 141 30q16 -1 95 -6l97 -7q99 0 125 27q50 51 66 51h25v-26q0 -12 -58 -51t-76 -45q-60 -18 -179 -57q-103 -35 -128 -105.5t-25 -193.5v-830q0 -167 -50 -321q-38 -116 -164 -241q-111 -109 -246 -184q-63 -35 -181 -35q-81 0 -240 92q-184 106 -184 211q0 37 60 125 q57 83 88 103l22 -5q-2 -2 -27 -25q-14 -13 -14 -55q0 -88 109 -174q172 -136 380 -136q121 0 179 77q31 41 78 187q33 102 33 326q0 79 -6 115q1 0 -39 -48q-114 -134 -179 -187q-93 -75 -185 -75q-114 0 -167 120q-36 81 -36 184q0 64 25.5 189.5t25.5 186.5 q0 113 -151 113q-20 0 -38 -3q-6 0 -15 4q34 57 90 99q65 49 123 49q4 -2 42 -11q11 44 11 126q0 183 -63 260q-83 101 -237 101q-139 0 -233 -97t-94 -236q0 -62 15 -103q8 -22 38.5 -46.5t52.5 -24.5q3 0 10.5 1.5t12.5 1.5v-15q0 -19 -95 -139q-9 -12 -40 -12 q-55 0 -92 50q-34 45 -34 102zM733 1838q0 44 40 96q30 39 59 46q7 -52 30 -73q64 -57 144 -57q39 0 81 20q2 -2 5 -6q-118 -137 -215 -137q-53 0 -96 28q-48 33 -48 83zM1168 1838q0 44 40 96q30 39 58 46q7 -52 31 -73q63 -57 144 -57q38 0 80 20q3 -2 6 -6 q-118 -137 -215 -137q-53 0 -96 28q-48 33 -48 83z" />
<glyph unicode="&#x2c6;" horiz-adv-x="672" d="M16 1320q84 119 189 371q23 54 47 109q91 -5 164 32q30 -76 59 -141q36 -82 92 -203q53 -115 90 -168q-3 -3 -5 -8h-17q-63 0 -121 84q-71 103 -96 142q-52 81 -84 150q-53 -126 -131 -226q-25 -42 -101 -129q-25 -21 -65 -21h-17q-1 3 -4 8z" />
<glyph unicode="&#x2dc;" horiz-adv-x="645" d="M18 1384q55 83 88 134q78 122 137 122q18 0 105 -61q123 -86 159 -86t92 81l29 -23q-44 -70 -101 -143q-45 -57 -109 -57q-58 0 -133 58q-91 71 -118 71q-43 0 -119 -123z" />
<glyph unicode="&#x2000;" horiz-adv-x="1120" />
<glyph unicode="&#x2001;" horiz-adv-x="2241" />
<glyph unicode="&#x2002;" horiz-adv-x="1120" />
<glyph unicode="&#x2003;" horiz-adv-x="2241" />
<glyph unicode="&#x2004;" horiz-adv-x="747" />
<glyph unicode="&#x2005;" horiz-adv-x="560" />
<glyph unicode="&#x2006;" horiz-adv-x="373" />
<glyph unicode="&#x2007;" horiz-adv-x="373" />
<glyph unicode="&#x2008;" horiz-adv-x="280" />
<glyph unicode="&#x2009;" horiz-adv-x="448" />
<glyph unicode="&#x200a;" horiz-adv-x="124" />
<glyph unicode="&#x2010;" horiz-adv-x="850" d="M53 466q60 104 90 137q63 71 140 68l291 -13q154 -7 223 74v-19q-113 -141 -141 -165q-53 -45 -129 -40l-301 20q-61 4 -96 -15q-28 -15 -72 -66q-1 6 -5 19z" />
<glyph unicode="&#x2011;" horiz-adv-x="850" d="M53 466q60 104 90 137q63 71 140 68l291 -13q154 -7 223 74v-19q-113 -141 -141 -165q-53 -45 -129 -40l-301 20q-61 4 -96 -15q-28 -15 -72 -66q-1 6 -5 19z" />
<glyph unicode="&#x2012;" horiz-adv-x="850" d="M53 466q60 104 90 137q63 71 140 68l291 -13q154 -7 223 74v-19q-113 -141 -141 -165q-53 -45 -129 -40l-301 20q-61 4 -96 -15q-28 -15 -72 -66q-1 6 -5 19z" />
<glyph unicode="&#x2013;" horiz-adv-x="1167" d="M104 466q59 102 90 137q63 70 140 68l506 -13q156 -4 223 74v-19q-110 -137 -141 -163q-53 -45 -129 -42l-516 20q-60 2 -96 -16q-29 -15 -72 -65q-1 6 -5 19z" />
<glyph unicode="&#x2014;" horiz-adv-x="1485" d="M104 466q59 103 90 137q62 69 140 68l824 -13q74 -1 102 4q73 14 121 70v-19q-110 -137 -141 -163q-52 -44 -129 -42l-834 20q-65 2 -97 -16q-26 -14 -71 -65q-1 6 -5 19z" />
<glyph unicode="&#x2018;" horiz-adv-x="500" d="M119 1399q0 60 39.5 126t92.5 96q26 -19 130 -80q-122 -99 -122 -269q0 -71 38 -152l-17 -9q-161 222 -161 288z" />
<glyph unicode="&#x2019;" horiz-adv-x="500" d="M119 1541q51 30 130 80q53 -30 92.5 -96t39.5 -126q0 -66 -161 -288l-17 9q38 81 38 152q0 170 -122 269z" />
<glyph unicode="&#x201c;" horiz-adv-x="800" d="M79 1399q0 60 39.5 126t92.5 96q26 -19 130 -80q-121 -98 -121 -269q0 -73 37 -152l-17 -9q-161 222 -161 288zM459 1399q0 60 39 126t92 96q22 -16 131 -80q-122 -99 -122 -269q0 -73 37 -152l-16 -9q-161 222 -161 288z" />
<glyph unicode="&#x201d;" horiz-adv-x="800" d="M79 1541q51 30 131 80q53 -30 92 -96t39 -126q0 -66 -161 -288l-16 9q37 79 37 152q0 170 -122 269zM459 1541q51 30 130 80q53 -30 92.5 -96t39.5 -126q0 -66 -161 -288l-17 9q37 79 37 152q0 171 -121 269z" />
<glyph unicode="&#x2022;" horiz-adv-x="1024" d="M239 643q0 114 79.5 193.5t193.5 79.5t193.5 -79.5t79.5 -193.5t-79.5 -194t-193.5 -80t-193.5 80t-79.5 194z" />
<glyph unicode="&#x2026;" horiz-adv-x="1500" d="M73 75q0 26 158 150l7 -6q-2 -9 -2 -18q0 -51 36 -95q39 -47 88 -47q27 0 47 23q6 -8 20 -24q-11 -20 -60 -39q-94 -37 -147 -37q-52 0 -94 21q-53 26 -53 72zM573 75q0 26 158 150l7 -6q-2 -9 -2 -18q0 -51 36 -95q39 -47 88 -47q27 0 47 23q6 -8 20 -24 q-11 -20 -60 -39q-94 -37 -147 -37q-52 0 -94 21q-53 26 -53 72zM1073 75q0 26 158 150l7 -6q-2 -9 -2 -18q0 -51 36 -95q39 -47 88 -47q27 0 47 23q6 -8 20 -24q-11 -20 -60 -39q-94 -37 -147 -37q-52 0 -94 21q-53 26 -53 72z" />
<glyph unicode="&#x202f;" horiz-adv-x="448" />
<glyph unicode="&#x2039;" horiz-adv-x="570" d="M100 622l240 295h123l-231 -295l237 -303h-129z" />
<glyph unicode="&#x203a;" horiz-adv-x="570" d="M100 917h130l239 -303l-239 -295h-123l231 295z" />
<glyph unicode="&#x205f;" horiz-adv-x="560" />
<glyph unicode="&#x2122;" horiz-adv-x="1355" d="M101 1759v90h496v-90h-198v-517h-101v517h-197zM665 1242v607h149l153 -485l149 485h146v-607h-93v510l-156 -510h-92l-163 517v-517h-93z" />
<glyph unicode="&#xe000;" horiz-adv-x="1180" d="M0 0v1180h1180v-1180h-1180z" />
</font>
</defs>
</svg>
