<?xml version="1.0" standalone="no"?>
<!DOCTYPE svg PUBLIC "-//W3C//DTD SVG 1.1//EN" "http://www.w3.org/Graphics/SVG/1.1/DTD/svg11.dtd" >
<svg xmlns="http://www.w3.org/2000/svg">
<metadata></metadata>
<defs>
<font id="1-prolook_maverickregular" horiz-adv-x="1139" >
<font-face units-per-em="2048" ascent="1638" descent="-410" />
<missing-glyph horiz-adv-x="569" />
<glyph horiz-adv-x="2048" />
<glyph horiz-adv-x="2048" />
<glyph unicode="&#xd;" horiz-adv-x="569" />
<glyph unicode=" "  horiz-adv-x="569" />
<glyph unicode="&#x09;" horiz-adv-x="569" />
<glyph unicode="&#xa0;" horiz-adv-x="569" />
<glyph unicode="!" horiz-adv-x="569" />
<glyph unicode="&#x22;" horiz-adv-x="727" />
<glyph unicode="#" />
<glyph unicode="$" />
<glyph unicode="%" horiz-adv-x="1821" />
<glyph unicode="&#x26;" horiz-adv-x="1366" />
<glyph unicode="'" horiz-adv-x="391" />
<glyph unicode="(" horiz-adv-x="682" />
<glyph unicode=")" horiz-adv-x="682" />
<glyph unicode="*" horiz-adv-x="797" />
<glyph unicode="+" horiz-adv-x="1196" />
<glyph unicode="," horiz-adv-x="569" />
<glyph unicode="-" horiz-adv-x="682" />
<glyph unicode="." horiz-adv-x="569" />
<glyph unicode="/" horiz-adv-x="569" />
<glyph unicode="0" horiz-adv-x="1012" d="M15 214l88 742l44 371q20 172 121.5 273t265.5 98h344q92 0 121 -55.5t22 -110.5l-83 -765l-42 -383q-46 -243 -184 -314t-270 -68h-226q-126 4 -171 65.5t-30 146.5zM332.5 238q-15.5 -79 37.5 -98q59 -26 118 16t67 150l155 1170q2 40 -21 55t-68 15 q-115 0 -137.5 -175.5l-67.5 -526.5l-46 -352q-22 -175 -37.5 -254z" />
<glyph unicode="1" horiz-adv-x="515" d="M0 0l100 848l51 424l12 106l-119 1l37 188q71 11 138.5 36.5t138.5 92.5h157l-201 -1696h-314z" />
<glyph unicode="2" horiz-adv-x="1006" d="M0 0h859l62 613h-295l-41 -316q-23 -76 -60.5 -93t-124.5 -14h-59l54 504q17 84 194.5 82t260.5 48q54 52 78 114t34 137l38 311q39 310 -213 310h-232q-153 4 -277.5 -113.5t-145.5 -356.5h314q14 129 61 197.5t124 72.5q49 4 98 1l-43 -343q-16 -96 -48 -119.5 t-98 -24.5h-216q-217 0 -244 -252l-26 -253z" />
<glyph unicode="3" horiz-adv-x="967" d="M43 392q-43 -392 255 -392h298q114 0 198.5 106t107.5 318l66 636l33 318q16 159 -42.5 240t-190.5 78h-139q-243 -5 -336 -90t-132 -226l-29 -230l284 1l27 192q52 171 285 185l-58 -521l-359 2l-25 -218l361 1l-28 -300q-20 -193 -98 -248t-206 -51l45 468h-290z" />
<glyph unicode="4" horiz-adv-x="915" d="M32 1058q-18 -133 66 -168t268 -41l155 -3l-110 -846h325l193 1696h-293l-88 -689q-198 4 -208 56t14 246l44 387h-293z" />
<glyph unicode="5" horiz-adv-x="976" d="M0 320l39 286h314q-47 -263 -16 -336t107 -68q56 0 92 2l58 439q10 88 -18.5 115.5t-94.5 28.5h-216q-195 29 -186 252l16 154l62 505h819l-41 -384h-308l7 87q-6 76 -39.5 93t-139.5 14l-46 -405q-28 -90 162.5 -85t262.5 -45q42 -52 51.5 -114t2.5 -137l-50 -410 q-32 -310 -284 -310h-232q-176 25 -245 105.5t-77 212.5z" />
<glyph unicode="6" horiz-adv-x="919" d="M0 320l126 1126q63 258 236 252h174h205q101 -8 139.5 -60t39.5 -129l-15 -195h-308l7 87q-6 76 -39.5 93t-109.5 14l-46 -405q-28 -90 162.5 -85t262.5 -45q53 -40 58.5 -94.5t-4.5 -156.5l-50 -410q-32 -310 -284 -310h-292q-116 25 -185 105.5t-77 212.5zM306 279 q49 -60 125 -55q87 6 103 104l47 337q10 88 -18.5 115.5t-67.5 32.5q-51 3 -120 -1z" />
<glyph unicode="7" horiz-adv-x="1049" d="M22 1083h295l47 316q11 61 46 83.5t141 23.5h59l-63 -498q-95 0 -144 -40t-68 -120l192 -1l-106 -847h334l99 848q107 0 146 40t49 119h-176l82 689h-859z" />
<glyph unicode="8" horiz-adv-x="996" d="M46 421l46 420q17 68 124 97q-90 15 -107 67l44 393q27 181 139 240.5t243 62.5h259q260 0 224 -348l-36 -349q-14 -45 -113 -65q84 -30 91 -98l-43 -483q-25 -177 -95 -257.5t-224 -99.5h-300q-171 -3 -234.5 86t-17.5 334zM358 207q117 4 169 73t69 202l38 361l-218 2z M446 1007l213 1l43 544q-93 -1 -135 -25t-85 -111z" />
<glyph unicode="9" horiz-adv-x="926" d="M26 125.5q-26 109.5 1 270.5l315 76l-11 -173q6 -76 39.5 -93t128.5 -11l51 504q-338 0 -410 50q-53 40 -68 110.5t-5 172.5l40 356q32 310 284 310h360q103 -3 140 -50t23 -173l-105 -1221q-63 -258 -236 -252h-174h-205q-142 14 -168 123.5zM365 1089q-9 -88 20 -115.5 t68 -32.5l123 1l50 533q-49 6 -135 1q-77 -6 -92 -104z" />
<glyph unicode=":" horiz-adv-x="569" />
<glyph unicode=";" horiz-adv-x="569" />
<glyph unicode="&#x3c;" horiz-adv-x="1196" />
<glyph unicode="=" horiz-adv-x="1196" />
<glyph unicode="&#x3e;" horiz-adv-x="1196" />
<glyph unicode="?" />
<glyph unicode="@" horiz-adv-x="2079" />
<glyph unicode="A" horiz-adv-x="1053" d="M0 0h325l99 843h211l-85 -843h344l159 1696h-687q-92 0 -133.5 -55.5t-47.5 -110.5zM447 1006l58 478q5 30 31.5 45t71.5 15h105l-59 -538h-207z" />
<glyph unicode="B" horiz-adv-x="1033" d="M0 0l201 1696h687q92 0 121 -56q23 -45 23 -89q0 -11 -1 -21l-54 -478q-18 -71 -53.5 -96.5t-79.5 -39.5q62 -42 80 -107q10 -37 11 -83q0 -34 -6 -73l-35 -345q-19 -115 -111.5 -211.5t-293.5 -96.5h-489zM343 183h107q62 1 86.5 26.5t36.5 98.5l60 477q2 30 -21 45 t-68 15h-115zM449 1009h107q62 1 86.5 26.5t36.5 98.5l41 350q2 30 -21 45t-68 15h-115z" />
<glyph unicode="C" horiz-adv-x="1055" d="M0 0l179 1430q35 122 131.5 192.5t221.5 73.5h523l-59 -632l-286 1l53 475q-216 -7 -264 -161l-147 -1189h88q75 3 120 39t62 164l47 392h295l-42 -394q-52 -195 -170 -291.5t-223 -99.5h-529z" />
<glyph unicode="D" horiz-adv-x="1033" d="M0 0l201 1696h687q92 0 121 -56q23 -45 23 -89q0 -11 -1 -21l-83 -765l-42 -383q-49 -267 -194 -322.5t-260 -59.5h-452zM335 139h13h4q78 0 132 35q59 38 81 130l155 1170v6q0 35 -21 49q-23 15 -68 15h-115z" />
<glyph unicode="E" horiz-adv-x="1055" d="M0 0l179 1430q35 122 131.5 192.5t221.5 73.5h523l-42 -497l-286 1l36 340q-216 -7 -264 -161l-46 -372l534 2l-13 -161l-542 1l-80 -659h88q75 3 120 39t62 164l33 246h295l-28 -248q-52 -195 -170 -291.5t-223 -99.5h-529z" />
<glyph unicode="F" horiz-adv-x="1055" d="M0 0l179 1430q35 122 131.5 192.5t221.5 73.5h523l-41 -498l-286 1l35 341q-216 -7 -264 -161l-46 -372l534 2l-13 -161l-542 1l-107 -852z" />
<glyph unicode="G" horiz-adv-x="1055" d="M0 0l179 1430q35 122 131.5 192.5t221.5 73.5h523l-59 -632l-286 1l53 475q-216 -7 -264 -161l-147 -1189h88q75 3 120 39t62 164l30 222l-136 1l16 168l137 1h295l-76 -788l-138 3l2 100q-118 -97 -223 -100h-529z" />
<glyph unicode="H" horiz-adv-x="1055" d="M0 0l201 1696l331 -1l-80 -689h216l88 690h299l-193 -1696h-325l116 845l-223 -2l-116 -843h-314z" />
<glyph unicode="I" horiz-adv-x="515" d="M0 0l201 1696l314 -1l-201 -1695h-314z" />
<glyph unicode="J" horiz-adv-x="1014" d="M40 302q0 -302 213 -302h254q144 7 251 98.5t134 260.5l161 1337h-325l-186 -1480q-12 -46 -60.5 -65t-138.5 -20l45 391l-341 -98q-7 -66 -7 -122z" />
<glyph unicode="K" horiz-adv-x="1055" d="M0 0l201 1696l331 -1l-83 -685h116q70 14 98 67.5t50 231.5l49 387h293l-87 -650q-18 -71 -53.5 -96.5t-73.5 -42.5q63 -42 85 -107q13 -41 13 -91q0 -31 -5 -65l-72 -644h-325l88 712q3 24 3 43q0 36 -10 54q-15 27 -62 40h-130l-112 -849h-314z" />
<glyph unicode="L" horiz-adv-x="648" d="M0 0l201 1696l314 -1l-176 -1483l309 1l-25 -213h-623z" />
<glyph unicode="M" horiz-adv-x="1563" d="M0 0h325l173 1404q11 71 66.5 115.5t135.5 45.5l-180 -1565h325l163 1404q17 71 69.5 115.5t142.5 45.5l-180 -1565h334l189 1696h-430q-93 -4 -150.5 -23.5t-95.5 -45.5l9 69h-350q-144 -7 -251 -98.5t-134 -260.5z" />
<glyph unicode="N" horiz-adv-x="1012" d="M0 0l201 1696h507q142 -6 228 -98q75 -80 75 -221q0 -20 -1 -40l-146 -1337h-325l154 1480q-1 46 -45 65t-135 20l-179 -1565h-334z" />
<glyph unicode="O" horiz-adv-x="1013" d="M11 171q0 20 4 41l88 742l44 371q19 172 121 273q99 98 257 98h9h344q92 0 121 -56q23 -45 23 -89q0 -11 -1 -21l-83 -765l-42 -383q-46 -243 -184 -314q-132 -68 -259 -68h-11h-226q-126 4 -171 66q-34 46 -34 105zM329 203q0 -51 41 -65q23 -10 45 -10l73 26 q59 42 67 150l155 1170v6q0 35 -21 49q-23 15 -68 15q-115 0 -137.5 -175.5l-67.5 -526.5l-46 -352q-22 -175 -38 -254q-3 -14 -3 -27v-6z" />
<glyph unicode="P" horiz-adv-x="1033" d="M0 0l201 1696h687q92 0 121 -56q23 -45 23 -89q0 -11 -1 -21l-54 -478q-11 -92 -105.5 -143.5t-239.5 -65.5l-200 1l-113 -844h-319zM449 1009h107q62 1 86.5 26.5t36.5 98.5l41 350q2 30 -21 45t-68 15h-115z" />
<glyph unicode="Q" horiz-adv-x="1012" d="M11 171q0 20 4 41l88 742l44 371q20 172 121 273q99 98 257 98h9h344q92 0 121 -56q23 -44 23 -89q0 -10 -1 -21l-83 -765l-42 -383q-35 -213 -93 -252q73 -40 87 -182h-158q-4 84 -82 84h-7q-99 -32 -190 -32h-11h-226q-126 4 -171 66q-34 46 -34 105zM329 203 q0 -50 41 -65q23 -10 45 -10l73 26q59 42 67 150l155 1170v6q0 35 -21 49q-23 15 -68 15q-115 0 -137.5 -175.5l-67.5 -526.5l-46 -352q-22 -175 -38 -254q-3 -18 -3 -33z" />
<glyph unicode="R" horiz-adv-x="1033" d="M0 0l201 1696h687q92 0 121 -56q23 -45 23 -89q0 -11 -1 -21l-57 -513q-18 -71 -53.5 -96.5t-82.5 -42.5q62 -32 80 -102q10 -40 10 -87q0 -35 -5 -74l-59 -615h-325l92 709v9q0 63 -14 88q-15 27 -62 40h-122l-119 -846h-314zM452 1006h107q62 1 86.5 26.5t36.5 98.5 l38 353q2 30 -21 45t-68 15h-115z" />
<glyph unicode="S" horiz-adv-x="1055" d="M0 0l84 749h333l-61 -545q117 4 169 69.5t69 191.5l38 343h-543l65 589q14 95 132.5 197.5t249.5 105.5h519l-67 -642h-330l40 424q-93 -1 -135 -22t-85 -97l-36 -357h544l-68 -649q-25 -177 -95 -257.5t-224 -99.5h-599z" />
<glyph unicode="T" horiz-adv-x="960" d="M0 1484l45 106q45 106 187 106h142l314 -1l272 -1l-29 -210h-268l-176 -1484h-314l100 848l51 424l25 212h-349z" />
<glyph unicode="U" horiz-adv-x="1030" d="M6 193q0 -81 56 -137q55 -56 150 -57q12 0 24 1h254q144 7 251 98.5t134 260.5l161 1337h-325l-186 -1480q-12 -46 -57 -70q-28 -15 -67 -15q-25 0 -54 6q-18 15 -19 71q0 57 20 157l158 1331h-167h-167l-94 -848l-48 -424l-23 -212q-1 -9 -1 -19z" />
<glyph unicode="V" horiz-adv-x="1053" d="M0 0h507q144 7 251 98.5t134 260.5l161 1337h-325l-186 -1480q-12 -46 -60.5 -65t-138.5 -20l180 1565h-334z" />
<glyph unicode="W" horiz-adv-x="1563" d="M0 0h430q93 4 150.5 23.5t95.5 45.5l-9 -69h350q144 7 251 98.5t134 260.5l161 1337h-325l-173 -1404q-11 -71 -66.5 -115.5t-135.5 -45.5l180 1565h-325l-163 -1404q-17 -71 -69.5 -115.5t-142.5 -45.5l180 1565h-334z" />
<glyph unicode="X" horiz-adv-x="1039" d="M0 0h325l83 712q9 70 30.5 97t71.5 40h30q47 -13 62 -40q10 -18 10 -54q0 -19 -3 -43l-88 -712h325l72 644q5 34 5 65v7q0 47 -13 84q-22 65 -85 107q38 17 73.5 42.5t53.5 96.5l87 650h-293l-49 -387q-22 -178 -50 -231.5t-98 -67.5h-9q-67 14 -82 68q-6 22 -6 66 q0 61 12 165l44 387h-293l-69 -650q0 -71 29.5 -96.5t63.5 -42.5q-73 -42 -110 -107t-46 -156z" />
<glyph unicode="Y" horiz-adv-x="893" d="M0 1055q0 -71 15 -105.5t80 -61.5q65 -25 119 -29q-49 -443 -112 -850q82 -9 160.5 -9t153.5 9q63 404 112 844q82 13 147 38q60 35 86.5 64t44.5 100l87 650h-293l-49 -387q-22 -178 -50 -231.5t-107 -67.5q-67 14 -82 67q-6 23 -6 67q0 61 12 165l44 387h-293z" />
<glyph unicode="Z" horiz-adv-x="1039" d="M0 0h747q105 3 170 140.5t83 470.5h-307q-19 -260 -84 -339t-140 -82h-128v11q0 203 261 509q268 316 352.5 510.5t84.5 475.5h-626q-108 -19 -179 -136t-72 -257h300q25 111 92.5 158t165.5 49q-16 -227 -272 -539t-351 -505.5t-97 -465.5z" />
<glyph unicode="[" horiz-adv-x="569" />
<glyph unicode="\" horiz-adv-x="569" />
<glyph unicode="]" horiz-adv-x="569" />
<glyph unicode="^" horiz-adv-x="961" />
<glyph unicode="_" />
<glyph unicode="`" horiz-adv-x="682" />
<glyph unicode="a" horiz-adv-x="1054" d="M0 0h325l99 843h211l-85 -843h344l159 1696h-687q-92 0 -133.5 -55.5t-47.5 -110.5zM447 1006l58 478q5 30 31.5 45t71.5 15h105l-59 -538h-207z" />
<glyph unicode="b" horiz-adv-x="1033" d="M0 0l201 1696h687q92 0 121 -56q23 -45 23 -89q0 -11 -1 -21l-54 -478q-18 -71 -53.5 -96.5t-79.5 -39.5q62 -42 80 -107q10 -37 11 -83q0 -34 -6 -73l-35 -345q-19 -115 -111.5 -211.5t-293.5 -96.5h-489zM343 183h107q62 1 86.5 26.5t36.5 98.5l60 477q2 30 -21 45 t-68 15h-115zM449 1009h107q62 1 86.5 26.5t36.5 98.5l41 350q2 30 -21 45t-68 15h-115z" />
<glyph unicode="c" horiz-adv-x="1055" d="M0 0l179 1430q35 122 131.5 192.5t221.5 73.5h523l-59 -632l-286 1l53 475q-216 -7 -264 -161l-147 -1189h88q75 3 120 39t62 164l47 392h295l-42 -394q-52 -195 -170 -291.5t-223 -99.5h-529z" />
<glyph unicode="d" horiz-adv-x="1033" d="M0 0l201 1696h687q92 0 121 -56q23 -45 23 -89q0 -11 -1 -21l-83 -765l-42 -383q-49 -267 -194 -322.5t-260 -59.5h-452zM335 139h13h4q78 0 132 35q59 38 81 130l155 1170v6q0 35 -21 49q-23 15 -68 15h-115z" />
<glyph unicode="e" horiz-adv-x="1055" d="M0 0l179 1430q35 122 131.5 192.5t221.5 73.5h523l-42 -497l-286 1l36 340q-216 -7 -264 -161l-46 -372l534 2l-13 -161l-542 1l-80 -659h88q75 3 120 39t62 164l33 246h295l-28 -248q-52 -195 -170 -291.5t-223 -99.5h-529z" />
<glyph unicode="f" horiz-adv-x="1055" d="M0 0l179 1430q35 122 131.5 192.5t221.5 73.5h523l-41 -498l-286 1l35 341q-216 -7 -264 -161l-46 -372l534 2l-13 -161l-542 1l-107 -852z" />
<glyph unicode="g" horiz-adv-x="1055" d="M0 0l179 1430q35 122 131.5 192.5t221.5 73.5h523l-59 -632l-286 1l53 475q-216 -7 -264 -161l-147 -1189h88q75 3 120 39t62 164l30 222l-136 1l16 168l137 1h295l-76 -788l-138 3l2 100q-118 -97 -223 -100h-529z" />
<glyph unicode="h" horiz-adv-x="1055" d="M0 0l201 1696l331 -1l-80 -689h216l88 690h299l-193 -1696h-325l116 845l-223 -2l-116 -843h-314z" />
<glyph unicode="i" horiz-adv-x="515" d="M0 0l201 1696l314 -1l-201 -1695h-314z" />
<glyph unicode="j" horiz-adv-x="1014" d="M40 302q0 -302 213 -302h254q144 7 251 98.5t134 260.5l161 1337h-325l-186 -1480q-12 -46 -60.5 -65t-138.5 -20l45 391l-341 -98q-7 -66 -7 -122z" />
<glyph unicode="k" horiz-adv-x="1055" d="M0 0l201 1696l331 -1l-83 -685h116q70 14 98 67.5t50 231.5l49 387h293l-87 -650q-18 -71 -53.5 -96.5t-73.5 -42.5q63 -42 85 -107q13 -41 13 -91q0 -31 -5 -65l-72 -644h-325l88 712q3 24 3 43q0 36 -10 54q-15 27 -62 40h-130l-112 -849h-314z" />
<glyph unicode="l" horiz-adv-x="648" d="M0 0l201 1696l314 -1l-176 -1483l309 1l-25 -213h-623z" />
<glyph unicode="m" horiz-adv-x="1564" d="M0 0h325l173 1404q11 71 66.5 115.5t135.5 45.5l-180 -1565h325l163 1404q17 71 69.5 115.5t142.5 45.5l-180 -1565h334l189 1696h-430q-93 -4 -150.5 -23.5t-95.5 -45.5l9 69h-350q-144 -7 -251 -98.5t-134 -260.5z" />
<glyph unicode="n" horiz-adv-x="1012" d="M0 0l201 1696h507q142 -6 228 -98q75 -80 75 -221q0 -20 -1 -40l-146 -1337h-325l154 1480q-1 46 -45 65t-135 20l-179 -1565h-334z" />
<glyph unicode="o" horiz-adv-x="1013" d="M11 171q0 20 4 41l88 742l44 371q19 172 121 273q99 98 257 98h9h344q92 0 121 -56q23 -45 23 -89q0 -11 -1 -21l-83 -765l-42 -383q-46 -243 -184 -314q-132 -68 -259 -68h-11h-226q-126 4 -171 66q-34 46 -34 105zM329 203q0 -51 41 -65q23 -10 45 -10l73 26 q59 42 67 150l155 1170v6q0 35 -21 49q-23 15 -68 15q-115 0 -137.5 -175.5l-67.5 -526.5l-46 -352q-22 -175 -38 -254q-3 -14 -3 -27v-6z" />
<glyph unicode="p" horiz-adv-x="1033" d="M0 0l201 1696h687q92 0 121 -56q23 -44 23 -89q0 -10 -1 -21l-54 -478q-11 -92 -105.5 -143.5t-239.5 -65.5l-200 1l-113 -844h-319zM449 1009h107q62 1 86.5 26.5t36.5 98.5l41 350q2 30 -21 45t-68 15h-115z" />
<glyph unicode="q" horiz-adv-x="1012" d="M11 171q0 20 4 41l88 742l44 371q20 172 121 273q99 98 257 98h9h344q92 0 121 -56q23 -44 23 -89q0 -10 -1 -21l-83 -765l-42 -383q-35 -213 -93 -252q73 -40 87 -182h-158q-4 84 -82 84h-7q-99 -32 -190 -32h-11h-226q-126 4 -171 66q-34 46 -34 105zM329 203 q0 -50 41 -65q23 -10 45 -10l73 26q59 42 67 150l155 1170v6q0 35 -21 49q-23 15 -68 15q-115 0 -137.5 -175.5l-67.5 -526.5l-46 -352q-22 -175 -38 -254q-3 -18 -3 -33z" />
<glyph unicode="r" horiz-adv-x="1033" d="M0 0l201 1696h687q92 0 121 -56q23 -45 23 -89q0 -11 -1 -21l-57 -513q-18 -71 -53.5 -96.5t-82.5 -42.5q62 -32 80 -102q10 -40 10 -87q0 -35 -5 -74l-59 -615h-325l92 709v9q0 63 -14 88q-15 27 -62 40h-122l-119 -846h-314zM452 1006h107q62 1 86.5 26.5t36.5 98.5 l38 353q2 30 -21 45t-68 15h-115z" />
<glyph unicode="s" horiz-adv-x="1055" d="M0 0l84 749h333l-61 -545q117 4 169 69.5t69 191.5l38 343h-543l65 589q14 95 132.5 197.5t249.5 105.5h519l-67 -642h-330l40 424q-93 -1 -135 -22t-85 -97l-36 -357h544l-68 -649q-25 -177 -95 -257.5t-224 -99.5h-599z" />
<glyph unicode="t" horiz-adv-x="960" d="M0 1484l45 106q45 106 187 106h142l314 -1l272 -1l-29 -210h-268l-176 -1484h-314l100 848l51 424l25 212h-349z" />
<glyph unicode="u" horiz-adv-x="1030" d="M6 193q0 -81 56 -137q55 -56 150 -57q12 0 24 1h254q144 7 251 98.5t134 260.5l161 1337h-325l-186 -1480q-12 -46 -57 -70q-28 -15 -67 -15q-25 0 -54 6q-18 15 -19 71q0 57 20 157l158 1331h-167h-167l-94 -848l-48 -424l-23 -212q-1 -9 -1 -19z" />
<glyph unicode="v" horiz-adv-x="1053" d="M0 0h507q144 7 251 98.5t134 260.5l161 1337h-325l-186 -1480q-12 -46 -60.5 -65t-138.5 -20l180 1565h-334z" />
<glyph unicode="w" horiz-adv-x="1563" d="M0 0h430q93 4 150.5 23.5t95.5 45.5l-9 -69h350q144 7 251 98.5t134 260.5l161 1337h-325l-173 -1404q-11 -71 -66.5 -115.5t-135.5 -45.5l180 1565h-325l-163 -1404q-17 -71 -69.5 -115.5t-142.5 -45.5l180 1565h-334z" />
<glyph unicode="x" horiz-adv-x="1039" d="M0 0h325l83 712q9 70 30.5 97t71.5 40h30q47 -13 62 -40q10 -18 10 -54q0 -19 -3 -43l-88 -712h325l72 644q5 34 5 65v7q0 47 -13 84q-22 65 -85 107q38 17 73.5 42.5t53.5 96.5l87 650h-293l-49 -387q-22 -178 -50 -231.5t-98 -67.5h-9q-67 14 -82 68q-6 22 -6 66 q0 61 12 165l44 387h-293l-69 -650q0 -71 29.5 -96.5t63.5 -42.5q-73 -42 -110 -107t-46 -156z" />
<glyph unicode="y" horiz-adv-x="893" d="M0 1055q0 -71 15 -105.5t80 -61.5q65 -25 119 -29q-49 -443 -112 -850q82 -9 160.5 -9t153.5 9q63 404 112 844q82 13 147 38q60 35 86.5 64t44.5 100l87 650h-293l-49 -387q-22 -178 -50 -231.5t-107 -67.5q-67 14 -82 67q-6 23 -6 67q0 61 12 165l44 387h-293z" />
<glyph unicode="z" horiz-adv-x="1039" d="M0 0h747q105 3 170 140.5t83 470.5h-307q-19 -260 -84 -339t-140 -82h-128v11q0 203 261 509q268 316 352.5 510.5t84.5 475.5h-626q-108 -19 -179 -136t-72 -257h300q25 111 92.5 158t165.5 49q-16 -227 -272 -539t-351 -505.5t-97 -465.5z" />
<glyph unicode="{" horiz-adv-x="684" />
<glyph unicode="|" horiz-adv-x="532" />
<glyph unicode="}" horiz-adv-x="684" />
<glyph unicode="~" horiz-adv-x="1196" />
<glyph unicode="&#xa1;" horiz-adv-x="682" />
<glyph unicode="&#xa2;" />
<glyph unicode="&#xa3;" />
<glyph unicode="&#xa5;" />
<glyph unicode="&#xa6;" horiz-adv-x="532" />
<glyph unicode="&#xa7;" />
<glyph unicode="&#xa8;" horiz-adv-x="682" />
<glyph unicode="&#xa9;" horiz-adv-x="1509" />
<glyph unicode="&#xaa;" horiz-adv-x="758" />
<glyph unicode="&#xab;" />
<glyph unicode="&#xac;" horiz-adv-x="1196" />
<glyph unicode="&#xad;" horiz-adv-x="682" />
<glyph unicode="&#xae;" horiz-adv-x="1509" />
<glyph unicode="&#xaf;" horiz-adv-x="1131" />
<glyph unicode="&#xb0;" horiz-adv-x="819" />
<glyph unicode="&#xb1;" horiz-adv-x="1124" />
<glyph unicode="&#xb2;" horiz-adv-x="682" />
<glyph unicode="&#xb3;" horiz-adv-x="682" />
<glyph unicode="&#xb4;" horiz-adv-x="682" />
<glyph unicode="&#xb5;" horiz-adv-x="1180" />
<glyph unicode="&#xb6;" horiz-adv-x="1100" />
<glyph unicode="&#xb7;" horiz-adv-x="682" />
<glyph unicode="&#xb8;" horiz-adv-x="682" />
<glyph unicode="&#xb9;" horiz-adv-x="682" />
<glyph unicode="&#xba;" horiz-adv-x="748" />
<glyph unicode="&#xbb;" />
<glyph unicode="&#xbc;" horiz-adv-x="1708" />
<glyph unicode="&#xbd;" horiz-adv-x="1708" />
<glyph unicode="&#xbe;" horiz-adv-x="1708" />
<glyph unicode="&#xbf;" horiz-adv-x="1251" />
<glyph unicode="&#xc0;" horiz-adv-x="1366" />
<glyph unicode="&#xc1;" horiz-adv-x="1366" />
<glyph unicode="&#xc2;" horiz-adv-x="1366" />
<glyph unicode="&#xc3;" horiz-adv-x="1366" />
<glyph unicode="&#xc4;" horiz-adv-x="1366" />
<glyph unicode="&#xc5;" horiz-adv-x="1366" />
<glyph unicode="&#xc6;" horiz-adv-x="2048" />
<glyph unicode="&#xc7;" horiz-adv-x="1479" />
<glyph unicode="&#xc8;" horiz-adv-x="1366" />
<glyph unicode="&#xc9;" horiz-adv-x="1366" />
<glyph unicode="&#xca;" horiz-adv-x="1366" />
<glyph unicode="&#xcb;" horiz-adv-x="1366" />
<glyph unicode="&#xcc;" horiz-adv-x="569" />
<glyph unicode="&#xcd;" horiz-adv-x="569" />
<glyph unicode="&#xce;" horiz-adv-x="569" />
<glyph unicode="&#xcf;" horiz-adv-x="569" />
<glyph unicode="&#xd0;" horiz-adv-x="1479" />
<glyph unicode="&#xd1;" horiz-adv-x="1479" />
<glyph unicode="&#xd2;" horiz-adv-x="1593" />
<glyph unicode="&#xd3;" horiz-adv-x="1593" />
<glyph unicode="&#xd4;" horiz-adv-x="1593" />
<glyph unicode="&#xd5;" horiz-adv-x="1593" />
<glyph unicode="&#xd6;" horiz-adv-x="1593" />
<glyph unicode="&#xd7;" horiz-adv-x="1196" />
<glyph unicode="&#xd8;" horiz-adv-x="1593" />
<glyph unicode="&#xd9;" horiz-adv-x="1479" />
<glyph unicode="&#xda;" horiz-adv-x="1479" />
<glyph unicode="&#xdb;" horiz-adv-x="1479" />
<glyph unicode="&#xdc;" horiz-adv-x="1479" />
<glyph unicode="&#xdd;" horiz-adv-x="1366" />
<glyph unicode="&#xde;" horiz-adv-x="1366" />
<glyph unicode="&#xdf;" horiz-adv-x="1251" />
<glyph unicode="&#xe0;" />
<glyph unicode="&#xe1;" />
<glyph unicode="&#xe2;" />
<glyph unicode="&#xe3;" />
<glyph unicode="&#xe4;" />
<glyph unicode="&#xe5;" />
<glyph unicode="&#xe6;" horiz-adv-x="1821" />
<glyph unicode="&#xe7;" horiz-adv-x="1024" />
<glyph unicode="&#xe8;" />
<glyph unicode="&#xe9;" />
<glyph unicode="&#xea;" />
<glyph unicode="&#xeb;" />
<glyph unicode="&#xec;" horiz-adv-x="569" />
<glyph unicode="&#xed;" horiz-adv-x="569" />
<glyph unicode="&#xee;" horiz-adv-x="569" />
<glyph unicode="&#xef;" horiz-adv-x="569" />
<glyph unicode="&#xf0;" />
<glyph unicode="&#xf1;" />
<glyph unicode="&#xf2;" />
<glyph unicode="&#xf3;" />
<glyph unicode="&#xf4;" />
<glyph unicode="&#xf5;" />
<glyph unicode="&#xf6;" />
<glyph unicode="&#xf7;" horiz-adv-x="1124" />
<glyph unicode="&#xf8;" horiz-adv-x="1251" />
<glyph unicode="&#xf9;" />
<glyph unicode="&#xfa;" />
<glyph unicode="&#xfb;" />
<glyph unicode="&#xfc;" />
<glyph unicode="&#xfd;" horiz-adv-x="1024" />
<glyph unicode="&#xfe;" />
<glyph unicode="&#xff;" horiz-adv-x="1024" />
<glyph unicode="&#x152;" horiz-adv-x="2048" />
<glyph unicode="&#x153;" horiz-adv-x="1933" />
<glyph unicode="&#x178;" horiz-adv-x="1366" />
<glyph unicode="&#x2c6;" horiz-adv-x="682" />
<glyph unicode="&#x2dc;" horiz-adv-x="682" />
<glyph unicode="&#x2000;" horiz-adv-x="852" />
<glyph unicode="&#x2001;" horiz-adv-x="1705" />
<glyph unicode="&#x2002;" horiz-adv-x="852" />
<glyph unicode="&#x2003;" horiz-adv-x="1705" />
<glyph unicode="&#x2004;" horiz-adv-x="568" />
<glyph unicode="&#x2005;" horiz-adv-x="426" />
<glyph unicode="&#x2006;" horiz-adv-x="284" />
<glyph unicode="&#x2007;" horiz-adv-x="284" />
<glyph unicode="&#x2008;" horiz-adv-x="213" />
<glyph unicode="&#x2009;" horiz-adv-x="341" />
<glyph unicode="&#x200a;" horiz-adv-x="94" />
<glyph unicode="&#x2010;" horiz-adv-x="682" />
<glyph unicode="&#x2011;" horiz-adv-x="682" />
<glyph unicode="&#x2012;" horiz-adv-x="682" />
<glyph unicode="&#x2013;" />
<glyph unicode="&#x2014;" horiz-adv-x="2048" />
<glyph unicode="&#x2018;" horiz-adv-x="455" />
<glyph unicode="&#x2019;" horiz-adv-x="455" />
<glyph unicode="&#x201a;" horiz-adv-x="455" />
<glyph unicode="&#x201c;" horiz-adv-x="682" />
<glyph unicode="&#x201d;" horiz-adv-x="682" />
<glyph unicode="&#x201e;" horiz-adv-x="682" />
<glyph unicode="&#x2022;" horiz-adv-x="717" />
<glyph unicode="&#x2026;" horiz-adv-x="2048" />
<glyph unicode="&#x202f;" horiz-adv-x="341" />
<glyph unicode="&#x2039;" horiz-adv-x="682" />
<glyph unicode="&#x203a;" horiz-adv-x="682" />
<glyph unicode="&#x205f;" horiz-adv-x="426" />
<glyph unicode="&#x20ac;" />
<glyph unicode="&#x2122;" horiz-adv-x="2048" />
<glyph unicode="&#xe000;" horiz-adv-x="1695" d="M0 0v1695h1695v-1695h-1695z" />
<glyph unicode="&#xfb01;" horiz-adv-x="1024" />
<glyph unicode="&#xfb02;" horiz-adv-x="1024" />
</font>
</defs>
</svg>
