<?xml version="1.0" standalone="no"?>
<!DOCTYPE svg PUBLIC "-//W3C//DTD SVG 1.1//EN" "http://www.w3.org/Graphics/SVG/1.1/DTD/svg11.dtd" >
<svg xmlns="http://www.w3.org/2000/svg">
<metadata></metadata>
<defs>
<font id="1-prolook_crackerjack_tailsRg" horiz-adv-x="5115" >
<font-face units-per-em="2048" ascent="1638" descent="-410" />
<missing-glyph horiz-adv-x="1288" />
<glyph horiz-adv-x="0" />
<glyph horiz-adv-x="0" />
<glyph unicode="&#xd;" horiz-adv-x="1288" />
<glyph unicode=" "  horiz-adv-x="1288" />
<glyph unicode="&#x09;" horiz-adv-x="1288" />
<glyph unicode="&#xa0;" horiz-adv-x="1288" />
<glyph unicode="!" horiz-adv-x="5294" d="M-25 311l197 -303l3572 2q162 16 295 41q121 25 225 58q88 29 174 67l76 35q31 14 71 37q102 53 201 135q86 70 176 164l154 162q80 86 67 141q-6 25 -40 24q-35 0 -70 -26l-141 -109l-13 -71l58 47q66 53 73 28q8 -18 -30 -65l-101 -107q-154 -164 -368 -213 q-88 -20 -250 -32q-186 -14 -422 -15h-3904z" />
<glyph unicode="&#x22;" horiz-adv-x="4257" d="M-25 -20h2732q160 14 295 43q119 23 224 57q88 29 176 67l76 35l71 37q102 53 201 133q86 70 174 164l154 164q80 86 67 139q-6 27 -41 29q-35 0 -69 -29l-140 -110l-14 -72l59 49q61 49 74 27q6 -18 -33 -64q-14 -18 -43 -49l-55 -57q-156 -166 -369 -215 q-86 -20 -249 -31q-184 -14 -424 -14h-2864l183 -152z" />
<glyph unicode="#" horiz-adv-x="5081" d="M-25 6h3554q162 16 295 41q121 25 225 57q88 29 174 68q61 29 147 74q100 51 201 133q86 68 176 164l154 162q82 84 67 141q-16 70 -110 -2l-141 -109l-13 -71l58 47q66 53 73 28q8 -18 -30 -65l-101 -107q-154 -164 -366 -213q-88 -20 -252 -30q-184 -14 -422 -15h-3076 l112 -114z" />
<glyph unicode="$" horiz-adv-x="3764" d="M-25 -2h2237q162 14 295 43q121 23 225 57q88 29 176 68l76 35l72 37q100 51 200 133q82 68 174 166l154 161q80 86 68 140q-6 27 -41 26q-35 0 -70 -26l-141 -111l-13 -70l58 48q66 53 73 28q8 -18 -30 -65l-101 -107q-154 -164 -366 -213q-88 -20 -250 -33 q-186 -14 -424 -14h-1950q-135 -252 -422 -303z" />
<glyph unicode="%" horiz-adv-x="3762" d="M-25 313q172 -14 316 -125q96 -76 149 -178h1772q162 14 295 43q121 23 225 58q88 29 174 67l76 35l72 37q100 51 200 133q84 70 176 166l154 162q80 86 68 139q-6 27 -41 27t-70 -27l-141 -109l-13 -71l58 47q63 55 73 28q8 -18 -30 -65l-101 -107q-154 -164 -368 -213 q-88 -20 -250 -32q-186 -14 -422 -15h-2372z" />
<glyph unicode="&#x26;" horiz-adv-x="4450" d="M59 -125q-2 -23 0 -43q2 -16 7 -31q27 -102 96 -123q51 -16 59 7t-28 39q-27 10 -29 59q0 51 29 94q27 43 77 72q43 23 101 37q43 8 92 12q18 2 35 2h2584q162 16 275 37q102 20 178 49q61 25 121 61l106 72q45 33 107 90q53 47 118 113l166 172q6 4 13 12l186 197 q80 86 68 141q-8 25 -41 25q-37 0 -70 -27l-141 -108l-13 -72l58 47q63 53 73 29q6 -18 -30 -66l-99 -106q-158 -164 -368 -213q-88 -20 -252 -33q-186 -14 -422 -14h-2308l-107 -130q-86 -8 -137 -14q-72 -10 -119 -26q-147 -45 -239 -115q-76 -57 -113 -129 q-31 -57 -33 -117z" />
<glyph unicode="'" horiz-adv-x="4571" d="M117 299l469 -463q55 53 188 88q121 33 311 53q166 18 402 29q100 4 223 6q100 4 232 6l409 9q72 2 135 2q145 4 264 10q137 4 250 12q260 16 432 47q197 35 295 88q94 51 222 158q113 94 202 191l152 161q80 86 67 142q-16 68 -110 -2l-139 -109l-13 -72l58 47 q61 53 73 29q6 -18 -32 -65l-99 -107q-158 -164 -368 -213q-88 -20 -250 -33q-186 -14 -424 -14h-2949z" />
<glyph unicode="(" horiz-adv-x="3342" d="M76 217l471 -463q102 98 346 142q104 16 244 26q61 6 133 8q61 4 139 7l332 12q90 2 164 8q88 4 161 12q170 16 297 47q143 33 244 88q94 51 221 158q113 94 203 191l152 161q80 88 67 142q-18 72 -110 -2l-140 -109l-12 -72l57 48q61 53 74 28q6 -18 -33 -65l-98 -107 q-158 -164 -369 -213q-88 -20 -249 -33q-186 -14 -424 -14h-1870z" />
<glyph unicode=")" horiz-adv-x="3424" d="M113 231l854 -501q68 68 198 123q115 49 279 90q86 23 186 43l193 34l418 64q27 2 43 6l81 10q86 12 142 23q139 25 182 47q102 53 201 133q86 70 176 164l153 162q80 86 68 141q-16 70 -111 -2l-141 -109l-12 -71l57 47q66 53 74 29q8 -18 -31 -66l-98 -106 q-158 -164 -369 -213q-88 -20 -252 -31q-184 -14 -422 -15z" />
<glyph unicode="*" horiz-adv-x="5488" d="M59 -406q336 154 928 62q248 -39 422 -117q6 190 113 307q88 98 178 168q96 76 211 129q236 113 624 162q139 16 304 31l305 18q59 4 151 8l305 17l328 22l176 17q197 25 348 63q180 45 324 121q160 86 278 211l154 162q80 86 68 139q-6 27 -41 27t-70 -27l-141 -110 l-13 -70l58 47q66 53 74 29q8 -20 -27 -70q-37 -45 -102 -102q-100 -86 -226 -144q-115 -51 -252 -80q-121 -27 -266 -34q-121 -6 -268 0q-59 2 -123 6l-340 18q-129 8 -229 12q-129 4 -258 7q-684 6 -1110 -27q-422 -31 -844 -119q-166 -35 -330 -102q-184 -76 -330 -178 q-164 -119 -260 -260q-106 -160 -119 -343z" />
<glyph unicode="+" horiz-adv-x="3721" d="M59 -180l3494 448h-3485l471 -182z" />
<glyph unicode="," horiz-adv-x="5488" d="M59 -406q336 154 928 62q248 -39 422 -117q6 190 113 307q88 98 178 168q96 76 211 129q236 113 624 162q139 16 304 31l305 18q59 4 151 8l305 17l328 22l176 17q197 25 348 63q180 45 324 121q160 86 278 211l154 162q80 86 68 139q-6 27 -41 27t-70 -27l-141 -110 l-13 -70l58 47q66 53 74 29q8 -20 -27 -70q-37 -45 -102 -102q-100 -86 -226 -144q-115 -51 -252 -80q-121 -27 -266 -34q-121 -6 -268 0q-59 2 -123 6l-340 18q-129 8 -229 12q-129 4 -258 7q-684 6 -1110 -27q-422 -31 -844 -119q-166 -35 -330 -102q-184 -76 -330 -178 q-164 -119 -260 -260q-106 -160 -119 -343z" />
<glyph unicode="-" horiz-adv-x="3713" d="M59 246q258 -61 258 -197q0 -96 -149 -162l3377 359h-3486z" />
<glyph unicode="." horiz-adv-x="4571" d="M117 299l469 -463q55 53 188 88q121 33 311 53q166 18 402 29q100 4 223 6q100 4 232 6l409 9q72 2 135 2q145 4 264 10q137 4 250 12q260 16 432 47q197 35 295 88q94 51 222 158q113 94 202 191l152 161q80 86 67 142q-16 68 -110 -2l-139 -109l-13 -72l58 47 q61 53 73 29q6 -18 -32 -65l-99 -107q-158 -164 -368 -213q-88 -20 -250 -33q-186 -14 -424 -14h-2949z" />
<glyph unicode="/" horiz-adv-x="3342" d="M76 217l471 -463q102 98 346 142q104 16 244 26q61 6 133 8q61 4 139 7l332 12q90 2 164 8q88 4 161 12q170 16 297 47q143 33 244 88q94 51 221 158q113 94 203 191l152 161q80 88 67 142q-18 72 -110 -2l-140 -109l-12 -72l57 48q61 53 74 28q6 -18 -33 -65l-98 -107 q-158 -164 -369 -213q-88 -20 -249 -33q-186 -14 -424 -14h-1870z" />
<glyph unicode="0" horiz-adv-x="3807" d="M70 -217q12 -8 41 14q143 111 348 137q80 10 221 13q166 2 369 -8l110 -7l316 -24q104 -8 192 -12q109 -8 207 -13q113 -6 213 -8q236 -8 422 -2q141 4 262 18q106 10 201 31q80 16 161 41q55 16 138 45q211 74 362 203q23 20 10 29q-10 6 -41 -17q-139 -104 -348 -135 q-78 -10 -221 -12q-164 -2 -367 8l-894 57q-96 6 -185 9q-201 6 -381 0q-141 -4 -260 -19q-109 -10 -203 -31q-80 -16 -161 -41q-55 -16 -138 -45q-215 -76 -362 -202q-23 -20 -12 -29z" />
<glyph unicode="1" horiz-adv-x="5445" d="M72 -236q12 -6 39 19q137 119 338 158q78 16 221 28q160 12 366 15q84 2 262 -2q152 -2 367 -9q180 -4 385 -12q172 -4 311 -10l455 -14q242 -4 453 -3q238 2 454 13q233 10 451 30q141 12 260 35q104 18 199 45q80 20 157 52l133 53q209 88 351 227q23 20 10 27 q-12 8 -41 -17q-133 -119 -338 -159q-164 -35 -588 -41q-174 -2 -379 0l-188 4l-1024 37q-45 2 -82 2l-365 6h-202q-227 -2 -435 -12q-242 -10 -462 -31q-139 -12 -258 -35q-106 -18 -201 -45q-78 -20 -156 -51l-135 -54q-207 -88 -350 -227q-20 -20 -8 -29z" />
<glyph unicode="2" horiz-adv-x="3801" d="M59 205q369 -84 519 -262q72 29 190 55q98 23 227 43q98 16 207 31q39 6 78 10l51 6q156 16 287 27q145 10 285 18q293 14 649 14h1081v58h-3574z" />
<glyph unicode="3" horiz-adv-x="4947" d="M59 59l2356 -225l2365 225h-4721z" />
<glyph unicode="4" horiz-adv-x="4661" d="M59 57h140q662 0 1220 -88q287 -45 520 -110q246 -68 422 -156q334 166 836 260q518 96 1106 96h192v35h-4436v-37z" />
<glyph unicode="5" horiz-adv-x="4618" d="M59 129q428 -51 777 -186q301 -117 487 -285q272 158 700 264q295 72 631 111q350 39 717 39h1079v57h-4391z" />
<glyph unicode="6" horiz-adv-x="3446" d="M141 162l13 -2q8 -2 14 -2q141 6 270 -11q485 -57 676 -301q282 122 612 185q125 25 265 43q125 16 262 30q123 12 254 21q117 8 239 14q104 4 211 6q90 2 181 2h223v23h-3220v-8z" />
<glyph unicode="7" horiz-adv-x="3989" d="M59 -113l3763 371h-3195q-66 -86 -158 -166q-176 -143 -410 -205z" />
<glyph unicode="8" horiz-adv-x="4521" d="M59 96l4295 234h-4014z" />
<glyph unicode="9" horiz-adv-x="4947" d="M59 387l295 -358l4426 358h-4721z" />
<glyph unicode=":" horiz-adv-x="4143" d="M-25 4l2616 2q162 16 295 41q121 25 225 57q88 29 176 68q61 27 147 72q100 51 201 133q82 68 174 166l154 162q80 86 67 141q-6 25 -40 24q-35 0 -70 -26l-141 -109l-13 -71l58 47q66 53 73 28q8 -18 -30 -65l-99 -107q-158 -164 -368 -213q-88 -20 -252 -32 q-186 -14 -422 -15h-2472z" />
<glyph unicode=";" horiz-adv-x="5609" d="M-25 -23h4082q162 14 295 43q121 23 225 58q88 29 176 67l76 35l72 37q100 51 201 133q82 68 174 166l153 162q80 86 68 139q-6 27 -41 27t-70 -27l-141 -110l-12 -70l57 47q63 55 74 27q8 -18 -31 -64q-16 -20 -45 -49l-55 -57q-154 -164 -367 -213q-90 -20 -252 -33 q-186 -14 -422 -14h-3938z" />
<glyph unicode="&#x3c;" horiz-adv-x="3856" d="M-25 311l197 -303h2134q160 14 295 43q119 23 223 58q88 29 176 67l76 35l72 37q102 53 200 133q86 70 175 164l153 164q80 86 68 139q-6 27 -41 26q-35 0 -70 -26l-141 -111l-12 -71l57 49q63 55 74 26q8 -18 -31 -63q-14 -18 -43 -49l-55 -58q-156 -166 -369 -215 q-86 -20 -250 -30q-184 -14 -424 -15h-2464z" />
<glyph unicode="=" horiz-adv-x="5294" d="M-25 311l197 -303l3572 2q162 16 295 41q121 25 225 58q88 29 174 67l76 35q31 14 71 37q102 53 201 135q86 70 176 164l154 162q80 86 67 141q-6 25 -40 24q-35 0 -70 -26l-141 -109l-13 -71l58 47q66 53 73 28q8 -18 -30 -65l-101 -107q-154 -164 -368 -213 q-88 -20 -250 -32q-186 -14 -422 -15h-3904z" />
<glyph unicode="&#x3e;" horiz-adv-x="4257" d="M-25 -20h2732q160 14 295 43q119 23 224 57q88 29 176 67l76 35l71 37q102 53 201 133q86 70 174 164l154 164q80 86 67 139q-6 27 -41 29q-35 0 -69 -29l-140 -110l-14 -72l59 49q61 49 74 27q6 -18 -33 -64q-14 -18 -43 -49l-55 -57q-156 -166 -369 -215 q-86 -20 -249 -31q-184 -14 -424 -14h-2864l183 -152z" />
<glyph unicode="?" horiz-adv-x="4143" d="M-25 317l60 -65q70 -76 164 -127q84 -45 192 -72q92 -23 207 -30q88 -8 209 -9h1786q160 14 295 43q119 23 223 58q88 29 174 67l76 35l71 37q102 53 201 133q86 70 176 164l154 164q80 86 67 139q-6 27 -40 27q-35 0 -70 -27l-141 -111l-13 -71l58 47q66 53 73 29 q8 -18 -30 -66l-99 -107q-158 -164 -368 -213q-86 -20 -252 -30q-184 -14 -422 -15h-2751z" />
<glyph unicode="@" horiz-adv-x="4749" d="M23 240q-47 0 61 -43q55 -20 135 -43q92 -27 209 -52q135 -27 291 -51q176 -27 375 -47q221 -23 467 -37q268 -16 561 -20q311 -4 618 14q272 18 533 55q225 31 424 74q174 39 301 80q133 43 258 133q53 39 106 84l90 88l154 162q80 86 68 139q-6 27 -41 27t-70 -27 l-139 -110l-15 -70l60 47q61 51 73 27q6 -18 -32 -64q-16 -18 -45 -49l-54 -57q-158 -164 -368 -213q-88 -20 -252 -33q-186 -14 -422 -14h-3346z" />
<glyph unicode="A" horiz-adv-x="4143" d="M-25 4l2616 2q162 16 295 41q121 25 225 57q88 29 176 68q61 27 147 72q100 51 201 133q82 68 174 166l154 162q69 74 68 125q0 8 -1 16q-6 24 -37 24h-3q-35 0 -70 -26l-141 -109l-13 -71l58 47q45 36 62 36q8 0 11 -8q1 -3 1 -7q0 -19 -31 -58l-99 -107 q-158 -164 -368 -213q-88 -20 -252 -32q-186 -14 -422 -15h-2472z" />
<glyph unicode="B" horiz-adv-x="5609" d="M-25 -23h4082q162 14 295 43q121 23 225 58q88 29 176 67l76 35l72 37q100 51 201 133q82 68 174 166l153 162q70 75 69 125q0 7 -1 14q-6 27 -41 27t-70 -27l-141 -110l-12 -70l57 47q42 36 61 36q10 0 13 -9q1 -3 1 -7q0 -19 -32 -57q-16 -20 -45 -49l-55 -57 q-154 -164 -367 -213q-90 -20 -252 -33q-186 -14 -422 -14h-3938z" />
<glyph unicode="C" horiz-adv-x="3856" d="M-25 311l197 -303h2134q160 14 295 43q119 23 223 58q88 29 176 67l76 35l72 37q102 53 200 133q86 70 175 164l153 164q70 75 69 125q0 7 -1 14q-6 26 -39 26h-2q-35 0 -70 -26l-141 -111l-12 -71l57 49q41 36 60 36q10 0 14 -10q1 -3 1 -7q0 -19 -32 -56 q-14 -18 -43 -49l-55 -58q-156 -166 -369 -215q-86 -20 -250 -30q-184 -14 -424 -15h-2464z" />
<glyph unicode="D" horiz-adv-x="5294" d="M-25 311l197 -303l3572 2q162 16 295 41q121 25 225 58q88 29 174 67l76 35q31 14 71 37q102 53 201 135q86 70 176 164l154 162q69 74 68 125q0 8 -1 16q-6 24 -37 24h-3q-35 0 -70 -26l-141 -109l-13 -71l58 47q45 36 62 36q8 0 11 -8q1 -3 1 -7q0 -19 -31 -58 l-101 -107q-154 -164 -368 -213q-88 -20 -250 -32q-186 -14 -422 -15h-3904z" />
<glyph unicode="E" horiz-adv-x="4257" d="M-25 -20h2732q160 14 295 43q119 23 224 57q88 29 176 67l76 35l71 37q102 53 201 133q86 70 174 164l154 164q69 74 69 124q0 8 -2 15q-6 27 -41 29q-35 0 -69 -29l-140 -110l-14 -72l59 49q42 34 61 34q9 0 13 -7q1 -2 1 -5q0 -19 -34 -59q-14 -18 -43 -49l-55 -57 q-156 -166 -369 -215q-86 -20 -249 -31q-184 -14 -424 -14h-2864l183 -152z" />
<glyph unicode="F" horiz-adv-x="5081" d="M-25 6h3554q162 16 295 41q121 25 225 57q88 29 174 68q61 29 147 74q100 51 201 133q86 68 176 164l154 162q69 71 69 123q0 9 -2 18q-8 35 -35 35q-28 0 -75 -37l-141 -109l-13 -71l58 47q45 36 62 36q8 0 11 -8q1 -3 1 -7q0 -19 -31 -58l-101 -107 q-154 -164 -366 -213q-88 -20 -252 -30q-184 -14 -422 -15h-3076l112 -114z" />
<glyph unicode="G" horiz-adv-x="3764" d="M-25 -2h2237q162 14 295 43q121 23 225 57q88 29 176 68l76 35l72 37q100 51 200 133q82 68 174 166l154 161q70 75 70 125q0 8 -2 15q-6 26 -39 26h-2q-35 0 -70 -26l-141 -111l-13 -70l58 48q45 36 62 36q9 0 11 -8q1 -3 1 -7q0 -19 -31 -58l-101 -107 q-154 -164 -366 -213q-88 -20 -250 -33q-186 -14 -424 -14h-1950q-135 -252 -422 -303z" />
<glyph unicode="H" horiz-adv-x="3762" d="M-25 313q172 -14 316 -125q96 -76 149 -178h1772q162 14 295 43q121 23 225 58q88 29 174 67l76 35l72 37q100 51 200 133q84 70 176 166l154 162q70 75 69 125q0 7 -1 14q-6 27 -41 27t-70 -27l-141 -109l-13 -71l58 47q42 37 61 37q9 0 12 -9q1 -3 1 -7q0 -19 -31 -58 l-101 -107q-154 -164 -368 -213q-88 -20 -250 -32q-186 -14 -422 -15h-2372z" />
<glyph unicode="I" horiz-adv-x="4450" d="M59 -125q-1 -12 -1 -22.5t1 -20.5q2 -16 7 -31q27 -102 96 -123q21 -7 35 -7q20 0 24 14q8 23 -28 39q-27 10 -29 59q0 51 29 94q27 43 77 72q43 23 101 37q43 8 92 12q18 2 35 2h2584q162 16 275 37q102 20 178 49q61 25 121 61l106 72q45 33 107 90q53 47 118 113 l166 172q6 4 13 12l186 197q70 75 70 126q0 8 -2 15q-8 25 -41 25q-37 0 -70 -27l-141 -108l-13 -72l58 47q43 36 62 36q8 0 11 -7q1 -3 1 -6q0 -19 -31 -60l-99 -106q-158 -164 -368 -213q-88 -20 -252 -33q-186 -14 -422 -14h-2308l-107 -130q-86 -8 -137 -14 q-72 -10 -119 -26q-147 -45 -239 -115q-76 -57 -113 -129q-31 -57 -33 -117z" />
<glyph unicode="J" horiz-adv-x="4143" d="M-25 27h2616q162 16 295 41q121 25 225 57q88 29 176 68q59 29 147 73q100 51 201 133q82 68 174 164l154 164q69 74 69 124q0 8 -2 15q-8 35 -35 35t-75 -37l-141 -108l-13 -72l58 47q45 36 63 36q8 0 10 -7q1 -3 1 -7q0 -19 -31 -59l-99 -106q-158 -164 -368 -213 q-86 -20 -250 -31q-184 -14 -424 -14h-1919q-119 0 -209 -8q-113 -10 -207 -33q-106 -27 -190 -72q-96 -51 -166 -127z" />
<glyph unicode="K" horiz-adv-x="4143" d="M-25 317l60 -65q70 -76 164 -127q84 -45 192 -72q92 -23 207 -30q88 -8 209 -9h1786q160 14 295 43q119 23 223 58q88 29 174 67l76 35l71 37q102 53 201 133q86 70 176 164l154 164q69 74 68 124q0 8 -1 15q-6 27 -40 27q-35 0 -70 -27l-141 -111l-13 -71l58 47 q45 36 63 36q8 0 10 -7q1 -3 1 -7q0 -19 -31 -59l-99 -107q-158 -164 -368 -213q-86 -20 -252 -30q-184 -14 -422 -15h-2751z" />
<glyph unicode="L" horiz-adv-x="4749" d="M23 240q-14 0 -14 -4q0 -9 75 -39q55 -20 135 -43q92 -27 209 -52q135 -27 291 -51q176 -27 375 -47q221 -23 467 -37q268 -16 561 -20q57 -1 113 -1q254 0 505 15q272 18 533 55q225 31 424 74q174 39 301 80q133 43 258 133q53 39 106 84l90 88l154 162q70 75 70 125 q0 7 -2 14q-6 27 -41 27t-70 -27l-139 -110l-15 -70l60 47q41 35 60 35q9 0 13 -8q1 -2 1 -5q0 -19 -33 -59q-16 -18 -45 -49l-54 -57q-158 -164 -368 -213q-88 -20 -252 -33q-186 -14 -422 -14h-3346z" />
<glyph unicode="M" horiz-adv-x="3856" d="M-25 293l2331 -303q160 16 295 43q119 23 223 57q88 29 176 68q61 27 148 71q98 51 200 136q78 66 175 163l153 162q70 75 69 126q0 8 -1 15q-6 25 -41 25t-70 -27l-141 -108l-12 -72l57 47q45 36 63 36q8 0 11 -7q1 -3 1 -7q0 -19 -32 -59l-98 -106q-158 -164 -369 -213 q-88 -20 -250 -33q-186 -14 -424 -14h-2464z" />
<glyph unicode="N" horiz-adv-x="4450" d="M-25 -145l2923 290q162 16 295 43q121 23 225 58q88 29 176 67q61 27 148 72q100 51 200 133q82 68 174 166l154 162q70 75 69 125q0 7 -1 14q-6 27 -41 27t-70 -27l-141 -108l-13 -72l58 47q45 36 63 36q8 0 11 -7q1 -3 1 -7q0 -19 -32 -59l-98 -106 q-158 -164 -369 -213q-88 -20 -250 -33q-186 -14 -424 -14h-2472z" />
<glyph unicode="O" horiz-adv-x="5916" d="M-25 -231l4389 292q160 10 295 37q119 23 225 58q86 29 177 71q35 14 75 37l72 37q100 51 201 133q82 68 174 164l153 162q70 75 69 126q0 8 -1 15q-8 34 -35 34q-28 0 -76 -36l-141 -108l-12 -72l57 47q45 36 63 36q8 0 11 -7q1 -3 1 -7q0 -19 -32 -59l-100 -106 q-154 -164 -367 -213q-88 -20 -250 -33q-186 -14 -424 -15h-3938z" />
<glyph unicode="P" horiz-adv-x="6008" d="M-25 -106l4391 135q180 6 310 14q145 10 256 25q236 33 366 100q102 53 201 135q86 70 176 164l154 162q69 74 68 125q0 8 -1 16q-6 25 -41 25t-69 -27l-142 -109l-12 -71l57 47q45 36 63 36q8 0 11 -7q1 -3 1 -7q0 -19 -32 -59l-100 -106q-154 -164 -367 -213 q-90 -20 -251 -33q-186 -14 -422 -15h-3939z" />
<glyph unicode="Q" horiz-adv-x="5294" d="M-25 348l363 -532l3406 229q160 10 295 37q119 23 225 59q86 29 174 70l147 74q100 51 201 133q84 70 176 166l154 161q69 74 69 124q0 8 -2 16q-6 26 -38 26h-2q-35 0 -70 -26l-141 -111l-13 -69l58 47q44 35 62 35q9 0 11 -9q1 -3 1 -7q0 -19 -31 -56q-16 -20 -45 -49 l-56 -58q-154 -164 -368 -213q-88 -20 -250 -33q-186 -14 -422 -14h-3904z" />
<glyph unicode="R" horiz-adv-x="3856" d="M-25 332l363 -535l1968 232q162 18 293 47q121 23 225 55q90 29 176 66q66 29 148 71q100 51 200 133q82 68 175 164l153 162q70 72 70 124q0 9 -2 17q-8 35 -35 35q-28 0 -76 -37l-141 -108l-12 -72l57 47q45 36 63 36q8 0 11 -7q1 -3 1 -7q0 -19 -32 -59l-98 -106 q-158 -164 -369 -213q-86 -20 -250 -31q-184 -14 -424 -14h-2464z" />
<glyph unicode="S" horiz-adv-x="3665" d="M-25 211q418 -78 482 -494l1659 191q162 18 294 45q121 25 226 57q88 29 174 66q63 29 147 71q102 53 201 136q86 70 176 163l152 162q69 76 69 126q0 8 -2 16q-8 34 -35 34q-28 0 -75 -36l-140 -109l-12 -72l57 47q42 36 61 36q9 0 13 -7q1 -3 1 -6q0 -19 -32 -59 l-71 -76q0 -2 -4 -4l-25 -27q-158 -164 -369 -213q-88 -20 -249 -33q-186 -14 -424 -14h-2274z" />
<glyph unicode="T" horiz-adv-x="5224" d="M-25 231q426 -88 476 -520l3223 217q160 10 297 37q119 23 223 60q86 29 174 69l121 60q2 2 4 2q6 4 4 4q12 4 19 8q102 53 201 135q86 70 176 164l151 162q70 77 70 127q0 8 -2 14q-8 34 -35 34q-28 0 -76 -36l-139 -109l-12 -71l57 47q42 36 61 36q9 0 13 -7q1 -3 1 -6 q0 -19 -32 -60l-72 -76q0 -2 -4 -4l-24 -26q-158 -164 -369 -213q-88 -20 -250 -33q-186 -14 -424 -15h-3832z" />
<glyph unicode="U" horiz-adv-x="4689" d="M-25 260q250 -61 250 -315v-15l3498 195q180 10 348 96q158 80 287 217l152 162q69 76 69 125q0 8 -2 16q-9 36 -36 36q-28 0 -74 -38l-140 -108l-12 -72l57 47q42 36 61 36q9 0 13 -7q4 -10 -8 -31q-10 -18 -35 -43q-39 -43 -114 -110q-211 -190 -562 -191h-3752z" />
<glyph unicode="V" horiz-adv-x="5939" d="M197 -8q293 41 602 41q600 0 1097 -150q41 8 97 23l334 76q139 27 274 43q160 20 328 24l903 14q172 2 313 11q164 6 303 18q156 12 287 33q295 43 481 119q209 88 361 243l153 162q69 72 68 121q0 10 -2 18q-8 36 -35 36t-74 -36l-141 -110l-12 -70l57 47q42 36 61 36 q10 0 13 -9q1 -3 1 -7q0 -19 -32 -57q-14 -18 -43 -49l-55 -57q-145 -150 -361 -207q-86 -23 -188 -39q-92 -12 -201 -20q-90 -6 -201 -8q-45 -2 -98 -2l-2883 -3q-260 0 -703 -63q-229 -33 -397 -72q-195 -45 -281 -92z" />
<glyph unicode="W" horiz-adv-x="4626" d="M213 -29q287 43 602 43q600 0 1098 -149q133 29 285 55l415 68l490 69l252 31q72 8 127 16q139 18 247 46q129 31 236 73q211 86 362 244l154 162q70 75 69 125q0 7 -1 14q-6 27 -41 27t-70 -27l-141 -111l-13 -69l58 47q42 36 60 36q9 0 13 -9q1 -3 1 -7q0 -19 -31 -57 q-14 -18 -43 -49l-56 -57q-76 -80 -170 -132q-84 -49 -190 -75q-86 -23 -188 -39q-92 -12 -201 -21q-90 -6 -201 -8q-45 -2 -98 -2h-1618q-399 0 -795 -63q-403 -66 -585 -164l-13 -8q-10 -4 -14 -9z" />
<glyph unicode="X" horiz-adv-x="5636" d="M168 395q301 -49 573 -282q213 -184 316 -406q10 -20 16 -39l14 23q57 90 197 162q125 66 315 114q168 43 392 74q98 14 209 27l210 20l2001 170q283 23 516 150q162 88 279 213l154 161q69 74 68 124q0 8 -1 16q-6 26 -39 26h-2q-35 0 -69 -26l-142 -111l-12 -70l57 47 q44 36 62 36q9 0 12 -9q1 -3 1 -6q0 -18 -32 -57l-100 -107q-111 -115 -260 -176q-186 -76 -420 -76z" />
<glyph unicode="Y" horiz-adv-x="3866" d="M98 344q834 -133 1225 -539l92 60q92 59 211 110q109 45 240 82q115 33 250 60q115 25 249 45l121 18l318 41q209 31 266 60q100 51 201 133q84 70 176 166l151 161q70 75 70 125q0 8 -2 15q-6 26 -39 26h-2q-35 0 -70 -26l-139 -111l-14 -70l59 48q43 33 62 33 q8 0 12 -7q1 -2 1 -5q0 -19 -34 -58q-14 -18 -43 -49l-55 -58q-154 -164 -369 -213q-88 -20 -250 -33q-186 -14 -424 -14h-2263z" />
<glyph unicode="Z" horiz-adv-x="3637" d="M131 225q295 -35 586 -149q195 -78 321 -164q352 127 875 176q61 6 139 10l449 21q170 12 266 24q113 16 190 43q150 51 291 201l154 162q69 74 68 125q0 8 -1 16q-8 34 -35 34q-28 0 -75 -36l-142 -108l-12 -72l57 47q43 37 62 37q9 0 12 -8q1 -3 1 -7q0 -19 -32 -59 l-100 -106q-63 -68 -149 -109q-76 -37 -174 -55q-80 -14 -185 -21q-43 -2 -96 -2h-2470z" />
<glyph unicode="[" horiz-adv-x="4079" d="M109 70l829 -285q131 127 295 197q178 74 459 108q113 14 258 25l813 49q145 10 252 29q127 20 229 57q227 82 406 268l153 162q78 84 66 139q-6 27 -41 29q-35 0 -70 -29l-139 -110l-12 -70l57 47q63 51 74 27q6 -16 -33 -64l-98 -106q-129 -135 -338 -207 q-178 -61 -396 -72q-240 -12 -413 -6q-80 2 -179 8l-204 17q-541 43 -879 30q-172 -6 -336 -26q-152 -20 -327 -58q-223 -45 -426 -159z" />
<glyph unicode="\" horiz-adv-x="4620" d="M133 401l828 -708q-106 141 49 321q141 162 374 240q139 47 336 84q172 35 389 59q184 23 400 37q92 8 190 15l174 8q135 6 252 18q133 12 252 33q131 20 246 51q127 35 235 80q211 84 363 242l154 161q80 84 65 142q-18 72 -111 -2l-139 -109l-12 -72l57 48q61 53 74 28 q6 -18 -33 -65l-98 -107q-74 -78 -168 -131q-86 -47 -193 -76q-84 -23 -184 -34q-84 -10 -190 -13l-99 -4l-694 -4l-819 14h-205q-106 2 -203 0q-190 -2 -387 -22q-186 -20 -362 -57q-350 -72 -541 -177z" />
<glyph unicode="]" horiz-adv-x="5013" d="M127 0q-45 -145 2 -319q43 -160 145 -287q82 285 344 469q266 186 609 186q184 0 348 -55q-88 137 27 235q98 86 352 146q109 25 250 47q123 18 274 35q66 8 141 14l451 41q8 0 14 2q37 2 66 6q82 6 149 15l162 16q90 10 172 22q193 27 336 58q172 37 279 80 q217 90 362 243l152 162q78 88 67 139q-8 27 -41 29q-37 0 -69 -29l-140 -110l-12 -70l57 47q61 53 74 29q6 -18 -33 -66q-16 -18 -45 -49l-53 -57q-141 -150 -360 -207q-84 -23 -187 -35q-84 -10 -190 -12l-146 -4h-143q-51 0 -92 -2l-1673 -62l-381 -16q-201 -12 -351 -31 q-172 -20 -296 -53q-139 -33 -226 -82q-164 -90 -262 -213q-88 -111 -133 -262z" />
<glyph unicode="^" horiz-adv-x="5488" d="M59 -406q336 154 928 62q248 -39 422 -117q6 190 113 307q88 98 178 168q96 76 211 129q236 113 624 162q139 16 304 31l305 18q59 4 151 8l305 17l328 22l176 17q197 25 348 63q180 45 324 121q160 86 278 211l154 162q80 86 68 139q-6 27 -41 27t-70 -27l-141 -110 l-13 -70l58 47q66 53 74 29q8 -20 -27 -70q-37 -45 -102 -102q-100 -86 -226 -144q-115 -51 -252 -80q-121 -27 -266 -34q-121 -6 -268 0q-59 2 -123 6l-340 18q-129 8 -229 12q-129 4 -258 7q-684 6 -1110 -27q-422 -31 -844 -119q-166 -35 -330 -102q-184 -76 -330 -178 q-164 -119 -260 -260q-106 -160 -119 -343z" />
<glyph unicode="`" horiz-adv-x="5609" d="M-25 -23h4082q162 14 295 43q121 23 225 58q88 29 176 67l76 35l72 37q100 51 201 133q82 68 174 166l153 162q80 86 68 139q-6 27 -41 27t-70 -27l-141 -110l-12 -70l57 47q63 55 74 27q8 -18 -31 -64q-16 -20 -45 -49l-55 -57q-154 -164 -367 -213q-90 -20 -252 -33 q-186 -14 -422 -14h-3938z" />
<glyph unicode="a" horiz-adv-x="4571" d="M117 299l469 -463q55 53 188 88q121 33 311 53q166 18 402 29q100 4 223 6q100 4 232 6l409 9q72 2 135 2q145 4 264 10q137 4 250 12q260 16 432 47q197 35 295 88q94 51 222 158q113 94 202 191l152 161q69 74 69 126q0 8 -2 16q-8 34 -35 34q-28 0 -75 -36l-139 -109 l-13 -72l58 47q42 36 61 36q9 0 12 -7q1 -2 1 -5q0 -19 -33 -60l-99 -107q-158 -164 -368 -213q-88 -20 -250 -33q-186 -14 -424 -14h-2949z" />
<glyph unicode="b" horiz-adv-x="3342" d="M76 217l471 -463q102 98 346 142q104 16 244 26q61 6 133 8q61 4 139 7l332 12q90 2 164 8q88 4 161 12q170 16 297 47q143 33 244 88q94 51 221 158q113 94 203 191l152 161q69 76 69 126q0 8 -2 16q-9 36 -36 36q-28 0 -74 -38l-140 -109l-12 -72l57 48q41 36 61 36 q9 0 13 -8q1 -2 1 -5q0 -19 -34 -60l-98 -107q-158 -164 -369 -213q-88 -20 -249 -33q-186 -14 -424 -14h-1870z" />
<glyph unicode="c" horiz-adv-x="3424" d="M113 231l854 -501q68 68 198 123q115 49 279 90q86 23 186 43l193 34l418 64q27 2 43 6l81 10q86 12 142 23q139 25 182 47q102 53 201 133q86 70 176 164l153 162q70 75 69 126q0 8 -1 15q-8 35 -35 35q-28 0 -76 -37l-141 -109l-12 -71l57 47q45 36 63 36q8 0 11 -7 q1 -3 1 -7q0 -19 -32 -59l-98 -106q-158 -164 -369 -213q-88 -20 -252 -31q-184 -14 -422 -15z" />
<glyph unicode="d" horiz-adv-x="3473" d="M27 276q-1 -7 -1 -15q0 -128 195 -257q194 -127 375 -127h22l-108 -242q84 125 352 220q117 39 273 75q135 31 307 62q98 18 211 35q96 16 213 32l565 78l143 25q137 27 187 51q100 51 200 133q84 70 177 166l153 162q70 75 70 125q0 7 -2 14q-6 27 -41 27t-70 -27 l-141 -111l-12 -69l57 47q43 36 62 36q8 0 12 -7q1 -3 1 -7q0 -19 -32 -59l-100 -106q-154 -164 -369 -213q-88 -20 -250 -33q-186 -14 -422 -15h-2027z" />
<glyph unicode="e" horiz-adv-x="3506" d="M162 276l854 -241v-260q111 106 379 188q113 33 258 64q123 25 274 49l508 74q121 18 188 32q82 16 115 33q100 51 201 133q80 68 176 166l154 162q69 74 68 124q0 8 -1 15q-6 27 -41 27t-69 -27l-142 -110l-12 -70l57 47q42 36 61 36q10 0 13 -9q1 -3 1 -6 q0 -18 -32 -58l-100 -106q-154 -160 -369 -213q-88 -20 -249 -33q-186 -14 -422 -14z" />
<glyph unicode="f" horiz-adv-x="4685" d="M51 -283q146 90 320 90q266 0 444 -194q150 164 537 254q90 20 202 41q102 18 232 39l551 73q55 8 151 17l316 31q66 8 121 12l247 26q137 14 248 31q129 16 232 33q236 41 340 84q217 90 362 244l152 161q69 74 69 124q0 8 -2 16q-6 27 -41 28q-35 0 -69 -28l-140 -111 l-12 -70l57 48q42 34 61 34q9 0 13 -8q1 -2 1 -5q0 -19 -34 -58q-14 -18 -43 -49l-55 -58q-141 -150 -360 -207q-82 -23 -363 -32l-276 -4q-68 -1 -145 -1t-161 1q-139 0 -305 2l-643 8q-129 0 -225 -2q-121 0 -221 -6q-240 -8 -434 -35q-223 -33 -414 -90 q-211 -63 -393 -162q-178 -98 -293 -242z" />
<glyph unicode="g" horiz-adv-x="3833" d="M12 326q140 -170 140 -385q0 -141 -66 -273q51 35 100 66q170 104 437 192q121 39 260 76q127 33 272 61q131 29 279 54q125 23 272 45l485 71l375 48q72 8 127 16q139 20 248 45q129 31 235 74q217 90 363 243l151 162q70 75 70 125q0 8 -2 15q-8 35 -36 35t-75 -35 l-139 -109l-12 -72l57 47q42 36 61 36q9 0 13 -7q1 -2 1 -5q0 -19 -34 -60l-98 -107q-141 -150 -361 -207q-84 -23 -184 -35q-84 -8 -190 -12q-43 -2 -99 -2l-190 -2q-53 0 -94 -2l-1858 -68q-104 -2 -176 -6q-94 -4 -170 -10q-88 -6 -162 -14z" />
<glyph unicode="h" horiz-adv-x="4407" d="M-4 59l573 4l-360 -434q70 45 176 92q90 39 207 78q92 31 201 64l159 43l1717 254q55 8 127 16l276 27q82 8 141 16q158 16 265 39q131 29 212 68q90 45 173 112q63 51 153 148l152 162q69 74 68 124q0 8 -1 15q-6 26 -39 26h-2q-35 0 -69 -26l-140 -111l-14 -69l57 47 q45 36 63 36q9 0 11 -8q1 -3 1 -7q0 -19 -32 -58q-14 -18 -43 -49l-55 -58q-84 -86 -158 -137q-84 -55 -178 -82q-82 -23 -215 -37q-106 -12 -241 -20l-318 -10l-1683 -35q-795 -16 -1147 -207z" />
<glyph unicode="i" horiz-adv-x="3833" d="M143 92q-25 -47 -25 -94q0 -72 60 -141q102 -123 332 -176q117 -27 256 -27q93 0 195 12q223 25 518 113q82 25 77 49q-2 16 -34 16q-19 0 -49 -6q-107 -20 -206 -20q-135 0 -255 37q-174 50 -174 133q0 18 8 37q81 197 761 197q42 0 87 -1q70 -1 137 -1q134 0 258 3 q215 4 393 19q201 16 354 45q170 29 279 73q209 88 360 244l154 162q70 75 69 125q0 7 -1 14q-6 27 -41 27t-70 -27l-141 -110l-13 -70l58 47q42 36 61 36q10 0 13 -9q1 -3 1 -7q0 -19 -32 -57q-16 -18 -43 -49l-56 -57q-125 -129 -354 -178q-154 -33 -389 -41 q-104 -6 -229 -7q-109 0 -242 5l-983 30q-25 0 -49 1q-363 0 -643 -85q-315 -94 -402 -262z" />
<glyph unicode="j" horiz-adv-x="3162" d="M14 35h13q188 0 385 -123q197 -121 307 -303q10 31 24 59q82 174 277 279q170 90 403 119q74 10 162 16q70 6 162 10l324 19q113 8 198 22q104 18 191 51q197 72 348 236l151 162q70 75 70 125q0 7 -2 14q-8 35 -35.5 35t-75.5 -35l-141 -109l-12 -71l57 47q43 36 63 36 q9 0 13 -8q1 -3 1 -6q0 -21 -32 -61q-27 -31 -100 -105q-145 -145 -373 -206q-102 -27 -227 -39q-81 -7 -174 -7q-37 0 -76 1l-270 8l-576 26q-66 2 -124 2q-88 0 -159 -4q-137 -6 -284 -30q-109 -16 -228 -54q-150 -45 -260 -106z" />
<glyph unicode="k" horiz-adv-x="4079" d="M109 70l829 -285q131 127 295 197q178 74 459 108q113 14 258 25l813 49q145 10 252 29q127 20 229 57q227 82 406 268l153 162q68 73 68 124q0 8 -2 15q-6 27 -41 29q-35 0 -70 -29l-139 -110l-12 -70l57 47q43 35 62 35q9 0 12 -8q1 -2 1 -5q0 -18 -34 -59l-98 -106 q-129 -135 -338 -207q-178 -61 -396 -72q-160 -8 -290 -8q-65 0 -123 2q-80 2 -179 8l-204 17q-415 33 -711 33q-89 0 -168 -3q-172 -6 -336 -26q-152 -20 -327 -58q-223 -45 -426 -159z" />
<glyph unicode="l" horiz-adv-x="4620" d="M133 401l828 -708q-43 57 -43 121q0 93 92 200q141 162 374 240q139 47 336 84q172 35 389 59q184 23 400 37q92 8 190 15l174 8q135 6 252 18q133 12 252 33q131 20 246 51q127 35 235 80q211 84 363 242l154 161q67 71 68 123q0 10 -3 19q-9 36 -36 36q-28 0 -75 -38 l-139 -109l-12 -72l57 48q41 36 61 36q9 0 13 -8q1 -2 1 -5q0 -19 -34 -60l-98 -107q-74 -78 -168 -131q-86 -47 -193 -76q-84 -23 -184 -34q-84 -10 -190 -13l-99 -4l-694 -4l-819 14h-205q-53 1 -103.5 1t-99.5 -1q-190 -2 -387 -22q-186 -20 -362 -57q-350 -72 -541 -177 z" />
<glyph unicode="m" horiz-adv-x="5013" d="M127 0q-22 -71 -22 -149q0 -81 24 -170q43 -160 145 -287q82 285 344 469q266 186 609 186q184 0 348 -55q-38 59 -38 111q0 68 65 124q98 86 352 146q109 25 250 47q123 18 274 35q66 8 141 14l451 41q8 0 14 2q37 2 66 6q82 6 149 15l162 16q90 10 172 22 q193 27 336 58q172 37 279 80q217 90 362 243l152 162q68 77 68 126q0 7 -1 13q-8 27 -41 29q-37 0 -69 -29l-140 -110l-12 -70l57 47q42 36 61 36q9 0 13 -7q1 -2 1 -5q0 -19 -34 -61q-16 -18 -45 -49l-53 -57q-141 -150 -360 -207q-84 -23 -187 -35q-84 -10 -190 -12 l-146 -4h-143q-51 0 -92 -2l-1673 -62l-381 -16q-201 -12 -351 -31q-172 -20 -296 -53q-139 -33 -226 -82q-164 -90 -262 -213q-88 -111 -133 -262z" />
<glyph unicode="n" horiz-adv-x="5488" d="M59 -406q210 96 521 96q186 0 407 -34q248 -39 422 -117q6 190 113 307q88 98 178 168q96 76 211 129q236 113 624 162q139 16 304 31l305 18q59 4 151 8l305 17l328 22l176 17q197 25 348 63q180 45 324 121q160 86 278 211l154 162q70 75 69 125q0 7 -1 14 q-6 27 -41 27t-70 -27l-141 -110l-13 -70l58 47q45 36 63 36q8 0 11 -7q1 -4 1 -8q0 -21 -28 -62q-37 -45 -102 -102q-100 -86 -226 -144q-115 -51 -252 -80q-121 -27 -266 -34q-60 -3 -127 -3t-141 3q-59 2 -123 6l-340 18q-129 8 -229 12q-129 4 -258 7q-105 1 -204 1 q-545 0 -906 -28q-422 -31 -844 -119q-166 -35 -330 -102q-184 -76 -330 -178q-164 -119 -260 -260q-106 -160 -119 -343z" />
<glyph unicode="o" horiz-adv-x="6078" d="M174 -41q-1 -1 -1 -2q0 -3 10 -3q18 0 73 13l61 17q41 10 72 16q90 23 168 39q102 20 193 33q109 16 202 20h40q67 0 175 -4l148 -8l583 -41l869 -51l239 -11q135 -4 265 -6q143 -4 280 -4q154 0 297 4q158 6 309 15q160 10 314 24q162 16 295 41q121 25 225 58 q88 29 174 67q61 29 148 74q100 51 200 133q86 68 176 164l154 162q70 75 69 126q0 8 -1 15q-8 35 -35 35q-28 0 -76 -37l-141 -109l-13 -71l58 47q43 36 61 36q9 0 12 -8q1 -3 1 -7q0 -19 -31 -58l-101 -107q-154 -164 -368 -213q-86 -20 -252 -30q-184 -14 -422 -15 q-98 0 -303 9q-180 6 -426 18l-447 22q-213 12 -364 23q-301 20 -600 25q-120 3 -238 3q-156 0 -307 -5q-510 -14 -852 -72q-397 -66 -811 -318q-39 -23 -57 -36q-23 -14 -25 -23z" />
<glyph unicode="p" horiz-adv-x="4390" d="M18 -78q381 184 881 184q111 0 256 -12l129 -10l125 -14q547 -59 969 -59q205 0 381 14q162 14 307 41q129 23 246 57q104 29 198 67q78 31 158 72q102 53 201 133q86 70 174 164l153 164q70 75 70 125q0 7 -2 14q-8 35 -36 35t-75 -35l-141 -110l-12 -72l57 49 q41 36 61 36q10 0 15 -9q1 -2 1 -5q0 -19 -34 -59q-14 -18 -43 -49l-55 -57q-156 -166 -369 -215q-86 -20 -250 -31q-184 -14 -424 -14q-422 0 -866 30l-276 21q-152 8 -261 12q-34 1 -68 1q-99 0 -190 -5q-139 -8 -276 -29q-297 -45 -465 -108t-410 -217q-41 -27 -73 -51 q-39 -33 -56 -58z" />
<glyph unicode="q" horiz-adv-x="5226" d="M43 -115q35 -125 121 -153q28 -8 45 -8h6q18 2 23 14q2 5 2 10q0 23 -39 39q-62 28 -62 91q0 35 19 81q37 86 149 127q94 37 246 41q33 1 69 1t74 -1q63 -2 146 -10l71 -4l70 -9l129 -10q86 -6 186 -18q88 -8 199 -23l631 -86l215 -22q233 -23 416 -25h65q192 0 359 10 q213 12 399 45q403 68 743 232q156 74 310 194q135 106 270 250l154 162q69 73 69 122q0 9 -2 17q-6 27 -39 27q-37 0 -71 -27l-142 -108l-12 -72l57 47q45 36 63 36q9 0 11 -7q1 -3 1 -7q0 -19 -32 -59l-98 -106q-158 -164 -369 -213q-96 -23 -252 -35q-90 -8 -190 -12 q-57 -1 -114.5 -1t-116.5 1l-396 14l-673 35q-131 8 -240 12l-490 19q-113 4 -192 4l-193 4q-211 0 -378 -6q-197 -10 -357 -33q-180 -27 -325 -72q-178 -55 -304 -137q-104 -68 -163 -152q-47 -66 -64 -133q-7 -32 -7 -56q0 -17 3 -30z" />
<glyph unicode="r" horiz-adv-x="3856" d="M-25 332l363 -535l1968 232q162 18 293 47q121 23 225 55q90 29 176 66q66 29 148 71q100 51 200 133q82 68 175 164l153 162q70 72 70 124q0 9 -2 17q-8 35 -35 35q-28 0 -76 -37l-141 -108l-12 -72l57 47q45 36 63 36q8 0 11 -7q1 -3 1 -7q0 -19 -32 -59l-98 -106 q-158 -164 -369 -213q-86 -20 -250 -31q-184 -14 -424 -14h-2464z" />
<glyph unicode="s" horiz-adv-x="3665" d="M-25 211q418 -78 482 -494l1659 191q162 18 294 45q121 25 226 57q88 29 174 66q63 29 147 71q102 53 201 136q86 70 176 163l152 162q69 76 69 126q0 8 -2 16q-8 34 -35 34q-28 0 -75 -36l-140 -109l-12 -72l57 47q42 36 61 36q9 0 13 -7q1 -3 1 -6q0 -19 -32 -59 l-71 -76q0 -2 -4 -4l-25 -27q-158 -164 -369 -213q-88 -20 -249 -33q-186 -14 -424 -14h-2274z" />
<glyph unicode="t" horiz-adv-x="5224" d="M-25 231q426 -88 476 -520l3223 217q160 10 297 37q119 23 223 60q86 29 174 69l121 60q2 2 4 2q6 4 4 4q12 4 19 8q102 53 201 135q86 70 176 164l151 162q70 77 70 127q0 8 -2 14q-8 34 -35 34q-28 0 -76 -36l-139 -109l-12 -71l57 47q42 36 61 36q9 0 13 -7q1 -3 1 -6 q0 -19 -32 -60l-72 -76q0 -2 -4 -4l-24 -26q-158 -164 -369 -213q-88 -20 -250 -33q-186 -14 -424 -15h-3832z" />
<glyph unicode="u" horiz-adv-x="4689" d="M-25 260q250 -61 250 -315v-15l3498 195q180 10 348 96q158 80 287 217l152 162q69 76 69 125q0 8 -2 16q-9 36 -36 36q-28 0 -74 -38l-140 -108l-12 -72l57 47q42 36 61 36q9 0 13 -7q4 -10 -8 -31q-10 -18 -35 -43q-39 -43 -114 -110q-211 -190 -562 -191h-3752z" />
<glyph unicode="v" horiz-adv-x="5939" d="M197 -8q293 41 602 41q600 0 1097 -150q41 8 97 23l334 76q139 27 274 43q160 20 328 24l903 14q172 2 313 11q164 6 303 18q156 12 287 33q295 43 481 119q209 88 361 243l153 162q69 72 68 121q0 10 -2 18q-8 36 -35 36t-74 -36l-141 -110l-12 -70l57 47q42 36 61 36 q10 0 13 -9q1 -3 1 -7q0 -19 -32 -57q-14 -18 -43 -49l-55 -57q-145 -150 -361 -207q-86 -23 -188 -39q-92 -12 -201 -20q-90 -6 -201 -8q-45 -2 -98 -2l-2883 -3q-260 0 -703 -63q-229 -33 -397 -72q-195 -45 -281 -92z" />
<glyph unicode="w" horiz-adv-x="4626" d="M213 -29q287 43 602 43q600 0 1098 -149q133 29 285 55l415 68l490 69l252 31q72 8 127 16q139 18 247 46q129 31 236 73q211 86 362 244l154 162q70 75 69 125q0 7 -1 14q-6 27 -41 27t-70 -27l-141 -111l-13 -69l58 47q42 36 60 36q9 0 13 -9q1 -3 1 -7q0 -19 -31 -57 q-14 -18 -43 -49l-56 -57q-76 -80 -170 -132q-84 -49 -190 -75q-86 -23 -188 -39q-92 -12 -201 -21q-90 -6 -201 -8q-45 -2 -98 -2h-1618q-399 0 -795 -63q-403 -66 -585 -164l-13 -8q-10 -4 -14 -9z" />
<glyph unicode="x" horiz-adv-x="5636" d="M168 395q301 -49 573 -282q213 -184 316 -406q10 -20 16 -39l14 23q57 90 197 162q125 66 315 114q168 43 392 74q98 14 209 27l210 20l2001 170q283 23 516 150q162 88 279 213l154 161q69 74 68 124q0 8 -1 16q-6 26 -39 26h-2q-35 0 -69 -26l-142 -111l-12 -70l57 47 q44 36 62 36q9 0 12 -9q1 -3 1 -6q0 -18 -32 -57l-100 -107q-111 -115 -260 -176q-186 -76 -420 -76z" />
<glyph unicode="y" horiz-adv-x="3866" d="M98 344q834 -133 1225 -539l92 60q92 59 211 110q109 45 240 82q115 33 250 60q115 25 249 45l121 18l318 41q209 31 266 60q100 51 201 133q84 70 176 166l151 161q70 75 70 125q0 8 -2 15q-6 26 -39 26h-2q-35 0 -70 -26l-139 -111l-14 -70l59 48q43 33 62 33 q8 0 12 -7q1 -2 1 -5q0 -19 -34 -58q-14 -18 -43 -49l-55 -58q-154 -164 -369 -213q-88 -20 -250 -33q-186 -14 -424 -14h-2263z" />
<glyph unicode="z" horiz-adv-x="3637" d="M131 225q295 -35 586 -149q195 -78 321 -164q352 127 875 176q61 6 139 10l449 21q170 12 266 24q113 16 190 43q150 51 291 201l154 162q69 74 68 125q0 8 -1 16q-8 34 -35 34q-28 0 -75 -36l-142 -108l-12 -72l57 47q43 37 62 37q9 0 12 -8q1 -3 1 -7q0 -19 -32 -59 l-100 -106q-63 -68 -149 -109q-76 -37 -174 -55q-80 -14 -185 -21q-43 -2 -96 -2h-2470z" />
<glyph unicode="{" horiz-adv-x="5939" d="M197 -8q293 41 602 41q600 0 1097 -150q41 8 97 23l334 76q139 27 274 43q160 20 328 24l903 14q172 2 313 11q164 6 303 18q156 12 287 33q295 43 481 119q209 88 361 243l153 162q82 86 66 139q-16 72 -109 0l-141 -110l-12 -70l57 47q63 55 74 27q8 -18 -31 -64 q-14 -18 -43 -49l-55 -57q-145 -150 -361 -207q-86 -23 -188 -39q-92 -12 -201 -20q-90 -6 -201 -8q-45 -2 -98 -2l-2883 -3q-260 0 -703 -63q-229 -33 -397 -72q-195 -45 -281 -92z" />
<glyph unicode="|" horiz-adv-x="4626" d="M213 -29q287 43 602 43q600 0 1098 -149q133 29 285 55l415 68l490 69l252 31q72 8 127 16q139 18 247 46q129 31 236 73q211 86 362 244l154 162q80 86 68 139q-6 27 -41 27t-70 -27l-141 -111l-13 -69l58 47q63 55 73 27q8 -18 -30 -64q-14 -18 -43 -49l-56 -57 q-76 -80 -170 -132q-84 -49 -190 -75q-86 -23 -188 -39q-92 -12 -201 -21q-90 -6 -201 -8q-45 -2 -98 -2h-1618q-399 0 -795 -63q-403 -66 -585 -164l-13 -8q-10 -4 -14 -9z" />
<glyph unicode="}" horiz-adv-x="5636" d="M168 395q301 -49 573 -282q213 -184 316 -406q10 -20 16 -39l14 23q57 90 197 162q125 66 315 114q168 43 392 74q98 14 209 27l210 20l2001 170q283 23 516 150q162 88 279 213l154 161q80 86 67 140q-6 27 -41 26q-35 0 -69 -26l-142 -111l-12 -70l57 47q66 53 74 27 q8 -16 -31 -63l-100 -107q-111 -115 -260 -176q-186 -76 -420 -76z" />
<glyph unicode="~" />
<glyph unicode="&#xa1;" />
<glyph unicode="&#xa2;" />
<glyph unicode="&#xa3;" />
<glyph unicode="&#xa4;" />
<glyph unicode="&#xa5;" />
<glyph unicode="&#xa7;" />
<glyph unicode="&#xa8;" />
<glyph unicode="&#xaa;" />
<glyph unicode="&#xab;" />
<glyph unicode="&#xad;" horiz-adv-x="3713" d="M59 246q258 -61 258 -197q0 -96 -149 -162l3377 359h-3486z" />
<glyph unicode="&#xaf;" />
<glyph unicode="&#xb4;" />
<glyph unicode="&#xb6;" />
<glyph unicode="&#xb7;" />
<glyph unicode="&#xb8;" />
<glyph unicode="&#xba;" />
<glyph unicode="&#xbb;" />
<glyph unicode="&#xbf;" />
<glyph unicode="&#xc6;" />
<glyph unicode="&#xdf;" />
<glyph unicode="&#xf8;" />
<glyph unicode="&#x152;" />
<glyph unicode="&#x153;" />
<glyph unicode="&#x2c6;" />
<glyph unicode="&#x2dc;" />
<glyph unicode="&#x2000;" horiz-adv-x="682" />
<glyph unicode="&#x2001;" horiz-adv-x="1365" />
<glyph unicode="&#x2002;" horiz-adv-x="682" />
<glyph unicode="&#x2003;" horiz-adv-x="1365" />
<glyph unicode="&#x2004;" horiz-adv-x="455" />
<glyph unicode="&#x2005;" horiz-adv-x="341" />
<glyph unicode="&#x2006;" horiz-adv-x="227" />
<glyph unicode="&#x2007;" horiz-adv-x="227" />
<glyph unicode="&#x2008;" horiz-adv-x="170" />
<glyph unicode="&#x2009;" horiz-adv-x="273" />
<glyph unicode="&#x200a;" horiz-adv-x="75" />
<glyph unicode="&#x2010;" horiz-adv-x="3713" d="M59 246q258 -61 258 -197q0 -96 -149 -162l3377 359h-3486z" />
<glyph unicode="&#x2011;" horiz-adv-x="3713" d="M59 246q258 -61 258 -197q0 -96 -149 -162l3377 359h-3486z" />
<glyph unicode="&#x2012;" horiz-adv-x="3713" d="M59 246q258 -61 258 -197q0 -96 -149 -162l3377 359h-3486z" />
<glyph unicode="&#x2013;" />
<glyph unicode="&#x2014;" />
<glyph unicode="&#x2018;" />
<glyph unicode="&#x2019;" />
<glyph unicode="&#x201a;" />
<glyph unicode="&#x201c;" />
<glyph unicode="&#x201d;" />
<glyph unicode="&#x201e;" />
<glyph unicode="&#x2022;" />
<glyph unicode="&#x2026;" />
<glyph unicode="&#x202f;" horiz-adv-x="273" />
<glyph unicode="&#x2039;" />
<glyph unicode="&#x203a;" />
<glyph unicode="&#x205f;" horiz-adv-x="341" />
<glyph unicode="&#xe000;" horiz-adv-x="952" d="M0 0v952h952v-952h-952z" />
<glyph unicode="&#xfb01;" />
<glyph unicode="&#xfb02;" />
</font>
</defs>
</svg>
