<?xml version="1.0" standalone="no"?>
<!DOCTYPE svg PUBLIC "-//W3C//DTD SVG 1.1//EN" "http://www.w3.org/Graphics/SVG/1.1/DTD/svg11.dtd" >
<svg xmlns="http://www.w3.org/2000/svg">
<metadata></metadata>
<defs>
<font id="1-prolook_signboardregular" horiz-adv-x="0" >
<font-face units-per-em="2048" ascent="1638" descent="-410" />
<missing-glyph horiz-adv-x="753" />
<glyph horiz-adv-x="2048" />
<glyph horiz-adv-x="2048" />
<glyph unicode="&#xd;" horiz-adv-x="753" />
<glyph unicode=" "  horiz-adv-x="753" />
<glyph unicode="&#x09;" horiz-adv-x="753" />
<glyph unicode="&#xa0;" horiz-adv-x="753" />
<glyph unicode="!" horiz-adv-x="716" d="M86 139q0 76 48 130.5t136 54.5q84 0 131.5 -53.5t47.5 -125.5q0 -74 -48.5 -128t-136.5 -54q-84 0 -131 53.5t-47 122.5zM143 428l64 803q0 20 13 90t38 73t301 54l86 12l-172 -977z" />
<glyph unicode="&#x22;" horiz-adv-x="731" d="M51 1022l113 412l205 -58l-113 -411zM360 1024l109 412l209 -56l-113 -413z" />
<glyph unicode="#" horiz-adv-x="1163" d="M76 426l26 119h228l73 344h-229l25 119h229l88 411h119l-88 -411h192l86 411h121l-88 -411h229l-24 -119h-229l-74 -344h229l-26 -119h-228l-88 -412h-119l86 412h-190l-88 -412h-119l88 412h-229zM451 545h190l74 344h-193z" />
<glyph unicode="$" horiz-adv-x="937" d="M63 887q0 86 46 155q39 59 114 115q12 8 86 51q57 33 58 39v219q2 6 30 0q86 -16 144 -16q68 0 143 20l4 -149q20 -2 42 -4t50.5 -8t55.5 -17l30 -12l23 -309q-39 18 -64 26q-80 29 -133 29q-39 0 -67 -14q-55 -29 -56 -70q0 -37 41 -70q88 -68 176 -133q80 -76 80 -194 q0 -109 -80 -191q-88 -59 -174 -118l-22 -273h-332l23 156q-27 -4 -61 -11.5t-52 -9.5l-88 -4l31 346l114 6q72 0 134.5 37t50.5 92q-6 27 -17 39q-25 31 -88 58q-137 57 -164 76q-78 53 -78 139z" />
<glyph unicode="%" horiz-adv-x="2101" d="M55 1102q0 176 139.5 284.5t337.5 108.5q197 0 316 -76.5t139 -228.5q4 -33 4 -51q0 -164 -138 -288t-316 -124q-190 0 -330 98q-152 106 -152 277zM381 10q260 344 504 735q154 246 303 519q109 195 115 192q16 -6 49 -6q76 0 227 31q65 12 133 24q-274 -326 -510 -702 q-147 -236 -305 -535q-113 -213 -123 -213q-27 2 -41 2q-76 0 -295 -47h-57zM397 1102q0 -84 34 -146.5t101 -62.5q66 0 101 63q29 53 29 140q-1 38 -7 73q-10 70 -37 111q-33 51 -88 51q-57 0 -92 -57q-25 -43 -37 -121q-4 -33 -4 -51zM1106 416q0 186 162 299 q150 104 362 104q147 0 275 -84q145 -96 145 -239q0 -195 -140.5 -325t-336.5 -130q-193 0 -322 90q-145 102 -145 285zM1454 399q0 -70 27 -125q35 -74 98 -73q86 0 115 112q14 55 14 166q-6 70 -39 119t-80 49q-63 0 -99 -84t-36 -164z" />
<glyph unicode="&#x26;" horiz-adv-x="1544" d="M66 356q0 98 59 189q70 104 207 184q29 16 28 21q0 4 -10 14q-16 18 -28 33q-39 55 -62.5 121.5t-23.5 136.5q0 55 14 105t49 100q53 80 189.5 134t263.5 54q152 0 262 -51q139 -66 168 -197q4 -16 4 -47q0 -115 -125 -233q-135 -96 -268 -191q25 -27 139 -147 q29 -31 82 -86q4 12 12 38.5t8 43.5v102q0 59 4 59h453v-282q0 -4 -51 -4h-80t-31 -2q-29 -98 -53 -156q-8 -18 -21 -43l238 -227q-16 -10 -31 -21q-225 -23 -332 -49q-37 31 -55 45q-59 47 -65 47q-66 -23 -170.5 -45t-192.5 -22q-139 0 -256 38q-143 49 -256 158 q-70 66 -69 180zM475 371q0 -55 25.5 -108.5t70.5 -84.5q57 -39 115 -39q88 0 156 78l-281 307q-16 -2 -20 -6q-33 -23 -49.5 -62.5t-16.5 -84.5zM569 1059q0 -57 19.5 -93t32.5 -36q51 41 75 67q80 83 90 136q4 25 5 34q0 47 -23 71t-61 19q-41 0 -73 -25.5t-48.5 -77.5 t-16.5 -95z" />
<glyph unicode="'" horiz-adv-x="471" d="M66 1022l110 412l207 -56l-113 -413z" />
<glyph unicode="(" horiz-adv-x="837" d="M43 705q0 39 2 57q23 207 162 393q102 137 254 248q127 92 139 80l135 -144q-96 -135 -184 -288q-98 -170 -117 -291q-6 -37 -6 -78q0 -119 51 -295q35 -119 90 -262q18 -57 39 -115l-221 -49q-16 -2 -98 115q-96 137 -160 282q-86 197 -86 347z" />
<glyph unicode=")" horiz-adv-x="960" d="M174 1339l135 144q10 12 135 -78q147 -109 254 -250q141 -190 164 -393q2 -20 3 -35.5t1 -28.5q0 -152 -78 -340q-61 -150 -151 -282q-80 -117 -96 -115l-219 49q51 154 105 345.5t54 324.5q0 43 -6 80q-16 111 -98 258q-53 96 -139 221q-68 96 -64 100z" />
<glyph unicode="*" horiz-adv-x="921" d="M57 1239q0 6 80 59q90 59 180 119q18 -31 37 -61q37 -72 43 -86t15 -8q12 10 22 51q0 4 6 102q0 29 6 88q82 -25 163 -45t122 -20q-23 -49 -43 -99q-78 -123 -86 -149q-8 -23 14 -23q25 4 66 25q127 62 168 78l4 -4v-19q0 -4 -8 -140t-8 -183q-45 8 -88 16 q-57 20 -113 41q-12 4 -21 4q-12 0 -12 -18q0 -25 43 -138q4 -23 8 -45q-2 0 -157 -26q-72 -12 -107 -13q-12 0 -29 5q12 49 25 98q29 100 16 108q-8 6 -99 -68.5t-101 -74.5q-4 0 -49 109q-31 76 -82 155q45 6 92 15q66 4 110 4q10 2 24.5 5t14.5 11q0 4 -12 14 q-31 23 -111 56q-133 55 -133 57z" />
<glyph unicode="+" horiz-adv-x="1200" d="M63 539v270h400v410h276v-410h398v-270h-400v-396h-274v396h-400z" />
<glyph unicode="," horiz-adv-x="512" d="M104 -2l66 156q78 174 84 221q23 -2 45 -4q72 -33 125 -45q-10 -33 -21 -64q-90 -190 -120 -315q-35 6 -74 20q-84 31 -105 31z" />
<glyph unicode="-" horiz-adv-x="1024" d="M115 621q4 23 10 47q23 43 52.5 84t77.5 80.5t64 39.5q8 10 58.5 18.5t130.5 8.5l94 -4q35 -4 78 -6t78 -2q55 0 141 6q24 -2 49 -2q-16 -25 -33 -47q-61 -63 -74.5 -86t-43.5 -101q-23 -57 -39 -57q-4 -10 -92 7.5t-156 17.5q-80 0 -171 -9.5t-187 -19.5q-25 0 -33 4 q-10 6 -4 21z" />
<glyph unicode="." horiz-adv-x="512" d="M82 152q0 74 46 126t134 52t141 -60q47 -53 48 -129q0 -74 -46.5 -126t-134.5 -52t-138 56.5t-50 132.5z" />
<glyph unicode="/" horiz-adv-x="1550" d="M55 29q354 469 617 864q162 244 284 455q78 131 84 129q59 -23 113 -23q41 0 92 16q115 37 144 37q28 0 55 -8q27 -6 26 -18q0 -12 -129 -146q-184 -190 -346 -420q-250 -354 -489 -856q-8 -18 -142.5 -41.5t-226.5 -23.5q-49 0 -72.5 8t-9.5 27z" />
<glyph unicode="0" horiz-adv-x="1572" d="M59 668q0 315 197 546q215 254 557 254t535 -221q172 -199 172 -493q0 -313 -185 -541q-203 -250 -528 -250q-365 0 -567 217q-180 193 -181 488zM473 666q0 -188 80 -308q92 -135 260 -135q137 0 236 183q92 172 92 387q0 180 -72 292q-82 129 -238 129 q-158 0 -262 -174q-96 -162 -96 -374z" />
<glyph unicode="1" horiz-adv-x="583" d="M57 -8q0 29 35 311q29 229 39 352t22.5 416t36.5 293q94 0 189 35q21 5 160 71l4 -4q2 -6 2 -16q0 -53 -39 -317q-51 -350 -74 -533q-41 -338 -41 -520q0 -14 -149 -57q-86 -25 -170 -60q-8 -2 -11 2q-4 8 -4 27z" />
<glyph unicode="2" horiz-adv-x="1093" d="M57 991q16 121 25 180q27 182 37 189q92 55 180 80.5t170 25.5q170 0 303 -98q117 -86 143 -197q12 -55 13 -114q0 -158 -86 -352q-41 -94 -154 -289q-74 -127 -57 -140q20 -14 53 -14q55 0 184 53.5t160 53.5q17 -1 23 -9q10 -16 -68 -165q-51 -98 -100 -195 q-6 -14 -116 -22.5t-261 -8.5q-150 0 -250 7.5t-156 25.5q53 86 107 172q147 225 223 373q123 240 123 371q0 92 -53 131q-27 18 -70 32.5t-98 14.5q-66 0 -132.5 -22.5t-142.5 -82.5z" />
<glyph unicode="3" horiz-adv-x="1083" d="M53 352q0 39 4 68q68 -39 138 -76q162 -96 251 -96q66 0 103 37q47 45 47 143q0 72 -102.5 101.5t-196.5 56.5q-4 2 16 106q14 72 15 121q0 33 -6 68l20 4h43q86 0 129 24q74 41 74 152q0 27 -4 61.5t-47 56t-109 21.5q-63 0 -164 -18l-74 -4q29 96 43 147 q29 96 49.5 107.5t89 23.5t144.5 12q195 0 320 -61q164 -80 180 -254q0 -145 -60 -242q-68 -82 -133 -161q80 -68 142.5 -154t62.5 -197q0 -59 -13.5 -113.5t-47.5 -129.5q-41 -88 -188.5 -141.5t-321.5 -53.5q-131 0 -234.5 35t-146.5 102q-10 14 -16.5 94t-6.5 160z" />
<glyph unicode="4" horiz-adv-x="1323" d="M31 250q66 141 133 285q131 244 300 522t201.5 286.5t90 12.5t88.5 10q49 12 129 57t98 45q12 0 16.5 -35.5t4.5 -109.5q0 -100 -5 -199q-14 -342 -14 -354q0 -154 25 -154h159q-10 -76 -18 -149q-33 -147 -57 -184q-4 -6 -68 -29q-31 -10 -43 -29q-18 -29 -22.5 -93 t-14.5 -99q-2 -8 -20.5 -4t-48.5 4q-45 0 -112 -14.5t-165 -55.5q-10 -2 -10 21q0 16 10 85.5t10 106.5q0 53 -16 70q-4 4 -27 4q-4 0 -237 -21q-117 -10 -189 -10q-137 0 -198 31zM422 596q61 -12 178 -12q84 0 121 6q8 2 10 40t2 111q0 98 -6 213t-12 127 q-84 -115 -166 -229q-63 -129 -127 -256z" />
<glyph unicode="5" horiz-adv-x="970" d="M43 23q-8 25 25 149q25 59 51 119q49 -23 121 -23q111 0 190 51q94 61 94 175q0 20 -2 30q-10 90 -88 119q-55 20 -196 21h-91q-6 0 -6 34q0 82 18.5 253t55.5 431q2 14 115 21q338 16 569 74q-14 -76 -29 -150q-57 -205 -59 -213q-2 -12 -111 -18q-264 -18 -298.5 -32.5 t-34.5 -39.5t22 -39q0 -4 21 -4q12 0 47 2t43 2q166 0 258 -61q147 -98 147 -346q0 -227 -98 -357q-74 -96 -270 -201q-51 -27 -121 -40t-142 -13q-88 0 -155.5 16.5t-75.5 39.5z" />
<glyph unicode="6" horiz-adv-x="1187" d="M53 436q0 170 103 389q74 156 180 305q82 113 160 201q86 96 130 106.5t116.5 20.5t117.5 10q33 0 55 -6q-68 -109 -133 -215q-166 -227 -166 -276q0 -25 31 -19q37 6 69 10.5t62 4.5q182 0 276.5 -114t94.5 -300q0 -103 -33 -234q-39 -141 -205 -246.5t-356 -105.5 q-125 0 -236.5 53.5t-188.5 164t-77 251.5zM461 440q0 -80 38 -137t117 -70q66 -10 115 87.5t49 216.5q0 90 -30.5 155t-98.5 88q-59 18 -124.5 -98.5t-65.5 -241.5z" />
<glyph unicode="7" horiz-adv-x="983" d="M25 1030q8 61 18 123q82 256 110.5 270.5t240.5 23.5t413 9h135q13 -4 25 -6l-541 -1483l-272 -10q43 127 88 256q100 246 202 494q113 279 113 313q0 25 -88 24q-59 0 -204.5 -14t-188.5 -14q-31 0 -41 2q-14 4 -10 12z" />
<glyph unicode="8" horiz-adv-x="1257" d="M55 385q0 68 27 137q18 49 43 80q59 68 111 111q72 57 71 61q0 8 -49 84q-33 51 -78 135q-14 27 -14 70q0 137 121 260q145 150 372 150q242 0 385 -109q133 -100 134 -248q0 -80 -50 -158q-39 -63 -77 -112q-49 -63 -50 -70q23 -20 64 -63t90 -119q47 -74 47 -162 q0 -131 -91 -254t-220 -174q-53 -20 -115.5 -30.5t-124.5 -10.5q-129 0 -247.5 37t-192.5 94q-84 66 -120 139.5t-36 151.5zM483 348q0 -94 34 -152.5t110 -58.5q14 2 22 2q70 8 104.5 68.5t34.5 146.5q0 109 -44 204t-107 110q-57 14 -105.5 -91.5t-48.5 -228.5zM528 1047 q0 -80 35 -130.5t111 -50.5q74 0 108.5 52.5t34.5 132.5q0 98 -44 179t-109 81q-49 0 -92.5 -85t-43.5 -179z" />
<glyph unicode="9" horiz-adv-x="1275" d="M57 889q0 121 60 231q86 158 242.5 247t326.5 89q123 0 227 -48t172 -144q66 -90 95.5 -187.5t29.5 -195.5q0 -172 -90 -355q-63 -129 -172 -258q-84 -102 -141 -170q-109 -129 -127 -139q-20 -12 -80 25q-47 29 -92 59q-10 6 80 158q98 166 98 213q0 33 -37 24 q-72 -16 -131 -16q-201 0 -331 138t-130 329zM436 967q0 -90 42 -163t132 -112q29 -12 54 -12q66 0 100.5 78t34.5 192q0 129 -39 217q-45 101 -119 101q-82 0 -143.5 -92.5t-61.5 -208.5z" />
<glyph unicode=":" horiz-adv-x="614" d="M102 637q0 74 48.5 128t134.5 54q90 0 141 -58.5t51 -135.5q0 -74 -48 -128.5t-134 -54.5q-90 0 -141.5 58.5t-51.5 136.5zM111 158q0 76 48 129t136 53t143 -61q49 -55 49 -134q0 -76 -45 -125q-51 -57 -139 -57t-140 58.5t-52 136.5z" />
<glyph unicode=";" horiz-adv-x="614" d="M72 -18q37 80 73 161q84 180 91 230h47q96 -33 194 -64q-29 -68 -55 -135q-84 -164 -109 -248q-51 10 -106 25q-117 31 -135 31zM188 678q0 76 47.5 130t135.5 54q86 0 135 -55t49 -129t-48 -128t-136 -54q-86 0 -134.5 53t-48.5 129z" />
<glyph unicode="&#x3c;" horiz-adv-x="1165" d="M76 416v180l1014 430v-215l-725 -305l725 -307v-215z" />
<glyph unicode="=" horiz-adv-x="1200" d="M66 348v270h1069v-270h-1069zM66 735v269h1069v-269h-1069z" />
<glyph unicode="&#x3e;" horiz-adv-x="1165" d="M76 -16v215l725 307l-725 305v215l1014 -430v-180z" />
<glyph unicode="?" horiz-adv-x="942" d="M72 1034q18 176 28 254q4 35 13 78q14 25 141 59q147 41 278 41q68 0 127 -12q117 -27 187 -123q63 -88 63 -194q0 -53 -14 -90q-43 -119 -123 -203q-86 -80 -170 -160q-8 -25 -11 -55.5t-3 -79.5v-50.5t2 -33.5h-365q0 104 9.5 158.5t46.5 117.5q104 106 166.5 183 t62.5 133q0 29 -14 51q-27 41 -97 41q-82 0 -213 -57q-43 -18 -114 -58zM227 152q0 78 48.5 133t138.5 55t139 -54.5t49 -133.5q0 -76 -50 -132.5t-138 -56.5t-137.5 55.5t-49.5 133.5z" />
<glyph unicode="@" horiz-adv-x="1568" d="M113 711q0 215 94 383t272 272q68 37 134.5 59.5t129 29.5t109.5 7q266 0 440 -172t174 -436q0 -65 -12 -137q-29 -152 -104.5 -258.5t-173.5 -145.5q-18 -8 -48 -14t-49 -6q-68 0 -113.5 38t-52.5 95v29q-16 -37 -39 -68q-72 -86 -167 -86q-47 0 -95 21 q-160 72 -159 356l8 70q18 123 70.5 217t127.5 147q35 27 81 41t81 14q131 0 178 -118l17 102h100l-72 -418l-24 -166q-6 -43 -6 -69q0 -35 8 -54q6 -27 27.5 -42t50.5 -15q8 0 28.5 6t44 24.5t60.5 60.5t65.5 108.5t44.5 150.5q8 51 9 111q0 221 -140.5 361.5t-359.5 140.5 q-43 0 -92 -7q-221 -33 -365.5 -210t-144.5 -426v-35q4 -25 4 -37q0 -55 14.5 -103.5t42.5 -109.5q76 -166 214.5 -258t303.5 -92q113 0 227.5 46t215.5 136q31 27 55 55q18 20 51 64l29 -101l-47 -57q-231 -246 -541 -246q-276 0 -474 181.5t-228 467.5q-2 23 -3 43.5 t-1 49.5zM578 582q0 -90 31.5 -136.5t88.5 -54.5q61 -8 107.5 38t91.5 171q6 14 17.5 61.5t17.5 77.5l8 35l10 68q2 10 4 35.5t2 54.5v24q-6 53 -41.5 87t-87.5 34q-25 0 -53 -12q-53 -20 -89 -67.5t-71 -149.5q-4 -14 -10 -40t-13 -66t-10 -75.5t-3 -84.5z" />
<glyph unicode="A" horiz-adv-x="1239" d="M6 90q16 37 41 82q45 82 45 134q0 10 -2 18q-10 49 -23.5 98t-13.5 61q0 27 29 27l94 -23q13 0 103 228q84 217 167 436q92 238 109 240q10 2 152 39q55 14 81 14q39 0 50 -21q20 -39 123 -389q94 -322 183 -644.5t89 -332.5q0 -12 -57 -18q-166 -16 -271 -90 q-20 63 -39 129q-27 132 -64 132q-3 0 -5 -1q-31 -6 -62 -6q-35 0 -145 20q-55 10 -88 10q-37 0 -59.5 -5t-53.5 -24.5t-70 -111.5q-25 -61 -47 -121q-39 23 -88 52q-102 59 -178 67zM492 492q14 -12 28 -23q29 -6 84 -6q78 0 121 12q10 9 20 17q-20 29 -53 188.5t-65 167.5 h-1q-14 0 -40 -78q-88 -266 -94 -278z" />
<glyph unicode="B" horiz-adv-x="1288" d="M12 1006l117 305q12 35 182 88q190 59 363 59q111 0 203 -31q111 -39 190 -100q121 -92 121 -205q0 -61 -37 -127q-43 -78 -129 -151q18 -25 37 -49q160 -96 160 -285q0 -39 -4.5 -74t-16.5 -88q-35 -154 -254 -280q-207 -121 -401 -121q-143 0 -250 22q-137 29 -137 80 l34 883q0 18 5.5 47t5.5 31q0 25 -12.5 38t-30.5 13q-16 0 -121 -62q-12 2 -25 7zM504 246q0 -16 49 -17q90 0 182 41q113 51 113 125q0 172 -193 197q-37 16 -73 35l69 166q84 33 146.5 85t62.5 117q0 59 -47 121q-23 31 -59.5 47.5t-77.5 16.5q-55 0 -94 -29t-39 -80z" />
<glyph unicode="C" horiz-adv-x="1259" d="M70 674q0 193 86 352q129 244 352 354q170 84 375 84q98 0 166.5 -15t70.5 -30l51 -342q-18 2 -36 6q-125 66 -224 66q-47 0 -83.5 -9.5t-90.5 -33.5q-115 -55 -177 -168t-62 -244q0 -113 45 -205q57 -121 155 -176q82 -45 189 -45q61 0 132 15.5t144 33.5q16 0 16 -8 q0 -2 -1 -4l-58 -301q-2 -14 -88 -31.5t-190 -17.5q-166 0 -301 37q-168 47 -266.5 150.5t-151.5 241.5t-53 290z" />
<glyph unicode="D" horiz-adv-x="1591" d="M18 1133l285 284q45 45 361 45q264 0 454 -69q250 -92 336 -293q57 -135 57 -277q0 -158 -65.5 -309.5t-189 -294.5t-330.5 -207q-166 -51 -391 -51q-119 0 -207 9.5t-228 29.5q-12 2 -12 20q0 25 49 131.5t62 165.5q31 125 48 314.5t17 331.5q0 195 -20 194zM602 268 q0 -22 49 -22h4q135 0 258 104q164 139 164 395q0 211 -137 336q-111 100 -225 101q-61 0 -62 -33z" />
<glyph unicode="E" horiz-adv-x="1288" d="M57 18q14 53 93 185q31 51 39 103t14 104.5t6 78.5q0 61 -26.5 79t-100.5 18q29 59 57 121q106 160 107 270v45t2 53q0 61 -6 62q0 12 -43 12q-49 0 -123 -12l24 82q117 186 191 211q10 4 145 4q90 0 188.5 -1t204.5 -1q188 0 301 5t144 19q-10 -35 -21 -67 q-109 -172 -178 -220q-12 -8 -46 -12t-77 -4q-27 0 -86 2t-86 2q-29 0 -62.5 -2t-48 -17.5t-22.5 -93t-8 -135.5q2 -27 2 -32q2 -18 51 -19q39 0 76 4q131 14 135 15q49 0 49 -19q0 -27 -49 -143.5t-78 -153.5q-6 -8 -26 -8q-18 0 -33 2q-59 8 -74 8q-37 0 -59.5 -12 t-32.5 -62.5t-10 -105.5q0 -41 5 -66.5t15 -25.5q94 -14 171 -21.5t141 -7.5q102 0 155 8.5t125 28.5q-16 -31 -31 -61q-127 -190 -153 -256q-4 -8 -89 -14.5t-192 -6.5q-254 0 -450 14q-115 23 -230 43z" />
<glyph unicode="F" horiz-adv-x="1130" d="M49 1112q0 47 41 157.5t57 110.5q129 0 359 62q35 2 72 6q-6 -20 24.5 -28.5t91.5 -8.5q70 0 210 11.5t165 11.5q55 -1 61 -13q2 -6 2 -16q0 -36 -28 -119q-36 -106 -70 -166q-20 -35 -229 -35t-224.5 -40.5t-26.5 -109.5t-11 -142q0 -10 47 -11q35 0 117 9 q182 18 227 18q78 0 84 -23q4 -37 4 -51q0 -51 -16.5 -99t-44.5 -97q-12 -20 -42 -27.5t-85 -7.5q-25 0 -84.5 2t-87.5 2q-39 0 -73 -4t-56.5 -20.5t-30.5 -131.5q-20 -264 -56 -321q-10 -16 -147 -39t-174 -53l-4 24q0 35 12 213t12 248q0 68 -10 70q-55 14 -55 73 q0 61 53 153q52 91 65 91h1q8 20 16 41q6 45 6 98q0 39 -2 69t-6 30q0 18 -18 28q-33 16 -129 17q-16 0 -17 18z" />
<glyph unicode="G" horiz-adv-x="1536" d="M76 653q0 184 76.5 359.5t218.5 296.5q98 84 220 121.5t255 37.5q174 0 321.5 -53t147.5 -94l4 -324q-76 37 -174 80q-207 92 -324 92q-45 0 -74.5 -8t-54.5 -33q-94 -90 -139 -196.5t-45 -214.5q0 -160 83 -289t202 -164q37 -12 65 -12q47 0 65.5 27.5t18.5 72.5 q0 35 -8 68t-14 33l-119 -4l43 272q2 12 112.5 17t175 14.5t119.5 9.5q96 0 170 -17.5t72 -31.5l-29 -242l-75 -12q-23 -2 -27 -48t-4 -69v-76q0 -39 -3 -62.5t-12 -41.5q-27 -57 -190 -123q-190 -76 -383 -76q-125 0 -232.5 31t-205.5 106q-129 98 -192.5 241.5 t-63.5 311.5z" />
<glyph unicode="H" horiz-adv-x="1439" d="M16 621q0 18 74 103t82 126q16 104 23.5 188t7.5 148q0 41 -3 75.5t-5 73.5q0 14 6 31q4 10 182 35q111 14 197 47q4 2 6 -4q6 -14 6 -43q0 -33 -27 -297q-12 -121 -12 -172q0 -55 22.5 -62.5t54.5 -11.5t60 -4q45 0 88 6q131 18 150 19q12 0 12 73q0 37 -4 151t-4 126 q0 57 4 90t41 37t187 56q139 48 164 48h3q8 0 8 -65q0 -109 -19.5 -360t-38.5 -528.5t-19 -426.5q0 -23 -141.5 -78t-209.5 -55q-32 0 -32 77q0 41 8 121q18 180 18 242q0 76 -11 122t-54 62.5t-111 16.5q-84 0 -162 -25q-20 -6 -27.5 -29.5t-7.5 -70.5q0 -20 2.5 -69.5 t2.5 -76.5q0 -84 -17 -137q-23 -70 -79 -107.5t-224 -90.5q-45 -6 -90 -13q0 125 11.5 247t23.5 253q0 68 -25.5 97.5t-73 34.5t-47.5 20z" />
<glyph unicode="I" horiz-adv-x="630" d="M72 -8q0 29 34 311q29 229 41 379q0 238 15.5 469t42.5 231q94 0 188 27q68 18 160 61q4 -2 4 -6q4 -16 4 -55q0 -80 -18.5 -337t-36 -533.5t-17.5 -448.5q0 -10 -206 -63q-113 -29 -197 -64q-3 -1 -5 -1q-4 0 -5 3q-4 8 -4 27z" />
<glyph unicode="J" horiz-adv-x="724" d="M43 -37v170v117q0 2 23 2q47 0 77 27q53 45 84 167q43 162 62 418q8 227 18 457q102 37 211.5 75.5t175.5 71.5q-8 -137 -14 -274q-25 -297 -68 -635q-25 -199 -118 -362q-139 -242 -365 -242q-45 0 -86 8z" />
<glyph unicode="K" horiz-adv-x="1296" d="M12 -47q70 264 94.5 553t24.5 911q0 14 162 20.5t229 24.5q2 -20 4 -41q-10 -84 -10 -182q0 -96 -2 -151.5t-8 -102.5q27 12 53 27q41 35 92 98q18 25 125 129q35 35 107 102q207 0 311 7.5t176 21.5q-61 -72 -123 -143q-80 -86 -254 -271q-70 -74 -139 -147 q68 -111 135 -219q156 -254 246 -412q53 -113 106 -223q-76 31 -161 53q-104 29 -181 29q-10 0 -146 146.5t-329 342.5q-25 -57 -49 -114q-14 -172 -29 -344q-186 -53 -372 -107z" />
<glyph unicode="L" horiz-adv-x="1107" d="M45 -14q-2 0 -2 6q0 23 27 135q18 74 36 149q4 14 52 37l22 11q4 137 13.5 351t30 470t44 271.5t195.5 31.5t231 35q1 0 2 1q3 0 4 -5q2 -6 2 -19q-41 -264 -71.5 -555t-30.5 -563q0 -18 40 -26.5t105 -8.5q98 0 208 11.5t184 19.5q-14 -41 -27 -82q-57 -135 -90 -225 q-6 -16 -240.5 -38t-457.5 -22q-164 0 -277 15z" />
<glyph unicode="M" horiz-adv-x="1763" d="M4 51q43 174 86 350q82 289 187.5 641.5t113.5 352.5q23 2 127.5 19.5t153.5 17.5q4 0 57 -150l102 -285q57 -154 72 -157h1q18 0 158 268q142 274 148 274q131 16 258 52l82 12q0 -127 54 -479q47 -295 93 -586q38 -239 38 -283q0 -10 -2 -10q-55 -6 -144 -33 q-225 -70 -256 -73q-10 43 -20 88q-14 133 -29 266q-27 236 -61 432q-53 -88 -107 -174q-131 -213 -219 -338q-133 -188 -186 -203q-6 25 -13 49q-20 215 -157 600q-35 -72 -70 -143q-70 -170 -123 -332q-66 -199 -65 -260q-20 2 -41 4q-150 63 -238 80z" />
<glyph unicode="N" horiz-adv-x="1404" d="M82 0q61 326 69.5 422t8.5 600q0 47 2 70.5t4 46.5q0 25 -9.5 57.5t-33.5 91.5q-2 10 145.5 76t163.5 90q66 -100 131 -201q115 -205 230 -409q123 -211 145 -211h2q6 2 8 66.5t2 86.5q0 80 -4 264.5t-4 243.5q0 88 6 88q94 23 144 35q163 39 196 51q-4 -174 -6 -346 q-8 -389 -20 -693t-27 -316q-86 -68 -141 -103q-91 -57 -131 -57q-17 0 -117 151q-88 133 -199 314q-121 197 -155 246q-18 -76 -35 -150q-16 -199 -31 -397q-106 -45 -219 -86q-63 -16 -125 -31z" />
<glyph unicode="O" horiz-adv-x="1644" d="M66 682q0 176 78.5 339t226.5 261q33 23 32 41q0 14 -22 35q-4 10 -6 20q272 96 495 97q231 0 394 -97q172 -104 256 -313q57 -139 57 -293q0 -213 -108.5 -402.5t-301.5 -301.5q-84 -49 -180 -75t-192 -26q-238 0 -428 131q-199 137 -271 367q-30 101 -30 210v7z M481 743q0 -240 70 -360q78 -135 252 -135q162 0 258 155q88 144 88 357q0 246 -111 360q-90 92 -241 92q-160 0 -244 -151q-72 -129 -72 -318z" />
<glyph unicode="P" horiz-adv-x="1236" d="M47 1038q8 68 19 138q33 145 35.5 159.5t191.5 67.5q211 59 348 59q209 0 340 -61q162 -76 207 -242q18 -74 18 -137q0 -207 -172 -346q-152 -123 -387 -166q-45 -8 -85 -14.5t-42 -12.5q-20 -170 -35.5 -275.5t-31.5 -111.5q-141 -55 -236 -92q-66 -18 -131 -39 q29 76 59 338q23 205 39.5 433.5t16.5 277.5v45v33q-2 8 -6 6q-23 -6 -76 -31t-72 -29zM534 799q-1 -20 -1 -36q0 -19 2 -30q111 18 196 86q102 80 103 178q-1 12 -5 37q-18 102 -84 140q-49 28 -156 28h-7h-21q-10 -2 -10 -24q2 -37 2 -74l-16 -256q-1 -4 -3 -49z" />
<glyph unicode="Q" horiz-adv-x="1724" d="M63 666q0 307 254 546.5t582 239.5q256 0 440 -139q152 -115 236 -303q70 -156 70 -297q0 -156 -39 -245t-174 -247l161 -194q-74 -18 -158.5 -58.5t-156.5 -109.5l-119 164q-102 -35 -190 -49.5t-176 -14.5q-336 0 -545 234q-184 207 -185 473zM469 682q0 -188 74 -305 q92 -145 280 -146q37 0 109 11q25 2 69 12q-14 18 -33.5 51t-37.5 64q51 20 82 37q88 45 178 104q16 10 33.5 74.5t17.5 142.5q0 188 -106 330q-116 153 -289 153h-2q-197 0 -295 -174q-80 -141 -80 -354z" />
<glyph unicode="R" horiz-adv-x="1355" d="M-25 1057q39 68 62 108q72 131 102 209q10 18 197.5 41t365.5 23q219 0 363 -72q211 -106 211 -352q0 -117 -102 -232q-86 -96 -205 -151l184 -344t186 -344q-14 -2 -32.5 -2h-28.5q-109 0 -243 28.5t-136 38.5q-186 340 -278 484q-41 47 -80 96q-25 -172 -47 -383 q-8 -84 -19 -90q-117 -80 -229 -119q-88 -31 -146 -31q-18 0 -24 2q-8 2 -6 8q57 174 92 494q28 255 28 466v15q0 139 -14 140q-47 0 -96 -10.5zM551 680q12 -3 25 -3q68 0 174 79q141 104 141 229q0 21 -2 31q-12 94 -72.5 137t-152.5 43q-43 0 -82 -8z" />
<glyph unicode="S" horiz-adv-x="1132" d="M31 37l22 362q39 -35 119 -86q92 -59 205 -59q37 0 89 8t78.5 32.5t26.5 61.5q0 33 -19.5 65t-45.5 52q-129 86 -258 174q-147 121 -148 299q0 205 150 346q141 133 362 166q16 4 38 4h34q115 0 219.5 -39t147.5 -98q2 -2 3 -38t1 -75v-30v-27v-25q0 -43 -1 -80.5 t-1 -72.5q-61 55 -156 119q-110 73 -202 73h-3q-49 0 -98 -18q-68 -29 -68 -121q0 -61 39 -92q70 -55 215 -141q225 -131 256 -232q18 -66 19 -123q0 -215 -224 -356q-209 -131 -487 -131q-100 0 -208.5 28.5t-104.5 53.5z" />
<glyph unicode="T" horiz-adv-x="1140" d="M-2 1077l100 312q4 12 172 39.5t222 27.5q88 0 196 -12q190 -23 199 -23q12 -2 41 -2q61 0 138 11.5t163 25.5q8 0 12 -2q2 -2 2 -4t-2 -4q-20 -31 -55 -141q-43 -139 -49 -154q-49 -14 -150.5 -31.5t-169.5 -17.5q-43 -436 -67 -731q-12 -168 -19 -291q-117 0 -223 -45 q-152 -63 -152 -88q0 322 15 606q8 143 28 426q4 80 11 160q-106 0 -228 -21q-72 -12 -184 -41z" />
<glyph unicode="U" horiz-adv-x="1329" d="M70 492q0 51 25.5 363t35.5 407q4 37 199 77q98 12 196 25q0 -135 -8 -299t-20.5 -378t-12.5 -259q0 -57 8.5 -97t46.5 -67.5t89 -27.5q59 0 116.5 37.5t91 117.5t49 182.5t15.5 214.5q0 80 -6 197q-14 272 -14 363q0 12 192 69q99 20 197 43q12 -135 12 -286 q0 -197 -14.5 -356t-36.5 -240q-68 -254 -262 -439q-184 -176 -355 -176q-260 0 -368 70q-176 115 -176 459z" />
<glyph unicode="V" horiz-adv-x="1208" d="M-2 1300q92 18 184 37q190 31 219 31q31 -96 62 -190q86 -262 119 -357q66 -193 71 -192q6 0 86 190q45 106 148 359q76 188 82 198q2 6 196 45q64 12 197 39q-27 -43 -129 -297q-137 -338 -223 -536q-154 -352 -277 -582l-330 -82q-18 109 -102 336q-123 336 -160 446 q-96 295 -143 555z" />
<glyph unicode="W" horiz-adv-x="1687" d="M4 1315q0 25 6 28q53 27 190.5 49.5t180.5 41.5l86 -320q86 -336 123 -409q10 -25 26 -25q20 0 52 59q12 27 84 205q12 31 12 68q0 80 -58 198q-51 103 -52 120q0 2 1 3q16 12 162 32.5t203 61.5q35 -72 70 -143q41 -164 81 -326q51 -186 91 -202q37 76 75 151 q27 88 82 312q41 172 45 172q172 43 346 88q-47 -176 -92 -351q-115 -360 -227 -669q-131 -360 -150 -373q-68 -49 -98 -70q-55 -39 -113 -49h-1q-37 -1 -128 313q-92 320 -129 320q-14 0 -22 -20q-82 -180 -164 -359q-148 -258 -287 -258q-13 0 -112 303q-117 356 -187 608 q-96 348 -96 441z" />
<glyph unicode="X" horiz-adv-x="1388" d="M12 -39q55 92 111 184q121 201 207 347q113 190 112 194q-51 84 -102 170q-104 176 -186 315q-47 86 -95 172q170 18 310 58q85 24 95 24h1q66 -98 172 -272q63 -104 70 -104q8 2 94 110q98 125 172 225q2 6 201 27l196 16q-154 -229 -295 -428q-168 -236 -168 -239 q-1 -12 97 -188l239 -413q0 -8 -80 -59q-143 -94 -239 -163q-6 33 -65.5 153.5t-190.5 296.5q-39 -43 -76 -86q-90 -119 -191 -283q-4 -6 -118.5 -15t-270.5 -42z" />
<glyph unicode="Y" horiz-adv-x="1095" d="M2 1327q-2 8 172 64q100 33 176 61q57 -133 127 -266t127 -193q41 72 82 146q88 164 125 241q2 6 201 35q65 9 198 29q-39 -78 -221 -385q-152 -254 -215 -420q-96 -248 -96 -487q0 -16 -184 -72q-137 -41 -287 -117q43 127 81 299t38 295q0 47 -7 94q-70 141 -153 307 q-92 182 -164 369z" />
<glyph unicode="Z" horiz-adv-x="1394" d="M31 -2q80 131 159 264q221 354 304 492q72 133 143 268q-219 35 -361 35q-115 0 -245 -21l155 394q16 8 97.5 14t162.5 6h53.5t51.5 -4q174 -25 324.5 -36t252.5 -11q88 0 125 2t64 8q-119 -184 -238 -385q-301 -512 -354 -596q-4 -8 -4 -14q0 -20 41 -34q55 -18 156 -18 q98 0 194 12.5t174 39.5q-23 -43 -43 -86q-176 -328 -182 -338q-4 -6 -94 -6q-299 6 -514 10t-422 4z" />
<glyph unicode="[" horiz-adv-x="665" d="M125 -123v1667h491v-192h-247v-1282h247v-193h-491z" />
<glyph unicode="\" horiz-adv-x="1550" d="M66 1481q0 12 15 16t34.5 7t31.5 3q35 0 144 -34q57 -18 96 -19q51 0 109 23q6 2 82 -127q121 -209 284 -455q259 -387 619 -866q14 -18 -10.5 -26.5t-73.5 -8.5q-102 0 -229.5 22.5t-137.5 42.5q-236 494 -489 854q-164 233 -344 420q-131 135 -131 148z" />
<glyph unicode="]" horiz-adv-x="665" d="M59 70h248v1282h-248v192h492v-1667h-492v193z" />
<glyph unicode="^" horiz-adv-x="1165" d="M123 645l360 750h199l360 -750h-219l-239 524l-242 -524h-219z" />
<glyph unicode="_" horiz-adv-x="1110" d="M0 -150h1110v-100h-1110v100z" />
<glyph unicode="`" d="M410 1694l131 204l354 -227l-90 -153z" />
<glyph unicode="a" horiz-adv-x="1239" d="M6 90q16 37 41 82q45 82 45 134q0 10 -2 18q-10 49 -23.5 98t-13.5 61q0 27 29 27l94 -23q13 0 103 228q84 217 167 436q92 238 109 240q10 2 152 39q55 14 81 14q39 0 50 -21q20 -39 123 -389q94 -322 183 -644.5t89 -332.5q0 -12 -57 -18q-166 -16 -271 -90 q-20 63 -39 129q-27 132 -64 132q-3 0 -5 -1q-31 -6 -62 -6q-35 0 -145 20q-55 10 -88 10q-37 0 -59.5 -5t-53.5 -24.5t-70 -111.5q-25 -61 -47 -121q-39 23 -88 52q-102 59 -178 67zM492 492q14 -12 28 -23q29 -6 84 -6q78 0 121 12q10 9 20 17q-20 29 -53 188.5t-65 167.5 h-1q-14 0 -40 -78q-88 -266 -94 -278z" />
<glyph unicode="b" horiz-adv-x="1288" d="M12 1006l117 305q12 35 182 88q190 59 363 59q111 0 203 -31q111 -39 190 -100q121 -92 121 -205q0 -61 -37 -127q-43 -78 -129 -151q18 -25 37 -49q160 -96 160 -285q0 -39 -4.5 -74t-16.5 -88q-35 -154 -254 -280q-207 -121 -401 -121q-143 0 -250 22q-137 29 -137 80 l34 883q0 18 5.5 47t5.5 31q0 25 -12.5 38t-30.5 13q-16 0 -121 -62q-12 2 -25 7zM504 246q0 -16 49 -17q90 0 182 41q113 51 113 125q0 172 -193 197q-37 16 -73 35l69 166q84 33 146.5 85t62.5 117q0 59 -47 121q-23 31 -59.5 47.5t-77.5 16.5q-55 0 -94 -29t-39 -80z" />
<glyph unicode="c" horiz-adv-x="1259" d="M70 674q0 193 86 352q129 244 352 354q170 84 375 84q98 0 166.5 -15t70.5 -30l51 -342q-18 2 -36 6q-125 66 -224 66q-47 0 -83.5 -9.5t-90.5 -33.5q-115 -55 -177 -168t-62 -244q0 -113 45 -205q57 -121 155 -176q82 -45 189 -45q61 0 132 15.5t144 33.5q16 0 16 -8 q0 -2 -1 -4l-58 -301q-2 -14 -88 -31.5t-190 -17.5q-166 0 -301 37q-168 47 -266.5 150.5t-151.5 241.5t-53 290z" />
<glyph unicode="d" horiz-adv-x="1591" d="M18 1133l285 284q45 45 361 45q264 0 454 -69q250 -92 336 -293q57 -135 57 -277q0 -158 -65.5 -309.5t-189 -294.5t-330.5 -207q-166 -51 -391 -51q-119 0 -207 9.5t-228 29.5q-12 2 -12 20q0 25 49 131.5t62 165.5q31 125 48 314.5t17 331.5q0 195 -20 194zM602 268 q0 -22 49 -22h4q135 0 258 104q164 139 164 395q0 211 -137 336q-111 100 -225 101q-61 0 -62 -33z" />
<glyph unicode="e" horiz-adv-x="1288" d="M57 18q14 53 93 185q31 51 39 103t14 104.5t6 78.5q0 61 -26.5 79t-100.5 18q29 59 57 121q106 160 107 270v45t2 53q0 61 -6 62q0 12 -43 12q-49 0 -123 -12l24 82q117 186 191 211q10 4 145 4q90 0 188.5 -1t204.5 -1q188 0 301 5t144 19q-10 -35 -21 -67 q-109 -172 -178 -220q-12 -8 -46 -12t-77 -4q-27 0 -86 2t-86 2q-29 0 -62.5 -2t-48 -17.5t-22.5 -93t-8 -135.5q2 -27 2 -32q2 -18 51 -19q39 0 76 4q131 14 135 15q49 0 49 -19q0 -27 -49 -143.5t-78 -153.5q-6 -8 -26 -8q-18 0 -33 2q-59 8 -74 8q-37 0 -59.5 -12 t-32.5 -62.5t-10 -105.5q0 -41 5 -66.5t15 -25.5q94 -14 171 -21.5t141 -7.5q102 0 155 8.5t125 28.5q-16 -31 -31 -61q-127 -190 -153 -256q-4 -8 -89 -14.5t-192 -6.5q-254 0 -450 14q-115 23 -230 43z" />
<glyph unicode="f" horiz-adv-x="1130" d="M49 1112q0 47 41 157.5t57 110.5q129 0 359 62q35 2 72 6q-6 -20 24.5 -28.5t91.5 -8.5q70 0 210 11.5t165 11.5q55 -1 61 -13q2 -6 2 -16q0 -36 -28 -119q-35 -106 -70 -166q-20 -35 -229 -35t-224.5 -40.5t-26.5 -109.5t-11 -142q0 -10 47 -11q35 0 117 9 q182 18 227 18q78 0 84 -23q4 -37 4 -51q0 -51 -16.5 -99t-44.5 -97q-12 -20 -42 -27.5t-85 -7.5q-25 0 -84.5 2t-87.5 2q-39 0 -73 -4t-56.5 -20.5t-30.5 -131.5q-20 -264 -56 -321q-10 -16 -147 -39t-174 -53l-4 24q0 35 12 213t12 248q0 68 -10 70q-55 14 -55 73 q0 61 53 153q52 91 65 91h1q8 20 16 41q6 45 6 98q0 39 -2 69t-6 30q0 18 -18 28q-33 16 -129 17q-16 0 -17 18z" />
<glyph unicode="g" horiz-adv-x="1536" d="M76 653q0 184 76.5 359.5t218.5 296.5q98 84 220 121.5t255 37.5q174 0 321.5 -53t147.5 -94l4 -324q-76 37 -174 80q-207 92 -324 92q-45 0 -74.5 -8t-54.5 -33q-94 -90 -139 -196.5t-45 -214.5q0 -160 83 -289t202 -164q37 -12 65 -12q47 0 65.5 27.5t18.5 72.5 q0 35 -8 68t-14 33l-119 -4l43 272q2 12 112.5 17t175 14.5t119.5 9.5q96 0 170 -17.5t72 -31.5l-29 -242l-75 -12q-23 -2 -27 -48t-4 -69v-76q0 -39 -3 -62.5t-12 -41.5q-27 -57 -190 -123q-190 -76 -383 -76q-125 0 -232.5 31t-205.5 106q-129 98 -192.5 241.5 t-63.5 311.5z" />
<glyph unicode="h" horiz-adv-x="1439" d="M16 621q0 18 74 103t82 126q16 104 23.5 188t7.5 148q0 41 -3 75.5t-5 73.5q0 14 6 31q4 10 182 35q111 14 197 47q4 2 6 -4q6 -14 6 -43q0 -33 -27 -297q-12 -121 -12 -172q0 -55 22.5 -62.5t54.5 -11.5t60 -4q45 0 88 6q131 18 150 19q12 0 12 73q0 37 -4 151t-4 126 q0 57 4 90t41 37t187 56q139 48 164 48h3q8 0 8 -65q0 -109 -19.5 -360t-38.5 -528.5t-19 -426.5q0 -23 -141.5 -78t-209.5 -55q-32 0 -32 77q0 41 8 121q18 180 18 242q0 76 -11 122t-54 62.5t-111 16.5q-84 0 -162 -25q-20 -6 -27.5 -29.5t-7.5 -70.5q0 -20 2.5 -69.5 t2.5 -76.5q0 -84 -17 -137q-23 -70 -79 -107.5t-224 -90.5q-45 -6 -90 -13q0 125 11.5 247t23.5 253q0 68 -25.5 97.5t-73 34.5t-47.5 20z" />
<glyph unicode="i" horiz-adv-x="630" d="M72 -8q0 29 34 311q29 229 41 379q0 238 15.5 469t42.5 231q94 0 188 27q68 18 160 61q4 -2 4 -6q4 -16 4 -55q0 -80 -18.5 -337t-36 -533.5t-17.5 -448.5q0 -10 -206 -63q-113 -29 -197 -64q-3 -1 -5 -1q-4 0 -5 3q-4 8 -4 27z" />
<glyph unicode="j" horiz-adv-x="724" d="M43 -37v170v117q0 2 23 2q47 0 77 27q53 45 84 167q43 162 62 418q8 227 18 457q102 37 211.5 75.5t175.5 71.5q-8 -137 -14 -274q-25 -297 -68 -635q-25 -199 -118 -362q-139 -242 -365 -242q-45 0 -86 8z" />
<glyph unicode="k" horiz-adv-x="1296" d="M12 -47q70 264 94.5 553t24.5 911q0 14 162 20.5t229 24.5q2 -20 4 -41q-10 -84 -10 -182q0 -96 -2 -151.5t-8 -102.5q27 12 53 27q41 35 92 98q18 25 125 129q35 35 107 102q207 0 311 7.5t176 21.5q-61 -72 -123 -143q-80 -86 -254 -271q-70 -74 -139 -147 q68 -111 135 -219q156 -254 246 -412q53 -113 106 -223q-76 31 -161 53q-104 29 -181 29q-10 0 -146 146.5t-329 342.5q-25 -57 -49 -114q-14 -172 -29 -344q-186 -53 -372 -107z" />
<glyph unicode="l" horiz-adv-x="1107" d="M45 -14q-2 0 -2 6q0 23 27 135q18 74 36 149q4 14 52 37l22 11q4 137 13.5 351t30 470t44 271.5t195.5 31.5t231 35q1 0 2 1q3 0 4 -5q2 -6 2 -19q-41 -264 -71.5 -555t-30.5 -563q0 -18 40 -26.5t105 -8.5q98 0 208 11.5t184 19.5q-14 -41 -27 -82q-57 -135 -90 -225 q-6 -16 -240.5 -38t-457.5 -22q-164 0 -277 15z" />
<glyph unicode="m" horiz-adv-x="1763" d="M4 51q43 174 86 350q82 289 187.5 641.5t113.5 352.5q23 2 127.5 19.5t153.5 17.5q4 0 57 -150l102 -285q57 -154 72 -157h1q18 0 158 268q142 274 148 274q131 16 258 52l82 12q0 -127 54 -479q47 -295 93 -586q38 -239 38 -283q0 -10 -2 -10q-55 -6 -144 -33 q-225 -70 -256 -73q-10 43 -20 88q-14 133 -29 266q-27 236 -61 432q-53 -88 -107 -174q-131 -213 -219 -338q-133 -188 -186 -203q-6 25 -13 49q-20 215 -157 600q-35 -72 -70 -143q-70 -170 -123 -332q-66 -199 -65 -260q-20 2 -41 4q-150 63 -238 80z" />
<glyph unicode="n" horiz-adv-x="1404" d="M82 0q61 326 69.5 422t8.5 600q0 47 2 70.5t4 46.5q0 25 -9.5 57.5t-33.5 91.5q-2 10 145.5 76t163.5 90q66 -100 131 -201q115 -205 230 -409q123 -211 145 -211h2q6 2 8 66.5t2 86.5q0 80 -4 264.5t-4 243.5q0 88 6 88q94 23 144 35q163 39 196 51q-4 -174 -6 -346 q-8 -389 -20 -693t-27 -316q-86 -68 -141 -103q-91 -57 -131 -57q-17 0 -117 151q-88 133 -199 314q-121 197 -155 246q-18 -76 -35 -150q-16 -199 -31 -397q-106 -45 -219 -86q-63 -16 -125 -31z" />
<glyph unicode="o" horiz-adv-x="1644" d="M66 682q0 176 78.5 339t226.5 261q33 23 32 41q0 14 -22 35q-4 10 -6 20q272 96 495 97q231 0 394 -97q172 -104 256 -313q57 -139 57 -293q0 -213 -108.5 -402.5t-301.5 -301.5q-84 -49 -180 -75t-192 -26q-238 0 -428 131q-199 137 -271 367q-30 101 -30 210v7z M481 743q0 -240 70 -360q78 -135 252 -135q162 0 258 155q88 144 88 357q0 246 -111 360q-90 92 -241 92q-160 0 -244 -151q-72 -129 -72 -318z" />
<glyph unicode="p" horiz-adv-x="1236" d="M47 1038q8 68 19 138q33 145 35.5 159.5t191.5 67.5q211 59 348 59q209 0 340 -61q162 -76 207 -242q18 -74 18 -137q0 -207 -172 -346q-152 -123 -387 -166q-45 -8 -85 -14.5t-42 -12.5q-20 -170 -35.5 -275.5t-31.5 -111.5q-141 -55 -236 -92q-66 -18 -131 -39 q29 76 59 338q23 205 39.5 433.5t16.5 277.5v45v33q-2 8 -6 6q-23 -6 -76 -31t-72 -29zM534 799q-1 -20 -1 -36q0 -19 2 -30q111 18 196 86q102 80 103 178q-1 12 -5 37q-18 102 -84 140q-49 28 -156 28h-7h-21q-10 -2 -10 -24q2 -37 2 -74l-16 -256q0 -4 -3 -49z" />
<glyph unicode="q" horiz-adv-x="1724" d="M63 666q0 307 254 546.5t582 239.5q256 0 440 -139q152 -115 236 -303q70 -156 70 -297q0 -156 -39 -245t-174 -247l161 -194q-74 -18 -158.5 -58.5t-156.5 -109.5l-119 164q-102 -35 -190 -49.5t-176 -14.5q-336 0 -545 234q-184 207 -185 473zM469 682q0 -188 74 -305 q92 -145 280 -146q37 0 109 11q25 2 69 12q-14 18 -33.5 51t-37.5 64q51 20 82 37q88 45 178 104q16 10 33.5 74.5t17.5 142.5q0 188 -106 330q-116 153 -289 153h-2q-197 0 -295 -174q-80 -141 -80 -354z" />
<glyph unicode="r" horiz-adv-x="1355" d="M-25 1057q39 68 62 108q72 131 102 209q10 18 197.5 41t365.5 23q219 0 363 -72q211 -106 211 -352q0 -117 -102 -232q-86 -96 -205 -151l184 -344t186 -344q-14 -2 -32.5 -2h-28.5q-109 0 -243 28.5t-136 38.5q-186 340 -278 484q-41 47 -80 96q-25 -172 -47 -383 q-8 -84 -19 -90q-117 -80 -229 -119q-88 -31 -146 -31q-18 0 -24 2q-8 2 -6 8q57 174 92 494q28 255 28 466v15q0 139 -14 140q-47 0 -96 -10.5zM551 680q12 -3 25 -3q68 0 174 79q141 104 141 229q0 21 -2 31q-12 94 -72.5 137t-152.5 43q-43 0 -82 -8z" />
<glyph unicode="s" horiz-adv-x="1132" d="M31 37l22 362q39 -35 119 -86q92 -59 205 -59q37 0 89 8t78.5 32.5t26.5 61.5q0 33 -19.5 65t-45.5 52q-129 86 -258 174q-147 121 -148 299q0 205 150 346q141 133 362 166q16 4 38 4h34q115 0 219.5 -39t147.5 -98q2 -2 3 -38t1 -75v-30v-27v-25q0 -43 -1 -80.5 t-1 -72.5q-61 55 -156 119q-110 73 -202 73h-3q-49 0 -98 -18q-68 -29 -68 -121q0 -61 39 -92q70 -55 215 -141q225 -131 256 -232q18 -66 19 -123q0 -215 -224 -356q-209 -131 -487 -131q-100 0 -208.5 28.5t-104.5 53.5z" />
<glyph unicode="t" horiz-adv-x="1140" d="M-2 1077l100 312q4 12 172 39.5t222 27.5q88 0 196 -12q190 -23 199 -23q12 -2 41 -2q61 0 138 11.5t163 25.5q8 0 12 -2q2 -2 2 -4t-2 -4q-20 -31 -55 -141q-43 -139 -49 -154q-49 -14 -150.5 -31.5t-169.5 -17.5q-43 -436 -67 -731q-12 -168 -19 -291q-117 0 -223 -45 q-152 -63 -152 -88q0 322 15 606q8 143 28 426q4 80 11 160q-106 0 -228 -21q-72 -12 -184 -41z" />
<glyph unicode="u" horiz-adv-x="1329" d="M70 492q0 51 25.5 363t35.5 407q4 37 199 77q98 12 196 25q0 -135 -8 -299t-20.5 -378t-12.5 -259q0 -57 8.5 -97t46.5 -67.5t89 -27.5q59 0 116.5 37.5t91 117.5t49 182.5t15.5 214.5q0 80 -6 197q-14 272 -14 363q0 12 192 69q99 20 197 43q12 -135 12 -286 q0 -197 -14.5 -356t-36.5 -240q-68 -254 -262 -439q-184 -176 -355 -176q-260 0 -368 70q-176 115 -176 459z" />
<glyph unicode="v" horiz-adv-x="1208" d="M-2 1300q92 18 184 37q190 31 219 31q31 -96 62 -190q86 -262 119 -357q66 -193 71 -192q6 0 86 190q45 106 148 359q76 188 82 198q2 6 196 45q64 12 197 39q-27 -43 -129 -297q-137 -338 -223 -536q-154 -352 -277 -582l-330 -82q-18 109 -102 336q-123 336 -160 446 q-96 295 -143 555z" />
<glyph unicode="w" horiz-adv-x="1687" d="M4 1315q0 25 6 28q53 27 190.5 49.5t180.5 41.5l86 -320q86 -336 123 -409q10 -25 26 -25q20 0 52 59q12 27 84 205q12 31 12 68q0 80 -58 198q-51 103 -52 120q0 2 1 3q16 12 162 32.5t203 61.5q35 -72 70 -143q41 -164 81 -326q51 -186 91 -202q37 76 75 151 q27 88 82 312q41 172 45 172q172 43 346 88q-47 -176 -92 -351q-115 -360 -227 -669q-131 -360 -150 -373q-68 -49 -98 -70q-55 -39 -113 -49h-1q-37 -1 -128 313q-92 320 -129 320q-14 0 -22 -20q-82 -180 -164 -359q-148 -258 -287 -258q-13 0 -112 303q-117 356 -187 608 q-96 348 -96 441z" />
<glyph unicode="x" horiz-adv-x="1388" d="M12 -39q55 92 111 184q121 201 207 347q113 190 112 194q-51 84 -102 170q-104 176 -186 315q-47 86 -95 172q170 18 310 58q85 24 95 24h1q66 -98 172 -272q63 -104 70 -104q8 2 94 110q98 125 172 225q2 6 201 27l196 16q-154 -229 -295 -428q-168 -236 -168 -239 q-1 -12 97 -188l239 -413q0 -8 -80 -59q-143 -94 -239 -163q-6 33 -65.5 153.5t-190.5 296.5q-39 -43 -76 -86q-90 -119 -191 -283q-4 -6 -118.5 -15t-270.5 -42z" />
<glyph unicode="y" horiz-adv-x="1095" d="M2 1327q-2 8 172 64q100 33 176 61q57 -133 127 -266t127 -193q41 72 82 146q88 164 125 241q2 6 201 35q65 9 198 29q-39 -78 -221 -385q-152 -254 -215 -420q-96 -248 -96 -487q0 -16 -184 -72q-137 -41 -287 -117q43 127 81 299t38 295q0 47 -7 94q-70 141 -153 307 q-92 182 -164 369z" />
<glyph unicode="z" horiz-adv-x="1394" d="M31 -2q80 131 159 264q221 354 304 492q72 133 143 268q-219 35 -361 35q-115 0 -245 -21l155 394q16 8 97.5 14t162.5 6h53.5t51.5 -4q174 -25 324.5 -36t252.5 -11q88 0 125 2t64 8q-119 -184 -238 -385q-301 -512 -354 -596q-4 -8 -4 -14q0 -20 41 -34q55 -18 156 -18 q98 0 194 12.5t174 39.5q-23 -43 -43 -86q-176 -328 -182 -338q-4 -6 -94 -6q-299 6 -514 10t-422 4z" />
<glyph unicode="{" horiz-adv-x="776" d="M96 596v164q63 0 113 24q74 37 74 111v360q0 119 87 183.5t193 64.5h166v-160h-90q-70 0 -91.5 -31.5t-21.5 -84.5v-353q-12 -100 -96 -153q-57 -35 -131 -43q72 -4 129 -41q86 -55 98 -156v-352q0 -53 17 -78q27 -39 96 -39h90v-159h-166q-106 0 -186 59q-94 70 -94 186 v359q0 57 -43 92q-57 47 -144 47z" />
<glyph unicode="|" horiz-adv-x="559" d="M168 -39v1512h223v-1512h-223z" />
<glyph unicode="}" horiz-adv-x="776" d="M72 12h90q70 0 94 37q18 27 18 80v352q12 100 97 154q61 39 131 39q-78 12 -129 45q-86 55 -99 155v353q0 53 -16 78q-27 39 -96 38h-90v160h166q106 0 186 -59q94 -70 94 -189v-360q0 -72 72 -109q53 -27 115 -26v-164q-61 0 -113 -27q-74 -39 -74 -112v-359 q0 -119 -92 -186q-80 -59 -188 -59h-166v159z" />
<glyph unicode="~" horiz-adv-x="1165" d="M121 506q41 76 90 117q68 55 160 55q49 0 108 -19q39 -12 115 -47q55 -27 82 -37q84 -37 121 -36q61 0 118 67q23 29 58 78l71 -178q-57 -82 -100 -117q-68 -55 -149 -55q-51 0 -97.5 15.5t-106 49t-104.5 50.5q-63 23 -127 22q-59 0 -102 -45q-35 -37 -63 -100z" />
<glyph unicode="&#xa1;" horiz-adv-x="716" d="M61 -63l172 976l330 56l-63 -803q0 -20 -13.5 -90t-38 -73t-301.5 -54zM258 1251q0 74 48 128.5t136 54.5q84 0 131.5 -53.5t47.5 -123.5q0 -76 -48.5 -130t-136.5 -54q-84 0 -131 53.5t-47 124.5z" />
<glyph unicode="&#xa2;" horiz-adv-x="866" d="M63 766q0 131 84 217q92 66 185 131l-6 232q0 12 20 12q16 0 64.5 -9.5t64.5 -9.5l139 -2l2 -180l127 -39l19 -235l-184 26q-37 4 -54 4q-80 0 -123 -42t-43 -130q0 -70 43 -96.5t117 -26.5q68 0 162 23l78 16l-15 -229l-159 -55l-33 -219h-315l24 274q0 16 -98.5 90 t-98.5 248z" />
<glyph unicode="&#xa3;" horiz-adv-x="1329" d="M29 43q0 68 59 164q72 115 162 115q72 0 131 75q53 68 53 131q0 49 -39 50l-289 2l-16 251h201q16 0 16 17q-16 55 -27.5 105.5t-11.5 99.5q0 94 41 174q53 102 178 200q49 39 123 56.5t162 17.5q147 0 301 -41t154 -59l-33 -248q-23 2 -43 6q-137 70 -219 70 q-63 0 -122.5 -29t-115.5 -100q-31 -39 -30 -96q0 -55 28.5 -111.5t38.5 -56.5h275v-256l-252 -2q-16 0 -23 -46q-18 -119 -131 -176q37 -18 74 -37q160 -23 323 -22q51 0 110.5 12.5t119.5 26.5q14 0 12 -14l-78 -250q-6 -18 -90 -41t-188 -23q-68 0 -97.5 4t-88 19.5 t-132.5 40.5q-141 49 -219 49q-90 0 -119 -29q-16 -35 -32 -67h-158q-8 0 -8 18z" />
<glyph unicode="&#xa4;" horiz-adv-x="1138" d="M47 303l119 119q-47 63 -72.5 139t-25.5 160q0 86 24.5 158.5t71.5 138.5l-117 117l107 106l116 -117q133 104 305 105q164 0 299 -99l111 111l107 -106l-111 -111q49 -63 75.5 -140t26.5 -163q0 -174 -104 -305l111 -111l-107 -106l-111 112q-129 -98 -297 -98 q-170 0 -301 102l-120 -120zM240 721q0 -139 98 -237.5t237 -98.5t237.5 98.5t98.5 237.5t-98 237.5t-238 98.5q-139 0 -237 -98.5t-98 -237.5z" />
<glyph unicode="&#xa5;" horiz-adv-x="1095" d="M2 1327q0 6 72 31q246 82 276 94q51 -121 84 -186q96 -197 170 -273q53 94 82 148q86 158 125 239q0 6 199 35q65 9 200 29q-49 -100 -119.5 -219t-140.5 -234l164 2v-268h-305l-47 -117h352v-270h-422q-14 -86 -14 -186q0 -16 -184 -72q-137 -41 -287 -117q23 68 35 113 q43 150 63 262h-260v270h279l-5 43q0 16 -26 74h-248v268h105q-45 92 -72 152q-43 94 -76 182z" />
<glyph unicode="&#xa6;" />
<glyph unicode="&#xa7;" horiz-adv-x="1054" d="M63 598q0 88 52 158q43 59 127 106q-45 43 -68 88q-33 63 -33 144q0 147 99 247q109 111 284 111q160 0 260 -76q125 -94 125 -291h-241q0 154 -148 154q-63 0 -100 -34t-37 -77q0 -66 72 -106l307 -162q113 -59 162 -119q67 -81 67 -206q0 -55 -39 -127 q-53 -96 -143 -140q47 -41 76 -92q43 -76 43 -164q0 -180 -127 -284q-115 -94 -283 -95q-219 0 -325 150q-74 102 -74 223h250q8 -70 39 -108q43 -53 129 -54q57 0 92 33q45 43 45 109q0 45 -26.5 74.5t-84.5 60.5l-293 158q-109 57 -153 120q-53 76 -54 199zM289 649 q0 -41 22.5 -71.5t63.5 -53.5l299 -166q39 23 60.5 55.5t21.5 75.5q0 41 -31 72t-80 55l-276 148q-29 -10 -50 -37q-31 -41 -30 -78z" />
<glyph unicode="&#xa8;" d="M109 1634q0 70 45 109t104 39t99 -35t40 -105q0 -68 -45 -108.5t-102 -40.5q-59 0 -100 37t-41 104zM475 1642q0 70 44 109t106 39q57 0 98 -36.5t41 -104.5q0 -70 -44 -109t-106 -39q-57 0 -98 37t-41 104z" />
<glyph unicode="&#xa9;" horiz-adv-x="1593" d="M37 719q0 344 229 555q215 199 531 199q315 0 528 -197q229 -211 229 -557q0 -344 -229 -557q-215 -201 -528 -201q-315 0 -531 199q-229 213 -229 559zM256 719q0 -258 155.5 -420t385.5 -162q225 0 382.5 162t157.5 420q0 256 -157.5 417.5t-382.5 161.5 q-231 0 -386 -160.5t-155 -418.5zM412 725q0 190 110.5 311t298.5 121q137 0 233.5 -80t121.5 -227h-172q-12 66 -63.5 99.5t-119.5 33.5q-96 0 -150.5 -68.5t-54.5 -185.5q0 -113 58.5 -188.5t150.5 -75.5q76 0 124 36t55 103h180q-25 -147 -124 -230t-235 -83 q-186 0 -299.5 123t-113.5 311z" />
<glyph unicode="&#xaa;" horiz-adv-x="757" d="M4 625q10 23 25 49q31 59 24 92q-4 18 -13 52t-9 42q0 16 20 17q14 0 55 -13q8 -2 112 268.5t116 272.5q70 16 139 33q25 0 29 -13q12 -23 73 -233q72 -244 109 -379q55 -201 55 -207t-65.5 -13t-130.5 -52q-12 39 -23 77q-18 84 -43 78q-25 -4 -35 -4q-20 0 -51 6 q-72 14 -90 15q-25 0 -33 -2q-14 -4 -34.5 -17.5t-43 -70t-26.5 -68.5q-25 16 -53 33q-61 37 -107 37zM295 866q-4 -6 6 -10q16 -6 59 -6q29 0 50 2q18 6 36 14q-8 14 -28.5 111.5t-40.5 101.5q-8 2 -25 -45q-55 -166 -57 -168z" />
<glyph unicode="&#xab;" />
<glyph unicode="&#xac;" horiz-adv-x="1519" d="M33 496v118h1415v-614h-119v496h-1296z" />
<glyph unicode="&#xad;" />
<glyph unicode="&#xae;" horiz-adv-x="1601" d="M39 717q0 344 229 557q215 199 531 199q315 0 528 -199q227 -211 227 -557t-227 -557q-213 -199 -528 -199t-531 199q-229 213 -229 557zM258 717q0 -256 155.5 -418t385.5 -162q225 0 381.5 161t156.5 419q0 256 -157.5 417.5t-380.5 161.5q-231 0 -386 -160.5 t-155 -418.5zM500 311v813h303q168 0 251 -54t83 -191q0 -106 -54.5 -158.5t-142.5 -52.5l207 -357h-205l-188 342h-82v-342h-172zM672 791h153q66 0 95.5 20t29.5 86q0 55 -45 72.5t-110 17.5h-123v-196z" />
<glyph unicode="&#xaf;" d="M147 1538q4 18 9 37q16 33 42.5 67.5t62.5 65.5t50 31q16 18 226 18q66 -6 120 -6q154 0 156 2q-12 -18 -25 -37q-51 -53 -60 -67.5t-36 -81.5q-18 -45 -30 -45q-6 -12 -54 0q-78 18 -145 18q-66 0 -136.5 -7t-148.5 -15q-16 0 -22 2q-16 4 -9 18z" />
<glyph unicode="&#xb0;" horiz-adv-x="851" />
<glyph unicode="&#xb1;" horiz-adv-x="1169" />
<glyph unicode="&#xb2;" />
<glyph unicode="&#xb3;" />
<glyph unicode="&#xb4;" d="M432 1671l354 227l132 -204l-396 -176z" />
<glyph unicode="&#xb5;" horiz-adv-x="1226" />
<glyph unicode="&#xb6;" />
<glyph unicode="&#xb7;" horiz-adv-x="512" d="M82 766q0 74 46 126t134 52t141 -59q47 -53 48 -129q0 -74 -46.5 -126t-134.5 -52t-138 56t-50 132z" />
<glyph unicode="&#xb8;" d="M303 -371q-4 12 11.5 33t25.5 16q41 -18 94 -18q51 0 85 22.5t34 75.5q0 49 -34 61.5t-118 12.5q14 51 29 102q12 33 39 105h78l-35 -129q84 8 151.5 -27t67.5 -129q0 -104 -94 -149q-70 -33 -186 -33q-61 0 -99.5 17.5t-48.5 39.5z" />
<glyph unicode="&#xb9;" />
<glyph unicode="&#xba;" horiz-adv-x="987" d="M39 961q0 109 46 206t138 156q18 10 19 25q0 6 -17 24v8q162 57 297 58q139 0 238.5 -59.5t150.5 -186.5q35 -88 35 -176q0 -129 -64.5 -241.5t-181.5 -180.5q-104 -61 -225 -62q-139 0 -257 81t-161 218q-18 61 -18 130zM289 999q0 -143 44 -220t148 -77 q98 0 153.5 89.5t55.5 218.5q0 147 -67 215q-55 55 -146 55q-94 0 -145 -90q-43 -76 -43 -191z" />
<glyph unicode="&#xbb;" />
<glyph unicode="&#xbc;" />
<glyph unicode="&#xbd;" />
<glyph unicode="&#xbe;" />
<glyph unicode="&#xbf;" horiz-adv-x="942" d="M23 260q0 53 14 90q43 119 123 203q84 80 170 160q8 20 12 58t4 75q0 29 -1 50.5t-3 35.5h365q0 -104 -9.5 -158.5t-46.5 -118.5q-104 -106 -166.5 -183t-62.5 -132q0 -29 14 -51q27 -41 96 -41q82 0 213 57q43 18 115 57q-18 -176 -25.5 -232t-15.5 -99 q-14 -25 -151.5 -63t-268.5 -38q-68 0 -127 13q-117 27 -183 119t-66 198zM332 1245q0 78 48 133.5t138 55.5t139.5 -54.5t49.5 -134.5q0 -76 -50.5 -132t-138.5 -56t-137 55t-49 133z" />
<glyph unicode="&#xc0;" horiz-adv-x="1239" d="M6 90q16 37 41 82q53 98 43 152q-10 49 -23.5 98t-13.5 61q0 27 29 27q23 0 94 -23q12 -4 103 228q84 217 167 436q92 238 109 240q10 2 152 39q55 14 81 14q39 0 50 -21q20 -39 123 -389q94 -322 183 -644.5t89 -332.5q0 -12 -57 -18q-166 -16 -271 -90q-20 63 -39 129 q-29 141 -69 131q-31 -6 -62 -6q-35 0 -145 20q-55 10 -88 10q-37 0 -59.5 -5t-53.5 -24.5t-70 -111.5q-25 -61 -47 -121q-39 23 -88 52q-102 59 -178 67zM404 1694l131 204l354 -227l-90 -153zM492 492q14 -12 28 -23q29 -6 84 -6q78 0 121 12q10 9 20 17q-20 29 -53 188.5 t-65 167.5q-14 4 -41 -78q-88 -266 -94 -278z" />
<glyph unicode="&#xc1;" horiz-adv-x="1239" d="M6 90q16 37 41 82q53 98 43 152q-10 49 -23.5 98t-13.5 61q0 27 29 27q23 0 94 -23q12 -4 103 228q84 217 167 436q92 238 109 240q10 2 152 39q55 14 81 14q39 0 50 -21q20 -39 123 -389q94 -322 183 -644.5t89 -332.5q0 -12 -57 -18q-166 -16 -271 -90q-20 63 -39 129 q-29 141 -69 131q-31 -6 -62 -6q-35 0 -145 20q-55 10 -88 10q-37 0 -59.5 -5t-53.5 -24.5t-70 -111.5q-25 -61 -47 -121q-39 23 -88 52q-102 59 -178 67zM432 1671l354 227l132 -204l-396 -176zM492 492q14 -12 28 -23q29 -6 84 -6q78 0 121 12q10 9 20 17 q-20 29 -53 188.5t-65 167.5q-14 4 -41 -78q-88 -266 -94 -278z" />
<glyph unicode="&#xc2;" horiz-adv-x="1239" d="M6 90q16 37 41 82q53 98 43 152q-10 49 -23.5 98t-13.5 61q0 27 29 27q23 0 94 -23q12 -4 103 228q84 217 167 436q92 238 109 240q10 2 152 39q55 14 81 14q39 0 50 -21q20 -39 123 -389q94 -322 183 -644.5t89 -332.5q0 -12 -57 -18q-166 -16 -271 -90q-20 63 -39 129 q-29 141 -69 131q-31 -6 -62 -6q-35 0 -145 20q-55 10 -88 10q-37 0 -59.5 -5t-53.5 -24.5t-70 -111.5q-25 -61 -47 -121q-39 23 -88 52q-102 59 -178 67zM331 1671l326 187h47l332 -187l-90 -153l-262 116l-262 -116zM492 492q14 -12 28 -23q29 -6 84 -6q78 0 121 12 q10 9 20 17q-20 29 -53 188.5t-65 167.5q-14 4 -41 -78q-88 -266 -94 -278z" />
<glyph unicode="&#xc3;" horiz-adv-x="1239" d="M6 90q16 37 41 82q53 98 43 152q-10 49 -23.5 98t-13.5 61q0 27 29 27q23 0 94 -23q12 -4 103 228q84 217 167 436q92 238 109 240q10 2 152 39q55 14 81 14q39 0 50 -21q20 -39 123 -389q94 -322 183 -644.5t89 -332.5q0 -12 -57 -18q-166 -16 -271 -90q-20 63 -39 129 q-29 141 -69 131q-31 -6 -62 -6q-35 0 -145 20q-55 10 -88 10q-37 0 -59.5 -5t-53.5 -24.5t-70 -111.5q-25 -61 -47 -121q-39 23 -88 52q-102 59 -178 67zM365 1503l53 172q10 18 109 76q57 33 75 33q82 0 162 -62q41 -31 92 -30q51 0 135 53q31 17 62 33q-4 -23 -37 -97 q-23 -51 -45 -100q-12 -29 -55 -51.5t-95 -22.5q-111 0 -200 62q-45 31 -76 30q-55 0 -123 -47q-23 -14 -57 -49zM492 492q14 -12 28 -23q29 -6 84 -6q78 0 121 12q10 9 20 17q-20 29 -53 188.5t-65 167.5q-14 4 -41 -78q-88 -266 -94 -278z" />
<glyph unicode="&#xc4;" horiz-adv-x="1239" d="M6 90q16 37 41 82q53 98 43 152q-10 49 -23.5 98t-13.5 61q0 27 29 27q23 0 94 -23q12 -4 103 228q84 217 167 436q92 238 109 240q10 2 152 39q55 14 81 14q39 0 50 -21q20 -39 123 -389q94 -322 183 -644.5t89 -332.5q0 -12 -57 -18q-166 -16 -271 -90q-20 63 -39 129 q-29 141 -69 131q-31 -6 -62 -6q-35 0 -145 20q-55 10 -88 10q-37 0 -59.5 -5t-53.5 -24.5t-70 -111.5q-25 -61 -47 -121q-39 23 -88 52q-102 59 -178 67zM365 1634q0 70 45 109t104 39t99 -35t40 -105q0 -68 -45 -108.5t-102 -40.5q-59 0 -100 37t-41 104zM492 492 q14 -12 28 -23q29 -6 84 -6q78 0 121 12q10 9 20 17q-20 29 -53 188.5t-65 167.5q-14 4 -41 -78q-88 -266 -94 -278zM731 1642q0 70 44 109t106 39q57 0 98 -36.5t41 -104.5q0 -70 -44 -109t-106 -39q-57 0 -98 37t-41 104z" />
<glyph unicode="&#xc5;" horiz-adv-x="1239" d="M6 90q16 37 41 82q53 98 43 152q-10 49 -23.5 98t-13.5 61q0 27 29 27q23 0 94 -23q12 -4 103 228q84 217 167 436q92 238 109 240q10 2 152 39q55 14 81 14q39 0 50 -21q20 -39 123 -389q94 -322 183 -644.5t89 -332.5q0 -12 -57 -18q-166 -16 -271 -90q-20 63 -39 129 q-29 141 -69 131q-31 -6 -62 -6q-35 0 -145 20q-55 10 -88 10q-37 0 -59.5 -5t-53.5 -24.5t-70 -111.5q-25 -61 -47 -121q-39 23 -88 52q-102 59 -178 67zM491 1634q0 90 58.5 141.5t136.5 51.5q76 0 130 -48.5t54 -136.5q0 -92 -57 -143t-135 -51t-129 45q-57 51 -58 141z M492 492q14 -12 28 -23q29 -6 84 -6q78 0 121 12q10 9 20 17q-20 29 -53 188.5t-65 167.5q-14 4 -41 -78q-88 -266 -94 -278zM588 1634q0 -43 26.5 -65.5t63.5 -22.5t66.5 25.5t29.5 70.5q0 43 -26.5 66t-63.5 23t-66.5 -26t-29.5 -71z" />
<glyph unicode="&#xc6;" horiz-adv-x="1855" d="M2 90q27 37 64 82q78 96 81 152q0 25 -2 63.5t-2 50.5q0 35 5.5 52.5t39.5 17.5q31 0 91 -21q12 -4 131 164q86 121 219 320q63 96 129 192h-23q-20 0 -42.5 -1t-43.5 -7q10 39 21 80q109 182 182 207q4 2 56.5 2t92.5 2q94 0 195.5 -1t210.5 -1q195 0 311.5 5t147.5 19 q-10 -37 -21 -71q-109 -180 -178 -228q-12 -8 -44 -12t-73 -4q-25 0 -81 2t-83 2t-59.5 -2t-46.5 -17.5t-22.5 -93t-8.5 -135.5q2 -27 2 -32q2 -18 56 -19q39 0 125 9.5t102 9.5q53 0 53 -19q0 -27 -49 -143.5t-78 -153.5q-6 -8 -26 -8q-18 0 -33 2q-59 8 -74 8 q-37 0 -59.5 -12t-32.5 -62.5t-10 -105.5q0 -41 5 -66.5t15 -25.5q16 -2 34.5 -2h39.5q66 0 247 5t253 5q-47 -68 -72 -109q-78 -123 -113 -208q-6 -14 -106 -15q-92 0 -348 16.5t-330 16.5q-10 0 -10 25q0 16 8 67t8 74q0 25 -6 35q-8 12 -27 8q-35 -6 -63 -6 q-35 0 -139 20q-53 10 -84 10q-37 0 -60.5 -5t-60.5 -24.5t-101 -111.5q-41 -61 -79 -121q-33 23 -74 52q-86 59 -160 67zM594 492q-8 -12 12.5 -20.5t93.5 -8.5q59 0 105 8q20 11 43 21q-8 18 -8 67q0 39 5 116t5 87q0 78 -25 86q-14 4 -63 -78q-166 -274 -168 -278z" />
<glyph unicode="&#xc7;" horiz-adv-x="1259" d="M70 674q0 193 86 352q129 244 352 354q170 84 377 84q98 0 166.5 -15t68.5 -30l51 -342q-20 2 -38 6q-127 66 -222 66q-47 0 -83.5 -9.5t-90.5 -33.5q-115 -55 -177 -168t-62 -244q0 -113 45 -205q57 -121 155 -176q82 -45 189 -45q61 0 132 15.5t144 33.5q19 0 15 -12 l-58 -301q0 -18 -83 -33.5t-195 -15.5q-70 0 -103.5 2t-99.5 14l-16 -61q55 2 108 -10q111 -25 111 -146q0 -104 -94 -149q-70 -33 -187 -33q-61 0 -99 17.5t-48 39.5q0 12 13 30.5t24 18.5q41 -18 94 -18q51 0 85 22.5t34 75.5q0 49 -34 61.5t-118 12.5q4 27 10 49.5 t37 106.5q-92 23 -159.5 57.5t-123.5 93.5q-100 106 -153 244.5t-53 290.5z" />
<glyph unicode="&#xc8;" horiz-adv-x="1288" d="M57 18q14 53 93 185q31 51 39 103t14 104.5t6 78.5q0 61 -26.5 79t-100.5 18q29 59 57 121q106 160 107 270v45t2 53q0 61 -6 62q0 12 -43 12q-49 0 -123 -12l24 82q117 186 191 211q10 4 145 4q90 0 188.5 -1t204.5 -1q188 0 301 5t144 19q-10 -35 -21 -67 q-109 -172 -178 -220q-12 -8 -46 -12t-77 -4q-27 0 -86 2t-86 2q-29 0 -62.5 -2t-48 -17.5t-22.5 -93t-8 -135.5q2 -27 2 -32q2 -18 51 -19q39 0 76 4q131 14 135 15q49 0 49 -19q0 -27 -49 -143.5t-78 -153.5q-6 -8 -26 -8q-18 0 -33 2q-59 8 -74 8q-37 0 -59.5 -12 t-32.5 -62.5t-10 -105.5q0 -41 5 -66.5t15 -25.5q94 -14 171 -21.5t141 -7.5q102 0 155 8.5t125 28.5q-16 -31 -31 -61q-127 -190 -153 -256q-4 -8 -89 -14.5t-192 -6.5q-254 0 -450 14q-115 23 -230 43zM404 1694l131 204l354 -227l-90 -153z" />
<glyph unicode="&#xc9;" horiz-adv-x="1288" d="M57 18q14 53 93 185q31 51 39 103t14 104.5t6 78.5q0 61 -26.5 79t-100.5 18q29 59 57 121q106 160 107 270v45t2 53q0 61 -6 62q0 12 -43 12q-49 0 -123 -12l24 82q117 186 191 211q10 4 145 4q90 0 188.5 -1t204.5 -1q188 0 301 5t144 19q-10 -35 -21 -67 q-109 -172 -178 -220q-12 -8 -46 -12t-77 -4q-27 0 -86 2t-86 2q-29 0 -62.5 -2t-48 -17.5t-22.5 -93t-8 -135.5q2 -27 2 -32q2 -18 51 -19q39 0 76 4q131 14 135 15q49 0 49 -19q0 -27 -49 -143.5t-78 -153.5q-6 -8 -26 -8q-18 0 -33 2q-59 8 -74 8q-37 0 -59.5 -12 t-32.5 -62.5t-10 -105.5q0 -41 5 -66.5t15 -25.5q94 -14 171 -21.5t141 -7.5q102 0 155 8.5t125 28.5q-16 -31 -31 -61q-127 -190 -153 -256q-4 -8 -89 -14.5t-192 -6.5q-254 0 -450 14q-115 23 -230 43zM432 1671l354 227l132 -204l-396 -176z" />
<glyph unicode="&#xca;" horiz-adv-x="1288" d="M57 18q14 53 93 185q31 51 39 103t14 104.5t6 78.5q0 61 -26.5 79t-100.5 18q29 59 57 121q106 160 107 270v45t2 53q0 61 -6 62q0 12 -43 12q-49 0 -123 -12l24 82q117 186 191 211q10 4 145 4q90 0 188.5 -1t204.5 -1q188 0 301 5t144 19q-10 -35 -21 -67 q-109 -172 -178 -220q-12 -8 -46 -12t-77 -4q-27 0 -86 2t-86 2q-29 0 -62.5 -2t-48 -17.5t-22.5 -93t-8 -135.5q2 -27 2 -32q2 -18 51 -19q39 0 76 4q131 14 135 15q49 0 49 -19q0 -27 -49 -143.5t-78 -153.5q-6 -8 -26 -8q-18 0 -33 2q-59 8 -74 8q-37 0 -59.5 -12 t-32.5 -62.5t-10 -105.5q0 -41 5 -66.5t15 -25.5q94 -14 171 -21.5t141 -7.5q102 0 155 8.5t125 28.5q-16 -31 -31 -61q-127 -190 -153 -256q-4 -8 -89 -14.5t-192 -6.5q-254 0 -450 14q-115 23 -230 43zM331 1671l326 187h47l332 -187l-90 -153l-262 116l-262 -116z" />
<glyph unicode="&#xcb;" horiz-adv-x="1288" d="M57 18q14 53 93 185q31 51 39 103t14 104.5t6 78.5q0 61 -26.5 79t-100.5 18q29 59 57 121q106 160 107 270v45t2 53q0 61 -6 62q0 12 -43 12q-49 0 -123 -12l24 82q117 186 191 211q10 4 145 4q90 0 188.5 -1t204.5 -1q188 0 301 5t144 19q-10 -35 -21 -67 q-109 -172 -178 -220q-12 -8 -46 -12t-77 -4q-27 0 -86 2t-86 2q-29 0 -62.5 -2t-48 -17.5t-22.5 -93t-8 -135.5q2 -27 2 -32q2 -18 51 -19q39 0 76 4q131 14 135 15q49 0 49 -19q0 -27 -49 -143.5t-78 -153.5q-6 -8 -26 -8q-18 0 -33 2q-59 8 -74 8q-37 0 -59.5 -12 t-32.5 -62.5t-10 -105.5q0 -41 5 -66.5t15 -25.5q94 -14 171 -21.5t141 -7.5q102 0 155 8.5t125 28.5q-16 -31 -31 -61q-127 -190 -153 -256q-4 -8 -89 -14.5t-192 -6.5q-254 0 -450 14q-115 23 -230 43zM365 1634q0 70 45 109t104 39t99 -35t40 -105q0 -68 -45 -108.5 t-102 -40.5q-59 0 -100 37t-41 104zM731 1642q0 70 44 109t106 39q57 0 98 -36.5t41 -104.5q0 -70 -44 -109t-106 -39q-57 0 -98 37t-41 104z" />
<glyph unicode="&#xcc;" horiz-adv-x="630" d="M72 -8q0 29 34 311q29 229 41 379q0 238 15.5 469t42.5 231q94 0 188 27q68 18 160 61q4 -2 4 -6q4 -16 4 -55q0 -80 -18.5 -337t-36 -533.5t-17.5 -448.5q0 -10 -206 -63q-113 -29 -197 -64q-8 -2 -10 2q-4 8 -4 27zM84 1694l131 204l354 -227l-90 -153z" />
<glyph unicode="&#xcd;" horiz-adv-x="630" d="M72 -8q0 29 34 311q29 229 41 379q0 238 15.5 469t42.5 231q94 0 188 27q68 18 160 61q4 -2 4 -6q4 -16 4 -55q0 -80 -18.5 -337t-36 -533.5t-17.5 -448.5q0 -10 -206 -63q-113 -29 -197 -64q-8 -2 -10 2q-4 8 -4 27zM88 1671l354 227l132 -204l-396 -176z" />
<glyph unicode="&#xce;" horiz-adv-x="630" d="M-19 1671l326 187h47l332 -187l-90 -153l-262 116l-262 -116zM72 -8q0 29 34 311q29 229 41 379q0 238 15.5 469t42.5 231q94 0 188 27q68 18 160 61q4 -2 4 -6q4 -16 4 -55q0 -80 -18.5 -337t-36 -533.5t-17.5 -448.5q0 -10 -206 -63q-113 -29 -197 -64q-8 -2 -10 2 q-4 8 -4 27z" />
<glyph unicode="&#xcf;" horiz-adv-x="630" d="M-4 1634q0 70 45 109t104 39t99 -35t40 -105q0 -68 -45 -108.5t-102 -40.5q-59 0 -100 37t-41 104zM72 -8q0 29 34 311q29 229 41 379q0 238 15.5 469t42.5 231q94 0 188 27q68 18 160 61q4 -2 4 -6q4 -16 4 -55q0 -80 -18.5 -337t-36 -533.5t-17.5 -448.5 q0 -10 -206 -63q-113 -29 -197 -64q-8 -2 -10 2q-4 8 -4 27zM362 1642q0 70 44 109t106 39q57 0 98 -36.5t41 -104.5q0 -70 -44 -109t-106 -39q-57 0 -98 37t-41 104z" />
<glyph unicode="&#xd0;" />
<glyph unicode="&#xd1;" horiz-adv-x="1404" d="M82 0q61 326 69.5 422t8.5 600q0 47 2 70.5t4 46.5q0 25 -9.5 57.5t-33.5 91.5q-2 10 145.5 76t163.5 90q66 -100 131 -201q115 -205 230 -409q127 -219 147 -211q6 2 8 66.5t2 86.5q0 80 -4 264.5t-4 243.5q0 88 6 88q94 23 144 35q163 39 196 51q-4 -174 -6 -346 q-8 -389 -20.5 -693t-26.5 -316q-86 -68 -141 -103q-78 -49 -131 -57q-16 -2 -117 151q-88 133 -199 314q-121 197 -155 246q-18 -76 -35 -150q-16 -199 -31 -397q-106 -45 -219 -86q-63 -16 -125 -31zM352 1503l53 172q10 18 109 76q57 33 75 33q82 0 162 -62 q41 -31 92 -30q51 0 135 53q31 17 62 33q-4 -23 -37 -97q-23 -51 -45 -100q-12 -29 -55 -51.5t-95 -22.5q-111 0 -200 62q-45 31 -76 30q-55 0 -123 -47q-23 -14 -57 -49z" />
<glyph unicode="&#xd2;" horiz-adv-x="1644" d="M66 682q0 176 78.5 339t226.5 261q33 23 32 41q0 14 -22 35q-4 10 -6 20q272 96 495 97q231 0 394 -97q172 -104 256 -313q57 -139 57 -293q0 -213 -108.5 -402.5t-301.5 -301.5q-84 -49 -180 -75t-192 -26q-238 0 -428 131q-199 137 -271 367q-31 104 -30 217zM481 743 q0 -240 70 -360q78 -135 252 -135q162 0 258 155q88 144 88 357q0 246 -111 360q-90 92 -241 92q-160 0 -244 -151q-72 -129 -72 -318zM508 1694l131 204l354 -227l-90 -153z" />
<glyph unicode="&#xd3;" horiz-adv-x="1644" d="M66 682q0 176 78.5 339t226.5 261q33 23 32 41q0 14 -22 35q-4 10 -6 20q272 96 495 97q231 0 394 -97q172 -104 256 -313q57 -139 57 -293q0 -213 -108.5 -402.5t-301.5 -301.5q-84 -49 -180 -75t-192 -26q-238 0 -428 131q-199 137 -271 367q-31 104 -30 217zM481 743 q0 -240 70 -360q78 -135 252 -135q162 0 258 155q88 144 88 357q0 246 -111 360q-90 92 -241 92q-160 0 -244 -151q-72 -129 -72 -318zM530 1671l354 227l132 -204l-396 -176z" />
<glyph unicode="&#xd4;" horiz-adv-x="1644" d="M66 682q0 176 78.5 339t226.5 261q33 23 32 41q0 14 -22 35q-4 10 -6 20q272 96 495 97q231 0 394 -97q172 -104 256 -313q57 -139 57 -293q0 -213 -108.5 -402.5t-301.5 -301.5q-84 -49 -180 -75t-192 -26q-238 0 -428 131q-199 137 -271 367q-31 104 -30 217zM423 1671 l326 187h47l332 -187l-90 -153l-262 116l-262 -116zM481 743q0 -240 70 -360q78 -135 252 -135q162 0 258 155q88 144 88 357q0 246 -111 360q-90 92 -241 92q-160 0 -244 -151q-72 -129 -72 -318z" />
<glyph unicode="&#xd5;" horiz-adv-x="1644" d="M66 682q0 176 78.5 339t226.5 261q33 23 32 41q0 14 -22 35q-4 10 -6 20q272 96 495 97q231 0 394 -97q172 -104 256 -313q57 -139 57 -293q0 -213 -108.5 -402.5t-301.5 -301.5q-84 -49 -180 -75t-192 -26q-238 0 -428 131q-199 137 -271 367q-31 104 -30 217zM451 1503 l53 172q10 18 109 76q57 33 75 33q82 0 162 -62q41 -31 92 -30q51 0 135 53q31 17 62 33q-4 -23 -37 -97q-23 -51 -45 -100q-12 -29 -55 -51.5t-95 -22.5q-111 0 -200 62q-45 31 -76 30q-55 0 -123 -47q-23 -14 -57 -49zM481 743q0 -240 70 -360q78 -135 252 -135 q162 0 258 155q88 144 88 357q0 246 -111 360q-90 92 -241 92q-160 0 -244 -151q-72 -129 -72 -318z" />
<glyph unicode="&#xd6;" horiz-adv-x="1644" d="M66 682q0 176 78.5 339t226.5 261q33 23 32 41q0 14 -22 35q-4 10 -6 20q272 96 495 97q231 0 394 -97q172 -104 256 -313q57 -139 57 -293q0 -213 -108.5 -402.5t-301.5 -301.5q-84 -49 -180 -75t-192 -26q-238 0 -428 131q-199 137 -271 367q-31 104 -30 217zM445 1634 q0 70 45 109t104 39t99 -35t40 -105q0 -68 -45 -108.5t-102 -40.5q-59 0 -100 37t-41 104zM481 743q0 -240 70 -360q78 -135 252 -135q162 0 258 155q88 144 88 357q0 246 -111 360q-90 92 -241 92q-160 0 -244 -151q-72 -129 -72 -318zM811 1642q0 70 44 109t106 39 q57 0 98 -36.5t41 -104.5q0 -70 -44 -109t-106 -39q-57 0 -98 37t-41 104z" />
<glyph unicode="&#xd7;" />
<glyph unicode="&#xd8;" horiz-adv-x="1644" d="M66 682q0 176 78.5 339t226.5 261q33 23 32 41q0 14 -22 35q-4 10 -6 20q272 96 495 97q182 0 324 -64q31 43 66 84q10 12 24 29q39 -18 80 -26.5t72 -8.5q39 0 73.5 7t36.5 9l-168 -219q90 -88 144.5 -224t54.5 -290q0 -213 -108.5 -402.5t-301.5 -301.5 q-174 -100 -372 -101q-76 0 -154 16.5t-152 47.5l-77 -129q-6 -12 -85 -26.5t-147 -14.5q-49 0 -72.5 5t-23.5 21q0 4 6 15l199 258q-66 59 -116 137t-78.5 175t-28.5 210zM481 743q0 -82 8.5 -151.5t26.5 -126.5q57 76 186 256q82 115 166 229q68 99 138 197 q-45 35 -96.5 50t-112.5 15q-160 0 -244 -151q-72 -129 -72 -318zM649 283q63 -35 154 -35q162 0 258 155q88 144 88 357q0 113 -23 196q-145 -193 -233 -315q-115 -162 -244 -358z" />
<glyph unicode="&#xd9;" horiz-adv-x="1327" d="M70 492q0 51 25.5 363t35.5 407q4 37 199 77q98 12 196 25q0 -135 -8 -299t-20.5 -378t-12.5 -259q0 -57 8.5 -97t46.5 -67.5t89 -27.5q59 0 116.5 37.5t91 117.5t49 182.5t15.5 214.5q0 80 -6 197q-14 272 -14 363q0 12 192 69q99 20 197 43q12 -135 12 -286 q0 -197 -14.5 -356t-36.5 -240q-68 -254 -262 -439q-184 -176 -355 -176q-260 0 -368 70q-176 115 -176 459zM404 1694l131 204l354 -227l-90 -153z" />
<glyph unicode="&#xda;" horiz-adv-x="1327" d="M70 492q0 51 25.5 363t35.5 407q4 37 199 77q98 12 196 25q0 -135 -8 -299t-20.5 -378t-12.5 -259q0 -57 8.5 -97t46.5 -67.5t89 -27.5q59 0 116.5 37.5t91 117.5t49 182.5t15.5 214.5q0 80 -6 197q-14 272 -14 363q0 12 192 69q99 20 197 43q12 -135 12 -286 q0 -197 -14.5 -356t-36.5 -240q-68 -254 -262 -439q-184 -176 -355 -176q-260 0 -368 70q-176 115 -176 459zM432 1671l354 227l132 -204l-396 -176z" />
<glyph unicode="&#xdb;" horiz-adv-x="1327" d="M70 492q0 51 25.5 363t35.5 407q4 37 199 77q98 12 196 25q0 -135 -8 -299t-20.5 -378t-12.5 -259q0 -57 8.5 -97t46.5 -67.5t89 -27.5q59 0 116.5 37.5t91 117.5t49 182.5t15.5 214.5q0 80 -6 197q-14 272 -14 363q0 12 192 69q99 20 197 43q12 -135 12 -286 q0 -197 -14.5 -356t-36.5 -240q-68 -254 -262 -439q-184 -176 -355 -176q-260 0 -368 70q-176 115 -176 459zM313 1671l326 187h47l332 -187l-90 -153l-262 116l-262 -116z" />
<glyph unicode="&#xdc;" horiz-adv-x="1327" d="M70 492q0 51 25.5 363t35.5 407q4 37 199 77q98 12 196 25q0 -135 -8 -299t-20.5 -378t-12.5 -259q0 -57 8.5 -97t46.5 -67.5t89 -27.5q59 0 116.5 37.5t91 117.5t49 182.5t15.5 214.5q0 80 -6 197q-14 272 -14 363q0 12 192 69q99 20 197 43q12 -135 12 -286 q0 -197 -14.5 -356t-36.5 -240q-68 -254 -262 -439q-184 -176 -355 -176q-260 0 -368 70q-176 115 -176 459zM347 1634q0 70 45 109t104 39t99 -35t40 -105q0 -68 -45 -108.5t-102 -40.5q-59 0 -100 37t-41 104zM713 1642q0 70 44 109t106 39q57 0 98 -36.5t41 -104.5 q0 -70 -44 -109t-106 -39q-57 0 -98 37t-41 104z" />
<glyph unicode="&#xdd;" />
<glyph unicode="&#xde;" />
<glyph unicode="&#xdf;" horiz-adv-x="2265" d="M31 37l22 362q39 -35 119 -86q92 -59 205 -59q37 0 89 8t78.5 32.5t26.5 61.5q0 33 -19.5 65t-45.5 52q-129 86 -258 174q-147 121 -148 299q0 205 150 346q141 133 362 166q16 4 38 4h34q115 0 219.5 -39t147.5 -98q2 -2 3 -38t1 -75v-30v-27v-25q0 -43 -1 -80.5 t-1 -72.5q-61 55 -156 119q-111 74 -205 73q-49 0 -98 -18q-68 -29 -68 -121q0 -61 39 -92q70 -55 215 -141q225 -131 256 -232q18 -66 19 -123q0 -215 -224 -356q-209 -131 -487 -131q-100 0 -208.5 28.5t-104.5 53.5zM1164 37l22 362q39 -35 119 -86q92 -59 205 -59 q37 0 89 8t78.5 32.5t26.5 61.5q0 33 -19.5 65t-45.5 52q-129 86 -258 174q-147 121 -148 299q0 205 150 346q141 133 362 166q16 4 38 4h34q115 0 219.5 -39t147.5 -98q2 -2 3 -38t1 -75v-30v-27v-25q0 -43 -1 -80.5t-1 -72.5q-61 55 -156 119q-111 74 -205 73 q-49 0 -98 -18q-68 -29 -68 -121q0 -61 39 -92q70 -55 215 -141q225 -131 256 -232q18 -66 19 -123q0 -215 -224 -356q-209 -131 -487 -131q-100 0 -208.5 28.5t-104.5 53.5z" />
<glyph unicode="&#xe0;" horiz-adv-x="1239" d="M6 90q16 37 41 82q53 98 43 152q-10 49 -23.5 98t-13.5 61q0 27 29 27q23 0 94 -23q12 -4 103 228q84 217 167 436q92 238 109 240q10 2 152 39q55 14 81 14q39 0 50 -21q20 -39 123 -389q94 -322 183 -644.5t89 -332.5q0 -12 -57 -18q-166 -16 -271 -90q-20 63 -39 129 q-29 141 -69 131q-31 -6 -62 -6q-35 0 -145 20q-55 10 -88 10q-37 0 -59.5 -5t-53.5 -24.5t-70 -111.5q-25 -61 -47 -121q-39 23 -88 52q-102 59 -178 67zM404 1694l131 204l354 -227l-90 -153zM492 492q14 -12 28 -23q29 -6 84 -6q78 0 121 12q10 9 20 17q-20 29 -53 188.5 t-65 167.5q-14 4 -41 -78q-88 -266 -94 -278z" />
<glyph unicode="&#xe1;" horiz-adv-x="1239" d="M6 90q16 37 41 82q53 98 43 152q-10 49 -23.5 98t-13.5 61q0 27 29 27q23 0 94 -23q12 -4 103 228q84 217 167 436q92 238 109 240q10 2 152 39q55 14 81 14q39 0 50 -21q20 -39 123 -389q94 -322 183 -644.5t89 -332.5q0 -12 -57 -18q-166 -16 -271 -90q-20 63 -39 129 q-29 141 -69 131q-31 -6 -62 -6q-35 0 -145 20q-55 10 -88 10q-37 0 -59.5 -5t-53.5 -24.5t-70 -111.5q-25 -61 -47 -121q-39 23 -88 52q-102 59 -178 67zM432 1671l354 227l132 -204l-396 -176zM492 492q14 -12 28 -23q29 -6 84 -6q78 0 121 12q10 9 20 17 q-20 29 -53 188.5t-65 167.5q-14 4 -41 -78q-88 -266 -94 -278z" />
<glyph unicode="&#xe2;" horiz-adv-x="1239" d="M6 90q16 37 41 82q53 98 43 152q-10 49 -23.5 98t-13.5 61q0 27 29 27q23 0 94 -23q12 -4 103 228q84 217 167 436q92 238 109 240q10 2 152 39q55 14 81 14q39 0 50 -21q20 -39 123 -389q94 -322 183 -644.5t89 -332.5q0 -12 -57 -18q-166 -16 -271 -90q-20 63 -39 129 q-29 141 -69 131q-31 -6 -62 -6q-35 0 -145 20q-55 10 -88 10q-37 0 -59.5 -5t-53.5 -24.5t-70 -111.5q-25 -61 -47 -121q-39 23 -88 52q-102 59 -178 67zM331 1671l326 187h47l332 -187l-90 -153l-262 116l-262 -116zM492 492q14 -12 28 -23q29 -6 84 -6q78 0 121 12 q10 9 20 17q-20 29 -53 188.5t-65 167.5q-14 4 -41 -78q-88 -266 -94 -278z" />
<glyph unicode="&#xe3;" horiz-adv-x="1239" d="M6 90q16 37 41 82q53 98 43 152q-10 49 -23.5 98t-13.5 61q0 27 29 27q23 0 94 -23q12 -4 103 228q84 217 167 436q92 238 109 240q10 2 152 39q55 14 81 14q39 0 50 -21q20 -39 123 -389q94 -322 183 -644.5t89 -332.5q0 -12 -57 -18q-166 -16 -271 -90q-20 63 -39 129 q-29 141 -69 131q-31 -6 -62 -6q-35 0 -145 20q-55 10 -88 10q-37 0 -59.5 -5t-53.5 -24.5t-70 -111.5q-25 -61 -47 -121q-39 23 -88 52q-102 59 -178 67zM365 1503l53 172q10 18 109 76q57 33 75 33q82 0 162 -62q41 -31 92 -30q51 0 135 53q31 17 62 33q-4 -23 -37 -97 q-23 -51 -45 -100q-12 -29 -55 -51.5t-95 -22.5q-111 0 -200 62q-45 31 -76 30q-55 0 -123 -47q-23 -14 -57 -49zM492 492q14 -12 28 -23q29 -6 84 -6q78 0 121 12q10 9 20 17q-20 29 -53 188.5t-65 167.5q-14 4 -41 -78q-88 -266 -94 -278z" />
<glyph unicode="&#xe4;" horiz-adv-x="1239" d="M6 90q16 37 41 82q53 98 43 152q-10 49 -23.5 98t-13.5 61q0 27 29 27q23 0 94 -23q12 -4 103 228q84 217 167 436q92 238 109 240q10 2 152 39q55 14 81 14q39 0 50 -21q20 -39 123 -389q94 -322 183 -644.5t89 -332.5q0 -12 -57 -18q-166 -16 -271 -90q-20 63 -39 129 q-29 141 -69 131q-31 -6 -62 -6q-35 0 -145 20q-55 10 -88 10q-37 0 -59.5 -5t-53.5 -24.5t-70 -111.5q-25 -61 -47 -121q-39 23 -88 52q-102 59 -178 67zM365 1634q0 70 45 109t104 39t99 -35t40 -105q0 -68 -45 -108.5t-102 -40.5q-59 0 -100 37t-41 104zM492 492 q14 -12 28 -23q29 -6 84 -6q78 0 121 12q10 9 20 17q-20 29 -53 188.5t-65 167.5q-14 4 -41 -78q-88 -266 -94 -278zM731 1642q0 70 44 109t106 39q57 0 98 -36.5t41 -104.5q0 -70 -44 -109t-106 -39q-57 0 -98 37t-41 104z" />
<glyph unicode="&#xe5;" horiz-adv-x="1239" d="M6 90q16 37 41 82q53 98 43 152q-10 49 -23.5 98t-13.5 61q0 27 29 27q23 0 94 -23q12 -4 103 228q84 217 167 436q92 238 109 240q10 2 152 39q55 14 81 14q39 0 50 -21q20 -39 123 -389q94 -322 183 -644.5t89 -332.5q0 -12 -57 -18q-166 -16 -271 -90q-20 63 -39 129 q-29 141 -69 131q-31 -6 -62 -6q-35 0 -145 20q-55 10 -88 10q-37 0 -59.5 -5t-53.5 -24.5t-70 -111.5q-25 -61 -47 -121q-39 23 -88 52q-102 59 -178 67zM491 1634q0 90 58.5 141.5t136.5 51.5q76 0 130 -48.5t54 -136.5q0 -92 -57 -143t-135 -51t-129 45q-57 51 -58 141z M492 492q14 -12 28 -23q29 -6 84 -6q78 0 121 12q10 9 20 17q-20 29 -53 188.5t-65 167.5q-14 4 -41 -78q-88 -266 -94 -278zM588 1634q0 -43 26.5 -65.5t63.5 -22.5t66.5 25.5t29.5 70.5q0 43 -26.5 66t-63.5 23t-66.5 -26t-29.5 -71z" />
<glyph unicode="&#xe6;" horiz-adv-x="1855" d="M2 90q27 37 64 82q78 96 81 152q0 25 -2 63.5t-2 50.5q0 35 5.5 52.5t39.5 17.5q31 0 91 -21q12 -4 131 164q86 121 219 320q63 96 129 192h-23q-20 0 -42.5 -1t-43.5 -7q10 39 21 80q109 182 182 207q4 2 56.5 2t92.5 2q94 0 195.5 -1t210.5 -1q195 0 311.5 5t147.5 19 q-10 -37 -21 -71q-109 -180 -178 -228q-12 -8 -44 -12t-73 -4q-25 0 -81 2t-83 2t-59.5 -2t-46.5 -17.5t-22.5 -93t-8.5 -135.5q2 -27 2 -32q2 -18 56 -19q39 0 125 9.5t102 9.5q53 0 53 -19q0 -27 -49 -143.5t-78 -153.5q-6 -8 -26 -8q-18 0 -33 2q-59 8 -74 8 q-37 0 -59.5 -12t-32.5 -62.5t-10 -105.5q0 -41 5 -66.5t15 -25.5q16 -2 34.5 -2h39.5q66 0 247 5t253 5q-47 -68 -72 -109q-78 -123 -113 -208q-6 -14 -106 -15q-92 0 -348 16.5t-330 16.5q-10 0 -10 25q0 16 8 67t8 74q0 25 -6 35q-8 12 -27 8q-35 -6 -63 -6 q-35 0 -139 20q-53 10 -84 10q-37 0 -60.5 -5t-60.5 -24.5t-101 -111.5q-41 -61 -79 -121q-33 23 -74 52q-86 59 -160 67zM594 492q-8 -12 12.5 -20.5t93.5 -8.5q59 0 105 8q20 11 43 21q-8 18 -8 67q0 39 5 116t5 87q0 78 -25 86q-14 4 -63 -78q-166 -274 -168 -278z" />
<glyph unicode="&#xe7;" horiz-adv-x="1259" d="M70 674q0 193 86 352q129 244 352 354q170 84 377 84q98 0 166.5 -15t68.5 -30l51 -342q-20 2 -38 6q-127 66 -222 66q-47 0 -83.5 -9.5t-90.5 -33.5q-115 -55 -177 -168t-62 -244q0 -113 45 -205q57 -121 155 -176q82 -45 189 -45q61 0 132 15.5t144 33.5q19 0 15 -12 l-58 -301q0 -18 -83 -33.5t-195 -15.5q-70 0 -103.5 2t-99.5 14l-16 -61q55 2 108 -10q111 -25 111 -146q0 -104 -94 -149q-70 -33 -187 -33q-61 0 -99 17.5t-48 39.5q0 12 13 30.5t24 18.5q41 -18 94 -18q51 0 85 22.5t34 75.5q0 49 -34 61.5t-118 12.5q4 27 10 49.5 t37 106.5q-92 23 -159.5 57.5t-123.5 93.5q-100 106 -153 244.5t-53 290.5z" />
<glyph unicode="&#xe8;" horiz-adv-x="1288" d="M57 18q14 53 93 185q31 51 39 103t14 104.5t6 78.5q0 61 -26.5 79t-100.5 18q29 59 57 121q106 160 107 270v45t2 53q0 61 -6 62q0 12 -43 12q-49 0 -123 -12l24 82q117 186 191 211q10 4 145 4q90 0 188.5 -1t204.5 -1q188 0 301 5t144 19q-10 -35 -21 -67 q-109 -172 -178 -220q-12 -8 -46 -12t-77 -4q-27 0 -86 2t-86 2q-29 0 -62.5 -2t-48 -17.5t-22.5 -93t-8 -135.5q2 -27 2 -32q2 -18 51 -19q39 0 76 4q131 14 135 15q49 0 49 -19q0 -27 -49 -143.5t-78 -153.5q-6 -8 -26 -8q-18 0 -33 2q-59 8 -74 8q-37 0 -59.5 -12 t-32.5 -62.5t-10 -105.5q0 -41 5 -66.5t15 -25.5q94 -14 171 -21.5t141 -7.5q102 0 155 8.5t125 28.5q-16 -31 -31 -61q-127 -190 -153 -256q-4 -8 -89 -14.5t-192 -6.5q-254 0 -450 14q-115 23 -230 43zM404 1694l131 204l354 -227l-90 -153z" />
<glyph unicode="&#xe9;" horiz-adv-x="1288" d="M57 18q14 53 93 185q31 51 39 103t14 104.5t6 78.5q0 61 -26.5 79t-100.5 18q29 59 57 121q106 160 107 270v45t2 53q0 61 -6 62q0 12 -43 12q-49 0 -123 -12l24 82q117 186 191 211q10 4 145 4q90 0 188.5 -1t204.5 -1q188 0 301 5t144 19q-10 -35 -21 -67 q-109 -172 -178 -220q-12 -8 -46 -12t-77 -4q-27 0 -86 2t-86 2q-29 0 -62.5 -2t-48 -17.5t-22.5 -93t-8 -135.5q2 -27 2 -32q2 -18 51 -19q39 0 76 4q131 14 135 15q49 0 49 -19q0 -27 -49 -143.5t-78 -153.5q-6 -8 -26 -8q-18 0 -33 2q-59 8 -74 8q-37 0 -59.5 -12 t-32.5 -62.5t-10 -105.5q0 -41 5 -66.5t15 -25.5q94 -14 171 -21.5t141 -7.5q102 0 155 8.5t125 28.5q-16 -31 -31 -61q-127 -190 -153 -256q-4 -8 -89 -14.5t-192 -6.5q-254 0 -450 14q-115 23 -230 43zM432 1671l354 227l132 -204l-396 -176z" />
<glyph unicode="&#xea;" horiz-adv-x="1288" d="M57 18q14 53 93 185q31 51 39 103t14 104.5t6 78.5q0 61 -26.5 79t-100.5 18q29 59 57 121q106 160 107 270v45t2 53q0 61 -6 62q0 12 -43 12q-49 0 -123 -12l24 82q117 186 191 211q10 4 145 4q90 0 188.5 -1t204.5 -1q188 0 301 5t144 19q-10 -35 -21 -67 q-109 -172 -178 -220q-12 -8 -46 -12t-77 -4q-27 0 -86 2t-86 2q-29 0 -62.5 -2t-48 -17.5t-22.5 -93t-8 -135.5q2 -27 2 -32q2 -18 51 -19q39 0 76 4q131 14 135 15q49 0 49 -19q0 -27 -49 -143.5t-78 -153.5q-6 -8 -26 -8q-18 0 -33 2q-59 8 -74 8q-37 0 -59.5 -12 t-32.5 -62.5t-10 -105.5q0 -41 5 -66.5t15 -25.5q94 -14 171 -21.5t141 -7.5q102 0 155 8.5t125 28.5q-16 -31 -31 -61q-127 -190 -153 -256q-4 -8 -89 -14.5t-192 -6.5q-254 0 -450 14q-115 23 -230 43zM331 1671l326 187h47l332 -187l-90 -153l-262 116l-262 -116z" />
<glyph unicode="&#xeb;" horiz-adv-x="1288" d="M57 18q14 53 93 185q31 51 39 103t14 104.5t6 78.5q0 61 -26.5 79t-100.5 18q29 59 57 121q106 160 107 270v45t2 53q0 61 -6 62q0 12 -43 12q-49 0 -123 -12l24 82q117 186 191 211q10 4 145 4q90 0 188.5 -1t204.5 -1q188 0 301 5t144 19q-10 -35 -21 -67 q-109 -172 -178 -220q-12 -8 -46 -12t-77 -4q-27 0 -86 2t-86 2q-29 0 -62.5 -2t-48 -17.5t-22.5 -93t-8 -135.5q2 -27 2 -32q2 -18 51 -19q39 0 76 4q131 14 135 15q49 0 49 -19q0 -27 -49 -143.5t-78 -153.5q-6 -8 -26 -8q-18 0 -33 2q-59 8 -74 8q-37 0 -59.5 -12 t-32.5 -62.5t-10 -105.5q0 -41 5 -66.5t15 -25.5q94 -14 171 -21.5t141 -7.5q102 0 155 8.5t125 28.5q-16 -31 -31 -61q-127 -190 -153 -256q-4 -8 -89 -14.5t-192 -6.5q-254 0 -450 14q-115 23 -230 43zM365 1634q0 70 45 109t104 39t99 -35t40 -105q0 -68 -45 -108.5 t-102 -40.5q-59 0 -100 37t-41 104zM731 1642q0 70 44 109t106 39q57 0 98 -36.5t41 -104.5q0 -70 -44 -109t-106 -39q-57 0 -98 37t-41 104z" />
<glyph unicode="&#xec;" horiz-adv-x="630" d="M72 -8q0 29 34 311q29 229 41 379q0 238 15.5 469t42.5 231q94 0 188 27q68 18 160 61q4 -2 4 -6q4 -16 4 -55q0 -80 -18.5 -337t-36 -533.5t-17.5 -448.5q0 -10 -206 -63q-113 -29 -197 -64q-8 -2 -10 2q-4 8 -4 27zM84 1694l131 204l354 -227l-90 -153z" />
<glyph unicode="&#xed;" horiz-adv-x="630" d="M72 -8q0 29 34 311q29 229 41 379q0 238 15.5 469t42.5 231q94 0 188 27q68 18 160 61q4 -2 4 -6q4 -16 4 -55q0 -80 -18.5 -337t-36 -533.5t-17.5 -448.5q0 -10 -206 -63q-113 -29 -197 -64q-8 -2 -10 2q-4 8 -4 27zM88 1671l354 227l132 -204l-396 -176z" />
<glyph unicode="&#xee;" horiz-adv-x="630" d="M-19 1671l326 187h47l332 -187l-90 -153l-262 116l-262 -116zM72 -8q0 29 34 311q29 229 41 379q0 238 15.5 469t42.5 231q94 0 188 27q68 18 160 61q4 -2 4 -6q4 -16 4 -55q0 -80 -18.5 -337t-36 -533.5t-17.5 -448.5q0 -10 -206 -63q-113 -29 -197 -64q-8 -2 -10 2 q-4 8 -4 27z" />
<glyph unicode="&#xef;" horiz-adv-x="630" d="M-4 1634q0 70 45 109t104 39t99 -35t40 -105q0 -68 -45 -108.5t-102 -40.5q-59 0 -100 37t-41 104zM72 -8q0 29 34 311q29 229 41 379q0 238 15.5 469t42.5 231q94 0 188 27q68 18 160 61q4 -2 4 -6q4 -16 4 -55q0 -80 -18.5 -337t-36 -533.5t-17.5 -448.5 q0 -10 -206 -63q-113 -29 -197 -64q-8 -2 -10 2q-4 8 -4 27zM362 1642q0 70 44 109t106 39q57 0 98 -36.5t41 -104.5q0 -70 -44 -109t-106 -39q-57 0 -98 37t-41 104z" />
<glyph unicode="&#xf0;" />
<glyph unicode="&#xf1;" horiz-adv-x="1404" d="M82 0q61 326 69.5 422t8.5 600q0 47 2 70.5t4 46.5q0 25 -9.5 57.5t-33.5 91.5q-2 10 145.5 76t163.5 90q66 -100 131 -201q115 -205 230 -409q127 -219 147 -211q6 2 8 66.5t2 86.5q0 80 -4 264.5t-4 243.5q0 88 6 88q94 23 144 35q163 39 196 51q-4 -174 -6 -346 q-8 -389 -20.5 -693t-26.5 -316q-86 -68 -141 -103q-78 -49 -131 -57q-16 -2 -117 151q-88 133 -199 314q-121 197 -155 246q-18 -76 -35 -150q-16 -199 -31 -397q-106 -45 -219 -86q-63 -16 -125 -31zM352 1503l53 172q10 18 109 76q57 33 75 33q82 0 162 -62 q41 -31 92 -30q51 0 135 53q31 17 62 33q-4 -23 -37 -97q-23 -51 -45 -100q-12 -29 -55 -51.5t-95 -22.5q-111 0 -200 62q-45 31 -76 30q-55 0 -123 -47q-23 -14 -57 -49z" />
<glyph unicode="&#xf2;" horiz-adv-x="1644" d="M66 682q0 176 78.5 339t226.5 261q33 23 32 41q0 14 -22 35q-4 10 -6 20q272 96 495 97q231 0 394 -97q172 -104 256 -313q57 -139 57 -293q0 -213 -108.5 -402.5t-301.5 -301.5q-84 -49 -180 -75t-192 -26q-238 0 -428 131q-199 137 -271 367q-31 104 -30 217zM481 743 q0 -240 70 -360q78 -135 252 -135q162 0 258 155q88 144 88 357q0 246 -111 360q-90 92 -241 92q-160 0 -244 -151q-72 -129 -72 -318zM508 1694l131 204l354 -227l-90 -153z" />
<glyph unicode="&#xf3;" horiz-adv-x="1644" d="M66 682q0 176 78.5 339t226.5 261q33 23 32 41q0 14 -22 35q-4 10 -6 20q272 96 495 97q231 0 394 -97q172 -104 256 -313q57 -139 57 -293q0 -213 -108.5 -402.5t-301.5 -301.5q-84 -49 -180 -75t-192 -26q-238 0 -428 131q-199 137 -271 367q-31 104 -30 217zM481 743 q0 -240 70 -360q78 -135 252 -135q162 0 258 155q88 144 88 357q0 246 -111 360q-90 92 -241 92q-160 0 -244 -151q-72 -129 -72 -318zM530 1671l354 227l132 -204l-396 -176z" />
<glyph unicode="&#xf4;" horiz-adv-x="1644" d="M66 682q0 176 78.5 339t226.5 261q33 23 32 41q0 14 -22 35q-4 10 -6 20q272 96 495 97q231 0 394 -97q172 -104 256 -313q57 -139 57 -293q0 -213 -108.5 -402.5t-301.5 -301.5q-84 -49 -180 -75t-192 -26q-238 0 -428 131q-199 137 -271 367q-31 104 -30 217zM423 1671 l326 187h47l332 -187l-90 -153l-262 116l-262 -116zM481 743q0 -240 70 -360q78 -135 252 -135q162 0 258 155q88 144 88 357q0 246 -111 360q-90 92 -241 92q-160 0 -244 -151q-72 -129 -72 -318z" />
<glyph unicode="&#xf5;" horiz-adv-x="1644" d="M66 682q0 176 78.5 339t226.5 261q33 23 32 41q0 14 -22 35q-4 10 -6 20q272 96 495 97q231 0 394 -97q172 -104 256 -313q57 -139 57 -293q0 -213 -108.5 -402.5t-301.5 -301.5q-84 -49 -180 -75t-192 -26q-238 0 -428 131q-199 137 -271 367q-31 104 -30 217zM451 1503 l53 172q10 18 109 76q57 33 75 33q82 0 162 -62q41 -31 92 -30q51 0 135 53q31 17 62 33q-4 -23 -37 -97q-23 -51 -45 -100q-12 -29 -55 -51.5t-95 -22.5q-111 0 -200 62q-45 31 -76 30q-55 0 -123 -47q-23 -14 -57 -49zM481 743q0 -240 70 -360q78 -135 252 -135 q162 0 258 155q88 144 88 357q0 246 -111 360q-90 92 -241 92q-160 0 -244 -151q-72 -129 -72 -318z" />
<glyph unicode="&#xf6;" horiz-adv-x="1644" d="M66 682q0 176 78.5 339t226.5 261q33 23 32 41q0 14 -22 35q-4 10 -6 20q272 96 495 97q231 0 394 -97q172 -104 256 -313q57 -139 57 -293q0 -213 -108.5 -402.5t-301.5 -301.5q-84 -49 -180 -75t-192 -26q-238 0 -428 131q-199 137 -271 367q-31 104 -30 217zM445 1634 q0 70 45 109t104 39t99 -35t40 -105q0 -68 -45 -108.5t-102 -40.5q-59 0 -100 37t-41 104zM481 743q0 -240 70 -360q78 -135 252 -135q162 0 258 155q88 144 88 357q0 246 -111 360q-90 92 -241 92q-160 0 -244 -151q-72 -129 -72 -318zM811 1642q0 70 44 109t106 39 q57 0 98 -36.5t41 -104.5q0 -70 -44 -109t-106 -39q-57 0 -98 37t-41 104z" />
<glyph unicode="&#xf7;" horiz-adv-x="1169" />
<glyph unicode="&#xf8;" horiz-adv-x="1644" d="M66 682q0 176 78.5 339t226.5 261q33 23 32 41q0 14 -22 35q-4 10 -6 20q272 96 495 97q182 0 324 -64q31 43 66 84q10 12 24 29q39 -18 80 -26.5t72 -8.5q39 0 73.5 7t36.5 9l-168 -219q90 -88 144.5 -224t54.5 -290q0 -213 -108.5 -402.5t-301.5 -301.5 q-174 -100 -372 -101q-76 0 -154 16.5t-152 47.5l-77 -129q-6 -12 -85 -26.5t-147 -14.5q-49 0 -72.5 5t-23.5 21q0 4 6 15l199 258q-66 59 -116 137t-78.5 175t-28.5 210zM481 743q0 -82 8.5 -151.5t26.5 -126.5q57 76 186 256q82 115 166 229q68 99 138 197 q-45 35 -96.5 50t-112.5 15q-160 0 -244 -151q-72 -129 -72 -318zM649 283q63 -35 154 -35q162 0 258 155q88 144 88 357q0 113 -23 196q-145 -193 -233 -315q-115 -162 -244 -358z" />
<glyph unicode="&#xf9;" horiz-adv-x="1327" d="M70 492q0 51 25.5 363t35.5 407q4 37 199 77q98 12 196 25q0 -135 -8 -299t-20.5 -378t-12.5 -259q0 -57 8.5 -97t46.5 -67.5t89 -27.5q59 0 116.5 37.5t91 117.5t49 182.5t15.5 214.5q0 80 -6 197q-14 272 -14 363q0 12 192 69q99 20 197 43q12 -135 12 -286 q0 -197 -14.5 -356t-36.5 -240q-68 -254 -262 -439q-184 -176 -355 -176q-260 0 -368 70q-176 115 -176 459zM404 1694l131 204l354 -227l-90 -153z" />
<glyph unicode="&#xfa;" horiz-adv-x="1327" d="M70 492q0 51 25.5 363t35.5 407q4 37 199 77q98 12 196 25q0 -135 -8 -299t-20.5 -378t-12.5 -259q0 -57 8.5 -97t46.5 -67.5t89 -27.5q59 0 116.5 37.5t91 117.5t49 182.5t15.5 214.5q0 80 -6 197q-14 272 -14 363q0 12 192 69q99 20 197 43q12 -135 12 -286 q0 -197 -14.5 -356t-36.5 -240q-68 -254 -262 -439q-184 -176 -355 -176q-260 0 -368 70q-176 115 -176 459zM432 1671l354 227l132 -204l-396 -176z" />
<glyph unicode="&#xfb;" horiz-adv-x="1327" d="M70 492q0 51 25.5 363t35.5 407q4 37 199 77q98 12 196 25q0 -135 -8 -299t-20.5 -378t-12.5 -259q0 -57 8.5 -97t46.5 -67.5t89 -27.5q59 0 116.5 37.5t91 117.5t49 182.5t15.5 214.5q0 80 -6 197q-14 272 -14 363q0 12 192 69q99 20 197 43q12 -135 12 -286 q0 -197 -14.5 -356t-36.5 -240q-68 -254 -262 -439q-184 -176 -355 -176q-260 0 -368 70q-176 115 -176 459zM313 1671l326 187h47l332 -187l-90 -153l-262 116l-262 -116z" />
<glyph unicode="&#xfc;" horiz-adv-x="1327" d="M70 492q0 51 25.5 363t35.5 407q4 37 199 77q98 12 196 25q0 -135 -8 -299t-20.5 -378t-12.5 -259q0 -57 8.5 -97t46.5 -67.5t89 -27.5q59 0 116.5 37.5t91 117.5t49 182.5t15.5 214.5q0 80 -6 197q-14 272 -14 363q0 12 192 69q99 20 197 43q12 -135 12 -286 q0 -197 -14.5 -356t-36.5 -240q-68 -254 -262 -439q-184 -176 -355 -176q-260 0 -368 70q-176 115 -176 459zM347 1634q0 70 45 109t104 39t99 -35t40 -105q0 -68 -45 -108.5t-102 -40.5q-59 0 -100 37t-41 104zM713 1642q0 70 44 109t106 39q57 0 98 -36.5t41 -104.5 q0 -70 -44 -109t-106 -39q-57 0 -98 37t-41 104z" />
<glyph unicode="&#xfd;" />
<glyph unicode="&#xfe;" />
<glyph unicode="&#xff;" horiz-adv-x="1095" d="M2 1327q-2 8 172 64q100 33 176 61q57 -133 127 -266t127 -193q41 72 82 146q88 164 125 241q2 6 201 35q65 9 198 29q-39 -78 -221 -385q-152 -254 -215 -420q-96 -248 -96 -487q0 -16 -184 -72q-137 -41 -287 -117q43 127 81 299t38 295q0 47 -7 94q-70 141 -153 307 q-92 182 -164 369zM254 1634q0 70 45 109t104 39t99 -35t40 -105q0 -68 -45 -108.5t-102 -40.5q-59 0 -100 37t-41 104zM620 1642q0 70 44 109t106 39q57 0 98 -36.5t41 -104.5q0 -70 -44 -109t-106 -39q-57 0 -98 37t-41 104z" />
<glyph unicode="&#x152;" horiz-adv-x="2154" d="M66 682q0 176 78.5 339t226.5 261q33 23 32 41q0 14 -22 35q-4 10 -6 20q272 96 489 97q160 0 293 -56q27 23 35 23q10 4 145 4q90 0 188.5 -1t205.5 -1q188 0 300.5 5t143.5 19q-10 -37 -21 -71q-109 -180 -178 -228q-12 -8 -46 -12t-77 -4q-27 0 -86 2t-86 2 q-29 0 -62.5 -2t-45.5 -16q-18 -23 -24.5 -105t-6.5 -157q0 -18 49 -19q39 0 78 4q133 14 135 15q49 0 49 -19q0 -27 -49 -143.5t-78 -153.5q-6 -8 -26 -8q-18 0 -33 2q-59 8 -74 8q-37 0 -59.5 -12t-32.5 -62.5t-10 -105.5q0 -41 5 -66.5t15 -25.5q94 -14 171 -21.5 t141 -7.5q102 0 155.5 8.5t124.5 28.5q-16 -31 -30 -61q-127 -190 -154 -256q-4 -8 -90 -14.5t-193 -6.5q-172 0 -361.5 10.5t-266.5 26.5q-104 -31 -213 -31q-238 0 -428 131q-199 137 -271 367q-31 104 -30 217zM481 743q0 -240 70 -360q78 -135 252 -135q162 0 258 155 q88 144 88 357q0 145 -36 237.5t-99 145.5l-41 26q-74 43 -176 43q-160 0 -244 -151q-72 -129 -72 -318z" />
<glyph unicode="&#x153;" horiz-adv-x="2154" d="M66 682q0 176 78.5 339t226.5 261q33 23 32 41q0 14 -22 35q-4 10 -6 20q272 96 489 97q160 0 293 -56q27 23 35 23q10 4 145 4q90 0 188.5 -1t205.5 -1q188 0 300.5 5t143.5 19q-10 -37 -21 -71q-109 -180 -178 -228q-12 -8 -46 -12t-77 -4q-27 0 -86 2t-86 2 q-29 0 -62.5 -2t-45.5 -16q-18 -23 -24.5 -105t-6.5 -157q0 -18 49 -19q39 0 78 4q133 14 135 15q49 0 49 -19q0 -27 -49 -143.5t-78 -153.5q-6 -8 -26 -8q-18 0 -33 2q-59 8 -74 8q-37 0 -59.5 -12t-32.5 -62.5t-10 -105.5q0 -41 5 -66.5t15 -25.5q94 -14 171 -21.5 t141 -7.5q102 0 155.5 8.5t124.5 28.5q-16 -31 -30 -61q-127 -190 -154 -256q-4 -8 -90 -14.5t-193 -6.5q-172 0 -361.5 10.5t-266.5 26.5q-104 -31 -213 -31q-238 0 -428 131q-199 137 -271 367q-31 104 -30 217zM481 743q0 -240 70 -360q78 -135 252 -135q162 0 258 155 q88 144 88 357q0 145 -36 237.5t-99 145.5l-41 26q-74 43 -176 43q-160 0 -244 -151q-72 -129 -72 -318z" />
<glyph unicode="&#x178;" horiz-adv-x="1095" d="M2 1327q-2 8 172 64q100 33 176 61q57 -133 127 -266t127 -193q41 72 82 146q88 164 125 241q2 6 201 35q65 9 198 29q-39 -78 -221 -385q-152 -254 -215 -420q-96 -248 -96 -487q0 -16 -184 -72q-137 -41 -287 -117q43 127 81 299t38 295q0 47 -7 94q-70 141 -153 307 q-92 182 -164 369zM254 1634q0 70 45 109t104 39t99 -35t40 -105q0 -68 -45 -108.5t-102 -40.5q-59 0 -100 37t-41 104zM620 1642q0 70 44 109t106 39q57 0 98 -36.5t41 -104.5q0 -70 -44 -109t-106 -39q-57 0 -98 37t-41 104z" />
<glyph unicode="&#x2c6;" d="M190 1671l326 187h47l332 -187l-90 -153l-262 116l-262 -116z" />
<glyph unicode="&#x2dc;" d="M119 1503l53 172q10 18 109 76q57 33 75 33q82 0 162 -62q41 -31 92 -30q51 0 135 53q31 17 62 33q-4 -23 -37 -97q-23 -51 -45 -100q-12 -29 -55 -51.5t-95 -22.5q-111 0 -200 62q-45 31 -76 30q-55 0 -123 -47q-23 -14 -57 -49z" />
<glyph unicode="&#x2000;" horiz-adv-x="949" />
<glyph unicode="&#x2001;" horiz-adv-x="1898" />
<glyph unicode="&#x2002;" horiz-adv-x="949" />
<glyph unicode="&#x2003;" horiz-adv-x="1898" />
<glyph unicode="&#x2004;" horiz-adv-x="632" />
<glyph unicode="&#x2005;" horiz-adv-x="474" />
<glyph unicode="&#x2006;" horiz-adv-x="316" />
<glyph unicode="&#x2007;" horiz-adv-x="316" />
<glyph unicode="&#x2008;" horiz-adv-x="237" />
<glyph unicode="&#x2009;" horiz-adv-x="379" />
<glyph unicode="&#x200a;" horiz-adv-x="105" />
<glyph unicode="&#x2010;" horiz-adv-x="1024" d="M115 621q4 23 10 47q23 43 52.5 84t77.5 80.5t64 39.5q8 10 58.5 18.5t130.5 8.5l94 -4q35 -4 78 -6t78 -2q55 0 141 6q24 -2 49 -2q-16 -25 -33 -47q-61 -63 -74.5 -86t-43.5 -101q-23 -57 -39 -57q-4 -10 -92 7.5t-156 17.5q-80 0 -171 -9.5t-187 -19.5q-25 0 -33 4 q-10 6 -4 21z" />
<glyph unicode="&#x2011;" horiz-adv-x="1024" d="M115 621q4 23 10 47q23 43 52.5 84t77.5 80.5t64 39.5q8 10 58.5 18.5t130.5 8.5l94 -4q35 -4 78 -6t78 -2q55 0 141 6q24 -2 49 -2q-16 -25 -33 -47q-61 -63 -74.5 -86t-43.5 -101q-23 -57 -39 -57q-4 -10 -92 7.5t-156 17.5q-80 0 -171 -9.5t-187 -19.5q-25 0 -33 4 q-10 6 -4 21z" />
<glyph unicode="&#x2012;" horiz-adv-x="1024" d="M115 621q4 23 10 47q23 43 52.5 84t77.5 80.5t64 39.5q8 10 58.5 18.5t130.5 8.5l94 -4q35 -4 78 -6t78 -2q55 0 141 6q24 -2 49 -2q-16 -25 -33 -47q-61 -63 -74.5 -86t-43.5 -101q-23 -57 -39 -57q-4 -10 -92 7.5t-156 17.5q-80 0 -171 -9.5t-187 -19.5q-25 0 -33 4 q-10 6 -4 21z" />
<glyph unicode="&#x2013;" horiz-adv-x="1024" d="M10 578q8 20 19 40q68 115 82 162q25 80 39 109t30 29q6 12 119 12q137 0 305 -17q68 -6 139 -6q49 0 107.5 2t124.5 6h29q10 -2 8 -8q-14 -31 -27 -61q-39 -57 -78 -113q-33 -57 -63 -112q-23 -33 -37 -33q-6 -12 -32.5 -15.5t-55.5 -3.5q-68 0 -121 2t-98 4 q-88 0 -188.5 -6t-223.5 -12q-43 0 -63.5 4t-14.5 17z" />
<glyph unicode="&#x2014;" horiz-adv-x="2048" d="M8 578q12 20 27 40q96 115 117 162q45 100 71 127q10 10 29 11q2 4 64.5 6t86.5 2q106 0 393 -6.5t382 -6.5q74 0 301 2.5t329 2.5t162 -3q29 -4 60 -8q-20 -31 -39 -61q-55 -57 -111 -113q-51 -66 -76 -94q-43 -51 -67 -51q-8 -10 -76 -14.5t-168 -4.5q-123 0 -239.5 2 t-225.5 4q-137 0 -283 -4q-508 -14 -534 -14q-106 0 -154 4q-25 8 -49 17z" />
<glyph unicode="&#x2018;" horiz-adv-x="409" d="M49 1436q45 12 146 53h26q8 -57 82 -229q35 -82 70 -162q-14 0 -131 -41q-25 -6 -49 -10q-31 125 -123 319q-10 35 -21 70z" />
<glyph unicode="&#x2019;" horiz-adv-x="409" d="M41 1098q33 80 68 162q80 180 86 229q23 -4 45 -6q74 -33 127 -47q-10 -35 -19 -68q-96 -205 -125 -321q-39 8 -76 18q-90 33 -106 33z" />
<glyph unicode="&#x201a;" />
<glyph unicode="&#x201c;" horiz-adv-x="724" d="M20 1436q45 12 146 53h27q8 -57 81 -229q35 -82 70 -162q-14 0 -131 -41q-25 -6 -49 -10q-31 125 -123 319q-10 35 -21 70zM299 1425q45 12 145 54q27 10 29 0q6 -43 55 -162q95 -227 97 -227q-18 0 -131 -41q-25 -6 -50 -13q-31 131 -125 324q-10 33 -20 65z" />
<glyph unicode="&#x201d;" horiz-adv-x="706" d="M35 1098q33 80 67 162q80 180 86 229q23 -4 45 -6q74 -33 127 -47q-10 -35 -18 -68q-96 -205 -125 -321q-39 8 -76 18q-90 33 -106 33zM315 1108q33 80 68 160q78 178 84 229q23 -2 47 -4q86 -37 127 -47q-10 -35 -18 -68q-98 -207 -127 -323q-25 4 -47 8 q-125 45 -134 45z" />
<glyph unicode="&#x201e;" />
<glyph unicode="&#x2022;" horiz-adv-x="518" d="M18 756q0 90 52 147q59 68 163 68q106 0 170 -72q57 -66 58 -158q0 -90 -51 -147q-60 -68 -164 -68q-106 0 -167 69t-61 161z" />
<glyph unicode="&#x2026;" horiz-adv-x="1536" d="M82 152q0 74 46 126t134 52t141 -60q47 -53 48 -129q0 -74 -46.5 -126t-134.5 -52t-138 56.5t-50 132.5zM594 152q0 74 46 126t134 52t141 -60q47 -53 48 -129q0 -74 -46.5 -126t-134.5 -52t-138 56.5t-50 132.5zM1106 152q0 74 46 126t134 52t141 -60q47 -53 48 -129 q0 -74 -46.5 -126t-134.5 -52t-138 56.5t-50 132.5z" />
<glyph unicode="&#x202f;" horiz-adv-x="379" />
<glyph unicode="&#x2039;" />
<glyph unicode="&#x203a;" />
<glyph unicode="&#x205f;" horiz-adv-x="474" />
<glyph unicode="&#x2122;" horiz-adv-x="1996" d="M88 1264v170h680v-170h-229v-654h-224v654h-227zM924 610v824h307l186 -500l187 500h305v-824h-211v561l-201 -561h-162l-194 561l-4 -561h-213z" />
<glyph unicode="&#xe000;" horiz-adv-x="1423" d="M0 0v1423h1423v-1423h-1423z" />
</font>
</defs>
</svg>
