<?xml version="1.0" standalone="no"?>
<!DOCTYPE svg PUBLIC "-//W3C//DTD SVG 1.1//EN" "http://www.w3.org/Graphics/SVG/1.1/DTD/svg11.dtd" >
<svg xmlns="http://www.w3.org/2000/svg">
<metadata></metadata>
<defs>
<font id="1-prolook_yardlineregular" horiz-adv-x="1126" >
<font-face units-per-em="2048" ascent="1536" descent="-512" />
<missing-glyph horiz-adv-x="1024" />
<glyph horiz-adv-x="2048" />
<glyph horiz-adv-x="2048" />
<glyph unicode="&#xd;" horiz-adv-x="1024" />
<glyph unicode=" "  horiz-adv-x="1024" />
<glyph unicode="&#x09;" horiz-adv-x="1024" />
<glyph unicode="&#xa0;" horiz-adv-x="1024" />
<glyph unicode="!" horiz-adv-x="704" d="M195 1298v185l161 47h162v-1227h-254v948v47h-69zM264 0v231h254v-231h-254zM264 0v231h254v-231h-254z" />
<glyph unicode="$" horiz-adv-x="1069" d="M186 184v211h254v-94h234v209h-324l-164 139v672l164 139h90v70h234v-70h92l139 -117v-206h-231v92h-234v-488h326l139 -139v-418l-139 -137h-92v-47h-234v47h-90z" />
<glyph unicode="(" horiz-adv-x="770" d="M190 117v1286l164 139h211v-233h-139v-1076h139v-233h-211z" />
<glyph unicode=")" horiz-adv-x="774" d="M193 0v233h139v1067h-139v234h233l139 -139v-1278l-139 -117h-233z" />
<glyph unicode="+" horiz-adv-x="1097" d="M131 504v395h217v217h395v-217h218v-395h-218v-217h-395v217h-217z" />
<glyph unicode="," horiz-adv-x="1705" />
<glyph unicode="-" horiz-adv-x="927" d="M172 553v340h576v-340h-576z" />
<glyph unicode="." horiz-adv-x="636" d="M176 319v295h295v-295h-295z" />
<glyph unicode="/" horiz-adv-x="755" d="M156 -2l256 1538h233l-256 -1538h-233z" />
<glyph unicode="0" d="M102 125v1261l148 150h412v-274h-261v-1004h261v-258h-439zM723 0v1536h156l145 -145v-1252l-139 -139h-162z" />
<glyph unicode="1" horiz-adv-x="737" d="M102 0v266h119v867h-112v188l231 215h180v-385v-395v-490h115v-266h-533z" />
<glyph unicode="2" horiz-adv-x="1146" d="M102 0v795l181 182h458v246v313h138l157 -150v-555l-153 -151h-504v-37v-643h-277zM102 1075v305l160 156h416v-313h-299v-148h-277zM440 0v270h322v150h274v-420h-596z" />
<glyph unicode="3" horiz-adv-x="1118" d="M102 119v301h285v-150h277v-270h-414zM102 1126v260l144 150h416v-287h-275v-123h-285zM397 680v278h328v291v287h166l127 -133v-445l-127 -110l115 -115v-588l-144 -145h-133v270v410h-332z" />
<glyph unicode="4" horiz-adv-x="1116" d="M106 739l478 736v-457l-187 -287h248v391v-6v414h270v-799h103v-258h-96v-205h96v-268h-486v268h113v205h-442z" />
<glyph unicode="5" horiz-adv-x="1146" d="M104 162v270h283v-162h285v-270h-408zM104 805v731h297v-287v-331h473l162 -158v-625l-139 -135h-158v270v344h-483zM469 1249v287h563v-418h-315v131h-248z" />
<glyph unicode="6" d="M104 150v1247l127 139h168v-274v-279v-487v-217v-279h-139zM463 0v279h272v393h-272v311h422l145 -152v-669l-162 -162h-405zM463 1262v274h422l145 -156v-290h-295v172h-272z" />
<glyph unicode="7" horiz-adv-x="1064" d="M104 1073v463h308v-463h-308zM215 0v266h100l303 967h-137v303h398l82 -203l-318 -1067h86v-266h-514z" />
<glyph unicode="8" d="M104 150v555l109 131l-109 129v432l144 139h416v-274h-269v-297h269v-303h-269v-392h269v-270h-410zM729 0v1536h141l152 -139v-432l-119 -129l115 -131v-555l-150 -150h-139z" />
<glyph unicode="9" horiz-adv-x="1134" d="M102 156v286h299v-172h273v-270h-430zM102 782v596l158 158h414v-274h-273v-318h273v-307h-430zM737 0v270v367v307v305v287h140l153 -150v-1247l-129 -139h-164z" />
<glyph unicode=":" horiz-adv-x="512" d="M104 248v309h310v-309h-310zM104 930v309h310v-309h-310z" />
<glyph unicode=";" horiz-adv-x="503" d="M102 252v301h301v-272l-120 -91v62h-181zM102 915v332h301v-332h-301z" />
<glyph unicode="=" horiz-adv-x="819" d="M102 309v373h633v-373h-633zM102 829v410h633v-410h-633z" />
<glyph unicode="?" horiz-adv-x="921" d="M102 1186v211l164 141h418l141 -141v-746l-163 -141h-117v-209h-232v326l138 116h141v560h-232v-117h-258zM313 -2v233h232v-233h-232z" />
<glyph unicode="A" d="M102 0v252h48l235 1001h-68v283h457v-283h-53l252 -1001h51v-252h-403v252h69l-14 98h-221l-31 -98h63v-252h-385zM487 549h134l-68 233z" />
<glyph unicode="B" horiz-adv-x="1228" d="M102 2v266h119v987h-119v283h885l152 -133v-483l-103 -119l103 -115v-518l-152 -168h-885zM522 268h297v367h-297v-367zM522 922h297v333h-297v-333z" />
<glyph unicode="C" horiz-adv-x="1157" d="M102 143v1272l129 123h678l142 -135v-299h-301v158h-351v-994h351v271h301v-402l-142 -139h-661z" />
<glyph unicode="D" horiz-adv-x="1228" d="M102 266h113v996h-113v276h854l172 -149v-1235l-176 -156h-848zM518 266h285v996h-285v-996z" />
<glyph unicode="E" horiz-adv-x="1230" d="M102 1268v270h1014v-440h-293v170h-303v-359h234v-270h-234v-371h303v203h293v-473h-1005v270h108v1000h-117z" />
<glyph unicode="F" horiz-adv-x="1230" d="M104 -2v270h107v994h-107v276h1010v-444h-295v168h-305v-353h236v-270h-236v-371h113v-270h-523z" />
<glyph unicode="G" horiz-adv-x="1198" d="M102 143v1272l127 123h723l138 -135v-299h-302v158h-391v-994h391v267h-245v274h403l144 -147v-525l-138 -139h-704z" />
<glyph unicode="H" horiz-adv-x="1298" d="M98 -2l4 270h109v1000h-109v270h521v-270h-109v-350h272v350h-114v270h522v-270h-107v-629v-371h107v-270h-522v270h114v367h-272v-367h109v-270h-525z" />
<glyph unicode="I" horiz-adv-x="724" d="M102 0v270h111v996h-111v270h519v-270h-109v-627v-369h109v-270h-519z" />
<glyph unicode="J" horiz-adv-x="1134" d="M102 158v348h301v-238h224v992h-111v276h518v-276h-106v-1102l-160 -158h-512z" />
<glyph unicode="K" horiz-adv-x="1269" d="M102 270h111v996h-111v270h519v-270h-109v-310l242 310h-84v270h495v-270h-80l-331 -439l323 -557h88v-270h-495v270h84l-166 324l-76 -105v-219h109v-270h-517z" />
<glyph unicode="L" horiz-adv-x="1187" d="M102 0v270h111v992h-111v274h519v-274h-109v-992h289v201h289v-471h-988z" />
<glyph unicode="M" horiz-adv-x="1699" d="M104 0v270h107v990h-107v276h555l215 -1036l195 1036h535v-276h-91v-990h91v-270h-484v270h82v568l-237 -838h-203l-236 838v-568h97v-270h-519z" />
<glyph unicode="N" horiz-adv-x="1290" d="M102 0v274h115v994h-115v268h443l221 -655v393h-109v262h527v-268h-109v-994h109v-274h-416l-256 786v-512h94v-274h-504z" />
<glyph unicode="O" d="M102 123v1266l146 147h631l143 -141v-1252l-137 -143h-660zM406 266h317v994h-317v-994z" />
<glyph unicode="P" horiz-adv-x="1146" d="M102 0v270h109v990h-109v276h793l149 -150v-579l-157 -160h-365l4 -377h111v-270h-535zM520 926h201v334h-201v-334z" />
<glyph unicode="Q" horiz-adv-x="1146" d="M102 143v1246l146 147h655l146 -141v-1282l-115 -113l78 -156h-277l-78 156h-409zM399 270h123l-37 107l217 108l56 -170v945h-359v-990z" />
<glyph unicode="R" horiz-adv-x="1196" d="M102 0v270h109v990h-109v276h842l146 -170v-573l-164 -156h-92l202 -367h62v-270h-432v270h65l-192 355h-15v-355h97v-270h-519zM524 915h248v345h-248v-345z" />
<glyph unicode="S" horiz-adv-x="1165" d="M102 164v287h297v-185h349v371h-502l-144 141v623l140 135h657l158 -156v-297h-309v177h-349v-345h512l140 -143v-629l-146 -143h-639z" />
<glyph unicode="T" horiz-adv-x="1191" d="M102 1085v451h996v-451h-246v183h-98v-996h106v-272h-514v272h103v996h-97v-183h-250z" />
<glyph unicode="U" horiz-adv-x="1148" d="M102 1272v264h414v-264h-72v-996h263v996h-74v264h414v-264h-78v-1104l-168 -168h-449l-166 168v1104h-84z" />
<glyph unicode="V" horiz-adv-x="1169" d="M102 1262v274h443v-274h-72l111 -766l121 766h-78v274h438v-274h-90l-260 -1262h-279l-264 1262h-70z" />
<glyph unicode="W" horiz-adv-x="1626" d="M102 1257v279h467v-279h-73l71 -718l154 604h201l168 -596l79 710h-94v279h451v-279h-90l-181 -1257h-268l-168 692l-168 -692h-268l-186 1257h-95z" />
<glyph unicode="X" horiz-adv-x="1187" d="M102 0v268h80l250 504l-229 485h-66v279h424v-279h-63l98 -215l90 215h-65v279h423v-279h-86l-219 -481l265 -504h86v-272h-443v272h72l-121 246l-121 -246h70v-272h-445z" />
<glyph unicode="Y" horiz-adv-x="1107" d="M102 1257v279h430v-279h-69l98 -233l96 233h-69v279h420v-279h-86l-207 -593v-394h98v-270h-498v270h95v394l-242 593h-66z" />
<glyph unicode="Z" horiz-adv-x="1107" d="M104 0v270l537 987h-258v-192h-279v471h893v-279l-510 -987h222v226h288v-496h-893z" />
<glyph unicode="a" horiz-adv-x="1165" d="M143 0v229h70l207 1309h319l207 -1309h70v-229h-369v229h70l-23 115h-229v-115h47v-229h-369zM512 573h135l-67 576z" />
<glyph unicode="b" horiz-adv-x="1050" d="M131 0v229h68v1055h-68v254h621l159 -137v-668l-92 -90l92 -117v-389l-159 -137h-621zM430 229h252v275h-252v-275zM430 758h252v526h-252v-526z" />
<glyph unicode="c" horiz-adv-x="1036" d="M172 135v1262l137 137h443l139 -137v-207h-234v92h-254v-1055h254v115h234v-207l-139 -137h-443z" />
<glyph unicode="d" horiz-adv-x="1069" d="M125 -2v229h68v1057h-68v250h641l162 -137v-1262l-162 -137h-641zM422 227h276v1057h-276v-1057z" />
<glyph unicode="e" horiz-adv-x="1046" d="M164 0v229h67v1047h-67v254h729v-344h-229v90h-203v-522h319v-252h-319v-273h203v115h229v-344h-729z" />
<glyph unicode="f" horiz-adv-x="993" d="M156 -2v227h65v1061h-65v252h712v-346h-221v94h-201v-530h312v-252h-312v-279h66v-227h-356z" />
<glyph unicode="g" horiz-adv-x="1046" d="M147 139v1264l162 137h414l162 -137v-207h-254v90h-252v-1055h252v275h-160v254h414v-621l-162 -139h-414z" />
<glyph unicode="h" horiz-adv-x="1140" d="M160 0v229h65v1053h-65v252h372v-252h-63v-526h242v526h-68v252h352v-252h-67v-1053h67v-229h-352v229h68v275h-242v-275h63v-229h-372z" />
<glyph unicode="i" horiz-adv-x="727" d="M174 -2v229h70v1063h-70v252h369v-252h-70v-1063h70v-229h-369z" />
<glyph unicode="j" horiz-adv-x="1093" d="M180 139v205h228v-117h231v1057h-70v252h367v-252h-70v-1145l-157 -139h-369z" />
<glyph unicode="k" horiz-adv-x="1230" d="M164 0v229h67v1059h-67v250h366v-250h-67v-553l229 553h-22v250h389v-250h-68l-254 -575l230 -484h92v-229h-389v229h43l-135 277l-115 -139v-138h67v-229h-366z" />
<glyph unicode="l" horiz-adv-x="1064" d="M178 4v229h70v1057h-70v252h369v-252h-70v-1057h185v115h229v-344h-713z" />
<glyph unicode="m" horiz-adv-x="1345" d="M170 0v231h68v1055h-68v252h297l207 -436l207 436h299v-252h-70v-1055h70v-231h-369v231h70v734l-207 -437l-207 437v-734h70v-231h-367z" />
<glyph unicode="n" horiz-adv-x="1136" d="M137 2v229h68v1053h-68v250h320l250 -938v688h-66v250h365v-250h-70v-1282h-250l-252 664v-435h70v-229h-367z" />
<glyph unicode="o" horiz-adv-x="1054" d="M162 135v1268l162 139h438l137 -139v-1268l-137 -137h-438zM391 227h279v1061h-279v-1061z" />
<glyph unicode="p" horiz-adv-x="1060" d="M150 0v229h69v1055h-69v252h618l162 -139v-824l-162 -137h-319v-207h69v-229h-368zM449 666h251v618h-251v-618z" />
<glyph unicode="q" horiz-adv-x="1054" d="M174 178v1229l135 133h424l156 -133v-1229l-156 -133l43 -45h-246l-43 45h-178zM397 268h246v1026h-246v-1026z" />
<glyph unicode="r" horiz-adv-x="1112" d="M156 0v229h69v1053h-69v252h618l160 -137v-733l-160 -136l94 -299h90v-229h-251l-183 504h-69v-275h69v-229h-368zM455 756h229v526h-229v-526z" />
<glyph unicode="s" horiz-adv-x="1007" d="M156 139v205h252v-115h229v277h-320l-161 135v758l161 137h410l139 -137v-207h-229v90h-229v-526h319l139 -138v-479l-139 -139h-410z" />
<glyph unicode="t" horiz-adv-x="1122" d="M156 1192v342h821v-342h-227v90h-70v-1051h70v-227h-367v227h70v1051h-70v-90h-227z" />
<glyph unicode="u" horiz-adv-x="1155" d="M143 1284v252h367v-252h-68v-1057h275v1057h-68v252h367v-252h-70v-1149l-160 -137h-413l-160 137v1149h-70z" />
<glyph unicode="v" horiz-adv-x="1140" d="M147 1282v252h367v-252h-45q0 -25 4 -90.5t10 -141t14.5 -145t16.5 -104.5q16 -51 22.5 -120t22.5 -155q18 86 35.5 146.5t34.5 128.5q8 35 16 107.5t14.5 150.5t10.5 142.5t4 80.5h-45v252h366v-252h-69l-228 -1282h-252l-229 1282h-70z" />
<glyph unicode="w" horiz-adv-x="1449" d="M129 1280v252h367v-252h-47l47 -664l137 916h182l137 -916l47 664h-47v252h367v-252h-70l-182 -1280h-229l-115 549l-113 -549h-227l-184 1280h-70z" />
<glyph unicode="x" horiz-adv-x="1187" d="M154 0v229h67l232 529l-232 528h-67v252h366v-252h-22l92 -299l92 299h-23v252h367v-252h-68l-231 -528l231 -529h68v-229h-367v229h23l-92 299l-92 -299h22v-229h-366z" />
<glyph unicode="y" horiz-adv-x="1083" d="M150 1286v254h366v-254h-47l92 -229l68 229h-43v254h366v-254h-69l-207 -551v-506h69v-229h-389v229h68v506l-184 551h-90z" />
<glyph unicode="z" horiz-adv-x="1079" d="M164 -2v231l436 1059h-184v-94h-232v344h715v-250l-436 -1059h205v113h231v-344h-735z" />
<glyph unicode="&#xad;" horiz-adv-x="927" d="M172 553v340h576v-340h-576z" />
<glyph unicode="&#x2000;" horiz-adv-x="771" />
<glyph unicode="&#x2001;" horiz-adv-x="1542" />
<glyph unicode="&#x2002;" horiz-adv-x="771" />
<glyph unicode="&#x2003;" horiz-adv-x="1542" />
<glyph unicode="&#x2004;" horiz-adv-x="514" />
<glyph unicode="&#x2005;" horiz-adv-x="385" />
<glyph unicode="&#x2006;" horiz-adv-x="257" />
<glyph unicode="&#x2007;" horiz-adv-x="257" />
<glyph unicode="&#x2008;" horiz-adv-x="192" />
<glyph unicode="&#x2009;" horiz-adv-x="308" />
<glyph unicode="&#x200a;" horiz-adv-x="85" />
<glyph unicode="&#x2010;" horiz-adv-x="927" d="M172 553v340h576v-340h-576z" />
<glyph unicode="&#x2011;" horiz-adv-x="927" d="M172 553v340h576v-340h-576z" />
<glyph unicode="&#x2012;" horiz-adv-x="927" d="M172 553v340h576v-340h-576z" />
<glyph unicode="&#x2013;" horiz-adv-x="1375" d="M172 553v340h1024v-340h-1024z" />
<glyph unicode="&#x2014;" horiz-adv-x="2399" d="M172 553v340h2048v-340h-2048z" />
<glyph unicode="&#x2019;" horiz-adv-x="837" d="M223 1126v404h404v-361l-41 -43l-82 -79v79h-281z" />
<glyph unicode="&#x201c;" horiz-adv-x="1226" d="M168 1169v361h403v-404h-280v-79l-82 79zM651 1169v361h404v-404h-285v-79l-80 79z" />
<glyph unicode="&#x201d;" horiz-adv-x="1208" d="M168 1126v404h403v-361l-39 -43l-79 -79v79h-285zM651 1126v404h404v-361l-41 -43l-82 -79v79h-281z" />
<glyph unicode="&#x202f;" horiz-adv-x="308" />
<glyph unicode="&#x205f;" horiz-adv-x="385" />
<glyph unicode="&#xe000;" horiz-adv-x="1540" d="M0 0v1540h1540v-1540h-1540z" />
</font>
</defs>
</svg>
