<?xml version="1.0" standalone="no"?>
<!DOCTYPE svg PUBLIC "-//W3C//DTD SVG 1.1//EN" "http://www.w3.org/Graphics/SVG/1.1/DTD/svg11.dtd" >
<svg xmlns="http://www.w3.org/2000/svg">
<metadata></metadata>
<defs>
<font id="1-prolook_plainblockregular" horiz-adv-x="1040" >
<font-face units-per-em="2048" ascent="1638" descent="-410" />
<missing-glyph horiz-adv-x="840" />
<glyph horiz-adv-x="2048" />
<glyph horiz-adv-x="2048" />
<glyph unicode="&#xd;" horiz-adv-x="390" />
<glyph unicode=" "  horiz-adv-x="840" />
<glyph unicode="&#x09;" horiz-adv-x="840" />
<glyph unicode="&#xa0;" horiz-adv-x="840" />
<glyph unicode="!" horiz-adv-x="480" d="M100 0v280h280v-280h-280zM100 980v420h280v-420l-60 -420h-160z" />
<glyph unicode="&#x22;" horiz-adv-x="880" d="M100 840l140 280h-140v280h280v-280l-140 -280h-140zM500 840l140 280h-140v280h280v-280l-140 -280h-140z" />
<glyph unicode="#" horiz-adv-x="1320" d="M100 280v280h140v280h-140v280h140v280h280v-280h280v280h280v-280h140v-280h-140v-280h140v-280h-140v-280h-280v280h-280v-280h-280v280h-140zM520 560h280v280h-280v-280z" />
<glyph unicode="$" d="M100 224v196h280v-140h280v280h-336l-224 224v392l224 224h56v280h280v-280h56l224 -224v-196h-280v140h-280v-280h336l224 -224v-392l-224 -224h-56v-280h-280v280h-56z" />
<glyph unicode="%" horiz-adv-x="636" />
<glyph unicode="&#x26;" horiz-adv-x="486" />
<glyph unicode="'" horiz-adv-x="480" d="M100 840l140 280h-140v280h280v-280l-140 -280h-140z" />
<glyph unicode="(" horiz-adv-x="336" />
<glyph unicode=")" horiz-adv-x="384" />
<glyph unicode="*" horiz-adv-x="492" />
<glyph unicode="+" d="M100 560v280h280v280h280v-280h280v-280h-280v-280h-280v280h-280z" />
<glyph unicode="," horiz-adv-x="480" d="M100 0v280h280v-280l-140 -280h-140l140 280h-140z" />
<glyph unicode="-" d="M100 560v280h840v-280h-840z" />
<glyph unicode="." horiz-adv-x="480" d="M100 0v280h280v-280h-280z" />
<glyph unicode="/" horiz-adv-x="357" />
<glyph unicode="0" d="M100 224v952l224 224h392l224 -224v-952l-224 -224h-392zM380 280h280v840h-280v-840z" />
<glyph unicode="1" d="M240 980v212l140 208h280v-1400h-280v980h-140z" />
<glyph unicode="2" d="M100 0v616l224 224h336v280h-280v-140h-280v196l224 224h392l224 -224v-392l-224 -224h-336v-280h560v-280h-840z" />
<glyph unicode="3" d="M100 224v196h280v-140h280v280h-140v280h140v280h-280v-140h-280v196l224 224h392l224 -224v-392l-84 -84l84 -84v-392l-224 -224h-392z" />
<glyph unicode="4" d="M100 420v280l420 700h280v-700h140v-280h-140v-420h-280v420h-420zM400 700h120v200z" />
<glyph unicode="5" d="M100 224v196h280v-140h280v280h-336l-224 224v616h840v-280h-560v-280h336l224 -224v-392l-224 -224h-392z" />
<glyph unicode="6" d="M100 224v952l224 224h392l224 -224v-196h-280v140h-280v-280h336l224 -224v-392l-224 -224h-392zM380 280h280v280h-280v-280z" />
<glyph unicode="7" d="M100 980v420h840v-280l-510 -1121h-310l510 1121h-250v-140h-280z" />
<glyph unicode="8" d="M100 224v392l84 84l-84 84v392l224 224h392l224 -224v-392l-84 -84l84 -84v-392l-224 -224h-392zM380 280h280v280h-280v-280zM380 840h280v280h-280v-280z" />
<glyph unicode="9" d="M100 224v196h280v-140h280v280h-336l-224 224v392l224 224h392l224 -224v-952l-224 -224h-392zM360 840h300v280h-300v-280z" />
<glyph unicode=":" horiz-adv-x="231" />
<glyph unicode=";" horiz-adv-x="237" />
<glyph unicode="&#x3c;" horiz-adv-x="636" />
<glyph unicode="=" horiz-adv-x="636" />
<glyph unicode="&#x3e;" horiz-adv-x="636" />
<glyph unicode="?" horiz-adv-x="567" />
<glyph unicode="@" horiz-adv-x="579" />
<glyph unicode="A" horiz-adv-x="1180" d="M100 0l350 1400h280l350 -1400h-280l-70 280h-280l-70 -280h-280zM520 560h140l-70 280z" />
<glyph unicode="B" d="M100 0v1400h616l224 -224v-392l-84 -84l84 -84v-392l-224 -224h-616zM380 280h280v280h-280v-280zM380 840h280v280h-280v-280z" />
<glyph unicode="C" d="M100 224v952l224 224h392l224 -224v-196h-280v140h-280v-840h280v140h280v-196l-224 -224h-392z" />
<glyph unicode="D" d="M100 0v1400h616l224 -224v-952l-224 -224h-616zM380 280h280v840h-280v-840z" />
<glyph unicode="E" d="M100 0v1400h840v-280h-560v-280h420v-280h-420v-280h560v-280h-840z" />
<glyph unicode="F" d="M100 0v1400h840v-280h-560v-280h420v-280h-420v-560h-280z" />
<glyph unicode="G" d="M100 224v952l224 224h392l224 -224v-196h-280v140h-280v-840h280v280h-140v280h420v-616l-224 -224h-392z" />
<glyph unicode="H" d="M100 0v1400h280v-560h280v560h280v-1400h-280v560h-280v-560h-280z" />
<glyph unicode="I" horiz-adv-x="480" d="M100 0v1400h280v-1400h-280z" />
<glyph unicode="J" d="M100 224v196h280v-140h280v1120h280v-1176l-224 -224h-392z" />
<glyph unicode="K" horiz-adv-x="1180" d="M100 0v1400h280v-556l420 556h280l-436 -568l436 -832h-280l-308 644l-112 -144v-500h-280z" />
<glyph unicode="L" d="M100 0v1400h280v-1120h560v-280h-840z" />
<glyph unicode="M" horiz-adv-x="1300" d="M100 0v1400h280l270 -660l290 660h280v-1400h-280v660l-290 -660l-270 656v-656h-280z" />
<glyph unicode="N" horiz-adv-x="1180" d="M100 0v1400h280l420 -800v800h280v-1400h-280l-420 800v-800h-280z" />
<glyph unicode="O" d="M100 224v952l224 224h392l224 -224v-952l-224 -224h-392zM380 280h280v840h-280v-840z" />
<glyph unicode="P" d="M100 0v1400h616l224 -224v-392l-224 -224h-336v-560h-280zM380 844h280v276h-280v-276z" />
<glyph unicode="Q" d="M100 224v952l224 224h392l224 -224v-952l-224 -224h-56v-280h-280v280h-56zM380 280h280v840h-280v-840z" />
<glyph unicode="R" d="M100 0v1400h616l224 -224v-392l-84 -84l84 -84v-616h-280v560h-280v-560h-280zM380 840h280v280h-280v-280z" />
<glyph unicode="S" d="M100 224v196h280v-140h280v280h-336l-224 224v392l224 224h392l224 -224v-196h-280v140h-280v-280h332l228 -224v-392l-224 -224h-392z" />
<glyph unicode="T" horiz-adv-x="1320" d="M100 1120v280h1120v-280h-420v-1120h-280v1120h-420z" />
<glyph unicode="U" d="M100 224v1176h280v-1120h280v1120h280v-1176l-224 -224h-392z" />
<glyph unicode="V" horiz-adv-x="1180" d="M100 1400h280l210 -840l210 840h280l-350 -1400h-280z" />
<glyph unicode="W" horiz-adv-x="1600" d="M100 1400h280l168 -740l112 460h280l112 -460l168 740h280l-312 -1400h-280l-108 488l-108 -488h-280z" />
<glyph unicode="X" horiz-adv-x="1320" d="M100 0l420 700l-420 700h280l280 -467l280 467h280l-420 -700l420 -700h-280l-280 467l-280 -467h-280z" />
<glyph unicode="Y" horiz-adv-x="1320" d="M100 1400h280l280 -467l280 467h280l-420 -700v-700h-280v700z" />
<glyph unicode="Z" d="M100 0v280l520 840h-520v280h840v-280l-520 -840h520v-280h-840z" />
<glyph unicode="[" horiz-adv-x="282" />
<glyph unicode="\" horiz-adv-x="318" />
<glyph unicode="]" horiz-adv-x="312" />
<glyph unicode="^" horiz-adv-x="330" />
<glyph unicode="_" horiz-adv-x="490" />
<glyph unicode="`" horiz-adv-x="357" />
<glyph unicode="a" horiz-adv-x="1180" d="M100 0l350 1400h280l350 -1400h-280l-70 280h-280l-70 -280h-280zM520 560h140l-70 280z" />
<glyph unicode="b" d="M100 0v1400h616l224 -224v-392l-84 -84l84 -84v-392l-224 -224h-616zM380 280h280v280h-280v-280zM380 840h280v280h-280v-280z" />
<glyph unicode="c" d="M100 224v952l224 224h392l224 -224v-196h-280v140h-280v-840h280v140h280v-196l-224 -224h-392z" />
<glyph unicode="d" d="M100 0v1400h616l224 -224v-952l-224 -224h-616zM380 280h280v840h-280v-840z" />
<glyph unicode="e" d="M100 0v1400h840v-280h-560v-280h420v-280h-420v-280h560v-280h-840z" />
<glyph unicode="f" d="M100 0v1400h840v-280h-560v-280h420v-280h-420v-560h-280z" />
<glyph unicode="g" d="M100 224v952l224 224h392l224 -224v-196h-280v140h-280v-840h280v280h-140v280h420v-616l-224 -224h-392z" />
<glyph unicode="h" d="M100 0v1400h280v-560h280v560h280v-1400h-280v560h-280v-560h-280z" />
<glyph unicode="i" horiz-adv-x="480" d="M100 0v1400h280v-1400h-280z" />
<glyph unicode="j" d="M100 224v196h280v-140h280v1120h280v-1176l-224 -224h-392z" />
<glyph unicode="k" horiz-adv-x="1180" d="M100 0v1400h280v-556l420 556h280l-436 -568l436 -832h-280l-308 644l-112 -144v-500h-280z" />
<glyph unicode="l" d="M100 0v1400h280v-1120h560v-280h-840z" />
<glyph unicode="m" horiz-adv-x="1300" d="M100 0v1400h280l270 -660l290 660h280v-1400h-280v660l-290 -660l-270 656v-656h-280z" />
<glyph unicode="n" horiz-adv-x="1180" d="M100 0v1400h280l420 -800v800h280v-1400h-280l-420 800v-800h-280z" />
<glyph unicode="o" d="M100 224v952l224 224h392l224 -224v-952l-224 -224h-392zM380 280h280v840h-280v-840z" />
<glyph unicode="p" d="M100 0v1400h616l224 -224v-392l-224 -224h-336v-560h-280zM380 844h280v276h-280v-276z" />
<glyph unicode="q" d="M100 224v952l224 224h392l224 -224v-952l-224 -224h-56v-280h-280v280h-56zM380 280h280v840h-280v-840z" />
<glyph unicode="r" d="M100 0v1400h616l224 -224v-392l-84 -84l84 -84v-616h-280v560h-280v-560h-280zM380 840h280v280h-280v-280z" />
<glyph unicode="s" d="M100 224v196h280v-140h280v280h-336l-224 224v392l224 224h392l224 -224v-196h-280v140h-280v-280h332l228 -224v-392l-224 -224h-392z" />
<glyph unicode="t" horiz-adv-x="1320" d="M100 1120v280h1120v-280h-420v-1120h-280v1120h-420z" />
<glyph unicode="u" d="M100 224v1176h280v-1120h280v1120h280v-1176l-224 -224h-392z" />
<glyph unicode="v" horiz-adv-x="1180" d="M100 1400h280l210 -840l210 840h280l-350 -1400h-280z" />
<glyph unicode="w" horiz-adv-x="1600" d="M100 1400h280l168 -740l112 460h280l112 -460l168 740h280l-312 -1400h-280l-108 488l-108 -488h-280z" />
<glyph unicode="x" horiz-adv-x="1320" d="M100 0l420 700l-420 700h280l280 -467l280 467h280l-420 -700l420 -700h-280l-280 467l-280 -467h-280z" />
<glyph unicode="y" horiz-adv-x="1320" d="M100 1400h280l280 -467l280 467h280l-420 -700v-700h-280v700z" />
<glyph unicode="z" d="M100 0v280l520 840h-520v280h840v-280l-520 -840h520v-280h-840z" />
<glyph unicode="{" horiz-adv-x="420" />
<glyph unicode="|" horiz-adv-x="201" />
<glyph unicode="}" horiz-adv-x="360" />
<glyph unicode="~" horiz-adv-x="636" />
<glyph unicode="&#xa1;" horiz-adv-x="309" />
<glyph unicode="&#xa2;" horiz-adv-x="636" />
<glyph unicode="&#xa3;" horiz-adv-x="636" />
<glyph unicode="&#xa4;" horiz-adv-x="420" />
<glyph unicode="&#xa5;" horiz-adv-x="636" />
<glyph unicode="&#xa6;" horiz-adv-x="201" />
<glyph unicode="&#xa7;" horiz-adv-x="420" />
<glyph unicode="&#xa8;" horiz-adv-x="371" />
<glyph unicode="&#xa9;" horiz-adv-x="714" />
<glyph unicode="&#xaa;" horiz-adv-x="402" />
<glyph unicode="&#xab;" horiz-adv-x="540" />
<glyph unicode="&#xac;" horiz-adv-x="1395" />
<glyph unicode="&#xad;" d="M100 560v280h840v-280h-840z" />
<glyph unicode="&#xae;" horiz-adv-x="747" />
<glyph unicode="&#xaf;" horiz-adv-x="360" />
<glyph unicode="&#xb0;" horiz-adv-x="285" />
<glyph unicode="&#xb1;" horiz-adv-x="636" />
<glyph unicode="&#xb2;" horiz-adv-x="300" />
<glyph unicode="&#xb3;" horiz-adv-x="300" />
<glyph unicode="&#xb4;" horiz-adv-x="462" />
<glyph unicode="&#xb6;" horiz-adv-x="450" />
<glyph unicode="&#xb7;" horiz-adv-x="207" />
<glyph unicode="&#xb8;" horiz-adv-x="321" />
<glyph unicode="&#xb9;" horiz-adv-x="300" />
<glyph unicode="&#xba;" horiz-adv-x="402" />
<glyph unicode="&#xbb;" horiz-adv-x="540" />
<glyph unicode="&#xbc;" horiz-adv-x="786" />
<glyph unicode="&#xbd;" horiz-adv-x="786" />
<glyph unicode="&#xbe;" horiz-adv-x="786" />
<glyph unicode="&#xbf;" horiz-adv-x="567" />
<glyph unicode="&#xc0;" horiz-adv-x="609" />
<glyph unicode="&#xc1;" horiz-adv-x="609" />
<glyph unicode="&#xc2;" horiz-adv-x="609" />
<glyph unicode="&#xc3;" horiz-adv-x="609" />
<glyph unicode="&#xc4;" horiz-adv-x="609" />
<glyph unicode="&#xc5;" horiz-adv-x="609" />
<glyph unicode="&#xc6;" horiz-adv-x="819" />
<glyph unicode="&#xc7;" horiz-adv-x="729" />
<glyph unicode="&#xc8;" horiz-adv-x="648" />
<glyph unicode="&#xc9;" horiz-adv-x="648" />
<glyph unicode="&#xca;" horiz-adv-x="648" />
<glyph unicode="&#xcb;" horiz-adv-x="648" />
<glyph unicode="&#xcc;" horiz-adv-x="234" />
<glyph unicode="&#xcd;" horiz-adv-x="234" />
<glyph unicode="&#xce;" horiz-adv-x="234" />
<glyph unicode="&#xcf;" horiz-adv-x="234" />
<glyph unicode="&#xd0;" horiz-adv-x="663" />
<glyph unicode="&#xd1;" horiz-adv-x="612" />
<glyph unicode="&#xd2;" horiz-adv-x="696" />
<glyph unicode="&#xd3;" horiz-adv-x="696" />
<glyph unicode="&#xd4;" horiz-adv-x="696" />
<glyph unicode="&#xd5;" horiz-adv-x="696" />
<glyph unicode="&#xd6;" horiz-adv-x="696" />
<glyph unicode="&#xd7;" horiz-adv-x="636" />
<glyph unicode="&#xd8;" horiz-adv-x="696" />
<glyph unicode="&#xd9;" horiz-adv-x="660" />
<glyph unicode="&#xda;" horiz-adv-x="660" />
<glyph unicode="&#xdb;" horiz-adv-x="660" />
<glyph unicode="&#xdc;" horiz-adv-x="660" />
<glyph unicode="&#xdd;" horiz-adv-x="526" />
<glyph unicode="&#xde;" horiz-adv-x="576" />
<glyph unicode="&#xdf;" horiz-adv-x="498" />
<glyph unicode="&#xe0;" horiz-adv-x="369" />
<glyph unicode="&#xe1;" horiz-adv-x="369" />
<glyph unicode="&#xe2;" horiz-adv-x="369" />
<glyph unicode="&#xe3;" horiz-adv-x="369" />
<glyph unicode="&#xe4;" horiz-adv-x="369" />
<glyph unicode="&#xe5;" horiz-adv-x="369" />
<glyph unicode="&#xe6;" horiz-adv-x="747" />
<glyph unicode="&#xe7;" horiz-adv-x="510" />
<glyph unicode="&#xe8;" horiz-adv-x="486" />
<glyph unicode="&#xe9;" horiz-adv-x="486" />
<glyph unicode="&#xea;" horiz-adv-x="486" />
<glyph unicode="&#xeb;" horiz-adv-x="486" />
<glyph unicode="&#xec;" horiz-adv-x="234" />
<glyph unicode="&#xed;" horiz-adv-x="234" />
<glyph unicode="&#xee;" horiz-adv-x="234" />
<glyph unicode="&#xef;" horiz-adv-x="234" />
<glyph unicode="&#xf0;" horiz-adv-x="483" />
<glyph unicode="&#xf1;" horiz-adv-x="384" />
<glyph unicode="&#xf2;" horiz-adv-x="366" />
<glyph unicode="&#xf3;" horiz-adv-x="366" />
<glyph unicode="&#xf4;" horiz-adv-x="366" />
<glyph unicode="&#xf5;" horiz-adv-x="366" />
<glyph unicode="&#xf6;" horiz-adv-x="366" />
<glyph unicode="&#xf7;" horiz-adv-x="636" />
<glyph unicode="&#xf8;" horiz-adv-x="366" />
<glyph unicode="&#xf9;" horiz-adv-x="342" />
<glyph unicode="&#xfa;" horiz-adv-x="342" />
<glyph unicode="&#xfb;" horiz-adv-x="342" />
<glyph unicode="&#xfc;" horiz-adv-x="342" />
<glyph unicode="&#xfd;" horiz-adv-x="393" />
<glyph unicode="&#xfe;" horiz-adv-x="348" />
<glyph unicode="&#xff;" horiz-adv-x="393" />
<glyph unicode="&#x152;" horiz-adv-x="954" />
<glyph unicode="&#x153;" horiz-adv-x="756" />
<glyph unicode="&#x178;" horiz-adv-x="526" />
<glyph unicode="&#x2c6;" horiz-adv-x="360" />
<glyph unicode="&#x2dc;" horiz-adv-x="483" />
<glyph unicode="&#x2000;" horiz-adv-x="840" />
<glyph unicode="&#x2001;" horiz-adv-x="1680" />
<glyph unicode="&#x2002;" horiz-adv-x="840" />
<glyph unicode="&#x2003;" horiz-adv-x="1680" />
<glyph unicode="&#x2004;" horiz-adv-x="560" />
<glyph unicode="&#x2005;" horiz-adv-x="420" />
<glyph unicode="&#x2006;" horiz-adv-x="280" />
<glyph unicode="&#x2007;" horiz-adv-x="280" />
<glyph unicode="&#x2008;" horiz-adv-x="210" />
<glyph unicode="&#x2009;" horiz-adv-x="336" />
<glyph unicode="&#x200a;" horiz-adv-x="93" />
<glyph unicode="&#x2010;" d="M100 560v280h840v-280h-840z" />
<glyph unicode="&#x2011;" d="M100 560v280h840v-280h-840z" />
<glyph unicode="&#x2012;" d="M100 560v280h840v-280h-840z" />
<glyph unicode="&#x2013;" horiz-adv-x="684" />
<glyph unicode="&#x2014;" horiz-adv-x="894" />
<glyph unicode="&#x2018;" horiz-adv-x="237" />
<glyph unicode="&#x2019;" horiz-adv-x="240" />
<glyph unicode="&#x201a;" horiz-adv-x="234" />
<glyph unicode="&#x201c;" horiz-adv-x="342" />
<glyph unicode="&#x201d;" horiz-adv-x="300" />
<glyph unicode="&#x201e;" horiz-adv-x="402" />
<glyph unicode="&#x2022;" horiz-adv-x="387" />
<glyph unicode="&#x2026;" horiz-adv-x="792" />
<glyph unicode="&#x202f;" horiz-adv-x="336" />
<glyph unicode="&#x2039;" horiz-adv-x="321" />
<glyph unicode="&#x203a;" horiz-adv-x="321" />
<glyph unicode="&#x205f;" horiz-adv-x="420" />
<glyph unicode="&#x2122;" horiz-adv-x="681" />
<glyph unicode="&#xe000;" horiz-adv-x="1400" d="M0 0v1400h1400v-1400h-1400z" />
</font>
</defs>
</svg>
