<?xml version="1.0" encoding="utf-8"?>
<!-- Generator: Adobe Illustrator 19.0.1, SVG Export Plug-In . SVG Version: 6.00 Build 0)  -->
<svg version="1.2" baseProfile="tiny" id="Layer_1" xmlns="http://www.w3.org/2000/svg" xmlns:xlink="http://www.w3.org/1999/xlink"
	 x="0px" y="0px" viewBox="0 0 447 496" xml:space="preserve">
<g id="qgptTd.tif">
	<g>
		<g>
			<path d="M176,443c-8.7,0-17.3,0-26,0c-9.4-3.3-19.1-5.7-27.7-11.2c-2.8-1.8-5.1-6.3-9.8-3.2c-0.3,0.2-1.5-0.6-2-1.2
				c-2-2.7-4-5.2-3.8-8.9c0.2-3.7,0.3-7.4,0-11c-1.7-17.1-1.5-34.2-0.1-51.4c0.6-7.1,1.7-14.3,1.1-21.4c-1.7-19.3-2.3-38.6-1.7-57.9
				c0.1-3.2-0.1-6.3-0.4-9.5c-2-16.9-3.1-33.9-3.4-50.8c-0.1-7.4-2.3-13.2-7.1-18.4c0-3.7,0-7.3,0-11c3.8-10.7,5.1-22,8-32.9
				c1.7-6.5,3.3-12.8,3-19.6c-0.2-4.7,1.1-9.3,3.2-13.5c6.5-13.2,15.8-24.2,27.5-33.1c4.9-3.7,10.6-6.6,14.1-11.8
				c2.8-4.2,5.9-5,10.1-2.7c6.2,3.5,12.6,3.5,19.4,1.9c12.2-2.8,22.9-8.9,33.5-15.1c9.1-5.4,10.6-5.1,18.9,1.4
				c8.3,6.6,16.7,13.3,25.7,18.9c12.2,7.6,23.9,15.7,33.5,26.5c4.5,5.1,9.6,9.7,15,13.9c9.4,7.5,18.4,15.4,25.8,25
				c2.9,3.8,6.5,6.9,10.8,8.7c5.3,2.3,8.5,6.2,10.5,11.3c0,3.3,0,6.7,0,10c-2,4.9-3.5,10-6.5,14.5c-8.6,13-20.1,23.1-32.7,31.9
				c-3.3,2.3-7.2,3.5-11.1,4.3c-5.6,1.2-10.1-0.3-13.8-4.7c-2.6-3.1-5.4-5.9-8.2-8.8c-0.8-0.8-1.5-2.2-2.8-1.5
				c-0.6,0.4-0.8,1.7-0.9,2.7c-1.9,16.7-4.5,33.4-5.6,50.1c-1.3,19.8,1.3,39.6,2.3,59.4c1,18.3,4.7,36.4,3.5,54.8
				c-0.4,5.5-1.4,10.9-1.3,16.4c0.2,10.8,1.5,21.5-1.4,32.2c-1.5,5.5-1,5.8-6,2.9c-9.2-5.3-19-7-29.3-4.1
				C218.9,432.2,198,439.8,176,443z"/>
		</g>
	</g>
</g>
</svg>
