<?xml version="1.0" encoding="utf-8"?>
<!-- Generator: Adobe Illustrator 19.0.1, SVG Export Plug-In . SVG Version: 6.00 Build 0)  -->
<svg version="1.2" baseProfile="tiny" id="Layer_1" xmlns="http://www.w3.org/2000/svg" xmlns:xlink="http://www.w3.org/1999/xlink"
	 x="0px" y="0px" viewBox="0 0 447 496" xml:space="preserve">
<g id="UKKlYE.tif">
	<g>
		<g>
			<path d="M221,443c-10.7,0-21.3,0-32,0c-0.8-0.2-1.6-0.6-2.4-0.6c-16.6-0.7-31-6.8-44-16.9c-7.7-6-11.7-14.3-15.9-22.7
				c-2.3-4.7,2.1-8.1,2.7-12.2c0.1-0.8,0.3-1.6,0.5-2.5c4.6-19.4,4.8-39.3,6.9-59c1.4-13-1.4-25.9-1-38.9
				c0.5-20.2-1.1-40.3-3.5-60.3c-1.3-11.3-4.7-22.2-5.4-33.5c-0.7-11.4-5.7-14.3-16.1-9.1c-0.7,0.4-1.5,0.8-2.1,1.3
				c-13,8.8-27.5,15-40.1,24.4c-2.9,2.2-5.9,2.4-9-0.3c-3.1-2.7-6.5-5.1-9.4-8.2c-12.8-13.9-24.8-28.4-33-45.5c0-1.7,0-3.3,0-5
				c10.7-6.4,21.3-13.1,31.2-20.6c15.6-11.7,31.5-22.8,47.7-33.7c13.9-9.3,28.9-16.6,44.4-22c11.8-4,23.8-6.2,33.7-14.8
				c4.5-3.9,10.8-6.5,17.6-2.9c13.2,6.9,27.5,7,41.9,6.1c7.5-0.4,13.9-3.1,19.3-8.3c1.4-1.3,2.8-2.3,4.9-1.5
				c5.5,1.9,11,3.4,15.8,7.2c8.6,6.8,19.9,7.7,29.4,12.8c3.1,1.6,7.2,2,10.8,3.4c15.8,6.4,30.3,15.2,45.1,23.5
				c24.8,13.8,47.8,30.8,73.2,43.8c0,1.3,0,2.7,0,4c-0.4,0.9-0.9,1.8-1.3,2.7c-9.2,21.3-23.8,38.2-41.8,52.6
				c-4.1,3.3-7.9,3.6-12.7,0.8c-12.6-7.3-25.5-14.2-38.5-21c-11.7-6.1-17.1-3.5-21.3,8.7c-4,11.5-4.1,23.5-6.2,35.3
				c-1.3,7.6-1.2,14.8,0.6,22.2c3.1,12.7,4.8,25.5,2.9,38.6c-0.4,2.8-0.3,5.6,0.3,8.4c4.7,22,5.6,44.5,10.5,66.5
				c1.1,4.8,0.5,10.5,3.9,14.3c3.1,3.5,3.1,6.7,2.2,10.5c-0.3,1.3-0.7,2.5-0.2,3.9c1.3,4-0.1,7.4-2.3,10.8
				c-6.8,10.2-16.3,17.2-26.9,22.6c-19.2,9.7-39.6,14.7-61.2,13.6C233.5,440.9,227.2,441.8,221,443z"/>
		</g>
	</g>
</g>
</svg>
