<?xml version="1.0" encoding="utf-8"?>
<!-- Generator: Adobe Illustrator 19.0.1, SVG Export Plug-In . SVG Version: 6.00 Build 0)  -->
<svg version="1.2" baseProfile="tiny" id="Layer_1" xmlns="http://www.w3.org/2000/svg" xmlns:xlink="http://www.w3.org/1999/xlink"
	 x="0px" y="0px" viewBox="0 0 447 496" xml:space="preserve">
<g id="i20gX2.tif">
	<g>
		<g>
			<path d="M354,187c0,3.7,0,7.3,0,11c-4.8,5.2-7.8,11-7,18.5c0.3,2.6-0.2,5.3-0.3,8c-0.9,24.9-4.8,49.8-3.5,74.8
				c0.3,5.1-0.6,10.3-0.7,15.5c0,10.5-2.2,20.9-0.9,31.4c3.1,24.6,1.4,49.2,0.5,73.8c-0.2,5.2-3.1,7.4-8.9,7.4
				c-0.6,0-1.3,0.4-1.8,0.8c-9.4,8.1-21.2,11-32.5,14.8c-8.7,0-17.3,0-26,0c-22-3.2-42.9-10.8-64.2-16.8c-4.2-1.2-8.5-1.6-12.9-1.2
				c-6.5,0.5-12.3,2.7-17.8,6c-1.4,0.8-3.9,2.5-4.1-0.7c-0.5-5.5-3-10.6-2.8-16.2c0.4-10.5,1-20.8-0.2-31.4
				c-1-9.5-0.6-19.3,0.3-28.9c3.5-38.1,8.8-76.2,2.3-114.5c-1.4-8.2-1.8-16.6-2.7-24.8c-0.1-0.9-0.3-2.3-0.9-2.7
				c-1.3-0.8-2,0.7-2.8,1.5c-2.8,2.9-5.6,5.7-8.2,8.8c-3.7,4.4-8.3,5.9-13.8,4.7c-4.3-0.9-8.4-2.2-12-4.9
				c-16.4-12.3-32-25.2-38.3-45.9c0-3.3,0-6.7,0-10c2-5.1,5.2-9,10.5-11.3c4.3-1.9,7.9-5,10.8-8.7c7.3-9.5,16.1-17.3,25.4-24.6
				c6.4-5.1,12.3-10.7,17.7-16.8c3-3.4,6.5-6.2,9.8-9.2c9.5-8.5,21.3-13.6,31.1-21.6c5.8-4.7,11.9-9.1,17.9-13.5
				c6.9-5.1,8.3-5.2,15.6-0.7c6.8,4.2,13.8,8.1,21.2,11.3c11.4,4.8,22.8,8.9,34.9,2c2.5-1.4,5.1-0.9,6.7,1.5
				c3.8,6,9.8,9.5,15.3,13.4c10.2,7.4,17.8,17,24.7,27.2c3.6,5.4,6,11.6,6.3,18.2C343.7,151.6,349.6,169.2,354,187z"/>
		</g>
	</g>
</g>
</svg>
