<?xml version="1.0" encoding="utf-8"?>
<!-- Generator: Adobe Illustrator 19.0.1, SVG Export Plug-In . SVG Version: 6.00 Build 0)  -->
<svg version="1.2" baseProfile="tiny" id="Layer_1" xmlns="http://www.w3.org/2000/svg" xmlns:xlink="http://www.w3.org/1999/xlink"
	 x="0px" y="0px" viewBox="0 0 447 496" xml:space="preserve">
<g id="pHludN.tif">
	<g>
		<g>
			<path d="M425,126c0,2.7,0,5.3,0,8c-0.5,1.1-1,2.1-1.4,3.2c-7.5,20.3-19.3,37.9-34.8,53c-3.7,3.6-7,4-10.9,1.2
				c-5.2-3.8-11.2-5.8-17.2-7.8c-9.7-3.1-19.4-5.9-28.6-10.3c-5-2.4-7.1-0.7-7.7,5.1c-0.8,8.6-2,17.2-2.6,25.8
				c-1.2,15.6-5.9,30.8-4.4,46.6c0.8,8.6,0.6,17.3,1.2,25.9c1,14.9,0.4,30,4,44.7c2.1,8.6,3.1,17.4,4.9,26
				c1.8,8.5,3.2,17.2,7.2,24.8c2.6,4.8,2.5,9,0.7,13.7c-4.2,11.1-10.2,21.3-15.9,31.6c-6.6,11.9-16.6,18.2-29.4,21.1
				c-12.5,2.8-25.2,4.4-37.9,6.3c-14.7,0-29.3,0-44,0c-8.1-1.3-16.1-2.4-24.2-3.8c-23.1-3.9-38.9-21.3-40.8-44.8c-0.2-2-0.2-4,0.1-6
				c2.4-12.8,2.8-25.8,2.4-38.8c-0.2-5.5,0.3-11,0.8-16.4c1.1-12,4.8-23.9,2.3-36.2c-1.4-6.9-1.7-13.9-1.9-20.9
				c-0.3-8,0.6-16.4-1.5-23.9c-6.1-21.4-9.2-43.3-12.9-65.1c-1-5.9-2.9-7.5-8.5-5.5c-10.5,3.8-21.3,6.6-31.8,10.4
				c-4.5,1.6-9.4,2.4-13.1,5.9c-4.6,4.4-9.2,4.2-14.3,0.5c-17.3-12.2-30-28.2-38.6-47.5c-0.8-1.8-1.3-3.8-1.1-5.8
				c0.2-2.3,0.9-4.3,3.4-5c13.3-3.9,24.5-11.9,36.2-18.8c14.4-8.5,28.7-16.9,43-25.5c14.5-8.8,31.5-11.8,45.7-20.9
				c3.2-2,7.5-1.3,10.7-3.9c16.2-13.5,35.4-18.5,56-19.2c7.3-0.2,14.7-0.7,22,0.5c13.6,2.2,26.3,7.1,38.5,13.2c1.9,1,3.9,2,6.1,2.1
				c13.3,0.3,25.5,5,37.4,10.2c33.1,14.5,65.2,31.2,98.8,44.5C423.4,124.7,424.2,125.4,425,126z"/>
		</g>
	</g>
</g>
</svg>
