<?xml version="1.0" encoding="UTF-8" standalone="no"?>
<!-- Created with Inkscape (http://www.inkscape.org/) -->

<svg
   xmlns:dc="http://purl.org/dc/elements/1.1/"
   xmlns:cc="http://creativecommons.org/ns#"
   xmlns:rdf="http://www.w3.org/1999/02/22-rdf-syntax-ns#"
   xmlns:svg="http://www.w3.org/2000/svg"
   xmlns="http://www.w3.org/2000/svg"
   xmlns:sodipodi="http://sodipodi.sourceforge.net/DTD/sodipodi-0.dtd"
   xmlns:inkscape="http://www.inkscape.org/namespaces/inkscape"
   width="744.09448819"
   height="1052.3622047"
   id="svg5444"
   version="1.1"
   inkscape:version="0.48.4 r9939"
   sodipodi:docname="hh2.svg">
  <defs
     id="defs5446">
    <clipPath
       clipPathUnits="userSpaceOnUse"
       id="clipPath3074">
      <rect
         style="fill:none;stroke:none"
         id="rect3076"
         width="52.500072"
         height="1338.6436"
         x="281.42853"
         y="-517.6665" />
    </clipPath>
    <pattern
       patternUnits="userSpaceOnUse"
       width="11.930507"
       height="304.20332"
       patternTransform="translate(400.9256,105.92778)"
	   y="100"
       id="halftone_fade">
      <g
         transform="matrix(0.22724744,0,0,-0.22724744,-63.953912,186.56493)"
         clip-path="url(#clipPath3074)"
         id="g3043">
        <rect
           class="infbase1" style="fill:#ef2e32;fill-opacity:1;stroke:none"
           id="rect6705"
           width="345.22397"
           height="1527.7374"
           x="160.60568"
           y="-573.48041" />
        <path
           sodipodi:type="arc"
           class="infbase2" style="fill:#8c181d;fill-opacity:1;stroke:none"
           id="path6247"
           sodipodi:cx="101.46915"
           sodipodi:cy="283.3685"
           sodipodi:rx="26.079546"
           sodipodi:ry="26.079546"
           d="m 127.54869,283.3685 c 0,14.40334 -11.67621,26.07955 -26.07954,26.07955 -14.403339,0 -26.079549,-11.67621 -26.079549,-26.07955 0,-14.40334 11.67621,-26.07955 26.079549,-26.07955 14.40333,0 26.07954,11.67621 26.07954,26.07955 z"
           transform="matrix(1.0087322,0,0,0.98094345,205.41009,-564.51871)" />
        <path
           sodipodi:type="arc"
           class="infbase2" style="fill:#8c181d;fill-opacity:1;stroke:none"
           id="path6247-8"
           sodipodi:cx="101.46915"
           sodipodi:cy="283.3685"
           sodipodi:rx="26.079546"
           sodipodi:ry="26.079546"
           d="m 127.54869,283.3685 c 0,14.40334 -11.67621,26.07955 -26.07954,26.07955 -14.403339,0 -26.079549,-11.67621 -26.079549,-26.07955 0,-14.40334 11.67621,-26.07955 26.079549,-26.07955 14.40333,0 26.07954,11.67621 26.07954,26.07955 z"
           transform="matrix(1.0087322,0,0,0.98094345,205.41009,-525.58871)" />
        <path
           sodipodi:type="arc"
           class="infbase2" style="fill:#8c181d;fill-opacity:1;stroke:none"
           id="path6247-8-0"
           sodipodi:cx="101.46915"
           sodipodi:cy="283.3685"
           sodipodi:rx="26.079546"
           sodipodi:ry="26.079546"
           d="m 127.54869,283.3685 c 0,14.40334 -11.67621,26.07955 -26.07954,26.07955 -14.403339,0 -26.079549,-11.67621 -26.079549,-26.07955 0,-14.40334 11.67621,-26.07955 26.079549,-26.07955 14.40333,0 26.07954,11.67621 26.07954,26.07955 z"
           transform="matrix(1.0087322,0,0,0.98094345,205.41009,-482.87708)" />
        <path
           sodipodi:type="arc"
           class="infbase2" style="fill:#8c181d;fill-opacity:1;stroke:none"
           id="path6247-8-0-4"
           sodipodi:cx="101.46915"
           sodipodi:cy="283.3685"
           sodipodi:rx="26.079546"
           sodipodi:ry="26.079546"
           d="m 127.54869,283.3685 c 0,14.40334 -11.67621,26.07955 -26.07954,26.07955 -14.403339,0 -26.079549,-11.67621 -26.079549,-26.07955 0,-14.40334 11.67621,-26.07955 26.079549,-26.07955 14.40333,0 26.07954,11.67621 26.07954,26.07955 z"
           transform="matrix(0.92101639,0,0,0.89564404,214.31054,-415.99408)" />
        <path
           sodipodi:type="arc"
           class="infbase2" style="fill:#8c181d;fill-opacity:1;stroke:none"
           id="path6247-8-0-4-0"
           sodipodi:cx="101.46915"
           sodipodi:cy="283.3685"
           sodipodi:rx="26.079546"
           sodipodi:ry="26.079546"
           d="m 127.54869,283.3685 c 0,14.40334 -11.67621,26.07955 -26.07954,26.07955 -14.403339,0 -26.079549,-11.67621 -26.079549,-26.07955 0,-14.40334 11.67621,-26.07955 26.079549,-26.07955 14.40333,0 26.07954,11.67621 26.07954,26.07955 z"
           transform="matrix(0.86838689,0,0,0.84446437,219.65081,-359.66946)" />
        <path
           sodipodi:type="arc"
           class="infbase2" style="fill:#8c181d;fill-opacity:1;stroke:none"
           id="path6247-8-0-4-0-1"
           sodipodi:cx="101.46915"
           sodipodi:cy="283.3685"
           sodipodi:rx="26.079546"
           sodipodi:ry="26.079546"
           d="m 127.54869,283.3685 c 0,14.40334 -11.67621,26.07955 -26.07954,26.07955 -14.403339,0 -26.079549,-11.67621 -26.079549,-26.07955 0,-14.40334 11.67621,-26.07955 26.079549,-26.07955 14.40333,0 26.07954,11.67621 26.07954,26.07955 z"
           transform="matrix(0.82891475,0,0,0.80607964,223.65601,-306.63683)" />
        <path
           sodipodi:type="arc"
           class="infbase2" style="fill:#8c181d;fill-opacity:1;stroke:none"
           id="path6247-8-0-4-0-1-3"
           sodipodi:cx="101.46915"
           sodipodi:cy="283.3685"
           sodipodi:rx="26.079546"
           sodipodi:ry="26.079546"
           d="m 127.54869,283.3685 c 0,14.40334 -11.67621,26.07955 -26.07954,26.07955 -14.403339,0 -26.079549,-11.67621 -26.079549,-26.07955 0,-14.40334 11.67621,-26.07955 26.079549,-26.07955 14.40333,0 26.07954,11.67621 26.07954,26.07955 z"
           transform="matrix(0.82891475,0,0,0.80607964,223.65601,-264.03633)" />
        <path
           sodipodi:type="arc"
           class="infbase2" style="fill:#8c181d;fill-opacity:1;stroke:none"
           id="path6247-8-0-4-0-1-3-9"
           sodipodi:cx="101.46915"
           sodipodi:cy="283.3685"
           sodipodi:rx="26.079546"
           sodipodi:ry="26.079546"
           d="m 127.54869,283.3685 c 0,14.40334 -11.67621,26.07955 -26.07954,26.07955 -14.403339,0 -26.079549,-11.67621 -26.079549,-26.07955 0,-14.40334 11.67621,-26.07955 26.079549,-26.07955 14.40333,0 26.07954,11.67621 26.07954,26.07955 z"
           transform="matrix(0.82891475,0,0,0.80607964,223.65601,-218.87745)" />
        <path
           sodipodi:type="arc"
           class="infbase2" style="fill:#8c181d;fill-opacity:1;stroke:none"
           id="path6247-8-0-4-0-1-3-9-1"
           sodipodi:cx="101.46915"
           sodipodi:cy="283.3685"
           sodipodi:rx="26.079546"
           sodipodi:ry="26.079546"
           d="m 127.54869,283.3685 c 0,14.40334 -11.67621,26.07955 -26.07954,26.07955 -14.403339,0 -26.079549,-11.67621 -26.079549,-26.07955 0,-14.40334 11.67621,-26.07955 26.079549,-26.07955 14.40333,0 26.07954,11.67621 26.07954,26.07955 z"
           transform="matrix(0.7411989,0,0,0.7207802,232.55647,-150.88233)" />
        <path
           sodipodi:type="arc"
           class="infbase2" style="fill:#8c181d;fill-opacity:1;stroke:none"
           id="path6247-8-0-4-0-1-3-9-1-1"
           sodipodi:cx="101.46915"
           sodipodi:cy="283.3685"
           sodipodi:rx="26.079546"
           sodipodi:ry="26.079546"
           d="m 127.54869,283.3685 c 0,14.40334 -11.67621,26.07955 -26.07954,26.07955 -14.403339,0 -26.079549,-11.67621 -26.079549,-26.07955 0,-14.40334 11.67621,-26.07955 26.079549,-26.07955 14.40333,0 26.07954,11.67621 26.07954,26.07955 z"
           transform="matrix(0.7411989,0,0,0.7207802,232.55647,-109.06042)" />
        <path
           sodipodi:type="arc"
           class="infbase2" style="fill:#8c181d;fill-opacity:1;stroke:none"
           id="path6247-8-0-4-0-1-3-9-1-1-6"
           sodipodi:cx="101.46915"
           sodipodi:cy="283.3685"
           sodipodi:rx="26.079546"
           sodipodi:ry="26.079546"
           d="m 127.54869,283.3685 c 0,14.40334 -11.67621,26.07955 -26.07954,26.07955 -14.403339,0 -26.079549,-11.67621 -26.079549,-26.07955 0,-14.40334 11.67621,-26.07955 26.079549,-26.07955 14.40333,0 26.07954,11.67621 26.07954,26.07955 z"
           transform="matrix(0.64471147,0,0,0.62695083,242.34696,-38.648094)" />
        <path
           sodipodi:type="arc"
           class="infbase2" style="fill:#8c181d;fill-opacity:1;stroke:none"
           id="path6247-8-0-4-0-1-3-9-1-1-6-5"
           sodipodi:cx="101.46915"
           sodipodi:cy="283.3685"
           sodipodi:rx="26.079546"
           sodipodi:ry="26.079546"
           d="m 127.54869,283.3685 c 0,14.40334 -11.67621,26.07955 -26.07954,26.07955 -14.403339,0 -26.079549,-11.67621 -26.079549,-26.07955 0,-14.40334 11.67621,-26.07955 26.079549,-26.07955 14.40333,0 26.07954,11.67621 26.07954,26.07955 z"
           transform="matrix(0.60962512,0,0,0.59283105,245.90714,13.732126)" />
        <path
           sodipodi:type="arc"
           class="infbase2" style="fill:#8c181d;fill-opacity:1;stroke:none"
           id="path6247-8-0-4-0-1-3-9-1-1-6-5-7"
           sodipodi:cx="101.46915"
           sodipodi:cy="283.3685"
           sodipodi:rx="26.079546"
           sodipodi:ry="26.079546"
           d="m 127.54869,283.3685 c 0,14.40334 -11.67621,26.07955 -26.07954,26.07955 -14.403339,0 -26.079549,-11.67621 -26.079549,-26.07955 0,-14.40334 11.67621,-26.07955 26.079549,-26.07955 14.40333,0 26.07954,11.67621 26.07954,26.07955 z"
           transform="matrix(0.57453879,0,0,0.55871127,249.46733,66.557266)" />
        <path
           sodipodi:type="arc"
           class="infbase2" style="fill:#8c181d;fill-opacity:1;stroke:none"
           id="path6247-8-0-4-0-1-3-9-1-1-6-5-7-2"
           sodipodi:cx="101.46915"
           sodipodi:cy="283.3685"
           sodipodi:rx="26.079546"
           sodipodi:ry="26.079546"
           d="m 127.54869,283.3685 c 0,14.40334 -11.67621,26.07955 -26.07954,26.07955 -14.403339,0 -26.079549,-11.67621 -26.079549,-26.07955 0,-14.40334 11.67621,-26.07955 26.079549,-26.07955 14.40333,0 26.07954,11.67621 26.07954,26.07955 z"
           transform="matrix(0.52629507,0,0,0.51179657,254.36257,122.2295)" />
        <path
           sodipodi:type="arc"
           class="infbase2" style="fill:#8c181d;fill-opacity:1;stroke:none"
           id="path6247-8-0-4-0-1-3-9-1-1-6-5-7-2-0"
           sodipodi:cx="101.46915"
           sodipodi:cy="283.3685"
           sodipodi:rx="26.079546"
           sodipodi:ry="26.079546"
           d="m 127.54869,283.3685 c 0,14.40334 -11.67621,26.07955 -26.07954,26.07955 -14.403339,0 -26.079549,-11.67621 -26.079549,-26.07955 0,-14.40334 11.67621,-26.07955 26.079549,-26.07955 14.40333,0 26.07954,11.67621 26.07954,26.07955 z"
           transform="matrix(0.5087519,0,0,0.4947367,256.14266,170.33162)" />
        <path
           sodipodi:type="arc"
           class="infbase2" style="fill:#8c181d;fill-opacity:1;stroke:none"
           id="path6247-8-0-4-0-1-3-9-1-1-6-5-7-2-0-8"
           sodipodi:cx="101.46915"
           sodipodi:cy="283.3685"
           sodipodi:rx="26.079546"
           sodipodi:ry="26.079546"
           d="m 127.54869,283.3685 c 0,14.40334 -11.67621,26.07955 -26.07954,26.07955 -14.403339,0 -26.079549,-11.67621 -26.079549,-26.07955 0,-14.40334 11.67621,-26.07955 26.079549,-26.07955 14.40333,0 26.07954,11.67621 26.07954,26.07955 z"
           transform="matrix(0.43857923,0,0,0.42649715,263.26303,232.60277)" />
        <path
           sodipodi:type="arc"
           class="infbase2" style="fill:#8c181d;fill-opacity:1;stroke:none"
           id="path6247-8-0-4-0-1-3-9-1-1-6-5-7-2-0-8-1"
           sodipodi:cx="101.46915"
           sodipodi:cy="283.3685"
           sodipodi:rx="26.079546"
           sodipodi:ry="26.079546"
           d="m 127.54869,283.3685 c 0,14.40334 -11.67621,26.07955 -26.07954,26.07955 -14.403339,0 -26.079549,-11.67621 -26.079549,-26.07955 0,-14.40334 11.67621,-26.07955 26.079549,-26.07955 14.40333,0 26.07954,11.67621 26.07954,26.07955 z"
           transform="matrix(0.40349288,0,0,0.39237738,266.82321,285.20543)" />
        <path
           sodipodi:type="arc"
           class="infbase2" style="fill:#8c181d;fill-opacity:1;stroke:none"
           id="path6247-8-0-4-0-1-3-9-1-1-6-5-7-2-0-8-1-3"
           sodipodi:cx="101.46915"
           sodipodi:cy="283.3685"
           sodipodi:rx="26.079546"
           sodipodi:ry="26.079546"
           d="m 127.54869,283.3685 c 0,14.40334 -11.67621,26.07955 -26.07954,26.07955 -14.403339,0 -26.079549,-11.67621 -26.079549,-26.07955 0,-14.40334 11.67621,-26.07955 26.079549,-26.07955 14.40333,0 26.07954,11.67621 26.07954,26.07955 z"
           transform="matrix(0.35963495,0,0,0.34972765,271.27343,340.00278)" />
        <path
           sodipodi:type="arc"
           class="infbase2" style="fill:#8c181d;fill-opacity:1;stroke:none"
           id="path6247-8-0-4-0-1-3-9-1-1-6-5-7-2-0-8-1-3-8"
           sodipodi:cx="101.46915"
           sodipodi:cy="283.3685"
           sodipodi:rx="26.079546"
           sodipodi:ry="26.079546"
           d="m 127.54869,283.3685 c 0,14.40334 -11.67621,26.07955 -26.07954,26.07955 -14.403339,0 -26.079549,-11.67621 -26.079549,-26.07955 0,-14.40334 11.67621,-26.07955 26.079549,-26.07955 14.40333,0 26.07954,11.67621 26.07954,26.07955 z"
           transform="matrix(0.31577704,0,0,0.30707794,275.72366,395.02256)" />
        <path
           sodipodi:type="arc"
           class="infbase2" style="fill:#8c181d;fill-opacity:1;stroke:none"
           id="path6247-8-0-4-0-1-3-9-1-1-6-5-7-2-0-8-1-3-8-9"
           sodipodi:cx="101.46915"
           sodipodi:cy="283.3685"
           sodipodi:rx="26.079546"
           sodipodi:ry="26.079546"
           d="m 127.54869,283.3685 c 0,14.40334 -11.67621,26.07955 -26.07954,26.07955 -14.403339,0 -26.079549,-11.67621 -26.079549,-26.07955 0,-14.40334 11.67621,-26.07955 26.079549,-26.07955 14.40333,0 26.07954,11.67621 26.07954,26.07955 z"
           transform="matrix(0.27630491,0,0,0.2686932,279.72887,448.72257)" />
        <path
           sodipodi:type="arc"
           class="infbase2" style="fill:#8c181d;fill-opacity:1;stroke:none"
           id="path6247-8-0-4-0-1-3-9-1-1-6-5-7-2-0-8-1-3-8-9-5"
           sodipodi:cx="101.46915"
           sodipodi:cy="283.3685"
           sodipodi:rx="26.079546"
           sodipodi:ry="26.079546"
           d="m 127.54869,283.3685 c 0,14.40334 -11.67621,26.07955 -26.07954,26.07955 -14.403339,0 -26.079549,-11.67621 -26.079549,-26.07955 0,-14.40334 11.67621,-26.07955 26.079549,-26.07955 14.40333,0 26.07954,11.67621 26.07954,26.07955 z"
           transform="matrix(0.23683277,0,0,0.23030845,283.73407,502.5338)" />
        <path
           sodipodi:type="arc"
           class="infbase2" style="fill:#8c181d;fill-opacity:1;stroke:none"
           id="path6247-8-0-4-0-1-3-9-1-1-6-5-7-2-0-8-1-3-8-9-5-3"
           sodipodi:cx="101.46915"
           sodipodi:cy="283.3685"
           sodipodi:rx="26.079546"
           sodipodi:ry="26.079546"
           d="m 127.54869,283.3685 c 0,14.40334 -11.67621,26.07955 -26.07954,26.07955 -14.403339,0 -26.079549,-11.67621 -26.079549,-26.07955 0,-14.40334 11.67621,-26.07955 26.079549,-26.07955 14.40333,0 26.07954,11.67621 26.07954,26.07955 z"
           transform="matrix(0.19736065,0,0,0.19192371,287.73928,555.9001)" />
        <path
           sodipodi:type="arc"
           class="infbase2" style="fill:#8c181d;fill-opacity:1;stroke:none"
           id="path6247-8-0-4-0-1-3-9-1-1-6-5-7-2-0-8-1-3-8-9-5-3-4"
           sodipodi:cx="101.46915"
           sodipodi:cy="283.3685"
           sodipodi:rx="26.079546"
           sodipodi:ry="26.079546"
           d="m 127.54869,283.3685 c 0,14.40334 -11.67621,26.07955 -26.07954,26.07955 -14.403339,0 -26.079549,-11.67621 -26.079549,-26.07955 0,-14.40334 11.67621,-26.07955 26.079549,-26.07955 14.40333,0 26.07954,11.67621 26.07954,26.07955 z"
           transform="matrix(0.1632472,0,0,0.15875004,291.20074,608.5558)" />
        <path
           sodipodi:type="arc"
           class="infbase2" style="fill:#8c181d;fill-opacity:1;stroke:none"
           id="path6247-8-0-4-0-1-3-9-1-1-6-5-7-2-0-8-1-3-8-9-5-3-4-3"
           sodipodi:cx="101.46915"
           sodipodi:cy="283.3685"
           sodipodi:rx="26.079546"
           sodipodi:ry="26.079546"
           d="m 127.54869,283.3685 c 0,14.40334 -11.67621,26.07955 -26.07954,26.07955 -14.403339,0 -26.079549,-11.67621 -26.079549,-26.07955 0,-14.40334 11.67621,-26.07955 26.079549,-26.07955 14.40333,0 26.07954,11.67621 26.07954,26.07955 z"
           transform="matrix(0.12603251,0,0,0.12256055,294.97688,661.5179)" />
        <path
           sodipodi:type="arc"
           class="infbase2" style="fill:#8c181d;fill-opacity:1;stroke:none"
           id="path6247-8-0-4-0-1-3-9-1-1-6-5-7-2-0-8-1-3-8-9-5-3-4-3-8"
           sodipodi:cx="101.46915"
           sodipodi:cy="283.3685"
           sodipodi:rx="26.079546"
           sodipodi:ry="26.079546"
           d="m 127.54869,283.3685 c 0,14.40334 -11.67621,26.07955 -26.07954,26.07955 -14.403339,0 -26.079549,-11.67621 -26.079549,-26.07955 0,-14.40334 11.67621,-26.07955 26.079549,-26.07955 14.40333,0 26.07954,11.67621 26.07954,26.07955 z"
           transform="matrix(0.0822553,0,0,0.07998931,299.41892,716.6448)" />
        <path
           sodipodi:type="arc"
           class="infbase2" style="fill:#8c181d;fill-opacity:1;stroke:none"
           id="path6247-2"
           sodipodi:cx="101.46915"
           sodipodi:cy="283.3685"
           sodipodi:rx="26.079546"
           sodipodi:ry="26.079546"
           d="m 127.54869,283.3685 c 0,14.40334 -11.67621,26.07955 -26.07954,26.07955 -14.403339,0 -26.079549,-11.67621 -26.079549,-26.07955 0,-14.40334 11.67621,-26.07955 26.079549,-26.07955 14.40333,0 26.07954,11.67621 26.07954,26.07955 z"
           transform="matrix(1.0087322,0,0,0.98094345,205.41009,-606.02408)" />
      </g>
    </pattern>
  </defs>
  <sodipodi:namedview
     id="base"
     pagecolor="#ffffff"
     bordercolor="#666666"
     borderopacity="1.0"
     inkscape:pageopacity="0.0"
     inkscape:pageshadow="2"
     inkscape:zoom="0.7"
     inkscape:cx="634.86722"
     inkscape:cy="668.44946"
     inkscape:document-units="px"
     inkscape:current-layer="layer1"
     showgrid="false"
     inkscape:window-width="1366"
     inkscape:window-height="705"
     inkscape:window-x="-4"
     inkscape:window-y="-4"
     inkscape:window-maximized="1" />
  <metadata
     id="metadata5449">
    <rdf:RDF>
      <cc:Work
         rdf:about="">
        <dc:format>image/svg+xml</dc:format>
        <dc:type
           rdf:resource="http://purl.org/dc/dcmitype/StillImage" />
      </cc:Work>
    </rdf:RDF>
  </metadata>
  <g
     inkscape:label="Layer 1"
     inkscape:groupmode="layer"
     id="layer1">
    <rect
       style="stroke:none;fill:url(#pattern6248)"
       width="11.930507"
       height="304.20332"
       x="400.9256"
       y="105.92778"
       id="rect6280" />
  </g>
</svg>
